<?xml version="1.0" standalone="no"?>
<!DOCTYPE svg PUBLIC "-//W3C//DTD SVG 1.1//EN" "http://www.w3.org/Graphics/SVG/1.1/DTD/svg11.dtd" >
<svg xmlns="http://www.w3.org/2000/svg" xmlns:xlink="http://www.w3.org/1999/xlink" version="1.1">
<metadata>
Created by FontForge 20201107 at Wed Feb 19 16:35:02 2020
 By 
Copyright (c) 2020 by Rodrigo Lo'pez Fuentes. All rights reserved.
</metadata>
<defs>
<font id="Mondo-Medium" horiz-adv-x="372" >
  <font-face 
    font-family="Mondo Medium"
    font-weight="400"
    font-stretch="normal"
    units-per-em="1000"
    panose-1="0 0 7 0 0 0 0 0 0 0"
    ascent="783"
    descent="-217"
    x-height="491"
    cap-height="613"
    bbox="-458.121 -338 1448 1007"
    underline-thickness="50"
    underline-position="-150"
    unicode-range="U+0020-FB02"
  />
<missing-glyph horiz-adv-x="461" 
d="M378 722v-922h-292v922h292zM307 660h-152v-30h60v-34h-61v-31h153v31h-61v34h61v30zM246 541h-92v-96h153v32h-61v64zM215 510v-33h-31v33h31zM307 421h-153v-31h61v-34h-61v-30h92v64h61v31zM307 365h-30v-61h-123v-31h153v92zM307 253h-92v-52h31v21h31v-43h-93v74
h-30v-104h153v104zM307 93h-153v-104h153v104zM277 63v-44h-93v44h93zM307 -32h-153v-31h65l-65 -43v-30h153v30h-94l65 43h29v31z" />
    <glyph glyph-name="fi" unicode="fi" horiz-adv-x="575" 
d="M368 0q19 31 19 125v241v32h-181v-287q0 -89 21 -111h-152q19 23 19 111v287h-66v92h66v32q0 200 222 200q43 0 92 -9.5t74 -21.5l-20 -100q-16 16 -60.5 29t-82.5 13q-61 0 -87 -24.5t-26 -88.5v-30h302q-9 -35 -9 -124v-241q0 -94 19 -125h-150z" />
    <glyph glyph-name="fl" unicode="fl" horiz-adv-x="585" 
d="M377 0q19 31 19 125v458v21q-26 29 -93 29q-52 0 -74.5 -25t-22.5 -83v-35h101v-100q-31 8 -101 8v-287q0 -89 21 -111h-152q19 23 19 111v287h-66v92h66v37q0 195 203 195q53 0 97 -14h125q-11 -33 -11 -125v-458q0 -94 19 -125h-150z" />
    <glyph glyph-name="f_f" unicode="ff" horiz-adv-x="617" 
d="M590 632q-42 0 -62 -22t-20 -73v-47h99v-100q-29 8 -99 8v-287q0 -89 21 -111h-153q20 22 20 111v287h-190v-287q0 -89 21 -111h-152q19 23 19 111v287h-66v92h66v48q0 183 191 183q22 0 51.5 -3.5t40.5 -2.5l-11 -104q-23 21 -78 21q-42 0 -62 -22t-20 -73v-47h190v48
q0 183 191 183q22 0 51.5 -3.5t40.5 -2.5l-11 -104q-24 21 -78 21z" />
    <glyph glyph-name="f_f_i" unicode="ffi" horiz-adv-x="876" 
d="M669 0q19 31 19 125v241v32h-181v-287q0 -89 21 -111h-152q19 23 19 111v287h-189v-287q0 -89 21 -111h-152q19 23 19 111v287h-66v92h66v48q0 183 191 183q22 0 51.5 -3.5t40.5 -2.5l-11 -104q-23 21 -78 21q-42 0 -62 -22t-20 -73v-47h189v32q0 200 222 200
q43 0 92 -9.5t74 -21.5l-20 -100q-16 16 -60.5 29t-82.5 13q-61 0 -87 -24.5t-26 -88.5v-30h302q-9 -35 -9 -124v-241q0 -94 19 -125h-150z" />
    <glyph glyph-name="f_f_l" unicode="ffl" horiz-adv-x="886" 
d="M678 0q19 29 19 125v458v22q-25 28 -93 28q-51 0 -74 -25t-23 -83v-35h101v-100q-29 8 -101 8v-287q0 -89 22 -111h-153q19 21 19 111v287h-189v-287q0 -89 21 -111h-152q19 23 19 111v287h-66v92h66v48q0 183 191 183q22 0 51.5 -3.5t40.5 -2.5l-11 -104q-23 21 -78 21
q-42 0 -62 -22t-20 -73v-47h189v37q0 195 204 195q51 0 97 -14h125q-12 -36 -12 -125v-458q0 -94 20 -125h-151z" />
    <glyph glyph-name=".notdef" horiz-adv-x="461" 
d="M378 722v-922h-292v922h292zM307 660h-152v-30h60v-34h-61v-31h153v31h-61v34h61v30zM246 541h-92v-96h153v32h-61v64zM215 510v-33h-31v33h31zM307 421h-153v-31h61v-34h-61v-30h92v64h61v31zM307 365h-30v-61h-123v-31h153v92zM307 253h-92v-52h31v21h31v-43h-93v74
h-30v-104h153v104zM307 93h-153v-104h153v104zM277 63v-44h-93v44h93zM307 -32h-153v-31h65l-65 -43v-30h153v30h-94l65 43h29v31z" />
    <glyph glyph-name=".null" horiz-adv-x="0" 
 />
    <glyph glyph-name="nonmarkingreturn" horiz-adv-x="333" 
 />
    <glyph glyph-name="space" unicode=" " horiz-adv-x="201" 
 />
    <glyph glyph-name="exclam" unicode="!" horiz-adv-x="314" 
d="M80 670h154q-13 -17 -17.5 -45.5t-4.5 -95.5v-291h-110v291q0 67 -4.5 95.5t-17.5 45.5zM157 -12q-34 0 -55 21.5t-21 55.5q0 36 21 57.5t55 21.5t55 -21.5t21 -57.5q0 -34 -21 -55.5t-55 -21.5z" />
    <glyph glyph-name="quotedbl" unicode="&#x22;" horiz-adv-x="430" 
d="M129 559l-8 110l67 21l22 -71l-13 -149l-44 -39zM226 559l-9 110l67 21l23 -71l-13 -149l-45 -39z" />
    <glyph glyph-name="numbersign" unicode="#" horiz-adv-x="499" 
d="M110 157l-56 46l-18 44l67 14l33 114l-61 34l-19 44l70 14l39 141l46 42l-5 -141l98 -42l48 141l46 42l-5 -141l56 -42l19 -44l-67 -14l-34 -114l62 -34l19 -43l-71 -15l-40 -157l-47 -46l6 157l-96 46l-49 -157l-47 -46zM279 261l43 114l-97 34l-44 -114z" />
    <glyph glyph-name="dollar" unicode="$" horiz-adv-x="528" 
d="M480 165q0 -71 -42 -118t-128 -57q0 -53 13 -88l-101 1q13 33 13 86q-49 5 -113 27.5t-80 24.5l51 125q53 -72 142 -86v169q-167 48 -167 172q0 68 43.5 111t123.5 52q0 55 -13 90h101q-13 -36 -13 -90q39 -4 93.5 -21.5t66.5 -19.5l-47 -111q-49 52 -113 63v-158l15 -5
q76 -23 115.5 -61.5t39.5 -105.5zM178 426q0 -40 57 -65v132q-57 -11 -57 -67zM310 82q61 12 61 72q0 27 -14.5 43t-46.5 28v-143z" />
    <glyph glyph-name="percent" unicode="%" horiz-adv-x="872" 
d="M483 511l134 157l-226 -523l-134 -157zM191 268q-71 0 -113 52t-42 146q0 93 42 144.5t113 51.5t113.5 -51.5t42.5 -144.5q0 -94 -42.5 -146t-113.5 -52zM191 337q71 0 71 129q0 127 -71 127t-71 -127q0 -129 71 -129zM681 -12q-71 0 -113 52t-42 146q0 93 42 144.5
t113 51.5t113.5 -51.5t42.5 -144.5q0 -94 -42.5 -146t-113.5 -52zM681 57q71 0 71 129q0 127 -71 127q-72 0 -72 -127q0 -129 72 -129z" />
    <glyph glyph-name="ampersand" unicode="&#x26;" horiz-adv-x="688" 
d="M672 0h-196q0 25 -28 57q-92 -72 -198 -72q-87 0 -146 52.5t-59 132.5q0 120 141 196q-36 69 -36 134q0 85 55.5 132t133.5 47q76 0 124.5 -43t48.5 -117q0 -65 -46 -109t-135 -78q43 -57 119 -133q27 42 8 75h145q-33 -78 -84 -144q84 -81 153 -130zM339 583
q-36 0 -58.5 -21.5t-22.5 -63.5t24 -91q71 26 97 49t26 59q0 30 -18 49t-48 19zM155 178q0 -43 28 -70t77 -27q59 0 119 46l-16 16q-77 75 -129 146q-79 -45 -79 -111z" />
    <glyph glyph-name="quotesingle" unicode="'" horiz-adv-x="210" 
d="M69 585l-12 93l67 14l28 -48l-17 -165l-40 -46z" />
    <glyph glyph-name="parenleft" unicode="(" horiz-adv-x="339" 
d="M236 -178q-92 92 -135.5 201t-43.5 255t43.5 255t135.5 201l67 -83q-64 -24 -99 -118t-35 -255t35 -255t99 -118z" />
    <glyph glyph-name="parenright" unicode=")" horiz-adv-x="339" 
d="M103 -178l-66 83q63 24 98.5 118t35.5 255t-35.5 255t-98.5 118l66 83q92 -91 136 -200.5t44 -255.5t-44 -255.5t-136 -200.5z" />
    <glyph glyph-name="asterisk" unicode="*" horiz-adv-x="419" 
d="M105 437l33 80l-63 55l-11 47l83 -7l32 80l42 25l20 -82l84 -6l37 -33l-71 -43l22 -84l-20 -46l-65 58l-73 -47z" />
    <glyph glyph-name="plus" unicode="+" horiz-adv-x="478" 
d="M379 340q40 0 56 10v-105q-16 10 -56 10h-95v-104q0 -40 10 -56h-110q10 16 10 56v104h-96q-40 0 -56 -10v105q16 -10 56 -10h96v104q0 40 -10 56h110q-10 -16 -10 -56v-104h95z" />
    <glyph glyph-name="comma" unicode="," horiz-adv-x="267" 
d="M48 -116q45 14 71 45t25 67h-9q-28 2 -48 19.5t-20 48.5q0 30 20 48.5t51 18.5q39 0 60 -29t21 -80q0 -71 -38.5 -123t-108.5 -75z" />
    <glyph glyph-name="hyphen" unicode="-" horiz-adv-x="323" 
d="M42 262l177 34l62 -56l-177 -34z" />
    <glyph glyph-name="hyphen" unicode="&#x2011;" horiz-adv-x="323" 
d="M42 262l177 34l62 -56l-177 -34z" />
    <glyph glyph-name="hyphen" unicode="&#x2010;" horiz-adv-x="323" 
d="M42 262l177 34l62 -56l-177 -34z" />
    <glyph glyph-name="period" unicode="." horiz-adv-x="268" 
d="M134 -12q-29 0 -49.5 21t-20.5 52q0 32 20 53t50 21t50 -21t20 -53q0 -31 -20.5 -52t-49.5 -21z" />
    <glyph glyph-name="slash" unicode="/" horiz-adv-x="396" 
d="M256 710h126l-224 -734q-26 -91 -18 -136h-126l220 721q32 107 22 149z" />
    <glyph glyph-name="zero" unicode="0" horiz-adv-x="547" 
d="M274 -12q-240 0 -240 341q0 338 240 338q239 0 239 -338q0 -175 -62.5 -258t-176.5 -83zM274 86q59 0 91 54.5t32 188.5t-32 187t-91 53q-60 0 -92 -53.5t-32 -186.5q0 -134 32 -188.5t92 -54.5z" />
    <glyph glyph-name="one" unicode="1" horiz-adv-x="518" 
d="M75 69l143 31v437h-117v78q47 4 116.5 19.5t113.5 32.5v-567l129 -31v-69h-385v69z" />
    <glyph glyph-name="two" unicode="2" horiz-adv-x="512" 
d="M333 102q106 0 134 18v-120h-425l-3 85q135 109 210.5 207t75.5 168q0 49 -26 76.5t-69 27.5q-42 0 -79.5 -21.5t-60.5 -57.5l-55 115q17 5 52.5 22.5t74 30.5t78.5 13q88 0 144.5 -54t56.5 -141q0 -170 -228 -369h120z" />
    <glyph glyph-name="three" unicode="3" horiz-adv-x="509" 
d="M238 -12q-56 0 -122.5 22t-83.5 23l52 125q24 -31 63 -50t83 -19q52 0 83.5 24t31.5 69q0 49 -45 78t-141 29v94q85 0 125 27t40 73q0 38 -25 60.5t-69 22.5q-77 0 -128 -62l-47 112q10 2 74 25.5t108 23.5q90 0 145.5 -46.5t55.5 -128.5q0 -55 -30 -93.5t-82 -52.5v-6
q59 -10 96 -52.5t37 -110.5q0 -86 -63.5 -136.5t-157.5 -50.5z" />
    <glyph glyph-name="four" unicode="4" horiz-adv-x="518" 
d="M495 268v-104h-84q0 -80 4 -110t17 -54h-154q14 24 18 55t4 109h-280l-2 82l254 408h139v-397q58 0 84 11zM126 257h174l3 285z" />
    <glyph glyph-name="five" unicode="5" horiz-adv-x="510" 
d="M240 -12q-60 0 -128.5 26.5t-80.5 27.5l53 115q20 -31 62 -53.5t89 -22.5q54 0 85 32.5t31 90.5q0 55 -31 85t-83 30q-59 0 -104 -25l-57 23l23 337h206q87 0 128 16v-111h-237l-14 -162q37 13 80 13q88 0 145.5 -51.5t57.5 -150.5q0 -103 -64.5 -161.5t-160.5 -58.5z
" />
    <glyph glyph-name="six" unicode="6" horiz-adv-x="512" 
d="M279 -12q-104 0 -169.5 80.5t-65.5 235.5q0 181 73 271t182 90q34 0 81 -11.5t61 -11.5l-32 -115q-38 43 -105 43q-66 0 -106.5 -55.5t-44.5 -178.5q24 30 64 48.5t83 18.5q80 0 130 -51.5t50 -148.5q0 -95 -58.5 -155t-142.5 -60zM277 313q-73 0 -121 -78
q8 -78 40 -116.5t81 -38.5q42 0 69 31t27 89q0 56 -26 84.5t-70 28.5z" />
    <glyph glyph-name="seven" unicode="7" horiz-adv-x="501" 
d="M162 0q8 351 176 556h-183q-89 0 -117 -18v123q33 -7 117 -7h307l2 -93q-85 -82 -135.5 -217.5t-50.5 -248.5q0 -61 16 -95h-132z" />
    <glyph glyph-name="eight" unicode="8" horiz-adv-x="513" 
d="M255 -12q-95 0 -155 46t-60 126q0 59 36.5 104t83.5 65v4q-92 59 -92 158q0 75 55 124t136 49q84 0 136.5 -45.5t52.5 -121.5q0 -47 -29 -89.5t-67 -63.5v-4q121 -58 121 -175q0 -77 -60 -127t-158 -50zM284 376q66 46 66 118q0 37 -24.5 60t-67.5 23q-38 0 -63 -23.5
t-25 -61.5q0 -43 30.5 -69t83.5 -47zM257 77q50 0 79 23.5t29 66.5q0 44 -36.5 72t-103.5 54q-80 -42 -80 -127q0 -44 30.5 -66.5t81.5 -22.5z" />
    <glyph glyph-name="nine" unicode="9" horiz-adv-x="512" 
d="M233 665q106 0 170 -80t64 -237q0 -178 -73 -269t-181 -91q-33 0 -80.5 12t-61.5 12l32 117q40 -45 105 -45t106 55t45 177q-23 -33 -62.5 -52.5t-81.5 -19.5q-78 0 -129.5 54t-51.5 151q0 96 58 156t141 60zM238 334q31 0 64 21t54 56q-8 82 -40.5 122t-81.5 40
q-41 0 -68 -31.5t-27 -88.5q0 -58 26 -88.5t73 -30.5z" />
    <glyph glyph-name="colon" unicode=":" horiz-adv-x="267" 
d="M134 340q-29 0 -49.5 21t-20.5 52q0 32 20 53t50 21t50 -21t20 -53q0 -31 -20.5 -52t-49.5 -21zM135 -12q-30 0 -50.5 21t-20.5 52q0 32 20.5 53t50.5 21t50 -21t20 -53q0 -31 -20.5 -52t-49.5 -21z" />
    <glyph glyph-name="semicolon" unicode=";" horiz-adv-x="265" 
d="M138 321q-30 0 -50.5 21t-20.5 52q0 32 20.5 53t50.5 21t50 -21t20 -53q0 -31 -20.5 -52t-49.5 -21zM49 -116q45 14 71 45t25 67h-9q-29 2 -48.5 19.5t-19.5 48.5q0 30 20 48.5t50 18.5q39 0 60.5 -29t21.5 -80q0 -71 -39 -123t-109 -75z" />
    <glyph glyph-name="less" unicode="&#x3c;" horiz-adv-x="413" 
d="M321 204q36 -16 55 -15l-43 -96q-8 15 -48 36l-243 125v90l243 125q41 22 48 36l43 -97q-19 3 -55 -15l-189 -94z" />
    <glyph glyph-name="equal" unicode="=" horiz-adv-x="438" 
d="M42 435q16 -10 56 -10h241q40 0 56 10v-106q-16 10 -56 10h-241q-40 0 -56 -10v106zM42 266q16 -10 56 -10h241q40 0 56 10v-106q-16 10 -56 10h-241q-40 0 -56 -10v106z" />
    <glyph glyph-name="greater" unicode="&#x3e;" horiz-adv-x="413" 
d="M128 469l242 -125v-90l-242 -125q-39 -20 -49 -36l-42 96q19 -1 54 15l190 95l-190 94q-35 18 -54 15l42 97q8 -14 49 -36z" />
    <glyph glyph-name="question" unicode="?" horiz-adv-x="422" 
d="M128 220q0 51 15 87.5t37 57t44 38t37 42t15 58.5q0 40 -24.5 61.5t-63.5 21.5q-38 0 -70.5 -15.5t-50.5 -42.5l-47 110q19 1 75 22t103 21q81 0 134 -45t53 -127q0 -49 -16 -83t-39 -53t-46 -37t-39 -46.5t-16 -69.5h-101zM184 -17q-33 0 -53 20t-20 53q0 34 20 53.5
t53 19.5q34 0 54 -19.5t20 -53.5q0 -33 -20 -53t-54 -20z" />
    <glyph glyph-name="at" unicode="@" horiz-adv-x="799" 
d="M400 605q143 0 239.5 -95.5t96.5 -239.5q0 -99 -45.5 -154t-110.5 -55q-98 0 -110 96q-10 -21 -34 -38t-61 -17q-61 0 -99 42t-38 115q0 72 37.5 114.5t97.5 42.5q65 0 88 -45l7 36h73v-199q0 -39 9 -55t32 -16q71 0 71 132q0 112 -71 182.5t-182 70.5t-182 -70.5
t-71 -185.5t71 -186.5t183 -71.5q54 0 93 25v-102q-58 -6 -93 -6q-144 0 -240.5 96.5t-96.5 244.5q0 147 96.5 243t239.5 96zM461 242v34q-6 34 -26.5 55t-49.5 21q-66 0 -66 -94q0 -93 66 -93q28 0 49 22.5t27 54.5z" />
    <glyph glyph-name="A" unicode="A" horiz-adv-x="610" 
d="M219 654h172q-5 -29 23 -118l127 -397q34 -107 59 -139h-158q14 23 -9 114l-19 64h-222l-19 -64q-23 -89 -10 -114h-153q28 35 59 139l127 397q29 90 23 118zM217 269h172l-84 287h-5z" />
    <glyph glyph-name="B" unicode="B" horiz-adv-x="597" 
d="M424 352q137 -28 137 -162q0 -95 -65 -142.5t-183 -47.5h-250q25 34 25 131v392q0 97 -25 131h232q115 0 172.5 -38t57.5 -123q0 -49 -25.5 -86.5t-75.5 -54.5zM201 561v-173h86q127 0 127 95q0 43 -28.5 60.5t-95.5 17.5h-89zM309 93q72 0 106.5 24t34.5 79
q0 54 -40 78.5t-121 24.5h-88v-206h108z" />
    <glyph glyph-name="C" unicode="C" horiz-adv-x="568" 
d="M338 -12q-141 0 -215.5 76.5t-74.5 260.5q0 341 278 341q42 0 80.5 -10.5t70 -23.5t45.5 -15l-51 -118q-17 29 -54.5 49t-83.5 20q-79 0 -124 -54t-45 -185q0 -136 46 -189.5t137 -53.5q45 0 82.5 19t55.5 46l45 -122q-11 -1 -75.5 -21t-116.5 -20z" />
    <glyph glyph-name="D" unicode="D" horiz-adv-x="628" 
d="M63 654h206q155 0 233 -76t78 -248q0 -173 -77.5 -251.5t-227.5 -78.5h-212q25 34 25 131v392q0 97 -25 131zM261 95q103 0 153 51t50 184q0 131 -49 180t-154 49h-60v-464h60z" />
    <glyph glyph-name="E" unicode="E" horiz-adv-x="539" 
d="M63 654h289q78 0 123 7v-122q-33 18 -119 18h-157v-171h110q89 0 122 11v-115q-32 11 -122 11h-110v-196h166q89 0 124 18v-122q-46 7 -128 7h-298q23 35 23 131v392q0 97 -23 131z" />
    <glyph glyph-name="F" unicode="F" horiz-adv-x="504" 
d="M63 654h292q86 0 124 7v-123q-33 19 -124 19h-156v-205h117q85 0 120 13v-120q-35 13 -120 13h-117v-127q0 -96 24 -131h-160q23 35 23 131v392q0 97 -23 131z" />
    <glyph glyph-name="G" unicode="G" horiz-adv-x="611" 
d="M339 -12q-138 0 -214.5 77t-76.5 260t76 262t211 79q46 0 85.5 -10t71.5 -23t44 -16l-49 -112q-51 63 -152 63q-83 0 -127 -52t-44 -187q0 -136 45 -189.5t130 -53.5q75 0 111 31v129h-25q-60 0 -99 -11v115q33 -8 99 -8h136q-10 -28 -10 -119v-71q0 -79 9 -105
q-4 -2 -30 -13t-41.5 -16.5t-41.5 -13.5t-53 -12t-55 -4z" />
    <glyph glyph-name="H" unicode="H" horiz-adv-x="667" 
d="M63 654h159q-23 -35 -23 -131v-132h268v132q0 96 -23 131h159q-23 -35 -23 -131v-392q0 -96 23 -131h-159q23 35 23 131v160h-268v-160q0 -96 23 -131h-159q23 35 23 131v392q0 96 -23 131z" />
    <glyph glyph-name="I" unicode="I" horiz-adv-x="296" 
d="M129 613q5 1 10 -8zM216 414l-72 -323q5 -25 11 -41l-75 59q12 56 0 131l72 323q-8 33 -13 42l77 -60q-13 -60 0 -131zM167 41q-7 -2 -12 9z" />
    <glyph glyph-name="J" unicode="J" horiz-adv-x="455" 
d="M176 -12q-40 0 -89 17t-61 19l41 126q15 -27 42.5 -45.5t63.5 -18.5q45 0 68 27t23 98v312q0 97 -22 131h157q-22 -33 -22 -131v-316q0 -219 -201 -219z" />
    <glyph glyph-name="K" unicode="K" horiz-adv-x="614" 
d="M63 654h154q-18 -36 -18 -125v-175h3l168 206q44 58 52 94h158q-45 -35 -97 -107l-118 -147l148 -254q54 -94 97 -146h-160q-5 45 -46 115l-112 193l-93 -111v-75q0 -86 18 -122h-154q23 35 23 131v392q0 96 -23 131z" />
    <glyph glyph-name="L" unicode="L" horiz-adv-x="496" 
d="M63 654h159q-23 -35 -23 -131v-428h157q80 0 117 21v-123q-38 7 -117 7h-293q23 35 23 131v392q0 96 -23 131z" />
    <glyph glyph-name="M" unicode="M" horiz-adv-x="759" 
d="M672 523v-392q0 -98 23 -131h-145q19 33 19 115v210q0 123 11 186h-4l-121 -335q-30 -85 -28 -118h-98q2 33 -28 118l-121 335h-3q11 -63 11 -186v-210q0 -84 18 -115h-143q23 31 23 131v392q0 98 -23 131h163l155 -431l153 431h161q-23 -33 -23 -131z" />
    <glyph glyph-name="N" unicode="N" horiz-adv-x="669" 
d="M63 654h153l268 -466h5q-14 61 -14 120v223q0 90 -23 123h153q-22 -33 -22 -131v-374q0 -108 18 -149h-128l-289 499h-5q15 -60 15 -119v-260q0 -86 22 -120h-153q23 33 23 131v392q0 97 -23 131z" />
    <glyph glyph-name="O" unicode="O" horiz-adv-x="666" 
d="M333 -12q-135 0 -210 84.5t-75 257.5q0 171 74.5 253.5t210.5 82.5q135 0 209.5 -82.5t74.5 -253.5q0 -173 -74.5 -257.5t-209.5 -84.5zM333 87q167 0 167 243q0 125 -42 180.5t-125 55.5q-84 0 -126 -55.5t-42 -180.5q0 -243 168 -243z" />
    <glyph glyph-name="P" unicode="P" horiz-adv-x="576" 
d="M63 654h228q251 0 251 -212q0 -111 -67.5 -165.5t-179.5 -54.5h-96v-91q0 -96 24 -131h-160q23 33 23 131v392q0 98 -23 131zM285 313q75 0 110.5 30.5t35.5 98.5t-36 95t-114 27h-82v-251h86z" />
    <glyph glyph-name="Q" unicode="Q" horiz-adv-x="665" 
d="M612 -62l21 -102q-7 0 -43 -4.5t-65 -4.5q-89 0 -149.5 45t-79.5 118q-247 23 -247 340q0 172 74.5 254t209.5 82t210 -82.5t75 -253.5q0 -301 -226 -338q17 -37 55 -57t84 -20q52 0 81 23zM166 330q0 -243 167 -243q168 0 168 243q0 125 -42 180.5t-126 55.5
q-83 0 -125 -55.5t-42 -180.5z" />
    <glyph glyph-name="R" unicode="R" horiz-adv-x="595" 
d="M63 654h234q118 0 183 -44.5t65 -151.5q0 -75 -37.5 -124.5t-99.5 -65.5l81 -143q44 -77 90 -125h-170q3 40 -36 114l-76 137h-98v-120q0 -94 17 -131h-153q23 33 23 131v392q0 98 -23 131zM291 342q72 0 107.5 27t35.5 88q0 57 -35 80t-105 23h-95v-218h92z" />
    <glyph glyph-name="S" unicode="S" horiz-adv-x="538" 
d="M269 -12q-58 0 -139.5 26.5t-93.5 27.5l53 129q28 -39 79 -63t102 -24q116 0 116 89q0 40 -22.5 61t-79.5 42l-63 23q-149 53 -149 188q0 81 58.5 130t154.5 49q51 0 120.5 -21t76.5 -22l-47 -118q-61 66 -148 66q-47 0 -74 -21.5t-27 -60.5q0 -37 22.5 -57t72.5 -38
l62 -23q76 -28 116.5 -72t40.5 -118q0 -85 -60 -139t-171 -54z" />
    <glyph glyph-name="T" unicode="T" horiz-adv-x="537" 
d="M212 557h-71q-75 0 -119 -16v120q49 -7 119 -7h256q68 0 118 7v-120q-43 16 -118 16h-72v-426q0 -88 23 -131h-159q23 42 23 131v426z" />
    <glyph glyph-name="U" unicode="U" horiz-adv-x="651" 
d="M327 -12q-248 0 -248 280v255q0 96 -23 131h159q-23 -35 -23 -131v-250q0 -100 33.5 -143.5t101.5 -43.5t102 44t34 143v250q0 96 -23 131h154q-23 -37 -23 -131v-255q0 -280 -244 -280z" />
    <glyph glyph-name="V" unicode="V" horiz-adv-x="594" 
d="M383 0h-171q1 52 -33 163l-103 331q-15 49 -22 69t-19 47t-25 44h156q-10 -37 19 -137l85 -296q19 -63 27 -105h7q14 60 27 106l84 296q16 58 19.5 79t-0.5 57h150q-28 -38 -66 -160l-102 -331q-34 -108 -33 -163z" />
    <glyph glyph-name="W" unicode="W" horiz-adv-x="822" 
d="M667 654h139q-22 -39 -39 -124l-79 -413q-17 -84 -7 -117h-172q7 31 -10 116l-87 369l-87 -369q-18 -86 -10 -116h-170q10 36 -7 117l-83 413q-16 86 -39 124h148q-13 -31 3 -114l71 -409l102 421q17 74 10 102h130q-8 -30 10 -102l102 -417l72 405q9 49 10 70t-7 44z
" />
    <glyph glyph-name="X" unicode="X" horiz-adv-x="562" 
d="M552 0h-162q3 35 -29 101l-86 166l-82 -166q-32 -69 -28 -101h-155q35 35 79 116l120 220l-115 215q-42 76 -71 103h157q-4 -27 25 -87l83 -164l78 164q16 38 20.5 53.5t1.5 33.5h151q-27 -23 -70 -103l-116 -217l119 -218q47 -85 80 -116z" />
    <glyph glyph-name="Y" unicode="Y" horiz-adv-x="547" 
d="M470 539l-140 -297v-111q0 -89 23 -131h-159q23 39 23 131v111l-140 297q-42 86 -68 115h153q-4 -37 25 -106l90 -211l89 211q32 71 25 106h147q-28 -33 -68 -115z" />
    <glyph glyph-name="Z" unicode="Z" horiz-adv-x="543" 
d="M379 97q89 0 123 23v-128q-33 8 -123 8h-338v86q31 27 80 106l234 365h-164q-88 0 -121 -24v129q42 -8 121 -8h304v-85q-24 -20 -68 -89l-245 -383h197z" />
    <glyph glyph-name="bracketleft" unicode="[" horiz-adv-x="338" 
d="M91 708q159 0 214 21v-94h-104v-714h104v-93q-55 20 -214 20v860z" />
    <glyph glyph-name="backslash" unicode="\" horiz-adv-x="396" 
d="M135 509q-3 -15 15 -70l123 -398h-12q0 23 -10 56l-128 412h12z" />
    <glyph glyph-name="bracketright" unicode="]" horiz-adv-x="338" 
d="M247 708v-860q-159 0 -214 -20v93h104v714h-104v94q55 -21 214 -21z" />
    <glyph glyph-name="asciicircum" unicode="^" horiz-adv-x="422" 
d="M377 286l-94 -39q1 18 -15 55l-56 130l-57 -130q-17 -37 -16 -55l-94 39q13 7 32 46l97 216h75l97 -216q17 -38 31 -46z" />
    <glyph glyph-name="underscore" unicode="_" horiz-adv-x="468" 
d="M15 -94l366 32l72 -42l-366 -32z" />
    <glyph glyph-name="grave" unicode="`" horiz-adv-x="547" 
d="M338 648l-25 -58q-117 25 -199 101l52 80q84 -90 172 -123z" />
    <glyph glyph-name="a" unicode="a" horiz-adv-x="510" 
d="M197 -12q-73 0 -113.5 39t-40.5 109q0 152 229 152h57v30q0 48 -19.5 70t-66.5 22q-92 0 -143 -54l-37 104q11 1 75 22t112 21q98 0 144.5 -46t46.5 -141v-192q0 -94 19 -124h-123l5 54h-8q-19 -27 -56.5 -46.5t-80.5 -19.5zM218 74q34 0 65.5 23t45.5 54v59h-56
q-120 0 -120 -69q0 -33 18 -50t47 -17z" />
    <glyph glyph-name="b" unicode="b" horiz-adv-x="560" 
d="M325 -12q-81 0 -137 44h-8l3 -32h-121q15 41 15 125v458q0 87 -19 125h139q-8 -45 -8 -125v-141q21 25 58.5 43t79.5 18q90 0 139 -66.5t49 -182.5q0 -127 -51 -196.5t-139 -69.5zM298 84q101 0 101 168q0 155 -100 155q-30 0 -60.5 -18t-49.5 -43v-206q19 -24 49 -40
t60 -16z" />
    <glyph glyph-name="c" unicode="c" horiz-adv-x="459" 
d="M271 -12q-104 0 -167.5 62t-63.5 195t64 195.5t167 62.5q30 0 59 -7t56 -17t36 -12l-48 -106q-37 47 -94 47q-124 0 -124 -163q0 -162 124 -162q68 0 108 50l46 -107q-5 -1 -38 -12.5t-64 -18.5t-61 -7z" />
    <glyph glyph-name="d" unicode="d" horiz-adv-x="561" 
d="M241 -12q-87 0 -141.5 65.5t-54.5 191.5q0 124 57 191t143 67q77 0 126 -43v123q0 94 -19 125h139q-8 -36 -8 -125v-458q0 -94 20 -125h-127l3 45h-8q-49 -57 -130 -57zM268 84q29 0 58.5 19.5t44.5 46.5v202q-45 55 -101 55q-49 0 -79 -40t-30 -120q0 -163 107 -163z
" />
    <glyph glyph-name="e" unicode="e" horiz-adv-x="504" 
d="M282 -12q-113 0 -177.5 65t-64.5 192q0 124 61.5 191t159.5 67q100 0 151 -60t51 -166q0 -34 -4 -56h-306q4 -72 36.5 -106.5t102.5 -34.5q81 0 121 42l36 -102q-109 -32 -167 -32zM358 297q0 53 -24.5 84t-71.5 31q-49 0 -77 -32t-34 -83h207z" />
    <glyph glyph-name="f" unicode="f" horiz-adv-x="315" 
d="M94 398h-66v92h66v48q0 183 191 183q22 0 51.5 -3.5t40.5 -2.5l-11 -104q-23 21 -78 21q-42 0 -62 -22t-20 -73v-47h100v-100q-31 8 -100 8v-287q0 -89 21 -111h-152q19 23 19 111v287z" />
    <glyph glyph-name="g" unicode="g" horiz-adv-x="513" 
d="M488 402q-44 23 -93 23v-7q35 -39 35 -93q0 -82 -50.5 -126t-136.5 -44q-11 0 -33 2q-13 -13 -13 -31q0 -19 20 -24.5t78 -5.5q191 0 191 -142q0 -78 -63 -116t-173 -38q-105 0 -161 34.5t-56 102.5q0 42 26 74.5t63 44.5q-13 21 -13 49q0 42 31 71q-91 44 -91 151
q0 83 54.5 129.5t139.5 46.5q45 0 82 -16h53q71 1 110 13v-98zM243 227q39 0 63.5 25.5t24.5 74.5q0 47 -24.5 72t-63.5 25t-63 -24t-24 -73q0 -50 24.5 -75t62.5 -25zM282 5q-70 0 -108 13q-43 -24 -43 -72q0 -68 119 -68q61 0 96 18.5t35 53.5q0 30 -23.5 42.5t-75.5 12.5
z" />
    <glyph glyph-name="h" unicode="h" horiz-adv-x="564" 
d="M58 708h139q-8 -36 -8 -115v-97q0 -45 -8 -65l8 -1q20 30 60 51.5t85 21.5q77 0 118 -46.5t41 -136.5v-195q0 -94 19 -125h-146q15 32 15 125v185q0 53 -19 74t-55 21q-29 0 -62 -20.5t-56 -55.5v-204q0 -92 14 -125h-145q19 31 19 125v458q0 94 -19 125z" />
    <glyph glyph-name="i" unicode="i" horiz-adv-x="274" 
d="M136 580q-35 0 -53 17t-18 46t18 46.5t53 17.5q36 0 54 -17t18 -47q0 -29 -18.5 -46t-53.5 -17zM61 0q19 31 19 125v241q0 94 -19 125h140q-9 -36 -9 -125v-241q0 -94 19 -125h-150z" />
    <glyph glyph-name="j" unicode="j" horiz-adv-x="267" 
d="M135 580q-33 0 -51 17t-18 46t18 46.5t51 17.5q34 0 52 -17.5t18 -46.5t-18 -46t-52 -17zM34 -196q-22 0 -52 3t-39 3l22 104q22 -19 61 -19q30 0 42 20t12 65v386q0 88 -19 125h143q-12 -45 -12 -125v-383q0 -89 -37 -134t-121 -45z" />
    <glyph glyph-name="k" unicode="k" horiz-adv-x="531" 
d="M58 708h138q-8 -36 -8 -125v-266q0 -41 -8 -63h8l122 153q41 53 38 84h164q-45 -33 -114 -116l-72 -87l113 -166q59 -89 97 -122h-166q1 37 -35 96l-76 114l-71 -86v-8q0 -85 15 -116h-145q19 31 19 125v458q0 94 -19 125z" />
    <glyph glyph-name="l" unicode="l" horiz-adv-x="266" 
d="M58 0q19 31 19 125v458q0 94 -19 125h142q-11 -33 -11 -125v-458q0 -94 19 -125h-150z" />
    <glyph glyph-name="m" unicode="m" horiz-adv-x="847" 
d="M57 491h126l-4 -66l8 -1q58 79 145 79q99 0 134 -85q66 85 158 85q152 0 152 -189v-189q0 -94 19 -125h-146q15 32 15 125v176q0 106 -70 106q-55 0 -112 -71v-211q0 -93 15 -125h-141q14 33 14 125v176q0 106 -70 106q-57 0 -112 -71v-211q0 -95 15 -125h-146
q19 30 19 125v241q0 95 -19 125z" />
    <glyph glyph-name="n" unicode="n" horiz-adv-x="563" 
d="M57 491h126q2 -36 -4 -62h8q21 28 61 51t88 23q74 0 115 -45t41 -133v-201q0 -93 19 -124h-145q14 33 14 124v191q0 90 -76 90q-32 0 -63.5 -22t-52.5 -55v-204q0 -92 15 -124h-146q19 31 19 124v243q0 95 -19 124z" />
    <glyph glyph-name="o" unicode="o" horiz-adv-x="539" 
d="M269 -12q-104 0 -166.5 65t-62.5 192q0 128 62.5 193t166.5 65q105 0 167.5 -65t62.5 -193q0 -127 -62.5 -192t-167.5 -65zM269 83q115 0 115 162q0 163 -115 163q-114 0 -114 -163q0 -162 114 -162z" />
    <glyph glyph-name="p" unicode="p" horiz-adv-x="559" 
d="M188 30v-97q0 -86 20 -125h-151q19 39 19 125v432q0 87 -19 125h127l-4 -48h8q21 24 58.5 42.5t79.5 18.5q90 0 139 -66.5t49 -182.5q0 -126 -52 -196t-137 -70t-137 42zM297 84q101 0 101 168q0 155 -100 155q-29 0 -60 -18.5t-50 -43.5v-207q19 -23 49 -38.5t60 -15.5z
" />
    <glyph glyph-name="q" unicode="q" horiz-adv-x="556" 
d="M241 -12q-87 0 -141.5 65.5t-54.5 191.5q0 124 56.5 191t142.5 67q82 0 127 -43h8q-5 17 -5 30h121q-12 -49 -12 -125v-432q0 -86 20 -125h-151q19 39 19 118v48q0 43 8 69h-8q-50 -55 -130 -55zM264 84q31 0 61.5 20.5t45.5 48.5v199q-45 55 -107 55q-45 0 -74 -40
t-29 -120q0 -163 103 -163z" />
    <glyph glyph-name="r" unicode="r" horiz-adv-x="380" 
d="M57 491h125q0 -62 -4 -85h9q15 42 52 69.5t81 27.5q13 0 31.5 -2.5t23.5 -2.5l-22 -112q-19 17 -45 17q-37 0 -71.5 -35.5t-48.5 -86.5v-156q0 -94 19 -125h-150q19 31 19 125v241q0 94 -19 125z" />
    <glyph glyph-name="s" unicode="s" horiz-adv-x="433" 
d="M212 -12q-45 0 -106.5 15.5t-75.5 16.5l43 118q21 -27 58.5 -44.5t79.5 -17.5q82 0 82 59q0 42 -74 63l-39 11q-60 16 -94 53.5t-34 94.5q0 69 47 107.5t128 38.5q35 0 89.5 -15t68.5 -16l-44 -105q-16 21 -45 34.5t-61 13.5q-37 0 -57 -14t-20 -40q0 -45 64 -65l46 -14
q131 -39 131 -142q0 -70 -49 -111t-138 -41z" />
    <glyph glyph-name="t" unicode="t" horiz-adv-x="369" 
d="M245 -12q-151 0 -151 167v248h-70v76q48 13 98 43t85 67v-98h125v-96q-33 8 -125 8v-239q0 -45 15 -66t51 -21q34 0 55 25l20 -102q-9 -1 -28 -4.5t-38 -5.5t-37 -2z" />
    <glyph glyph-name="u" unicode="u" horiz-adv-x="559" 
d="M220 -12q-151 0 -151 191v187q0 88 -22 125h135v-302q0 -105 70 -105q33 0 65.5 24.5t53.5 65.5v192q0 87 -23 125h135v-366q0 -87 19 -125h-129q-1 30 5 70h-8q-45 -82 -150 -82z" />
    <glyph glyph-name="v" unicode="v" horiz-adv-x="520" 
d="M9 491h152q-10 -33 12 -107l61 -189q22 -85 26 -102h9q14 62 26 102l61 189q22 74 11 107h144q-29 -41 -59 -137l-71 -207q-37 -110 -31 -147h-176q6 40 -32 147l-73 207q-20 60 -31 86.5t-29 50.5z" />
    <glyph glyph-name="w" unicode="w" horiz-adv-x="750" 
d="M606 491h130q-23 -37 -44 -119l-62 -246q-20 -88 -16 -126h-163q4 40 -16 120l-58 222l-59 -222q-19 -85 -15 -120h-163q5 41 -17 126l-65 246q-23 86 -44 119h141q-9 -37 8 -104l63 -267l71 266q20 76 16 105h135q-2 -34 16 -106l70 -265l65 267q16 69 7 104z" />
    <glyph glyph-name="x" unicode="x" horiz-adv-x="496" 
d="M484 0h-156q9 23 -16 66l-75 120l-68 -122q-21 -42 -15 -64h-143q29 27 58 79l108 180l-96 155q-34 58 -59 77h154q-7 -26 16 -67l66 -111l60 114q18 35 15 64h139q-22 -21 -54 -77l-100 -172l103 -161q37 -60 63 -81z" />
    <glyph glyph-name="y" unicode="y" horiz-adv-x="515" 
d="M117 -197q-13 0 -37 2.5t-35 1.5l26 116q19 -32 59 -32q59 0 88 86l7 23l-12 2l-145 370q-33 87 -59 119l154 -1q-12 -31 7 -91l100 -277h4l85 277q17 62 4 92h143q-24 -32 -52 -119l-135 -397q-29 -87 -76 -129.5t-126 -42.5z" />
    <glyph glyph-name="z" unicode="z" horiz-adv-x="455" 
d="M32 74q27 21 58 69l176 258h-101q-75 0 -106 -22v118q47 -6 115 -6h224l10 -75q-20 -12 -48 -58l-180 -269h121q78 0 118 22v-118q-48 7 -128 7h-247z" />
    <glyph glyph-name="braceleft" unicode="{" horiz-adv-x="339" 
d="M244 -153q-72 13 -102.5 40.5t-30.5 103.5q0 34 4.5 91t4.5 89q0 33 -19.5 53t-65.5 13v82q46 -7 65.5 12.5t19.5 52.5q0 32 -4.5 90t-4.5 91q0 40 8.5 66.5t27.5 41.5t40 22.5t57 13.5l67 11v-91l-27 4q-36 6 -49 -14.5t-13 -64.5q0 -26 3 -78.5t3 -86.5q0 -50 -15 -75
t-51 -34v-4q36 -9 51 -34.5t15 -74.5q0 -34 -3 -86.5t-3 -78.5q0 -49 12.5 -70.5t49.5 -15.5l27 4v-84z" />
    <glyph glyph-name="bar" unicode="|" horiz-adv-x="314" 
d="M90 710h133q-15 -25 -15 -108v-660q0 -80 16 -107h-134q16 25 16 107v660q0 79 -16 108z" />
    <glyph glyph-name="braceright" unicode="}" horiz-adv-x="346" 
d="M93 -153l-66 -11v84l26 -4q37 -6 50 15.5t13 70.5q0 26 -3 78.5t-3 86.5q0 49 15 74.5t51 34.5v4q-36 9 -51 34t-15 75q0 34 3 86.5t3 78.5q0 44 -13 64.5t-50 14.5l-26 -4v91l66 -11q72 -12 102.5 -40t30.5 -104q0 -33 -4 -91t-4 -90q0 -31 19.5 -49.5t65.5 -11.5v-90
q-46 8 -65.5 -11.5t-19.5 -50.5q0 -32 4 -89t4 -91q0 -40 -8 -66t-27 -41.5t-40.5 -23t-57.5 -13.5z" />
    <glyph glyph-name="asciitilde" unicode="~" horiz-adv-x="459" 
d="M306 290q-40 0 -84.5 25.5t-61.5 25.5q-32 0 -32 -51h-86q0 72 31 108.5t79 36.5q40 0 84.5 -25.5t62.5 -25.5q32 0 32 50h86q0 -71 -32 -107.5t-79 -36.5z" />
    <glyph glyph-name="uni00A0" unicode="&#xa0;" horiz-adv-x="201" 
 />
    <glyph glyph-name="exclamdown" unicode="&#xa1;" horiz-adv-x="314" 
d="M158 502q34 0 55 -21.5t21 -55.5q0 -35 -21 -56.5t-55 -21.5q-35 0 -56 21.5t-21 56.5t21.5 56t55.5 21zM81 -180q12 18 16.5 46t4.5 95v292h110v-292q0 -67 4.5 -95t17.5 -46h-153z" />
    <glyph glyph-name="cent" unicode="&#xa2;" horiz-adv-x="464" 
d="M433 17q-87 -25 -135 -28q0 -54 13 -87l-101 1q13 31 13 89q-85 14 -134.5 75.5t-49.5 177.5q0 115 50 177.5t134 76.5q0 62 -13 93h101q-13 -36 -13 -90q21 -1 41.5 -4.5t32.5 -6.5t29 -8t23 -6l-34 -110q-32 37 -92 41v-325q66 4 102 43zM154 245q0 -117 69 -150v301
q-69 -33 -69 -151z" />
    <glyph glyph-name="sterling" unicode="&#xa3;" horiz-adv-x="486" 
d="M342 94q81 0 116 21v-122q-38 7 -116 7h-307q17 34 17 77v5q50 0 69.5 26.5t19.5 61.5q0 30 -20 88h-32q-40 0 -56 -10v86q16 -10 56 -10h10q-22 70 -22 127q0 83 50.5 131.5t136.5 48.5q70 0 152 -29l-29 -105q-41 49 -115 49q-39 0 -62.5 -24.5t-23.5 -68.5
q0 -49 28 -129h79q40 0 56 10v-86q-16 10 -56 10h-56q11 -44 11 -76q0 -56 -27 -88h121z" />
    <glyph glyph-name="currency" unicode="&#xa4;" horiz-adv-x="532" 
d="M447 279q0 -54 -26 -96q44 -45 76 -58l-78 -77q-15 33 -56 76q-43 -26 -98 -26q-52 0 -96 25q-43 -43 -57 -75l-77 77q31 13 75 57q-26 44 -26 97q0 55 27 98q-45 45 -76 58l77 77q18 -37 59 -77q40 25 94 25q53 0 97 -25q42 44 56 75l78 -77q-32 -13 -75 -56
q26 -44 26 -98zM265 191q38 0 57.5 23t19.5 65t-19.5 65t-57.5 23q-37 0 -56.5 -23t-19.5 -65t19.5 -65t56.5 -23z" />
    <glyph glyph-name="yen" unicode="&#xa5;" horiz-adv-x="543" 
d="M536 623q-35 -40 -74 -114l-108 -211h50q40 0 56 10v-79h-132v-45h132v-79q-16 10 -56 10h-76q1 -75 23 -115h-159q21 37 23 115h-71q-40 0 -56 -10v79h127v45h-127v79q16 -10 56 -10h45l-108 211q-39 74 -74 114h153q-2 -21 3.5 -40.5t26.5 -65.5l85 -180l84 180
q36 76 30 106h147z" />
    <glyph glyph-name="brokenbar" unicode="&#xa6;" horiz-adv-x="314" 
d="M90 710h133q-15 -25 -15 -103v-157q0 -74 16 -103h-134q16 26 16 103v157q0 74 -16 103zM90 197h133q-15 -23 -15 -103v-156q0 -76 16 -103h-134q16 25 16 103v156q0 76 -16 103z" />
    <glyph glyph-name="section" unicode="&#xa7;" horiz-adv-x="556" 
d="M202 -10q38 0 63.5 27t25.5 70q0 32 -23.5 66.5t-56.5 67t-66.5 67.5t-57 82t-23.5 98q0 103 69.5 161.5t180.5 58.5q43 0 86.5 -9.5t63.5 -21.5v-133q-15 33 -49.5 52.5t-74.5 19.5q-33 0 -53.5 -26.5t-20.5 -71.5q0 -34 24 -69t58.5 -68t68.5 -68t58 -81.5t24 -96.5
q0 -101 -70 -159t-199 -58q-101 0 -157 27v138q18 -32 53 -52.5t76 -20.5zM143 470q0 -42 24 -83t57.5 -75t67.5 -67t58 -71.5t24 -76.5q0 -67 -48 -110q89 30 89 125q0 42 -23.5 83t-57.5 74t-67.5 65.5t-57 71t-23.5 77.5q0 71 41 110q-37 -12 -60.5 -43t-23.5 -80z" />
    <glyph glyph-name="dieresis" unicode="&#xa8;" horiz-adv-x="590" 
d="M209 588q-26 0 -43 17t-17 42t17 42t43 17q25 0 42 -17t17 -42t-17 -42t-42 -17zM381 588q-25 0 -41.5 17t-16.5 42t16.5 42t41.5 17q26 0 43 -17t17 -42t-17 -42t-43 -17z" />
    <glyph glyph-name="copyright" unicode="&#xa9;" horiz-adv-x="872" 
d="M436 -51q-157 0 -267.5 110.5t-110.5 267.5t110.5 267t267.5 110t267.5 -110t110.5 -267t-110.5 -267.5t-267.5 -110.5zM436 20q128 0 217 88.5t89 218.5t-89 218t-217 88t-217 -88t-89 -218t89 -218.5t217 -88.5zM544 220v-95q-10 0 -44 -5.5t-57 -5.5q-89 0 -143 54.5
t-54 158.5q0 105 53.5 159t141.5 54q24 0 59 -5.5t44 -5.5v-95q-35 34 -92 34q-55 0 -88 -34.5t-33 -106.5t33 -106.5t88 -34.5q57 0 92 34z" />
    <glyph glyph-name="ordfeminine" unicode="&#xaa;" horiz-adv-x="391" 
d="M151 272q-52 0 -85.5 31.5t-33.5 84.5q0 117 177 117h45v23q0 33 -15 47t-53 14q-71 0 -110 -42l-29 88q12 1 60 17t85 16q156 0 156 -141v-149q0 -73 14 -96h-102l4 43h-7q-35 -53 -106 -53zM175 344q21 0 44.5 18.5t34.5 42.5v32h-44q-85 0 -85 -46q0 -47 50 -47z" />
    <glyph glyph-name="guillemotleft" unicode="&#xab;" horiz-adv-x="456" 
d="M245 96l-42 -40q-31 40 -75 84t-79 66v92q35 23 79.5 66.5t74.5 83.5l42 -42q-50 -83 -126 -154q77 -74 126 -156zM410 96l-43 -40q-30 40 -74 84t-79 66v92q35 23 79.5 66.5t73.5 83.5l43 -42q-50 -83 -126 -154q77 -74 126 -156z" />
    <glyph glyph-name="logicalnot" unicode="&#xac;" horiz-adv-x="414" 
d="M354 333v-103q0 -40 10 -56h-110q10 16 10 56v66h-166q-40 0 -56 -10v113q16 -10 56 -10h266q-10 -16 -10 -56z" />
    <glyph glyph-name="uni00AD" unicode="&#xad;" horiz-adv-x="321" 
d="M42 262l177 34l62 -56l-177 -34z" />
    <glyph glyph-name="registered" unicode="&#xae;" horiz-adv-x="608" 
d="M304 763q99 0 169 -69.5t70 -168.5t-70 -169t-169 -70t-169.5 70t-70.5 169t70.5 168.5t169.5 69.5zM304 338q78 0 132 54t54 133q0 80 -54 134t-132 54t-132.5 -54t-54.5 -134q0 -79 54.5 -133t132.5 -54zM375 449q18 -30 38 -47h-77q5 14 -10 40l-25 48h-34v-37
q0 -32 10 -51h-77q13 18 13 51v147q0 34 -13 51h111q46 0 70.5 -21t24.5 -59q0 -58 -59 -76zM266 528h38q50 0 50 42t-50 42h-38v-84z" />
    <glyph glyph-name="macron" unicode="&#xaf;" horiz-adv-x="543" 
d="M137 637l205 25l64 -43l-205 -26z" />
    <glyph glyph-name="degree" unicode="&#xb0;" horiz-adv-x="415" 
d="M208 397q-62 0 -105 43t-43 104q0 60 43.5 103t104.5 43t104 -43t43 -103q0 -61 -43 -104t-104 -43zM208 460q34 0 56 23t22 61q0 36 -22.5 59.5t-55.5 23.5q-34 0 -57 -23.5t-23 -59.5q0 -38 23 -61t57 -23z" />
    <glyph glyph-name="plusminus" unicode="&#xb1;" horiz-adv-x="422" 
d="M320 389q40 0 56 10v-105q-16 10 -56 10h-64v-61q0 -40 10 -56h-110q10 16 10 56v61h-64q-40 0 -56 -10v105q16 -10 56 -10h64v62q0 40 -10 56h110q-10 -16 -10 -56v-62h64zM102 138h218q40 0 56 10v-105q-16 10 -56 10h-218q-40 0 -56 -10v105q16 -10 56 -10z" />
    <glyph glyph-name="uni00B2" unicode="&#xb2;" 
d="M46 521q179 117 179 192q0 29 -15 46.5t-42 17.5q-56 0 -85 -55l-44 83q15 2 57.5 22t79.5 20q61 0 98 -35t37 -94q0 -91 -139 -188h70q62 0 85 18v-89h-281v62z" />
    <glyph glyph-name="uni00B3" unicode="&#xb3;" 
d="M184 447q-42 0 -90 19.5t-55 20.5l46 82q31 -57 95 -57q27 0 45.5 13.5t18.5 36.5q0 61 -114 61v58q100 0 100 55q0 22 -15 34t-40 12q-46 0 -80 -43l-36 77q7 1 49 16t77 15q57 0 92 -27.5t35 -78.5q0 -62 -69 -85q39 -9 62 -33.5t23 -63.5q0 -52 -41 -82t-103 -30z" />
    <glyph glyph-name="acute" unicode="&#xb4;" horiz-adv-x="401" 
d="M101 633q83 41 159 133l57 -72q-75 -75 -187 -113z" />
    <glyph glyph-name="uni00B5" unicode="&#xb5;" horiz-adv-x="558" 
d="M483 125q0 -87 19 -125h-129q-1 30 5 70h-8q-20 -37 -57.5 -59.5t-84.5 -22.5q-26 0 -46 7v-36q0 -89 19 -131h-155q23 42 23 131v407q0 88 -22 125h135v-337q0 -68 70 -68q33 0 65.5 23.5t53.5 64.5v192q0 87 -23 125h135v-366z" />
    <glyph glyph-name="paragraph" unicode="&#xb6;" horiz-adv-x="505" 
d="M452 677v-113q-16 17 -53 17v-482q0 -199 -221 -199v129q50 -28 83 -10t33 74v211q-28 -10 -65 -10q-82 0 -131 53.5t-49 138.5q0 84 56.5 137.5t157.5 53.5h189zM294 391v190h-52v-200q31 0 52 10z" />
    <glyph glyph-name="periodcentered" unicode="&#xb7;" horiz-adv-x="262" 
d="M132 244q-30 0 -50.5 20.5t-20.5 51.5q0 32 20.5 53.5t50.5 21.5q29 0 49 -21.5t20 -53.5q0 -31 -20 -51.5t-49 -20.5z" />
    <glyph glyph-name="cedilla" unicode="&#xb8;" horiz-adv-x="543" 
d="M177 -173q53 -8 80.5 3t27.5 34q0 40 -71 45l44 96h59l-29 -64q79 -15 79 -77q0 -47 -47 -72t-133 -24z" />
    <glyph glyph-name="uni00B9" unicode="&#xb9;" 
d="M164 748h-86v59q103 0 171 38v-314l80 -18v-54h-249v54l84 18v217z" />
    <glyph glyph-name="ordmasculine" unicode="&#xba;" horiz-adv-x="414" 
d="M207 272q-81 0 -129 50t-48 148t48 148t129 50t129 -50t48 -148t-48 -148t-129 -50zM207 352q44 0 63 29t19 89q0 119 -82 119q-43 0 -62 -29.5t-19 -89.5t19 -89t62 -29z" />
    <glyph glyph-name="guillemotright" unicode="&#xbb;" horiz-adv-x="471" 
d="M46 96q49 82 126 156q-74 68 -126 154l42 42q30 -40 74.5 -84t79.5 -66v-92q-35 -23 -79.5 -66.5t-74.5 -83.5zM226 96q52 85 126 156q-74 68 -126 154l43 42q30 -40 74 -84t79 -66v-92q-35 -23 -79.5 -66.5t-73.5 -83.5z" />
    <glyph glyph-name="onequarter" unicode="&#xbc;" horiz-adv-x="837" 
d="M517 511l134 157l-225 -523l-135 -157zM164 569h-86v59q103 0 171 38v-314l80 -18v-54h-249v54l84 18v217zM680 94h-178v48l161 234h92v-223q43 0 58 14v-73h-58v-15q0 -64 18 -79h-112q19 15 19 79v15zM680 153v148l-103 -148h103z" />
    <glyph glyph-name="onehalf" unicode="&#xbd;" horiz-adv-x="892" 
d="M505 511l134 157l-225 -523l-135 -157zM164 569h-86v59q103 0 171 38v-314l80 -18v-54h-249v54l84 18v217zM566 62q179 117 179 192q0 29 -15 46.5t-42 17.5q-56 0 -85 -55l-44 83q15 2 57.5 22t79.5 20q61 0 98 -35t37 -94q0 -91 -139 -188h70q62 0 85 18v-89h-281v62z
" />
    <glyph glyph-name="threequarters" unicode="&#xbe;" horiz-adv-x="834" 
d="M184 268q-42 0 -90 19.5t-55 20.5l46 82q31 -57 95 -57q27 0 45.5 13.5t18.5 36.5q0 61 -114 61v58q100 0 100 55q0 21 -15 33.5t-40 12.5q-46 0 -80 -43l-36 77q7 1 49 16t77 15q57 0 92 -27.5t35 -78.5q0 -62 -69 -85q39 -9 62 -33.5t23 -63.5q0 -52 -41 -82t-103 -30z
M494 511l134 157l-225 -523l-135 -157zM676 94h-177v48l161 234h91v-223q44 0 58 14v-73h-58v-15q0 -64 18 -79h-111q11 9 14.5 25t3.5 54v15zM676 153v148l-102 -148h102z" />
    <glyph glyph-name="questiondown" unicode="&#xbf;" horiz-adv-x="433" 
d="M248 508q33 0 53 -20t20 -53q0 -34 -20 -53.5t-53 -19.5t-53.5 20t-20.5 53t20.5 53t53.5 20zM305 271q0 -51 -15.5 -87.5t-37.5 -56.5t-43.5 -38t-37 -42.5t-15.5 -58.5q0 -40 25 -61.5t63 -21.5t70.5 15.5t50.5 42.5l47 -110q-19 -1 -75 -22t-103 -21q-81 0 -134 45
t-53 128q0 48 16 82t39 53t46 37t39 46.5t16 69.5h102z" />
    <glyph glyph-name="Agrave" unicode="&#xc0;" horiz-adv-x="610" 
d="M369 773l-26 -58q-118 25 -198 101l51 80q85 -91 173 -123zM219 654h172q-5 -29 23 -118l127 -397q34 -107 59 -139h-158q14 23 -9 114l-19 64h-222l-19 -64q-23 -89 -10 -114h-153q28 35 59 139l127 397q29 90 23 118zM217 269h172l-84 287h-5z" />
    <glyph glyph-name="Aacute" unicode="&#xc1;" horiz-adv-x="610" 
d="M251 758q81 40 158 133l57 -72q-76 -76 -186 -113zM219 654h172q-5 -29 23 -118l127 -397q34 -107 59 -139h-158q14 23 -9 114l-19 64h-222l-19 -64q-23 -89 -10 -114h-153q28 35 59 139l127 397q29 90 23 118zM217 269h172l-84 287h-5z" />
    <glyph glyph-name="Acircumflex" unicode="&#xc2;" horiz-adv-x="610" 
d="M333 782q-48 -45 -122 -65l-24 25q36 24 54 85l50 14q27 -30 54 -49zM349 796l6 -11l-10 7zM418 740q-44 15 -63 45q21 -13 41 -21zM600 0h-158q14 23 -9 114l-19 64h-222l-19 -64q-23 -89 -10 -114h-153q28 35 59 139l127 397q29 90 23 118h172q-5 -29 23 -118l127 -397
q34 -107 59 -139zM217 269h172l-84 287h-5z" />
    <glyph glyph-name="Atilde" unicode="&#xc3;" horiz-adv-x="610" 
d="M371 713q-28 0 -52 15.5t-43 31.5t-34 16q-20 0 -27.5 -17t3.5 -40l-87 4q11 61 39 94.5t66 33.5q36 0 74.5 -31.5t55.5 -31.5q20 0 27 17t-3 40l86 -5q-9 -60 -38 -93.5t-67 -33.5zM219 654h172q-5 -29 23 -118l127 -397q34 -107 59 -139h-158q14 23 -9 114l-19 64h-222
l-19 -64q-23 -89 -10 -114h-153q28 35 59 139l127 397q29 90 23 118zM217 269h172l-84 287h-5z" />
    <glyph glyph-name="Adieresis" unicode="&#xc4;" horiz-adv-x="610" 
d="M218 713q-25 0 -42 17t-17 42t17 42t42 17t42 -17t17 -42t-17 -42t-42 -17zM391 713q-25 0 -42 17t-17 42t17 42t42 17q26 0 42.5 -17t16.5 -42t-16.5 -42t-42.5 -17zM219 654h172q-5 -29 23 -118l127 -397q34 -107 59 -139h-158q14 23 -9 114l-19 64h-222l-19 -64
q-23 -89 -10 -114h-153q28 35 59 139l127 397q29 90 23 118zM217 269h172l-84 287h-5z" />
    <glyph glyph-name="Aring" unicode="&#xc5;" horiz-adv-x="610" 
d="M303 703q-53 0 -84 25.5t-31 66.5q0 40 31 65.5t84 25.5t84 -25.5t31 -65.5q0 -41 -31 -66.5t-84 -25.5zM303 752q23 0 37 11t14 32q0 20 -14 31t-37 11t-37.5 -11t-14.5 -31t14.5 -31.5t37.5 -11.5zM219 654h172q-5 -29 23 -118l127 -397q34 -107 59 -139h-158
q14 23 -9 114l-19 64h-222l-19 -64q-23 -89 -10 -114h-153q28 35 59 139l127 397q29 90 23 118zM217 269h172l-84 287h-5z" />
    <glyph glyph-name="AE" unicode="&#xc6;" horiz-adv-x="857" 
d="M677 97q90 0 129 16v-120q-48 7 -129 7h-285q21 35 21 114v57h-192l-24 -46q-41 -84 -30 -125h-162q33 40 92 158l181 361q51 99 39 135h350q80 0 125 7v-120q-37 16 -125 16h-141v-169h99q90 0 123 12v-120q-30 11 -123 11h-99v-194h151zM263 260h150v307h-4z" />
    <glyph glyph-name="Ccedilla" unicode="&#xc7;" horiz-adv-x="568" 
d="M325 -59q79 -15 79 -77q0 -47 -47 -72t-133 -24l-9 59q53 -8 80 3t27 34q0 40 -70 45l36 81q-117 12 -178.5 90t-61.5 245q0 341 278 341q42 0 80.5 -10.5t70 -23.5t45.5 -15l-51 -118q-17 29 -54.5 49t-83.5 20q-79 0 -124 -54t-45 -185q0 -136 46 -189.5t137 -53.5
q45 0 82.5 19t55.5 46l45 -122q-12 -1 -73 -20.5t-111 -20.5z" />
    <glyph glyph-name="Egrave" unicode="&#xc8;" horiz-adv-x="539" 
d="M349 773l-26 -58q-118 25 -198 101l51 80q85 -91 173 -123zM63 654h289q78 0 123 7v-122q-33 18 -119 18h-157v-171h110q89 0 122 11v-115q-32 11 -122 11h-110v-196h166q89 0 124 18v-122q-46 7 -128 7h-298q23 35 23 131v392q0 97 -23 131z" />
    <glyph glyph-name="Eacute" unicode="&#xc9;" horiz-adv-x="539" 
d="M232 758q81 40 158 133l57 -72q-76 -76 -186 -113zM63 654h289q78 0 123 7v-122q-33 18 -119 18h-157v-171h110q89 0 122 11v-115q-32 11 -122 11h-110v-196h166q89 0 124 18v-122q-46 7 -128 7h-298q23 35 23 131v392q0 97 -23 131z" />
    <glyph glyph-name="Ecircumflex" unicode="&#xca;" horiz-adv-x="539" 
d="M313 782q-48 -45 -122 -65l-24 25q36 24 54 85l50 14q27 -30 54 -49zM329 796l6 -11l-10 7zM398 740q-44 15 -63 45q21 -13 41 -21zM365 97q89 0 124 18v-122q-46 7 -128 7h-298q23 35 23 131v392q0 97 -23 131h289q78 0 123 7v-122q-33 18 -119 18h-157v-171h110
q89 0 122 11v-115q-32 11 -122 11h-110v-196h166z" />
    <glyph glyph-name="Edieresis" unicode="&#xcb;" horiz-adv-x="539" 
d="M198 713q-25 0 -42 17t-17 42t17 42t42 17t42 -17t17 -42t-17 -42t-42 -17zM371 713q-25 0 -42 17t-17 42t17 42t42 17q26 0 42.5 -17t16.5 -42t-16.5 -42t-42.5 -17zM63 654h289q78 0 123 7v-122q-33 18 -119 18h-157v-171h110q89 0 122 11v-115q-32 11 -122 11h-110
v-196h166q89 0 124 18v-122q-46 7 -128 7h-298q23 35 23 131v392q0 97 -23 131z" />
    <glyph glyph-name="Igrave" unicode="&#xcc;" horiz-adv-x="296" 
d="M216 773l-26 -58q-118 25 -198 101l51 80q85 -91 173 -123zM129 613q5 1 10 -8zM139 605l77 -60q-13 -60 0 -131l-72 -323q5 -25 11 -41l-75 59q12 56 0 131l72 323q-8 33 -13 42zM167 41q-7 -2 -12 9z" />
    <glyph glyph-name="Iacute" unicode="&#xcd;" horiz-adv-x="296" 
d="M313 819q-76 -76 -186 -113l-29 52q81 40 158 133zM129 613q5 1 10 -8zM139 605l77 -60q-13 -60 0 -131l-72 -323q5 -25 11 -41l-75 59q12 56 0 131l72 323q-8 33 -13 42zM167 41q-7 -2 -12 9z" />
    <glyph glyph-name="Icircumflex" unicode="&#xce;" horiz-adv-x="296" 
d="M192 792l-12 -10q-48 -45 -122 -65l-24 25q36 24 54 85l50 14q27 -30 54 -49zM196 796l6 -11l-10 7zM265 740q-44 15 -63 45q21 -13 41 -21zM129 613q5 1 10 -8zM139 605l77 -60q-13 -60 0 -131l-72 -323q5 -25 11 -41l-75 59q12 56 0 131l72 323q-8 33 -13 42zM167 41
q-7 -2 -12 9z" />
    <glyph glyph-name="Idieresis" unicode="&#xcf;" horiz-adv-x="296" 
d="M124 772q0 -25 -17 -42t-42 -17t-42 17t-17 42t17 42t42 17t42 -17t17 -42zM238 831q26 0 42.5 -17t16.5 -42t-16.5 -42t-42.5 -17q-25 0 -42 17t-17 42t17 42t42 17zM129 613q5 1 10 -8zM139 605l77 -60q-13 -60 0 -131l-72 -323q5 -25 11 -41l-75 59q12 56 0 131
l72 323q-8 33 -13 42zM167 41q-7 -2 -12 9z" />
    <glyph glyph-name="Eth" unicode="&#xd0;" horiz-adv-x="626" 
d="M267 654q155 0 233 -76t78 -248q0 -173 -77.5 -251.5t-227.5 -78.5h-211q24 33 24 131v187l-60 27l60 6v172q0 98 -24 131h205zM259 95q103 0 153 51t50 184q0 131 -49 180t-154 49h-60v-196l67 7l80 -36l-147 -15v-224h60z" />
    <glyph glyph-name="Ntilde" unicode="&#xd1;" horiz-adv-x="669" 
d="M405 713q-28 0 -52 15.5t-43 31.5t-34 16q-20 0 -27.5 -17t3.5 -40l-87 4q11 61 39 94.5t66 33.5q36 0 74.5 -31.5t55.5 -31.5q20 0 27 17t-3 40l86 -5q-9 -60 -38 -93.5t-67 -33.5zM63 654h153l268 -466h5q-14 61 -14 120v223q0 90 -23 123h153q-22 -33 -22 -131v-374
q0 -108 18 -149h-128l-289 499h-5q15 -60 15 -119v-260q0 -86 22 -120h-153q23 33 23 131v392q0 97 -23 131z" />
    <glyph glyph-name="Ograve" unicode="&#xd2;" horiz-adv-x="666" 
d="M398 773l-26 -58q-118 25 -198 101l51 80q85 -91 173 -123zM333 -12q-135 0 -210 84.5t-75 257.5q0 171 74.5 253.5t210.5 82.5q135 0 209.5 -82.5t74.5 -253.5q0 -173 -74.5 -257.5t-209.5 -84.5zM333 87q167 0 167 243q0 125 -42 180.5t-125 55.5q-84 0 -126 -55.5
t-42 -180.5q0 -243 168 -243z" />
    <glyph glyph-name="Oacute" unicode="&#xd3;" horiz-adv-x="666" 
d="M281 758q81 40 158 133l57 -72q-76 -76 -186 -113zM333 -12q-135 0 -210 84.5t-75 257.5q0 171 74.5 253.5t210.5 82.5q135 0 209.5 -82.5t74.5 -253.5q0 -173 -74.5 -257.5t-209.5 -84.5zM333 87q167 0 167 243q0 125 -42 180.5t-125 55.5q-84 0 -126 -55.5t-42 -180.5
q0 -243 168 -243z" />
    <glyph glyph-name="Ocircumflex" unicode="&#xd4;" horiz-adv-x="666" 
d="M363 782q-48 -45 -122 -65l-24 25q36 24 54 85l50 14q27 -30 54 -49zM379 796l6 -11l-10 7zM448 740q-44 15 -63 45q21 -13 41 -21zM333 666q135 0 209.5 -82.5t74.5 -253.5q0 -173 -74.5 -257.5t-209.5 -84.5t-210 84.5t-75 257.5q0 171 74.5 253.5t210.5 82.5zM333 87
q167 0 167 243q0 125 -42 180.5t-125 55.5q-84 0 -126 -55.5t-42 -180.5q0 -243 168 -243z" />
    <glyph glyph-name="Otilde" unicode="&#xd5;" horiz-adv-x="666" 
d="M400 713q-28 0 -52 15.5t-43 31.5t-34 16q-20 0 -27.5 -17t3.5 -40l-87 4q11 61 39 94.5t66 33.5q36 0 74.5 -31.5t55.5 -31.5q20 0 27 17t-3 40l86 -5q-9 -60 -38 -93.5t-67 -33.5zM333 -12q-135 0 -210 84.5t-75 257.5q0 171 74.5 253.5t210.5 82.5q135 0 209.5 -82.5
t74.5 -253.5q0 -173 -74.5 -257.5t-209.5 -84.5zM333 87q167 0 167 243q0 125 -42 180.5t-125 55.5q-84 0 -126 -55.5t-42 -180.5q0 -243 168 -243z" />
    <glyph glyph-name="Odieresis" unicode="&#xd6;" horiz-adv-x="666" 
d="M248 713q-25 0 -42 17t-17 42t17 42t42 17t42 -17t17 -42t-17 -42t-42 -17zM421 713q-25 0 -42 17t-17 42t17 42t42 17q26 0 42.5 -17t16.5 -42t-16.5 -42t-42.5 -17zM333 -12q-135 0 -210 84.5t-75 257.5q0 171 74.5 253.5t210.5 82.5q135 0 209.5 -82.5t74.5 -253.5
q0 -173 -74.5 -257.5t-209.5 -84.5zM333 87q167 0 167 243q0 125 -42 180.5t-125 55.5q-84 0 -126 -55.5t-42 -180.5q0 -243 168 -243z" />
    <glyph glyph-name="multiply" unicode="&#xd7;" horiz-adv-x="442" 
d="M284 298l68 -68q29 -29 47 -32l-78 -78q-5 19 -32 46l-68 68l-71 -71q-27 -27 -32 -46l-78 77q18 4 47 32l71 71l-68 68q-29 29 -47 32l78 78q5 -19 32 -46l68 -68l71 71q27 27 32 46l78 -77q-18 -4 -47 -32z" />
    <glyph glyph-name="Oslash" unicode="&#xd8;" horiz-adv-x="667" 
d="M549 577q69 -86 69 -247q0 -173 -74.5 -257.5t-209.5 -84.5q-96 0 -160 41l-20 -30h-90l55 80q-70 87 -70 251q0 171 74.5 253.5t210.5 82.5q95 0 159 -40l22 32h90zM166 330q0 -91 23 -148l244 355q-39 29 -99 29q-84 0 -126 -55.5t-42 -180.5zM334 87q167 0 167 243
q0 87 -22 144l-244 -357q39 -30 99 -30z" />
    <glyph glyph-name="Ugrave" unicode="&#xd9;" horiz-adv-x="651" 
d="M392 773l-26 -58q-118 25 -198 101l51 80q85 -91 173 -123zM327 -12q-248 0 -248 280v255q0 96 -23 131h159q-23 -35 -23 -131v-250q0 -100 33.5 -143.5t101.5 -43.5t102 44t34 143v250q0 96 -23 131h154q-23 -37 -23 -131v-255q0 -280 -244 -280z" />
    <glyph glyph-name="Uacute" unicode="&#xda;" horiz-adv-x="651" 
d="M275 758q81 40 158 133l57 -72q-76 -76 -186 -113zM327 -12q-248 0 -248 280v255q0 96 -23 131h159q-23 -35 -23 -131v-250q0 -100 33.5 -143.5t101.5 -43.5t102 44t34 143v250q0 96 -23 131h154q-23 -37 -23 -131v-255q0 -280 -244 -280z" />
    <glyph glyph-name="Ucircumflex" unicode="&#xdb;" horiz-adv-x="651" 
d="M356 782q-48 -45 -122 -65l-24 25q36 24 54 85l50 14q27 -30 54 -49zM372 796l6 -11l-10 7zM441 740q-44 15 -63 45q21 -13 41 -21zM440 654h154q-23 -37 -23 -131v-255q0 -280 -244 -280q-248 0 -248 280v255q0 96 -23 131h159q-23 -35 -23 -131v-250
q0 -100 33.5 -143.5t101.5 -43.5t102 44t34 143v250q0 96 -23 131z" />
    <glyph glyph-name="Udieresis" unicode="&#xdc;" horiz-adv-x="651" 
d="M241 713q-25 0 -42 17t-17 42t17 42t42 17t42 -17t17 -42t-17 -42t-42 -17zM414 713q-25 0 -42 17t-17 42t17 42t42 17q26 0 42.5 -17t16.5 -42t-16.5 -42t-42.5 -17zM327 -12q-248 0 -248 280v255q0 96 -23 131h159q-23 -35 -23 -131v-250q0 -100 33.5 -143.5
t101.5 -43.5t102 44t34 143v250q0 96 -23 131h154q-23 -37 -23 -131v-255q0 -280 -244 -280z" />
    <glyph glyph-name="Yacute" unicode="&#xdd;" horiz-adv-x="547" 
d="M439 819q-76 -76 -186 -113l-29 52q81 40 158 133zM470 539l-140 -297v-111q0 -89 23 -131h-159q23 39 23 131v111l-140 297q-42 86 -68 115h153q-4 -37 25 -106l90 -211l89 211q32 71 25 106h147q-28 -33 -68 -115z" />
    <glyph glyph-name="Thorn" unicode="&#xde;" horiz-adv-x="585" 
d="M60 654h162q-25 -34 -25 -118h84q253 0 253 -196q0 -104 -68 -155t-180 -51h-89q0 -59 6 -87t21 -47h-164q24 31 24 131v392q0 98 -24 131zM276 224q75 0 110.5 28t35.5 88q0 57 -37 81t-113 24h-75v-221h79z" />
    <glyph glyph-name="germandbls" unicode="&#xdf;" horiz-adv-x="586" 
d="M380 -12q-59 0 -137 26l34 106q42 -47 96 -47q37 0 59 23t22 65q0 34 -25.5 61t-56 42.5t-56 43t-25.5 63.5q0 35 38.5 83.5t38.5 88.5q0 33 -23.5 53t-59.5 20q-47 0 -72 -34.5t-25 -95.5v-361q0 -84 15 -125h-146q19 38 19 125v361q0 103 54 163t155 60q85 0 136 -46.5
t51 -115.5q0 -33 -12 -60.5t-27 -42t-27 -31t-12 -30.5q0 -16 17 -30.5t41 -29.5t48 -33.5t41 -52.5t17 -78q0 -77 -48.5 -124t-129.5 -47z" />
    <glyph glyph-name="agrave" unicode="&#xe0;" horiz-adv-x="510" 
d="M319 638l-26 -58q-118 25 -198 101l51 80q85 -91 173 -123zM197 -12q-73 0 -113.5 39t-40.5 109q0 152 229 152h57v30q0 48 -19.5 70t-66.5 22q-92 0 -143 -54l-37 104q11 1 75 22t112 21q98 0 144.5 -46t46.5 -141v-192q0 -94 19 -124h-123l5 54h-8q-19 -27 -56.5 -46.5
t-80.5 -19.5zM218 74q34 0 65.5 23t45.5 54v59h-56q-120 0 -120 -69q0 -33 18 -50t47 -17z" />
    <glyph glyph-name="aacute" unicode="&#xe1;" horiz-adv-x="510" 
d="M202 623q81 40 158 133l57 -72q-76 -76 -186 -113zM197 -12q-73 0 -113.5 39t-40.5 109q0 152 229 152h57v30q0 48 -19.5 70t-66.5 22q-92 0 -143 -54l-37 104q11 1 75 22t112 21q98 0 144.5 -46t46.5 -141v-192q0 -94 19 -124h-123l5 54h-8q-19 -27 -56.5 -46.5
t-80.5 -19.5zM218 74q34 0 65.5 23t45.5 54v59h-56q-120 0 -120 -69q0 -33 18 -50t47 -17z" />
    <glyph glyph-name="acircumflex" unicode="&#xe2;" horiz-adv-x="510" 
d="M284 647q-48 -45 -122 -65l-24 25q36 24 54 85l50 14q27 -30 54 -49zM300 661l6 -11l-10 7zM369 605q-44 15 -63 45q21 -13 41 -21zM460 0h-123l5 54h-8q-19 -27 -56.5 -46.5t-80.5 -19.5q-73 0 -113.5 39t-40.5 109q0 152 229 152h57v30q0 48 -19.5 70t-66.5 22
q-92 0 -143 -54l-37 104q11 1 75 22t112 21q98 0 144.5 -46t46.5 -141v-192q0 -94 19 -124zM329 151v59h-56q-120 0 -120 -69q0 -33 18 -50t47 -17q34 0 65.5 23t45.5 54z" />
    <glyph glyph-name="atilde" unicode="&#xe3;" horiz-adv-x="510" 
d="M321 578q-28 0 -52 16t-43 31.5t-34 15.5q-20 0 -27.5 -17.5t3.5 -39.5l-87 4q11 61 39 94.5t66 33.5q36 0 74.5 -31.5t55.5 -31.5q20 0 27 17t-3 40l86 -5q-9 -60 -38 -93.5t-67 -33.5zM197 -12q-73 0 -113.5 39t-40.5 109q0 152 229 152h57v30q0 48 -19.5 70t-66.5 22
q-92 0 -143 -54l-37 104q11 1 75 22t112 21q98 0 144.5 -46t46.5 -141v-192q0 -94 19 -124h-123l5 54h-8q-19 -27 -56.5 -46.5t-80.5 -19.5zM218 74q34 0 65.5 23t45.5 54v59h-56q-120 0 -120 -69q0 -33 18 -50t47 -17z" />
    <glyph glyph-name="adieresis" unicode="&#xe4;" horiz-adv-x="510" 
d="M169 578q-25 0 -42 17t-17 42t17 42t42 17t42 -17t17 -42t-17 -42t-42 -17zM342 578q-25 0 -42 17t-17 42t17 42t42 17q26 0 42.5 -17t16.5 -42t-16.5 -42t-42.5 -17zM197 -12q-73 0 -113.5 39t-40.5 109q0 152 229 152h57v30q0 48 -19.5 70t-66.5 22q-92 0 -143 -54
l-37 104q11 1 75 22t112 21q98 0 144.5 -46t46.5 -141v-192q0 -94 19 -124h-123l5 54h-8q-19 -27 -56.5 -46.5t-80.5 -19.5zM218 74q34 0 65.5 23t45.5 54v59h-56q-120 0 -120 -69q0 -33 18 -50t47 -17z" />
    <glyph glyph-name="aring" unicode="&#xe5;" horiz-adv-x="510" 
d="M254 568q-53 0 -84 25.5t-31 66.5q0 40 31 65.5t84 25.5t84 -25.5t31 -65.5q0 -41 -31 -66.5t-84 -25.5zM254 617q23 0 37 11t14 32q0 20 -14 31t-37 11t-37.5 -11t-14.5 -31t14.5 -31.5t37.5 -11.5zM197 -12q-73 0 -113.5 39t-40.5 109q0 152 229 152h57v30
q0 48 -19.5 70t-66.5 22q-92 0 -143 -54l-37 104q11 1 75 22t112 21q98 0 144.5 -46t46.5 -141v-192q0 -94 19 -124h-123l5 54h-8q-19 -27 -56.5 -46.5t-80.5 -19.5zM218 74q34 0 65.5 23t45.5 54v59h-56q-120 0 -120 -69q0 -33 18 -50t47 -17z" />
    <glyph glyph-name="ae" unicode="&#xe6;" horiz-adv-x="794" 
d="M753 277q0 -40 -4 -56h-306q5 -72 37.5 -106t101.5 -34q76 0 122 41l35 -101q-8 -2 -33 -9.5t-41 -11.5t-42.5 -8t-50.5 -4q-134 0 -197 88h-2q-30 -41 -76 -64.5t-97 -23.5q-75 0 -116 39.5t-41 108.5q0 75 54 111t168 36h64v33q0 50 -20.5 72t-70.5 22q-77 0 -138 -55
l-35 104q14 3 48.5 15t69.5 20.5t66 8.5q105 0 152 -58q60 58 149 58q100 0 151.5 -61.5t51.5 -164.5zM441 297h207q0 50 -25 82.5t-72 32.5q-49 0 -76.5 -32t-33.5 -83zM329 147v58h-55q-65 0 -94.5 -15.5t-29.5 -48.5q0 -32 18.5 -49t50.5 -17q34 0 65 21t45 51z" />
    <glyph glyph-name="ccedilla" unicode="&#xe7;" horiz-adv-x="459" 
d="M278 -58q79 -15 79 -77q0 -47 -47 -72t-133 -24l-9 59q53 -8 80 3t27 34q0 40 -70 45l36 79q-91 9 -146 71t-55 185q0 133 64 195.5t167 62.5q30 0 59 -7t56 -17t36 -12l-48 -106q-37 47 -94 47q-124 0 -124 -163q0 -162 124 -162q68 0 108 50l46 -107q-6 -2 -32 -11
t-51.5 -15.5t-50.5 -9.5z" />
    <glyph glyph-name="egrave" unicode="&#xe8;" horiz-adv-x="504" 
d="M328 638l-26 -58q-118 25 -198 101l51 80q85 -91 173 -123zM282 -12q-113 0 -177.5 65t-64.5 192q0 124 61.5 191t159.5 67q100 0 151 -60t51 -166q0 -34 -4 -56h-306q4 -72 36.5 -106.5t102.5 -34.5q81 0 121 42l36 -102q-109 -32 -167 -32zM358 297q0 53 -24.5 84
t-71.5 31q-49 0 -77 -32t-34 -83h207z" />
    <glyph glyph-name="eacute" unicode="&#xe9;" horiz-adv-x="504" 
d="M211 623q81 40 158 133l57 -72q-76 -76 -186 -113zM282 -12q-113 0 -177.5 65t-64.5 192q0 124 61.5 191t159.5 67q100 0 151 -60t51 -166q0 -34 -4 -56h-306q4 -72 36.5 -106.5t102.5 -34.5q81 0 121 42l36 -102q-109 -32 -167 -32zM358 297q0 53 -24.5 84t-71.5 31
q-49 0 -77 -32t-34 -83h207z" />
    <glyph glyph-name="ecircumflex" unicode="&#xea;" horiz-adv-x="504" 
d="M292 647q-48 -45 -122 -65l-24 25q36 24 54 85l50 14q27 -30 54 -49zM308 661l6 -11l-10 7zM377 605q-44 15 -63 45q21 -13 41 -21zM463 277q0 -34 -4 -56h-306q4 -72 36.5 -106.5t102.5 -34.5q81 0 121 42l36 -102q-109 -32 -167 -32q-113 0 -177.5 65t-64.5 192
q0 124 61.5 191t159.5 67q100 0 151 -60t51 -166zM151 297h207q0 53 -24.5 84t-71.5 31q-49 0 -77 -32t-34 -83z" />
    <glyph glyph-name="edieresis" unicode="&#xeb;" horiz-adv-x="504" 
d="M177 578q-25 0 -42 17t-17 42t17 42t42 17t42 -17t17 -42t-17 -42t-42 -17zM350 578q-25 0 -42 17t-17 42t17 42t42 17q26 0 42.5 -17t16.5 -42t-16.5 -42t-42.5 -17zM282 -12q-113 0 -177.5 65t-64.5 192q0 124 61.5 191t159.5 67q100 0 151 -60t51 -166q0 -34 -4 -56
h-306q4 -72 36.5 -106.5t102.5 -34.5q81 0 121 42l36 -102q-109 -32 -167 -32zM358 297q0 53 -24.5 84t-71.5 31q-49 0 -77 -32t-34 -83h207z" />
    <glyph glyph-name="igrave" unicode="&#xec;" horiz-adv-x="257" 
d="M195 634l-26 -58q-118 25 -198 101l51 80q85 -91 173 -123zM57 0q16 39 16 125v241q0 84 -16 125h136q-8 -44 -8 -125v-241q0 -84 15 -125h-143z" />
    <glyph glyph-name="iacute" unicode="&#xed;" horiz-adv-x="257" 
d="M77 619q81 40 158 133l57 -72q-76 -76 -186 -113zM57 0q16 39 16 125v241q0 84 -16 125h136q-8 -44 -8 -125v-241q0 -84 15 -125h-143z" />
    <glyph glyph-name="icircumflex" unicode="&#xee;" horiz-adv-x="257" 
d="M171 653l-12 -10q-48 -45 -122 -65l-24 25q36 24 54 85l50 14q27 -30 54 -49zM175 657l6 -11l-10 7zM244 601q-44 15 -63 45q21 -13 41 -21zM185 366v-241q0 -84 15 -125h-143q16 39 16 125v241q0 84 -16 125h136q-8 -44 -8 -125z" />
    <glyph glyph-name="idieresis" unicode="&#xef;" horiz-adv-x="257" 
d="M44 574q-25 0 -42 17t-17 42t17 42t42 17t42 -17t17 -42t-17 -42t-42 -17zM217 574q-25 0 -42 17t-17 42t17 42t42 17q26 0 42.5 -17t16.5 -42t-16.5 -42t-42.5 -17zM57 0q16 39 16 125v241q0 84 -16 125h136q-8 -44 -8 -125v-241q0 -84 15 -125h-143z" />
    <glyph glyph-name="eth" unicode="&#xf0;" horiz-adv-x="529" 
d="M335 623q154 -142 154 -362q0 -131 -60.5 -202t-165.5 -71q-97 0 -160 60.5t-63 176.5q0 99 61 162.5t147 63.5q76 0 118 -50q-27 98 -112 172l-8 -5l-9 15l3 2q-13 11 -28 22q-45 33 -92 44l50 91q8 -8 23 -18t36 -22.5t30 -18.5q35 -23 63 -48l15 9l8 -15zM279 104
q104 5 104 161q-5 17 -15 29q-23 33 -56.5 48.5t-59.5 4.5q-51 -10 -76 -48.5t-17 -91.5q6 -66 40 -92.5t80 -10.5z" />
    <glyph glyph-name="ntilde" unicode="&#xf1;" horiz-adv-x="563" 
d="M355 578q-28 0 -52 16t-43 31.5t-34 15.5q-20 0 -27.5 -17.5t3.5 -39.5l-87 4q11 61 39 94.5t66 33.5q36 0 74.5 -31.5t55.5 -31.5q20 0 27 17t-3 40l86 -5q-9 -60 -38 -93.5t-67 -33.5zM57 491h126q2 -36 -4 -62h8q21 28 61 51t88 23q74 0 115 -45t41 -133v-201
q0 -93 19 -124h-145q14 33 14 124v191q0 90 -76 90q-32 0 -63.5 -22t-52.5 -55v-204q0 -92 15 -124h-146q19 31 19 124v243q0 95 -19 124z" />
    <glyph glyph-name="ograve" unicode="&#xf2;" horiz-adv-x="539" 
d="M335 638l-26 -58q-118 25 -198 101l51 80q85 -91 173 -123zM269 -12q-104 0 -166.5 65t-62.5 192q0 128 62.5 193t166.5 65q105 0 167.5 -65t62.5 -193q0 -127 -62.5 -192t-167.5 -65zM269 83q115 0 115 162q0 163 -115 163q-114 0 -114 -163q0 -162 114 -162z" />
    <glyph glyph-name="oacute" unicode="&#xf3;" horiz-adv-x="539" 
d="M218 623q81 40 158 133l57 -72q-76 -76 -186 -113zM269 -12q-104 0 -166.5 65t-62.5 192q0 128 62.5 193t166.5 65q105 0 167.5 -65t62.5 -193q0 -127 -62.5 -192t-167.5 -65zM269 83q115 0 115 162q0 163 -115 163q-114 0 -114 -163q0 -162 114 -162z" />
    <glyph glyph-name="ocircumflex" unicode="&#xf4;" horiz-adv-x="539" 
d="M299 647q-48 -45 -122 -65l-24 25q36 24 54 85l50 14q27 -30 54 -49zM315 661l6 -11l-10 7zM384 605q-44 15 -63 45q21 -13 41 -21zM269 503q105 0 167.5 -65t62.5 -193q0 -127 -62.5 -192t-167.5 -65q-104 0 -166.5 65t-62.5 192q0 128 62.5 193t166.5 65zM269 83
q115 0 115 162q0 163 -115 163q-114 0 -114 -163q0 -162 114 -162z" />
    <glyph glyph-name="otilde" unicode="&#xf5;" horiz-adv-x="539" 
d="M337 578q-28 0 -52 16t-43 31.5t-34 15.5q-20 0 -27.5 -17.5t3.5 -39.5l-87 4q11 61 39 94.5t66 33.5q36 0 74.5 -31.5t55.5 -31.5q20 0 27 17t-3 40l86 -5q-9 -60 -38 -93.5t-67 -33.5zM269 -12q-104 0 -166.5 65t-62.5 192q0 128 62.5 193t166.5 65q105 0 167.5 -65
t62.5 -193q0 -127 -62.5 -192t-167.5 -65zM269 83q115 0 115 162q0 163 -115 163q-114 0 -114 -163q0 -162 114 -162z" />
    <glyph glyph-name="odieresis" unicode="&#xf6;" horiz-adv-x="539" 
d="M184 578q-25 0 -42 17t-17 42t17 42t42 17t42 -17t17 -42t-17 -42t-42 -17zM357 578q-25 0 -42 17t-17 42t17 42t42 17q26 0 42.5 -17t16.5 -42t-16.5 -42t-42.5 -17zM269 -12q-104 0 -166.5 65t-62.5 192q0 128 62.5 193t166.5 65q105 0 167.5 -65t62.5 -193
q0 -127 -62.5 -192t-167.5 -65zM269 83q115 0 115 162q0 163 -115 163q-114 0 -114 -163q0 -162 114 -162z" />
    <glyph glyph-name="divide" unicode="&#xf7;" horiz-adv-x="442" 
d="M222 370q-28 0 -46.5 18.5t-18.5 46.5q0 29 18.5 47t46.5 18q27 0 45 -18.5t18 -46.5t-18 -46.5t-45 -18.5zM42 350q16 -10 56 -10h246q40 0 56 10v-105q-16 10 -56 10h-246q-40 0 -56 -10v105zM222 95q-28 0 -46.5 18t-18.5 46q0 29 18.5 47.5t46.5 18.5q27 0 45 -19
t18 -47t-18 -46t-45 -18z" />
    <glyph glyph-name="oslash" unicode="&#xf8;" horiz-adv-x="547" 
d="M269 502q105 0 167.5 -65t62.5 -193q0 -127 -62.5 -192t-167.5 -65q-104 0 -166.5 65t-62.5 192q0 128 62.5 193t166.5 65zM269 407q-114 0 -114 -163q0 -65 18 -104l184 224q-28 43 -88 43zM269 82q115 0 115 162q0 60 -15 97l-183 -223q28 -36 83 -36z" />
    <glyph glyph-name="ugrave" unicode="&#xf9;" horiz-adv-x="559" 
d="M333 639l-26 -58q-118 25 -198 101l51 80q85 -91 173 -123zM220 -12q-151 0 -151 191v187q0 88 -22 125h135v-302q0 -105 70 -105q33 0 65.5 24.5t53.5 65.5v192q0 87 -23 125h135v-366q0 -87 19 -125h-129q-1 30 5 70h-8q-45 -82 -150 -82z" />
    <glyph glyph-name="uacute" unicode="&#xfa;" horiz-adv-x="559" 
d="M216 624q81 40 158 133l57 -72q-76 -76 -186 -113zM220 -12q-151 0 -151 191v187q0 88 -22 125h135v-302q0 -105 70 -105q33 0 65.5 24.5t53.5 65.5v192q0 87 -23 125h135v-366q0 -87 19 -125h-129q-1 30 5 70h-8q-45 -82 -150 -82z" />
    <glyph glyph-name="ucircumflex" unicode="&#xfb;" horiz-adv-x="559" 
d="M297 648q-48 -45 -122 -65l-24 25q36 24 54 85l50 14q27 -30 54 -49zM313 662l6 -11l-10 7zM382 606q-44 15 -63 45q21 -13 41 -21zM483 125q0 -87 19 -125h-129q-1 30 5 70h-8q-45 -82 -150 -82q-151 0 -151 191v187q0 88 -22 125h135v-302q0 -105 70 -105
q33 0 65.5 24.5t53.5 65.5v192q0 87 -23 125h135v-366z" />
    <glyph glyph-name="udieresis" unicode="&#xfc;" horiz-adv-x="559" 
d="M182 579q-25 0 -42 17t-17 42t17 42t42 17t42 -17t17 -42t-17 -42t-42 -17zM355 579q-25 0 -42 17t-17 42t17 42t42 17q26 0 42.5 -17t16.5 -42t-16.5 -42t-42.5 -17zM220 -12q-151 0 -151 191v187q0 88 -22 125h135v-302q0 -105 70 -105q33 0 65.5 24.5t53.5 65.5v192
q0 87 -23 125h135v-366q0 -87 19 -125h-129q-1 30 5 70h-8q-45 -82 -150 -82z" />
    <glyph glyph-name="yacute" unicode="&#xfd;" horiz-adv-x="515" 
d="M213 619q81 40 158 133l57 -72q-76 -76 -186 -113zM117 -197q-13 0 -37 2.5t-35 1.5l26 116q19 -32 59 -32q59 0 88 86l7 23l-12 2l-145 370q-33 87 -59 119l154 -1q-12 -31 7 -91l100 -277h4l85 277q17 62 4 92h143q-24 -32 -52 -119l-135 -397q-29 -87 -76 -129.5
t-126 -42.5z" />
    <glyph glyph-name="thorn" unicode="&#xfe;" horiz-adv-x="554" 
d="M188 32l1 -99q0 -93 19 -125h-151q20 31 20 125v650q0 95 -20 125h148q-19 -33 -19 -125l-1 -141q21 24 60 42.5t81 18.5q90 0 139 -66.5t49 -182.5q0 -127 -50.5 -196.5t-138.5 -69.5q-83 0 -137 44zM298 84q101 0 101 168q0 155 -101 155q-29 0 -60 -18t-49 -43v-206
q20 -24 49.5 -40t59.5 -16z" />
    <glyph glyph-name="ydieresis" unicode="&#xff;" horiz-adv-x="515" 
d="M180 574q-25 0 -42 17t-17 42t17 42t42 17t42 -17t17 -42t-17 -42t-42 -17zM353 574q-25 0 -42 17t-17 42t17 42t42 17q26 0 42.5 -17t16.5 -42t-16.5 -42t-42.5 -17zM117 -197q-13 0 -37 2.5t-35 1.5l26 116q19 -32 59 -32q59 0 88 86l7 23l-12 2l-145 370
q-33 87 -59 119l154 -1q-12 -31 7 -91l100 -277h4l85 277q17 62 4 92h143q-24 -32 -52 -119l-135 -397q-29 -87 -76 -129.5t-126 -42.5z" />
    <glyph glyph-name="Amacron" unicode="&#x100;" horiz-adv-x="610" 
d="M170 772l204 25l64 -43l-205 -26zM219 654h172q-5 -29 23 -118l127 -397q34 -107 59 -139h-158q14 23 -9 114l-19 64h-222l-19 -64q-23 -89 -10 -114h-153q28 35 59 139l127 397q29 90 23 118zM217 269h172l-84 287h-5z" />
    <glyph glyph-name="amacron" unicode="&#x101;" horiz-adv-x="510" 
d="M121 637l204 25l64 -43l-205 -26zM197 -12q-73 0 -113.5 39t-40.5 109q0 152 229 152h57v30q0 48 -19.5 70t-66.5 22q-92 0 -143 -54l-37 104q11 1 75 22t112 21q98 0 144.5 -46t46.5 -141v-192q0 -94 19 -124h-123l5 54h-8q-19 -27 -56.5 -46.5t-80.5 -19.5zM218 74
q34 0 65.5 23t45.5 54v59h-56q-120 0 -120 -69q0 -33 18 -50t47 -17z" />
    <glyph glyph-name="Abreve" unicode="&#x102;" horiz-adv-x="610" 
d="M303 716q-65 0 -96 38.5t-29 107.5h57q2 -36 19.5 -57t48.5 -21t49 20.5t20 57.5h56q3 -69 -28.5 -107.5t-96.5 -38.5zM219 654h172q-5 -29 23 -118l127 -397q34 -107 59 -139h-158q14 23 -9 114l-19 64h-222l-19 -64q-23 -89 -10 -114h-153q28 35 59 139l127 397
q29 90 23 118zM217 269h172l-84 287h-5z" />
    <glyph glyph-name="abreve" unicode="&#x103;" horiz-adv-x="510" 
d="M253 581q-65 0 -96 38.5t-29 107.5h57q2 -36 19.5 -57t48.5 -21t49 20.5t20 57.5h56q3 -69 -28.5 -107.5t-96.5 -38.5zM197 -12q-73 0 -113.5 39t-40.5 109q0 152 229 152h57v30q0 48 -19.5 70t-66.5 22q-92 0 -143 -54l-37 104q11 1 75 22t112 21q98 0 144.5 -46
t46.5 -141v-192q0 -94 19 -124h-123l5 54h-8q-19 -27 -56.5 -46.5t-80.5 -19.5zM218 74q34 0 65.5 23t45.5 54v59h-56q-120 0 -120 -69q0 -33 18 -50t47 -17z" />
    <glyph glyph-name="Aogonek" unicode="&#x104;" horiz-adv-x="610" 
d="M592 -121l25 -48q-34 -34 -84 -34q-39 0 -64 20.5t-25 61.5q0 36 24 68.5t65 52.5h-91q14 23 -9 114l-19 64h-222l-19 -64q-23 -89 -10 -114h-153q28 35 59 139l127 397q29 90 23 118h172q-5 -29 23 -118l127 -397q34 -107 59 -139q-35 -18 -56.5 -46t-21.5 -55
q0 -38 35 -38q20 0 35 18zM217 269h172l-84 287h-5z" />
    <glyph glyph-name="aogonek" unicode="&#x105;" horiz-adv-x="510" 
d="M452 -121l25 -48q-34 -34 -84 -34q-39 0 -64 20.5t-25 61.5q0 36 24 68.5t65 52.5h-56l5 54h-8q-19 -27 -56.5 -46.5t-80.5 -19.5q-73 0 -113.5 39t-40.5 109q0 152 229 152h57v30q0 48 -19.5 70t-66.5 22q-92 0 -143 -54l-37 104q11 1 75 22t112 21q98 0 144.5 -46
t46.5 -141v-192q0 -94 19 -124q-35 -18 -56.5 -46t-21.5 -55q0 -38 35 -38q20 0 35 18zM329 151v59h-56q-120 0 -120 -69q0 -33 18 -50t47 -17q34 0 65.5 23t45.5 54z" />
    <glyph glyph-name="Cacute" unicode="&#x106;" horiz-adv-x="568" 
d="M262 758q81 40 158 133l57 -72q-76 -76 -186 -113zM338 -12q-141 0 -215.5 76.5t-74.5 260.5q0 341 278 341q42 0 80.5 -10.5t70 -23.5t45.5 -15l-51 -118q-17 29 -54.5 49t-83.5 20q-79 0 -124 -54t-45 -185q0 -136 46 -189.5t137 -53.5q45 0 82.5 19t55.5 46l45 -122
q-11 -1 -75.5 -21t-116.5 -20z" />
    <glyph glyph-name="cacute" unicode="&#x107;" horiz-adv-x="459" 
d="M212 623q81 40 158 133l57 -72q-76 -76 -186 -113zM271 -12q-104 0 -167.5 62t-63.5 195t64 195.5t167 62.5q30 0 59 -7t56 -17t36 -12l-48 -106q-37 47 -94 47q-124 0 -124 -163q0 -162 124 -162q68 0 108 50l46 -107q-5 -1 -38 -12.5t-64 -18.5t-61 -7z" />
    <glyph glyph-name="Cdotaccent" unicode="&#x10a;" horiz-adv-x="568" 
d="M314 711q-66 0 -66 62q0 28 16.5 45t49.5 17t49.5 -17t16.5 -45q0 -62 -66 -62zM338 -12q-141 0 -215.5 76.5t-74.5 260.5q0 341 278 341q42 0 80.5 -10.5t70 -23.5t45.5 -15l-51 -118q-17 29 -54.5 49t-83.5 20q-79 0 -124 -54t-45 -185q0 -136 46 -189.5t137 -53.5
q45 0 82.5 19t55.5 46l45 -122q-11 -1 -75.5 -21t-116.5 -20z" />
    <glyph glyph-name="cdotaccent" unicode="&#x10b;" horiz-adv-x="459" 
d="M264 576q-66 0 -66 62q0 28 16.5 45t49.5 17t49.5 -17t16.5 -45q0 -62 -66 -62zM271 -12q-104 0 -167.5 62t-63.5 195t64 195.5t167 62.5q30 0 59 -7t56 -17t36 -12l-48 -106q-37 47 -94 47q-124 0 -124 -163q0 -162 124 -162q68 0 108 50l46 -107q-5 -1 -38 -12.5
t-64 -18.5t-61 -7z" />
    <glyph glyph-name="Ccaron" unicode="&#x10c;" horiz-adv-x="568" 
d="M260 705q-41 83 -110 138l41 39q76 -44 121 -109h4q49 68 121 109l40 -39q-70 -58 -109 -138h-108zM338 -12q-141 0 -215.5 76.5t-74.5 260.5q0 341 278 341q42 0 80.5 -10.5t70 -23.5t45.5 -15l-51 -118q-17 29 -54.5 49t-83.5 20q-79 0 -124 -54t-45 -185
q0 -136 46 -189.5t137 -53.5q45 0 82.5 19t55.5 46l45 -122q-11 -1 -75.5 -21t-116.5 -20z" />
    <glyph glyph-name="ccaron" unicode="&#x10d;" horiz-adv-x="459" 
d="M210 570q-41 83 -110 138l41 39q76 -44 121 -109h4q49 68 121 109l40 -39q-70 -58 -109 -138h-108zM271 -12q-104 0 -167.5 62t-63.5 195t64 195.5t167 62.5q30 0 59 -7t56 -17t36 -12l-48 -106q-37 47 -94 47q-124 0 -124 -163q0 -162 124 -162q68 0 108 50l46 -107
q-5 -1 -38 -12.5t-64 -18.5t-61 -7z" />
    <glyph glyph-name="Dcaron" unicode="&#x10e;" horiz-adv-x="628" 
d="M238 705q-41 83 -110 138l41 39q76 -44 121 -109h4q49 68 121 109l40 -39q-70 -58 -109 -138h-108zM63 654h206q155 0 233 -76t78 -248q0 -173 -77.5 -251.5t-227.5 -78.5h-212q25 34 25 131v392q0 97 -25 131zM261 95q103 0 153 51t50 184q0 131 -49 180t-154 49h-60
v-464h60z" />
    <glyph glyph-name="dcaron" unicode="&#x10f;" horiz-adv-x="563" 
d="M559 521l-13 189h78l-13 -189h-52zM242 -12q-87 0 -141.5 65.5t-54.5 191.5q0 124 56.5 191t142.5 67q79 0 126 -43v123q0 94 -19 125h140q-8 -36 -8 -125v-458q0 -94 19 -125h-127l4 45h-9q-47 -57 -129 -57zM269 84q29 0 58.5 19.5t43.5 46.5v202q-43 55 -101 55
q-49 0 -79 -40t-30 -120q0 -163 108 -163z" />
    <glyph glyph-name="Dcroat" unicode="&#x110;" horiz-adv-x="626" 
d="M267 654q155 0 233 -76t78 -248q0 -173 -77.5 -251.5t-227.5 -78.5h-211q24 33 24 131v187l-60 27l60 6v172q0 98 -24 131h205zM259 95q103 0 153 51t50 184q0 131 -49 180t-154 49h-60v-196l67 7l80 -36l-147 -15v-224h60z" />
    <glyph glyph-name="dcroat" unicode="&#x111;" horiz-adv-x="563" 
d="M484 560v-435q0 -94 19 -125h-127l4 45h-9q-47 -57 -129 -57q-87 0 -141.5 65.5t-54.5 191.5q0 124 56.5 191t142.5 67q79 0 126 -43v92l-16 -1l-78 44l94 7q-2 77 -19 106h140q-6 -30 -8 -102l71 -41zM371 150v202q-43 55 -101 55q-49 0 -79 -40t-30 -120
q0 -163 108 -163q29 0 58.5 19.5t43.5 46.5z" />
    <glyph glyph-name="Emacron" unicode="&#x112;" horiz-adv-x="539" 
d="M150 772l204 25l64 -43l-205 -26zM63 654h289q78 0 123 7v-122q-33 18 -119 18h-157v-171h110q89 0 122 11v-115q-32 11 -122 11h-110v-196h166q89 0 124 18v-122q-46 7 -128 7h-298q23 35 23 131v392q0 97 -23 131z" />
    <glyph glyph-name="emacron" unicode="&#x113;" horiz-adv-x="504" 
d="M129 637l204 25l64 -43l-205 -26zM282 -12q-113 0 -177.5 65t-64.5 192q0 124 61.5 191t159.5 67q100 0 151 -60t51 -166q0 -34 -4 -56h-306q4 -72 36.5 -106.5t102.5 -34.5q81 0 121 42l36 -102q-109 -32 -167 -32zM358 297q0 53 -24.5 84t-71.5 31q-49 0 -77 -32
t-34 -83h207z" />
    <glyph glyph-name="Edotaccent" unicode="&#x116;" horiz-adv-x="539" 
d="M283 711q-66 0 -66 62q0 28 16.5 45t49.5 17t49.5 -17t16.5 -45q0 -62 -66 -62zM63 654h289q78 0 123 7v-122q-33 18 -119 18h-157v-171h110q89 0 122 11v-115q-32 11 -122 11h-110v-196h166q89 0 124 18v-122q-46 7 -128 7h-298q23 35 23 131v392q0 97 -23 131z" />
    <glyph glyph-name="edotaccent" unicode="&#x117;" horiz-adv-x="504" 
d="M262 576q-66 0 -66 62q0 28 16.5 45t49.5 17t49.5 -17t16.5 -45q0 -62 -66 -62zM282 -12q-113 0 -177.5 65t-64.5 192q0 124 61.5 191t159.5 67q100 0 151 -60t51 -166q0 -34 -4 -56h-306q4 -72 36.5 -106.5t102.5 -34.5q81 0 121 42l36 -102q-109 -32 -167 -32zM358 297
q0 53 -24.5 84t-71.5 31q-49 0 -77 -32t-34 -83h207z" />
    <glyph glyph-name="Eogonek" unicode="&#x118;" horiz-adv-x="539" 
d="M480 -128l25 -48q-34 -34 -84 -34q-39 0 -64 20.5t-25 61.5q0 38 27.5 72t72.5 54q-20 2 -71 2h-298q23 35 23 131v392q0 97 -23 131h289q78 0 123 7v-122q-33 18 -119 18h-157v-171h110q89 0 122 11v-115q-32 11 -122 11h-110v-196h166q89 0 124 18v-122l-21 3l20 -3
q-35 -18 -56.5 -46t-21.5 -55q0 -38 35 -38q20 0 35 18z" />
    <glyph glyph-name="eogonek" unicode="&#x119;" horiz-adv-x="504" 
d="M441 -101l25 -48q-34 -34 -84 -34q-39 0 -64 20.5t-25 61.5q0 51 48 94q-30 -5 -59 -5q-113 0 -177.5 65t-64.5 192q0 124 61.5 191t159.5 67q100 0 151 -60t51 -166q0 -34 -4 -56h-306q4 -72 36.5 -106.5t102.5 -34.5q81 0 121 42l36 -102q-35 -18 -56.5 -46t-21.5 -55
q0 -38 35 -38q20 0 35 18zM262 412q-49 0 -77 -32t-34 -83h207q0 53 -24.5 84t-71.5 31z" />
    <glyph glyph-name="Ecaron" unicode="&#x11a;" horiz-adv-x="539" 
d="M230 705q-41 83 -110 138l41 39q76 -44 121 -109h4q49 68 121 109l40 -39q-70 -58 -109 -138h-108zM63 654h289q78 0 123 7v-122q-33 18 -119 18h-157v-171h110q89 0 122 11v-115q-32 11 -122 11h-110v-196h166q89 0 124 18v-122q-46 7 -128 7h-298q23 35 23 131v392
q0 97 -23 131z" />
    <glyph glyph-name="ecaron" unicode="&#x11b;" horiz-adv-x="504" 
d="M209 570q-41 83 -110 138l41 39q76 -44 121 -109h4q49 68 121 109l40 -39q-70 -58 -109 -138h-108zM282 -12q-113 0 -177.5 65t-64.5 192q0 124 61.5 191t159.5 67q100 0 151 -60t51 -166q0 -34 -4 -56h-306q4 -72 36.5 -106.5t102.5 -34.5q81 0 121 42l36 -102
q-109 -32 -167 -32zM358 297q0 53 -24.5 84t-71.5 31q-49 0 -77 -32t-34 -83h207z" />
    <glyph glyph-name="Gbreve" unicode="&#x11e;" horiz-adv-x="611" 
d="M330 716q-65 0 -96 38.5t-29 107.5h57q2 -36 19.5 -57t48.5 -21t49 20.5t20 57.5h56q3 -69 -28.5 -107.5t-96.5 -38.5zM339 -12q-138 0 -214.5 77t-76.5 260t76 262t211 79q46 0 85.5 -10t71.5 -23t44 -16l-49 -112q-51 63 -152 63q-83 0 -127 -52t-44 -187
q0 -136 45 -189.5t130 -53.5q75 0 111 31v129h-25q-60 0 -99 -11v115q33 -8 99 -8h136q-10 -28 -10 -119v-71q0 -79 9 -105q-4 -2 -30 -13t-41.5 -16.5t-41.5 -13.5t-53 -12t-55 -4z" />
    <glyph glyph-name="gbreve" unicode="&#x11f;" horiz-adv-x="513" 
d="M245 577q-65 0 -96 38.5t-29 107.5h57q2 -36 19.5 -57t48.5 -21t49 20.5t20 57.5h56q3 -69 -28.5 -107.5t-96.5 -38.5zM488 402q-44 23 -93 23v-7q35 -39 35 -93q0 -82 -50.5 -126t-136.5 -44q-11 0 -33 2q-13 -13 -13 -31q0 -19 20 -24.5t78 -5.5q191 0 191 -142
q0 -78 -63 -116t-173 -38q-105 0 -161 34.5t-56 102.5q0 42 26 74.5t63 44.5q-13 21 -13 49q0 42 31 71q-91 44 -91 151q0 83 54.5 129.5t139.5 46.5q45 0 82 -16h53q71 1 110 13v-98zM243 227q39 0 63.5 25.5t24.5 74.5q0 47 -24.5 72t-63.5 25t-63 -24t-24 -73
q0 -50 24.5 -75t62.5 -25zM282 5q-70 0 -108 13q-43 -24 -43 -72q0 -68 119 -68q61 0 96 18.5t35 53.5q0 30 -23.5 42.5t-75.5 12.5z" />
    <glyph glyph-name="Gdotaccent" unicode="&#x120;" horiz-adv-x="611" 
d="M330 711q-66 0 -66 62q0 28 16.5 45t49.5 17t49.5 -17t16.5 -45q0 -62 -66 -62zM339 -12q-138 0 -214.5 77t-76.5 260t76 262t211 79q46 0 85.5 -10t71.5 -23t44 -16l-49 -112q-51 63 -152 63q-83 0 -127 -52t-44 -187q0 -136 45 -189.5t130 -53.5q75 0 111 31v129h-25
q-60 0 -99 -11v115q33 -8 99 -8h136q-10 -28 -10 -119v-71q0 -79 9 -105q-4 -2 -30 -13t-41.5 -16.5t-41.5 -13.5t-53 -12t-55 -4z" />
    <glyph glyph-name="gdotaccent" unicode="&#x121;" horiz-adv-x="513" 
d="M246 572q-66 0 -66 62q0 28 16.5 45t49.5 17t49.5 -17t16.5 -45q0 -62 -66 -62zM488 402q-44 23 -93 23v-7q35 -39 35 -93q0 -82 -50.5 -126t-136.5 -44q-11 0 -33 2q-13 -13 -13 -31q0 -19 20 -24.5t78 -5.5q191 0 191 -142q0 -78 -63 -116t-173 -38q-105 0 -161 34.5
t-56 102.5q0 42 26 74.5t63 44.5q-13 21 -13 49q0 42 31 71q-91 44 -91 151q0 83 54.5 129.5t139.5 46.5q45 0 82 -16h53q71 1 110 13v-98zM243 227q39 0 63.5 25.5t24.5 74.5q0 47 -24.5 72t-63.5 25t-63 -24t-24 -73q0 -50 24.5 -75t62.5 -25zM282 5q-70 0 -108 13
q-43 -24 -43 -72q0 -68 119 -68q61 0 96 18.5t35 53.5q0 30 -23.5 42.5t-75.5 12.5z" />
    <glyph glyph-name="uni0122" unicode="&#x122;" horiz-adv-x="611" 
d="M339 -12q-138 0 -214.5 77t-76.5 260t76 262t211 79q46 0 85.5 -10t71.5 -23t44 -16l-49 -112q-51 63 -152 63q-83 0 -127 -52t-44 -187q0 -136 45 -189.5t130 -53.5q75 0 111 31v129h-25q-60 0 -99 -11v115q33 -8 99 -8h136q-10 -28 -10 -119v-71q0 -79 9 -105
q-4 -2 -30 -13t-41.5 -16.5t-41.5 -13.5t-53 -12t-55 -4zM337 -57q59 0 59 -73q0 -92 -97 -122l-16 36q58 21 61 66h-8q-20 0 -34 12t-14 33q0 22 13.5 35t35.5 13z" />
    <glyph glyph-name="uni0123" unicode="&#x123;" horiz-adv-x="513" 
d="M249 555q-28 0 -45 18t-17 52q0 92 100 123l16 -31q-56 -23 -60 -66h7q22 0 37 -12.5t15 -34.5q0 -21 -15 -35t-38 -14zM488 402q-44 23 -93 23v-7q35 -39 35 -93q0 -82 -50.5 -126t-136.5 -44q-11 0 -33 2q-13 -13 -13 -31q0 -19 20 -24.5t78 -5.5q191 0 191 -142
q0 -78 -63 -116t-173 -38q-105 0 -161 34.5t-56 102.5q0 42 26 74.5t63 44.5q-13 21 -13 49q0 42 31 71q-91 44 -91 151q0 83 54.5 129.5t139.5 46.5q45 0 82 -16h53q71 1 110 13v-98zM243 227q39 0 63.5 25.5t24.5 74.5q0 47 -24.5 72t-63.5 25t-63 -24t-24 -73
q0 -50 24.5 -75t62.5 -25zM282 5q-70 0 -108 13q-43 -24 -43 -72q0 -68 119 -68q61 0 96 18.5t35 53.5q0 30 -23.5 42.5t-75.5 12.5z" />
    <glyph glyph-name="Hbar" unicode="&#x126;" horiz-adv-x="664" 
d="M580 494v-363q0 -96 23 -131h-159q23 35 23 131v160h-268v-160q0 -96 23 -131h-159q23 35 23 131v378l-49 14l49 2q0 94 -23 129h159q-23 -36 -23 -125l268 10q-1 83 -23 115h159q-23 -35 -23 -131v-13l50 -14zM199 391h268v99l-268 -11v-88z" />
    <glyph glyph-name="hbar" unicode="&#x127;" horiz-adv-x="564" 
d="M367 0q14 33 14 125v185q0 53 -18.5 74t-54.5 21q-29 0 -62 -20.5t-57 -55.5v-204q0 -93 15 -125h-146q19 31 19 125v438l-66 40l66 4q-2 74 -19 101h139q-7 -39 -8 -93l27 2l71 -44l-98 -7v-70q0 -48 -7 -65l7 -1q21 30 61 51.5t85 21.5q77 0 117.5 -46.5t40.5 -136.5
v-195q0 -94 20 -125h-146z" />
    <glyph glyph-name="Imacron" unicode="&#x12a;" horiz-adv-x="296" 
d="M285 754l-205 -26l-63 44l204 25zM129 613q5 1 10 -8zM139 605l77 -60q-13 -60 0 -131l-72 -323q5 -25 11 -41l-75 59q12 56 0 131l72 323q-8 33 -13 42zM167 41q-7 -2 -12 9z" />
    <glyph glyph-name="imacron" unicode="&#x12b;" horiz-adv-x="257" 
d="M-4 633l204 25l64 -43l-205 -26zM57 0q16 39 16 125v241q0 84 -16 125h136q-8 -44 -8 -125v-241q0 -84 15 -125h-143z" />
    <glyph glyph-name="Iogonek" unicode="&#x12e;" horiz-adv-x="296" 
d="M129 613q5 1 10 -8zM155 50l-75 59q12 56 0 131l72 323q-8 33 -13 42l77 -60q-13 -60 0 -131l-72 -323q5 -25 11 -41zM167 41q-7 -2 -12 9zM219 -121l25 -48q-34 -34 -84 -34q-39 0 -64 20.5t-25 61.5q0 39 28.5 73.5t75.5 54.5l52 -7q-35 -18 -56.5 -46t-21.5 -55
q0 -38 35 -38q20 0 35 18z" />
    <glyph glyph-name="iogonek" unicode="&#x12f;" horiz-adv-x="274" 
d="M136 580q-35 0 -53 17t-18 46t18 46.5t53 17.5q36 0 54 -17t18 -47q0 -29 -18.5 -46t-53.5 -17zM203 -121l25 -48q-34 -34 -84 -34q-39 0 -64 20.5t-25 61.5q0 36 24 68.5t65 52.5h-83q19 31 19 125v241q0 94 -19 125h140q-9 -36 -9 -125v-241q0 -94 19 -125
q-35 -18 -56.5 -46t-21.5 -55q0 -38 35 -38q20 0 35 18z" />
    <glyph glyph-name="Idotaccent" unicode="&#x130;" horiz-adv-x="296" 
d="M150 711q-66 0 -66 62q0 28 16.5 45t49.5 17t49.5 -17t16.5 -45q0 -62 -66 -62zM129 613q5 1 10 -8zM139 605l77 -60q-13 -60 0 -131l-72 -323q5 -25 11 -41l-75 59q12 56 0 131l72 323q-8 33 -13 42zM167 41q-7 -2 -12 9z" />
    <glyph glyph-name="dotlessi" unicode="&#x131;" horiz-adv-x="257" 
d="M57 0q16 39 16 125v241q0 84 -16 125h136q-8 -44 -8 -125v-241q0 -84 15 -125h-143z" />
    <glyph glyph-name="uni0136" unicode="&#x136;" horiz-adv-x="614" 
d="M63 654h154q-18 -36 -18 -125v-175h3l168 206q44 58 52 94h158q-45 -35 -97 -107l-118 -147l148 -254q54 -94 97 -146h-160q-5 45 -46 115l-112 193l-93 -111v-75q0 -86 18 -122h-154q23 35 23 131v392q0 96 -23 131zM310 -57q59 0 59 -73q0 -92 -97 -122l-16 36
q58 21 61 66h-8q-19 0 -33.5 12t-14.5 33q0 22 13.5 35t35.5 13z" />
    <glyph glyph-name="uni0137" unicode="&#x137;" horiz-adv-x="531" 
d="M58 708h138q-8 -36 -8 -125v-266q0 -41 -8 -63h8l122 153q41 53 38 84h164q-45 -33 -114 -116l-72 -87l113 -166q59 -89 97 -122h-166q1 37 -35 96l-76 114l-71 -86v-8q0 -85 15 -116h-145q19 31 19 125v458q0 94 -19 125zM275 -57q59 0 59 -73q0 -92 -97 -122l-16 36
q58 21 61 66h-8q-20 0 -34 12t-14 33q0 22 13.5 35t35.5 13z" />
    <glyph glyph-name="Lacute" unicode="&#x139;" horiz-adv-x="496" 
d="M91 758q81 40 158 133l57 -72q-76 -76 -186 -113zM63 654h159q-23 -35 -23 -131v-428h157q80 0 117 21v-123q-38 7 -117 7h-293q23 35 23 131v392q0 96 -23 131z" />
    <glyph glyph-name="lacute" unicode="&#x13a;" horiz-adv-x="266" 
d="M80 811q81 40 158 133l57 -72q-76 -76 -186 -113zM58 0q19 31 19 125v458q0 94 -19 125h142q-11 -33 -11 -125v-458q0 -94 19 -125h-150z" />
    <glyph glyph-name="uni013B" unicode="&#x13b;" horiz-adv-x="496" 
d="M63 654h159q-23 -35 -23 -131v-428h157q80 0 117 21v-123q-38 7 -117 7h-293q23 35 23 131v392q0 96 -23 131zM271 -57q59 0 59 -73q0 -92 -97 -122l-16 36q58 21 61 66h-8q-20 0 -34 12t-14 33q0 22 13.5 35t35.5 13z" />
    <glyph glyph-name="uni013C" unicode="&#x13c;" horiz-adv-x="266" 
d="M58 0q19 31 19 125v458q0 94 -19 125h142q-11 -33 -11 -125v-458q0 -94 19 -125h-150zM134 -57q59 0 59 -73q0 -92 -97 -122l-16 36q58 21 61 66h-8q-19 0 -33.5 12t-14.5 33q0 22 13.5 35t35.5 13z" />
    <glyph glyph-name="Lcaron" unicode="&#x13d;" horiz-adv-x="498" 
d="M64 654h158q-23 -35 -23 -131v-428h157q80 0 117 21v-123q-38 7 -117 7h-292q23 35 23 131v392q0 96 -23 131zM320 465l-17 188h91l-16 -188h-58z" />
    <glyph glyph-name="lcaron" unicode="&#x13e;" horiz-adv-x="266" 
d="M78 758q-41 83 -110 138l41 39q76 -44 121 -109h4q49 68 121 109l40 -39q-70 -58 -109 -138h-108zM58 0q19 31 19 125v458q0 94 -19 125h142q-11 -33 -11 -125v-458q0 -94 19 -125h-150z" />
    <glyph glyph-name="Lslash" unicode="&#x141;" horiz-adv-x="496" 
d="M356 95q80 0 117 21v-123q-38 7 -117 7h-292q23 35 23 131v183l-61 15l61 20v174q0 96 -23 131h158q-23 -35 -23 -131v-137l3 1l87 -21l-90 -30v-241h157z" />
    <glyph glyph-name="lslash" unicode="&#x142;" horiz-adv-x="274" 
d="M190 337v-212q0 -94 19 -125h-150q19 31 19 125v187l-52 17l52 20v234q0 96 -19 125h143q-12 -36 -12 -125v-207l56 -18z" />
    <glyph glyph-name="Nacute" unicode="&#x143;" horiz-adv-x="669" 
d="M286 758q81 40 158 133l57 -72q-76 -76 -186 -113zM63 654h153l268 -466h5q-14 61 -14 120v223q0 90 -23 123h153q-22 -33 -22 -131v-374q0 -108 18 -149h-128l-289 499h-5q15 -60 15 -119v-260q0 -86 22 -120h-153q23 33 23 131v392q0 97 -23 131z" />
    <glyph glyph-name="nacute" unicode="&#x144;" horiz-adv-x="563" 
d="M236 623q81 40 158 133l57 -72q-76 -76 -186 -113zM57 491h126q2 -36 -4 -62h8q21 28 61 51t88 23q74 0 115 -45t41 -133v-201q0 -93 19 -124h-145q14 33 14 124v191q0 90 -76 90q-32 0 -63.5 -22t-52.5 -55v-204q0 -92 15 -124h-146q19 31 19 124v243q0 95 -19 124z" />
    <glyph glyph-name="uni0145" unicode="&#x145;" horiz-adv-x="669" 
d="M63 654h153l268 -466h5q-14 61 -14 120v223q0 90 -23 123h153q-22 -33 -22 -131v-374q0 -108 18 -149h-128l-289 499h-5q15 -60 15 -119v-260q0 -86 22 -120h-153q23 33 23 131v392q0 97 -23 131zM325 -57q59 0 59 -73q0 -92 -97 -122l-16 36q58 21 61 66h-8
q-20 0 -34 12t-14 33q0 22 13.5 35t35.5 13z" />
    <glyph glyph-name="uni0146" unicode="&#x146;" horiz-adv-x="563" 
d="M57 491h126q2 -36 -4 -62h8q21 28 61 51t88 23q74 0 115 -45t41 -133v-201q0 -93 19 -124h-145q14 33 14 124v191q0 90 -76 90q-32 0 -63.5 -22t-52.5 -55v-204q0 -92 15 -124h-146q19 31 19 124v243q0 95 -19 124zM280 -57q59 0 59 -73q0 -92 -97 -122l-16 36
q58 21 61 66h-8q-19 0 -33.5 12t-14.5 33q0 22 13.5 35t35.5 13z" />
    <glyph glyph-name="Ncaron" unicode="&#x147;" horiz-adv-x="669" 
d="M284 705q-41 83 -110 138l41 39q76 -44 121 -109h4q49 68 121 109l40 -39q-70 -58 -109 -138h-108zM63 654h153l268 -466h5q-14 61 -14 120v223q0 90 -23 123h153q-22 -33 -22 -131v-374q0 -108 18 -149h-128l-289 499h-5q15 -60 15 -119v-260q0 -86 22 -120h-153
q23 33 23 131v392q0 97 -23 131z" />
    <glyph glyph-name="ncaron" unicode="&#x148;" horiz-adv-x="563" 
d="M234 570q-41 83 -110 138l41 39q76 -44 121 -109h4q49 68 121 109l40 -39q-70 -58 -109 -138h-108zM57 491h126q2 -36 -4 -62h8q21 28 61 51t88 23q74 0 115 -45t41 -133v-201q0 -93 19 -124h-145q14 33 14 124v191q0 90 -76 90q-32 0 -63.5 -22t-52.5 -55v-204
q0 -92 15 -124h-146q19 31 19 124v243q0 95 -19 124z" />
    <glyph glyph-name="Eng" unicode="&#x14a;" horiz-adv-x="650" 
d="M448 654h153q-23 -33 -23 -131v-541q0 -91 -34 -136.5t-113 -45.5q-18 0 -43.5 2.5t-35.5 0.5l16 106q18 -22 47 -22q55 0 55 84v29l-287 504h-4q15 -67 15 -131v-242q0 -97 22 -131h-153q23 33 23 131v392q0 97 -23 131h152l265 -467h5q-14 61 -14 134v202q0 97 -23 131
z" />
    <glyph glyph-name="eng" unicode="&#x14b;" horiz-adv-x="559" 
d="M55 490h124v-62h3q63 75 154 75q155 0 155 -192v-330q0 -179 -150 -179q-18 0 -43 2.5t-33 2.5l23 99q11 -15 37 -15q31 0 42.5 21.5t11.5 66.5v322q0 106 -72 106q-62 0 -120 -80v-203q0 -93 19 -124h-151q20 31 20 124v242q0 93 -20 124z" />
    <glyph glyph-name="Omacron" unicode="&#x14c;" horiz-adv-x="666" 
d="M200 772l204 25l64 -43l-205 -26zM333 -12q-135 0 -210 84.5t-75 257.5q0 171 74.5 253.5t210.5 82.5q135 0 209.5 -82.5t74.5 -253.5q0 -173 -74.5 -257.5t-209.5 -84.5zM333 87q167 0 167 243q0 125 -42 180.5t-125 55.5q-84 0 -126 -55.5t-42 -180.5q0 -243 168 -243z
" />
    <glyph glyph-name="omacron" unicode="&#x14d;" horiz-adv-x="539" 
d="M136 637l204 25l64 -43l-205 -26zM269 -12q-104 0 -166.5 65t-62.5 192q0 128 62.5 193t166.5 65q105 0 167.5 -65t62.5 -193q0 -127 -62.5 -192t-167.5 -65zM269 83q115 0 115 162q0 163 -115 163q-114 0 -114 -163q0 -162 114 -162z" />
    <glyph glyph-name="Ohungarumlaut" unicode="&#x150;" horiz-adv-x="666" 
d="M214 724q60 73 92 169l75 -38q-37 -85 -109 -159zM380 724q61 76 92 169l75 -38q-39 -89 -108 -159zM333 -12q-135 0 -210 84.5t-75 257.5q0 171 74.5 253.5t210.5 82.5q135 0 209.5 -82.5t74.5 -253.5q0 -173 -74.5 -257.5t-209.5 -84.5zM333 87q167 0 167 243
q0 125 -42 180.5t-125 55.5q-84 0 -126 -55.5t-42 -180.5q0 -243 168 -243z" />
    <glyph glyph-name="ohungarumlaut" unicode="&#x151;" horiz-adv-x="539" 
d="M150 589q60 73 92 169l75 -38q-37 -85 -109 -159zM316 589q61 76 92 169l75 -38q-39 -88 -108 -159zM269 -12q-104 0 -166.5 65t-62.5 192q0 128 62.5 193t166.5 65q105 0 167.5 -65t62.5 -193q0 -127 -62.5 -192t-167.5 -65zM269 83q115 0 115 162q0 163 -115 163
q-114 0 -114 -163q0 -162 114 -162z" />
    <glyph glyph-name="OE" unicode="&#x152;" horiz-adv-x="864" 
d="M686 97q88 0 127 16v-120q-45 7 -127 7h-261q-41 -12 -92 -12q-135 0 -210 85t-75 257q0 170 75 253t210 83q51 0 93 -12h251q78 0 123 7v-120q-40 16 -123 16h-143v-169h100q85 0 121 11v-119q-30 11 -121 11h-100v-194h152zM165 330q0 -243 168 -243q51 0 89 24v20v392
v22q-35 21 -89 21q-84 0 -126 -55.5t-42 -180.5z" />
    <glyph glyph-name="oe" unicode="&#x153;" horiz-adv-x="868" 
d="M827 277q0 -34 -4 -56h-306q4 -72 36.5 -106.5t102.5 -34.5q81 0 121 42l36 -102q-109 -32 -167 -32q-132 0 -194 84q-60 -84 -183 -84q-104 0 -166.5 65t-62.5 192q0 128 62.5 193t166.5 65q123 0 183 -84q60 84 173 84q100 0 151 -60t51 -166zM515 297h207
q0 53 -24.5 84t-71.5 31q-49 0 -77 -32t-34 -83zM269 83q115 0 115 162q0 163 -115 163q-114 0 -114 -163q0 -162 114 -162z" />
    <glyph glyph-name="Racute" unicode="&#x154;" horiz-adv-x="595" 
d="M233 758q81 40 158 133l57 -72q-76 -76 -186 -113zM63 654h234q118 0 183 -44.5t65 -151.5q0 -75 -37.5 -124.5t-99.5 -65.5l81 -143q44 -77 90 -125h-170q3 40 -36 114l-76 137h-98v-120q0 -94 17 -131h-153q23 33 23 131v392q0 98 -23 131zM291 342q72 0 107.5 27
t35.5 88q0 57 -35 80t-105 23h-95v-218h92z" />
    <glyph glyph-name="racute" unicode="&#x155;" horiz-adv-x="380" 
d="M136 623q81 40 158 133l57 -72q-76 -76 -186 -113zM57 491h125q0 -62 -4 -85h9q15 42 52 69.5t81 27.5q13 0 31.5 -2.5t23.5 -2.5l-22 -112q-19 17 -45 17q-37 0 -71.5 -35.5t-48.5 -86.5v-156q0 -94 19 -125h-150q19 31 19 125v241q0 94 -19 125z" />
    <glyph glyph-name="uni0156" unicode="&#x156;" horiz-adv-x="595" 
d="M63 654h234q118 0 183 -44.5t65 -151.5q0 -75 -37.5 -124.5t-99.5 -65.5l81 -143q44 -77 90 -125h-170q3 40 -36 114l-76 137h-98v-120q0 -94 17 -131h-153q23 33 23 131v392q0 98 -23 131zM291 342q72 0 107.5 27t35.5 88q0 57 -35 80t-105 23h-95v-218h92zM305 -57
q59 0 59 -73q0 -92 -97 -122l-16 36q58 21 61 66h-8q-20 0 -34 12t-14 33q0 22 13.5 35t35.5 13z" />
    <glyph glyph-name="uni0157" unicode="&#x157;" horiz-adv-x="380" 
d="M57 491h125q0 -62 -4 -85h9q15 42 52 69.5t81 27.5q13 0 31.5 -2.5t23.5 -2.5l-22 -112q-19 17 -45 17q-37 0 -71.5 -35.5t-48.5 -86.5v-156q0 -94 19 -125h-150q19 31 19 125v241q0 94 -19 125zM136 -57q59 0 59 -73q0 -92 -97 -122l-16 36q58 21 61 66h-8
q-19 0 -33.5 12t-14.5 33q0 22 13.5 35t35.5 13z" />
    <glyph glyph-name="Rcaron" unicode="&#x158;" horiz-adv-x="595" 
d="M231 705q-41 83 -110 138l41 39q76 -44 121 -109h4q49 68 121 109l40 -39q-70 -58 -109 -138h-108zM63 654h234q118 0 183 -44.5t65 -151.5q0 -75 -37.5 -124.5t-99.5 -65.5l81 -143q44 -77 90 -125h-170q3 40 -36 114l-76 137h-98v-120q0 -94 17 -131h-153q23 33 23 131
v392q0 98 -23 131zM291 342q72 0 107.5 27t35.5 88q0 57 -35 80t-105 23h-95v-218h92z" />
    <glyph glyph-name="rcaron" unicode="&#x159;" horiz-adv-x="380" 
d="M134 570q-41 83 -110 138l41 39q76 -44 121 -109h4q49 68 121 109l40 -39q-70 -58 -109 -138h-108zM57 491h125q0 -62 -4 -85h9q15 42 52 69.5t81 27.5q13 0 31.5 -2.5t23.5 -2.5l-22 -112q-19 17 -45 17q-37 0 -71.5 -35.5t-48.5 -86.5v-156q0 -94 19 -125h-150
q19 31 19 125v241q0 94 -19 125z" />
    <glyph glyph-name="Sacute" unicode="&#x15a;" horiz-adv-x="538" 
d="M221 758q81 40 158 133l57 -72q-76 -76 -186 -113zM269 -12q-58 0 -139.5 26.5t-93.5 27.5l53 129q28 -39 79 -63t102 -24q116 0 116 89q0 40 -22.5 61t-79.5 42l-63 23q-149 53 -149 188q0 81 58.5 130t154.5 49q51 0 120.5 -21t76.5 -22l-47 -118q-61 66 -148 66
q-47 0 -74 -21.5t-27 -60.5q0 -37 22.5 -57t72.5 -38l62 -23q76 -28 116.5 -72t40.5 -118q0 -85 -60 -139t-171 -54z" />
    <glyph glyph-name="sacute" unicode="&#x15b;" horiz-adv-x="433" 
d="M167 623q81 40 158 133l57 -72q-76 -76 -186 -113zM212 -12q-45 0 -106.5 15.5t-75.5 16.5l43 118q21 -27 58.5 -44.5t79.5 -17.5q82 0 82 59q0 42 -74 63l-39 11q-60 16 -94 53.5t-34 94.5q0 69 47 107.5t128 38.5q35 0 89.5 -15t68.5 -16l-44 -105q-16 21 -45 34.5
t-61 13.5q-37 0 -57 -14t-20 -40q0 -45 64 -65l46 -14q131 -39 131 -142q0 -70 -49 -111t-138 -41z" />
    <glyph glyph-name="Scedilla" unicode="&#x15e;" horiz-adv-x="538" 
d="M500 181q0 -80 -53.5 -133t-154.5 -59l-22 -48q79 -15 79 -77q0 -47 -47 -72t-133 -24l-9 59q53 -8 80 3t27 34q0 40 -70 45l36 81q-47 5 -113.5 27.5t-83.5 24.5l53 129q28 -39 79 -63t102 -24q116 0 116 89q0 40 -22.5 61t-79.5 42l-63 23q-149 53 -149 188
q0 81 58.5 130t154.5 49q51 0 120.5 -21t76.5 -22l-47 -118q-61 66 -148 66q-47 0 -74 -21.5t-27 -60.5q0 -37 22.5 -57t72.5 -38l62 -23q76 -28 116.5 -72t40.5 -118z" />
    <glyph glyph-name="scedilla" unicode="&#x15f;" horiz-adv-x="433" 
d="M399 140q0 -65 -41.5 -105t-118.5 -46l-22 -48q79 -15 79 -77q0 -47 -47 -72t-133 -24l-9 59q53 -8 80 3t27 34q0 40 -70 45l36 81q-34 3 -83.5 16t-66.5 14l43 118q21 -27 58.5 -44.5t79.5 -17.5q82 0 82 59q0 42 -74 63l-39 11q-60 16 -94 53.5t-34 94.5q0 69 47 107.5
t128 38.5q35 0 89.5 -15t68.5 -16l-44 -105q-16 21 -45 34.5t-61 13.5q-37 0 -57 -14t-20 -40q0 -45 64 -65l46 -14q131 -39 131 -142z" />
    <glyph glyph-name="Scaron" unicode="&#x160;" horiz-adv-x="538" 
d="M219 705q-41 83 -110 138l41 39q76 -44 121 -109h4q49 68 121 109l40 -39q-70 -58 -109 -138h-108zM269 -12q-58 0 -139.5 26.5t-93.5 27.5l53 129q28 -39 79 -63t102 -24q116 0 116 89q0 40 -22.5 61t-79.5 42l-63 23q-149 53 -149 188q0 81 58.5 130t154.5 49
q51 0 120.5 -21t76.5 -22l-47 -118q-61 66 -148 66q-47 0 -74 -21.5t-27 -60.5q0 -37 22.5 -57t72.5 -38l62 -23q76 -28 116.5 -72t40.5 -118q0 -85 -60 -139t-171 -54z" />
    <glyph glyph-name="scaron" unicode="&#x161;" horiz-adv-x="433" 
d="M165 570q-41 83 -110 138l41 39q76 -44 121 -109h4q49 68 121 109l40 -39q-70 -58 -109 -138h-108zM212 -12q-45 0 -106.5 15.5t-75.5 16.5l43 118q21 -27 58.5 -44.5t79.5 -17.5q82 0 82 59q0 42 -74 63l-39 11q-60 16 -94 53.5t-34 94.5q0 69 47 107.5t128 38.5
q35 0 89.5 -15t68.5 -16l-44 -105q-16 21 -45 34.5t-61 13.5q-37 0 -57 -14t-20 -40q0 -45 64 -65l46 -14q131 -39 131 -142q0 -70 -49 -111t-138 -41z" />
    <glyph glyph-name="uni0162" unicode="&#x162;" horiz-adv-x="537" 
d="M397 654q68 0 118 7v-120q-43 16 -118 16h-72v-426q0 -88 23 -131h-49l-27 -59q79 -15 79 -77q0 -47 -47 -72t-133 -24l-9 59q53 -8 80 3t27 34q0 40 -70 45l41 91h-51q23 42 23 131v426h-71q-75 0 -119 -16v120q49 -7 119 -7h256z" />
    <glyph glyph-name="uni0163" unicode="&#x163;" horiz-adv-x="369" 
d="M231 -59q79 -15 79 -77q0 -47 -47 -72t-133 -24l-9 59q53 -8 80 3t27 34q0 40 -70 45l38 84q-102 24 -102 162v248h-70v76q48 13 98 43t85 67v-98h125v-96q-33 8 -125 8v-239q0 -45 15 -66t51 -21q34 0 55 25l20 -102q-8 -1 -26 -4t-35.5 -5.5t-34.5 -2.5z" />
    <glyph glyph-name="Tcaron" unicode="&#x164;" horiz-adv-x="537" 
d="M217 706q-41 83 -110 138l41 39q76 -44 121 -109h4q49 68 121 109l40 -39q-70 -58 -109 -138h-108zM212 557h-71q-75 0 -119 -16v120q49 -7 119 -7h256q68 0 118 7v-120q-43 16 -118 16h-72v-426q0 -88 23 -131h-159q23 42 23 131v426z" />
    <glyph glyph-name="tcaron" unicode="&#x165;" 
d="M262 544l-10 174h77l-19 -174h-48zM245 -12q-151 0 -151 167v248h-70v76q48 13 98 43t85 67v-98h125v-96q-33 8 -125 8v-239q0 -45 15 -66t51 -21q34 0 55 25l20 -102q-9 -1 -28 -4.5t-38 -5.5t-37 -2z" />
    <glyph glyph-name="Tbar" unicode="&#x166;" horiz-adv-x="537" 
d="M397 557h-72v-208l17 2l86 -43l-103 -13v-164q0 -88 23 -131h-159q23 42 23 131v150h-4l-86 44l90 11v221h-71q-75 0 -119 -16v120q49 -7 119 -7h256q68 0 118 7v-120q-43 16 -118 16z" />
    <glyph glyph-name="tbar" unicode="&#x167;" horiz-adv-x="369" 
d="M328 102l20 -102q-9 -1 -28 -4.5t-38 -5.5t-37 -2q-151 0 -151 167v81l-65 37l65 5v125h-70v76q48 13 98 43t85 67v-98h125v-96q-33 8 -125 8v-117l19 1l78 -44l-97 -7v-72q0 -45 15 -66t51 -21q34 0 55 25z" />
    <glyph glyph-name="Umacron" unicode="&#x16a;" horiz-adv-x="651" 
d="M194 772l204 25l64 -43l-205 -26zM327 -12q-248 0 -248 280v255q0 96 -23 131h159q-23 -35 -23 -131v-250q0 -100 33.5 -143.5t101.5 -43.5t102 44t34 143v250q0 96 -23 131h154q-23 -37 -23 -131v-255q0 -280 -244 -280z" />
    <glyph glyph-name="umacron" unicode="&#x16b;" horiz-adv-x="559" 
d="M134 638l204 25l64 -43l-205 -26zM220 -12q-151 0 -151 191v187q0 88 -22 125h135v-302q0 -105 70 -105q33 0 65.5 24.5t53.5 65.5v192q0 87 -23 125h135v-366q0 -87 19 -125h-129q-1 30 5 70h-8q-45 -82 -150 -82z" />
    <glyph glyph-name="Uring" unicode="&#x16e;" horiz-adv-x="651" 
d="M327 703q-53 0 -84 25.5t-31 66.5q0 40 31 65.5t84 25.5t84 -25.5t31 -65.5q0 -41 -31 -66.5t-84 -25.5zM327 752q23 0 37 11t14 32q0 20 -14 31t-37 11t-37.5 -11t-14.5 -31t14.5 -31.5t37.5 -11.5zM327 -12q-248 0 -248 280v255q0 96 -23 131h159q-23 -35 -23 -131
v-250q0 -100 33.5 -143.5t101.5 -43.5t102 44t34 143v250q0 96 -23 131h154q-23 -37 -23 -131v-255q0 -280 -244 -280z" />
    <glyph glyph-name="uring" unicode="&#x16f;" horiz-adv-x="559" 
d="M267 569q-53 0 -84 25.5t-31 66.5q0 40 31 65.5t84 25.5t84 -25.5t31 -65.5q0 -41 -31 -66.5t-84 -25.5zM267 618q23 0 37 11t14 32q0 20 -14 31t-37 11t-37.5 -11t-14.5 -31t14.5 -31.5t37.5 -11.5zM220 -12q-151 0 -151 191v187q0 88 -22 125h135v-302q0 -105 70 -105
q33 0 65.5 24.5t53.5 65.5v192q0 87 -23 125h135v-366q0 -87 19 -125h-129q-1 30 5 70h-8q-45 -82 -150 -82z" />
    <glyph glyph-name="Uhungarumlaut" unicode="&#x170;" horiz-adv-x="651" 
d="M207 724q60 73 92 169l75 -38q-37 -85 -109 -159zM373 724q61 76 92 169l75 -38q-39 -89 -108 -159zM327 -12q-248 0 -248 280v255q0 96 -23 131h159q-23 -35 -23 -131v-250q0 -100 33.5 -143.5t101.5 -43.5t102 44t34 143v250q0 96 -23 131h154q-23 -37 -23 -131v-255
q0 -280 -244 -280z" />
    <glyph glyph-name="uhungarumlaut" unicode="&#x171;" horiz-adv-x="559" 
d="M148 590q60 73 92 169l75 -38q-37 -85 -109 -159zM314 590q61 76 92 169l75 -38q-39 -89 -108 -159zM220 -12q-151 0 -151 191v187q0 88 -22 125h135v-302q0 -105 70 -105q33 0 65.5 24.5t53.5 65.5v192q0 87 -23 125h135v-366q0 -87 19 -125h-129q-1 30 5 70h-8
q-45 -82 -150 -82z" />
    <glyph glyph-name="Uogonek" unicode="&#x172;" horiz-adv-x="651" 
d="M440 654h154q-23 -37 -23 -131v-255q0 -227 -161 -270q-33 -18 -53.5 -45t-20.5 -54q0 -38 35 -38q20 0 35 18l25 -48q-34 -34 -84 -34q-39 0 -64 20.5t-25 61.5q0 64 68 109q-247 0 -247 280v255q0 96 -23 131h159q-23 -35 -23 -131v-250q0 -100 33.5 -143.5
t101.5 -43.5t102 44t34 143v250q0 96 -23 131z" />
    <glyph glyph-name="uogonek" unicode="&#x173;" horiz-adv-x="559" 
d="M494 -121l25 -48q-34 -34 -84 -34q-39 0 -64 20.5t-25 61.5q0 36 24 68.5t65 52.5h-62q-1 30 5 70h-8q-45 -82 -150 -82q-151 0 -151 191v187q0 88 -22 125h135v-302q0 -105 70 -105q33 0 65.5 24.5t53.5 65.5v192q0 87 -23 125h135v-366q0 -87 19 -125
q-35 -18 -56.5 -46t-21.5 -55q0 -38 35 -38q20 0 35 18z" />
    <glyph glyph-name="Wcircumflex" unicode="&#x174;" horiz-adv-x="822" 
d="M443 782q-48 -45 -122 -65l-24 25q36 24 54 85l50 14q27 -30 54 -49zM459 796l6 -11l-10 7zM528 740q-44 15 -63 45q21 -13 41 -21zM667 654h139q-22 -39 -39 -124l-79 -413q-17 -84 -7 -117h-172q7 31 -10 116l-87 369l-87 -369q-18 -86 -10 -116h-170q10 36 -7 117
l-83 413q-16 86 -39 124h148q-13 -31 3 -114l71 -409l102 421q17 74 10 102h130q-8 -30 10 -102l102 -417l72 405q9 49 10 70t-7 44z" />
    <glyph glyph-name="wcircumflex" unicode="&#x175;" horiz-adv-x="750" 
d="M409 648q-48 -45 -122 -65l-24 25q36 24 54 85l50 14q27 -30 54 -49zM425 662l6 -11l-10 7zM494 606q-44 15 -63 45q21 -13 41 -21zM606 491h130q-23 -37 -44 -119l-62 -246q-20 -88 -16 -126h-163q4 40 -16 120l-58 222l-59 -222q-19 -85 -15 -120h-163q5 41 -17 126
l-65 246q-23 86 -44 119h141q-9 -37 8 -104l63 -267l71 266q20 76 16 105h135q-2 -34 16 -106l70 -265l65 267q16 69 7 104z" />
    <glyph glyph-name="Ycircumflex" unicode="&#x176;" horiz-adv-x="547" 
d="M306 782q-48 -45 -122 -65l-24 25q36 24 54 85l50 14q27 -30 54 -49zM322 796l6 -11l-10 7zM391 740q-44 15 -63 45q21 -13 41 -21zM470 539l-140 -297v-111q0 -89 23 -131h-159q23 39 23 131v111l-140 297q-42 86 -68 115h153q-4 -37 25 -106l90 -211l89 211
q32 71 25 106h147q-28 -33 -68 -115z" />
    <glyph glyph-name="ycircumflex" unicode="&#x177;" horiz-adv-x="515" 
d="M295 643q-48 -45 -122 -65l-24 25q36 24 54 85l50 14q27 -30 54 -49zM311 657l6 -11l-10 7zM380 601q-44 15 -63 45q21 -13 41 -21zM363 491h143q-24 -32 -52 -119l-135 -397q-29 -87 -76 -129.5t-126 -42.5q-13 0 -37 2.5t-35 1.5l26 116q19 -32 59 -32q59 0 88 86l7 23
l-12 2l-145 370q-33 87 -59 119l154 -1q-12 -31 7 -91l100 -277h4l85 277q17 62 4 92z" />
    <glyph glyph-name="Ydieresis" unicode="&#x178;" horiz-adv-x="547" 
d="M191 713q-25 0 -42 17t-17 42t17 42t42 17t42 -17t17 -42t-17 -42t-42 -17zM364 713q-25 0 -42 17t-17 42t17 42t42 17q26 0 42.5 -17t16.5 -42t-16.5 -42t-42.5 -17zM470 539l-140 -297v-111q0 -89 23 -131h-159q23 39 23 131v111l-140 297q-42 86 -68 115h153
q-4 -37 25 -106l90 -211l89 211q32 71 25 106h147q-28 -33 -68 -115z" />
    <glyph glyph-name="Zacute" unicode="&#x179;" horiz-adv-x="543" 
d="M429 820q-76 -76 -186 -113l-29 52q81 40 158 133zM379 97q89 0 123 23v-128q-33 8 -123 8h-338v86q31 27 80 106l234 365h-164q-88 0 -121 -24v129q42 -8 121 -8h304v-85q-24 -20 -68 -89l-245 -383h197z" />
    <glyph glyph-name="zacute" unicode="&#x17a;" horiz-adv-x="455" 
d="M186 623q81 40 158 133l57 -72q-76 -76 -186 -113zM32 74q27 21 58 69l176 258h-101q-75 0 -106 -22v118q47 -6 115 -6h224l10 -75q-20 -12 -48 -58l-180 -269h121q78 0 118 22v-118q-48 7 -128 7h-247z" />
    <glyph glyph-name="Zdotaccent" unicode="&#x17b;" horiz-adv-x="543" 
d="M266 712q-66 0 -66 62q0 28 16.5 45t49.5 17t49.5 -17t16.5 -45q0 -62 -66 -62zM379 97q89 0 123 23v-128q-33 8 -123 8h-338v86q31 27 80 106l234 365h-164q-88 0 -121 -24v129q42 -8 121 -8h304v-85q-24 -20 -68 -89l-245 -383h197z" />
    <glyph glyph-name="zdotaccent" unicode="&#x17c;" horiz-adv-x="455" 
d="M238 576q-66 0 -66 62q0 28 16.5 45t49.5 17t49.5 -17t16.5 -45q0 -62 -66 -62zM32 74q27 21 58 69l176 258h-101q-75 0 -106 -22v118q47 -6 115 -6h224l10 -75q-20 -12 -48 -58l-180 -269h121q78 0 118 22v-118q-48 7 -128 7h-247z" />
    <glyph glyph-name="Zcaron" unicode="&#x17d;" horiz-adv-x="543" 
d="M212 706q-41 83 -110 138l41 39q76 -44 121 -109h4q49 68 121 109l40 -39q-70 -58 -109 -138h-108zM379 97q89 0 123 23v-128q-33 8 -123 8h-338v86q31 27 80 106l234 365h-164q-88 0 -121 -24v129q42 -8 121 -8h304v-85q-24 -20 -68 -89l-245 -383h197z" />
    <glyph glyph-name="zcaron" unicode="&#x17e;" horiz-adv-x="455" 
d="M184 570q-41 83 -110 138l41 39q76 -44 121 -109h4q49 68 121 109l40 -39q-70 -58 -109 -138h-108zM32 74q27 21 58 69l176 258h-101q-75 0 -106 -22v118q47 -6 115 -6h224l10 -75q-20 -12 -48 -58l-180 -269h121q78 0 118 22v-118q-48 7 -128 7h-247z" />
    <glyph glyph-name="florin" unicode="&#x192;" horiz-adv-x="453" 
d="M362 530q-63 0 -74 -100l-6 -57h60q40 0 56 10v-86q-16 10 -56 10h-67l-13 -120q-10 -104 -49.5 -151.5t-122.5 -47.5q-12 0 -35 2t-35 1l12 109q26 -24 56 -24q50 0 61 101l14 130h-17q-40 0 -56 -10v86q16 -10 56 -10h24l5 47q10 103 54 151t131 48q20 0 46.5 -2
t36.5 -2l-12 -108q-29 23 -69 23z" />
    <glyph glyph-name="uni0218" unicode="&#x218;" horiz-adv-x="538" 
d="M269 -12q-58 0 -139.5 26.5t-93.5 27.5l53 129q28 -39 79 -63t102 -24q116 0 116 89q0 40 -22.5 61t-79.5 42l-63 23q-149 53 -149 188q0 81 58.5 130t154.5 49q51 0 120.5 -21t76.5 -22l-47 -118q-61 66 -148 66q-47 0 -74 -21.5t-27 -60.5q0 -37 22.5 -57t72.5 -38
l62 -23q76 -28 116.5 -72t40.5 -118q0 -85 -60 -139t-171 -54zM268 -57q59 0 59 -73q0 -92 -97 -122l-16 36q58 21 61 66h-8q-19 0 -33.5 12t-14.5 33q0 22 13.5 35t35.5 13z" />
    <glyph glyph-name="uni0219" unicode="&#x219;" horiz-adv-x="433" 
d="M212 -12q-45 0 -106.5 15.5t-75.5 16.5l43 118q21 -27 58.5 -44.5t79.5 -17.5q82 0 82 59q0 42 -74 63l-39 11q-60 16 -94 53.5t-34 94.5q0 69 47 107.5t128 38.5q35 0 89.5 -15t68.5 -16l-44 -105q-16 21 -45 34.5t-61 13.5q-37 0 -57 -14t-20 -40q0 -45 64 -65l46 -14
q131 -39 131 -142q0 -70 -49 -111t-138 -41zM215 -57q59 0 59 -73q0 -92 -97 -122l-16 36q58 21 61 66h-8q-20 0 -34 12t-14 33q0 22 13.5 35t35.5 13z" />
    <glyph glyph-name="uni021A" unicode="&#x21a;" horiz-adv-x="537" 
d="M212 557h-71q-75 0 -119 -16v120q49 -7 119 -7h256q68 0 118 7v-120q-43 16 -118 16h-72v-426q0 -88 23 -131h-159q23 42 23 131v426zM270 -57q59 0 59 -73q0 -92 -97 -122l-16 36q58 21 61 66h-8q-19 0 -33.5 12t-14.5 33q0 22 13.5 35t35.5 13z" />
    <glyph glyph-name="uni021B" unicode="&#x21b;" horiz-adv-x="369" 
d="M245 -12q-151 0 -151 167v248h-70v76q48 13 98 43t85 67v-98h125v-96q-33 8 -125 8v-239q0 -45 15 -66t51 -21q34 0 55 25l20 -102q-9 -1 -28 -4.5t-38 -5.5t-37 -2zM228 -57q59 0 59 -73q0 -92 -97 -122l-16 36q58 21 61 66h-8q-19 0 -33.5 12t-14.5 33q0 22 13.5 35
t35.5 13z" />
    <glyph glyph-name="circumflex" unicode="&#x2c6;" horiz-adv-x="492" 
d="M233 716q24 -27 54 -49l-12 -10q-48 -45 -121 -65l-24 25q37 26 53 85zM292 671q1 -4 5 -10q-6 4 -10 6zM361 615q-43 13 -64 46q13 -8 41 -22z" />
    <glyph glyph-name="caron" unicode="&#x2c7;" horiz-adv-x="555" 
d="M223 580q-40 82 -109 138l40 39q75 -43 121 -109h4q49 68 121 109l41 -39q-69 -56 -109 -138h-109z" />
    <glyph glyph-name="breve" unicode="&#x2d8;" horiz-adv-x="420" 
d="M210 581q-65 0 -96.5 38.5t-28.5 107.5h57q1 -36 19 -57t49 -21t49 20.5t19 57.5h57q3 -69 -28.5 -107.5t-96.5 -38.5z" />
    <glyph glyph-name="dotaccent" unicode="&#x2d9;" horiz-adv-x="543" 
d="M271 586q-65 0 -65 62q0 28 16.5 45t48.5 17q33 0 49.5 -17t16.5 -45q0 -62 -66 -62z" />
    <glyph glyph-name="ring" unicode="&#x2da;" horiz-adv-x="543" 
d="M271 578q-53 0 -84 25.5t-31 66.5q0 40 31 65.5t84 25.5t84.5 -25.5t31.5 -65.5q0 -41 -31.5 -66.5t-84.5 -25.5zM271 627q23 0 37.5 11.5t14.5 31.5t-14.5 31t-37.5 11q-22 0 -36.5 -11t-14.5 -31t14 -31.5t37 -11.5z" />
    <glyph glyph-name="ogonek" unicode="&#x2db;" horiz-adv-x="552" 
d="M253 -200q-38 0 -63 21t-25 61q0 39 28 73.5t75 54.5l53 -7q-35 -18 -57 -46t-22 -55q0 -38 36 -38q19 0 34 18l25 -48q-34 -34 -84 -34z" />
    <glyph glyph-name="tilde" unicode="&#x2dc;" horiz-adv-x="535" 
d="M335 588q-28 0 -52 16t-43 31.5t-34 15.5q-20 0 -27.5 -17.5t3.5 -39.5l-87 4q11 61 39 94.5t66 33.5q36 0 74.5 -31.5t55.5 -31.5q20 0 27 17t-3 40l86 -5q-9 -60 -38 -93.5t-67 -33.5z" />
    <glyph glyph-name="hungarumlaut" unicode="&#x2dd;" horiz-adv-x="580" 
d="M164 599q59 70 92 169l76 -38q-40 -88 -109 -159zM330 599q62 75 93 169l74 -38q-39 -88 -108 -159z" />
    <glyph glyph-name="gravecomb" unicode="&#x300;" horiz-adv-x="0" 
d="M-204 648l-26 -58q-118 25 -198 101l51 80q85 -91 173 -123z" />
    <glyph glyph-name="acutecomb" unicode="&#x301;" horiz-adv-x="0" 
d="M-441 633q81 40 158 133l57 -72q-76 -76 -186 -113z" />
    <glyph glyph-name="uni0302" unicode="&#x302;" horiz-adv-x="0" 
d="M-309 716q23 -27 54 -49l-12 -10q-48 -45 -122 -65l-24 25q36 24 54 85zM-251 671q2 -4 6 -10q-4 2 -10 6zM-182 615q-44 14 -63 46q14 -10 41 -22z" />
    <glyph glyph-name="tildecomb" unicode="&#x303;" horiz-adv-x="0" 
d="M-200 588q-28 0 -52 16t-43 31.5t-34 15.5q-20 0 -27.5 -17.5t3.5 -39.5l-87 4q11 61 39 94.5t66 33.5q36 0 74.5 -31.5t55.5 -31.5q20 0 27 17t-3 40l86 -5q-9 -60 -38 -93.5t-67 -33.5z" />
    <glyph glyph-name="uni0304" unicode="&#x304;" horiz-adv-x="0" 
d="M-405 637l204 25l64 -43l-205 -26z" />
    <glyph glyph-name="uni0306" unicode="&#x306;" horiz-adv-x="0" 
d="M-333 581q-65 0 -96 38.5t-29 107.5h57q2 -36 19.5 -57t48.5 -21t49 20.5t20 57.5h56q3 -69 -28.5 -107.5t-96.5 -38.5z" />
    <glyph glyph-name="uni0307" unicode="&#x307;" horiz-adv-x="0" 
d="M-271 586q-66 0 -66 62q0 28 16.5 45t49.5 17t49.5 -17t16.5 -45q0 -62 -66 -62z" />
    <glyph glyph-name="uni0308" unicode="&#x308;" horiz-adv-x="0" 
d="M-334 588q-25 0 -42 17t-17 42t17 42t42 17t42 -17t17 -42t-17 -42t-42 -17zM-161 588q-25 0 -42 17t-17 42t17 42t42 17q26 0 42.5 -17t16.5 -42t-16.5 -42t-42.5 -17z" />
    <glyph glyph-name="uni030A" unicode="&#x30a;" horiz-adv-x="0" 
d="M-271 578q-53 0 -84 25.5t-31 66.5q0 40 31 65.5t84 25.5t84 -25.5t31 -65.5q0 -41 -31 -66.5t-84 -25.5zM-271 627q23 0 37 11t14 32q0 20 -14 31t-37 11t-37.5 -11t-14.5 -31t14.5 -31.5t37.5 -11.5z" />
    <glyph glyph-name="uni030B" unicode="&#x30b;" horiz-adv-x="0" 
d="M-378 599q60 73 92 169l75 -38q-37 -85 -109 -159zM-212 599q61 76 92 169l75 -38q-39 -88 -108 -159z" />
    <glyph glyph-name="uni030C" unicode="&#x30c;" horiz-adv-x="0" 
d="M-319 580q-41 83 -110 138l41 39q76 -44 121 -109h4q49 68 121 109l40 -39q-70 -58 -109 -138h-108z" />
    <glyph glyph-name="uni0312" unicode="&#x312;" horiz-adv-x="0" 
d="M-166 569q-28 0 -45 18t-17 52q0 92 100 123l16 -31q-56 -23 -60 -66h7q22 0 37 -12.5t15 -34.5q0 -21 -15 -35t-38 -14z" />
    <glyph glyph-name="uni0326" unicode="&#x326;" horiz-adv-x="0" 
d="M-136 -57q59 0 59 -73q0 -92 -97 -122l-16 36q58 21 61 66h-8q-20 0 -34 12t-14 33q0 22 13.5 35t35.5 13z" />
    <glyph glyph-name="uni0327" unicode="&#x327;" horiz-adv-x="0" 
d="M-365 -173q53 -8 80 3t27 34q0 40 -70 45l43 96h59l-29 -64q79 -15 79 -77q0 -47 -47 -72t-133 -24z" />
    <glyph glyph-name="uni0328" unicode="&#x328;" horiz-adv-x="0" 
d="M-289 -200q-39 0 -64 20.5t-25 61.5q0 39 28.5 73.5t75.5 54.5l52 -7q-35 -18 -56.5 -46t-21.5 -55q0 -38 35 -38q20 0 35 18l25 -48q-34 -34 -84 -34z" />
    <glyph glyph-name="uni0394" unicode="&#x394;" horiz-adv-x="589" 
d="M404 536l149 -455l-18 -81h-481l-18 81l150 455q28 85 21 118h175q-6 -32 22 -118zM292 559l-138 -463h277z" />
    <glyph glyph-name="uni03A9" unicode="&#x3a9;" horiz-adv-x="666" 
d="M555 87q48 0 63 11v-109q-15 11 -63 11h-184v91q56 20 92.5 89.5t36.5 177.5q0 95 -44 151.5t-123 56.5q-80 0 -124 -56.5t-44 -151.5q0 -108 37 -177.5t93 -89.5v-91h-184q-48 0 -63 -11v109q15 -11 63 -11h56q-55 45 -87 118t-32 160q0 136 77.5 218.5t207.5 82.5
t207 -82.5t77 -218.5q0 -88 -32 -161t-86 -117h56z" />
    <glyph glyph-name="uni03BC" unicode="&#x3bc;" horiz-adv-x="558" 
d="M483 125q0 -87 19 -125h-129q-1 30 5 70h-8q-20 -37 -57.5 -59.5t-84.5 -22.5q-26 0 -46 7v-36q0 -89 19 -131h-155q23 42 23 131v407q0 88 -22 125h135v-337q0 -68 70 -68q33 0 65.5 23.5t53.5 64.5v192q0 87 -23 125h135v-366z" />
    <glyph glyph-name="pi" unicode="&#x3c0;" horiz-adv-x="573" 
d="M460 394h-5v-228q0 -86 39 -86q22 0 37 16l14 -101q-60 -7 -65 -7q-73 0 -105 40t-32 132v234h-116v-263q0 -88 19 -131h-156q23 42 23 131v263h-6q-63 0 -86 -16v120q25 -7 86 -7h353q61 0 89 7v-120q-23 16 -89 16z" />
    <glyph glyph-name="Wgrave" unicode="&#x1e80;" horiz-adv-x="822" 
d="M479 773l-26 -58q-118 25 -198 101l51 80q85 -91 173 -123zM667 654h139q-22 -39 -39 -124l-79 -413q-17 -84 -7 -117h-172q7 31 -10 116l-87 369l-87 -369q-18 -86 -10 -116h-170q10 36 -7 117l-83 413q-16 86 -39 124h148q-13 -31 3 -114l71 -409l102 421q17 74 10 102
h130q-8 -30 10 -102l102 -417l72 405q9 49 10 70t-7 44z" />
    <glyph glyph-name="wgrave" unicode="&#x1e81;" horiz-adv-x="750" 
d="M445 639l-26 -58q-118 25 -198 101l51 80q85 -91 173 -123zM606 491h130q-23 -37 -44 -119l-62 -246q-20 -88 -16 -126h-163q4 40 -16 120l-58 222l-59 -222q-19 -85 -15 -120h-163q5 41 -17 126l-65 246q-23 86 -44 119h141q-9 -37 8 -104l63 -267l71 266q20 76 16 105
h135q-2 -34 16 -106l70 -265l65 267q16 69 7 104z" />
    <glyph glyph-name="Wacute" unicode="&#x1e82;" horiz-adv-x="822" 
d="M577 819q-76 -76 -186 -113l-29 52q81 40 158 133zM667 654h139q-22 -39 -39 -124l-79 -413q-17 -84 -7 -117h-172q7 31 -10 116l-87 369l-87 -369q-18 -86 -10 -116h-170q10 36 -7 117l-83 413q-16 86 -39 124h148q-13 -31 3 -114l71 -409l102 421q17 74 10 102h130
q-8 -30 10 -102l102 -417l72 405q9 49 10 70t-7 44z" />
    <glyph glyph-name="wacute" unicode="&#x1e83;" horiz-adv-x="750" 
d="M542 685q-76 -76 -186 -113l-29 52q81 40 158 133zM606 491h130q-23 -37 -44 -119l-62 -246q-20 -88 -16 -126h-163q4 40 -16 120l-58 222l-59 -222q-19 -85 -15 -120h-163q5 41 -17 126l-65 246q-23 86 -44 119h141q-9 -37 8 -104l63 -267l71 266q20 76 16 105h135
q-2 -34 16 -106l70 -265l65 267q16 69 7 104z" />
    <glyph glyph-name="Wdieresis" unicode="&#x1e84;" horiz-adv-x="822" 
d="M328 713q-25 0 -42 17t-17 42t17 42t42 17t42 -17t17 -42t-17 -42t-42 -17zM501 713q-25 0 -42 17t-17 42t17 42t42 17q26 0 42.5 -17t16.5 -42t-16.5 -42t-42.5 -17zM667 654h139q-22 -39 -39 -124l-79 -413q-17 -84 -7 -117h-172q7 31 -10 116l-87 369l-87 -369
q-18 -86 -10 -116h-170q10 36 -7 117l-83 413q-16 86 -39 124h148q-13 -31 3 -114l71 -409l102 421q17 74 10 102h130q-8 -30 10 -102l102 -417l72 405q9 49 10 70t-7 44z" />
    <glyph glyph-name="wdieresis" unicode="&#x1e85;" horiz-adv-x="750" 
d="M294 579q-25 0 -42 17t-17 42t17 42t42 17t42 -17t17 -42t-17 -42t-42 -17zM467 579q-25 0 -42 17t-17 42t17 42t42 17q26 0 42.5 -17t16.5 -42t-16.5 -42t-42.5 -17zM606 491h130q-23 -37 -44 -119l-62 -246q-20 -88 -16 -126h-163q4 40 -16 120l-58 222l-59 -222
q-19 -85 -15 -120h-163q5 41 -17 126l-65 246q-23 86 -44 119h141q-9 -37 8 -104l63 -267l71 266q20 76 16 105h135q-2 -34 16 -106l70 -265l65 267q16 69 7 104z" />
    <glyph glyph-name="uni1E9E" unicode="&#x1e9e;" horiz-adv-x="670" 
d="M86 131v271q0 127 62.5 195.5t179.5 68.5q88 0 146 -46t74 -116l-100 -143q87 -18 133 -67t46 -120q0 -81 -53.5 -133.5t-146.5 -52.5q-43 0 -93.5 15t-67.5 15l42 117q15 -25 45.5 -39.5t64.5 -14.5q44 0 68.5 26t24.5 69q0 105 -170 113l-4 57l101 157
q-8 26 -35.5 48.5t-74.5 22.5q-60 0 -94.5 -42.5t-34.5 -129.5v-271q0 -94 17 -131h-153q23 35 23 131z" />
    <glyph glyph-name="Ygrave" unicode="&#x1ef2;" horiz-adv-x="547" 
d="M341 773l-26 -58q-118 25 -198 101l51 80q85 -91 173 -123zM470 539l-140 -297v-111q0 -89 23 -131h-159q23 39 23 131v111l-140 297q-42 86 -68 115h153q-4 -37 25 -106l90 -211l89 211q32 71 25 106h147q-28 -33 -68 -115z" />
    <glyph glyph-name="ygrave" unicode="&#x1ef3;" horiz-adv-x="515" 
d="M331 634l-26 -58q-118 25 -198 101l51 80q85 -91 173 -123zM117 -197q-13 0 -37 2.5t-35 1.5l26 116q19 -32 59 -32q59 0 88 86l7 23l-12 2l-145 370q-33 87 -59 119l154 -1q-12 -31 7 -91l100 -277h4l85 277q17 62 4 92h143q-24 -32 -52 -119l-135 -397
q-29 -87 -76 -129.5t-126 -42.5z" />
    <glyph glyph-name="figuredash" unicode="&#x2012;" horiz-adv-x="498" 
d="M41 257l320 33l96 -44l-320 -33z" />
    <glyph glyph-name="endash" unicode="&#x2013;" horiz-adv-x="481" 
d="M41 257l307 33l91 -44l-306 -33z" />
    <glyph glyph-name="emdash" unicode="&#x2014;" horiz-adv-x="801" 
d="M41 257l553 33l165 -44l-552 -33z" />
    <glyph glyph-name="quoteleft" unicode="&#x2018;" horiz-adv-x="270" 
d="M214 656q-82 -46 -82 -125q3 1 9 1q27 0 45.5 -16.5t18.5 -44.5q0 -31 -18 -49.5t-46 -18.5q-37 0 -57.5 28.5t-20.5 80.5q0 129 123 194z" />
    <glyph glyph-name="quoteright" unicode="&#x2019;" horiz-adv-x="259" 
d="M55 445q42 25 62 54.5t20 71.5q-3 -1 -9 -1q-27 0 -45.5 16.5t-18.5 44.5q0 30 18 49t46 19q37 0 57 -28.5t20 -81.5q0 -128 -123 -194z" />
    <glyph glyph-name="quotesinglbase" unicode="&#x201a;" horiz-adv-x="270" 
d="M55 -124q42 25 62 54.5t20 71.5q-3 -1 -8 -1q-27 0 -45.5 16.5t-18.5 44.5q0 31 17.5 49.5t46.5 18.5q37 0 57 -29t20 -81q0 -127 -123 -194z" />
    <glyph glyph-name="quotedblleft" unicode="&#x201c;" horiz-adv-x="467" 
d="M219 656q-82 -46 -82 -125q3 1 8 1q27 0 45.5 -16.5t18.5 -44.5q0 -31 -17.5 -49.5t-46.5 -18.5q-37 0 -57 28.5t-20 80.5q0 129 123 194zM411 656q-82 -46 -82 -125q3 1 8 1q27 0 45.5 -16.5t18.5 -44.5q0 -31 -17.5 -49.5t-45.5 -18.5q-37 0 -57.5 28.5t-20.5 80.5
q0 129 123 194z" />
    <glyph glyph-name="quotedblright" unicode="&#x201d;" horiz-adv-x="467" 
d="M56 445q81 48 81 126q-3 -1 -8 -1q-27 0 -45.5 16.5t-18.5 44.5q0 30 18 49t46 19q37 0 57 -28.5t20 -81.5q0 -127 -123 -194zM248 445q42 25 62 54.5t20 71.5q-3 -1 -9 -1q-27 0 -45.5 16.5t-18.5 44.5q0 30 18 49t46 19q37 0 57 -28.5t20 -81.5q0 -128 -123 -194z" />
    <glyph glyph-name="quotedblbase" unicode="&#x201e;" horiz-adv-x="467" 
d="M56 -124q42 25 62 54.5t20 71.5q-3 -1 -9 -1q-27 0 -45.5 16.5t-18.5 44.5q0 30 18 49t46 19q37 0 57 -29t20 -81q0 -128 -123 -194zM248 -124q42 25 62 54.5t20 71.5q-3 -1 -9 -1q-27 0 -45.5 16.5t-18.5 44.5q0 30 18 49t46 19q37 0 57 -29t20 -81q0 -128 -122 -194z
" />
    <glyph glyph-name="dagger" unicode="&#x2020;" horiz-adv-x="407" 
d="M149 677h109q-14 -20 -14 -87v-45h29q64 0 84 14v-102q-21 15 -84 15h-29v-171q0 -65 14 -87h-108q13 18 13 87v171h-29q-63 0 -84 -15v102q20 -14 84 -14h29v45q0 65 -14 87z" />
    <glyph glyph-name="daggerdbl" unicode="&#x2021;" horiz-adv-x="448" 
d="M273 489h-29v-87h29q64 0 84 14v-99q-22 14 -84 14h-29v-33q0 -62 14 -84h-108q13 18 13 84v33h-29q-62 0 -84 -14v99q20 -14 84 -14h29v87h-29q-63 0 -84 -15v100q20 -14 84 -14h29v32q0 63 -14 85h109q-14 -20 -14 -85v-32h29q64 0 84 14v-100q-21 15 -84 15z" />
    <glyph glyph-name="bullet" unicode="&#x2022;" horiz-adv-x="336" 
d="M168 144q-39 0 -78.5 39.5t-39.5 79.5t39.5 80.5t78.5 40.5t78.5 -40.5t39.5 -80.5t-39.5 -79.5t-78.5 -39.5z" />
    <glyph glyph-name="ellipsis" unicode="&#x2026;" horiz-adv-x="788" 
d="M135 -12q-30 0 -50.5 21t-20.5 52q0 32 20.5 53t50.5 21t50 -21t20 -53q0 -31 -20.5 -52t-49.5 -21zM393 -12q-30 0 -50.5 21t-20.5 52q0 32 20.5 53t50.5 21t50 -21t20 -53q0 -31 -20.5 -52t-49.5 -21zM654 -12q-30 0 -50.5 21t-20.5 52q0 32 20.5 53t50.5 21t50 -21
t20 -53q0 -31 -20.5 -52t-49.5 -21z" />
    <glyph glyph-name="perthousand" unicode="&#x2030;" horiz-adv-x="1247" 
d="M483 511l134 157l-226 -523l-134 -157zM191 268q-71 0 -113 52t-42 146q0 93 42 144.5t113 51.5t113.5 -51.5t42.5 -144.5q0 -94 -42.5 -146t-113.5 -52zM191 337q71 0 71 129q0 127 -71 127t-71 -127q0 -129 71 -129zM682 -12q-71 0 -113 52t-42 146q0 93 42 144.5
t113 51.5q70 0 112.5 -51.5t42.5 -144.5q0 -94 -42.5 -146t-112.5 -52zM1056 -12q-71 0 -113 52t-42 146q0 93 42 144.5t113 51.5t113.5 -51.5t42.5 -144.5q0 -94 -42.5 -146t-113.5 -52zM682 57q71 0 71 129q0 127 -71 127q-72 0 -72 -127q0 -129 72 -129zM1056 57
q71 0 71 129q0 127 -71 127t-71 -127q0 -129 71 -129z" />
    <glyph glyph-name="guilsinglleft" unicode="&#x2039;" horiz-adv-x="291" 
d="M245 96l-42 -40q-31 40 -75 84t-79 66v92q35 23 79.5 66.5t74.5 83.5l42 -42q-50 -83 -126 -154q77 -74 126 -156z" />
    <glyph glyph-name="guilsinglright" unicode="&#x203a;" horiz-adv-x="291" 
d="M46 96q49 82 126 156q-74 68 -126 154l42 42q30 -40 74.5 -84t79.5 -66v-92q-35 -23 -79.5 -66.5t-74.5 -83.5z" />
    <glyph glyph-name="fraction" unicode="&#x2044;" horiz-adv-x="118" 
d="M104 511l134 157l-225 -523l-135 -157z" />
    <glyph glyph-name="uni2070" unicode="&#x2070;" 
d="M186 447q-71 0 -113 52t-42 146q0 93 42 144.5t113 51.5t113.5 -51.5t42.5 -144.5q0 -94 -42.5 -146t-113.5 -52zM186 516q71 0 71 129q0 127 -71 127t-71 -127q0 -129 71 -129z" />
    <glyph glyph-name="uni2074" unicode="&#x2074;" 
d="M215 553h-178v48l162 234h91v-223q43 0 58 14v-73h-58v-15q0 -64 18 -79h-112q19 15 19 79v15zM215 612v148l-103 -148h103z" />
    <glyph glyph-name="uni2075" unicode="&#x2075;" 
d="M184 447q-44 0 -87 18t-60 19l43 82q33 -54 99 -54q31 0 49.5 16.5t18.5 45.5q0 28 -19.5 44.5t-52.5 16.5q-36 0 -62 -17l-42 14l18 203h136q62 0 84 11v-100q-21 17 -84 17h-74l-8 -76q21 9 54 9q56 0 95 -33.5t39 -89.5q0 -60 -41 -93t-106 -33z" />
    <glyph glyph-name="uni2076" unicode="&#x2076;" 
d="M195 447q-72 0 -113 50t-41 140q0 98 48 154t125 56q22 0 51.5 -6t40.5 -5l-25 -82q-19 27 -67 27q-39 0 -65 -30t-30 -82q37 37 89 37q58 0 92 -33.5t34 -92.5t-38.5 -96t-100.5 -37zM200 644q-48 0 -79 -39q3 -45 23 -69t50 -24q28 0 45.5 18.5t17.5 49.5
q0 29 -16.5 46.5t-40.5 17.5z" />
    <glyph glyph-name="uni2077" unicode="&#x2077;" 
d="M124 459q6 100 32.5 169.5t87.5 135.5h-109q-67 0 -89 -19v100q23 -10 89 -10h200v-63q-69 -71 -94.5 -140t-27.5 -173h-89z" />
    <glyph glyph-name="uni2078" unicode="&#x2078;" 
d="M185 447q-65 0 -104 30.5t-39 79.5q0 32 22 59t54 40v4q-61 27 -61 86q0 45 36 73t92 28q58 0 94.5 -27.5t36.5 -73.5q0 -29 -18.5 -52.5t-43.5 -35.5v-4q75 -28 75 -97q0 -48 -40 -79t-104 -31zM207 679q34 30 34 63q0 19 -16.5 32t-39.5 13q-22 0 -37 -13t-15 -31
q0 -39 74 -64zM185 505q30 0 48 15.5t18 39.5q0 25 -22.5 40t-66.5 29q-42 -28 -42 -68q0 -25 18 -40.5t47 -15.5z" />
    <glyph glyph-name="uni2079" unicode="&#x2079;" 
d="M178 847q72 0 112.5 -50t40.5 -141q0 -97 -47.5 -153t-124.5 -56q-22 0 -51.5 6t-41.5 4l25 83q21 -28 68 -28q38 0 64 30.5t30 81.5q-38 -36 -88 -36q-58 0 -92.5 33t-34.5 92t39 96.5t101 37.5zM173 650q47 0 79 39q-4 45 -24 68.5t-50 23.5q-27 0 -45 -18.5t-18 -48.5
q0 -29 17 -46.5t41 -17.5z" />
    <glyph glyph-name="uni2080" unicode="&#x2080;" 
d="M186 -197q-71 0 -113 52t-42 146q0 93 42 144.5t113 51.5t113.5 -51.5t42.5 -144.5q0 -94 -42.5 -146t-113.5 -52zM186 -128q71 0 71 129q0 127 -71 127t-71 -127q0 -129 71 -129z" />
    <glyph glyph-name="uni2081" unicode="&#x2081;" 
d="M164 103h-86v59q103 0 171 38v-314l80 -18v-54h-249v54l84 18v217z" />
    <glyph glyph-name="uni2082" unicode="&#x2082;" 
d="M46 -124q179 117 179 192q0 29 -15 46.5t-42 17.5q-56 0 -85 -55l-44 83q15 2 57.5 22t79.5 20q61 0 98 -35t37 -94q0 -91 -139 -188h70q62 0 85 18v-89h-281v62z" />
    <glyph glyph-name="uni2083" unicode="&#x2083;" 
d="M184 -199q-42 0 -90 19.5t-55 20.5l46 82q31 -57 95 -57q27 0 45.5 13.5t18.5 36.5q0 61 -114 61v58q100 0 100 55q0 22 -15 34t-40 12q-46 0 -80 -43l-36 77q7 1 49 16t77 15q57 0 92 -27.5t35 -78.5q0 -62 -69 -85q39 -9 62 -33.5t23 -63.5q0 -52 -41 -82t-103 -30z
" />
    <glyph glyph-name="uni2084" unicode="&#x2084;" 
d="M215 -93h-178v48l162 234h91v-223q43 0 58 14v-73h-58v-15q0 -64 18 -79h-112q19 15 19 79v15zM215 -34v148l-103 -148h103z" />
    <glyph glyph-name="uni2085" unicode="&#x2085;" 
d="M184 -192q-44 0 -87 18t-60 19l43 82q33 -54 99 -54q31 0 49.5 16.5t18.5 45.5q0 28 -19.5 44.5t-52.5 16.5q-36 0 -62 -17l-42 14l18 203h136q62 0 84 11v-100q-21 17 -84 17h-74l-8 -76q21 9 54 9q56 0 95 -33.5t39 -89.5q0 -60 -41 -93t-106 -33z" />
    <glyph glyph-name="uni2086" unicode="&#x2086;" 
d="M195 -199q-72 0 -113 50t-41 140q0 98 48 154t125 56q22 0 51.5 -6t40.5 -5l-25 -82q-19 27 -67 27q-39 0 -65 -30t-30 -82q37 37 89 37q58 0 92 -33.5t34 -92.5t-38.5 -96t-100.5 -37zM200 -2q-48 0 -79 -39q3 -45 23 -69t50 -24q28 0 45.5 18.5t17.5 49.5
q0 29 -16.5 46.5t-40.5 17.5z" />
    <glyph glyph-name="uni2087" unicode="&#x2087;" 
d="M124 -187q6 100 32.5 169.5t87.5 135.5h-109q-67 0 -89 -19v100q23 -10 89 -10h200v-63q-69 -71 -94.5 -140t-27.5 -173h-89z" />
    <glyph glyph-name="uni2088" unicode="&#x2088;" 
d="M185 -199q-65 0 -104 30.5t-39 79.5q0 32 22 59t54 40v4q-61 27 -61 86q0 45 36 73t92 28q58 0 94.5 -27.5t36.5 -73.5q0 -29 -18.5 -52.5t-43.5 -35.5v-4q75 -28 75 -97q0 -48 -40 -79t-104 -31zM207 33q34 30 34 63q0 19 -16.5 32t-39.5 13q-22 0 -37 -13t-15 -31
q0 -39 74 -64zM185 -141q30 0 48 15.5t18 39.5q0 25 -22.5 40t-66.5 29q-42 -28 -42 -68q0 -25 18 -40.5t47 -15.5z" />
    <glyph glyph-name="uni2089" unicode="&#x2089;" 
d="M178 201q72 0 112.5 -50t40.5 -141q0 -97 -47.5 -153t-124.5 -56q-22 0 -51.5 6t-41.5 4l25 83q21 -28 68 -28q38 0 64 30.5t30 81.5q-38 -36 -88 -36q-58 0 -92.5 33t-34.5 92t39 96.5t101 37.5zM173 4q47 0 79 39q-4 45 -24 68.5t-50 23.5q-27 0 -45 -18.5t-18 -48.5
q0 -29 17 -46.5t41 -17.5z" />
    <glyph glyph-name="Euro" unicode="&#x20ac;" horiz-adv-x="521" 
d="M465 124l26 -124q-18 2 -68 -5t-87 -7q-213 0 -247 227h-11q-40 0 -56 -10v79h61q0 44 1 53h-62v79q16 -10 56 -10h12q19 116 82.5 170.5t156.5 54.5q43 0 92 -8t64 -7l-26 -121q-25 39 -124 39q-98 0 -127 -128h120q40 0 56 10v-79h-184q-2 -27 0 -53h184v-79
q-16 10 -56 10h-120q27 -130 136 -130q92 0 121 39z" />
    <glyph glyph-name="trademark" unicode="&#x2122;" horiz-adv-x="762" 
d="M120 677h100q49 0 65 6v-82q-17 12 -65 12h-15v-144q0 -51 12 -75h-93q12 27 12 75v144h-16q-48 0 -64 -12v82q14 -6 64 -6zM660 602v-133q0 -50 11 -75h-91q11 25 11 75v96l-94 -150l-97 151l1 -97q0 -50 11 -75h-91q11 25 11 75v133q0 43 -11 75h85l90 -151l92 151h83
q-11 -32 -11 -75z" />
    <glyph glyph-name="uni2150" unicode="&#x2150;" horiz-adv-x="904" 
d="M499 511l134 157l-225 -523l-135 -157zM164 569h-86v59q103 0 171 38v-314l80 -18v-54h-249v54l84 18v217zM655 0q6 100 32.5 169.5t87.5 135.5h-109q-67 0 -89 -19v100q23 -10 89 -10h201v-63q-70 -71 -95.5 -140t-27.5 -173h-89z" />
    <glyph glyph-name="uni2151" unicode="&#x2151;" horiz-adv-x="873" 
d="M502 511l134 157l-225 -523l-135 -157zM164 569h-86v59q103 0 171 38v-314l80 -18v-54h-249v54l84 18v217zM679 388q71 0 112 -50t41 -141q0 -97 -47.5 -153t-124.5 -56q-22 0 -51.5 6t-41.5 4l25 83q21 -28 68 -28q38 0 64 30.5t30 81.5q-38 -36 -88 -36q-58 0 -92.5 33
t-34.5 92t39 96.5t101 37.5zM674 191q47 0 79 39q-4 45 -24 68.5t-50 23.5q-27 0 -45 -18.5t-18 -48.5q0 -29 17 -46.5t41 -17.5z" />
    <glyph glyph-name="uni2152" unicode="&#x2152;" horiz-adv-x="1193" 
d="M506 511l134 157l-225 -523l-134 -157zM164 569h-86v59q103 0 171 38v-314l80 -18v-54h-249v54l84 18v217zM659 289h-86v59q103 0 171 38v-314l79 -18v-54h-249v54l85 18v217zM1007 -12q-71 0 -113.5 52t-42.5 146q0 93 42.5 144.5t113.5 51.5q70 0 112.5 -51.5
t42.5 -144.5q0 -94 -42.5 -146t-112.5 -52zM1007 57q71 0 71 129q0 127 -71 127q-72 0 -72 -127q0 -129 72 -129z" />
    <glyph glyph-name="uni2153" unicode="&#x2153;" horiz-adv-x="868" 
d="M495 511l135 157l-226 -523l-134 -157zM164 569h-86v59q103 0 171 38v-314l80 -18v-54h-249v54l84 18v217zM680 -12q-42 0 -90 19.5t-55 20.5l46 82q31 -57 95 -57q27 0 46 13.5t19 36.5q0 61 -114 61v58q99 0 99 55q0 21 -15 33.5t-40 12.5q-46 0 -80 -43l-36 77
q8 1 49.5 16t76.5 15q57 0 92.5 -27.5t35.5 -78.5q0 -62 -70 -85q39 -9 62 -33.5t23 -63.5q0 -52 -41 -82t-103 -30z" />
    <glyph glyph-name="uni2154" unicode="&#x2154;" horiz-adv-x="867" 
d="M46 342q179 117 179 192q0 29 -15 46.5t-42 17.5q-56 0 -85 -55l-44 83q15 2 57.5 22t79.5 20q61 0 98 -35t37 -94q0 -91 -139 -188h70q62 0 85 18v-89h-281v62zM498 511l134 157l-225 -523l-135 -157zM679 -12q-42 0 -90 19.5t-56 20.5l46 82q31 -57 95 -57
q27 0 46 13.5t19 36.5q0 61 -114 61v58q99 0 99 55q0 21 -15 33.5t-40 12.5q-47 0 -79 -43l-37 77q9 1 50.5 16t75.5 15q57 0 92.5 -27.5t35.5 -78.5q0 -62 -70 -85q39 -9 62 -33.5t23 -63.5q0 -52 -41 -82t-102 -30z" />
    <glyph glyph-name="uni2155" unicode="&#x2155;" horiz-adv-x="869" 
d="M505 511l135 157l-226 -523l-134 -157zM164 569h-86v59q103 0 171 38v-314l80 -18v-54h-249v54l84 18v217zM680 -12q-44 0 -87 18t-59 19l43 82q33 -54 99 -54q31 0 49.5 16.5t18.5 45.5q0 28 -20 44.5t-52 16.5q-35 0 -63 -17l-42 14l19 203h136q62 0 84 11v-100
q-21 17 -84 17h-75l-7 -76q21 9 54 9q55 0 94 -33.5t39 -89.5q0 -60 -40.5 -93t-106.5 -33z" />
    <glyph glyph-name="uni2156" unicode="&#x2156;" horiz-adv-x="862" 
d="M46 342q179 117 179 192q0 29 -15 46.5t-42 17.5q-56 0 -85 -55l-44 83q15 2 57.5 22t79.5 20q61 0 98 -35t37 -94q0 -91 -139 -188h70q62 0 85 18v-89h-281v62zM504 511l134 157l-226 -523l-134 -157zM673 -12q-44 0 -87 18t-59 19l43 82q33 -54 99 -54q31 0 49.5 16.5
t18.5 45.5q0 28 -20 44.5t-52 16.5q-35 0 -63 -17l-41 14l18 203h136q62 0 84 11v-100q-21 17 -84 17h-75l-7 -76q21 9 54 9q55 0 94 -33.5t39 -89.5q0 -60 -40.5 -93t-106.5 -33z" />
    <glyph glyph-name="uni2157" unicode="&#x2157;" horiz-adv-x="861" 
d="M184 268q-42 0 -90 19.5t-55 20.5l46 82q31 -57 95 -57q27 0 45.5 13.5t18.5 36.5q0 61 -114 61v58q100 0 100 55q0 21 -15 33.5t-40 12.5q-46 0 -80 -43l-36 77q7 1 49 16t77 15q57 0 92 -27.5t35 -78.5q0 -62 -69 -85q39 -9 62 -33.5t23 -63.5q0 -52 -41 -82t-103 -30z
M488 511l134 157l-225 -523l-134 -157zM673 -12q-44 0 -87 18t-60 19l43 82q33 -54 99 -54q31 0 49.5 16.5t18.5 45.5q0 28 -19.5 44.5t-52.5 16.5q-36 0 -62 -17l-42 14l18 203h136q62 0 84 11v-100q-21 17 -84 17h-74l-8 -76q21 9 54 9q56 0 95 -33.5t39 -89.5
q0 -60 -41 -93t-106 -33z" />
    <glyph glyph-name="uni2158" unicode="&#x2158;" horiz-adv-x="863" 
d="M500 511l134 157l-225 -523l-135 -157zM215 374h-178v48l162 234h91v-223q43 0 58 14v-73h-58v-15q0 -64 18 -79h-112q19 15 19 79v15zM215 433v148l-103 -148h103zM675 -12q-44 0 -87 18t-60 19l43 82q33 -54 99 -54q31 0 49.5 16.5t18.5 45.5q0 28 -20 44.5t-52 16.5
q-36 0 -62 -17l-42 14l18 203h136q62 0 84 11v-100q-21 17 -84 17h-75l-7 -76q21 9 54 9q55 0 94 -33.5t39 -89.5q0 -60 -40.5 -93t-105.5 -33z" />
    <glyph glyph-name="uni2159" unicode="&#x2159;" horiz-adv-x="864" 
d="M508 511l134 157l-225 -523l-135 -157zM164 569h-86v59q103 0 171 38v-314l80 -18v-54h-249v54l84 18v217zM687 -12q-72 0 -113 50t-41 140q0 98 48 154t125 56q22 0 51.5 -6t40.5 -5l-25 -82q-19 27 -67 27q-39 0 -65 -30t-30 -82q37 37 88 37q58 0 92.5 -33.5
t34.5 -92.5t-39 -96t-100 -37zM691 185q-47 0 -78 -39q3 -45 22.5 -69t50.5 -24q28 0 45.5 18.5t17.5 49.5q0 29 -17 46.5t-41 17.5z" />
    <glyph glyph-name="uni215A" unicode="&#x215a;" horiz-adv-x="861" 
d="M488 511l135 157l-226 -523l-134 -157zM184 268q-44 0 -87 18t-60 19l43 82q33 -54 99 -54q31 0 49.5 16.5t18.5 45.5q0 28 -19.5 44.5t-52.5 16.5q-36 0 -62 -17l-42 14l18 203h136q62 0 84 11v-100q-21 17 -84 17h-74l-8 -76q21 9 54 9q56 0 95 -33.5t39 -89.5
q0 -60 -41 -93t-106 -33zM684 -12q-72 0 -113 50t-41 140q0 98 48 154t125 56q22 0 51.5 -6t40.5 -5l-25 -82q-19 27 -67 27q-39 0 -65 -30t-30 -82q37 37 89 37q58 0 92 -33.5t34 -92.5t-38.5 -96t-100.5 -37zM689 185q-48 0 -79 -39q3 -45 23 -69t50 -24q28 0 45.5 18.5
t17.5 49.5q0 29 -16.5 46.5t-40.5 17.5z" />
    <glyph glyph-name="oneeighth" unicode="&#x215b;" horiz-adv-x="870" 
d="M508 511l134 157l-225 -523l-134 -157zM164 569h-86v59q103 0 171 38v-314l80 -18v-54h-249v54l84 18v217zM682 -12q-64 0 -103 30.5t-39 79.5q0 32 22 59t53 40v4q-61 27 -61 86q0 45 36 73t92 28q58 0 94.5 -27.5t36.5 -73.5q0 -29 -18.5 -52.5t-43.5 -35.5v-4
q75 -27 75 -97q0 -48 -40 -79t-104 -31zM704 220q34 30 34 63q0 19 -16 32t-39 13q-22 0 -37.5 -13t-15.5 -31q0 -39 74 -64zM682 46q30 0 48.5 15.5t18.5 39.5t-22.5 39t-66.5 30q-43 -28 -43 -68q0 -25 18 -40.5t47 -15.5z" />
    <glyph glyph-name="threeeighths" unicode="&#x215c;" horiz-adv-x="861" 
d="M184 268q-42 0 -90 19.5t-55 20.5l46 82q31 -57 95 -57q27 0 45.5 13.5t18.5 36.5q0 61 -114 61v58q100 0 100 55q0 21 -15 33.5t-40 12.5q-46 0 -80 -43l-36 77q7 1 49 16t77 15q57 0 92 -27.5t35 -78.5q0 -62 -69 -85q39 -9 62 -33.5t23 -63.5q0 -52 -41 -82t-103 -30z
M487 511l135 157l-226 -523l-134 -157zM674 -12q-65 0 -104 30.5t-39 79.5q0 32 22 59t54 40v4q-61 26 -61 86q0 45 36 73t91 28q58 0 94.5 -27.5t36.5 -73.5q0 -29 -18.5 -52.5t-43.5 -35.5v-4q75 -27 75 -97q0 -48 -40 -79t-103 -31zM696 220q33 29 33 63q0 19 -16 32
t-39 13q-22 0 -37.5 -13t-15.5 -31q0 -39 75 -64zM674 46q29 0 47.5 15.5t18.5 39.5t-22.5 39t-66.5 30q-43 -29 -43 -68q0 -25 18 -40.5t48 -15.5z" />
    <glyph glyph-name="fiveeighths" unicode="&#x215d;" horiz-adv-x="861" 
d="M491 511l135 157l-226 -523l-134 -157zM184 268q-44 0 -87 18t-60 19l43 82q33 -54 99 -54q31 0 49.5 16.5t18.5 45.5q0 28 -19.5 44.5t-52.5 16.5q-36 0 -62 -17l-42 14l18 203h136q62 0 84 11v-100q-21 17 -84 17h-74l-8 -76q21 9 54 9q56 0 95 -33.5t39 -89.5
q0 -60 -41 -93t-106 -33zM673 -12q-64 0 -103 30.5t-39 79.5q0 32 22 59t53 40v4q-61 27 -61 86q0 45 36 73t92 28q58 0 94.5 -27.5t36.5 -73.5q0 -29 -18.5 -52.5t-43.5 -35.5v-4q75 -27 75 -97q0 -48 -40 -79t-104 -31zM695 220q34 30 34 63q0 19 -16 32t-39 13
q-22 0 -37.5 -13t-15.5 -31q0 -39 74 -64zM673 46q30 0 48.5 15.5t18.5 39.5t-22.5 39t-66.5 30q-43 -28 -43 -68q0 -25 18 -40.5t47 -15.5z" />
    <glyph glyph-name="seveneighths" unicode="&#x215e;" horiz-adv-x="819" 
d="M444 511l134 157l-225 -523l-135 -157zM124 280q6 100 32.5 169.5t87.5 135.5h-109q-67 0 -89 -19v100q23 -10 89 -10h200v-63q-69 -71 -94.5 -140t-27.5 -173h-89zM643 -12q-64 0 -103 30.5t-39 79.5q0 32 22 59t53 40v4q-61 27 -61 86q0 45 36 73t92 28
q58 0 94.5 -27.5t36.5 -73.5q0 -29 -18.5 -52.5t-43.5 -35.5v-4q75 -27 75 -97q0 -48 -40 -79t-104 -31zM665 220q34 30 34 63q0 19 -16 32t-39 13q-22 0 -37.5 -13t-15.5 -31q0 -39 74 -64zM643 46q30 0 48.5 15.5t18.5 39.5t-22.5 39t-66.5 30q-43 -28 -43 -68
q0 -25 18 -40.5t47 -15.5z" />
    <glyph glyph-name="uni2189" unicode="&#x2189;" horiz-adv-x="851" 
d="M482 511l135 157l-226 -523l-134 -157zM186 268q-71 0 -113 52t-42 146q0 93 42 144.5t113 51.5t113.5 -51.5t42.5 -144.5q0 -94 -42.5 -146t-113.5 -52zM186 337q71 0 71 129q0 127 -71 127t-71 -127q0 -129 71 -129zM677 -12q-42 0 -90 19.5t-56 20.5l46 82
q31 -57 95 -57q27 0 46 13.5t19 36.5q0 61 -114 61v58q99 0 99 55q0 21 -15 33.5t-40 12.5q-47 0 -79 -43l-36 77q8 1 49 16t76 15q57 0 92.5 -27.5t35.5 -78.5q0 -62 -70 -85q85 -19 85 -97q0 -52 -41 -82t-102 -30z" />
    <glyph glyph-name="arrowleft" unicode="&#x2190;" horiz-adv-x="852" 
d="M779 372v-112l-558 1v-89q-77 91 -175 145q101 55 175 145v-90h558z" />
    <glyph glyph-name="arrowup" unicode="&#x2191;" horiz-adv-x="369" 
d="M329 558h-89v-558h-112v558h-88q89 75 144 175q54 -98 145 -175z" />
    <glyph glyph-name="arrowright" unicode="&#x2192;" horiz-adv-x="853" 
d="M632 463q74 -89 175 -145q-101 -56 -175 -145v89l-559 -1v112l559 1v89z" />
    <glyph glyph-name="arrowdown" unicode="&#x2193;" horiz-adv-x="366" 
d="M239 169h89q-90 -76 -145 -176q-55 100 -145 176h89v558h112v-558z" />
    <glyph glyph-name="arrowboth" unicode="&#x2194;" horiz-adv-x="876" 
d="M654 172v85l-434 1v-86q-74 89 -175 145q101 56 175 145v-85l434 -1v86q74 -89 175 -145q-101 -56 -175 -145z" />
    <glyph glyph-name="arrowupdn" unicode="&#x2195;" horiz-adv-x="381" 
d="M335 563h-85v-432h85q-88 -75 -145 -176q-58 103 -144 176h85v432h-85q88 74 144 175q56 -99 145 -175z" />
    <glyph glyph-name="uni2196" unicode="&#x2196;" horiz-adv-x="656" 
d="M616 100l-79 -80l-395 396l-63 -64q11 115 -22 227q112 -33 227 -22l-63 -62z" />
    <glyph glyph-name="uni2197" unicode="&#x2197;" horiz-adv-x="656" 
d="M598 578q-33 -112 -22 -227l-62 64l-396 -396l-79 80l395 395l-63 62q115 -11 227 22z" />
    <glyph glyph-name="uni2198" unicode="&#x2198;" horiz-adv-x="656" 
d="M576 249q-11 -113 22 -226q-110 32 -227 21l63 64l-395 394l79 79l396 -394z" />
    <glyph glyph-name="uni2199" unicode="&#x2199;" horiz-adv-x="656" 
d="M616 502l-394 -394l62 -64q-116 11 -226 -21q32 110 21 226l63 -62l395 394z" />
    <glyph glyph-name="partialdiff" unicode="&#x2202;" horiz-adv-x="544" 
d="M263 -12q-97 0 -160 60.5t-63 176.5q0 102 59.5 164t145.5 62q78 0 121 -49q-32 119 -152 207q-49 35 -94 37l54 98q146 -66 230.5 -193.5t84.5 -284.5q0 -135 -60 -206.5t-166 -71.5zM157 207q9 -65 42 -86t80 -9q59 1 81.5 55.5t7.5 127.5q-22 33 -55.5 47.5t-60.5 4.5
q-50 -9 -76 -47.5t-19 -92.5z" />
    <glyph glyph-name="emptyset" unicode="&#x2205;" horiz-adv-x="496" 
d="M467 429q-26 -11 -57 -39q32 -50 32 -111q0 -86 -56 -140t-138 -54q-61 0 -109 31q-29 -31 -42 -57l-68 70q28 13 56 40q-31 47 -31 110q0 86 56 140t138 54q61 0 109 -31q25 26 41 57zM248 390q-48 0 -75 -29.5t-27 -81.5q0 -25 6 -44l144 145q-20 10 -48 10zM248 168
q48 0 75 29.5t27 81.5q0 25 -6 44l-144 -145q19 -10 48 -10z" />
    <glyph glyph-name="product" unicode="&#x220f;" horiz-adv-x="613" 
d="M488 566h-8v-545q0 -88 22 -131h-154q18 44 18 131v545h-127v-545q0 -87 18 -131h-154q22 43 22 131v545h-8q-56 0 -85 -17v121q31 -8 88 -8h365q63 0 95 8v-121q-28 17 -92 17z" />
    <glyph glyph-name="summation" unicode="&#x2211;" horiz-adv-x="508" 
d="M479 541q-37 24 -139 24h-150l185 -289l-185 -289h150q104 0 139 23v-128q-35 8 -139 8h-303v86q25 16 45 38t48 68l124 194l-124 194q-48 77 -93 106v86h303q103 0 139 7v-128z" />
    <glyph glyph-name="minus" unicode="&#x2212;" horiz-adv-x="438" 
d="M42 350q16 -10 56 -10h241q40 0 56 10v-105q-16 10 -56 10h-241q-40 0 -56 -10v105z" />
    <glyph glyph-name="radical" unicode="&#x221a;" horiz-adv-x="625" 
d="M619 676q86 0 121 8v-124q-38 19 -121 19h-72l-171 -534q-33 -101 -31 -163h-173q1 58 -33 163l-56 175q-40 123 -65 156h153q-9 -35 20 -136l67 -237h7l200 673h154z" />
    <glyph glyph-name="infinity" unicode="&#x221e;" horiz-adv-x="725" 
d="M517 480q76 0 123.5 -50.5t47.5 -131.5t-45 -132.5t-121 -51.5q-51 0 -93.5 26t-65.5 69q-25 -44 -66.5 -69.5t-88.5 -25.5q-76 0 -123.5 50.5t-47.5 132.5q0 81 44.5 132t121.5 51q51 0 93 -26t66 -69q25 44 66.5 69.5t88.5 25.5zM521 208q38 0 59 25.5t21 64.5
t-24 65.5t-62 26.5q-34 0 -66 -22.5t-48 -47.5q19 -51 51.5 -81.5t68.5 -30.5zM210 204q34 0 66 22.5t48 48.5q-19 51 -52 81.5t-68 30.5q-37 0 -58.5 -26t-21.5 -64q0 -40 24 -66.5t62 -26.5z" />
    <glyph glyph-name="integral" unicode="&#x222b;" horiz-adv-x="344" 
d="M229 487q11 0 24 -1l-1 -28q-11 7 -34 7q-13 0 -19 -14.5t-9 -52.5l-22 -259q-8 -80 -52 -80q-4 0 -11.5 1t-12.5 1l1 28q10 -7 34 -7q13 0 18.5 14t8.5 53l22 259q8 79 53 79z" />
    <glyph glyph-name="approxequal" unicode="&#x2248;" horiz-adv-x="459" 
d="M306 290q-40 0 -84.5 25.5t-61.5 25.5q-32 0 -32 -51h-86q0 72 31 108.5t79 36.5q40 0 84.5 -25.5t62.5 -25.5q32 0 32 50h86q0 -71 -32 -107.5t-79 -36.5zM306 98q-40 0 -84.5 25.5t-61.5 25.5q-32 0 -32 -51h-86q0 72 31 108.5t79 36.5q40 0 84.5 -25t62.5 -25
q32 0 32 49h86q0 -71 -32 -107.5t-79 -36.5z" />
    <glyph glyph-name="notequal" unicode="&#x2260;" horiz-adv-x="438" 
d="M339 379q40 0 56 10v-183q-16 10 -56 10h-122l-56 -121l-61 28l43 93h-45q-40 0 -56 -10v183q16 -10 56 -10h121l57 122l61 -28l-44 -94h46z" />
    <glyph glyph-name="lessequal" unicode="&#x2264;" horiz-adv-x="415" 
d="M328 291q30 -11 47 -10l-34 -98q-9 14 -51 33l-247 102v75l247 102q43 20 51 33l34 -98q-17 1 -47 -10l-164 -64zM98 138h217q40 0 56 10v-105q-16 10 -56 10h-217q-40 0 -56 -10v105q16 -10 56 -10z" />
    <glyph glyph-name="greaterequal" unicode="&#x2265;" horiz-adv-x="415" 
d="M40 281q17 -1 47 10l164 65l-164 64q-30 11 -47 10l35 98q7 -13 50 -33l248 -102v-75l-248 -102q-42 -19 -50 -33zM317 138q40 0 56 10v-105q-16 10 -56 10h-216q-40 0 -56 -10v105q16 -10 56 -10h216z" />
    <glyph glyph-name="lozenge" unicode="&#x25ca;" horiz-adv-x="538" 
d="M284 465l-122 -116h-45l105 156h16zM312 487l68 -105l-96 83l23 22h5zM405 360h-11l-14 22zM430 288l28 -71l-184 -217l-98 72l-86 216l92 -60l98 -199l-14 61z" />
    <glyph glyph-name="uni261A" unicode="&#x261a;" horiz-adv-x="1504" 
d="M617 -15q-23 14 -46 47t-23 43q0 17 14.5 54t32.5 69q-2 5 -7.5 8.5t-9.5 2.5q-21 -27 -38 -62t-17 -46q0 -8 15.5 -49t20.5 -48q-45 -11 -59 19q-5 11 -19 36.5t-21.5 42.5t-7.5 26q0 16 19.5 58.5t48.5 79.5q-12 15 -17 15q-25 -30 -47.5 -69t-22.5 -47q0 -7 5.5 -38
t7.5 -38q-21 -8 -32 -1.5t-23 34.5l-24 55q-8 19 1 39q29 65 95 132q-7 9 -14 9q-3 0 -16.5 -11t-20.5 -20q-54 0 -95 6t-42 6q-33 -10 -83 -17t-80 -4q-43 4 -51 38q-5 21 7 26q62 19 171 38.5t191 27.5q14 1 42.5 9.5t42.5 8.5q57 0 198.5 -27.5t205.5 -27.5q18 0 56 5
t59 4q28 -1 51.5 -62.5t23.5 -126.5q0 -39 -9 -64.5t-24 -25.5q-8 0 -54.5 7.5t-63.5 7.5q-23 0 -98 -40t-112 -41q-32 0 -69 39q-4 -14 -18 -28.5t-29 -21.5q12 -6 18 -21q30 24 51 24t21 -16q0 -26 -79 -65q-5 -2 -13.5 -2t-12.5 2zM1097 33q35 17 55 74t20 138
q0 63 -21 121.5t-54 65.5h257q28 0 50.5 -31.5t33 -73.5t10.5 -82q0 -81 -28.5 -146.5t-79.5 -65.5h-243zM1259 72q11 0 18.5 8t7.5 19t-7.5 18.5t-18.5 7.5q-10 0 -17.5 -8t-7.5 -18q0 -11 7.5 -19t17.5 -8z" />
    <glyph glyph-name="uni261B" unicode="&#x261b;" horiz-adv-x="1468" 
d="M863 -15q-79 39 -79 65q0 16 21 16t51 -24q6 15 18 21q-15 7 -29 21.5t-18 28.5q-37 -39 -69 -39q-37 1 -112 41t-98 40q-17 0 -63.5 -7.5t-54.5 -7.5q-15 0 -24 25.5t-9 64.5q0 65 23.5 126.5t51.5 62.5q21 1 59 -4t56 -5q64 0 205.5 27.5t198.5 27.5q14 0 42.5 -8.5
t42.5 -9.5q82 -8 191 -27.5t171 -38.5q12 -4 7 -25q-7 -32 -45 -38l-6 -1q-30 -3 -80 4t-83 17q-1 0 -42 -6t-95 -6q-7 9 -20.5 20t-16.5 11q-7 0 -14 -9q66 -67 95 -132q9 -20 1 -39l-24 -55q-12 -28 -23 -34.5t-32 1.5q2 7 7.5 38t5.5 38q0 8 -22.5 47t-47.5 69
q-4 0 -17 -15q29 -37 48.5 -79.5t19.5 -58.5q0 -9 -7.5 -26t-21.5 -42.5t-19 -36.5q-14 -30 -59 -19q5 7 20.5 48t15.5 49q0 11 -17 46t-38 62q-4 1 -9.5 -2.5t-7.5 -8.5q18 -32 32.5 -69t14.5 -54q0 -10 -23 -43t-46 -47q-4 -2 -12.5 -2t-13.5 2zM166 33q-51 0 -79.5 65.5
t-28.5 146.5q0 40 10.5 82t33 73.5t50.5 31.5h257q-33 -7 -54 -65.5t-21 -121.5q0 -81 20 -138t55 -74h-243zM247 72q10 0 17.5 8t7.5 19q0 10 -7.5 18t-17.5 8q-11 0 -18.5 -7.5t-7.5 -18.5t7.5 -19t18.5 -8z" />
    <glyph glyph-name="uni261C" unicode="&#x261c;" horiz-adv-x="981" 
d="M883 206q26 -5 36 -16.5t10 -37.5q0 -34 -12 -57t-36 -22l-130 9q-41 -27 -89 -27q-68 0 -160 25l-54 -2q-19 -1 -30.5 11.5t-11.5 26.5q0 15 7 24h-2q-20 -1 -31.5 11.5t-11.5 32.5q0 14 7 25q-39 4 -39 41q0 5 2 15q-59 -2 -65 36l-127 10q-64 4 -64 47q0 32 40 33
l349 7q61 24 94 24h38q38 0 77 -22t65 -51l133 10q22 1 37.5 -27t15.5 -64q0 -40 -45 -52l-23 -6zM883 88q15 -1 23 17.5t8 46.5q0 20 -6.5 27.5t-24.5 11.5l-47 11v13l50 16q30 9 30 37q0 31 -11 54t-27 22l-122 -10q7 -10 9 -19q-31 37 -74 64.5t-88 27.5h-38
q-31 0 -122.5 -37.5t-154.5 -40.5l-1 -19q-1 -18 19.5 -25.5t52.5 -2.5l93 15q15 2 46.5 -3t38.5 -5q22 0 69 27q-30 -28 -50 -37q33 -52 77 -70t102 -19q-113 -15 -172 56q-5 -14 -12 -20q41 -6 41 -40q0 -18 -14 -30q24 -10 24 -33q0 -14 -10.5 -26.5t-31.5 -13.5h-9
q62 -13 111 -13q72 0 151 82q-17 -32 -43 -55zM273 343q67 0 161 40l-310 -7q-24 0 -24 -18q0 -29 46 -32l127 -8v25zM352 250q0 -26 35 -25l131 6q30 1 30 22q0 14 -19 22q-2 0 -33 4.5t-45 2.5l-92 -15h-1q-6 -7 -6 -17zM384 184q0 -13 7 -21.5t20 -7.5l135 7q30 1 30 24
q0 29 -48 29q-3 -1 -10 -1l-121 -5q-13 -4 -13 -25zM446 93l114 5q27 1 27 25q0 21 -32 25q-2 -1 -6 -1l-119 -6q-9 -9 -9 -25q0 -9 7 -16.5t18 -6.5z" />
    <glyph glyph-name="uni261D" unicode="&#x261d;" horiz-adv-x="537" 
d="M438 44l9 -130q1 -24 -22 -36t-57 -12q-26 0 -37.5 10t-16.5 36l-4 20l-6 -23q-12 -45 -52 -45q-36 0 -64 15.5t-27 37.5l10 133q-29 26 -51 65t-22 77v38q0 33 24 94l7 349q1 40 33 40q43 0 47 -64l10 -127q38 -6 36 -65q10 2 15 2q37 0 41 -39q11 7 25 7
q20 0 32.5 -11.5t11.5 -31.5v-2q9 7 24 7q14 0 26.5 -11.5t11.5 -30.5l-2 -54q25 -92 25 -160q0 -48 -27 -89zM144 671l-7 -310q40 94 40 161h25l-8 127q-3 46 -32 46q-18 0 -18 -24zM368 -119q28 0 46.5 8t17.5 23l-9 113q-23 -26 -55 -43q82 79 82 151q0 49 -13 111v-9
q-1 -21 -13.5 -31.5t-26.5 -10.5q-23 0 -33 24q-12 -14 -30 -14q-34 0 -40 41q-6 -7 -20 -12q71 -59 56 -172q-1 58 -19 102t-70 77q-9 -20 -37 -50q27 47 27 69q0 7 -5 38.5t-3 46.5l15 93q5 32 -2.5 52.5t-25.5 19.5l-19 -1q-3 -63 -40.5 -154.5t-37.5 -122.5v-38
q0 -45 27.5 -88t64.5 -74q-9 2 -19 9l-10 -122q-1 -16 22 -27t54 -11q28 0 37 30l16 50h13l11 -47q4 -18 11.5 -24.5t27.5 -6.5zM270 443q-10 0 -17 -6v-1l-15 -92q-1 -16 -0.5 -25t3.5 -26.5t4 -26.5q8 -19 22 -19q21 0 22 30l6 131q1 35 -25 35zM336 411q-21 0 -25 -13
l-5 -121q0 -7 -1 -10q0 -48 29 -48q23 0 24 30l7 135q1 13 -7.5 20t-21.5 7zM379 365l-6 -119q0 -4 -1 -6q4 -32 25 -32q24 0 25 27l5 114q1 11 -6.5 18t-16.5 7q-16 0 -25 -9z" />
    <glyph glyph-name="uni261E" unicode="&#x261e;" horiz-adv-x="937" 
d="M877 391q40 -1 40 -33q0 -43 -64 -47l-127 -10q-6 -38 -65 -36q2 -10 2 -15q0 -37 -39 -41q7 -11 7 -25q0 -20 -11.5 -32.5t-31.5 -11.5h-2q7 -9 7 -24q0 -14 -11.5 -26.5t-30.5 -11.5l-54 2q-92 -25 -160 -25q-48 0 -89 27l-130 -9q-24 -1 -36 22t-12 57q0 26 10 37.5
t36 16.5l20 4l-23 6q-45 12 -45 52q0 36 15.5 64t37.5 27l133 -10q26 29 65 51t77 22h38q33 0 94 -24zM640 282q32 -5 52.5 2.5t19.5 25.5l-1 19q-63 3 -154.5 40.5t-122.5 37.5h-38q-45 0 -88 -27.5t-74 -64.5q2 9 9 19l-122 10q-16 1 -27 -22t-11 -54q0 -28 30 -37l50 -16
v-13l-47 -11q-18 -4 -24.5 -11.5t-6.5 -27.5q0 -28 8 -46.5t23 -17.5l113 9q-26 23 -43 55q79 -82 151 -82q49 0 111 13h-9q-21 1 -31.5 13.5t-10.5 26.5q0 23 24 33q-14 12 -14 30q0 34 41 40q-7 6 -12 20q-59 -71 -172 -56q58 1 102 19t77 70q-20 9 -50 37q47 -27 69 -27
q7 0 38.5 5t46.5 3zM853 326q46 3 46 32q0 18 -24 18l-310 7q94 -40 161 -40v-25zM647 250q0 10 -6 17h-1l-92 15q-16 1 -25 0.5t-26.5 -3.5t-26.5 -4q-19 -8 -19 -22q0 -21 30 -22l131 -6q35 -1 35 25zM588 155q13 -1 20 7.5t7 21.5q0 21 -13 25l-121 5q-7 0 -10 1
q-48 0 -48 -29q0 -23 30 -24zM578 116q0 16 -9 25l-119 6q-4 0 -6 1q-32 -4 -32 -25q0 -24 27 -25l114 -5q11 -1 18 6.5t7 16.5z" />
    <glyph glyph-name="uni261F" unicode="&#x261f;" horiz-adv-x="470" 
d="M421 284l2 -54q1 -19 -11.5 -30.5t-26.5 -11.5q-15 0 -24 7v-2q1 -20 -11.5 -31.5t-32.5 -11.5q-14 0 -25 7q-4 -39 -41 -39q-5 0 -15 2q2 -59 -36 -65l-10 -127q-4 -64 -47 -64q-32 0 -33 40l-7 349q-24 61 -24 94v38q0 38 22 77t51 65l-10 133q-1 22 27 37.5t64 15.5
q40 0 52 -45l6 -23l4 20q5 26 16.5 36t37.5 10q34 0 57 -12t22 -36l-9 -130q27 -41 27 -89q0 -68 -25 -160zM191 69q18 -1 25.5 19.5t2.5 52.5l-15 93q-2 15 3 46.5t5 38.5q0 22 -27 69q28 -30 37 -50q52 33 70 77t19 102q15 -113 -56 -172q14 -5 20 -12q6 41 40 41
q18 0 30 -14q10 24 33 24q14 0 26.5 -10.5t13.5 -31.5v-9q13 62 13 111q0 72 -82 151q32 -17 55 -43l9 113q1 15 -17.5 23t-46.5 8q-20 0 -27.5 -6.5t-11.5 -24.5l-11 -47h-13l-16 50q-9 30 -37 30q-31 0 -54 -11t-22 -27l10 -122q10 7 19 9q-37 -31 -64.5 -74t-27.5 -88
v-38q0 -31 37.5 -122.5t40.5 -154.5zM385 203q9 0 16.5 7t6.5 18l-5 114q-1 27 -25 27q-21 0 -25 -32q1 -2 1 -6l6 -119q9 -9 25 -9zM317 166q13 0 21.5 7t7.5 20l-7 135q-1 30 -24 30q-29 0 -29 -48q1 -3 1 -10l5 -121q4 -13 25 -13zM251 134q26 0 25 35l-6 131
q-1 30 -22 30q-14 0 -22 -19q0 -2 -4.5 -33t-2.5 -45l15 -92v-1q8 -6 17 -6zM143 -118q29 0 32 46l8 127h-25q0 67 -40 161l7 -310q0 -24 18 -24z" />
    <glyph glyph-name="K.ss04" horiz-adv-x="614" 
d="M63 654h154q-18 -36 -18 -125v-175h3l168 206q44 58 52 94h158q-45 -35 -97 -107l-119 -150q26 -77 59 -147.5t84 -146t109 -130t136.5 -90t164.5 -35.5q75 0 148 31l-18 -108q-65 -25 -147 -25q-77 0 -147.5 21t-124.5 54t-103.5 82.5t-84 96t-67.5 105.5t-52 101
t-39 91l-83 -100v-75q0 -86 18 -122h-154q23 35 23 131v392q0 96 -23 131z" />
    <glyph glyph-name="uni0136.ss04" horiz-adv-x="614" 
d="M63 654h154q-18 -36 -18 -125v-175h3l168 206q44 58 52 94h158q-45 -35 -97 -107l-119 -150q26 -77 59 -147.5t84 -146t109 -130t136.5 -90t164.5 -35.5q75 0 148 31l-18 -108q-65 -25 -147 -25q-77 0 -147.5 21t-124.5 54t-103.5 82.5t-84 96t-67.5 105.5t-52 101
t-39 91l-83 -100v-75q0 -86 18 -122h-154q23 35 23 131v392q0 96 -23 131zM310 -57q59 0 59 -73q0 -92 -97 -122l-16 36q58 21 61 66h-8q-19 0 -33.5 12t-14.5 33q0 22 13.5 35t35.5 13z" />
    <glyph glyph-name="Q.ss05" horiz-adv-x="665" 
d="M764 -148q82 0 160.5 22t134.5 63l-15 -118q-122 -73 -287 -73q-150 0 -273 66t-176 177q-124 8 -191.5 92t-67.5 249q0 172 74.5 254t209.5 82t210 -82.5t75 -253.5q0 -286 -204 -333q55 -73 147.5 -109t202.5 -36zM166 330q0 -243 167 -243q168 0 168 243
q0 125 -42 180.5t-126 55.5q-83 0 -125 -55.5t-42 -180.5z" />
    <glyph glyph-name="R.ss06" horiz-adv-x="595" 
d="M63 0q23 33 23 131v392q0 98 -23 131h234q118 0 183 -44.5t65 -151.5q0 -74 -36.5 -122.5t-99.5 -66.5q189 -422 486 -422q81 0 149 30l-19 -107q-57 -24 -144 -24q-73 0 -139 18.5t-116 46.5t-96.5 72.5t-78.5 85.5t-63.5 96.5t-50 95t-40.5 90.5h-98v-120
q0 -94 17 -131h-153zM199 342h92q72 0 107.5 27t35.5 88q0 57 -35 80t-105 23h-95v-218z" />
    <glyph glyph-name="Racute.ss06" horiz-adv-x="595" 
d="M233 758q81 40 158 133l57 -72q-76 -76 -186 -113zM63 0q23 33 23 131v392q0 98 -23 131h234q118 0 183 -44.5t65 -151.5q0 -74 -36.5 -122.5t-99.5 -66.5q189 -422 486 -422q81 0 149 30l-19 -107q-57 -24 -144 -24q-73 0 -139 18.5t-116 46.5t-96.5 72.5t-78.5 85.5
t-63.5 96.5t-50 95t-40.5 90.5h-98v-120q0 -94 17 -131h-153zM199 342h92q72 0 107.5 27t35.5 88q0 57 -35 80t-105 23h-95v-218z" />
    <glyph glyph-name="Rcaron.ss06" horiz-adv-x="595" 
d="M231 705q-41 83 -110 138l41 39q76 -44 121 -109h4q49 68 121 109l40 -39q-70 -58 -109 -138h-108zM63 0q23 33 23 131v392q0 98 -23 131h234q118 0 183 -44.5t65 -151.5q0 -74 -36.5 -122.5t-99.5 -66.5q189 -422 486 -422q81 0 149 30l-19 -107q-57 -24 -144 -24
q-73 0 -139 18.5t-116 46.5t-96.5 72.5t-78.5 85.5t-63.5 96.5t-50 95t-40.5 90.5h-98v-120q0 -94 17 -131h-153zM199 342h92q72 0 107.5 27t35.5 88q0 57 -35 80t-105 23h-95v-218z" />
    <glyph glyph-name="uni0156.ss06" horiz-adv-x="595" 
d="M63 0q23 33 23 131v392q0 98 -23 131h234q118 0 183 -44.5t65 -151.5q0 -74 -36.5 -122.5t-99.5 -66.5q189 -422 486 -422q81 0 149 30l-19 -107q-57 -24 -144 -24q-73 0 -139 18.5t-116 46.5t-96.5 72.5t-78.5 85.5t-63.5 96.5t-50 95t-40.5 90.5h-98v-120
q0 -94 17 -131h-153zM199 342h92q72 0 107.5 27t35.5 88q0 57 -35 80t-105 23h-95v-218zM305 -57q59 0 59 -73q0 -92 -97 -122l-16 36q58 21 61 66h-8q-20 0 -34 12t-14 33q0 22 13.5 35t35.5 13z" />
    <glyph glyph-name="i.loclTRK" horiz-adv-x="257" 
d="M129 572q-66 0 -66 62q0 28 16.5 45t49.5 17t49.5 -17t16.5 -45q0 -62 -66 -62zM57 0q16 39 16 125v241q0 84 -16 125h136q-8 -44 -8 -125v-241q0 -84 15 -125h-143z" />
    <glyph glyph-name="a.inferior" horiz-adv-x="392" 
d="M149 -195q-54 0 -85 29.5t-31 83.5q0 116 177 116h40v22q0 68 -66 68t-106 -42l-28 83q8 1 57 16.5t86 15.5q147 0 147 -144v-142q0 -74 18 -97h-101l3 42h-5q-15 -22 -43.5 -36.5t-62.5 -14.5zM170 -128q23 0 45.5 16t34.5 40v47h-40q-89 0 -89 -52q0 -25 13.5 -38
t35.5 -13z" />
    <glyph glyph-name="b.inferior" horiz-adv-x="425" 
d="M253 -195q-64 0 -104 34h-6v-25h-100q15 28 15 96v345q0 71 -17 97h115q-7 -30 -7 -97v-104q38 46 105 46q68 0 105 -50.5t37 -139.5q0 -97 -38 -149.5t-105 -52.5zM227 -119q76 0 76 124q0 115 -75 115q-21 0 -43 -12t-36 -31v-156q33 -40 78 -40z" />
    <glyph glyph-name="c.inferior" horiz-adv-x="351" 
d="M204 -195q-78 0 -126 46.5t-48 148.5q0 103 48.5 150t125.5 47q34 0 76 -13l41 -14l-37 -85q-27 36 -70 36q-90 0 -90 -121q0 -119 90 -119q53 0 79 37l37 -86q-8 -2 -30 -9t-47 -12.5t-49 -5.5z" />
    <glyph glyph-name="d.inferior" horiz-adv-x="424" 
d="M179 -195q-67 0 -108 49.5t-41 145.5t42 146.5t109 50.5q59 0 97 -34v92q0 73 -17 97h114q-6 -26 -6 -97v-345q0 -74 17 -96h-104l1 34h-5q-36 -43 -99 -43zM203 -119q20 0 41.5 13t33.5 33v153q-31 40 -74 40q-37 0 -58.5 -29t-21.5 -88q0 -122 79 -122z" />
    <glyph glyph-name="e.inferior" horiz-adv-x="387" 
d="M215 -195q-86 0 -135.5 49t-49.5 146q0 96 47.5 146.5t122.5 50.5q77 0 116.5 -46t39.5 -129q0 -28 -4 -42h-232q3 -52 27 -77t74 -25q63 0 96 31l27 -80q-90 -24 -129 -24zM273 39q0 40 -18.5 63.5t-53.5 23.5q-37 0 -58 -24t-24 -63h154z" />
    <glyph glyph-name="f.inferior" horiz-adv-x="246" 
d="M71 114h-50v73h50v37q0 138 146 138q17 0 39.5 -2.5t30.5 -2.5l-10 -81q-18 16 -57 16q-58 0 -58 -70v-35h76v-79q-24 6 -76 6v-211q0 -71 18 -89h-126q17 19 17 89v211z" />
    <glyph glyph-name="g.inferior" horiz-adv-x="396" 
d="M374 118q-29 19 -70 19v-5q27 -29 27 -70q0 -63 -39 -96.5t-105 -33.5q-10 0 -30 2q-9 -11 -9 -21q0 -17 15.5 -22t60.5 -5q148 0 148 -108q0 -58 -47.5 -87t-131.5 -29q-167 0 -167 101q0 29 18.5 53t46.5 34q-13 18 -13 44q0 35 30 54q-70 34 -70 115q0 64 42.5 99
t106.5 35q35 0 67 -13h38q49 0 82 10v-76zM187 -12q28 0 45.5 19t17.5 56q0 35 -17.5 53.5t-45.5 18.5t-45.5 -18t-17.5 -54q0 -38 17.5 -56.5t45.5 -18.5zM211 -186q-49 0 -77 9q-30 -19 -30 -50q0 -51 89 -51q95 0 95 51q0 22 -18.5 31.5t-58.5 9.5z" />
    <glyph glyph-name="h.inferior" horiz-adv-x="432" 
d="M41 352h115q-7 -29 -7 -85v-77q0 -33 -5 -45l5 -1q17 22 47 37.5t64 15.5q119 0 119 -142v-145q0 -74 17 -96h-120q12 23 12 96v134q0 38 -12.5 56t-41.5 18q-49 0 -85 -53v-155q0 -73 12 -96h-120q17 23 17 96v345q0 74 -17 97z" />
    <glyph glyph-name="i.inferior" horiz-adv-x="206" 
d="M103 253q-56 0 -56 49q0 50 56 50t56 -50q0 -49 -56 -49zM40 -186q17 21 17 96v182q0 75 -17 93h115q-7 -24 -7 -93v-182q0 -73 17 -96h-125z" />
    <glyph glyph-name="j.inferior" horiz-adv-x="207" 
d="M106 250q-55 0 -55 49t55 49q27 0 41 -13.5t14 -35.5q0 -49 -55 -49zM27 -338q-17 0 -40 3t-30 3l18 80q17 -14 44 -14q24 0 33 17t9 50v288q0 69 -17 95h117q-9 -30 -9 -95v-286q0 -69 -27.5 -105t-97.5 -36z" />
    <glyph glyph-name="k.inferior" horiz-adv-x="411" 
d="M41 352h114q-6 -24 -6 -97v-195q0 -27 -6 -47h6l86 110q18 23 25 37t4 28h132q-36 -26 -86 -88l-55 -66l81 -122q50 -75 77 -98h-133q3 31 -26 76l-53 82l-52 -63v-9q0 -63 12 -86h-120q17 23 17 96v345q0 74 -17 97z" />
    <glyph glyph-name="l.inferior" horiz-adv-x="206" 
d="M41 -186q17 23 17 96v345q0 73 -17 97h116q-8 -28 -8 -97v-345q0 -74 17 -96h-125z" />
    <glyph glyph-name="m.inferior" horiz-adv-x="647" 
d="M40 188h104l-3 -49l6 -1q45 59 111 59q73 0 101 -65q49 65 120 65q115 0 115 -142v-145q0 -73 17 -96h-120q12 23 12 96v131q0 78 -51 78q-41 0 -80 -50v-159q0 -73 12 -96h-115q12 25 12 96v131q0 78 -53 78q-40 0 -80 -50v-159q0 -72 12 -96h-120q17 22 17 96v182
q0 74 -17 96z" />
    <glyph glyph-name="n.inferior" horiz-adv-x="432" 
d="M40 189h103q0 -34 -2 -48h5q47 56 114 56q56 0 87.5 -35.5t31.5 -103.5v-147q0 -74 17 -97h-120q12 27 12 97v135q0 72 -56 72q-48 0 -84 -55v-152q0 -71 13 -97h-121q17 22 17 97v181q0 76 -17 97z" />
    <glyph glyph-name="o.inferior" horiz-adv-x="413" 
d="M207 -195q-81 0 -129 49t-48 146q0 99 48 148t129 49q80 0 128 -49t48 -148q0 -97 -48 -146t-128 -49zM207 -119q84 0 84 119q0 121 -84 121t-84 -121q0 -119 84 -119z" />
    <glyph glyph-name="p.inferior" horiz-adv-x="423" 
d="M148 -162v-72q0 -69 18 -96h-126q17 26 17 96v326q0 70 -17 96h105l-2 -36h5q41 45 105 45q68 0 105.5 -50.5t37.5 -139.5q0 -97 -38.5 -149.5t-105.5 -52.5q-66 0 -104 33zM227 -119q75 0 75 124q0 115 -75 115q-45 0 -79 -43v-156q32 -40 79 -40z" />
    <glyph glyph-name="q.inferior" horiz-adv-x="422" 
d="M178 -195q-67 0 -107.5 50t-40.5 145q0 96 42 146.5t108 50.5q64 0 98 -34h6q-4 14 -4 25h98q-9 -30 -9 -96v-326q0 -68 17 -96h-126q18 28 18 88v41q0 25 5 48h-5q-39 -42 -100 -42zM200 -119q22 0 43.5 14t34.5 34v151q-31 40 -78 40q-34 0 -55 -29t-21 -88
q0 -122 76 -122z" />
    <glyph glyph-name="r.inferior" horiz-adv-x="294" 
d="M40 187h102q1 -31 -1 -63h6q12 32 40 52.5t60 20.5q9 0 23 -2t20 -1l-18 -93q-14 15 -36 15q-26 0 -51.5 -24t-36.5 -63v-119q0 -73 17 -96h-125q17 23 17 96v182q0 75 -17 95z" />
    <glyph glyph-name="s.inferior" horiz-adv-x="332" 
d="M163 -195q-34 0 -80.5 11t-59.5 11l33 93q16 -20 44.5 -33t59.5 -13q60 0 60 44q0 30 -58 48l-26 8q-96 28 -96 111q0 53 36 82.5t97 29.5q26 0 67.5 -11t54.5 -11l-33 -83q-29 36 -81 36q-55 0 -55 -40q0 -32 50 -49l31 -10q99 -32 99 -107q0 -53 -37.5 -85t-105.5 -32z
" />
    <glyph glyph-name="t.inferior" horiz-adv-x="281" 
d="M187 -195q-117 0 -117 126v186h-52v63q83 20 144 84v-77h94v-77q-25 7 -94 7v-175q0 -32 10.5 -48.5t37.5 -16.5t42 20l16 -84q-7 0 -34 -4t-47 -4z" />
    <glyph glyph-name="u.inferior" horiz-adv-x="427" 
d="M166 -195q-114 0 -114 145v142q0 72 -19 95h111v-225q0 -79 51 -79q24 0 47.5 17t37.5 45v147q0 70 -18 95h109v-277q0 -70 17 -96h-105q0 32 3 51h-6q-37 -60 -114 -60z" />
    <glyph glyph-name="v.inferior" horiz-adv-x="403" 
d="M7 187h124q-9 -24 7 -82l41 -129q15 -52 23 -90h6q17 69 24 90l40 129q17 57 6 82h118q-21 -29 -47 -107l-52 -155q-28 -80 -21 -111h-146q6 27 -22 111l-54 155q-28 82 -47 107z" />
    <glyph glyph-name="w.inferior" horiz-adv-x="575" 
d="M460 187h105q-20 -30 -34 -89l-46 -187q-16 -67 -11 -97h-132q3 33 -12 90l-42 166l-43 -166q-13 -61 -10 -90h-132q6 32 -11 97l-49 188q-21 70 -33 88h114q-8 -26 4 -78l46 -206l54 210q13 51 9 74h109q-2 -26 10 -75l53 -207l48 204q11 51 3 78z" />
    <glyph glyph-name="x.inferior" horiz-adv-x="382" 
d="M374 -186h-128q7 21 -13 55l-51 83l-47 -85q-18 -35 -12 -53h-115q20 19 47 65l78 132l-69 113q-30 49 -48 63h125q-7 -21 12 -55l46 -78l42 81q15 32 11 52h112q-17 -16 -44 -63l-73 -126l74 -117q33 -51 53 -67z" />
    <glyph glyph-name="y.inferior" horiz-adv-x="395" 
d="M92 -335q-9 0 -28.5 1.5t-28.5 0.5l20 93q15 -25 47 -25q46 0 65 63l5 16l-12 2l-106 273q-28 73 -48 98h125q-13 -24 5 -75l71 -204h4l60 204q15 50 4 75h114q-16 -24 -42 -98l-96 -290q-22 -67 -59.5 -100.5t-99.5 -33.5z" />
    <glyph glyph-name="z.inferior" horiz-adv-x="345" 
d="M23 -126q19 11 45 51l129 191h-72q-55 0 -82 -19v96q35 -6 89 -6h173l7 -59q-18 -15 -37 -45l-130 -197h85q62 0 92 18v-96q-36 6 -98 6h-192z" />
    <glyph glyph-name="a.ordn" horiz-adv-x="392" 
d="M149 276q-54 0 -85 30t-31 83q0 116 177 116h40v23q0 67 -66 67q-67 0 -106 -42l-28 83q5 1 55.5 16.5t87.5 15.5q147 0 147 -144v-142q0 -74 18 -97h-101l3 42h-5q-15 -22 -43.5 -36.5t-62.5 -14.5zM170 344q23 0 45.5 15.5t34.5 40.5v47h-40q-89 0 -89 -52
q0 -51 49 -51z" />
    <glyph glyph-name="b.ordn" horiz-adv-x="425" 
d="M253 276q-65 0 -104 35h-6v-26h-100q15 28 15 97v345q0 70 -17 96h115q-7 -30 -7 -96v-105q38 46 105 46q68 0 105 -50.5t37 -139.5q0 -97 -38 -149.5t-105 -52.5zM227 353q76 0 76 124q0 115 -75 115q-21 0 -43 -12.5t-36 -31.5v-155q32 -40 78 -40z" />
    <glyph glyph-name="c.ordn" horiz-adv-x="351" 
d="M204 276q-78 0 -126 47t-48 149t48.5 149t125.5 47q25 0 48 -5.5t42.5 -13t26.5 -8.5l-37 -84q-28 35 -70 35q-90 0 -90 -120t90 -120q53 0 79 38l37 -86q-7 -2 -30 -9.5t-47.5 -13t-48.5 -5.5z" />
    <glyph glyph-name="d.ordn" horiz-adv-x="427" 
d="M179 276q-67 0 -108 50t-41 146t42 146t109 50q59 0 97 -34v93q0 73 -17 96h114q-6 -25 -6 -96v-345q0 -74 17 -97h-104l1 34h-5q-36 -43 -99 -43zM203 353q20 0 41.5 13t33.5 32v154q-33 40 -74 40q-37 0 -58.5 -29.5t-21.5 -88.5q0 -121 79 -121z" />
    <glyph glyph-name="e.ordn" horiz-adv-x="387" 
d="M215 276q-86 0 -135.5 49t-49.5 147q0 96 47.5 146t122.5 50q77 0 116.5 -46t39.5 -128q0 -27 -4 -43h-232q3 -52 27 -77t74 -25q63 0 96 31l27 -80q-3 -1 -31 -8.5t-51 -11.5t-47 -4zM273 511q0 40 -18.5 63t-53.5 23q-37 0 -58 -23.5t-24 -62.5h154z" />
    <glyph glyph-name="eacute.ordn" horiz-adv-x="387" 
d="M158 761q62 33 122 105l43 -56q-50 -56 -142 -89zM215 276q-86 0 -135.5 49t-49.5 147q0 96 47.5 146t122.5 50q77 0 116.5 -46t39.5 -128q0 -27 -4 -43h-232q3 -52 27 -77t74 -25q63 0 96 31l27 -80q-3 -1 -31 -8.5t-51 -11.5t-47 -4zM273 511q0 40 -18.5 63t-53.5 23
q-37 0 -58 -23.5t-24 -62.5h154z" />
    <glyph glyph-name="egrave.ordn" horiz-adv-x="387" 
d="M281 761l-24 -40q-89 32 -142 89l44 56q57 -70 122 -105zM215 276q-86 0 -135.5 49t-49.5 147q0 96 47.5 146t122.5 50q77 0 116.5 -46t39.5 -128q0 -27 -4 -43h-232q3 -52 27 -77t74 -25q63 0 96 31l27 -80q-3 -1 -31 -8.5t-51 -11.5t-47 -4zM273 511q0 40 -18.5 63
t-53.5 23q-37 0 -58 -23.5t-24 -62.5h154z" />
    <glyph glyph-name="f.ordn" horiz-adv-x="246" 
d="M71 586h-50v73h50v36q0 138 146 138q17 0 39.5 -2.5t30.5 -2.5l-10 -81q-17 17 -57 17q-58 0 -58 -70v-35h76v-80q-22 7 -76 7v-212q0 -71 18 -89h-126q17 19 17 89v212z" />
    <glyph glyph-name="g.ordn" horiz-adv-x="392" 
d="M374 590q-29 19 -70 19v-6q27 -27 27 -70q0 -63 -39 -96t-105 -33q-11 0 -29 2q-10 -10 -10 -21q0 -18 15.5 -23t60.5 -5q148 0 148 -107q0 -58 -47.5 -87.5t-131.5 -29.5q-167 0 -167 101q0 30 18.5 54t47.5 33q-14 17 -14 44q0 35 31 55q-71 32 -71 114q0 64 42.5 99
t106.5 35q35 0 67 -13l38 1q49 0 82 10v-76zM187 459q28 0 45.5 19t17.5 56q0 35 -17.5 53.5t-45.5 18.5t-45.5 -18t-17.5 -54q0 -37 18 -56t45 -19zM211 286q-48 0 -76 9q-31 -18 -31 -51q0 -51 89 -51q95 0 95 52q0 41 -77 41z" />
    <glyph glyph-name="h.ordn" horiz-adv-x="432" 
d="M41 823h115q-7 -29 -7 -85v-77q0 -32 -5 -45h5q17 22 47 37t64 15q119 0 119 -141v-145q0 -74 17 -97h-120q12 24 12 97v133q0 39 -12.5 57t-41.5 18q-48 0 -85 -54v-154q0 -73 12 -97h-120q17 23 17 97v345q0 74 -17 96z" />
    <glyph glyph-name="i.ordn" horiz-adv-x="208" 
d="M103 725q-56 0 -56 49t56 49t56 -49t-56 -49zM40 285q17 22 17 97v182q0 74 -17 92h115q-7 -24 -7 -92v-182q0 -73 17 -97h-125z" />
    <glyph glyph-name="j.ordn" horiz-adv-x="207" 
d="M106 725q-55 0 -55 49t55 49q27 0 41 -13.5t14 -35.5q0 -49 -55 -49zM27 137q-17 0 -40 3t-30 3l18 80q17 -14 44 -14q24 0 33 17t9 50v288q0 69 -17 95h117q-9 -30 -9 -95v-286q0 -69 -27.5 -105t-97.5 -36z" />
    <glyph glyph-name="k.ordn" horiz-adv-x="412" 
d="M41 823h114q-6 -24 -6 -96v-195q0 -26 -6 -48h6l86 110q13 17 18.5 25.5t9 19t1.5 20.5h132q-33 -22 -86 -87l-55 -66l81 -123q48 -72 77 -98h-133q3 31 -26 76l-53 82l-52 -63v-8q0 -64 12 -87h-120q17 23 17 97v345q0 73 -17 96z" />
    <glyph glyph-name="l.ordn" horiz-adv-x="207" 
d="M41 285q17 23 17 97v345q0 73 -17 96h116q-8 -27 -8 -96v-345q0 -74 17 -97h-125z" />
    <glyph glyph-name="m.ordn" horiz-adv-x="647" 
d="M40 659h104l-3 -49l6 -1q44 59 111 59q74 0 101 -64q48 64 120 64q115 0 115 -142v-144q0 -73 17 -97h-120q12 24 12 97v131q0 78 -51 78q-41 0 -80 -50v-159q0 -73 12 -97h-115q12 26 12 97v131q0 78 -53 78q-39 0 -80 -50v-159q0 -73 12 -97h-120q17 23 17 97v182
q0 75 -17 95z" />
    <glyph glyph-name="n.ordn" horiz-adv-x="432" 
d="M40 660h103q0 -33 -2 -47l5 -1q45 56 114 56q56 0 87.5 -35t31.5 -103v-148q0 -74 17 -97h-120q12 27 12 97v136q0 72 -56 72q-48 0 -84 -56v-152q0 -71 13 -97h-121q17 22 17 97v182q0 75 -17 96z" />
    <glyph glyph-name="o.ordn" horiz-adv-x="413" 
d="M207 276q-81 0 -129 49t-48 147q0 99 48 147.5t129 48.5q80 0 128 -49t48 -147q0 -97 -48 -146.5t-128 -49.5zM207 352q84 0 84 120t-84 120t-84 -120t84 -120z" />
    <glyph glyph-name="p.ordn" horiz-adv-x="425" 
d="M148 310v-72q0 -70 18 -96h-126q17 26 17 96v326q0 70 -17 95h105l-2 -36h5q41 45 105 45q68 0 105.5 -50.5t37.5 -139.5q0 -97 -38.5 -149.5t-105.5 -52.5q-64 0 -104 34zM227 353q75 0 75 124q0 115 -75 115q-21 0 -42.5 -12.5t-36.5 -31.5v-156q33 -39 79 -39z" />
    <glyph glyph-name="q.ordn" horiz-adv-x="422" 
d="M178 276q-67 0 -107.5 50t-40.5 146t42 146t108 50q64 0 98 -34h6q-4 16 -4 25h98q-9 -30 -9 -95v-326q0 -69 17 -96h-126q18 28 18 88v40q0 26 5 49h-5q-38 -43 -100 -43zM200 353q22 0 43.5 13.5t34.5 33.5v152q-33 40 -78 40q-34 0 -55 -29.5t-21 -88.5
q0 -121 76 -121z" />
    <glyph glyph-name="r.ordn" horiz-adv-x="294" 
d="M40 659h102q1 -31 -1 -64h6q12 32 40 52.5t60 20.5q10 0 24 -1.5t19 -1.5l-18 -93q-14 16 -36 16q-26 0 -51.5 -24.5t-36.5 -63.5v-118q0 -73 17 -97h-125q17 23 17 97v182q0 74 -17 95z" />
    <glyph glyph-name="s.ordn" horiz-adv-x="332" 
d="M163 276q-34 0 -80 11t-60 11l33 94q16 -20 44.5 -33.5t59.5 -13.5q60 0 60 45q0 31 -58 47l-26 8q-96 28 -96 112q0 52 36 81.5t97 29.5q25 0 66.5 -10.5t55.5 -10.5l-33 -83q-28 35 -81 35q-55 0 -55 -39q0 -33 50 -49l31 -10q99 -32 99 -108q0 -53 -37.5 -85
t-105.5 -32z" />
    <glyph glyph-name="t.ordn" horiz-adv-x="284" 
d="M187 276q-117 0 -117 126v187h-52v63q83 20 144 84v-77h94v-77q-25 7 -94 7v-175q0 -66 48 -66q27 0 42 21l16 -85q-9 0 -35.5 -4t-45.5 -4z" />
    <glyph glyph-name="u.ordn" horiz-adv-x="429" 
d="M166 276q-114 0 -114 146v142q0 70 -19 95h111v-226q0 -79 51 -79q24 0 47.5 17t37.5 46v147q0 70 -18 95h109v-277q0 -70 17 -97h-105q0 31 3 51h-6q-37 -60 -114 -60z" />
    <glyph glyph-name="v.ordn" horiz-adv-x="403" 
d="M7 659h124q-9 -25 7 -82l41 -129q15 -49 23 -90h6q17 69 24 90l40 129q17 56 6 82h118q-20 -28 -47 -108l-52 -155q-28 -80 -21 -111h-146q6 28 -22 111l-54 155q-28 82 -47 108z" />
    <glyph glyph-name="w.ordn" horiz-adv-x="575" 
d="M460 659h105q-20 -32 -34 -89l-46 -188q-16 -66 -11 -97h-132q3 33 -12 90l-42 167l-43 -167q-13 -60 -10 -90h-132q6 33 -11 97l-49 188q-21 72 -33 89h114q-7 -27 4 -78l46 -206l54 210q13 51 9 74h109q-2 -26 10 -75l53 -207l48 204q11 51 3 78z" />
    <glyph glyph-name="x.ordn" horiz-adv-x="382" 
d="M374 285h-128q7 23 -13 56l-51 83l-47 -86q-18 -33 -12 -53h-115q21 19 47 66l78 132l-69 113q-31 49 -48 63h125q-8 -21 12 -55l46 -78l42 81q15 32 11 52h112q-17 -17 -44 -63l-73 -127l74 -116q33 -51 53 -68z" />
    <glyph glyph-name="y.ordn" horiz-adv-x="395" 
d="M92 137q-6 0 -30.5 1.5t-26.5 -0.5l20 94q15 -25 47 -25q46 0 65 62l5 16l-12 2l-106 273q-28 75 -48 99h125q-13 -24 5 -76l71 -203h4l60 203q15 51 4 76h114q-16 -24 -42 -98l-96 -290q-22 -68 -59 -101t-100 -33z" />
    <glyph glyph-name="z.ordn" horiz-adv-x="348" 
d="M23 345q21 14 45 51l129 191h-72q-57 0 -82 -19v97q35 -6 89 -6h173l7 -59q-16 -13 -37 -45l-130 -197h85q62 0 92 18v-96q-37 5 -98 5h-192z" />
    <glyph glyph-name="a.ss01" horiz-adv-x="550" 
d="M236 -12q-87 0 -141.5 65.5t-54.5 191.5q0 124 57 191t143 67q44 0 77 -15t49 -35q-2 23 -9 38h123l-2 -366q0 -94 20 -125h-127l3 45h-8q-49 -57 -130 -57zM263 84q29 0 58.5 19.5t44.5 46.5v199q-16 23 -44.5 40.5t-56.5 17.5q-49 0 -79 -40t-30 -120q0 -163 107 -163z
" />
    <glyph glyph-name="aacute.ss01" horiz-adv-x="550" 
d="M239 623q81 40 158 133l57 -72q-76 -76 -186 -113zM236 -12q-87 0 -141.5 65.5t-54.5 191.5q0 124 57 191t143 67q44 0 77 -15t49 -35q-2 23 -9 38h123l-2 -366q0 -94 20 -125h-127l3 45h-8q-49 -57 -130 -57zM263 84q29 0 58.5 19.5t44.5 46.5v199q-16 23 -44.5 40.5
t-56.5 17.5q-49 0 -79 -40t-30 -120q0 -163 107 -163z" />
    <glyph glyph-name="abreve.ss01" horiz-adv-x="550" 
d="M291 581q-65 0 -96 38.5t-29 107.5h57q2 -36 19.5 -57t48.5 -21t49 20.5t20 57.5h56q3 -69 -28.5 -107.5t-96.5 -38.5zM236 -12q-87 0 -141.5 65.5t-54.5 191.5q0 124 57 191t143 67q44 0 77 -15t49 -35q-2 23 -9 38h123l-2 -366q0 -94 20 -125h-127l3 45h-8
q-49 -57 -130 -57zM263 84q29 0 58.5 19.5t44.5 46.5v199q-16 23 -44.5 40.5t-56.5 17.5q-49 0 -79 -40t-30 -120q0 -163 107 -163z" />
    <glyph glyph-name="acircumflex.ss01" horiz-adv-x="550" 
d="M321 647q-48 -45 -122 -65l-24 25q36 24 54 85l50 14q27 -30 54 -49zM337 661l6 -11l-10 7zM406 605q-44 15 -63 45q21 -13 41 -21zM498 0h-127l3 45h-8q-49 -57 -130 -57q-87 0 -141.5 65.5t-54.5 191.5q0 124 57 191t143 67q44 0 77 -15t49 -35q-2 23 -9 38h123
l-2 -366q0 -94 20 -125zM366 150v199q-16 23 -44.5 40.5t-56.5 17.5q-49 0 -79 -40t-30 -120q0 -163 107 -163q29 0 58.5 19.5t44.5 46.5z" />
    <glyph glyph-name="adieresis.ss01" horiz-adv-x="550" 
d="M206 578q-25 0 -42 17t-17 42t17 42t42 17t42 -17t17 -42t-17 -42t-42 -17zM379 578q-25 0 -42 17t-17 42t17 42t42 17q26 0 42.5 -17t16.5 -42t-16.5 -42t-42.5 -17zM236 -12q-87 0 -141.5 65.5t-54.5 191.5q0 124 57 191t143 67q44 0 77 -15t49 -35q-2 23 -9 38h123
l-2 -366q0 -94 20 -125h-127l3 45h-8q-49 -57 -130 -57zM263 84q29 0 58.5 19.5t44.5 46.5v199q-16 23 -44.5 40.5t-56.5 17.5q-49 0 -79 -40t-30 -120q0 -163 107 -163z" />
    <glyph glyph-name="agrave.ss01" horiz-adv-x="550" 
d="M357 638l-26 -58q-118 25 -198 101l51 80q85 -91 173 -123zM236 -12q-87 0 -141.5 65.5t-54.5 191.5q0 124 57 191t143 67q44 0 77 -15t49 -35q-2 23 -9 38h123l-2 -366q0 -94 20 -125h-127l3 45h-8q-49 -57 -130 -57zM263 84q29 0 58.5 19.5t44.5 46.5v199
q-16 23 -44.5 40.5t-56.5 17.5q-49 0 -79 -40t-30 -120q0 -163 107 -163z" />
    <glyph glyph-name="amacron.ss01" horiz-adv-x="550" 
d="M158 637l204 25l64 -43l-205 -26zM236 -12q-87 0 -141.5 65.5t-54.5 191.5q0 124 57 191t143 67q44 0 77 -15t49 -35q-2 23 -9 38h123l-2 -366q0 -94 20 -125h-127l3 45h-8q-49 -57 -130 -57zM263 84q29 0 58.5 19.5t44.5 46.5v199q-16 23 -44.5 40.5t-56.5 17.5
q-49 0 -79 -40t-30 -120q0 -163 107 -163z" />
    <glyph glyph-name="aogonek.ss01" horiz-adv-x="550" 
d="M490 -121l25 -48q-34 -34 -84 -34q-39 0 -64 20.5t-25 61.5q0 36 24 68.5t65 52.5h-60l3 45h-8q-49 -57 -130 -57q-87 0 -141.5 65.5t-54.5 191.5q0 124 57 191t143 67q44 0 77 -15t49 -35q-2 23 -9 38h123l-2 -366q0 -94 20 -125q-35 -18 -56.5 -46t-21.5 -55
q0 -38 35 -38q20 0 35 18zM366 150v199q-16 23 -44.5 40.5t-56.5 17.5q-49 0 -79 -40t-30 -120q0 -163 107 -163q29 0 58.5 19.5t44.5 46.5z" />
    <glyph glyph-name="aring.ss01" horiz-adv-x="550" 
d="M291 568q-53 0 -84 25.5t-31 66.5q0 40 31 65.5t84 25.5t84 -25.5t31 -65.5q0 -41 -31 -66.5t-84 -25.5zM291 617q23 0 37 11t14 32q0 20 -14 31t-37 11t-37.5 -11t-14.5 -31t14.5 -31.5t37.5 -11.5zM236 -12q-87 0 -141.5 65.5t-54.5 191.5q0 124 57 191t143 67
q44 0 77 -15t49 -35q-2 23 -9 38h123l-2 -366q0 -94 20 -125h-127l3 45h-8q-49 -57 -130 -57zM263 84q29 0 58.5 19.5t44.5 46.5v199q-16 23 -44.5 40.5t-56.5 17.5q-49 0 -79 -40t-30 -120q0 -163 107 -163z" />
    <glyph glyph-name="atilde.ss01" horiz-adv-x="550" 
d="M359 578q-28 0 -52 16t-43 31.5t-34 15.5q-20 0 -27.5 -17.5t3.5 -39.5l-87 4q11 61 39 94.5t66 33.5q36 0 74.5 -31.5t55.5 -31.5q20 0 27 17t-3 40l86 -5q-9 -60 -38 -93.5t-67 -33.5zM236 -12q-87 0 -141.5 65.5t-54.5 191.5q0 124 57 191t143 67q44 0 77 -15t49 -35
q-2 23 -9 38h123l-2 -366q0 -94 20 -125h-127l3 45h-8q-49 -57 -130 -57zM263 84q29 0 58.5 19.5t44.5 46.5v199q-16 23 -44.5 40.5t-56.5 17.5q-49 0 -79 -40t-30 -120q0 -163 107 -163z" />
    <glyph glyph-name="g.ss02" horiz-adv-x="542" 
d="M40 247q0 125 56.5 190.5t143.5 65.5q44 0 77 -15t49 -35q-2 23 -9 38h123l-2 -466q0 -50 -14 -89t-37 -63.5t-54.5 -40t-64 -22t-68.5 -6.5q-56 0 -106 14l-51 15l20 105q47 -44 133 -44q66 0 99 27.5t33 90.5v41q-21 -27 -56.5 -44.5t-75.5 -17.5q-86 0 -141 65
t-55 191zM156 250q0 -164 107 -164q29 0 59 20t44 47v196q-16 23 -44.5 40.5t-56.5 17.5q-50 0 -79.5 -38.5t-29.5 -118.5z" />
    <glyph glyph-name="gbreve.ss02" horiz-adv-x="542" 
d="M282 577q-65 0 -96 38.5t-29 107.5h57q2 -36 19.5 -57t48.5 -21t49 20.5t20 57.5h56q3 -69 -28.5 -107.5t-96.5 -38.5zM40 247q0 125 56.5 190.5t143.5 65.5q44 0 77 -15t49 -35q-2 23 -9 38h123l-2 -466q0 -50 -14 -89t-37 -63.5t-54.5 -40t-64 -22t-68.5 -6.5
q-56 0 -106 14l-51 15l20 105q47 -44 133 -44q66 0 99 27.5t33 90.5v41q-21 -27 -56.5 -44.5t-75.5 -17.5q-86 0 -141 65t-55 191zM156 250q0 -164 107 -164q29 0 59 20t44 47v196q-16 23 -44.5 40.5t-56.5 17.5q-50 0 -79.5 -38.5t-29.5 -118.5z" />
    <glyph glyph-name="uni0123.ss02" horiz-adv-x="542" 
d="M285 555q-28 0 -45 18t-17 52q0 92 100 123l16 -31q-56 -23 -60 -66h7q22 0 37 -12.5t15 -34.5q0 -21 -15 -35t-38 -14zM40 247q0 125 56.5 190.5t143.5 65.5q44 0 77 -15t49 -35q-2 23 -9 38h123l-2 -466q0 -50 -14 -89t-37 -63.5t-54.5 -40t-64 -22t-68.5 -6.5
q-56 0 -106 14l-51 15l20 105q47 -44 133 -44q66 0 99 27.5t33 90.5v41q-21 -27 -56.5 -44.5t-75.5 -17.5q-86 0 -141 65t-55 191zM156 250q0 -164 107 -164q29 0 59 20t44 47v196q-16 23 -44.5 40.5t-56.5 17.5q-50 0 -79.5 -38.5t-29.5 -118.5z" />
    <glyph glyph-name="gdotaccent.ss02" horiz-adv-x="542" 
d="M282 572q-66 0 -66 62q0 28 16.5 45t49.5 17t49.5 -17t16.5 -45q0 -62 -66 -62zM40 247q0 125 56.5 190.5t143.5 65.5q44 0 77 -15t49 -35q-2 23 -9 38h123l-2 -466q0 -50 -14 -89t-37 -63.5t-54.5 -40t-64 -22t-68.5 -6.5q-56 0 -106 14l-51 15l20 105q47 -44 133 -44
q66 0 99 27.5t33 90.5v41q-21 -27 -56.5 -44.5t-75.5 -17.5q-86 0 -141 65t-55 191zM156 250q0 -164 107 -164q29 0 59 20t44 47v196q-16 23 -44.5 40.5t-56.5 17.5q-50 0 -79.5 -38.5t-29.5 -118.5z" />
    <glyph glyph-name="y.ss03" horiz-adv-x="544" 
d="M47 491h135v-299q0 -106 70 -106q33 0 65.5 25t53.5 66v189q0 87 -23 125h135v-453q0 -62 -21 -108.5t-57 -73t-79.5 -39.5t-92.5 -13q-41 0 -76 7.5t-56 15.5t-26 8l20 105q49 -46 133 -46q144 0 144 130v50q-21 -38 -60 -61t-92 -23q-151 0 -151 191v185q0 88 -22 125z
" />
    <glyph glyph-name="yacute.ss03" horiz-adv-x="544" 
d="M220 624q81 40 158 133l57 -72q-76 -76 -186 -113zM47 491h135v-299q0 -106 70 -106q33 0 65.5 25t53.5 66v189q0 87 -23 125h135v-453q0 -62 -21 -108.5t-57 -73t-79.5 -39.5t-92.5 -13q-41 0 -76 7.5t-56 15.5t-26 8l20 105q49 -46 133 -46q144 0 144 130v50
q-21 -38 -60 -61t-92 -23q-151 0 -151 191v185q0 88 -22 125z" />
    <glyph glyph-name="ycircumflex.ss03" horiz-adv-x="544" 
d="M301 648q-48 -45 -122 -65l-24 25q36 24 54 85l50 14q27 -30 54 -49zM317 662l6 -11l-10 7zM386 606q-44 15 -63 45q21 -13 41 -21zM348 491h135v-453q0 -62 -21 -108.5t-57 -73t-79.5 -39.5t-92.5 -13q-41 0 -76 7.5t-56 15.5t-26 8l20 105q49 -46 133 -46
q144 0 144 130v50q-21 -38 -60 -61t-92 -23q-151 0 -151 191v185q0 88 -22 125h135v-299q0 -106 70 -106q33 0 65.5 25t53.5 66v189q0 87 -23 125z" />
    <glyph glyph-name="ydieresis.ss03" horiz-adv-x="544" 
d="M186 579q-25 0 -42 17t-17 42t17 42t42 17t42 -17t17 -42t-17 -42t-42 -17zM359 579q-25 0 -42 17t-17 42t17 42t42 17q26 0 42.5 -17t16.5 -42t-16.5 -42t-42.5 -17zM47 491h135v-299q0 -106 70 -106q33 0 65.5 25t53.5 66v189q0 87 -23 125h135v-453q0 -62 -21 -108.5
t-57 -73t-79.5 -39.5t-92.5 -13q-41 0 -76 7.5t-56 15.5t-26 8l20 105q49 -46 133 -46q144 0 144 130v50q-21 -38 -60 -61t-92 -23q-151 0 -151 191v185q0 88 -22 125z" />
    <glyph glyph-name="ygrave.ss03" horiz-adv-x="544" 
d="M337 639l-26 -58q-118 25 -198 101l51 80q85 -91 173 -123zM47 491h135v-299q0 -106 70 -106q33 0 65.5 25t53.5 66v189q0 87 -23 125h135v-453q0 -62 -21 -108.5t-57 -73t-79.5 -39.5t-92.5 -13q-41 0 -76 7.5t-56 15.5t-26 8l20 105q49 -46 133 -46q144 0 144 130v50
q-21 -38 -60 -61t-92 -23q-151 0 -151 191v185q0 88 -22 125z" />
    <glyph glyph-name="a.superior" horiz-adv-x="392" 
d="M149 450q-54 0 -85 30t-31 83q0 116 177 116h40v23q0 67 -66 67q-67 0 -106 -42l-28 83q8 1 57 16.5t86 15.5q147 0 147 -144v-142q0 -74 18 -97h-101l3 42h-5q-15 -22 -43.5 -36.5t-62.5 -14.5zM170 518q23 0 45.5 15.5t34.5 40.5v47h-40q-89 0 -89 -52q0 -51 49 -51z
" />
    <glyph glyph-name="b.superior" horiz-adv-x="425" 
d="M253 450q-65 0 -104 35h-6v-26h-100q15 28 15 97v345q0 70 -17 96h115q-7 -30 -7 -96v-105q38 46 105 46q68 0 105 -50.5t37 -139.5q0 -97 -38 -149.5t-105 -52.5zM227 526q76 0 76 125q0 115 -75 115q-21 0 -43 -12.5t-36 -31.5v-155q32 -41 78 -41z" />
    <glyph glyph-name="c.superior" horiz-adv-x="351" 
d="M204 450q-78 0 -126 47t-48 149t48.5 149t125.5 47q25 0 48 -5.5t42.5 -13t26.5 -8.5l-37 -85q-27 36 -70 36q-90 0 -90 -120t90 -120q53 0 79 38l37 -86q-7 -2 -30 -9.5t-47.5 -13t-48.5 -5.5z" />
    <glyph glyph-name="d.superior" horiz-adv-x="424" 
d="M179 450q-67 0 -108 50t-41 146q0 95 42 145.5t109 50.5q59 0 97 -34v93q0 72 -17 96h114q-6 -25 -6 -96v-345q0 -74 17 -97h-104l1 34h-5q-36 -43 -99 -43zM203 526q20 0 41.5 13.5t33.5 32.5v154q-33 40 -74 40q-37 0 -58.5 -29.5t-21.5 -88.5q0 -122 79 -122z" />
    <glyph glyph-name="e.superior" horiz-adv-x="387" 
d="M215 450q-86 0 -135.5 49t-49.5 147q0 96 47.5 146t122.5 50q77 0 116.5 -46t39.5 -128q0 -27 -4 -43h-232q3 -52 27 -77t74 -25q63 0 96 31l27 -80q-90 -24 -129 -24zM273 684q0 41 -18.5 64t-53.5 23q-37 0 -58 -24t-24 -63h154z" />
    <glyph glyph-name="f.superior" horiz-adv-x="246" 
d="M71 760h-50v73h50v36q0 138 146 138q17 0 39.5 -2.5t30.5 -2.5l-10 -81q-17 17 -57 17q-58 0 -58 -70v-35h76v-80q-22 7 -76 7v-212q0 -71 18 -89h-126q17 19 17 89v212z" />
    <glyph glyph-name="g.superior" horiz-adv-x="396" 
d="M374 764q-29 19 -70 19v-6q27 -27 27 -70q0 -63 -39 -96t-105 -33q-11 0 -29 2q-10 -10 -10 -21q0 -18 15.5 -23t60.5 -5q148 0 148 -108q0 -58 -47.5 -87t-131.5 -29q-167 0 -167 101q0 30 18.5 54t47.5 33q-14 17 -14 44q0 35 31 55q-71 32 -71 114q0 64 42.5 99
t106.5 35q35 0 67 -13h38q50 1 82 11v-76zM187 633q28 0 45.5 19t17.5 56q0 35 -17.5 53.5t-45.5 18.5t-45.5 -18t-17.5 -54q0 -37 18 -56t45 -19zM211 459q-49 0 -77 9q-30 -17 -30 -50q0 -51 89 -51q95 0 95 52q0 40 -77 40z" />
    <glyph glyph-name="h.superior" horiz-adv-x="432" 
d="M41 997h115q-7 -29 -7 -85v-77q0 -32 -5 -45h5q17 21 47 36.5t64 15.5q119 0 119 -141v-145q0 -74 17 -97h-120q12 24 12 97v133q0 39 -12.5 57t-41.5 18q-48 0 -85 -54v-154q0 -73 12 -97h-120q17 23 17 97v345q0 73 -17 96z" />
    <glyph glyph-name="i.superior" horiz-adv-x="206" 
d="M103 898q-56 0 -56 50q0 49 56 49t56 -49q0 -50 -56 -50zM40 459q17 21 17 97v181q0 75 -17 93h115q-7 -24 -7 -93v-181q0 -73 17 -97h-125z" />
    <glyph glyph-name="j.superior" horiz-adv-x="207" 
d="M106 895q-55 0 -55 49q0 50 55 50t55 -50q0 -22 -14 -35.5t-41 -13.5zM27 308q-16 0 -38.5 2.5t-31.5 2.5l18 81q15 -14 44 -14q24 0 33 17t9 50v287q0 69 -17 96h117q-9 -31 -9 -96v-285q0 -70 -27 -105.5t-98 -35.5z" />
    <glyph glyph-name="k.superior" horiz-adv-x="411" 
d="M41 997h114q-6 -24 -6 -96v-196q0 -25 -6 -47h6l86 110q13 17 18.5 25.5t9 19t1.5 20.5h132q-35 -25 -86 -87l-55 -66l81 -123q50 -75 77 -98h-133q3 31 -26 76l-53 82l-52 -63v-8q0 -64 12 -87h-120q17 23 17 97v345q0 73 -17 96z" />
    <glyph glyph-name="l.superior" horiz-adv-x="206" 
d="M41 459q17 23 17 97v345q0 73 -17 96h116q-8 -27 -8 -96v-345q0 -74 17 -97h-125z" />
    <glyph glyph-name="m.superior" horiz-adv-x="647" 
d="M40 833h104l-3 -49l6 -1q44 59 111 59q73 0 101 -64q49 64 120 64q115 0 115 -142v-144q0 -74 17 -97h-120q12 23 12 97v131q0 78 -51 78q-40 0 -80 -50v-159q0 -74 12 -97h-115q12 26 12 97v131q0 78 -53 78q-39 0 -80 -50v-159q0 -73 12 -97h-120q17 22 17 97v182
q0 75 -17 95z" />
    <glyph glyph-name="n.superior" horiz-adv-x="432" 
d="M40 834h103q0 -33 -2 -47l5 -1q47 56 114 56q57 0 88 -35t31 -104v-147q0 -74 17 -97h-120q12 27 12 97v136q0 72 -56 72q-48 0 -84 -56v-152q0 -71 13 -97h-121q17 22 17 97v182q0 75 -17 96z" />
    <glyph glyph-name="o.superior" horiz-adv-x="413" 
d="M207 450q-81 0 -129 49t-48 147t48 147t129 49q80 0 128 -49t48 -147q0 -97 -48 -146.5t-128 -49.5zM207 526q84 0 84 120t-84 120t-84 -120t84 -120z" />
    <glyph glyph-name="p.superior" horiz-adv-x="423" 
d="M148 484v-72q0 -70 18 -96h-126q17 26 17 96v326q0 69 -17 95h105l-2 -36h5q41 45 105 45q68 0 105.5 -50.5t37.5 -139.5q0 -97 -38.5 -149.5t-105.5 -52.5q-64 0 -104 34zM227 526q75 0 75 125q0 115 -75 115q-44 0 -79 -44v-156q33 -40 79 -40z" />
    <glyph glyph-name="q.superior" horiz-adv-x="422" 
d="M178 450q-67 0 -107.5 50t-40.5 146q0 95 42 145.5t108 50.5q64 0 98 -34h6q-4 16 -4 25h98q-9 -30 -9 -95v-326q0 -69 17 -96h-126q18 26 18 88v40q0 26 5 49h-5q-38 -43 -100 -43zM200 526q22 0 43.5 14t34.5 34v152q-33 40 -78 40q-34 0 -55 -29.5t-21 -88.5
q0 -122 76 -122z" />
    <glyph glyph-name="r.superior" horiz-adv-x="294" 
d="M40 833h102q1 -31 -1 -64h6q12 32 40 52.5t60 20.5q10 0 24 -1.5t19 -1.5l-18 -93q-14 15 -36 15q-26 0 -51.5 -24t-36.5 -63v-118q0 -73 17 -97h-125q17 23 17 97v181q0 75 -17 96z" />
    <glyph glyph-name="s.superior" horiz-adv-x="332" 
d="M163 450q-34 0 -80 11t-60 11l33 94q16 -20 44.5 -33.5t59.5 -13.5q60 0 60 44q0 32 -58 48l-26 8q-96 28 -96 111q0 53 36 82.5t97 29.5q25 0 66.5 -10.5t55.5 -10.5l-33 -84q-29 36 -81 36q-55 0 -55 -40q0 -32 50 -49l31 -9q99 -32 99 -108q0 -53 -37.5 -85
t-105.5 -32z" />
    <glyph glyph-name="t.superior" horiz-adv-x="281" 
d="M187 450q-117 0 -117 126v187h-52v63q83 20 144 84v-77h94v-78q-24 8 -94 8v-175q0 -66 48 -66q27 0 42 20l16 -84q-7 0 -34 -4t-47 -4z" />
    <glyph glyph-name="u.superior" horiz-adv-x="427" 
d="M166 450q-114 0 -114 146v141q0 71 -19 96h111v-226q0 -79 51 -79q24 0 47.5 17t37.5 46v146q0 71 -18 96h109v-277q0 -71 17 -97h-105q0 31 3 51h-6q-37 -60 -114 -60z" />
    <glyph glyph-name="v.superior" horiz-adv-x="403" 
d="M7 833h124q-9 -25 7 -83l41 -128q15 -49 23 -90h6q17 69 24 90l40 128q17 57 6 83h118q-20 -28 -47 -108l-52 -155q-28 -80 -21 -111h-146q6 28 -22 111l-54 155q-28 82 -47 108z" />
    <glyph glyph-name="w.superior" horiz-adv-x="575" 
d="M460 833h105q-20 -32 -34 -89l-46 -188q-16 -67 -11 -97h-132q3 33 -12 90l-42 167l-43 -167q-13 -60 -10 -90h-132q6 33 -11 97l-49 188q-21 71 -33 89h114q-7 -27 4 -78l46 -206l54 209q13 51 9 75h109q-2 -26 10 -75l53 -207l48 204q11 50 3 78z" />
    <glyph glyph-name="x.superior" horiz-adv-x="382" 
d="M374 459h-128q7 21 -13 56l-51 83l-47 -86q-18 -34 -12 -53h-115q21 19 47 66l78 132l-69 112q-30 49 -48 64h125q-7 -21 12 -56l46 -77l42 81q15 31 11 52h112q-17 -17 -44 -64l-73 -126l74 -116q34 -53 53 -68z" />
    <glyph glyph-name="y.superior" horiz-adv-x="395" 
d="M92 310q-8 0 -31 2t-26 0l20 94q15 -25 47 -25q46 0 65 62l5 16l-12 2l-106 273q-28 73 -48 99h125q-13 -25 5 -76l71 -204h4l60 204q15 51 4 76h114q-16 -24 -42 -98l-96 -290q-22 -68 -59.5 -101.5t-99.5 -33.5z" />
    <glyph glyph-name="z.superior" horiz-adv-x="345" 
d="M23 519q21 14 45 51l129 191h-72q-57 0 -82 -19v96q38 -5 89 -5h173l7 -59q-16 -13 -37 -45l-130 -197h85q62 0 92 18v-96q-37 5 -98 5h-192z" />
    <glyph glyph-name="L_A" horiz-adv-x="774" 
d="M63 654h159q-23 -35 -23 -131v-428h435q85 0 117 24v-126q-38 7 -117 7h-571q23 35 23 131v392q0 96 -23 131zM430 654h157q-1 -39 23 -111l69 -208q35 -107 56 -135h-130q8 44 -15 102l-4 14h-159l-4 -14q-20 -65 -13 -102h-130q30 39 59 134l67 209q26 80 24 111z
M446 390h121l-19 61q-32 98 -38 136h-7q-8 -43 -38 -136z" />
    <glyph glyph-name="L_E" horiz-adv-x="677" 
d="M308 654h174q100 0 134 6v-94q-24 10 -133 10h-69v-106h43q102 0 128 11v-91q-26 11 -128 11h-43v-123h79q108 0 131 10v-94q-35 6 -133 6h-183q12 26 12 139v176q0 113 -12 139zM63 654h159q-23 -35 -23 -131v-428h339q84 0 116 24v-126q-38 7 -116 7h-475q23 35 23 131
v392q0 96 -23 131z" />
    <glyph glyph-name="L_I" horiz-adv-x="520" 
d="M63 654h159q-23 -35 -23 -131v-428h181q84 0 117 24v-126q-38 7 -117 7h-317q23 35 23 131v392q0 96 -23 131zM327 654h119q-12 -26 -12 -139v-176q0 -114 12 -139h-119q13 29 13 139v176q0 110 -13 139z" />
    <glyph glyph-name="L_L" horiz-adv-x="677" 
d="M635 153q10 4 14 7v-110q-35 7 -115 7h-387q15 31 15 121v355q0 88 -15 121h224q-21 -34 -21 -160v-259h140q118 0 145 17v-99zM262 140h273q30 0 42 1q-46 2 -87 2h-228v-3z" />
    <glyph glyph-name="L_O" horiz-adv-x="761" 
d="M511 189q-96 0 -152 57.5t-56 181.5q0 236 208 236q209 0 209 -236q0 -124 -56 -181.5t-153 -57.5zM63 654h159q-23 -35 -23 -131v-428h422q85 0 117 24v-126q-38 7 -117 7h-558q23 35 23 131v392q0 96 -23 131zM511 271q54 0 83 35.5t29 121.5t-28.5 120t-83.5 34
q-54 0 -82.5 -34t-28.5 -120t29 -121.5t82 -35.5z" />
    <glyph glyph-name="L_U" horiz-adv-x="763" 
d="M63 654h159q-23 -35 -23 -131v-428h425q83 0 116 20v-122q-36 7 -116 7h-561q23 35 23 131v392q0 96 -23 131zM522 189q-188 0 -188 205v120q0 113 -13 140h118q-11 -28 -11 -140v-121q0 -67 24.5 -95t70.5 -28q95 0 95 123v121q0 112 -12 140h114q-12 -28 -12 -140v-120
q0 -205 -186 -205z" />
    <glyph glyph-name="R_A" horiz-adv-x="1091" 
d="M63 0q23 33 23 131v392q0 98 -23 131h234q118 0 183 -44.5t65 -151.5q0 -74 -36.5 -122.5t-99.5 -66.5q85 -106 155.5 -137.5t201.5 -31.5h184q85 0 118 26v-125l-323 -1q-159 0 -252 51t-200 200h-94v-120q0 -94 17 -131h-153zM586 200q28 36 59 134l67 209
q25 78 23 111h158q-3 -36 23 -111l68 -208q34 -105 57 -135h-131q8 45 -15 102l-4 14h-159l-3 -14q-19 -61 -14 -102h-129zM752 390h121l-20 61q-31 101 -37 136h-8q-7 -40 -37 -136zM199 342h92q72 0 107.5 27t35.5 88q0 57 -35 80t-105 23h-95v-218z" />
    <glyph glyph-name="R_E" horiz-adv-x="1018" 
d="M940 194q-34 6 -134 6h-183q12 26 12 139v176q0 113 -12 139h174q99 0 134 6v-94q-23 10 -132 10h-69v-106h42q103 0 129 11v-91q-26 11 -129 11h-42v-123h78q108 0 132 10v-94zM63 0q23 33 23 131v392q0 98 -23 131h234q118 0 183 -44.5t65 -151.5q0 -74 -36.5 -122.5
t-99.5 -66.5q87 -107 153 -138t204 -31h83q86 0 119 26v-125l-223 -1q-163 0 -255 50.5t-197 200.5h-94v-120q0 -94 17 -131h-153zM199 342h92q72 0 107.5 27t35.5 88q0 57 -35 80t-105 23h-95v-218z" />
    <glyph glyph-name="R_I" horiz-adv-x="824" 
d="M63 0q23 33 23 131v392q0 98 -23 131h234q118 0 183 -44.5t65 -151.5q0 -74 -36.5 -122.5t-99.5 -66.5q72 -94 130 -129.5t133 -35.5h55q46 0 74 23v-127h-135q-118 0 -198 55.5t-175 195.5h-94v-120q0 -94 17 -131h-153zM631 200q12 26 12 139v176q0 113 -12 139h119
q-12 -26 -12 -139v-176q0 -114 12 -139h-119zM199 342h92q72 0 107.5 27t35.5 88q0 57 -35 80t-105 23h-95v-218z" />
    <glyph glyph-name="R_O" horiz-adv-x="1100" 
d="M832 189q-96 0 -152 57.5t-56 181.5q0 236 208 236t208 -236q0 -124 -55.5 -181.5t-152.5 -57.5zM63 0q23 33 23 131v392q0 98 -23 131h234q118 0 183 -44.5t65 -151.5q0 -74 -36.5 -122.5t-99.5 -66.5q85 -106 155.5 -137.5t201.5 -31.5h167q87 0 119 25v-124l-307 -1
q-159 0 -252 51t-200 200h-94v-120q0 -94 17 -131h-153zM832 271q54 0 82.5 35.5t28.5 121.5t-28.5 120t-82.5 34t-82.5 -34t-28.5 -120t28.5 -121.5t82.5 -35.5zM199 342h92q72 0 107.5 27t35.5 88q0 57 -35 80t-105 23h-95v-218z" />
    <glyph glyph-name="R_R" horiz-adv-x="1056" 
d="M63 0q23 33 23 131v392q0 98 -23 131h234q118 0 183 -44.5t65 -151.5q0 -74 -36.5 -122.5t-99.5 -66.5q87 -107 153 -138t204 -31h155q86 0 119 26v-125l-295 -1q-163 0 -255 51t-197 200h-94v-120q0 -94 17 -131h-153zM622 200q13 26 13 141v173q0 114 -13 140h180
q183 0 183 -139q0 -48 -25.5 -82.5t-70.5 -49.5l34 -49q20 -28 39.5 -58.5t31.5 -48t21 -27.5h-128q-2 35 -43 101l-43 66h-71v-36q0 -107 11 -131h-119zM730 437h62q49 0 74.5 19t25.5 52q1 38 -24.5 54.5t-76.5 16.5h-61v-142zM199 342h92q72 0 107.5 27t35.5 88
q0 57 -35 80t-105 23h-95v-218z" />
    <glyph glyph-name="R_U" horiz-adv-x="1048" 
d="M63 0q23 33 23 131v392q0 98 -23 131h234q118 0 183 -44.5t65 -151.5q0 -74 -36.5 -122.5t-99.5 -66.5q87 -107 153 -138t204 -31h141q85 0 118 26v-125l-280 -1q-163 0 -255 51t-197 200h-94v-120q0 -94 17 -131h-153zM825 189q-188 0 -188 205v120q0 113 -13 140h118
q-11 -28 -11 -140v-121q0 -67 24.5 -95t70.5 -28q95 0 95 123v121q0 112 -12 140h114q-12 -28 -12 -140v-120q0 -205 -186 -205zM199 342h92q72 0 107.5 27t35.5 88q0 57 -35 80t-105 23h-95v-218z" />
    <glyph glyph-name="c_t" horiz-adv-x="833" 
d="M40 245q0 131 63 193.5t164 64.5h7q-30 37 -30 80q0 80 75 135t193 55q108 0 171.5 -42.5t63.5 -116.5q0 -80 -72 -123h122v-96q-35 8 -126 8v-239q0 -45 15 -66t51 -21q34 0 55 25l20 -102q-9 -1 -28 -4.5t-37.5 -5.5t-37.5 -2q-151 0 -151 167v248h-70v76
q84 8 130.5 40t46.5 84q0 48 -44 78t-115 30q-82 0 -136 -37.5t-54 -101.5q-1 -53 36 -83q15 -4 38 -12t32 -10l-48 -106q-37 47 -94 47q-124 0 -124 -163q0 -162 124 -162q68 0 108 50l46 -107q-5 -1 -38 -12.5t-64 -18.5t-61 -7q-104 0 -167.5 62t-63.5 195z" />
    <glyph glyph-name="f_b" horiz-adv-x="879" 
d="M646 503q90 0 139 -66.5t49 -182.5q0 -127 -51 -196.5t-139 -69.5q-81 0 -137 44h-8l3 -32h-121q15 41 15 125v458v21q-26 29 -93 29q-52 0 -74.5 -25t-22.5 -83v-36h101v-99q-31 8 -101 8v-287q0 -89 21 -111h-152q19 23 19 111v287h-66v91h66v38q0 195 203 195
q53 0 97 -14h125q-11 -34 -11 -125v-141q21 25 58.5 43t79.5 18zM617 84q101 0 101 168q0 155 -100 155q-30 0 -60.5 -18t-49.5 -43v-206q19 -24 49 -40t60 -16z" />
    <glyph glyph-name="f_f_b" horiz-adv-x="1181" 
d="M948 503q90 0 138.5 -66.5t48.5 -182.5q0 -127 -50.5 -196.5t-138.5 -69.5q-83 0 -137 44h-8l3 -32h-122q16 41 16 125v458v21q-26 29 -93 29q-52 0 -74.5 -25t-22.5 -83v-36h101v-99q-31 8 -101 8v-287q0 -89 21 -111h-153q20 22 20 111v287h-190v-287q0 -89 21 -111
h-152q19 23 19 111v287h-66v92h66v48q0 183 191 183q22 0 51.5 -3.5t40.5 -2.5l-11 -104q-23 21 -78 21q-42 0 -62 -22t-20 -73v-47h156v-1h34v38q0 195 203 195q53 0 97 -14h125q-11 -34 -11 -125v-141q21 25 58.5 43t79.5 18zM919 84q101 0 101 168q0 155 -100 155
q-30 0 -61 -18t-49 -43v-206q19 -24 49 -40t60 -16z" />
    <glyph glyph-name="f_f_h" horiz-adv-x="1185" 
d="M987 0q15 32 15 125v185q0 53 -19 74t-55 21q-29 0 -62 -20.5t-56 -55.5v-204q0 -92 14 -125h-145q19 31 19 125v458v21q-26 29 -93 29q-52 0 -74.5 -25t-22.5 -83v-36h101v-99q-31 8 -101 8v-287q0 -89 21 -111h-153q20 22 20 111v287h-190v-287q0 -89 21 -111h-152
q19 23 19 111v287h-66v92h66v48q0 183 191 183q22 0 51.5 -3.5t40.5 -2.5l-11 -104q-23 21 -78 21q-42 0 -62 -22t-20 -73v-47h156v-1h34v38q0 195 203 195q53 0 97 -14h125q-11 -33 -11 -115v-97q0 -45 -8 -65l8 -1q20 30 60 51.5t85 21.5q77 0 118 -46.5t41 -136.5v-195
q0 -94 19 -125h-146z" />
    <glyph glyph-name="f_f_j" horiz-adv-x="872" 
d="M811 489q-10 -43 -10 -123v-383q0 -89 -37 -134t-121 -45q-23 0 -52.5 3t-38.5 3l22 104q22 -19 60 -19q31 0 43 20t12 65v386v32h-181v-287q0 -89 22 -111h-153q19 21 19 111v287h-190v-287q0 -89 21 -111h-152q19 23 19 111v287h-66v92h66v48q0 183 191 183
q22 0 51.5 -3.5t40.5 -2.5l-11 -104q-23 21 -78 21q-42 0 -62 -22t-20 -73v-47h156v-1h34v32q0 201 223 201q42 0 91.5 -9.5t74.5 -21.5l-21 -100q-15 16 -59.5 29t-82.5 13q-61 0 -87.5 -25t-26.5 -89v-30h303z" />
    <glyph glyph-name="f_f_k" horiz-adv-x="1151" 
d="M1157 0h-167q1 37 -34 96l-77 114l-71 -86v-8q0 -85 15 -116h-145q19 31 19 125v458v21q-26 29 -93 29q-52 0 -74.5 -25t-22.5 -83v-36h101v-99q-31 8 -101 8v-287q0 -89 21 -111h-152q19 23 19 111v287h-189v-287q0 -89 21 -111h-152q19 23 19 111v287h-66v92h66v48
q0 183 191 183q22 0 51.5 -3.5t40.5 -2.5l-11 -104q-23 21 -78 21q-42 0 -62 -22t-20 -73v-47h156v-1h33v38q0 195 203 195q53 0 97 -14h126q-13 -35 -13 -125v-266q0 -45 -8 -63h8l122 153q42 54 38 84h164q-42 -31 -113 -116l-73 -87l113 -166q60 -90 98 -122z" />
    <glyph glyph-name="f_f_t" horiz-adv-x="965" 
d="M925 102l19 -102q-9 -1 -28 -4.5t-37.5 -5.5t-37.5 -2q-150 0 -150 167v242h-184v-286q0 -89 21 -111h-152q19 23 19 111v287h-189v-287q0 -89 21 -111h-152q19 23 19 111v287h-66v92h66v48q0 183 191 183q22 0 51.5 -3.5t40.5 -2.5l-11 -104q-23 21 -78 21
q-42 0 -62 -22t-20 -73v-47h189v48q0 183 191 183q22 0 51.5 -3.5t40.5 -2.5l-11 -104q-23 21 -78 21q-42 0 -62 -22t-20 -73v-47h146q89 34 150 99v-98h126v-96q-35 8 -126 8v-239q0 -45 15.5 -66t50.5 -21q34 0 56 25z" />
    <glyph glyph-name="f_f_y" horiz-adv-x="1093" 
d="M942 491h142q-25 -34 -52 -119l-134 -397q-29 -87 -76 -129.5t-126 -42.5q-13 0 -37 2.5t-35 1.5l25 116q19 -32 60 -32q60 0 87 86l8 23l-12 2l-145 370q-2 4 -10 26h-130v-287q0 -89 21 -111h-152q19 23 19 111v287h-189v-287q0 -89 21 -111h-152q19 23 19 111v287h-66
v92h66v48q0 183 191 183q22 0 51.5 -3.5t40.5 -2.5l-11 -104q-23 21 -78 21q-42 0 -62 -22t-20 -73v-47h189v48q0 183 191 183q22 0 51.5 -3.5t40.5 -2.5l-11 -104q-23 21 -78 21q-42 0 -62 -22t-20 -73v-47h81l-1 1l154 -1q-11 -30 8 -91l100 -277h4l85 277q16 63 4 92z
" />
    <glyph glyph-name="f_h" horiz-adv-x="883" 
d="M686 0q14 33 14 125v185q0 53 -18.5 74t-54.5 21q-30 0 -63 -20.5t-56 -55.5v-204q0 -93 15 -125h-146q19 31 19 125v458v21q-26 29 -93 29q-52 0 -74.5 -25t-22.5 -83v-36h101v-99q-31 8 -101 8v-287q0 -89 21 -111h-152q19 23 19 111v287h-66v91h66v38q0 195 203 195
q53 0 97 -14h126q-12 -32 -12 -115v-97q0 -48 -7 -65l7 -1q20 30 60 51.5t85 21.5q78 0 118.5 -46.5t40.5 -136.5v-195q0 -94 19 -125h-145z" />
    <glyph glyph-name="f_j" horiz-adv-x="570" 
d="M508 489q-9 -38 -9 -123v-383q0 -89 -37 -134t-122 -45q-22 0 -52 3t-38 3l21 104q22 -19 61 -19q31 0 43 20.5t12 64.5v386v32h-181v-287q0 -89 21 -111h-152q19 23 19 111v287h-66v91h66v32q0 201 222 201q43 0 92 -9.5t74 -21.5l-20 -100q-16 16 -60.5 29t-82.5 13
q-61 0 -87 -25t-26 -89v-30h302z" />
    <glyph glyph-name="f_k" horiz-adv-x="850" 
d="M856 0h-167q1 37 -34 96l-77 114l-71 -86v-8q0 -85 15 -116h-145q19 31 19 125v458v21q-26 29 -93 29q-52 0 -74.5 -25t-22.5 -83v-36h101v-99q-31 8 -101 8v-287q0 -89 21 -111h-152q19 23 19 111v287h-66v91h66v38q0 195 203 195q53 0 97 -14h126q-13 -35 -13 -125
v-266q0 -45 -8 -63h8l122 153q42 54 38 84h164q-42 -31 -113 -116l-73 -87l113 -166q60 -90 98 -122z" />
    <glyph glyph-name="f_t" horiz-adv-x="664" 
d="M624 102l19 -102q-9 -1 -28 -4.5t-37.5 -5.5t-37.5 -2q-150 0 -150 167v242h-184v-286q0 -89 21 -111h-152q19 23 19 111v287h-66v92h66v48q0 183 191 183q22 0 51.5 -3.5t40.5 -2.5l-11 -104q-23 21 -78 21q-42 0 -62 -22t-20 -73v-47h146q89 34 150 99v-98h126v-96
q-35 8 -126 8v-239q0 -45 15.5 -66t50.5 -21q34 0 56 25z" />
    <glyph glyph-name="f_y" horiz-adv-x="792" 
d="M641 491h142q-25 -34 -52 -119l-134 -397q-29 -87 -76 -129.5t-126 -42.5q-13 0 -37 2.5t-35 1.5l25 116q19 -32 60 -32q60 0 87 86l8 23l-12 2l-145 370q-2 4 -10 26h-130v-287q0 -89 21 -111h-152q19 23 19 111v287h-66v92h66v48q0 183 191 183q22 0 51.5 -3.5
t40.5 -2.5l-11 -104q-23 21 -78 21q-42 0 -62 -22t-20 -73v-47h81l-1 1l154 -1q-11 -30 8 -91l100 -277h4l85 277q16 63 4 92z" />
    <glyph glyph-name="s_p" horiz-adv-x="992" 
d="M30 20l43 118q21 -27 58.5 -44.5t79.5 -17.5q82 0 82 59q0 42 -74 63l-39 11q-60 16 -94 53.5t-34 94.5q0 68 46.5 106.5t126.5 39.5h2q-29 36 -29 80q0 80 75 135t193 55q106 0 170.5 -42.5t64.5 -116.5q0 -86 -84 -130l-4 -42h8q21 24 58.5 42.5t79.5 18.5
q90 0 139 -66.5t49 -182.5q0 -126 -51.5 -196t-137.5 -70q-85 0 -137 42v-97q0 -86 20 -125h-151q19 39 19 125v432q0 87 -19 125q129 28 129 112q0 48 -43.5 78t-114.5 30q-82 0 -136 -37t-55 -101q0 -50 34 -81q7 -2 37.5 -10t43.5 -9l-44 -105q-16 21 -45 34.5t-61 13.5
q-37 0 -57 -14t-20 -40q0 -45 64 -65l46 -14q131 -39 131 -142q0 -70 -49 -111t-138 -41q-45 0 -106.5 15.5t-75.5 16.5zM621 138q19 -23 49 -38.5t60 -15.5q101 0 101 168q0 155 -100 155q-29 0 -60 -18.5t-50 -43.5v-207z" />
    <glyph glyph-name="s_t" horiz-adv-x="802" 
d="M30 20l43 118q21 -27 58.5 -44.5t79.5 -17.5q82 0 82 59q0 42 -74 63l-39 11q-60 16 -94 53.5t-34 94.5q0 68 46.5 106.5t127.5 39.5q11 0 17 -1q-30 37 -30 81q0 80 75 135t191 55q108 0 172 -42.5t64 -116.5q0 -80 -72 -123h123v-96q-35 8 -126 8v-239q0 -45 15 -66
t51 -21q34 0 55 25l20 -102q-9 -1 -28 -4.5t-37.5 -5.5t-37.5 -2q-151 0 -151 167v248h-70v76q84 8 130 40t46 84q0 48 -44 78t-115 30q-81 0 -135 -37.5t-54 -101.5q-1 -57 43 -88q44 -12 57 -12l-44 -105q-16 21 -45 34.5t-61 13.5q-37 0 -57 -14t-20 -40q0 -45 64 -65
l46 -14q131 -39 131 -142q0 -70 -49 -111t-138 -41q-45 0 -106.5 15.5t-75.5 16.5z" />
    <glyph glyph-name="a.sc" horiz-adv-x="536" 
d="M176 523h186q-3 -41 26 -128l78 -239q42 -124 65 -156h-154q6 49 -17 116l-5 18h-178l-4 -18q-21 -64 -15 -116h-153q29 38 67 156l77 239q29 88 27 128zM199 219h136l-22 70q-35 118 -43 154h-8q-5 -29 -42 -154z" />
    <glyph glyph-name="aacute.sc" horiz-adv-x="536" 
d="M221 646q81 40 158 133l57 -72q-76 -76 -186 -113zM176 523h186q-3 -41 26 -128l78 -239q42 -124 65 -156h-154q6 49 -17 116l-5 18h-178l-4 -18q-21 -64 -15 -116h-153q29 38 67 156l77 239q29 88 27 128zM199 219h136l-22 70q-35 118 -43 154h-8q-5 -29 -42 -154z" />
    <glyph glyph-name="abreve.sc" horiz-adv-x="536" 
d="M273 604q-65 0 -96 38.5t-29 107.5h57q2 -36 19.5 -57t48.5 -21t49 20.5t20 57.5h56q3 -69 -28.5 -107.5t-96.5 -38.5zM176 523h186q-3 -41 26 -128l78 -239q42 -124 65 -156h-154q6 49 -17 116l-5 18h-178l-4 -18q-21 -64 -15 -116h-153q29 38 67 156l77 239
q29 88 27 128zM199 219h136l-22 70q-35 118 -43 154h-8q-5 -29 -42 -154z" />
    <glyph glyph-name="acircumflex.sc" horiz-adv-x="536" 
d="M261 729q23 -27 54 -49l-12 -10q-48 -45 -122 -65l-24 25q36 24 54 85zM319 684q2 -4 6 -10q-4 2 -10 6zM388 628q-44 14 -63 46q14 -10 41 -22zM176 523h186q-3 -41 26 -128l78 -239q42 -124 65 -156h-154q6 49 -17 116l-5 18h-178l-4 -18q-21 -64 -15 -116h-153
q29 38 67 156l77 239q29 88 27 128zM199 219h136l-22 70q-35 118 -43 154h-8q-5 -29 -42 -154z" />
    <glyph glyph-name="adieresis.sc" horiz-adv-x="536" 
d="M188 601q-25 0 -42 17t-17 42t17 42t42 17t42 -17t17 -42t-17 -42t-42 -17zM361 601q-25 0 -42 17t-17 42t17 42t42 17q26 0 42.5 -17t16.5 -42t-16.5 -42t-42.5 -17zM176 523h186q-3 -41 26 -128l78 -239q42 -124 65 -156h-154q6 49 -17 116l-5 18h-178l-4 -18
q-21 -64 -15 -116h-153q29 38 67 156l77 239q29 88 27 128zM199 219h136l-22 70q-35 118 -43 154h-8q-5 -29 -42 -154z" />
    <glyph glyph-name="agrave.sc" horiz-adv-x="536" 
d="M339 661l-26 -58q-118 25 -198 101l51 80q85 -91 173 -123zM176 523h186q-3 -41 26 -128l78 -239q42 -124 65 -156h-154q6 49 -17 116l-5 18h-178l-4 -18q-21 -64 -15 -116h-153q29 38 67 156l77 239q29 88 27 128zM199 219h136l-22 70q-35 118 -43 154h-8
q-5 -29 -42 -154z" />
    <glyph glyph-name="amacron.sc" horiz-adv-x="536" 
d="M140 660l204 25l64 -43l-205 -26zM176 523h186q-3 -41 26 -128l78 -239q42 -124 65 -156h-154q6 49 -17 116l-5 18h-178l-4 -18q-21 -64 -15 -116h-153q29 38 67 156l77 239q29 88 27 128zM199 219h136l-22 70q-35 118 -43 154h-8q-5 -29 -42 -154z" />
    <glyph glyph-name="aogonek.sc" horiz-adv-x="536" 
d="M523 -121l25 -48q-34 -34 -84 -34q-39 0 -64 20.5t-25 61.5q0 36 24 68.5t65 52.5h-87q6 49 -17 116l-5 18h-178l-4 -18q-21 -64 -15 -116h-153q29 38 67 156l77 239q29 88 27 128h186q-3 -41 26 -128l78 -239q42 -124 65 -156q-35 -18 -56.5 -46t-21.5 -55q0 -38 35 -38
q20 0 35 18zM199 219h136l-22 70q-35 118 -43 154h-8q-5 -29 -42 -154z" />
    <glyph glyph-name="aring.sc" horiz-adv-x="536" 
d="M273 591q-53 0 -84 25.5t-31 66.5q0 40 31 65.5t84 25.5t84 -25.5t31 -65.5q0 -41 -31 -66.5t-84 -25.5zM273 640q23 0 37 11t14 32q0 20 -14 31t-37 11t-37.5 -11t-14.5 -31t14.5 -31.5t37.5 -11.5zM176 523h186q-3 -41 26 -128l78 -239q42 -124 65 -156h-154
q6 49 -17 116l-5 18h-178l-4 -18q-21 -64 -15 -116h-153q29 38 67 156l77 239q29 88 27 128zM199 219h136l-22 70q-35 118 -43 154h-8q-5 -29 -42 -154z" />
    <glyph glyph-name="atilde.sc" horiz-adv-x="536" 
d="M340 601q-28 0 -52 15.5t-43 31.5t-34 16q-20 0 -27.5 -17t3.5 -40l-87 4q11 61 39 94.5t66 33.5q36 0 74.5 -31.5t55.5 -31.5q20 0 27 17t-3 40l86 -5q-9 -60 -38 -93.5t-67 -33.5zM176 523h186q-3 -41 26 -128l78 -239q42 -124 65 -156h-154q6 49 -17 116l-5 18h-178
l-4 -18q-21 -64 -15 -116h-153q29 38 67 156l77 239q29 88 27 128zM199 219h136l-22 70q-35 118 -43 154h-8q-5 -29 -42 -154z" />
    <glyph glyph-name="ae.sc" horiz-adv-x="737" 
d="M271 523h279q99 0 137 7v-107q-31 12 -120 12h-95v-126h71q72 0 107 13v-104q-32 13 -107 13h-71v-143h95q102 0 130 12v-107q-47 7 -142 7h-209q12 29 12 122v8h-154l-13 -27q-38 -72 -34 -103h-152q41 50 95 158l135 260q35 68 36 105zM240 215h118v227h-8
q-22 -54 -67 -138z" />
    <glyph glyph-name="b.sc" horiz-adv-x="539" 
d="M381 276q118 -21 118 -125q0 -78 -57.5 -114.5t-157.5 -36.5h-214q15 32 15 161v200q0 129 -15 162h199q202 0 202 -130q0 -40 -23 -70.5t-67 -41.5v-5zM269 123q58 0 88 17.5t30 62.5q0 57 -68 69q50 14 50 63q0 37 -25.5 51.5t-80.5 14.5h-66v-125h73q30 0 49 -4
q-23 -6 -58 -6h-64v-143h72z" />
    <glyph glyph-name="c.sc" horiz-adv-x="496" 
d="M285 -12q-111 0 -173.5 62t-62.5 211q0 274 236 274q23 0 45 -3t42.5 -9t32.5 -10.5t32 -12.5t24 -10l-55 -105q-39 58 -116 58q-126 0 -126 -181q0 -103 33 -142.5t93 -39.5q85 0 122 53l55 -103q-3 -1 -20 -7.5t-26 -9.5t-27.5 -8.5t-33.5 -8.5t-35.5 -5.5t-39.5 -2.5z
" />
    <glyph glyph-name="cacute.sc" horiz-adv-x="496" 
d="M231 646q81 40 158 133l57 -72q-76 -76 -186 -113zM285 -12q-111 0 -173.5 62t-62.5 211q0 274 236 274q23 0 45 -3t42.5 -9t32.5 -10.5t32 -12.5t24 -10l-55 -105q-39 58 -116 58q-126 0 -126 -181q0 -103 33 -142.5t93 -39.5q85 0 122 53l55 -103q-3 -1 -20 -7.5
t-26 -9.5t-27.5 -8.5t-33.5 -8.5t-35.5 -5.5t-39.5 -2.5z" />
    <glyph glyph-name="ccaron.sc" horiz-adv-x="496" 
d="M229 593q-41 83 -110 138l41 39q76 -44 121 -109h4q49 68 121 109l40 -39q-70 -58 -109 -138h-108zM285 -12q-111 0 -173.5 62t-62.5 211q0 274 236 274q23 0 45 -3t42.5 -9t32.5 -10.5t32 -12.5t24 -10l-55 -105q-39 58 -116 58q-126 0 -126 -181q0 -103 33 -142.5
t93 -39.5q85 0 122 53l55 -103q-3 -1 -20 -7.5t-26 -9.5t-27.5 -8.5t-33.5 -8.5t-35.5 -5.5t-39.5 -2.5z" />
    <glyph glyph-name="ccedilla.sc" horiz-adv-x="496" 
d="M309 -59q79 -15 79 -77q0 -47 -47 -72t-133 -24l-9 59q53 -8 80 3t27 34q0 40 -70 45l35 79q-105 3 -163.5 65.5t-58.5 207.5q0 274 236 274q23 0 45 -3t42.5 -9t32.5 -10.5t32 -12.5t24 -10l-55 -105q-39 58 -116 58q-126 0 -126 -181q0 -103 33 -142.5t93 -39.5
q85 0 122 53l55 -103q-5 -2 -24.5 -9t-32.5 -11.5t-35 -10t-43 -8.5z" />
    <glyph glyph-name="cdotaccent.sc" horiz-adv-x="496" 
d="M282 599q-66 0 -66 62q0 28 16.5 45t49.5 17t49.5 -17t16.5 -45q0 -62 -66 -62zM285 -12q-111 0 -173.5 62t-62.5 211q0 274 236 274q23 0 45 -3t42.5 -9t32.5 -10.5t32 -12.5t24 -10l-55 -105q-39 58 -116 58q-126 0 -126 -181q0 -103 33 -142.5t93 -39.5q85 0 122 53
l55 -103q-3 -1 -20 -7.5t-26 -9.5t-27.5 -8.5t-33.5 -8.5t-35.5 -5.5t-39.5 -2.5z" />
    <glyph glyph-name="d.sc" horiz-adv-x="561" 
d="M70 523h158q67 0 115.5 -11.5t88 -39.5t59.5 -80t20 -128q0 -149 -70 -206.5t-207 -57.5h-164q15 32 15 161v200q0 129 -15 162zM241 88q82 0 118 37t36 139q0 98 -36 134t-118 36h-44v-346h44z" />
    <glyph glyph-name="eth.sc" horiz-adv-x="561" 
d="M228 523q67 0 116 -11.5t88.5 -39.5t59.5 -80t20 -128q0 -149 -70 -206.5t-207 -57.5h-164q14 30 14 161v93l-53 29l53 3v75q0 129 -14 162h157zM241 88q83 0 119 37t36 139q0 98 -36 134t-119 36h-43v-140l54 3l66 -37l-120 -7v-165h43z" />
    <glyph glyph-name="dcaron.sc" horiz-adv-x="561" 
d="M196 593q-41 83 -110 138l41 39q76 -44 121 -109h4q49 68 121 109l40 -39q-70 -58 -109 -138h-108zM70 523h158q67 0 115.5 -11.5t88 -39.5t59.5 -80t20 -128q0 -149 -70 -206.5t-207 -57.5h-164q15 32 15 161v200q0 129 -15 162zM241 88q82 0 118 37t36 139
q0 98 -36 134t-118 36h-44v-346h44z" />
    <glyph glyph-name="dcroat.sc" horiz-adv-x="561" 
d="M228 523q67 0 116 -11.5t88.5 -39.5t59.5 -80t20 -128q0 -149 -70 -206.5t-207 -57.5h-164q14 30 14 161v93l-53 29l53 3v75q0 129 -14 162h157zM241 88q83 0 119 37t36 139q0 98 -36 134t-119 36h-43v-140l54 3l66 -37l-120 -7v-165h43z" />
    <glyph glyph-name="e.sc" horiz-adv-x="477" 
d="M70 523h203q117 0 153 7v-107q-29 12 -151 12h-78v-125h48q118 0 147 12v-103q-29 12 -147 12h-48v-143h89q121 0 150 12v-107q-46 7 -152 7h-214q15 32 15 161v200q0 129 -15 162z" />
    <glyph glyph-name="eacute.sc" horiz-adv-x="477" 
d="M201 646q81 40 158 133l57 -72q-76 -76 -186 -113zM70 523h203q117 0 153 7v-107q-29 12 -151 12h-78v-125h48q118 0 147 12v-103q-29 12 -147 12h-48v-143h89q121 0 150 12v-107q-46 7 -152 7h-214q15 32 15 161v200q0 129 -15 162z" />
    <glyph glyph-name="ecaron.sc" horiz-adv-x="477" 
d="M199 593q-41 83 -110 138l41 39q76 -44 121 -109h4q49 68 121 109l40 -39q-70 -58 -109 -138h-108zM70 523h203q117 0 153 7v-107q-29 12 -151 12h-78v-125h48q118 0 147 12v-103q-29 12 -147 12h-48v-143h89q121 0 150 12v-107q-46 7 -152 7h-214q15 32 15 161v200
q0 129 -15 162z" />
    <glyph glyph-name="ecircumflex.sc" horiz-adv-x="477" 
d="M240 729q23 -27 54 -49l-12 -10q-48 -45 -122 -65l-24 25q36 24 54 85zM298 684q2 -4 6 -10q-4 2 -10 6zM367 628q-44 14 -63 46q14 -10 41 -22zM70 523h203q117 0 153 7v-107q-29 12 -151 12h-78v-125h48q118 0 147 12v-103q-29 12 -147 12h-48v-143h89q121 0 150 12
v-107q-46 7 -152 7h-214q15 32 15 161v200q0 129 -15 162z" />
    <glyph glyph-name="edieresis.sc" horiz-adv-x="477" 
d="M167 601q-25 0 -42 17t-17 42t17 42t42 17t42 -17t17 -42t-17 -42t-42 -17zM340 601q-25 0 -42 17t-17 42t17 42t42 17q26 0 42.5 -17t16.5 -42t-16.5 -42t-42.5 -17zM70 523h203q117 0 153 7v-107q-29 12 -151 12h-78v-125h48q118 0 147 12v-103q-29 12 -147 12h-48
v-143h89q121 0 150 12v-107q-46 7 -152 7h-214q15 32 15 161v200q0 129 -15 162z" />
    <glyph glyph-name="edotaccent.sc" horiz-adv-x="477" 
d="M253 599q-66 0 -66 62q0 28 16.5 45t49.5 17t49.5 -17t16.5 -45q0 -62 -66 -62zM70 523h203q117 0 153 7v-107q-29 12 -151 12h-78v-125h48q118 0 147 12v-103q-29 12 -147 12h-48v-143h89q121 0 150 12v-107q-46 7 -152 7h-214q15 32 15 161v200q0 129 -15 162z" />
    <glyph glyph-name="egrave.sc" horiz-adv-x="477" 
d="M318 661l-26 -58q-118 25 -198 101l51 80q85 -91 173 -123zM70 523h203q117 0 153 7v-107q-29 12 -151 12h-78v-125h48q118 0 147 12v-103q-29 12 -147 12h-48v-143h89q121 0 150 12v-107q-46 7 -152 7h-214q15 32 15 161v200q0 129 -15 162z" />
    <glyph glyph-name="emacron.sc" horiz-adv-x="477" 
d="M120 660l204 25l64 -43l-205 -26zM70 523h203q117 0 153 7v-107q-29 12 -151 12h-78v-125h48q118 0 147 12v-103q-29 12 -147 12h-48v-143h89q121 0 150 12v-107q-46 7 -152 7h-214q15 32 15 161v200q0 129 -15 162z" />
    <glyph glyph-name="eogonek.sc" horiz-adv-x="477" 
d="M428 -127l25 -48q-34 -34 -84 -34q-39 0 -64 20.5t-25 61.5q0 37 27 71t71 54q-48 2 -94 2h-214q15 32 15 161v200q0 129 -15 162h203q117 0 153 7v-107q-29 12 -151 12h-78v-125h48q118 0 147 12v-103q-29 12 -147 12h-48v-143h89q121 0 150 12v-107h-1q-35 -18 -56 -45
t-21 -55q0 -38 35 -38q20 0 35 18z" />
    <glyph glyph-name="f.sc" horiz-adv-x="456" 
d="M70 523h204q121 0 153 7v-109q-29 12 -153 12h-77v-141h51q115 0 145 12v-107q-30 12 -145 12h-51v-54q0 -123 15 -155h-142q15 32 15 161v200q0 129 -15 162z" />
    <glyph glyph-name="g.sc" horiz-adv-x="560" 
d="M295 -12q-114 0 -180 60.5t-66 210.5q0 276 256 276q75 0 177 -39l-41 -103q-42 51 -133 51q-70 0 -107 -39t-37 -146q0 -104 34.5 -142.5t103.5 -38.5t97 22v108q-73 0 -100 -10v85h211q-12 -25 -12 -110v-27q0 -68 9 -110q-3 -1 -22.5 -8.5t-29.5 -11t-31.5 -10
t-39 -9.5t-41.5 -6t-48 -3z" />
    <glyph glyph-name="gbreve.sc" horiz-adv-x="560" 
d="M301 604q-65 0 -96 38.5t-29 107.5h57q2 -36 19.5 -57t48.5 -21t49 20.5t20 57.5h56q3 -69 -28.5 -107.5t-96.5 -38.5zM295 -12q-114 0 -180 60.5t-66 210.5q0 276 256 276q75 0 177 -39l-41 -103q-42 51 -133 51q-70 0 -107 -39t-37 -146q0 -104 34.5 -142.5
t103.5 -38.5t97 22v108q-73 0 -100 -10v85h211q-12 -25 -12 -110v-27q0 -68 9 -110q-3 -1 -22.5 -8.5t-29.5 -11t-31.5 -10t-39 -9.5t-41.5 -6t-48 -3z" />
    <glyph glyph-name="uni0123.sc" horiz-adv-x="560" 
d="M295 -12q-114 0 -180 60.5t-66 210.5q0 276 256 276q75 0 177 -39l-41 -103q-42 51 -133 51q-70 0 -107 -39t-37 -146q0 -104 34.5 -142.5t103.5 -38.5t97 22v108q-73 0 -100 -10v85h211q-12 -25 -12 -110v-27q0 -68 9 -110q-3 -1 -22.5 -8.5t-29.5 -11t-31.5 -10
t-39 -9.5t-41.5 -6t-48 -3zM303 -57q59 0 59 -73q0 -92 -97 -122l-16 36q58 21 61 66h-8q-20 0 -34 12t-14 33q0 22 13.5 35t35.5 13z" />
    <glyph glyph-name="gdotaccent.sc" horiz-adv-x="560" 
d="M301 599q-66 0 -66 62q0 28 16.5 45t49.5 17t49.5 -17t16.5 -45q0 -62 -66 -62zM295 -12q-114 0 -180 60.5t-66 210.5q0 276 256 276q75 0 177 -39l-41 -103q-42 51 -133 51q-70 0 -107 -39t-37 -146q0 -104 34.5 -142.5t103.5 -38.5t97 22v108q-73 0 -100 -10v85h211
q-12 -25 -12 -110v-27q0 -68 9 -110q-3 -1 -22.5 -8.5t-29.5 -11t-31.5 -10t-39 -9.5t-41.5 -6t-48 -3z" />
    <glyph glyph-name="h.sc" horiz-adv-x="608" 
d="M70 523h141q-14 -34 -14 -150v-54h214v54q0 116 -14 150h141q-15 -34 -15 -162v-200q0 -130 15 -161h-141q14 33 14 151v71h-214v-71q0 -118 14 -151h-141q15 32 15 161v200q0 129 -15 162z" />
    <glyph glyph-name="hbar.sc" horiz-adv-x="608" 
d="M523 361v-200q0 -130 15 -161h-141q14 33 14 151v71h-214v-71q0 -118 14 -151h-141q15 32 15 161v200q0 38 -1 54l-38 13l38 1q-1 67 -14 94h141q-12 -29 -13 -91l212 5q-1 58 -13 86h141q-14 -30 -15 -116l40 -13l-40 -1v-32zM411 319v54v17l-214 -6v-11v-54h214z" />
    <glyph glyph-name="i.sc" horiz-adv-x="282" 
d="M70 523h142q-15 -34 -15 -162v-200q0 -130 15 -161h-142q15 32 15 161v200q0 129 -15 162z" />
    <glyph glyph-name="iacute.sc" horiz-adv-x="282" 
d="M89 646q81 40 158 133l57 -72q-76 -76 -186 -113zM70 523h142q-15 -34 -15 -162v-200q0 -130 15 -161h-142q15 32 15 161v200q0 129 -15 162z" />
    <glyph glyph-name="icircumflex.sc" horiz-adv-x="282" 
d="M129 729q23 -27 54 -49l-12 -10q-48 -45 -122 -65l-24 25q36 24 54 85zM187 684q2 -4 6 -10q-4 2 -10 6zM256 628q-44 14 -63 46q14 -10 41 -22zM70 523h142q-15 -34 -15 -162v-200q0 -130 15 -161h-142q15 32 15 161v200q0 129 -15 162z" />
    <glyph glyph-name="idieresis.sc" horiz-adv-x="282" 
d="M56 601q-25 0 -42 17t-17 42t17 42t42 17t42 -17t17 -42t-17 -42t-42 -17zM229 601q-25 0 -42 17t-17 42t17 42t42 17q26 0 42.5 -17t16.5 -42t-16.5 -42t-42.5 -17zM70 523h142q-15 -34 -15 -162v-200q0 -130 15 -161h-142q15 32 15 161v200q0 129 -15 162z" />
    <glyph glyph-name="i.sc.loclTRK" horiz-adv-x="282" 
d="M141 599q-66 0 -66 62q0 28 16.5 45t49.5 17t49.5 -17t16.5 -45q0 -62 -66 -62zM70 523h142q-15 -34 -15 -162v-200q0 -130 15 -161h-142q15 32 15 161v200q0 129 -15 162z" />
    <glyph glyph-name="igrave.sc" horiz-adv-x="282" 
d="M206 661l-26 -58q-118 25 -198 101l51 80q85 -91 173 -123zM70 523h142q-15 -34 -15 -162v-200q0 -130 15 -161h-142q15 32 15 161v200q0 129 -15 162z" />
    <glyph glyph-name="imacron.sc" horiz-adv-x="282" 
d="M8 660l204 25l64 -43l-205 -26zM70 523h142q-15 -34 -15 -162v-200q0 -130 15 -161h-142q15 32 15 161v200q0 129 -15 162z" />
    <glyph glyph-name="iogonek.sc" horiz-adv-x="282" 
d="M204 -121l25 -48q-34 -34 -84 -34q-39 0 -64 20.5t-25 61.5q0 36 24 68.5t65 52.5h-75q15 32 15 161v200q0 129 -15 162h142q-15 -34 -15 -162v-200q0 -130 15 -161q-35 -18 -56.5 -46t-21.5 -55q0 -38 35 -38q20 0 35 18z" />
    <glyph glyph-name="j.sc" horiz-adv-x="409" 
d="M206 523h142q-15 -31 -15 -162v-192q0 -87 -41.5 -134t-122.5 -47q-77 0 -149 42l51 116q31 -63 86 -63q63 0 63 81v197q0 129 -14 162z" />
    <glyph glyph-name="k.sc" horiz-adv-x="545" 
d="M70 523h139q-12 -35 -12 -153v-72h4l112 130q50 63 64 95h148q-42 -35 -121 -130l-59 -73l86 -144q86 -144 118 -176h-151q-5 29 -58 124l-70 117l-73 -80v-11q0 -118 13 -150h-140q15 32 15 161v200q0 129 -15 162z" />
    <glyph glyph-name="uni0137.sc" horiz-adv-x="545" 
d="M70 523h139q-12 -35 -12 -153v-72h4l112 130q50 63 64 95h148q-42 -35 -121 -130l-59 -73l86 -144q86 -144 118 -176h-151q-5 29 -58 124l-70 117l-73 -80v-11q0 -118 13 -150h-140q15 32 15 161v200q0 129 -15 162zM288 -57q59 0 59 -73q0 -92 -97 -122l-16 36
q58 21 61 66h-8q-19 0 -33.5 12t-14.5 33q0 22 13.5 35t35.5 13z" />
    <glyph glyph-name="l.sc" horiz-adv-x="452" 
d="M70 523h142q-15 -34 -15 -162v-268h73q122 0 152 14v-114q-44 7 -152 7h-200q15 32 15 161v200q0 129 -15 162z" />
    <glyph glyph-name="lacute.sc" horiz-adv-x="452" 
d="M96 646q81 40 158 133l57 -72q-76 -76 -186 -113zM70 523h142q-15 -34 -15 -162v-268h73q122 0 152 14v-114q-44 7 -152 7h-200q15 32 15 161v200q0 129 -15 162z" />
    <glyph glyph-name="lcaron.sc" horiz-adv-x="452" 
d="M94 593q-41 83 -110 138l41 39q76 -44 121 -109h4q49 68 121 109l40 -39q-70 -58 -109 -138h-108zM70 523h142q-15 -34 -15 -162v-268h73q122 0 152 14v-114q-44 7 -152 7h-200q15 32 15 161v200q0 129 -15 162z" />
    <glyph glyph-name="uni013C.sc" horiz-adv-x="452" 
d="M70 523h142q-15 -34 -15 -162v-268h73q122 0 152 14v-114q-44 7 -152 7h-200q15 32 15 161v200q0 129 -15 162zM240 -57q59 0 59 -73q0 -92 -97 -122l-16 36q58 21 61 66h-8q-19 0 -33.5 12t-14.5 33q0 22 13.5 35t35.5 13z" />
    <glyph glyph-name="lslash.sc" horiz-adv-x="437" 
d="M270 93q123 0 153 14v-114q-45 7 -153 7h-199q14 30 14 161v70h-1l-59 34l60 16v80q0 129 -14 162h141q-14 -31 -14 -162v-54l56 -32l-56 -14v-168h72z" />
    <glyph glyph-name="m.sc" horiz-adv-x="675" 
d="M70 523h145l90 -240q23 -59 32 -111h6q12 53 33 111l87 240h142q-14 -30 -14 -162v-200q0 -132 14 -161h-132q14 32 14 136v89q0 100 13 161h-5l-85 -226q-30 -81 -32 -114h-84q-1 32 -31 114l-85 226h-5q13 -60 13 -161v-89q0 -105 14 -136h-130q15 32 15 161v200
q0 129 -15 162z" />
    <glyph glyph-name="n.sc" horiz-adv-x="596" 
d="M70 523h132l224 -370h5q-16 63 -16 155v73q0 110 -14 142h130q-15 -31 -15 -162v-361h-112l-230 372h-4q15 -68 15 -155v-75q0 -111 15 -142h-130q15 32 15 161v200q0 129 -15 162z" />
    <glyph glyph-name="nacute.sc" horiz-adv-x="596" 
d="M258 646q81 40 158 133l57 -72q-76 -76 -186 -113zM70 523h132l224 -370h5q-16 63 -16 155v73q0 110 -14 142h130q-15 -31 -15 -162v-361h-112l-230 372h-4q15 -68 15 -155v-75q0 -111 15 -142h-130q15 32 15 161v200q0 129 -15 162z" />
    <glyph glyph-name="ncaron.sc" horiz-adv-x="596" 
d="M256 593q-41 83 -110 138l41 39q76 -44 121 -109h4q49 68 121 109l40 -39q-70 -58 -109 -138h-108zM70 523h132l224 -370h5q-16 63 -16 155v73q0 110 -14 142h130q-15 -31 -15 -162v-361h-112l-230 372h-4q15 -68 15 -155v-75q0 -111 15 -142h-130q15 32 15 161v200
q0 129 -15 162z" />
    <glyph glyph-name="uni0146.sc" horiz-adv-x="596" 
d="M70 523h132l224 -370h5q-16 63 -16 155v73q0 110 -14 142h130q-15 -31 -15 -162v-361h-112l-230 372h-4q15 -68 15 -155v-75q0 -111 15 -142h-130q15 32 15 161v200q0 129 -15 162zM292 -57q59 0 59 -73q0 -92 -97 -122l-16 36q58 21 61 66h-8q-19 0 -33.5 12t-14.5 33
q0 22 13.5 35t35.5 13z" />
    </font>
</defs>
</svg>
