<?xml version="1.0" standalone="no"?>
<!DOCTYPE svg PUBLIC "-//W3C//DTD SVG 1.1//EN" "http://www.w3.org/Graphics/SVG/1.1/DTD/svg11.dtd" >
<svg xmlns="http://www.w3.org/2000/svg" xmlns:xlink="http://www.w3.org/1999/xlink" version="1.1">
<metadata>
Created by FontForge 20201107 at Wed Feb 19 16:34:49 2020
 By 
Copyright (c) 2019 by Rodrigo Lo'pez Fuentes. All rights reserved.
</metadata>
<defs>
<font id="Mondo-ThinItalic" horiz-adv-x="0" >
  <font-face 
    font-family="Mondo Thin Italic"
    font-weight="400"
    font-style="italic"
    font-stretch="normal"
    units-per-em="1000"
    panose-1="0 0 2 0 0 0 0 0 0 0"
    ascent="783"
    descent="-217"
    x-height="478"
    cap-height="660"
    bbox="-394 -313 1258.67 994"
    underline-thickness="50"
    underline-position="-150"
    slope="-11"
    unicode-range="U+0020-FB02"
  />
<missing-glyph horiz-adv-x="461" 
d="M378 722v-922h-292v922h292zM307 660h-152v-30h60v-34h-61v-31h153v31h-61v34h61v30zM246 541h-92v-96h153v32h-61v64zM215 510v-33h-31v33h31zM307 421h-153v-31h61v-34h-61v-30h92v64h61v31zM307 365h-30v-61h-123v-31h153v92zM307 253h-92v-52h31v21h31v-43h-93v74
h-30v-104h153v104zM307 93h-153v-104h153v104zM277 63v-44h-93v44h93zM307 -32h-153v-31h65l-65 -43v-30h153v30h-94l65 43h29v31z" />
    <glyph glyph-name="fi" unicode="fi" horiz-adv-x="455" 
d="M335 706q-67 0 -102 -32t-49 -102l-18 -94h255q-16 -30 -30 -100l-54 -278q-15 -76 -6 -100h-56q18 24 32 100l54 278q11 57 11 72h-212l-68 -350q-14 -74 -9 -100h-50q14 23 29 100l68 350h-66l6 28h66l18 94q16 81 58.5 121.5t128.5 40.5q77 0 118 -18l-21 -43
q-33 33 -103 33z" />
    <glyph glyph-name="fl" unicode="fl" horiz-adv-x="465" 
d="M444 719h34q-15 -23 -30 -100l-101 -519q-15 -76 -6 -100h-56q17 25 32 100l101 519q10 56 11 68q-32 19 -94 19q-67 0 -102 -32t-49 -102l-18 -94h114l-7 -33q-18 5 -113 5l-68 -350q-14 -74 -9 -100h-50q14 23 29 100l68 350h-66l6 28h66l18 94q16 81 58.5 121.5
t128.5 40.5q56 0 103 -15z" />
    <glyph glyph-name="f_f" unicode="ff" horiz-adv-x="472" 
d="M516 722q58 0 82 -24l-8 -36q-19 32 -78 32q-46 0 -80 -37t-48 -115l-12 -64h114l-7 -28h-113l-64 -330q-19 -98 -4 -120h-49l87 450h-176l-68 -350q-14 -74 -9 -100h-50q14 23 29 100l68 350h-66l6 28h66l18 94q32 162 157 162q28 0 74 -11l-18 -39q-21 22 -62 22
q-95 0 -121 -134l-18 -94h176l12 64q17 95 61 137.5t101 42.5z" />
    <glyph glyph-name="f_f_i" unicode="ffi" horiz-adv-x="654" 
d="M534 706q-67 0 -102 -32t-49 -102l-18 -94h255q-16 -30 -30 -100l-54 -278q-15 -76 -6 -100h-56q18 24 32 100l54 278q11 57 11 72h-212l-68 -350q-14 -74 -9 -100h-50q14 23 29 100l68 350h-169l-68 -350q-14 -74 -9 -100h-50q14 23 29 100l68 350h-66l6 28h66l18 94
q32 162 157 162q28 0 74 -11l-18 -39q-21 22 -62 22q-95 0 -121 -134l-18 -94h169l18 94q16 81 58.5 121.5t128.5 40.5q77 0 118 -18l-21 -43q-33 33 -103 33z" />
    <glyph glyph-name="f_f_l" unicode="ffl" horiz-adv-x="662" 
d="M641 719h34q-15 -23 -30 -100l-101 -519q-15 -76 -6 -100h-56q17 25 32 100l101 519q10 56 11 68q-32 19 -94 19q-67 0 -102 -32t-49 -102l-18 -94h114l-7 -33q-18 5 -113 5l-68 -350q-14 -74 -9 -100h-50q14 23 29 100l68 350h-167l-68 -350q-14 -74 -9 -100h-50
q14 23 29 100l68 350h-66l6 28h66l18 94q32 162 157 162q28 0 74 -11l-18 -39q-21 22 -62 22q-95 0 -121 -134l-18 -94h167l18 94q16 81 58.5 121.5t128.5 40.5q56 0 103 -15z" />
    <glyph glyph-name=".notdef" horiz-adv-x="461" 
d="M378 722v-922h-292v922h292zM307 660h-152v-30h60v-34h-61v-31h153v31h-61v34h61v30zM246 541h-92v-96h153v32h-61v64zM215 510v-33h-31v33h31zM307 421h-153v-31h61v-34h-61v-30h92v64h61v31zM307 365h-30v-61h-123v-31h153v92zM307 253h-92v-52h31v21h31v-43h-93v74
h-30v-104h153v104zM307 93h-153v-104h153v104zM277 63v-44h-93v44h93zM307 -32h-153v-31h65l-65 -43v-30h153v30h-94l65 43h29v31z" />
    <glyph glyph-name=".null" 
 />
    <glyph glyph-name="nonmarkingreturn" horiz-adv-x="333" 
 />
    <glyph glyph-name="space" unicode=" " horiz-adv-x="180" 
 />
    <glyph glyph-name="exclam" unicode="!" horiz-adv-x="238" 
d="M91 172l70 361q21 104 9 137h66q-15 -20 -23.5 -46t-21.5 -91l-70 -361h-30zM70 -12q-13 0 -22.5 8t-9.5 22q0 19 14.5 33.5t33.5 14.5q13 0 22.5 -8.5t9.5 -22.5q0 -19 -14.5 -33t-33.5 -14z" />
    <glyph glyph-name="quotedbl" unicode="&#x22;" horiz-adv-x="244" 
d="M110 463l28 197l9 62h38l-15 -62l-49 -197h-11zM210 463l28 197l9 62h38l-15 -62l-49 -197h-11z" />
    <glyph glyph-name="numbersign" unicode="#" horiz-adv-x="522" 
d="M48 0l70 222h-89l5 27h93l56 174h-95l5 27h98l65 198h28l-65 -198h160l65 198h28l-65 -198h86l-5 -27h-89l-56 -174h91l-5 -27h-95l-70 -222h-28l70 222h-160l-70 -222h-28zM155 249h160l56 174h-160z" />
    <glyph glyph-name="dollar" unicode="$" horiz-adv-x="508" 
d="M439 493q-22 56 -101 60l-48 -245l24 -9q52 -19 80 -47.5t28 -75.5q0 -76 -55.5 -129t-139.5 -58q-12 -66 -6 -87l-48 1q12 19 26 85q-104 3 -167 55l29 50q27 -72 144 -75l52 265l-8 3q-55 20 -83 48.5t-28 73.5q0 70 51.5 120.5t125.5 54.5q12 70 7 89h48
q-14 -21 -27 -90q71 -4 124 -44zM171 415q0 -37 22 -58.5t70 -38.5l47 236q-59 -4 -99 -43.5t-40 -95.5zM298 268l-15 6l-50 -255q68 5 112 47.5t44 104.5q0 38 -22 58.5t-69 38.5z" />
    <glyph glyph-name="percent" unicode="%" horiz-adv-x="790" 
d="M171 -12l494 680h30l-494 -680h-30zM201 254q-51 0 -79 32t-28 95q0 112 53.5 189.5t130.5 77.5q51 0 79 -32t28 -94q0 -113 -53.5 -190.5t-130.5 -77.5zM206 280q60 0 104 70t44 165q0 53 -21.5 80t-59.5 27q-61 0 -104.5 -69.5t-43.5 -164.5q0 -53 21.5 -80.5
t59.5 -27.5zM564 -12q-51 0 -79 32t-28 95q0 112 53.5 189.5t130.5 77.5q51 0 79 -32t28 -94q0 -113 -53.5 -190.5t-130.5 -77.5zM569 14q60 0 104 70t44 165q0 53 -21.5 80t-59.5 27q-61 0 -104.5 -69.5t-43.5 -164.5q0 -53 21.5 -80.5t59.5 -27.5z" />
    <glyph glyph-name="ampersand" unicode="&#x26;" horiz-adv-x="623" 
d="M485 104q46 -62 89 -104h-66q-17 43 -48 84l-9 13q-110 -112 -228 -112q-67 0 -110 39.5t-43 100.5q0 143 213 228q-33 72 -33 128q0 82 60 138t129 56q55 0 88.5 -31t33.5 -83q0 -79 -60 -128.5t-167 -88.5l-9 -3q32 -62 103 -159l29 -39q58 65 58 103h47
q-40 -69 -89 -125zM280 486q0 -51 33 -122l15 6q104 38 153 77.5t49 106.5q0 42 -26.5 66.5t-70.5 24.5q-54 0 -103.5 -44t-49.5 -115zM229 15q104 0 206 104l-36 50q-68 93 -104 160q-87 -34 -140.5 -80t-53.5 -119q0 -50 35.5 -82.5t92.5 -32.5z" />
    <glyph glyph-name="quotesingle" unicode="'" horiz-adv-x="144" 
d="M110 463l28 197l9 62h38l-15 -62l-49 -197h-11z" />
    <glyph glyph-name="parenleft" unicode="(" horiz-adv-x="318" 
d="M181 -151q-96 122 -96 303q0 151 72 303t191 252l8 -41q-59 -23 -114.5 -109t-90 -203t-34.5 -225q0 -94 25 -158t63 -81z" />
    <glyph glyph-name="parenright" unicode=")" horiz-adv-x="318" 
d="M-15 -151l-8 41q59 23 114.5 109t89.5 203t34 225q0 92 -24 156.5t-63 82.5l24 41q96 -122 96 -303q0 -153 -72.5 -304.5t-190.5 -250.5z" />
    <glyph glyph-name="asterisk" unicode="*" horiz-adv-x="335" 
d="M283 443l-52 94l-79 -84l-21 18l78 83l-95 40l12 26l97 -39l21 104h29l-20 -103l99 28l5 -28l-100 -28l52 -95z" />
    <glyph glyph-name="plus" unicode="+" horiz-adv-x="454" 
d="M312 255q75 0 102 11l-11 -53q-24 10 -97 10h-66l-17 -86q-14 -76 -9 -100h-53q15 26 30 100l17 86h-66q-73 0 -102 -10l9 53q24 -11 99 -11h66l17 86q15 75 8 100h53q-15 -28 -29 -100l-17 -86h66z" />
    <glyph glyph-name="comma" unicode="," horiz-adv-x="205" 
d="M-12 -145l-10 19q77 43 87 121q-4 -1 -12 -1q-32 0 -32 30q0 18 12 30t29 12t27 -13t10 -36q0 -45 -29 -88.5t-82 -73.5z" />
    <glyph glyph-name="hyphen" unicode="-" horiz-adv-x="315" 
d="M42 241l6 29h230l-6 -29h-230z" />
    <glyph glyph-name="period" unicode="." horiz-adv-x="183" 
d="M40 -12q-13 0 -22.5 9t-9.5 23q0 19 12 32.5t29 13.5q13 0 22.5 -9t9.5 -25q0 -20 -13 -32t-28 -12z" />
    <glyph glyph-name="slash" unicode="/" horiz-adv-x="411" 
d="M-48 -160l416 740q57 102 53 130h52l-416 -740q-57 -102 -53 -130h-52z" />
    <glyph glyph-name="zero" unicode="0" horiz-adv-x="480" 
d="M193 -12q-72 0 -111.5 51.5t-39.5 151.5q0 188 81.5 324.5t192.5 136.5q73 0 112.5 -51.5t39.5 -151.5q0 -123 -36.5 -229t-100 -169t-138.5 -63zM196 16q59 0 114 59.5t89.5 159.5t34.5 210q0 88 -32.5 133.5t-87.5 45.5q-60 0 -115 -60t-89.5 -160.5t-34.5 -211.5
q0 -88 32 -132t89 -44z" />
    <glyph glyph-name="one" unicode="1" horiz-adv-x="444" 
d="M18 0l5 28l152 7l106 545h-132l4 22q49 0 97.5 11.5t73.5 26.5l-117 -605l140 -7l-5 -28h-324z" />
    <glyph glyph-name="two" unicode="2" horiz-adv-x="481" 
d="M64 28h212q95 0 124 19l-9 -47h-384l4 20q217 170 317 277t100 195q0 62 -32.5 97t-89.5 35q-52 0 -97 -23t-72 -55l-18 42q5 3 26 14t35 17.5t36 15t46 13t48 4.5q68 0 109.5 -41.5t41.5 -116.5q0 -52 -27 -105t-86.5 -114.5t-121 -114t-162.5 -132.5z" />
    <glyph glyph-name="three" unicode="3" horiz-adv-x="477" 
d="M182 -12q-46 0 -82 10t-63 24t-37 16l33 52q12 -30 52 -52t103 -22q80 0 137 51t57 120q0 136 -203 136l6 28q109 0 173 45t64 125q0 46 -30 74.5t-80 28.5q-46 0 -97 -23t-73 -49l-11 47q9 2 42.5 16.5t71 25.5t72.5 11q61 0 99.5 -35t38.5 -94q0 -73 -43.5 -118.5
t-114.5 -64.5l-1 -4q53 -11 86 -48.5t33 -97.5q0 -86 -67 -144t-166 -58z" />
    <glyph glyph-name="four" unicode="4" horiz-adv-x="488" 
d="M357 214q81 0 101 15l-8 -43h-98q-21 -109 -24 -141t4 -45h-62q13 15 22 47.5t30 138.5h-296l3 16l386 438h25zM327 214l72 368l-326 -368h254z" />
    <glyph glyph-name="five" unicode="5" horiz-adv-x="477" 
d="M185 -12q-47 0 -81.5 10t-65 27.5t-35.5 19.5l31 48q30 -77 156 -77q83 0 144.5 63t61.5 152q0 62 -33.5 102.5t-90.5 40.5q-67 0 -140 -41l-23 16l81 291h189q68 0 100 16l-9 -44h-258l-69 -241q62 31 131 31t112 -45t43 -122q0 -106 -71.5 -176.5t-172.5 -70.5z" />
    <glyph glyph-name="six" unicode="6" horiz-adv-x="477" 
d="M205 -12q-151 0 -151 183q0 121 41.5 233t109.5 180t142 68q31 0 54.5 -4.5t46 -13.5t27.5 -10l-23 -41q-28 41 -107 41q-70 0 -141.5 -83.5t-104.5 -247.5q79 91 182 91q71 0 108.5 -38.5t37.5 -108.5q0 -107 -64.5 -178t-157.5 -71zM210 16q74 0 129 63.5t55 151.5
q0 125 -120 125q-42 0 -90.5 -27t-90.5 -77q-35 -236 117 -236z" />
    <glyph glyph-name="seven" unicode="7" horiz-adv-x="442" 
d="M125 0q18 140 97.5 297.5t223.5 314.5h-229q-95 0 -124 -15l10 50q22 -7 119 -7h265l-4 -26q-134 -136 -226 -313.5t-92 -271.5q0 -17 3 -29h-43z" />
    <glyph glyph-name="eight" unicode="8" horiz-adv-x="484" 
d="M191 -12q-74 0 -120 38.5t-46 97.5q0 66 51 128t132 92l1 3q-79 46 -79 120q0 79 58 132t141 53q64 0 101.5 -33t37.5 -87q0 -69 -45.5 -124t-108.5 -81v-3q107 -54 107 -153q0 -88 -64 -135.5t-166 -47.5zM289 338q69 32 108 82t39 107q0 44 -29.5 70.5t-83.5 26.5
q-63 0 -112 -46t-49 -106q0 -28 12 -50.5t33.5 -38.5t39.5 -26t42 -19zM196 16q81 0 137 41.5t56 110.5q0 98 -159 162q-81 -34 -126.5 -87t-45.5 -113q0 -50 37.5 -82t100.5 -32z" />
    <glyph glyph-name="nine" unicode="9" horiz-adv-x="477" 
d="M159 -12q-40 0 -82.5 14t-51.5 14l23 49q33 -49 116 -49q70 0 149 96.5t97 235.5q-82 -92 -177 -92q-73 0 -113.5 38t-40.5 106q0 106 63.5 179t155.5 73q75 0 114.5 -47t39.5 -136q0 -121 -41.5 -233t-109.5 -180t-142 -68zM235 284q88 0 178 104q35 236 -120 236
q-73 0 -127 -64t-54 -153q0 -55 30 -89t93 -34z" />
    <glyph glyph-name="colon" unicode=":" horiz-adv-x="249" 
d="M40 348q-13 0 -22.5 9t-9.5 23q0 19 12 32.5t29 13.5q13 0 22.5 -9t9.5 -25q0 -20 -13 -32t-28 -12zM40 -12q-13 0 -22.5 9t-9.5 23q0 19 12 32.5t29 13.5q13 0 22.5 -9t9.5 -25q0 -20 -13 -32t-28 -12z" />
    <glyph glyph-name="semicolon" unicode=";" horiz-adv-x="249" 
d="M43 330q-13 0 -22.5 9t-9.5 23q0 19 12 32.5t29 13.5q13 0 22.5 -9t9.5 -25q0 -20 -13 -32t-28 -12zM-12 -145l-10 19q77 43 87 121q-4 -1 -12 -1q-32 0 -32 30q0 18 12 30t29 12t27 -13t10 -36q0 -45 -29 -88.5t-82 -73.5z" />
    <glyph glyph-name="less" unicode="&#x3c;" horiz-adv-x="451" 
d="M406 362q-33 -4 -101 -33l-212 -90l177 -91q59 -32 88 -33l-30 -48q-16 20 -78 52l-200 103l6 33l242 103q74 32 97 52z" />
    <glyph glyph-name="equal" unicode="=" horiz-adv-x="458" 
d="M63 273l10 53q23 -11 98 -11h144q75 0 103 11l-12 -53q-24 10 -97 10h-144q-73 0 -102 -10zM40 153l9 53q24 -11 99 -11h144q75 0 102 11l-11 -53q-24 10 -97 10h-144q-73 0 -102 -10z" />
    <glyph glyph-name="greater" unicode="&#x3e;" horiz-adv-x="451" 
d="M205 358l201 -103l-6 -33l-240 -103q-78 -34 -98 -52l-12 48q27 1 101 33l212 91l-176 90q-61 30 -89 33l30 48q14 -20 77 -52z" />
    <glyph glyph-name="question" unicode="?" horiz-adv-x="396" 
d="M126 182q12 60 40 104t59.5 69t61.5 48.5t49.5 58.5t19.5 84q0 45 -28 71.5t-77 26.5q-42 0 -84.5 -20t-62.5 -48l-19 48q14 1 72.5 24.5t99.5 23.5q60 0 96 -32t36 -88q0 -55 -20 -94t-50 -64t-62 -49t-60 -65t-39 -98h-32zM109 -12q-31 0 -31 28q0 19 13 32.5t32 13.5
q31 0 31 -28q0 -19 -13 -32.5t-32 -13.5z" />
    <glyph glyph-name="at" unicode="@" horiz-adv-x="786" 
d="M301 -56q-104 0 -167.5 65t-63.5 171q0 152 101.5 263.5t250.5 111.5q110 0 181.5 -69t71.5 -173t-47.5 -180t-113.5 -76q-42 0 -61.5 27.5t-11.5 65.5q-42 -66 -121 -66q-48 0 -76 31t-28 85q0 85 47 142.5t119 57.5q41 0 65.5 -18.5t29.5 -39.5l13 48h26l-43 -224
q-15 -81 44 -81q52 0 90 66.5t38 157.5q0 94 -64 155.5t-164 61.5q-131 0 -224 -102.5t-93 -239.5q0 -96 56.5 -153.5t149.5 -57.5q66 0 107 29l-10 -49q-52 -9 -102 -9zM325 112q47 0 83 31.5t46 83.5l7 35q10 51 -17 80.5t-67 29.5q-55 0 -92.5 -48.5t-37.5 -118.5
q0 -44 21.5 -68.5t56.5 -24.5z" />
    <glyph glyph-name="A" unicode="A" horiz-adv-x="553" 
d="M-32 0q28 28 72 109l257 468q5 10 12.5 23.5t10 18.5t6 13t5 14t2.5 14h50q-6 -21 4 -83l75 -468q12 -76 31 -109h-64q13 22 1 104l-18 119l-278 -1l-64 -118q-23 -42 -31 -63.5t-6 -40.5h-65zM150 250l258 1l-56 371h-2z" />
    <glyph glyph-name="B" unicode="B" horiz-adv-x="526" 
d="M348 352q63 -9 98.5 -47.5t35.5 -99.5q0 -100 -72.5 -152.5t-210.5 -52.5h-179q19 22 34 100l90 460q15 78 4 100h167q87 0 132 -36t45 -105t-38 -112.5t-106 -54.5zM190 632l-52 -266h120q97 0 149.5 38t52.5 114q0 114 -150 114h-120zM204 28q115 0 180.5 45.5
t65.5 129.5q0 135 -197 135h-120l-61 -310h132z" />
    <glyph glyph-name="C" unicode="C" horiz-adv-x="562" 
d="M269 -12q-98 0 -153 56.5t-55 170.5q0 197 96.5 327t244.5 130q96 0 171 -56l-28 -43q-12 27 -55 48t-94 21q-130 0 -215 -120t-85 -303q0 -102 46.5 -151.5t131.5 -49.5q124 0 191 67l11 -49q-107 -48 -207 -48z" />
    <glyph glyph-name="D" unicode="D" horiz-adv-x="587" 
d="M20 0q13 15 18.5 31.5t15.5 68.5l90 460q9 45 10 61t-6 39h143q124 0 194 -63.5t70 -175.5q0 -199 -103.5 -310t-288.5 -111h-143zM72 28h96q162 0 257.5 102.5t95.5 286.5q0 101 -63 158t-176 57h-92z" />
    <glyph glyph-name="E" unicode="E" horiz-adv-x="478" 
d="M386 -5q-37 5 -198 5h-168q13 15 18.5 31.5t15.5 67.5l90 461q9 45 10 61t-6 39h160q158 0 193 5l-8 -45q-22 12 -190 12h-113l-52 -266h101q137 0 162 12l-10 -52q-22 12 -157 12h-101l-61 -310h121q112 0 148.5 2t53.5 10z" />
    <glyph glyph-name="F" unicode="F" horiz-adv-x="456" 
d="M20 0q13 15 18.5 31.5t15.5 68.5l90 460q9 45 10 61t-6 39h181q139 0 174 5l-8 -45q-22 12 -171 12h-134l-57 -291h86q141 0 168 10l-9 -48q-23 10 -164 10h-86l-42 -213q-9 -46 -10 -60.5t6 -39.5h-62z" />
    <glyph glyph-name="G" unicode="G" horiz-adv-x="588" 
d="M280 -12q-101 0 -159 56t-58 172q0 204 86.5 330t226.5 126q60 0 113 -20.5t82 -42.5l-30 -38q-12 27 -59.5 50t-108.5 23q-123 0 -199.5 -117.5t-76.5 -307.5q0 -103 49.5 -152t136.5 -49q54 0 101 16t75 40l41 208h-55q-81 0 -112 -12l10 45q32 -5 108 -5h96
q-14 -23 -30 -105l-6 -30q-16 -80 -17 -116q-92 -71 -214 -71z" />
    <glyph glyph-name="H" unicode="H" horiz-adv-x="593" 
d="M20 0q20 23 35 100l90 460q9 47 10 61t-7 39h63q-20 -23 -34 -100l-38 -194h364l38 194q1 3 3.5 17t3 17.5l2 14t1.5 15t-0.5 12t-2 13t-4.5 11.5h63q-19 -23 -34 -100l-90 -460q-6 -31 -7.5 -41.5t-1.5 -28.5t5 -30h-63q20 24 35 100l47 238h-364l-47 -238
q-6 -31 -7.5 -41.5t-1.5 -28.5t5 -30h-63z" />
    <glyph glyph-name="I" unicode="I" horiz-adv-x="197" 
d="M20 0q20 23 35 100l90 460q9 47 10 61t-7 39h63q-19 -25 -34 -100l-90 -460q-15 -74 -4 -100h-63z" />
    <glyph glyph-name="J" unicode="J" horiz-adv-x="382" 
d="M129 -12q-69 0 -126 68l34 35q20 -75 96 -75q51 0 81.5 34t46.5 118l76 392q1 4 2.5 14t2.5 13.5t2.5 12t1.5 12t0.5 10.5t0 11t-1 9t-2 9.5t-3.5 8.5h63q-20 -26 -34 -100l-76 -392q-19 -96 -54 -138t-110 -42z" />
    <glyph glyph-name="K" unicode="K" horiz-adv-x="536" 
d="M20 0q20 26 35 100l90 460q15 73 3 100h63q-20 -23 -34 -100l-55 -280h2l322 311q44 42 50 69h73q-32 -23 -99 -87l-177 -171l122 -296q30 -74 62 -106h-66q3 26 -24 90l-119 291l-155 -152l-25 -129q-15 -73 -3 -100h-65z" />
    <glyph glyph-name="L" unicode="L" horiz-adv-x="415" 
d="M356 -5q-20 5 -129 5h-207q20 23 35 100l90 460q9 48 10 61t-7 39h63q-9 -10 -15 -25t-9 -27t-10 -48l-104 -532h159q67 0 91 2.5t43 12.5z" />
    <glyph glyph-name="M" unicode="M" horiz-adv-x="670" 
d="M616 660h68q-20 -28 -34 -100l-90 -460q-15 -74 -4 -100h-63q20 23 35 100l70 360q26 127 38 172h-2l-254 -443q-44 -77 -48 -105h-54q7 29 -7 105l-83 443h-2q-10 -67 -30 -172l-70 -360q-15 -75 -4 -100h-62q19 26 34 100l90 460q8 44 9.5 60.5t-5.5 39.5h67l98 -534z
" />
    <glyph glyph-name="N" unicode="N" horiz-adv-x="596" 
d="M20 0q19 26 34 100l90 460q10 50 10.5 68.5t-6.5 31.5h52l247 -609h3q6 60 22 141l72 368q13 70 7 91q-1 5 -3 9h62q-19 -26 -34 -100l-90 -460q-14 -68 -12 -100h-41l-249 614h-3q-7 -64 -22 -140l-73 -374q-6 -31 -7.5 -41.5t-1.5 -28.5t5 -30h-62z" />
    <glyph glyph-name="O" unicode="O" horiz-adv-x="645" 
d="M273 -12q-93 0 -152.5 61t-59.5 170q0 193 99.5 323t245.5 130q93 0 152.5 -61t59.5 -170q0 -190 -100.5 -321.5t-244.5 -131.5zM279 16q125 0 215.5 123t90.5 297q0 101 -51 154.5t-134 53.5q-126 0 -216 -122t-90 -298q0 -101 51 -154.5t134 -53.5z" />
    <glyph glyph-name="P" unicode="P" horiz-adv-x="508" 
d="M21 0q19 26 34 100l90 460q9 47 10 61t-7 39h168q89 0 145.5 -36t56.5 -116q0 -126 -73 -193t-205 -67h-124l-29 -148q-14 -74 -3 -100h-63zM122 276h109q124 0 189 57.5t65 170.5q0 71 -49 99.5t-140 28.5h-105z" />
    <glyph glyph-name="Q" unicode="Q" horiz-adv-x="635" 
d="M284 -12q4 -55 43.5 -85t102.5 -30q46 0 78 25l-1 -47q-7 0 -36.5 -4t-45.5 -4q-76 0 -121.5 39.5t-49.5 106.5q-86 6 -139.5 66.5t-53.5 163.5q0 193 99.5 323t245.5 130q93 0 152.5 -61t59.5 -170q0 -186 -96.5 -316.5t-237.5 -136.5zM94 224q0 -101 51 -154.5
t134 -53.5q125 0 215.5 123t90.5 297q0 101 -51 154.5t-134 53.5q-126 0 -216 -122t-90 -298z" />
    <glyph glyph-name="R" unicode="R" horiz-adv-x="506" 
d="M21 0q19 26 34 100l90 460q15 76 3 100h178q82 0 136 -36.5t54 -114.5q0 -56 -19.5 -99.5t-51 -68.5t-64 -38.5t-67.5 -18.5l71 -181q28 -71 54 -103h-65q6 23 -20 88l-76 192h-156l-35 -180q-15 -75 -4 -100h-62zM128 308h129q98 0 162 50.5t64 145.5q0 128 -174 128
h-118z" />
    <glyph glyph-name="S" unicode="S" horiz-adv-x="531" 
d="M223 -12q-128 0 -208 74l28 48q35 -92 188 -92q84 0 139 46t55 120q0 30 -10.5 53t-31 39t-38 25.5t-44.5 19.5l-42 16q-132 51 -132 149q0 83 59.5 134.5t146.5 51.5q106 0 174 -62l-26 -38q-33 70 -154 70q-69 0 -118 -41.5t-49 -105.5q0 -48 32.5 -77.5t86.5 -50.5
l41 -16q66 -26 102 -63t36 -97q0 -90 -66.5 -146.5t-168.5 -56.5z" />
    <glyph glyph-name="T" unicode="T" horiz-adv-x="486" 
d="M165 0q21 27 35 100l103 532h-102q-75 0 -103 -15l9 48q33 -5 99 -5h236q68 0 101 5l-9 -48q-22 15 -97 15h-102l-103 -532q-15 -78 -5 -100h-62z" />
    <glyph glyph-name="U" unicode="U" horiz-adv-x="577" 
d="M240 -12q-42 0 -75 11.5t-61.5 41t-35 79.5t5.5 126l61 314q8 46 9 62t-6 38h63q-20 -23 -34 -100l-60 -311q-44 -232 138 -232q82 0 146.5 55.5t88.5 181.5l59 306q15 77 3 100h61q-19 -26 -34 -100l-61 -311q-52 -261 -268 -261z" />
    <glyph glyph-name="V" unicode="V" horiz-adv-x="514" 
d="M182 0q10 27 -2 115l-59 433q-12 87 -25 112h57q-10 -30 0 -103l41 -301q17 -124 27 -215h4q37 81 107 215l159 306q33 62 37 98h54q-21 -27 -65 -112l-225 -433q-46 -86 -44 -115h-66z" />
    <glyph glyph-name="W" unicode="W" horiz-adv-x="776" 
d="M781 660h55q-21 -25 -50 -94l-182 -434q-42 -97 -45 -132h-60q7 31 0 132l-36 488l-225 -488q-46 -98 -50 -132h-61q7 31 4 132l-14 434q-2 62 -13 94h53q-10 -29 -8 -94l15 -526l244 528q31 67 32 92h61q-9 -28 -4 -91l39 -529l221 531q27 65 24 89z" />
    <glyph glyph-name="X" unicode="X" horiz-adv-x="523" 
d="M552 660q-37 -39 -74 -87l-179 -234l92 -232q29 -73 53 -107h-58q3 30 -23 97l-88 225l-171 -225q-2 -3 -7 -9q-47 -64 -52 -86v-2h-57q38 36 95 109l181 236l-88 229q-22 57 -43 86h56q-5 -25 15 -77l84 -221l167 221q25 33 33.5 47.5t10.5 29.5h53z" />
    <glyph glyph-name="Y" unicode="Y" horiz-adv-x="476" 
d="M485 660h57q-28 -26 -81 -104l-198 -290l-33 -166q-15 -74 -4 -100h-62q19 23 34 100l34 172l-94 286q-27 81 -42 102h55q-5 -25 17 -93l86 -269l182 268q48 70 49 94z" />
    <glyph glyph-name="Z" unicode="Z" horiz-adv-x="545" 
d="M303 660h257l-2 -33q-19 -5 -68 -66l-433 -533h201q105 0 141.5 3t53.5 13l-11 -49q-32 5 -189 5h-246l2 33q23 9 81 81l421 518h-213q-114 0 -145 -17l10 50q33 -5 140 -5z" />
    <glyph glyph-name="bracketleft" unicode="[" horiz-adv-x="284" 
d="M162 -158q-26 11 -147 11l163 840q122 0 151 11l-6 -32h-117l-155 -798h117z" />
    <glyph glyph-name="backslash" unicode="\" horiz-adv-x="413" 
d="M253 -160q14 34 -3 130l-128 740h52q-14 -29 3 -130l128 -740h-52z" />
    <glyph glyph-name="bracketright" unicode="]" horiz-adv-x="284" 
d="M-32 -158l6 32h117l155 798h-117l7 32q25 -11 146 -11l-163 -840q-121 0 -151 -11z" />
    <glyph glyph-name="asciicircum" unicode="^" horiz-adv-x="354" 
d="M319 368l-51 -18q4 27 -13 95l-35 145l-91 -145q-44 -68 -49 -95l-45 18q24 21 68 91l102 162h42l39 -163q17 -70 33 -90z" />
    <glyph glyph-name="underscore" unicode="_" horiz-adv-x="505" 
d="M12 -99l5 28h476l-5 -28h-476z" />
    <glyph glyph-name="grave" unicode="`" horiz-adv-x="320" 
d="M292 574q-84 62 -118 147l28 21q36 -96 103 -154z" />
    <glyph glyph-name="a" unicode="a" horiz-adv-x="474" 
d="M168 -12q-58 0 -92.5 42.5t-34.5 124.5q0 141 75.5 239.5t190.5 98.5q47 0 100 -23l8 16h25l-73 -356q-12 -58 -13 -85t8 -45h-35q-6 34 6 85h-4q-33 -43 -76.5 -70t-84.5 -27zM171 16q41 0 92.5 40.5t79.5 96.5l57 285q-43 25 -99 25q-96 0 -161.5 -90.5t-65.5 -217.5
q0 -67 26 -103t71 -36z" />
    <glyph glyph-name="b" unicode="b" horiz-adv-x="478" 
d="M171 -12q-56 0 -112 29l-10 -17h-15l117 573q14 70 16 98.5t-5 40.5h48l-67 -324q33 46 78 75.5t89 29.5q58 0 92.5 -42.5t34.5 -124.5q0 -141 -75.5 -239.5t-190.5 -98.5zM177 18q96 0 161.5 90.5t65.5 217.5q0 67 -26 103t-71 36t-100.5 -46.5t-79.5 -108.5l-54 -263
q41 -29 104 -29z" />
    <glyph glyph-name="c" unicode="c" horiz-adv-x="431" 
d="M194 -12q-64 0 -108 42t-44 128q0 139 68.5 235.5t176.5 96.5q79 0 134 -48l-25 -33q-37 53 -113 53q-92 0 -150.5 -88t-58.5 -211q0 -74 34.5 -110.5t91.5 -36.5q43 0 87 21.5t69 53.5l7 -43q-28 -23 -74 -41.5t-95 -18.5z" />
    <glyph glyph-name="d" unicode="d" horiz-adv-x="486" 
d="M168 -12q-58 0 -92.5 42.5t-34.5 124.5q0 141 75.5 239.5t190.5 98.5q48 0 99 -22l19 98q19 106 9 143h48l-116 -592q-19 -99 -4 -120h-38q-2 39 9 85h-4q-33 -43 -76.5 -70t-84.5 -27zM171 16q41 0 92.5 40t78.5 96l57 286q-40 25 -98 25q-96 0 -161.5 -90.5
t-65.5 -217.5q0 -67 26 -103t71 -36z" />
    <glyph glyph-name="e" unicode="e" horiz-adv-x="460" 
d="M198 -12q-71 0 -113.5 42t-42.5 130q0 144 74 237t176 93q60 0 98.5 -34.5t38.5 -85.5q0 -67 -46 -99.5t-157 -32.5h-147q-21 -114 13 -168t110 -54q41 0 92 17.5t76 44.5l5 -43q-24 -17 -77 -32t-100 -15zM85 266h148q88 0 126 24t38 75q0 43 -29.5 70t-79.5 27
q-60 0 -121.5 -52.5t-81.5 -143.5z" />
    <glyph glyph-name="f" unicode="f" horiz-adv-x="274" 
d="M51 0l87 450h-74l6 28h74l12 64q17 95 61 137.5t101 42.5q58 0 82 -24l-8 -36q-19 32 -78 32q-46 0 -80 -37t-48 -115l-12 -64h114l-7 -28h-113l-64 -330q-19 -98 -4 -120h-49z" />
    <glyph glyph-name="g" unicode="g" horiz-adv-x="475" 
d="M150 -200q-76 0 -150 49l28 43q12 -29 44.5 -46.5t77.5 -17.5q68 0 105.5 41.5t61.5 141.5l19 79h-3q-33 -45 -77.5 -73.5t-87.5 -28.5q-58 0 -92.5 42.5t-34.5 124.5q0 141 75.5 239.5t190.5 98.5q54 0 108 -27l11 20h23l-102 -473q-25 -116 -69.5 -164.5t-127.5 -48.5z
M171 16q44 0 97.5 44t79.5 104l58 270q-44 29 -105 29q-96 0 -161.5 -90.5t-65.5 -217.5q0 -67 26 -103t71 -36z" />
    <glyph glyph-name="h" unicode="h" horiz-adv-x="498" 
d="M40 0l113 569q20 103 9 143h48l-61 -308h2q29 34 77.5 61t96.5 27q58 0 91 -41t17 -120l-42 -211q-19 -97 -4 -120h-50l66 327q15 76 -11.5 106.5t-73.5 30.5q-46 0 -95 -31.5t-83 -75.5l-46 -237q-19 -97 -4 -120h-50z" />
    <glyph glyph-name="i" unicode="i" horiz-adv-x="226" 
d="M176 592q-29 0 -23 34q6 32 35 32t23 -32q-6 -34 -35 -34zM49 0l69 335q20 95 7 143h52l-74 -358q-19 -89 -1 -120h-53z" />
    <glyph glyph-name="j" unicode="j" horiz-adv-x="191" 
d="M161 592q-29 0 -23 34q6 32 35 32t23 -32q-6 -34 -35 -34zM-77 -200q-31 0 -63 15l20 44q10 -31 49 -31q41 0 61.5 29.5t33.5 94.5l76 391q17 88 4 135h52l-102 -526q-17 -87 -48 -119.5t-83 -32.5z" />
    <glyph glyph-name="k" unicode="k" horiz-adv-x="450" 
d="M42 0l113 569q19 97 7 143h52l-67 -335q27 48 75.5 81.5t106.5 33.5q49 0 82 -30t33 -77q0 -72 -59.5 -115.5t-147.5 -54.5l67 -111q28 -47 45 -68t40 -36h-57l-132 220v15q96 9 153.5 46t57.5 100q0 38 -24 60.5t-62 22.5q-57 0 -109.5 -45t-83.5 -120l-36 -179
q-19 -93 -1 -120h-53z" />
    <glyph glyph-name="l" unicode="l" horiz-adv-x="227" 
d="M50 0l113 569q19 97 7 143h52l-118 -592q-19 -92 -1 -120h-53z" />
    <glyph glyph-name="m" unicode="m" horiz-adv-x="765" 
d="M40 0l67 335q20 102 9 143h42l-12 -77h4q32 37 75.5 65t89.5 28q44 0 74.5 -26t34.5 -76q85 102 175 102q58 0 89.5 -41t14.5 -120l-45 -213q-21 -96 -4 -120h-48l67 329q16 75 -10 106t-71 31q-84 0 -168 -108l-50 -238q-20 -97 -4 -120h-48l67 329q16 75 -10 106
t-71 31q-44 0 -88 -32t-80 -80l-48 -234q-19 -97 -4 -120h-48z" />
    <glyph glyph-name="n" unicode="n" horiz-adv-x="496" 
d="M40 0l67 335q20 102 9 143h42l-11 -72h4q30 34 78.5 61t96.5 27q58 0 91.5 -41t16.5 -120l-45 -213q-20 -97 -4 -120h-48l67 329q16 75 -11 106t-74 31q-46 0 -95 -31.5t-83 -75.5l-49 -239q-20 -96 -4 -120h-48z" />
    <glyph glyph-name="o" unicode="o" horiz-adv-x="507" 
d="M216 -12q-78 0 -123.5 49.5t-45.5 138.5q0 142 64.5 228t179.5 86q78 0 123.5 -50t45.5 -140q0 -142 -64 -227t-180 -85zM219 16q97 0 152.5 78t55.5 206q0 76 -36.5 119t-102.5 43q-97 0 -152.5 -79t-55.5 -207q0 -75 36 -117.5t103 -42.5z" />
    <glyph glyph-name="p" unicode="p" horiz-adv-x="488" 
d="M3 -200l106 535q20 98 7 143h52l-20 -95l1 -2q32 49 79 80.5t92 31.5q58 0 92.5 -42.5t34.5 -124.5q0 -141 -75.5 -239.5t-190.5 -98.5q-51 0 -105 25l-19 -93q-18 -93 -1 -120h-53zM187 18q96 0 161.5 90.5t65.5 217.5q0 67 -26 103t-71 36t-101 -46t-81 -107l-53 -265
q43 -29 105 -29z" />
    <glyph glyph-name="q" unicode="q" horiz-adv-x="485" 
d="M279 -200l59 298h-1q-31 -48 -78 -79t-91 -31q-58 0 -92.5 42.5t-34.5 124.5q0 141 75.5 239.5t190.5 98.5q50 0 104 -25l4 18h31l-113 -566q-18 -93 -1 -120h-53zM171 16q45 0 101 46.5t80 107.5l53 265q-42 28 -104 28q-96 0 -161.5 -90.5t-65.5 -217.5q0 -67 26 -103
t71 -36z" />
    <glyph glyph-name="r" unicode="r" horiz-adv-x="320" 
d="M42 0l67 335q21 103 7 143h49l-16 -94h1q27 46 68 77t78 31q29 0 54 -17l-18 -33q-16 22 -42 22q-34 0 -77 -39.5t-77 -107.5l-38 -187q-21 -104 1 -130h-57z" />
    <glyph glyph-name="s" unicode="s" horiz-adv-x="401" 
d="M156 -12q-82 0 -158 49l29 43q11 -26 48.5 -45t86.5 -19q61 0 103.5 33.5t42.5 85.5q0 42 -26.5 65t-69.5 37l-19 6q-21 7 -35.5 13.5t-33.5 19.5t-29.5 34t-10.5 49q0 55 47 94t115 39q40 0 77 -14t57 -32l-26 -38q-9 25 -39.5 40.5t-73.5 15.5q-52 0 -90 -29.5
t-38 -71.5q0 -39 24 -59.5t65 -33.5l19 -6q116 -36 116 -126q0 -64 -51 -107t-130 -43z" />
    <glyph glyph-name="t" unicode="t" horiz-adv-x="344" 
d="M152 -12q-53 0 -72.5 36t-6.5 100l68 328h-76l6 26h76l18 85h27l-17 -85h147l-6 -26h-147l-68 -330q-22 -108 53 -108q25 0 52.5 12t34.5 27l16 -36q-52 -29 -105 -29z" />
    <glyph glyph-name="u" unicode="u" horiz-adv-x="500" 
d="M173 -12q-65 0 -90.5 48.5t-7.5 141.5l35 180q6 33 8.5 52t1 38t-9.5 30h53l-58 -300q-32 -162 73 -162q44 0 97 35.5t96 89.5l42 217q18 94 3 120h50l-69 -358q-17 -97 -6 -120h-44l16 91h-3q-91 -103 -187 -103z" />
    <glyph glyph-name="v" unicode="v" horiz-adv-x="431" 
d="M161 0l-63 373q-13 81 -37 105h46l57 -330q17 -98 18 -116h4q33 67 116 210t86 149q22 40 26.5 57.5t-2.5 29.5h50q-16 -38 -125 -227t-137 -251h-39z" />
    <glyph glyph-name="w" unicode="w" horiz-adv-x="644" 
d="M125 0l-34 373q-7 78 -25 105h45l29 -330q8 -92 8 -116h8q20 50 54.5 123.5t69.5 146t44 92.5q29 64 25 84h50l23 -330q5 -72 5 -116h8q20 51 75.5 160.5t91.5 188.5t29 97h39q-11 -37 -102.5 -221.5t-116.5 -256.5h-47l-26 373q-4 66 -6 73h-1q-7 -21 -27 -66
q-19 -42 -61.5 -130t-69 -147.5t-41.5 -102.5h-47z" />
    <glyph glyph-name="x" unicode="x" horiz-adv-x="425" 
d="M306 77q19 -41 26.5 -53t20.5 -24h-43l-91 194q-1 2 -7 16t-10 21l-26 -32l-106 -129q-44 -54 -43 -70h-47l212 254l-69 147q-20 42 -26.5 53t-20.5 24h42l79 -172l18 -39q4 6 13.5 16.5t13.5 15.5l90 109q42 50 42 70h47l-195 -234z" />
    <glyph glyph-name="y" unicode="y" horiz-adv-x="423" 
d="M-19 -200q-27 0 -47 8l19 43q11 -23 39 -23q82 0 156 134l14 25l-64 380q-9 51 -16 73.5t-21 37.5h45l50 -284q17 -100 25 -166h4q29 60 88 169l103 191q23 42 30 60.5t-1 29.5h49l-283 -529q-80 -149 -190 -149z" />
    <glyph glyph-name="z" unicode="z" horiz-adv-x="419" 
d="M413 478l-5 -27l-378 -423h195q62 0 84.5 3t39.5 15l-9 -46h-354l5 27l377 423h-163q-56 0 -76 -3t-37 -15l9 46h312z" />
    <glyph glyph-name="braceleft" unicode="{" horiz-adv-x="326" 
d="M204 -157l-36 5q-47 7 -70.5 24.5t-23.5 57.5q0 36 33.5 138.5t33.5 137.5q0 70 -87 55l7 34q53 -10 80 15t35 64q10 49 13 113.5t8 92.5q13 65 46.5 87.5t89.5 30.5l38 5l-7 -35l-36 4q-42 5 -65.5 -16t-33.5 -76q-6 -31 -9 -93.5t-13 -112.5q-16 -81 -83 -95v-2
q47 -10 47 -68q0 -44 -33 -146.5t-33 -134.5q0 -61 68 -54l38 4z" />
    <glyph glyph-name="bar" unicode="|" horiz-adv-x="435" 
d="M111 -143q15 22 26 80l133 689q10 53 4 70h50q-15 -22 -24 -70l-133 -689q-12 -64 -6 -80h-50z" />
    <glyph glyph-name="braceright" unicode="}" horiz-adv-x="326" 
d="M-32 -157l7 35l36 -4q42 -5 65.5 16t33.5 76q6 31 9 93.5t13 112.5q16 81 83 95v2q-47 10 -47 68q0 43 33 146t33 135q0 61 -68 54l-38 -4l7 35l36 -5q47 -7 70.5 -24.5t23.5 -57.5q0 -36 -33.5 -138.5t-33.5 -137.5q0 -70 87 -55l-7 -34q-53 10 -80 -15t-35 -64
q-10 -49 -13 -113.5t-8 -92.5q-6 -34 -19.5 -57.5t-34 -35t-38 -16.5t-44.5 -9z" />
    <glyph glyph-name="asciitilde" unicode="~" horiz-adv-x="403" 
d="M271 278q-32 0 -76.5 41.5t-65.5 41.5q-50 0 -61 -62l-28 2q7 38 32.5 64.5t62.5 26.5q25 0 50.5 -21t48.5 -41.5t42 -20.5q47 0 60 62l27 -2q-7 -37 -32 -64t-60 -27z" />
    <glyph glyph-name="exclamdown" unicode="&#xa1;" horiz-adv-x="238" 
d="M170 498q13 0 22.5 -8t9.5 -22q0 -19 -14.5 -33.5t-33.5 -14.5q-13 0 -22.5 8.5t-9.5 22.5q0 19 14.5 33t33.5 14zM149 314l-70 -361q-21 -104 -9 -137h-66q15 20 23.5 46t21.5 91l70 361h30z" />
    <glyph glyph-name="cent" unicode="&#xa2;" horiz-adv-x="462" 
d="M314 490q23 0 45 -4.5t34 -9t30.5 -13t23.5 -10.5l-29 -43q-15 29 -40.5 40.5t-69.5 11.5l-86 -446q97 0 145 52l11 -43q-6 -2 -29.5 -9.5t-40.5 -13t-43 -10t-49 -4.5q-12 -69 -7 -86l-47 1q14 23 26 86q-134 13 -134 159q0 140 64 234t167 106q13 72 8 89h48
q-15 -26 -27 -87zM86 153q0 -122 108 -135l86 442q-86 -14 -140 -98.5t-54 -208.5z" />
    <glyph glyph-name="sterling" unicode="&#xa3;" horiz-adv-x="498" 
d="M351 612q56 0 115 -31l-20 -48q-9 24 -36.5 37.5t-63.5 13.5q-73 0 -116.5 -57.5t-43.5 -153.5q0 -34 10 -90h107q39 0 58 8l-9 -44q-16 8 -54 8h-97q7 -37 7 -64q0 -119 -84 -163h128q71 0 97 2.5t45 12.5l-9 -48q-37 5 -138 5h-212q9 11 13 21l1 7q56 0 90.5 44.5
t34.5 115.5q0 28 -7 67h-20q-39 0 -58 -8l9 44q16 -8 54 -8h10q-9 47 -9 87q0 109 54.5 175.5t143.5 66.5z" />
    <glyph glyph-name="currency" unicode="&#xa4;" horiz-adv-x="555" 
d="M447 314q0 -83 -62 -142q41 -51 60 -58l-40 -35q-3 20 -44 72q-52 -38 -116 -38q-63 0 -101 38q-62 -54 -72 -72l-26 35q22 7 82 57q-20 31 -20 73q0 83 62 143q-38 49 -60 58l41 34q3 -20 43 -72q52 38 115 38t101 -38q62 53 72 72l27 -34q-22 -9 -83 -57q21 -32 21 -74
zM141 246q0 -48 29.5 -75.5t80.5 -27.5q68 0 115 49t47 120q0 48 -29.5 75.5t-79.5 27.5q-69 0 -116 -49t-47 -120z" />
    <glyph glyph-name="yen" unicode="&#xa5;" horiz-adv-x="488" 
d="M425 600h57q-29 -25 -86 -99l-173 -223h79q41 0 58 10l-7 -38h-147l-14 -70h147l-7 -38q-14 10 -54 10h-91l-10 -52q-14 -78 -5 -100h-62q21 26 35 100l10 52h-91q-41 0 -58 -10l7 38h147l14 70h-147l7 38q14 -10 54 -10h79l-85 223q-28 70 -48 99h59q-8 -23 17 -84
l88 -224l177 224q49 63 50 84z" />
    <glyph glyph-name="brokenbar" unicode="&#xa6;" horiz-adv-x="435" 
d="M208 357q15 20 26 80l36 189q10 53 4 70h50q-13 -21 -23 -70l-37 -189q-12 -64 -6 -80h-50zM111 -143q15 25 26 80l36 189q10 54 4 70h50q-14 -17 -24 -70l-36 -189q-12 -64 -6 -80h-50z" />
    <glyph glyph-name="section" unicode="&#xa7;" horiz-adv-x="627" 
d="M222 -95q-50 0 -89.5 15.5t-55.5 33.5l16 83q7 -43 44.5 -73t90.5 -30q59 0 106.5 51.5t47.5 116.5q0 35 -20 69.5t-49 63t-57.5 58.5t-48.5 69.5t-20 82.5q0 93 66.5 158.5t159.5 65.5q48 0 85.5 -16t51.5 -33l-15 -81q-3 44 -40.5 72.5t-87.5 28.5q-49 0 -88.5 -53.5
t-39.5 -118.5q0 -37 20 -71t48.5 -61.5t57 -56.5t48.5 -67t20 -81q0 -98 -71 -162t-180 -64zM350 -38q42 24 67 68t25 93q0 39 -20 75t-48.5 64t-57 56.5t-48.5 65t-20 76.5q0 36 15 77.5t39 71.5q-38 -25 -61 -67.5t-23 -87.5q0 -40 20 -77t49 -67t57.5 -59.5t48.5 -66
t20 -75.5q0 -37 -17 -77t-46 -70z" />
    <glyph glyph-name="dieresis" unicode="&#xa8;" horiz-adv-x="340" 
d="M182 602q-11 0 -18.5 7.5t-7.5 18.5q0 15 12 26.5t27 11.5q11 0 18.5 -7.5t7.5 -18.5q0 -14 -11.5 -26t-27.5 -12zM298 602q-11 0 -18.5 7.5t-7.5 18.5q0 15 12 26.5t27 11.5q11 0 18.5 -7.5t7.5 -18.5q0 -14 -11.5 -26t-27.5 -12z" />
    <glyph glyph-name="copyright" unicode="&#xa9;" horiz-adv-x="584" 
d="M243 -11q-91 0 -149 56.5t-58 144.5q0 123 89 211.5t216 88.5q91 0 149 -56.5t58 -143.5q0 -123 -89 -212t-216 -89zM249 19q106 0 186 79.5t80 185.5q0 77 -50.5 126.5t-129.5 49.5q-107 0 -186.5 -79.5t-79.5 -185.5q0 -77 50.5 -126.5t129.5 -49.5zM267 95
q-98 0 -98 96q0 86 43 140t111 54q11 0 67 -8l-9 -45q-21 25 -63 25q-52 0 -84.5 -44.5t-32.5 -115.5q0 -74 71 -74q41 0 73 25l-9 -45q-56 -8 -69 -8z" />
    <glyph glyph-name="ordfeminine" unicode="&#xaa;" horiz-adv-x="365" 
d="M120 272q-42 0 -68.5 20.5t-26.5 59.5q0 66 54 102.5t152 36.5h57l6 33q10 56 -7.5 83t-67.5 27q-34 0 -66 -15t-49 -34l-9 38q8 2 30.5 12.5t49 18.5t51.5 8q62 0 87 -35.5t12 -102.5l-29 -149q-13 -72 -5 -94h-44l13 67h-2q-58 -76 -138 -76zM126 299q70 0 142 91
l14 73h-57q-167 0 -167 -106q0 -28 18.5 -43t49.5 -15z" />
    <glyph glyph-name="guillemotleft" unicode="&#xab;" horiz-adv-x="441" 
d="M182 96q-47 100 -130 141l6 30q102 42 184 141l14 -15q-75 -93 -167 -141q76 -54 112 -143zM322 96q-47 100 -130 141l6 30q102 42 184 141l14 -15q-75 -93 -167 -141q76 -54 112 -143z" />
    <glyph glyph-name="logicalnot" unicode="&#xac;" horiz-adv-x="389" 
d="M341 325q-10 -18 -18 -60l-7 -34q-8 -38 -3 -60h-49q14 21 22 60l12 62h-156q-73 0 -102 -10l9 53q24 -11 99 -11h193z" />
    <glyph glyph-name="uni00AD" unicode="&#xad;" horiz-adv-x="314" 
d="M42 241l6 29h230l-6 -29h-230z" />
    <glyph glyph-name="registered" unicode="&#xae;" horiz-adv-x="566" 
d="M369 695q84 0 139 -54.5t55 -135.5q0 -116 -82 -197t-203 -81q-86 0 -140.5 54t-54.5 136q0 116 82 197t204 81zM284 256q103 0 175.5 71.5t72.5 172.5q0 71 -47.5 118.5t-121.5 47.5q-104 0 -176.5 -71t-72.5 -173q0 -71 47.5 -118.5t122.5 -47.5zM352 605
q40 0 61 -17.5t21 -48.5q0 -40 -25.5 -70t-65.5 -38l25 -55q17 -40 30 -54h-50q4 15 -9 44l-29 63h-48l-12 -56q-7 -31 -3 -51h-45q12 21 18 51l35 181q6 34 2 51h95zM323 456q36 0 58 21.5t22 56.5q0 43 -56 43h-57l-24 -121h57z" />
    <glyph glyph-name="macron" unicode="&#xaf;" horiz-adv-x="346" 
d="M152 611l6 30h186l-6 -30h-186z" />
    <glyph glyph-name="degree" unicode="&#xb0;" horiz-adv-x="368" 
d="M159 412q-48 0 -78.5 30.5t-30.5 76.5q0 60 49 108t111 48q47 0 77.5 -30.5t30.5 -75.5q0 -61 -49 -109t-110 -48zM164 441q47 0 84.5 37.5t37.5 85.5q0 36 -23 59t-59 23q-48 0 -85.5 -37.5t-37.5 -85.5q0 -35 23.5 -58.5t59.5 -23.5z" />
    <glyph glyph-name="plusminus" unicode="&#xb1;" horiz-adv-x="476" 
d="M334 325q74 0 102 11l-11 -53q-25 10 -97 10h-56l-7 -36q-15 -74 -10 -100h-53q18 29 31 100l7 36h-56q-74 0 -102 -10l9 53q23 -11 99 -11h56l7 36q15 74 8 100h53q-15 -30 -29 -100l-7 -36h56zM148 110h144q75 0 102 11l-11 -53q-24 10 -97 10h-144q-73 0 -102 -10
l9 53q24 -11 99 -11z" />
    <glyph glyph-name="uni00B2" unicode="&#xb2;" horiz-adv-x="352" 
d="M87 395l4 23q130 88 187.5 146t57.5 117q0 33 -18.5 51.5t-48.5 18.5q-32 0 -62 -17.5t-48 -43.5l-16 35q6 2 28 16t48.5 25t54.5 11q40 0 66.5 -24.5t26.5 -66.5q0 -69 -58 -128.5t-171 -136.5h122q58 0 85 14l-8 -40h-250z" />
    <glyph glyph-name="uni00B3" unicode="&#xb3;" horiz-adv-x="393" 
d="M250 383q-32 0 -55.5 10.5t-43 25t-32.5 18.5l31 38q30 -66 105 -66q44 0 76 28.5t32 67.5q0 66 -130 66l5 24q64 0 104.5 27.5t40.5 71.5q0 27 -18.5 42t-48.5 15q-56 0 -110 -54l-13 38q9 2 52 22t76 20q40 0 66.5 -20t26.5 -57q0 -39 -26.5 -70.5t-71.5 -44.5
q34 -5 55.5 -24.5t21.5 -50.5q0 -52 -42 -89.5t-101 -37.5z" />
    <glyph glyph-name="acute" unicode="&#xb4;" horiz-adv-x="318" 
d="M157 574l-9 16q94 64 162 154l22 -23q-69 -86 -175 -147z" />
    <glyph glyph-name="uni00B5" unicode="&#xb5;" horiz-adv-x="517" 
d="M476 478l-73 -378q-15 -78 -7 -100h-46q9 43 23 102h-3q-82 -114 -188 -114q-75 0 -98 67l-21 -105q-14 -71 -2 -100h-62q12 15 18.5 34t15.5 66l63 320l21 108q15 77 6 100h43l-40 -208l-23 -116l-1 -6q-12 -60 12 -95t76 -35q100 0 192 132l45 228q15 73 9 100h40z" />
    <glyph glyph-name="paragraph" unicode="&#xb6;" horiz-adv-x="493" 
d="M97 -71l10 50q98 -26 124 106l45 233q-31 -11 -65 -11q-69 0 -104.5 37.5t-35.5 97.5q0 94 67.5 156t170.5 62h103l-6 -35q-15 6 -39 6l-106 -546q-14 -73 -55.5 -114.5t-108.5 -41.5zM226 336q28 0 56 11l55 284h-53z" />
    <glyph glyph-name="periodcentered" unicode="&#xb7;" horiz-adv-x="220" 
d="M117 274q-17 0 -27.5 10.5t-10.5 26.5q0 23 17.5 41t39.5 18q16 0 26.5 -10.5t10.5 -27.5q0 -23 -17 -40.5t-39 -17.5z" />
    <glyph glyph-name="cedilla" unicode="&#xb8;" horiz-adv-x="304" 
d="M21 -200l-1 26q125 9 125 58q0 20 -16 30.5t-53 15.5l31 73h25l-24 -55q35 -7 51.5 -20.5t16.5 -39.5q0 -46 -35.5 -64t-119.5 -24z" />
    <glyph glyph-name="uni00B9" unicode="&#xb9;" horiz-adv-x="364" 
d="M161 395l4 23l96 10l54 277h-85l5 22q73 0 120 38l-66 -337l87 -10l-4 -23h-211z" />
    <glyph glyph-name="ordmasculine" unicode="&#xba;" horiz-adv-x="368" 
d="M146 272q-53 0 -84.5 31.5t-31.5 96.5q0 111 55 186.5t137 75.5q53 0 84.5 -31.5t31.5 -97.5q0 -112 -55 -186.5t-137 -74.5zM152 300q65 0 110 65.5t45 162.5q0 106 -90 106q-65 0 -110.5 -66t-45.5 -163q0 -105 91 -105z" />
    <glyph glyph-name="guillemotright" unicode="&#xbb;" horiz-adv-x="462" 
d="M59 96l-14 13q75 93 168 143q-76 52 -113 141l20 15q46 -100 130 -141l-6 -30q-102 -43 -185 -141zM219 96l-14 13q75 93 168 143q-76 52 -113 141l20 15q46 -100 130 -141l-6 -30q-102 -43 -185 -141z" />
    <glyph glyph-name="onequarter" unicode="&#xbc;" horiz-adv-x="787" 
d="M208 -12l494 680h30l-494 -680h-30zM86 266l4 23l96 10l54 277h-85l5 22q73 0 120 38l-66 -337l87 -10l-4 -23h-211zM607 0q19 27 31 86l5 26h-176l4 22l232 256h22l-49 -252q42 0 61 13l-8 -39h-58l-5 -26q-12 -63 -3 -86h-56zM506 138h142l39 202z" />
    <glyph glyph-name="onehalf" unicode="&#xbd;" horiz-adv-x="848" 
d="M193 -12l494 680h30l-494 -680h-30zM86 266l4 23l96 10l54 277h-85l5 22q73 0 120 38l-66 -337l87 -10l-4 -23h-211zM506 0l4 23q130 88 187.5 146t57.5 117q0 33 -18.5 51.5t-48.5 18.5q-32 0 -62 -17.5t-48 -43.5l-16 35q6 2 28 16t48.5 25t54.5 11q40 0 66.5 -24.5
t26.5 -66.5q0 -69 -58 -128.5t-171 -136.5h122q58 0 85 14l-8 -40h-250z" />
    <glyph glyph-name="threequarters" unicode="&#xbe;" horiz-adv-x="814" 
d="M239 -12l494 680h30l-494 -680h-30zM225 254q-32 0 -55.5 10.5t-43 25t-32.5 18.5l31 38q30 -66 105 -66q44 0 76 28.5t32 67.5q0 66 -130 66l5 24q64 0 104.5 27.5t40.5 71.5q0 27 -18.5 42t-48.5 15q-56 0 -110 -54l-13 38q9 2 52 22t76 20q40 0 66.5 -20t26.5 -57
q0 -39 -26.5 -70.5t-71.5 -44.5q34 -5 55.5 -24.5t21.5 -50.5q0 -52 -42 -89.5t-101 -37.5zM634 0q19 27 31 86l5 26h-176l4 22l232 256h22l-49 -252q41 0 61 13l-8 -39h-58l-5 -26q-12 -63 -3 -86h-56zM533 138h142l39 202z" />
    <glyph glyph-name="questiondown" unicode="&#xbf;" horiz-adv-x="396" 
d="M288 494q31 0 31 -28q0 -19 -13 -32.5t-32 -13.5q-31 0 -31 28q0 19 13 32.5t32 13.5zM271 300q-12 -60 -40 -104t-59.5 -69t-61.5 -48.5t-49.5 -58.5t-19.5 -84q0 -45 28 -71.5t77 -26.5q42 0 84.5 20t62.5 48l19 -48q-14 -1 -72.5 -24.5t-99.5 -23.5q-60 0 -96 32
t-36 88q0 55 20 94t50 64t62 49t60 65t39 98h32z" />
    <glyph glyph-name="Agrave" unicode="&#xc0;" horiz-adv-x="553" 
d="M392 720q-84 62 -118 147l28 21q36 -96 103 -154zM-32 0q28 28 72 109l257 468q5 10 12.5 23.5t10 18.5t6 13t5 14t2.5 14h50q-6 -21 4 -83l75 -468q12 -76 31 -109h-64q13 22 1 104l-18 119l-278 -1l-64 -118q-23 -42 -31 -63.5t-6 -40.5h-65zM150 250l258 1l-56 371h-2
z" />
    <glyph glyph-name="Aacute" unicode="&#xc1;" horiz-adv-x="553" 
d="M348 720l-9 16q94 64 162 154l22 -23q-69 -86 -175 -147zM-32 0q28 28 72 109l257 468q5 10 12.5 23.5t10 18.5t6 13t5 14t2.5 14h50q-6 -21 4 -83l75 -468q12 -76 31 -109h-64q13 22 1 104l-18 119l-278 -1l-64 -118q-23 -42 -31 -63.5t-6 -40.5h-65zM150 250l258 1
l-56 371h-2z" />
    <glyph glyph-name="Acircumflex" unicode="&#xc2;" horiz-adv-x="553" 
d="M251 720l-10 16q83 65 146 146h28q36 -88 90 -146l-16 -16q-54 51 -89 130h-4q-60 -72 -145 -130zM-32 0q28 28 72 109l257 468q5 10 12.5 23.5t10 18.5t6 13t5 14t2.5 14h50q-6 -21 4 -83l75 -468q12 -76 31 -109h-64q13 22 1 104l-18 119l-278 -1l-64 -118
q-23 -42 -31 -63.5t-6 -40.5h-65zM150 250l258 1l-56 371h-2z" />
    <glyph glyph-name="Atilde" unicode="&#xc3;" horiz-adv-x="553" 
d="M441 735q-21 0 -38.5 13.5t-27 30.5t-23.5 30.5t-29 13.5q-51 0 -59 -68l-36 2q16 42 38.5 66t62.5 24q21 0 38 -13.5t27 -30.5t24 -30.5t29 -13.5q49 0 59 68l35 -2q-17 -42 -39 -66t-61 -24zM-32 0q28 28 72 109l257 468q5 10 12.5 23.5t10 18.5t6 13t5 14t2.5 14h50
q-6 -21 4 -83l75 -468q12 -76 31 -109h-64q13 22 1 104l-18 119l-278 -1l-64 -118q-23 -42 -31 -63.5t-6 -40.5h-65zM150 250l258 1l-56 371h-2z" />
    <glyph glyph-name="Adieresis" unicode="&#xc4;" horiz-adv-x="553" 
d="M319 748q-11 0 -18.5 7.5t-7.5 18.5q0 15 12 26.5t27 11.5q11 0 18.5 -7.5t7.5 -18.5q0 -14 -12 -26t-27 -12zM435 748q-11 0 -18.5 7.5t-7.5 18.5q0 15 12 26.5t27 11.5q11 0 18.5 -7.5t7.5 -18.5q0 -14 -12 -26t-27 -12zM-32 0q28 28 72 109l257 468q5 10 12.5 23.5
t10 18.5t6 13t5 14t2.5 14h50q-6 -21 4 -83l75 -468q12 -76 31 -109h-64q13 22 1 104l-18 119l-278 -1l-64 -118q-23 -42 -31 -63.5t-6 -40.5h-65zM150 250l258 1l-56 371h-2z" />
    <glyph glyph-name="Aring" unicode="&#xc5;" horiz-adv-x="553" 
d="M371 720q-31 0 -51 16t-20 44q0 38 29 65t71 27q32 0 51.5 -16t19.5 -44q0 -38 -29 -65t-71 -27zM376 744q29 0 48 18.5t19 46.5q0 39 -47 39q-30 0 -49 -18t-19 -47q0 -39 48 -39zM-32 0q28 28 72 109l257 468q5 10 12.5 23.5t10 18.5t6 13t5 14t2.5 14h50q-6 -21 4 -83
l75 -468q12 -76 31 -109h-64q13 22 1 104l-18 119l-278 -1l-64 -118q-23 -42 -31 -63.5t-6 -40.5h-65zM150 250l258 1l-56 371h-2z" />
    <glyph glyph-name="AE" unicode="&#xc6;" horiz-adv-x="793" 
d="M701 -7q-27 7 -130 7h-228q20 32 34 100l25 126h-231l-81 -108q-41 -55 -52.5 -78t-11.5 -40h-66q38 35 108 129l309 417q66 91 71 114h259q79 0 114 6l-9 -49q-31 15 -110 15h-189l-52 -266h129q93 0 123 10l-9 -48q-27 10 -119 10h-129l-61 -310h181q103 0 134 15z
M191 254h216l73 376h-9z" />
    <glyph glyph-name="Ccedilla" unicode="&#xc7;" horiz-adv-x="562" 
d="M402 672q96 0 171 -56l-28 -43q-12 27 -55 48t-94 21q-130 0 -215 -120t-85 -303q0 -102 46.5 -151.5t131.5 -49.5q124 0 191 67l11 -49q-93 -42 -181 -47l-18 -41q35 -7 51.5 -20.5t16.5 -39.5q0 -46 -35.5 -64t-119.5 -24l-1 26q125 9 125 58q0 20 -16 30.5t-53 15.5
l25 58h-1q-98 0 -153 56.5t-55 170.5q0 197 96.5 327t244.5 130z" />
    <glyph glyph-name="Egrave" unicode="&#xc8;" horiz-adv-x="478" 
d="M363 718q-84 62 -118 147l28 21q36 -96 103 -154zM386 -5q-37 5 -198 5h-168q13 15 18.5 31.5t15.5 67.5l90 461q9 45 10 61t-6 39h160q158 0 193 5l-8 -45q-22 12 -190 12h-113l-52 -266h101q137 0 162 12l-10 -52q-22 12 -157 12h-101l-61 -310h121q112 0 148.5 2
t53.5 10z" />
    <glyph glyph-name="Eacute" unicode="&#xc9;" horiz-adv-x="478" 
d="M319 718l-9 16q94 64 162 154l22 -23q-69 -86 -175 -147zM386 -5q-37 5 -198 5h-168q13 15 18.5 31.5t15.5 67.5l90 461q9 45 10 61t-6 39h160q158 0 193 5l-8 -45q-22 12 -190 12h-113l-52 -266h101q137 0 162 12l-10 -52q-22 12 -157 12h-101l-61 -310h121
q112 0 148.5 2t53.5 10z" />
    <glyph glyph-name="Ecircumflex" unicode="&#xca;" horiz-adv-x="478" 
d="M222 718l-10 16q83 65 146 146h28q36 -88 90 -146l-16 -16q-54 51 -89 130h-4q-60 -72 -145 -130zM386 -5q-37 5 -198 5h-168q13 15 18.5 31.5t15.5 67.5l90 461q9 45 10 61t-6 39h160q158 0 193 5l-8 -45q-22 12 -190 12h-113l-52 -266h101q137 0 162 12l-10 -52
q-22 12 -157 12h-101l-61 -310h121q112 0 148.5 2t53.5 10z" />
    <glyph glyph-name="Edieresis" unicode="&#xcb;" horiz-adv-x="478" 
d="M290 746q-11 0 -18.5 7.5t-7.5 18.5q0 15 12 26.5t27 11.5q11 0 18.5 -7.5t7.5 -18.5q0 -14 -11.5 -26t-27.5 -12zM406 746q-11 0 -18.5 7.5t-7.5 18.5q0 15 12 26.5t27 11.5q11 0 18.5 -7.5t7.5 -18.5q0 -14 -11.5 -26t-27.5 -12zM386 -5q-37 5 -198 5h-168
q13 15 18.5 31.5t15.5 67.5l90 461q9 45 10 61t-6 39h160q158 0 193 5l-8 -45q-22 12 -190 12h-113l-52 -266h101q137 0 162 12l-10 -52q-22 12 -157 12h-101l-61 -310h121q112 0 148.5 2t53.5 10z" />
    <glyph glyph-name="Igrave" unicode="&#xcc;" horiz-adv-x="197" 
d="M213 720q-84 62 -118 147l28 21q36 -96 103 -154zM20 0q20 23 35 100l90 460q9 47 10 61t-7 39h63q-19 -25 -34 -100l-90 -460q-15 -74 -4 -100h-63z" />
    <glyph glyph-name="Iacute" unicode="&#xcd;" horiz-adv-x="197" 
d="M169 720l-9 16q94 64 162 154l22 -23q-69 -86 -175 -147zM20 0q20 23 35 100l90 460q9 47 10 61t-7 39h63q-19 -25 -34 -100l-90 -460q-15 -74 -4 -100h-63z" />
    <glyph glyph-name="Icircumflex" unicode="&#xce;" horiz-adv-x="197" 
d="M72 720l-10 16q83 65 146 146h28q36 -88 90 -146l-16 -16q-54 51 -89 130h-4q-60 -72 -145 -130zM20 0q20 23 35 100l90 460q9 47 10 61t-7 39h63q-19 -25 -34 -100l-90 -460q-15 -74 -4 -100h-63z" />
    <glyph glyph-name="Idieresis" unicode="&#xcf;" horiz-adv-x="197" 
d="M140 748q-11 0 -18.5 7.5t-7.5 18.5q0 15 12 26.5t27 11.5q11 0 18.5 -7.5t7.5 -18.5q0 -14 -11.5 -26t-27.5 -12zM256 748q-11 0 -18.5 7.5t-7.5 18.5q0 15 12 26.5t27 11.5q11 0 18.5 -7.5t7.5 -18.5q0 -14 -11.5 -26t-27.5 -12zM20 0q20 23 35 100l90 460q9 47 10 61
t-7 39h63q-19 -25 -34 -100l-90 -460q-15 -74 -4 -100h-63z" />
    <glyph glyph-name="Eth" unicode="&#xd0;" horiz-adv-x="597" 
d="M301 660q124 0 194 -63.5t70 -175.5q0 -199 -103.5 -310t-288.5 -111h-143q13 15 18.5 31.5t15.5 68.5l43 218h-60l6 28h59l42 214q9 45 10 61t-6 39h143zM178 28q162 0 257.5 102.5t95.5 286.5q0 101 -63 158t-176 57h-92l-56 -286h161l-6 -28h-160l-57 -290h96z" />
    <glyph glyph-name="Ntilde" unicode="&#xd1;" horiz-adv-x="596" 
d="M468 735q-21 0 -38.5 13.5t-27 30.5t-23.5 30.5t-29 13.5q-51 0 -59 -68l-36 2q16 42 38.5 66t62.5 24q21 0 38 -13.5t27 -30.5t24 -30.5t29 -13.5q49 0 59 68l35 -2q-17 -42 -39 -66t-61 -24zM20 0q19 26 34 100l90 460q10 50 10.5 68.5t-6.5 31.5h52l247 -609h3
q6 60 22 141l72 368q13 70 7 91q-1 5 -3 9h62q-19 -26 -34 -100l-90 -460q-14 -68 -12 -100h-41l-249 614h-3q-7 -64 -22 -140l-73 -374q-6 -31 -7.5 -41.5t-1.5 -28.5t5 -30h-62z" />
    <glyph glyph-name="Ograve" unicode="&#xd2;" horiz-adv-x="645" 
d="M438 720q-84 62 -118 147l28 21q36 -96 103 -154zM273 -12q-93 0 -152.5 61t-59.5 170q0 193 99.5 323t245.5 130q93 0 152.5 -61t59.5 -170q0 -190 -100.5 -321.5t-244.5 -131.5zM279 16q125 0 215.5 123t90.5 297q0 101 -51 154.5t-134 53.5q-126 0 -216 -122t-90 -298
q0 -101 51 -154.5t134 -53.5z" />
    <glyph glyph-name="Oacute" unicode="&#xd3;" horiz-adv-x="645" 
d="M394 720l-9 16q94 64 162 154l22 -23q-69 -86 -175 -147zM273 -12q-93 0 -152.5 61t-59.5 170q0 193 99.5 323t245.5 130q93 0 152.5 -61t59.5 -170q0 -190 -100.5 -321.5t-244.5 -131.5zM279 16q125 0 215.5 123t90.5 297q0 101 -51 154.5t-134 53.5q-126 0 -216 -122
t-90 -298q0 -101 51 -154.5t134 -53.5z" />
    <glyph glyph-name="Ocircumflex" unicode="&#xd4;" horiz-adv-x="645" 
d="M297 720l-10 16q83 65 146 146h28q36 -88 90 -146l-16 -16q-54 51 -89 130h-4q-60 -72 -145 -130zM273 -12q-93 0 -152.5 61t-59.5 170q0 193 99.5 323t245.5 130q93 0 152.5 -61t59.5 -170q0 -190 -100.5 -321.5t-244.5 -131.5zM279 16q125 0 215.5 123t90.5 297
q0 101 -51 154.5t-134 53.5q-126 0 -216 -122t-90 -298q0 -101 51 -154.5t134 -53.5z" />
    <glyph glyph-name="Otilde" unicode="&#xd5;" horiz-adv-x="645" 
d="M487 735q-21 0 -38.5 13.5t-27 30.5t-23.5 30.5t-29 13.5q-51 0 -59 -68l-36 2q16 42 38.5 66t62.5 24q21 0 38 -13.5t27 -30.5t24 -30.5t29 -13.5q49 0 59 68l35 -2q-17 -42 -39 -66t-61 -24zM273 -12q-93 0 -152.5 61t-59.5 170q0 193 99.5 323t245.5 130
q93 0 152.5 -61t59.5 -170q0 -190 -100.5 -321.5t-244.5 -131.5zM279 16q125 0 215.5 123t90.5 297q0 101 -51 154.5t-134 53.5q-126 0 -216 -122t-90 -298q0 -101 51 -154.5t134 -53.5z" />
    <glyph glyph-name="Odieresis" unicode="&#xd6;" horiz-adv-x="645" 
d="M365 748q-11 0 -18.5 7.5t-7.5 18.5q0 15 12 26.5t27 11.5q11 0 18.5 -7.5t7.5 -18.5q0 -14 -12 -26t-27 -12zM481 748q-11 0 -18.5 7.5t-7.5 18.5q0 15 12 26.5t27 11.5q11 0 18.5 -7.5t7.5 -18.5q0 -14 -12 -26t-27 -12zM273 -12q-93 0 -152.5 61t-59.5 170
q0 193 99.5 323t245.5 130q93 0 152.5 -61t59.5 -170q0 -190 -100.5 -321.5t-244.5 -131.5zM279 16q125 0 215.5 123t90.5 297q0 101 -51 154.5t-134 53.5q-126 0 -216 -122t-90 -298q0 -101 51 -154.5t134 -53.5z" />
    <glyph glyph-name="multiply" unicode="&#xd7;" horiz-adv-x="451" 
d="M297 178q38 -49 66 -63l-44 -38q-8 28 -48 79l-49 60l-73 -61q-4 -4 -19.5 -17t-19.5 -17t-14 -13t-15 -16t-10 -15l-31 38q30 10 91 62l73 62l-49 61q-40 51 -67 63l45 37q8 -27 48 -78l49 -61l73 61q5 5 17 15t16.5 14t13 11.5t13 12.5t9.5 11.5t9 13.5l30 -37
q-28 -12 -90 -64l-73 -61z" />
    <glyph glyph-name="Oslash" unicode="&#xd8;" horiz-adv-x="657" 
d="M575 591q43 -61 43 -150q0 -190 -100.5 -321.5t-244.5 -131.5q-104 0 -161 71l-52 -60l-20 18l56 64q-35 57 -35 138q0 193 99.5 323t245.5 130q93 0 151 -60l39 45l21 -18zM94 224q0 -69 25 -117l417 481q-49 56 -136 56q-126 0 -216 -122t-90 -298zM279 16
q125 0 215.5 123t90.5 297q0 77 -32 130l-420 -483q51 -67 146 -67z" />
    <glyph glyph-name="Ugrave" unicode="&#xd9;" horiz-adv-x="577" 
d="M404 720q-84 62 -118 147l28 21q36 -96 103 -154zM240 -12q-42 0 -75 11.5t-61.5 41t-35 79.5t5.5 126l61 314q8 46 9 62t-6 38h63q-20 -23 -34 -100l-60 -311q-44 -232 138 -232q82 0 146.5 55.5t88.5 181.5l59 306q15 77 3 100h61q-19 -26 -34 -100l-61 -311
q-52 -261 -268 -261z" />
    <glyph glyph-name="Uacute" unicode="&#xda;" horiz-adv-x="577" 
d="M360 720l-9 16q94 64 162 154l22 -23q-69 -86 -175 -147zM240 -12q-42 0 -75 11.5t-61.5 41t-35 79.5t5.5 126l61 314q8 46 9 62t-6 38h63q-20 -23 -34 -100l-60 -311q-44 -232 138 -232q82 0 146.5 55.5t88.5 181.5l59 306q15 77 3 100h61q-19 -26 -34 -100l-61 -311
q-52 -261 -268 -261z" />
    <glyph glyph-name="Ucircumflex" unicode="&#xdb;" horiz-adv-x="577" 
d="M263 720l-10 16q83 65 146 146h28q36 -88 90 -146l-16 -16q-54 51 -89 130h-4q-60 -72 -145 -130zM240 -12q-42 0 -75 11.5t-61.5 41t-35 79.5t5.5 126l61 314q8 46 9 62t-6 38h63q-20 -23 -34 -100l-60 -311q-44 -232 138 -232q82 0 146.5 55.5t88.5 181.5l59 306
q15 77 3 100h61q-19 -26 -34 -100l-61 -311q-52 -261 -268 -261z" />
    <glyph glyph-name="Udieresis" unicode="&#xdc;" horiz-adv-x="577" 
d="M331 748q-11 0 -18.5 7.5t-7.5 18.5q0 15 12 26.5t27 11.5q11 0 18.5 -7.5t7.5 -18.5q0 -14 -12 -26t-27 -12zM447 748q-11 0 -18.5 7.5t-7.5 18.5q0 15 12 26.5t27 11.5q11 0 18.5 -7.5t7.5 -18.5q0 -14 -12 -26t-27 -12zM240 -12q-42 0 -75 11.5t-61.5 41t-35 79.5
t5.5 126l61 314q8 46 9 62t-6 38h63q-20 -23 -34 -100l-60 -311q-44 -232 138 -232q82 0 146.5 55.5t88.5 181.5l59 306q15 77 3 100h61q-19 -26 -34 -100l-61 -311q-52 -261 -268 -261z" />
    <glyph glyph-name="Yacute" unicode="&#xdd;" horiz-adv-x="476" 
d="M484 867q-69 -86 -175 -147l-9 16q94 64 162 154zM485 660h57q-28 -26 -81 -104l-198 -290l-33 -166q-15 -74 -4 -100h-62q19 23 34 100l34 172l-94 286q-27 81 -42 102h55q-5 -25 17 -93l86 -269l182 268q48 70 49 94z" />
    <glyph glyph-name="Thorn" unicode="&#xde;" horiz-adv-x="493" 
d="M20 0q19 25 34 100l90 460q14 73 4 100h62q-22 -28 -41 -139h106q203 0 203 -151q0 -105 -69.5 -158t-194.5 -53h-116q-27 -127 -16 -159h-62zM104 187h108q111 0 172 44t61 134q0 69 -45.5 98.5t-138.5 29.5h-98z" />
    <glyph glyph-name="germandbls" unicode="&#xdf;" horiz-adv-x="516" 
d="M268 -12q-75 0 -127 44l24 41q11 -26 40 -41.5t68 -15.5q65 0 109 43t44 110q0 41 -14.5 73t-35 51.5t-40.5 35.5t-34.5 33.5t-14.5 37.5q0 21 14.5 36.5t35.5 27t42.5 24.5t36 38t14.5 60q0 54 -30.5 83t-78.5 29q-54 0 -95.5 -45.5t-60.5 -140.5l-81 -412
q-14 -72 1 -100h-51l101 512q43 214 189 214q58 0 97.5 -36.5t39.5 -98.5q0 -50 -22.5 -84.5t-49.5 -47.5t-49.5 -27t-22.5 -29q0 -14 14.5 -28.5t35.5 -30.5t42 -36.5t35.5 -56t14.5 -79.5q0 -84 -52.5 -134t-138.5 -50z" />
    <glyph glyph-name="agrave" unicode="&#xe0;" horiz-adv-x="474" 
d="M342 560q-84 62 -118 147l28 21q36 -96 103 -154zM168 -12q-58 0 -92.5 42.5t-34.5 124.5q0 141 75.5 239.5t190.5 98.5q47 0 100 -23l8 16h25l-73 -356q-12 -58 -13 -85t8 -45h-35q-6 34 6 85h-4q-33 -43 -76.5 -70t-84.5 -27zM171 16q41 0 92.5 40.5t79.5 96.5l57 285
q-43 25 -99 25q-96 0 -161.5 -90.5t-65.5 -217.5q0 -67 26 -103t71 -36z" />
    <glyph glyph-name="aacute" unicode="&#xe1;" horiz-adv-x="474" 
d="M298 560l-9 16q94 64 162 154l22 -23q-69 -86 -175 -147zM168 -12q-58 0 -92.5 42.5t-34.5 124.5q0 141 75.5 239.5t190.5 98.5q47 0 100 -23l8 16h25l-73 -356q-12 -58 -13 -85t8 -45h-35q-6 34 6 85h-4q-33 -43 -76.5 -70t-84.5 -27zM171 16q41 0 92.5 40.5t79.5 96.5
l57 285q-43 25 -99 25q-96 0 -161.5 -90.5t-65.5 -217.5q0 -67 26 -103t71 -36z" />
    <glyph glyph-name="acircumflex" unicode="&#xe2;" horiz-adv-x="474" 
d="M201 560l-10 16q83 65 146 146h28q36 -88 90 -146l-16 -16q-54 51 -89 130h-4q-60 -72 -145 -130zM168 -12q-58 0 -92.5 42.5t-34.5 124.5q0 141 75.5 239.5t190.5 98.5q47 0 100 -23l8 16h25l-73 -356q-12 -58 -13 -85t8 -45h-35q-6 34 6 85h-4q-33 -43 -76.5 -70
t-84.5 -27zM171 16q41 0 92.5 40.5t79.5 96.5l57 285q-43 25 -99 25q-96 0 -161.5 -90.5t-65.5 -217.5q0 -67 26 -103t71 -36z" />
    <glyph glyph-name="atilde" unicode="&#xe3;" horiz-adv-x="474" 
d="M391 575q-21 0 -38.5 13.5t-27 30.5t-23.5 30.5t-29 13.5q-51 0 -59 -68l-36 2q16 42 38.5 66t62.5 24q21 0 38 -13.5t27 -30.5t24 -30.5t29 -13.5q49 0 59 68l35 -2q-17 -42 -39 -66t-61 -24zM168 -12q-58 0 -92.5 42.5t-34.5 124.5q0 141 75.5 239.5t190.5 98.5
q47 0 100 -23l8 16h25l-73 -356q-12 -58 -13 -85t8 -45h-35q-6 34 6 85h-4q-33 -43 -76.5 -70t-84.5 -27zM171 16q41 0 92.5 40.5t79.5 96.5l57 285q-43 25 -99 25q-96 0 -161.5 -90.5t-65.5 -217.5q0 -67 26 -103t71 -36z" />
    <glyph glyph-name="adieresis" unicode="&#xe4;" horiz-adv-x="474" 
d="M269 588q-11 0 -18.5 7.5t-7.5 18.5q0 15 12 26.5t27 11.5q11 0 18.5 -7.5t7.5 -18.5q0 -14 -12 -26t-27 -12zM385 588q-11 0 -18.5 7.5t-7.5 18.5q0 15 12 26.5t27 11.5q11 0 18.5 -7.5t7.5 -18.5q0 -14 -12 -26t-27 -12zM168 -12q-58 0 -92.5 42.5t-34.5 124.5
q0 141 75.5 239.5t190.5 98.5q47 0 100 -23l8 16h25l-73 -356q-12 -58 -13 -85t8 -45h-35q-6 34 6 85h-4q-33 -43 -76.5 -70t-84.5 -27zM171 16q41 0 92.5 40.5t79.5 96.5l57 285q-43 25 -99 25q-96 0 -161.5 -90.5t-65.5 -217.5q0 -67 26 -103t71 -36z" />
    <glyph glyph-name="aring" unicode="&#xe5;" horiz-adv-x="474" 
d="M321 560q-31 0 -51 16t-20 44q0 38 29 65t71 27q32 0 51.5 -16t19.5 -44q0 -38 -29 -65t-71 -27zM326 584q29 0 48 18.5t19 46.5q0 39 -47 39q-30 0 -49 -18t-19 -47q0 -39 48 -39zM168 -12q-58 0 -92.5 42.5t-34.5 124.5q0 141 75.5 239.5t190.5 98.5q47 0 100 -23l8 16
h25l-73 -356q-12 -58 -13 -85t8 -45h-35q-6 34 6 85h-4q-33 -43 -76.5 -70t-84.5 -27zM171 16q41 0 92.5 40.5t79.5 96.5l57 285q-43 25 -99 25q-96 0 -161.5 -90.5t-65.5 -217.5q0 -67 26 -103t71 -36z" />
    <glyph glyph-name="ae" unicode="&#xe6;" horiz-adv-x="761" 
d="M527 238h-147q-21 -114 13 -168t110 -54q41 0 92 17.5t76 44.5l5 -43q-24 -17 -77 -32t-100 -15q-132 0 -153 127q-46 -67 -90.5 -97t-102.5 -30q-59 0 -95 28.5t-36 81.5q0 166 242 166h91q0 2 1 3l8 43q30 152 -105 152q-43 0 -84 -19.5t-62 -43.5l-14 39
q8 2 35.5 16.5t60.5 25t68 10.5q63 0 97.5 -32t37.5 -88q35 57 86.5 88.5t108.5 31.5q60 0 98.5 -34.5t38.5 -85.5q0 -67 -46 -99.5t-157 -32.5zM589 462q-60 0 -121.5 -52.5t-81.5 -143.5h148q88 0 126 24t38 75q0 43 -29.5 70t-79.5 27zM158 15q49 0 88.5 27t83.5 89
l19 105h-91q-203 0 -203 -132q0 -43 28 -66t75 -23z" />
    <glyph glyph-name="ccedilla" unicode="&#xe7;" horiz-adv-x="431" 
d="M287 490q79 0 134 -48l-25 -33q-37 53 -113 53q-92 0 -150.5 -88t-58.5 -211q0 -74 34.5 -110.5t91.5 -36.5q43 0 87 21.5t69 53.5l7 -43q-26 -21 -67.5 -39t-87.5 -21l-17 -39q35 -7 51.5 -20.5t16.5 -39.5q0 -46 -35.5 -64t-119.5 -24l-1 26q125 9 125 58
q0 20 -16 30.5t-53 15.5l24 57q-61 4 -101 46t-40 124q0 139 68.5 235.5t176.5 96.5z" />
    <glyph glyph-name="egrave" unicode="&#xe8;" horiz-adv-x="460" 
d="M328 560q-84 62 -118 147l28 21q36 -96 103 -154zM198 -12q-71 0 -113.5 42t-42.5 130q0 144 74 237t176 93q60 0 98.5 -34.5t38.5 -85.5q0 -67 -46 -99.5t-157 -32.5h-147q-21 -114 13 -168t110 -54q41 0 92 17.5t76 44.5l5 -43q-24 -17 -77 -32t-100 -15zM85 266h148
q88 0 126 24t38 75q0 43 -29.5 70t-79.5 27q-60 0 -121.5 -52.5t-81.5 -143.5z" />
    <glyph glyph-name="eacute" unicode="&#xe9;" horiz-adv-x="460" 
d="M284 560l-9 16q94 64 162 154l22 -23q-69 -86 -175 -147zM198 -12q-71 0 -113.5 42t-42.5 130q0 144 74 237t176 93q60 0 98.5 -34.5t38.5 -85.5q0 -67 -46 -99.5t-157 -32.5h-147q-21 -114 13 -168t110 -54q41 0 92 17.5t76 44.5l5 -43q-24 -17 -77 -32t-100 -15z
M85 266h148q88 0 126 24t38 75q0 43 -29.5 70t-79.5 27q-60 0 -121.5 -52.5t-81.5 -143.5z" />
    <glyph glyph-name="ecircumflex" unicode="&#xea;" horiz-adv-x="460" 
d="M187 560l-10 16q83 65 146 146h28q36 -88 90 -146l-16 -16q-54 51 -89 130h-4q-60 -72 -145 -130zM198 -12q-71 0 -113.5 42t-42.5 130q0 144 74 237t176 93q60 0 98.5 -34.5t38.5 -85.5q0 -67 -46 -99.5t-157 -32.5h-147q-21 -114 13 -168t110 -54q41 0 92 17.5t76 44.5
l5 -43q-24 -17 -77 -32t-100 -15zM85 266h148q88 0 126 24t38 75q0 43 -29.5 70t-79.5 27q-60 0 -121.5 -52.5t-81.5 -143.5z" />
    <glyph glyph-name="edieresis" unicode="&#xeb;" horiz-adv-x="460" 
d="M255 588q-11 0 -18.5 7.5t-7.5 18.5q0 15 12 26.5t27 11.5q11 0 18.5 -7.5t7.5 -18.5q0 -14 -12 -26t-27 -12zM371 588q-11 0 -18.5 7.5t-7.5 18.5q0 15 12 26.5t27 11.5q11 0 18.5 -7.5t7.5 -18.5q0 -14 -12 -26t-27 -12zM198 -12q-71 0 -113.5 42t-42.5 130
q0 144 74 237t176 93q60 0 98.5 -34.5t38.5 -85.5q0 -67 -46 -99.5t-157 -32.5h-147q-21 -114 13 -168t110 -54q41 0 92 17.5t76 44.5l5 -43q-24 -17 -77 -32t-100 -15zM85 266h148q88 0 126 24t38 75q0 43 -29.5 70t-79.5 27q-60 0 -121.5 -52.5t-81.5 -143.5z" />
    <glyph glyph-name="igrave" unicode="&#xec;" horiz-adv-x="225" 
d="M184 552q-84 62 -118 147l28 21q36 -96 103 -154zM40 0l69 335q20 97 7 143h52l-74 -358q-18 -91 -1 -120h-53z" />
    <glyph glyph-name="iacute" unicode="&#xed;" horiz-adv-x="225" 
d="M140 552l-9 16q94 64 162 154l22 -23q-69 -86 -175 -147zM40 0l69 335q20 97 7 143h52l-74 -358q-18 -91 -1 -120h-53z" />
    <glyph glyph-name="icircumflex" unicode="&#xee;" horiz-adv-x="225" 
d="M43 552l-10 16q83 65 146 146h28q36 -88 90 -146l-16 -16q-54 51 -89 130h-4q-60 -72 -145 -130zM40 0l69 335q20 97 7 143h52l-74 -358q-18 -91 -1 -120h-53z" />
    <glyph glyph-name="idieresis" unicode="&#xef;" horiz-adv-x="225" 
d="M111 580q-11 0 -18.5 7.5t-7.5 18.5q0 15 12 26.5t27 11.5q11 0 18.5 -7.5t7.5 -18.5q0 -14 -12 -26t-27 -12zM227 580q-11 0 -18.5 7.5t-7.5 18.5q0 15 12 26.5t27 11.5q11 0 18.5 -7.5t7.5 -18.5q0 -14 -12 -26t-27 -12zM40 0l69 335q20 97 7 143h52l-74 -358
q-18 -91 -1 -120h-53z" />
    <glyph glyph-name="eth" unicode="&#xf0;" horiz-adv-x="486" 
d="M463 653l-105 -45q81 -110 81 -268q0 -156 -61.5 -254t-181.5 -98q-67 0 -111 50t-44 126q0 113 64.5 194.5t164.5 81.5q87 0 141 -80q-6 145 -78 238l-114 -49l-8 19l109 46q-48 54 -107 73l20 35q71 -46 112 -97l110 47zM202 16q101 0 152.5 85t56.5 216
q-54 95 -143 95q-86 0 -142.5 -72.5t-56.5 -171.5q0 -67 36 -109.5t97 -42.5z" />
    <glyph glyph-name="ntilde" unicode="&#xf1;" horiz-adv-x="496" 
d="M378 567q-21 0 -38.5 13.5t-27 30.5t-23.5 30.5t-29 13.5q-51 0 -59 -68l-36 2q16 42 38.5 66t62.5 24q21 0 38 -13.5t27 -30.5t24 -30.5t29 -13.5q49 0 59 68l35 -2q-17 -42 -39 -66t-61 -24zM40 0l67 335q20 102 9 143h42l-11 -72h4q30 34 78.5 61t96.5 27
q58 0 91.5 -41t16.5 -120l-45 -213q-20 -97 -4 -120h-48l67 329q16 75 -11 106t-74 31q-46 0 -95 -31.5t-83 -75.5l-49 -239q-20 -96 -4 -120h-48z" />
    <glyph glyph-name="ograve" unicode="&#xf2;" horiz-adv-x="507" 
d="M326 552q-84 62 -118 147l28 21q36 -96 103 -154zM216 -12q-78 0 -123.5 49.5t-45.5 138.5q0 142 64.5 228t179.5 86q78 0 123.5 -50t45.5 -140q0 -142 -64 -227t-180 -85zM219 16q97 0 152.5 78t55.5 206q0 76 -36.5 119t-102.5 43q-97 0 -152.5 -79t-55.5 -207
q0 -75 36 -117.5t103 -42.5z" />
    <glyph glyph-name="oacute" unicode="&#xf3;" horiz-adv-x="507" 
d="M282 552l-9 16q94 64 162 154l22 -23q-69 -86 -175 -147zM216 -12q-78 0 -123.5 49.5t-45.5 138.5q0 142 64.5 228t179.5 86q78 0 123.5 -50t45.5 -140q0 -142 -64 -227t-180 -85zM219 16q97 0 152.5 78t55.5 206q0 76 -36.5 119t-102.5 43q-97 0 -152.5 -79t-55.5 -207
q0 -75 36 -117.5t103 -42.5z" />
    <glyph glyph-name="ocircumflex" unicode="&#xf4;" horiz-adv-x="507" 
d="M185 552l-10 16q83 65 146 146h28q36 -88 90 -146l-16 -16q-54 51 -89 130h-4q-60 -72 -145 -130zM216 -12q-78 0 -123.5 49.5t-45.5 138.5q0 142 64.5 228t179.5 86q78 0 123.5 -50t45.5 -140q0 -142 -64 -227t-180 -85zM219 16q97 0 152.5 78t55.5 206q0 76 -36.5 119
t-102.5 43q-97 0 -152.5 -79t-55.5 -207q0 -75 36 -117.5t103 -42.5z" />
    <glyph glyph-name="otilde" unicode="&#xf5;" horiz-adv-x="507" 
d="M375 567q-21 0 -38.5 13.5t-27 30.5t-23.5 30.5t-29 13.5q-51 0 -59 -68l-36 2q16 42 38.5 66t62.5 24q21 0 38 -13.5t27 -30.5t24 -30.5t29 -13.5q49 0 59 68l35 -2q-17 -42 -39 -66t-61 -24zM216 -12q-78 0 -123.5 49.5t-45.5 138.5q0 142 64.5 228t179.5 86
q78 0 123.5 -50t45.5 -140q0 -142 -64 -227t-180 -85zM219 16q97 0 152.5 78t55.5 206q0 76 -36.5 119t-102.5 43q-97 0 -152.5 -79t-55.5 -207q0 -75 36 -117.5t103 -42.5z" />
    <glyph glyph-name="odieresis" unicode="&#xf6;" horiz-adv-x="507" 
d="M253 580q-11 0 -18.5 7.5t-7.5 18.5q0 15 12 26.5t27 11.5q11 0 18.5 -7.5t7.5 -18.5q0 -14 -12 -26t-27 -12zM369 580q-11 0 -18.5 7.5t-7.5 18.5q0 15 12 26.5t27 11.5q11 0 18.5 -7.5t7.5 -18.5q0 -14 -12 -26t-27 -12zM216 -12q-78 0 -123.5 49.5t-45.5 138.5
q0 142 64.5 228t179.5 86q78 0 123.5 -50t45.5 -140q0 -142 -64 -227t-180 -85zM219 16q97 0 152.5 78t55.5 206q0 76 -36.5 119t-102.5 43q-97 0 -152.5 -79t-55.5 -207q0 -75 36 -117.5t103 -42.5z" />
    <glyph glyph-name="divide" unicode="&#xf7;" horiz-adv-x="435" 
d="M232 315q-15 0 -25 8t-10 22q0 20 14.5 34t35.5 14q34 0 34 -31q0 -20 -14 -33.5t-35 -13.5zM40 213l9 53q24 -11 99 -11h145q75 0 102 11l-11 -53q-24 10 -97 10h-145q-73 0 -102 -10zM187 85q-34 0 -34 30q0 20 14.5 34t34.5 14q34 0 34 -31q0 -20 -14 -33.5t-35 -13.5
z" />
    <glyph glyph-name="oslash" unicode="&#xf8;" horiz-adv-x="509" 
d="M465 473l-39 -48q34 -48 34 -125q0 -142 -64 -227t-180 -85q-71 0 -115 41l-33 -41l-23 18l37 45q-35 47 -35 125q0 142 64.5 228t179.5 86q72 0 117 -43l35 43zM80 176q0 -59 23 -99l284 345q-35 40 -99 40q-97 0 -152.5 -79t-55.5 -207zM427 300q0 59 -23 99l-283 -346
q35 -37 98 -37q97 0 152.5 78t55.5 206z" />
    <glyph glyph-name="ugrave" unicode="&#xf9;" horiz-adv-x="500" 
d="M326 552q-84 62 -118 147l28 21q36 -96 103 -154zM173 -12q-65 0 -90.5 48.5t-7.5 141.5l35 180q6 33 8.5 52t1 38t-9.5 30h53l-58 -300q-32 -162 73 -162q44 0 97 35.5t96 89.5l42 217q18 94 3 120h50l-69 -358q-17 -97 -6 -120h-44l16 91h-3q-91 -103 -187 -103z" />
    <glyph glyph-name="uacute" unicode="&#xfa;" horiz-adv-x="500" 
d="M282 552l-9 16q94 64 162 154l22 -23q-69 -86 -175 -147zM173 -12q-65 0 -90.5 48.5t-7.5 141.5l35 180q6 33 8.5 52t1 38t-9.5 30h53l-58 -300q-32 -162 73 -162q44 0 97 35.5t96 89.5l42 217q18 94 3 120h50l-69 -358q-17 -97 -6 -120h-44l16 91h-3q-91 -103 -187 -103
z" />
    <glyph glyph-name="ucircumflex" unicode="&#xfb;" horiz-adv-x="500" 
d="M185 552l-10 16q83 65 146 146h28q36 -88 90 -146l-16 -16q-54 51 -89 130h-4q-60 -72 -145 -130zM173 -12q-65 0 -90.5 48.5t-7.5 141.5l35 180q6 33 8.5 52t1 38t-9.5 30h53l-58 -300q-32 -162 73 -162q44 0 97 35.5t96 89.5l42 217q18 94 3 120h50l-69 -358
q-17 -97 -6 -120h-44l16 91h-3q-91 -103 -187 -103z" />
    <glyph glyph-name="udieresis" unicode="&#xfc;" horiz-adv-x="500" 
d="M253 580q-11 0 -18.5 7.5t-7.5 18.5q0 15 12 26.5t27 11.5q11 0 18.5 -7.5t7.5 -18.5q0 -14 -12 -26t-27 -12zM369 580q-11 0 -18.5 7.5t-7.5 18.5q0 15 12 26.5t27 11.5q11 0 18.5 -7.5t7.5 -18.5q0 -14 -12 -26t-27 -12zM173 -12q-65 0 -90.5 48.5t-7.5 141.5l35 180
q6 33 8.5 52t1 38t-9.5 30h53l-58 -300q-32 -162 73 -162q44 0 97 35.5t96 89.5l42 217q18 94 3 120h50l-69 -358q-17 -97 -6 -120h-44l16 91h-3q-91 -103 -187 -103z" />
    <glyph glyph-name="yacute" unicode="&#xfd;" horiz-adv-x="423" 
d="M240 552l-9 16q94 64 162 154l22 -23q-69 -86 -175 -147zM-19 -200q-27 0 -47 8l19 43q11 -23 39 -23q82 0 156 134l14 25l-64 380q-9 51 -16 73.5t-21 37.5h45l50 -284q17 -100 25 -166h4q29 60 88 169l103 191q23 42 30 60.5t-1 29.5h49l-283 -529q-80 -149 -190 -149z
" />
    <glyph glyph-name="thorn" unicode="&#xfe;" horiz-adv-x="501" 
d="M16 -200l153 769q19 99 7 143h52l-66 -330h1q33 48 79.5 79.5t90.5 31.5q58 0 92.5 -42.5t34.5 -124.5q0 -141 -75.5 -239.5t-190.5 -98.5q-51 0 -105 25l-19 -93q-19 -92 -1 -120h-53zM200 18q96 0 161.5 90.5t65.5 217.5q0 67 -26 103t-71 36t-102 -47.5t-81 -109.5
l-52 -261q43 -29 105 -29z" />
    <glyph glyph-name="ydieresis" unicode="&#xff;" horiz-adv-x="423" 
d="M211 580q-11 0 -18.5 7.5t-7.5 18.5q0 15 12 26.5t27 11.5q11 0 18.5 -7.5t7.5 -18.5q0 -14 -12 -26t-27 -12zM327 580q-11 0 -18.5 7.5t-7.5 18.5q0 15 12 26.5t27 11.5q11 0 18.5 -7.5t7.5 -18.5q0 -14 -12 -26t-27 -12zM-19 -200q-27 0 -47 8l19 43q11 -23 39 -23
q82 0 156 134l14 25l-64 380q-9 51 -16 73.5t-21 37.5h45l50 -284q17 -100 25 -166h4q29 60 88 169l103 191q23 42 30 60.5t-1 29.5h49l-283 -529q-80 -149 -190 -149z" />
    <glyph glyph-name="Amacron" unicode="&#x100;" horiz-adv-x="553" 
d="M286 757l6 30h186l-6 -30h-186zM-32 0q28 28 72 109l257 468q5 10 12.5 23.5t10 18.5t6 13t5 14t2.5 14h50q-6 -21 4 -83l75 -468q12 -76 31 -109h-64q13 22 1 104l-18 119l-278 -1l-64 -118q-23 -42 -31 -63.5t-6 -40.5h-65zM150 250l258 1l-56 371h-2z" />
    <glyph glyph-name="amacron" unicode="&#x101;" horiz-adv-x="474" 
d="M236 597l6 30h186l-6 -30h-186zM168 -12q-58 0 -92.5 42.5t-34.5 124.5q0 141 75.5 239.5t190.5 98.5q47 0 100 -23l8 16h25l-73 -356q-12 -58 -13 -85t8 -45h-35q-6 34 6 85h-4q-33 -43 -76.5 -70t-84.5 -27zM171 16q41 0 92.5 40.5t79.5 96.5l57 285q-43 25 -99 25
q-96 0 -161.5 -90.5t-65.5 -217.5q0 -67 26 -103t71 -36z" />
    <glyph glyph-name="Abreve" unicode="&#x102;" horiz-adv-x="553" 
d="M369 716q-108 0 -80 142h24q-9 -50 4 -83t57 -33q45 0 71.5 33t35.5 83h24q-28 -142 -136 -142zM-32 0q28 28 72 109l257 468q5 10 12.5 23.5t10 18.5t6 13t5 14t2.5 14h50q-6 -21 4 -83l75 -468q12 -76 31 -109h-64q13 22 1 104l-18 119l-278 -1l-64 -118
q-23 -42 -31 -63.5t-6 -40.5h-65zM150 250l258 1l-56 371h-2z" />
    <glyph glyph-name="abreve" unicode="&#x103;" horiz-adv-x="474" 
d="M319 556q-108 0 -80 142h24q-9 -50 4 -83t57 -33q45 0 71.5 33t35.5 83h24q-28 -142 -136 -142zM168 -12q-58 0 -92.5 42.5t-34.5 124.5q0 141 75.5 239.5t190.5 98.5q47 0 100 -23l8 16h25l-73 -356q-12 -58 -13 -85t8 -45h-35q-6 34 6 85h-4q-33 -43 -76.5 -70
t-84.5 -27zM171 16q41 0 92.5 40.5t79.5 96.5l57 285q-43 25 -99 25q-96 0 -161.5 -90.5t-65.5 -217.5q0 -67 26 -103t71 -36z" />
    <glyph glyph-name="Aogonek" unicode="&#x104;" horiz-adv-x="553" 
d="M421 -154q27 0 47 22l9 -28q-29 -18 -61 -18q-64 0 -64 50q0 36 31.5 71t75.5 57h-30q13 22 1 104l-18 119l-278 -1l-64 -118q-23 -42 -31 -63.5t-6 -40.5h-65q28 28 72 109l257 468q5 10 12.5 23.5t10 18.5t6 13t5 14t2.5 14h50q-6 -21 4 -83l75 -468q12 -76 31 -109
q-47 -22 -79 -57t-32 -64q0 -15 11 -24t28 -9zM150 250l258 1l-56 371h-2z" />
    <glyph glyph-name="aogonek" unicode="&#x105;" horiz-adv-x="474" 
d="M440 486l-73 -356q-12 -58 -13 -85t8 -45q-47 -22 -79 -57t-32 -64q0 -15 11 -24t28 -9q27 0 47 22l9 -28q-29 -18 -61 -18q-64 0 -64 50q0 36 31.5 71t75.5 57h-1q-6 34 6 85h-4q-33 -43 -76.5 -70t-84.5 -27q-58 0 -92.5 42.5t-34.5 124.5q0 141 75.5 239.5t190.5 98.5
q47 0 100 -23l8 16h25zM343 153l57 285q-43 25 -99 25q-96 0 -161.5 -90.5t-65.5 -217.5q0 -67 26 -103t71 -36q41 0 92.5 40.5t79.5 96.5z" />
    <glyph glyph-name="Cacute" unicode="&#x106;" horiz-adv-x="562" 
d="M390 720l-9 16q94 64 162 154l22 -23q-69 -86 -175 -147zM269 -12q-98 0 -153 56.5t-55 170.5q0 197 96.5 327t244.5 130q96 0 171 -56l-28 -43q-12 27 -55 48t-94 21q-130 0 -215 -120t-85 -303q0 -102 46.5 -151.5t131.5 -49.5q124 0 191 67l11 -49q-107 -48 -207 -48z
" />
    <glyph glyph-name="cacute" unicode="&#x107;" horiz-adv-x="431" 
d="M278 560l-9 16q94 64 162 154l22 -23q-69 -86 -175 -147zM194 -12q-64 0 -108 42t-44 128q0 139 68.5 235.5t176.5 96.5q79 0 134 -48l-25 -33q-37 53 -113 53q-92 0 -150.5 -88t-58.5 -211q0 -74 34.5 -110.5t91.5 -36.5q43 0 87 21.5t69 53.5l7 -43q-28 -23 -74 -41.5
t-95 -18.5z" />
    <glyph glyph-name="Cdotaccent" unicode="&#x10a;" horiz-adv-x="562" 
d="M414 732q-26 0 -26 24q0 21 11 33.5t29 12.5q26 0 26 -24q0 -20 -11 -33t-29 -13zM269 -12q-98 0 -153 56.5t-55 170.5q0 197 96.5 327t244.5 130q96 0 171 -56l-28 -43q-12 27 -55 48t-94 21q-130 0 -215 -120t-85 -303q0 -102 46.5 -151.5t131.5 -49.5q124 0 191 67
l11 -49q-107 -48 -207 -48z" />
    <glyph glyph-name="cdotaccent" unicode="&#x10b;" horiz-adv-x="431" 
d="M302 572q-26 0 -26 24q0 21 11 33.5t29 12.5q26 0 26 -24q0 -20 -11 -33t-29 -13zM194 -12q-64 0 -108 42t-44 128q0 139 68.5 235.5t176.5 96.5q79 0 134 -48l-25 -33q-37 53 -113 53q-92 0 -150.5 -88t-58.5 -211q0 -74 34.5 -110.5t91.5 -36.5q43 0 87 21.5t69 53.5
l7 -43q-28 -23 -74 -41.5t-95 -18.5z" />
    <glyph glyph-name="Ccaron" unicode="&#x10c;" horiz-adv-x="562" 
d="M397 722q-26 79 -88 146l16 16q56 -53 90 -130h4q24 34 62.5 70t75.5 56l10 -19q-36 -21 -75 -62t-60 -77h-35zM269 -12q-98 0 -153 56.5t-55 170.5q0 197 96.5 327t244.5 130q96 0 171 -56l-28 -43q-12 27 -55 48t-94 21q-130 0 -215 -120t-85 -303q0 -102 46.5 -151.5
t131.5 -49.5q124 0 191 67l11 -49q-107 -48 -207 -48z" />
    <glyph glyph-name="ccaron" unicode="&#x10d;" horiz-adv-x="431" 
d="M285 562q-26 79 -88 146l16 16q56 -53 90 -130h4q24 34 62.5 70t75.5 56l10 -19q-36 -21 -75 -62t-60 -77h-35zM194 -12q-64 0 -108 42t-44 128q0 139 68.5 235.5t176.5 96.5q79 0 134 -48l-25 -33q-37 53 -113 53q-92 0 -150.5 -88t-58.5 -211q0 -74 34.5 -110.5
t91.5 -36.5q43 0 87 21.5t69 53.5l7 -43q-28 -23 -74 -41.5t-95 -18.5z" />
    <glyph glyph-name="Dcaron" unicode="&#x10e;" horiz-adv-x="587" 
d="M297 722q-26 79 -88 146l16 16q56 -53 90 -130h4q24 34 62.5 70t75.5 56l10 -19q-36 -21 -75 -62t-60 -77h-35zM20 0q13 15 18.5 31.5t15.5 68.5l90 460q9 45 10 61t-6 39h143q124 0 194 -63.5t70 -175.5q0 -199 -103.5 -310t-288.5 -111h-143zM72 28h96
q162 0 257.5 102.5t95.5 286.5q0 101 -63 158t-176 57h-92z" />
    <glyph glyph-name="dcaron" unicode="&#x10f;" horiz-adv-x="493" 
d="M510 554l20 168h46l-45 -168h-21zM168 -12q-58 0 -92.5 42.5t-34.5 124.5q0 141 75.5 239.5t190.5 98.5q48 0 99 -22l19 98q19 106 9 143h48l-116 -592q-19 -99 -4 -120h-38q-2 39 9 85h-4q-33 -43 -76.5 -70t-84.5 -27zM171 16q41 0 92.5 40t78.5 96l57 286
q-40 25 -98 25q-96 0 -161.5 -90.5t-65.5 -217.5q0 -67 26 -103t71 -36z" />
    <glyph glyph-name="Dcroat" unicode="&#x110;" horiz-adv-x="597" 
d="M301 660q124 0 194 -63.5t70 -175.5q0 -199 -103.5 -310t-288.5 -111h-143q13 15 18.5 31.5t15.5 68.5l43 218h-60l6 28h59l42 214q9 45 10 61t-6 39h143zM178 28q162 0 257.5 102.5t95.5 286.5q0 101 -63 158t-176 57h-92l-56 -286h161l-6 -28h-160l-57 -290h96z" />
    <glyph glyph-name="dcroat" unicode="&#x111;" horiz-adv-x="493" 
d="M516 588l-6 -30h-58l-86 -438q-19 -99 -4 -120h-38q-2 39 9 85h-4q-33 -43 -76.5 -70t-84.5 -27q-58 0 -92.5 42.5t-34.5 124.5q0 141 75.5 239.5t190.5 98.5q48 0 99 -22l17 87h-99l6 30h98q16 88 6 124h48l-24 -124h58zM342 152l57 286q-40 25 -98 25
q-96 0 -161.5 -90.5t-65.5 -217.5q0 -67 26 -103t71 -36q41 0 92.5 40t78.5 96z" />
    <glyph glyph-name="Emacron" unicode="&#x112;" horiz-adv-x="478" 
d="M257 755l6 30h186l-6 -30h-186zM386 -5q-37 5 -198 5h-168q13 15 18.5 31.5t15.5 67.5l90 461q9 45 10 61t-6 39h160q158 0 193 5l-8 -45q-22 12 -190 12h-113l-52 -266h101q137 0 162 12l-10 -52q-22 12 -157 12h-101l-61 -310h121q112 0 148.5 2t53.5 10z" />
    <glyph glyph-name="emacron" unicode="&#x113;" horiz-adv-x="460" 
d="M222 597l6 30h186l-6 -30h-186zM198 -12q-71 0 -113.5 42t-42.5 130q0 144 74 237t176 93q60 0 98.5 -34.5t38.5 -85.5q0 -67 -46 -99.5t-157 -32.5h-147q-21 -114 13 -168t110 -54q41 0 92 17.5t76 44.5l5 -43q-24 -17 -77 -32t-100 -15zM85 266h148q88 0 126 24t38 75
q0 43 -29.5 70t-79.5 27q-60 0 -121.5 -52.5t-81.5 -143.5z" />
    <glyph glyph-name="Edotaccent" unicode="&#x116;" horiz-adv-x="478" 
d="M343 730q-26 0 -26 24q0 21 11 33.5t29 12.5q26 0 26 -24q0 -20 -11 -33t-29 -13zM386 -5q-37 5 -198 5h-168q13 15 18.5 31.5t15.5 67.5l90 461q9 45 10 61t-6 39h160q158 0 193 5l-8 -45q-22 12 -190 12h-113l-52 -266h101q137 0 162 12l-10 -52q-22 12 -157 12h-101
l-61 -310h121q112 0 148.5 2t53.5 10z" />
    <glyph glyph-name="edotaccent" unicode="&#x117;" horiz-adv-x="460" 
d="M308 572q-26 0 -26 24q0 21 11 33.5t29 12.5q26 0 26 -24q0 -20 -11 -33t-29 -13zM198 -12q-71 0 -113.5 42t-42.5 130q0 144 74 237t176 93q60 0 98.5 -34.5t38.5 -85.5q0 -67 -46 -99.5t-157 -32.5h-147q-21 -114 13 -168t110 -54q41 0 92 17.5t76 44.5l5 -43
q-24 -17 -77 -32t-100 -15zM85 266h148q88 0 126 24t38 75q0 43 -29.5 70t-79.5 27q-60 0 -121.5 -52.5t-81.5 -143.5z" />
    <glyph glyph-name="Eogonek" unicode="&#x118;" horiz-adv-x="478" 
d="M303 632h-113l-52 -266h101q137 0 162 12l-10 -52q-22 12 -157 12h-101l-61 -310h121q112 0 148.5 2t53.5 10l-9 -45q-47 -22 -79 -57t-32 -64q0 -15 11 -24t28 -9q27 0 47 22l9 -28q-29 -18 -61 -18q-64 0 -64 50q0 37 33.5 73t79.5 58q-52 2 -170 2h-168
q13 15 18.5 31.5t15.5 67.5l90 461q9 45 10 61t-6 39h160q158 0 193 5l-8 -45q-22 12 -190 12z" />
    <glyph glyph-name="eogonek" unicode="&#x119;" horiz-adv-x="460" 
d="M226 238h-147q-21 -114 13 -168t110 -54q41 0 92 17.5t76 44.5l5 -43q-5 -3 -26 -14q-37 -23 -61 -52.5t-24 -54.5q0 -15 11 -24t28 -9q27 0 47 22l9 -28q-29 -18 -61 -18q-64 0 -64 50q0 48 55 94q-49 -13 -91 -13q-71 0 -113.5 42t-42.5 130q0 144 74 237t176 93
q60 0 98.5 -34.5t38.5 -85.5q0 -67 -46 -99.5t-157 -32.5zM288 462q-60 0 -121.5 -52.5t-81.5 -143.5h148q88 0 126 24t38 75q0 43 -29.5 70t-79.5 27z" />
    <glyph glyph-name="Ecaron" unicode="&#x11a;" horiz-adv-x="478" 
d="M326 720q-26 79 -88 146l16 16q56 -53 90 -130h4q24 34 62.5 70t75.5 56l10 -19q-36 -21 -75 -62t-60 -77h-35zM386 -5q-37 5 -198 5h-168q13 15 18.5 31.5t15.5 67.5l90 461q9 45 10 61t-6 39h160q158 0 193 5l-8 -45q-22 12 -190 12h-113l-52 -266h101q137 0 162 12
l-10 -52q-22 12 -157 12h-101l-61 -310h121q112 0 148.5 2t53.5 10z" />
    <glyph glyph-name="ecaron" unicode="&#x11b;" horiz-adv-x="460" 
d="M291 562q-26 79 -88 146l16 16q56 -53 90 -130h4q24 34 62.5 70t75.5 56l10 -19q-36 -21 -75 -62t-60 -77h-35zM198 -12q-71 0 -113.5 42t-42.5 130q0 144 74 237t176 93q60 0 98.5 -34.5t38.5 -85.5q0 -67 -46 -99.5t-157 -32.5h-147q-21 -114 13 -168t110 -54
q41 0 92 17.5t76 44.5l5 -43q-24 -17 -77 -32t-100 -15zM85 266h148q88 0 126 24t38 75q0 43 -29.5 70t-79.5 27q-60 0 -121.5 -52.5t-81.5 -143.5z" />
    <glyph glyph-name="Gbreve" unicode="&#x11e;" horiz-adv-x="588" 
d="M404 716q-108 0 -80 142h24q-9 -50 4 -83t57 -33q45 0 71.5 33t35.5 83h24q-28 -142 -136 -142zM280 -12q-101 0 -159 56t-58 172q0 204 86.5 330t226.5 126q60 0 113 -20.5t82 -42.5l-30 -38q-12 27 -59.5 50t-108.5 23q-123 0 -199.5 -117.5t-76.5 -307.5
q0 -103 49.5 -152t136.5 -49q54 0 101 16t75 40l41 208h-55q-81 0 -112 -12l10 45q32 -5 108 -5h96q-14 -23 -30 -105l-6 -30q-16 -80 -17 -116q-92 -71 -214 -71z" />
    <glyph glyph-name="gbreve" unicode="&#x11f;" horiz-adv-x="475" 
d="M318 548q-108 0 -80 142h24q-9 -50 4 -83t57 -33q45 0 71.5 33t35.5 83h24q-28 -142 -136 -142zM150 -200q-76 0 -150 49l28 43q12 -29 44.5 -46.5t77.5 -17.5q68 0 105.5 41.5t61.5 141.5l19 79h-3q-33 -45 -77.5 -73.5t-87.5 -28.5q-58 0 -92.5 42.5t-34.5 124.5
q0 141 75.5 239.5t190.5 98.5q54 0 108 -27l11 20h23l-102 -473q-25 -116 -69.5 -164.5t-127.5 -48.5zM171 16q44 0 97.5 44t79.5 104l58 270q-44 29 -105 29q-96 0 -161.5 -90.5t-65.5 -217.5q0 -67 26 -103t71 -36z" />
    <glyph glyph-name="Gdotaccent" unicode="&#x120;" horiz-adv-x="588" 
d="M407 732q-26 0 -26 24q0 21 11 33.5t29 12.5q26 0 26 -24q0 -20 -11 -33t-29 -13zM280 -12q-101 0 -159 56t-58 172q0 204 86.5 330t226.5 126q60 0 113 -20.5t82 -42.5l-30 -38q-12 27 -59.5 50t-108.5 23q-123 0 -199.5 -117.5t-76.5 -307.5q0 -103 49.5 -152
t136.5 -49q54 0 101 16t75 40l41 208h-55q-81 0 -112 -12l10 45q32 -5 108 -5h96q-14 -23 -30 -105l-6 -30q-16 -80 -17 -116q-92 -71 -214 -71z" />
    <glyph glyph-name="gdotaccent" unicode="&#x121;" horiz-adv-x="475" 
d="M321 564q-26 0 -26 24q0 21 11 33.5t29 12.5q26 0 26 -24q0 -20 -11 -33t-29 -13zM150 -200q-76 0 -150 49l28 43q12 -29 44.5 -46.5t77.5 -17.5q68 0 105.5 41.5t61.5 141.5l19 79h-3q-33 -45 -77.5 -73.5t-87.5 -28.5q-58 0 -92.5 42.5t-34.5 124.5q0 141 75.5 239.5
t190.5 98.5q54 0 108 -27l11 20h23l-102 -473q-25 -116 -69.5 -164.5t-127.5 -48.5zM171 16q44 0 97.5 44t79.5 104l58 270q-44 29 -105 29q-96 0 -161.5 -90.5t-65.5 -217.5q0 -67 26 -103t71 -36z" />
    <glyph glyph-name="uni0122" unicode="&#x122;" horiz-adv-x="588" 
d="M280 -12q-101 0 -159 56t-58 172q0 204 86.5 330t226.5 126q60 0 113 -20.5t82 -42.5l-30 -38q-12 27 -59.5 50t-108.5 23q-123 0 -199.5 -117.5t-76.5 -307.5q0 -103 49.5 -152t136.5 -49q54 0 101 16t75 40l41 208h-55q-81 0 -112 -12l10 45q32 -5 108 -5h96
q-14 -23 -30 -105l-6 -30q-16 -80 -17 -116q-92 -71 -214 -71zM209 -200l-10 16q27 11 46.5 33.5t24.5 42.5q-2 -2 -11 -2q-10 0 -17.5 7t-7.5 20q0 18 11.5 30.5t27.5 12.5q31 0 31 -34q0 -36 -29 -74.5t-66 -51.5z" />
    <glyph glyph-name="uni0123" unicode="&#x123;" horiz-adv-x="475" 
d="M314 540q-31 0 -31 34q0 36 29 74.5t66 51.5l5 -14q-50 -22 -66 -78q6 2 12 2q10 0 17.5 -7.5t7.5 -19.5q0 -18 -11.5 -30.5t-28.5 -12.5zM150 -200q-76 0 -150 49l28 43q12 -29 44.5 -46.5t77.5 -17.5q68 0 105.5 41.5t61.5 141.5l19 79h-3q-33 -45 -77.5 -73.5
t-87.5 -28.5q-58 0 -92.5 42.5t-34.5 124.5q0 141 75.5 239.5t190.5 98.5q54 0 108 -27l11 20h23l-102 -473q-25 -116 -69.5 -164.5t-127.5 -48.5zM171 16q44 0 97.5 44t79.5 104l58 270q-44 29 -105 29q-96 0 -161.5 -90.5t-65.5 -217.5q0 -67 26 -103t71 -36z" />
    <glyph glyph-name="Hbar" unicode="&#x126;" horiz-adv-x="593" 
d="M612 526l-6 -28h-45l-78 -398q-6 -31 -7.5 -41.5t-1.5 -28.5t5 -30h-63q20 24 35 100l47 238h-364l-47 -238q-6 -31 -7.5 -41.5t-1.5 -28.5t5 -30h-63q20 23 35 100l78 398h-46l6 28h45l7 34q9 47 10 61t-7 39h63q-20 -23 -34 -100l-7 -34h364l7 34q1 3 3.5 17t3 17.5
l2 14t1.5 15t-0.5 12t-2 13t-4.5 11.5h63q-19 -23 -34 -100l-7 -34h46zM503 366l26 132h-364l-26 -132h364z" />
    <glyph glyph-name="hbar" unicode="&#x127;" horiz-adv-x="530" 
d="M325 492q58 0 91 -41t17 -120l-42 -211q-19 -97 -4 -120h-50l66 327q15 76 -11.5 106.5t-73.5 30.5q-46 0 -95 -31.5t-83 -75.5l-46 -237q-19 -97 -4 -120h-50l112 563h-59l6 28h58q15 85 5 121h48l-24 -121h109l-6 -28h-109l-31 -159h2q29 34 77.5 61t96.5 27z" />
    <glyph glyph-name="Imacron" unicode="&#x12a;" horiz-adv-x="197" 
d="M107 757l6 30h186l-6 -30h-186zM20 0q20 23 35 100l90 460q9 47 10 61t-7 39h63q-19 -25 -34 -100l-90 -460q-15 -74 -4 -100h-63z" />
    <glyph glyph-name="imacron" unicode="&#x12b;" horiz-adv-x="225" 
d="M78 589l6 30h186l-6 -30h-186zM40 0l69 335q20 97 7 143h52l-74 -358q-18 -91 -1 -120h-53z" />
    <glyph glyph-name="Iogonek" unicode="&#x12e;" horiz-adv-x="197" 
d="M148 660h63q-19 -25 -34 -100l-90 -460q-15 -74 -4 -100q-47 -22 -79 -57t-32 -64q0 -15 11 -24t28 -9q27 0 47 22l9 -28q-29 -18 -61 -18q-64 0 -64 50q0 36 31.5 71t75.5 57h-29q20 23 35 100l90 460q9 47 10 61t-7 39z" />
    <glyph glyph-name="iogonek" unicode="&#x12f;" horiz-adv-x="226" 
d="M188 658q29 0 23 -32q-6 -34 -35 -34t-23 34q6 32 35 32zM118 335q20 95 7 143h52l-74 -358q-19 -89 -1 -120q-47 -22 -79 -57t-32 -64q0 -15 11 -24t28 -9q27 0 47 22l9 -28q-29 -18 -61 -18q-64 0 -64 50q0 36 31.5 71t75.5 57h-19z" />
    <glyph glyph-name="Idotaccent" unicode="&#x130;" horiz-adv-x="197" 
d="M193 732q-26 0 -26 24q0 21 11 33.5t29 12.5q26 0 26 -24q0 -20 -11 -33t-29 -13zM20 0q20 23 35 100l90 460q9 47 10 61t-7 39h63q-19 -25 -34 -100l-90 -460q-15 -74 -4 -100h-63z" />
    <glyph glyph-name="dotlessi" unicode="&#x131;" horiz-adv-x="225" 
d="M40 0l69 335q20 97 7 143h52l-74 -358q-18 -91 -1 -120h-53z" />
    <glyph glyph-name="uni0136" unicode="&#x136;" horiz-adv-x="536" 
d="M20 0q20 26 35 100l90 460q15 73 3 100h63q-20 -23 -34 -100l-55 -280h2l322 311q44 42 50 69h73q-32 -23 -99 -87l-177 -171l122 -296q30 -74 62 -106h-66q3 26 -24 90l-119 291l-155 -152l-25 -129q-15 -73 -3 -100h-65zM165 -200l-10 16q27 11 46.5 33.5t24.5 42.5
q-2 -2 -11 -2q-10 0 -17.5 7t-7.5 20q0 18 11.5 30.5t27.5 12.5q31 0 31 -34q0 -36 -29 -74.5t-66 -51.5z" />
    <glyph glyph-name="uni0137" unicode="&#x137;" horiz-adv-x="450" 
d="M42 0l113 569q19 97 7 143h52l-67 -335q27 48 75.5 81.5t106.5 33.5q49 0 82 -30t33 -77q0 -72 -59.5 -115.5t-147.5 -54.5l67 -111q28 -47 45 -68t40 -36h-57l-132 220v15q96 9 153.5 46t57.5 100q0 38 -24 60.5t-62 22.5q-57 0 -109.5 -45t-83.5 -120l-36 -179
q-19 -93 -1 -120h-53zM124 -200l-10 16q27 11 46.5 33.5t24.5 42.5q-2 -2 -11 -2q-10 0 -17.5 7t-7.5 20q0 18 11.5 30.5t27.5 12.5q31 0 31 -34q0 -36 -29 -74.5t-66 -51.5z" />
    <glyph glyph-name="Lacute" unicode="&#x139;" horiz-adv-x="415" 
d="M170 720l-9 16q94 64 162 154l22 -23q-69 -86 -175 -147zM356 -5q-20 5 -129 5h-207q20 23 35 100l90 460q9 48 10 61t-7 39h63q-9 -10 -15 -25t-9 -27t-10 -48l-104 -532h159q67 0 91 2.5t43 12.5z" />
    <glyph glyph-name="lacute" unicode="&#x13a;" horiz-adv-x="227" 
d="M195 783l-9 16q94 64 162 154l22 -23q-69 -86 -175 -147zM50 0l113 569q19 97 7 143h52l-118 -592q-19 -92 -1 -120h-53z" />
    <glyph glyph-name="uni013B" unicode="&#x13b;" horiz-adv-x="415" 
d="M356 -5q-20 5 -129 5h-207q20 23 35 100l90 460q9 48 10 61t-7 39h63q-9 -10 -15 -25t-9 -27t-10 -48l-104 -532h159q67 0 91 2.5t43 12.5zM125 -200l-10 16q27 11 46.5 33.5t24.5 42.5q-2 -2 -11 -2q-10 0 -17.5 7t-7.5 20q0 18 11.5 30.5t27.5 12.5q31 0 31 -34
q0 -36 -29 -74.5t-66 -51.5z" />
    <glyph glyph-name="uni013C" unicode="&#x13c;" horiz-adv-x="227" 
d="M50 0l113 569q19 97 7 143h52l-118 -592q-19 -92 -1 -120h-53zM-1 -200l-10 16q27 11 46.5 33.5t24.5 42.5q-2 -2 -11 -2q-10 0 -17.5 7t-7.5 20q0 18 11.5 30.5t27.5 12.5q31 0 31 -34q0 -36 -29 -74.5t-66 -51.5z" />
    <glyph glyph-name="Lcaron" unicode="&#x13d;" horiz-adv-x="415" 
d="M356 -5q-20 5 -129 5h-207q20 23 35 100l90 460q9 48 10 61t-7 39h63q-9 -10 -15 -25t-9 -27t-10 -48l-104 -532h159q67 0 91 2.5t43 12.5zM280 488l20 168h46l-45 -168h-21z" />
    <glyph glyph-name="lcaron" unicode="&#x13e;" horiz-adv-x="241" 
d="M260 554l20 168h46l-45 -168h-21zM50 0l113 569q19 97 7 143h52l-118 -592q-19 -92 -1 -120h-53z" />
    <glyph glyph-name="Lslash" unicode="&#x141;" horiz-adv-x="415" 
d="M232 28q67 0 91 2.5t43 12.5l-10 -48q-20 5 -129 5h-207q20 23 35 100l44 223l-65 -11l-5 24l75 13l41 211q9 48 10 61t-7 39h63q-9 -10 -15 -25t-9 -27t-10 -48l-40 -205l86 15l5 -24l-96 -17l-59 -301h159z" />
    <glyph glyph-name="lslash" unicode="&#x142;" horiz-adv-x="220" 
d="M138 343l-44 -223q-19 -92 -1 -120h-53l67 336l-57 -12l-6 30l69 15l40 200q19 97 7 143h52l-67 -336l71 15l6 -30z" />
    <glyph glyph-name="Nacute" unicode="&#x143;" horiz-adv-x="596" 
d="M375 720l-9 16q94 64 162 154l22 -23q-69 -86 -175 -147zM20 0q19 26 34 100l90 460q10 50 10.5 68.5t-6.5 31.5h52l247 -609h3q6 60 22 141l72 368q13 70 7 91q-1 5 -3 9h62q-19 -26 -34 -100l-90 -460q-14 -68 -12 -100h-41l-249 614h-3q-7 -64 -22 -140l-73 -374
q-6 -31 -7.5 -41.5t-1.5 -28.5t5 -30h-62z" />
    <glyph glyph-name="nacute" unicode="&#x144;" horiz-adv-x="496" 
d="M285 552l-9 16q94 64 162 154l22 -23q-69 -86 -175 -147zM40 0l67 335q20 102 9 143h42l-11 -72h4q30 34 78.5 61t96.5 27q58 0 91.5 -41t16.5 -120l-45 -213q-20 -97 -4 -120h-48l67 329q16 75 -11 106t-74 31q-46 0 -95 -31.5t-83 -75.5l-49 -239q-20 -96 -4 -120h-48z
" />
    <glyph glyph-name="uni0145" unicode="&#x145;" horiz-adv-x="596" 
d="M20 0q19 26 34 100l90 460q10 50 10.5 68.5t-6.5 31.5h52l247 -609h3q6 60 22 141l72 368q13 70 7 91q-1 5 -3 9h62q-19 -26 -34 -100l-90 -460q-14 -68 -12 -100h-41l-249 614h-3q-7 -64 -22 -140l-73 -374q-6 -31 -7.5 -41.5t-1.5 -28.5t5 -30h-62zM177 -200l-10 16
q27 11 46.5 33.5t24.5 42.5q-2 -2 -11 -2q-10 0 -17.5 7t-7.5 20q0 18 11.5 30.5t27.5 12.5q31 0 31 -34q0 -36 -29 -74.5t-66 -51.5z" />
    <glyph glyph-name="uni0146" unicode="&#x146;" horiz-adv-x="496" 
d="M40 0l67 335q20 102 9 143h42l-11 -72h4q30 34 78.5 61t96.5 27q58 0 91.5 -41t16.5 -120l-45 -213q-20 -97 -4 -120h-48l67 329q16 75 -11 106t-74 31q-46 0 -95 -31.5t-83 -75.5l-49 -239q-20 -96 -4 -120h-48zM141 -200l-10 16q27 11 46.5 33.5t24.5 42.5
q-2 -2 -11 -2q-10 0 -17.5 7t-7.5 20q0 18 11.5 30.5t27.5 12.5q31 0 31 -34q0 -36 -29 -74.5t-66 -51.5z" />
    <glyph glyph-name="Ncaron" unicode="&#x147;" horiz-adv-x="596" 
d="M382 722q-26 79 -88 146l16 16q56 -53 90 -130h4q24 34 62.5 70t75.5 56l10 -19q-36 -21 -75 -62t-60 -77h-35zM20 0q19 26 34 100l90 460q10 50 10.5 68.5t-6.5 31.5h52l247 -609h3q6 60 22 141l72 368q13 70 7 91q-1 5 -3 9h62q-19 -26 -34 -100l-90 -460
q-14 -68 -12 -100h-41l-249 614h-3q-7 -64 -22 -140l-73 -374q-6 -31 -7.5 -41.5t-1.5 -28.5t5 -30h-62z" />
    <glyph glyph-name="ncaron" unicode="&#x148;" horiz-adv-x="496" 
d="M292 554q-26 79 -88 146l16 16q56 -53 90 -130h4q24 34 62.5 70t75.5 56l10 -19q-36 -21 -75 -62t-60 -77h-35zM40 0l67 335q20 102 9 143h42l-11 -72h4q30 34 78.5 61t96.5 27q58 0 91.5 -41t16.5 -120l-45 -213q-20 -97 -4 -120h-48l67 329q16 75 -11 106t-74 31
q-46 0 -95 -31.5t-83 -75.5l-49 -239q-20 -96 -4 -120h-48z" />
    <glyph glyph-name="Eng" unicode="&#x14a;" horiz-adv-x="596" 
d="M610 660q-19 -24 -34 -100l-105 -533l-18 -95q-14 -73 -39 -102.5t-71 -29.5q-19 0 -64 15l16 39q15 -26 53 -26q32 0 48.5 24.5t26.5 77.5l13 70h-3l-249 614h-3q-11 -82 -22 -140l-73 -374q-6 -31 -7.5 -41.5t-1.5 -28.5t5 -30h-62q20 28 34 100l90 460
q10 50 10.5 68.5t-6.5 31.5h52l247 -609h3q9 74 22 141l72 368q15 75 4 100h62z" />
    <glyph glyph-name="eng" unicode="&#x14b;" horiz-adv-x="493" 
d="M243 -136q-33 0 -56 16l16 38q15 -26 47 -26q39 0 57.5 27t29.5 81l67 329q16 75 -11 106t-74 31q-46 0 -95 -31.5t-83 -75.5l-49 -239q-20 -96 -4 -120h-48l67 335q20 102 9 143h42l-11 -72h4q30 34 78.5 61t96.5 27q58 0 91 -41t17 -120l-66 -333q-14 -71 -44 -103.5
t-81 -32.5z" />
    <glyph glyph-name="Omacron" unicode="&#x14c;" horiz-adv-x="645" 
d="M332 757l6 30h186l-6 -30h-186zM273 -12q-93 0 -152.5 61t-59.5 170q0 193 99.5 323t245.5 130q93 0 152.5 -61t59.5 -170q0 -190 -100.5 -321.5t-244.5 -131.5zM279 16q125 0 215.5 123t90.5 297q0 101 -51 154.5t-134 53.5q-126 0 -216 -122t-90 -298q0 -101 51 -154.5
t134 -53.5z" />
    <glyph glyph-name="omacron" unicode="&#x14d;" horiz-adv-x="507" 
d="M220 589l6 30h186l-6 -30h-186zM216 -12q-78 0 -123.5 49.5t-45.5 138.5q0 142 64.5 228t179.5 86q78 0 123.5 -50t45.5 -140q0 -142 -64 -227t-180 -85zM219 16q97 0 152.5 78t55.5 206q0 76 -36.5 119t-102.5 43q-97 0 -152.5 -79t-55.5 -207q0 -75 36 -117.5
t103 -42.5z" />
    <glyph glyph-name="Ohungarumlaut" unicode="&#x150;" horiz-adv-x="645" 
d="M330 716l-13 10q72 76 112 166l29 -16q-51 -91 -128 -160zM458 716l-13 10q72 76 112 166l29 -16q-51 -91 -128 -160zM273 -12q-93 0 -152.5 61t-59.5 170q0 193 99.5 323t245.5 130q93 0 152.5 -61t59.5 -170q0 -190 -100.5 -321.5t-244.5 -131.5zM279 16
q125 0 215.5 123t90.5 297q0 101 -51 154.5t-134 53.5q-126 0 -216 -122t-90 -298q0 -101 51 -154.5t134 -53.5z" />
    <glyph glyph-name="ohungarumlaut" unicode="&#x151;" horiz-adv-x="507" 
d="M218 548l-13 10q72 76 112 166l29 -16q-51 -91 -128 -160zM346 548l-13 10q72 76 112 166l29 -16q-51 -91 -128 -160zM216 -12q-78 0 -123.5 49.5t-45.5 138.5q0 142 64.5 228t179.5 86q78 0 123.5 -50t45.5 -140q0 -142 -64 -227t-180 -85zM219 16q97 0 152.5 78
t55.5 206q0 76 -36.5 119t-102.5 43q-97 0 -152.5 -79t-55.5 -207q0 -75 36 -117.5t103 -42.5z" />
    <glyph glyph-name="OE" unicode="&#x152;" horiz-adv-x="812" 
d="M637 632h-115l-51 -266h103q136 0 162 12l-10 -52q-22 12 -158 12h-103l-60 -310h123q105 0 144.5 2t56.5 10l-8 -45q-33 5 -198 5h-167q-40 -12 -82 -12q-95 0 -153.5 60t-58.5 177q0 191 99 319t246 128q44 0 82 -12h154q158 0 193 5l-9 -45q-22 12 -190 12zM97 231
q0 -104 50 -158.5t133 -54.5q51 0 95 19q6 20 14 63l89 460q11 63 11 65q-37 17 -86 17q-128 0 -217 -118.5t-89 -292.5z" />
    <glyph glyph-name="oe" unicode="&#x153;" horiz-adv-x="836" 
d="M457 238q-2 -16 -8 -46q-15 -176 129 -176q41 0 92 17.5t76 44.5l5 -43q-24 -17 -77 -32t-100 -15q-132 0 -153 126q-62 -126 -205 -126q-78 0 -123.5 49.5t-45.5 138.5q0 142 64.5 228t179.5 86q68 0 112 -39t54 -110q34 70 90.5 109.5t120.5 39.5q60 0 98.5 -34.5
t38.5 -85.5q0 -67 -46 -99.5t-157 -32.5h-145zM219 16q97 0 152.5 78t55.5 206q0 76 -36.5 119t-102.5 43q-97 0 -152.5 -79t-55.5 -207q0 -75 36 -117.5t103 -42.5zM664 462q-60 0 -121.5 -52.5t-81.5 -143.5h148q88 0 126 24t38 75q0 43 -29.5 70t-79.5 27z" />
    <glyph glyph-name="Racute" unicode="&#x154;" horiz-adv-x="506" 
d="M293 720l-9 16q94 64 162 154l22 -23q-69 -86 -175 -147zM21 0q19 26 34 100l90 460q15 76 3 100h178q82 0 136 -36.5t54 -114.5q0 -56 -19.5 -99.5t-51 -68.5t-64 -38.5t-67.5 -18.5l71 -181q28 -71 54 -103h-65q6 23 -20 88l-76 192h-156l-35 -180q-15 -75 -4 -100h-62
zM128 308h129q98 0 162 50.5t64 145.5q0 128 -174 128h-118z" />
    <glyph glyph-name="racute" unicode="&#x155;" horiz-adv-x="320" 
d="M196 552l-9 16q94 64 162 154l22 -23q-69 -86 -175 -147zM42 0l67 335q21 103 7 143h49l-16 -94h1q27 46 68 77t78 31q29 0 54 -17l-18 -33q-16 22 -42 22q-34 0 -77 -39.5t-77 -107.5l-38 -187q-21 -104 1 -130h-57z" />
    <glyph glyph-name="uni0156" unicode="&#x156;" horiz-adv-x="506" 
d="M21 0q19 26 34 100l90 460q15 76 3 100h178q82 0 136 -36.5t54 -114.5q0 -56 -19.5 -99.5t-51 -68.5t-64 -38.5t-67.5 -18.5l71 -181q28 -71 54 -103h-65q6 23 -20 88l-76 192h-156l-35 -180q-15 -75 -4 -100h-62zM128 308h129q98 0 162 50.5t64 145.5q0 128 -174 128
h-118zM142 -200l-10 16q27 11 46.5 33.5t24.5 42.5q-2 -2 -11 -2q-10 0 -17.5 7t-7.5 20q0 18 11.5 30.5t27.5 12.5q31 0 31 -34q0 -36 -29 -74.5t-66 -51.5z" />
    <glyph glyph-name="uni0157" unicode="&#x157;" horiz-adv-x="320" 
d="M42 0l67 335q21 103 7 143h49l-16 -94h1q27 46 68 77t78 31q29 0 54 -17l-18 -33q-16 22 -42 22q-34 0 -77 -39.5t-77 -107.5l-38 -187q-21 -104 1 -130h-57zM-7 -200l-10 16q27 11 46.5 33.5t24.5 42.5q-2 -2 -11 -2q-10 0 -17.5 7t-7.5 20q0 18 11.5 30.5t27.5 12.5
q31 0 31 -34q0 -36 -29 -74.5t-66 -51.5z" />
    <glyph glyph-name="Rcaron" unicode="&#x158;" horiz-adv-x="506" 
d="M300 722q-26 79 -88 146l16 16q56 -53 90 -130h4q24 34 62.5 70t75.5 56l10 -19q-36 -21 -75 -62t-60 -77h-35zM21 0q19 26 34 100l90 460q15 76 3 100h178q82 0 136 -36.5t54 -114.5q0 -56 -19.5 -99.5t-51 -68.5t-64 -38.5t-67.5 -18.5l71 -181q28 -71 54 -103h-65
q6 23 -20 88l-76 192h-156l-35 -180q-15 -75 -4 -100h-62zM128 308h129q98 0 162 50.5t64 145.5q0 128 -174 128h-118z" />
    <glyph glyph-name="rcaron" unicode="&#x159;" horiz-adv-x="320" 
d="M203 554q-26 79 -88 146l16 16q56 -53 90 -130h4q24 34 62.5 70t75.5 56l10 -19q-36 -21 -75 -62t-60 -77h-35zM42 0l67 335q21 103 7 143h49l-16 -94h1q27 46 68 77t78 31q29 0 54 -17l-18 -33q-16 22 -42 22q-34 0 -77 -39.5t-77 -107.5l-38 -187q-21 -104 1 -130h-57z
" />
    <glyph glyph-name="Sacute" unicode="&#x15a;" horiz-adv-x="531" 
d="M332 720l-9 16q94 64 162 154l22 -23q-69 -86 -175 -147zM223 -12q-128 0 -208 74l28 48q35 -92 188 -92q84 0 139 46t55 120q0 30 -10.5 53t-31 39t-38 25.5t-44.5 19.5l-42 16q-132 51 -132 149q0 83 59.5 134.5t146.5 51.5q106 0 174 -62l-26 -38q-33 70 -154 70
q-69 0 -118 -41.5t-49 -105.5q0 -48 32.5 -77.5t86.5 -50.5l41 -16q66 -26 102 -63t36 -97q0 -90 -66.5 -146.5t-168.5 -56.5z" />
    <glyph glyph-name="sacute" unicode="&#x15b;" horiz-adv-x="401" 
d="M238 552l-9 16q94 64 162 154l22 -23q-69 -86 -175 -147zM156 -12q-82 0 -158 49l29 43q11 -26 48.5 -45t86.5 -19q61 0 103.5 33.5t42.5 85.5q0 42 -26.5 65t-69.5 37l-19 6q-21 7 -35.5 13.5t-33.5 19.5t-29.5 34t-10.5 49q0 55 47 94t115 39q40 0 77 -14t57 -32
l-26 -38q-9 25 -39.5 40.5t-73.5 15.5q-52 0 -90 -29.5t-38 -71.5q0 -39 24 -59.5t65 -33.5l19 -6q116 -36 116 -126q0 -64 -51 -107t-130 -43z" />
    <glyph glyph-name="Scedilla" unicode="&#x15e;" horiz-adv-x="531" 
d="M333 672q106 0 174 -62l-26 -38q-33 70 -154 70q-69 0 -118 -41.5t-49 -105.5q0 -48 32.5 -77.5t86.5 -50.5l41 -16q66 -26 102 -63t36 -97q0 -88 -64 -144.5t-162 -58.5l-18 -40q35 -7 51.5 -20.5t16.5 -39.5q0 -46 -35.5 -64t-119.5 -24l-1 26q125 9 125 58
q0 20 -16 30.5t-53 15.5l25 58q-118 5 -192 74l28 48q35 -92 188 -92q84 0 139 46t55 120q0 30 -10.5 53t-31 39t-38 25.5t-44.5 19.5l-42 16q-132 51 -132 149q0 83 59.5 134.5t146.5 51.5z" />
    <glyph glyph-name="scedilla" unicode="&#x15f;" horiz-adv-x="401" 
d="M246 492q40 0 77 -14t57 -32l-26 -38q-9 25 -39.5 40.5t-73.5 15.5q-52 0 -90 -29.5t-38 -71.5q0 -39 24 -59.5t65 -33.5l19 -6q116 -36 116 -126q0 -60 -46.5 -103t-119.5 -47l-18 -40q35 -7 51.5 -20.5t16.5 -39.5q0 -46 -35.5 -64t-119.5 -24l-1 26q125 9 125 58
q0 20 -16 30.5t-53 15.5l25 58q-76 3 -148 49l29 43q11 -26 48.5 -45t86.5 -19q61 0 103.5 33.5t42.5 85.5q0 42 -26.5 65t-69.5 37l-19 6q-21 7 -35.5 13.5t-33.5 19.5t-29.5 34t-10.5 49q0 55 47 94t115 39z" />
    <glyph glyph-name="Scaron" unicode="&#x160;" horiz-adv-x="531" 
d="M339 722q-26 79 -88 146l16 16q56 -53 90 -130h4q24 34 62.5 70t75.5 56l10 -19q-36 -21 -75 -62t-60 -77h-35zM223 -12q-128 0 -208 74l28 48q35 -92 188 -92q84 0 139 46t55 120q0 30 -10.5 53t-31 39t-38 25.5t-44.5 19.5l-42 16q-132 51 -132 149q0 83 59.5 134.5
t146.5 51.5q106 0 174 -62l-26 -38q-33 70 -154 70q-69 0 -118 -41.5t-49 -105.5q0 -48 32.5 -77.5t86.5 -50.5l41 -16q66 -26 102 -63t36 -97q0 -90 -66.5 -146.5t-168.5 -56.5z" />
    <glyph glyph-name="scaron" unicode="&#x161;" horiz-adv-x="401" 
d="M245 554q-26 79 -88 146l16 16q56 -53 90 -130h4q24 34 62.5 70t75.5 56l10 -19q-36 -21 -75 -62t-60 -77h-35zM156 -12q-82 0 -158 49l29 43q11 -26 48.5 -45t86.5 -19q61 0 103.5 33.5t42.5 85.5q0 42 -26.5 65t-69.5 37l-19 6q-21 7 -35.5 13.5t-33.5 19.5t-29.5 34
t-10.5 49q0 55 47 94t115 39q40 0 77 -14t57 -32l-26 -38q-9 25 -39.5 40.5t-73.5 15.5q-52 0 -90 -29.5t-38 -71.5q0 -39 24 -59.5t65 -33.5l19 -6q116 -36 116 -126q0 -64 -51 -107t-130 -43z" />
    <glyph glyph-name="uni0162" unicode="&#x162;" horiz-adv-x="486" 
d="M442 660q68 0 101 5l-9 -48q-22 15 -97 15h-102l-103 -532q-15 -78 -5 -100h-13l-23 -52q35 -7 51.5 -20.5t16.5 -39.5q0 -46 -35.5 -64t-119.5 -24l-1 26q125 9 125 58q0 20 -16 30.5t-53 15.5l30 70h-24q21 27 35 100l103 532h-102q-75 0 -103 -15l9 48q33 -5 99 -5
h236z" />
    <glyph glyph-name="uni0163" unicode="&#x163;" horiz-adv-x="344" 
d="M169 452l-68 -330q-22 -108 53 -108q25 0 52.5 12t34.5 27l16 -36q-39 -22 -89 -28l-18 -41q35 -7 51.5 -20.5t16.5 -39.5q0 -46 -35.5 -64t-119.5 -24l-1 26q125 9 125 58q0 20 -16 30.5t-53 15.5l25 58q-48 4 -65 39.5t-5 96.5l68 328h-76l6 26h76l18 85h27l-17 -85
h147l-6 -26h-147z" />
    <glyph glyph-name="Tcaron" unicode="&#x164;" horiz-adv-x="486" 
d="M317 702q-26 79 -88 146l16 16q56 -53 90 -130h4q24 34 62.5 70t75.5 56l10 -19q-36 -21 -75 -62t-60 -77h-35zM165 0q21 27 35 100l103 532h-102q-75 0 -103 -15l9 48q33 -5 99 -5h236q68 0 101 5l-9 -48q-22 15 -97 15h-102l-103 -532q-15 -78 -5 -100h-62z" />
    <glyph glyph-name="tcaron" unicode="&#x165;" horiz-adv-x="344" 
d="M250 548l26 168h40l-47 -168h-19zM152 -12q-53 0 -72.5 36t-6.5 100l68 328h-76l6 26h76l18 85h27l-17 -85h147l-6 -26h-147l-68 -330q-22 -108 53 -108q25 0 52.5 12t34.5 27l16 -36q-52 -29 -105 -29z" />
    <glyph glyph-name="Tbar" unicode="&#x166;" horiz-adv-x="486" 
d="M442 660q68 0 101 5l-9 -48q-22 15 -97 15h-102l-56 -291h107l-6 -28h-107l-41 -213q-15 -78 -5 -100h-62q21 27 35 100l41 213h-107l6 28h107l56 291h-102q-75 0 -103 -15l9 48q33 -5 99 -5h236z" />
    <glyph glyph-name="tbar" unicode="&#x167;" horiz-adv-x="344" 
d="M316 452h-147l-35 -171h114l-6 -28h-114l-27 -131q-22 -108 53 -108q25 0 52.5 12t34.5 27l16 -36q-52 -29 -105 -29t-72.5 36t-6.5 100l27 129h-64l6 28h64l35 171h-76l6 26h76l18 85h27l-17 -85h147z" />
    <glyph glyph-name="Umacron" unicode="&#x16a;" horiz-adv-x="577" 
d="M298 757l6 30h186l-6 -30h-186zM240 -12q-42 0 -75 11.5t-61.5 41t-35 79.5t5.5 126l61 314q8 46 9 62t-6 38h63q-20 -23 -34 -100l-60 -311q-44 -232 138 -232q82 0 146.5 55.5t88.5 181.5l59 306q15 77 3 100h61q-19 -26 -34 -100l-61 -311q-52 -261 -268 -261z" />
    <glyph glyph-name="umacron" unicode="&#x16b;" horiz-adv-x="500" 
d="M220 589l6 30h186l-6 -30h-186zM173 -12q-65 0 -90.5 48.5t-7.5 141.5l35 180q6 33 8.5 52t1 38t-9.5 30h53l-58 -300q-32 -162 73 -162q44 0 97 35.5t96 89.5l42 217q18 94 3 120h50l-69 -358q-17 -97 -6 -120h-44l16 91h-3q-91 -103 -187 -103z" />
    <glyph glyph-name="Uring" unicode="&#x16e;" horiz-adv-x="577" 
d="M383 720q-31 0 -51 16t-20 44q0 38 29 65t71 27q32 0 51.5 -16t19.5 -44q0 -38 -29 -65t-71 -27zM388 744q29 0 48 18.5t19 46.5q0 39 -47 39q-30 0 -49 -18t-19 -47q0 -39 48 -39zM240 -12q-42 0 -75 11.5t-61.5 41t-35 79.5t5.5 126l61 314q8 46 9 62t-6 38h63
q-20 -23 -34 -100l-60 -311q-44 -232 138 -232q82 0 146.5 55.5t88.5 181.5l59 306q15 77 3 100h61q-19 -26 -34 -100l-61 -311q-52 -261 -268 -261z" />
    <glyph glyph-name="uring" unicode="&#x16f;" horiz-adv-x="500" 
d="M305 552q-31 0 -51 16t-20 44q0 38 29 65t71 27q32 0 51.5 -16t19.5 -44q0 -38 -29 -65t-71 -27zM310 576q29 0 48 18.5t19 46.5q0 39 -47 39q-30 0 -49 -18t-19 -47q0 -39 48 -39zM173 -12q-65 0 -90.5 48.5t-7.5 141.5l35 180q6 33 8.5 52t1 38t-9.5 30h53l-58 -300
q-32 -162 73 -162q44 0 97 35.5t96 89.5l42 217q18 94 3 120h50l-69 -358q-17 -97 -6 -120h-44l16 91h-3q-91 -103 -187 -103z" />
    <glyph glyph-name="Uhungarumlaut" unicode="&#x170;" horiz-adv-x="577" 
d="M296 716l-13 10q72 76 112 166l29 -16q-51 -91 -128 -160zM424 716l-13 10q72 76 112 166l29 -16q-51 -91 -128 -160zM240 -12q-42 0 -75 11.5t-61.5 41t-35 79.5t5.5 126l61 314q8 46 9 62t-6 38h63q-20 -23 -34 -100l-60 -311q-44 -232 138 -232q82 0 146.5 55.5
t88.5 181.5l59 306q15 77 3 100h61q-19 -26 -34 -100l-61 -311q-52 -261 -268 -261z" />
    <glyph glyph-name="uhungarumlaut" unicode="&#x171;" horiz-adv-x="500" 
d="M218 548l-13 10q72 76 112 166l29 -16q-51 -91 -128 -160zM346 548l-13 10q72 76 112 166l29 -16q-51 -91 -128 -160zM173 -12q-65 0 -90.5 48.5t-7.5 141.5l35 180q6 33 8.5 52t1 38t-9.5 30h53l-58 -300q-32 -162 73 -162q44 0 97 35.5t96 89.5l42 217q18 94 3 120h50
l-69 -358q-17 -97 -6 -120h-44l16 91h-3q-91 -103 -187 -103z" />
    <glyph glyph-name="Uogonek" unicode="&#x172;" horiz-adv-x="577" 
d="M542 660h61q-19 -26 -34 -100l-61 -311q-39 -194 -166 -244q-44 -22 -73 -55t-29 -61q0 -15 11 -24t28 -9q27 0 47 22l9 -28q-29 -18 -61 -18q-64 0 -64 50q0 58 75 109q-23 -3 -45 -3q-42 0 -75 11.5t-61.5 41t-35 79.5t5.5 126l61 314q8 46 9 62t-6 38h63
q-20 -23 -34 -100l-60 -311q-44 -232 138 -232q82 0 146.5 55.5t88.5 181.5l59 306q15 77 3 100z" />
    <glyph glyph-name="uogonek" unicode="&#x173;" horiz-adv-x="500" 
d="M466 478l-69 -358q-17 -97 -6 -120q-47 -22 -79 -57t-32 -64q0 -15 11 -24t28 -9q27 0 47 22l9 -28q-29 -18 -61 -18q-64 0 -64 50q0 36 31.5 71t75.5 57h-10l16 91h-3q-91 -103 -187 -103q-65 0 -90.5 48.5t-7.5 141.5l35 180q6 33 8.5 52t1 38t-9.5 30h53l-58 -300
q-32 -162 73 -162q44 0 97 35.5t96 89.5l42 217q18 94 3 120h50z" />
    <glyph glyph-name="Wcircumflex" unicode="&#x174;" horiz-adv-x="776" 
d="M508 850q-60 -72 -145 -130l-10 16q83 65 146 146h28q36 -88 90 -146l-16 -16q-54 51 -89 130h-4zM781 660h55q-21 -25 -50 -94l-182 -434q-42 -97 -45 -132h-60q7 31 0 132l-36 488l-225 -488q-46 -98 -50 -132h-61q7 31 4 132l-14 434q-2 62 -13 94h53q-10 -29 -8 -94
l15 -526l244 528q31 67 32 92h61q-9 -28 -4 -91l39 -529l221 531q27 65 24 89z" />
    <glyph glyph-name="wcircumflex" unicode="&#x175;" horiz-adv-x="644" 
d="M272 552l-10 16q83 65 146 146h28q36 -88 90 -146l-16 -16q-54 51 -89 130h-4q-60 -72 -145 -130zM125 0l-34 373q-7 78 -25 105h45l29 -330q8 -92 8 -116h8q20 50 54.5 123.5t69.5 146t44 92.5q29 64 25 84h50l23 -330q5 -72 5 -116h8q20 51 75.5 160.5t91.5 188.5
t29 97h39q-11 -37 -102.5 -221.5t-116.5 -256.5h-47l-26 373q-4 66 -6 73h-1q-7 -21 -27 -66q-19 -42 -61.5 -130t-69 -147.5t-41.5 -102.5h-47z" />
    <glyph glyph-name="Ycircumflex" unicode="&#x176;" horiz-adv-x="476" 
d="M357 850q-60 -72 -145 -130l-10 16q83 65 146 146h28q36 -88 90 -146l-16 -16q-54 51 -89 130h-4zM485 660h57q-28 -26 -81 -104l-198 -290l-33 -166q-15 -74 -4 -100h-62q19 23 34 100l34 172l-94 286q-27 81 -42 102h55q-5 -25 17 -93l86 -269l182 268q48 70 49 94z
" />
    <glyph glyph-name="ycircumflex" unicode="&#x177;" horiz-adv-x="423" 
d="M143 552l-10 16q83 65 146 146h28q36 -88 90 -146l-16 -16q-54 51 -89 130h-4q-60 -72 -145 -130zM-19 -200q-27 0 -47 8l19 43q11 -23 39 -23q82 0 156 134l14 25l-64 380q-9 51 -16 73.5t-21 37.5h45l50 -284q17 -100 25 -166h4q29 60 88 169l103 191q23 42 30 60.5
t-1 29.5h49l-283 -529q-80 -149 -190 -149z" />
    <glyph glyph-name="Ydieresis" unicode="&#x178;" horiz-adv-x="476" 
d="M280 748q-11 0 -18.5 7.5t-7.5 18.5q0 15 12 26.5t27 11.5q11 0 18.5 -7.5t7.5 -18.5q0 -14 -11.5 -26t-27.5 -12zM396 748q-11 0 -18.5 7.5t-7.5 18.5q0 15 12 26.5t27 11.5q11 0 18.5 -7.5t7.5 -18.5q0 -14 -11.5 -26t-27.5 -12zM485 660h57q-28 -26 -81 -104
l-198 -290l-33 -166q-15 -74 -4 -100h-62q19 23 34 100l34 172l-94 286q-27 81 -42 102h55q-5 -25 17 -93l86 -269l182 268q48 70 49 94z" />
    <glyph glyph-name="Zacute" unicode="&#x179;" horiz-adv-x="545" 
d="M512 847q-69 -86 -175 -147l-9 16q94 64 162 154zM303 660h257l-2 -33q-19 -5 -68 -66l-433 -533h201q105 0 141.5 3t53.5 13l-11 -49q-32 5 -189 5h-246l2 33q23 9 81 81l421 518h-213q-114 0 -145 -17l10 50q33 -5 140 -5z" />
    <glyph glyph-name="zacute" unicode="&#x17a;" horiz-adv-x="419" 
d="M413 699q-69 -86 -175 -147l-9 16q94 64 162 154zM92 432l9 46h312l-5 -27l-378 -423h195q62 0 84.5 3t39.5 15l-9 -46h-354l5 27l377 423h-163q-56 0 -76 -3t-37 -15z" />
    <glyph glyph-name="Zdotaccent" unicode="&#x17b;" horiz-adv-x="545" 
d="M361 712q-26 0 -26 24q0 21 11 33.5t29 12.5q26 0 26 -24q0 -20 -11 -33t-29 -13zM303 660h257l-2 -33q-19 -5 -68 -66l-433 -533h201q105 0 141.5 3t53.5 13l-11 -49q-32 5 -189 5h-246l2 33q23 9 81 81l421 518h-213q-114 0 -145 -17l10 50q33 -5 140 -5z" />
    <glyph glyph-name="zdotaccent" unicode="&#x17c;" horiz-adv-x="419" 
d="M262 564q-26 0 -26 24q0 21 11 33.5t29 12.5q26 0 26 -24q0 -20 -11 -33t-29 -13zM413 478l-5 -27l-378 -423h195q62 0 84.5 3t39.5 15l-9 -46h-354l5 27l377 423h-163q-56 0 -76 -3t-37 -15l9 46h312z" />
    <glyph glyph-name="Zcaron" unicode="&#x17d;" horiz-adv-x="545" 
d="M379 702h-35q-26 79 -88 146l16 16q56 -53 90 -130h4q24 34 62.5 70t75.5 56l10 -19q-36 -21 -75 -62t-60 -77zM303 660h257l-2 -33q-19 -5 -68 -66l-433 -533h201q105 0 141.5 3t53.5 13l-11 -49q-32 5 -189 5h-246l2 33q23 9 81 81l421 518h-213q-114 0 -145 -17l10 50
q33 -5 140 -5z" />
    <glyph glyph-name="zcaron" unicode="&#x17e;" horiz-adv-x="419" 
d="M280 554h-35q-26 79 -88 146l16 16q56 -53 90 -130h4q24 34 62.5 70t75.5 56l10 -19q-36 -21 -75 -62t-60 -77zM92 432l9 46h312l-5 -27l-378 -423h195q62 0 84.5 3t39.5 15l-9 -46h-354l5 27l377 423h-163q-56 0 -76 -3t-37 -15z" />
    <glyph glyph-name="florin" unicode="&#x192;" horiz-adv-x="542" 
d="M448 612q23 0 69 -11l-18 -39q-21 22 -56 22q-85 0 -126 -134l-19 -63h88q39 0 58 8l-9 -44q-16 8 -54 8h-92l-64 -209q-28 -90 -64 -126t-87 -36q-28 0 -54 11l18 39q13 -22 41 -22q40 0 67 30.5t49 103.5l64 209h-29q-39 0 -58 -8l9 44q16 -8 54 -8h33l19 63
q49 162 161 162z" />
    <glyph glyph-name="uni0218" unicode="&#x218;" horiz-adv-x="531" 
d="M223 -12q-128 0 -208 74l28 48q35 -92 188 -92q84 0 139 46t55 120q0 30 -10.5 53t-31 39t-38 25.5t-44.5 19.5l-42 16q-132 51 -132 149q0 83 59.5 134.5t146.5 51.5q106 0 174 -62l-26 -38q-33 70 -154 70q-69 0 -118 -41.5t-49 -105.5q0 -48 32.5 -77.5t86.5 -50.5
l41 -16q66 -26 102 -63t36 -97q0 -90 -66.5 -146.5t-168.5 -56.5zM151 -200l-10 16q27 11 46.5 33.5t24.5 42.5q-2 -2 -11 -2q-10 0 -17.5 7t-7.5 20q0 18 11.5 30.5t27.5 12.5q31 0 31 -34q0 -36 -29 -74.5t-66 -51.5z" />
    <glyph glyph-name="uni0219" unicode="&#x219;" horiz-adv-x="401" 
d="M156 -12q-82 0 -158 49l29 43q11 -26 48.5 -45t86.5 -19q61 0 103.5 33.5t42.5 85.5q0 42 -26.5 65t-69.5 37l-19 6q-21 7 -35.5 13.5t-33.5 19.5t-29.5 34t-10.5 49q0 55 47 94t115 39q40 0 77 -14t57 -32l-26 -38q-9 25 -39.5 40.5t-73.5 15.5q-52 0 -90 -29.5
t-38 -71.5q0 -39 24 -59.5t65 -33.5l19 -6q116 -36 116 -126q0 -64 -51 -107t-130 -43zM90 -200l-10 16q27 11 46.5 33.5t24.5 42.5q-2 -2 -11 -2q-10 0 -17.5 7t-7.5 20q0 18 11.5 30.5t27.5 12.5q31 0 31 -34q0 -36 -29 -74.5t-66 -51.5z" />
    <glyph glyph-name="uni021A" unicode="&#x21a;" horiz-adv-x="486" 
d="M165 0q21 27 35 100l103 532h-102q-75 0 -103 -15l9 48q33 -5 99 -5h236q68 0 101 5l-9 -48q-22 15 -97 15h-102l-103 -532q-15 -78 -5 -100h-62zM128 -200l-10 16q27 11 46.5 33.5t24.5 42.5q-2 -2 -11 -2q-10 0 -17.5 7t-7.5 20q0 18 11.5 30.5t27.5 12.5q31 0 31 -34
q0 -36 -29 -74.5t-66 -51.5z" />
    <glyph glyph-name="uni021B" unicode="&#x21b;" horiz-adv-x="344" 
d="M152 -12q-53 0 -72.5 36t-6.5 100l68 328h-76l6 26h76l18 85h27l-17 -85h147l-6 -26h-147l-68 -330q-22 -108 53 -108q25 0 52.5 12t34.5 27l16 -36q-52 -29 -105 -29zM87 -200l-10 16q27 11 46.5 33.5t24.5 42.5q-2 -2 -11 -2q-10 0 -17.5 7t-7.5 20q0 18 11.5 30.5
t27.5 12.5q31 0 31 -34q0 -36 -29 -74.5t-66 -51.5z" />
    <glyph glyph-name="circumflex" unicode="&#x2c6;" horiz-adv-x="424" 
d="M158 574l-10 16q83 65 146 146h28q36 -88 90 -146l-16 -16q-54 51 -89 130h-4q-60 -72 -145 -130z" />
    <glyph glyph-name="caron" unicode="&#x2c7;" horiz-adv-x="424" 
d="M262 576q-26 79 -88 146l16 16q56 -53 90 -130h4q24 34 62.5 70t75.5 56l10 -19q-36 -21 -75 -62t-60 -77h-35z" />
    <glyph glyph-name="breve" unicode="&#x2d8;" horiz-adv-x="376" 
d="M252 570q-108 0 -80 142h24q-9 -50 4 -83t57 -33q45 0 71.5 33t35.5 83h24q-28 -142 -136 -142z" />
    <glyph glyph-name="dotaccent" unicode="&#x2d9;" horiz-adv-x="224" 
d="M179 586q-26 0 -26 24q0 21 11 33.5t29 12.5q26 0 26 -24q0 -20 -11 -33t-29 -13z" />
    <glyph glyph-name="ring" unicode="&#x2da;" horiz-adv-x="328" 
d="M229 574q-31 0 -51 16t-20 44q0 38 29 65t71 27q32 0 51.5 -16t19.5 -44q0 -38 -29 -65t-71 -27zM234 598q29 0 48 18.5t19 46.5q0 39 -47 39q-30 0 -49 -18t-19 -47q0 -39 48 -39z" />
    <glyph glyph-name="ogonek" unicode="&#x2db;" horiz-adv-x="293" 
d="M75 -175q-64 0 -64 50q0 39 36 76t84 58l21 -6q-47 -22 -79 -57t-32 -64q0 -15 11 -24t28 -9q27 0 47 22l9 -28q-29 -18 -61 -18z" />
    <glyph glyph-name="tilde" unicode="&#x2dc;" horiz-adv-x="459" 
d="M365 589q-21 0 -38.5 13.5t-27 30.5t-23.5 30.5t-29 13.5q-51 0 -59 -68l-36 2q16 42 38.5 66t62.5 24q21 0 38 -13.5t27 -30.5t24 -30.5t29 -13.5q49 0 59 68l35 -2q-17 -42 -39 -66t-61 -24z" />
    <glyph glyph-name="hungarumlaut" unicode="&#x2dd;" horiz-adv-x="400" 
d="M159 570l-13 10q72 76 112 166l29 -16q-51 -91 -128 -160zM287 570l-13 10q72 76 112 166l29 -16q-51 -91 -128 -160z" />
    <glyph glyph-name="gravecomb" unicode="&#x300;" 
d="M-250 574q-84 62 -118 147l28 21q36 -96 103 -154z" />
    <glyph glyph-name="acutecomb" unicode="&#x301;" 
d="M-385 574l-9 16q94 64 162 154l22 -23q-69 -86 -175 -147z" />
    <glyph glyph-name="uni0302" unicode="&#x302;" 
d="M-384 574l-10 16q83 65 146 146h28q36 -88 90 -146l-16 -16q-54 51 -89 130h-4q-60 -72 -145 -130z" />
    <glyph glyph-name="tildecomb" unicode="&#x303;" 
d="M-177 589q-21 0 -38.5 13.5t-27 30.5t-23.5 30.5t-29 13.5q-51 0 -59 -68l-36 2q16 42 38.5 66t62.5 24q21 0 38 -13.5t27 -30.5t24 -30.5t29 -13.5q49 0 59 68l35 -2q-17 -42 -39 -66t-61 -24z" />
    <glyph glyph-name="uni0304" unicode="&#x304;" 
d="M-390 611l6 30h186l-6 -30h-186z" />
    <glyph glyph-name="uni0306" unicode="&#x306;" 
d="M-290 570q-108 0 -80 142h24q-9 -50 4 -83t57 -33q45 0 71.5 33t35.5 83h24q-28 -142 -136 -142z" />
    <glyph glyph-name="uni0307" unicode="&#x307;" 
d="M-363 586q-26 0 -26 24q0 21 11 33.5t29 12.5q26 0 26 -24q0 -20 -11 -33t-29 -13z" />
    <glyph glyph-name="uni0308" unicode="&#x308;" 
d="M-360 602q-11 0 -18.5 7.5t-7.5 18.5q0 15 12 26.5t27 11.5q11 0 18.5 -7.5t7.5 -18.5q0 -14 -11.5 -26t-27.5 -12zM-244 602q-11 0 -18.5 7.5t-7.5 18.5q0 15 12 26.5t27 11.5q11 0 18.5 -7.5t7.5 -18.5q0 -14 -11.5 -26t-27.5 -12z" />
    <glyph glyph-name="uni030A" unicode="&#x30a;" 
d="M-313 574q-31 0 -51 16t-20 44q0 38 29 65t71 27q32 0 51.5 -16t19.5 -44q0 -38 -29 -65t-71 -27zM-308 598q29 0 48 18.5t19 46.5q0 39 -47 39q-30 0 -49 -18t-19 -47q0 -39 48 -39z" />
    <glyph glyph-name="uni030B" unicode="&#x30b;" 
d="M-241 570l-13 10q72 76 112 166l29 -16q-51 -91 -128 -160zM-113 570l-13 10q72 76 112 166l29 -16q-51 -91 -128 -160z" />
    <glyph glyph-name="uni030C" unicode="&#x30c;" 
d="M-280 576q-26 79 -88 146l16 16q56 -53 90 -130h4q24 34 62.5 70t75.5 56l10 -19q-36 -21 -75 -62t-60 -77h-35z" />
    <glyph glyph-name="uni0312" unicode="&#x312;" 
d="M-58 562q-31 0 -31 34q0 36 29 74.5t66 51.5l5 -14q-50 -22 -66 -78q6 2 12 2q10 0 17.5 -7.5t7.5 -19.5q0 -18 -11.5 -30.5t-28.5 -12.5z" />
    <glyph glyph-name="uni0326" unicode="&#x326;" 
d="M-237 -200l-10 16q27 11 46.5 33.5t24.5 42.5q-2 -2 -11 -2q-10 0 -17.5 7t-7.5 20q0 18 11.5 30.5t27.5 12.5q31 0 31 -34q0 -36 -29 -74.5t-66 -51.5z" />
    <glyph glyph-name="uni0327" unicode="&#x327;" 
d="M-283 -200l-1 26q125 9 125 58q0 20 -16 30.5t-53 15.5l31 73h25l-24 -55q35 -7 51.5 -20.5t16.5 -39.5q0 -46 -35.5 -64t-119.5 -24z" />
    <glyph glyph-name="uni0328" unicode="&#x328;" 
d="M-218 -175q-64 0 -64 50q0 39 36 76t84 58l21 -6q-47 -22 -79 -57t-32 -64q0 -15 11 -24t28 -9q27 0 47 22l9 -28q-29 -18 -61 -18z" />
    <glyph glyph-name="uni0394" unicode="&#x394;" horiz-adv-x="555" 
d="M429 577l87 -549l-13 -28h-463l-3 28l302 549q31 56 36 83h50q-6 -22 4 -83zM70 28h413l-90 594h-3z" />
    <glyph glyph-name="uni03A9" unicode="&#x3a9;" horiz-adv-x="718" 
d="M425 28h96q39 0 58 8l-9 -44q-16 8 -54 8h-151l5 28q67 25 126.5 90.5t95 152.5t35.5 170q0 97 -52 149t-136 52q-124 0 -210 -106t-86 -259q0 -89 34.5 -156.5t92.5 -92.5l-4 -23l-1 -5h-151q-39 0 -58 -8l9 44q16 -8 54 -8h96q-52 34 -80 96t-28 142q0 172 97.5 289
t240.5 117q96 0 156.5 -58t60.5 -167q0 -128 -68 -247t-169 -172z" />
    <glyph glyph-name="uni03BC" unicode="&#x3bc;" horiz-adv-x="524" 
d="M476 478l-73 -378q-15 -78 -7 -100h-46q9 43 23 102h-3q-82 -114 -188 -114q-75 0 -98 67l-21 -105q-14 -71 -2 -100h-62q12 15 18.5 34t15.5 66l63 320l21 108q15 77 6 100h43l-40 -208l-23 -116l-1 -6q-12 -60 12 -95t76 -35q100 0 192 132l45 228q15 73 9 100h40z" />
    <glyph glyph-name="pi" unicode="&#x3c0;" horiz-adv-x="508" 
d="M330 -12q-40 0 -50 27t3 90l67 345h-188l-68 -350q-15 -75 -4 -100h-62q19 24 34 100l68 350h-3q-64 0 -92 -15l9 48q32 -5 89 -5h256q56 0 91 5l-9 -48q-14 9 -29 12t-59 3h-3l-67 -345q-9 -54 -3.5 -71.5t25.5 -17.5q27 0 44 10l-1 -35q-9 1 -24.5 -1t-23.5 -2z" />
    <glyph glyph-name="Wgrave" unicode="&#x1e80;" horiz-adv-x="776" 
d="M504 720q-84 62 -118 147l28 21q36 -96 103 -154zM781 660h55q-21 -25 -50 -94l-182 -434q-42 -97 -45 -132h-60q7 31 0 132l-36 488l-225 -488q-46 -98 -50 -132h-61q7 31 4 132l-14 434q-2 62 -13 94h53q-10 -29 -8 -94l15 -526l244 528q31 67 32 92h61q-9 -28 -4 -91
l39 -529l221 531q27 65 24 89z" />
    <glyph glyph-name="wgrave" unicode="&#x1e81;" horiz-adv-x="644" 
d="M413 552q-84 62 -118 147l28 21q36 -96 103 -154zM125 0l-34 373q-7 78 -25 105h45l29 -330q8 -92 8 -116h8q20 50 54.5 123.5t69.5 146t44 92.5q29 64 25 84h50l23 -330q5 -72 5 -116h8q20 51 75.5 160.5t91.5 188.5t29 97h39q-11 -37 -102.5 -221.5t-116.5 -256.5h-47
l-26 373q-4 66 -6 73h-1q-7 -21 -27 -66q-19 -42 -61.5 -130t-69 -147.5t-41.5 -102.5h-47z" />
    <glyph glyph-name="Wacute" unicode="&#x1e82;" horiz-adv-x="776" 
d="M635 867q-69 -86 -175 -147l-9 16q94 64 162 154zM781 660h55q-21 -25 -50 -94l-182 -434q-42 -97 -45 -132h-60q7 31 0 132l-36 488l-225 -488q-46 -98 -50 -132h-61q7 31 4 132l-14 434q-2 62 -13 94h53q-10 -29 -8 -94l15 -526l244 528q31 67 32 92h61q-9 -28 -4 -91
l39 -529l221 531q27 65 24 89z" />
    <glyph glyph-name="wacute" unicode="&#x1e83;" horiz-adv-x="644" 
d="M369 552l-9 16q94 64 162 154l22 -23q-69 -86 -175 -147zM125 0l-34 373q-7 78 -25 105h45l29 -330q8 -92 8 -116h8q20 50 54.5 123.5t69.5 146t44 92.5q29 64 25 84h50l23 -330q5 -72 5 -116h8q20 51 75.5 160.5t91.5 188.5t29 97h39q-11 -37 -102.5 -221.5
t-116.5 -256.5h-47l-26 373q-4 66 -6 73h-1q-7 -21 -27 -66q-19 -42 -61.5 -130t-69 -147.5t-41.5 -102.5h-47z" />
    <glyph glyph-name="Wdieresis" unicode="&#x1e84;" horiz-adv-x="776" 
d="M431 748q-11 0 -18.5 7.5t-7.5 18.5q0 15 12 26.5t27 11.5q11 0 18.5 -7.5t7.5 -18.5q0 -14 -12 -26t-27 -12zM547 748q-11 0 -18.5 7.5t-7.5 18.5q0 15 12 26.5t27 11.5q11 0 18.5 -7.5t7.5 -18.5q0 -14 -12 -26t-27 -12zM781 660h55q-21 -25 -50 -94l-182 -434
q-42 -97 -45 -132h-60q7 31 0 132l-36 488l-225 -488q-46 -98 -50 -132h-61q7 31 4 132l-14 434q-2 62 -13 94h53q-10 -29 -8 -94l15 -526l244 528q31 67 32 92h61q-9 -28 -4 -91l39 -529l221 531q27 65 24 89z" />
    <glyph glyph-name="wdieresis" unicode="&#x1e85;" horiz-adv-x="644" 
d="M340 580q-11 0 -18.5 7.5t-7.5 18.5q0 15 12 26.5t27 11.5q11 0 18.5 -7.5t7.5 -18.5q0 -14 -11.5 -26t-27.5 -12zM456 580q-11 0 -18.5 7.5t-7.5 18.5q0 15 12 26.5t27 11.5q11 0 18.5 -7.5t7.5 -18.5q0 -14 -11.5 -26t-27.5 -12zM125 0l-34 373q-7 78 -25 105h45
l29 -330q8 -92 8 -116h8q20 50 54.5 123.5t69.5 146t44 92.5q29 64 25 84h50l23 -330q5 -72 5 -116h8q20 51 75.5 160.5t91.5 188.5t29 97h39q-11 -37 -102.5 -221.5t-116.5 -256.5h-47l-26 373q-4 66 -6 73h-1q-7 -21 -27 -66q-19 -42 -61.5 -130t-69 -147.5t-41.5 -102.5
h-47z" />
    <glyph glyph-name="uni1E9E" unicode="&#x1e9e;" horiz-adv-x="565" 
d="M303 -12q-91 0 -156 56l27 37q29 -65 131 -65q74 0 127.5 48.5t53.5 124.5q0 66 -43.5 103t-145.5 51l4 23l167 178q-5 40 -45 70t-90 30q-75 0 -120 -49t-66 -156l-66 -339q-14 -74 -4 -100h-62q19 24 34 100l66 339q46 233 221 233q64 0 110.5 -38.5t54.5 -93.5
l-164 -175q182 -27 182 -174q0 -92 -61.5 -147.5t-154.5 -55.5z" />
    <glyph glyph-name="Ygrave" unicode="&#x1ef2;" horiz-adv-x="476" 
d="M353 720q-84 62 -118 147l28 21q36 -96 103 -154zM485 660h57q-28 -26 -81 -104l-198 -290l-33 -166q-15 -74 -4 -100h-62q19 23 34 100l34 172l-94 286q-27 81 -42 102h55q-5 -25 17 -93l86 -269l182 268q48 70 49 94z" />
    <glyph glyph-name="ygrave" unicode="&#x1ef3;" horiz-adv-x="423" 
d="M284 552q-84 62 -118 147l28 21q36 -96 103 -154zM-19 -200q-27 0 -47 8l19 43q11 -23 39 -23q82 0 156 134l14 25l-64 380q-9 51 -16 73.5t-21 37.5h45l50 -284q17 -100 25 -166h4q29 60 88 169l103 191q23 42 30 60.5t-1 29.5h49l-283 -529q-80 -149 -190 -149z" />
    <glyph glyph-name="figuredash" unicode="&#x2012;" horiz-adv-x="503" 
d="M41 236l6 30h416l-6 -30h-416z" />
    <glyph glyph-name="endash" unicode="&#x2013;" horiz-adv-x="486" 
d="M41 236l6 30h398l-6 -30h-398z" />
    <glyph glyph-name="emdash" unicode="&#x2014;" horiz-adv-x="806" 
d="M41 236l6 30h718l-6 -30h-718z" />
    <glyph glyph-name="quoteleft" unicode="&#x2018;" horiz-adv-x="191" 
d="M381 687l6 -15q-74 -44 -90 -126q4 2 12 2q11 0 19 -7t8 -20q0 -19 -13 -32t-31 -13q-34 0 -34 42q0 45 33.5 91t89.5 78z" />
    <glyph glyph-name="quoteright" unicode="&#x2019;" horiz-adv-x="219" 
d="M46 476l-6 15q74 44 90 126q-4 -2 -12 -2q-11 0 -19 7t-8 20q0 19 13 32t31 13q34 0 34 -42q0 -45 -33.5 -91t-89.5 -78z" />
    <glyph glyph-name="quotesinglbase" unicode="&#x201a;" horiz-adv-x="191" 
d="M-74 -139l-6 15q74 44 90 126q-4 -2 -12 -2q-11 0 -19 7t-8 20q0 19 13 32t31 13q34 0 34 -42q0 -45 -33.5 -91t-89.5 -78z" />
    <glyph glyph-name="quotedblleft" unicode="&#x201c;" horiz-adv-x="306" 
d="M381 687l6 -15q-74 -44 -90 -126q4 2 12 2q11 0 19 -7t8 -20q0 -19 -13 -32t-31 -13q-34 0 -34 42q0 45 33.5 91t89.5 78zM496 687l6 -15q-74 -44 -90 -126q4 2 12 2q11 0 19 -7t8 -20q0 -19 -13 -32t-31 -13q-34 0 -34 42q0 45 33.5 91t89.5 78z" />
    <glyph glyph-name="quotedblright" unicode="&#x201d;" horiz-adv-x="306" 
d="M36 476l-6 15q74 44 90 126q-4 -2 -12 -2q-11 0 -19 7t-8 20q0 19 13 32t31 13q34 0 34 -42q0 -45 -33.5 -91t-89.5 -78zM151 476l-6 15q74 44 90 126q-4 -2 -12 -2q-11 0 -19 7t-8 20q0 19 13 32t31 13q34 0 34 -42q0 -45 -33.5 -91t-89.5 -78z" />
    <glyph glyph-name="quotedblbase" unicode="&#x201e;" horiz-adv-x="306" 
d="M-74 -140l-6 15q74 44 90 126q-4 -2 -12 -2q-11 0 -19 7t-8 20q0 19 13 32t31 13q34 0 34 -42q0 -45 -33.5 -91t-89.5 -78zM41 -140l-6 15q74 44 90 126q-4 -2 -12 -2q-11 0 -19 7t-8 20q0 19 13 32t31 13q34 0 34 -42q0 -45 -33.5 -91t-89.5 -78z" />
    <glyph glyph-name="dagger" unicode="&#x2020;" horiz-adv-x="409" 
d="M128 249q14 17 26 80l33 172l-48 1q-53 0 -72 -11l10 50q14 -11 68 -11h48l11 60q10 54 4 70h50q-15 -20 -24 -70l-11 -60l46 -1q52 0 73 11l-10 -50q-16 11 -68 11h-47l-33 -172q-12 -65 -6 -80h-50z" />
    <glyph glyph-name="daggerdbl" unicode="&#x2021;" horiz-adv-x="462" 
d="M151 249q15 22 26 80l10 52l-48 1q-53 0 -72 -11l10 50q14 -11 68 -11h48l19 101l-48 1q-51 0 -72 -11l10 50q16 -11 68 -11h48l10 50q10 50 3 70h50q-12 -17 -23 -70l-10 -50l47 -1q52 0 72 11l-10 -50q-16 11 -68 11h-47l-19 -101l46 -1q52 0 73 11l-10 -50
q-16 11 -68 11h-47l-10 -52q-12 -63 -6 -80h-50z" />
    <glyph glyph-name="bullet" unicode="&#x2022;" horiz-adv-x="299" 
d="M136 171q-30 0 -50 19.5t-20 51.5q0 45 32.5 79.5t74.5 34.5q31 0 50.5 -20t19.5 -52q0 -45 -32 -79t-75 -34z" />
    <glyph glyph-name="ellipsis" unicode="&#x2026;" horiz-adv-x="648" 
d="M40 -12q-13 0 -22.5 9t-9.5 23q0 19 12 32.5t29 13.5q13 0 22.5 -9t9.5 -25q0 -20 -13 -32t-28 -12zM260 -12q-13 0 -22.5 9t-9.5 23q0 19 12 32.5t29 13.5q13 0 22.5 -9t9.5 -25q0 -20 -13 -32t-28 -12zM480 -12q-13 0 -22.5 9t-9.5 23q0 19 12 32.5t29 13.5
q13 0 22.5 -9t9.5 -25q0 -20 -13 -32t-28 -12z" />
    <glyph glyph-name="perthousand" unicode="&#x2030;" horiz-adv-x="1131" 
d="M173 -12l494 680h30l-494 -680h-30zM201 254q-51 0 -79 32t-28 95q0 112 53.5 189.5t130.5 77.5q51 0 79 -32t28 -94q0 -113 -53.5 -190.5t-130.5 -77.5zM206 280q60 0 104 70t44 165q0 53 -21.5 80t-59.5 27q-61 0 -104.5 -69.5t-43.5 -164.5q0 -53 21.5 -80.5
t59.5 -27.5zM570 -12q-51 0 -79 32t-28 95q0 112 53.5 189.5t130.5 77.5q51 0 79 -32t28 -94q0 -113 -53.5 -190.5t-130.5 -77.5zM905 -12q-51 0 -79 32t-28 95q0 112 53.5 189.5t130.5 77.5q51 0 79 -32t28 -94q0 -113 -53.5 -190.5t-130.5 -77.5zM575 14q60 0 104 70
t44 165q0 53 -21.5 80t-59.5 27q-61 0 -104.5 -69.5t-43.5 -164.5q0 -53 21.5 -80.5t59.5 -27.5zM910 14q60 0 104 70t44 165q0 53 -21.5 80t-59.5 27q-61 0 -104.5 -69.5t-43.5 -164.5q0 -53 21.5 -80.5t59.5 -27.5z" />
    <glyph glyph-name="guilsinglleft" unicode="&#x2039;" horiz-adv-x="301" 
d="M182 96q-47 100 -130 141l6 30q102 42 184 141l14 -15q-75 -93 -167 -141q76 -54 112 -143z" />
    <glyph glyph-name="guilsinglright" unicode="&#x203a;" horiz-adv-x="302" 
d="M59 96l-14 13q75 93 168 143q-76 52 -113 141l20 15q46 -100 130 -141l-6 -30q-102 -43 -185 -141z" />
    <glyph glyph-name="fraction" unicode="&#x2044;" horiz-adv-x="218" 
d="M-154 -12l494 680h30l-494 -680h-30z" />
    <glyph glyph-name="uni2070" unicode="&#x2070;" horiz-adv-x="375" 
d="M226 383q-51 0 -79 32t-28 95q0 112 53.5 189.5t130.5 77.5q51 0 79 -32t28 -94q0 -113 -53.5 -190.5t-130.5 -77.5zM231 409q60 0 104 70t44 165q0 53 -21.5 80t-59.5 27q-61 0 -104.5 -69.5t-43.5 -164.5q0 -53 21.5 -80.5t59.5 -27.5z" />
    <glyph glyph-name="uni2074" unicode="&#x2074;" horiz-adv-x="368" 
d="M265 395q19 27 31 86l5 26h-176l4 22l232 256h22l-49 -252q42 0 61 13l-8 -39h-58l-5 -26q-12 -63 -3 -86h-56zM164 533h142l39 202z" />
    <glyph glyph-name="uni2075" unicode="&#x2075;" horiz-adv-x="408" 
d="M247 383q-32 0 -54.5 9.5t-42.5 24.5t-31 20l35 37q20 -65 100 -65q49 0 84.5 37.5t35.5 89.5q0 35 -21 55t-57 20q-54 0 -94 -20l-19 5l56 189h137q42 0 59 13l-9 -49q-13 8 -56 8h-113l-39 -135q41 15 83 15q46 0 75 -24.5t29 -70.5q0 -66 -46.5 -112.5t-111.5 -46.5z
" />
    <glyph glyph-name="uni2076" unicode="&#x2076;" horiz-adv-x="377" 
d="M236 383q-49 0 -78 34t-29 95q0 112 60.5 198.5t137.5 86.5q19 0 44 -4.5t37 -2.5l-23 -46q-17 27 -63 27q-42 0 -87.5 -46.5t-66.5 -138.5q54 51 120 51q48 0 74 -26t26 -69q0 -64 -45 -111.5t-107 -47.5zM241 409q47 0 82 37.5t35 89.5q0 34 -19.5 54.5t-57.5 20.5
q-63 0 -120 -59q-9 -66 12.5 -104.5t67.5 -38.5z" />
    <glyph glyph-name="uni2077" unicode="&#x2077;" horiz-adv-x="368" 
d="M154 395q28 115 74 198.5t133 165.5h-172q-41 0 -62 -14l9 48q16 -8 58 -8h202l-6 -28q-90 -84 -135 -166.5t-71 -195.5h-30z" />
    <glyph glyph-name="uni2078" unicode="&#x2078;" horiz-adv-x="390" 
d="M238 383q-51 0 -80 25.5t-29 63.5q0 40 30 76.5t78 53.5l1 4q-51 22 -51 73q0 47 39.5 82.5t91.5 35.5q43 0 70 -22t27 -59q0 -36 -24 -67t-66 -48l-1 -4q30 -10 47.5 -33t17.5 -52q0 -52 -45 -90.5t-106 -38.5zM301 609q39 18 61.5 46t22.5 57q0 25 -20.5 41t-51.5 16
q-38 0 -67 -26t-29 -60q0 -51 84 -74zM243 409q46 0 81 29.5t35 68.5q0 56 -99 85q-46 -18 -73 -48.5t-27 -64.5q0 -29 22.5 -49.5t60.5 -20.5z" />
    <glyph glyph-name="uni2079" unicode="&#x2079;" horiz-adv-x="377" 
d="M204 383q-19 0 -44 4.5t-37 2.5l23 46q16 -27 63 -27q42 0 87 46t67 139q-56 -51 -120 -51q-48 0 -74.5 26t-26.5 69q0 64 45.5 111.5t106.5 47.5q50 0 79 -34t29 -95q0 -112 -60.5 -198.5t-137.5 -86.5zM250 569q63 0 119 59q9 66 -12.5 104.5t-67.5 38.5
q-47 0 -81.5 -37.5t-34.5 -89.5q0 -34 19.5 -54.5t57.5 -20.5z" />
    <glyph glyph-name="uni2080" unicode="&#x2080;" horiz-adv-x="375" 
d="M115 -189q-51 0 -79 32t-28 95q0 112 53.5 189.5t130.5 77.5q51 0 79 -32t28 -94q0 -113 -53.5 -190.5t-130.5 -77.5zM120 -163q60 0 104 70t44 165q0 53 -21.5 80t-59.5 27q-61 0 -104.5 -69.5t-43.5 -164.5q0 -53 21.5 -80.5t59.5 -27.5z" />
    <glyph glyph-name="uni2081" unicode="&#x2081;" horiz-adv-x="364" 
d="M50 -177l4 23l96 10l54 277h-85l5 22q73 0 120 38l-66 -337l87 -10l-4 -23h-211z" />
    <glyph glyph-name="uni2082" unicode="&#x2082;" horiz-adv-x="352" 
d="M-24 -177l4 23q130 88 187.5 146t57.5 117q0 33 -18.5 51.5t-48.5 18.5q-32 0 -62 -17.5t-48 -43.5l-16 35q6 2 28 16t48.5 25t54.5 11q40 0 66.5 -24.5t26.5 -66.5q0 -69 -58 -128.5t-171 -136.5h122q58 0 85 14l-8 -40h-250z" />
    <glyph glyph-name="uni2083" unicode="&#x2083;" horiz-adv-x="393" 
d="M139 -189q-32 0 -55.5 10.5t-43 25t-32.5 18.5l31 38q30 -66 105 -66q44 0 76 28.5t32 67.5q0 66 -130 66l5 24q64 0 104.5 27.5t40.5 71.5q0 27 -18.5 42t-48.5 15q-56 0 -110 -54l-13 38q9 2 52 22t76 20q40 0 66.5 -20t26.5 -57q0 -39 -26.5 -70.5t-71.5 -44.5
q34 -5 55.5 -24.5t21.5 -50.5q0 -52 -42 -89.5t-101 -37.5z" />
    <glyph glyph-name="uni2084" unicode="&#x2084;" horiz-adv-x="368" 
d="M154 -177q19 27 31 86l5 26h-176l4 22l232 256h22l-49 -252q41 0 61 13l-8 -39h-58l-5 -26q-12 -63 -3 -86h-56zM53 -39h142l39 202z" />
    <glyph glyph-name="uni2085" unicode="&#x2085;" horiz-adv-x="408" 
d="M136 -189q-32 0 -54.5 9.5t-42.5 24.5t-31 20l35 37q20 -65 100 -65q49 0 84.5 37.5t35.5 89.5q0 35 -21 55t-57 20q-54 0 -94 -20l-19 5l56 189h137q42 0 59 13l-9 -49q-13 8 -56 8h-113l-39 -135q41 15 83 15q46 0 75 -24.5t29 -70.5q0 -66 -46.5 -112.5t-111.5 -46.5z
" />
    <glyph glyph-name="uni2086" unicode="&#x2086;" horiz-adv-x="377" 
d="M125 -189q-49 0 -78 34t-29 95q0 112 60.5 198.5t137.5 86.5q19 0 44 -4.5t37 -2.5l-23 -46q-17 27 -63 27q-42 0 -87.5 -46.5t-66.5 -138.5q54 51 120 51q48 0 74 -26t26 -69q0 -64 -45 -111.5t-107 -47.5zM130 -163q47 0 82 37.5t35 89.5q0 34 -19.5 54.5t-57.5 20.5
q-63 0 -120 -59q-9 -66 12.5 -104.5t67.5 -38.5z" />
    <glyph glyph-name="uni2087" unicode="&#x2087;" horiz-adv-x="368" 
d="M43 -177q28 115 74 198.5t133 165.5h-172q-41 0 -62 -14l9 48q16 -8 58 -8h202l-6 -28q-90 -84 -135 -166.5t-71 -195.5h-30z" />
    <glyph glyph-name="uni2088" unicode="&#x2088;" horiz-adv-x="390" 
d="M127 -189q-51 0 -80 25.5t-29 63.5q0 40 30 76.5t78 53.5l1 4q-51 22 -51 73q0 47 39.5 82.5t91.5 35.5q43 0 70 -22t27 -59q0 -36 -24 -67t-66 -48l-1 -4q30 -10 47.5 -33t17.5 -52q0 -52 -45 -90.5t-106 -38.5zM190 37q39 18 61.5 46t22.5 57q0 25 -20.5 41t-51.5 16
q-38 0 -67 -26t-29 -60q0 -51 84 -74zM132 -163q46 0 81 29.5t35 68.5q0 56 -99 85q-46 -18 -73 -48.5t-27 -64.5q0 -29 22.5 -49.5t60.5 -20.5z" />
    <glyph glyph-name="uni2089" unicode="&#x2089;" horiz-adv-x="377" 
d="M93 -189q-19 0 -44 4.5t-37 2.5l23 46q16 -27 63 -27q42 0 87 46t67 139q-56 -51 -120 -51q-48 0 -74.5 26t-26.5 69q0 64 45.5 111.5t106.5 47.5q50 0 79 -34t29 -95q0 -112 -60.5 -198.5t-137.5 -86.5zM139 -3q63 0 119 59q9 66 -12.5 104.5t-67.5 38.5
q-47 0 -81.5 -37.5t-34.5 -89.5q0 -34 19.5 -54.5t57.5 -20.5z" />
    <glyph glyph-name="Euro" unicode="&#x20ac;" horiz-adv-x="578" 
d="M386 612q86 0 142 -33l-20 -44q-27 47 -128 47q-78 0 -138.5 -58t-91.5 -157h172q41 0 58 10l-7 -38h-230q-10 -38 -14 -74h229l-7 -38q-14 10 -54 10h-170q-2 -32 -2 -50q0 -169 145 -169q112 0 155 42l8 -44q-79 -28 -168 -28q-172 0 -172 194q0 19 2 55h-12
q-41 0 -58 -10l7 38h66q5 41 13 74h-64l7 38q14 -10 54 -10h10q34 113 105 179t163 66z" />
    <glyph glyph-name="trademark" unicode="&#x2122;" horiz-adv-x="615" 
d="M259 660q36 0 48 4l-8 -42q-10 9 -45 9h-33l-34 -172q-8 -42 -3 -60h-46q10 16 19 60l34 172h-32q-36 0 -49 -9l8 42q12 -4 46 -4h95zM600 660h44q-8 -17 -17 -60l-28 -141q-8 -42 -3 -60h-46q10 15 19 60l31 158l-144 -188l-72 189l-30 -159q-8 -41 -3 -60h-46
q10 14 19 60l28 141q9 44 3 60h46l66 -175z" />
    <glyph glyph-name="uni2150" unicode="&#x2150;" horiz-adv-x="924" 
d="M201 -12l494 680h30l-494 -680h-30zM86 266l4 23l96 10l54 277h-85l5 22q73 0 120 38l-66 -337l87 -10l-4 -23h-211zM633 0q28 115 74 198.5t133 165.5h-172q-41 0 -62 -14l9 48q16 -8 58 -8h202l-6 -28q-90 -84 -135 -166.5t-71 -195.5h-30z" />
    <glyph glyph-name="uni2151" unicode="&#x2151;" horiz-adv-x="848" 
d="M191 -12l494 680h30l-494 -680h-30zM86 266l4 23l96 10l54 277h-85l5 22q73 0 120 38l-66 -337l87 -10l-4 -23h-211zM598 -12q-19 0 -44 4.5t-37 2.5l23 46q16 -27 63 -27q42 0 87 46t67 139q-56 -51 -120 -51q-48 0 -74.5 26t-26.5 69q0 64 45.5 111.5t106.5 47.5
q50 0 79 -34t29 -95q0 -112 -60.5 -198.5t-137.5 -86.5zM644 174q63 0 119 59q9 66 -12.5 104.5t-67.5 38.5q-47 0 -81.5 -37.5t-34.5 -89.5q0 -34 19.5 -54.5t57.5 -20.5z" />
    <glyph glyph-name="uni2152" unicode="&#x2152;" horiz-adv-x="1081" 
d="M194 -12l494 680h30l-494 -680h-30zM86 266l4 23l96 10l54 277h-85l5 22q73 0 120 38l-66 -337l87 -10l-4 -23h-211zM855 -12q-51 0 -79 32t-28 95q0 112 53.5 189.5t130.5 77.5q51 0 79 -32t28 -94q0 -113 -53.5 -190.5t-130.5 -77.5zM490 0l4 23l96 10l54 277h-85l5 22
q73 0 120 38l-66 -337l87 -10l-4 -23h-211zM860 14q60 0 104 70t44 165q0 53 -21.5 80t-59.5 27q-61 0 -104.5 -69.5t-43.5 -164.5q0 -53 21.5 -80.5t59.5 -27.5z" />
    <glyph glyph-name="uni2153" unicode="&#x2153;" horiz-adv-x="899" 
d="M246 -12l494 680h30l-494 -680h-30zM86 266l4 23l96 10l54 277h-85l5 22q73 0 120 38l-66 -337l87 -10l-4 -23h-211zM679 -12q-32 0 -55.5 10.5t-43 25t-32.5 18.5l31 38q30 -66 105 -66q44 0 76 28.5t32 67.5q0 66 -130 66l5 24q64 0 104.5 27.5t40.5 71.5
q0 27 -18.5 42t-48.5 15q-56 0 -110 -54l-13 38q9 2 52 22t76 20q40 0 66.5 -20t26.5 -57q0 -39 -26.5 -70.5t-71.5 -44.5q34 -5 55.5 -24.5t21.5 -50.5q0 -52 -42 -89.5t-101 -37.5z" />
    <glyph glyph-name="uni2154" unicode="&#x2154;" horiz-adv-x="869" 
d="M212 -12l494 680h30l-494 -680h-30zM62 266l4 23q130 88 187.5 146t57.5 117q0 33 -18.5 51.5t-48.5 18.5q-32 0 -62 -17.5t-48 -43.5l-16 35q6 2 28 16t48.5 25t54.5 11q40 0 66.5 -24.5t26.5 -66.5q0 -69 -58 -128.5t-171 -136.5h122q58 0 85 14l-8 -40h-250zM649 -12
q-32 0 -55.5 10.5t-43 25t-32.5 18.5l31 38q30 -66 105 -66q44 0 76 28.5t32 67.5q0 66 -130 66l5 24q64 0 104.5 27.5t40.5 71.5q0 27 -18.5 42t-48.5 15q-56 0 -110 -54l-13 38q9 2 52 22t76 20q40 0 66.5 -20t26.5 -57q0 -39 -26.5 -70.5t-71.5 -44.5q34 -5 55.5 -24.5
t21.5 -50.5q0 -52 -42 -89.5t-101 -37.5z" />
    <glyph glyph-name="uni2155" unicode="&#x2155;" horiz-adv-x="894" 
d="M225 -12l494 680h30l-494 -680h-30zM86 266l4 23l96 10l54 277h-85l5 22q73 0 120 38l-66 -337l87 -10l-4 -23h-211zM656 -12q-32 0 -54.5 9.5t-42.5 24.5t-31 20l35 37q20 -65 100 -65q49 0 84.5 37.5t35.5 89.5q0 35 -21 55t-57 20q-54 0 -94 -20l-19 5l56 189h137
q42 0 59 13l-9 -49q-13 8 -56 8h-113l-39 -135q41 15 83 15q46 0 75 -24.5t29 -70.5q0 -66 -46.5 -112.5t-111.5 -46.5z" />
    <glyph glyph-name="uni2156" unicode="&#x2156;" horiz-adv-x="866" 
d="M208 -12l494 680h30l-494 -680h-30zM62 266l4 23q130 88 187.5 146t57.5 117q0 33 -18.5 51.5t-48.5 18.5q-32 0 -62 -17.5t-48 -43.5l-16 35q6 2 28 16t48.5 25t54.5 11q40 0 66.5 -24.5t26.5 -66.5q0 -69 -58 -128.5t-171 -136.5h122q58 0 85 14l-8 -40h-250zM628 -12
q-32 0 -54.5 9.5t-42.5 24.5t-31 20l35 37q20 -65 100 -65q49 0 84.5 37.5t35.5 89.5q0 35 -21 55t-57 20q-54 0 -94 -20l-19 5l56 189h137q42 0 59 13l-9 -49q-13 8 -56 8h-113l-39 -135q41 15 83 15q46 0 75 -24.5t29 -70.5q0 -66 -46.5 -112.5t-111.5 -46.5z" />
    <glyph glyph-name="uni2157" unicode="&#x2157;" horiz-adv-x="874" 
d="M222 -12l494 680h30l-494 -680h-30zM225 254q-32 0 -55.5 10.5t-43 25t-32.5 18.5l31 38q30 -66 105 -66q44 0 76 28.5t32 67.5q0 66 -130 66l5 24q64 0 104.5 27.5t40.5 71.5q0 27 -18.5 42t-48.5 15q-56 0 -110 -54l-13 38q9 2 52 22t76 20q40 0 66.5 -20t26.5 -57
q0 -39 -26.5 -70.5t-71.5 -44.5q34 -5 55.5 -24.5t21.5 -50.5q0 -52 -42 -89.5t-101 -37.5zM636 -12q-32 0 -54.5 9.5t-42.5 24.5t-31 20l35 37q20 -65 100 -65q49 0 84.5 37.5t35.5 89.5q0 35 -21 55t-57 20q-54 0 -94 -20l-19 5l56 189h137q42 0 59 13l-9 -49q-13 8 -56 8
h-113l-39 -135q41 15 83 15q46 0 75 -24.5t29 -70.5q0 -66 -46.5 -112.5t-111.5 -46.5z" />
    <glyph glyph-name="uni2158" unicode="&#x2158;" horiz-adv-x="894" 
d="M222 -12l494 680h30l-494 -680h-30zM240 266q19 27 31 86l5 26h-176l4 22l232 256h22l-49 -252q41 0 61 13l-8 -39h-58l-5 -26q-12 -63 -3 -86h-56zM139 404h142l39 202zM656 -12q-32 0 -54.5 9.5t-42.5 24.5t-31 20l35 37q20 -65 100 -65q49 0 84.5 37.5t35.5 89.5
q0 35 -21 55t-57 20q-54 0 -94 -20l-19 5l56 189h137q42 0 59 13l-9 -49q-13 8 -56 8h-113l-39 -135q41 15 83 15q46 0 75 -24.5t29 -70.5q0 -66 -46.5 -112.5t-111.5 -46.5z" />
    <glyph glyph-name="uni2159" unicode="&#x2159;" horiz-adv-x="877" 
d="M219 -12l494 680h30l-494 -680h-30zM86 266l4 23l96 10l54 277h-85l5 22q73 0 120 38l-66 -337l87 -10l-4 -23h-211zM659 -12q-49 0 -78 34t-29 95q0 112 60.5 198.5t137.5 86.5q19 0 44 -4.5t37 -2.5l-23 -46q-17 27 -63 27q-42 0 -87.5 -46.5t-66.5 -138.5
q54 51 120 51q48 0 74 -26t26 -69q0 -64 -45 -111.5t-107 -47.5zM664 14q47 0 82 37.5t35 89.5q0 34 -19.5 54.5t-57.5 20.5q-63 0 -120 -59q-9 -66 12.5 -104.5t67.5 -38.5z" />
    <glyph glyph-name="uni215A" unicode="&#x215a;" horiz-adv-x="883" 
d="M222 254q-32 0 -54.5 9.5t-42.5 24.5t-31 20l35 37q20 -65 100 -65q49 0 84.5 37.5t35.5 89.5q0 35 -21 55t-57 20q-54 0 -94 -20l-19 5l56 189h137q42 0 59 13l-9 -49q-13 8 -56 8h-113l-39 -135q41 15 83 15q46 0 75 -24.5t29 -70.5q0 -66 -46.5 -112.5t-111.5 -46.5z
M229 -12l494 680h30l-494 -680h-30zM665 -12q-49 0 -78 34t-29 95q0 112 60.5 198.5t137.5 86.5q19 0 44 -4.5t37 -2.5l-23 -46q-17 27 -63 27q-42 0 -87.5 -46.5t-66.5 -138.5q54 51 120 51q48 0 74 -26t26 -69q0 -64 -45 -111.5t-107 -47.5zM670 14q47 0 82 37.5t35 89.5
q0 34 -19.5 54.5t-57.5 20.5q-63 0 -120 -59q-9 -66 12.5 -104.5t67.5 -38.5z" />
    <glyph glyph-name="oneeighth" unicode="&#x215b;" horiz-adv-x="856" 
d="M214 -12l494 680h30l-494 -680h-30zM86 266l4 23l96 10l54 277h-85l5 22q73 0 120 38l-66 -337l87 -10l-4 -23h-211zM627 -12q-51 0 -80 25.5t-29 63.5q0 40 30 76.5t78 53.5l1 4q-51 22 -51 73q0 47 39.5 82.5t91.5 35.5q43 0 70 -22t27 -59q0 -36 -24 -67t-66 -48
l-1 -4q30 -10 47.5 -33t17.5 -52q0 -52 -45 -90.5t-106 -38.5zM690 214q39 18 61.5 46t22.5 57q0 25 -20.5 41t-51.5 16q-38 0 -67 -26t-29 -60q0 -51 84 -74zM632 14q46 0 81 29.5t35 68.5q0 56 -99 85q-46 -18 -73 -48.5t-27 -64.5q0 -29 22.5 -49.5t60.5 -20.5z" />
    <glyph glyph-name="threeeighths" unicode="&#x215c;" horiz-adv-x="871" 
d="M227 -12l494 680h30l-494 -680h-30zM225 254q-32 0 -55.5 10.5t-43 25t-32.5 18.5l31 38q30 -66 105 -66q44 0 76 28.5t32 67.5q0 66 -130 66l5 24q64 0 104.5 27.5t40.5 71.5q0 27 -18.5 42t-48.5 15q-56 0 -110 -54l-13 38q9 2 52 22t76 20q40 0 66.5 -20t26.5 -57
q0 -39 -26.5 -70.5t-71.5 -44.5q34 -5 55.5 -24.5t21.5 -50.5q0 -52 -42 -89.5t-101 -37.5zM642 -12q-51 0 -80 25.5t-29 63.5q0 40 30 76.5t78 53.5l1 4q-51 22 -51 73q0 47 39.5 82.5t91.5 35.5q43 0 70 -22t27 -59q0 -36 -24 -67t-66 -48l-1 -4q30 -10 47.5 -33t17.5 -52
q0 -52 -45 -90.5t-106 -38.5zM705 214q39 18 61.5 46t22.5 57q0 25 -20.5 41t-51.5 16q-38 0 -67 -26t-29 -60q0 -51 84 -74zM647 14q46 0 81 29.5t35 68.5q0 56 -99 85q-46 -18 -73 -48.5t-27 -64.5q0 -29 22.5 -49.5t60.5 -20.5z" />
    <glyph glyph-name="fiveeighths" unicode="&#x215d;" horiz-adv-x="881" 
d="M222 254q-32 0 -54.5 9.5t-42.5 24.5t-31 20l35 37q20 -65 100 -65q49 0 84.5 37.5t35.5 89.5q0 35 -21 55t-57 20q-54 0 -94 -20l-19 5l56 189h137q42 0 59 13l-9 -49q-13 8 -56 8h-113l-39 -135q41 15 83 15q46 0 75 -24.5t29 -70.5q0 -66 -46.5 -112.5t-111.5 -46.5z
M230 -12l494 680h30l-494 -680h-30zM652 -12q-51 0 -80 25.5t-29 63.5q0 40 30 76.5t78 53.5l1 4q-51 22 -51 73q0 47 39.5 82.5t91.5 35.5q43 0 70 -22t27 -59q0 -36 -24 -67t-66 -48l-1 -4q30 -10 47.5 -33t17.5 -52q0 -52 -45 -90.5t-106 -38.5zM715 214q39 18 61.5 46
t22.5 57q0 25 -20.5 41t-51.5 16q-38 0 -67 -26t-29 -60q0 -51 84 -74zM657 14q46 0 81 29.5t35 68.5q0 56 -99 85q-46 -18 -73 -48.5t-27 -64.5q0 -29 22.5 -49.5t60.5 -20.5z" />
    <glyph glyph-name="seveneighths" unicode="&#x215e;" horiz-adv-x="796" 
d="M131 -12l494 680h30l-494 -680h-30zM129 266q28 115 74 198.5t133 165.5h-172q-41 0 -62 -14l9 48q16 -8 58 -8h202l-6 -28q-90 -84 -135 -166.5t-71 -195.5h-30zM567 -12q-51 0 -80 25.5t-29 63.5q0 40 30 76.5t78 53.5l1 4q-51 22 -51 73q0 47 39.5 82.5t91.5 35.5
q43 0 70 -22t27 -59q0 -36 -24 -67t-66 -48l-1 -4q30 -10 47.5 -33t17.5 -52q0 -52 -45 -90.5t-106 -38.5zM630 214q39 18 61.5 46t22.5 57q0 25 -20.5 41t-51.5 16q-38 0 -67 -26t-29 -60q0 -51 84 -74zM572 14q46 0 81 29.5t35 68.5q0 56 -99 85q-46 -18 -73 -48.5
t-27 -64.5q0 -29 22.5 -49.5t60.5 -20.5z" />
    <glyph glyph-name="uni2189" unicode="&#x2189;" horiz-adv-x="857" 
d="M217 -12l494 680h30l-494 -680h-30zM201 254q-51 0 -79 32t-28 95q0 112 53.5 189.5t130.5 77.5q51 0 79 -32t28 -94q0 -113 -53.5 -190.5t-130.5 -77.5zM206 280q60 0 104 70t44 165q0 53 -21.5 80t-59.5 27q-61 0 -104.5 -69.5t-43.5 -164.5q0 -53 21.5 -80.5
t59.5 -27.5zM637 -12q-32 0 -55.5 10.5t-43 25t-32.5 18.5l31 38q30 -66 105 -66q44 0 76 28.5t32 67.5q0 66 -130 66l5 24q64 0 104.5 27.5t40.5 71.5q0 27 -18.5 42t-48.5 15q-56 0 -110 -54l-13 38q9 2 52 22t76 20q40 0 66.5 -20t26.5 -57q0 -39 -26.5 -70.5
t-71.5 -44.5q34 -5 55.5 -24.5t21.5 -50.5q0 -52 -42 -89.5t-101 -37.5z" />
    <glyph glyph-name="arrowleft" unicode="&#x2190;" horiz-adv-x="896" 
d="M809 324v-30l-604 1v-57q-51 48 -126 72q75 24 126 72v-57z" />
    <glyph glyph-name="arrowup" unicode="&#x2191;" horiz-adv-x="284" 
d="M214 604h-57v-604h-30v604h-57q48 51 72 126q24 -75 72 -126z" />
    <glyph glyph-name="arrowright" unicode="&#x2192;" horiz-adv-x="896" 
d="M691 382q51 -48 126 -72q-75 -24 -126 -72v57l-604 -1v30l604 1v57z" />
    <glyph glyph-name="arrowdown" unicode="&#x2193;" horiz-adv-x="284" 
d="M142 0q-24 75 -72 126h57v604h30v-604h57q-48 -51 -72 -126z" />
    <glyph glyph-name="arrowboth" unicode="&#x2194;" horiz-adv-x="888" 
d="M205 238q-51 48 -126 72q77 25 126 71v-56l478 -1v57q49 -46 126 -71q-75 -24 -126 -72v56l-478 1v-57z" />
    <glyph glyph-name="arrowupdn" unicode="&#x2195;" horiz-adv-x="294" 
d="M147 0q-21 78 -72 126h57v478h-57q51 52 72 126q21 -74 72 -126h-57v-478h57q-51 -48 -72 -126z" />
    <glyph glyph-name="uni2196" unicode="&#x2196;" horiz-adv-x="655" 
d="M595 63l-22 -22l-427 427l-40 -40q-1 68 -38 140q72 -37 140 -38l-40 -40z" />
    <glyph glyph-name="uni2197" unicode="&#x2197;" horiz-adv-x="655" 
d="M587 568q-37 -72 -38 -140l-40 40l-427 -427l-22 22l427 427l-40 40q68 1 140 38z" />
    <glyph glyph-name="uni2198" unicode="&#x2198;" horiz-adv-x="654" 
d="M548 180q1 -68 38 -140q-71 36 -140 39l40 40l-427 427l21 21l428 -427z" />
    <glyph glyph-name="uni2199" unicode="&#x2199;" horiz-adv-x="654" 
d="M595 546l-427 -427l40 -40q-69 -3 -140 -39q37 72 38 140l40 -40l428 427z" />
    <glyph glyph-name="partialdiff" unicode="&#x2202;" horiz-adv-x="504" 
d="M206 -12q-71 0 -118.5 44t-47.5 127q0 120 69.5 200.5t169.5 80.5q48 0 92.5 -25t66.5 -66q-1 113 -67 218t-139 120l24 38q87 -49 149 -153.5t62 -227.5q0 -146 -75.5 -251t-185.5 -105zM212 18q84 0 149 84t74 200q-51 108 -162 108q-85 0 -142.5 -69t-57.5 -176
q0 -71 38.5 -109t100.5 -38z" />
    <glyph glyph-name="emptyset" unicode="&#x2205;" horiz-adv-x="582" 
d="M552 466q-23 -7 -80 -53q26 -38 26 -91q0 -98 -73.5 -171.5t-172.5 -73.5q-78 0 -124 48q-57 -49 -69 -72l-29 38q30 12 81 55q-26 38 -26 90q0 98 73.5 171.5t172.5 73.5q77 0 124 -47q52 42 67 69zM325 451q-85 0 -145.5 -62t-60.5 -150q0 -43 18 -71l292 245
q-38 38 -104 38zM258 107q86 0 146.5 62t60.5 150q0 40 -19 72l-293 -245q39 -39 105 -39z" />
    <glyph glyph-name="product" unicode="&#x220f;" horiz-adv-x="472" 
d="M35 -90q18 22 34 100l122 622h-4q-67 0 -96 -15l10 48q32 -5 92 -5h246q63 0 98 5l-10 -48q-21 15 -94 15h-3l-121 -622q-14 -76 -4 -100h-62q20 25 34 100l121 622h-175l-122 -622q-15 -74 -4 -100h-62z" />
    <glyph glyph-name="summation" unicode="&#x2211;" horiz-adv-x="584" 
d="M413 664q96 0 131 5l-10 -48q-12 9 -37.5 12t-89.5 3h-185l156 -349l-292 -349h185q108 0 133 15l-9 -48q-32 5 -129 5h-226l2 33q26 11 84 81l218 262l-116 264q-31 71 -52 81l11 33h226z" />
    <glyph glyph-name="minus" unicode="&#x2212;" horiz-adv-x="434" 
d="M40 213l9 53q24 -11 99 -11h144q75 0 102 11l-11 -53q-24 10 -97 10h-144q-73 0 -102 -10z" />
    <glyph glyph-name="radical" unicode="&#x221a;" horiz-adv-x="536" 
d="M582 664q86 0 121 5l-9 -48q-21 15 -117 15h-52l-317 -612q-46 -89 -46 -114h-64q10 27 -2 114l-31 219q-13 87 -25 112h57q-9 -35 0 -103l39 -302h4l367 714h75z" />
    <glyph glyph-name="infinity" unicode="&#x221e;" horiz-adv-x="800" 
d="M621 477q62 0 100.5 -34t38.5 -97q0 -93 -61.5 -160t-146.5 -67q-59 0 -104 45.5t-56 97.5q-35 -61 -94 -102t-119 -41q-62 0 -100.5 34t-38.5 97q0 93 61.5 160t146.5 67q59 0 104 -45.5t55 -97.5q35 61 94.5 102t119.5 41zM184 149q59 0 114 42.5t89 102.5
q-13 61 -51.5 107t-93.5 46q-69 0 -119 -56.5t-50 -134.5q0 -51 30.5 -79t80.5 -28zM557 149q70 0 120 56.5t50 134.5q0 52 -31 79.5t-81 27.5q-58 0 -113 -42.5t-89 -102.5q13 -61 51 -107t93 -46z" />
    <glyph glyph-name="integral" unicode="&#x222b;" horiz-adv-x="496" 
d="M59 -102q-23 0 -69 11l18 39q21 -22 56 -22q36 0 57.5 30t43.5 104l136 451q25 83 55.5 122.5t81.5 39.5q22 0 68 -11l-17 -39q-21 22 -57 22t-57.5 -30t-43.5 -104l-136 -451q-26 -85 -56 -123.5t-80 -38.5z" />
    <glyph glyph-name="approxequal" unicode="&#x2248;" horiz-adv-x="428" 
d="M64 301q7 38 33 64.5t62 26.5q25 0 50.5 -21t48.5 -41.5t42 -20.5q47 0 60 62l28 -2q-7 -37 -32.5 -64t-60.5 -27q-32 0 -76.5 41.5t-65.5 41.5q-49 0 -61 -62zM40 176q7 38 32.5 64.5t62.5 26.5q25 0 50.5 -20.5t48.5 -41.5t42 -21q47 0 60 62l27 -2q-7 -37 -32 -64
t-60 -27q-32 0 -76.5 41.5t-65.5 41.5q-50 0 -61 -62z" />
    <glyph glyph-name="notequal" unicode="&#x2260;" horiz-adv-x="458" 
d="M309 283h-35l-59 -88h77q75 0 102 11l-11 -53q-24 10 -97 10h-92l-38 -57l-24 12l30 45h-20q-73 0 -102 -10l9 53q24 -11 99 -11h36l58 88h-77q-73 0 -102 -10l10 53q23 -11 98 -11h93l38 57l23 -12l-30 -45h20q75 0 103 11l-12 -53q-24 10 -97 10z" />
    <glyph glyph-name="lessequal" unicode="&#x2264;" horiz-adv-x="486" 
d="M444 405q-28 -1 -100 -26l-202 -71l175 -70q64 -26 89 -26l-27 -48q-15 18 -82 45l-204 83l6 33l238 83q74 26 98 45zM47 67l9 53q18 -11 93 -11h144q77 0 98 11l-11 -53q-18 10 -93 10h-144q-73 0 -96 -10z" />
    <glyph glyph-name="greaterequal" unicode="&#x2265;" horiz-adv-x="470" 
d="M223 408l205 -83l-6 -33l-236 -83q-80 -28 -100 -45l-9 48q27 0 100 26l202 71l-174 70q-62 25 -90 26l27 48q14 -18 81 -45zM47 67l9 53q18 -11 94 -11h144q76 0 97 11l-11 -53q-18 10 -92 10h-144q-74 0 -97 -10z" />
    <glyph glyph-name="lozenge" unicode="&#x25ca;" horiz-adv-x="510" 
d="M323 544l122 -272l-228 -272h-30l-122 272l228 272h30zM207 28l206 244l-110 244l-206 -244z" />
    <glyph glyph-name="uni261A" unicode="&#x261a;" horiz-adv-x="1366" 
d="M570 27q-19 11 -37.5 38t-18.5 36q0 33 38 101q-1 4 -5.5 7t-7.5 2q-18 -22 -32 -50.5t-14 -38.5q0 -7 13 -40.5t17 -39.5q-39 -8 -49 16q-5 11 -15.5 30.5t-17.5 34.5t-7 22q0 13 16 48t40 66q-7 12 -13 12q-21 -25 -39.5 -57t-18.5 -39q0 -28 10 -63q-16 -6 -25.5 -1
t-19.5 28l-20 46q-7 17 1 33q30 60 78 109q-5 7 -11 7q-2 0 -13.5 -9t-17.5 -16q-44 0 -77.5 5t-34.5 5q-78 -23 -136 -18q-21 2 -32.5 14.5t-10 23.5t6.5 15q59 18 150 35.5t149 19.5q13 0 36 7t35 7q46 0 163 -22.5t170 -22.5q14 0 46 4t50 3q23 -1 42.5 -51.5
t19.5 -104.5q0 -32 -7.5 -53t-20.5 -21q-7 0 -45 6t-53 6q-19 0 -80.5 -33t-92.5 -34q-25 0 -57 32q-8 -24 -39 -41q11 -6 15 -17q25 19 42 19q18 0 18 -13q0 -6 -7.5 -12.5t-27 -19t-31.5 -21.5q-3 -2 -10.5 -2t-11.5 2zM968 66q29 14 45 61t16 114q0 52 -17 100.5
t-44 54.5h211q35 0 57 -51t22 -104q0 -67 -23.5 -121t-65.5 -54h-201zM1101 99q9 0 15.5 6.5t6.5 14.5q0 9 -6.5 15.5t-15.5 6.5q-8 0 -14.5 -6.5t-6.5 -15.5q0 -8 6.5 -14.5t14.5 -6.5z" />
    <glyph glyph-name="uni261B" unicode="&#x261b;" horiz-adv-x="1330" 
d="M777 27q-11 8 -25 17.5t-22 14.5t-13.5 10.5t-5.5 10.5q0 13 18 13q17 0 42 -19q4 11 15 17q-31 17 -39 41q-32 -32 -57 -32q-31 1 -92.5 34t-80.5 33q-15 0 -53 -6t-45 -6q-13 0 -20.5 21t-7.5 53q0 54 19.5 104.5t42.5 51.5q18 1 50 -3t46 -4q53 0 170 22.5t163 22.5
q12 0 35 -7t36 -7q58 -2 149 -19.5t150 -35.5q5 -4 6.5 -15t-10 -23.5t-32.5 -14.5q-58 -5 -136 18q-1 0 -34.5 -5t-77.5 -5q-6 7 -17.5 16t-13.5 9q-6 0 -11 -7q48 -49 78 -109q8 -16 1 -33l-20 -46q-10 -23 -19.5 -28t-25.5 1q10 35 10 63q0 7 -18.5 39t-39.5 57
q-6 0 -13 -12q24 -31 40 -66t16 -48q0 -7 -7 -22t-17.5 -34.5t-15.5 -30.5q-10 -24 -49 -16q4 6 17 39.5t13 40.5q0 10 -14 38.5t-32 50.5q-3 1 -7.5 -2t-5.5 -7q38 -68 38 -101q0 -9 -18.5 -36t-37.5 -38q-4 -2 -11.5 -2t-10.5 2zM200 66q-42 0 -65.5 54t-23.5 121
q0 53 22 104t57 51h211q-27 -6 -44 -54.5t-17 -100.5q0 -67 16 -114t45 -61h-201zM268 99q8 0 14.5 6.5t6.5 14.5q0 9 -6.5 15.5t-14.5 6.5q-9 0 -15.5 -6.5t-6.5 -15.5q0 -8 6.5 -14.5t15.5 -6.5z" />
    <glyph glyph-name="uni261C" unicode="&#x261c;" horiz-adv-x="987" 
d="M883 206q26 -5 36 -16.5t10 -37.5q0 -34 -12 -57t-36 -22l-130 9q-41 -27 -89 -27q-68 0 -160 25l-54 -2q-19 -1 -30.5 11.5t-11.5 26.5q0 15 7 24h-2q-20 -1 -31.5 11.5t-11.5 32.5q0 14 7 25q-39 4 -39 41q0 5 2 15q-59 -2 -65 36l-127 10q-64 4 -64 47q0 32 40 33
l349 7q61 24 94 24h38q38 0 77 -22t65 -51l133 10q22 1 37.5 -27t15.5 -64q0 -40 -45 -52l-23 -6zM883 88q15 -1 23 17.5t8 46.5q0 20 -6.5 27.5t-24.5 11.5l-47 11v13l50 16q30 9 30 37q0 31 -11 54t-27 22l-122 -10q7 -10 9 -19q-31 37 -74 64.5t-88 27.5h-38
q-31 0 -122.5 -37.5t-154.5 -40.5l-1 -19q-1 -18 19.5 -25.5t52.5 -2.5l93 15q15 2 46.5 -3t38.5 -5q22 0 69 27q-30 -28 -50 -37q33 -52 77 -70t102 -19q-113 -15 -172 56q-5 -14 -12 -20q41 -6 41 -40q0 -18 -14 -30q24 -10 24 -33q0 -14 -10.5 -26.5t-31.5 -13.5h-9
q62 -13 111 -13q72 0 151 82q-17 -32 -43 -55zM273 343q67 0 161 40l-310 -7q-24 0 -24 -18q0 -29 46 -32l127 -8v25zM352 250q0 -26 35 -25l131 6q30 1 30 22q0 14 -19 22q-2 0 -33 4.5t-45 2.5l-92 -15h-1q-6 -7 -6 -17zM384 184q0 -13 7 -21.5t20 -7.5l135 7q30 1 30 24
q0 29 -48 29q-3 -1 -10 -1l-121 -5q-13 -4 -13 -25zM446 93l114 5q27 1 27 25q0 21 -32 25q-2 -1 -6 -1l-119 -6q-9 -9 -9 -25q0 -9 7 -16.5t18 -6.5z" />
    <glyph glyph-name="uni261D" unicode="&#x261d;" horiz-adv-x="554" 
d="M438 44l9 -130q1 -24 -22 -36t-57 -12q-26 0 -37.5 10t-16.5 36l-4 20l-6 -23q-12 -45 -52 -45q-36 0 -64 15.5t-27 37.5l10 133q-29 26 -51 65t-22 77v38q0 33 24 94l7 349q1 40 33 40q43 0 47 -64l10 -127q38 -6 36 -65q10 2 15 2q37 0 41 -39q11 7 25 7
q20 0 32.5 -11.5t11.5 -31.5v-2q9 7 24 7q14 0 26.5 -11.5t11.5 -30.5l-2 -54q25 -92 25 -160q0 -48 -27 -89zM144 671l-7 -310q40 94 40 161h25l-8 127q-3 46 -32 46q-18 0 -18 -24zM368 -119q28 0 46.5 8t17.5 23l-9 113q-23 -26 -55 -43q82 79 82 151q0 49 -13 111v-9
q-1 -21 -13.5 -31.5t-26.5 -10.5q-23 0 -33 24q-12 -14 -30 -14q-34 0 -40 41q-6 -7 -20 -12q71 -59 56 -172q-1 58 -19 102t-70 77q-9 -20 -37 -50q27 47 27 69q0 7 -5 38.5t-3 46.5l15 93q5 32 -2.5 52.5t-25.5 19.5l-19 -1q-3 -63 -40.5 -154.5t-37.5 -122.5v-38
q0 -45 27.5 -88t64.5 -74q-9 2 -19 9l-10 -122q-1 -16 22 -27t54 -11q28 0 37 30l16 50h13l11 -47q4 -18 11.5 -24.5t27.5 -6.5zM270 443q-10 0 -17 -6v-1l-15 -92q-1 -16 -0.5 -25t3.5 -26.5t4 -26.5q8 -19 22 -19q21 0 22 30l6 131q1 35 -25 35zM336 411q-21 0 -25 -13
l-5 -121q0 -7 -1 -10q0 -48 29 -48q23 0 24 30l7 135q1 13 -7.5 20t-21.5 7zM379 365l-6 -119q0 -4 -1 -6q4 -32 25 -32q24 0 25 27l5 114q1 11 -6.5 18t-16.5 7q-16 0 -25 -9z" />
    <glyph glyph-name="uni261E" unicode="&#x261e;" horiz-adv-x="936" 
d="M877 391q40 -1 40 -33q0 -43 -64 -47l-127 -10q-6 -38 -65 -36q2 -10 2 -15q0 -37 -39 -41q7 -11 7 -25q0 -20 -11.5 -32.5t-31.5 -11.5h-2q7 -9 7 -24q0 -14 -11.5 -26.5t-30.5 -11.5l-54 2q-92 -25 -160 -25q-48 0 -89 27l-130 -9q-24 -1 -36 22t-12 57q0 26 10 37.5
t36 16.5l20 4l-23 6q-45 12 -45 52q0 36 15.5 64t37.5 27l133 -10q26 29 65 51t77 22h38q33 0 94 -24zM640 282q32 -5 52.5 2.5t19.5 25.5l-1 19q-63 3 -154.5 40.5t-122.5 37.5h-38q-45 0 -88 -27.5t-74 -64.5q2 9 9 19l-122 10q-16 1 -27 -22t-11 -54q0 -28 30 -37l50 -16
v-13l-47 -11q-18 -4 -24.5 -11.5t-6.5 -27.5q0 -28 8 -46.5t23 -17.5l113 9q-26 23 -43 55q79 -82 151 -82q49 0 111 13h-9q-21 1 -31.5 13.5t-10.5 26.5q0 23 24 33q-14 12 -14 30q0 34 41 40q-7 6 -12 20q-59 -71 -172 -56q58 1 102 19t77 70q-20 9 -50 37q47 -27 69 -27
q7 0 38.5 5t46.5 3zM853 326q46 3 46 32q0 18 -24 18l-310 7q94 -40 161 -40v-25zM647 250q0 10 -6 17h-1l-92 15q-16 1 -25 0.5t-26.5 -3.5t-26.5 -4q-19 -8 -19 -22q0 -21 30 -22l131 -6q35 -1 35 25zM588 155q13 -1 20 7.5t7 21.5q0 21 -13 25l-121 5q-7 0 -10 1
q-48 0 -48 -29q0 -23 30 -24zM578 116q0 16 -9 25l-119 6q-4 0 -6 1q-32 -4 -32 -25q0 -24 27 -25l114 -5q11 -1 18 6.5t7 16.5z" />
    <glyph glyph-name="uni261F" unicode="&#x261f;" horiz-adv-x="474" 
d="M421 284l2 -54q1 -19 -11.5 -30.5t-26.5 -11.5q-15 0 -24 7v-2q1 -20 -11.5 -31.5t-32.5 -11.5q-14 0 -25 7q-4 -39 -41 -39q-5 0 -15 2q2 -59 -36 -65l-10 -127q-4 -64 -47 -64q-32 0 -33 40l-7 349q-24 61 -24 94v38q0 38 22 77t51 65l-10 133q-1 22 27 37.5t64 15.5
q40 0 52 -45l6 -23l4 20q5 26 16.5 36t37.5 10q34 0 57 -12t22 -36l-9 -130q27 -41 27 -89q0 -68 -25 -160zM191 69q18 -1 25.5 19.5t2.5 52.5l-15 93q-2 15 3 46.5t5 38.5q0 22 -27 69q28 -30 37 -50q52 33 70 77t19 102q15 -113 -56 -172q14 -5 20 -12q6 41 40 41
q18 0 30 -14q10 24 33 24q14 0 26.5 -10.5t13.5 -31.5v-9q13 62 13 111q0 72 -82 151q32 -17 55 -43l9 113q1 15 -17.5 23t-46.5 8q-20 0 -27.5 -6.5t-11.5 -24.5l-11 -47h-13l-16 50q-9 30 -37 30q-31 0 -54 -11t-22 -27l10 -122q10 7 19 9q-37 -31 -64.5 -74t-27.5 -88
v-38q0 -31 37.5 -122.5t40.5 -154.5zM385 203q9 0 16.5 7t6.5 18l-5 114q-1 27 -25 27q-21 0 -25 -32q1 -2 1 -6l6 -119q9 -9 25 -9zM317 166q13 0 21.5 7t7.5 20l-7 135q-1 30 -24 30q-29 0 -29 -48q1 -3 1 -10l5 -121q4 -13 25 -13zM251 134q26 0 25 35l-6 131
q-1 30 -22 30q-14 0 -22 -19q0 -2 -4.5 -33t-2.5 -45l15 -92v-1q8 -6 17 -6zM143 -118q29 0 32 46l8 127h-25q0 67 -40 161l7 -310q0 -24 18 -24z" />
    <glyph glyph-name="K.ss04" horiz-adv-x="481" 
d="M737 -200q-195 0 -310 151.5t-152 429.5l-162 -152l-25 -129q-8 -45 -9.5 -62t4.5 -38h-63q20 24 35 100l90 460q8 46 9 62t-6 38h63q-19 -24 -34 -100l-56 -285h2l337 316q44 40 58 69h71q-12 -7 -21.5 -13.5t-15.5 -10.5t-16 -13t-14 -12.5t-19 -17t-22 -20.5
l-181 -169q40 -283 148 -429.5t300 -146.5q77 0 150 41l-16 -41q-58 -28 -145 -28z" />
    <glyph glyph-name="uni0136.ss04" horiz-adv-x="481" 
d="M737 -200q-195 0 -310 151.5t-152 429.5l-162 -152l-25 -129q-8 -45 -9.5 -62t4.5 -38h-63q20 24 35 100l90 460q8 46 9 62t-6 38h63q-19 -24 -34 -100l-56 -285h2l337 316q44 40 58 69h71q-12 -7 -21.5 -13.5t-15.5 -10.5t-16 -13t-14 -12.5t-19 -17t-22 -20.5
l-181 -169q40 -283 148 -429.5t300 -146.5q77 0 150 41l-16 -41q-58 -28 -145 -28zM164 -200l-10 16q27 11 46.5 33.5t24.5 42.5q-2 -2 -11 -2q-10 0 -17.5 7t-7.5 20q0 18 11.5 30.5t27.5 12.5q31 0 31 -34q0 -36 -29 -74.5t-66 -51.5z" />
    <glyph glyph-name="Q.ss05" horiz-adv-x="636" 
d="M273 -12q-93 0 -152.5 61t-59.5 170q0 193 99.5 323t245.5 130q93 0 152.5 -61t59.5 -170q0 -190 -100.5 -321.5t-244.5 -131.5zM279 16q125 0 215.5 123t90.5 297q0 101 -51 154.5t-134 53.5q-126 0 -216 -122t-90 -298q0 -101 51 -154.5t134 -53.5zM722 -232
q-141 0 -249.5 59t-141.5 167l35 6q35 -96 133.5 -147.5t225.5 -51.5q186 0 330 97l-13 -45q-144 -85 -320 -85z" />
    <glyph glyph-name="R.ss06" horiz-adv-x="513" 
d="M731 -200q-180 0 -295 129t-146 351h-168l-35 -180q-14 -76 -4 -100h-62q19 24 34 100l90 460q8 46 9 62t-6 38h178q93 0 147.5 -29t54.5 -105q0 -96 -55.5 -162t-153.5 -80q35 -216 140 -336t283 -120q77 0 153 42l-16 -41q-60 -29 -148 -29zM128 308h128
q111 0 174 56.5t63 154.5q0 64 -47 88.5t-137 24.5h-118z" />
    <glyph glyph-name="Racute.ss06" horiz-adv-x="513" 
d="M324 720l-9 16q94 64 162 154l22 -23q-69 -86 -175 -147zM731 -200q-180 0 -295 129t-146 351h-168l-35 -180q-14 -76 -4 -100h-62q19 24 34 100l90 460q8 46 9 62t-6 38h178q93 0 147.5 -29t54.5 -105q0 -96 -55.5 -162t-153.5 -80q35 -216 140 -336t283 -120
q77 0 153 42l-16 -41q-60 -29 -148 -29zM128 308h128q111 0 174 56.5t63 154.5q0 64 -47 88.5t-137 24.5h-118z" />
    <glyph glyph-name="Rcaron.ss06" horiz-adv-x="513" 
d="M331 722q-26 79 -88 146l16 16q56 -53 90 -130h4q24 34 62.5 70t75.5 56l10 -19q-36 -21 -75 -62t-60 -77h-35zM731 -200q-180 0 -295 129t-146 351h-168l-35 -180q-14 -76 -4 -100h-62q19 24 34 100l90 460q8 46 9 62t-6 38h178q93 0 147.5 -29t54.5 -105
q0 -96 -55.5 -162t-153.5 -80q35 -216 140 -336t283 -120q77 0 153 42l-16 -41q-60 -29 -148 -29zM128 308h128q111 0 174 56.5t63 154.5q0 64 -47 88.5t-137 24.5h-118z" />
    <glyph glyph-name="uni0156.ss06" horiz-adv-x="513" 
d="M731 -200q-180 0 -295 129t-146 351h-168l-35 -180q-14 -76 -4 -100h-62q19 24 34 100l90 460q8 46 9 62t-6 38h178q93 0 147.5 -29t54.5 -105q0 -96 -55.5 -162t-153.5 -80q35 -216 140 -336t283 -120q77 0 153 42l-16 -41q-60 -29 -148 -29zM128 308h128
q111 0 174 56.5t63 154.5q0 64 -47 88.5t-137 24.5h-118zM148 -200l-10 16q27 11 46.5 33.5t24.5 42.5q-2 -2 -11 -2q-10 0 -17.5 7t-7.5 20q0 18 11.5 30.5t27.5 12.5q31 0 31 -34q0 -36 -29 -74.5t-66 -51.5z" />
    <glyph glyph-name="i.loclTRK" horiz-adv-x="225" 
d="M164 564q-26 0 -26 24q0 21 11 33.5t29 12.5q26 0 26 -24q0 -20 -11 -33t-29 -13zM40 0l69 335q20 97 7 143h52l-74 -358q-18 -91 -1 -120h-53z" />
    <glyph glyph-name="a.inferior" horiz-adv-x="341" 
d="M186 -170q-45 0 -72 32.5t-27 95.5q0 106 58 179t144 73q36 0 77 -18l7 12h26l-55 -268q-15 -75 -3 -97h-35q-4 28 4 61h-3q-25 -32 -57.5 -51t-63.5 -19zM190 -142q30 0 68.5 29.5t60.5 70.5l41 203q-33 19 -75 19q-70 0 -118 -64.5t-48 -156.5q0 -49 19 -75t52 -26z
" />
    <glyph glyph-name="b.inferior" horiz-adv-x="377" 
d="M203 -169q-45 0 -87 23l-8 -14h-18l88 430q17 81 8 104h44l-50 -238q24 33 58 54t67 21q45 0 72 -33t27 -96q0 -105 -58 -178t-143 -73zM206 -140q70 0 118 65t48 158q0 48 -19 74t-52 26t-73.5 -33.5t-60.5 -78.5l-39 -188q31 -23 78 -23z" />
    <glyph glyph-name="c.inferior" horiz-adv-x="318" 
d="M206 -170q-51 0 -84.5 33t-33.5 99q0 105 52.5 176t133.5 71q52 0 103 -35l-22 -33q-28 40 -85 40q-65 0 -107.5 -63.5t-42.5 -151.5q0 -54 25.5 -81t66.5 -27q32 0 64 16t49 38l10 -38q-62 -44 -129 -44z" />
    <glyph glyph-name="d.inferior" horiz-adv-x="378" 
d="M186 -169q-45 0 -72 32.5t-27 95.5q0 105 58 178t144 73q36 0 77 -16l14 74q15 79 7 106h43l-86 -443q-14 -74 -3 -91h-37q0 34 6 61h-3q-24 -31 -56.5 -50.5t-64.5 -19.5zM190 -141q31 0 69.5 30t59.5 72l40 201q-30 19 -74 19q-70 0 -118 -65t-48 -157q0 -48 19 -74
t52 -26z" />
    <glyph glyph-name="e.inferior" horiz-adv-x="352" 
d="M210 -170q-56 0 -89 33t-33 101q0 107 56 176t134 69q47 0 77.5 -27.5t30.5 -67.5q0 -52 -37.5 -76t-116.5 -24h-109q-14 -78 11.5 -117t79.5 -39q33 0 69.5 13t53.5 33l8 -38q-19 -13 -58.5 -24.5t-76.5 -11.5zM128 41h106q61 0 91 16t30 54q0 31 -22 50.5t-59 19.5
q-44 0 -88 -38t-58 -102z" />
    <glyph glyph-name="f.inferior" horiz-adv-x="197" 
d="M95 -150l65 332h-55l6 28h54l11 55q26 129 122 129q33 0 65 -17l-14 -34q-17 24 -55 24q-70 0 -88 -102l-10 -55h86l-6 -28h-86l-48 -243q-13 -73 -3 -89h-44z" />
    <glyph glyph-name="g.inferior" horiz-adv-x="338" 
d="M173 -313q-61 0 -118 38l24 38q24 -48 94 -48q51 0 78.5 29.5t45.5 99.5l15 60h-2q-56 -73 -124 -73q-45 0 -72 32.5t-27 95.5q0 105 58 178t143 73q44 0 84 -20l8 15h25l-78 -360q-18 -81 -51.5 -119.5t-102.5 -38.5zM189 -141q33 0 72.5 32t60.5 76l42 192
q-32 22 -79 22q-70 0 -118 -64.5t-48 -157.5q0 -48 19 -74t51 -26z" />
    <glyph glyph-name="h.inferior" horiz-adv-x="369" 
d="M94 -150l85 428q15 76 7 106h42l-44 -228h1q21 24 57.5 44t73.5 20q46 0 70 -32t13 -92l-31 -158q-13 -71 -3 -88h-45l49 244q11 52 -7 75.5t-54 23.5q-34 0 -70.5 -24t-61.5 -57l-34 -174q-13 -73 -3 -88h-45z" />
    <glyph glyph-name="i.inferior" horiz-adv-x="161" 
d="M188 287q-24 0 -21 28q5 30 31 30q23 0 20 -28q-3 -30 -30 -30zM88 -155l52 254q14 71 5 106h47l-56 -272q-14 -67 -1 -88h-47z" />
    <glyph glyph-name="j.inferior" horiz-adv-x="161" 
d="M178 288q-24 0 -20 30q3 28 30 28q24 0 20 -29q-3 -29 -30 -29zM-2 -306q-26 0 -50 11l16 38q10 -22 38 -22q30 0 45.5 22.5t25.5 73.5l56 288q13 67 4 101h46l-76 -389q-14 -69 -38.5 -96t-66.5 -27z" />
    <glyph glyph-name="k.inferior" horiz-adv-x="324" 
d="M96 -154l85 428q15 75 5 106h47l-49 -245q20 35 53.5 58t72.5 23q38 0 63.5 -23t25.5 -59q0 -53 -41.5 -86.5t-99.5 -42.5l42 -76q36 -67 61 -83h-50l-87 164v16q62 6 102.5 32.5t40.5 71.5q0 27 -17.5 43t-44.5 16q-36 0 -73.5 -34t-61.5 -89l-26 -131q-13 -71 -1 -89
h-47z" />
    <glyph glyph-name="l.inferior" horiz-adv-x="160" 
d="M95 -157l85 427q14 76 5 107h47l-89 -444q-13 -70 0 -90h-48z" />
    <glyph glyph-name="m.inferior" horiz-adv-x="566" 
d="M88 -160l51 254q14 78 6 106h40l-10 -58h3q60 69 124 69q34 0 57.5 -19.5t26.5 -55.5q64 75 132 75q46 0 70 -32.5t11 -93.5l-33 -156q-16 -70 -3 -89h-43l49 243q11 54 -7.5 77t-51.5 23q-60 0 -124 -79l-36 -175q-14 -73 -3 -89h-44l50 243q11 54 -7 77t-51 23
q-32 0 -65 -23.5t-60 -58.5l-35 -173q-14 -72 -3 -88h-44z" />
    <glyph glyph-name="n.inferior" horiz-adv-x="369" 
d="M88 -160l50 252q16 76 7 108h39l-8 -53h3q23 26 59.5 45.5t72.5 19.5q44 0 70 -31.5t13 -92.5l-33 -158q-16 -71 -2 -90h-45l50 245q11 54 -8 76.5t-53 22.5t-70 -23.5t-63 -56.5l-35 -174q-15 -73 -3 -90h-44z" />
    <glyph glyph-name="o.inferior" horiz-adv-x="371" 
d="M222 -170q-60 0 -95.5 37.5t-35.5 106.5q0 105 50.5 170t137.5 65q60 0 95 -37.5t35 -106.5q0 -105 -50 -170t-137 -65zM225 -142q69 0 110.5 57.5t41.5 149.5q0 55 -27 85.5t-74 30.5q-70 0 -111.5 -58t-41.5 -150q0 -54 26.5 -84.5t75.5 -30.5z" />
    <glyph glyph-name="p.inferior" horiz-adv-x="377" 
d="M65 -310l81 404q15 73 5 106h45l-14 -68l1 -1q24 35 59 57.5t69 22.5q45 0 72 -33t27 -96q0 -105 -58 -178t-144 -73q-39 0 -81 20l-15 -73q-15 -65 -1 -88h-46zM212 -140q70 0 118 65t48 158q0 48 -19 74t-52 26t-74.5 -33.5t-61.5 -77.5l-38 -189q34 -23 79 -23z" />
    <glyph glyph-name="q.inferior" horiz-adv-x="378" 
d="M270 -310l44 220h-1q-24 -35 -58.5 -57t-68.5 -22q-45 0 -72 32.5t-27 95.5q0 105 58 178t144 73q40 0 80 -18l4 13h30l-85 -424q-13 -71 -1 -91h-47zM190 -141q33 0 74.5 34t61.5 80l37 187q-31 21 -78 21q-70 0 -118 -65t-48 -157q0 -48 19 -74t52 -26z" />
    <glyph glyph-name="r.inferior" horiz-adv-x="233" 
d="M90 -160l50 252q15 81 5 108h44l-11 -68h1q20 33 51 55.5t58 22.5q22 0 42 -12l-16 -32q-11 16 -31 16q-25 0 -57.5 -29.5t-58.5 -82.5l-27 -133q-16 -77 1 -97h-51z" />
    <glyph glyph-name="s.inferior" horiz-adv-x="289" 
d="M179 -169q-53 0 -124 37l26 39q9 -20 37.5 -34.5t64.5 -14.5q43 0 73 23t30 59q0 52 -70 74l-16 5q-81 25 -81 90q0 43 35 72t87 29q57 0 105 -34l-22 -35q-8 18 -32 30t-55 12q-36 0 -62.5 -20.5t-26.5 -49.5q0 -45 63 -67l17 -6q42 -15 64.5 -37.5t22.5 -59.5
q0 -48 -38.5 -80t-97.5 -32z" />
    <glyph glyph-name="t.inferior" horiz-adv-x="222" 
d="M176 -169q-41 0 -57.5 27.5t-6.5 78.5l49 236h-57l6 27h57l14 63h28l-13 -63h108l-5 -27h-109l-49 -237q-17 -79 40 -79q18 0 37.5 8.5t25.5 19.5l13 -34q-47 -20 -81 -20z" />
    <glyph glyph-name="u.inferior" horiz-adv-x="370" 
d="M187 -170q-49 0 -69 36t-7 104l27 140q14 72 0 90h47l-44 -228q-22 -114 52 -114q32 0 71.5 27t71.5 68l30 157q13 73 2 90h46l-52 -267q-14 -71 -4 -93h-40l10 66h-2q-66 -76 -139 -76z" />
    <glyph glyph-name="v.inferior" horiz-adv-x="315" 
d="M175 -160l-47 280q-10 62 -28 80h43l41 -244q12 -71 13 -87h3q22 44 81 146.5t67 117.5q26 50 18 67h45q-13 -33 -95 -176.5t-100 -183.5h-41z" />
    <glyph glyph-name="w.inferior" horiz-adv-x="471" 
d="M149 -160l-26 281q-7 62 -19 79h42l21 -242q6 -66 5 -89h6q13 34 36 83t50 104.5t31 64.5q28 60 25 79h48l17 -242q3 -70 3 -89h6q14 36 55 117t67 140t20 74h38q-9 -32 -78 -172.5t-85 -187.5h-46l-19 265q-1 11 -1.5 26t-1 24t-1.5 14h-1q-6 -20 -24 -60
q-14 -30 -44 -92.5t-49.5 -104.5t-29.5 -72h-45z" />
    <glyph glyph-name="x.inferior" horiz-adv-x="290" 
d="M293 -100q23 -48 36 -60h-40l-64 136l-15 34q-9 -13 -24 -31l-73 -87q-32 -37 -31 -52h-44l162 191l-52 109q-22 47 -35 60h39l55 -120q1 -4 4.5 -10.5t10.5 -25.5l26 32l60 72q31 38 31 52h43l-148 -177z" />
    <glyph glyph-name="y.inferior" horiz-adv-x="308" 
d="M47 -310q-17 0 -39 5l15 39q10 -16 31 -16q59 0 113 96l10 18l-49 287q-12 64 -28 81h42l37 -212q13 -74 18 -119h3q18 37 63 121l76 141q17 32 22.5 46.5t-0.5 22.5h45l-214 -397q-61 -113 -145 -113z" />
    <glyph glyph-name="z.inferior" horiz-adv-x="284" 
d="M371 200l-4 -25l-277 -308h143q70 0 90 14l-8 -41h-268l4 25l275 307h-120q-63 0 -81 -13l7 41h239z" />
    <glyph glyph-name="a.ordn" horiz-adv-x="380" 
d="M186 341q-45 0 -72 32.5t-27 95.5q0 106 58 179t144 73q36 0 77 -18l7 12h26l-55 -268q-15 -75 -3 -97h-35q-4 28 4 61h-3q-25 -32 -57.5 -51t-63.5 -19zM190 369q30 0 68.5 29.5t60.5 70.5l41 203q-33 19 -75 19q-70 0 -118 -64.5t-48 -156.5q0 -49 19 -75t52 -26z" />
    <glyph glyph-name="b.ordn" horiz-adv-x="378" 
d="M203 341q-45 0 -87 23l-8 -14h-18l88 430q17 81 8 104h44l-50 -238q24 33 58 54t67 21q45 0 72 -33t27 -96q0 -105 -58 -178t-143 -73zM206 370q70 0 118 65t48 158q0 48 -19 74t-52 26t-73.5 -33.5t-60.5 -78.5l-39 -188q31 -23 78 -23z" />
    <glyph glyph-name="c.ordn" horiz-adv-x="327" 
d="M206 340q-51 0 -84.5 33t-33.5 99q0 105 52.5 176t133.5 71q52 0 103 -35l-22 -33q-28 40 -85 40q-65 0 -107.5 -63.5t-42.5 -151.5q0 -54 25.5 -81t66.5 -27q32 0 64 16t49 38l10 -38q-62 -44 -129 -44z" />
    <glyph glyph-name="d.ordn" horiz-adv-x="380" 
d="M186 341q-45 0 -72 32.5t-27 95.5q0 105 58 178t144 73q36 0 77 -16l14 74q15 79 7 106h43l-86 -443q-14 -74 -3 -91h-37q0 34 6 61h-3q-24 -31 -56.5 -50.5t-64.5 -19.5zM190 369q31 0 69.5 30t59.5 72l40 201q-30 19 -74 19q-70 0 -118 -65t-48 -157q0 -48 19 -74
t52 -26z" />
    <glyph glyph-name="e.ordn" horiz-adv-x="353" 
d="M210 340q-56 0 -89 33t-33 101q0 107 56 176t134 69q47 0 77.5 -27.5t30.5 -67.5q0 -52 -37.5 -76t-116.5 -24h-109q-14 -78 11.5 -117t79.5 -39q33 0 69.5 13t53.5 33l8 -38q-19 -13 -58.5 -24.5t-76.5 -11.5zM128 551h106q61 0 91 16t30 54q0 31 -22 50.5t-59 19.5
q-44 0 -88 -38t-58 -102z" />
    <glyph glyph-name="f.ordn" horiz-adv-x="211" 
d="M95 350l65 332h-55l6 28h54l11 55q26 129 122 129q33 0 65 -17l-14 -34q-17 24 -55 24q-70 0 -88 -102l-10 -55h86l-6 -28h-86l-48 -243q-13 -73 -3 -89h-44z" />
    <glyph glyph-name="g.ordn" horiz-adv-x="366" 
d="M173 197q-61 0 -118 38l24 38q24 -48 94 -48q51 0 78.5 29.5t45.5 99.5l15 60h-2q-56 -73 -124 -73q-45 0 -72 32.5t-27 95.5q0 105 58 178t143 73q44 0 84 -20l8 15h25l-78 -360q-18 -81 -51.5 -119.5t-102.5 -38.5zM189 369q33 0 72.5 32t60.5 76l42 192q-32 22 -79 22
q-70 0 -118 -64.5t-48 -157.5q0 -48 19 -74t51 -26z" />
    <glyph glyph-name="h.ordn" horiz-adv-x="392" 
d="M94 350l85 428q15 76 7 106h42l-44 -228h1q21 24 57.5 44t73.5 20q46 0 70 -32t13 -92l-31 -158q-13 -71 -3 -88h-45l49 244q11 52 -7 75.5t-54 23.5q-34 0 -70.5 -24t-61.5 -57l-34 -174q-13 -73 -3 -88h-45z" />
    <glyph glyph-name="i.ordn" horiz-adv-x="174" 
d="M188 792q-24 0 -21 28q5 30 31 30q23 0 20 -28q-3 -30 -30 -30zM88 350l52 254q14 71 5 106h47l-56 -272q-14 -67 -1 -88h-47z" />
    <glyph glyph-name="j.ordn" horiz-adv-x="147" 
d="M178 792q-24 0 -20 30q3 28 30 28q24 0 20 -29q-3 -29 -30 -29zM-2 198q-26 0 -50 11l16 38q10 -22 38 -22q30 0 45.5 22.5t25.5 73.5l56 288q13 67 4 101h46l-76 -389q-14 -69 -38.5 -96t-66.5 -27z" />
    <glyph glyph-name="k.ordn" horiz-adv-x="348" 
d="M96 350l85 428q15 75 5 106h47l-49 -245q20 35 53.5 58t72.5 23q38 0 63.5 -23t25.5 -59q0 -53 -41.5 -86.5t-99.5 -42.5l42 -76q36 -67 61 -83h-50l-87 164v16q62 6 102.5 32.5t40.5 71.5q0 27 -17.5 43t-44.5 16q-36 0 -73.5 -34t-61.5 -89l-26 -131q-13 -71 -1 -89
h-47z" />
    <glyph glyph-name="l.ordn" horiz-adv-x="182" 
d="M95 350l85 427q14 76 5 107h47l-89 -444q-13 -70 0 -90h-48z" />
    <glyph glyph-name="m.ordn" horiz-adv-x="590" 
d="M88 350l51 254q14 78 6 106h40l-10 -58h3q60 69 124 69q34 0 57.5 -19.5t26.5 -55.5q64 75 132 75q46 0 70 -32.5t11 -93.5l-33 -156q-16 -70 -3 -89h-43l49 243q11 54 -7.5 77t-51.5 23q-60 0 -124 -79l-36 -175q-14 -73 -3 -89h-44l50 243q11 54 -7 77t-51 23
q-32 0 -65 -23.5t-60 -58.5l-35 -173q-14 -72 -3 -88h-44z" />
    <glyph glyph-name="n.ordn" horiz-adv-x="386" 
d="M88 350l50 252q16 76 7 108h39l-8 -53h3q23 26 59.5 45.5t72.5 19.5q44 0 70 -31.5t13 -92.5l-33 -158q-16 -71 -2 -90h-45l50 245q11 54 -8 76.5t-53 22.5t-70 -23.5t-63 -56.5l-35 -174q-15 -73 -3 -90h-44z" />
    <glyph glyph-name="o.ordn" horiz-adv-x="388" 
d="M222 340q-60 0 -95.5 37.5t-35.5 106.5q0 105 50.5 170t137.5 65q60 0 95 -37.5t35 -106.5q0 -105 -50 -170t-137 -65zM225 368q69 0 110.5 57.5t41.5 149.5q0 55 -27 85.5t-74 30.5q-70 0 -111.5 -58t-41.5 -150q0 -54 26.5 -84.5t75.5 -30.5z" />
    <glyph glyph-name="p.ordn" horiz-adv-x="384" 
d="M65 200l81 404q15 73 5 106h45l-14 -68l1 -1q24 35 59 57.5t69 22.5q45 0 72 -33t27 -96q0 -105 -58 -178t-144 -73q-39 0 -81 20l-15 -73q-15 -65 -1 -88h-46zM212 370q70 0 118 65t48 158q0 48 -19 74t-52 26t-74.5 -33.5t-61.5 -77.5l-38 -189q34 -23 79 -23z" />
    <glyph glyph-name="q.ordn" horiz-adv-x="378" 
d="M270 200l44 220h-1q-24 -35 -58.5 -57t-68.5 -22q-45 0 -72 32.5t-27 95.5q0 105 58 178t144 73q40 0 80 -18l4 13h30l-85 -424q-13 -71 -1 -91h-47zM190 369q33 0 74.5 34t61.5 80l37 187q-31 21 -78 21q-70 0 -118 -65t-48 -157q0 -48 19 -74t52 -26z" />
    <glyph glyph-name="r.ordn" horiz-adv-x="251" 
d="M90 350l50 252q15 81 5 108h44l-11 -68h1q20 33 51 55.5t58 22.5q22 0 42 -12l-16 -32q-11 16 -31 16q-25 0 -57.5 -29.5t-58.5 -82.5l-27 -133q-16 -77 1 -97h-51z" />
    <glyph glyph-name="s.ordn" horiz-adv-x="305" 
d="M179 341q-53 0 -124 37l26 39q9 -20 37.5 -34.5t64.5 -14.5q43 0 73 23t30 59q0 52 -70 74l-16 5q-81 25 -81 90q0 43 35 72t87 29q57 0 105 -34l-22 -35q-8 18 -32 30t-55 12q-36 0 -62.5 -20.5t-26.5 -49.5q0 -45 63 -67l17 -6q42 -15 64.5 -37.5t22.5 -59.5
q0 -48 -38.5 -80t-97.5 -32z" />
    <glyph glyph-name="t.ordn" horiz-adv-x="261" 
d="M176 341q-41 0 -57.5 27.5t-6.5 78.5l49 236h-57l6 27h57l14 63h28l-13 -63h108l-5 -27h-109l-49 -237q-17 -79 40 -79q18 0 37.5 8.5t25.5 19.5l13 -34q-47 -20 -81 -20z" />
    <glyph glyph-name="u.ordn" horiz-adv-x="383" 
d="M187 340q-49 0 -69 36t-7 104l27 140q14 72 0 90h47l-44 -228q-22 -114 52 -114q32 0 71.5 27t71.5 68l30 157q13 73 2 90h46l-52 -267q-14 -71 -4 -93h-40l10 66h-2q-66 -76 -139 -76z" />
    <glyph glyph-name="v.ordn" horiz-adv-x="331" 
d="M175 350l-47 280q-10 62 -28 80h43l41 -244q12 -71 13 -87h3q22 44 81 146.5t67 117.5q26 50 18 67h45q-13 -33 -95 -176.5t-100 -183.5h-41z" />
    <glyph glyph-name="w.ordn" horiz-adv-x="501" 
d="M149 350l-26 281q-7 62 -19 79h42l21 -242q6 -66 5 -89h6q13 34 36 83t50 104.5t31 64.5q28 60 25 79h48l17 -242q3 -70 3 -89h6q14 36 55 117t67 140t20 74h38q-9 -32 -78 -172.5t-85 -187.5h-46l-19 265q-1 11 -1.5 26t-1 24t-1.5 14h-1q-6 -20 -24 -60
q-14 -30 -44 -92.5t-49.5 -104.5t-29.5 -72h-45z" />
    <glyph glyph-name="x.ordn" horiz-adv-x="323" 
d="M293 410q23 -48 36 -60h-40l-64 136l-15 34q-9 -13 -24 -31l-73 -87q-32 -37 -31 -52h-44l162 191l-52 109q-22 47 -35 60h39l55 -120q1 -4 4.5 -10.5t10.5 -25.5l26 32l60 72q31 38 31 52h43l-148 -177z" />
    <glyph glyph-name="y.ordn" horiz-adv-x="324" 
d="M47 200q-17 0 -39 5l15 39q10 -16 31 -16q59 0 113 96l10 18l-49 287q-12 64 -28 81h42l37 -212q13 -74 18 -119h3q18 37 63 121l76 141q17 32 22.5 46.5t-0.5 22.5h45l-214 -397q-61 -113 -145 -113z" />
    <glyph glyph-name="z.ordn" horiz-adv-x="317" 
d="M371 710l-4 -25l-277 -308h143q70 0 90 14l-8 -41h-268l4 25l275 307h-120q-63 0 -81 -13l7 41h239z" />
    <glyph glyph-name="a.ss01" horiz-adv-x="472" 
d="M148 -12q-57 0 -91 26t-34 76q0 84 67.5 129t192.5 45h83l9 46q30 152 -105 152q-43 0 -84 -19.5t-62 -43.5l-14 41q10 2 39 15.5t63 24t66 10.5q80 0 112 -46.5t15 -133.5l-37 -190q-18 -92 -7 -120h-46l16 86h-2q-34 -44 -83 -71t-98 -27zM153 15q96 0 187 114l20 107
h-83q-108 0 -164.5 -35.5t-56.5 -104.5q0 -40 26 -60.5t71 -20.5z" />
    <glyph glyph-name="aacute.ss01" horiz-adv-x="472" 
d="M261 560l-9 16q94 64 162 154l22 -23q-69 -86 -175 -147zM148 -12q-57 0 -91 26t-34 76q0 84 67.5 129t192.5 45h83l9 46q30 152 -105 152q-43 0 -84 -19.5t-62 -43.5l-14 41q10 2 39 15.5t63 24t66 10.5q80 0 112 -46.5t15 -133.5l-37 -190q-18 -92 -7 -120h-46l16 86
h-2q-34 -44 -83 -71t-98 -27zM153 15q96 0 187 114l20 107h-83q-108 0 -164.5 -35.5t-56.5 -104.5q0 -40 26 -60.5t71 -20.5z" />
    <glyph glyph-name="abreve.ss01" horiz-adv-x="472" 
d="M282 556q-108 0 -80 142h24q-9 -50 4 -83t57 -33q45 0 71.5 33t35.5 83h24q-28 -142 -136 -142zM148 -12q-57 0 -91 26t-34 76q0 84 67.5 129t192.5 45h83l9 46q30 152 -105 152q-43 0 -84 -19.5t-62 -43.5l-14 41q10 2 39 15.5t63 24t66 10.5q80 0 112 -46.5t15 -133.5
l-37 -190q-18 -92 -7 -120h-46l16 86h-2q-34 -44 -83 -71t-98 -27zM153 15q96 0 187 114l20 107h-83q-108 0 -164.5 -35.5t-56.5 -104.5q0 -40 26 -60.5t71 -20.5z" />
    <glyph glyph-name="acircumflex.ss01" horiz-adv-x="472" 
d="M164 560l-10 16q83 65 146 146h28q36 -88 90 -146l-16 -16q-54 51 -89 130h-4q-60 -72 -145 -130zM148 -12q-57 0 -91 26t-34 76q0 84 67.5 129t192.5 45h83l9 46q30 152 -105 152q-43 0 -84 -19.5t-62 -43.5l-14 41q10 2 39 15.5t63 24t66 10.5q80 0 112 -46.5
t15 -133.5l-37 -190q-18 -92 -7 -120h-46l16 86h-2q-34 -44 -83 -71t-98 -27zM153 15q96 0 187 114l20 107h-83q-108 0 -164.5 -35.5t-56.5 -104.5q0 -40 26 -60.5t71 -20.5z" />
    <glyph glyph-name="adieresis.ss01" horiz-adv-x="472" 
d="M232 588q-11 0 -18.5 7.5t-7.5 18.5q0 15 12 26.5t27 11.5q11 0 18.5 -7.5t7.5 -18.5q0 -14 -11.5 -26t-27.5 -12zM348 588q-11 0 -18.5 7.5t-7.5 18.5q0 15 12 26.5t27 11.5q11 0 18.5 -7.5t7.5 -18.5q0 -14 -11.5 -26t-27.5 -12zM148 -12q-57 0 -91 26t-34 76
q0 84 67.5 129t192.5 45h83l9 46q30 152 -105 152q-43 0 -84 -19.5t-62 -43.5l-14 41q10 2 39 15.5t63 24t66 10.5q80 0 112 -46.5t15 -133.5l-37 -190q-18 -92 -7 -120h-46l16 86h-2q-34 -44 -83 -71t-98 -27zM153 15q96 0 187 114l20 107h-83q-108 0 -164.5 -35.5
t-56.5 -104.5q0 -40 26 -60.5t71 -20.5z" />
    <glyph glyph-name="agrave.ss01" horiz-adv-x="472" 
d="M305 560q-84 62 -118 147l28 21q36 -96 103 -154zM148 -12q-57 0 -91 26t-34 76q0 84 67.5 129t192.5 45h83l9 46q30 152 -105 152q-43 0 -84 -19.5t-62 -43.5l-14 41q10 2 39 15.5t63 24t66 10.5q80 0 112 -46.5t15 -133.5l-37 -190q-18 -92 -7 -120h-46l16 86h-2
q-34 -44 -83 -71t-98 -27zM153 15q96 0 187 114l20 107h-83q-108 0 -164.5 -35.5t-56.5 -104.5q0 -40 26 -60.5t71 -20.5z" />
    <glyph glyph-name="amacron.ss01" horiz-adv-x="472" 
d="M199 597l6 30h186l-6 -30h-186zM148 -12q-57 0 -91 26t-34 76q0 84 67.5 129t192.5 45h83l9 46q30 152 -105 152q-43 0 -84 -19.5t-62 -43.5l-14 41q10 2 39 15.5t63 24t66 10.5q80 0 112 -46.5t15 -133.5l-37 -190q-18 -92 -7 -120h-46l16 86h-2q-34 -44 -83 -71
t-98 -27zM153 15q96 0 187 114l20 107h-83q-108 0 -164.5 -35.5t-56.5 -104.5q0 -40 26 -60.5t71 -20.5z" />
    <glyph glyph-name="aogonek.ss01" horiz-adv-x="472" 
d="M278 490q80 0 112 -46.5t15 -133.5l-37 -190q-18 -92 -7 -120q-47 -22 -79 -57t-32 -64q0 -15 11 -24t28 -9q27 0 47 22l9 -28q-29 -18 -61 -18q-64 0 -64 50q0 36 31.5 71t75.5 57h-12l16 86h-2q-34 -44 -83 -71t-98 -27q-57 0 -91 26t-34 76q0 84 67.5 129t192.5 45h83
l9 46q30 152 -105 152q-43 0 -84 -19.5t-62 -43.5l-14 41q10 2 39 15.5t63 24t66 10.5zM340 129l20 107h-83q-108 0 -164.5 -35.5t-56.5 -104.5q0 -40 26 -60.5t71 -20.5q96 0 187 114z" />
    <glyph glyph-name="aring.ss01" horiz-adv-x="472" 
d="M284 560q-31 0 -51 16t-20 44q0 38 29 65t71 27q32 0 51.5 -16t19.5 -44q0 -38 -29 -65t-71 -27zM289 584q29 0 48 18.5t19 46.5q0 39 -47 39q-30 0 -49 -18t-19 -47q0 -39 48 -39zM148 -12q-57 0 -91 26t-34 76q0 84 67.5 129t192.5 45h83l9 46q30 152 -105 152
q-43 0 -84 -19.5t-62 -43.5l-14 41q10 2 39 15.5t63 24t66 10.5q80 0 112 -46.5t15 -133.5l-37 -190q-18 -92 -7 -120h-46l16 86h-2q-34 -44 -83 -71t-98 -27zM153 15q96 0 187 114l20 107h-83q-108 0 -164.5 -35.5t-56.5 -104.5q0 -40 26 -60.5t71 -20.5z" />
    <glyph glyph-name="atilde.ss01" horiz-adv-x="472" 
d="M354 575q-21 0 -38.5 13.5t-27 30.5t-23.5 30.5t-29 13.5q-51 0 -59 -68l-36 2q16 42 38.5 66t62.5 24q21 0 38 -13.5t27 -30.5t24 -30.5t29 -13.5q49 0 59 68l35 -2q-17 -42 -39 -66t-61 -24zM148 -12q-57 0 -91 26t-34 76q0 84 67.5 129t192.5 45h83l9 46
q30 152 -105 152q-43 0 -84 -19.5t-62 -43.5l-14 41q10 2 39 15.5t63 24t66 10.5q80 0 112 -46.5t15 -133.5l-37 -190q-18 -92 -7 -120h-46l16 86h-2q-34 -44 -83 -71t-98 -27zM153 15q96 0 187 114l20 107h-83q-108 0 -164.5 -35.5t-56.5 -104.5q0 -40 26 -60.5t71 -20.5z
" />
    <glyph glyph-name="g.ss02" horiz-adv-x="424" 
d="M455 436q-22 14 -105 14l-1 -1q34 -37 34 -93q0 -90 -56.5 -146t-143.5 -56q-26 0 -53 8q-42 -28 -42 -72q0 -23 21 -32.5t74 -9.5q100 0 144 -24t44 -71q0 -74 -61.5 -113.5t-175.5 -39.5q-80 0 -124.5 25t-44.5 75q0 44 29.5 81t82.5 61q-19 16 -19 44q0 52 48 87
q-58 35 -58 109q0 94 57 151t143 57q34 0 60 -12h68q58 0 88 5zM351 354q0 49 -30.5 78.5t-77.5 29.5q-69 0 -116 -48t-47 -130q0 -52 29 -77t79 -25q71 0 117 46.5t46 125.5zM339 -56q0 74 -161 74q-49 0 -78 10q-102 -46 -102 -122q0 -78 144 -78q93 0 145 30.5t52 85.5z
" />
    <glyph glyph-name="gbreve.ss02" horiz-adv-x="424" 
d="M252 548q-108 0 -80 142h24q-9 -50 4 -83t57 -33q45 0 71.5 33t35.5 83h24q-28 -142 -136 -142zM455 436q-22 14 -105 14l-1 -1q34 -37 34 -93q0 -90 -56.5 -146t-143.5 -56q-26 0 -53 8q-42 -28 -42 -72q0 -23 21 -32.5t74 -9.5q100 0 144 -24t44 -71
q0 -74 -61.5 -113.5t-175.5 -39.5q-80 0 -124.5 25t-44.5 75q0 44 29.5 81t82.5 61q-19 16 -19 44q0 52 48 87q-58 35 -58 109q0 94 57 151t143 57q34 0 60 -12h68q58 0 88 5zM351 354q0 49 -30.5 78.5t-77.5 29.5q-69 0 -116 -48t-47 -130q0 -52 29 -77t79 -25
q71 0 117 46.5t46 125.5zM339 -56q0 74 -161 74q-49 0 -78 10q-102 -46 -102 -122q0 -78 144 -78q93 0 145 30.5t52 85.5z" />
    <glyph glyph-name="uni0123.ss02" horiz-adv-x="424" 
d="M248 540q-31 0 -31 34q0 36 29 74.5t66 51.5l5 -14q-50 -22 -66 -78q6 2 12 2q10 0 17.5 -7.5t7.5 -19.5q0 -18 -11.5 -30.5t-28.5 -12.5zM455 436q-22 14 -105 14l-1 -1q34 -37 34 -93q0 -90 -56.5 -146t-143.5 -56q-26 0 -53 8q-42 -28 -42 -72q0 -23 21 -32.5t74 -9.5
q100 0 144 -24t44 -71q0 -74 -61.5 -113.5t-175.5 -39.5q-80 0 -124.5 25t-44.5 75q0 44 29.5 81t82.5 61q-19 16 -19 44q0 52 48 87q-58 35 -58 109q0 94 57 151t143 57q34 0 60 -12h68q58 0 88 5zM351 354q0 49 -30.5 78.5t-77.5 29.5q-69 0 -116 -48t-47 -130
q0 -52 29 -77t79 -25q71 0 117 46.5t46 125.5zM339 -56q0 74 -161 74q-49 0 -78 10q-102 -46 -102 -122q0 -78 144 -78q93 0 145 30.5t52 85.5z" />
    <glyph glyph-name="gdotaccent.ss02" horiz-adv-x="424" 
d="M255 564q-26 0 -26 24q0 21 11 33.5t29 12.5q26 0 26 -24q0 -20 -11 -33t-29 -13zM455 436q-22 14 -105 14l-1 -1q34 -37 34 -93q0 -90 -56.5 -146t-143.5 -56q-26 0 -53 8q-42 -28 -42 -72q0 -23 21 -32.5t74 -9.5q100 0 144 -24t44 -71q0 -74 -61.5 -113.5
t-175.5 -39.5q-80 0 -124.5 25t-44.5 75q0 44 29.5 81t82.5 61q-19 16 -19 44q0 52 48 87q-58 35 -58 109q0 94 57 151t143 57q34 0 60 -12h68q58 0 88 5zM351 354q0 49 -30.5 78.5t-77.5 29.5q-69 0 -116 -48t-47 -130q0 -52 29 -77t79 -25q71 0 117 46.5t46 125.5z
M339 -56q0 74 -161 74q-49 0 -78 10q-102 -46 -102 -122q0 -78 144 -78q93 0 145 30.5t52 85.5z" />
    <glyph glyph-name="y.ss03" horiz-adv-x="487" 
d="M137 -200q-34 0 -61 5.5t-51 16t-27 11.5l20 46q36 -52 129 -52q72 0 124.5 40.5t68.5 125.5l18 94q-34 -44 -86 -71.5t-103 -27.5q-141 0 -104 190l39 200q15 75 6 100h43l-58 -300q-16 -80 3 -121t79 -41q100 0 188 109l49 253q15 74 9 100h40l-94 -485
q-37 -191 -232 -193z" />
    <glyph glyph-name="yacute.ss03" horiz-adv-x="487" 
d="M277 552l-9 16q94 64 162 154l22 -23q-69 -86 -175 -147zM137 -200q-34 0 -61 5.5t-51 16t-27 11.5l20 46q36 -52 129 -52q72 0 124.5 40.5t68.5 125.5l18 94q-34 -44 -86 -71.5t-103 -27.5q-141 0 -104 190l39 200q15 75 6 100h43l-58 -300q-16 -80 3 -121t79 -41
q100 0 188 109l49 253q15 74 9 100h40l-94 -485q-37 -191 -232 -193z" />
    <glyph glyph-name="ycircumflex.ss03" horiz-adv-x="487" 
d="M180 552l-10 16q83 65 146 146h28q36 -88 90 -146l-16 -16q-54 51 -89 130h-4q-60 -72 -145 -130zM137 -200q-34 0 -61 5.5t-51 16t-27 11.5l20 46q36 -52 129 -52q72 0 124.5 40.5t68.5 125.5l18 94q-34 -44 -86 -71.5t-103 -27.5q-141 0 -104 190l39 200q15 75 6 100
h43l-58 -300q-16 -80 3 -121t79 -41q100 0 188 109l49 253q15 74 9 100h40l-94 -485q-37 -191 -232 -193z" />
    <glyph glyph-name="ydieresis.ss03" horiz-adv-x="487" 
d="M248 580q-11 0 -18.5 7.5t-7.5 18.5q0 15 12 26.5t27 11.5q11 0 18.5 -7.5t7.5 -18.5q0 -14 -11.5 -26t-27.5 -12zM364 580q-11 0 -18.5 7.5t-7.5 18.5q0 15 12 26.5t27 11.5q11 0 18.5 -7.5t7.5 -18.5q0 -14 -11.5 -26t-27.5 -12zM137 -200q-34 0 -61 5.5t-51 16
t-27 11.5l20 46q36 -52 129 -52q72 0 124.5 40.5t68.5 125.5l18 94q-34 -44 -86 -71.5t-103 -27.5q-141 0 -104 190l39 200q15 75 6 100h43l-58 -300q-16 -80 3 -121t79 -41q100 0 188 109l49 253q15 74 9 100h40l-94 -485q-37 -191 -232 -193z" />
    <glyph glyph-name="ygrave.ss03" horiz-adv-x="487" 
d="M321 552q-84 62 -118 147l28 21q36 -96 103 -154zM137 -200q-34 0 -61 5.5t-51 16t-27 11.5l20 46q36 -52 129 -52q72 0 124.5 40.5t68.5 125.5l18 94q-34 -44 -86 -71.5t-103 -27.5q-141 0 -104 190l39 200q15 75 6 100h43l-58 -300q-16 -80 3 -121t79 -41
q100 0 188 109l49 253q15 74 9 100h40l-94 -485q-37 -191 -232 -193z" />
    <glyph glyph-name="a.superior" horiz-adv-x="341" 
d="M186 431q-45 0 -72 32.5t-27 95.5q0 106 58 179t144 73q36 0 77 -18l7 12h26l-55 -268q-15 -75 -3 -97h-35q-4 28 4 61h-3q-25 -32 -57.5 -51t-63.5 -19zM190 459q30 0 68.5 29.5t60.5 70.5l41 203q-33 19 -75 19q-70 0 -118 -64.5t-48 -156.5q0 -49 19 -75t52 -26z" />
    <glyph glyph-name="b.superior" horiz-adv-x="377" 
d="M203 431q-45 0 -87 23l-8 -14h-18l88 430q17 81 8 104h44l-50 -238q24 33 58 54t67 21q45 0 72 -33t27 -96q0 -105 -58 -178t-143 -73zM206 460q70 0 118 65t48 158q0 48 -19 74t-52 26t-73.5 -33.5t-60.5 -78.5l-39 -188q31 -23 78 -23z" />
    <glyph glyph-name="c.superior" horiz-adv-x="318" 
d="M206 430q-51 0 -84.5 33t-33.5 99q0 105 52.5 176t133.5 71q52 0 103 -35l-22 -33q-28 40 -85 40q-65 0 -107.5 -63.5t-42.5 -151.5q0 -54 25.5 -81t66.5 -27q32 0 64 16t49 38l10 -38q-62 -44 -129 -44z" />
    <glyph glyph-name="d.superior" horiz-adv-x="378" 
d="M186 431q-45 0 -72 32.5t-27 95.5q0 105 58 178t144 73q36 0 77 -16l14 74q15 79 7 106h43l-86 -443q-14 -74 -3 -91h-37q0 34 6 61h-3q-24 -31 -56.5 -50.5t-64.5 -19.5zM190 459q31 0 69.5 30t59.5 72l40 201q-30 19 -74 19q-70 0 -118 -65t-48 -157q0 -48 19 -74
t52 -26z" />
    <glyph glyph-name="e.superior" horiz-adv-x="352" 
d="M210 430q-56 0 -89 33t-33 101q0 107 56 176t134 69q47 0 77.5 -27.5t30.5 -67.5q0 -52 -37.5 -76t-116.5 -24h-109q-14 -78 11.5 -117t79.5 -39q33 0 69.5 13t53.5 33l8 -38q-19 -13 -58.5 -24.5t-76.5 -11.5zM128 641h106q61 0 91 16t30 54q0 31 -22 50.5t-59 19.5
q-44 0 -88 -38t-58 -102z" />
    <glyph glyph-name="f.superior" horiz-adv-x="197" 
d="M95 450l65 332h-55l6 28h54l11 55q26 129 122 129q33 0 65 -17l-14 -34q-17 24 -55 24q-70 0 -88 -102l-10 -55h86l-6 -28h-86l-48 -243q-13 -73 -3 -89h-44z" />
    <glyph glyph-name="g.superior" horiz-adv-x="338" 
d="M173 287q-61 0 -118 38l24 38q24 -48 94 -48q51 0 78.5 29.5t45.5 99.5l15 60h-2q-56 -73 -124 -73q-45 0 -72 32.5t-27 95.5q0 105 58 178t143 73q44 0 84 -20l8 15h25l-78 -360q-18 -81 -51.5 -119.5t-102.5 -38.5zM189 459q33 0 72.5 32t60.5 76l42 192q-32 22 -79 22
q-70 0 -118 -64.5t-48 -157.5q0 -48 19 -74t51 -26z" />
    <glyph glyph-name="h.superior" horiz-adv-x="369" 
d="M94 450l85 428q15 76 7 106h42l-44 -228h1q21 24 57.5 44t73.5 20q46 0 70 -32t13 -92l-31 -158q-13 -71 -3 -88h-45l49 244q11 52 -7 75.5t-54 23.5q-34 0 -70.5 -24t-61.5 -57l-34 -174q-13 -73 -3 -88h-45z" />
    <glyph glyph-name="i.superior" horiz-adv-x="161" 
d="M188 887q-24 0 -21 28q5 30 31 30q23 0 20 -28q-3 -30 -30 -30zM88 445l52 254q14 71 5 106h47l-56 -272q-14 -67 -1 -88h-47z" />
    <glyph glyph-name="j.superior" horiz-adv-x="161" 
d="M178 888q-24 0 -20 30q3 28 30 28q24 0 20 -29q-3 -29 -30 -29zM-2 294q-26 0 -50 11l16 38q10 -22 38 -22q30 0 45.5 22.5t25.5 73.5l56 288q13 67 4 101h46l-76 -389q-14 -69 -38.5 -96t-66.5 -27z" />
    <glyph glyph-name="k.superior" horiz-adv-x="324" 
d="M96 446l85 428q15 75 5 106h47l-49 -245q20 35 53.5 58t72.5 23q38 0 63.5 -23t25.5 -59q0 -53 -41.5 -86.5t-99.5 -42.5l42 -76q36 -67 61 -83h-50l-87 164v16q62 6 102.5 32.5t40.5 71.5q0 27 -17.5 43t-44.5 16q-36 0 -73.5 -34t-61.5 -89l-26 -131q-13 -71 -1 -89
h-47z" />
    <glyph glyph-name="l.superior" horiz-adv-x="160" 
d="M95 443l85 427q14 76 5 107h47l-89 -444q-13 -70 0 -90h-48z" />
    <glyph glyph-name="m.superior" horiz-adv-x="566" 
d="M88 440l51 254q14 78 6 106h40l-10 -58h3q60 69 124 69q34 0 57.5 -19.5t26.5 -55.5q64 75 132 75q46 0 70 -32.5t11 -93.5l-33 -156q-16 -70 -3 -89h-43l49 243q11 54 -7.5 77t-51.5 23q-60 0 -124 -79l-36 -175q-14 -73 -3 -89h-44l50 243q11 54 -7 77t-51 23
q-32 0 -65 -23.5t-60 -58.5l-35 -173q-14 -72 -3 -88h-44z" />
    <glyph glyph-name="n.superior" horiz-adv-x="369" 
d="M88 440l50 252q16 76 7 108h39l-8 -53h3q23 26 59.5 45.5t72.5 19.5q44 0 70 -31.5t13 -92.5l-33 -158q-16 -71 -2 -90h-45l50 245q11 54 -8 76.5t-53 22.5t-70 -23.5t-63 -56.5l-35 -174q-15 -73 -3 -90h-44z" />
    <glyph glyph-name="o.superior" horiz-adv-x="371" 
d="M222 430q-60 0 -95.5 37.5t-35.5 106.5q0 105 50.5 170t137.5 65q60 0 95 -37.5t35 -106.5q0 -105 -50 -170t-137 -65zM225 458q69 0 110.5 57.5t41.5 149.5q0 55 -27 85.5t-74 30.5q-70 0 -111.5 -58t-41.5 -150q0 -54 26.5 -84.5t75.5 -30.5z" />
    <glyph glyph-name="p.superior" horiz-adv-x="377" 
d="M65 290l81 404q15 73 5 106h45l-14 -68l1 -1q24 35 59 57.5t69 22.5q45 0 72 -33t27 -96q0 -105 -58 -178t-144 -73q-39 0 -81 20l-15 -73q-15 -65 -1 -88h-46zM212 460q70 0 118 65t48 158q0 48 -19 74t-52 26t-74.5 -33.5t-61.5 -77.5l-38 -189q34 -23 79 -23z" />
    <glyph glyph-name="q.superior" horiz-adv-x="378" 
d="M270 290l44 220h-1q-24 -35 -58.5 -57t-68.5 -22q-45 0 -72 32.5t-27 95.5q0 105 58 178t144 73q40 0 80 -18l4 13h30l-85 -424q-13 -71 -1 -91h-47zM190 459q33 0 74.5 34t61.5 80l37 187q-31 21 -78 21q-70 0 -118 -65t-48 -157q0 -48 19 -74t52 -26z" />
    <glyph glyph-name="r.superior" horiz-adv-x="233" 
d="M90 440l50 252q15 81 5 108h44l-11 -68h1q20 33 51 55.5t58 22.5q22 0 42 -12l-16 -32q-11 16 -31 16q-25 0 -57.5 -29.5t-58.5 -82.5l-27 -133q-16 -77 1 -97h-51z" />
    <glyph glyph-name="s.superior" horiz-adv-x="289" 
d="M179 431q-53 0 -124 37l26 39q9 -20 37.5 -34.5t64.5 -14.5q43 0 73 23t30 59q0 52 -70 74l-16 5q-81 25 -81 90q0 43 35 72t87 29q57 0 105 -34l-22 -35q-8 18 -32 30t-55 12q-36 0 -62.5 -20.5t-26.5 -49.5q0 -45 63 -67l17 -6q42 -15 64.5 -37.5t22.5 -59.5
q0 -48 -38.5 -80t-97.5 -32z" />
    <glyph glyph-name="t.superior" horiz-adv-x="222" 
d="M176 431q-41 0 -57.5 27.5t-6.5 78.5l49 236h-57l6 27h57l14 63h28l-13 -63h108l-5 -27h-109l-49 -237q-17 -79 40 -79q18 0 37.5 8.5t25.5 19.5l13 -34q-47 -20 -81 -20z" />
    <glyph glyph-name="u.superior" horiz-adv-x="370" 
d="M187 430q-49 0 -69 36t-7 104l27 140q14 72 0 90h47l-44 -228q-22 -114 52 -114q32 0 71.5 27t71.5 68l30 157q13 73 2 90h46l-52 -267q-14 -71 -4 -93h-40l10 66h-2q-66 -76 -139 -76z" />
    <glyph glyph-name="v.superior" horiz-adv-x="315" 
d="M175 440l-47 280q-10 62 -28 80h43l41 -244q12 -71 13 -87h3q22 44 81 146.5t67 117.5q26 50 18 67h45q-13 -33 -95 -176.5t-100 -183.5h-41z" />
    <glyph glyph-name="w.superior" horiz-adv-x="471" 
d="M149 440l-26 281q-7 62 -19 79h42l21 -242q6 -66 5 -89h6q13 34 36 83t50 104.5t31 64.5q28 60 25 79h48l17 -242q3 -70 3 -89h6q14 36 55 117t67 140t20 74h38q-9 -32 -78 -172.5t-85 -187.5h-46l-19 265q-1 11 -1.5 26t-1 24t-1.5 14h-1q-6 -20 -24 -60
q-14 -30 -44 -92.5t-49.5 -104.5t-29.5 -72h-45z" />
    <glyph glyph-name="x.superior" horiz-adv-x="290" 
d="M293 500q23 -48 36 -60h-40l-64 136l-15 34q-9 -13 -24 -31l-73 -87q-32 -37 -31 -52h-44l162 191l-52 109q-22 47 -35 60h39l55 -120q1 -4 4.5 -10.5t10.5 -25.5l26 32l60 72q31 38 31 52h43l-148 -177z" />
    <glyph glyph-name="y.superior" horiz-adv-x="308" 
d="M47 290q-17 0 -39 5l15 39q10 -16 31 -16q59 0 113 96l10 18l-49 287q-12 64 -28 81h42l37 -212q13 -74 18 -119h3q18 37 63 121l76 141q17 32 22.5 46.5t-0.5 22.5h45l-214 -397q-61 -113 -145 -113z" />
    <glyph glyph-name="z.superior" horiz-adv-x="284" 
d="M371 800l-4 -25l-277 -308h143q70 0 90 14l-8 -41h-268l4 25l275 307h-120q-63 0 -81 -13l7 41h239z" />
    <glyph glyph-name="L_A" horiz-adv-x="709" 
d="M627 -5q-38 5 -168 5h-439q20 24 35 100l90 460q8 46 9 62t-6 38h63q-12 -15 -18.5 -34t-15.5 -66l-104 -532h391q87 0 120.5 2.5t51.5 12.5zM207 150q26 30 64 96l149 258q77 132 75 156h61q-11 -25 15 -156l50 -258q14 -72 26 -96h-58q10 29 -1 90l-14 76h-232l-42 -76
q-37 -66 -37 -90h-56zM359 344h211l-29 155q-18 100 -19 133h-3q-17 -39 -71 -133z" />
    <glyph glyph-name="L_E" horiz-adv-x="639" 
d="M558 143q-20 7 -113 7h-208q19 22 35 104l59 302q15 79 5 104h216q76 0 98 7l-10 -50q-16 15 -93 15h-169l-39 -201h105q99 0 120 12l-10 -52q-16 12 -116 12h-105l-43 -225h160q92 0 118 15zM557 -5q-38 5 -168 5h-369q20 24 35 100l90 460q8 46 9 62t-6 38h63
q-12 -15 -18.5 -34t-15.5 -66l-104 -532h321q87 0 120.5 2.5t51.5 12.5z" />
    <glyph glyph-name="L_I" horiz-adv-x="439" 
d="M357 -5q-38 5 -168 5h-169q20 24 35 100l90 460q8 46 9 62t-6 38h63q-12 -15 -18.5 -34t-15.5 -66l-104 -532h121q87 0 120.5 3t51.5 12zM264 150q19 25 35 104l59 302q15 79 5 104h62q-20 -27 -35 -104l-59 -302q-15 -79 -5 -104h-62z" />
    <glyph glyph-name="L_L" horiz-adv-x="639" 
d="M557 -5q-38 5 -168 5h-369q20 24 35 100l90 460q8 46 9 62t-6 38h63q-12 -15 -18.5 -34t-15.5 -66l-104 -532h321q87 0 120.5 2.5t51.5 12.5zM558 142q-27 8 -119 8h-202q19 22 35 104l59 302q15 79 5 104h62q-20 -25 -35 -104l-73 -378h155q97 0 123 15z" />
    <glyph glyph-name="L_O" horiz-adv-x="709" 
d="M434 141q-77 0 -121 47t-44 135q0 144 77.5 243t189.5 99q77 0 121.5 -46t44.5 -134q0 -144 -78 -244t-190 -100zM627 -5q-38 5 -168 5h-439q20 24 35 100l90 460q8 46 9 62t-6 38h63q-12 -15 -18.5 -34t-15.5 -66l-104 -532h391q87 0 120.5 2.5t51.5 12.5zM440 171
q97 0 162.5 90t65.5 221q0 75 -36 114t-102 39q-97 0 -162 -89.5t-65 -220.5q0 -75 36 -114.5t101 -39.5z" />
    <glyph glyph-name="L_U" horiz-adv-x="671" 
d="M589 -5q-38 5 -168 5h-401q20 24 35 100l90 460q8 46 9 62t-6 38h63q-12 -15 -18.5 -34t-15.5 -66l-104 -532h353q87 0 120.5 2.5t51.5 12.5zM422 146q-169 0 -129 204l39 200q10 53 11 74.5t-5 35.5h62q-20 -26 -36 -110l-38 -194q-19 -99 8.5 -139.5t93.5 -40.5
t110.5 40.5t63.5 139.5l38 194q17 84 6 110h60q-20 -26 -36 -110l-39 -200q-40 -204 -209 -204z" />
    <glyph glyph-name="R_A" horiz-adv-x="1010" 
d="M21 0q19 24 34 100l91 464q14 77 3 100h178q93 0 147 -29t54 -105q0 -95 -54.5 -160.5t-148.5 -81.5q25 -72 47 -117.5t51 -78.5t65.5 -46.5t87.5 -13.5h296q45 0 65 12l-9 -44h-356q-48 0 -84 10t-63 29t-50.5 56t-42.5 78.5t-45 110.5h-164l-36 -184q-15 -75 -4 -100
h-62zM507 150q26 30 64 96l149 258q68 120 73 141q3 9 2 15h61q-11 -23 15 -156l50 -258q14 -72 26 -96h-58q10 29 -1 90l-14 76h-232l-42 -76q-37 -66 -37 -90h-56zM129 312h128q111 0 174 56.5t63 154.5q0 64 -47 88.5t-137 24.5h-118zM659 344h211l-29 155
q-18 100 -19 133h-3q-17 -39 -71 -133z" />
    <glyph glyph-name="R_E" horiz-adv-x="971" 
d="M885 143q-20 7 -113 7h-208q19 25 35 104l59 302q15 79 5 104h216q76 0 98 7l-10 -50q-16 15 -93 15h-169l-39 -201h105q99 0 120 12l-10 -52q-16 12 -116 12h-105l-43 -225h160q93 0 118 15zM21 0q19 24 34 100l91 464q14 77 3 100h178q93 0 147 -29t54 -105
q0 -95 -54.5 -160.5t-148.5 -81.5q25 -72 47 -117.5t51 -78.5t65.5 -46.5t87.5 -13.5h257q45 0 65 12l-9 -44h-317q-48 0 -84 10t-63 29t-50.5 56t-42.5 78.5t-45 110.5h-164l-36 -184q-15 -75 -4 -100h-62zM129 312h128q111 0 174 56.5t63 154.5q0 64 -47 88.5t-137 24.5
h-118z" />
    <glyph glyph-name="R_I" horiz-adv-x="730" 
d="M21 0q19 24 34 100l91 464q14 77 3 100h178q93 0 147 -29t54 -105q0 -95 -54.5 -160.5t-148.5 -81.5q54 -132 81 -173q53 -79 144 -83h11h31q45 0 65 12l-9 -44h-94q-102 0 -159 70q-36 45 -93 179q-3 6 -7 17q-5 12 -8 18h-164l-36 -184q-15 -75 -4 -100h-62zM564 150
q19 25 35 104l59 302q15 79 5 104h62q-20 -27 -35 -104l-59 -302q-16 -78 -5 -104h-62zM129 312h128q111 0 174 56.5t63 154.5q0 64 -47 88.5t-137 24.5h-118z" />
    <glyph glyph-name="R_O" horiz-adv-x="1031" 
d="M753 142q-78 0 -122 47.5t-44 134.5q0 144 77.5 243t189.5 99q77 0 121.5 -46t44.5 -134q0 -145 -77.5 -244.5t-189.5 -99.5zM21 0q19 24 34 100l91 464q14 77 3 100h178q93 0 147 -29t54 -105q0 -95 -54.5 -160.5t-148.5 -81.5q25 -72 47 -117.5t51 -78.5t65.5 -46.5
t87.5 -13.5h301q45 0 65 12l-9 -44h-361q-48 0 -84 10t-63 29t-50.5 56t-42.5 78.5t-45 110.5h-164l-36 -184q-15 -75 -4 -100h-62zM129 312h128q111 0 174 56.5t63 154.5q0 64 -47 88.5t-137 24.5h-118zM758 172q97 0 162.5 90t65.5 221q0 75 -36 114t-101 39
q-97 0 -162.5 -89t-65.5 -221q0 -75 36 -114.5t101 -39.5z" />
    <glyph glyph-name="R_R" horiz-adv-x="976" 
d="M21 0q19 24 34 100l91 464q14 77 3 100h178q93 0 147 -29t54 -105q0 -95 -54.5 -160.5t-148.5 -81.5q25 -72 47 -117.5t51 -78.5t65.5 -46.5t87.5 -13.5h267q45 0 65 12l-9 -44h-327q-48 0 -84 10t-63 29t-50.5 56t-42.5 78.5t-45 110.5h-164l-36 -184q-15 -75 -4 -100
h-62zM559 150q19 25 35 104l59 302q15 79 5 104h150q76 0 116.5 -23t40.5 -80q0 -81 -44.5 -130.5t-121.5 -58.5l50 -116q34 -80 54 -102h-58q2 23 -25 85l-57 130h-115l-22 -111q-16 -77 -5 -104h-62zM129 312h128q111 0 174 56.5t63 154.5q0 64 -47 88.5t-137 24.5h-118z
M653 392h103q176 0 176 159q0 47 -32.5 64.5t-96.5 17.5h-103z" />
    <glyph glyph-name="R_U" horiz-adv-x="991" 
d="M21 0q19 24 34 100l91 464q14 77 3 100h178q93 0 147 -29t54 -105q0 -95 -54.5 -160.5t-148.5 -81.5q25 -72 47 -117.5t51 -78.5t65.5 -46.5t87.5 -13.5h277q45 0 65 12l-9 -44h-337q-48 0 -84 10t-63 29t-50.5 56t-42.5 78.5t-45 110.5h-164l-36 -184q-15 -75 -4 -100
h-62zM739 146q-169 0 -129 204l39 200q10 53 11 74.5t-5 35.5h62q-20 -26 -36 -110l-38 -194q-19 -99 8.5 -139.5t93.5 -40.5t110.5 40.5t63.5 139.5l38 194q16 85 6 110h60q-20 -25 -36 -110l-39 -200q-40 -204 -209 -204zM129 312h128q111 0 174 56.5t63 154.5
q0 64 -47 88.5t-137 24.5h-118z" />
    <glyph glyph-name="c_t" horiz-adv-x="793" 
d="M203 -12q-162 0 -162 160q0 151 73 246.5t187 95.5q18 0 36 -3q-24 27 -24 67q0 88 76 148t188 60q87 0 132.5 -36t45.5 -92q0 -51 -34.5 -94t-88.5 -62h139l-6 -32q-23 9 -130 9l-64 -329q-11 -55 1 -82.5t60 -27.5q37 0 69 26l1 -46q-14 -1 -41 -4.5t-35 -3.5
q-62 0 -80 35.5t-5 102.5l64 329h-71l4 23q88 7 140.5 48.5t52.5 104.5q0 48 -41 79t-118 31q-98 0 -165.5 -52t-67.5 -127q0 -54 47 -90q10 -4 25.5 -12.5t21.5 -11.5l-29 -43q-30 57 -109 57q-96 0 -159 -87t-63 -222q0 -137 136 -137q93 0 146 57l11 -43q-3 -1 -29.5 -11
t-42 -15t-42 -10.5t-49.5 -5.5z" />
    <glyph glyph-name="f_b" horiz-adv-x="785" 
d="M581 490q79 0 120.5 -43t41.5 -126q0 -144 -73.5 -238.5t-185.5 -94.5q-96 0 -143 70h-2l-11 -58h-43q17 22 32 100l102 522q9 42 11 64q-33 20 -95 20q-67 0 -102 -32t-49 -102l-18 -94h114l-7 -33q-18 5 -113 5l-68 -350q-14 -74 -9 -100h-50q14 23 29 100l68 350h-66
l6 28h66l18 94q16 81 58.5 121.5t128.5 40.5q56 0 103 -15h34q-15 -25 -29 -97l-40 -205q76 73 172 73zM489 16q93 0 157 85.5t64 209.5q0 71 -34 111t-100 40q-96 0 -175 -86l-53 -274q46 -86 141 -86z" />
    <glyph glyph-name="f_f_b" horiz-adv-x="984" 
d="M780 490q79 0 120.5 -43t41.5 -126q0 -144 -73.5 -238.5t-185.5 -94.5q-96 0 -143 70h-2l-11 -58h-43q17 22 32 100l102 522q9 42 11 64q-33 20 -95 20q-67 0 -102 -32t-49 -102l-18 -94h114l-7 -33q-18 5 -113 5l-68 -350q-14 -74 -9 -100h-50q14 23 29 100l68 350h-169
l-68 -350q-14 -74 -9 -100h-50q14 23 29 100l68 350h-66l6 28h66l18 94q32 162 157 162q28 0 74 -11l-18 -39q-21 22 -62 22q-95 0 -121 -134l-18 -94h169l18 94q16 81 58.5 121.5t128.5 40.5q56 0 103 -15h34q-15 -25 -29 -97l-40 -205q76 73 172 73zM688 16q93 0 157 85.5
t64 209.5q0 71 -34 111t-100 40q-96 0 -175 -86l-53 -274q46 -86 141 -86z" />
    <glyph glyph-name="f_f_h" horiz-adv-x="962" 
d="M788 490q145 0 108 -190l-39 -200q-15 -75 -6 -100h-56q11 15 16.5 31.5t15.5 68.5l39 200q17 85 -4 124t-80 39q-92 0 -186 -101l-51 -262q-15 -76 -6 -100h-56q17 25 32 100l102 522q10 53 10 64q-32 20 -94 20q-67 0 -102 -32t-49 -102l-18 -94h114l-7 -33
q-18 5 -113 5l-68 -350q-14 -74 -9 -100h-50q14 23 29 100l68 350h-168l-68 -350q-14 -74 -9 -100h-50q14 23 29 100l68 350h-66l6 28h66l18 94q32 162 157 162q28 0 74 -11l-18 -39q-21 22 -62 22q-95 0 -121 -134l-18 -94h168l18 94q16 81 58.5 121.5t128.5 40.5
q56 0 103 -15h34q-15 -25 -29 -97l-37 -188l-2.5 -12.5l-2.5 -12.5t-2 -9h2q88 90 183 90z" />
    <glyph glyph-name="f_f_j" horiz-adv-x="642" 
d="M532 706q-67 0 -102 -32t-49 -102l-18 -94h255q-9 -14 -14 -31t-15 -69l-83 -426q-17 -87 -48.5 -119.5t-82.5 -32.5q-12 0 -34.5 4t-28.5 4l19 44q13 -24 50 -24q38 0 60 29t35 95l82 426q11 58 11 72h-212l-68 -350q-14 -74 -9 -100h-50q14 23 29 100l68 350h-167
l-68 -350q-14 -74 -9 -100h-50q14 23 29 100l68 350h-66l6 28h66l18 94q32 162 157 162q28 0 74 -11l-18 -39q-21 22 -62 22q-95 0 -121 -134l-18 -94h167l18 94q16 81 58.5 121.5t128.5 40.5q78 0 118 -18l-21 -43q-33 33 -103 33z" />
    <glyph glyph-name="f_f_k" horiz-adv-x="914" 
d="M714 290l85 -194q28 -66 54 -96h-62q3 29 -21 84l-78 182l-140 -134l-6 -32q-9 -51 -10.5 -66.5t3.5 -33.5h-56q17 25 32 100l102 522q9 46 10 65q-35 19 -94 19q-67 0 -102 -32t-49 -102l-18 -94h114l-7 -33q-18 5 -113 5l-68 -350q-14 -74 -9 -100h-50q14 23 29 100
l68 350h-168l-68 -350q-14 -74 -9 -100h-50q14 23 29 100l68 350h-66l6 28h66l18 94q32 162 157 162q28 0 74 -11l-18 -39q-21 22 -62 22q-95 0 -121 -134l-18 -94h168l18 94q16 81 58.5 121.5t128.5 40.5q56 0 103 -15h34q-15 -22 -29 -97l-81 -418q0 -3 -0.5 -4.5l-1 -3
t-1.5 -7t-3 -15.5h2l236 234q46 46 56 70h64q-36 -21 -102 -87z" />
    <glyph glyph-name="f_f_t" horiz-adv-x="724" 
d="M549 450l-68 -328q-22 -108 53 -108q25 0 52.5 12t34.5 27l16 -36q-52 -29 -105 -29t-72.5 36t-6.5 100l68 326h-163l-68 -350q-14 -74 -9 -100h-50q14 23 29 100l68 350h-168l-68 -350q-14 -74 -9 -100h-50q14 23 29 100l68 350h-66l6 28h66l18 94q32 162 157 162
q28 0 74 -11l-18 -39q-21 22 -62 22q-95 0 -121 -134l-18 -94h168l18 94q32 162 157 162q28 0 74 -11l-18 -39q-21 22 -62 22q-95 0 -121 -134l-18 -94h163l18 85h27l-17 -85h147l-6 -26h-103v-2h-44z" />
    <glyph glyph-name="f_f_y" horiz-adv-x="823" 
d="M805 478h49l-283 -529q-80 -149 -190 -149q-27 0 -47 8l19 43q11 -23 39 -23q82 0 156 134l14 25l-64 380q-11 62 -20 83h-120l-68 -350q-14 -74 -9 -100h-50q14 23 29 100l68 350h-168l-68 -350q-14 -74 -9 -100h-50q14 23 29 100l68 350h-66l6 28h66l18 94
q32 162 157 162q28 0 74 -11l-18 -39q-21 22 -62 22q-95 0 -121 -134l-18 -94h168l18 94q32 162 157 162q28 0 74 -11l-18 -39q-21 22 -62 22q-95 0 -121 -134l-18 -94h178l-6 -28h-25l45 -256q17 -100 25 -166h4q29 60 88 169l103 191q23 42 30 60.5t-1 29.5z" />
    <glyph glyph-name="f_h" horiz-adv-x="764" 
d="M590 490q145 0 108 -190l-39 -200q-15 -75 -6 -100h-56q11 15 16.5 31.5t15.5 68.5l39 200q17 85 -4 124t-80 39q-92 0 -186 -101l-51 -262q-15 -76 -6 -100h-56q17 25 32 100l102 522q10 53 10 64q-32 20 -94 20q-67 0 -102 -32t-49 -102l-18 -94h114l-7 -33
q-18 5 -113 5l-68 -350q-14 -74 -9 -100h-50q14 23 29 100l68 350h-66l6 28h66l18 94q16 81 58.5 121.5t128.5 40.5q56 0 103 -15h34q-15 -25 -29 -97l-37 -188l-2.5 -12.5l-2.5 -12.5t-2 -9h2q88 90 183 90z" />
    <glyph glyph-name="f_j" horiz-adv-x="445" 
d="M335 706q-67 0 -102 -32t-49 -102l-18 -94h255q-9 -14 -14 -31t-15 -69l-83 -426q-17 -87 -48.5 -119.5t-82.5 -32.5q-12 0 -34.5 4t-28.5 4l19 44q13 -24 50 -24q38 0 60 29t35 95l82 426q11 58 11 72h-212l-68 -350q-14 -74 -9 -100h-50q14 23 29 100l68 350h-66l6 28
h66l18 94q16 81 58.5 121.5t128.5 40.5q77 0 118 -18l-21 -43q-33 33 -103 33z" />
    <glyph glyph-name="f_k" horiz-adv-x="716" 
d="M516 290l85 -194q28 -66 54 -96h-62q3 29 -21 84l-78 182l-140 -134l-6 -32q-9 -51 -10.5 -66.5t3.5 -33.5h-56q17 25 32 100l102 522q9 46 10 65q-35 19 -94 19q-67 0 -102 -32t-49 -102l-18 -94h114l-7 -33q-18 5 -113 5l-68 -350q-14 -74 -9 -100h-50q14 23 29 100
l68 350h-66l6 28h66l18 94q16 81 58.5 121.5t128.5 40.5q56 0 103 -15h34q-15 -22 -29 -97l-81 -418q0 -3 -0.5 -4.5l-1 -3t-1.5 -7t-3 -15.5h2l236 234q46 46 56 70h64q-36 -21 -102 -87z" />
    <glyph glyph-name="f_t" horiz-adv-x="526" 
d="M351 450l-68 -328q-22 -108 53 -108q25 0 52.5 12t34.5 27l16 -36q-52 -29 -105 -29t-72.5 36t-6.5 100l68 326h-163l-68 -350q-14 -74 -9 -100h-50q14 23 29 100l68 350h-66l6 28h66l18 94q32 162 157 162q28 0 74 -11l-18 -39q-21 22 -62 22q-95 0 -121 -134l-18 -94
h163l18 85h27l-17 -85h147l-6 -26h-103v-2h-44z" />
    <glyph glyph-name="f_y" horiz-adv-x="625" 
d="M607 478h49l-283 -529q-80 -149 -190 -149q-27 0 -47 8l19 43q11 -23 39 -23q82 0 156 134l14 25l-64 380q-11 62 -20 83h-120l-68 -350q-14 -74 -9 -100h-50q14 23 29 100l68 350h-66l6 28h66l18 94q32 162 157 162q28 0 74 -11l-18 -39q-21 22 -62 22q-95 0 -121 -134
l-18 -94h178l-6 -28h-25l45 -256q17 -100 25 -166h4q29 60 88 169l103 191q23 42 30 60.5t-1 29.5z" />
    <glyph glyph-name="s_p" horiz-adv-x="949" 
d="M410 -200q18 25 32 100l95 486q15 76 6 100q66 15 104 54t38 91q0 48 -41 79t-117 31q-99 0 -166.5 -52t-67.5 -127q0 -49 39 -84q13 -4 33.5 -11.5t26.5 -9.5l-28 -51q-23 56 -110 56q-59 0 -97.5 -31t-38.5 -79q0 -57 91 -86l19 -6q118 -37 118 -114q0 -69 -53 -113.5
t-136 -44.5q-40 0 -98 19.5t-63 20.5l31 55q10 -30 48 -48.5t88 -18.5q66 0 108 34t42 88q0 58 -99 92l-20 7q-50 17 -78.5 42.5t-28.5 66.5q0 62 49.5 103t123.5 41q12 0 30 -2q-23 27 -23 67q0 87 76 147t188 60q87 0 132.5 -36t45.5 -92q0 -51 -34.5 -94t-91.5 -62
l-13 -61h3q75 73 172 73q79 0 120.5 -43.5t41.5 -125.5q0 -144 -74 -238.5t-186 -94.5q-95 0 -144 72l-32 -160q-16 -77 -7 -100h-54zM653 16q92 0 156.5 85.5t64.5 209.5q0 71 -34.5 111t-100.5 40q-95 0 -174 -86l-54 -274q46 -86 142 -86z" />
    <glyph glyph-name="s_t" horiz-adv-x="747" 
d="M157 -12q-40 0 -98 19.5t-63 20.5l31 55q10 -30 48 -48.5t88 -18.5q66 0 108 34t42 88q0 58 -99 92l-20 7q-50 17 -78.5 42.5t-28.5 66.5q0 62 49.5 103t123.5 41q12 0 30 -2q-23 27 -23 67q0 87 76 147t188 60q87 0 132.5 -36t45.5 -92q0 -51 -34.5 -94t-88.5 -62h139
l-6 -32q-23 9 -130 9l-64 -329q-11 -55 1 -82.5t60 -27.5q37 0 69 26l1 -46q-14 -1 -41 -4.5t-35 -3.5q-62 0 -80 35.5t-5 102.5l64 329h-71l4 23q88 7 140.5 48.5t52.5 104.5q0 48 -41 79t-117 31q-99 0 -166.5 -52t-67.5 -127q0 -49 39 -84q13 -4 33.5 -11.5t26.5 -9.5
l-28 -51q-23 56 -110 56q-59 0 -97.5 -31t-38.5 -79q0 -57 91 -86l19 -6q118 -37 118 -114q0 -69 -53 -113.5t-136 -44.5z" />
    <glyph glyph-name="a.sc" horiz-adv-x="464" 
d="M-32 0q31 40 63 96l153 264q75 128 72 150h61q-6 -20 -3.5 -43.5t18.5 -112.5l46 -258q14 -73 26 -96h-55q6 17 6 33.5t-7 56.5l-13 76h-232l-47 -84q-32 -57 -32 -82h-56zM120 194h211l-29 155q-18 96 -19 133h-3q-51 -99 -71 -133z" />
    <glyph glyph-name="aacute.sc" horiz-adv-x="464" 
d="M279 584l-9 16q94 64 162 154l22 -23q-69 -86 -175 -147zM-32 0q31 40 63 96l153 264q75 128 72 150h61q-6 -20 -3.5 -43.5t18.5 -112.5l46 -258q14 -73 26 -96h-55q6 17 6 33.5t-7 56.5l-13 76h-232l-47 -84q-32 -57 -32 -82h-56zM120 194h211l-29 155q-18 96 -19 133
h-3q-51 -99 -71 -133z" />
    <glyph glyph-name="abreve.sc" horiz-adv-x="464" 
d="M300 580q-108 0 -80 142h24q-9 -50 4 -83t57 -33q45 0 71.5 33t35.5 83h24q-28 -142 -136 -142zM-32 0q31 40 63 96l153 264q75 128 72 150h61q-6 -20 -3.5 -43.5t18.5 -112.5l46 -258q14 -73 26 -96h-55q6 17 6 33.5t-7 56.5l-13 76h-232l-47 -84q-32 -57 -32 -82h-56z
M120 194h211l-29 155q-18 96 -19 133h-3q-51 -99 -71 -133z" />
    <glyph glyph-name="acircumflex.sc" horiz-adv-x="464" 
d="M182 584l-10 16q83 65 146 146h28q36 -88 90 -146l-16 -16q-54 51 -89 130h-4q-60 -72 -145 -130zM-32 0q31 40 63 96l153 264q75 128 72 150h61q-6 -20 -3.5 -43.5t18.5 -112.5l46 -258q14 -73 26 -96h-55q6 17 6 33.5t-7 56.5l-13 76h-232l-47 -84q-32 -57 -32 -82h-56
zM120 194h211l-29 155q-18 96 -19 133h-3q-51 -99 -71 -133z" />
    <glyph glyph-name="adieresis.sc" horiz-adv-x="464" 
d="M250 612q-11 0 -18.5 7.5t-7.5 18.5q0 15 12 26.5t27 11.5q11 0 18.5 -7.5t7.5 -18.5q0 -14 -11.5 -26t-27.5 -12zM366 612q-11 0 -18.5 7.5t-7.5 18.5q0 15 12 26.5t27 11.5q11 0 18.5 -7.5t7.5 -18.5q0 -14 -11.5 -26t-27.5 -12zM-32 0q31 40 63 96l153 264
q75 128 72 150h61q-6 -20 -3.5 -43.5t18.5 -112.5l46 -258q14 -73 26 -96h-55q6 17 6 33.5t-7 56.5l-13 76h-232l-47 -84q-32 -57 -32 -82h-56zM120 194h211l-29 155q-18 96 -19 133h-3q-51 -99 -71 -133z" />
    <glyph glyph-name="agrave.sc" horiz-adv-x="464" 
d="M323 584q-84 62 -118 147l28 21q36 -96 103 -154zM-32 0q31 40 63 96l153 264q75 128 72 150h61q-6 -20 -3.5 -43.5t18.5 -112.5l46 -258q14 -73 26 -96h-55q6 17 6 33.5t-7 56.5l-13 76h-232l-47 -84q-32 -57 -32 -82h-56zM120 194h211l-29 155q-18 96 -19 133h-3
q-51 -99 -71 -133z" />
    <glyph glyph-name="amacron.sc" horiz-adv-x="464" 
d="M217 621l6 30h186l-6 -30h-186zM-32 0q31 40 63 96l153 264q75 128 72 150h61q-6 -20 -3.5 -43.5t18.5 -112.5l46 -258q14 -73 26 -96h-55q6 17 6 33.5t-7 56.5l-13 76h-232l-47 -84q-32 -57 -32 -82h-56zM120 194h211l-29 155q-18 96 -19 133h-3q-51 -99 -71 -133z" />
    <glyph glyph-name="aogonek.sc" horiz-adv-x="464" 
d="M332 -154q27 0 47 22l9 -28q-29 -18 -61 -18q-64 0 -64 50q0 36 31.5 71t75.5 57h-21q6 17 6 33.5t-7 56.5l-13 76h-232l-47 -84q-32 -57 -32 -82h-56q31 40 63 96l153 264q75 128 72 150h61q-6 -20 -3.5 -43.5t18.5 -112.5l46 -258q14 -73 26 -96q-47 -22 -79 -57
t-32 -64q0 -15 11 -24t28 -9zM120 194h211l-29 155q-18 96 -19 133h-3q-51 -99 -71 -133z" />
    <glyph glyph-name="aring.sc" horiz-adv-x="464" 
d="M302 584q-31 0 -51 16t-20 44q0 38 29 65t71 27q32 0 51.5 -16t19.5 -44q0 -38 -29 -65t-71 -27zM307 608q29 0 48 18.5t19 46.5q0 39 -47 39q-30 0 -49 -18t-19 -47q0 -39 48 -39zM-32 0q31 40 63 96l153 264q75 128 72 150h61q-6 -20 -3.5 -43.5t18.5 -112.5l46 -258
q14 -73 26 -96h-55q6 17 6 33.5t-7 56.5l-13 76h-232l-47 -84q-32 -57 -32 -82h-56zM120 194h211l-29 155q-18 96 -19 133h-3q-51 -99 -71 -133z" />
    <glyph glyph-name="atilde.sc" horiz-adv-x="464" 
d="M372 599q-21 0 -38.5 13.5t-27 30.5t-23.5 30.5t-29 13.5q-51 0 -59 -68l-36 2q16 42 38.5 66t62.5 24q21 0 38 -13.5t27 -30.5t24 -30.5t29 -13.5q49 0 59 68l35 -2q-17 -42 -39 -66t-61 -24zM-32 0q31 40 63 96l153 264q75 128 72 150h61q-6 -20 -3.5 -43.5
t18.5 -112.5l46 -258q14 -73 26 -96h-55q6 17 6 33.5t-7 56.5l-13 76h-232l-47 -84q-32 -57 -32 -82h-56zM120 194h211l-29 155q-18 96 -19 133h-3q-51 -99 -71 -133z" />
    <glyph glyph-name="ae.sc" horiz-adv-x="672" 
d="M590 -7q-20 7 -113 7h-188q19 24 35 104l13 64h-191l-60 -73q-61 -74 -61 -95h-57q30 24 97 108l247 309q54 67 60 93h212q77 0 97 7l-9 -50q-16 15 -93 15h-149l-38 -196h85q99 0 120 12l-10 -52q-16 12 -116 12h-85l-45 -230h140q93 0 118 15zM168 196h174l56 287h-3
q-41 -56 -62 -82z" />
    <glyph glyph-name="b.sc" horiz-adv-x="469" 
d="M18 0q20 29 35 104l59 302q15 79 5 104h157q155 0 155 -94q0 -64 -37.5 -101.5t-104.5 -42.5v-2q61 -5 95.5 -32.5t34.5 -76.5q0 -161 -227 -161h-172zM120 285h88q190 0 190 126q0 40 -33.5 55.5t-95.5 15.5h-110zM70 28h125q91 0 140.5 35t49.5 94q0 100 -182 100h-88z
" />
    <glyph glyph-name="c.sc" horiz-adv-x="471" 
d="M231 -12q-88 0 -135.5 44.5t-47.5 133.5q0 158 72.5 257t183.5 99q37 0 68 -8t54.5 -18.5t31.5 -12.5l-27 -42q-10 23 -44 38t-89 15q-91 0 -154 -94.5t-63 -231.5q0 -152 155 -152q97 0 140 63l22 -43q-7 -2 -35 -15.5t-61 -23t-71 -9.5z" />
    <glyph glyph-name="cacute.sc" horiz-adv-x="471" 
d="M306 584l-9 16q94 64 162 154l22 -23q-69 -86 -175 -147zM231 -12q-88 0 -135.5 44.5t-47.5 133.5q0 158 72.5 257t183.5 99q37 0 68 -8t54.5 -18.5t31.5 -12.5l-27 -42q-10 23 -44 38t-89 15q-91 0 -154 -94.5t-63 -231.5q0 -152 155 -152q97 0 140 63l22 -43
q-7 -2 -35 -15.5t-61 -23t-71 -9.5z" />
    <glyph glyph-name="ccaron.sc" horiz-adv-x="471" 
d="M313 586q-26 79 -88 146l16 16q56 -53 90 -130h4q24 34 62.5 70t75.5 56l10 -19q-36 -21 -75 -62t-60 -77h-35zM231 -12q-88 0 -135.5 44.5t-47.5 133.5q0 158 72.5 257t183.5 99q37 0 68 -8t54.5 -18.5t31.5 -12.5l-27 -42q-10 23 -44 38t-89 15q-91 0 -154 -94.5
t-63 -231.5q0 -152 155 -152q97 0 140 63l22 -43q-7 -2 -35 -15.5t-61 -23t-71 -9.5z" />
    <glyph glyph-name="ccedilla.sc" horiz-adv-x="471" 
d="M304 522q37 0 68 -8t54.5 -18.5t31.5 -12.5l-27 -42q-10 23 -44 38t-89 15q-91 0 -154 -94.5t-63 -231.5q0 -152 155 -152q97 0 140 63l22 -43q-8 -2 -35 -15t-59.5 -23t-69.5 -10l-17 -40q35 -7 51.5 -20.5t16.5 -39.5q0 -46 -35.5 -64t-119.5 -24l-1 26q125 9 125 58
q0 20 -16 30.5t-53 15.5l25 59q-78 5 -120 49.5t-42 127.5q0 158 72.5 257t183.5 99z" />
    <glyph glyph-name="cdotaccent.sc" horiz-adv-x="471" 
d="M330 596q-26 0 -26 24q0 21 11 33.5t29 12.5q26 0 26 -24q0 -20 -11 -33t-29 -13zM231 -12q-88 0 -135.5 44.5t-47.5 133.5q0 158 72.5 257t183.5 99q37 0 68 -8t54.5 -18.5t31.5 -12.5l-27 -42q-10 23 -44 38t-89 15q-91 0 -154 -94.5t-63 -231.5q0 -152 155 -152
q97 0 140 63l22 -43q-7 -2 -35 -15.5t-61 -23t-71 -9.5z" />
    <glyph glyph-name="d.sc" horiz-adv-x="486" 
d="M18 0q20 29 35 104l59 302q15 79 5 104h115q100 0 154.5 -41.5t54.5 -140.5q0 -153 -79.5 -240.5t-228.5 -87.5h-115zM68 28h70q126 0 198 79t72 218q0 157 -181 157h-70z" />
    <glyph glyph-name="eth.sc" horiz-adv-x="489" 
d="M235 510q100 0 154.5 -41.5t54.5 -140.5q0 -153 -79.5 -240.5t-228.5 -87.5h-115q20 29 35 104l29 147h-58l7 28h56l25 127q15 79 5 104h115zM141 28q126 0 198 79t72 218q0 157 -181 157h-70l-40 -203h130l-7 -28h-128l-44 -223h70z" />
    <glyph glyph-name="dcaron.sc" horiz-adv-x="486" 
d="M244 586q-26 79 -88 146l16 16q56 -53 90 -130h4q24 34 62.5 70t75.5 56l10 -19q-36 -21 -75 -62t-60 -77h-35zM18 0q20 29 35 104l59 302q15 79 5 104h115q100 0 154.5 -41.5t54.5 -140.5q0 -153 -79.5 -240.5t-228.5 -87.5h-115zM68 28h70q126 0 198 79t72 218
q0 157 -181 157h-70z" />
    <glyph glyph-name="dcroat.sc" horiz-adv-x="489" 
d="M235 510q100 0 154.5 -41.5t54.5 -140.5q0 -153 -79.5 -240.5t-228.5 -87.5h-115q20 29 35 104l29 147h-58l7 28h56l25 127q15 79 5 104h115zM141 28q126 0 198 79t72 218q0 157 -181 157h-70l-40 -203h130l-7 -28h-128l-44 -223h70z" />
    <glyph glyph-name="e.sc" horiz-adv-x="421" 
d="M339 -7q-20 7 -113 7h-208q20 29 35 104l59 302q15 79 5 104h216q77 0 97 7l-9 -50q-16 15 -93 15h-169l-39 -201h105q99 0 120 12l-10 -52q-16 12 -116 12h-105l-44 -225h160q92 0 118 15z" />
    <glyph glyph-name="eacute.sc" horiz-adv-x="421" 
d="M270 584l-9 16q94 64 162 154l22 -23q-69 -86 -175 -147zM339 -7q-20 7 -113 7h-208q20 29 35 104l59 302q15 79 5 104h216q77 0 97 7l-9 -50q-16 15 -93 15h-169l-39 -201h105q99 0 120 12l-10 -52q-16 12 -116 12h-105l-44 -225h160q92 0 118 15z" />
    <glyph glyph-name="ecaron.sc" horiz-adv-x="421" 
d="M277 586q-26 79 -88 146l16 16q56 -53 90 -130h4q24 34 62.5 70t75.5 56l10 -19q-36 -21 -75 -62t-60 -77h-35zM339 -7q-20 7 -113 7h-208q20 29 35 104l59 302q15 79 5 104h216q77 0 97 7l-9 -50q-16 15 -93 15h-169l-39 -201h105q99 0 120 12l-10 -52q-16 12 -116 12
h-105l-44 -225h160q92 0 118 15z" />
    <glyph glyph-name="ecircumflex.sc" horiz-adv-x="421" 
d="M173 584l-10 16q83 65 146 146h28q36 -88 90 -146l-16 -16q-54 51 -89 130h-4q-60 -72 -145 -130zM339 -7q-20 7 -113 7h-208q20 29 35 104l59 302q15 79 5 104h216q77 0 97 7l-9 -50q-16 15 -93 15h-169l-39 -201h105q99 0 120 12l-10 -52q-16 12 -116 12h-105l-44 -225
h160q92 0 118 15z" />
    <glyph glyph-name="edieresis.sc" horiz-adv-x="421" 
d="M241 612q-11 0 -18.5 7.5t-7.5 18.5q0 15 12 26.5t27 11.5q11 0 18.5 -7.5t7.5 -18.5q0 -14 -12 -26t-27 -12zM357 612q-11 0 -18.5 7.5t-7.5 18.5q0 15 12 26.5t27 11.5q11 0 18.5 -7.5t7.5 -18.5q0 -14 -12 -26t-27 -12zM339 -7q-20 7 -113 7h-208q20 29 35 104l59 302
q15 79 5 104h216q77 0 97 7l-9 -50q-16 15 -93 15h-169l-39 -201h105q99 0 120 12l-10 -52q-16 12 -116 12h-105l-44 -225h160q92 0 118 15z" />
    <glyph glyph-name="edotaccent.sc" horiz-adv-x="421" 
d="M294 596q-26 0 -26 24q0 21 11 33.5t29 12.5q26 0 26 -24q0 -20 -11 -33t-29 -13zM339 -7q-20 7 -113 7h-208q20 29 35 104l59 302q15 79 5 104h216q77 0 97 7l-9 -50q-16 15 -93 15h-169l-39 -201h105q99 0 120 12l-10 -52q-16 12 -116 12h-105l-44 -225h160
q92 0 118 15z" />
    <glyph glyph-name="egrave.sc" horiz-adv-x="421" 
d="M314 584q-84 62 -118 147l28 21q36 -96 103 -154zM339 -7q-20 7 -113 7h-208q20 29 35 104l59 302q15 79 5 104h216q77 0 97 7l-9 -50q-16 15 -93 15h-169l-39 -201h105q99 0 120 12l-10 -52q-16 12 -116 12h-105l-44 -225h160q92 0 118 15z" />
    <glyph glyph-name="emacron.sc" horiz-adv-x="421" 
d="M208 621l6 30h186l-6 -30h-186zM339 -7q-20 7 -113 7h-208q20 29 35 104l59 302q15 79 5 104h216q77 0 97 7l-9 -50q-16 15 -93 15h-169l-39 -201h105q99 0 120 12l-10 -52q-16 12 -116 12h-105l-44 -225h160q92 0 118 15z" />
    </font>
</defs>
</svg>
