<?xml version="1.0" standalone="no"?>
<!DOCTYPE svg PUBLIC "-//W3C//DTD SVG 1.1//EN" "http://www.w3.org/Graphics/SVG/1.1/DTD/svg11.dtd" >
<svg xmlns="http://www.w3.org/2000/svg" xmlns:xlink="http://www.w3.org/1999/xlink" version="1.1">
<metadata>
Created by FontForge 20201107 at Wed Feb 19 16:35:03 2020
 By 
Copyright (c) 2019 by Rodrigo Lo'pez Fuentes. All rights reserved.
</metadata>
<defs>
<font id="Mondo-MediumItalic" horiz-adv-x="546" >
  <font-face 
    font-family="Mondo Medium Italic"
    font-weight="400"
    font-style="italic"
    font-stretch="normal"
    units-per-em="1000"
    panose-1="0 0 7 0 0 0 0 0 0 0"
    ascent="768"
    descent="-232"
    x-height="491"
    cap-height="654"
    bbox="-418 -323 1399.26 989"
    underline-thickness="50"
    underline-position="-150"
    slope="-11"
    unicode-range="U+0020-FB02"
  />
<missing-glyph horiz-adv-x="461" 
d="M378 722v-922h-292v922h292zM307 660h-152v-30h60v-34h-61v-31h153v31h-61v34h61v30zM246 541h-92v-96h153v32h-61v64zM215 510v-33h-31v33h31zM307 421h-153v-31h61v-34h-61v-30h92v64h61v31zM307 365h-30v-61h-123v-31h153v92zM307 253h-92v-52h31v21h31v-43h-93v74
h-30v-104h153v104zM307 93h-153v-104h153v104zM277 63v-44h-93v44h93zM307 -32h-153v-31h65l-65 -43v-30h153v30h-94l65 43h29v31z" />
    <glyph glyph-name="fi" unicode="fi" horiz-adv-x="571" 
d="M558 491q-16 -39 -32 -124l-48 -242q-18 -94 -5 -125h-150q26 33 43 125l48 242l6 32h-182l-55 -288q-18 -90 -1 -111h-152q24 24 41 111l55 288h-66l18 92h66l6 31q39 202 262 202q42 0 88.5 -10.5t71.5 -22.5l-40 -99q-13 16 -55 29.5t-79 13.5q-62 0 -93.5 -25.5
t-42.5 -88.5l-6 -30h302z" />
    <glyph glyph-name="fl" unicode="fl" horiz-adv-x="575" 
d="M480 708h132q-19 -38 -36 -125l-89 -458q-19 -93 -5 -125h-150q24 29 43 125l89 458q2 14 4 20q-10 13 -35.5 20.5t-51.5 7.5q-55 0 -82 -26t-36 -80l-7 -36h101l-19 -99q-29 8 -100 8l-55 -287q-18 -90 -1 -111h-152q24 24 41 111l55 287h-66l18 91h66l7 38
q37 193 241 193q40 0 88 -12z" />
    <glyph glyph-name="f_f" unicode="ff" horiz-adv-x="606" 
d="M637 630q-67 0 -83 -81l-12 -58h107l-19 -96h-108l-53 -270q-12 -61 -12.5 -86t9.5 -39h-134l78 395h-173l-55 -284q-16 -90 0 -111h-153q24 24 41 111l55 284h-66l19 96h66l9 47q35 183 227 183q19 0 44 -3.5t36 -2.5l-39 -106q-18 23 -55 23q-42 0 -66.5 -22t-34.5 -73
l-9 -46h156v-1h18l12 62q18 83 72 126t132 43q41 0 110 -21l-36 -98q-28 28 -83 28z" />
    <glyph glyph-name="f_f_i" unicode="ffi" horiz-adv-x="858" 
d="M845 491q-14 -31 -33 -124l-47 -242q-18 -94 -5 -125h-150q15 20 23.5 45t19.5 80l47 242l6 32h-181l-56 -288q-16 -90 0 -111h-153q26 26 41 111l56 288h-175l-55 -288q-18 -90 -1 -111h-152q24 24 41 111l55 288h-66l18 92h66l9 47q17 90 73.5 136.5t149.5 46.5
q22 0 47.5 -3.5t36.5 -2.5l-38 -103q-18 20 -59 20q-40 0 -64 -22t-34 -73l-9 -46h175l6 31q39 202 261 202q42 0 89 -10.5t72 -22.5l-40 -99q-13 16 -55 29.5t-80 13.5q-61 0 -92.5 -25.5t-43.5 -88.5l-5 -30h302z" />
    <glyph glyph-name="f_f_l" unicode="ffl" horiz-adv-x="859" 
d="M764 708h132q-19 -38 -36 -125l-88 -458q-19 -95 -6 -125h-150q26 30 44 125l88 458q1 4 2.5 11t1.5 10q-11 12 -36.5 19.5t-50.5 7.5q-55 0 -81.5 -26t-36.5 -80l-7 -36h101l-19 -99q-29 8 -100 8l-55 -287q-18 -89 0 -111h-153q24 24 41 111l55 287h-172l-55 -287
q-18 -90 -1 -111h-152q24 24 41 111l55 287h-66l18 92h66l9 48q17 90 73.5 136.5t149.5 46.5q22 0 47.5 -3.5t36.5 -2.5l-38 -103q-18 20 -59 20q-40 0 -64 -22t-34 -73l-9 -47h156v-1h16l7 38q37 193 242 193q39 0 87 -12z" />
    <glyph glyph-name=".notdef" horiz-adv-x="461" 
d="M378 722v-922h-292v922h292zM307 660h-152v-30h60v-34h-61v-31h153v31h-61v34h61v30zM246 541h-92v-96h153v32h-61v64zM215 510v-33h-31v33h31zM307 421h-153v-31h61v-34h-61v-30h92v64h61v31zM307 365h-30v-61h-123v-31h153v92zM307 253h-92v-52h31v21h31v-43h-93v74
h-30v-104h153v104zM307 93h-153v-104h153v104zM277 63v-44h-93v44h93zM307 -32h-153v-31h65l-65 -43v-30h153v30h-94l65 43h29v31z" />
    <glyph glyph-name=".null" horiz-adv-x="0" 
 />
    <glyph glyph-name="nonmarkingreturn" horiz-adv-x="333" 
 />
    <glyph glyph-name="space" unicode=" " horiz-adv-x="175" 
 />
    <glyph glyph-name="exclam" unicode="!" horiz-adv-x="315" 
d="M103 237l57 292q11 60 13 86t-8 55h151q-16 -19 -25.5 -46t-22.5 -95l-57 -292h-108zM109 -12q-29 0 -46 16t-17 43q0 40 27 67.5t66 27.5q28 0 45 -16t17 -43q0 -39 -27 -67t-65 -28z" />
    <glyph glyph-name="quotedbl" unicode="&#x22;" horiz-adv-x="357" 
d="M109 431l13 167l15 92h95l-21 -92l-52 -167h-50zM271 431l12 167l15 92h95l-21 -92l-51 -167h-50z" />
    <glyph glyph-name="numbersign" unicode="#" horiz-adv-x="549" 
d="M50 0l65 204h-80l11 57h87l47 148h-85l11 58h92l59 183h54l-59 -183h132l60 183h54l-60 -183h81l-11 -58h-87l-47 -148h85l-12 -57h-91l-65 -204h-54l64 204h-131l-65 -204h-55zM188 261h131l47 148h-131z" />
    <glyph glyph-name="dollar" unicode="$" horiz-adv-x="538" 
d="M347 332q61 -19 93.5 -50t32.5 -81q0 -84 -56.5 -141t-150.5 -69q-10 -63 -5 -89l-101 1q19 33 30 86q-48 5 -107.5 27.5t-75.5 24.5l75 125q39 -72 126 -86l33 169h-1q-136 42 -136 139q0 79 55 132t146 64q11 63 5 90h101q-20 -38 -31 -90q39 -4 90 -21.5t62 -19.5
l-68 -111q-40 54 -101 63l-30 -158zM216 414q0 -32 46 -53l26 132q-72 -18 -72 -79zM283 82q76 17 76 88q0 21 -11.5 33t-36.5 22z" />
    <glyph glyph-name="percent" unicode="%" horiz-adv-x="876" 
d="M174 -12l486 680h86l-486 -680h-86zM200 268q-58 0 -90.5 35.5t-32.5 100.5q0 109 58 183.5t142 74.5q57 0 90 -35.5t33 -100.5q0 -107 -58.5 -182.5t-141.5 -75.5zM213 336q41 0 72 56t31 130q0 72 -53 72q-42 0 -72.5 -55t-30.5 -130q0 -73 53 -73zM631 -12
q-58 0 -90.5 35.5t-32.5 100.5q0 109 58 183.5t142 74.5q57 0 90 -35.5t33 -100.5q0 -107 -58.5 -182.5t-141.5 -75.5zM644 56q42 0 72.5 55.5t30.5 130.5q0 72 -53 72q-42 0 -72.5 -55t-30.5 -130q0 -73 53 -73z" />
    <glyph glyph-name="ampersand" unicode="&#x26;" horiz-adv-x="661" 
d="M642 0h-183q-3 29 -26 59q-106 -74 -216 -74q-76 0 -123 41.5t-47 107.5q0 143 188 228q-16 50 -16 94q0 104 70 170t155 66q65 0 106 -37t41 -97q0 -150 -221 -234q29 -50 89 -126q34 42 31 76h141q-57 -87 -115 -145q61 -77 126 -129zM425 594q-44 0 -73.5 -35
t-29.5 -90q0 -35 13 -70q73 25 112 57t39 80q0 26 -16.5 42t-44.5 16zM156 157q0 -34 24 -54t66 -20q60 0 131 46l-11 14q-61 75 -98 142q-56 -25 -84 -55t-28 -73z" />
    <glyph glyph-name="quotesingle" unicode="'" horiz-adv-x="196" 
d="M114 433l13 197l9 62h98l-15 -62l-64 -197h-41z" />
    <glyph glyph-name="parenleft" unicode="(" horiz-adv-x="366" 
d="M159 -178q-103 136 -103 319q0 106 27 206t70.5 174t89 127t90.5 86l58 -76q-97 -33 -163 -190.5t-66 -362.5q0 -176 81 -207z" />
    <glyph glyph-name="parenright" unicode=")" horiz-adv-x="366" 
d="M46 -178l-57 76q97 33 163 190.5t66 362.5q0 176 -81 207l84 76q102 -137 102 -319q0 -105 -27 -205t-70.5 -174t-89 -127.5t-90.5 -86.5z" />
    <glyph glyph-name="asterisk" unicode="*" horiz-adv-x="420" 
d="M169 415l-35 30l73 96l-88 43l25 47l99 -21l33 107h51l-9 -106l108 20l6 -47l-103 -43l34 -96l-47 -30l-56 84z" />
    <glyph glyph-name="plus" unicode="+" horiz-adv-x="498" 
d="M398 340q41 0 58 10l-21 -105q-14 10 -54 10h-96l-20 -104q-8 -39 0 -56h-110q14 18 21 56l20 104h-96q-41 0 -58 -10l21 105q13 -10 54 -10h96l20 104q8 40 1 56h109q-13 -18 -21 -56l-20 -104h96z" />
    <glyph glyph-name="comma" unicode="," horiz-adv-x="329" 
d="M15 -173l-10 57q48 14 80 45t40 68q-2 -1 -9 -1q-24 2 -39.5 15.5t-15.5 37.5q0 33 25.5 57t60.5 24q29 0 46 -19.5t17 -52.5q0 -76 -54.5 -141.5t-140.5 -89.5z" />
    <glyph glyph-name="hyphen" unicode="-" horiz-adv-x="326" 
d="M37 207l18 89h236l-18 -89h-236z" />
    <glyph glyph-name="period" unicode="." horiz-adv-x="284" 
d="M88 -12q-25 0 -41.5 16t-16.5 41q0 35 26 62t61 27q25 0 41 -16t16 -42q0 -35 -25.5 -61.5t-60.5 -26.5z" />
    <glyph glyph-name="slash" unicode="/" horiz-adv-x="520" 
d="M-7 -160l360 721q29 59 40.5 91t10.5 58h125l-367 -734q-46 -92 -44 -136h-125z" />
    <glyph glyph-name="zero" unicode="0" horiz-adv-x="572" 
d="M251 -12q-92 0 -147 61t-55 175q0 189 86 316t220 127q91 0 145.5 -60.5t54.5 -176.5q0 -185 -86.5 -313.5t-217.5 -128.5zM265 87q68 0 121.5 103t53.5 232q0 145 -100 145q-69 0 -122.5 -101t-53.5 -233q0 -146 101 -146z" />
    <glyph glyph-name="one" unicode="1" horiz-adv-x="479" 
d="M-4 0l14 68l148 31l82 415h-127l14 77q50 3 126.5 19t122.5 33l-105 -544l128 -31l-14 -68h-389z" />
    <glyph glyph-name="two" unicode="2" horiz-adv-x="520" 
d="M182 100h127q105 0 137 18l-22 -118h-425l13 84q29 25 89 72.5t99.5 81.5t83.5 77t66.5 83.5t22.5 76.5q0 37 -22.5 58.5t-58.5 21.5q-87 0 -153 -79l-36 113q18 4 53.5 21.5t75 30.5t81.5 13q78 0 126.5 -45.5t48.5 -120.5q0 -39 -16 -80t-39 -73t-59.5 -68.5t-65 -60.5
t-68 -56.5t-58.5 -49.5z" />
    <glyph glyph-name="three" unicode="3" horiz-adv-x="502" 
d="M191 -12q-59 0 -125 22t-83 22l64 126q18 -31 59 -52t89 -21q58 0 94.5 29t36.5 77q0 94 -171 94l18 92q88 0 138.5 31.5t50.5 84.5q0 32 -21.5 48.5t-58.5 16.5t-73 -16.5t-58 -42.5l-39 110q11 2 77 23.5t112 21.5q78 0 128.5 -38.5t50.5 -106.5q0 -62 -40 -107.5
t-107 -63.5l-1 -6q48 -13 78 -49.5t30 -88.5q0 -93 -71.5 -149.5t-177.5 -56.5z" />
    <glyph glyph-name="four" unicode="4" horiz-adv-x="523" 
d="M419 257q57 0 86 11l-19 -100h-84q-16 -80 -18 -110.5t6 -57.5h-154q17 23 28 55.5t27 112.5h-279l12 77l333 397h137zM142 257h165l55 263z" />
    <glyph glyph-name="five" unicode="5" horiz-adv-x="516" 
d="M196 -12q-60 0 -124.5 25.5t-72.5 26.5l62 121q17 -35 56 -57.5t88 -22.5q61 0 102 44t41 111q0 42 -25.5 64t-69.5 22q-57 0 -109 -30l-52 29l83 321h205q89 0 131 16l-21 -111h-237l-39 -149q37 13 82 13q73 0 120 -42.5t47 -115.5q0 -114 -74.5 -189.5t-192.5 -75.5z
" />
    <glyph glyph-name="six" unicode="6" horiz-adv-x="520" 
d="M229 -12q-84 0 -134.5 53t-50.5 156q0 188 98 322.5t237 134.5q33 0 77.5 -11.5t59.5 -11.5l-53 -111q-31 42 -96 42q-63 0 -117 -58.5t-82 -177.5q28 32 69.5 51t84.5 19q68 0 111.5 -41.5t43.5 -111.5q0 -108 -71.5 -181.5t-176.5 -73.5zM244 78q51 0 87.5 43t36.5 103
q0 39 -23.5 61t-63.5 22q-70 0 -127 -77q-13 -152 90 -152z" />
    <glyph glyph-name="seven" unicode="7" horiz-adv-x="478" 
d="M104 0q55 309 283 545h-185q-90 0 -120 -18l24 122q31 -7 115 -7h307l-15 -81q-123 -119 -202.5 -267t-79.5 -257q0 -22 5 -37h-132z" />
    <glyph glyph-name="eight" unicode="8" horiz-adv-x="512" 
d="M205 -12q-84 0 -134.5 37t-50.5 103q0 69 49 123t106 76l1 4q-69 49 -69 126q0 85 68 144t164 59q73 0 116.5 -36.5t43.5 -98.5q0 -66 -40.5 -112.5t-88.5 -70.5l-1 -4q91 -49 91 -141q0 -90 -71.5 -149.5t-183.5 -59.5zM304 375q96 57 96 131q0 31 -20.5 49t-58.5 18
q-45 0 -76 -28.5t-31 -71.5q0 -57 90 -98zM223 75q56 0 92 29t36 74q0 62 -114 113q-49 -24 -80 -63.5t-31 -78.5q0 -36 26 -55t71 -19z" />
    <glyph glyph-name="nine" unicode="9" horiz-adv-x="520" 
d="M180 -12q-40 0 -85.5 11.5t-58.5 11.5l47 112q31 -42 106 -42q58 0 116 61t77 163q-28 -26 -69 -42.5t-82 -16.5q-69 0 -114 41.5t-45 116.5q0 106 69.5 178t170.5 72q85 0 139 -58t54 -161q0 -122 -42.5 -225t-117.5 -162.5t-165 -59.5zM262 335q33 0 69 19t64 56
q7 74 -18 113.5t-76 39.5q-48 0 -84 -44t-36 -101q0 -39 21.5 -61t59.5 -22z" />
    <glyph glyph-name="colon" unicode=":" horiz-adv-x="265" 
d="M158 340q-25 0 -41.5 16t-16.5 41q0 36 25.5 62.5t61.5 26.5q25 0 41 -16t16 -41q0 -36 -25 -62.5t-61 -26.5zM91 -12q-25 0 -41.5 16t-16.5 41q0 35 26 62t61 27q25 0 41 -16t16 -42q0 -35 -25.5 -61.5t-60.5 -26.5z" />
    <glyph glyph-name="semicolon" unicode=";" horiz-adv-x="263" 
d="M149 321q-25 0 -41.5 16t-16.5 41q0 36 25.5 62.5t61.5 26.5q25 0 41.5 -16t16.5 -41q0 -36 -25.5 -62.5t-61.5 -26.5zM-21 -173l-10 57q48 14 80 45t40 68q-2 -1 -9 -1q-24 2 -39.5 15.5t-15.5 37.5q0 33 25.5 57t60.5 24q29 0 46 -19.5t17 -52.5q0 -76 -54.5 -141.5
t-140.5 -89.5z" />
    <glyph glyph-name="less" unicode="&#x3c;" horiz-adv-x="443" 
d="M406 408q-19 3 -58 -15l-207 -95l171 -94q33 -16 51 -15l-61 -96q-7 16 -41 36l-219 125l18 90l267 125q45 22 55 36z" />
    <glyph glyph-name="equal" unicode="=" horiz-adv-x="491" 
d="M75 329l21 106q14 -10 54 -10h241q41 0 58 10l-21 -106q-13 10 -54 10h-241q-41 0 -58 -10zM42 160l21 106q13 -10 54 -10h241q41 0 58 10l-21 -106q-14 10 -54 10h-241q-41 0 -58 -10z" />
    <glyph glyph-name="greater" unicode="&#x3e;" horiz-adv-x="443" 
d="M182 469l219 -125l-18 -90l-267 -125q-44 -22 -55 -36l-24 96q19 -1 57 15l208 95l-171 94q-33 18 -52 15l61 97q5 -14 42 -36z" />
    <glyph glyph-name="question" unicode="?" horiz-adv-x="432" 
d="M129 220q9 47 28.5 82t42 53.5t47 36.5t44 32.5t32 40t12.5 59.5q0 30 -20.5 46.5t-52.5 16.5q-79 0 -128 -57l-35 104q19 1 80.5 23.5t108.5 22.5q70 0 113.5 -34t43.5 -98q0 -45 -10.5 -78.5t-27 -54t-37.5 -36.5t-43 -30t-41.5 -30t-35 -41t-21.5 -58h-100zM139 -12
q-28 0 -44 14.5t-16 39.5q0 38 25.5 64.5t62.5 26.5q29 0 45 -15t16 -41q0 -37 -26 -63t-63 -26z" />
    <glyph glyph-name="at" unicode="@" horiz-adv-x="814" 
d="M342 -73q-125 0 -202 73t-77 193q0 173 118 291.5t289 118.5q123 0 202 -74t79 -190q0 -115 -56.5 -193.5t-139.5 -78.5q-47 0 -72.5 23.5t-26.5 66.5q-37 -58 -106 -58q-51 0 -81 30t-30 87q0 82 50 141t121 59q32 0 52.5 -13.5t25.5 -31.5l14 36h73l-38 -199
q-7 -39 -1 -55t28 -16q42 0 72.5 56t30.5 133q0 89 -57.5 142.5t-154.5 53.5q-127 0 -217 -93t-90 -221q0 -91 57.5 -145.5t152.5 -54.5q54 0 98 25l-20 -100q-60 -6 -94 -6zM373 163q28 0 53 23.5t37 55.5l7 34q1 34 -15.5 55t-45.5 21q-37 0 -63 -37.5t-26 -91.5
q0 -60 53 -60z" />
    <glyph glyph-name="A" unicode="A" horiz-adv-x="612" 
d="M554 0h-157q21 27 13 116l-6 62h-221l-32 -62q-45 -87 -31 -116h-157q42 51 86 139l203 397q46 89 46 118h174q-10 -28 1 -118l50 -397q15 -114 31 -139zM226 269h170l-30 289z" />
    <glyph glyph-name="B" unicode="B" horiz-adv-x="600" 
d="M13 0q32 34 50 131l76 392q10 53 10.5 78.5t-10.5 52.5h228q206 0 206 -139q0 -60 -40 -107.5t-101 -58.5q58 -7 89.5 -42t31.5 -91q0 -107 -76.5 -161.5t-214.5 -54.5h-249zM228 388h84q70 0 109 28.5t39 81.5q0 63 -107 63h-92zM170 93h103q166 0 166 118q0 88 -141 88
h-89z" />
    <glyph glyph-name="C" unicode="C" horiz-adv-x="559" 
d="M288 -14q-111 0 -172 67t-61 201q0 176 90 294.5t237 118.5q44 0 80.5 -11.5t64.5 -25t42 -15.5l-61 -113q-17 26 -54 45t-82 19q-84 0 -141.5 -90t-57.5 -210q0 -179 133 -179q104 0 155 53l34 -117q-13 0 -82.5 -18.5t-124.5 -18.5z" />
    <glyph glyph-name="D" unicode="D" horiz-adv-x="618" 
d="M13 0q33 35 50 131l76 392q19 97 1 131h190q123 0 194 -64.5t71 -186.5q0 -196 -96.5 -299.5t-277.5 -103.5h-208zM170 96h61q116 0 181.5 75.5t65.5 217.5q0 169 -163 169h-56z" />
    <glyph glyph-name="E" unicode="E" horiz-adv-x="525" 
d="M437 -7q-45 7 -126 7h-298q29 34 48 131l76 392q20 93 3 131h285q77 0 125 7l-24 -120q-36 16 -120 16h-150l-32 -169h110q88 0 124 11l-23 -119q-29 11 -120 11h-110l-38 -194h162q88 0 131 16z" />
    <glyph glyph-name="F" unicode="F" horiz-adv-x="515" 
d="M13 0q31 36 48 131l76 392q20 93 3 131h293q86 0 125 7l-24 -120q-33 16 -120 16h-158l-39 -201h120q84 0 122 13l-23 -122q-35 12 -117 12h-120l-25 -127q-19 -100 -1 -132h-160z" />
    <glyph glyph-name="G" unicode="G" horiz-adv-x="601" 
d="M297 -14q-117 0 -180 66t-63 198q0 115 40.5 209.5t117.5 151t175 56.5q47 0 85.5 -11t67.5 -24.5t42 -16.5l-64 -110q-15 26 -54.5 43.5t-87.5 17.5q-81 0 -142 -91.5t-61 -210.5q0 -178 139 -178q65 0 113 34l26 131h-23q-64 0 -105 -11l22 108q32 -8 100 -8h130
q-14 -26 -32 -120l-16 -77q-14 -73 -12 -103q-2 0 -81.5 -27t-136.5 -27z" />
    <glyph glyph-name="H" unicode="H" horiz-adv-x="661" 
d="M13 0q30 39 48 131l76 392q18 95 2 131h159q-30 -40 -48 -131l-25 -132h268l25 132q20 96 2 131h160q-30 -37 -49 -131l-75 -392q-19 -95 -3 -131h-159q31 40 48 131l31 160h-269l-30 -160q-19 -94 -3 -131h-158z" />
    <glyph glyph-name="I" unicode="I" horiz-adv-x="279" 
d="M13 0q18 23 27.5 50t20.5 81l76 392q18 95 2 131h159q-30 -41 -48 -131l-76 -392q-19 -95 -3 -131h-158z" />
    <glyph glyph-name="J" unicode="J" horiz-adv-x="420" 
d="M122 -12q-39 0 -88.5 16t-64.5 16l57 131q12 -25 39 -43.5t63 -18.5q39 0 62 27.5t35 90.5l62 316q18 97 -2 131h160q-25 -35 -44 -131l-62 -316q-23 -116 -73 -167.5t-144 -51.5z" />
    <glyph glyph-name="K" unicode="K" horiz-adv-x="620" 
d="M13 0q30 38 48 131l76 392q19 96 4 132h154q-28 -38 -44 -123l-34 -178h3l216 215q30 33 41 49.5t12 36.5h167q-46 -28 -136 -124l-129 -136l100 -249q42 -107 74 -146h-165q6 47 -22 118l-74 194l-118 -116l-14 -72q-17 -87 -4 -124h-155z" />
    <glyph glyph-name="L" unicode="L" horiz-adv-x="490" 
d="M421 -7q-36 7 -117 7h-291q29 34 48 131l76 392q20 93 3 131h159q-31 -36 -49 -131l-83 -428h156q85 0 122 24z" />
    <glyph glyph-name="M" unicode="M" horiz-adv-x="757" 
d="M608 654h168q-28 -30 -49 -131l-76 -392q-20 -98 -3 -131h-150q17 19 26.5 47t20.5 84l39 202q23 116 46 178h-4l-185 -335q-48 -85 -50 -118h-100q10 40 -4 118l-57 335h-4q0 -59 -22 -177l-39 -204q-18 -99 -2 -130h-150q28 29 48 131l76 392q20 96 3 131h167l71 -414z
" />
    <glyph glyph-name="N" unicode="N" horiz-adv-x="659" 
d="M13 0q29 34 48 131l76 392q19 88 3 131h148l178 -461h5q-2 60 10 118l43 222q14 83 2 121h152q-29 -36 -49 -131l-72 -374q-21 -108 -6 -149h-128l-192 498h-5q2 -62 -9 -118l-49 -252q-19 -91 -4 -128h-151z" />
    <glyph glyph-name="O" unicode="O" horiz-adv-x="647" 
d="M291 -12q-105 0 -169.5 72t-64.5 199q0 177 86 292t245 115q105 0 170 -71.5t65 -197.5q0 -115 -36.5 -206t-113 -147t-182.5 -56zM300 89q96 0 150.5 85.5t54.5 212.5q0 86 -36.5 132t-90.5 46q-96 0 -149.5 -84.5t-53.5 -212.5q0 -86 35.5 -132.5t89.5 -46.5z" />
    <glyph glyph-name="P" unicode="P" horiz-adv-x="568" 
d="M13 0q30 33 48 131l76 392q20 91 3 131h227q96 0 156.5 -43t60.5 -134q0 -119 -81 -187t-216 -68h-95l-18 -90q-20 -95 -1 -132h-160zM210 318h85q85 0 130.5 37.5t45.5 110.5q0 92 -132 92h-82z" />
    <glyph glyph-name="Q" unicode="Q" horiz-adv-x="645" 
d="M489 -84q51 0 83 20l12 -105q-10 0 -45 -3.5t-59 -3.5q-89 0 -150.5 47t-78.5 120q-88 13 -141 83.5t-53 184.5q0 177 86 292t245 115q105 0 170 -71.5t65 -197.5q0 -160 -71 -271.5t-203 -132.5q15 -37 53 -57t87 -20zM175 268q0 -86 35.5 -132.5t89.5 -46.5
q96 0 150.5 85.5t54.5 212.5q0 86 -36.5 132t-90.5 46q-96 0 -149.5 -84.5t-53.5 -212.5z" />
    <glyph glyph-name="R" unicode="R" horiz-adv-x="595" 
d="M13 0q30 33 48 131l76 392q20 93 3 131h234q96 0 153.5 -42t57.5 -128q0 -82 -47 -140.5t-128 -75.5l48 -128q38 -103 75 -140h-175q14 29 -17 124l-47 127h-97l-23 -120q-19 -96 -5 -131h-156zM216 347h92q164 0 164 124q0 87 -120 87h-95z" />
    <glyph glyph-name="S" unicode="S" horiz-adv-x="540" 
d="M230 -12q-61 0 -139 26t-91 27l75 129q22 -39 68 -63t98 -24q59 0 96 29.5t37 78.5q0 55 -80 86l-61 24q-125 51 -125 159q0 96 67.5 151t171.5 55q55 0 123 -21t73 -22l-66 -119q-52 65 -139 65q-49 0 -81 -26t-32 -69q0 -28 20 -46t60 -34l60 -24q127 -50 127 -162
q0 -102 -73.5 -161t-188.5 -59z" />
    <glyph glyph-name="T" unicode="T" horiz-adv-x="535" 
d="M141 0q32 48 48 131l83 426h-71q-75 0 -122 -16l23 120q46 -7 117 -7h256q72 0 119 7l-23 -120q-41 16 -115 16h-71l-83 -426q-17 -88 -2 -131h-159z" />
    <glyph glyph-name="U" unicode="U" horiz-adv-x="648" 
d="M281 -12q-117 0 -170.5 68.5t-26.5 211.5l50 255q17 99 2 131h159q-31 -39 -49 -131l-48 -250q-36 -187 96 -187q135 0 171 187l48 250q19 96 3 131h154q-31 -40 -48 -131l-50 -255q-28 -145 -98 -212.5t-193 -67.5z" />
    <glyph glyph-name="V" unicode="V" horiz-adv-x="595" 
d="M162 0q9 31 9 62t-8 101l-39 331q-8 74 -14.5 105.5t-19.5 54.5h152q-16 -38 -7 -137l31 -295q6 -58 6 -106h7q13 42 44 106l145 296q27 56 37 85t8 51h151q-39 -42 -97 -160l-167 -331q-34 -68 -46.5 -100.5t-13.5 -62.5h-178z" />
    <glyph glyph-name="W" unicode="W" horiz-adv-x="850" 
d="M767 654h144q-26 -31 -63 -124l-160 -413q-34 -85 -29 -117h-187q17 40 14 116l-13 354l-155 -354q-39 -91 -32 -116h-187q18 33 18 117l-3 416q-1 88 -16 121h153q-20 -33 -20 -114l-4 -397l178 409q32 73 27 102h157q-12 -30 -10 -102l15 -409l150 397q2 5 6.5 18
t6 17.5t5 14.5t4.5 15l2.5 12.5t1.5 13t-0.5 11.5t-2.5 12z" />
    <glyph glyph-name="X" unicode="X" horiz-adv-x="579" 
d="M473 654h156q-43 -32 -93 -103l-157 -222l76 -213q30 -82 60 -116h-165q13 36 -9 101l-56 161l-111 -161q-28 -42 -37 -62t-8 -39h-160q28 23 47 44t56 72l163 226l-73 209q-26 73 -52 103h161q-8 -17 -6.5 -33.5t12.5 -53.5l53 -159l108 159q24 38 30.5 54t4.5 33z" />
    <glyph glyph-name="Y" unicode="Y" horiz-adv-x="552" 
d="M469 654h151q-22 -19 -36 -37t-47 -68l-205 -306l-22 -112q-20 -98 -2 -131h-161q17 20 27 46.5t22 84.5l23 111l-86 310q-20 71 -42 102h153q-8 -18 -7.5 -38t11.5 -68l49 -206l130 206q27 43 35.5 63.5t6.5 42.5z" />
    <glyph glyph-name="Z" unicode="Z" horiz-adv-x="564" 
d="M278 654h303l-15 -85q-17 -9 -30.5 -23.5t-51.5 -61.5l-312 -384h185q90 0 128 23l-24 -131q-28 8 -122 8h-334l13 86q21 14 37.5 31.5t63.5 74.5l293 362h-153q-87 0 -125 -24l25 132q35 -8 119 -8z" />
    <glyph glyph-name="bracketleft" unicode="[" horiz-adv-x="358" 
d="M221 -172q-51 20 -208 20l167 860q159 0 217 21l-18 -92h-104l-139 -718h104z" />
    <glyph glyph-name="backslash" unicode="\" horiz-adv-x="265" 
d="M108 -160q17 47 8 136l-82 734h125q-18 -46 -7 -149l80 -721h-124z" />
    <glyph glyph-name="bracketright" unicode="]" horiz-adv-x="358" 
d="M-26 -172l18 91h104l139 718h-104l18 92q51 -21 209 -21l-167 -860q-158 0 -217 -20z" />
    <glyph glyph-name="asciicircum" unicode="^" horiz-adv-x="422" 
d="M377 286l-101 -39q3 16 -5 55l-32 131l-81 -131q-24 -37 -26 -55l-87 39q19 10 40 46l140 216h75l54 -216q10 -38 23 -46z" />
    <glyph glyph-name="underscore" unicode="_" horiz-adv-x="483" 
d="M-1 -136l14 74h440l-14 -74h-440z" />
    <glyph glyph-name="grave" unicode="`" horiz-adv-x="373" 
d="M315 573q-45 21 -83 58.5t-60 85.5l69 63q31 -102 114 -165z" />
    <glyph glyph-name="a" unicode="a" 
d="M181 -12q-68 0 -108 48t-40 135q0 142 80.5 236.5t183.5 94.5q58 0 116 -30l9 17h104l-72 -353q-22 -103 -4 -136h-120q-5 30 1 58h-5q-29 -31 -68 -50.5t-77 -19.5zM212 82q61 0 140 100l39 193q-38 33 -86 33q-64 0 -111 -64t-47 -162q0 -47 17 -73.5t48 -26.5z" />
    <glyph glyph-name="b" unicode="b" horiz-adv-x="544" 
d="M245 -10q-74 0 -122 35l-17 -25h-86l114 561q25 118 7 151h135l-57 -276q64 68 145 68q69 0 108.5 -48t39.5 -137q0 -139 -80.5 -234t-186.5 -95zM239 84q64 0 111.5 65.5t47.5 165.5q0 46 -17 70.5t-48 24.5q-29 0 -69.5 -30t-71.5 -75l-39 -189q33 -32 86 -32z" />
    <glyph glyph-name="c" unicode="c" horiz-adv-x="438" 
d="M217 -15q-85 0 -133 51.5t-48 145.5q0 147 76.5 235t184.5 88q42 0 88.5 -18t52.5 -19l-53 -109q-12 22 -37 35.5t-57 13.5q-55 0 -97.5 -65t-42.5 -151q0 -56 24.5 -83t62.5 -27q36 0 66.5 15t45.5 36l34 -107q-4 0 -61 -20.5t-106 -20.5z" />
    <glyph glyph-name="d" unicode="d" horiz-adv-x="544" 
d="M181 -12q-69 0 -108.5 48t-39.5 137q0 139 80.5 234t185.5 95q57 0 112 -24l18 93q13 62 14 87.5t-9 53.5h135l-116 -579q-8 -39 -10.5 -59t-1 -40t10.5 -34h-120q-4 22 2 59l-4 1q-63 -72 -149 -72zM212 82q31 0 71 32.5t71 82.5l37 185q-37 26 -85 26q-63 0 -111 -65.5
t-48 -165.5q0 -46 17 -70.5t48 -24.5z" />
    <glyph glyph-name="e" unicode="e" horiz-adv-x="504" 
d="M233 -15q-89 0 -143 53.5t-54 146.5q0 142 75 231t188 89q80 0 128.5 -45.5t48.5 -112.5q0 -144 -206 -144l-120 1q-6 -56 22.5 -92t77.5 -36q91 0 129 48l36 -97q-1 0 -15 -6t-20.5 -8t-22 -7.5t-27.5 -8t-28.5 -6t-33.5 -5t-35 -1.5zM161 282h87q68 0 93.5 16.5
t25.5 45.5q0 30 -20.5 50t-58.5 20q-47 0 -82 -38t-45 -94z" />
    <glyph glyph-name="f" unicode="f" horiz-adv-x="318" 
d="M44 0l79 395h-64l19 95h64l13 62q18 83 72 126t131 43q39 0 111 -21l-37 -98q-26 28 -82 28q-66 0 -84 -81l-12 -58h107l-18 -96h-108l-54 -270q-12 -61 -12.5 -86t10.5 -39h-135z" />
    <glyph glyph-name="g" unicode="g" horiz-adv-x="536" 
d="M170 -218q-74 0 -173 46l50 108q45 -64 128 -64q57 0 93.5 32t48.5 87l16 68h-3q-61 -68 -144 -68q-70 0 -109.5 46.5t-39.5 135.5q0 139 81 234t187 95q63 0 117 -30l10 18h101l-104 -490q-47 -218 -259 -218zM214 84q34 0 73 29t71 74l39 190q-39 31 -88 31
q-64 0 -111 -65.5t-47 -165.5q0 -45 16.5 -69t46.5 -24z" />
    <glyph glyph-name="h" unicode="h" horiz-adv-x="551" 
d="M23 0l114 571q13 63 13.5 92t-9.5 49h131l-53 -280h5q25 30 68.5 51.5t89.5 21.5q73 0 103.5 -53.5t13.5 -138.5l-37 -194q-7 -39 -9.5 -55.5t-1 -34t9.5 -29.5h-135l60 306q22 101 -50 101q-33 0 -72 -28t-67 -68l-38 -192q-7 -41 -9.5 -56.5t-1 -33t9.5 -29.5h-135z
" />
    <glyph glyph-name="i" unicode="i" horiz-adv-x="257" 
d="M195 573q-63 0 -63 55q0 37 23 59.5t57 22.5q29 0 45.5 -15t16.5 -42q0 -37 -22 -58.5t-57 -21.5zM24 0l70 350q8 43 11 61t2 40.5t-9 39.5h137l-75 -372q-7 -35 -9.5 -54t-1 -36.5t9.5 -28.5h-135z" />
    <glyph glyph-name="j" unicode="j" horiz-adv-x="250" 
d="M195 573q-62 0 -62 55q0 37 22.5 59.5t56.5 22.5q29 0 45.5 -15t16.5 -42q0 -37 -22 -58.5t-57 -21.5zM-46 -213q-44 0 -89 13l35 101q22 -20 48 -20q30 0 49 28t33 99l70 342q8 43 10.5 61.5t2 40.5t-8.5 39h136l-97 -482q-23 -115 -67 -168.5t-122 -53.5z" />
    <glyph glyph-name="k" unicode="k" horiz-adv-x="526" 
d="M23 0l114 571q12 62 13.5 86t-9.5 55h136l-58 -290q63 82 159 82q57 0 94.5 -34t37.5 -92q0 -67 -40.5 -113t-104.5 -67l51 -104q23 -46 35 -63.5t30 -30.5h-135l-95 205l3 42q60 2 100.5 32.5t40.5 78.5q0 26 -14 40.5t-38 14.5q-36 0 -78.5 -33.5t-71.5 -89.5l-34 -172
q-11 -54 -12 -75.5t11 -42.5h-135z" />
    <glyph glyph-name="l" unicode="l" horiz-adv-x="254" 
d="M22 0l113 564q12 61 13 91t-10 57h138l-117 -586q-19 -98 2 -126h-139z" />
    <glyph glyph-name="m" unicode="m" horiz-adv-x="828" 
d="M21 0l71 356q8 39 10.5 56.5t1.5 40t-9 38.5h132l-14 -71h5q70 82 158 82q97 0 113 -91q81 91 169 91q80 0 108 -52t10 -142l-38 -189q-7 -34 -9.5 -50t-1 -37t10.5 -32h-136l59 296q22 107 -46 107q-53 0 -127 -84l-40 -200q-11 -57 -11.5 -79.5t8.5 -39.5h-133l59 296
q13 52 4 79.5t-47 27.5q-27 0 -63 -23t-68 -61l-39 -200q-11 -58 -12 -80.5t9 -38.5h-134z" />
    <glyph glyph-name="n" unicode="n" horiz-adv-x="551" 
d="M23 0l69 349q21 105 3 142h129l-10 -61h4q30 32 72 53.5t88 21.5q73 0 105.5 -51.5t16.5 -135.5l-38 -192q-11 -58 -11.5 -84t11.5 -42h-137l61 306q20 101 -51 101q-32 0 -70.5 -27.5t-67.5 -66.5l-37 -187q-20 -100 -3 -126h-134z" />
    <glyph glyph-name="o" unicode="o" horiz-adv-x="538" 
d="M226 -15q-88 0 -139 52t-51 145q0 142 78.5 232.5t197.5 90.5q89 0 140 -51.5t51 -144.5q0 -142 -79 -233t-198 -91zM240 83q60 0 104 63t44 157q0 49 -22.5 77t-66.5 28q-60 0 -104.5 -63t-44.5 -157q0 -49 23 -77t67 -28z" />
    <glyph glyph-name="p" unicode="p" horiz-adv-x="541" 
d="M-25 -200l112 553q23 110 8 138h126l-11 -55h5q64 68 143 68q70 0 110.5 -48t40.5 -137q0 -139 -80 -234t-187 -95q-62 0 -113 29l-20 -101q-18 -89 -2 -118h-132zM235 84q64 0 111.5 65.5t47.5 165.5q0 45 -17 70t-47 25q-28 0 -69 -30t-72 -75l-39 -189q35 -32 85 -32z
" />
    <glyph glyph-name="q" unicode="q" horiz-adv-x="550" 
d="M275 -200l55 259l-3 1q-63 -72 -144 -72q-70 0 -110.5 48t-40.5 137q0 137 81.5 233t184.5 96q58 0 114 -25l14 13h100l-111 -554q-12 -59 -13.5 -83t9.5 -53h-136zM212 82q32 0 72 34t72 86l36 178q-37 28 -87 28q-64 0 -111 -65.5t-47 -165.5q0 -46 17 -70.5t48 -24.5z
" />
    <glyph glyph-name="r" unicode="r" horiz-adv-x="381" 
d="M24 0l69 349q21 105 2 142h127l-10 -74h5q25 39 63.5 63t75.5 24q33 0 55 -13l-37 -109q-14 20 -39 20q-33 0 -74 -35.5t-73 -100.5l-25 -133q-11 -58 -11 -87.5t14 -45.5h-142z" />
    <glyph glyph-name="s" unicode="s" horiz-adv-x="425" 
d="M183 -12q-40 0 -75.5 9.5t-68.5 24t-44 17.5l65 113q40 -76 131 -76q32 0 52 14.5t20 42.5q0 24 -16 38.5t-50 30.5l-26 12q-100 45 -100 137q0 69 49.5 111.5t126.5 42.5q31 0 61.5 -8t58.5 -19.5t40 -14.5l-55 -107q-36 61 -110 61q-27 0 -45 -14.5t-18 -36.5
q0 -39 54 -64l29 -14q51 -24 81 -55t30 -86q0 -72 -51.5 -115.5t-138.5 -43.5z" />
    <glyph glyph-name="t" unicode="t" horiz-adv-x="369" 
d="M195 -11q-71 0 -105 47t-16 131l47 231h-69l18 92l72 1l19 91h110l-18 -91h119l-18 -93h-120l-47 -229q-19 -88 42 -88q44 0 67 25l20 -104q-11 0 -51.5 -6.5t-69.5 -6.5z" />
    <glyph glyph-name="u" unicode="u" horiz-adv-x="545" 
d="M167 -15q-70 0 -98.5 47t-12.5 131l39 202q7 38 9.5 57.5t1 38t-10.5 30.5h137l-61 -307q-22 -101 38 -101q34 0 72 32t69 78l34 172q20 100 3 126h134l-68 -348q-21 -106 0 -143h-129l8 67h-6q-29 -34 -71 -58t-88 -24z" />
    <glyph glyph-name="v" unicode="v" horiz-adv-x="496" 
d="M139 0l-51 359q-14 101 -37 132h131l34 -275q12 -92 9 -131h5q12 31 69 144.5t77 159.5q31 69 18 102h132q-19 -63 -121.5 -264.5t-108.5 -226.5h-157z" />
    <glyph glyph-name="w" unicode="w" horiz-adv-x="780" 
d="M107 0l-27 383q-3 49 -8 70.5t-18 37.5h127l14 -254q5 -112 3 -154h5q18 61 88 213q72 152 71 195h156l15 -254q6 -87 1 -153h5q10 32 52.5 127.5t70.5 174t20 105.5h122q-18 -63 -106.5 -263t-96.5 -228h-159l-13 259q-4 87 -1 132h-5q-13 -58 -46 -132
q-11 -25 -38.5 -83t-43.5 -96.5t-30 -79.5h-158z" />
    <glyph glyph-name="x" unicode="x" horiz-adv-x="462" 
d="M361 93q29 -70 54 -93h-132l-40 105l-28 81h-5q-40 -65 -48 -75l-37 -49q-28 -40 -28 -62h-135l208 270l-51 129q-29 73 -50 92h129l35 -92q16 -46 27 -85h5q36 60 52 81l26 34q29 39 26 62h135l-201 -257z" />
    <glyph glyph-name="y" unicode="y" horiz-adv-x="485" 
d="M40 -200q-19 0 -45 3.5t-37 1.5l39 114q19 -26 54 -26q61 0 103 91l7 15l-69 373q-17 91 -41 119h129l42 -272q9 -63 11 -111h5q20 46 52 110l78 167q37 80 26 106h129l-260 -526q-37 -77 -95.5 -121t-127.5 -44z" />
    <glyph glyph-name="z" unicode="z" horiz-adv-x="426" 
d="M434 491l-9 -71l-278 -330h129q68 0 98 19l-20 -109h-365l10 71l279 330h-113q-59 0 -88 -19l21 109h336z" />
    <glyph glyph-name="braceleft" unicode="{" horiz-adv-x="367" 
d="M231 -164l-64 11q-56 9 -82.5 30t-26.5 65q0 43 25.5 128.5t25.5 120.5q0 57 -75 46l16 82q83 -13 98 65q6 33 13.5 91.5t14.5 94.5q14 72 50.5 100.5t108.5 39.5l68 10l-17 -90l-27 4q-34 5 -51.5 -15t-25.5 -63q-8 -39 -17 -101t-9 -64q-10 -51 -30 -76.5t-58 -34.5v-4
q49 -13 49 -75q0 -50 -24 -132.5t-24 -112.5q0 -25 11.5 -35t39.5 -6l27 4z" />
    <glyph glyph-name="bar" unicode="|" horiz-adv-x="482" 
d="M90 -165q21 26 36 107l128 660q16 80 5 108h134q-21 -24 -36 -108l-128 -660q-16 -82 -6 -107h-133z" />
    <glyph glyph-name="braceright" unicode="}" horiz-adv-x="366" 
d="M-24 -164l18 91l26 -5q34 -5 51 14.5t26 64.5q3 12 27 164q10 51 29.5 76.5t57.5 34.5l1 4q-50 13 -50 75q0 47 24.5 129t24.5 116q0 49 -52 41l-27 -4l16 83l64 -10q55 -9 82 -30.5t27 -65.5q0 -42 -25.5 -128t-25.5 -118q0 -57 76 -46l-17 -88q-45 8 -69 -11.5
t-29 -50.5q-5 -29 -13 -88.5t-15 -96.5q-14 -72 -49.5 -101t-108.5 -40z" />
    <glyph glyph-name="asciitilde" unicode="~" horiz-adv-x="487" 
d="M306 290q-40 0 -79.5 25.5t-57.5 25.5q-30 0 -41 -51h-86q14 72 52.5 108.5t85.5 36.5q40 0 80 -25.5t58 -25.5q31 0 41 50h86q-14 -71 -53 -107.5t-86 -36.5z" />
    <glyph glyph-name="exclamdown" unicode="&#xa1;" horiz-adv-x="308" 
d="M244 541q28 0 45.5 -16.5t17.5 -42.5q0 -40 -27.5 -68t-66.5 -28q-28 0 -44.5 16t-16.5 44q0 39 27 67t65 28zM249 292l-57 -292q-8 -42 -11 -63t-2 -43t9 -35h-152q16 18 25 44.5t23 96.5l57 292h108z" />
    <glyph glyph-name="cent" unicode="&#xa2;" horiz-adv-x="474" 
d="M356 502q27 -1 48 -5t46.5 -12t26.5 -8l-55 -110q-26 35 -85 38l-61 -320q64 3 109 41l12 -109q-97 -26 -141 -28q-9 -60 -3 -87l-102 1q19 33 31 89q-143 24 -143 176q0 132 66.5 222t175.5 109q11 62 4 93h101q-20 -41 -30 -90zM260 391q-48 -23 -76 -76.5t-28 -125.5
q0 -70 46 -92z" />
    <glyph glyph-name="sterling" unicode="&#xa3;" horiz-adv-x="485" 
d="M332 546q-52 0 -81 -39.5t-29 -107.5q0 -27 8 -75h79q41 0 58 10l-16 -86q-14 10 -54 10h-56q1 -9 1 -27q0 -90 -50 -137h121q86 2 121 21l-24 -122q-35 7 -115 7h-307q23 35 32 77l1 5q53 0 81 33.5t28 84.5q0 28 -6 58h-31q-41 0 -58 -10l16 86q14 -10 54 -10h10
q-4 24 -4 56q0 124 66.5 187.5t162.5 63.5q69 0 134 -29l-37 -105q-32 49 -105 49z" />
    <glyph glyph-name="currency" unicode="&#xa4;" horiz-adv-x="527" 
d="M406 182q39 -45 66 -57l-93 -77q-9 35 -42 76q-50 -26 -102 -26t-91 25q-51 -43 -73 -75l-62 77q34 14 86 57q-11 27 -11 59q0 76 51 137q-42 46 -66 57l92 77q11 -36 45 -77q47 25 99 25q54 0 91 -26q54 48 72 76l63 -77q-38 -14 -87 -57q11 -27 11 -59q0 -75 -49 -135z
M253 191q42 0 69 32.5t27 82.5q0 61 -62 61q-42 0 -69 -32.5t-27 -82.5q0 -61 62 -61z" />
    <glyph glyph-name="yen" unicode="&#xa5;" horiz-adv-x="564" 
d="M473 623h147q-43 -40 -96 -114l-149 -211h50q40 0 57 10l-15 -79h-131l-9 -45h131l-15 -79q-14 10 -54 10h-75q-15 -77 0 -115h-159q29 40 45 115h-71q-41 0 -58 -10l15 79h127l9 45h-127l15 79q14 -10 55 -10h44l-66 211q-23 72 -52 114h153q-7 -22 -5.5 -41t14.5 -65
l49 -180l120 180q51 77 51 106z" />
    <glyph glyph-name="brokenbar" unicode="&#xa6;" horiz-adv-x="482" 
d="M334 484l-31 -156l-2 -8h16q-13 -15 -22 -45q-3 -33 5 -50h-17l-2 -8l-30 -157q-15 -75 -4 -103h-134q21 25 36 103l30 157l2 8h-15q12 15 22 46q3 31 -5 49h16l2 8l31 156q14 77 3 103h134q-20 -25 -35 -103z" />
    <glyph glyph-name="section" unicode="&#xa7;" horiz-adv-x="655" 
d="M215 -102q-101 0 -151 27l26 138q12 -32 43 -52.5t72 -20.5q43 0 76.5 35t33.5 80q0 33 -25 72t-54.5 71t-54.5 80.5t-25 97.5q0 112 85.5 187t211.5 75q43 0 85 -9.5t60 -21.5l-27 -133q-8 33 -39 52.5t-71 19.5q-37 0 -66 -35.5t-29 -81.5q0 -34 26 -74.5t56.5 -72.5
t56.5 -80.5t26 -97.5q0 -113 -88.5 -184.5t-227.5 -71.5zM329 -13q52 16 84 58.5t32 95.5q0 35 -17 69.5t-41 63.5t-47.5 57.5t-40.5 61.5t-17 65q0 34 19.5 73.5t46.5 61.5q-49 -15 -80 -58t-31 -94q0 -35 17 -70t41 -64.5t47.5 -58.5t40.5 -62t17 -65q0 -33 -20 -71.5
t-51 -62.5z" />
    <glyph glyph-name="dieresis" unicode="&#xa8;" horiz-adv-x="473" 
d="M203 587q-21 0 -33.5 12.5t-12.5 32.5q0 27 20.5 47.5t48.5 20.5q20 0 32.5 -12.5t12.5 -32.5q0 -27 -20 -47.5t-48 -20.5zM404 587q-21 0 -33.5 12.5t-12.5 32.5q0 26 20.5 47t47.5 21q21 0 33.5 -12.5t12.5 -32.5q0 -27 -20.5 -47.5t-47.5 -20.5z" />
    <glyph glyph-name="copyright" unicode="&#xa9;" horiz-adv-x="879" 
d="M375 -24q-126 0 -208 81t-82 202q0 178 123 298t304 120q125 0 207 -81t82 -202q0 -172 -123.5 -295t-302.5 -123zM390 54q134 0 233 99t99 229q0 96 -63 156.5t-162 60.5q-135 0 -233.5 -96t-98.5 -231q0 -97 63 -157.5t162 -60.5zM416 130q-69 0 -109.5 36t-40.5 106
q0 111 63.5 181.5t160.5 70.5q22 0 52.5 -4.5t41.5 -4.5l-21 -94q-26 30 -76 30q-57 0 -93 -49t-38 -111q-1 -48 19.5 -68t63.5 -20q50 0 87 30l-14 -94q-10 0 -42.5 -4.5t-53.5 -4.5z" />
    <glyph glyph-name="ordfeminine" unicode="&#xaa;" horiz-adv-x="407" 
d="M131 272q-45 0 -72 24t-27 65q0 68 53.5 106t149.5 38h44l5 23q5 34 -6.5 47.5t-49.5 13.5q-71 0 -118 -42l-12 88q12 1 63 17t88 16q156 0 129 -141l-30 -149q-15 -70 -4 -96h-102l12 43h-6q-47 -53 -117 -53zM169 344q21 0 48 18.5t43 42.5l6 32h-44q-96 0 -96 -58
q0 -35 43 -35z" />
    <glyph glyph-name="guillemotleft" unicode="&#xab;" horiz-adv-x="480" 
d="M162 56q-22 42 -56 85t-64 63l19 96q39 21 90 64.5t87 83.5l38 -42q-75 -91 -149 -154q53 -68 88 -156zM325 56q-22 42 -56 85t-64 63l19 96q39 21 90 64.5t87 83.5l38 -42q-75 -91 -149 -154q55 -71 89 -156z" />
    <glyph glyph-name="logicalnot" unicode="&#xac;" horiz-adv-x="434" 
d="M384 389q-14 -18 -21 -56l-20 -103q-9 -39 -1 -56h-110q14 17 21 56l13 66h-166q-41 0 -58 -10l22 113q13 -10 54 -10h266z" />
    <glyph glyph-name="uni00AD" unicode="&#xad;" horiz-adv-x="326" 
d="M37 207l18 89h236l-18 -89h-236z" />
    <glyph glyph-name="registered" unicode="&#xae;" horiz-adv-x="556" 
d="M378 763q88 0 143.5 -55t55.5 -138q0 -117 -84.5 -200.5t-205.5 -83.5q-87 0 -142.5 55.5t-55.5 139.5q0 117 84 199.5t205 82.5zM299 345q88 0 152.5 63t64.5 152q0 64 -41.5 105t-107.5 41q-88 0 -152.5 -63t-64.5 -152q0 -64 41.5 -105t107.5 -41zM365 642
q77 0 77 -57q0 -32 -19.5 -56t-51.5 -32l17 -42q10 -26 27 -44h-76q7 13 -2 37l-14 44h-27l-7 -34q-6 -31 0 -47h-76q15 16 22 47l26 136q6 30 -3 48h107zM333 529q25 0 39.5 13t14.5 35q0 28 -39 28h-31l-15 -76h31z" />
    <glyph glyph-name="macron" unicode="&#xaf;" horiz-adv-x="453" 
d="M148 590l12 66h266l-12 -66h-266z" />
    <glyph glyph-name="degree" unicode="&#xb0;" horiz-adv-x="420" 
d="M182 397q-54 0 -88 34t-34 85q0 68 54.5 121t124.5 53q53 0 87 -33.5t34 -84.5q0 -68 -54.5 -121.5t-123.5 -53.5zM195 460q38 0 67 30.5t29 72.5q0 29 -17.5 46.5t-46.5 17.5q-40 0 -69 -31t-29 -72q0 -29 18 -46.5t48 -17.5z" />
    <glyph glyph-name="plusminus" unicode="&#xb1;" horiz-adv-x="492" 
d="M388 389q39 0 58 10l-21 -105q-14 10 -54 10h-64l-12 -61q-8 -40 -1 -56h-110q14 20 21 56l12 61h-64q-41 0 -58 -10l21 105q13 -10 54 -10h64l12 62q7 40 1 56h109q-14 -19 -21 -56l-12 -62h65zM121 138h218q41 0 58 10l-21 -105q-14 10 -54 10h-218q-41 0 -58 -10
l21 105q13 -10 54 -10z" />
    <glyph glyph-name="uni00B2" unicode="&#xb2;" horiz-adv-x="361" 
d="M79 409l9 62q106 61 162.5 111.5t56.5 98.5q0 21 -13 34t-35 13q-57 0 -97 -57l-28 82q13 2 59.5 23t85.5 21q52 0 83 -26.5t31 -72.5q0 -108 -180 -218h72q63 0 89 18l-17 -89h-278z" />
    <glyph glyph-name="uni00B3" unicode="&#xb3;" horiz-adv-x="356" 
d="M203 397q-40 0 -83.5 19t-51.5 21l57 81q22 -56 84 -56q33 0 55 17.5t22 43.5q0 50 -104 50l11 58q52 0 81.5 17t29.5 47q0 37 -47 37t-88 -43l-21 77q10 1 53.5 16t77.5 15q50 0 80 -21.5t30 -61.5t-24.5 -68t-69.5 -40q73 -15 73 -79q0 -57 -47 -93.5t-118 -36.5z" />
    <glyph glyph-name="acute" unicode="&#xb4;" horiz-adv-x="374" 
d="M187 571l-33 51q94 52 182 163l50 -68q-78 -95 -199 -146z" />
    <glyph glyph-name="uni00B5" unicode="&#xb5;" horiz-adv-x="667" 
d="M611 491l-71 -366q-17 -89 -5 -125h-129q6 32 19 70h-9q-27 -37 -69 -59.5t-89 -22.5q-26 0 -44 7l-7 -36q-17 -92 -6 -131h-156q33 43 49 131l53 275h1l26 132q15 88 1 125h136l-66 -337q-14 -68 56 -68q33 0 71 24t65 64l38 192q18 89 1 125h135z" />
    <glyph glyph-name="paragraph" unicode="&#xb6;" horiz-adv-x="547" 
d="M68 -100l25 129q44 -28 81 -9.5t48 73.5l41 211q-30 -10 -67 -10q-69 0 -108 39.5t-39 105.5q0 103 72.5 170.5t182.5 67.5h189l-22 -113q-13 17 -49 17l-94 -482q-39 -199 -260 -199zM227 381q29 0 52 10l38 190h-52z" />
    <glyph glyph-name="periodcentered" unicode="&#xb7;" horiz-adv-x="267" 
d="M119 233q-25 0 -41.5 16t-16.5 41q0 36 25.5 62.5t61.5 26.5q25 0 41.5 -16t16.5 -41q0 -36 -25.5 -62.5t-61.5 -26.5z" />
    <glyph glyph-name="cedilla" unicode="&#xb8;" horiz-adv-x="344" 
d="M-3 -230l2 56q53 -7 84 5.5t31 40.5q0 34 -66 38l45 94h41l-19 -57q77 -12 77 -66q0 -52 -52 -81.5t-143 -29.5z" />
    <glyph glyph-name="uni00B9" unicode="&#xb9;" horiz-adv-x="333" 
d="M77 409l11 53l90 19l42 215h-89l12 59q48 0 99.5 11.5t80.5 25.5l-61 -311l80 -19l-11 -53h-254z" />
    <glyph glyph-name="ordmasculine" unicode="&#xba;" horiz-adv-x="426" 
d="M175 272q-67 0 -106 35.5t-39 104.5q0 111 63 183.5t159 72.5q67 0 105.5 -35.5t38.5 -104.5q0 -111 -62.5 -183.5t-158.5 -72.5zM190 352q48 0 79.5 47t31.5 121q0 69 -65 69q-47 0 -78.5 -48t-31.5 -121q0 -68 64 -68z" />
    <glyph glyph-name="guillemotright" unicode="&#xbb;" horiz-adv-x="496" 
d="M80 56l-39 40q75 91 150 156q-56 73 -89 154l54 42q20 -41 54.5 -84t65.5 -64l-19 -96q-39 -21 -89.5 -64t-87.5 -84zM259 56l-39 40q69 86 150 156q-55 71 -90 154l55 42q20 -41 54.5 -84t64.5 -64l-18 -96q-39 -21 -89.5 -64t-87.5 -84z" />
    <glyph glyph-name="onequarter" unicode="&#xbc;" horiz-adv-x="802" 
d="M174 -12l486 680h86l-486 -680h-86zM52 280l11 53l90 19l42 215h-89l12 59q48 0 99.5 11.5t80.5 25.5l-61 -311l80 -19l-11 -53h-254zM582 0q23 18 34 79l3 15h-178l10 48l206 234h91l-42 -223q42 0 59 14l-14 -73h-58l-2 -15q-7 -40 -7 -54.5t9 -24.5h-111zM528 153h103
l28 149z" />
    <glyph glyph-name="onehalf" unicode="&#xbd;" horiz-adv-x="869" 
d="M174 -12l486 680h86l-487 -680h-85zM52 280l11 53l90 19l42 215h-89l12 59q48 0 99.5 11.5t80.5 25.5l-61 -311l80 -19l-11 -53h-254zM507 0l9 62q106 61 162.5 111.5t56.5 98.5q0 21 -13 34t-35 13q-57 0 -97 -57l-28 82q13 2 59.5 23t85.5 21q52 0 83 -26.5t31 -72.5
q0 -108 -180 -218h72q63 0 89 18l-17 -89h-278z" />
    <glyph glyph-name="threequarters" unicode="&#xbe;" horiz-adv-x="787" 
d="M178 268q-40 0 -83.5 19t-51.5 21l57 81q22 -56 84 -56q33 0 55 17.5t22 43.5q0 50 -104 50l11 58q52 0 81.5 17t29.5 47q0 37 -47 37t-88 -43l-21 77q10 1 53.5 16t77.5 15q50 0 80 -21.5t30 -61.5t-24.5 -68t-69.5 -40q73 -15 73 -79q0 -57 -47 -93.5t-118 -36.5z
M160 -12l486 680h85l-486 -680h-85zM567 0q22 17 34 79l3 15h-178l9 48l207 234h90l-42 -223q42 0 60 14l-14 -73h-58l-2 -15q-7 -41 -7 -52.5t9 -26.5h-111zM512 153h103l29 149z" />
    <glyph glyph-name="questiondown" unicode="&#xbf;" horiz-adv-x="432" 
d="M293 503q28 0 44 -15t16 -40q0 -38 -25.5 -64t-62.5 -26q-28 0 -44.5 14.5t-16.5 40.5q0 38 25.5 64t63.5 26zM304 271q-9 -47 -29 -82t-42.5 -53.5t-47 -36.5t-44 -32.5t-32 -40t-12.5 -59.5q0 -30 20.5 -46.5t52.5 -16.5q80 0 128 57l35 -104q-19 -1 -80 -23.5
t-108 -22.5q-71 0 -114.5 34t-43.5 98q0 51 14 88.5t35 57t47.5 38.5t50 34t43.5 43.5t27 66.5h100z" />
    <glyph glyph-name="Agrave" unicode="&#xc0;" horiz-adv-x="612" 
d="M405 713q-45 21 -83 58.5t-60 85.5l69 63q31 -102 114 -165zM554 0h-157q21 27 13 116l-6 62h-221l-32 -62q-45 -87 -31 -116h-157q42 51 86 139l203 397q46 89 46 118h174q-10 -28 1 -118l50 -397q15 -114 31 -139zM226 269h170l-30 289z" />
    <glyph glyph-name="Aacute" unicode="&#xc1;" horiz-adv-x="612" 
d="M576 857q-78 -95 -199 -146l-33 51q94 52 182 163zM473 536l50 -397q15 -114 31 -139h-157q21 27 13 116l-6 62h-221l-32 -62q-45 -87 -31 -116h-157q42 51 86 139l203 397q46 89 46 118h174q-10 -28 1 -118zM226 269h170l-30 289z" />
    <glyph glyph-name="Acircumflex" unicode="&#xc2;" horiz-adv-x="612" 
d="M414 815q-54 -65 -142 -109l-34 38q81 56 139 137h100q28 -82 87 -137l-47 -38q-71 45 -99 109h-4zM473 536l50 -397q15 -114 31 -139h-157q21 27 13 116l-6 62h-221l-32 -62q-45 -87 -31 -116h-157q42 51 86 139l203 397q46 89 46 118h174q-10 -28 1 -118zM226 269h170
l-30 289z" />
    <glyph glyph-name="Atilde" unicode="&#xc3;" horiz-adv-x="612" 
d="M334 792q-20 0 -27 -14t-4 -47l-74 4q10 63 39.5 95.5t75.5 32.5q25 0 45.5 -11t32 -24.5t25.5 -24.5t27 -11q37 0 31 61l74 -5q-10 -62 -40 -94.5t-76 -32.5q-25 0 -45.5 11t-32 24.5t-25.5 24.5t-26 11zM473 536l50 -397q15 -114 31 -139h-157q21 27 13 116l-6 62h-221
l-32 -62q-45 -87 -31 -116h-157q42 51 86 139l203 397q46 89 46 118h174q-10 -28 1 -118zM226 269h170l-30 289z" />
    <glyph glyph-name="Adieresis" unicode="&#xc4;" horiz-adv-x="612" 
d="M300 727q-21 0 -33.5 12.5t-12.5 32.5q0 27 20.5 47.5t48.5 20.5q20 0 32.5 -12.5t12.5 -32.5q0 -27 -20 -47.5t-48 -20.5zM501 727q-21 0 -33.5 12.5t-12.5 32.5q0 26 20.5 47t47.5 21q21 0 33.5 -12.5t12.5 -32.5q0 -27 -20.5 -47.5t-47.5 -20.5zM473 536l50 -397
q15 -114 31 -139h-157q21 27 13 116l-6 62h-221l-32 -62q-45 -87 -31 -116h-157q42 51 86 139l203 397q46 89 46 118h174q-10 -28 1 -118zM226 269h170l-30 289z" />
    <glyph glyph-name="Aring" unicode="&#xc5;" horiz-adv-x="612" 
d="M392 693q-46 0 -71 22t-25 58q0 50 39 84.5t95 34.5q45 0 70.5 -22t25.5 -57q0 -50 -38.5 -85t-95.5 -35zM422 846q-27 0 -44.5 -19.5t-17.5 -48.5q0 -18 11 -28.5t29 -10.5q27 0 45 19.5t18 48.5q0 18 -11.5 28.5t-29.5 10.5zM554 0h-157q21 27 13 116l-6 62h-221
l-32 -62q-45 -87 -31 -116h-157q42 51 86 139l203 397q46 89 46 118h174q-10 -28 1 -118l50 -397q15 -114 31 -139zM226 269h170l-30 289z" />
    <glyph glyph-name="AE" unicode="&#xc6;" horiz-adv-x="843" 
d="M755 -7q-43 7 -128 7h-285q30 41 43 113l12 58h-189l-34 -46q-59 -84 -53 -125h-166q43 42 123 158l247 361q39 58 52 86t10 49h357q82 0 127 7l-24 -120q-35 16 -122 16h-140l-33 -169h99q93 0 125 12l-23 -120q-29 11 -121 11h-99l-38 -194h150q90 0 134 16zM267 260
h147l59 307h-4z" />
    <glyph glyph-name="Ccedilla" unicode="&#xc7;" horiz-adv-x="559" 
d="M372 566q-84 0 -141.5 -90t-57.5 -210q0 -179 133 -179q104 0 155 53l34 -117q-15 0 -78.5 -17.5t-112.5 -19.5l-13 -39q77 -12 77 -66q0 -52 -52 -81.5t-143 -29.5l2 56q53 -7 84 5.5t31 40.5q0 34 -66 38l37 77q-99 8 -152.5 75t-53.5 192q0 176 90 294.5t237 118.5
q44 0 80.5 -11.5t64.5 -25t42 -15.5l-61 -113q-17 26 -54 45t-82 19z" />
    <glyph glyph-name="Egrave" unicode="&#xc8;" horiz-adv-x="525" 
d="M354 711q-45 21 -83 58.5t-60 85.5l69 63q31 -102 114 -165zM437 -7q-45 7 -126 7h-298q29 34 48 131l76 392q20 93 3 131h285q77 0 125 7l-24 -120q-36 16 -120 16h-150l-32 -169h110q88 0 124 11l-23 -119q-29 11 -120 11h-110l-38 -194h162q88 0 131 16z" />
    <glyph glyph-name="Eacute" unicode="&#xc9;" horiz-adv-x="525" 
d="M326 709l-33 51q94 52 182 163l50 -68q-78 -95 -199 -146zM437 -7q-45 7 -126 7h-298q29 34 48 131l76 392q20 93 3 131h285q77 0 125 7l-24 -120q-36 16 -120 16h-150l-32 -169h110q88 0 124 11l-23 -119q-29 11 -120 11h-110l-38 -194h162q88 0 131 16z" />
    <glyph glyph-name="Ecircumflex" unicode="&#xca;" horiz-adv-x="525" 
d="M221 704l-34 38q81 56 139 137h100q28 -82 87 -137l-47 -38q-71 45 -99 109h-4q-54 -65 -142 -109zM437 -7q-45 7 -126 7h-298q29 34 48 131l76 392q20 93 3 131h285q77 0 125 7l-24 -120q-36 16 -120 16h-150l-32 -169h110q88 0 124 11l-23 -119q-29 11 -120 11h-110
l-38 -194h162q88 0 131 16z" />
    <glyph glyph-name="Edieresis" unicode="&#xcb;" horiz-adv-x="525" 
d="M249 725q-21 0 -33.5 12.5t-12.5 32.5q0 27 20.5 47.5t48.5 20.5q20 0 32.5 -12.5t12.5 -32.5q0 -27 -20 -47.5t-48 -20.5zM450 725q-21 0 -33.5 12.5t-12.5 32.5q0 26 20.5 47t47.5 21q21 0 33.5 -12.5t12.5 -32.5q0 -27 -20.5 -47.5t-47.5 -20.5zM437 -7q-45 7 -126 7
h-298q29 34 48 131l76 392q20 93 3 131h285q77 0 125 7l-24 -120q-36 16 -120 16h-150l-32 -169h110q88 0 124 11l-23 -119q-29 11 -120 11h-110l-38 -194h162q88 0 131 16z" />
    <glyph glyph-name="Igrave" unicode="&#xcc;" horiz-adv-x="279" 
d="M240 713q-45 21 -83 58.5t-60 85.5l69 63q31 -102 114 -165zM13 0q18 23 27.5 50t20.5 81l76 392q18 95 2 131h159q-30 -41 -48 -131l-76 -392q-19 -95 -3 -131h-158z" />
    <glyph glyph-name="Iacute" unicode="&#xcd;" horiz-adv-x="279" 
d="M212 711l-33 51q94 52 182 163l50 -68q-78 -95 -199 -146zM13 0q18 23 27.5 50t20.5 81l76 392q18 95 2 131h159q-30 -41 -48 -131l-76 -392q-19 -95 -3 -131h-158z" />
    <glyph glyph-name="Icircumflex" unicode="&#xce;" horiz-adv-x="279" 
d="M107 706l-34 38q81 56 139 137h100q28 -82 87 -137l-47 -38q-71 45 -99 109h-4q-54 -65 -142 -109zM13 0q18 23 27.5 50t20.5 81l76 392q18 95 2 131h159q-30 -41 -48 -131l-76 -392q-19 -95 -3 -131h-158z" />
    <glyph glyph-name="Idieresis" unicode="&#xcf;" horiz-adv-x="279" 
d="M135 727q-21 0 -33.5 12.5t-12.5 32.5q0 27 20.5 47.5t48.5 20.5q20 0 32.5 -12.5t12.5 -32.5q0 -27 -20 -47.5t-48 -20.5zM336 727q-21 0 -33.5 12.5t-12.5 32.5q0 26 20.5 47t47.5 21q21 0 33.5 -12.5t12.5 -32.5q0 -27 -20.5 -47.5t-47.5 -20.5zM13 0q18 23 27.5 50
t20.5 81l76 392q18 95 2 131h159q-30 -41 -48 -131l-76 -392q-19 -95 -3 -131h-158z" />
    <glyph glyph-name="Eth" unicode="&#xd0;" horiz-adv-x="625" 
d="M337 654q123 0 194 -64.5t71 -186.5q0 -196 -96.5 -299.5t-277.5 -103.5h-208q33 35 50 131l30 157h-53l15 81h54l30 154q19 97 1 131h190zM238 96q116 0 181.5 75.5t65.5 217.5q0 169 -163 169h-56l-36 -189h103l-16 -81h-103l-37 -192h61z" />
    <glyph glyph-name="Ntilde" unicode="&#xd1;" horiz-adv-x="659" 
d="M497 721q-25 0 -45.5 11t-32 24.5t-25.5 24.5t-26 11q-20 0 -27 -14t-4 -47l-74 4q10 63 39.5 95.5t75.5 32.5q25 0 45.5 -11t32 -24.5t25.5 -24.5t27 -11q37 0 31 61l74 -5q-10 -62 -40 -94.5t-76 -32.5zM13 0q29 34 48 131l76 392q19 88 3 131h148l178 -461h5
q-2 60 10 118l43 222q14 83 2 121h152q-29 -36 -49 -131l-72 -374q-21 -108 -6 -149h-128l-192 498h-5q2 -62 -9 -118l-49 -252q-19 -91 -4 -128h-151z" />
    <glyph glyph-name="Ograve" unicode="&#xd2;" horiz-adv-x="647" 
d="M409 713q-45 21 -83 58.5t-60 85.5l69 63q31 -102 114 -165zM291 -12q-105 0 -169.5 72t-64.5 199q0 177 86 292t245 115q105 0 170 -71.5t65 -197.5q0 -115 -36.5 -206t-113 -147t-182.5 -56zM300 89q96 0 150.5 85.5t54.5 212.5q0 86 -36.5 132t-90.5 46
q-96 0 -149.5 -84.5t-53.5 -212.5q0 -86 35.5 -132.5t89.5 -46.5z" />
    <glyph glyph-name="Oacute" unicode="&#xd3;" horiz-adv-x="647" 
d="M382 711l-33 51q94 52 182 163l50 -68q-78 -95 -199 -146zM291 -12q-105 0 -169.5 72t-64.5 199q0 177 86 292t245 115q105 0 170 -71.5t65 -197.5q0 -115 -36.5 -206t-113 -147t-182.5 -56zM300 89q96 0 150.5 85.5t54.5 212.5q0 86 -36.5 132t-90.5 46
q-96 0 -149.5 -84.5t-53.5 -212.5q0 -86 35.5 -132.5t89.5 -46.5z" />
    <glyph glyph-name="Ocircumflex" unicode="&#xd4;" horiz-adv-x="647" 
d="M276 706l-34 38q81 56 139 137h100q28 -82 87 -137l-47 -38q-71 45 -99 109h-4q-54 -65 -142 -109zM291 -12q-105 0 -169.5 72t-64.5 199q0 177 86 292t245 115q105 0 170 -71.5t65 -197.5q0 -115 -36.5 -206t-113 -147t-182.5 -56zM300 89q96 0 150.5 85.5t54.5 212.5
q0 86 -36.5 132t-90.5 46q-96 0 -149.5 -84.5t-53.5 -212.5q0 -86 35.5 -132.5t89.5 -46.5z" />
    <glyph glyph-name="Otilde" unicode="&#xd5;" horiz-adv-x="647" 
d="M467 721q-25 0 -45.5 11t-32 24.5t-25.5 24.5t-26 11q-20 0 -27 -14t-4 -47l-74 4q10 63 39.5 95.5t75.5 32.5q25 0 45.5 -11t32 -24.5t25.5 -24.5t27 -11q37 0 31 61l74 -5q-10 -62 -40 -94.5t-76 -32.5zM291 -12q-105 0 -169.5 72t-64.5 199q0 177 86 292t245 115
q105 0 170 -71.5t65 -197.5q0 -115 -36.5 -206t-113 -147t-182.5 -56zM300 89q96 0 150.5 85.5t54.5 212.5q0 86 -36.5 132t-90.5 46q-96 0 -149.5 -84.5t-53.5 -212.5q0 -86 35.5 -132.5t89.5 -46.5z" />
    <glyph glyph-name="Odieresis" unicode="&#xd6;" horiz-adv-x="647" 
d="M304 727q-21 0 -33.5 12.5t-12.5 32.5q0 27 20.5 47.5t48.5 20.5q20 0 32.5 -12.5t12.5 -32.5q0 -27 -20 -47.5t-48 -20.5zM505 727q-21 0 -33.5 12.5t-12.5 32.5q0 26 20.5 47t47.5 21q21 0 33.5 -12.5t12.5 -32.5q0 -27 -20.5 -47.5t-47.5 -20.5zM291 -12
q-105 0 -169.5 72t-64.5 199q0 177 86 292t245 115q105 0 170 -71.5t65 -197.5q0 -115 -36.5 -206t-113 -147t-182.5 -56zM300 89q96 0 150.5 85.5t54.5 212.5q0 86 -36.5 132t-90.5 46q-96 0 -149.5 -84.5t-53.5 -212.5q0 -86 35.5 -132.5t89.5 -46.5z" />
    <glyph glyph-name="multiply" unicode="&#xd7;" horiz-adv-x="482" 
d="M359 230q22 -29 40 -32l-92 -78q0 17 -23 46l-55 68l-85 -71q-35 -32 -41 -46l-63 77q20 5 53 32l85 71l-55 68q-27 30 -40 32l93 78q0 -17 23 -46l55 -68l84 71q34 29 41 46l63 -77q-18 -4 -53 -32l-85 -71z" />
    <glyph glyph-name="Oslash" unicode="&#xd8;" horiz-adv-x="665" 
d="M570 580q54 -71 54 -184q0 -177 -87 -293t-246 -116q-75 0 -130 38l-32 -43l-56 34l40 54q-55 71 -55 187q0 115 35.5 205.5t111.5 146.5t183 56q78 0 135 -40l33 44l56 -33zM175 267q0 -55 15 -93l266 359q-32 31 -77 31q-96 0 -150 -84.5t-54 -212.5zM301 88
q95 0 150 85.5t55 212.5q0 51 -14 88l-264 -358q31 -28 73 -28z" />
    <glyph glyph-name="Ugrave" unicode="&#xd9;" horiz-adv-x="648" 
d="M420 713q-45 21 -83 58.5t-60 85.5l69 63q31 -102 114 -165zM281 -12q-117 0 -170.5 68.5t-26.5 211.5l50 255q17 99 2 131h159q-31 -39 -49 -131l-48 -250q-36 -187 96 -187q135 0 171 187l48 250q19 96 3 131h154q-31 -40 -48 -131l-50 -255q-28 -145 -98 -212.5
t-193 -67.5z" />
    <glyph glyph-name="Uacute" unicode="&#xda;" horiz-adv-x="648" 
d="M393 711l-33 51q94 52 182 163l50 -68q-78 -95 -199 -146zM281 -12q-117 0 -170.5 68.5t-26.5 211.5l50 255q17 99 2 131h159q-31 -39 -49 -131l-48 -250q-36 -187 96 -187q135 0 171 187l48 250q19 96 3 131h154q-31 -40 -48 -131l-50 -255q-28 -145 -98 -212.5
t-193 -67.5z" />
    <glyph glyph-name="Ucircumflex" unicode="&#xdb;" horiz-adv-x="648" 
d="M287 706l-34 38q81 56 139 137h100q28 -82 87 -137l-47 -38q-71 45 -99 109h-4q-54 -65 -142 -109zM281 -12q-117 0 -170.5 68.5t-26.5 211.5l50 255q17 99 2 131h159q-31 -39 -49 -131l-48 -250q-36 -187 96 -187q135 0 171 187l48 250q19 96 3 131h154
q-31 -40 -48 -131l-50 -255q-28 -145 -98 -212.5t-193 -67.5z" />
    <glyph glyph-name="Udieresis" unicode="&#xdc;" horiz-adv-x="648" 
d="M315 727q-21 0 -33.5 12.5t-12.5 32.5q0 27 20.5 47.5t48.5 20.5q20 0 32.5 -12.5t12.5 -32.5q0 -27 -20 -47.5t-48 -20.5zM516 727q-21 0 -33.5 12.5t-12.5 32.5q0 26 20.5 47t47.5 21q21 0 33.5 -12.5t12.5 -32.5q0 -27 -20.5 -47.5t-47.5 -20.5zM281 -12
q-117 0 -170.5 68.5t-26.5 211.5l50 255q17 99 2 131h159q-31 -39 -49 -131l-48 -250q-36 -187 96 -187q135 0 171 187l48 250q19 96 3 131h154q-31 -40 -48 -131l-50 -255q-28 -145 -98 -212.5t-193 -67.5z" />
    <glyph glyph-name="Yacute" unicode="&#xdd;" horiz-adv-x="552" 
d="M546 857q-78 -95 -199 -146l-33 51q94 52 182 163zM469 654h151q-22 -19 -36 -37t-47 -68l-205 -306l-22 -112q-20 -98 -2 -131h-161q17 20 27 46.5t22 84.5l23 111l-86 310q-20 71 -42 102h153q-8 -18 -7.5 -38t11.5 -68l49 -206l130 206q27 43 35.5 63.5t6.5 42.5z" />
    <glyph glyph-name="Thorn" unicode="&#xde;" horiz-adv-x="569" 
d="M13 0q12 13 20.5 33.5t12.5 38t12 55.5l78 400q19 98 4 128h154q-27 -35 -43 -119h79q99 0 155.5 -43t56.5 -125q0 -110 -76.5 -171t-209.5 -61h-84q-18 -105 -4 -136h-155zM191 231h69q85 0 126.5 30.5t41.5 97.5q0 82 -128 82h-68z" />
    <glyph glyph-name="germandbls" unicode="&#xdf;" horiz-adv-x="571" 
d="M332 -12q-38 0 -81 13t-53 15l50 110q31 -46 87 -46q37 0 58 20.5t21 58.5q0 27 -12.5 48t-31 35t-36.5 28t-30.5 36t-12.5 51q0 28 12.5 50.5t31 38t36.5 30t31 33.5t13 43q1 30 -19.5 48t-54.5 18q-40 0 -69.5 -35.5t-43.5 -100.5l-74 -363q-7 -38 -9.5 -55.5t-1 -35
t10.5 -28.5h-135l96 486q21 107 80 167t157 60q73 0 121.5 -41t48.5 -108q0 -45 -20 -78t-43.5 -47.5t-43.5 -32t-20 -35.5q0 -15 13 -29t31.5 -28t37.5 -32t32 -47t13 -65q0 -87 -52.5 -134.5t-137.5 -47.5z" />
    <glyph glyph-name="agrave" unicode="&#xe0;" 
d="M344 563q-45 21 -83 58.5t-60 85.5l69 63q31 -102 114 -165zM181 -12q-68 0 -108 48t-40 135q0 142 80.5 236.5t183.5 94.5q58 0 116 -30l9 17h104l-72 -353q-22 -103 -4 -136h-120q-5 30 1 58h-5q-29 -31 -68 -50.5t-77 -19.5zM212 82q61 0 140 100l39 193
q-38 33 -86 33q-64 0 -111 -64t-47 -162q0 -47 17 -73.5t48 -26.5z" />
    <glyph glyph-name="aacute" unicode="&#xe1;" 
d="M316 561l-33 51q94 52 182 163l50 -68q-78 -95 -199 -146zM181 -12q-68 0 -108 48t-40 135q0 142 80.5 236.5t183.5 94.5q58 0 116 -30l9 17h104l-72 -353q-22 -103 -4 -136h-120q-5 30 1 58h-5q-29 -31 -68 -50.5t-77 -19.5zM212 82q61 0 140 100l39 193q-38 33 -86 33
q-64 0 -111 -64t-47 -162q0 -47 17 -73.5t48 -26.5z" />
    <glyph glyph-name="acircumflex" unicode="&#xe2;" 
d="M211 556l-34 38q81 56 139 137h100q28 -82 87 -137l-47 -38q-71 45 -99 109h-4q-54 -65 -142 -109zM181 -12q-68 0 -108 48t-40 135q0 142 80.5 236.5t183.5 94.5q58 0 116 -30l9 17h104l-72 -353q-22 -103 -4 -136h-120q-5 30 1 58h-5q-29 -31 -68 -50.5t-77 -19.5z
M212 82q61 0 140 100l39 193q-38 33 -86 33q-64 0 -111 -64t-47 -162q0 -47 17 -73.5t48 -26.5z" />
    <glyph glyph-name="atilde" unicode="&#xe3;" 
d="M402 571q-25 0 -45.5 11t-32 24.5t-25.5 24.5t-26 11q-20 0 -27 -14t-4 -47l-74 4q10 63 39.5 95.5t75.5 32.5q25 0 45.5 -11t32 -24.5t25.5 -24.5t27 -11q37 0 31 61l74 -5q-10 -62 -40 -94.5t-76 -32.5zM181 -12q-68 0 -108 48t-40 135q0 142 80.5 236.5t183.5 94.5
q58 0 116 -30l9 17h104l-72 -353q-22 -103 -4 -136h-120q-5 30 1 58h-5q-29 -31 -68 -50.5t-77 -19.5zM212 82q61 0 140 100l39 193q-38 33 -86 33q-64 0 -111 -64t-47 -162q0 -47 17 -73.5t48 -26.5z" />
    <glyph glyph-name="adieresis" unicode="&#xe4;" 
d="M239 577q-21 0 -33.5 12.5t-12.5 32.5q0 27 20.5 47.5t48.5 20.5q20 0 32.5 -12.5t12.5 -32.5q0 -27 -20 -47.5t-48 -20.5zM440 577q-21 0 -33.5 12.5t-12.5 32.5q0 26 20.5 47t47.5 21q21 0 33.5 -12.5t12.5 -32.5q0 -27 -20.5 -47.5t-47.5 -20.5zM181 -12
q-68 0 -108 48t-40 135q0 142 80.5 236.5t183.5 94.5q58 0 116 -30l9 17h104l-72 -353q-22 -103 -4 -136h-120q-5 30 1 58h-5q-29 -31 -68 -50.5t-77 -19.5zM212 82q61 0 140 100l39 193q-38 33 -86 33q-64 0 -111 -64t-47 -162q0 -47 17 -73.5t48 -26.5z" />
    <glyph glyph-name="aring" unicode="&#xe5;" 
d="M332 543q-46 0 -71 22t-25 58q0 50 39 84.5t95 34.5q45 0 70.5 -22t25.5 -57q0 -50 -38.5 -85t-95.5 -35zM340 589q27 0 45 19.5t18 48.5q0 18 -11.5 28.5t-29.5 10.5q-27 0 -44.5 -19.5t-17.5 -48.5q0 -18 11 -28.5t29 -10.5zM181 -12q-68 0 -108 48t-40 135
q0 142 80.5 236.5t183.5 94.5q58 0 116 -30l9 17h104l-72 -353q-22 -103 -4 -136h-120q-5 30 1 58h-5q-29 -31 -68 -50.5t-77 -19.5zM212 82q61 0 140 100l39 193q-38 33 -86 33q-64 0 -111 -64t-47 -162q0 -47 17 -73.5t48 -26.5z" />
    <glyph glyph-name="ae" unicode="&#xe6;" horiz-adv-x="796" 
d="M573 203h-130q-5 -55 23.5 -90t74.5 -35q89 0 128 50l38 -101q-1 0 -15 -6t-20.5 -8t-22 -7.5t-27.5 -8t-28.5 -6t-33.5 -5t-35 -1.5q-122 0 -172 92q-33 -42 -81.5 -65.5t-102.5 -23.5q-69 0 -109 34t-40 91q0 88 66 134t191 46h65v1l4 25q9 49 -6.5 70.5t-64.5 21.5
q-40 0 -79.5 -15t-63.5 -40l-23 105q15 1 78.5 21.5t108.5 20.5q105 0 141 -54q67 56 155 56q81 0 128.5 -46.5t47.5 -113.5q0 -142 -195 -142zM581 414q-46 0 -80 -37t-46 -91h90q65 0 88.5 15t23.5 44t-19.5 49t-56.5 20zM316 157l9 57h-56q-140 0 -140 -80
q0 -28 18 -42.5t46 -14.5q35 0 68 22t55 58z" />
    <glyph glyph-name="ccedilla" unicode="&#xe7;" horiz-adv-x="438" 
d="M291 408q-55 0 -97.5 -65t-42.5 -151q0 -56 24.5 -83t62.5 -27q36 0 66.5 15t45.5 36l34 -107q-6 -1 -58 -20t-97 -21l-12 -37q77 -12 77 -66q0 -52 -52 -81.5t-143 -29.5l2 56q53 -7 84 5.5t31 40.5q0 34 -66 38l36 76q-71 9 -110.5 59.5t-39.5 135.5q0 147 76.5 235
t184.5 88q42 0 88.5 -18t52.5 -19l-53 -109q-12 22 -37 35.5t-57 13.5z" />
    <glyph glyph-name="egrave" unicode="&#xe8;" horiz-adv-x="504" 
d="M321 563q-45 21 -83 58.5t-60 85.5l69 63q31 -102 114 -165zM233 -15q-89 0 -143 53.5t-54 146.5q0 142 75 231t188 89q80 0 128.5 -45.5t48.5 -112.5q0 -144 -206 -144l-120 1q-6 -56 22.5 -92t77.5 -36q91 0 129 48l36 -97q-1 0 -15 -6t-20.5 -8t-22 -7.5t-27.5 -8
t-28.5 -6t-33.5 -5t-35 -1.5zM161 282h87q68 0 93.5 16.5t25.5 45.5q0 30 -20.5 50t-58.5 20q-47 0 -82 -38t-45 -94z" />
    <glyph glyph-name="eacute" unicode="&#xe9;" horiz-adv-x="504" 
d="M294 561l-33 51q94 52 182 163l50 -68q-78 -95 -199 -146zM233 -15q-89 0 -143 53.5t-54 146.5q0 142 75 231t188 89q80 0 128.5 -45.5t48.5 -112.5q0 -144 -206 -144l-120 1q-6 -56 22.5 -92t77.5 -36q91 0 129 48l36 -97q-1 0 -15 -6t-20.5 -8t-22 -7.5t-27.5 -8
t-28.5 -6t-33.5 -5t-35 -1.5zM161 282h87q68 0 93.5 16.5t25.5 45.5q0 30 -20.5 50t-58.5 20q-47 0 -82 -38t-45 -94z" />
    <glyph glyph-name="ecircumflex" unicode="&#xea;" horiz-adv-x="504" 
d="M189 556l-34 38q81 56 139 137h100q28 -82 87 -137l-47 -38q-71 45 -99 109h-4q-54 -65 -142 -109zM233 -15q-89 0 -143 53.5t-54 146.5q0 142 75 231t188 89q80 0 128.5 -45.5t48.5 -112.5q0 -144 -206 -144l-120 1q-6 -56 22.5 -92t77.5 -36q91 0 129 48l36 -97
q-1 0 -15 -6t-20.5 -8t-22 -7.5t-27.5 -8t-28.5 -6t-33.5 -5t-35 -1.5zM161 282h87q68 0 93.5 16.5t25.5 45.5q0 30 -20.5 50t-58.5 20q-47 0 -82 -38t-45 -94z" />
    <glyph glyph-name="edieresis" unicode="&#xeb;" horiz-adv-x="504" 
d="M216 577q-21 0 -33.5 12.5t-12.5 32.5q0 27 20.5 47.5t48.5 20.5q20 0 32.5 -12.5t12.5 -32.5q0 -27 -20 -47.5t-48 -20.5zM417 577q-21 0 -33.5 12.5t-12.5 32.5q0 26 20.5 47t47.5 21q21 0 33.5 -12.5t12.5 -32.5q0 -27 -20.5 -47.5t-47.5 -20.5zM233 -15
q-89 0 -143 53.5t-54 146.5q0 142 75 231t188 89q80 0 128.5 -45.5t48.5 -112.5q0 -144 -206 -144l-120 1q-6 -56 22.5 -92t77.5 -36q91 0 129 48l36 -97q-1 0 -15 -6t-20.5 -8t-22 -7.5t-27.5 -8t-28.5 -6t-33.5 -5t-35 -1.5zM161 282h87q68 0 93.5 16.5t25.5 45.5
q0 30 -20.5 50t-58.5 20q-47 0 -82 -38t-45 -94z" />
    <glyph glyph-name="igrave" unicode="&#xec;" horiz-adv-x="252" 
d="M194 564q-45 21 -83 58.5t-60 85.5l69 63q31 -102 114 -165zM22 0l69 350q12 61 13.5 84.5t-9.5 56.5h137l-75 -372q-20 -95 0 -119h-135z" />
    <glyph glyph-name="iacute" unicode="&#xed;" horiz-adv-x="252" 
d="M166 562l-33 51q94 52 182 163l50 -68q-78 -95 -199 -146zM22 0l69 350q12 61 13.5 84.5t-9.5 56.5h137l-75 -372q-20 -95 0 -119h-135z" />
    <glyph glyph-name="icircumflex" unicode="&#xee;" horiz-adv-x="252" 
d="M61 557l-34 38q81 56 139 137h100q28 -82 87 -137l-47 -38q-71 45 -99 109h-4q-54 -65 -142 -109zM22 0l69 350q12 61 13.5 84.5t-9.5 56.5h137l-75 -372q-20 -95 0 -119h-135z" />
    <glyph glyph-name="idieresis" unicode="&#xef;" horiz-adv-x="252" 
d="M89 578q-21 0 -33.5 12.5t-12.5 32.5q0 27 20.5 47.5t48.5 20.5q20 0 32.5 -12.5t12.5 -32.5q0 -27 -20 -47.5t-48 -20.5zM290 578q-21 0 -33.5 12.5t-12.5 32.5q0 26 20.5 47t47.5 21q21 0 33.5 -12.5t12.5 -32.5q0 -27 -20.5 -47.5t-47.5 -20.5zM22 0l69 350
q12 61 13.5 84.5t-9.5 56.5h137l-75 -372q-20 -95 0 -119h-135z" />
    <glyph glyph-name="eth" unicode="&#xf0;" horiz-adv-x="527" 
d="M415 605q83 -112 83 -273q0 -154 -76.5 -249t-198.5 -95q-81 0 -137 51.5t-56 141.5q0 120 68 198.5t169 78.5q79 0 127 -56q-16 94 -67 155l-87 -47l-22 49l70 38l-14 12q-42 37 -77 38l64 100q6 -9 18.5 -19t30 -22.5t25.5 -18.5q25 -20 44 -39l93 51l23 -50zM236 86
q57 0 103 59.5t53 139.5q-16 33 -50.5 57.5t-71.5 24.5q-55 0 -91 -50t-36 -124q0 -50 26 -78.5t67 -28.5z" />
    <glyph glyph-name="ntilde" unicode="&#xf1;" horiz-adv-x="551" 
d="M401 572q-31 0 -55.5 18t-41.5 35.5t-32 17.5q-20 0 -27 -14t-4 -47l-74 4q10 63 39.5 95.5t75.5 32.5q31 0 55.5 -18t42 -35.5t32.5 -17.5q37 0 31 61l74 -5q-10 -62 -40 -94.5t-76 -32.5zM23 0l69 349q21 105 3 142h129l-10 -61h4q30 32 72 53.5t88 21.5
q73 0 105.5 -51.5t16.5 -135.5l-38 -192q-11 -58 -11.5 -84t11.5 -42h-137l61 306q20 101 -51 101q-32 0 -70.5 -27.5t-67.5 -66.5l-37 -187q-20 -100 -3 -126h-134z" />
    <glyph glyph-name="ograve" unicode="&#xf2;" horiz-adv-x="538" 
d="M332 564q-45 21 -83 58.5t-60 85.5l69 63q31 -102 114 -165zM226 -15q-88 0 -139 52t-51 145q0 142 78.5 232.5t197.5 90.5q89 0 140 -51.5t51 -144.5q0 -142 -79 -233t-198 -91zM240 83q60 0 104 63t44 157q0 49 -22.5 77t-66.5 28q-60 0 -104.5 -63t-44.5 -157
q0 -49 23 -77t67 -28z" />
    <glyph glyph-name="oacute" unicode="&#xf3;" horiz-adv-x="538" 
d="M304 562l-33 51q94 52 182 163l50 -68q-78 -95 -199 -146zM226 -15q-88 0 -139 52t-51 145q0 142 78.5 232.5t197.5 90.5q89 0 140 -51.5t51 -144.5q0 -142 -79 -233t-198 -91zM240 83q60 0 104 63t44 157q0 49 -22.5 77t-66.5 28q-60 0 -104.5 -63t-44.5 -157
q0 -49 23 -77t67 -28z" />
    <glyph glyph-name="ocircumflex" unicode="&#xf4;" horiz-adv-x="538" 
d="M199 557l-34 38q81 56 139 137h100q28 -82 87 -137l-47 -38q-71 45 -99 109h-4q-54 -65 -142 -109zM226 -15q-88 0 -139 52t-51 145q0 142 78.5 232.5t197.5 90.5q89 0 140 -51.5t51 -144.5q0 -142 -79 -233t-198 -91zM240 83q60 0 104 63t44 157q0 49 -22.5 77t-66.5 28
q-60 0 -104.5 -63t-44.5 -157q0 -49 23 -77t67 -28z" />
    <glyph glyph-name="otilde" unicode="&#xf5;" horiz-adv-x="538" 
d="M390 572q-31 0 -55.5 18t-41.5 35.5t-32 17.5q-20 0 -27 -14t-4 -47l-74 4q10 63 39.5 95.5t75.5 32.5q31 0 55.5 -18t42 -35.5t32.5 -17.5q37 0 31 61l74 -5q-10 -62 -40 -94.5t-76 -32.5zM226 -15q-88 0 -139 52t-51 145q0 142 78.5 232.5t197.5 90.5q89 0 140 -51.5
t51 -144.5q0 -142 -79 -233t-198 -91zM240 83q60 0 104 63t44 157q0 49 -22.5 77t-66.5 28q-60 0 -104.5 -63t-44.5 -157q0 -49 23 -77t67 -28z" />
    <glyph glyph-name="odieresis" unicode="&#xf6;" horiz-adv-x="538" 
d="M227 578q-21 0 -33.5 12.5t-12.5 32.5q0 27 20.5 47.5t48.5 20.5q20 0 32.5 -12.5t12.5 -32.5q0 -27 -20 -47.5t-48 -20.5zM428 578q-21 0 -33.5 12.5t-12.5 32.5q0 26 20.5 47t47.5 21q21 0 33.5 -12.5t12.5 -32.5q0 -27 -20.5 -47.5t-47.5 -20.5zM226 -15
q-88 0 -139 52t-51 145q0 142 78.5 232.5t197.5 90.5q89 0 140 -51.5t51 -144.5q0 -142 -79 -233t-198 -91zM240 83q60 0 104 63t44 157q0 49 -22.5 77t-66.5 28q-60 0 -104.5 -63t-44.5 -157q0 -49 23 -77t67 -28z" />
    <glyph glyph-name="divide" unicode="&#xf7;" horiz-adv-x="463" 
d="M246 370q-24 0 -39 14t-15 37q0 31 24 55t55 24q24 0 38.5 -14t14.5 -37q0 -32 -23.5 -55.5t-54.5 -23.5zM42 245l21 105q13 -10 54 -10h246q41 0 58 10l-21 -105q-14 10 -54 10h-246q-41 0 -58 -10zM193 95q-24 0 -39 14t-15 36q0 32 23.5 56t55.5 24q23 0 37.5 -14.5
t14.5 -37.5q0 -31 -23 -54.5t-54 -23.5z" />
    <glyph glyph-name="oslash" unicode="&#xf8;" horiz-adv-x="541" 
d="M463 441q40 -49 40 -132q0 -142 -79 -233t-198 -91q-69 0 -113 31l-32 -39l-37 29l34 41q-42 51 -42 135q0 142 78.5 232.5t197.5 90.5q70 0 117 -32l33 40l36 -29zM150 188q0 -25 6 -46l203 245q-23 21 -60 21q-60 0 -104.5 -63t-44.5 -157zM240 83q60 0 104 63t44 157
q0 21 -5 41l-200 -243q21 -18 57 -18z" />
    <glyph glyph-name="ugrave" unicode="&#xf9;" horiz-adv-x="545" 
d="M329 564q-45 21 -83 58.5t-60 85.5l69 63q31 -102 114 -165zM167 -15q-70 0 -98.5 47t-12.5 131l39 202q7 38 9.5 57.5t1 38t-10.5 30.5h137l-61 -307q-22 -101 38 -101q34 0 72 32t69 78l34 172q20 100 3 126h134l-68 -348q-21 -106 0 -143h-129l8 67h-6
q-29 -34 -71 -58t-88 -24z" />
    <glyph glyph-name="uacute" unicode="&#xfa;" horiz-adv-x="545" 
d="M301 562l-33 51q94 52 182 163l50 -68q-78 -95 -199 -146zM167 -15q-70 0 -98.5 47t-12.5 131l39 202q7 38 9.5 57.5t1 38t-10.5 30.5h137l-61 -307q-22 -101 38 -101q34 0 72 32t69 78l34 172q20 100 3 126h134l-68 -348q-21 -106 0 -143h-129l8 67h-6q-29 -34 -71 -58
t-88 -24z" />
    <glyph glyph-name="ucircumflex" unicode="&#xfb;" horiz-adv-x="545" 
d="M196 557l-34 38q81 56 139 137h100q28 -82 87 -137l-47 -38q-71 45 -99 109h-4q-54 -65 -142 -109zM167 -15q-70 0 -98.5 47t-12.5 131l39 202q7 38 9.5 57.5t1 38t-10.5 30.5h137l-61 -307q-22 -101 38 -101q34 0 72 32t69 78l34 172q20 100 3 126h134l-68 -348
q-21 -106 0 -143h-129l8 67h-6q-29 -34 -71 -58t-88 -24z" />
    <glyph glyph-name="udieresis" unicode="&#xfc;" horiz-adv-x="545" 
d="M224 578q-21 0 -33.5 12.5t-12.5 32.5q0 27 20.5 47.5t48.5 20.5q20 0 32.5 -12.5t12.5 -32.5q0 -27 -20 -47.5t-48 -20.5zM425 578q-21 0 -33.5 12.5t-12.5 32.5q0 26 20.5 47t47.5 21q21 0 33.5 -12.5t12.5 -32.5q0 -27 -20.5 -47.5t-47.5 -20.5zM167 -15
q-70 0 -98.5 47t-12.5 131l39 202q7 38 9.5 57.5t1 38t-10.5 30.5h137l-61 -307q-22 -101 38 -101q34 0 72 32t69 78l34 172q20 100 3 126h134l-68 -348q-21 -106 0 -143h-129l8 67h-6q-29 -34 -71 -58t-88 -24z" />
    <glyph glyph-name="yacute" unicode="&#xfd;" horiz-adv-x="485" 
d="M285 562l-33 51q94 52 182 163l50 -68q-78 -95 -199 -146zM40 -200q-19 0 -45 3.5t-37 1.5l39 114q19 -26 54 -26q61 0 103 91l7 15l-69 373q-17 91 -41 119h129l42 -272q9 -63 11 -111h5q20 46 52 110l78 167q37 80 26 106h129l-260 -526q-37 -77 -95.5 -121t-127.5 -44
z" />
    <glyph glyph-name="thorn" unicode="&#xfe;" 
d="M-20 -200l156 774q21 111 7 138h131l-57 -276l4 -1q62 69 142 69q70 0 110.5 -48t40.5 -137q0 -139 -80 -234t-187 -95q-62 0 -113 29l-20 -101q-19 -90 -2 -118h-132zM240 84q64 0 111.5 65.5t47.5 165.5q0 45 -17 70t-47 25q-28 0 -69.5 -30.5t-72.5 -74.5l-38 -189
q33 -32 85 -32z" />
    <glyph glyph-name="ydieresis" unicode="&#xff;" horiz-adv-x="485" 
d="M208 578q-21 0 -33.5 12.5t-12.5 32.5q0 27 20.5 47.5t48.5 20.5q20 0 32.5 -12.5t12.5 -32.5q0 -27 -20 -47.5t-48 -20.5zM409 578q-21 0 -33.5 12.5t-12.5 32.5q0 26 20.5 47t47.5 21q21 0 33.5 -12.5t12.5 -32.5q0 -27 -20.5 -47.5t-47.5 -20.5zM40 -200
q-19 0 -45 3.5t-37 1.5l39 114q19 -26 54 -26q61 0 103 91l7 15l-69 373q-17 91 -41 119h129l42 -272q9 -63 11 -111h5q20 46 52 110l78 167q37 80 26 106h129l-260 -526q-37 -77 -95.5 -121t-127.5 -44z" />
    <glyph glyph-name="Amacron" unicode="&#x100;" horiz-adv-x="612" 
d="M548 807l-12 -66h-266l12 66h266zM554 0h-157q21 27 13 116l-6 62h-221l-32 -62q-45 -87 -31 -116h-157q42 51 86 139l203 397q46 89 46 118h174q-10 -28 1 -118l50 -397q15 -114 31 -139zM226 269h170l-30 289z" />
    <glyph glyph-name="amacron" unicode="&#x101;" 
d="M209 591l12 66h266l-12 -66h-266zM181 -12q-68 0 -108 48t-40 135q0 142 80.5 236.5t183.5 94.5q58 0 116 -30l9 17h104l-72 -353q-22 -103 -4 -136h-120q-5 30 1 58h-5q-29 -31 -68 -50.5t-77 -19.5zM212 82q61 0 140 100l39 193q-38 33 -86 33q-64 0 -111 -64t-47 -162
q0 -47 17 -73.5t48 -26.5z" />
    <glyph glyph-name="Abreve" unicode="&#x102;" horiz-adv-x="612" 
d="M399 709q-66 0 -94.5 45.5t-12.5 112.5h57q-7 -41 7.5 -67t51.5 -26q39 0 62.5 26t31.5 67h57q-22 -158 -160 -158zM473 536l50 -397q15 -114 31 -139h-157q21 27 13 116l-6 62h-221l-32 -62q-45 -87 -31 -116h-157q42 51 86 139l203 397q46 89 46 118h174
q-10 -28 1 -118zM226 269h170l-30 289z" />
    <glyph glyph-name="abreve" unicode="&#x103;" 
d="M338 559q-66 0 -94.5 45.5t-12.5 112.5h57q-7 -41 7.5 -67t51.5 -26q39 0 62.5 26t31.5 67h57q-22 -158 -160 -158zM181 -12q-68 0 -108 48t-40 135q0 142 80.5 236.5t183.5 94.5q58 0 116 -30l9 17h104l-72 -353q-22 -103 -4 -136h-120q-5 30 1 58h-5q-29 -31 -68 -50.5
t-77 -19.5zM212 82q61 0 140 100l39 193q-38 33 -86 33q-64 0 -111 -64t-47 -162q0 -47 17 -73.5t48 -26.5z" />
    <glyph glyph-name="Aogonek" unicode="&#x104;" horiz-adv-x="612" 
d="M482 -139q20 0 37 19l16 -49q-34 -30 -82 -30q-33 0 -54.5 16.5t-21.5 46.5q0 39 31 76t81 60h-92q21 27 13 116l-6 62h-221l-32 -62q-45 -87 -31 -116h-157q42 51 86 139l203 397q46 89 46 118h174q-10 -28 1 -118l50 -397q15 -114 31 -139q-45 -21 -73 -53t-28 -59
t29 -27zM226 269h170l-30 289z" />
    <glyph glyph-name="aogonek" unicode="&#x105;" 
d="M526 489l-72 -353q-22 -103 -4 -136q-45 -21 -73 -53t-28 -59t29 -27q20 0 37 19l16 -49q-34 -30 -82 -30q-33 0 -54.5 16.5t-21.5 46.5q0 39 31 76t81 60h-55q-5 30 1 58h-5q-29 -31 -68 -50.5t-77 -19.5q-68 0 -108 48t-40 135q0 142 80.5 236.5t183.5 94.5
q58 0 116 -30l9 17h104zM212 82q61 0 140 100l39 193q-38 33 -86 33q-64 0 -111 -64t-47 -162q0 -47 17 -73.5t48 -26.5z" />
    <glyph glyph-name="Cacute" unicode="&#x106;" horiz-adv-x="559" 
d="M376 711l-33 51q94 52 182 163l50 -68q-78 -95 -199 -146zM288 -14q-111 0 -172 67t-61 201q0 176 90 294.5t237 118.5q44 0 80.5 -11.5t64.5 -25t42 -15.5l-61 -113q-17 26 -54 45t-82 19q-84 0 -141.5 -90t-57.5 -210q0 -179 133 -179q104 0 155 53l34 -117
q-13 0 -82.5 -18.5t-124.5 -18.5z" />
    <glyph glyph-name="cacute" unicode="&#x107;" horiz-adv-x="438" 
d="M292 561l-33 51q94 52 182 163l50 -68q-78 -95 -199 -146zM217 -15q-85 0 -133 51.5t-48 145.5q0 147 76.5 235t184.5 88q42 0 88.5 -18t52.5 -19l-53 -109q-12 22 -37 35.5t-57 13.5q-55 0 -97.5 -65t-42.5 -151q0 -56 24.5 -83t62.5 -27q36 0 66.5 15t45.5 36l34 -107
q-4 0 -61 -20.5t-106 -20.5z" />
    <glyph glyph-name="Cdotaccent" unicode="&#x10a;" horiz-adv-x="559" 
d="M398 726q-52 0 -52 43q0 34 21 55t54 21q53 0 53 -44q0 -33 -21 -54t-55 -21zM288 -14q-111 0 -172 67t-61 201q0 176 90 294.5t237 118.5q44 0 80.5 -11.5t64.5 -25t42 -15.5l-61 -113q-17 26 -54 45t-82 19q-84 0 -141.5 -90t-57.5 -210q0 -179 133 -179q104 0 155 53
l34 -117q-13 0 -82.5 -18.5t-124.5 -18.5z" />
    <glyph glyph-name="cdotaccent" unicode="&#x10b;" horiz-adv-x="438" 
d="M313 576q-52 0 -52 43q0 34 21 55t54 21q53 0 53 -44q0 -33 -21 -54t-55 -21zM217 -15q-85 0 -133 51.5t-48 145.5q0 147 76.5 235t184.5 88q42 0 88.5 -18t52.5 -19l-53 -109q-12 22 -37 35.5t-57 13.5q-55 0 -97.5 -65t-42.5 -151q0 -56 24.5 -83t62.5 -27
q36 0 66.5 15t45.5 36l34 -107q-4 0 -61 -20.5t-106 -20.5z" />
    <glyph glyph-name="Ccaron" unicode="&#x10c;" horiz-adv-x="559" 
d="M347 710q-27 85 -86 138l46 38q68 -44 98 -109h4q60 67 142 109l32 -38q-83 -59 -139 -138h-97zM288 -14q-111 0 -172 67t-61 201q0 176 90 294.5t237 118.5q44 0 80.5 -11.5t64.5 -25t42 -15.5l-61 -113q-17 26 -54 45t-82 19q-84 0 -141.5 -90t-57.5 -210
q0 -179 133 -179q104 0 155 53l34 -117q-13 0 -82.5 -18.5t-124.5 -18.5z" />
    <glyph glyph-name="ccaron" unicode="&#x10d;" horiz-adv-x="438" 
d="M262 560q-27 85 -86 138l46 38q68 -44 98 -109h4q60 67 142 109l32 -38q-83 -59 -139 -138h-97zM217 -15q-85 0 -133 51.5t-48 145.5q0 147 76.5 235t184.5 88q42 0 88.5 -18t52.5 -19l-53 -109q-12 22 -37 35.5t-57 13.5q-55 0 -97.5 -65t-42.5 -151q0 -56 24.5 -83
t62.5 -27q36 0 66.5 15t45.5 36l34 -107q-4 0 -61 -20.5t-106 -20.5z" />
    <glyph glyph-name="Dcaron" unicode="&#x10e;" horiz-adv-x="618" 
d="M321 710q-27 85 -86 138l46 38q68 -44 98 -109h4q60 67 142 109l32 -38q-83 -59 -139 -138h-97zM13 0q33 35 50 131l76 392q19 97 1 131h190q123 0 194 -64.5t71 -186.5q0 -196 -96.5 -299.5t-277.5 -103.5h-208zM170 96h61q116 0 181.5 75.5t65.5 217.5q0 169 -163 169
h-56z" />
    <glyph glyph-name="dcaron" unicode="&#x10f;" horiz-adv-x="539" 
d="M181 -12q-69 0 -108.5 48t-39.5 137q0 139 80.5 234t185.5 95q57 0 112 -24l18 93q13 62 14 87.5t-9 53.5h135l-116 -579q-8 -39 -10.5 -59t-1 -40t10.5 -34h-120q-4 22 2 59l-4 1q-63 -72 -149 -72zM574 522l34 188h84l-64 -188h-54zM212 82q31 0 71 32.5t71 82.5
l37 185q-37 26 -85 26q-63 0 -111 -65.5t-48 -165.5q0 -46 17 -70.5t48 -24.5z" />
    <glyph glyph-name="Dcroat" unicode="&#x110;" horiz-adv-x="625" 
d="M337 654q123 0 194 -64.5t71 -186.5q0 -196 -96.5 -299.5t-277.5 -103.5h-208q33 35 50 131l30 157h-53l15 81h54l30 154q19 97 1 131h190zM238 96q116 0 181.5 75.5t65.5 217.5q0 169 -163 169h-56l-36 -189h103l-16 -81h-103l-37 -192h61z" />
    <glyph glyph-name="dcroat" unicode="&#x111;" horiz-adv-x="539" 
d="M601 608l-12 -57h-52l-84 -418q-8 -39 -10.5 -59t-1 -40t10.5 -34h-120q-4 22 2 59l-4 1q-63 -72 -149 -72q-69 0 -108.5 48t-39.5 137q0 139 80.5 234t185.5 95q57 0 112 -24l14 73h-63l12 57h62q14 70 -2 104h135l-21 -104h53zM354 197l37 185q-37 26 -85 26
q-63 0 -111 -65.5t-48 -165.5q0 -46 17 -70.5t48 -24.5t71 32.5t71 82.5z" />
    <glyph glyph-name="Emacron" unicode="&#x112;" horiz-adv-x="525" 
d="M219 739l12 66h266l-12 -66h-266zM437 -7q-45 7 -126 7h-298q29 34 48 131l76 392q20 93 3 131h285q77 0 125 7l-24 -120q-36 16 -120 16h-150l-32 -169h110q88 0 124 11l-23 -119q-29 11 -120 11h-110l-38 -194h162q88 0 131 16z" />
    <glyph glyph-name="emacron" unicode="&#x113;" horiz-adv-x="504" 
d="M187 591l12 66h266l-12 -66h-266zM233 -15q-89 0 -143 53.5t-54 146.5q0 142 75 231t188 89q80 0 128.5 -45.5t48.5 -112.5q0 -144 -206 -144l-120 1q-6 -56 22.5 -92t77.5 -36q91 0 129 48l36 -97q-1 0 -15 -6t-20.5 -8t-22 -7.5t-27.5 -8t-28.5 -6t-33.5 -5t-35 -1.5z
M161 282h87q68 0 93.5 16.5t25.5 45.5q0 30 -20.5 50t-58.5 20q-47 0 -82 -38t-45 -94z" />
    <glyph glyph-name="Edotaccent" unicode="&#x116;" horiz-adv-x="525" 
d="M348 724q-52 0 -52 43q0 34 21 55t54 21q53 0 53 -44q0 -33 -21 -54t-55 -21zM437 -7q-45 7 -126 7h-298q29 34 48 131l76 392q20 93 3 131h285q77 0 125 7l-24 -120q-36 16 -120 16h-150l-32 -169h110q88 0 124 11l-23 -119q-29 11 -120 11h-110l-38 -194h162
q88 0 131 16z" />
    <glyph glyph-name="edotaccent" unicode="&#x117;" horiz-adv-x="504" 
d="M315 576q-52 0 -52 43q0 34 21 55t54 21q53 0 53 -44q0 -33 -21 -54t-55 -21zM233 -15q-89 0 -143 53.5t-54 146.5q0 142 75 231t188 89q80 0 128.5 -45.5t48.5 -112.5q0 -144 -206 -144l-120 1q-6 -56 22.5 -92t77.5 -36q91 0 129 48l36 -97q-1 0 -15 -6t-20.5 -8
t-22 -7.5t-27.5 -8t-28.5 -6t-33.5 -5t-35 -1.5zM161 282h87q68 0 93.5 16.5t25.5 45.5q0 30 -20.5 50t-58.5 20q-47 0 -82 -38t-45 -94z" />
    <glyph glyph-name="Eogonek" unicode="&#x118;" horiz-adv-x="525" 
d="M406 557h-150l-32 -169h110q88 0 124 11l-23 -119q-29 11 -120 11h-110l-38 -194h162q88 0 131 16l-23 -120q-11 2 -32 4l32 -4q-45 -21 -73 -53t-28 -59t29 -27q20 0 37 19l16 -49q-34 -30 -82 -30q-33 0 -54.5 16.5t-21.5 46.5q0 42 34.5 81t90.5 60q-42 2 -74 2h-298
q29 34 48 131l76 392q20 93 3 131h285q77 0 125 7l-24 -120q-36 16 -120 16z" />
    <glyph glyph-name="eogonek" unicode="&#x119;" horiz-adv-x="504" 
d="M270 203l-120 1q-6 -56 22.5 -92t77.5 -36q91 0 129 48l36 -97q-45 -21 -73 -53t-28 -59t29 -27q20 0 37 19l16 -49q-34 -30 -82 -30q-33 0 -54.5 16.5t-21.5 46.5q0 52 53 99q-30 -5 -58 -5q-89 0 -143 53.5t-54 146.5q0 142 75 231t188 89q80 0 128.5 -45.5
t48.5 -112.5q0 -144 -206 -144zM288 414q-47 0 -82 -38t-45 -94h87q68 0 93.5 16.5t25.5 45.5q0 30 -20.5 50t-58.5 20z" />
    <glyph glyph-name="Ecaron" unicode="&#x11a;" horiz-adv-x="525" 
d="M297 708q-27 85 -86 138l46 38q68 -44 98 -109h4q60 67 142 109l32 -38q-83 -59 -139 -138h-97zM437 -7q-45 7 -126 7h-298q29 34 48 131l76 392q20 93 3 131h285q77 0 125 7l-24 -120q-36 16 -120 16h-150l-32 -169h110q88 0 124 11l-23 -119q-29 11 -120 11h-110
l-38 -194h162q88 0 131 16z" />
    <glyph glyph-name="ecaron" unicode="&#x11b;" horiz-adv-x="504" 
d="M265 560q-27 85 -86 138l46 38q68 -44 98 -109h4q60 67 142 109l32 -38q-83 -59 -139 -138h-97zM233 -15q-89 0 -143 53.5t-54 146.5q0 142 75 231t188 89q80 0 128.5 -45.5t48.5 -112.5q0 -144 -206 -144l-120 1q-6 -56 22.5 -92t77.5 -36q91 0 129 48l36 -97
q-1 0 -15 -6t-20.5 -8t-22 -7.5t-27.5 -8t-28.5 -6t-33.5 -5t-35 -1.5zM161 282h87q68 0 93.5 16.5t25.5 45.5q0 30 -20.5 50t-58.5 20q-47 0 -82 -38t-45 -94z" />
    <glyph glyph-name="Gbreve" unicode="&#x11e;" horiz-adv-x="601" 
d="M397 710q-66 0 -94.5 45.5t-12.5 112.5h57q-7 -41 7.5 -67t51.5 -26q39 0 62.5 26t31.5 67h57q-22 -158 -160 -158zM297 -14q-117 0 -180 66t-63 198q0 115 40.5 209.5t117.5 151t175 56.5q47 0 85.5 -11t67.5 -24.5t42 -16.5l-64 -110q-15 26 -54.5 43.5t-87.5 17.5
q-81 0 -142 -91.5t-61 -210.5q0 -178 139 -178q65 0 113 34l26 131h-23q-64 0 -105 -11l22 108q32 -8 100 -8h130q-14 -26 -32 -120l-16 -77q-14 -73 -12 -103q-2 0 -81.5 -27t-136.5 -27z" />
    <glyph glyph-name="gbreve" unicode="&#x11f;" horiz-adv-x="536" 
d="M338 559q-66 0 -94.5 45.5t-12.5 112.5h57q-7 -41 7.5 -67t51.5 -26q39 0 62.5 26t31.5 67h57q-22 -158 -160 -158zM170 -218q-74 0 -173 46l50 108q45 -64 128 -64q57 0 93.5 32t48.5 87l16 68h-3q-61 -68 -144 -68q-70 0 -109.5 46.5t-39.5 135.5q0 139 81 234t187 95
q63 0 117 -30l10 18h101l-104 -490q-47 -218 -259 -218zM214 84q34 0 73 29t71 74l39 190q-39 31 -88 31q-64 0 -111 -65.5t-47 -165.5q0 -45 16.5 -69t46.5 -24z" />
    <glyph glyph-name="Gdotaccent" unicode="&#x120;" horiz-adv-x="601" 
d="M396 727q-52 0 -52 43q0 34 21 55t54 21q53 0 53 -44q0 -33 -21 -54t-55 -21zM297 -14q-117 0 -180 66t-63 198q0 115 40.5 209.5t117.5 151t175 56.5q47 0 85.5 -11t67.5 -24.5t42 -16.5l-64 -110q-15 26 -54.5 43.5t-87.5 17.5q-81 0 -142 -91.5t-61 -210.5
q0 -178 139 -178q65 0 113 34l26 131h-23q-64 0 -105 -11l22 108q32 -8 100 -8h130q-14 -26 -32 -120l-16 -77q-14 -73 -12 -103q-2 0 -81.5 -27t-136.5 -27z" />
    <glyph glyph-name="gdotaccent" unicode="&#x121;" horiz-adv-x="536" 
d="M337 577q-52 0 -52 43q0 34 21 55t54 21q53 0 53 -44q0 -33 -21 -54t-55 -21zM170 -218q-74 0 -173 46l50 108q45 -64 128 -64q57 0 93.5 32t48.5 87l16 68h-3q-61 -68 -144 -68q-70 0 -109.5 46.5t-39.5 135.5q0 139 81 234t187 95q63 0 117 -30l10 18h101l-104 -490
q-47 -218 -259 -218zM214 84q34 0 73 29t71 74l39 190q-39 31 -88 31q-64 0 -111 -65.5t-47 -165.5q0 -45 16.5 -69t46.5 -24z" />
    <glyph glyph-name="uni0122" unicode="&#x122;" horiz-adv-x="601" 
d="M297 -14q-117 0 -180 66t-63 198q0 115 40.5 209.5t117.5 151t175 56.5q47 0 85.5 -11t67.5 -24.5t42 -16.5l-64 -110q-15 26 -54.5 43.5t-87.5 17.5q-81 0 -142 -91.5t-61 -210.5q0 -178 139 -178q65 0 113 34l26 131h-23q-64 0 -105 -11l22 108q32 -8 100 -8h130
q-14 -26 -32 -120l-16 -77q-14 -73 -12 -103q-2 0 -81.5 -27t-136.5 -27zM223 -247l-11 36q63 21 75 67q-3 -1 -7 -1q-17 0 -28.5 9.5t-11.5 25.5q0 22 16.5 38t39.5 16q47 0 47 -49q0 -46 -33 -86t-87 -56z" />
    <glyph glyph-name="uni0123" unicode="&#x123;" horiz-adv-x="536" 
d="M333 555q-51 0 -51 50q0 49 36 90.5t94 58.5l11 -38q-32 -9 -52.5 -28t-26.5 -41h8q18 0 30.5 -9.5t12.5 -26.5q0 -23 -18 -39.5t-44 -16.5zM170 -218q-74 0 -173 46l50 108q45 -64 128 -64q57 0 93.5 32t48.5 87l16 68h-3q-61 -68 -144 -68q-70 0 -109.5 46.5
t-39.5 135.5q0 139 81 234t187 95q63 0 117 -30l10 18h101l-104 -490q-47 -218 -259 -218zM214 84q34 0 73 29t71 74l39 190q-39 31 -88 31q-64 0 -111 -65.5t-47 -165.5q0 -45 16.5 -69t46.5 -24z" />
    <glyph glyph-name="Hbar" unicode="&#x126;" horiz-adv-x="681" 
d="M697 547l-13 -66h-61l-67 -350q-19 -95 -3 -131h-159q31 40 48 131l31 160h-269l-30 -160q-19 -94 -3 -131h-158q30 39 48 131l68 350h-41l13 66h40q13 73 -2 107h159q-28 -39 -43 -107h268q14 74 -3 107h160q-26 -31 -44 -107h61zM493 391l17 90h-268l-17 -90h268z" />
    <glyph glyph-name="hbar" unicode="&#x127;" horiz-adv-x="541" 
d="M382 505q73 0 103.5 -53.5t13.5 -138.5l-37 -194q-7 -39 -9.5 -55.5t-1 -34t9.5 -29.5h-135l60 306q22 101 -50 101q-33 0 -72 -28t-67 -68l-38 -192q-7 -41 -9.5 -56.5t-1 -33t9.5 -29.5h-135l110 553h-51l12 57h50q13 72 -3 102h131l-19 -102h72l-12 -57h-71l-23 -121
h5q25 30 68.5 51.5t89.5 21.5z" />
    <glyph glyph-name="Imacron" unicode="&#x12a;" horiz-adv-x="279" 
d="M105 741l12 66h266l-12 -66h-266zM13 0q18 23 27.5 50t20.5 81l76 392q18 95 2 131h159q-30 -41 -48 -131l-76 -392q-19 -95 -3 -131h-158z" />
    <glyph glyph-name="imacron" unicode="&#x12b;" horiz-adv-x="252" 
d="M59 591l12 66h266l-12 -66h-266zM22 0l69 350q12 61 13.5 84.5t-9.5 56.5h137l-75 -372q-20 -95 0 -119h-135z" />
    <glyph glyph-name="Iogonek" unicode="&#x12e;" horiz-adv-x="279" 
d="M139 654h159q-30 -41 -48 -131l-76 -392q-19 -95 -3 -131h1q-45 -21 -73 -53t-28 -59t29 -27q20 0 37 19l16 -49q-34 -30 -82 -30q-33 0 -54.5 16.5t-21.5 46.5q0 39 31 76t81 60h-94q18 23 27.5 50t20.5 81l76 392q18 95 2 131z" />
    <glyph glyph-name="iogonek" unicode="&#x12f;" horiz-adv-x="257" 
d="M212 710q29 0 45.5 -15t16.5 -42q0 -37 -22 -58.5t-57 -21.5q-63 0 -63 55q0 37 23 59.5t57 22.5zM94 350q8 43 11 61t2 40.5t-9 39.5h137l-75 -372q-7 -35 -9.5 -54t-1 -36.5t9.5 -28.5h1q-45 -21 -73 -53t-28 -59t29 -27q20 0 37 19l16 -49q-34 -30 -82 -30
q-33 0 -54.5 16.5t-21.5 46.5q0 39 31 76t81 60h-71z" />
    <glyph glyph-name="Idotaccent" unicode="&#x130;" horiz-adv-x="279" 
d="M234 726q-52 0 -52 43q0 34 21 55t54 21q53 0 53 -44q0 -33 -21 -54t-55 -21zM13 0q18 23 27.5 50t20.5 81l76 392q18 95 2 131h159q-30 -41 -48 -131l-76 -392q-19 -95 -3 -131h-158z" />
    <glyph glyph-name="dotlessi" unicode="&#x131;" horiz-adv-x="252" 
d="M22 0l69 350q12 61 13.5 84.5t-9.5 56.5h137l-75 -372q-20 -95 0 -119h-135z" />
    <glyph glyph-name="uni0136" unicode="&#x136;" horiz-adv-x="620" 
d="M13 0q30 38 48 131l76 392q19 96 4 132h154q-28 -38 -44 -123l-34 -178h3l216 215q30 33 41 49.5t12 36.5h167q-46 -28 -136 -124l-129 -136l100 -249q42 -107 74 -146h-165q6 47 -22 118l-74 194l-118 -116l-14 -72q-17 -87 -4 -124h-155zM191 -247l-11 36q63 21 75 67
q-3 -1 -7 -1q-17 0 -28.5 9.5t-11.5 25.5q0 22 16.5 38t39.5 16q47 0 47 -49q0 -46 -33 -86t-87 -56z" />
    <glyph glyph-name="uni0137" unicode="&#x137;" horiz-adv-x="526" 
d="M23 0l114 571q12 62 13.5 86t-9.5 55h136l-58 -290q63 82 159 82q57 0 94.5 -34t37.5 -92q0 -67 -40.5 -113t-104.5 -67l51 -104q23 -46 35 -63.5t30 -30.5h-135l-95 205l3 42q60 2 100.5 32.5t40.5 78.5q0 26 -14 40.5t-38 14.5q-36 0 -78.5 -33.5t-71.5 -89.5l-34 -172
q-11 -54 -12 -75.5t11 -42.5h-135zM154 -247l-11 36q63 21 75 67q-3 -1 -7 -1q-17 0 -28.5 9.5t-11.5 25.5q0 22 16.5 38t39.5 16q47 0 47 -49q0 -46 -33 -86t-87 -56z" />
    <glyph glyph-name="Lacute" unicode="&#x139;" horiz-adv-x="490" 
d="M237 711l-33 51q94 52 182 163l50 -68q-78 -95 -199 -146zM421 -7q-36 7 -117 7h-291q29 34 48 131l76 392q20 93 3 131h159q-31 -36 -49 -131l-83 -428h156q85 0 122 24z" />
    <glyph glyph-name="lacute" unicode="&#x13a;" horiz-adv-x="254" 
d="M205 749l-33 51q94 52 182 163l50 -68q-78 -95 -199 -146zM22 0l113 564q12 61 13 91t-10 57h138l-117 -586q-19 -98 2 -126h-139z" />
    <glyph glyph-name="uni013B" unicode="&#x13b;" horiz-adv-x="490" 
d="M421 -7q-36 7 -117 7h-291q29 34 48 131l76 392q20 93 3 131h159q-31 -36 -49 -131l-83 -428h156q85 0 122 24zM169 -247l-11 36q63 21 75 67q-3 -1 -7 -1q-17 0 -28.5 9.5t-11.5 25.5q0 22 16.5 38t39.5 16q47 0 47 -49q0 -46 -33 -86t-87 -56z" />
    <glyph glyph-name="uni013C" unicode="&#x13c;" horiz-adv-x="254" 
d="M22 0l113 564q12 61 13 91t-10 57h138l-117 -586q-19 -98 2 -126h-139zM2 -247l-11 36q63 21 75 67q-3 -1 -7 -1q-17 0 -28.5 9.5t-11.5 25.5q0 22 16.5 38t39.5 16q47 0 47 -49q0 -46 -33 -86t-87 -56z" />
    <glyph glyph-name="Lcaron" unicode="&#x13d;" horiz-adv-x="494" 
d="M340 467l24 188h84l-52 -188h-56zM421 -7q-36 7 -117 7h-291q29 34 48 131l76 392q20 93 3 131h159q-31 -36 -49 -131l-83 -428h156q85 0 122 24z" />
    <glyph glyph-name="lcaron" unicode="&#x13e;" horiz-adv-x="254" 
d="M22 0l113 564q12 61 13 91t-10 57h138l-117 -586q-19 -98 2 -126h-139zM296 522l26 188h83l-56 -188h-53z" />
    <glyph glyph-name="Lslash" unicode="&#x141;" horiz-adv-x="494" 
d="M323 95q85 0 122 24l-24 -126q-36 7 -117 7h-291q29 34 48 131l33 168l-50 -9l-4 64l67 13l30 156q20 93 3 131h159q-31 -36 -49 -131l-26 -134l84 16l5 -64l-102 -19l-44 -227h156z" />
    <glyph glyph-name="lslash" unicode="&#x142;" horiz-adv-x="254" 
d="M198 322l-39 -196q-19 -98 2 -126h-139l60 299l-43 -9l-11 60l67 13l40 201q12 61 13 91t-10 57h138l-65 -325l42 8l12 -60z" />
    <glyph glyph-name="Nacute" unicode="&#x143;" horiz-adv-x="659" 
d="M411 711l-33 51q94 52 182 163l50 -68q-78 -95 -199 -146zM13 0q29 34 48 131l76 392q19 88 3 131h148l178 -461h5q-2 60 10 118l43 222q14 83 2 121h152q-29 -36 -49 -131l-72 -374q-21 -108 -6 -149h-128l-192 498h-5q2 -62 -9 -118l-49 -252q-19 -91 -4 -128h-151z
" />
    <glyph glyph-name="nacute" unicode="&#x144;" horiz-adv-x="551" 
d="M315 562l-33 51q94 52 182 163l50 -68q-78 -95 -199 -146zM23 0l69 349q21 105 3 142h129l-10 -61h4q30 32 72 53.5t88 21.5q73 0 105.5 -51.5t16.5 -135.5l-38 -192q-11 -58 -11.5 -84t11.5 -42h-137l61 306q20 101 -51 101q-32 0 -70.5 -27.5t-67.5 -66.5l-37 -187
q-20 -100 -3 -126h-134z" />
    <glyph glyph-name="uni0145" unicode="&#x145;" horiz-adv-x="659" 
d="M13 0q29 34 48 131l76 392q19 88 3 131h148l178 -461h5q-2 60 10 118l43 222q14 83 2 121h152q-29 -36 -49 -131l-72 -374q-21 -108 -6 -149h-128l-192 498h-5q2 -62 -9 -118l-49 -252q-19 -91 -4 -128h-151zM203 -247l-11 36q63 21 75 67q-3 -1 -7 -1q-17 0 -28.5 9.5
t-11.5 25.5q0 22 16.5 38t39.5 16q47 0 47 -49q0 -46 -33 -86t-87 -56z" />
    <glyph glyph-name="uni0146" unicode="&#x146;" horiz-adv-x="551" 
d="M23 0l69 349q21 105 3 142h129l-10 -61h4q30 32 72 53.5t88 21.5q73 0 105.5 -51.5t16.5 -135.5l-38 -192q-11 -58 -11.5 -84t11.5 -42h-137l61 306q20 101 -51 101q-32 0 -70.5 -27.5t-67.5 -66.5l-37 -187q-20 -100 -3 -126h-134zM160 -240l-11 36q63 21 75 67
q-3 -1 -7 -1q-17 0 -28.5 9.5t-11.5 25.5q0 22 16.5 38t39.5 16q47 0 47 -49q0 -46 -33 -86t-87 -56z" />
    <glyph glyph-name="Ncaron" unicode="&#x147;" horiz-adv-x="659" 
d="M382 710q-27 85 -86 138l46 38q68 -44 98 -109h4q60 67 142 109l32 -38q-83 -59 -139 -138h-97zM13 0q29 34 48 131l76 392q19 88 3 131h148l178 -461h5q-2 60 10 118l43 222q14 83 2 121h152q-29 -36 -49 -131l-72 -374q-21 -108 -6 -149h-128l-192 498h-5
q2 -62 -9 -118l-49 -252q-19 -91 -4 -128h-151z" />
    <glyph glyph-name="ncaron" unicode="&#x148;" horiz-adv-x="551" 
d="M286 561q-27 85 -86 138l46 38q68 -44 98 -109h4q60 67 142 109l32 -38q-83 -59 -139 -138h-97zM23 0l69 349q21 105 3 142h129l-10 -61h4q30 32 72 53.5t88 21.5q73 0 105.5 -51.5t16.5 -135.5l-38 -192q-11 -58 -11.5 -84t11.5 -42h-137l61 306q20 101 -51 101
q-32 0 -70.5 -27.5t-67.5 -66.5l-37 -187q-20 -100 -3 -126h-134z" />
    <glyph glyph-name="Eng" unicode="&#x14a;" horiz-adv-x="653" 
d="M675 654q-30 -39 -48 -131l-89 -457l-18 -94q-18 -93 -58.5 -132.5t-119.5 -39.5q-15 0 -48 3.5t-34 -0.5l35 109q15 -19 51 -19q30 0 45.5 25t26.5 83l-187 497h-5q2 -62 -9 -118l-49 -252q-18 -94 -4 -128h-151q29 34 48 131l76 392q19 87 3 131h151l173 -461h5
q-3 53 10 118l42 222q15 80 3 121h151z" />
    <glyph glyph-name="eng" unicode="&#x14b;" horiz-adv-x="530" 
d="M249 -189q-20 0 -45 3.5t-32 3.5l41 104q11 -21 40 -21q27 0 44 25t28 82l59 298q21 101 -51 101q-32 0 -70.5 -27.5t-67.5 -66.5l-38 -194q-11 -56 -11.5 -80.5t8.5 -38.5h-132l70 356q8 38 10.5 56t1.5 40t-9 39h127l-10 -61h5q29 32 71.5 53.5t87.5 21.5
q73 0 105 -53.5t15 -138.5l-61 -313q-19 -94 -63 -141.5t-123 -47.5z" />
    <glyph glyph-name="Omacron" unicode="&#x14c;" horiz-adv-x="647" 
d="M275 741l12 66h266l-12 -66h-266zM291 -12q-105 0 -169.5 72t-64.5 199q0 177 86 292t245 115q105 0 170 -71.5t65 -197.5q0 -115 -36.5 -206t-113 -147t-182.5 -56zM300 89q96 0 150.5 85.5t54.5 212.5q0 86 -36.5 132t-90.5 46q-96 0 -149.5 -84.5t-53.5 -212.5
q0 -86 35.5 -132.5t89.5 -46.5z" />
    <glyph glyph-name="omacron" unicode="&#x14d;" horiz-adv-x="538" 
d="M197 591l12 66h266l-12 -66h-266zM226 -15q-88 0 -139 52t-51 145q0 142 78.5 232.5t197.5 90.5q89 0 140 -51.5t51 -144.5q0 -142 -79 -233t-198 -91zM240 83q60 0 104 63t44 157q0 49 -22.5 77t-66.5 28q-60 0 -104.5 -63t-44.5 -157q0 -49 23 -77t67 -28z" />
    <glyph glyph-name="Ohungarumlaut" unicode="&#x150;" horiz-adv-x="647" 
d="M334 711l-49 25q73 72 123 170l64 -35q-56 -90 -138 -160zM496 711l-50 25q78 80 124 170l63 -35q-59 -93 -137 -160zM291 -12q-105 0 -169.5 72t-64.5 199q0 177 86 292t245 115q105 0 170 -71.5t65 -197.5q0 -115 -36.5 -206t-113 -147t-182.5 -56zM300 89
q96 0 150.5 85.5t54.5 212.5q0 86 -36.5 132t-90.5 46q-96 0 -149.5 -84.5t-53.5 -212.5q0 -86 35.5 -132.5t89.5 -46.5z" />
    <glyph glyph-name="ohungarumlaut" unicode="&#x151;" horiz-adv-x="538" 
d="M257 562l-49 25q73 72 123 170l64 -35q-56 -90 -138 -160zM419 562l-50 25q78 80 124 170l63 -35q-59 -93 -137 -160zM226 -15q-88 0 -139 52t-51 145q0 142 78.5 232.5t197.5 90.5q89 0 140 -51.5t51 -144.5q0 -142 -79 -233t-198 -91zM240 83q60 0 104 63t44 157
q0 49 -22.5 77t-66.5 28q-60 0 -104.5 -63t-44.5 -157q0 -49 23 -77t67 -28z" />
    <glyph glyph-name="OE" unicode="&#x152;" horiz-adv-x="852" 
d="M737 557h-143l-32 -169h99q90 0 124 11l-23 -119q-29 11 -119 11h-99l-39 -194h152q89 0 130 16l-23 -120q-46 7 -126 7h-261q-43 -12 -94 -12q-110 0 -170 64t-60 187q0 191 100.5 309t261.5 118q49 0 91 -12h250q78 0 124 7l-23 -120q-36 16 -120 16zM170 250
q0 -80 34.5 -121.5t97.5 -41.5q56 0 93 22q1 4 2.5 11.5t2.5 10.5l76 392q1 5 2.5 14t2.5 13q-34 16 -79 16q-101 0 -166.5 -87t-65.5 -229z" />
    <glyph glyph-name="oe" unicode="&#x153;" horiz-adv-x="850" 
d="M616 203l-120 1q-6 -56 23 -92t77 -36q91 0 129 48l36 -97q-2 -1 -15 -6t-20 -7.5t-22 -8t-27.5 -8t-29 -6t-33.5 -5t-35 -1.5q-112 0 -164 80q-77 -80 -189 -80q-88 0 -139 52t-51 145q0 142 78.5 232.5t197.5 90.5q108 0 159 -74q72 74 174 74q80 0 129 -45.5
t49 -112.5q0 -144 -207 -144zM634 414q-47 0 -81.5 -38t-45.5 -94h88q68 0 93 16.5t25 45.5q0 30 -20.5 50t-58.5 20zM240 83q60 0 104 63t44 157q0 49 -22.5 77t-66.5 28q-60 0 -104.5 -63t-44.5 -157q0 -49 23 -77t67 -28z" />
    <glyph glyph-name="Racute" unicode="&#x154;" horiz-adv-x="595" 
d="M346 711l-33 51q94 52 182 163l50 -68q-78 -95 -199 -146zM13 0q30 33 48 131l76 392q20 93 3 131h234q96 0 153.5 -42t57.5 -128q0 -82 -47 -140.5t-128 -75.5l48 -128q38 -103 75 -140h-175q14 29 -17 124l-47 127h-97l-23 -120q-19 -96 -5 -131h-156zM216 347h92
q164 0 164 124q0 87 -120 87h-95z" />
    <glyph glyph-name="racute" unicode="&#x155;" horiz-adv-x="381" 
d="M227 562l-33 51q94 52 182 163l50 -68q-78 -95 -199 -146zM24 0l69 349q21 105 2 142h127l-10 -74h5q25 39 63.5 63t75.5 24q33 0 55 -13l-37 -109q-14 20 -39 20q-33 0 -74 -35.5t-73 -100.5l-25 -133q-11 -58 -11 -87.5t14 -45.5h-142z" />
    <glyph glyph-name="uni0156" unicode="&#x156;" horiz-adv-x="595" 
d="M13 0q30 33 48 131l76 392q20 93 3 131h234q96 0 153.5 -42t57.5 -128q0 -82 -47 -140.5t-128 -75.5l48 -128q38 -103 75 -140h-175q14 29 -17 124l-47 127h-97l-23 -120q-19 -96 -5 -131h-156zM216 347h92q164 0 164 124q0 87 -120 87h-95zM176 -247l-11 36q63 21 75 67
q-3 -1 -7 -1q-17 0 -28.5 9.5t-11.5 25.5q0 22 16.5 38t39.5 16q47 0 47 -49q0 -46 -33 -86t-87 -56z" />
    <glyph glyph-name="uni0157" unicode="&#x157;" horiz-adv-x="381" 
d="M24 0l69 349q21 105 2 142h127l-10 -74h5q25 39 63.5 63t75.5 24q33 0 55 -13l-37 -109q-14 20 -39 20q-33 0 -74 -35.5t-73 -100.5l-25 -133q-11 -58 -11 -87.5t14 -45.5h-142zM6 -247l-11 36q63 21 75 67q-3 -1 -7 -1q-17 0 -28.5 9.5t-11.5 25.5q0 22 16.5 38t39.5 16
q47 0 47 -49q0 -46 -33 -86t-87 -56z" />
    <glyph glyph-name="Rcaron" unicode="&#x158;" horiz-adv-x="595" 
d="M317 710q-27 85 -86 138l46 38q68 -44 98 -109h4q60 67 142 109l32 -38q-83 -59 -139 -138h-97zM13 0q30 33 48 131l76 392q20 93 3 131h234q96 0 153.5 -42t57.5 -128q0 -82 -47 -140.5t-128 -75.5l48 -128q38 -103 75 -140h-175q14 29 -17 124l-47 127h-97l-23 -120
q-19 -96 -5 -131h-156zM216 347h92q164 0 164 124q0 87 -120 87h-95z" />
    <glyph glyph-name="rcaron" unicode="&#x159;" horiz-adv-x="381" 
d="M198 561q-27 85 -86 138l46 38q68 -44 98 -109h4q60 67 142 109l32 -38q-83 -59 -139 -138h-97zM24 0l69 349q21 105 2 142h127l-10 -74h5q25 39 63.5 63t75.5 24q33 0 55 -13l-37 -109q-14 20 -39 20q-33 0 -74 -35.5t-73 -100.5l-25 -133q-11 -58 -11 -87.5t14 -45.5
h-142z" />
    <glyph glyph-name="Sacute" unicode="&#x15a;" horiz-adv-x="540" 
d="M334 711l-33 51q94 52 182 163l50 -68q-78 -95 -199 -146zM230 -12q-61 0 -139 26t-91 27l75 129q22 -39 68 -63t98 -24q59 0 96 29.5t37 78.5q0 55 -80 86l-61 24q-125 51 -125 159q0 96 67.5 151t171.5 55q55 0 123 -21t73 -22l-66 -119q-52 65 -139 65q-49 0 -81 -26
t-32 -69q0 -28 20 -46t60 -34l60 -24q127 -50 127 -162q0 -102 -73.5 -161t-188.5 -59z" />
    <glyph glyph-name="sacute" unicode="&#x15b;" horiz-adv-x="425" 
d="M238 562l-33 51q94 52 182 163l50 -68q-78 -95 -199 -146zM183 -12q-40 0 -75.5 9.5t-68.5 24t-44 17.5l65 113q40 -76 131 -76q32 0 52 14.5t20 42.5q0 24 -16 38.5t-50 30.5l-26 12q-100 45 -100 137q0 69 49.5 111.5t126.5 42.5q31 0 61.5 -8t58.5 -19.5t40 -14.5
l-55 -107q-36 61 -110 61q-27 0 -45 -14.5t-18 -36.5q0 -39 54 -64l29 -14q51 -24 81 -55t30 -86q0 -72 -51.5 -115.5t-138.5 -43.5z" />
    <glyph glyph-name="Scedilla" unicode="&#x15e;" horiz-adv-x="540" 
d="M365 370q127 -50 127 -162q0 -96 -64.5 -153.5t-168.5 -65.5l-14 -42q77 -12 77 -66q0 -52 -52 -81.5t-143 -29.5l2 56q53 -7 84 5.5t31 40.5q0 34 -66 38l37 78q-55 2 -127 26.5t-88 26.5l75 129q22 -39 68 -63t98 -24q59 0 96 29.5t37 78.5q0 55 -80 86l-61 24
q-125 51 -125 159q0 96 67.5 151t171.5 55q55 0 123 -21t73 -22l-66 -119q-52 65 -139 65q-49 0 -81 -26t-32 -69q0 -28 20 -46t60 -34z" />
    <glyph glyph-name="scedilla" unicode="&#x15f;" horiz-adv-x="425" 
d="M262 288q51 -24 81 -55t30 -86q0 -70 -48.5 -113t-130.5 -46l-14 -41q77 -12 77 -66q0 -52 -52 -81.5t-143 -29.5l2 56q53 -7 84 5.5t31 40.5q0 34 -66 38l38 80q-31 3 -61 12.5t-57 21.5t-38 15l65 113q40 -76 131 -76q32 0 52 14.5t20 42.5q0 24 -16 38.5t-50 30.5
l-26 12q-100 45 -100 137q0 69 49.5 111.5t126.5 42.5q31 0 61.5 -8t58.5 -19.5t40 -14.5l-55 -107q-36 61 -110 61q-27 0 -45 -14.5t-18 -36.5q0 -39 54 -64z" />
    <glyph glyph-name="Scaron" unicode="&#x160;" horiz-adv-x="540" 
d="M305 710q-27 85 -86 138l46 38q68 -44 98 -109h4q60 67 142 109l32 -38q-83 -59 -139 -138h-97zM230 -12q-61 0 -139 26t-91 27l75 129q22 -39 68 -63t98 -24q59 0 96 29.5t37 78.5q0 55 -80 86l-61 24q-125 51 -125 159q0 96 67.5 151t171.5 55q55 0 123 -21t73 -22
l-66 -119q-52 65 -139 65q-49 0 -81 -26t-32 -69q0 -28 20 -46t60 -34l60 -24q127 -50 127 -162q0 -102 -73.5 -161t-188.5 -59z" />
    <glyph glyph-name="scaron" unicode="&#x161;" horiz-adv-x="425" 
d="M209 561q-27 85 -86 138l46 38q68 -44 98 -109h4q60 67 142 109l32 -38q-83 -59 -139 -138h-97zM183 -12q-40 0 -75.5 9.5t-68.5 24t-44 17.5l65 113q40 -76 131 -76q32 0 52 14.5t20 42.5q0 24 -16 38.5t-50 30.5l-26 12q-100 45 -100 137q0 69 49.5 111.5t126.5 42.5
q31 0 61.5 -8t58.5 -19.5t40 -14.5l-55 -107q-36 61 -110 61q-27 0 -45 -14.5t-18 -36.5q0 -39 54 -64l29 -14q51 -24 81 -55t30 -86q0 -72 -51.5 -115.5t-138.5 -43.5z" />
    <glyph glyph-name="uni0162" unicode="&#x162;" horiz-adv-x="535" 
d="M475 654q72 0 119 7l-23 -120q-41 16 -115 16h-71l-83 -426q-17 -88 -2 -131h-64l-18 -53q77 -12 77 -66q0 -52 -52 -81.5t-143 -29.5l2 56q53 -7 84 5.5t31 40.5q0 34 -66 38l43 90h-53q32 48 48 131l83 426h-71q-75 0 -122 -16l23 120q46 -7 117 -7h256z" />
    <glyph glyph-name="uni0163" unicode="&#x163;" horiz-adv-x="369" 
d="M234 398l-47 -229q-19 -88 42 -88q44 0 67 25l20 -104q-11 0 -48 -6t-62 -7l-14 -42q77 -12 77 -66q0 -52 -52 -81.5t-143 -29.5l2 56q53 -7 84 5.5t31 40.5q0 34 -66 38l39 82q-56 10 -80.5 55.5t-9.5 119.5l47 231h-69l18 92l72 1l19 91h110l-18 -91h119l-18 -93h-120z
" />
    <glyph glyph-name="Tcaron" unicode="&#x164;" horiz-adv-x="535" 
d="M306 696q-27 85 -86 138l46 38q68 -44 98 -109h4q60 67 142 109l32 -38q-83 -59 -139 -138h-97zM141 0q32 48 48 131l83 426h-71q-75 0 -122 -16l23 120q46 -7 117 -7h256q72 0 119 7l-23 -120q-41 16 -115 16h-71l-83 -426q-17 -88 -2 -131h-159z" />
    <glyph glyph-name="tcaron" unicode="&#x165;" horiz-adv-x="359" 
d="M311 548l23 179h80l-56 -179h-47zM195 -11q-71 0 -105 47t-16 131l47 231h-69l18 92l72 1l19 91h110l-18 -91h119l-18 -93h-120l-47 -229q-19 -88 42 -88q44 0 67 25l20 -104q-11 0 -51.5 -6.5t-69.5 -6.5z" />
    <glyph glyph-name="Tbar" unicode="&#x166;" horiz-adv-x="535" 
d="M475 654q72 0 119 7l-23 -120q-41 16 -115 16h-71l-42 -214h94l-13 -66h-94l-28 -146q-17 -88 -2 -131h-159q32 48 48 131l28 146h-93l13 66h93l42 214h-71q-75 0 -122 -16l23 120q46 -7 117 -7h256z" />
    <glyph glyph-name="tbar" unicode="&#x167;" horiz-adv-x="359" 
d="M354 398h-120l-19 -95h94l-12 -59h-95l-15 -75q-19 -88 42 -88q44 0 67 25l20 -104q-11 0 -51.5 -6.5t-69.5 -6.5q-71 0 -105 47t-16 131l16 77h-61l12 59h61l19 95h-69l18 92l72 1l19 91h110l-18 -91h119z" />
    <glyph glyph-name="Umacron" unicode="&#x16a;" horiz-adv-x="648" 
d="M286 741l12 66h266l-12 -66h-266zM281 -12q-117 0 -170.5 68.5t-26.5 211.5l50 255q17 99 2 131h159q-31 -39 -49 -131l-48 -250q-36 -187 96 -187q135 0 171 187l48 250q19 96 3 131h154q-31 -40 -48 -131l-50 -255q-28 -145 -98 -212.5t-193 -67.5z" />
    <glyph glyph-name="umacron" unicode="&#x16b;" horiz-adv-x="545" 
d="M194 591l12 66h266l-12 -66h-266zM167 -15q-70 0 -98.5 47t-12.5 131l39 202q7 38 9.5 57.5t1 38t-10.5 30.5h137l-61 -307q-22 -101 38 -101q34 0 72 32t69 78l34 172q20 100 3 126h134l-68 -348q-21 -106 0 -143h-129l8 67h-6q-29 -34 -71 -58t-88 -24z" />
    <glyph glyph-name="Uring" unicode="&#x16e;" horiz-adv-x="648" 
d="M408 693q-46 0 -71 22t-25 58q0 50 39 84.5t95 34.5q45 0 70.5 -22t25.5 -57q0 -50 -38.5 -85t-95.5 -35zM416 739q27 0 45 19.5t18 48.5q0 18 -11.5 28.5t-29.5 10.5q-27 0 -44.5 -19.5t-17.5 -48.5q0 -18 11 -28.5t29 -10.5zM281 -12q-117 0 -170.5 68.5t-26.5 211.5
l50 255q17 99 2 131h159q-31 -39 -49 -131l-48 -250q-36 -187 96 -187q135 0 171 187l48 250q19 96 3 131h154q-31 -40 -48 -131l-50 -255q-28 -145 -98 -212.5t-193 -67.5z" />
    <glyph glyph-name="uring" unicode="&#x16f;" horiz-adv-x="545" 
d="M317 544q-46 0 -71 22t-25 58q0 50 39 84.5t95 34.5q45 0 70.5 -22t25.5 -57q0 -50 -38.5 -85t-95.5 -35zM325 590q27 0 45 19.5t18 48.5q0 18 -11.5 28.5t-29.5 10.5q-27 0 -44.5 -19.5t-17.5 -48.5q0 -18 11 -28.5t29 -10.5zM167 -15q-70 0 -98.5 47t-12.5 131l39 202
q7 38 9.5 57.5t1 38t-10.5 30.5h137l-61 -307q-22 -101 38 -101q34 0 72 32t69 78l34 172q20 100 3 126h134l-68 -348q-21 -106 0 -143h-129l8 67h-6q-29 -34 -71 -58t-88 -24z" />
    <glyph glyph-name="Uhungarumlaut" unicode="&#x170;" horiz-adv-x="648" 
d="M345 711l-49 25q73 72 123 170l64 -35q-56 -90 -138 -160zM507 711l-50 25q78 80 124 170l63 -35q-59 -93 -137 -160zM281 -12q-117 0 -170.5 68.5t-26.5 211.5l50 255q17 99 2 131h159q-31 -39 -49 -131l-48 -250q-36 -187 96 -187q135 0 171 187l48 250q19 96 3 131
h154q-31 -40 -48 -131l-50 -255q-28 -145 -98 -212.5t-193 -67.5z" />
    <glyph glyph-name="uhungarumlaut" unicode="&#x171;" horiz-adv-x="545" 
d="M253 562l-49 25q73 72 123 170l64 -35q-56 -90 -138 -160zM415 562l-50 25q78 80 124 170l63 -35q-59 -93 -137 -160zM167 -15q-70 0 -98.5 47t-12.5 131l39 202q7 38 9.5 57.5t1 38t-10.5 30.5h137l-61 -307q-22 -101 38 -101q34 0 72 32t69 78l34 172q20 100 3 126h134
l-68 -348q-21 -106 0 -143h-129l8 67h-6q-29 -34 -71 -58t-88 -24z" />
    <glyph glyph-name="Uogonek" unicode="&#x172;" horiz-adv-x="648" 
d="M516 654h154q-31 -40 -48 -131l-50 -255q-23 -117 -72 -182.5t-130 -87.5q-36 -22 -57.5 -49t-21.5 -51q0 -27 29 -27q20 0 37 19l16 -49q-34 -30 -82 -30q-33 0 -54.5 16.5t-21.5 46.5q0 64 73 114h-7q-117 0 -170.5 68.5t-26.5 211.5l50 255q17 99 2 131h159
q-31 -39 -49 -131l-48 -250q-36 -187 96 -187q135 0 171 187l48 250q19 96 3 131z" />
    <glyph glyph-name="uogonek" unicode="&#x173;" horiz-adv-x="545" 
d="M521 491l-68 -348q-21 -106 0 -143q-45 -21 -73 -53t-28 -59t29 -27q20 0 37 19l16 -49q-34 -30 -82 -30q-33 0 -54.5 16.5t-21.5 46.5q0 39 31 76t81 60h-64l8 67h-6q-29 -34 -71 -58t-88 -24q-70 0 -98.5 47t-12.5 131l39 202q7 38 9.5 57.5t1 38t-10.5 30.5h137
l-61 -307q-22 -101 38 -101q34 0 72 32t69 78l34 172q20 100 3 126h134z" />
    <glyph glyph-name="Wcircumflex" unicode="&#x174;" horiz-adv-x="850" 
d="M542 815q-54 -65 -142 -109l-34 38q81 56 139 137h100q28 -82 87 -137l-47 -38q-71 45 -99 109h-4zM767 654h144q-26 -31 -63 -124l-160 -413q-34 -85 -29 -117h-187q17 40 14 116l-13 354l-155 -354q-39 -91 -32 -116h-187q18 33 18 117l-3 416q-1 88 -16 121h153
q-20 -33 -20 -114l-4 -397l178 409q32 73 27 102h157q-12 -30 -10 -102l15 -409l150 397q2 5 6.5 18t6 17.5t5 14.5t4.5 15l2.5 12.5t1.5 13t-0.5 11.5t-2.5 12z" />
    <glyph glyph-name="wcircumflex" unicode="&#x175;" horiz-adv-x="780" 
d="M329 557l-34 38q81 56 139 137h100q28 -82 87 -137l-47 -38q-71 45 -99 109h-4q-54 -65 -142 -109zM107 0l-27 383q-3 49 -8 70.5t-18 37.5h127l14 -254q5 -112 3 -154h5q18 61 88 213q72 152 71 195h156l15 -254q6 -87 1 -153h5q10 32 52.5 127.5t70.5 174t20 105.5h122
q-18 -63 -106.5 -263t-96.5 -228h-159l-13 259q-4 87 -1 132h-5q-13 -58 -46 -132q-11 -25 -38.5 -83t-43.5 -96.5t-30 -79.5h-158z" />
    <glyph glyph-name="Ycircumflex" unicode="&#x176;" horiz-adv-x="552" 
d="M384 815q-54 -65 -142 -109l-34 38q81 56 139 137h100q28 -82 87 -137l-47 -38q-71 45 -99 109h-4zM469 654h151q-22 -19 -36 -37t-47 -68l-205 -306l-22 -112q-20 -98 -2 -131h-161q17 20 27 46.5t22 84.5l23 111l-86 310q-20 71 -42 102h153q-8 -18 -7.5 -38t11.5 -68
l49 -206l130 206q27 43 35.5 63.5t6.5 42.5z" />
    <glyph glyph-name="ycircumflex" unicode="&#x177;" horiz-adv-x="485" 
d="M180 557l-34 38q81 56 139 137h100q28 -82 87 -137l-47 -38q-71 45 -99 109h-4q-54 -65 -142 -109zM40 -200q-19 0 -45 3.5t-37 1.5l39 114q19 -26 54 -26q61 0 103 91l7 15l-69 373q-17 91 -41 119h129l42 -272q9 -63 11 -111h5q20 46 52 110l78 167q37 80 26 106h129
l-260 -526q-37 -77 -95.5 -121t-127.5 -44z" />
    <glyph glyph-name="Ydieresis" unicode="&#x178;" horiz-adv-x="552" 
d="M270 727q-21 0 -33.5 12.5t-12.5 32.5q0 27 20.5 47.5t48.5 20.5q20 0 32.5 -12.5t12.5 -32.5q0 -27 -20 -47.5t-48 -20.5zM471 727q-21 0 -33.5 12.5t-12.5 32.5q0 26 20.5 47t47.5 21q21 0 33.5 -12.5t12.5 -32.5q0 -27 -20.5 -47.5t-47.5 -20.5zM469 654h151
q-22 -19 -36 -37t-47 -68l-205 -306l-22 -112q-20 -98 -2 -131h-161q17 20 27 46.5t22 84.5l23 111l-86 310q-20 71 -42 102h153q-8 -18 -7.5 -38t11.5 -68l49 -206l130 206q27 43 35.5 63.5t6.5 42.5z" />
    <glyph glyph-name="Zacute" unicode="&#x179;" horiz-adv-x="564" 
d="M542 843q-78 -95 -199 -146l-33 51q94 52 182 163zM278 654h303l-15 -85q-17 -9 -30.5 -23.5t-51.5 -61.5l-312 -384h185q90 0 128 23l-24 -131q-28 8 -122 8h-334l13 86q21 14 37.5 31.5t63.5 74.5l293 362h-153q-87 0 -125 -24l25 132q35 -8 119 -8z" />
    <glyph glyph-name="zacute" unicode="&#x17a;" horiz-adv-x="426" 
d="M435 708q-78 -95 -199 -146l-33 51q94 52 182 163zM77 382l21 109h336l-9 -71l-278 -330h129q68 0 98 19l-20 -109h-365l10 71l279 330h-113q-59 0 -88 -19z" />
    <glyph glyph-name="Zdotaccent" unicode="&#x17b;" horiz-adv-x="564" 
d="M364 712q-52 0 -52 43q0 34 21 55t54 21q53 0 53 -44q0 -33 -21 -54t-55 -21zM278 654h303l-15 -85q-17 -9 -30.5 -23.5t-51.5 -61.5l-312 -384h185q90 0 128 23l-24 -131q-28 8 -122 8h-334l13 86q21 14 37.5 31.5t63.5 74.5l293 362h-153q-87 0 -125 -24l25 132
q35 -8 119 -8z" />
    <glyph glyph-name="zdotaccent" unicode="&#x17c;" horiz-adv-x="426" 
d="M258 577q-52 0 -52 43q0 34 21 55t54 21q53 0 53 -44q0 -33 -21 -54t-55 -21zM434 491l-9 -71l-278 -330h129q68 0 98 19l-20 -109h-365l10 71l279 330h-113q-59 0 -88 -19l21 109h336z" />
    <glyph glyph-name="Zcaron" unicode="&#x17d;" horiz-adv-x="564" 
d="M314 696q-27 85 -86 138l46 38q68 -44 98 -109h4q60 67 142 109l32 -38q-83 -59 -139 -138h-97zM278 654h303l-15 -85q-17 -9 -30.5 -23.5t-51.5 -61.5l-312 -384h185q90 0 128 23l-24 -131q-28 8 -122 8h-334l13 86q21 14 37.5 31.5t63.5 74.5l293 362h-153
q-87 0 -125 -24l25 132q35 -8 119 -8z" />
    <glyph glyph-name="zcaron" unicode="&#x17e;" horiz-adv-x="426" 
d="M207 561q-27 85 -86 138l46 38q68 -44 98 -109h4q60 67 142 109l32 -38q-83 -59 -139 -138h-97zM77 382l21 109h336l-9 -71l-278 -330h129q68 0 98 19l-20 -109h-365l10 71l279 330h-113q-59 0 -88 -19z" />
    <glyph glyph-name="florin" unicode="&#x192;" horiz-adv-x="490" 
d="M431 530q-70 0 -96 -100l-15 -57h61q41 0 58 10l-17 -86q-13 10 -54 10h-66l-33 -120q-27 -101 -78.5 -150t-136.5 -49q-12 0 -34.5 2t-34.5 1l32 109q22 -24 52 -24q58 0 85 101l34 130h-16q-38 0 -58 -10l16 86q14 -10 54 -10h22l12 47q53 199 229 199q19 0 45.5 -2
t35.5 -2l-32 -108q-25 23 -65 23z" />
    <glyph glyph-name="uni0218" unicode="&#x218;" horiz-adv-x="540" 
d="M230 -12q-61 0 -139 26t-91 27l75 129q22 -39 68 -63t98 -24q59 0 96 29.5t37 78.5q0 55 -80 86l-61 24q-125 51 -125 159q0 96 67.5 151t171.5 55q55 0 123 -21t73 -22l-66 -119q-52 65 -139 65q-49 0 -81 -26t-32 -69q0 -28 20 -46t60 -34l60 -24q127 -50 127 -162
q0 -102 -73.5 -161t-188.5 -59zM167 -247l-11 36q63 21 75 67q-3 -1 -7 -1q-17 0 -28.5 9.5t-11.5 25.5q0 22 16.5 38t39.5 16q47 0 47 -49q0 -46 -33 -86t-87 -56z" />
    <glyph glyph-name="uni0219" unicode="&#x219;" horiz-adv-x="425" 
d="M183 -12q-40 0 -75.5 9.5t-68.5 24t-44 17.5l65 113q40 -76 131 -76q32 0 52 14.5t20 42.5q0 24 -16 38.5t-50 30.5l-26 12q-100 45 -100 137q0 69 49.5 111.5t126.5 42.5q31 0 61.5 -8t58.5 -19.5t40 -14.5l-55 -107q-36 61 -110 61q-27 0 -45 -14.5t-18 -36.5
q0 -39 54 -64l29 -14q51 -24 81 -55t30 -86q0 -72 -51.5 -115.5t-138.5 -43.5zM103 -247l-11 36q63 21 75 67q-3 -1 -7 -1q-17 0 -28.5 9.5t-11.5 25.5q0 22 16.5 38t39.5 16q47 0 47 -49q0 -46 -33 -86t-87 -56z" />
    <glyph glyph-name="uni021A" unicode="&#x21a;" horiz-adv-x="535" 
d="M141 0q32 48 48 131l83 426h-71q-75 0 -122 -16l23 120q46 -7 117 -7h256q72 0 119 7l-23 -120q-41 16 -115 16h-71l-83 -426q-17 -88 -2 -131h-159zM140 -247l-11 36q63 21 75 67q-3 -1 -7 -1q-17 0 -28.5 9.5t-11.5 25.5q0 22 16.5 38t39.5 16q47 0 47 -49
q0 -46 -33 -86t-87 -56z" />
    <glyph glyph-name="uni021B" unicode="&#x21b;" horiz-adv-x="369" 
d="M195 -11q-71 0 -105 47t-16 131l47 231h-69l18 92l72 1l19 91h110l-18 -91h119l-18 -93h-120l-47 -229q-19 -88 42 -88q44 0 67 25l20 -104q-11 0 -51.5 -6.5t-69.5 -6.5zM115 -247l-11 36q63 21 75 67q-3 -1 -7 -1q-17 0 -28.5 9.5t-11.5 25.5q0 22 16.5 38t39.5 16
q47 0 47 -49q0 -46 -33 -86t-87 -56z" />
    <glyph glyph-name="circumflex" unicode="&#x2c6;" horiz-adv-x="487" 
d="M184 566l-34 38q81 56 139 137h100q28 -82 87 -137l-47 -38q-71 45 -99 109h-4q-54 -65 -142 -109z" />
    <glyph glyph-name="caron" unicode="&#x2c7;" horiz-adv-x="487" 
d="M260 570q-27 85 -86 138l46 38q68 -44 98 -109h4q60 67 142 109l32 -38q-83 -59 -139 -138h-97z" />
    <glyph glyph-name="breve" unicode="&#x2d8;" horiz-adv-x="429" 
d="M279 558q-66 0 -94.5 45.5t-12.5 112.5h57q-7 -41 7.5 -67t51.5 -26q39 0 62.5 26t31.5 67h57q-22 -158 -160 -158z" />
    <glyph glyph-name="dotaccent" unicode="&#x2d9;" horiz-adv-x="286" 
d="M209 586q-52 0 -52 43q0 34 21 55t54 21q53 0 53 -44q0 -33 -21 -54t-55 -21z" />
    <glyph glyph-name="ring" unicode="&#x2da;" horiz-adv-x="387" 
d="M254 553q-46 0 -71 22t-25 58q0 50 39 84.5t95 34.5q45 0 70.5 -22t25.5 -57q0 -50 -38.5 -85t-95.5 -35zM262 599q27 0 45 19.5t18 48.5q0 18 -11.5 28.5t-29.5 10.5q-27 0 -44.5 -19.5t-17.5 -48.5q0 -18 11 -28.5t29 -10.5z" />
    <glyph glyph-name="ogonek" unicode="&#x2db;" horiz-adv-x="327" 
d="M85 -196q-33 0 -54.5 16.5t-21.5 46.5q0 42 35.5 81.5t91.5 60.5l50 -6q-45 -21 -73 -53t-28 -59t29 -27q20 0 37 19l16 -49q-34 -30 -82 -30z" />
    <glyph glyph-name="tilde" unicode="&#x2dc;" horiz-adv-x="533" 
d="M405 581q-25 0 -45.5 11t-32 24.5t-25.5 24.5t-26 11q-20 0 -27 -14t-4 -47l-74 4q10 63 39.5 95.5t75.5 32.5q25 0 45.5 -11t32 -24.5t25.5 -24.5t27 -11q37 0 31 61l74 -5q-10 -62 -40 -94.5t-76 -32.5z" />
    <glyph glyph-name="hungarumlaut" unicode="&#x2dd;" horiz-adv-x="475" 
d="M197 571l-49 25q73 72 123 170l64 -35q-56 -90 -138 -160zM359 571l-50 25q78 80 124 170l63 -35q-59 -93 -137 -160z" />
    <glyph glyph-name="gravecomb" unicode="&#x300;" horiz-adv-x="0" 
d="M-199 573q-45 21 -83 58.5t-60 85.5l69 63q31 -102 114 -165z" />
    <glyph glyph-name="acutecomb" unicode="&#x301;" horiz-adv-x="0" 
d="M-214 571l-33 51q94 52 182 163l50 -68q-78 -95 -199 -146z" />
    <glyph glyph-name="uni0302" unicode="&#x302;" horiz-adv-x="0" 
d="M-358 566l-34 38q81 56 139 137h100q28 -82 87 -137l-47 -38q-71 45 -99 109h-4q-54 -65 -142 -109z" />
    <glyph glyph-name="tildecomb" unicode="&#x303;" horiz-adv-x="0" 
d="M-137 581q-25 0 -45.5 11t-32 24.5t-25.5 24.5t-26 11q-20 0 -27 -14t-4 -47l-74 4q10 63 39.5 95.5t75.5 32.5q25 0 45.5 -11t32 -24.5t25.5 -24.5t27 -11q37 0 31 61l74 -5q-10 -62 -40 -94.5t-76 -32.5z" />
    <glyph glyph-name="uni0304" unicode="&#x304;" horiz-adv-x="0" 
d="M-394 590l12 66h266l-12 -66h-266z" />
    <glyph glyph-name="uni0306" unicode="&#x306;" horiz-adv-x="0" 
d="M-263 558q-66 0 -94.5 45.5t-12.5 112.5h57q-7 -41 7.5 -67t51.5 -26q39 0 62.5 26t31.5 67h57q-22 -158 -160 -158z" />
    <glyph glyph-name="uni0307" unicode="&#x307;" horiz-adv-x="0" 
d="M-333 586q-52 0 -52 43q0 34 21 55t54 21q53 0 53 -44q0 -33 -21 -54t-55 -21z" />
    <glyph glyph-name="uni0308" unicode="&#x308;" horiz-adv-x="0" 
d="M-339 587q-21 0 -33.5 12.5t-12.5 32.5q0 27 20.5 47.5t48.5 20.5q20 0 32.5 -12.5t12.5 -32.5q0 -27 -20 -47.5t-48 -20.5zM-138 587q-21 0 -33.5 12.5t-12.5 32.5q0 26 20.5 47t47.5 21q21 0 33.5 -12.5t12.5 -32.5q0 -27 -20.5 -47.5t-47.5 -20.5z" />
    <glyph glyph-name="uni030A" unicode="&#x30a;" horiz-adv-x="0" 
d="M-163 553q-46 0 -71 22t-25 58q0 50 39 84.5t95 34.5q45 0 70.5 -22t25.5 -57q0 -50 -38.5 -85t-95.5 -35zM-155 599q27 0 45 19.5t18 48.5q0 18 -11.5 28.5t-29.5 10.5q-27 0 -44.5 -19.5t-17.5 -48.5q0 -18 11 -28.5t29 -10.5z" />
    <glyph glyph-name="uni030B" unicode="&#x30b;" horiz-adv-x="0" 
d="M-345 571l-49 25q73 72 123 170l64 -35q-56 -90 -138 -160zM-183 571l-50 25q78 80 124 170l63 -35q-59 -93 -137 -160z" />
    <glyph glyph-name="uni030C" unicode="&#x30c;" horiz-adv-x="0" 
d="M-282 570q-27 85 -86 138l46 38q68 -44 98 -109h4q60 67 142 109l32 -38q-83 -59 -139 -138h-97z" />
    <glyph glyph-name="uni0312" unicode="&#x312;" horiz-adv-x="0" 
d="M-77 564q-51 0 -51 50q0 49 36 90.5t94 58.5l11 -38q-32 -9 -52.5 -28t-26.5 -41h8q18 0 30.5 -9.5t12.5 -26.5q0 -23 -18 -39.5t-44 -16.5z" />
    <glyph glyph-name="uni0326" unicode="&#x326;" horiz-adv-x="0" 
d="M-276 -247l-11 36q63 21 75 67q-3 -1 -7 -1q-17 0 -28.5 9.5t-11.5 25.5q0 22 16.5 38t39.5 16q47 0 47 -49q0 -46 -33 -86t-87 -56z" />
    <glyph glyph-name="uni0327" unicode="&#x327;" horiz-adv-x="0" 
d="M-347 -230l2 56q53 -7 84 5.5t31 40.5q0 34 -66 38l45 94h41l-19 -57q77 -12 77 -66q0 -52 -52 -81.5t-143 -29.5z" />
    <glyph glyph-name="uni0328" unicode="&#x328;" horiz-adv-x="0" 
d="M-342 -196q-33 0 -54.5 16.5t-21.5 46.5q0 42 35.5 81.5t91.5 60.5l50 -6q-45 -21 -73 -53t-28 -59t29 -27q20 0 37 19l16 -49q-34 -30 -82 -30z" />
    <glyph glyph-name="uni0394" unicode="&#x394;" horiz-adv-x="592" 
d="M494 536l62 -455l-34 -81h-481l-2 81l238 455q44 85 44 118h175q-13 -34 -2 -118zM159 96h278l-50 463z" />
    <glyph glyph-name="uni03A9" unicode="&#x3a9;" horiz-adv-x="745" 
d="M516 87h58q48 0 65 11l-21 -109q-14 11 -61 11h-184l7 35h-1l11 56q74 26 131.5 126t57.5 204q0 68 -34.5 106.5t-99.5 38.5q-94 0 -156 -85t-62 -216q0 -69 24.5 -114t63.5 -60l-11 -56l-7 -35h-184q-49 0 -65 -11l21 109q14 -11 61 -11h57q-73 70 -73 197
q0 162 101 272t250 110q109 0 171 -60.5t62 -164.5q0 -103 -51.5 -200.5t-130.5 -153.5z" />
    <glyph glyph-name="uni03BC" unicode="&#x3bc;" horiz-adv-x="558" 
d="M611 491l-71 -366q-17 -89 -5 -125h-129q6 32 19 70h-9q-27 -37 -69 -59.5t-89 -22.5q-26 0 -44 7l-7 -36q-17 -92 -6 -131h-156q33 43 49 131l53 275h1l26 132q15 88 1 125h136l-66 -337q-14 -68 56 -68q33 0 71 24t65 64l38 192q18 89 1 125h135z" />
    <glyph glyph-name="pi" unicode="&#x3c0;" horiz-adv-x="599" 
d="M409 -12q-75 0 -98 41t-6 131l46 234h-116l-51 -263q-17 -89 -6 -131h-156q30 41 49 131l51 263h-6q-64 0 -90 -16l23 120q22 -7 85 -7h353q64 0 90 7l-23 -120q-21 16 -85 16h-6l-45 -228q-15 -86 23 -86q23 0 40 16l-6 -101q-59 -7 -66 -7z" />
    <glyph glyph-name="Wgrave" unicode="&#x1e80;" horiz-adv-x="850" 
d="M533 713q-45 21 -83 58.5t-60 85.5l69 63q31 -102 114 -165zM767 654h144q-26 -31 -63 -124l-160 -413q-34 -85 -29 -117h-187q17 40 14 116l-13 354l-155 -354q-39 -91 -32 -116h-187q18 33 18 117l-3 416q-1 88 -16 121h153q-20 -33 -20 -114l-4 -397l178 409
q32 73 27 102h157q-12 -30 -10 -102l15 -409l150 397q2 5 6.5 18t6 17.5t5 14.5t4.5 15l2.5 12.5t1.5 13t-0.5 11.5t-2.5 12z" />
    <glyph glyph-name="wgrave" unicode="&#x1e81;" horiz-adv-x="780" 
d="M462 564q-45 21 -83 58.5t-60 85.5l69 63q31 -102 114 -165zM107 0l-27 383q-3 49 -8 70.5t-18 37.5h127l14 -254q5 -112 3 -154h5q18 61 88 213q72 152 71 195h156l15 -254q6 -87 1 -153h5q10 32 52.5 127.5t70.5 174t20 105.5h122q-18 -63 -106.5 -263t-96.5 -228h-159
l-13 259q-4 87 -1 132h-5q-13 -58 -46 -132q-11 -25 -38.5 -83t-43.5 -96.5t-30 -79.5h-158z" />
    <glyph glyph-name="Wacute" unicode="&#x1e82;" horiz-adv-x="850" 
d="M704 857q-78 -95 -199 -146l-33 51q94 52 182 163zM767 654h144q-26 -31 -63 -124l-160 -413q-34 -85 -29 -117h-187q17 40 14 116l-13 354l-155 -354q-39 -91 -32 -116h-187q18 33 18 117l-3 416q-1 88 -16 121h153q-20 -33 -20 -114l-4 -397l178 409q32 73 27 102h157
q-12 -30 -10 -102l15 -409l150 397q2 5 6.5 18t6 17.5t5 14.5t4.5 15l2.5 12.5t1.5 13t-0.5 11.5t-2.5 12z" />
    <glyph glyph-name="wacute" unicode="&#x1e83;" horiz-adv-x="780" 
d="M435 562l-33 51q94 52 182 163l50 -68q-78 -95 -199 -146zM107 0l-27 383q-3 49 -8 70.5t-18 37.5h127l14 -254q5 -112 3 -154h5q18 61 88 213q72 152 71 195h156l15 -254q6 -87 1 -153h5q10 32 52.5 127.5t70.5 174t20 105.5h122q-18 -63 -106.5 -263t-96.5 -228h-159
l-13 259q-4 87 -1 132h-5q-13 -58 -46 -132q-11 -25 -38.5 -83t-43.5 -96.5t-30 -79.5h-158z" />
    <glyph glyph-name="Wdieresis" unicode="&#x1e84;" horiz-adv-x="850" 
d="M428 727q-21 0 -33.5 12.5t-12.5 32.5q0 27 20.5 47.5t48.5 20.5q20 0 32.5 -12.5t12.5 -32.5q0 -27 -20 -47.5t-48 -20.5zM629 727q-21 0 -33.5 12.5t-12.5 32.5q0 26 20.5 47t47.5 21q21 0 33.5 -12.5t12.5 -32.5q0 -27 -20.5 -47.5t-47.5 -20.5zM767 654h144
q-26 -31 -63 -124l-160 -413q-34 -85 -29 -117h-187q17 40 14 116l-13 354l-155 -354q-39 -91 -32 -116h-187q18 33 18 117l-3 416q-1 88 -16 121h153q-20 -33 -20 -114l-4 -397l178 409q32 73 27 102h157q-12 -30 -10 -102l15 -409l150 397q2 5 6.5 18t6 17.5t5 14.5
t4.5 15l2.5 12.5t1.5 13t-0.5 11.5t-2.5 12z" />
    <glyph glyph-name="wdieresis" unicode="&#x1e85;" horiz-adv-x="780" 
d="M357 578q-21 0 -33.5 12.5t-12.5 32.5q0 27 20.5 47.5t48.5 20.5q20 0 32.5 -12.5t12.5 -32.5q0 -27 -20 -47.5t-48 -20.5zM558 578q-21 0 -33.5 12.5t-12.5 32.5q0 26 20.5 47t47.5 21q21 0 33.5 -12.5t12.5 -32.5q0 -27 -20.5 -47.5t-47.5 -20.5zM107 0l-27 383
q-3 49 -8 70.5t-18 37.5h127l14 -254q5 -112 3 -154h5q18 61 88 213q72 152 71 195h156l15 -254q6 -87 1 -153h5q10 32 52.5 127.5t70.5 174t20 105.5h122q-18 -63 -106.5 -263t-96.5 -228h-159l-13 259q-4 87 -1 132h-5q-13 -58 -46 -132q-11 -25 -38.5 -83t-43.5 -96.5
t-30 -79.5h-158z" />
    <glyph glyph-name="uni1E9E" unicode="&#x1e9e;" horiz-adv-x="658" 
d="M389 -12q-48 0 -101.5 20t-66.5 21l65 115q11 -28 40 -46.5t67 -18.5q43 0 70.5 27.5t27.5 69.5q0 44 -35 75t-108 37l6 71l124 144q-2 23 -32.5 44t-70.5 21q-58 0 -96 -40t-55 -130l-52 -267q-18 -96 1 -131h-162q29 31 49 131l52 271q26 133 91.5 198.5t179.5 65.5
q85 0 144.5 -52.5t65.5 -114.5l-124 -138q63 -16 101 -63t38 -110q0 -91 -59.5 -145.5t-159.5 -54.5z" />
    <glyph glyph-name="Ygrave" unicode="&#x1ef2;" horiz-adv-x="552" 
d="M375 713q-45 21 -83 58.5t-60 85.5l69 63q31 -102 114 -165zM469 654h151q-22 -19 -36 -37t-47 -68l-205 -306l-22 -112q-20 -98 -2 -131h-161q17 20 27 46.5t22 84.5l23 111l-86 310q-20 71 -42 102h153q-8 -18 -7.5 -38t11.5 -68l49 -206l130 206q27 43 35.5 63.5
t6.5 42.5z" />
    <glyph glyph-name="ygrave" unicode="&#x1ef3;" horiz-adv-x="485" 
d="M313 564q-45 21 -83 58.5t-60 85.5l69 63q31 -102 114 -165zM40 -200q-19 0 -45 3.5t-37 1.5l39 114q19 -26 54 -26q61 0 103 91l7 15l-69 373q-17 91 -41 119h129l42 -272q9 -63 11 -111h5q20 46 52 110l78 167q37 80 26 106h129l-260 -526q-37 -77 -95.5 -121
t-127.5 -44z" />
    <glyph glyph-name="figuredash" unicode="&#x2012;" horiz-adv-x="512" 
d="M41 214l15 75h416l-15 -75h-416z" />
    <glyph glyph-name="endash" unicode="&#x2013;" horiz-adv-x="495" 
d="M41 214l15 75h398l-15 -75h-398z" />
    <glyph glyph-name="emdash" unicode="&#x2014;" horiz-adv-x="815" 
d="M41 214l15 75h718l-15 -75h-718z" />
    <glyph glyph-name="quoteleft" unicode="&#x2018;" horiz-adv-x="262" 
d="M292 706l18 -50q-90 -48 -106 -125q4 1 9 1q23 0 38 -13t15 -34q0 -33 -23 -57t-55 -24q-59 0 -59 71t43 132t120 99z" />
    <glyph glyph-name="quoteright" unicode="&#x2019;" horiz-adv-x="286" 
d="M81 397l-18 50q47 25 72.5 54.5t33.5 70.5q-4 -1 -9 -1q-23 0 -38 13t-15 34q0 32 23.5 56.5t54.5 24.5q59 0 59 -71t-43 -132t-120 -99z" />
    <glyph glyph-name="quotesinglbase" unicode="&#x201a;" horiz-adv-x="268" 
d="M-21 -173l-18 50q90 48 106 125q-4 -1 -9 -1q-23 0 -38 12.5t-15 34.5q0 32 23 56t55 24q59 0 59 -70q0 -71 -43 -132t-120 -99z" />
    <glyph glyph-name="quotedblleft" unicode="&#x201c;" horiz-adv-x="449" 
d="M291 706l18 -50q-47 -25 -72.5 -54.5t-33.5 -70.5q3 1 9 1q22 0 37 -13t15 -34q0 -32 -23 -56.5t-54 -24.5q-59 0 -59 71t42.5 132t120.5 99zM479 706l18 -50q-47 -25 -72.5 -54.5t-33.5 -70.5q4 1 9 1q23 0 38 -13t15 -34q0 -32 -23.5 -56.5t-54.5 -24.5q-59 0 -59 71
t43 132t120 99z" />
    <glyph glyph-name="quotedblright" unicode="&#x201d;" horiz-adv-x="450" 
d="M88 397l-18 50q47 25 72.5 54.5t33.5 70.5q-3 -1 -9 -1q-22 0 -37 13t-15 34q0 32 23 56.5t54 24.5q59 0 59 -71t-43 -132t-120 -99zM276 397l-18 50q47 25 72.5 54.5t33.5 70.5q-3 -1 -9 -1q-22 0 -37 13t-15 34q0 32 23 56.5t54 24.5q59 0 59 -71t-42.5 -132
t-120.5 -99z" />
    <glyph glyph-name="quotedblbase" unicode="&#x201e;" horiz-adv-x="463" 
d="M-22 -173l-18 49q92 50 106 126q-4 -1 -9 -1q-23 0 -38 12.5t-15 34.5q0 32 23.5 56t54.5 24q59 0 59 -70q0 -71 -43 -132.5t-120 -98.5zM166 -173l-18 49q92 50 106 126q-3 -1 -9 -1q-23 0 -37.5 12.5t-14.5 34.5q0 32 23 56t54 24q59 0 59 -70q0 -71 -43 -132.5
t-120 -98.5z" />
    <glyph glyph-name="dagger" unicode="&#x2020;" horiz-adv-x="427" 
d="M102 214q17 19 31 87l33 171h-29q-63 0 -87 -15l19 102q18 -14 83 -14h29l9 45q11 63 2 87h108q-18 -23 -30 -87l-9 -45h29q65 0 87 14l-20 -102q-18 15 -81 15h-29l-34 -171q-12 -65 -2 -87h-109z" />
    <glyph glyph-name="daggerdbl" unicode="&#x2021;" horiz-adv-x="498" 
d="M130 214q18 23 30 84l6 33h-29q-62 0 -87 -14l19 99q17 -14 82 -14h29l17 87h-29q-62 0 -88 -15l19 100q18 -14 83 -14h29l6 32q12 61 2 85h109q-19 -21 -31 -85l-6 -32h29q65 0 87 14l-19 -100q-18 15 -82 15h-29l-16 -87h29q64 0 86 14l-19 -99q-19 14 -81 14h-29
l-7 -33q-12 -63 -1 -84h-109z" />
    <glyph glyph-name="bullet" unicode="&#x2022;" horiz-adv-x="342" 
d="M146 134q-44 0 -72 27.5t-28 71.5q0 63 44.5 110t105.5 47q44 0 72 -27.5t28 -71.5q0 -63 -44 -110t-106 -47z" />
    <glyph glyph-name="ellipsis" unicode="&#x2026;" horiz-adv-x="771" 
d="M88 -12q-25 0 -41.5 16t-16.5 41q0 35 26 62t61 27q25 0 41 -16t16 -42q0 -35 -25.5 -61.5t-60.5 -26.5zM342 -12q-26 0 -42 16t-16 41q0 35 25.5 62t61.5 27q25 0 41 -16t16 -42q0 -35 -25.5 -61.5t-60.5 -26.5zM596 -12q-26 0 -42 16t-16 41q0 35 25.5 62t60.5 27
q26 0 42 -16t16 -42q0 -35 -25.5 -61.5t-60.5 -26.5z" />
    <glyph glyph-name="perthousand" unicode="&#x2030;" horiz-adv-x="1250" 
d="M171 -12l486 680h86l-487 -680h-85zM200 268q-58 0 -90.5 35.5t-32.5 100.5q0 109 58 183.5t142 74.5q57 0 90 -35.5t33 -100.5q0 -107 -58.5 -182.5t-141.5 -75.5zM213 336q41 0 72 56t31 130q0 72 -53 72q-42 0 -72.5 -55t-30.5 -130q0 -73 53 -73zM630 -12
q-58 0 -90.5 35.5t-32.5 100.5q0 109 58 183.5t142 74.5q57 0 90 -35.5t33 -100.5q0 -107 -58.5 -182.5t-141.5 -75.5zM1005 -12q-58 0 -90.5 35.5t-32.5 100.5q0 109 58 183.5t142 74.5q57 0 90 -35.5t33 -100.5q0 -107 -58.5 -182.5t-141.5 -75.5zM643 56q42 0 72.5 55.5
t30.5 130.5q0 72 -52 72q-43 0 -73.5 -55t-30.5 -130q0 -73 53 -73zM1018 56q42 0 72.5 55.5t30.5 130.5q0 72 -53 72q-42 0 -72.5 -55t-30.5 -130q0 -73 53 -73z" />
    <glyph glyph-name="guilsinglleft" unicode="&#x2039;" horiz-adv-x="317" 
d="M162 56q-22 42 -56 85t-64 63l19 96q39 21 90 64.5t87 83.5l38 -42q-75 -91 -149 -154q53 -68 88 -156z" />
    <glyph glyph-name="guilsinglright" unicode="&#x203a;" horiz-adv-x="318" 
d="M80 56l-39 40q75 91 150 156q-56 73 -89 154l54 42q20 -41 54.5 -84t65.5 -64l-19 -96q-39 -21 -89.5 -64t-87.5 -84z" />
    <glyph glyph-name="fraction" unicode="&#x2044;" horiz-adv-x="419" 
d="M-60 -12l486 680h86l-487 -680h-85z" />
    <glyph glyph-name="uni2070" unicode="&#x2070;" horiz-adv-x="390" 
d="M225 397q-58 0 -90.5 35.5t-32.5 100.5q0 109 58 183.5t142 74.5q57 0 90 -35.5t33 -100.5q0 -107 -58.5 -182.5t-141.5 -75.5zM238 465q41 0 72 56t31 130q0 72 -53 72q-42 0 -72.5 -55t-30.5 -130q0 -73 53 -73z" />
    <glyph glyph-name="uni2074" unicode="&#x2074;" horiz-adv-x="354" 
d="M214 409q23 18 34 79l3 15h-177l9 48l207 234h90l-42 -223q42 0 60 14l-14 -73h-58l-3 -15q-7 -36 -6.5 -52.5t9.5 -26.5h-112zM160 562h103l28 149z" />
    <glyph glyph-name="uni2075" unicode="&#x2075;" horiz-adv-x="361" 
d="M207 397q-41 0 -80.5 18t-54.5 19l52 81q27 -54 92 -54q35 0 58.5 21.5t23.5 54.5q0 22 -17 35.5t-44 13.5q-34 0 -68 -17l-39 13l58 203h136q64 0 86 10l-19 -96q-19 16 -81 16h-74l-23 -79q23 10 56 10q49 0 80.5 -26t31.5 -71q0 -67 -49 -109.5t-125 -42.5z" />
    <glyph glyph-name="uni2076" unicode="&#x2076;" horiz-adv-x="367" 
d="M223 397q-57 0 -89.5 35t-32.5 99q0 109 64.5 187.5t154.5 78.5q22 0 50 -6t40 -5l-40 -82q-15 29 -62 29q-38 0 -71 -31t-46 -83q42 37 95 37q49 0 77 -25t28 -69q0 -69 -49 -117t-119 -48zM235 461q33 0 56 25t23 60q0 22 -13.5 35t-33.5 13q-49 0 -88 -39
q-4 -45 11 -69.5t45 -24.5z" />
    <glyph glyph-name="uni2077" unicode="&#x2077;" horiz-adv-x="330" 
d="M131 409q26 99 65.5 169t113.5 136h-109q-68 0 -92 -19l19 99q23 -9 87 -9h200l-12 -63q-84 -72 -123 -141t-61 -172h-88z" />
    <glyph glyph-name="uni2078" unicode="&#x2078;" horiz-adv-x="362" 
d="M211 397q-58 0 -91 25t-33 65q0 42 30.5 73.5t66.5 44.5l1 4q-46 23 -46 68q0 50 43 85t106 35q50 0 81 -23.5t31 -61.5q0 -35 -24.5 -63t-55.5 -41l-1 -4q59 -25 59 -79t-49 -91t-118 -37zM277 629q48 35 48 70q0 16 -14 26.5t-35 10.5q-24 0 -42.5 -15.5t-18.5 -35.5
q0 -34 62 -56zM223 455q32 0 54.5 18.5t22.5 44.5q0 21 -19.5 34.5t-57.5 26.5q-58 -35 -58 -77q0 -21 15.5 -34t42.5 -13z" />
    <glyph glyph-name="uni2079" unicode="&#x2079;" horiz-adv-x="367" 
d="M187 397q-21 0 -50.5 6t-41.5 4l40 82q17 -29 63 -29q38 0 70.5 31t45.5 83q-45 -36 -96 -36q-49 0 -76.5 25t-27.5 69q0 69 48 117t118 48q59 0 91.5 -35.5t32.5 -98.5q0 -111 -63 -188.5t-154 -77.5zM238 599q48 0 87 39q6 45 -9.5 69.5t-45.5 24.5q-32 0 -55.5 -25
t-23.5 -59q0 -22 13 -35.5t34 -13.5z" />
    <glyph glyph-name="uni2080" unicode="&#x2080;" horiz-adv-x="390" 
d="M112 -184q-58 0 -90.5 35.5t-32.5 100.5q0 109 58 183.5t142 74.5q57 0 90 -35.5t33 -100.5q0 -107 -58.5 -182.5t-141.5 -75.5zM125 -116q41 0 72 56t31 130q0 72 -53 72q-42 0 -72.5 -55t-30.5 -130q0 -73 53 -73z" />
    <glyph glyph-name="uni2081" unicode="&#x2081;" horiz-adv-x="333" 
d="M-36 -172l11 53l90 19l42 215h-89l12 59q48 0 99.5 11.5t80.5 25.5l-61 -311l80 -19l-11 -53h-254z" />
    <glyph glyph-name="uni2082" unicode="&#x2082;" horiz-adv-x="361" 
d="M-34 -171l9 62q106 61 162.5 111.5t56.5 98.5q0 21 -13 34t-35 13q-57 0 -97 -57l-28 82q13 2 59.5 23t85.5 21q52 0 83 -26.5t31 -72.5q0 -108 -180 -218h72q63 0 89 18l-17 -89h-278z" />
    <glyph glyph-name="uni2083" unicode="&#x2083;" horiz-adv-x="356" 
d="M90 -184q-40 0 -83.5 19t-51.5 21l57 81q22 -56 84 -56q33 0 55 17.5t22 43.5q0 50 -104 50l11 58q52 0 81.5 17t29.5 47q0 37 -47 37t-88 -43l-21 77q10 1 53.5 16t77.5 15q50 0 80 -21.5t30 -61.5t-24.5 -68t-69.5 -40q73 -15 73 -79q0 -57 -47 -93.5t-118 -36.5z" />
    <glyph glyph-name="uni2084" unicode="&#x2084;" horiz-adv-x="354" 
d="M101 -172q23 18 34 79l3 15h-177l9 48l207 234h90l-42 -223q42 0 60 14l-14 -73h-58l-3 -15q-7 -36 -6.5 -52.5t9.5 -26.5h-112zM47 -19h103l28 149z" />
    <glyph glyph-name="uni2085" unicode="&#x2085;" horiz-adv-x="361" 
d="M95 -177q-41 0 -80.5 18t-54.5 19l52 81q27 -54 92 -54q35 0 58.5 21.5t23.5 54.5q0 22 -17 35.5t-44 13.5q-34 0 -68 -17l-39 13l58 203h136q64 0 86 10l-19 -96q-19 16 -81 16h-74l-23 -79q23 10 56 10q49 0 80.5 -26t31.5 -71q0 -67 -49 -109.5t-125 -42.5z" />
    <glyph glyph-name="uni2086" unicode="&#x2086;" horiz-adv-x="367" 
d="M110 -184q-57 0 -89.5 35t-32.5 99q0 109 64.5 187.5t154.5 78.5q22 0 50 -6t40 -5l-40 -82q-15 29 -62 29q-38 0 -71 -31t-46 -83q42 37 95 37q49 0 77 -25t28 -69q0 -69 -49 -117t-119 -48zM122 -120q33 0 56 25t23 60q0 22 -13.5 35t-33.5 13q-49 0 -88 -39
q-4 -45 11 -69.5t45 -24.5z" />
    <glyph glyph-name="uni2087" unicode="&#x2087;" horiz-adv-x="330" 
d="M18 -172q26 99 65.5 169t113.5 136h-109q-68 0 -92 -19l19 99q23 -9 87 -9h200l-12 -63q-84 -72 -123 -141t-61 -172h-88z" />
    <glyph glyph-name="uni2088" unicode="&#x2088;" horiz-adv-x="362" 
d="M98 -184q-58 0 -91 25t-33 65q0 42 30.5 73.5t66.5 44.5l1 4q-46 23 -46 68q0 50 43 85t106 35q50 0 81 -23.5t31 -61.5q0 -35 -24.5 -63t-55.5 -41l-1 -4q59 -25 59 -79t-49 -91t-118 -37zM164 48q48 35 48 70q0 16 -14 26.5t-35 10.5q-24 0 -42.5 -15.5t-18.5 -35.5
q0 -34 62 -56zM110 -126q32 0 54.5 18.5t22.5 44.5q0 21 -19.5 34.5t-57.5 26.5q-58 -35 -58 -77q0 -21 15.5 -34t42.5 -13z" />
    <glyph glyph-name="uni2089" unicode="&#x2089;" horiz-adv-x="367" 
d="M74 -184q-21 0 -50.5 6t-41.5 4l40 82q17 -29 63 -29q38 0 70.5 31t45.5 83q-45 -36 -96 -36q-49 0 -76.5 25t-27.5 69q0 69 48 117t118 48q59 0 91.5 -35.5t32.5 -98.5q0 -111 -63 -188.5t-154 -77.5zM125 18q48 0 87 39q6 45 -9.5 69.5t-45.5 24.5q-32 0 -55.5 -25
t-23.5 -59q0 -22 13 -35.5t34 -13.5z" />
    <glyph glyph-name="Euro" unicode="&#x20ac;" horiz-adv-x="526" 
d="M411 631q43 0 90.5 -8t63.5 -7l-49 -121q-17 39 -117 39q-45 0 -85 -34.5t-66 -93.5h119q41 0 58 10l-16 -79h-185q-8 -33 -10 -53h185l-15 -79q-14 10 -54 10h-120q3 -130 110 -130q93 0 129 39l2 -124q-18 2 -69 -5t-88 -7q-203 0 -203 208v19h-11q-41 0 -58 -10l15 79
h60q2 20 10 53h-60l16 79q14 -10 54 -10h11q40 104 114.5 164.5t168.5 60.5z" />
    <glyph glyph-name="trademark" unicode="&#x2122;" horiz-adv-x="768" 
d="M315 677q49 0 66 6l-16 -82q-16 12 -63 12h-15l-28 -144q-10 -52 -3 -75h-92q17 26 26 75l28 144h-16q-49 0 -66 -12l16 82q13 -6 63 -6h100zM702 677h83q-19 -38 -26 -75l-26 -133q-10 -47 -4 -75h-91q16 24 26 75l19 97l-124 -151l-67 150l-18 -96q-10 -50 -4 -75h-91
q17 28 26 75l26 133q8 41 3 75h86l60 -151z" />
    <glyph glyph-name="uni2150" unicode="&#x2150;" horiz-adv-x="885" 
d="M173 -12l486 680h86l-487 -680h-85zM52 280l11 53l90 19l42 215h-89l12 59q48 0 99.5 11.5t80.5 25.5l-61 -311l80 -19l-11 -53h-254zM606 0q25 99 64.5 169t113.5 136h-109q-66 0 -92 -19l19 99q22 -9 87 -9h200l-12 -63q-83 -72 -122 -141t-61 -172h-88z" />
    <glyph glyph-name="uni2151" unicode="&#x2151;" horiz-adv-x="870" 
d="M175 -12l486 680h86l-487 -680h-85zM52 280l11 53l90 19l42 215h-89l12 59q48 0 99.5 11.5t80.5 25.5l-61 -311l80 -19l-11 -53h-254zM611 -12q-22 0 -51 6t-42 4l41 82q17 -29 62 -29q38 0 71 31t46 83q-45 -36 -96 -36q-49 0 -77 25t-28 69q0 69 48.5 117t118.5 48
q58 0 91 -35.5t33 -98.5q0 -111 -63 -188.5t-154 -77.5zM662 190q48 0 87 39q5 45 -10 69.5t-45 24.5q-33 0 -56 -24.5t-23 -59.5q0 -22 13 -35.5t34 -13.5z" />
    <glyph glyph-name="uni2152" unicode="&#x2152;" horiz-adv-x="1213" 
d="M174 -12l487 680h85l-486 -680h-86zM52 280l11 53l90 19l42 215h-89l12 59q48 0 99.5 11.5t80.5 25.5l-61 -311l80 -19l-11 -53h-254zM519 0l11 53l90 19l42 215h-89l12 59q48 0 99.5 11.5t80.5 25.5l-61 -311l80 -19l-11 -53h-254zM968 -12q-58 0 -90.5 35.5
t-32.5 100.5q0 109 58 183.5t142 74.5q57 0 90 -35.5t33 -100.5q0 -107 -58.5 -182.5t-141.5 -75.5zM981 56q42 0 72.5 55.5t30.5 130.5q0 72 -53 72q-42 0 -72.5 -55t-30.5 -130q0 -73 53 -73z" />
    <glyph glyph-name="uni2153" unicode="&#x2153;" horiz-adv-x="865" 
d="M172 -12l486 680h86l-486 -680h-86zM52 280l11 53l90 19l42 215h-89l12 59q48 0 99.5 11.5t80.5 25.5l-61 -311l80 -19l-11 -53h-254zM632 -12q-40 0 -83.5 19t-51.5 21l57 81q22 -56 84 -56q33 0 55 17.5t22 43.5q0 50 -104 50l11 58q52 0 81.5 17t29.5 47
q0 17 -12.5 27t-34.5 10q-47 0 -88 -43l-21 77q10 1 53.5 16t77.5 15q50 0 79.5 -21.5t29.5 -61.5q0 -83 -93 -108q73 -15 73 -79q0 -57 -47 -93.5t-118 -36.5z" />
    <glyph glyph-name="uni2154" unicode="&#x2154;" horiz-adv-x="883" 
d="M54 280l9 62q106 61 162.5 111.5t56.5 98.5q0 21 -13 34t-35 13q-57 0 -97 -57l-28 82q13 2 59.5 23t85.5 21q52 0 83 -26.5t31 -72.5q0 -108 -180 -218h72q63 0 89 18l-17 -89h-278zM195 -12l487 680h85l-486 -680h-86zM650 -12q-40 0 -83.5 19t-51.5 21l56 81
q22 -56 85 -56q32 0 54 17.5t22 43.5q0 50 -104 50l11 58q53 0 82.5 17t29.5 47q0 37 -48 37q-47 0 -88 -43l-21 77q10 1 53.5 16t77.5 15q50 0 80 -21.5t30 -61.5t-24.5 -68t-69.5 -40q74 -15 74 -79q0 -57 -47.5 -93.5t-117.5 -36.5z" />
    <glyph glyph-name="uni2155" unicode="&#x2155;" horiz-adv-x="838" 
d="M170 -12l486 680h86l-486 -680h-86zM52 280l11 53l90 19l42 215h-89l12 59q48 0 99.5 11.5t80.5 25.5l-61 -311l80 -19l-11 -53h-254zM604 -12q-40 0 -79.5 18t-55.5 19l52 81q27 -54 92 -54q35 0 58.5 21.5t23.5 54.5q0 22 -17 35.5t-44 13.5q-32 0 -68 -17l-38 13
l57 203h136q63 0 86 10l-19 -96q-19 16 -81 16h-74l-23 -79q25 10 56 10q49 0 80.5 -26t31.5 -71q0 -67 -49 -109.5t-125 -42.5z" />
    <glyph glyph-name="uni2156" unicode="&#x2156;" horiz-adv-x="873" 
d="M54 280l9 62q106 61 162.5 111.5t56.5 98.5q0 21 -13 34t-35 13q-57 0 -97 -57l-28 82q13 2 59.5 23t85.5 21q52 0 83 -26.5t31 -72.5q0 -108 -180 -218h72q63 0 89 18l-17 -89h-278zM193 -12l486 680h86l-487 -680h-85zM640 -12q-41 0 -80.5 18t-55.5 19l52 81
q27 -54 92 -54q35 0 58.5 21.5t23.5 54.5q0 22 -17 35.5t-44 13.5q-32 0 -68 -17l-38 13l57 203h136q64 0 86 10l-19 -96q-19 16 -80 16h-75l-23 -79q25 10 56 10q49 0 80.5 -26t31.5 -71q0 -67 -49 -109.5t-124 -42.5z" />
    <glyph glyph-name="uni2157" unicode="&#x2157;" horiz-adv-x="828" 
d="M178 268q-40 0 -83.5 19t-51.5 21l57 81q22 -56 84 -56q33 0 55 17.5t22 43.5q0 50 -104 50l11 58q52 0 81.5 17t29.5 47q0 37 -47 37t-88 -43l-21 77q10 1 53.5 16t77.5 15q50 0 80 -21.5t30 -61.5t-24.5 -68t-69.5 -40q73 -15 73 -79q0 -57 -47 -93.5t-118 -36.5z
M157 -12l486 680h86l-487 -680h-85zM595 -12q-41 0 -80.5 18t-55.5 19l52 81q27 -54 92 -54q35 0 58.5 21.5t23.5 54.5q0 22 -17 35.5t-44 13.5q-32 0 -68 -17l-38 13l57 203h136q64 0 86 10l-19 -96q-19 16 -80 16h-75l-23 -79q25 10 56 10q49 0 80.5 -26t31.5 -71
q0 -67 -49 -109.5t-124 -42.5z" />
    <glyph glyph-name="uni2158" unicode="&#x2158;" horiz-adv-x="838" 
d="M167 -12l487 680h85l-486 -680h-86zM189 280q23 18 34 79l3 15h-177l9 48l207 234h90l-42 -223q42 0 60 14l-14 -73h-58l-3 -15q-7 -36 -6.5 -52.5t9.5 -26.5h-112zM135 433h103l28 149zM604 -12q-41 0 -80.5 18t-54.5 19l52 81q27 -54 92 -54q35 0 58 21.5t23 54.5
q0 22 -16.5 35.5t-44.5 13.5q-33 0 -67 -17l-39 13l58 203h136q64 0 85 10l-19 -96q-17 16 -80 16h-74l-23 -79q23 10 56 10q49 0 80.5 -26t31.5 -71q0 -67 -49 -109.5t-125 -42.5z" />
    <glyph glyph-name="uni2159" unicode="&#x2159;" horiz-adv-x="855" 
d="M179 -12l487 680h85l-486 -680h-86zM52 280l11 53l90 19l42 215h-89l12 59q48 0 99.5 11.5t80.5 25.5l-61 -311l80 -19l-11 -53h-254zM630 -12q-57 0 -89.5 35t-32.5 99q0 109 64.5 187.5t154.5 78.5q22 0 50.5 -6t40.5 -5l-41 -82q-15 29 -62 29q-38 0 -70.5 -31
t-46.5 -83q44 37 95 37q50 0 78 -25t28 -69q0 -69 -49 -117t-120 -48zM642 52q33 0 56.5 25t23.5 60q0 22 -14 35t-34 13q-49 0 -88 -39q-4 -45 11 -69.5t45 -24.5z" />
    <glyph glyph-name="uni215A" unicode="&#x215a;" horiz-adv-x="843" 
d="M162 -12l487 680h85l-486 -680h-86zM181 268q-41 0 -80.5 18t-54.5 19l52 81q27 -54 92 -54q35 0 58.5 21.5t23.5 54.5q0 22 -17 35.5t-44 13.5q-34 0 -68 -17l-39 13l58 203h136q64 0 86 10l-19 -96q-19 16 -81 16h-74l-23 -79q23 10 56 10q49 0 80.5 -26t31.5 -71
q0 -67 -49 -109.5t-125 -42.5zM619 -12q-58 0 -90.5 35t-32.5 99q0 109 64.5 187.5t155.5 78.5q22 0 50 -6t40 -5l-41 -82q-15 29 -62 29q-38 0 -70.5 -31t-45.5 -83q42 37 94 37q50 0 78 -25t28 -69q0 -69 -49 -117t-119 -48zM631 52q33 0 56 25t23 60q0 22 -13.5 35
t-33.5 13q-50 0 -89 -39q-4 -45 11.5 -69.5t45.5 -24.5z" />
    <glyph glyph-name="oneeighth" unicode="&#x215b;" horiz-adv-x="860" 
d="M181 -12l486 680h86l-486 -680h-86zM52 280l11 53l90 19l42 215h-89l12 59q48 0 99.5 11.5t80.5 25.5l-61 -311l80 -19l-11 -53h-254zM629 -12q-58 0 -91 24.5t-33 65.5q0 42 30.5 73.5t66.5 44.5v4q-45 22 -45 68q0 50 42.5 85t105.5 35q51 0 82 -23.5t31 -61.5
q0 -35 -24.5 -63t-55.5 -41l-1 -4q58 -24 58 -79q0 -54 -48.5 -91t-117.5 -37zM695 220q47 34 47 70q0 16 -13.5 26.5t-34.5 10.5q-25 0 -43.5 -15.5t-18.5 -35.5q0 -33 63 -56zM640 46q32 0 55 18.5t23 44.5q0 20 -19.5 34t-57.5 27q-58 -35 -58 -77q0 -21 15.5 -34
t41.5 -13z" />
    <glyph glyph-name="threeeighths" unicode="&#x215c;" horiz-adv-x="853" 
d="M178 268q-40 0 -83.5 19t-51.5 21l57 81q22 -56 84 -56q33 0 55 17.5t22 43.5q0 50 -104 50l11 58q52 0 81.5 17t29.5 47q0 37 -47 37t-88 -43l-21 77q10 1 53.5 16t77.5 15q50 0 80 -21.5t30 -61.5t-24.5 -68t-69.5 -40q73 -15 73 -79q0 -57 -47 -93.5t-118 -36.5z
M170 -12l486 680h86l-487 -680h-85zM622 -12q-58 0 -91 24.5t-33 65.5q0 42 30.5 73.5t66.5 44.5v4q-45 22 -45 68q0 50 42.5 85t105.5 35q51 0 82 -23.5t31 -61.5q0 -35 -24.5 -63t-55.5 -41l-1 -4q58 -24 58 -79q0 -54 -48.5 -91t-117.5 -37zM688 220q47 34 47 70
q0 16 -13.5 26.5t-34.5 10.5q-25 0 -43.5 -15.5t-18.5 -35.5q0 -33 63 -56zM633 46q32 0 55 18.5t23 44.5q0 20 -19.5 34t-57.5 27q-58 -35 -58 -77q0 -21 15.5 -34t41.5 -13z" />
    <glyph glyph-name="fiveeighths" unicode="&#x215d;" horiz-adv-x="851" 
d="M168 -12l487 680h85l-486 -680h-86zM181 268q-41 0 -80.5 18t-54.5 19l52 81q27 -54 92 -54q35 0 58.5 21.5t23.5 54.5q0 22 -17 35.5t-44 13.5q-34 0 -68 -17l-39 13l58 203h136q64 0 86 10l-19 -96q-19 16 -81 16h-74l-23 -79q23 10 56 10q49 0 80.5 -26t31.5 -71
q0 -67 -49 -109.5t-125 -42.5zM619 -12q-58 0 -90.5 25t-32.5 65q0 42 30 73.5t66 44.5l1 4q-45 22 -45 68q0 50 42.5 85t105.5 35q51 0 82 -23.5t31 -61.5q0 -35 -24.5 -63t-56.5 -41l-1 -4q59 -24 59 -79q0 -54 -48.5 -91t-118.5 -37zM685 220q48 35 48 70q0 16 -14 26.5
t-35 10.5q-24 0 -42.5 -15.5t-18.5 -35.5q0 -34 62 -56zM631 46q32 0 54.5 18.5t22.5 44.5q0 21 -19.5 34.5t-56.5 26.5q-58 -33 -58 -77q0 -21 15.5 -34t41.5 -13z" />
    <glyph glyph-name="seveneighths" unicode="&#x215e;" horiz-adv-x="781" 
d="M105 -12l487 680h85l-486 -680h-86zM106 280q26 99 65.5 169t113.5 136h-109q-68 0 -92 -19l19 99q23 -9 87 -9h200l-12 -63q-84 -72 -123 -141t-61 -172h-88zM550 -12q-58 0 -91 25t-33 65q0 42 30.5 73.5t66.5 44.5l1 4q-46 23 -46 68q0 50 43 85t106 35q50 0 81 -23.5
t31 -61.5q0 -35 -24.5 -63t-55.5 -41l-1 -4q59 -25 59 -79t-49 -91t-118 -37zM616 220q48 35 48 70q0 16 -14 26.5t-35 10.5q-24 0 -42.5 -15.5t-18.5 -35.5q0 -34 62 -56zM562 46q32 0 54.5 18.5t22.5 44.5q0 21 -19.5 34.5t-57.5 26.5q-58 -35 -58 -77q0 -21 15.5 -34
t42.5 -13z" />
    <glyph glyph-name="uni2189" unicode="&#x2189;" horiz-adv-x="865" 
d="M169 -12l486 680h86l-486 -680h-86zM200 268q-58 0 -90.5 35.5t-32.5 100.5q0 109 58 183.5t142 74.5q57 0 90 -35.5t33 -100.5q0 -107 -58.5 -182.5t-141.5 -75.5zM213 336q41 0 72 56t31 130q0 72 -53 72q-42 0 -72.5 -55t-30.5 -130q0 -73 53 -73zM632 -12
q-40 0 -83.5 19t-51.5 21l56 81q22 -56 85 -56q32 0 54 17.5t22 43.5q0 50 -104 50l11 58q53 0 82.5 17t29.5 47q0 37 -48 37q-47 0 -88 -43l-21 77q10 1 53.5 16t77.5 15q50 0 80 -21.5t30 -61.5t-24.5 -68t-69.5 -40q74 -15 74 -79q0 -57 -47.5 -93.5t-117.5 -36.5z" />
    <glyph glyph-name="arrowleft" unicode="&#x2190;" horiz-adv-x="852" 
d="M779 372v-112l-558 1v-89q-77 91 -175 145q101 55 175 145v-90h558z" />
    <glyph glyph-name="arrowup" unicode="&#x2191;" horiz-adv-x="369" 
d="M329 558h-89v-558h-112v558h-88q89 75 144 175q54 -98 145 -175z" />
    <glyph glyph-name="arrowright" unicode="&#x2192;" horiz-adv-x="853" 
d="M632 463q74 -89 175 -145q-101 -56 -175 -145v89l-559 -1v112l559 1v89z" />
    <glyph glyph-name="arrowdown" unicode="&#x2193;" horiz-adv-x="366" 
d="M183 -7q-55 100 -145 176h89v558h112v-558h89q-90 -76 -145 -176z" />
    <glyph glyph-name="arrowboth" unicode="&#x2194;" horiz-adv-x="876" 
d="M220 172q-74 89 -175 145q101 56 175 145v-85l434 -1v86q74 -89 175 -145q-101 -56 -175 -145v85l-434 1v-86z" />
    <glyph glyph-name="arrowupdn" unicode="&#x2195;" horiz-adv-x="381" 
d="M190 -45q-58 103 -144 176h85v432h-85q88 74 144 175q56 -99 145 -175h-85v-432h85q-88 -75 -145 -176z" />
    <glyph glyph-name="uni2196" unicode="&#x2196;" horiz-adv-x="656" 
d="M616 100l-79 -80l-395 395l-63 -63q11 115 -22 227q112 -33 227 -22l-63 -63z" />
    <glyph glyph-name="uni2197" unicode="&#x2197;" horiz-adv-x="656" 
d="M598 578q-33 -112 -22 -227l-63 63l-395 -395l-79 80l395 394l-63 63q115 -11 227 22z" />
    <glyph glyph-name="uni2198" unicode="&#x2198;" horiz-adv-x="656" 
d="M576 249q-11 -113 22 -226q-110 32 -227 21l63 64l-395 394l79 79l396 -394z" />
    <glyph glyph-name="uni2199" unicode="&#x2199;" horiz-adv-x="656" 
d="M616 502l-394 -394l62 -64q-116 11 -226 -21q32 110 21 226l63 -62l395 394z" />
    <glyph glyph-name="partialdiff" unicode="&#x2202;" horiz-adv-x="568" 
d="M224 -12q-82 0 -133 43.5t-51 129.5q0 121 75 205.5t180 84.5q78 0 113 -49q-6 87 -67.5 163.5t-132.5 78.5l73 98q110 -56 171 -154t61 -221q0 -165 -81.5 -272t-207.5 -107zM243 79q70 0 111.5 63t46.5 149q-11 33 -41 54t-61 21q-65 0 -109 -54t-44 -134
q0 -50 26.5 -74.5t70.5 -24.5z" />
    <glyph glyph-name="emptyset" unicode="&#x2205;" horiz-adv-x="555" 
d="M526 429q-28 -11 -67 -41q14 -31 14 -68q0 -96 -68 -165.5t-163 -69.5q-62 0 -105 32q-34 -30 -53 -58l-55 70q28 11 66 41q-14 31 -14 68q0 96 68 165.5t163 69.5q62 0 105 -32q29 25 53 58zM296 390q-53 0 -87 -40.5t-34 -100.5q0 -8 1 -11l168 141q-20 11 -48 11z
M258 168q53 0 87 40.5t34 100.5q0 8 -1 12l-168 -142q20 -11 48 -11z" />
    <glyph glyph-name="product" unicode="&#x220f;" horiz-adv-x="608" 
d="M36 -110q29 41 48 131l106 545h-11q-57 0 -91 -17l23 121q29 -8 86 -8h367q62 0 97 8l-23 -121q-27 17 -86 17h-8l-106 -545q-17 -91 -2 -131h-155q26 41 44 131l106 545h-128l-105 -545q-17 -88 -7 -131h-155z" />
    <glyph glyph-name="summation" unicode="&#x2211;" horiz-adv-x="624" 
d="M476 662q103 0 141 7l-25 -128q-32 24 -134 24h-152l130 -289l-241 -289h150q105 0 143 23l-24 -128q-32 8 -138 8h-303l17 86q50 28 114 106l162 194l-87 194q-34 78 -72 106l17 86h302z" />
    <glyph glyph-name="minus" unicode="&#x2212;" horiz-adv-x="458" 
d="M42 245l21 105q13 -10 54 -10h241q41 0 58 10l-21 -105q-14 10 -54 10h-241q-41 0 -58 -10z" />
    <glyph glyph-name="radical" unicode="&#x221a;" horiz-adv-x="670" 
d="M684 676q90 0 121 8l-23 -124q-37 19 -117 19h-74l-273 -534q-52 -99 -62 -163h-174q12 61 -1 163l-22 175q-1 6 -3 22.5t-3 22.5t-3 19.5t-3 19t-3.5 16t-4 16.5t-4 14t-5.5 14l-6 12h153q-17 -36 -6 -136l21 -237h7l331 673h154z" />
    <glyph glyph-name="infinity" unicode="&#x221e;" horiz-adv-x="734" 
d="M557 480q65 0 102.5 -37t37.5 -100q0 -95 -60.5 -162t-145.5 -67q-50 0 -88 26.5t-53 68.5q-34 -44 -80.5 -69.5t-92.5 -25.5q-65 0 -102.5 37.5t-37.5 100.5q0 94 60.5 161t145.5 67q51 0 88 -26t53 -69q33 44 80 69.5t93 25.5zM508 208q40 0 70 33t30 78q0 32 -19 51.5
t-51 19.5q-35 0 -70.5 -22t-57.5 -48q9 -51 36.5 -81.5t61.5 -30.5zM197 204q33 0 69 22.5t58 48.5q-9 51 -36 81.5t-62 30.5q-40 0 -69.5 -33t-29.5 -79q0 -31 19 -51t51 -20z" />
    <glyph glyph-name="integral" unicode="&#x222b;" horiz-adv-x="485" 
d="M43 -133q-11 0 -32 2t-33 1l32 108q21 -23 54 -23q21 0 36 22.5t30 77.5l113 426q25 99 71 149t130 50q11 0 32.5 -2t33.5 -1l-33 -109q-22 24 -54 24q-22 0 -37 -24.5t-29 -76.5l-112 -425q-26 -103 -73 -151t-129 -48z" />
    <glyph glyph-name="approxequal" unicode="&#x2248;" horiz-adv-x="524" 
d="M80 290q13 72 51.5 108.5t85.5 36.5q41 0 80.5 -25.5t57.5 -25.5q31 0 41 50h86q-14 -71 -53 -107.5t-86 -36.5q-40 0 -79.5 25.5t-57.5 25.5q-30 0 -41 -51h-85zM42 98q14 72 52.5 108.5t85.5 36.5q40 0 80 -25t58 -25q31 0 41 49h86q-14 -71 -53 -107.5t-86 -36.5
q-40 0 -79.5 25.5t-57.5 25.5q-30 0 -41 -51h-86z" />
    <glyph glyph-name="notequal" unicode="&#x2260;" horiz-adv-x="491" 
d="M374 339h-64l-55 -83h103q41 0 58 10l-21 -106q-14 10 -54 10h-143l-49 -75l-56 28l31 47h-24q-41 0 -58 -10l21 106q13 -10 54 -10h64l54 83h-102q-41 0 -58 -10l21 106q14 -10 54 -10h142l50 76l56 -28l-32 -48h25q41 0 58 10l-21 -106q-13 10 -54 10z" />
    <glyph glyph-name="lessequal" unicode="&#x2264;" horiz-adv-x="491" 
d="M451 430q-17 1 -49 -10l-177 -64l152 -65q25 -12 45 -10l-54 -98q-6 14 -44 33l-227 102l14 75l267 102q46 20 57 33zM42 43l21 105q13 -10 54 -10h216q41 0 58 10l-20 -105q-16 10 -54 10h-217q-41 0 -58 -10z" />
    <glyph glyph-name="greaterequal" unicode="&#x2265;" horiz-adv-x="479" 
d="M208 495l229 -102l-15 -75l-267 -102q-47 -20 -58 -33l-15 98q17 -1 48 10l178 64l-152 65q-25 12 -45 10l53 98q7 -15 44 -33zM40 43l21 105q13 -10 54 -10h216q41 0 58 10l-21 -105q-14 10 -54 10h-216q-41 0 -58 -10z" />
    <glyph glyph-name="lozenge" unicode="&#x25ca;" horiz-adv-x="538" 
d="M429 228h-69l-66 -86l20 -52h-59l-14 -18h-107l-20 145h-47l38 72l-10 71h47l76 145h108l7 -18h58l-39 -51l32 -87h69l-46 -61zM239 288l40 -104l57 105l-17 104z" />
    <glyph glyph-name="uni261A" unicode="&#x261a;" horiz-adv-x="1504" 
d="M622 2q-21 13 -42 43.5t-21 40.5q0 15 13 50t30 64q-1 4 -6 7.5t-10 2.5q-20 -25 -35.5 -57.5t-15.5 -43.5q0 -8 14.5 -46t19.5 -44q-43 -9 -55 18q-5 11 -18 34t-20 39t-7 25q0 15 18 54.5t45 73.5q-9 14 -15 14q-24 -28 -45 -64t-21 -44q0 -6 5.5 -35.5t7.5 -35.5
q-19 -7 -29.5 -1t-21.5 32l-23 51q-8 19 1 37q26 58 88 123q-6 8 -12 8q-3 0 -16 -10.5t-19 -18.5q-50 0 -88 5.5t-39 5.5q-31 -9 -78 -15.5t-74 -3.5q-24 2 -37.5 16t-11.5 26.5t8 16.5q57 18 158 36t178 26q15 1 41 8.5t39 7.5q53 0 184.5 -25.5t191.5 -25.5
q16 0 51.5 4.5t55.5 3.5q26 -1 48 -58t22 -118q0 -35 -9 -59t-22 -24q-8 0 -51 7t-59 7q-21 0 -90.5 -37t-104.5 -38q-32 0 -64 36q-4 -13 -17.5 -26t-26.5 -20q12 -7 16 -20q29 22 48 22t19 -15q0 -24 -73 -60q-4 -2 -12.5 -2t-12.5 2zM1069 46q33 16 51.5 69t18.5 128
q0 59 -19.5 113.5t-50.5 60.5h239q39 0 63.5 -57t24.5 -117q0 -75 -26.5 -136t-74.5 -61h-226zM1220 83q10 0 17 7t7 17t-7 17.5t-17 7.5q-9 0 -16.5 -7.5t-7.5 -17.5t7.5 -17t16.5 -7z" />
    <glyph glyph-name="uni261B" unicode="&#x261b;" horiz-adv-x="1468" 
d="M856 2q-74 36 -74 60q0 15 20 15q19 0 48 -22q4 13 16 20q-13 7 -26.5 20t-17.5 26q-32 -36 -64 -36q-35 1 -104.5 38t-90.5 37q-16 0 -59 -7t-51 -7q-13 0 -22 24t-9 59q0 61 22 118t48 58q20 1 55.5 -3.5t51.5 -4.5q60 0 191.5 25.5t184.5 25.5q13 0 39 -7.5t40 -8.5
q77 -8 178.5 -26t158.5 -36q6 -4 8 -16.5t-11.5 -26.5t-37.5 -16q-64 -6 -152 19q-1 0 -39 -5.5t-88 -5.5q-6 8 -19 18.5t-16 10.5q-6 0 -12 -8q62 -65 88 -123q9 -18 1 -37l-23 -51q-11 -26 -21.5 -32t-29.5 1q2 6 7 35.5t5 35.5q0 8 -21 44t-44 64q-6 0 -15 -14
q27 -34 45 -73.5t18 -54.5q0 -9 -7 -25t-20 -39t-18 -34q-12 -27 -55 -18q5 6 19.5 44t14.5 46q0 11 -16 43.5t-36 57.5q-4 1 -9 -2.5t-6 -7.5q17 -29 30 -64t13 -50q0 -10 -21 -40.5t-42 -43.5q-4 -2 -12.5 -2t-12.5 2zM208 46q-48 0 -74.5 61t-26.5 136q0 60 24.5 117
t63.5 57h239q-31 -6 -50.5 -60.5t-19.5 -113.5q0 -75 18.5 -128t51.5 -69h-226zM283 83q9 0 16.5 7t7.5 17t-7.5 17.5t-16.5 7.5q-10 0 -17 -7.5t-7 -17.5t7 -17t17 -7z" />
    <glyph glyph-name="uni261C" unicode="&#x261c;" horiz-adv-x="981" 
d="M877 218q26 -5 36 -16.5t10 -37.5q0 -34 -12 -57t-36 -22l-130 9q-41 -27 -89 -27q-68 0 -160 25l-54 -2q-19 -1 -30.5 11.5t-11.5 26.5q0 15 7 24h-2q-20 -1 -31.5 11.5t-11.5 32.5q0 14 7 25q-39 4 -39 41q0 5 2 15q-59 -2 -65 36l-127 10q-64 4 -64 47q0 32 40 33
l349 7q61 24 94 24h38q38 0 77 -22t65 -51l133 10q22 1 37.5 -27t15.5 -64q0 -40 -45 -52l-23 -6zM877 100q15 -1 23 17.5t8 46.5q0 20 -6.5 27.5t-24.5 11.5l-47 11v13l50 16q30 9 30 37q0 31 -11 54t-27 22l-122 -10q7 -10 9 -19q-31 37 -74 64.5t-88 27.5h-38
q-31 0 -122.5 -37.5t-154.5 -40.5l-1 -19q-1 -18 19.5 -25.5t52.5 -2.5l93 15q15 2 46.5 -3t38.5 -5q22 0 69 27q-30 -28 -50 -37q33 -52 77 -70t102 -19q-113 -15 -172 56q-5 -14 -12 -20q41 -6 41 -40q0 -18 -14 -30q24 -10 24 -33q0 -14 -10.5 -26.5t-31.5 -13.5h-9
q62 -13 111 -13q72 0 151 82q-17 -32 -43 -55zM267 355q67 0 161 40l-310 -7q-24 0 -24 -18q0 -29 46 -32l127 -8v25zM346 262q0 -26 35 -25l131 6q30 1 30 22q0 14 -19 22q-2 0 -33 4.5t-45 2.5l-92 -15h-1q-6 -7 -6 -17zM378 196q0 -13 7 -21.5t20 -7.5l135 7q30 1 30 24
q0 29 -48 29q-3 -1 -10 -1l-121 -5q-13 -4 -13 -25zM440 105l114 5q27 1 27 25q0 21 -32 25q-2 -1 -6 -1l-119 -6q-9 -9 -9 -25q0 -9 7 -16.5t18 -6.5z" />
    <glyph glyph-name="uni261D" unicode="&#x261d;" horiz-adv-x="537" 
d="M426 44l9 -130q1 -24 -22 -36t-57 -12q-26 0 -37.5 10t-16.5 36l-4 20l-6 -23q-12 -45 -52 -45q-36 0 -64 15.5t-27 37.5l10 133q-29 26 -51 65t-22 77v38q0 33 24 94l7 349q1 40 33 40q43 0 47 -64l10 -127q38 -6 36 -65q10 2 15 2q37 0 41 -39q11 7 25 7
q20 0 32.5 -11.5t11.5 -31.5v-2q9 7 24 7q14 0 26.5 -11.5t11.5 -30.5l-2 -54q25 -92 25 -160q0 -48 -27 -89zM132 671l-7 -310q40 94 40 161h25l-8 127q-3 46 -32 46q-18 0 -18 -24zM356 -119q28 0 46.5 8t17.5 23l-9 113q-23 -26 -55 -43q82 79 82 151q0 49 -13 111v-9
q-1 -21 -13.5 -31.5t-26.5 -10.5q-23 0 -33 24q-12 -14 -30 -14q-34 0 -40 41q-6 -7 -20 -12q71 -59 56 -172q-1 58 -19 102t-70 77q-9 -20 -37 -50q27 47 27 69q0 7 -5 38.5t-3 46.5l15 93q5 32 -2.5 52.5t-25.5 19.5l-19 -1q-3 -63 -40.5 -154.5t-37.5 -122.5v-38
q0 -45 27.5 -88t64.5 -74q-9 2 -19 9l-10 -122q-1 -16 22 -27t54 -11q28 0 37 30l16 50h13l11 -47q4 -18 11.5 -24.5t27.5 -6.5zM258 443q-10 0 -17 -6v-1l-15 -92q-1 -16 -0.5 -25t3.5 -26.5t4 -26.5q8 -19 22 -19q21 0 22 30l6 131q1 35 -25 35zM324 411q-21 0 -25 -13
l-5 -121q0 -7 -1 -10q0 -48 29 -48q23 0 24 30l7 135q1 13 -7.5 20t-21.5 7zM367 365l-6 -119q0 -4 -1 -6q4 -32 25 -32q24 0 25 27l5 114q1 11 -6.5 18t-16.5 7q-16 0 -25 -9z" />
    <glyph glyph-name="uni261E" unicode="&#x261e;" horiz-adv-x="937" 
d="M872 403q40 -1 40 -33q0 -43 -64 -47l-127 -10q-6 -38 -65 -36q2 -10 2 -15q0 -37 -39 -41q7 -11 7 -25q0 -20 -11.5 -32.5t-31.5 -11.5h-2q7 -9 7 -24q0 -14 -11.5 -26.5t-30.5 -11.5l-54 2q-92 -25 -160 -25q-48 0 -89 27l-130 -9q-24 -1 -36 22t-12 57q0 26 10 37.5
t36 16.5l20 4l-23 6q-45 12 -45 52q0 36 15.5 64t37.5 27l133 -10q26 29 65 51t77 22h38q33 0 94 -24zM635 294q32 -5 52.5 2.5t19.5 25.5l-1 19q-63 3 -154.5 40.5t-122.5 37.5h-38q-45 0 -88 -27.5t-74 -64.5q2 9 9 19l-122 10q-16 1 -27 -22t-11 -54q0 -28 30 -37l50 -16
v-13l-47 -11q-18 -4 -24.5 -11.5t-6.5 -27.5q0 -28 8 -46.5t23 -17.5l113 9q-26 23 -43 55q79 -82 151 -82q49 0 111 13h-9q-21 1 -31.5 13.5t-10.5 26.5q0 23 24 33q-14 12 -14 30q0 34 41 40q-7 6 -12 20q-59 -71 -172 -56q58 1 102 19t77 70q-20 9 -50 37q47 -27 69 -27
q7 0 38.5 5t46.5 3zM848 338q46 3 46 32q0 18 -24 18l-310 7q94 -40 161 -40v-25zM642 262q0 10 -6 17h-1l-92 15q-16 1 -25 0.5t-26.5 -3.5t-26.5 -4q-19 -8 -19 -22q0 -21 30 -22l131 -6q35 -1 35 25zM583 167q13 -1 20 7.5t7 21.5q0 21 -13 25l-121 5q-7 0 -10 1
q-48 0 -48 -29q0 -23 30 -24zM573 128q0 16 -9 25l-119 6q-4 0 -6 1q-32 -4 -32 -25q0 -24 27 -25l114 -5q11 -1 18 6.5t7 16.5z" />
    <glyph glyph-name="uni261F" unicode="&#x261f;" horiz-adv-x="470" 
d="M415 284l2 -54q1 -19 -11.5 -30.5t-26.5 -11.5q-15 0 -24 7v-2q1 -20 -11.5 -31.5t-32.5 -11.5q-14 0 -25 7q-4 -39 -41 -39q-5 0 -15 2q2 -59 -36 -65l-10 -127q-4 -64 -47 -64q-32 0 -33 40l-7 349q-24 61 -24 94v38q0 38 22 77t51 65l-10 133q-1 22 27 37.5t64 15.5
q40 0 52 -45l6 -23l4 20q5 26 16.5 36t37.5 10q34 0 57 -12t22 -36l-9 -130q27 -41 27 -89q0 -68 -25 -160zM185 69q18 -1 25.5 19.5t2.5 52.5l-15 93q-2 15 3 46.5t5 38.5q0 22 -27 69q28 -30 37 -50q52 33 70 77t19 102q15 -113 -56 -172q14 -5 20 -12q6 41 40 41
q18 0 30 -14q10 24 33 24q14 0 26.5 -10.5t13.5 -31.5v-9q13 62 13 111q0 72 -82 151q32 -17 55 -43l9 113q1 15 -17.5 23t-46.5 8q-20 0 -27.5 -6.5t-11.5 -24.5l-11 -47h-13l-16 50q-9 30 -37 30q-31 0 -54 -11t-22 -27l10 -122q10 7 19 9q-37 -31 -64.5 -74t-27.5 -88
v-38q0 -31 37.5 -122.5t40.5 -154.5zM379 203q9 0 16.5 7t6.5 18l-5 114q-1 27 -25 27q-21 0 -25 -32q1 -2 1 -6l6 -119q9 -9 25 -9zM311 166q13 0 21.5 7t7.5 20l-7 135q-1 30 -24 30q-29 0 -29 -48q1 -3 1 -10l5 -121q4 -13 25 -13zM245 134q26 0 25 35l-6 131
q-1 30 -22 30q-14 0 -22 -19q0 -2 -4.5 -33t-2.5 -45l15 -92v-1q7 -6 17 -6zM137 -118q29 0 32 46l8 127h-25q0 67 -40 161l7 -310q0 -24 18 -24z" />
    <glyph glyph-name="K.ss04" horiz-adv-x="551" 
d="M740 -213q-85 0 -155 31.5t-116.5 79.5t-83 118t-57.5 134.5t-37 142.5l-107 -104l-12 -67q-17 -86 -6 -122h-153q29 35 48 131l76 392q19 93 3 131h154q-26 -35 -43 -125l-34 -175h3l208 206q55 57 71 94h157q-35 -24 -119 -114l-159 -162q15 -79 34 -144t51.5 -132.5
t72.5 -113.5t99.5 -75t130.5 -29q105 0 198 41l-38 -113q-73 -25 -186 -25z" />
    <glyph glyph-name="uni0136.ss04" horiz-adv-x="551" 
d="M740 -213q-85 0 -155 31.5t-116.5 79.5t-83 118t-57.5 134.5t-37 142.5l-107 -104l-12 -67q-17 -86 -6 -122h-153q29 35 48 131l76 392q19 93 3 131h154q-26 -35 -43 -125l-34 -175h3l208 206q55 57 71 94h157q-35 -24 -119 -114l-159 -162q15 -79 34 -144t51.5 -132.5
t72.5 -113.5t99.5 -75t130.5 -29q105 0 198 41l-38 -113q-73 -25 -186 -25zM177 -247l-11 36q63 21 75 67q-3 -1 -7 -1q-17 0 -28.5 9.5t-11.5 25.5q0 22 16.5 38t39.5 16q47 0 47 -49q0 -46 -33 -86t-87 -56z" />
    <glyph glyph-name="Q.ss05" horiz-adv-x="637" 
d="M726 -156q81 0 167 25.5t143 66.5l-33 -123q-116 -68 -295 -68q-141 0 -251.5 65t-167.5 178q-104 1 -168 72.5t-64 198.5q0 177 86 292t245 115q105 0 170 -71.5t65 -197.5q0 -144 -58.5 -250.5t-167.5 -142.5q49 -79 135.5 -119.5t193.5 -40.5zM175 268
q0 -86 35.5 -132.5t89.5 -46.5q96 0 150.5 85.5t54.5 212.5q0 86 -36.5 132t-90.5 46q-96 0 -149.5 -84.5t-53.5 -212.5z" />
    <glyph glyph-name="R.ss06" horiz-adv-x="567" 
d="M747 -213q-66 0 -123 16t-98.5 41.5t-77 64.5t-58.5 77.5t-42.5 88t-31 89.5t-21.5 87h-98l-23 -120q-18 -96 -9 -131h-152q28 33 48 131l76 392q19 94 3 131h234q215 0 215 -149q0 -97 -50 -159t-140 -82q16 -62 34.5 -111.5t49 -100.5t68 -85.5t93 -56.5t122.5 -22
q116 0 187 37l-39 -116q-56 -22 -167 -22zM215 342h92q81 0 124.5 35.5t43.5 103.5q0 79 -123 79h-94z" />
    <glyph glyph-name="Racute.ss06" horiz-adv-x="567" 
d="M351 696l-33 51q94 52 182 163l50 -68q-78 -95 -199 -146zM747 -213q-66 0 -123 16t-98.5 41.5t-77 64.5t-58.5 77.5t-42.5 88t-31 89.5t-21.5 87h-98l-23 -120q-18 -96 -9 -131h-152q28 33 48 131l76 392q19 94 3 131h234q215 0 215 -149q0 -97 -50 -159t-140 -82
q16 -62 34.5 -111.5t49 -100.5t68 -85.5t93 -56.5t122.5 -22q116 0 187 37l-39 -116q-56 -22 -167 -22zM215 342h92q81 0 124.5 35.5t43.5 103.5q0 79 -123 79h-94z" />
    <glyph glyph-name="Rcaron.ss06" horiz-adv-x="567" 
d="M321 695q-27 85 -86 138l46 38q68 -44 98 -109h4q60 67 142 109l32 -38q-83 -59 -139 -138h-97zM747 -213q-66 0 -123 16t-98.5 41.5t-77 64.5t-58.5 77.5t-42.5 88t-31 89.5t-21.5 87h-98l-23 -120q-18 -96 -9 -131h-152q28 33 48 131l76 392q19 94 3 131h234
q215 0 215 -149q0 -97 -50 -159t-140 -82q16 -62 34.5 -111.5t49 -100.5t68 -85.5t93 -56.5t122.5 -22q116 0 187 37l-39 -116q-56 -22 -167 -22zM215 342h92q81 0 124.5 35.5t43.5 103.5q0 79 -123 79h-94z" />
    <glyph glyph-name="uni0156.ss06" horiz-adv-x="567" 
d="M747 -213q-66 0 -123 16t-98.5 41.5t-77 64.5t-58.5 77.5t-42.5 88t-31 89.5t-21.5 87h-98l-23 -120q-18 -96 -9 -131h-152q28 33 48 131l76 392q19 94 3 131h234q215 0 215 -149q0 -97 -50 -159t-140 -82q16 -62 34.5 -111.5t49 -100.5t68 -85.5t93 -56.5t122.5 -22
q116 0 187 37l-39 -116q-56 -22 -167 -22zM215 342h92q81 0 124.5 35.5t43.5 103.5q0 79 -123 79h-94zM172 -247l-11 36q63 21 75 67q-3 -1 -7 -1q-17 0 -28.5 9.5t-11.5 25.5q0 22 16.5 38t39.5 16q47 0 47 -49q0 -46 -33 -86t-87 -56z" />
    <glyph glyph-name="i.loclTRK" horiz-adv-x="252" 
d="M187 577q-52 0 -52 43q0 34 21 55t54 21q53 0 53 -44q0 -33 -21 -54t-55 -21zM22 0l69 350q12 61 13.5 84.5t-9.5 56.5h137l-75 -372q-20 -95 0 -119h-135z" />
    <glyph glyph-name="a.inferior" horiz-adv-x="392" 
d="M199 -169q-52 0 -84 37.5t-32 104.5q0 108 61.5 180t141.5 72q46 0 92 -23l6 13h90l-55 -268q-16 -82 -2 -107h-104q-2 18 1 40h-4q-53 -49 -111 -49zM229 -90q45 0 101 69l29 146q-28 22 -64 22q-46 0 -80 -47.5t-34 -118.5q0 -34 13 -52.5t35 -18.5z" />
    <glyph glyph-name="b.inferior" horiz-adv-x="425" 
d="M258 -168q-56 0 -94 26l-15 -18h-75l87 423q20 97 3 121h117l-43 -205q50 48 111 48q52 0 84 -37.5t32 -105.5q0 -106 -62 -179t-145 -73zM250 -91q46 0 81 48.5t35 121.5q0 69 -48 69q-20 0 -49 -20t-52 -50l-29 -147q24 -22 62 -22z" />
    <glyph glyph-name="c.inferior" horiz-adv-x="351" 
d="M230 -171q-67 0 -106 39.5t-39 113.5q0 111 60 178t147 67q32 0 69.5 -13t39.5 -13l-39 -89q-23 34 -72 34q-43 0 -74.5 -47t-31.5 -109q0 -40 18.5 -60t47.5 -20q27 0 50.5 11.5t34.5 26.5l25 -91q-4 0 -48.5 -14t-81.5 -14z" />
    <glyph glyph-name="d.inferior" horiz-adv-x="424" 
d="M199 -169q-53 0 -84.5 37t-31.5 106q0 105 61.5 178.5t145.5 73.5q41 0 85 -18l13 65q10 49 11 66.5t-10 44.5h117l-88 -442q-9 -44 -9.5 -61.5t10.5 -40.5h-103q-2 23 2 42h-3q-51 -51 -116 -51zM229 -90q22 0 50.5 21t51.5 53l29 146q-30 18 -62 18q-47 0 -82 -48
t-35 -120q0 -34 13 -52t35 -18z" />
    <glyph glyph-name="e.inferior" horiz-adv-x="387" 
d="M245 -171q-73 0 -116.5 42t-43.5 114q0 107 59 174.5t149 67.5q63 0 102.5 -35t39.5 -86q0 -111 -164 -111h-89q-3 -41 18.5 -66t59.5 -25q68 0 99 33l29 -79l-30 -10q-31 -9 -57.5 -14t-55.5 -5zM190 57h67q84 0 84 45q0 22 -15 36t-42 14q-34 0 -60 -26.5t-34 -68.5z
" />
    <glyph glyph-name="f.inferior" horiz-adv-x="246" 
d="M93 -160l60 300h-51l15 76h51l9 44q14 66 58 97.5t105 31.5q45 0 84 -17l-31 -77q-19 21 -58 21q-49 0 -62 -62l-9 -37h82l-15 -77h-82l-38 -197q-9 -47 -10 -65.5t9 -37.5h-117z" />
    <glyph glyph-name="g.inferior" horiz-adv-x="396" 
d="M192 -321q-58 0 -135 30l39 90q36 -47 101 -47q83 0 104 86l11 43l-2 1q-46 -51 -109 -51q-54 0 -86 37t-32 106q0 105 62.5 178.5t146.5 73.5q48 0 88 -24l10 15h87l-78 -367q-35 -171 -207 -171zM228 -89q24 0 53 20.5t50 51.5l30 142q-31 23 -65 23q-46 0 -80.5 -48
t-34.5 -120q0 -69 47 -69z" />
    <glyph glyph-name="h.inferior" horiz-adv-x="432" 
d="M76 -160l87 433q14 72 9 92q-2 10 -8 19h115l-40 -211h4q19 22 53 38.5t69 16.5q56 0 80 -41t11 -108l-27 -144q-6 -32 -8 -45t-0.5 -27t9.5 -23h-118l46 230q14 74 -37 74q-24 0 -52.5 -20.5t-48.5 -48.5l-27 -140q-12 -65 -6 -83q2 -7 6 -12h-117z" />
    <glyph glyph-name="i.inferior" horiz-adv-x="206" 
d="M213 276q-53 0 -53 46q0 27 18 45t46 18q24 0 38.5 -12t14.5 -34q0 -28 -17.5 -45.5t-46.5 -17.5zM75 -160l53 265q1 3 3 15t2.5 15.5t2.5 13.5t2 13.5t0.5 11.5t0 12.5t-1.5 10.5t-3 10.5t-5 9.5h118l-57 -282q-15 -76 2 -95h-117z" />
    <glyph glyph-name="j.inferior" horiz-adv-x="207" 
d="M209 273q-24 0 -38.5 12t-14.5 34q0 27 18 45t47 18q52 0 52 -47q0 -28 -17.5 -45t-46.5 -17zM23 -323q-12 0 -25.5 2t-27 5t-19.5 4l29 85q16 -18 40 -18q23 0 36 20.5t22 67.5l52 259q13 72 8 94q-2 10 -7 18l118 -1l-74 -367q-18 -85 -52 -127t-100 -42z" />
    <glyph glyph-name="k.inferior" horiz-adv-x="411" 
d="M76 -160l87 433q9 49 10 69t-9 42h117l-42 -213q48 56 119 56q45 0 75 -26.5t30 -71.5q0 -49 -31 -84t-80 -53l39 -79q29 -57 54 -73h-118l-72 154l3 35q43 1 74.5 22.5t31.5 57.5q0 43 -40 43q-25 0 -55 -22t-50 -59l-28 -136q-6 -31 -7.5 -44.5t0.5 -27.5t10 -23h-118z
" />
    <glyph glyph-name="l.inferior" horiz-adv-x="206" 
d="M76 -160l85 429q10 50 11 72.5t-10 42.5h119l-89 -445q-15 -79 3 -99h-119z" />
    <glyph glyph-name="m.inferior" horiz-adv-x="647" 
d="M74 -160l54 272q9 46 10 62t-9 43h113l-9 -53h4q55 62 124 62q75 0 87 -69q62 69 133 69q61 0 83.5 -39.5t9.5 -105.5l-29 -145q-16 -76 1 -96h-117l45 226q16 76 -33 76q-40 0 -93 -59l-30 -148q-12 -67 -7 -85q2 -5 5 -10h-115l46 226q8 38 1 57t-33 19q-44 0 -96 -59
l-29 -148q-15 -75 0 -95h-116z" />
    <glyph glyph-name="n.inferior" horiz-adv-x="432" 
d="M76 -160l53 269q5 31 7 44.5t1 32.5t-8 31h111l-8 -46h4q55 57 122 57q57 0 83.5 -40.5t13.5 -105.5l-28 -143q-6 -29 -8 -43.5t-0.5 -30.5t9.5 -25h-117l46 230q15 74 -39 74q-23 0 -50.5 -19.5t-48.5 -46.5l-27 -139q-6 -29 -8 -43.5t-1 -30.5t8 -25h-115z" />
    <glyph glyph-name="o.inferior" horiz-adv-x="413" 
d="M236 -171q-70 0 -111 40t-41 113q0 109 61.5 177t157.5 68q70 0 111 -39.5t41 -112.5q0 -110 -61.5 -178t-157.5 -68zM248 -89q46 0 77 44.5t31 113.5q0 77 -65 77q-45 0 -76.5 -44.5t-31.5 -112.5q0 -78 65 -78z" />
    <glyph glyph-name="p.inferior" horiz-adv-x="423" 
d="M41 -313l85 419q7 33 9.5 49t1.5 34t-9 28h112l-8 -38h5q48 48 106 48q55 0 87.5 -37t32.5 -106q0 -106 -60.5 -179t-146.5 -73q-49 0 -86 21l-14 -71q-14 -74 0 -95h-115zM248 -91q47 0 82 48.5t35 121.5q0 69 -49 69q-19 0 -48.5 -20.5t-51.5 -50.5l-30 -146
q26 -22 62 -22z" />
    <glyph glyph-name="q.inferior" horiz-adv-x="422" 
d="M271 -313l41 194l-2 1q-48 -51 -108 -51q-55 0 -87.5 37t-32.5 106q0 105 62.5 178.5t142.5 73.5q43 0 89 -20l11 11h88l-86 -423q-6 -33 -8 -46t-1 -31.5t8 -29.5h-117zM229 -90q22 0 51 22.5t52 57.5l28 138q-28 20 -64 20q-47 0 -81 -47.5t-34 -120.5q0 -34 13 -52
t35 -18z" />
    <glyph glyph-name="r.inferior" horiz-adv-x="294" 
d="M76 -160l53 270q18 79 0 107h109l-9 -58h5q19 31 50 49.5t61 18.5q22 0 42 -10l-30 -94q-13 18 -33 18q-26 0 -57 -24.5t-54 -69.5l-20 -104q-8 -45 -8 -68t12 -35h-121z" />
    <glyph glyph-name="s.inferior" horiz-adv-x="332" 
d="M201 -169q-41 0 -91.5 15.5t-55.5 16.5l51 95q14 -25 41 -40.5t60 -15.5q25 0 40.5 10.5t15.5 30.5q0 18 -12.5 28.5t-38.5 22.5l-19 8q-80 33 -80 103q0 54 40 88.5t101 34.5q32 0 77.5 -14t49.5 -15l-45 -86q-29 43 -85 43q-20 0 -33 -10.5t-13 -26.5q0 -26 42 -45
l21 -10q87 -37 87 -106q0 -58 -42 -92.5t-111 -34.5z" />
    <glyph glyph-name="t.inferior" horiz-adv-x="281" 
d="M215 -168q-58 0 -85.5 35.5t-13.5 104.5l34 168h-54l15 76l56 1l14 73h95l-14 -73h93l-15 -77h-93l-34 -164q-14 -66 31 -66q37 0 54 19l16 -87q-10 0 -43 -5t-56 -5z" />
    <glyph glyph-name="u.inferior" horiz-adv-x="427" 
d="M188 -171q-55 0 -77.5 36.5t-9.5 104.5l29 149q15 78 -2 98h118l-46 -230q-16 -74 30 -74q26 0 53 20.5t47 51.5l27 133q15 79 1 99h115l-53 -269q-15 -83 2 -108h-112l7 50h-4q-53 -61 -125 -61z" />
    <glyph glyph-name="v.inferior" horiz-adv-x="403" 
d="M164 -160l-40 268q-13 87 -31 109h113l26 -199q8 -74 5 -105h5q10 27 52 110t55 112q25 56 12 82h112q-15 -49 -93.5 -204t-81.5 -173h-134z" />
    <glyph glyph-name="w.inferior" horiz-adv-x="575" 
d="M144 -160l-22 291q-3 41 -7 57.5t-14 28.5h107l12 -181q5 -89 3 -125h5q17 58 67 162q50 109 52 144h135l12 -182q5 -62 2 -124h4q8 25 39.5 95t53.5 129t16 82h101q-14 -48 -82.5 -200t-75.5 -177h-136l-11 201q-5 69 -1 91h-4q-8 -35 -33 -90q-9 -19 -30 -65t-34.5 -77
t-22.5 -60h-136z" />
    <glyph glyph-name="x.inferior" horiz-adv-x="382" 
d="M349 -88q25 -56 44 -72h-114l-30 74q-10 28 -21 65h-4q-4 -6 -14.5 -25.5t-18.5 -31.5l-30 -37q-21 -26 -19 -45h-114l163 209l-40 97q-21 53 -40 71h111l27 -66q2 -5 5 -14t6.5 -21.5t8.5 -31.5h3q30 55 36 61l20 27q20 25 19 45h114l-157 -201z" />
    <glyph glyph-name="y.inferior" horiz-adv-x="395" 
d="M101 -313q-18 0 -39 3.5t-30 1.5l34 97q15 -24 46 -24q46 0 74 64l5 10l-56 276q-16 80 -37 102h111l34 -207q8 -57 9 -80h5q31 68 36 79l56 123q27 67 18 85h109l-198 -402q-62 -128 -177 -128z" />
    <glyph glyph-name="z.inferior" horiz-adv-x="345" 
d="M400 217l-8 -60l-209 -242h91q56 0 82 15l-16 -90h-293l9 59l209 243h-79q-48 0 -72 -15l17 90h269z" />
    <glyph glyph-name="a.ordn" horiz-adv-x="434" 
d="M199 341q-52 0 -84 37.5t-32 104.5q0 108 61.5 180t141.5 72q46 0 92 -23l6 13h90l-55 -268q-16 -82 -2 -107h-104q-2 18 1 40h-4q-53 -49 -111 -49zM229 420q45 0 101 69l29 146q-28 22 -64 22q-46 0 -80 -47.5t-34 -118.5q0 -34 13 -52.5t35 -18.5z" />
    <glyph glyph-name="b.ordn" horiz-adv-x="433" 
d="M258 342q-56 0 -94 26l-15 -18h-75l87 423q20 97 3 121h117l-43 -205q50 48 111 48q52 0 84 -37.5t32 -105.5q0 -106 -62 -179t-145 -73zM250 419q46 0 81 48.5t35 121.5q0 69 -48 69q-20 0 -49 -20t-52 -50l-29 -147q24 -22 62 -22z" />
    <glyph glyph-name="c.ordn" horiz-adv-x="347" 
d="M230 339q-67 0 -106 39.5t-39 113.5q0 111 60 178t147 67q32 0 69.5 -13t39.5 -13l-39 -89q-23 34 -72 34q-43 0 -74.5 -47t-31.5 -109q0 -40 18.5 -60t47.5 -20q27 0 50.5 11.5t34.5 26.5l25 -91q-4 0 -48.5 -14t-81.5 -14z" />
    <glyph glyph-name="d.ordn" horiz-adv-x="434" 
d="M199 341q-53 0 -84.5 37t-31.5 106q0 105 61.5 178.5t145.5 73.5q41 0 85 -18l13 65q10 49 11 66.5t-10 44.5h117l-88 -442q-9 -44 -9.5 -61.5t10.5 -40.5h-103q-2 23 2 42h-3q-51 -51 -116 -51zM229 420q22 0 50.5 21t51.5 53l29 146q-30 18 -62 18q-47 0 -82 -48
t-35 -120q0 -34 13 -52t35 -18z" />
    <glyph glyph-name="e.ordn" horiz-adv-x="398" 
d="M245 339q-73 0 -116.5 42t-43.5 114q0 107 59 174.5t149 67.5q63 0 102.5 -35t39.5 -86q0 -111 -164 -111h-89q-3 -41 18.5 -66t59.5 -25q68 0 99 33l29 -79l-30 -10q-31 -9 -57.5 -14t-55.5 -5zM190 567h67q84 0 84 45q0 22 -15 36t-42 14q-34 0 -60 -26.5t-34 -68.5z
" />
    <glyph glyph-name="f.ordn" horiz-adv-x="258" 
d="M93 350l60 300h-51l15 76h51l9 44q14 66 58 97.5t105 31.5q45 0 84 -17l-31 -77q-19 21 -58 21q-49 0 -62 -62l-9 -37h82l-15 -77h-82l-38 -197q-9 -47 -10 -65.5t9 -37.5h-117z" />
    <glyph glyph-name="g.ordn" horiz-adv-x="423" 
d="M192 189q-58 0 -135 30l39 90q36 -47 101 -47q83 0 104 86l11 43l-2 1q-46 -51 -109 -51q-54 0 -86 37t-32 106q0 105 62.5 178.5t146.5 73.5q48 0 88 -24l10 15h87l-78 -367q-35 -171 -207 -171zM228 421q24 0 53 20.5t50 51.5l30 142q-31 23 -65 23q-46 0 -80.5 -48
t-34.5 -120q0 -69 47 -69z" />
    <glyph glyph-name="h.ordn" horiz-adv-x="440" 
d="M76 350l87 433q1 3 2 10q13 67 5 90q-3 6 -6 11h115l-40 -211h4q19 22 53 38.5t69 16.5q56 0 80 -41t11 -108l-27 -144q-6 -32 -8 -45t-0.5 -27t9.5 -23h-118l46 230q14 74 -37 74q-24 0 -52.5 -20.5t-48.5 -48.5l-27 -140q-12 -65 -6 -83q2 -7 6 -12h-117z" />
    <glyph glyph-name="i.ordn" horiz-adv-x="208" 
d="M213 786q-53 0 -53 46q0 27 18 45t46 18q24 0 38.5 -12t14.5 -34q0 -28 -17.5 -45.5t-46.5 -17.5zM75 350l53 265q1 3 3 15t2.5 15.5t2.5 13.5t2 13.5t0.5 11.5t0 12.5t-1.5 10.5t-3 10.5t-5 9.5h118l-57 -282q-15 -76 2 -95h-117z" />
    <glyph glyph-name="j.ordn" horiz-adv-x="198" 
d="M209 786q-24 0 -38.5 12t-14.5 34q0 27 18 45t47 18q52 0 52 -46q0 -29 -17.5 -46t-46.5 -17zM23 190q-12 0 -25.5 2t-27 5t-19.5 4l29 85q17 -17 40 -17t36 20.5t22 66.5l52 259q13 73 8 94q-2 10 -7 19l118 -1l-74 -368q-18 -85 -52 -127t-100 -42z" />
    <glyph glyph-name="k.ordn" horiz-adv-x="421" 
d="M76 350l87 433q9 49 10 69t-9 42h117l-42 -213q48 56 119 56q45 0 75 -26.5t30 -71.5q0 -49 -31 -84t-80 -53l39 -79q29 -57 54 -73h-118l-72 154l3 35q43 1 74.5 22.5t31.5 57.5q0 43 -40 43q-25 0 -55 -22t-50 -59l-28 -136q-6 -31 -7.5 -44.5t0.5 -27.5t10 -23h-118z
" />
    <glyph glyph-name="l.ordn" horiz-adv-x="210" 
d="M76 350l85 429q10 50 11 72.5t-10 42.5h119l-89 -445q-15 -79 3 -99h-119z" />
    <glyph glyph-name="m.ordn" horiz-adv-x="657" 
d="M74 350l54 272q9 46 10 62t-9 43h113l-9 -53h4q55 62 124 62q75 0 87 -69q62 69 133 69q61 0 83.5 -39.5t9.5 -105.5l-29 -145q-16 -76 1 -96h-117l45 226q16 76 -33 76q-40 0 -93 -59l-30 -148q-12 -67 -7 -85q2 -5 5 -10h-115l46 226q8 38 1 57t-33 19q-44 0 -96 -59
l-29 -148q-15 -75 0 -95h-116z" />
    <glyph glyph-name="n.ordn" horiz-adv-x="439" 
d="M76 350l53 269q5 31 7 44.5t1 32.5t-8 31h111l-8 -46h4q55 57 122 57q57 0 83.5 -40.5t13.5 -105.5l-28 -143q-6 -29 -8 -43.5t-0.5 -30.5t9.5 -25h-117l46 230q15 74 -39 74q-23 0 -50.5 -19.5t-48.5 -46.5l-27 -139q-6 -29 -8 -43.5t-1 -30.5t8 -25h-115z" />
    <glyph glyph-name="o.ordn" horiz-adv-x="425" 
d="M236 339q-70 0 -111 40t-41 113q0 109 61.5 177t157.5 68q70 0 111 -39.5t41 -112.5q0 -110 -61.5 -178t-157.5 -68zM248 421q46 0 77 44.5t31 113.5q0 77 -65 77q-45 0 -76.5 -44.5t-31.5 -112.5q0 -78 65 -78z" />
    <glyph glyph-name="p.ordn" horiz-adv-x="432" 
d="M41 197l85 419q7 33 9.5 49t1.5 34t-9 28h112l-8 -38h5q48 48 106 48q55 0 87.5 -37t32.5 -106q0 -106 -60.5 -179t-146.5 -73q-49 0 -86 21l-14 -71q-14 -74 0 -95h-115zM248 419q47 0 82 48.5t35 121.5q0 69 -49 69q-19 0 -48.5 -20.5t-51.5 -50.5l-30 -146
q26 -22 62 -22z" />
    <glyph glyph-name="q.ordn" horiz-adv-x="440" 
d="M271 197l41 194l-2 1q-48 -51 -108 -51q-55 0 -87.5 37t-32.5 106q0 105 62.5 178.5t142.5 73.5q43 0 89 -20l11 11h88l-86 -423q-6 -33 -8 -46t-1 -31.5t8 -29.5h-117zM229 420q22 0 51 22.5t52 57.5l28 138q-28 20 -64 20q-47 0 -81 -47.5t-34 -120.5q0 -34 13 -52
t35 -18z" />
    <glyph glyph-name="r.ordn" horiz-adv-x="305" 
d="M76 350l53 270q18 79 0 107h109l-9 -58h5q19 31 50 49.5t61 18.5q22 0 42 -10l-30 -94q-13 18 -33 18q-26 0 -57 -24.5t-54 -69.5l-20 -104q-8 -45 -8 -68t12 -35h-121z" />
    <glyph glyph-name="s.ordn" horiz-adv-x="339" 
d="M201 341q-41 0 -91.5 15.5t-55.5 16.5l51 95q14 -25 41 -40.5t60 -15.5q25 0 40.5 10.5t15.5 30.5q0 18 -12.5 28.5t-38.5 22.5l-19 8q-80 33 -80 103q0 54 40 88.5t101 34.5q32 0 77.5 -14t49.5 -15l-45 -86q-29 43 -85 43q-20 0 -33 -10.5t-13 -26.5q0 -26 42 -45
l21 -10q87 -37 87 -106q0 -58 -42 -92.5t-111 -34.5z" />
    <glyph glyph-name="t.ordn" horiz-adv-x="296" 
d="M215 342q-58 0 -85.5 35.5t-13.5 104.5l34 168h-54l15 76l56 1l14 73h95l-14 -73h93l-15 -77h-93l-34 -164q-14 -66 31 -66q37 0 54 19l16 -87q-10 0 -43 -5t-56 -5z" />
    <glyph glyph-name="u.ordn" horiz-adv-x="435" 
d="M188 339q-55 0 -77.5 36.5t-9.5 104.5l29 149q15 78 -2 98h118l-46 -230q-16 -74 30 -74q26 0 53 20.5t47 51.5l27 133q15 79 1 99h115l-53 -269q-15 -83 2 -108h-112l7 50h-4q-53 -61 -125 -61z" />
    <glyph glyph-name="v.ordn" horiz-adv-x="393" 
d="M164 350l-40 268q-13 87 -31 109h113l26 -199q8 -74 5 -105h5q10 27 52 110t55 112q25 56 12 82h112q-15 -49 -93.5 -204t-81.5 -173h-134z" />
    <glyph glyph-name="w.ordn" horiz-adv-x="634" 
d="M144 350l-22 291q-3 41 -7 57.5t-14 28.5h107l12 -181q5 -89 3 -125h5q17 58 67 162q50 109 52 144h135l12 -182q5 -62 2 -124h4q8 25 39.5 95t53.5 129t16 82h101q-14 -48 -82.5 -200t-75.5 -177h-136l-11 201q-5 69 -1 91h-4q-8 -35 -33 -90q-9 -19 -30 -65t-34.5 -77
t-22.5 -60h-136z" />
    <glyph glyph-name="x.ordn" horiz-adv-x="375" 
d="M349 422q25 -56 44 -72h-114l-30 74q-10 28 -21 65h-4q-4 -6 -14.5 -25.5t-18.5 -31.5l-30 -37q-21 -26 -19 -45h-114l163 209l-40 97q-21 53 -40 71h111l27 -66q2 -5 5 -14t6.5 -21.5t8.5 -31.5h3q30 55 36 61l20 27q20 25 19 45h114l-157 -201z" />
    <glyph glyph-name="y.ordn" horiz-adv-x="393" 
d="M101 197q-18 0 -39 3.5t-30 1.5l34 97q15 -24 46 -24q46 0 74 64l5 10l-56 276q-16 80 -37 102h111l34 -207q8 -57 9 -80h5q31 68 36 79l56 123q27 67 18 85h109l-198 -402q-62 -128 -177 -128z" />
    <glyph glyph-name="z.ordn" horiz-adv-x="339" 
d="M400 727l-8 -60l-209 -242h91q56 0 82 15l-16 -90h-293l9 59l209 243h-79q-48 0 -72 -15l17 90h269z" />
    <glyph glyph-name="a.ss01" horiz-adv-x="501" 
d="M147 -12q-62 0 -96.5 31.5t-34.5 86.5q0 88 67.5 135t195.5 47h56l6 30q9 48 -5.5 70t-61.5 22q-91 0 -153 -52l-18 105q17 1 83 20.5t113 19.5q99 0 136.5 -46t18.5 -141l-37 -192q-20 -92 -5 -124h-124l14 49h-9q-22 -26 -62 -43.5t-84 -17.5zM184 74q33 0 69 23t56 54
l11 59h-55q-135 0 -135 -87q0 -49 54 -49z" />
    <glyph glyph-name="aacute.ss01" horiz-adv-x="501" 
d="M280 561l-33 51q94 52 182 163l50 -68q-78 -95 -199 -146zM147 -12q-62 0 -96.5 31.5t-34.5 86.5q0 88 67.5 135t195.5 47h56l6 30q9 48 -5.5 70t-61.5 22q-91 0 -153 -52l-18 105q17 1 83 20.5t113 19.5q99 0 136.5 -46t18.5 -141l-37 -192q-20 -92 -5 -124h-124l14 49
h-9q-22 -26 -62 -43.5t-84 -17.5zM184 74q33 0 69 23t56 54l11 59h-55q-135 0 -135 -87q0 -49 54 -49z" />
    <glyph glyph-name="abreve.ss01" horiz-adv-x="501" 
d="M303 559q-66 0 -94.5 45.5t-12.5 112.5h57q-7 -41 7.5 -67t51.5 -26q39 0 62.5 26t31.5 67h57q-22 -158 -160 -158zM147 -12q-62 0 -96.5 31.5t-34.5 86.5q0 88 67.5 135t195.5 47h56l6 30q9 48 -5.5 70t-61.5 22q-91 0 -153 -52l-18 105q17 1 83 20.5t113 19.5
q99 0 136.5 -46t18.5 -141l-37 -192q-20 -92 -5 -124h-124l14 49h-9q-22 -26 -62 -43.5t-84 -17.5zM184 74q33 0 69 23t56 54l11 59h-55q-135 0 -135 -87q0 -49 54 -49z" />
    <glyph glyph-name="acircumflex.ss01" horiz-adv-x="501" 
d="M175 556l-34 38q81 56 139 137h100q28 -82 87 -137l-47 -38q-71 45 -99 109h-4q-54 -65 -142 -109zM147 -12q-62 0 -96.5 31.5t-34.5 86.5q0 88 67.5 135t195.5 47h56l6 30q9 48 -5.5 70t-61.5 22q-91 0 -153 -52l-18 105q17 1 83 20.5t113 19.5q99 0 136.5 -46
t18.5 -141l-37 -192q-20 -92 -5 -124h-124l14 49h-9q-22 -26 -62 -43.5t-84 -17.5zM184 74q33 0 69 23t56 54l11 59h-55q-135 0 -135 -87q0 -49 54 -49z" />
    <glyph glyph-name="adieresis.ss01" horiz-adv-x="501" 
d="M203 577q-21 0 -33.5 12.5t-12.5 32.5q0 27 20.5 47.5t48.5 20.5q20 0 32.5 -12.5t12.5 -32.5q0 -27 -20 -47.5t-48 -20.5zM404 577q-21 0 -33.5 12.5t-12.5 32.5q0 26 20.5 47t47.5 21q21 0 33.5 -12.5t12.5 -32.5q0 -27 -20.5 -47.5t-47.5 -20.5zM147 -12
q-62 0 -96.5 31.5t-34.5 86.5q0 88 67.5 135t195.5 47h56l6 30q9 48 -5.5 70t-61.5 22q-91 0 -153 -52l-18 105q17 1 83 20.5t113 19.5q99 0 136.5 -46t18.5 -141l-37 -192q-20 -92 -5 -124h-124l14 49h-9q-22 -26 -62 -43.5t-84 -17.5zM184 74q33 0 69 23t56 54l11 59h-55
q-135 0 -135 -87q0 -49 54 -49z" />
    <glyph glyph-name="agrave.ss01" horiz-adv-x="501" 
d="M308 563q-45 21 -83 58.5t-60 85.5l69 63q31 -102 114 -165zM147 -12q-62 0 -96.5 31.5t-34.5 86.5q0 88 67.5 135t195.5 47h56l6 30q9 48 -5.5 70t-61.5 22q-91 0 -153 -52l-18 105q17 1 83 20.5t113 19.5q99 0 136.5 -46t18.5 -141l-37 -192q-20 -92 -5 -124h-124
l14 49h-9q-22 -26 -62 -43.5t-84 -17.5zM184 74q33 0 69 23t56 54l11 59h-55q-135 0 -135 -87q0 -49 54 -49z" />
    <glyph glyph-name="amacron.ss01" horiz-adv-x="501" 
d="M173 591l12 66h266l-12 -66h-266zM147 -12q-62 0 -96.5 31.5t-34.5 86.5q0 88 67.5 135t195.5 47h56l6 30q9 48 -5.5 70t-61.5 22q-91 0 -153 -52l-18 105q17 1 83 20.5t113 19.5q99 0 136.5 -46t18.5 -141l-37 -192q-20 -92 -5 -124h-124l14 49h-9q-22 -26 -62 -43.5
t-84 -17.5zM184 74q33 0 69 23t56 54l11 59h-55q-135 0 -135 -87q0 -49 54 -49z" />
    <glyph glyph-name="aogonek.ss01" horiz-adv-x="501" 
d="M299 503q99 0 136.5 -46t18.5 -141l-37 -192q-20 -92 -5 -124q-45 -21 -73 -53t-28 -59t29 -27q20 0 37 19l16 -49q-34 -30 -82 -30q-33 0 -54.5 16.5t-21.5 46.5q0 39 31 76t81 60h-59l14 49h-9q-22 -26 -62 -43.5t-84 -17.5q-62 0 -96.5 31.5t-34.5 86.5q0 88 67.5 135
t195.5 47h56l6 30q9 48 -5.5 70t-61.5 22q-91 0 -153 -52l-18 105q17 1 83 20.5t113 19.5zM309 151l11 59h-55q-135 0 -135 -87q0 -49 54 -49q33 0 69 23t56 54z" />
    <glyph glyph-name="aring.ss01" horiz-adv-x="501" 
d="M296 543q-46 0 -71 22t-25 58q0 50 39 84.5t95 34.5q45 0 70.5 -22t25.5 -57q0 -50 -38.5 -85t-95.5 -35zM304 589q27 0 45 19.5t18 48.5q0 18 -11.5 28.5t-29.5 10.5q-27 0 -44.5 -19.5t-17.5 -48.5q0 -18 11 -28.5t29 -10.5zM147 -12q-62 0 -96.5 31.5t-34.5 86.5
q0 88 67.5 135t195.5 47h56l6 30q9 48 -5.5 70t-61.5 22q-91 0 -153 -52l-18 105q17 1 83 20.5t113 19.5q99 0 136.5 -46t18.5 -141l-37 -192q-20 -92 -5 -124h-124l14 49h-9q-22 -26 -62 -43.5t-84 -17.5zM184 74q33 0 69 23t56 54l11 59h-55q-135 0 -135 -87q0 -49 54 -49
z" />
    <glyph glyph-name="atilde.ss01" horiz-adv-x="501" 
d="M366 571q-25 0 -45.5 11t-32 24.5t-25.5 24.5t-26 11q-20 0 -27 -14t-4 -47l-74 4q10 63 39.5 95.5t75.5 32.5q25 0 45.5 -11t32 -24.5t25.5 -24.5t27 -11q37 0 31 61l74 -5q-10 -62 -40 -94.5t-76 -32.5zM147 -12q-62 0 -96.5 31.5t-34.5 86.5q0 88 67.5 135t195.5 47
h56l6 30q9 48 -5.5 70t-61.5 22q-91 0 -153 -52l-18 105q17 1 83 20.5t113 19.5q99 0 136.5 -46t18.5 -141l-37 -192q-20 -92 -5 -124h-124l14 49h-9q-22 -26 -62 -43.5t-84 -17.5zM184 74q33 0 69 23t56 54l11 59h-55q-135 0 -135 -87q0 -49 54 -49z" />
    <glyph glyph-name="g.ss02" horiz-adv-x="484" 
d="M503 404q-40 21 -87 21l-2 -7q21 -29 21 -71q0 -85 -62 -138.5t-162 -53.5q-18 0 -27 1q-19 -14 -19 -33q0 -16 17 -21.5t61 -5.5q177 0 177 -116q0 -86 -70.5 -133t-198.5 -47q-189 0 -189 114q0 51 34 87t80 54q-9 17 -9 40q0 50 44 82q-65 35 -65 114q0 93 64.5 152.5
t166.5 59.5q41 0 75 -16h60q66 0 111 15zM227 231q44 0 76 36t32 88q0 32 -20 48.5t-53 16.5q-46 0 -77 -35t-31 -88q0 -66 73 -66zM221 5q-50 0 -83 8q-33 -13 -53.5 -34t-20.5 -44q0 -28 24.5 -41t78.5 -13q65 0 104 22.5t39 58.5q0 43 -89 43z" />
    <glyph glyph-name="gbreve.ss02" horiz-adv-x="484" 
d="M284 555q-66 0 -94.5 45.5t-12.5 112.5h57q-7 -41 7.5 -67t51.5 -26q39 0 62.5 26t31.5 67h57q-22 -158 -160 -158zM503 404q-40 21 -87 21l-2 -7q21 -29 21 -71q0 -85 -62 -138.5t-162 -53.5q-18 0 -27 1q-19 -14 -19 -33q0 -16 17 -21.5t61 -5.5q177 0 177 -116
q0 -86 -70.5 -133t-198.5 -47q-189 0 -189 114q0 51 34 87t80 54q-9 17 -9 40q0 50 44 82q-65 35 -65 114q0 93 64.5 152.5t166.5 59.5q41 0 75 -16h60q66 0 111 15zM227 231q44 0 76 36t32 88q0 32 -20 48.5t-53 16.5q-46 0 -77 -35t-31 -88q0 -66 73 -66zM221 5
q-50 0 -83 8q-33 -13 -53.5 -34t-20.5 -44q0 -28 24.5 -41t78.5 -13q65 0 104 22.5t39 58.5q0 43 -89 43z" />
    <glyph glyph-name="uni0123.ss02" horiz-adv-x="484" 
d="M279 550q-51 0 -51 50q0 49 36 90.5t94 58.5l11 -38q-32 -9 -52.5 -28t-26.5 -41h8q18 0 30.5 -9.5t12.5 -26.5q0 -23 -18 -39.5t-44 -16.5zM503 404q-40 21 -87 21l-2 -7q21 -29 21 -71q0 -85 -62 -138.5t-162 -53.5q-18 0 -27 1q-19 -14 -19 -33q0 -16 17 -21.5
t61 -5.5q177 0 177 -116q0 -86 -70.5 -133t-198.5 -47q-189 0 -189 114q0 51 34 87t80 54q-9 17 -9 40q0 50 44 82q-65 35 -65 114q0 93 64.5 152.5t166.5 59.5q41 0 75 -16h60q66 0 111 15zM227 231q44 0 76 36t32 88q0 32 -20 48.5t-53 16.5q-46 0 -77 -35t-31 -88
q0 -66 73 -66zM221 5q-50 0 -83 8q-33 -13 -53.5 -34t-20.5 -44q0 -28 24.5 -41t78.5 -13q65 0 104 22.5t39 58.5q0 43 -89 43z" />
    <glyph glyph-name="gdotaccent.ss02" horiz-adv-x="484" 
d="M283 572q-52 0 -52 43q0 34 21 55t54 21q53 0 53 -44q0 -33 -21 -54t-55 -21zM503 404q-40 21 -87 21l-2 -7q21 -29 21 -71q0 -85 -62 -138.5t-162 -53.5q-18 0 -27 1q-19 -14 -19 -33q0 -16 17 -21.5t61 -5.5q177 0 177 -116q0 -86 -70.5 -133t-198.5 -47
q-189 0 -189 114q0 51 34 87t80 54q-9 17 -9 40q0 50 44 82q-65 35 -65 114q0 93 64.5 152.5t166.5 59.5q41 0 75 -16h60q66 0 111 15zM227 231q44 0 76 36t32 88q0 32 -20 48.5t-53 16.5q-46 0 -77 -35t-31 -88q0 -66 73 -66zM221 5q-50 0 -83 8q-33 -13 -53.5 -34
t-20.5 -44q0 -28 24.5 -41t78.5 -13q65 0 104 22.5t39 58.5q0 43 -89 43z" />
    <glyph glyph-name="y.ss03" horiz-adv-x="537" 
d="M149 -196q-41 0 -74.5 7.5t-53 15.5t-24.5 8l40 105q41 -46 124 -46q145 0 169 130l10 50q-63 -84 -169 -84q-150 0 -113 191l36 185q16 91 1 125h136l-58 -299q-22 -106 49 -106q33 0 70.5 25t66.5 66l36 189q17 88 2 125h134l-87 -453q-24 -120 -107 -177t-188 -57z
" />
    <glyph glyph-name="yacute.ss03" horiz-adv-x="537" 
d="M315 562l-33 51q94 52 182 163l50 -68q-78 -95 -199 -146zM149 -196q-41 0 -74.5 7.5t-53 15.5t-24.5 8l40 105q41 -46 124 -46q145 0 169 130l10 50q-63 -84 -169 -84q-150 0 -113 191l36 185q16 91 1 125h136l-58 -299q-22 -106 49 -106q33 0 70.5 25t66.5 66l36 189
q17 88 2 125h134l-87 -453q-24 -120 -107 -177t-188 -57z" />
    <glyph glyph-name="ycircumflex.ss03" horiz-adv-x="537" 
d="M210 557l-34 38q81 56 139 137h100q28 -82 87 -137l-47 -38q-71 45 -99 109h-4q-54 -65 -142 -109zM149 -196q-41 0 -74.5 7.5t-53 15.5t-24.5 8l40 105q41 -46 124 -46q145 0 169 130l10 50q-63 -84 -169 -84q-150 0 -113 191l36 185q16 91 1 125h136l-58 -299
q-22 -106 49 -106q33 0 70.5 25t66.5 66l36 189q17 88 2 125h134l-87 -453q-24 -120 -107 -177t-188 -57z" />
    <glyph glyph-name="ydieresis.ss03" horiz-adv-x="537" 
d="M238 578q-21 0 -33.5 12.5t-12.5 32.5q0 27 20.5 47.5t48.5 20.5q20 0 32.5 -12.5t12.5 -32.5q0 -27 -20 -47.5t-48 -20.5zM439 578q-21 0 -33.5 12.5t-12.5 32.5q0 26 20.5 47t47.5 21q21 0 33.5 -12.5t12.5 -32.5q0 -27 -20.5 -47.5t-47.5 -20.5zM149 -196
q-41 0 -74.5 7.5t-53 15.5t-24.5 8l40 105q41 -46 124 -46q145 0 169 130l10 50q-63 -84 -169 -84q-150 0 -113 191l36 185q16 91 1 125h136l-58 -299q-22 -106 49 -106q33 0 70.5 25t66.5 66l36 189q17 88 2 125h134l-87 -453q-24 -120 -107 -177t-188 -57z" />
    <glyph glyph-name="ygrave.ss03" horiz-adv-x="537" 
d="M343 564q-45 21 -83 58.5t-60 85.5l69 63q31 -102 114 -165zM149 -196q-41 0 -74.5 7.5t-53 15.5t-24.5 8l40 105q41 -46 124 -46q145 0 169 130l10 50q-63 -84 -169 -84q-150 0 -113 191l36 185q16 91 1 125h136l-58 -299q-22 -106 49 -106q33 0 70.5 25t66.5 66l36 189
q17 88 2 125h134l-87 -453q-24 -120 -107 -177t-188 -57z" />
    <glyph glyph-name="a.superior" horiz-adv-x="392" 
d="M199 431q-52 0 -84 37.5t-32 104.5q0 108 61.5 180t141.5 72q46 0 92 -23l6 13h90l-55 -268q-16 -82 -2 -107h-104q-2 18 1 40h-4q-53 -49 -111 -49zM229 510q45 0 101 69l29 146q-28 22 -64 22q-46 0 -80 -47.5t-34 -118.5q0 -34 13 -52.5t35 -18.5z" />
    <glyph glyph-name="b.superior" horiz-adv-x="425" 
d="M258 432q-56 0 -94 26l-15 -18h-75l87 423q20 97 3 121h117l-43 -205q50 48 111 48q52 0 84 -37.5t32 -105.5q0 -106 -62 -179t-145 -73zM250 509q46 0 81 48.5t35 121.5q0 69 -48 69q-20 0 -49 -20t-52 -50l-29 -147q24 -22 62 -22z" />
    <glyph glyph-name="c.superior" horiz-adv-x="351" 
d="M230 429q-67 0 -106 39.5t-39 113.5q0 111 60 178t147 67q32 0 69.5 -13t39.5 -13l-39 -89q-23 34 -72 34q-43 0 -74.5 -47t-31.5 -109q0 -40 18.5 -60t47.5 -20q27 0 50.5 11.5t34.5 26.5l25 -91q-4 0 -48.5 -14t-81.5 -14z" />
    <glyph glyph-name="d.superior" horiz-adv-x="424" 
d="M199 431q-53 0 -84.5 37t-31.5 106q0 105 61.5 178.5t145.5 73.5q41 0 85 -18l13 65q10 49 11 66.5t-10 44.5h117l-88 -442q-9 -44 -9.5 -61.5t10.5 -40.5h-103q-2 23 2 42h-3q-51 -51 -116 -51zM229 510q22 0 50.5 21t51.5 53l29 146q-30 18 -62 18q-47 0 -82 -48
t-35 -120q0 -34 13 -52t35 -18z" />
    <glyph glyph-name="e.superior" horiz-adv-x="387" 
d="M245 429q-73 0 -116.5 42t-43.5 114q0 107 59 174.5t149 67.5q63 0 102.5 -35t39.5 -86q0 -111 -164 -111h-89q-3 -41 18.5 -66t59.5 -25q68 0 99 33l29 -79l-30 -10q-31 -9 -57.5 -14t-55.5 -5zM190 657h67q84 0 84 45q0 22 -15 36t-42 14q-34 0 -60 -26.5t-34 -68.5z
" />
    <glyph glyph-name="f.superior" horiz-adv-x="246" 
d="M93 440l60 300h-51l15 76h51l9 44q14 66 58 97.5t105 31.5q45 0 84 -17l-31 -77q-19 21 -58 21q-49 0 -62 -62l-9 -37h82l-15 -77h-82l-38 -197q-9 -47 -10 -65.5t9 -37.5h-117z" />
    <glyph glyph-name="g.superior" horiz-adv-x="396" 
d="M192 279q-58 0 -135 30l39 90q36 -47 101 -47q83 0 104 86l11 43l-2 1q-46 -51 -109 -51q-54 0 -86 37t-32 106q0 105 62.5 178.5t146.5 73.5q48 0 88 -24l10 15h87l-78 -367q-35 -171 -207 -171zM228 511q24 0 53 20.5t50 51.5l30 142q-31 23 -65 23q-46 0 -80.5 -48
t-34.5 -120q0 -69 47 -69z" />
    <glyph glyph-name="h.superior" horiz-adv-x="432" 
d="M76 440l87 433q1 3 2 10q13 67 5 90q-3 6 -6 11h115l-40 -211h4q19 22 53 38.5t69 16.5q56 0 80 -41t11 -108l-27 -144q-6 -32 -8 -45t-0.5 -27t9.5 -23h-118l46 230q14 74 -37 74q-24 0 -52.5 -20.5t-48.5 -48.5l-27 -140q-12 -65 -6 -83q2 -7 6 -12h-117z" />
    <glyph glyph-name="i.superior" horiz-adv-x="206" 
d="M213 876q-53 0 -53 46q0 27 18 45t46 18q24 0 38.5 -12t14.5 -34q0 -28 -17.5 -45.5t-46.5 -17.5zM75 440l53 265q1 3 3 15t2.5 15.5t2.5 13.5t2 13.5t0.5 11.5t0 12.5t-1.5 10.5t-3 10.5t-5 9.5h118l-57 -282q-15 -76 2 -95h-117z" />
    <glyph glyph-name="j.superior" horiz-adv-x="207" 
d="M209 873q-24 0 -38.5 12t-14.5 34q0 27 18 45t47 18q52 0 52 -47q0 -28 -17.5 -45t-46.5 -17zM23 277q-12 0 -25.5 2t-27 5t-19.5 4l29 85q16 -18 40 -18q23 0 36 20.5t22 67.5l52 259q13 72 8 94q-2 10 -7 18l118 -1l-74 -367q-18 -85 -52 -127t-100 -42z" />
    <glyph glyph-name="k.superior" horiz-adv-x="411" 
d="M76 440l87 433q9 49 10 69t-9 42h117l-42 -213q48 56 119 56q45 0 75 -26.5t30 -71.5q0 -49 -31 -84t-80 -53l39 -79q29 -57 54 -73h-118l-72 154l3 35q43 1 74.5 22.5t31.5 57.5q0 43 -40 43q-25 0 -55 -22t-50 -59l-28 -136q-6 -31 -7.5 -44.5t0.5 -27.5t10 -23h-118z
" />
    <glyph glyph-name="l.superior" horiz-adv-x="206" 
d="M76 440l85 429q10 50 11 72.5t-10 42.5h119l-89 -445q-15 -79 3 -99h-119z" />
    <glyph glyph-name="m.superior" horiz-adv-x="647" 
d="M74 440l54 272q9 46 10 62t-9 43h113l-9 -53h4q55 62 124 62q75 0 87 -69q62 69 133 69q61 0 83.5 -39.5t9.5 -105.5l-29 -145q-16 -76 1 -96h-117l45 226q16 76 -33 76q-40 0 -93 -59l-30 -148q-12 -67 -7 -85q2 -5 5 -10h-115l46 226q8 38 1 57t-33 19q-44 0 -96 -59
l-29 -148q-15 -75 0 -95h-116z" />
    <glyph glyph-name="n.superior" horiz-adv-x="432" 
d="M76 440l53 269q5 31 7 44.5t1 32.5t-8 31h111l-8 -46h4q55 57 122 57q57 0 83.5 -40.5t13.5 -105.5l-28 -143q-6 -29 -8 -43.5t-0.5 -30.5t9.5 -25h-117l46 230q15 74 -39 74q-23 0 -50.5 -19.5t-48.5 -46.5l-27 -139q-6 -29 -8 -43.5t-1 -30.5t8 -25h-115z" />
    <glyph glyph-name="o.superior" horiz-adv-x="413" 
d="M236 429q-70 0 -111 40t-41 113q0 109 61.5 177t157.5 68q70 0 111 -39.5t41 -112.5q0 -110 -61.5 -178t-157.5 -68zM248 511q46 0 77 44.5t31 113.5q0 77 -65 77q-45 0 -76.5 -44.5t-31.5 -112.5q0 -78 65 -78z" />
    <glyph glyph-name="p.superior" horiz-adv-x="423" 
d="M41 287l85 419q7 33 9.5 49t1.5 34t-9 28h112l-8 -38h5q48 48 106 48q55 0 87.5 -37t32.5 -106q0 -106 -60.5 -179t-146.5 -73q-49 0 -86 21l-14 -71q-14 -74 0 -95h-115zM248 509q47 0 82 48.5t35 121.5q0 69 -49 69q-19 0 -48.5 -20.5t-51.5 -50.5l-30 -146
q26 -22 62 -22z" />
    <glyph glyph-name="q.superior" horiz-adv-x="422" 
d="M271 287l41 194l-2 1q-48 -51 -108 -51q-55 0 -87.5 37t-32.5 106q0 105 62.5 178.5t142.5 73.5q43 0 89 -20l11 11h88l-86 -423q-6 -33 -8 -46t-1 -31.5t8 -29.5h-117zM229 510q22 0 51 22.5t52 57.5l28 138q-28 20 -64 20q-47 0 -81 -47.5t-34 -120.5q0 -34 13 -52
t35 -18z" />
    <glyph glyph-name="r.superior" horiz-adv-x="294" 
d="M76 440l53 270q18 79 0 107h109l-9 -58h5q19 31 50 49.5t61 18.5q22 0 42 -10l-30 -94q-13 18 -33 18q-26 0 -57 -24.5t-54 -69.5l-20 -104q-8 -45 -8 -68t12 -35h-121z" />
    <glyph glyph-name="s.superior" horiz-adv-x="332" 
d="M201 431q-41 0 -91.5 15.5t-55.5 16.5l51 95q14 -25 41 -40.5t60 -15.5q25 0 40.5 10.5t15.5 30.5q0 18 -12.5 28.5t-38.5 22.5l-19 8q-80 33 -80 103q0 54 40 88.5t101 34.5q32 0 77.5 -14t49.5 -15l-45 -86q-29 43 -85 43q-20 0 -33 -10.5t-13 -26.5q0 -26 42 -45
l21 -10q87 -37 87 -106q0 -58 -42 -92.5t-111 -34.5z" />
    <glyph glyph-name="t.superior" horiz-adv-x="281" 
d="M215 432q-58 0 -85.5 35.5t-13.5 104.5l34 168h-54l15 76l56 1l14 73h95l-14 -73h93l-15 -77h-93l-34 -164q-14 -66 31 -66q37 0 54 19l16 -87q-10 0 -43 -5t-56 -5z" />
    <glyph glyph-name="u.superior" horiz-adv-x="427" 
d="M188 429q-55 0 -77.5 36.5t-9.5 104.5l29 149q15 78 -2 98h118l-46 -230q-16 -74 30 -74q26 0 53 20.5t47 51.5l27 133q15 79 1 99h115l-53 -269q-15 -83 2 -108h-112l7 50h-4q-53 -61 -125 -61z" />
    <glyph glyph-name="v.superior" horiz-adv-x="403" 
d="M164 440l-40 268q-13 87 -31 109h113l26 -199q8 -74 5 -105h5q10 27 52 110t55 112q25 56 12 82h112q-15 -49 -93.5 -204t-81.5 -173h-134z" />
    <glyph glyph-name="w.superior" horiz-adv-x="575" 
d="M144 440l-22 291q-3 41 -7 57.5t-14 28.5h107l12 -181q5 -89 3 -125h5q17 58 67 162q50 109 52 144h135l12 -182q5 -62 2 -124h4q8 25 39.5 95t53.5 129t16 82h101q-14 -48 -82.5 -200t-75.5 -177h-136l-11 201q-5 69 -1 91h-4q-8 -35 -33 -90q-9 -19 -30 -65t-34.5 -77
t-22.5 -60h-136z" />
    <glyph glyph-name="x.superior" horiz-adv-x="382" 
d="M349 512q25 -56 44 -72h-114l-30 74q-10 28 -21 65h-4q-4 -6 -14.5 -25.5t-18.5 -31.5l-30 -37q-21 -26 -19 -45h-114l163 209l-40 97q-21 53 -40 71h111l27 -66q2 -5 5 -14t6.5 -21.5t8.5 -31.5h3q30 55 36 61l20 27q20 25 19 45h114l-157 -201z" />
    <glyph glyph-name="y.superior" horiz-adv-x="395" 
d="M101 287q-18 0 -39 3.5t-30 1.5l34 97q15 -24 46 -24q46 0 74 64l5 10l-56 276q-16 80 -37 102h111l34 -207q8 -57 9 -80h5q31 68 36 79l56 123q27 67 18 85h109l-198 -402q-62 -128 -177 -128z" />
    <glyph glyph-name="z.superior" horiz-adv-x="345" 
d="M400 817l-8 -60l-209 -242h91q56 0 82 15l-16 -90h-293l9 59l209 243h-79q-48 0 -72 -15l17 90h269z" />
    <glyph glyph-name="L_A" horiz-adv-x="782" 
d="M699 -7q-35 7 -115 7h-571q29 35 48 131l76 392q19 93 3 131h159q-30 -32 -49 -131l-83 -428h435q85 0 122 24zM268 200q33 35 85 134l108 209q41 74 46 111h157q-9 -36 1 -111l28 -208q14 -107 30 -135h-130q17 50 5 102l-2 14h-159l-6 -14q-32 -66 -33 -102h-130z
M471 390h121l-7 61q-12 103 -11 136h-8q-20 -51 -64 -136z" />
    <glyph glyph-name="L_E" horiz-adv-x="685" 
d="M611 194q-33 6 -132 6h-183q16 24 39 139l34 176q22 116 16 139h173q99 0 135 6l-18 -94q-24 10 -130 10h-69l-21 -106h43q102 0 130 11l-17 -91q-26 11 -127 11h-42l-24 -123h78q105 0 133 10zM603 -7q-36 7 -116 7h-474q29 35 48 131l76 392q19 93 3 131h159
q-30 -32 -49 -131l-83 -428h338q85 0 122 24z" />
    <glyph glyph-name="L_I" horiz-adv-x="527" 
d="M445 -7q-36 7 -116 7h-316q29 35 48 131l76 392q19 93 3 131h159q-30 -32 -49 -131l-83 -428h181q84 0 121 24zM315 200q16 24 40 139l34 176q22 113 15 139h119q-19 -28 -40 -139l-35 -176q-22 -111 -14 -139h-119z" />
    <glyph glyph-name="L_L" horiz-adv-x="681" 
d="M603 -7q-36 7 -116 7h-474q29 35 48 131l76 392q19 93 3 131h159q-30 -32 -49 -131l-83 -428h338q85 0 122 24zM617 194q-36 6 -143 6h-179q20 33 42 150l30 154q24 121 17 150h120q-20 -30 -43 -150l-44 -225h73q112 0 145 14z" />
    <glyph glyph-name="L_O" horiz-adv-x="769" 
d="M497 189q-79 0 -124.5 40t-45.5 123q0 139 72.5 225.5t189.5 86.5q171 0 171 -159q0 -140 -73.5 -228t-189.5 -88zM686 -7q-36 7 -115 7h-558q29 35 48 131l76 392q19 93 3 131h159q-30 -32 -49 -131l-83 -428h422q85 0 122 24zM513 271q66 0 107.5 61.5t41.5 158.5
q0 50 -22.5 70.5t-65.5 20.5q-66 0 -107 -60t-41 -158q0 -93 87 -93z" />
    <glyph glyph-name="L_U" horiz-adv-x="771" 
d="M689 -7q-36 7 -116 7h-560q29 35 48 131l76 392q19 93 3 131h159q-30 -32 -49 -131l-83 -428h424q84 0 121 20zM508 189q-189 0 -148 205l23 120q21 113 15 140h118q-18 -30 -40 -140l-23 -121q-12 -67 6.5 -95t64.5 -28q96 0 120 123l23 121q22 113 16 140h114
q-18 -28 -40 -140l-24 -120q-39 -205 -225 -205z" />
    <glyph glyph-name="R_A" horiz-adv-x="1097" 
d="M13 0q28 33 48 131l76 392q19 94 3 131h234q215 0 215 -145q0 -86 -49.5 -152.5t-128.5 -87.5q64 -105 128 -137t195 -32h184q86 0 123 26l-24 -125l-323 -1q-158 0 -241.5 51t-161.5 200h-94l-23 -120q-18 -96 -9 -131h-152zM573 200q35 34 86 134l108 209q41 80 45 111
h157q-8 -33 1 -111l29 -208q15 -110 30 -135h-131q17 46 5 102l-2 14h-158l-6 -14q-33 -68 -34 -102h-130zM776 390h121l-7 61q-12 116 -11 136h-7q-19 -48 -64 -136zM215 342h92q80 0 124 37t44 106q0 43 -33 59t-90 16h-94z" />
    <glyph glyph-name="R_E" horiz-adv-x="997" 
d="M926 194q-31 6 -132 6h-183q18 28 39 139l35 176q22 110 15 139h174q99 0 135 6l-19 -94q-23 10 -130 10h-69l-21 -106h43q102 0 130 11l-17 -91q-24 11 -126 11h-43l-24 -123h78q105 0 134 10zM13 0q28 33 48 131l76 392q19 94 3 131h234q215 0 215 -145
q0 -86 -49.5 -152.5t-128.5 -87.5q64 -107 125 -138t198 -31h84q86 0 123 26l-24 -125l-223 -1q-163 0 -245 51t-158 200h-94l-23 -120q-18 -96 -9 -131h-152zM215 342h92q80 0 124 37t44 106q0 43 -33 59t-90 16h-94z" />
    <glyph glyph-name="R_I" horiz-adv-x="830" 
d="M13 0q28 33 48 131l76 392q19 94 3 131h234q215 0 215 -145q0 -86 -49.5 -152.5t-128.5 -87.5q54 -94 104.5 -129.5t125.5 -35.5h55q47 0 79 23l-25 -127h-135q-117 0 -186.5 55.5t-137.5 195.5h-94l-23 -120q-18 -96 -9 -131h-152zM619 200q17 27 39 139l35 176
q21 116 15 139h118q-17 -27 -40 -139l-34 -176q-22 -110 -14 -139h-119zM215 342h92q80 0 124 37t44 106q0 43 -33 59t-90 16h-94z" />
    <glyph glyph-name="R_O" horiz-adv-x="1081" 
d="M818 189q-79 0 -124.5 39.5t-45.5 123.5q0 139 72.5 225.5t189.5 86.5q171 0 171 -159q0 -140 -73.5 -228t-189.5 -88zM13 0q28 33 48 131l76 392q19 94 3 131h234q215 0 215 -145q0 -86 -49.5 -152.5t-128.5 -87.5q64 -105 128 -137t195 -32h168q87 0 123 25l-24 -124
l-307 -1q-158 0 -241.5 51t-161.5 200h-94l-23 -120q-18 -96 -9 -131h-152zM834 271q66 0 107.5 61.5t41.5 158.5q0 49 -23 70t-66 21q-66 0 -107 -60.5t-41 -157.5q0 -51 22.5 -72t65.5 -21zM215 342h92q80 0 124 37t44 106q0 43 -33 59t-90 16h-94z" />
    <glyph glyph-name="R_R" horiz-adv-x="1065" 
d="M13 0q28 33 48 131l76 392q19 94 3 131h234q215 0 215 -145q0 -86 -49.5 -152.5t-128.5 -87.5q64 -107 125 -138t198 -31h156q86 0 123 26l-24 -125l-295 -1q-162 0 -244.5 51t-158.5 200h-94l-23 -120q-18 -96 -9 -131h-152zM610 200q19 28 41 141l33 173q22 110 15 140
h180q158 0 158 -106q0 -57 -33.5 -101.5t-91.5 -63.5l24 -49q15 -29 29.5 -60.5t22.5 -47.5t15 -26h-128q6 36 -23 101l-31 66h-71l-7 -36q-20 -109 -14 -131h-119zM763 437h63q54 0 84.5 23t31.5 63q1 31 -23 43.5t-66 12.5h-62zM215 342h92q80 0 124 37t44 106
q0 43 -33 59t-90 16h-94z" />
    <glyph glyph-name="R_U" horiz-adv-x="1054" 
d="M13 0q28 33 48 131l76 392q19 94 3 131h234q215 0 215 -145q0 -86 -49.5 -152.5t-128.5 -87.5q64 -107 125 -138t198 -31h141q85 0 124 26l-25 -125l-280 -1q-162 0 -244.5 51t-158.5 200h-94l-23 -120q-18 -96 -9 -131h-152zM811 189q-189 0 -148 205l23 120
q21 113 15 140h118q-19 -29 -40 -140l-23 -121q-12 -67 6.5 -95t64.5 -28q94 0 118 123l23 121q21 109 16 140h116q-18 -28 -40 -140l-24 -120q-20 -108 -76 -156.5t-149 -48.5zM215 342h92q80 0 124 37t44 106q0 43 -33 59t-90 16h-94z" />
    <glyph glyph-name="c_t" horiz-adv-x="817" 
d="M221 -12q-86 0 -137.5 43t-51.5 136q0 146 80 240.5t205 95.5h7q-16 28 -16 57q0 89 87.5 152t215.5 63q96 0 154 -37.5t58 -99.5q0 -44 -26.5 -82.5t-73.5 -64.5h121l-18 -96q-32 8 -124 8l-46 -239q-8 -43 1.5 -65t47.5 -22q34 0 60 25l-1 -102q-8 -1 -28 -4.5
t-39 -5.5t-37 -2q-151 0 -119 167l48 248h-70l15 76q85 10 141 49t56 93q0 39 -38 60.5t-103 21.5q-86 0 -146 -44t-60 -108q0 -37 21 -62q9 -3 21.5 -8.5t21.5 -8.5t17 -5l-68 -106q-28 47 -84 47q-71 0 -117 -62.5t-46 -159.5q0 -103 99 -103q68 0 117 50l26 -107
q-7 -2 -41 -13t-66.5 -18t-63.5 -7z" />
    <glyph glyph-name="f_b" horiz-adv-x="877" 
d="M699 503q72 0 110 -44t38 -123q0 -143 -73 -245.5t-176 -102.5q-83 0 -129 44h-8l-4 -32h-121q25 46 40 125l88 458q0 4 2 11.5t2 11.5q-10 13 -35.5 21t-51.5 8q-55 0 -81.5 -27t-36.5 -81l-7 -36h101l-19 -100q-29 8 -100 8l-55 -288q-18 -90 -1 -111h-152
q24 24 41 111l55 288h-66l18 92h66l7 37q38 196 242 196q49 0 97 -16h122q-18 -35 -36 -125l-27 -141q25 25 66.5 43t83.5 18zM589 84q58 0 99.5 68t41.5 164q0 91 -78 91q-29 0 -64 -18t-58 -43l-40 -206q15 -24 42 -40t57 -16z" />
    <glyph glyph-name="f_f_b" horiz-adv-x="1165" 
d="M987 503q72 0 109.5 -44t37.5 -123q0 -143 -73 -245.5t-176 -102.5q-84 0 -128 44h-9l-3 -32h-122q24 43 40 125l89 458q1 4 2.5 11.5t1.5 9.5q-10 15 -35.5 23t-51.5 8q-55 0 -82 -27t-37 -81l-6 -36h100l-18 -100q-29 8 -100 8l-56 -288q-16 -90 0 -111h-153
q24 24 41 111l56 288h-176l-55 -288q-18 -90 -1 -111h-152q24 24 41 111l55 288h-66l18 92h66l9 47q17 90 73.5 136.5t149.5 46.5q22 0 47.5 -3.5t36.5 -2.5l-38 -103q-18 20 -59 20q-40 0 -64 -22t-34 -73l-9 -46h176l7 37q36 196 241 196q49 0 97 -16h122
q-19 -37 -35 -125l-27 -141q25 25 66.5 43t83.5 18zM876 84q58 0 99.5 68t41.5 164q0 91 -77 91q-29 0 -64 -18t-58 -43l-40 -206q15 -24 41.5 -40t56.5 -16z" />
    <glyph glyph-name="f_f_h" horiz-adv-x="1160" 
d="M990 503q77 0 108.5 -46.5t14.5 -136.5l-38 -195q-17 -96 -5 -125h-146q21 34 39 125l36 185q11 52 -3.5 73.5t-50.5 21.5q-30 0 -67 -20.5t-67 -55.5l-40 -204q-17 -95 -9 -125h-146q24 29 43 125l89 458q1 4 2.5 11.5t1.5 10.5q-21 30 -87 30q-55 0 -81.5 -27
t-36.5 -81l-7 -36h101l-19 -100q-29 8 -100 8l-56 -288q-16 -90 0 -111h-153q24 24 41 111l56 288h-172l-55 -288q-18 -90 -1 -111h-152q24 24 41 111l55 288h-66l18 92h66l9 47q17 90 73.5 136.5t149.5 46.5q22 0 47.5 -3.5t36.5 -2.5l-38 -103q-18 20 -59 20
q-40 0 -64 -22t-34 -73l-9 -46h172l7 37q38 196 241 196q48 0 96 -16h124q-19 -37 -34 -115l-19 -97q-11 -50 -20 -65l8 -1q26 30 70 51.5t89 21.5z" />
    <glyph glyph-name="f_f_j" horiz-adv-x="852" 
d="M846 491q-16 -39 -32 -124l-75 -384q-17 -87 -62.5 -133t-131.5 -46q-22 0 -51 3t-38 3l42 104q18 -20 57 -20q32 0 48 21.5t24 64.5l75 387l6 32h-181l-56 -288q-18 -88 -1 -111h-152q24 24 41 111l56 288h-177l-55 -288q-18 -90 -1 -111h-152q24 24 41 111l55 288h-66
l18 92h66l9 47q17 90 73.5 136.5t149.5 46.5q22 0 47.5 -3.5t36.5 -2.5l-38 -103q-18 20 -59 20q-40 0 -64 -22t-34 -73l-9 -46h176l6 31q41 202 262 202q42 0 89 -10.5t71 -22.5l-40 -100q-13 16 -55 30t-79 14q-61 0 -92.5 -25.5t-43.5 -88.5l-6 -30h302z" />
    <glyph glyph-name="f_f_k" horiz-adv-x="1142" 
d="M1024 122q46 -95 74 -122h-167q9 37 -16 96l-54 114l-88 -86l-1 -8q-14 -94 -8 -116h-145q24 29 43 125l89 458q1 4 2.5 12t1.5 11q-24 29 -87 29q-55 0 -82 -27.5t-37 -82.5l-6 -34h101l-19 -100q-29 8 -100 8l-56 -288q-16 -90 0 -111h-153q26 26 41 111l56 288h-19v-1
h-156l-55 -287q-18 -90 -1 -111h-152q24 24 41 111l55 287h-66l18 92h66l9 48q17 90 73.5 136.5t149.5 46.5q22 0 47.5 -3.5t36.5 -2.5l-38 -103q-18 20 -59 20q-40 0 -64 -22t-34 -73l-9 -47h109v1h66l7 36q37 197 242 197q48 0 94 -16h125q-19 -38 -37 -125l-51 -266
q-8 -43 -20 -63h8l151 153q53 55 54 84h164q-50 -32 -135 -116l-90 -87z" />
    <glyph glyph-name="f_f_t" horiz-adv-x="952" 
d="M817 398l-47 -229q-19 -88 42 -88q43 0 68 25l20 -104q-11 0 -52 -6.5t-70 -6.5q-71 0 -105 47t-16 131l48 231h-70v1h-108l-56 -288q-18 -89 0 -111h-153q24 24 41 111l56 288h-21v-1h-156l-55 -287q-18 -90 -1 -111h-152q24 24 41 111l55 287h-66l18 92h66l9 48
q17 90 73.5 136.5t149.5 46.5q22 0 47.5 -3.5t36.5 -2.5l-38 -103q-18 20 -59 20q-40 0 -64 -22t-34 -73l-9 -47h110v1h66l9 47q36 186 228 186q21 0 48.5 -3.5t38.5 -2.5l-31 -103q-21 21 -70 21q-42 0 -67 -23t-35 -76l-9 -46h181l20 91h109l-18 -91h119l-18 -93h-120z
" />
    <glyph glyph-name="f_f_y" horiz-adv-x="1044" 
d="M952 491h130l-261 -526q-36 -77 -94.5 -121t-127.5 -44q-19 0 -45 3.5t-37 1.5l38 114q19 -26 54 -26q62 0 104 91l7 15l-69 373q-1 4 -2.5 13t-2.5 13h-117l-56 -287q-16 -90 0 -111h-153q24 24 41 111l56 287h-179l-55 -287q-18 -90 -1 -111h-152q24 24 41 111l55 287
h-66l18 92h66l9 48q17 90 73.5 136.5t149.5 46.5q22 0 47.5 -3.5t36.5 -2.5l-38 -103q-18 20 -59 20q-40 0 -64 -22t-34 -73l-9 -47h113v1h66l9 47q36 186 227 186q22 0 50.5 -3.5t39.5 -2.5l-30 -104q-22 22 -71 22q-44 0 -69 -23.5t-35 -75.5l-9 -46h192l41 -272
q10 -59 12 -111h5q27 60 52 110l77 167q37 82 26 106z" />
    <glyph glyph-name="f_h" horiz-adv-x="876" 
d="M706 503q77 0 108.5 -46.5t14.5 -136.5l-37 -195q-19 -95 -6 -125h-145q20 33 39 125l35 185q11 52 -3.5 73.5t-50.5 21.5q-29 0 -66 -20.5t-68 -55.5l-39 -204q-18 -94 -10 -125h-146q24 28 44 125l88 458q2 9 4 23q-21 29 -87 29q-55 0 -81.5 -27t-36.5 -81l-7 -36h101
l-19 -100q-29 8 -100 8l-55 -288q-18 -90 -1 -111h-152q24 24 41 111l55 288h-66l18 92h66l7 37q38 196 242 196q49 0 95 -16h124q-17 -33 -34 -115l-19 -97q-11 -48 -19 -65l7 -1q26 30 70.5 51.5t88.5 21.5z" />
    <glyph glyph-name="f_j" horiz-adv-x="563" 
d="M558 491q-16 -39 -32 -124l-75 -384q-17 -87 -63 -133t-131 -46q-22 0 -51.5 3t-38.5 3l42 104q20 -20 57 -20q32 0 48.5 22t23.5 64l76 387l6 32h-182l-55 -288q-18 -89 -2 -111h-151q24 24 41 111l55 288h-66l18 92h66l6 31q39 202 262 202q42 0 88.5 -10.5t71.5 -22.5
l-41 -100q-12 16 -54 30t-79 14q-62 0 -93.5 -25.5t-42.5 -88.5l-6 -30h302z" />
    <glyph glyph-name="f_k" horiz-adv-x="855" 
d="M737 122q46 -95 74 -122h-167q9 37 -16 96l-54 114l-88 -86l-1 -8q-14 -94 -8 -116h-145q24 28 44 125l88 458q0 4 2 11.5t2 11.5q-10 13 -35.5 21t-51.5 8q-55 0 -81.5 -27.5t-36.5 -82.5l-7 -34h101l-19 -100q-29 8 -100 8l-55 -288q-18 -90 -1 -111h-152q24 24 41 111
l55 288h-66l18 92h66l7 36q38 197 242 197q48 0 94 -16h125q-19 -38 -37 -125l-51 -266q-8 -43 -20 -63h8l151 153q53 55 54 84h164q-50 -32 -135 -116l-90 -87z" />
    <glyph glyph-name="f_t" horiz-adv-x="664" 
d="M528 398l-47 -229q-9 -48 2 -68t41 -20q44 0 67 25l20 -104q-11 0 -51.5 -6.5t-70.5 -6.5q-71 0 -104.5 47t-15.5 131l47 231h-69v1h-109l-55 -288q-18 -90 -1 -111h-152q24 24 41 111l55 288h-66l18 92h66l9 47q36 186 227 186q21 0 49 -3.5t39 -2.5l-32 -103
q-19 21 -69 21q-43 0 -67.5 -22.5t-34.5 -76.5l-9 -46h181l19 91h109l-18 -91h120l-18 -93h-121z" />
    <glyph glyph-name="f_y" horiz-adv-x="753" 
d="M662 491h129l-260 -526q-37 -77 -95.5 -121t-127.5 -44q-19 0 -45 3.5t-37 1.5l39 114q19 -26 54 -26q61 0 103 91l7 15l-69 373q-1 4 -2.5 13t-2.5 13h-117l-55 -287q-18 -90 -1 -111h-152q24 24 41 111l55 287h-66l18 93h66l9 47q36 186 227 186q23 0 51.5 -3.5
t39.5 -2.5l-31 -104q-20 22 -71 22q-44 0 -69 -23.5t-35 -75.5l-9 -46h192l42 -272q9 -63 11 -111h5q20 46 52 110l78 167q37 80 26 106z" />
    <glyph glyph-name="s_p" horiz-adv-x="993" 
d="M411 -192q27 40 43 125l84 432q16 93 5 125q67 16 109 50.5t42 79.5q0 39 -37 61t-102 22q-95 0 -155.5 -42t-60.5 -104q0 -41 21 -66q10 -2 25.5 -7t27.5 -8t22 -4l-65 -105q-11 21 -38 34.5t-59 13.5q-39 0 -63.5 -17.5t-24.5 -47.5q0 -37 52 -54l43 -14
q107 -34 107 -115q0 -78 -62 -128.5t-157 -50.5q-45 0 -104 15.5t-72 16.5l65 118q16 -27 50.5 -44.5t75.5 -17.5q42 0 68.5 18.5t26.5 47.5q0 36 -63 56l-37 11q-48 14 -74.5 44t-26.5 73q0 78 57 127t147 50h2q-20 22 -20 66q0 85 87 145.5t224 60.5q95 0 153 -36t58 -97
q0 -47 -31.5 -89.5t-84.5 -68.5l-12 -42h8q26 24 67 42.5t83 18.5q72 0 110 -44t38 -123q0 -142 -74 -245t-176 -103q-84 0 -128 42l-19 -97q-16 -88 -5 -125h-150zM704 84q58 0 99.5 68.5t41.5 163.5q0 91 -77 91q-29 0 -63.5 -18.5t-58.5 -43.5l-40 -207
q15 -23 41.5 -38.5t56.5 -15.5z" />
    <glyph glyph-name="s_t" horiz-adv-x="791" 
d="M168 -12q-45 0 -104 15.5t-72 16.5l65 118q16 -27 50.5 -44.5t75.5 -17.5q42 0 68.5 18.5t26.5 47.5q0 36 -63 56l-37 11q-48 14 -74.5 44t-26.5 73q0 78 57 127t147 50q12 0 18 -1q-21 29 -21 71q0 81 90 141.5t219 60.5q96 0 154 -36t58 -97q0 -45 -28 -85.5t-75 -65.5
h122l-18 -96q-32 8 -124 8l-46 -239q-9 -45 2 -66t47 -21q34 0 60 25l-1 -102q-8 -1 -28 -4.5t-39 -5.5t-37 -2q-152 0 -119 167l48 248h-70l15 76q89 10 144.5 48t55.5 92q0 40 -36.5 62t-101.5 22q-96 0 -156 -41t-60 -100q0 -54 30 -78q32 -11 51 -12l-65 -105
q-11 21 -38 34.5t-59 13.5q-39 0 -63.5 -17.5t-24.5 -47.5q0 -37 52 -54l43 -14q107 -34 107 -115q0 -78 -62 -128.5t-157 -50.5z" />
    <glyph glyph-name="a.sc" 
d="M-35 0q38 34 101 156l124 238q47 92 51 129h173q-10 -36 2 -128l31 -240q15 -119 40 -155h-156q21 41 10 114l-3 15h-179l-7 -15q-39 -77 -33 -114h-154zM198 211h133l-6 61q-13 125 -11 169h-8q-25 -67 -76 -168z" />
    <glyph glyph-name="aacute.sc" 
d="M319 584l-33 51q94 52 182 163l50 -68q-78 -95 -199 -146zM-35 0q38 34 101 156l124 238q47 92 51 129h173q-10 -36 2 -128l31 -240q15 -119 40 -155h-156q21 41 10 114l-3 15h-179l-7 -15q-39 -77 -33 -114h-154zM198 211h133l-6 61q-13 125 -11 169h-8
q-25 -67 -76 -168z" />
    <glyph glyph-name="abreve.sc" 
d="M342 582q-66 0 -94.5 45.5t-12.5 112.5h57q-7 -41 7.5 -67t51.5 -26q39 0 62.5 26t31.5 67h57q-22 -158 -160 -158zM-35 0q38 34 101 156l124 238q47 92 51 129h173q-10 -36 2 -128l31 -240q15 -119 40 -155h-156q21 41 10 114l-3 15h-179l-7 -15q-39 -77 -33 -114h-154z
M198 211h133l-6 61q-13 125 -11 169h-8q-25 -67 -76 -168z" />
    <glyph glyph-name="acircumflex.sc" 
d="M214 579l-34 38q81 56 139 137h100q28 -82 87 -137l-47 -38q-71 45 -99 109h-4q-54 -65 -142 -109zM-35 0q38 34 101 156l124 238q47 92 51 129h173q-10 -36 2 -128l31 -240q15 -119 40 -155h-156q21 41 10 114l-3 15h-179l-7 -15q-39 -77 -33 -114h-154zM198 211h133
l-6 61q-13 125 -11 169h-8q-25 -67 -76 -168z" />
    <glyph glyph-name="adieresis.sc" 
d="M242 600q-21 0 -33.5 12.5t-12.5 32.5q0 27 20.5 47.5t48.5 20.5q20 0 32.5 -12.5t12.5 -32.5q0 -27 -20 -47.5t-48 -20.5zM443 600q-21 0 -33.5 12.5t-12.5 32.5q0 26 20.5 47t47.5 21q21 0 33.5 -12.5t12.5 -32.5q0 -27 -20.5 -47.5t-47.5 -20.5zM-35 0q38 34 101 156
l124 238q47 92 51 129h173q-10 -36 2 -128l31 -240q15 -119 40 -155h-156q21 41 10 114l-3 15h-179l-7 -15q-39 -77 -33 -114h-154zM198 211h133l-6 61q-13 125 -11 169h-8q-25 -67 -76 -168z" />
    <glyph glyph-name="agrave.sc" 
d="M347 586q-45 21 -83 58.5t-60 85.5l69 63q31 -102 114 -165zM-35 0q38 34 101 156l124 238q47 92 51 129h173q-10 -36 2 -128l31 -240q15 -119 40 -155h-156q21 41 10 114l-3 15h-179l-7 -15q-39 -77 -33 -114h-154zM198 211h133l-6 61q-13 125 -11 169h-8
q-25 -67 -76 -168z" />
    <glyph glyph-name="amacron.sc" 
d="M212 614l12 66h266l-12 -66h-266zM-35 0q38 34 101 156l124 238q47 92 51 129h173q-10 -36 2 -128l31 -240q15 -119 40 -155h-156q21 41 10 114l-3 15h-179l-7 -15q-39 -77 -33 -114h-154zM198 211h133l-6 61q-13 125 -11 169h-8q-25 -67 -76 -168z" />
    <glyph glyph-name="aogonek.sc" 
d="M483 0q-45 -21 -73 -53t-28 -59t29 -27q20 0 37 19l16 -49q-34 -30 -82 -30q-33 0 -54.5 16.5t-21.5 46.5q0 39 31 76t81 60h-87q21 41 10 114l-3 15h-179l-7 -15q-39 -77 -33 -114h-154q38 34 101 156l124 238q47 92 51 129h173q-10 -36 2 -128l31 -240q15 -119 40 -155
h-4zM198 211h133l-6 61q-13 125 -11 169h-8q-25 -67 -76 -168z" />
    <glyph glyph-name="aring.sc" 
d="M335 566q-46 0 -71 22t-25 58q0 50 39 84.5t95 34.5q45 0 70.5 -22t25.5 -57q0 -50 -38.5 -85t-95.5 -35zM343 612q27 0 45 19.5t18 48.5q0 18 -11.5 28.5t-29.5 10.5q-27 0 -44.5 -19.5t-17.5 -48.5q0 -18 11 -28.5t29 -10.5zM-35 0q38 34 101 156l124 238q47 92 51 129
h173q-10 -36 2 -128l31 -240q15 -119 40 -155h-156q21 41 10 114l-3 15h-179l-7 -15q-39 -77 -33 -114h-154zM198 211h133l-6 61q-13 125 -11 169h-8q-25 -67 -76 -168z" />
    <glyph glyph-name="atilde.sc" 
d="M405 594q-31 0 -55.5 18t-41.5 35.5t-32 17.5q-20 0 -27 -14t-4 -47l-74 4q10 63 39.5 95.5t75.5 32.5q31 0 55.5 -18t42 -35.5t32.5 -17.5q37 0 31 61l74 -5q-10 -62 -40 -94.5t-76 -32.5zM-35 0q38 34 101 156l124 238q47 92 51 129h173q-10 -36 2 -128l31 -240
q15 -119 40 -155h-156q21 41 10 114l-3 15h-179l-7 -15q-39 -77 -33 -114h-154zM198 211h133l-6 61q-13 125 -11 169h-8q-25 -67 -76 -168z" />
    <glyph glyph-name="ae.sc" horiz-adv-x="743" 
d="M658 -7q-46 7 -141 7h-212q23 34 38 118l1 8h-158l-12 -20q-54 -67 -51 -106h-160q46 35 132 158l186 260q30 42 40.5 62.5t10.5 42.5h283q98 0 137 7l-21 -107q-32 12 -133 12h-79l-24 -124h71q78 0 112 12l-21 -107q-26 12 -107 12h-72l-27 -141h83q107 0 144 12z
M243 207h118l46 236h-7q-31 -56 -92 -140z" />
    <glyph glyph-name="b.sc" horiz-adv-x="515" 
d="M9 0q15 18 25 51t26 110l39 200q26 133 12 162h195q181 0 181 -116q0 -51 -31.5 -86.5t-79.5 -42.5l-1 -5q92 -19 92 -106q0 -167 -248 -167h-210zM201 312h58q60 0 89 18t29 60q0 26 -22.5 36.5t-70.5 10.5h-59zM157 86h66q70 0 102.5 18.5t32.5 59.5q0 66 -106 66h-68z
" />
    <glyph glyph-name="c.sc" horiz-adv-x="464" 
d="M238 -12q-203 0 -203 204q0 152 70.5 247.5t197.5 95.5q41 0 98 -17t58 -17l-49 -113q-11 22 -42 37.5t-66 15.5q-72 0 -111.5 -67.5t-39.5 -165.5q0 -126 99 -126q77 0 118 51l39 -106q-11 -2 -40.5 -12.5t-63 -18.5t-65.5 -8z" />
    <glyph glyph-name="cacute.sc" horiz-adv-x="464" 
d="M312 584l-33 51q94 52 182 163l50 -68q-78 -95 -199 -146zM238 -12q-203 0 -203 204q0 152 70.5 247.5t197.5 95.5q41 0 98 -17t58 -17l-49 -113q-11 22 -42 37.5t-66 15.5q-72 0 -111.5 -67.5t-39.5 -165.5q0 -126 99 -126q77 0 118 51l39 -106q-11 -2 -40.5 -12.5
t-63 -18.5t-65.5 -8z" />
    <glyph glyph-name="ccaron.sc" horiz-adv-x="464" 
d="M282 583q-27 85 -86 138l46 38q68 -44 98 -109h4q60 67 142 109l32 -38q-83 -59 -139 -138h-97zM238 -12q-203 0 -203 204q0 152 70.5 247.5t197.5 95.5q41 0 98 -17t58 -17l-49 -113q-11 22 -42 37.5t-66 15.5q-72 0 -111.5 -67.5t-39.5 -165.5q0 -126 99 -126
q77 0 118 51l39 -106q-11 -2 -40.5 -12.5t-63 -18.5t-65.5 -8z" />
    <glyph glyph-name="ccedilla.sc" horiz-adv-x="464" 
d="M302 441q-72 0 -111.5 -67.5t-39.5 -165.5q0 -126 99 -126q77 0 118 51l39 -106q-7 -1 -58 -17.5t-88 -20.5l-14 -42q77 -12 77 -66q0 -52 -52 -81.5t-143 -29.5l2 56q53 -7 84 5.5t31 40.5q0 34 -66 38l38 79q-183 10 -183 203q0 152 70.5 247.5t197.5 95.5q41 0 98 -17
t58 -17l-49 -113q-11 22 -42 37.5t-66 15.5z" />
    <glyph glyph-name="cdotaccent.sc" horiz-adv-x="464" 
d="M333 599q-52 0 -52 43q0 34 21 55t54 21q53 0 53 -44q0 -33 -21 -54t-55 -21zM238 -12q-203 0 -203 204q0 152 70.5 247.5t197.5 95.5q41 0 98 -17t58 -17l-49 -113q-11 22 -42 37.5t-66 15.5q-72 0 -111.5 -67.5t-39.5 -165.5q0 -126 99 -126q77 0 118 51l39 -106
q-11 -2 -40.5 -12.5t-63 -18.5t-65.5 -8z" />
    <glyph glyph-name="d.sc" horiz-adv-x="534" 
d="M9 0q15 19 25 52t24 109l40 200q25 132 13 162h157q238 0 238 -190q0 -167 -86 -250t-247 -83h-164zM156 93h37q198 0 198 226q0 63 -34 87t-98 24h-36z" />
    <glyph glyph-name="eth.sc" horiz-adv-x="536" 
d="M270 523q238 0 238 -190q0 -167 -86 -250t-247 -83h-164q15 19 25 52t24 109l14 70h-52l12 71h54l12 59q25 132 13 162h157zM195 93q198 0 198 226q0 63 -34 87t-98 24h-36l-25 -128h91l-12 -71h-94l-27 -138h37z" />
    <glyph glyph-name="dcaron.sc" horiz-adv-x="534" 
d="M255 583q-27 85 -86 138l46 38q68 -44 98 -109h4q60 67 142 109l32 -38q-83 -59 -139 -138h-97zM9 0q15 19 25 52t24 109l40 200q25 132 13 162h157q238 0 238 -190q0 -167 -86 -250t-247 -83h-164zM156 93h37q198 0 198 226q0 63 -34 87t-98 24h-36z" />
    <glyph glyph-name="dcroat.sc" horiz-adv-x="536" 
d="M270 523q238 0 238 -190q0 -167 -86 -250t-247 -83h-164q15 19 25 52t24 109l14 70h-52l12 71h54l12 59q25 132 13 162h157zM195 93q198 0 198 226q0 63 -34 87t-98 24h-36l-25 -128h91l-12 -71h-94l-27 -138h37z" />
    <glyph glyph-name="e.sc" horiz-adv-x="462" 
d="M377 -7q-45 7 -151 7h-217q15 19 24.5 49.5t23.5 104.5l41 207q25 132 13 162h206q115 0 154 7l-22 -116q-35 16 -150 16h-76l-23 -117h48q117 0 149 12l-23 -115q-31 17 -143 17h-48l-26 -134h86q123 0 155 13z" />
    <glyph glyph-name="eacute.sc" horiz-adv-x="462" 
d="M277 584l-33 51q94 52 182 163l50 -68q-78 -95 -199 -146zM377 -7q-45 7 -151 7h-217q15 19 24.5 49.5t23.5 104.5l41 207q25 132 13 162h206q115 0 154 7l-22 -116q-35 16 -150 16h-76l-23 -117h48q117 0 149 12l-23 -115q-31 17 -143 17h-48l-26 -134h86q123 0 155 13z
" />
    <glyph glyph-name="ecaron.sc" horiz-adv-x="462" 
d="M248 583q-27 85 -86 138l46 38q68 -44 98 -109h4q60 67 142 109l32 -38q-83 -59 -139 -138h-97zM377 -7q-45 7 -151 7h-217q15 19 24.5 49.5t23.5 104.5l41 207q25 132 13 162h206q115 0 154 7l-22 -116q-35 16 -150 16h-76l-23 -117h48q117 0 149 12l-23 -115
q-31 17 -143 17h-48l-26 -134h86q123 0 155 13z" />
    <glyph glyph-name="ecircumflex.sc" horiz-adv-x="462" 
d="M172 579l-34 38q81 56 139 137h100q28 -82 87 -137l-47 -38q-71 45 -99 109h-4q-54 -65 -142 -109zM377 -7q-45 7 -151 7h-217q15 19 24.5 49.5t23.5 104.5l41 207q25 132 13 162h206q115 0 154 7l-22 -116q-35 16 -150 16h-76l-23 -117h48q117 0 149 12l-23 -115
q-31 17 -143 17h-48l-26 -134h86q123 0 155 13z" />
    <glyph glyph-name="edieresis.sc" horiz-adv-x="462" 
d="M200 600q-21 0 -33.5 12.5t-12.5 32.5q0 27 20.5 47.5t48.5 20.5q20 0 32.5 -12.5t12.5 -32.5q0 -27 -20 -47.5t-48 -20.5zM401 600q-21 0 -33.5 12.5t-12.5 32.5q0 26 20.5 47t47.5 21q21 0 33.5 -12.5t12.5 -32.5q0 -27 -20.5 -47.5t-47.5 -20.5zM377 -7q-45 7 -151 7
h-217q15 19 24.5 49.5t23.5 104.5l41 207q25 132 13 162h206q115 0 154 7l-22 -116q-35 16 -150 16h-76l-23 -117h48q117 0 149 12l-23 -115q-31 17 -143 17h-48l-26 -134h86q123 0 155 13z" />
    <glyph glyph-name="edotaccent.sc" horiz-adv-x="462" 
d="M299 599q-52 0 -52 43q0 34 21 55t54 21q53 0 53 -44q0 -33 -21 -54t-55 -21zM377 -7q-45 7 -151 7h-217q15 19 24.5 49.5t23.5 104.5l41 207q25 132 13 162h206q115 0 154 7l-22 -116q-35 16 -150 16h-76l-23 -117h48q117 0 149 12l-23 -115q-31 17 -143 17h-48
l-26 -134h86q123 0 155 13z" />
    <glyph glyph-name="egrave.sc" horiz-adv-x="462" 
d="M305 586q-45 21 -83 58.5t-60 85.5l69 63q31 -102 114 -165zM377 -7q-45 7 -151 7h-217q15 19 24.5 49.5t23.5 104.5l41 207q25 132 13 162h206q115 0 154 7l-22 -116q-35 16 -150 16h-76l-23 -117h48q117 0 149 12l-23 -115q-31 17 -143 17h-48l-26 -134h86
q123 0 155 13z" />
    <glyph glyph-name="emacron.sc" horiz-adv-x="462" 
d="M170 614l12 66h266l-12 -66h-266zM377 -7q-45 7 -151 7h-217q15 19 24.5 49.5t23.5 104.5l41 207q25 132 13 162h206q115 0 154 7l-22 -116q-35 16 -150 16h-76l-23 -117h48q117 0 149 12l-23 -115q-31 17 -143 17h-48l-26 -134h86q123 0 155 13z" />
    </font>
</defs>
</svg>
