<?xml version="1.0" standalone="no"?>
<!DOCTYPE svg PUBLIC "-//W3C//DTD SVG 1.1//EN" "http://www.w3.org/Graphics/SVG/1.1/DTD/svg11.dtd" >
<svg xmlns="http://www.w3.org/2000/svg" xmlns:xlink="http://www.w3.org/1999/xlink" version="1.1">
<metadata>
Created by FontForge 20201107 at Wed Feb 19 16:34:50 2020
 By 
Copyright (c) 2020 by Rodrigo Lo'pez Fuentes. All rights reserved.
</metadata>
<defs>
<font id="Mondo-ExtraLight" horiz-adv-x="361" >
  <font-face 
    font-family="Mondo Extra Light"
    font-weight="400"
    font-stretch="normal"
    units-per-em="1000"
    panose-1="0 0 3 0 0 0 0 0 0 0"
    ascent="785"
    descent="-215"
    x-height="479"
    cap-height="659"
    bbox="-463 -306 1448 1008"
    underline-thickness="50"
    underline-position="-150"
    unicode-range="U+0020-FB02"
  />
<missing-glyph horiz-adv-x="461" 
d="M378 722v-922h-292v922h292zM307 660h-152v-30h60v-34h-61v-31h153v31h-61v34h61v30zM246 541h-92v-96h153v32h-61v64zM215 510v-33h-31v33h31zM307 421h-153v-31h61v-34h-61v-30h92v64h61v31zM307 365h-30v-61h-123v-31h153v92zM307 253h-92v-52h31v21h31v-43h-93v74
h-30v-104h153v104zM307 93h-153v-104h153v104zM277 63v-44h-93v44h93zM307 -32h-153v-31h65l-65 -43v-30h153v30h-94l65 43h29v31z" />
    <glyph glyph-name="fi" unicode="fi" horiz-adv-x="481" 
d="M336 0q13 25 13 103v273q0 53 -2 68h-209v-344q0 -77 11 -100h-60q10 24 10 100v344h-66v35h66v85q0 89 40.5 128.5t122.5 39.5q81 0 125 -20l-13 -50q-16 14 -47.5 24.5t-64.5 10.5q-66 0 -95 -31.5t-29 -101.5v-85h259q-9 -27 -9 -103v-273q0 -78 12 -103h-64z" />
    <glyph glyph-name="fl" unicode="fl" horiz-adv-x="491" 
d="M345 0q13 25 13 103v512q0 47 -2 61q-34 21 -96 21q-65 0 -93.5 -31.5t-28.5 -101.5v-85h112v-41q-21 6 -112 6v-344q0 -77 11 -100h-60q10 24 10 100v344h-66v35h66v85q0 88 39.5 128t121.5 40q53 0 101 -14h47q-11 -26 -11 -103v-512q0 -78 13 -103h-65z" />
    <glyph glyph-name="f_f" unicode="ff" horiz-adv-x="540" 
d="M492 697q-95 0 -95 -130v-88h112v-41q-21 6 -112 6v-344q0 -77 11 -100h-60q10 24 10 100v344h-220v-344q0 -77 11 -100h-60q10 24 10 100v344h-66v35h66v88q0 165 134 165q23 0 78 -10l-9 -47q-25 22 -69 22q-95 0 -95 -130v-88h220v88q0 165 134 165q23 0 78 -10
l-9 -47q-25 22 -69 22z" />
    <glyph glyph-name="f_f_i" unicode="ffi" horiz-adv-x="741" 
d="M595 0q13 25 13 103v273q0 53 -2 68h-208v-344q0 -77 11 -100h-60q10 24 10 100v344h-221v-344q0 -77 11 -100h-60q10 24 10 100v344h-66v35h66v88q0 165 134 165q23 0 78 -10l-9 -47q-25 22 -69 22q-95 0 -95 -130v-88h221v85q0 89 40 128.5t123 39.5q81 0 125 -20
l-13 -50q-16 14 -47.5 24.5t-64.5 10.5q-66 0 -95 -31.5t-29 -101.5v-85h259q-10 -26 -10 -103v-273q0 -78 13 -103h-65z" />
    <glyph glyph-name="f_f_l" unicode="ffl" horiz-adv-x="749" 
d="M604 0q12 25 12 103v512q0 47 -2 61q-34 21 -96 21q-65 0 -93.5 -31.5t-28.5 -101.5v-85h113v-41q-22 6 -113 6v-344q0 -77 11 -100h-60q10 24 10 100v344h-219v-344q0 -77 11 -100h-60q10 24 10 100v344h-66v35h66v88q0 165 134 165q23 0 78 -10l-9 -47q-25 22 -69 22
q-95 0 -95 -130v-88h219v85q0 88 39.5 128t121.5 40q53 0 101 -14h47q-11 -26 -11 -103v-512q0 -78 13 -103h-64z" />
    <glyph glyph-name=".notdef" horiz-adv-x="461" 
d="M378 722v-922h-292v922h292zM307 660h-152v-30h60v-34h-61v-31h153v31h-61v34h61v30zM246 541h-92v-96h153v32h-61v64zM215 510v-33h-31v33h31zM307 421h-153v-31h61v-34h-61v-30h92v64h61v31zM307 365h-30v-61h-123v-31h153v92zM307 253h-92v-52h31v21h31v-43h-93v74
h-30v-104h153v104zM307 93h-153v-104h153v104zM277 63v-44h-93v44h93zM307 -32h-153v-31h65l-65 -43v-30h153v30h-94l65 43h29v31z" />
    <glyph glyph-name=".null" horiz-adv-x="0" 
 />
    <glyph glyph-name="nonmarkingreturn" horiz-adv-x="333" 
 />
    <glyph glyph-name="space" unicode=" " horiz-adv-x="200" 
 />
    <glyph glyph-name="exclam" unicode="!" horiz-adv-x="250" 
d="M88 670h74q-11 -19 -14.5 -46t-3.5 -92v-352h-38v352q0 65 -3.5 92t-14.5 46zM125 -12q-18 0 -30.5 11.5t-12.5 31.5t12.5 32t30.5 12t30.5 -12t12.5 -32t-12.5 -31.5t-30.5 -11.5z" />
    <glyph glyph-name="quotedbl" unicode="&#x22;" horiz-adv-x="291" 
d="M66 624l-3 68h47l-3 -68l-12 -167h-17zM184 624l-3 68h47l-3 -68l-12 -167h-18z" />
    <glyph glyph-name="numbersign" unicode="#" horiz-adv-x="481" 
d="M117 219h-87v32h92l21 170h-93v32h97l25 195h33l-26 -195h156l25 195h33l-26 -195h85v-32h-89l-21 -170h90v-32h-94l-27 -219h-32l26 219h-155l-27 -219h-32zM310 251l21 170h-155l-21 -170h155z" />
    <glyph glyph-name="dollar" unicode="$" horiz-adv-x="491" 
d="M429 145q0 -67 -44 -109t-118 -47q0 -64 10 -87l-57 1q11 22 11 85q-95 5 -181 56l25 59q43 -73 156 -78v254l-5 2q-71 24 -107.5 59.5t-36.5 98.5q0 60 41 100t108 44q0 67 -11 89h57q-10 -24 -10 -90q67 -4 137 -45l-23 -52q-38 56 -114 60v-235l22 -7
q69 -23 104.5 -59t35.5 -99zM123 441q0 -47 25.5 -72.5t82.5 -46.5v223q-50 -4 -79 -32.5t-29 -71.5zM267 26q57 5 89 36.5t32 79.5q0 51 -26.5 76.5t-84.5 45.5l-10 3v-241z" />
    <glyph glyph-name="percent" unicode="%" horiz-adv-x="796" 
d="M561 668h36l-360 -680h-36zM181 257q-65 0 -102.5 50.5t-37.5 147.5q0 96 37.5 146t102.5 50t102.5 -50.5t37.5 -145.5q0 -97 -37.5 -147.5t-102.5 -50.5zM181 288q47 0 75 43t28 124t-28 123t-75 42t-75.5 -42t-28.5 -123t28.5 -124t75.5 -43zM607 -12
q-65 0 -102.5 50.5t-37.5 147.5q0 95 37.5 145.5t102.5 50.5t102.5 -50.5t37.5 -145.5q0 -97 -37.5 -147.5t-102.5 -50.5zM607 19q47 0 75.5 43t28.5 124t-28.5 123t-75.5 42t-75 -42t-28 -123t28 -124t75 -43z" />
    <glyph glyph-name="ampersand" unicode="&#x26;" horiz-adv-x="653" 
d="M492 109q61 -64 117 -109h-84q-17 36 -61 83l-7 8q-87 -106 -205 -106q-78 0 -132 50.5t-54 123.5q0 67 43 112.5t124 82.5q-58 89 -58 161q0 69 48 114t111 45q65 0 107.5 -41t42.5 -107q0 -60 -44.5 -102.5t-141.5 -80.5q-1 -1 -4 -2t-5 -2q45 -62 134 -156l31 -34
q43 61 33 99h60q-31 -75 -67 -126zM215 515q0 -64 53 -146l14 6q94 37 128 69.5t34 81.5t-31 79.5t-79 30.5t-83.5 -34t-35.5 -87zM252 23q100 0 179 96l-44 47q-87 93 -134 158q-75 -33 -111 -70.5t-36 -94.5q0 -58 42 -97t104 -39z" />
    <glyph glyph-name="quotesingle" unicode="'" horiz-adv-x="167" 
d="M63 630l-3 62h47l-3 -62l-13 -173h-16z" />
    <glyph glyph-name="parenleft" unicode="(" horiz-adv-x="303" 
d="M247 -155q-167 177 -167 433t167 433l21 -49q-60 -23 -102.5 -129.5t-42.5 -254.5t42.5 -254.5t102.5 -129.5z" />
    <glyph glyph-name="parenright" unicode=")" horiz-adv-x="303" 
d="M53 -155l-20 49q60 23 102 129.5t42 254.5t-42 254.5t-102 129.5l20 49q167 -175 167 -433t-167 -433z" />
    <glyph glyph-name="asterisk" unicode="*" horiz-adv-x="418" 
d="M121 490l55 89l-94 38l8 24l99 -26l7 105h25l8 -104l99 25l8 -24l-94 -38l55 -89l-21 -15l-67 81l-67 -82z" />
    <glyph glyph-name="plus" unicode="+" horiz-adv-x="450" 
d="M317 269q70 0 93 11l-1 -61q-24 10 -92 10h-71v-90q0 -68 10 -92h-62q11 23 11 92v90h-72q-68 0 -92 -10l-1 61q23 -11 93 -11h72v90q0 69 -11 92h62q-10 -24 -10 -92v-90h71z" />
    <glyph glyph-name="comma" unicode="," horiz-adv-x="215" 
d="M48 -125q75 41 75 121q-4 -1 -12 -1q-17 0 -28.5 10.5t-11.5 29.5q0 18 12 28.5t29 10.5q22 0 35 -18.5t13 -49.5q0 -99 -99 -155z" />
    <glyph glyph-name="hyphen" unicode="-" horiz-adv-x="310" 
d="M40 273h230v-37h-230v37z" />
    <glyph glyph-name="hyphen" unicode="&#x2011;" horiz-adv-x="310" 
d="M40 273h230v-37h-230v37z" />
    <glyph glyph-name="hyphen" unicode="&#x2010;" horiz-adv-x="310" 
d="M40 273h230v-37h-230v37z" />
    <glyph glyph-name="period" unicode="." horiz-adv-x="217" 
d="M108 -12q-19 0 -32 11.5t-13 30.5q0 20 13 32t32 12t31.5 -12t12.5 -32q0 -19 -12.5 -30.5t-31.5 -11.5z" />
    <glyph glyph-name="slash" unicode="/" horiz-adv-x="378" 
d="M305 710h59l-265 -741q-35 -97 -26 -129h-59l264 738q36 102 27 132z" />
    <glyph glyph-name="zero" unicode="0" horiz-adv-x="490" 
d="M245 -12q-95 0 -150.5 87t-55.5 255q0 169 54.5 254.5t151.5 85.5q95 0 150.5 -86t55.5 -254q0 -169 -55 -255.5t-151 -86.5zM245 25q73 0 117.5 76t44.5 229q0 152 -44.5 228t-117.5 76q-74 0 -118 -75.5t-44 -228.5t44 -229t118 -76z" />
    <glyph glyph-name="one" unicode="1" horiz-adv-x="477" 
d="M85 31l149 11v556h-129v28q107 2 170 40v-624l140 -11v-31h-330v31z" />
    <glyph glyph-name="two" unicode="2" horiz-adv-x="476" 
d="M309 37q95 0 122 19v-56h-389v28q163 152 241.5 265t78.5 199q0 63 -37.5 103t-106.5 40q-49 0 -89 -23t-60 -56l-28 50q11 4 42 22.5t65 30.5t72 12q84 0 133.5 -49t49.5 -130q0 -95 -74 -204t-222 -251h202z" />
    <glyph glyph-name="three" unicode="3" horiz-adv-x="475" 
d="M228 -12q-45 0 -84 12.5t-67 25t-43 13.5l27 62q18 -32 62 -54.5t104 -22.5q70 0 113 40.5t43 107.5q0 72 -55 113.5t-169 41.5v38q104 0 152.5 40t48.5 105q0 56 -35 90t-93 34q-45 0 -89.5 -23t-62.5 -50l-24 55q7 1 68.5 27.5t107.5 26.5q73 0 121 -43t48 -116
q0 -62 -33.5 -103t-89.5 -59v-4q63 -12 105 -57.5t42 -114.5q0 -84 -55.5 -134.5t-141.5 -50.5z" />
    <glyph glyph-name="four" unicode="4" horiz-adv-x="483" 
d="M454 233v-50h-96q0 -103 3 -134.5t13 -48.5h-72q11 17 14 48.5t3 134.5h-295v24l297 452h37v-440q76 0 96 14zM74 219h245l1 382z" />
    <glyph glyph-name="five" unicode="5" horiz-adv-x="476" 
d="M228 -12q-45 0 -84.5 12.5t-69 27.5t-41.5 17l26 55q21 -32 64.5 -54.5t104.5 -22.5q67 0 113.5 48t46.5 126q0 76 -43 122t-114 46q-60 0 -122 -37l-30 16l27 315h190q70 0 102 16v-51h-256l-24 -250q53 29 115 29q86 0 140.5 -52.5t54.5 -153.5q0 -97 -59.5 -153
t-140.5 -56z" />
    <glyph glyph-name="six" unicode="6" horiz-adv-x="474" 
d="M254 -12q-97 0 -149 77.5t-52 225.5q0 83 12.5 149.5t33 108.5t49 70.5t58.5 40t63 11.5q38 0 83 -13.5t54 -13.5l-14 -56q-43 47 -123 47q-74 0 -124.5 -80.5t-51.5 -257.5q65 90 160 90q87 0 133.5 -51.5t46.5 -147.5q0 -87 -50 -143.5t-129 -56.5zM249 351
q-87 0 -155 -101q13 -226 162 -226q60 0 98.5 47t38.5 117q0 75 -35.5 119t-108.5 44z" />
    <glyph glyph-name="seven" unicode="7" horiz-adv-x="463" 
d="M182 0q1 354 195 624h-222q-94 0 -118 -15v57q22 -7 118 -7h274v-26q-203 -261 -203 -563q0 -42 7 -70h-51z" />
    <glyph glyph-name="eight" unicode="8" horiz-adv-x="475" 
d="M237 -12q-86 0 -141.5 48.5t-55.5 122.5q0 67 43.5 117t97.5 72v3q-104 62 -104 160q0 70 48 114.5t120 44.5q76 0 122.5 -43t46.5 -115q0 -58 -34.5 -104.5t-78.5 -66.5v-3q65 -35 99 -75.5t34 -102.5q0 -73 -55 -122.5t-142 -49.5zM266 352q109 58 109 160
q0 55 -35 88.5t-95 33.5q-57 0 -92.5 -34.5t-35.5 -88.5q0 -27 10.5 -50.5t23.5 -38.5t37 -30t38.5 -22t39.5 -18zM237 24q69 0 113 39t44 97q0 24 -6.5 45t-23 38t-29 28.5t-40 25t-40.5 19t-44 18.5q-131 -60 -131 -175q0 -58 44.5 -96.5t112.5 -38.5z" />
    <glyph glyph-name="nine" unicode="9" horiz-adv-x="474" 
d="M220 671q98 0 149.5 -79t51.5 -231q0 -100 -18.5 -174.5t-50.5 -116.5t-68.5 -62t-78.5 -20q-37 0 -82 14t-55 14l14 58q45 -49 123 -49q73 0 124 79.5t52 249.5q-65 -93 -159 -93q-87 0 -134 53t-47 152q0 89 50 147t129 58zM225 298q87 0 155 103q-13 233 -162 233
q-60 0 -98.5 -48t-38.5 -120q0 -77 35 -122.5t109 -45.5z" />
    <glyph glyph-name="colon" unicode=":" horiz-adv-x="249" 
d="M108 348q-19 0 -32 11.5t-13 30.5q0 20 13 32t32 12t31.5 -12t12.5 -32q0 -19 -12.5 -30.5t-31.5 -11.5zM108 -12q-19 0 -32 11.5t-13 30.5q0 20 13 32t32 12t31.5 -12t12.5 -32q0 -19 -12.5 -30.5t-31.5 -11.5z" />
    <glyph glyph-name="semicolon" unicode=";" horiz-adv-x="249" 
d="M111 330q-19 0 -32 11.5t-13 30.5q0 20 13 32t32 12t31.5 -12t12.5 -32q0 -19 -12.5 -30.5t-31.5 -11.5zM48 -125q75 41 75 121q-4 -1 -12 -1q-17 0 -28.5 10.5t-11.5 29.5q0 18 12 28.5t29 10.5q22 0 35 -18.5t13 -49.5q0 -99 -99 -155z" />
    <glyph glyph-name="less" unicode="&#x3c;" horiz-adv-x="422" 
d="M291 157q62 -29 88 -30l-25 -54q-15 17 -81 48l-225 106v44l226 105q62 28 80 49l25 -55q-28 -1 -88 -30l-197 -91z" />
    <glyph glyph-name="equal" unicode="=" horiz-adv-x="426" 
d="M40 343q26 -11 93 -11h161q66 0 92 11v-60q-25 10 -92 10h-161q-68 0 -92 -10zM40 216q24 -10 93 -10h161q68 0 92 10v-60q-25 10 -92 10h-161q-68 0 -92 -10z" />
    <glyph glyph-name="greater" unicode="&#x3e;" horiz-adv-x="422" 
d="M152 376l226 -105v-44l-225 -106q-64 -30 -81 -48l-24 54q25 1 88 30l196 92l-196 91q-61 29 -88 30l24 55q18 -21 80 -49z" />
    <glyph glyph-name="question" unicode="?" horiz-adv-x="406" 
d="M152 187q0 55 16.5 95.5t40.5 65t48 46t40.5 51.5t16.5 69q0 57 -34 90.5t-89 33.5q-41 0 -79 -19t-53 -48l-31 55q15 1 68 24t95 23q73 0 118 -42.5t45 -116.5q0 -45 -16.5 -78.5t-40.5 -56t-48 -45.5t-40.5 -60t-16.5 -87h-40zM177 -12q-18 0 -29.5 11t-11.5 29
q0 19 11.5 30.5t29.5 11.5q19 0 30 -11.5t11 -30.5q0 -18 -11 -29t-30 -11z" />
    <glyph glyph-name="at" unicode="@" horiz-adv-x="774" 
d="M387 578q128 0 214 -89t86 -218q0 -96 -34 -146t-90 -50q-44 0 -67.5 26.5t-23.5 66.5q-10 -23 -37.5 -41.5t-67.5 -18.5q-60 0 -96 41t-36 115t36 115t96 41q39 0 66.5 -18t36.5 -39l4 47h32v-222q0 -80 57 -80q88 0 88 162q0 116 -75 194.5t-189 78.5
q-115 0 -190 -78.5t-75 -194.5q0 -122 72 -198.5t182 -76.5q62 0 99 29v-56q-56 -8 -99 -8q-124 0 -207 87t-83 223q0 130 86.5 219t214.5 89zM470 246v36q-1 48 -32 76.5t-71 28.5q-43 0 -69.5 -31t-26.5 -92t26.5 -92t69.5 -31q40 0 71 28.5t32 76.5z" />
    <glyph glyph-name="A" unicode="A" horiz-adv-x="560" 
d="M248 659h62q-1 -23 22 -88l161 -458q29 -84 52 -113h-73q9 26 -19 107l-38 111h-272l-39 -111q-27 -79 -17 -107h-73q21 26 52 113l161 458q23 67 21 88zM155 253l248 1l-123 360h-3z" />
    <glyph glyph-name="B" unicode="B" horiz-adv-x="560" 
d="M360 355q76 -15 116 -59t40 -111q0 -93 -64 -139t-180 -46h-187q15 24 15 103v453q0 79 -15 103h173q213 0 213 -159q0 -110 -111 -145zM141 624v-255h117q83 0 127.5 34t44.5 97q0 124 -172 124h-117zM272 36q203 0 203 148q0 73 -56.5 111.5t-160.5 38.5h-117v-298h131
z" />
    <glyph glyph-name="C" unicode="C" horiz-adv-x="557" 
d="M321 -12q-124 0 -195 84t-71 259t70.5 257.5t193.5 82.5q95 0 185 -53l-25 -54q-19 29 -63 49.5t-96 20.5q-222 0 -222 -302q0 -158 59 -232.5t165 -74.5q60 0 106.5 18.5t68.5 46.5l21 -55q-111 -47 -197 -47z" />
    <glyph glyph-name="D" unicode="D" horiz-adv-x="604" 
d="M85 659h150q165 0 239.5 -78t74.5 -249q0 -172 -75 -252t-239 -80h-150q15 24 15 103v453q0 49 -2.5 68.5t-12.5 34.5zM230 36q147 0 211.5 71t64.5 225q0 153 -64 222.5t-212 69.5h-89v-588h89z" />
    <glyph glyph-name="E" unicode="E" horiz-adv-x="505" 
d="M85 659h179q146 0 179 6v-54q-27 13 -179 13h-125v-256h107q125 0 153 12v-59q-28 12 -153 12h-107v-297h134q160 0 185 12v-53q-37 5 -185 5h-188q15 26 15 103v453q0 77 -15 103z" />
    <glyph glyph-name="F" unicode="F" horiz-adv-x="467" 
d="M85 659h197q131 0 164 6v-54q-29 13 -164 13h-143v-282h96q131 0 157 10v-56q-26 10 -157 10h-96v-203q0 -79 15 -103h-69q15 26 15 103v453q0 77 -15 103z" />
    <glyph glyph-name="G" unicode="G" horiz-adv-x="600" 
d="M326 -12q-128 0 -199.5 79.5t-71.5 263.5q0 340 270 340q111 0 186 -61l-29 -48q-44 72 -157 72q-109 0 -168 -68t-59 -234q0 -168 58.5 -237t169.5 -69q107 0 158 51v206h-50q-80 0 -110 -10v52q35 -5 110 -5h99q-9 -26 -9 -114v-38q0 -77 5 -110q-88 -70 -203 -70z" />
    <glyph glyph-name="H" unicode="H" horiz-adv-x="636" 
d="M85 659h71q-15 -27 -15 -103v-187h354v187q0 78 -16 103h72q-15 -27 -15 -103v-453q0 -75 15 -103h-72q16 25 16 103v230h-354v-230q0 -75 15 -103h-71q16 27 16 103v453q0 76 -16 103z" />
    <glyph glyph-name="I" unicode="I" horiz-adv-x="255" 
d="M148 103q0 -75 15 -103h-71q15 25 15 103v453q0 78 -15 103h71q-15 -27 -15 -103v-453z" />
    <glyph glyph-name="J" unicode="J" horiz-adv-x="415" 
d="M173 -12q-74 0 -135 63l32 48q9 -34 37 -54t66 -20q58 0 86 39.5t28 125.5v366q0 78 -16 103h72q-15 -25 -15 -103v-366q0 -202 -155 -202z" />
    <glyph glyph-name="K" unicode="K" horiz-adv-x="570" 
d="M85 659h71q-15 -27 -15 -103v-272h3l262 304q38 44 46 71h81q-6 -4 -11.5 -8t-11 -8.5t-9.5 -7.5t-10 -9l-8.5 -8.5t-9.5 -10.5t-9.5 -10.5t-11 -12.5t-11.5 -13l-140 -162l178 -297q39 -65 82 -112h-79q0 25 -39 92l-171 285l-131 -152v-122q0 -75 15 -103h-71
q16 27 16 103v453q0 76 -16 103z" />
    <glyph glyph-name="L" unicode="L" horiz-adv-x="455" 
d="M85 659h71q-15 -27 -15 -103v-521h130q130 0 160 15v-55q-40 5 -160 5h-186q16 27 16 103v453q0 76 -16 103z" />
    <glyph glyph-name="M" unicode="M" horiz-adv-x="714" 
d="M614 556v-453q0 -78 15 -103h-71q16 25 16 103v342q0 87 5 174h-2l-163 -432q-30 -80 -29 -107h-57q1 27 -29 107l-163 432h-2q5 -87 5 -174v-342q0 -78 15 -103h-69q15 25 15 103v453q0 77 -15 103h76l196 -525l196 525h76q-15 -26 -15 -103z" />
    <glyph glyph-name="N" unicode="N" horiz-adv-x="639" 
d="M85 659h62l354 -590h4q-6 50 -6 136v351q0 76 -15 103h70q-15 -25 -15 -103v-449q0 -78 8 -107h-49l-361 600h-3q6 -46 6 -133v-364q0 -78 15 -103h-70q15 28 15 103v453q0 77 -15 103z" />
    <glyph glyph-name="O" unicode="O" horiz-adv-x="649" 
d="M324 -12q-118 0 -193.5 87t-75.5 257q0 174 74.5 256.5t194.5 82.5q121 0 195.5 -82.5t74.5 -256.5q0 -170 -75.5 -257t-194.5 -87zM324 26q100 0 163.5 77.5t63.5 228.5q0 155 -62.5 228.5t-164.5 73.5t-164 -73.5t-62 -228.5q0 -151 63 -228.5t163 -77.5z" />
    <glyph glyph-name="P" unicode="P" horiz-adv-x="540" 
d="M85 659h174q118 0 177.5 -46t59.5 -157q0 -211 -233 -211h-122v-142q0 -75 15 -103h-70q15 28 15 103v453q0 76 -16 103zM248 280q107 0 156.5 40t49.5 136t-50 132.5t-159 36.5h-104v-345h107z" />
    <glyph glyph-name="Q" unicode="Q" horiz-adv-x="649" 
d="M586 -98l10 -52q-7 0 -36.5 -4t-47.5 -4q-79 0 -132.5 39.5t-70.5 106.5q-113 6 -183.5 93t-70.5 251q0 174 74.5 256.5t194.5 82.5q121 0 195.5 -82.5t74.5 -256.5q0 -162 -68.5 -248.5t-179.5 -94.5q15 -53 60 -81.5t106 -28.5q46 0 74 23zM98 332q0 -151 63 -228.5
t163 -77.5t163.5 77.5t63.5 228.5q0 155 -62.5 228.5t-164.5 73.5t-164 -73.5t-62 -228.5z" />
    <glyph glyph-name="R" unicode="R" horiz-adv-x="554" 
d="M85 663h183q117 0 175.5 -43t58.5 -144q0 -162 -159 -190l103 -180q38 -66 76 -106h-77q1 16 -6 33.5t-31 57.5l-109 190h-158v-178q0 -75 15 -103h-70q15 28 15 103v457q0 76 -16 103zM266 316q193 0 193 160q0 84 -48 117.5t-153 33.5h-117v-311h125z" />
    <glyph glyph-name="S" unicode="S" horiz-adv-x="533" 
d="M272 -12q-122 0 -222 64l27 65q56 -92 195 -92q75 0 119 38.5t44 102.5q0 59 -29.5 89.5t-89.5 51.5l-97 34q-136 48 -136 170q0 71 52.5 115.5t131.5 44.5q93 0 183 -52l-26 -55q-48 70 -157 70q-63 0 -103 -33.5t-40 -87.5q0 -96 113 -134l96 -34q69 -25 106.5 -65
t37.5 -112q0 -79 -56.5 -129.5t-148.5 -50.5z" />
    <glyph glyph-name="T" unicode="T" horiz-adv-x="500" 
d="M230 624h-99q-74 0 -103 -15v56q34 -6 103 -6h238q69 0 103 6v-56q-29 15 -103 15h-98v-521q0 -75 15 -103h-71q15 30 15 103v521z" />
    <glyph glyph-name="U" unicode="U" horiz-adv-x="627" 
d="M313 -12q-45 0 -82 12.5t-69 41t-50 81.5t-18 127v310q0 76 -16 103h71q-15 -27 -15 -103v-304q0 -123 49.5 -177t129.5 -54q81 0 131.5 53.5t50.5 177.5v304q0 78 -15 103h69q-15 -25 -15 -103v-310q0 -141 -62.5 -201.5t-158.5 -60.5z" />
    <glyph glyph-name="V" unicode="V" horiz-adv-x="529" 
d="M303 0h-75q4 29 -26 125l-137 415q-30 91 -50 119h68q-4 -33 21 -108l96 -298q5 -17 27.5 -89.5t37.5 -114.5h4q6 17 65 204l94 298q25 78 21 108h65q-19 -28 -49 -119l-135 -415q-30 -91 -27 -125z" />
    <glyph glyph-name="W" unicode="W" horiz-adv-x="769" 
d="M684 659h65q-17 -26 -33 -100l-98 -430q-22 -100 -18 -129h-65q3 29 -23 129l-127 485l-126 -485q-26 -102 -23 -129h-65q3 31 -19 129l-99 430q-16 72 -34 100h68q-8 -26 7 -94l112 -514l133 513q12 49 14.5 64t-0.5 31h65q-5 -24 14 -94l135 -515l112 515q14 65 5 94z
" />
    <glyph glyph-name="X" unicode="X" horiz-adv-x="480" 
d="M398 110q49 -82 75 -110h-70q-1 30 -40 96l-126 220l-122 -220q-39 -67 -39 -96h-69q30 30 77 111l133 232l-131 226q-37 64 -64 90h70q0 -23 30 -77l122 -216l119 216q29 53 28 77h68q-29 -30 -63 -90l-133 -231z" />
    <glyph glyph-name="Y" unicode="Y" horiz-adv-x="476" 
d="M402 551l-143 -282v-166q0 -75 15 -103h-71q15 28 15 103v166l-144 284q-41 81 -64 106h68q-2 -25 29 -88l132 -268l132 268q32 65 29 88h66q-21 -22 -64 -108z" />
    <glyph glyph-name="Z" unicode="Z" horiz-adv-x="539" 
d="M312 36q95 0 128.5 3t49.5 13v-58q-32 6 -178 6h-261l-4 39q21 11 68 85l320 500h-214q-110 0 -137 -17v58q32 -6 137 -6h265l3 -38q-19 -10 -57 -70l-330 -515h210z" />
    <glyph glyph-name="bracketleft" unicode="[" horiz-adv-x="270" 
d="M82 696q123 0 155 12v-38h-114v-792h114v-38q-32 12 -155 12v844z" />
    <glyph glyph-name="backslash" unicode="\" horiz-adv-x="378" 
d="M73 710q-10 -30 27 -132l264 -738h-59q9 33 -26 129l-265 741h59z" />
    <glyph glyph-name="bracketright" unicode="]" horiz-adv-x="270" 
d="M188 696v-844q-123 0 -155 -12v38h114v792h-114v38q32 -12 155 -12z" />
    <glyph glyph-name="asciicircum" unicode="^" horiz-adv-x="362" 
d="M325 350l-55 -20q-1 26 -28 87l-61 143l-61 -143q-28 -66 -27 -87l-55 20q15 14 46 83l73 171h48l74 -172q26 -64 46 -82z" />
    <glyph glyph-name="underscore" unicode="_" horiz-adv-x="500" 
d="M12 -71h476v-33h-476v33z" />
    <glyph glyph-name="grave" unicode="`" horiz-adv-x="542" 
d="M320 599l-13 -22q-99 57 -155 139l30 31q59 -95 138 -148z" />
    <glyph glyph-name="a" unicode="a" horiz-adv-x="487" 
d="M208 -12q-67 0 -108 35t-41 101q0 143 228 143h81v44q0 145 -128 145q-43 0 -81 -18.5t-55 -43.5l-24 48q1 0 59.5 24.5t102.5 24.5q165 0 165 -180v-191q0 -91 15 -120h-54l1 82h-3q-24 -41 -67 -67.5t-91 -26.5zM209 22q45 0 86.5 28t72.5 82v100h-81q-187 0 -187 -108
q0 -49 30 -75.5t79 -26.5z" />
    <glyph glyph-name="b" unicode="b" horiz-adv-x="544" 
d="M287 -12q-94 0 -153 66h-3l1 -54h-50q12 28 12 103v514q0 77 -13 103h64q-12 -26 -12 -103v-197q58 71 155 71t148.5 -65t51.5 -185q0 -122 -52.5 -187.5t-148.5 -65.5zM286 24q77 0 119 58t42 159q0 99 -41.5 157t-119.5 58q-92 0 -153 -84v-265q59 -83 153 -83z" />
    <glyph glyph-name="c" unicode="c" horiz-adv-x="455" 
d="M258 -12q-206 0 -206 251q0 133 56 192.5t150 59.5q23 0 47 -5.5t34.5 -9t34.5 -14.5l25 -12l-24 -50q-40 56 -117 56q-76 0 -120 -52.5t-44 -164.5q0 -114 42 -164.5t122 -50.5q90 0 132 56l23 -50q-4 -2 -21 -9t-29.5 -11.5t-30.5 -10t-37 -8.5t-37 -3z" />
    <glyph glyph-name="d" unicode="d" horiz-adv-x="545" 
d="M259 -12q-96 0 -149 65t-53 187q0 121 53.5 186t149.5 65q93 0 153 -68v194q0 77 -11 103h59q-9 -27 -9 -103v-514q0 -77 10 -103h-49l1 56h-3q-58 -68 -152 -68zM261 24q91 0 152 85v264q-62 83 -152 83q-77 0 -119.5 -58t-42.5 -158q0 -101 42 -158.5t120 -57.5z" />
    <glyph glyph-name="e" unicode="e" horiz-adv-x="503" 
d="M266 -12q-104 0 -159 59t-55 192q0 132 56 192t149 60q86 0 135.5 -57.5t49.5 -161.5q0 -20 -2 -36h-346q1 -112 43.5 -162t130.5 -50q97 0 146 55l17 -50q-92 -41 -165 -41zM401 271q0 88 -38 136.5t-106 48.5q-75 0 -117 -47t-46 -138h307z" />
    <glyph glyph-name="f" unicode="f" horiz-adv-x="281" 
d="M99 444h-66v35h66v88q0 165 134 165q23 0 78 -10l-9 -47q-25 22 -69 22q-95 0 -95 -130v-88h112v-41q-21 6 -112 6v-344q0 -77 11 -100h-60q10 24 10 100v344z" />
    <glyph glyph-name="g" unicode="g" horiz-adv-x="482" 
d="M253 55q109 0 157.5 -31t48.5 -94q0 -130 -213 -130q-92 0 -143 32.5t-51 95.5q0 38 23.5 68.5t62.5 48.5q-26 23 -26 62q0 40 35 69q-78 45 -78 147q0 81 46.5 124.5t120.5 43.5q37 0 63 -12h67q56 0 90 6v-53q-28 15 -106 15v-3q53 -46 53 -122q0 -78 -47 -123
t-120 -45q-30 0 -59 9q-28 -22 -28 -54q0 -30 21.5 -42t82.5 -12zM109 323q0 -68 36 -101.5t91 -33.5t91 33.5t36 101.5q0 60 -37 97t-90 37q-55 0 -91 -33t-36 -101zM247 -165q171 0 171 95q0 44 -37.5 66t-127.5 22q-53 0 -85 11q-77 -38 -77 -101q0 -93 156 -93z" />
    <glyph glyph-name="h" unicode="h" horiz-adv-x="526" 
d="M81 720h64q-12 -25 -12 -103v-174q0 -29 -3 -40h3q30 39 73 63.5t90 24.5q148 0 148 -188v-200q0 -78 13 -103h-65q13 25 13 103v200q0 81 -27.5 117t-83.5 36q-91 0 -161 -99v-254q0 -78 12 -103h-64q13 25 13 103v514q0 78 -13 103z" />
    <glyph glyph-name="i" unicode="i" horiz-adv-x="230" 
d="M115 591q-34 0 -34 37q0 36 34 36t34 -36q0 -37 -34 -37zM82 0q12 25 12 103v273q0 78 -12 103h61q-10 -26 -10 -103v-273q0 -78 13 -103h-64z" />
    <glyph glyph-name="j" unicode="j" horiz-adv-x="228" 
d="M114 591q-34 0 -34 37q0 36 34 36t34 -36q0 -37 -34 -37zM25 -200q-14 0 -38 4t-30 4l12 51q19 -23 56 -23t53 27.5t16 90.5v422q0 77 -13 103h65q-13 -26 -13 -103v-422q0 -85 -27 -119.5t-81 -34.5z" />
    <glyph glyph-name="k" unicode="k" horiz-adv-x="459" 
d="M81 720h63q-12 -25 -12 -103v-400q0 -24 -1 -34h3l184 225q37 47 41 71h75q-34 -25 -89 -91l-81 -99l123 -192q40 -63 75 -97h-73q-4 31 -37 84l-111 175l-109 -128v-28q0 -78 13 -103h-64q13 25 13 103v514q0 78 -13 103z" />
    <glyph glyph-name="l" unicode="l" horiz-adv-x="226" 
d="M81 0q13 25 13 103v514q0 78 -13 103h62q-10 -26 -10 -103v-514q0 -78 12 -103h-64z" />
    <glyph glyph-name="m" unicode="m" horiz-adv-x="807" 
d="M81 479h51l-1 -75h3q24 35 64.5 61t85.5 26q108 0 134 -98q73 98 161 98q145 0 145 -176v-212q0 -75 13 -103h-65q13 28 13 103v212q0 141 -108 141q-77 0 -149 -94v-259q0 -75 13 -103h-64q12 29 12 103v212q0 141 -108 141q-78 0 -148 -94v-259q0 -74 12 -103h-64
q13 28 13 103v273q0 78 -13 103z" />
    <glyph glyph-name="n" unicode="n" horiz-adv-x="526" 
d="M81 486h50q0 -56 -1 -83h3q29 38 72.5 63t91.5 25q147 0 147 -186v-185q0 -90 13 -120h-65q13 30 13 120v185q0 79 -27.5 115t-84.5 36q-90 0 -160 -99v-237q0 -89 10 -120h-62q13 30 13 120v247q0 89 -13 119z" />
    <glyph glyph-name="o" unicode="o" horiz-adv-x="530" 
d="M266 -12q-98 0 -156 63t-58 188q0 126 58 189t156 63t155.5 -63t57.5 -189q0 -125 -57.5 -188t-155.5 -63zM266 24q82 0 127 54.5t45 160.5q0 105 -45 161t-127 56t-127 -56t-45 -161q0 -106 45 -160.5t127 -54.5z" />
    <glyph glyph-name="p" unicode="p" horiz-adv-x="544" 
d="M133 55l-1 -152q-1 -75 12 -103h-63q13 27 13 103v480q0 76 -13 103h50l-2 -66h4q59 71 155 71q97 0 148.5 -65t51.5 -185q0 -122 -52.5 -187.5t-148.5 -65.5q-95 0 -154 67zM286 24q77 0 119 58t42 159q0 99 -41.5 157t-119.5 58q-92 0 -153 -84v-266q59 -82 153 -82z
" />
    <glyph glyph-name="q" unicode="q" horiz-adv-x="545" 
d="M259 -12q-96 0 -149 65t-53 187q0 121 53.5 186t149.5 65q93 0 153 -68h3q-3 33 -3 63h52q-13 -27 -13 -103v-480q0 -76 13 -103h-65q13 27 13 103v117q0 26 1 36h-3q-60 -68 -152 -68zM260 24q93 0 153 86v263q-62 83 -153 83q-76 0 -118.5 -58t-42.5 -158
q0 -101 42 -158.5t119 -57.5z" />
    <glyph glyph-name="r" unicode="r" horiz-adv-x="330" 
d="M81 479h51q0 -65 -1 -94h3q17 48 52 77t78 29q10 0 28 -1.5t25 -0.5l-11 -54q-15 20 -49 20q-36 0 -70.5 -36t-53.5 -99v-217q0 -78 12 -103h-64q13 25 13 103v273q0 78 -13 103z" />
    <glyph glyph-name="s" unicode="s" horiz-adv-x="412" 
d="M205 -12q-41 0 -104.5 19.5t-66.5 20.5l23 62q17 -30 58.5 -48.5t89.5 -18.5q123 0 123 101q0 66 -112 101l-25 8q-130 41 -130 135q0 57 41 90t109 33q25 0 49.5 -5t56.5 -16t36 -12l-22 -57q-35 55 -120 55q-51 0 -81.5 -23.5t-30.5 -63.5q0 -68 103 -99l25 -7
q141 -42 141 -138q0 -64 -42 -100.5t-121 -36.5z" />
    <glyph glyph-name="t" unicode="t" horiz-adv-x="314" 
d="M221 -12q-64 0 -90 37t-26 105v319h-71v28q66 3 110 80v-78h132v-38q-29 8 -132 8v-319q0 -53 17.5 -80t63.5 -27q37 0 62 25l11 -51q-13 -1 -40 -5t-37 -4z" />
    <glyph glyph-name="u" unicode="u" horiz-adv-x="527" 
d="M228 -12q-72 0 -107 46t-35 144v198q0 75 -14 103h53v-301q0 -155 107 -155q98 0 163 109v244q0 74 -12 103h51v-376q0 -76 13 -103h-55q0 43 4 81h-4q-25 -42 -69 -67.5t-95 -25.5z" />
    <glyph glyph-name="v" unicode="v" horiz-adv-x="446" 
d="M10 479h66q-4 -26 19 -89l82 -224q32 -91 45 -126h5q6 16 13.5 37t17 48t14.5 41l81 224q2 4 6 16.5t5 16t4 12t3.5 12t1 10t0.5 11.5t-1 11h64q-19 -24 -47 -99l-104 -278q-25 -70 -24 -102h-73q1 30 -25 102l-106 278q-27 74 -47 99z" />
    <glyph glyph-name="w" unicode="w" horiz-adv-x="668" 
d="M591 479h63q-19 -30 -42 -108l-77 -268q-18 -65 -20 -103h-68q-2 50 -18 103l-95 331l-94 -331q-17 -58 -19 -103h-65q0 36 -20 103l-79 268q-25 80 -43 108h66q-5 -26 14 -96l95 -341l102 362q13 44 12 75h65q-2 -24 12 -76l102 -360l95 340q18 65 14 96z" />
    <glyph glyph-name="x" unicode="x" horiz-adv-x="411" 
d="M403 0h-70q1 22 -28 67l-102 157l-100 -157q-28 -44 -27 -67h-67q23 20 59 75l114 177l-100 153q-37 57 -60 74h70q0 -24 27 -67l89 -138l88 138q27 43 26 67h67q-16 -12 -27 -26t-32 -48l-100 -157l113 -173q34 -53 60 -75z" />
    <glyph glyph-name="y" unicode="y" horiz-adv-x="435" 
d="M72 -200q-9 0 -26 1.5t-24 1.5l12 56q15 -22 42 -22q88 0 128 127l12 36h-9l-149 371q-34 83 -55 108h68q-6 -28 22 -95l136 -342h3l117 342q24 68 18 95h65q-20 -28 -48 -108l-146 -420q-52 -151 -166 -151z" />
    <glyph glyph-name="z" unicode="z" horiz-adv-x="403" 
d="M27 32q15 10 43 52l245 361h-147q-84 0 -109 -14v53q37 -5 79 -5h226l2 -32q-15 -10 -34 -38l-254 -374h178q93 0 119 13v-53q-37 5 -83 5h-263z" />
    <glyph glyph-name="braceleft" unicode="{" horiz-adv-x="303" 
d="M221 -152q-58 8 -85.5 33t-27.5 88q0 33 8.5 102t8.5 110q0 38 -22 62t-76 15v40q54 -9 76 14.5t22 61.5q0 42 -8.5 107.5t-8.5 97.5q0 63 27.5 88t85.5 33l40 6v-42l-35 4q-42 5 -60 -14.5t-18 -75.5q0 -29 7.5 -91.5t7.5 -110.5q0 -82 -64 -97v-2q64 -15 64 -98
q0 -47 -7.5 -114t-7.5 -96q0 -52 18 -74t60 -17l35 4v-40z" />
    <glyph glyph-name="bar" unicode="|" horiz-adv-x="275" 
d="M108 697h59q-11 -17 -11 -71v-691q0 -60 11 -80h-59q11 17 11 80v691q0 51 -11 71z" />
    <glyph glyph-name="braceright" unicode="}" horiz-adv-x="303" 
d="M82 -152l-40 -6v40l35 -4q42 -5 60 17t18 74q0 29 -7.5 96t-7.5 114q0 83 64 98v2q-64 15 -64 97q0 48 7.5 110.5t7.5 91.5q0 54 -17 75t-61 15l-35 -4v42l40 -6q58 -8 85.5 -33t27.5 -88q0 -32 -8.5 -97.5t-8.5 -107.5q0 -38 22 -61.5t76 -14.5v-40q-54 9 -76 -15
t-22 -62q0 -41 8.5 -110t8.5 -102q0 -66 -28.5 -89.5t-84.5 -31.5z" />
    <glyph glyph-name="asciitilde" unicode="~" horiz-adv-x="399" 
d="M279 280q-33 0 -84.5 39t-71.5 39q-46 0 -46 -61l-37 2q0 43 21.5 71t60.5 28q32 0 83 -38.5t72 -38.5q45 0 45 60l37 -2q0 -42 -21.5 -70.5t-58.5 -28.5z" />
    <glyph glyph-name="uni00A0" unicode="&#xa0;" horiz-adv-x="200" 
 />
    <glyph glyph-name="exclamdown" unicode="&#xa1;" horiz-adv-x="250" 
d="M125 498q18 0 30.5 -11.5t12.5 -31.5t-12.5 -32t-30.5 -12t-30.5 12t-12.5 32t12.5 31.5t30.5 11.5zM88 -184q11 19 14.5 46t3.5 92v352h38v-352q0 -65 3.5 -92t14.5 -46h-74z" />
    <glyph glyph-name="cent" unicode="&#xa2;" horiz-adv-x="455" 
d="M412 24q-1 0 -26 -9t-38 -13t-38.5 -9t-47.5 -5q0 -63 10 -86l-57 1q11 22 11 87q-174 18 -174 249t174 250q0 68 -11 90h57q-10 -24 -10 -88q18 0 35 -2.5t33 -7t25 -8t24.5 -10t19.5 -7.5l-22 -51q-38 50 -115 51v-432q93 2 129 51zM93 239q0 -194 133 -213v428
q-133 -22 -133 -215z" />
    <glyph glyph-name="sterling" unicode="&#xa3;" horiz-adv-x="426" 
d="M260 35q106 0 135 15v-55q-38 5 -135 5h-225q10 16 10 32v2q51 0 74 31.5t23 77.5q0 44 -24 112h-23q-38 0 -56 -8v51q16 -9 56 -9h10q-31 87 -31 158q0 80 45.5 124t114.5 44q62 0 126 -32l-14 -53q-31 51 -111 51q-52 0 -86 -34.5t-34 -99.5q0 -71 33 -158h103
q39 0 56 9v-51q-18 8 -56 8h-91q22 -64 22 -109q0 -79 -48 -111h126z" />
    <glyph glyph-name="currency" unicode="&#xa4;" horiz-adv-x="494" 
d="M413 279q0 -61 -35 -104q50 -49 72 -57l-40 -42q-8 20 -58 72q-46 -35 -105 -35t-104 35q-50 -52 -58 -72l-41 42q21 8 72 57q-35 43 -35 104q0 62 35 105q-51 50 -72 57l42 42q8 -23 57 -72q43 34 104 34q58 0 104 -35q50 52 58 72l41 -41q-24 -10 -72 -58
q35 -43 35 -104zM247 151q56 0 90 34.5t34 93.5t-34 93.5t-90 34.5t-90 -34.5t-34 -93.5t34 -93.5t90 -34.5z" />
    <glyph glyph-name="yen" unicode="&#xa5;" horiz-adv-x="468" 
d="M269 281h75q40 0 56 10v-45h-145v-66h145v-45q-16 10 -56 10h-89v-42q0 -75 15 -103h-71q15 28 15 103v42h-89q-40 0 -56 -10v45h145v66h-145v45q16 -10 56 -10h75l-125 218q-40 71 -69 104h68q-2 -24 35 -88l126 -219l126 219q22 39 29.5 56.5t5.5 31.5h66
q-30 -33 -69 -104z" />
    <glyph glyph-name="brokenbar" unicode="&#xa6;" horiz-adv-x="275" 
d="M108 697h59q-11 -17 -11 -71v-190q0 -60 11 -80h-59q11 17 11 80v190q0 51 -11 71zM108 196h59q-11 -17 -11 -72v-189q0 -60 11 -80h-59q11 17 11 80v189q0 52 -11 72z" />
    <glyph glyph-name="section" unicode="&#xa7;" horiz-adv-x="521" 
d="M228 -60q50 0 85 38.5t35 98.5q0 36 -19.5 70t-49 60t-63.5 57t-63.5 60.5t-49 71t-19.5 87.5q0 87 54.5 137.5t138.5 50.5q48 0 88.5 -15t58.5 -32v-86q-11 42 -53 70t-91 28q-43 0 -69.5 -38.5t-26.5 -101.5q0 -44 27 -84t66 -72t77.5 -65.5t65.5 -80t27 -100.5
q0 -85 -56.5 -137.5t-159.5 -52.5q-51 0 -93 14.5t-63 31.5v89q16 -42 58.5 -70.5t94.5 -28.5zM119 485q0 -49 27.5 -93t66.5 -78t77.5 -67.5t66 -76.5t27.5 -91q0 -65 -39 -114q66 40 66 127q0 49 -27 91.5t-65.5 75t-77 65.5t-65.5 76.5t-27 93.5q0 69 30 113
q-60 -42 -60 -122z" />
    <glyph glyph-name="dieresis" unicode="&#xa8;" horiz-adv-x="542" 
d="M210 599q-15 0 -25 10.5t-10 25.5q0 14 10 24.5t25 10.5t25 -10.5t10 -24.5q0 -15 -10 -25.5t-25 -10.5zM332 599q-15 0 -25 10.5t-10 25.5q0 14 10 24.5t25 10.5t25 -10.5t10 -24.5q0 -15 -10 -25.5t-25 -10.5z" />
    <glyph glyph-name="copyright" unicode="&#xa9;" horiz-adv-x="892" 
d="M446 -17q-114 0 -193.5 78.5t-79.5 193.5q0 114 79.5 193t193.5 79t193 -79t79 -193q0 -115 -79 -193.5t-193 -78.5zM446 17q99 0 167.5 68.5t68.5 169.5q0 100 -68.5 168.5t-167.5 68.5t-168 -68.5t-69 -168.5q0 -101 69 -169.5t168 -68.5zM523 157v-51q-66 -9 -74 -9
q-63 0 -98.5 39t-35.5 119t35.5 119t98.5 39q8 0 74 -9v-51q-28 27 -72 27q-98 0 -98 -125t98 -125q42 0 72 27z" />
    <glyph glyph-name="ordfeminine" unicode="&#xaa;" horiz-adv-x="352" 
d="M140 272q-50 0 -82 27.5t-32 78.5q0 115 180 115h56v32q0 52 -22 77.5t-71 25.5q-34 0 -63.5 -14.5t-42.5 -33.5l-19 45q1 0 46.5 19t80.5 19q130 0 130 -138v-150q0 -70 12 -94h-50l1 64h-3q-43 -73 -121 -73zM143 305q70 0 119 88v66h-56q-73 0 -106.5 -20t-33.5 -61
q0 -36 21.5 -54.5t55.5 -18.5z" />
    <glyph glyph-name="guillemotleft" unicode="&#xab;" horiz-adv-x="411" 
d="M225 107l-21 -16q-61 96 -153 142v39q92 44 153 141l21 -18q-55 -90 -137 -143q83 -55 137 -145zM365 107l-21 -16q-61 96 -153 142v39q92 44 153 141l21 -18q-55 -90 -137 -143q83 -55 137 -145z" />
    <glyph glyph-name="logicalnot" unicode="&#xac;" horiz-adv-x="387" 
d="M329 276v-44q0 -40 9 -59h-58q10 19 10 59v61h-157q-68 0 -92 -10l-1 63q23 -11 93 -11h204q-8 -17 -8 -59z" />
    <glyph glyph-name="uni00AD" unicode="&#xad;" horiz-adv-x="310" 
d="M40 273h230v-37h-230v37z" />
    <glyph glyph-name="registered" unicode="&#xae;" horiz-adv-x="566" 
d="M284 774q97 0 166 -69t69 -166t-69 -165.5t-166 -68.5q-98 0 -167.5 68.5t-69.5 165.5t69.5 166t167.5 69zM284 336q83 0 143 59.5t60 143.5t-60 144t-143 60q-85 0 -144.5 -60t-59.5 -144t59.5 -143.5t144.5 -59.5zM346 455q23 -36 41 -53h-54q1 14 -17 44l-39 61h-47
v-54q0 -34 7 -51h-49q9 18 9 51v177q0 32 -9 52h97q47 0 71.5 -23.5t24.5 -63.5q0 -34 -19 -56.5t-51 -28.5zM229 536h56q64 0 64 58t-64 58h-56v-116z" />
    <glyph glyph-name="macron" unicode="&#xaf;" horiz-adv-x="542" 
d="M171 642h200v-35h-200v35z" />
    <glyph glyph-name="degree" unicode="&#xb0;" horiz-adv-x="370" 
d="M185 410q-55 0 -94 39t-39 95q0 55 39 94t94 39t94 -39t39 -94t-39 -94.5t-94 -39.5zM185 443q41 0 69.5 29t28.5 72q0 42 -28.5 71t-69.5 29t-70 -29t-29 -71q0 -43 29 -72t70 -29z" />
    <glyph glyph-name="plusminus" unicode="&#xb1;" horiz-adv-x="423" 
d="M134 295q-68 0 -92 -10l-1 61q23 -11 93 -11h57v41q0 69 -10 93h61q-10 -24 -10 -93v-41h58q69 0 92 11l-1 -61q-24 10 -91 10h-58v-41q0 -69 10 -93h-61q10 24 10 93v41h-57zM134 114h156q66 0 92 11l-1 -60q-24 10 -91 10h-156q-68 0 -92 -10l-1 60q26 -11 93 -11z" />
    <glyph glyph-name="uni00B2" unicode="&#xb2;" 
d="M56 476q106 80 150.5 131.5t44.5 102.5q0 40 -23 64.5t-57 24.5q-32 0 -58.5 -17t-38.5 -43l-26 40q8 2 47 26.5t76 24.5q49 0 82.5 -32.5t33.5 -87.5q0 -58 -43.5 -111t-131.5 -120h116q59 0 82 15v-46h-254v28z" />
    <glyph glyph-name="uni00B3" unicode="&#xb3;" 
d="M183 436q-31 0 -57 10.5t-48 24t-36 17.5l27 44q40 -66 114 -66q36 0 62 20.5t26 58.5q0 77 -141 77v29q58 0 91.5 22t33.5 57q0 32 -21.5 51t-55.5 19q-54 0 -97 -53l-23 42q8 2 48 21.5t72 19.5q48 0 80.5 -25.5t32.5 -72.5q0 -70 -78 -93q40 -6 67 -30t27 -64
q0 -51 -35.5 -80t-88.5 -29z" />
    <glyph glyph-name="acute" unicode="&#xb4;" horiz-adv-x="325" 
d="M79 596q79 56 135 149l32 -29q-57 -83 -153 -141z" />
    <glyph glyph-name="uni00B5" unicode="&#xb5;" horiz-adv-x="527" 
d="M447 0h-55q0 26 4 98h-4q-27 -52 -69.5 -81t-92.5 -29q-67 0 -105 53v-91q0 -72 16 -103h-71q16 28 16 103v426q0 75 -14 103h53v-333q0 -56 28.5 -88t78.5 -32q99 0 163 127v223q0 74 -12 103h51v-376q0 -76 13 -103z" />
    <glyph glyph-name="paragraph" unicode="&#xb6;" horiz-adv-x="459" 
d="M382 662v-45q-14 7 -41 7v-538q0 -75 -36 -117.5t-109 -42.5v60q55 -16 80.5 12.5t25.5 87.5v231q-29 -11 -63 -11q-82 0 -126.5 51t-44.5 127q0 74 51 126t150 52h113zM302 353v271h-53v-282q28 0 53 11z" />
    <glyph glyph-name="periodcentered" unicode="&#xb7;" horiz-adv-x="249" 
d="M125 272q-22 0 -36.5 13.5t-14.5 35.5q0 23 14.5 37t36.5 14q21 0 35.5 -14t14.5 -37q0 -22 -14.5 -35.5t-35.5 -13.5z" />
    <glyph glyph-name="cedilla" unicode="&#xb8;" horiz-adv-x="542" 
d="M198 -174q113 4 113 51q0 22 -18 33.5t-60 16.5l38 76h30l-25 -56q71 -17 71 -68q0 -76 -143 -84z" />
    <glyph glyph-name="uni00B9" unicode="&#xb9;" 
d="M177 755h-85v27q77 0 119 38v-334l88 -11v-27h-215v27l93 11v269z" />
    <glyph glyph-name="ordmasculine" unicode="&#xba;" horiz-adv-x="363" 
d="M181 272q-68 0 -109.5 48t-41.5 147q0 100 41.5 148t109.5 48t110 -48t42 -148q0 -99 -42 -147t-110 -48zM181 306q113 0 113 161q0 81 -30 121t-83 40t-82.5 -40t-29.5 -121q0 -161 112 -161z" />
    <glyph glyph-name="guillemotright" unicode="&#xbb;" horiz-adv-x="431" 
d="M46 107q54 90 137 145q-82 53 -137 143l21 18q61 -97 153 -141v-39q-92 -46 -153 -142zM206 107q54 90 137 145q-82 53 -137 143l21 18q61 -97 153 -141v-39q-92 -46 -153 -142z" />
    <glyph glyph-name="onequarter" unicode="&#xbc;" horiz-adv-x="786" 
d="M604 668h36l-360 -680h-36zM177 576h-85v27q77 0 119 38v-334l88 -11v-27h-215v27l93 11v269zM648 110h-176v25l178 252h31v-247q41 0 58 13v-43h-58v-24q0 -64 15 -86h-63q15 22 15 86v24zM648 140v195l-138 -195h138z" />
    <glyph glyph-name="onehalf" unicode="&#xbd;" horiz-adv-x="853" 
d="M600 668h36l-360 -680h-36zM177 576h-85v27q77 0 119 38v-334l88 -11v-27h-215v27l93 11v269zM548 28q106 80 150.5 131.5t44.5 102.5q0 40 -23 64.5t-57 24.5q-32 0 -58.5 -17t-38.5 -43l-26 40q8 2 47 26.5t76 24.5q49 0 82.5 -32.5t33.5 -87.5q0 -58 -43.5 -111
t-131.5 -120h116q59 0 82 15v-46h-254v28z" />
    <glyph glyph-name="threequarters" unicode="&#xbe;" horiz-adv-x="777" 
d="M595 668h37l-361 -680h-36zM183 257q-31 0 -57 10.5t-48 24t-36 17.5l27 44q40 -66 114 -66q36 0 62 20.5t26 58.5q0 77 -141 77v29q58 0 91.5 22t33.5 57q0 32 -21.5 51t-55.5 19q-54 0 -97 -53l-23 42q8 2 48 21.5t72 19.5q48 0 80.5 -25.5t32.5 -72.5q0 -70 -78 -93
q40 -6 67 -30t27 -64q0 -51 -35.5 -80t-88.5 -29zM639 110h-177v25l179 252h31v-247q41 0 58 13v-43h-58v-24q0 -64 15 -86h-63q15 22 15 86v24zM639 140v195l-138 -195h138z" />
    <glyph glyph-name="questiondown" unicode="&#xbf;" horiz-adv-x="406" 
d="M229 495q18 0 29.5 -11t11.5 -29q0 -20 -11.5 -31t-29.5 -11q-41 0 -41 42q0 18 11 29t30 11zM254 296q0 -55 -16.5 -95.5t-40.5 -65t-48 -46t-40.5 -51.5t-16.5 -69q0 -57 34 -90.5t89 -33.5q41 0 78.5 19t53.5 48l31 -55q-15 -1 -68.5 -24t-94.5 -23q-73 0 -118.5 42.5
t-45.5 116.5q0 45 17 78.5t40.5 56t47.5 45.5t41 60t17 87h40z" />
    <glyph glyph-name="Agrave" unicode="&#xc0;" horiz-adv-x="560" 
d="M317 742l-13 -22q-99 57 -155 139l30 31q59 -95 138 -148zM248 659h62q-1 -23 22 -88l161 -458q29 -84 52 -113h-73q9 26 -19 107l-38 111h-272l-39 -111q-27 -79 -17 -107h-73q21 26 52 113l161 458q23 67 21 88zM155 253l248 1l-123 360h-3z" />
    <glyph glyph-name="Aacute" unicode="&#xc1;" horiz-adv-x="560" 
d="M244 739q79 56 135 149l32 -29q-57 -83 -153 -141zM248 659h62q-1 -23 22 -88l161 -458q29 -84 52 -113h-73q9 26 -19 107l-38 111h-272l-39 -111q-27 -79 -17 -107h-73q21 26 52 113l161 458q23 67 21 88zM155 253l248 1l-123 360h-3z" />
    <glyph glyph-name="Acircumflex" unicode="&#xc2;" horiz-adv-x="560" 
d="M260 880h38q48 -88 116 -145l-16 -19q-72 54 -117 127h-4q-45 -73 -117 -127l-16 19q66 57 116 145zM248 659h62q-1 -23 22 -88l161 -458q29 -84 52 -113h-73q9 26 -19 107l-38 111h-272l-39 -111q-27 -79 -17 -107h-73q21 26 52 113l161 458q23 67 21 88zM155 253l248 1
l-123 360h-3z" />
    <glyph glyph-name="Atilde" unicode="&#xc3;" horiz-adv-x="560" 
d="M345 732q-21 0 -40.5 13t-32.5 29t-29 29t-31 13q-50 0 -42 -67l-43 2q18 95 87 95q21 0 40.5 -13t32 -29t29 -29t31.5 -13q23 0 34 18t7 48l43 -2q-18 -94 -86 -94zM248 659h62q-1 -23 22 -88l161 -458q29 -84 52 -113h-73q9 26 -19 107l-38 111h-272l-39 -111
q-27 -79 -17 -107h-73q21 26 52 113l161 458q23 67 21 88zM155 253l248 1l-123 360h-3z" />
    <glyph glyph-name="Adieresis" unicode="&#xc4;" horiz-adv-x="560" 
d="M220 742q-15 0 -25 10.5t-10 25.5q0 14 10 24.5t25 10.5t25 -10.5t10 -24.5q0 -15 -10 -25.5t-25 -10.5zM342 742q-15 0 -25 10.5t-10 25.5q0 14 10 24.5t25 10.5t25 -10.5t10 -24.5q0 -15 -10 -25.5t-25 -10.5zM248 659h62q-1 -23 22 -88l161 -458q29 -84 52 -113h-73
q9 26 -19 107l-38 111h-272l-39 -111q-27 -79 -17 -107h-73q21 26 52 113l161 458q23 67 21 88zM155 253l248 1l-123 360h-3z" />
    <glyph glyph-name="Aring" unicode="&#xc5;" horiz-adv-x="560" 
d="M279 717q-38 0 -63 21.5t-25 56.5q0 36 25 57t63 21t63 -21t25 -57q0 -35 -25 -56.5t-63 -21.5zM279 744q24 0 40 12.5t16 38.5t-16 38.5t-40 12.5t-40 -12.5t-16 -38.5t16 -38.5t40 -12.5zM248 659h62q-1 -23 22 -88l161 -458q29 -84 52 -113h-73q9 26 -19 107l-38 111
h-272l-39 -111q-27 -79 -17 -107h-73q21 26 52 113l161 458q23 67 21 88zM155 253l248 1l-123 360h-3z" />
    <glyph glyph-name="AE" unicode="&#xc6;" horiz-adv-x="807" 
d="M631 36q97 0 129 15v-58q-31 7 -129 7h-236q15 32 15 103v117h-223l-55 -99q-50 -91 -46 -121h-75q30 35 86 136l227 408q46 82 48 115h264q76 0 114 6v-56q-36 15 -114 15h-185v-256h127q91 0 120 10v-55q-29 10 -120 10h-127v-297h180zM206 255h204v368h-4z" />
    <glyph glyph-name="Ccedilla" unicode="&#xc7;" horiz-adv-x="557" 
d="M327 -53q71 -17 71 -68q0 -76 -143 -84l-6 31q113 4 113 51q0 22 -18 33.5t-60 16.5l31 61q-122 2 -191 86t-69 257q0 175 70.5 257.5t193.5 82.5q95 0 185 -53l-25 -54q-19 29 -63 49.5t-96 20.5q-222 0 -222 -302q0 -158 59 -232.5t165 -74.5q60 0 106.5 18.5
t68.5 46.5l21 -55q-102 -42 -172 -46z" />
    <glyph glyph-name="Egrave" unicode="&#xc8;" horiz-adv-x="505" 
d="M309 742l-13 -22q-99 57 -155 139l30 31q59 -95 138 -148zM85 659h179q146 0 179 6v-54q-27 13 -179 13h-125v-256h107q125 0 153 12v-59q-28 12 -153 12h-107v-297h134q160 0 185 12v-53q-37 5 -185 5h-188q15 26 15 103v453q0 77 -15 103z" />
    <glyph glyph-name="Eacute" unicode="&#xc9;" horiz-adv-x="505" 
d="M236 739q79 56 135 149l32 -29q-57 -83 -153 -141zM85 659h179q146 0 179 6v-54q-27 13 -179 13h-125v-256h107q125 0 153 12v-59q-28 12 -153 12h-107v-297h134q160 0 185 12v-53q-37 5 -185 5h-188q15 26 15 103v453q0 77 -15 103z" />
    <glyph glyph-name="Ecircumflex" unicode="&#xca;" horiz-adv-x="505" 
d="M253 880h38q48 -88 116 -145l-16 -19q-72 54 -117 127h-4q-45 -73 -117 -127l-16 19q66 57 116 145zM85 659h179q146 0 179 6v-54q-27 13 -179 13h-125v-256h107q125 0 153 12v-59q-28 12 -153 12h-107v-297h134q160 0 185 12v-53q-37 5 -185 5h-188q15 26 15 103v453
q0 77 -15 103z" />
    <glyph glyph-name="Edieresis" unicode="&#xcb;" horiz-adv-x="505" 
d="M213 742q-15 0 -25 10.5t-10 25.5q0 14 10 24.5t25 10.5t25 -10.5t10 -24.5q0 -15 -10 -25.5t-25 -10.5zM335 742q-15 0 -25 10.5t-10 25.5q0 14 10 24.5t25 10.5t25 -10.5t10 -24.5q0 -15 -10 -25.5t-25 -10.5zM85 659h179q146 0 179 6v-54q-27 13 -179 13h-125v-256
h107q125 0 153 12v-59q-28 12 -153 12h-107v-297h134q160 0 185 12v-53q-37 5 -185 5h-188q15 26 15 103v453q0 77 -15 103z" />
    <glyph glyph-name="Igrave" unicode="&#xcc;" horiz-adv-x="255" 
d="M166 742l-13 -22q-99 57 -155 139l30 31q59 -95 138 -148zM148 103q0 -75 15 -103h-71q15 25 15 103v453q0 78 -15 103h71q-15 -27 -15 -103v-453z" />
    <glyph glyph-name="Iacute" unicode="&#xcd;" horiz-adv-x="255" 
d="M93 739q79 56 135 149l32 -29q-57 -83 -153 -141zM148 103q0 -75 15 -103h-71q15 25 15 103v453q0 78 -15 103h71q-15 -27 -15 -103v-453z" />
    <glyph glyph-name="Icircumflex" unicode="&#xce;" horiz-adv-x="255" 
d="M109 880h38q48 -88 116 -145l-16 -19q-72 54 -117 127h-4q-45 -73 -117 -127l-16 19q66 57 116 145zM148 103q0 -75 15 -103h-71q15 25 15 103v453q0 78 -15 103h71q-15 -27 -15 -103v-453z" />
    <glyph glyph-name="Idieresis" unicode="&#xcf;" horiz-adv-x="255" 
d="M69 742q-15 0 -25 10.5t-10 25.5q0 14 10 24.5t25 10.5t25 -10.5t10 -24.5q0 -15 -10 -25.5t-25 -10.5zM191 742q-15 0 -25 10.5t-10 25.5q0 14 10 24.5t25 10.5t25 -10.5t10 -24.5q0 -15 -10 -25.5t-25 -10.5zM148 103q0 -75 15 -103h-71q15 25 15 103v453q0 78 -15 103
h71q-15 -27 -15 -103v-453z" />
    <glyph glyph-name="Eth" unicode="&#xd0;" horiz-adv-x="604" 
d="M235 659q165 0 239.5 -78t74.5 -249q0 -172 -75 -252t-239 -80h-150q15 24 15 103v225h-68v32h68v196q0 49 -2.5 68.5t-12.5 34.5h150zM230 36q147 0 211.5 71t64.5 225q0 153 -64 222.5t-212 69.5h-89v-264h203v-32h-203v-292h89z" />
    <glyph glyph-name="Ntilde" unicode="&#xd1;" horiz-adv-x="639" 
d="M391 732q-21 0 -40.5 13t-32.5 29t-29 29t-31 13q-50 0 -42 -67l-43 2q18 95 87 95q21 0 40.5 -13t32 -29t29 -29t31.5 -13q23 0 34 18t7 48l43 -2q-18 -94 -86 -94zM85 659h62l354 -590h4q-6 50 -6 136v351q0 76 -15 103h70q-15 -25 -15 -103v-449q0 -78 8 -107h-49
l-361 600h-3q6 -46 6 -133v-364q0 -78 15 -103h-70q15 28 15 103v453q0 77 -15 103z" />
    <glyph glyph-name="Ograve" unicode="&#xd2;" horiz-adv-x="649" 
d="M363 742l-13 -22q-99 57 -155 139l30 31q59 -95 138 -148zM324 -12q-118 0 -193.5 87t-75.5 257q0 174 74.5 256.5t194.5 82.5q121 0 195.5 -82.5t74.5 -256.5q0 -170 -75.5 -257t-194.5 -87zM324 26q100 0 163.5 77.5t63.5 228.5q0 155 -62.5 228.5t-164.5 73.5
t-164 -73.5t-62 -228.5q0 -151 63 -228.5t163 -77.5z" />
    <glyph glyph-name="Oacute" unicode="&#xd3;" horiz-adv-x="649" 
d="M290 739q79 56 135 149l32 -29q-57 -83 -153 -141zM324 -12q-118 0 -193.5 87t-75.5 257q0 174 74.5 256.5t194.5 82.5q121 0 195.5 -82.5t74.5 -256.5q0 -170 -75.5 -257t-194.5 -87zM324 26q100 0 163.5 77.5t63.5 228.5q0 155 -62.5 228.5t-164.5 73.5t-164 -73.5
t-62 -228.5q0 -151 63 -228.5t163 -77.5z" />
    <glyph glyph-name="Ocircumflex" unicode="&#xd4;" horiz-adv-x="649" 
d="M307 880h38q48 -88 116 -145l-16 -19q-72 54 -117 127h-4q-45 -73 -117 -127l-16 19q66 57 116 145zM324 -12q-118 0 -193.5 87t-75.5 257q0 174 74.5 256.5t194.5 82.5q121 0 195.5 -82.5t74.5 -256.5q0 -170 -75.5 -257t-194.5 -87zM324 26q100 0 163.5 77.5
t63.5 228.5q0 155 -62.5 228.5t-164.5 73.5t-164 -73.5t-62 -228.5q0 -151 63 -228.5t163 -77.5z" />
    <glyph glyph-name="Otilde" unicode="&#xd5;" horiz-adv-x="649" 
d="M392 732q-21 0 -40.5 13t-32.5 29t-29 29t-31 13q-50 0 -42 -67l-43 2q18 95 87 95q21 0 40.5 -13t32 -29t29 -29t31.5 -13q23 0 34 18t7 48l43 -2q-18 -94 -86 -94zM324 -12q-118 0 -193.5 87t-75.5 257q0 174 74.5 256.5t194.5 82.5q121 0 195.5 -82.5t74.5 -256.5
q0 -170 -75.5 -257t-194.5 -87zM324 26q100 0 163.5 77.5t63.5 228.5q0 155 -62.5 228.5t-164.5 73.5t-164 -73.5t-62 -228.5q0 -151 63 -228.5t163 -77.5z" />
    <glyph glyph-name="Odieresis" unicode="&#xd6;" horiz-adv-x="649" 
d="M267 742q-15 0 -25 10.5t-10 25.5q0 14 10 24.5t25 10.5t25 -10.5t10 -24.5q0 -15 -10 -25.5t-25 -10.5zM389 742q-15 0 -25 10.5t-10 25.5q0 14 10 24.5t25 10.5t25 -10.5t10 -24.5q0 -15 -10 -25.5t-25 -10.5zM324 -12q-118 0 -193.5 87t-75.5 257q0 174 74.5 256.5
t194.5 82.5q121 0 195.5 -82.5t74.5 -256.5q0 -170 -75.5 -257t-194.5 -87zM324 26q100 0 163.5 77.5t63.5 228.5q0 155 -62.5 228.5t-164.5 73.5t-164 -73.5t-62 -228.5q0 -151 63 -228.5t163 -77.5z" />
    <glyph glyph-name="multiply" unicode="&#xd7;" horiz-adv-x="409" 
d="M234 249l62 -63q45 -45 73 -57l-44 -44q-12 28 -57 73l-62 63l-64 -64q-48 -48 -58 -73l-44 44q25 9 73 57l64 64l-63 63q-45 45 -73 57l44 44q11 -25 57 -73l63 -63l63 64q47 46 58 72l43 -43q-24 -10 -72 -58z" />
    <glyph glyph-name="Oslash" unicode="&#xd8;" horiz-adv-x="654" 
d="M524 584q71 -87 71 -252q0 -170 -75.5 -257t-194.5 -87q-101 0 -168 61l-34 -50h-42l51 75q-76 91 -76 258q0 174 74.5 256.5t194.5 82.5q106 0 174 -61l33 48h42zM99 332q0 -141 58 -222l319 466q-58 58 -151 58q-102 0 -164 -73.5t-62 -228.5zM325 26q100 0 163.5 77.5
t63.5 228.5q0 139 -53 216l-319 -465q57 -57 145 -57z" />
    <glyph glyph-name="Ugrave" unicode="&#xd9;" horiz-adv-x="627" 
d="M350 742l-13 -22q-99 57 -155 139l30 31q59 -95 138 -148zM313 -12q-45 0 -82 12.5t-69 41t-50 81.5t-18 127v310q0 76 -16 103h71q-15 -27 -15 -103v-304q0 -123 49.5 -177t129.5 -54q81 0 131.5 53.5t50.5 177.5v304q0 78 -15 103h69q-15 -25 -15 -103v-310
q0 -141 -62.5 -201.5t-158.5 -60.5z" />
    <glyph glyph-name="Uacute" unicode="&#xda;" horiz-adv-x="627" 
d="M278 739q79 56 135 149l32 -29q-57 -83 -153 -141zM313 -12q-45 0 -82 12.5t-69 41t-50 81.5t-18 127v310q0 76 -16 103h71q-15 -27 -15 -103v-304q0 -123 49.5 -177t129.5 -54q81 0 131.5 53.5t50.5 177.5v304q0 78 -15 103h69q-15 -25 -15 -103v-310
q0 -141 -62.5 -201.5t-158.5 -60.5z" />
    <glyph glyph-name="Ucircumflex" unicode="&#xdb;" horiz-adv-x="627" 
d="M294 880h38q48 -88 116 -145l-16 -19q-72 54 -117 127h-4q-45 -73 -117 -127l-16 19q66 57 116 145zM313 -12q-45 0 -82 12.5t-69 41t-50 81.5t-18 127v310q0 76 -16 103h71q-15 -27 -15 -103v-304q0 -123 49.5 -177t129.5 -54q81 0 131.5 53.5t50.5 177.5v304
q0 78 -15 103h69q-15 -25 -15 -103v-310q0 -141 -62.5 -201.5t-158.5 -60.5z" />
    <glyph glyph-name="Udieresis" unicode="&#xdc;" horiz-adv-x="627" 
d="M254 742q-15 0 -25 10.5t-10 25.5q0 14 10 24.5t25 10.5t25 -10.5t10 -24.5q0 -15 -10 -25.5t-25 -10.5zM376 742q-15 0 -25 10.5t-10 25.5q0 14 10 24.5t25 10.5t25 -10.5t10 -24.5q0 -15 -10 -25.5t-25 -10.5zM313 -12q-45 0 -82 12.5t-69 41t-50 81.5t-18 127v310
q0 76 -16 103h71q-15 -27 -15 -103v-304q0 -123 49.5 -177t129.5 -54q81 0 131.5 53.5t50.5 177.5v304q0 78 -15 103h69q-15 -25 -15 -103v-310q0 -141 -62.5 -201.5t-158.5 -60.5z" />
    <glyph glyph-name="Yacute" unicode="&#xdd;" horiz-adv-x="476" 
d="M370 859q-57 -83 -153 -141l-14 21q79 56 135 149zM402 551l-143 -282v-166q0 -75 15 -103h-71q15 28 15 103v166l-144 284q-41 81 -64 106h68q-2 -25 29 -88l132 -268l132 268q32 65 29 88h66q-21 -22 -64 -108z" />
    <glyph glyph-name="Thorn" unicode="&#xde;" horiz-adv-x="531" 
d="M83 659h72q-16 -25 -16 -129h104q116 0 174 -41.5t58 -138.5q0 -187 -231 -187h-105q0 -88 2.5 -117t13.5 -46h-72q15 26 15 103v453q0 77 -15 103zM235 198q104 0 150.5 34.5t46.5 117.5q0 82 -46 113.5t-151 31.5h-96v-297h96z" />
    <glyph glyph-name="germandbls" unicode="&#xdf;" horiz-adv-x="508" 
d="M313 -12q-78 0 -126 48l23 55q28 -69 103 -69q58 0 89.5 35.5t31.5 100.5q0 46 -18.5 79t-45 51.5t-52.5 34t-44.5 37t-18.5 50.5q0 20 9.5 36t23.5 27.5t28 24t23.5 32.5t9.5 46q0 56 -28 87.5t-79 31.5q-118 0 -118 -167v-425q0 -75 11 -103h-60q10 29 10 103v425
q0 100 42.5 151t116.5 51q66 0 106 -41t40 -111q0 -37 -15.5 -64.5t-34 -41t-34 -29.5t-15.5 -31q0 -20 19 -37t46 -32.5t54 -36.5t46 -59t19 -89q0 -81 -44 -125.5t-118 -44.5z" />
    <glyph glyph-name="agrave" unicode="&#xe0;" horiz-adv-x="487" 
d="M280 585l-13 -22q-99 57 -155 139l30 31q59 -95 138 -148zM208 -12q-67 0 -108 35t-41 101q0 143 228 143h81v44q0 145 -128 145q-43 0 -81 -18.5t-55 -43.5l-24 48q1 0 59.5 24.5t102.5 24.5q165 0 165 -180v-191q0 -91 15 -120h-54l1 82h-3q-24 -41 -67 -67.5
t-91 -26.5zM209 22q45 0 86.5 28t72.5 82v100h-81q-187 0 -187 -108q0 -49 30 -75.5t79 -26.5z" />
    <glyph glyph-name="aacute" unicode="&#xe1;" horiz-adv-x="487" 
d="M207 582q79 56 135 149l32 -29q-57 -83 -153 -141zM208 -12q-67 0 -108 35t-41 101q0 143 228 143h81v44q0 145 -128 145q-43 0 -81 -18.5t-55 -43.5l-24 48q1 0 59.5 24.5t102.5 24.5q165 0 165 -180v-191q0 -91 15 -120h-54l1 82h-3q-24 -41 -67 -67.5t-91 -26.5z
M209 22q45 0 86.5 28t72.5 82v100h-81q-187 0 -187 -108q0 -49 30 -75.5t79 -26.5z" />
    <glyph glyph-name="acircumflex" unicode="&#xe2;" horiz-adv-x="487" 
d="M224 723h38q48 -88 116 -145l-16 -19q-72 54 -117 127h-4q-45 -73 -117 -127l-16 19q66 57 116 145zM208 -12q-67 0 -108 35t-41 101q0 143 228 143h81v44q0 145 -128 145q-43 0 -81 -18.5t-55 -43.5l-24 48q1 0 59.5 24.5t102.5 24.5q165 0 165 -180v-191q0 -91 15 -120
h-54l1 82h-3q-24 -41 -67 -67.5t-91 -26.5zM209 22q45 0 86.5 28t72.5 82v100h-81q-187 0 -187 -108q0 -49 30 -75.5t79 -26.5z" />
    <glyph glyph-name="atilde" unicode="&#xe3;" horiz-adv-x="487" 
d="M309 575q-21 0 -40.5 13t-32.5 29t-29 29t-31 13q-50 0 -42 -67l-43 2q18 95 87 95q21 0 40.5 -13t32 -29t29 -29t31.5 -13q23 0 34 18t7 48l43 -2q-18 -94 -86 -94zM208 -12q-67 0 -108 35t-41 101q0 143 228 143h81v44q0 145 -128 145q-43 0 -81 -18.5t-55 -43.5
l-24 48q1 0 59.5 24.5t102.5 24.5q165 0 165 -180v-191q0 -91 15 -120h-54l1 82h-3q-24 -41 -67 -67.5t-91 -26.5zM209 22q45 0 86.5 28t72.5 82v100h-81q-187 0 -187 -108q0 -49 30 -75.5t79 -26.5z" />
    <glyph glyph-name="adieresis" unicode="&#xe4;" horiz-adv-x="487" 
d="M184 585q-15 0 -25 10.5t-10 25.5q0 14 10 24.5t25 10.5t25 -10.5t10 -24.5q0 -15 -10 -25.5t-25 -10.5zM306 585q-15 0 -25 10.5t-10 25.5q0 14 10 24.5t25 10.5t25 -10.5t10 -24.5q0 -15 -10 -25.5t-25 -10.5zM208 -12q-67 0 -108 35t-41 101q0 143 228 143h81v44
q0 145 -128 145q-43 0 -81 -18.5t-55 -43.5l-24 48q1 0 59.5 24.5t102.5 24.5q165 0 165 -180v-191q0 -91 15 -120h-54l1 82h-3q-24 -41 -67 -67.5t-91 -26.5zM209 22q45 0 86.5 28t72.5 82v100h-81q-187 0 -187 -108q0 -49 30 -75.5t79 -26.5z" />
    <glyph glyph-name="aring" unicode="&#xe5;" horiz-adv-x="487" 
d="M243 560q-38 0 -63 21.5t-25 56.5q0 36 25 57t63 21t63 -21t25 -57q0 -35 -25 -56.5t-63 -21.5zM243 587q24 0 40 12.5t16 38.5t-16 38.5t-40 12.5t-40 -12.5t-16 -38.5t16 -38.5t40 -12.5zM208 -12q-67 0 -108 35t-41 101q0 143 228 143h81v44q0 145 -128 145
q-43 0 -81 -18.5t-55 -43.5l-24 48q1 0 59.5 24.5t102.5 24.5q165 0 165 -180v-191q0 -91 15 -120h-54l1 82h-3q-24 -41 -67 -67.5t-91 -26.5zM209 22q45 0 86.5 28t72.5 82v100h-81q-187 0 -187 -108q0 -49 30 -75.5t79 -26.5z" />
    <glyph glyph-name="ae" unicode="&#xe6;" horiz-adv-x="819" 
d="M757 272q0 -20 -2 -36h-346q1 -112 43.5 -162t130.5 -50q96 0 147 55l17 -50q-101 -41 -165 -41q-150 0 -194 119q-70 -119 -180 -119q-67 0 -108 35t-41 101q0 142 227 142h82v45q0 145 -129 145q-42 0 -79 -18.5t-56 -43.5l-23 46q8 2 37 16.5t60.5 24.5t63.5 10
q123 0 155 -102q49 102 175 102q86 0 135.5 -57.5t49.5 -161.5zM409 271h307q0 88 -38 136.5t-106 48.5q-75 0 -117 -47t-46 -138zM368 132v99h-81q-188 0 -188 -107q0 -49 30 -75.5t80 -26.5q45 0 86.5 28t72.5 82z" />
    <glyph glyph-name="ccedilla" unicode="&#xe7;" horiz-adv-x="455" 
d="M252 -52q71 -17 71 -68q0 -76 -143 -84l-6 31q113 4 113 51q0 22 -18 33.5t-60 16.5l30 61q-187 10 -187 250q0 133 56 192.5t150 59.5q23 0 47 -5.5t34.5 -9t34.5 -14.5l25 -12l-24 -50q-40 56 -117 56q-76 0 -120 -52.5t-44 -164.5q0 -114 42 -164.5t122 -50.5
q90 0 132 56l23 -50q-3 -1 -25.5 -10t-36 -14t-37 -11t-44.5 -7z" />
    <glyph glyph-name="egrave" unicode="&#xe8;" horiz-adv-x="503" 
d="M292 585l-13 -22q-99 57 -155 139l30 31q59 -95 138 -148zM266 -12q-104 0 -159 59t-55 192q0 132 56 192t149 60q86 0 135.5 -57.5t49.5 -161.5q0 -20 -2 -36h-346q1 -112 43.5 -162t130.5 -50q97 0 146 55l17 -50q-92 -41 -165 -41zM401 271q0 88 -38 136.5t-106 48.5
q-75 0 -117 -47t-46 -138h307z" />
    <glyph glyph-name="eacute" unicode="&#xe9;" horiz-adv-x="503" 
d="M219 582q79 56 135 149l32 -29q-57 -83 -153 -141zM266 -12q-104 0 -159 59t-55 192q0 132 56 192t149 60q86 0 135.5 -57.5t49.5 -161.5q0 -20 -2 -36h-346q1 -112 43.5 -162t130.5 -50q97 0 146 55l17 -50q-92 -41 -165 -41zM401 271q0 88 -38 136.5t-106 48.5
q-75 0 -117 -47t-46 -138h307z" />
    <glyph glyph-name="ecircumflex" unicode="&#xea;" horiz-adv-x="503" 
d="M236 723h38q48 -88 116 -145l-16 -19q-72 54 -117 127h-4q-45 -73 -117 -127l-16 19q66 57 116 145zM266 -12q-104 0 -159 59t-55 192q0 132 56 192t149 60q86 0 135.5 -57.5t49.5 -161.5q0 -20 -2 -36h-346q1 -112 43.5 -162t130.5 -50q97 0 146 55l17 -50
q-92 -41 -165 -41zM401 271q0 88 -38 136.5t-106 48.5q-75 0 -117 -47t-46 -138h307z" />
    <glyph glyph-name="edieresis" unicode="&#xeb;" horiz-adv-x="503" 
d="M196 585q-15 0 -25 10.5t-10 25.5q0 14 10 24.5t25 10.5t25 -10.5t10 -24.5q0 -15 -10 -25.5t-25 -10.5zM318 585q-15 0 -25 10.5t-10 25.5q0 14 10 24.5t25 10.5t25 -10.5t10 -24.5q0 -15 -10 -25.5t-25 -10.5zM266 -12q-104 0 -159 59t-55 192q0 132 56 192t149 60
q86 0 135.5 -57.5t49.5 -161.5q0 -20 -2 -36h-346q1 -112 43.5 -162t130.5 -50q97 0 146 55l17 -50q-92 -41 -165 -41zM401 271q0 88 -38 136.5t-106 48.5q-75 0 -117 -47t-46 -138h307z" />
    <glyph glyph-name="igrave" unicode="&#xec;" horiz-adv-x="219" 
d="M147 585l-13 -22q-99 57 -155 139l30 31q59 -95 138 -148zM81 0q9 30 9 103v273q0 75 -9 103h55q-7 -31 -7 -103v-273q0 -74 10 -103h-58z" />
    <glyph glyph-name="iacute" unicode="&#xed;" horiz-adv-x="219" 
d="M74 582q79 56 135 149l32 -29q-57 -83 -153 -141zM81 0q9 30 9 103v273q0 75 -9 103h55q-7 -31 -7 -103v-273q0 -74 10 -103h-58z" />
    <glyph glyph-name="icircumflex" unicode="&#xee;" horiz-adv-x="219" 
d="M91 723h38q48 -88 116 -145l-16 -19q-72 54 -117 127h-4q-45 -73 -117 -127l-16 19q66 57 116 145zM81 0q9 30 9 103v273q0 75 -9 103h55q-7 -31 -7 -103v-273q0 -74 10 -103h-58z" />
    <glyph glyph-name="idieresis" unicode="&#xef;" horiz-adv-x="219" 
d="M51 585q-15 0 -25 10.5t-10 25.5q0 14 10 24.5t25 10.5t25 -10.5t10 -24.5q0 -15 -10 -25.5t-25 -10.5zM173 585q-15 0 -25 10.5t-10 25.5q0 14 10 24.5t25 10.5t25 -10.5t10 -24.5q0 -15 -10 -25.5t-25 -10.5zM81 0q9 30 9 103v273q0 75 -9 103h55q-7 -31 -7 -103v-273
q0 -74 10 -103h-58z" />
    <glyph glyph-name="eth" unicode="&#xf0;" horiz-adv-x="510" 
d="M325 608q135 -137 135 -357q0 -123 -53 -193t-148 -70q-87 0 -147 58t-60 173q0 107 55.5 164.5t143.5 57.5q101 0 163 -85q-27 140 -122 234l-123 -66l-14 25l115 62q-31 26 -63 47q-32 22 -62 25l21 43q8 -6 59 -39q39 -25 78 -58l122 65l14 -25zM259 23q82 0 121.5 62
t39.5 166q0 18 -2 48q-33 55 -78 81.5t-87 26.5q-77 0 -119 -50t-42 -138q0 -96 47 -146t120 -50z" />
    <glyph glyph-name="ntilde" unicode="&#xf1;" horiz-adv-x="526" 
d="M333 575q-21 0 -40.5 13t-32.5 29t-29 29t-31 13q-50 0 -42 -67l-43 2q18 95 87 95q21 0 40.5 -13t32 -29t29 -29t31.5 -13q23 0 34 18t7 48l43 -2q-18 -94 -86 -94zM81 486h50q0 -56 -1 -83h3q29 38 72.5 63t91.5 25q147 0 147 -186v-185q0 -90 13 -120h-65
q13 30 13 120v185q0 79 -27.5 115t-84.5 36q-90 0 -160 -99v-237q0 -89 10 -120h-62q13 30 13 120v247q0 89 -13 119z" />
    <glyph glyph-name="ograve" unicode="&#xf2;" horiz-adv-x="530" 
d="M302 585l-13 -22q-99 57 -155 139l30 31q59 -95 138 -148zM266 -12q-98 0 -156 63t-58 188q0 126 58 189t156 63t155.5 -63t57.5 -189q0 -125 -57.5 -188t-155.5 -63zM266 24q82 0 127 54.5t45 160.5q0 105 -45 161t-127 56t-127 -56t-45 -161q0 -106 45 -160.5
t127 -54.5z" />
    <glyph glyph-name="oacute" unicode="&#xf3;" horiz-adv-x="530" 
d="M229 582q79 56 135 149l32 -29q-57 -83 -153 -141zM266 -12q-98 0 -156 63t-58 188q0 126 58 189t156 63t155.5 -63t57.5 -189q0 -125 -57.5 -188t-155.5 -63zM266 24q82 0 127 54.5t45 160.5q0 105 -45 161t-127 56t-127 -56t-45 -161q0 -106 45 -160.5t127 -54.5z" />
    <glyph glyph-name="ocircumflex" unicode="&#xf4;" horiz-adv-x="530" 
d="M246 723h38q48 -88 116 -145l-16 -19q-72 54 -117 127h-4q-45 -73 -117 -127l-16 19q66 57 116 145zM266 -12q-98 0 -156 63t-58 188q0 126 58 189t156 63t155.5 -63t57.5 -189q0 -125 -57.5 -188t-155.5 -63zM266 24q82 0 127 54.5t45 160.5q0 105 -45 161t-127 56
t-127 -56t-45 -161q0 -106 45 -160.5t127 -54.5z" />
    <glyph glyph-name="otilde" unicode="&#xf5;" horiz-adv-x="530" 
d="M331 575q-21 0 -40.5 13t-32.5 29t-29 29t-31 13q-50 0 -42 -67l-43 2q18 95 87 95q21 0 40.5 -13t32 -29t29 -29t31.5 -13q23 0 34 18t7 48l43 -2q-18 -94 -86 -94zM266 -12q-98 0 -156 63t-58 188q0 126 58 189t156 63t155.5 -63t57.5 -189q0 -125 -57.5 -188
t-155.5 -63zM266 24q82 0 127 54.5t45 160.5q0 105 -45 161t-127 56t-127 -56t-45 -161q0 -106 45 -160.5t127 -54.5z" />
    <glyph glyph-name="odieresis" unicode="&#xf6;" horiz-adv-x="530" 
d="M206 585q-15 0 -25 10.5t-10 25.5q0 14 10 24.5t25 10.5t25 -10.5t10 -24.5q0 -15 -10 -25.5t-25 -10.5zM328 585q-15 0 -25 10.5t-10 25.5q0 14 10 24.5t25 10.5t25 -10.5t10 -24.5q0 -15 -10 -25.5t-25 -10.5zM266 -12q-98 0 -156 63t-58 188q0 126 58 189t156 63
t155.5 -63t57.5 -189q0 -125 -57.5 -188t-155.5 -63zM266 24q82 0 127 54.5t45 160.5q0 105 -45 161t-127 56t-127 -56t-45 -161q0 -106 45 -160.5t127 -54.5z" />
    <glyph glyph-name="divide" unicode="&#xf7;" horiz-adv-x="427" 
d="M214 324q-20 0 -32.5 11.5t-12.5 30.5q0 21 12.5 32.5t32.5 11.5q19 0 31.5 -12t12.5 -32q0 -19 -12.5 -30.5t-31.5 -11.5zM40 280q23 -11 93 -11h162q69 0 92 11l-1 -61q-24 10 -91 10h-162q-68 0 -92 -10zM214 88q-20 0 -32.5 11.5t-12.5 30.5q0 21 12.5 32.5
t32.5 11.5q19 0 31.5 -12t12.5 -32q0 -19 -12.5 -30.5t-31.5 -11.5z" />
    <glyph glyph-name="oslash" unicode="&#xf8;" horiz-adv-x="530" 
d="M475 474l-48 -58q48 -63 48 -177q0 -125 -57.5 -188t-155.5 -63q-89 0 -143 50l-43 -52l-26 20l47 57q-49 63 -49 176q0 126 58 189t156 63q90 0 145 -52l44 54zM89 239q0 -90 34 -144l259 314q-45 47 -120 47q-82 0 -127.5 -56t-45.5 -161zM434 239q0 89 -33 144
l-258 -314q45 -45 119 -45q82 0 127 54.5t45 160.5z" />
    <glyph glyph-name="ugrave" unicode="&#xf9;" horiz-adv-x="527" 
d="M289 578l-13 -22q-99 57 -155 139l30 31q59 -95 138 -148zM228 -12q-72 0 -107 46t-35 144v198q0 75 -14 103h53v-301q0 -155 107 -155q98 0 163 109v244q0 74 -12 103h51v-376q0 -76 13 -103h-55q0 43 4 81h-4q-25 -42 -69 -67.5t-95 -25.5z" />
    <glyph glyph-name="uacute" unicode="&#xfa;" horiz-adv-x="527" 
d="M216 575q79 56 135 149l32 -29q-57 -83 -153 -141zM228 -12q-72 0 -107 46t-35 144v198q0 75 -14 103h53v-301q0 -155 107 -155q98 0 163 109v244q0 74 -12 103h51v-376q0 -76 13 -103h-55q0 43 4 81h-4q-25 -42 -69 -67.5t-95 -25.5z" />
    <glyph glyph-name="ucircumflex" unicode="&#xfb;" horiz-adv-x="527" 
d="M232 716h38q48 -88 116 -145l-16 -19q-72 54 -117 127h-4q-45 -73 -117 -127l-16 19q66 57 116 145zM228 -12q-72 0 -107 46t-35 144v198q0 75 -14 103h53v-301q0 -155 107 -155q98 0 163 109v244q0 74 -12 103h51v-376q0 -76 13 -103h-55q0 43 4 81h-4
q-25 -42 -69 -67.5t-95 -25.5z" />
    <glyph glyph-name="udieresis" unicode="&#xfc;" horiz-adv-x="527" 
d="M192 578q-15 0 -25 10.5t-10 25.5q0 14 10 24.5t25 10.5t25 -10.5t10 -24.5q0 -15 -10 -25.5t-25 -10.5zM314 578q-15 0 -25 10.5t-10 25.5q0 14 10 24.5t25 10.5t25 -10.5t10 -24.5q0 -15 -10 -25.5t-25 -10.5zM228 -12q-72 0 -107 46t-35 144v198q0 75 -14 103h53v-301
q0 -155 107 -155q98 0 163 109v244q0 74 -12 103h51v-376q0 -76 13 -103h-55q0 43 4 81h-4q-25 -42 -69 -67.5t-95 -25.5z" />
    <glyph glyph-name="yacute" unicode="&#xfd;" horiz-adv-x="435" 
d="M195 575q79 56 135 149l32 -29q-57 -83 -153 -141zM72 -200q-9 0 -26 1.5t-24 1.5l12 56q15 -22 42 -22q88 0 128 127l12 36h-9l-149 371q-34 83 -55 108h68q-6 -28 22 -95l136 -342h3l117 342q24 68 18 95h65q-20 -28 -48 -108l-146 -420q-52 -151 -166 -151z" />
    <glyph glyph-name="thorn" unicode="&#xfe;" horiz-adv-x="539" 
d="M132 56v-153q0 -79 9 -103h-58q11 26 11 103v714q0 77 -11 103h60q-10 -26 -10 -103l-1 -199q60 73 156 73q97 0 148.5 -65t51.5 -185q0 -122 -52.5 -187.5t-148.5 -65.5q-93 0 -155 68zM286 24q77 0 119 58t42 159q0 99 -41.5 157t-119.5 58q-92 0 -153 -84v-265
q59 -83 153 -83z" />
    <glyph glyph-name="ydieresis" unicode="&#xff;" horiz-adv-x="435" 
d="M171 578q-15 0 -25 10.5t-10 25.5q0 14 10 24.5t25 10.5t25 -10.5t10 -24.5q0 -15 -10 -25.5t-25 -10.5zM293 578q-15 0 -25 10.5t-10 25.5q0 14 10 24.5t25 10.5t25 -10.5t10 -24.5q0 -15 -10 -25.5t-25 -10.5zM72 -200q-9 0 -26 1.5t-24 1.5l12 56q15 -22 42 -22
q88 0 128 127l12 36h-9l-149 371q-34 83 -55 108h68q-6 -28 22 -95l136 -342h3l117 342q24 68 18 95h65q-20 -28 -48 -108l-146 -420q-52 -151 -166 -151z" />
    <glyph glyph-name="Amacron" unicode="&#x100;" horiz-adv-x="560" 
d="M180 787h200v-35h-200v35zM248 659h62q-1 -23 22 -88l161 -458q29 -84 52 -113h-73q9 26 -19 107l-38 111h-272l-39 -111q-27 -79 -17 -107h-73q21 26 52 113l161 458q23 67 21 88zM155 253l248 1l-123 360h-3z" />
    <glyph glyph-name="amacron" unicode="&#x101;" horiz-adv-x="487" 
d="M144 630h200v-35h-200v35zM208 -12q-67 0 -108 35t-41 101q0 143 228 143h81v44q0 145 -128 145q-43 0 -81 -18.5t-55 -43.5l-24 48q1 0 59.5 24.5t102.5 24.5q165 0 165 -180v-191q0 -91 15 -120h-54l1 82h-3q-24 -41 -67 -67.5t-91 -26.5zM209 22q45 0 86.5 28t72.5 82
v100h-81q-187 0 -187 -108q0 -49 30 -75.5t79 -26.5z" />
    <glyph glyph-name="Abreve" unicode="&#x102;" horiz-adv-x="560" 
d="M279 716q-111 0 -109 142h28q0 -48 19.5 -79.5t61.5 -31.5q43 0 62.5 31.5t19.5 79.5h28q0 -142 -110 -142zM248 659h62q-1 -23 22 -88l161 -458q29 -84 52 -113h-73q9 26 -19 107l-38 111h-272l-39 -111q-27 -79 -17 -107h-73q21 26 52 113l161 458q23 67 21 88z
M155 253l248 1l-123 360h-3z" />
    <glyph glyph-name="abreve" unicode="&#x103;" horiz-adv-x="487" 
d="M243 559q-111 0 -109 142h28q0 -48 19.5 -79.5t61.5 -31.5q43 0 62.5 31.5t19.5 79.5h28q0 -142 -110 -142zM208 -12q-67 0 -108 35t-41 101q0 143 228 143h81v44q0 145 -128 145q-43 0 -81 -18.5t-55 -43.5l-24 48q1 0 59.5 24.5t102.5 24.5q165 0 165 -180v-191
q0 -91 15 -120h-54l1 82h-3q-24 -41 -67 -67.5t-91 -26.5zM209 22q45 0 86.5 28t72.5 82v100h-81q-187 0 -187 -108q0 -49 30 -75.5t79 -26.5z" />
    <glyph glyph-name="Aogonek" unicode="&#x104;" horiz-adv-x="560" 
d="M543 -130l16 -32q-27 -19 -60 -19q-34 0 -55.5 17t-21.5 52q0 31 23 61.5t60 50.5h-33q9 26 -19 107l-38 111h-272l-39 -111q-27 -79 -17 -107h-73q21 26 52 113l161 458q23 67 21 88h62q-1 -23 22 -88l161 -458q29 -84 52 -113q-39 -20 -63.5 -50t-24.5 -60
q0 -20 13 -31t31 -11q26 0 42 22zM155 253l248 1l-123 360h-3z" />
    <glyph glyph-name="aogonek" unicode="&#x105;" horiz-adv-x="487" 
d="M418 -130l16 -32q-27 -19 -60 -19q-34 0 -55.5 17t-21.5 52q0 31 23 61.5t60 50.5h-12l1 82h-3q-24 -41 -67 -67.5t-91 -26.5q-67 0 -108 35t-41 101q0 143 228 143h81v44q0 145 -128 145q-43 0 -81 -18.5t-55 -43.5l-24 48q1 0 59.5 24.5t102.5 24.5q165 0 165 -180
v-191q0 -91 15 -120h-2q-39 -20 -63.5 -50t-24.5 -60q0 -20 13 -31t31 -11q26 0 42 22zM368 132v100h-81q-187 0 -187 -108q0 -49 30 -75.5t79 -26.5q45 0 86.5 28t72.5 82z" />
    <glyph glyph-name="Cacute" unicode="&#x106;" horiz-adv-x="557" 
d="M290 739q79 56 135 149l32 -29q-57 -83 -153 -141zM321 -12q-124 0 -195 84t-71 259t70.5 257.5t193.5 82.5q95 0 185 -53l-25 -54q-19 29 -63 49.5t-96 20.5q-222 0 -222 -302q0 -158 59 -232.5t165 -74.5q60 0 106.5 18.5t68.5 46.5l21 -55q-111 -47 -197 -47z" />
    <glyph glyph-name="cacute" unicode="&#x107;" horiz-adv-x="455" 
d="M221 582q79 56 135 149l32 -29q-57 -83 -153 -141zM258 -12q-206 0 -206 251q0 133 56 192.5t150 59.5q23 0 47 -5.5t34.5 -9t34.5 -14.5l25 -12l-24 -50q-40 56 -117 56q-76 0 -120 -52.5t-44 -164.5q0 -114 42 -164.5t122 -50.5q90 0 132 56l23 -50q-4 -2 -21 -9
t-29.5 -11.5t-30.5 -10t-37 -8.5t-37 -3z" />
    <glyph glyph-name="Cdotaccent" unicode="&#x10a;" horiz-adv-x="557" 
d="M325 729q-36 0 -36 39q0 38 36 38t36 -38q0 -39 -36 -39zM321 -12q-124 0 -195 84t-71 259t70.5 257.5t193.5 82.5q95 0 185 -53l-25 -54q-19 29 -63 49.5t-96 20.5q-222 0 -222 -302q0 -158 59 -232.5t165 -74.5q60 0 106.5 18.5t68.5 46.5l21 -55q-111 -47 -197 -47z
" />
    <glyph glyph-name="cdotaccent" unicode="&#x10b;" horiz-adv-x="455" 
d="M256 572q-36 0 -36 39q0 38 36 38t36 -38q0 -39 -36 -39zM258 -12q-206 0 -206 251q0 133 56 192.5t150 59.5q23 0 47 -5.5t34.5 -9t34.5 -14.5l25 -12l-24 -50q-40 56 -117 56q-76 0 -120 -52.5t-44 -164.5q0 -114 42 -164.5t122 -50.5q90 0 132 56l23 -50q-4 -2 -21 -9
t-29.5 -11.5t-30.5 -10t-37 -8.5t-37 -3z" />
    <glyph glyph-name="Ccaron" unicode="&#x10c;" horiz-adv-x="557" 
d="M306 719q-47 85 -117 145l17 18q72 -54 117 -127h4q45 73 117 127l17 -18q-66 -57 -117 -145h-38zM321 -12q-124 0 -195 84t-71 259t70.5 257.5t193.5 82.5q95 0 185 -53l-25 -54q-19 29 -63 49.5t-96 20.5q-222 0 -222 -302q0 -158 59 -232.5t165 -74.5q60 0 106.5 18.5
t68.5 46.5l21 -55q-111 -47 -197 -47z" />
    <glyph glyph-name="ccaron" unicode="&#x10d;" horiz-adv-x="455" 
d="M237 562q-51 88 -117 145l17 18q72 -54 117 -127h4q45 73 117 127l17 -18q-66 -57 -117 -145h-38zM258 -12q-206 0 -206 251q0 133 56 192.5t150 59.5q23 0 47 -5.5t34.5 -9t34.5 -14.5l25 -12l-24 -50q-40 56 -117 56q-76 0 -120 -52.5t-44 -164.5q0 -114 42 -164.5
t122 -50.5q90 0 132 56l23 -50q-4 -2 -21 -9t-29.5 -11.5t-30.5 -10t-37 -8.5t-37 -3z" />
    <glyph glyph-name="Dcaron" unicode="&#x10e;" horiz-adv-x="604" 
d="M269 719q-51 88 -117 145l17 18q72 -54 117 -127h4q45 73 117 127l17 -18q-66 -57 -117 -145h-38zM85 659h150q165 0 239.5 -78t74.5 -249q0 -172 -75 -252t-239 -80h-150q15 24 15 103v453q0 49 -2.5 68.5t-12.5 34.5zM230 36q147 0 211.5 71t64.5 225q0 153 -64 222.5
t-212 69.5h-89v-588h89z" />
    <glyph glyph-name="dcaron" unicode="&#x10f;" horiz-adv-x="555" 
d="M259 -12q-96 0 -149 65t-53 187q0 121 53.5 186t149.5 65q93 0 153 -68v194q0 77 -11 103h59q-9 -27 -9 -103v-514q0 -77 10 -103h-49l1 56h-3q-58 -68 -152 -68zM525 548l-12 172h51l-13 -172h-26zM261 24q91 0 152 85v264q-62 83 -152 83q-77 0 -119.5 -58t-42.5 -158
q0 -101 42 -158.5t120 -57.5z" />
    <glyph glyph-name="Dcroat" unicode="&#x110;" horiz-adv-x="604" 
d="M235 659q165 0 239.5 -78t74.5 -249q0 -172 -75 -252t-239 -80h-150q15 24 15 103v225h-68v32h68v196q0 49 -2.5 68.5t-12.5 34.5h150zM230 36q147 0 211.5 71t64.5 225q0 153 -64 222.5t-212 69.5h-89v-264h203v-32h-203v-292h89z" />
    <glyph glyph-name="dcroat" unicode="&#x111;" horiz-adv-x="555" 
d="M518 557h-66v-454q0 -77 10 -103h-49l1 56h-3q-58 -68 -152 -68q-96 0 -149 65t-53 187q0 121 53.5 186t149.5 65q93 0 153 -68v134h-94v34h94v26q0 77 -11 103h59q-9 -27 -9 -103v-26h66v-34zM413 109v264q-62 83 -152 83q-77 0 -119.5 -58t-42.5 -158q0 -101 42 -158.5
t120 -57.5q91 0 152 85z" />
    <glyph glyph-name="Emacron" unicode="&#x112;" horiz-adv-x="505" 
d="M173 787h200v-35h-200v35zM85 659h179q146 0 179 6v-54q-27 13 -179 13h-125v-256h107q125 0 153 12v-59q-28 12 -153 12h-107v-297h134q160 0 185 12v-53q-37 5 -185 5h-188q15 26 15 103v453q0 77 -15 103z" />
    <glyph glyph-name="emacron" unicode="&#x113;" horiz-adv-x="503" 
d="M156 630h200v-35h-200v35zM266 -12q-104 0 -159 59t-55 192q0 132 56 192t149 60q86 0 135.5 -57.5t49.5 -161.5q0 -20 -2 -36h-346q1 -112 43.5 -162t130.5 -50q97 0 146 55l17 -50q-92 -41 -165 -41zM401 271q0 88 -38 136.5t-106 48.5q-75 0 -117 -47t-46 -138h307z
" />
    <glyph glyph-name="Edotaccent" unicode="&#x116;" horiz-adv-x="505" 
d="M272 729q-36 0 -36 39q0 38 36 38t36 -38q0 -39 -36 -39zM85 659h179q146 0 179 6v-54q-27 13 -179 13h-125v-256h107q125 0 153 12v-59q-28 12 -153 12h-107v-297h134q160 0 185 12v-53q-37 5 -185 5h-188q15 26 15 103v453q0 77 -15 103z" />
    <glyph glyph-name="edotaccent" unicode="&#x117;" horiz-adv-x="503" 
d="M255 572q-36 0 -36 39q0 38 36 38t36 -38q0 -39 -36 -39zM266 -12q-104 0 -159 59t-55 192q0 132 56 192t149 60q86 0 135.5 -57.5t49.5 -161.5q0 -20 -2 -36h-346q1 -112 43.5 -162t130.5 -50q97 0 146 55l17 -50q-92 -41 -165 -41zM401 271q0 88 -38 136.5t-106 48.5
q-75 0 -117 -47t-46 -138h307z" />
    <glyph glyph-name="Eogonek" unicode="&#x118;" horiz-adv-x="505" 
d="M456 -135l16 -32q-27 -19 -60 -19q-34 0 -55.5 17t-21.5 52q0 32 25 63.5t64 51.5q-52 2 -151 2h-188q15 26 15 103v453q0 77 -15 103h179q146 0 179 6v-54q-27 13 -179 13h-125v-256h107q125 0 153 12v-59q-28 12 -153 12h-107v-297h134q160 0 185 12v-53
q-39 -20 -63.5 -50t-24.5 -60q0 -20 13 -31t31 -11q26 0 42 22z" />
    <glyph glyph-name="eogonek" unicode="&#x119;" horiz-adv-x="503" 
d="M429 -101l16 -32q-27 -19 -60 -19q-34 0 -55.5 17t-21.5 52q0 43 43 83q-45 -12 -85 -12q-104 0 -159 59t-55 192q0 132 56 192t149 60q86 0 135.5 -57.5t49.5 -161.5q0 -20 -2 -36h-346q1 -112 43.5 -162t130.5 -50q97 0 146 55l17 -50q-39 -20 -63.5 -50t-24.5 -60
q0 -20 13 -31t31 -11q26 0 42 22zM257 456q-75 0 -117 -47t-46 -138h307q0 88 -38 136.5t-106 48.5z" />
    <glyph glyph-name="Ecaron" unicode="&#x11a;" horiz-adv-x="505" 
d="M253 719q-51 88 -117 145l17 18q72 -54 117 -127h4q45 73 117 127l17 -18q-66 -57 -117 -145h-38zM85 659h179q146 0 179 6v-54q-27 13 -179 13h-125v-256h107q125 0 153 12v-59q-28 12 -153 12h-107v-297h134q160 0 185 12v-53q-37 5 -185 5h-188q15 26 15 103v453
q0 77 -15 103z" />
    <glyph glyph-name="ecaron" unicode="&#x11b;" horiz-adv-x="503" 
d="M236 562q-51 88 -117 145l17 18q72 -54 117 -127h4q45 73 117 127l17 -18q-66 -57 -117 -145h-38zM266 -12q-104 0 -159 59t-55 192q0 132 56 192t149 60q86 0 135.5 -57.5t49.5 -161.5q0 -20 -2 -36h-346q1 -112 43.5 -162t130.5 -50q97 0 146 55l17 -50
q-92 -41 -165 -41zM401 271q0 88 -38 136.5t-106 48.5q-75 0 -117 -47t-46 -138h307z" />
    <glyph glyph-name="Gbreve" unicode="&#x11e;" horiz-adv-x="600" 
d="M312 716q-111 0 -109 142h28q0 -48 19.5 -79.5t61.5 -31.5q43 0 62.5 31.5t19.5 79.5h28q0 -142 -110 -142zM326 -12q-128 0 -199.5 79.5t-71.5 263.5q0 340 270 340q111 0 186 -61l-29 -48q-44 72 -157 72q-109 0 -168 -68t-59 -234q0 -168 58.5 -237t169.5 -69
q107 0 158 51v206h-50q-80 0 -110 -10v52q35 -5 110 -5h99q-9 -26 -9 -114v-38q0 -77 5 -110q-88 -70 -203 -70z" />
    <glyph glyph-name="gbreve" unicode="&#x11f;" horiz-adv-x="482" 
d="M236 553q-111 0 -109 142h28q0 -48 19.5 -79.5t61.5 -31.5q43 0 62.5 31.5t19.5 79.5h28q0 -142 -110 -142zM253 55q109 0 157.5 -31t48.5 -94q0 -130 -213 -130q-92 0 -143 32.5t-51 95.5q0 38 23.5 68.5t62.5 48.5q-26 23 -26 62q0 40 35 69q-78 45 -78 147
q0 81 46.5 124.5t120.5 43.5q37 0 63 -12h67q56 0 90 6v-53q-28 15 -106 15v-3q53 -46 53 -122q0 -78 -47 -123t-120 -45q-30 0 -59 9q-28 -22 -28 -54q0 -30 21.5 -42t82.5 -12zM109 323q0 -68 36 -101.5t91 -33.5t91 33.5t36 101.5q0 60 -37 97t-90 37q-55 0 -91 -33
t-36 -101zM247 -165q171 0 171 95q0 44 -37.5 66t-127.5 22q-53 0 -85 11q-77 -38 -77 -101q0 -93 156 -93z" />
    <glyph glyph-name="Gdotaccent" unicode="&#x120;" horiz-adv-x="600" 
d="M312 729q-36 0 -36 39q0 38 36 38t36 -38q0 -39 -36 -39zM326 -12q-128 0 -199.5 79.5t-71.5 263.5q0 340 270 340q111 0 186 -61l-29 -48q-44 72 -157 72q-109 0 -168 -68t-59 -234q0 -168 58.5 -237t169.5 -69q107 0 158 51v206h-50q-80 0 -110 -10v52q35 -5 110 -5h99
q-9 -26 -9 -114v-38q0 -77 5 -110q-88 -70 -203 -70z" />
    <glyph glyph-name="gdotaccent" unicode="&#x121;" horiz-adv-x="482" 
d="M237 565q-36 0 -36 39q0 38 36 38t36 -38q0 -39 -36 -39zM253 55q109 0 157.5 -31t48.5 -94q0 -130 -213 -130q-92 0 -143 32.5t-51 95.5q0 38 23.5 68.5t62.5 48.5q-26 23 -26 62q0 40 35 69q-78 45 -78 147q0 81 46.5 124.5t120.5 43.5q37 0 63 -12h67q56 0 90 6v-53
q-28 15 -106 15v-3q53 -46 53 -122q0 -78 -47 -123t-120 -45q-30 0 -59 9q-28 -22 -28 -54q0 -30 21.5 -42t82.5 -12zM109 323q0 -68 36 -101.5t91 -33.5t91 33.5t36 101.5q0 60 -37 97t-90 37q-55 0 -91 -33t-36 -101zM247 -165q171 0 171 95q0 44 -37.5 66t-127.5 22
q-53 0 -85 11q-77 -38 -77 -101q0 -93 156 -93z" />
    <glyph glyph-name="uni0122" unicode="&#x122;" horiz-adv-x="600" 
d="M326 -12q-128 0 -199.5 79.5t-71.5 263.5q0 340 270 340q111 0 186 -61l-29 -48q-44 72 -157 72q-109 0 -168 -68t-59 -234q0 -168 58.5 -237t169.5 -69q107 0 158 51v206h-50q-80 0 -110 -10v52q35 -5 110 -5h99q-9 -26 -9 -114v-38q0 -77 5 -110q-88 -70 -203 -70z
M321 -43q41 0 41 -52q0 -34 -19.5 -66.5t-53.5 -46.5l-10 17q48 23 52 77q-2 -2 -11 -2q-12 0 -22 10t-10 26q0 37 33 37z" />
    <glyph glyph-name="uni0123" unicode="&#x123;" horiz-adv-x="482" 
d="M235 542q-19 0 -30.5 14t-11.5 37q0 35 19.5 67t54.5 46l10 -16q-48 -23 -52 -77q4 2 11 2q12 0 22.5 -10t10.5 -26q0 -37 -34 -37zM253 55q109 0 157.5 -31t48.5 -94q0 -130 -213 -130q-92 0 -143 32.5t-51 95.5q0 38 23.5 68.5t62.5 48.5q-26 23 -26 62q0 40 35 69
q-78 45 -78 147q0 81 46.5 124.5t120.5 43.5q37 0 63 -12h67q56 0 90 6v-53q-28 15 -106 15v-3q53 -46 53 -122q0 -78 -47 -123t-120 -45q-30 0 -59 9q-28 -22 -28 -54q0 -30 21.5 -42t82.5 -12zM109 323q0 -68 36 -101.5t91 -33.5t91 33.5t36 101.5q0 60 -37 97t-90 37
q-55 0 -91 -33t-36 -101zM247 -165q171 0 171 95q0 44 -37.5 66t-127.5 22q-53 0 -85 11q-77 -38 -77 -101q0 -93 156 -93z" />
    <glyph glyph-name="Hbar" unicode="&#x126;" horiz-adv-x="636" 
d="M601 488h-65v-385q0 -75 15 -103h-72q16 25 16 103v230h-354v-230q0 -75 15 -103h-71q16 27 16 103v385h-65v33h65v35q0 76 -16 103h71q-15 -27 -15 -103v-35h354v35q0 78 -16 103h72q-15 -27 -15 -103v-35h65v-33zM495 369v119h-354v-119h354z" />
    <glyph glyph-name="hbar" unicode="&#x127;" horiz-adv-x="526" 
d="M392 0q13 25 13 103v200q0 81 -27.5 117t-83.5 36q-91 0 -161 -99v-254q0 -78 12 -103h-64q13 25 13 103v456h-78v35h78v23q0 78 -13 103h64q-12 -25 -12 -103v-23h124v-35h-124v-116q0 -29 -3 -40h3q30 39 73 63.5t90 24.5q148 0 148 -188v-200q0 -78 13 -103h-65z" />
    <glyph glyph-name="Imacron" unicode="&#x12a;" horiz-adv-x="255" 
d="M29 787h200v-35h-200v35zM148 103q0 -75 15 -103h-71q15 25 15 103v453q0 78 -15 103h71q-15 -27 -15 -103v-453z" />
    <glyph glyph-name="imacron" unicode="&#x12b;" horiz-adv-x="219" 
d="M11 630h200v-35h-200v35zM81 0q9 30 9 103v273q0 75 -9 103h55q-7 -31 -7 -103v-273q0 -74 10 -103h-58z" />
    <glyph glyph-name="Iogonek" unicode="&#x12e;" horiz-adv-x="255" 
d="M161 -130l16 -32q-27 -19 -60 -19q-34 0 -55.5 17t-21.5 52q0 31 23 61.5t60 50.5h-31q15 25 15 103v453q0 78 -15 103h71q-15 -27 -15 -103v-453q0 -75 15 -103q-39 -20 -63.5 -50t-24.5 -60q0 -20 13 -31t31 -11q26 0 42 22z" />
    <glyph glyph-name="iogonek" unicode="&#x12f;" horiz-adv-x="230" 
d="M115 591q-34 0 -34 37q0 36 34 36t34 -36q0 -37 -34 -37zM142 -130l16 -32q-27 -19 -60 -19q-34 0 -55.5 17t-21.5 52q0 31 23 61.5t60 50.5h-22q12 25 12 103v273q0 78 -12 103h61q-10 -26 -10 -103v-273q0 -78 13 -103h-2q-39 -20 -63.5 -50t-24.5 -60q0 -20 13 -31
t31 -11q26 0 42 22z" />
    <glyph glyph-name="Idotaccent" unicode="&#x130;" horiz-adv-x="255" 
d="M128 729q-36 0 -36 39q0 38 36 38t36 -38q0 -39 -36 -39zM148 103q0 -75 15 -103h-71q15 25 15 103v453q0 78 -15 103h71q-15 -27 -15 -103v-453z" />
    <glyph glyph-name="dotlessi" unicode="&#x131;" horiz-adv-x="219" 
d="M81 0q9 30 9 103v273q0 75 -9 103h55q-7 -31 -7 -103v-273q0 -74 10 -103h-58z" />
    <glyph glyph-name="uni0136" unicode="&#x136;" horiz-adv-x="570" 
d="M85 659h71q-15 -27 -15 -103v-272h3l262 304q38 44 46 71h81q-6 -4 -11.5 -8t-11 -8.5t-9.5 -7.5t-10 -9l-8.5 -8.5t-9.5 -10.5t-9.5 -10.5t-11 -12.5t-11.5 -13l-140 -162l178 -297q39 -65 82 -112h-79q0 25 -39 92l-171 285l-131 -152v-122q0 -75 15 -103h-71
q16 27 16 103v453q0 76 -16 103zM302 -43q41 0 41 -52q0 -34 -19.5 -66.5t-53.5 -46.5l-10 17q48 23 52 77q-2 -2 -11 -2q-12 0 -22 10t-10 26q0 37 33 37z" />
    <glyph glyph-name="uni0137" unicode="&#x137;" horiz-adv-x="459" 
d="M81 720h63q-12 -25 -12 -103v-400q0 -24 -1 -34h3l184 225q37 47 41 71h75q-34 -25 -89 -91l-81 -99l123 -192q40 -63 75 -97h-73q-4 31 -37 84l-111 175l-109 -128v-28q0 -78 13 -103h-64q13 25 13 103v514q0 78 -13 103zM260 -43q41 0 41 -52q0 -34 -19.5 -66.5
t-53.5 -46.5l-10 17q48 23 52 77q-2 -2 -11 -2q-12 0 -22 10t-10 26q0 37 33 37z" />
    <glyph glyph-name="Lacute" unicode="&#x139;" horiz-adv-x="455" 
d="M92 739q79 56 135 149l32 -29q-57 -83 -153 -141zM85 659h71q-15 -27 -15 -103v-521h130q130 0 160 15v-55q-40 5 -160 5h-186q16 27 16 103v453q0 76 -16 103z" />
    <glyph glyph-name="lacute" unicode="&#x13a;" horiz-adv-x="226" 
d="M77 800q79 56 135 149l32 -29q-57 -83 -153 -141zM81 0q13 25 13 103v514q0 78 -13 103h62q-10 -26 -10 -103v-514q0 -78 12 -103h-64z" />
    <glyph glyph-name="uni013B" unicode="&#x13b;" horiz-adv-x="455" 
d="M85 659h71q-15 -27 -15 -103v-521h130q130 0 160 15v-55q-40 5 -160 5h-186q16 27 16 103v453q0 76 -16 103zM271 -43q41 0 41 -52q0 -34 -19.5 -66.5t-53.5 -46.5l-10 17q48 23 52 77q-2 -2 -11 -2q-12 0 -22 10t-10 26q0 37 33 37z" />
    <glyph glyph-name="uni013C" unicode="&#x13c;" horiz-adv-x="226" 
d="M81 0q13 25 13 103v514q0 78 -13 103h62q-10 -26 -10 -103v-514q0 -78 12 -103h-64zM113 -43q41 0 41 -52q0 -34 -19.5 -66.5t-53.5 -46.5l-10 17q48 23 52 77q-2 -2 -11 -2q-12 0 -22 10t-10 26q0 37 33 37z" />
    <glyph glyph-name="Lcaron" unicode="&#x13d;" horiz-adv-x="486" 
d="M85 659h71q-15 -27 -15 -103v-521h130q130 0 160 15v-55q-40 5 -160 5h-186q16 27 16 103v453q0 76 -16 103zM295 467l-9 188h41l-9 -188h-23z" />
    <glyph glyph-name="lcaron" unicode="&#x13e;" horiz-adv-x="226" 
d="M94 780q-51 88 -117 145l17 18q72 -54 117 -127h4q45 73 117 127l17 -18q-66 -57 -117 -145h-38zM81 0q13 25 13 103v514q0 78 -13 103h62q-10 -26 -10 -103v-514q0 -78 12 -103h-64z" />
    <glyph glyph-name="Lslash" unicode="&#x141;" horiz-adv-x="455" 
d="M271 35q130 0 160 15v-55q-40 5 -160 5h-186q16 27 16 103v219l-67 -12l-6 29l73 13v204q0 76 -16 103h71q-15 -27 -15 -103v-197l95 17l5 -29l-100 -18v-294h130z" />
    <glyph glyph-name="lslash" unicode="&#x142;" horiz-adv-x="228" 
d="M133 342v-239q0 -78 12 -103h-64q13 25 13 103v231l-65 -14l-7 34l72 15v248q0 78 -13 103h62q-10 -26 -10 -103v-240l65 14l7 -34z" />
    <glyph glyph-name="Nacute" unicode="&#x143;" horiz-adv-x="639" 
d="M289 739q79 56 135 149l32 -29q-57 -83 -153 -141zM85 659h62l354 -590h4q-6 50 -6 136v351q0 76 -15 103h70q-15 -25 -15 -103v-449q0 -78 8 -107h-49l-361 600h-3q6 -46 6 -133v-364q0 -78 15 -103h-70q15 28 15 103v453q0 77 -15 103z" />
    <glyph glyph-name="nacute" unicode="&#x144;" horiz-adv-x="526" 
d="M232 582q79 56 135 149l32 -29q-57 -83 -153 -141zM81 486h50q0 -56 -1 -83h3q29 38 72.5 63t91.5 25q147 0 147 -186v-185q0 -90 13 -120h-65q13 30 13 120v185q0 79 -27.5 115t-84.5 36q-90 0 -160 -99v-237q0 -89 10 -120h-62q13 30 13 120v247q0 89 -13 119z" />
    <glyph glyph-name="uni0145" unicode="&#x145;" horiz-adv-x="639" 
d="M85 659h62l354 -590h4q-6 50 -6 136v351q0 76 -15 103h70q-15 -25 -15 -103v-449q0 -78 8 -107h-49l-361 600h-3q6 -46 6 -133v-364q0 -78 15 -103h-70q15 28 15 103v453q0 77 -15 103zM316 -43q41 0 41 -52q0 -34 -19.5 -66.5t-53.5 -46.5l-10 17q48 23 52 77
q-2 -2 -11 -2q-12 0 -22 10t-10 26q0 37 33 37z" />
    <glyph glyph-name="uni0146" unicode="&#x146;" horiz-adv-x="526" 
d="M81 486h50q0 -56 -1 -83h3q29 38 72.5 63t91.5 25q147 0 147 -186v-185q0 -90 13 -120h-65q13 30 13 120v185q0 79 -27.5 115t-84.5 36q-90 0 -160 -99v-237q0 -89 10 -120h-62q13 30 13 120v247q0 89 -13 119zM272 -43q41 0 41 -52q0 -34 -19.5 -66.5t-53.5 -46.5
l-10 17q48 23 52 77q-2 -2 -11 -2q-12 0 -22 10t-10 26q0 37 33 37z" />
    <glyph glyph-name="Ncaron" unicode="&#x147;" horiz-adv-x="639" 
d="M306 719q-47 85 -117 145l17 18q72 -54 117 -127h4q45 73 117 127l17 -18q-66 -57 -117 -145h-38zM85 659h62l354 -590h4q-6 50 -6 136v351q0 76 -15 103h70q-15 -25 -15 -103v-449q0 -78 8 -107h-49l-361 600h-3q6 -46 6 -133v-364q0 -78 15 -103h-70q15 28 15 103v453
q0 77 -15 103z" />
    <glyph glyph-name="ncaron" unicode="&#x148;" horiz-adv-x="526" 
d="M248 562q-51 88 -117 145l17 18q72 -54 117 -127h4q45 73 117 127l17 -18q-66 -57 -117 -145h-38zM81 486h50q0 -56 -1 -83h3q29 38 72.5 63t91.5 25q147 0 147 -186v-185q0 -90 13 -120h-65q13 30 13 120v185q0 79 -27.5 115t-84.5 36q-90 0 -160 -99v-237
q0 -89 10 -120h-62q13 30 13 120v247q0 89 -13 119z" />
    <glyph glyph-name="Eng" unicode="&#x14a;" horiz-adv-x="646" 
d="M484 659h70q-15 -25 -15 -103v-619q0 -137 -104 -137q-11 0 -33.5 3t-29.5 3l14 50q16 -21 49 -21q38 0 52 27t14 78v60h-3l-361 602h-2q5 -93 5 -166v-333q0 -78 15 -103h-70q15 28 15 103v453q0 77 -15 103h62l354 -591h3q-5 95 -5 169v319q0 76 -15 103z" />
    <glyph glyph-name="eng" unicode="&#x14b;" horiz-adv-x="526" 
d="M83 486h47l1 -83h1q70 88 166 88q146 0 146 -190v-308q0 -72 -25.5 -106t-78.5 -34q-24 0 -61 10l10 49q19 -24 51 -24q38 0 51.5 27t13.5 78v308q0 81 -27 118t-83 37q-90 0 -162 -99v-237q0 -89 10 -120h-60q11 31 11 120v246q0 89 -11 120z" />
    <glyph glyph-name="Omacron" unicode="&#x14c;" horiz-adv-x="649" 
d="M227 787h200v-35h-200v35zM324 -12q-118 0 -193.5 87t-75.5 257q0 174 74.5 256.5t194.5 82.5q121 0 195.5 -82.5t74.5 -256.5q0 -170 -75.5 -257t-194.5 -87zM324 26q100 0 163.5 77.5t63.5 228.5q0 155 -62.5 228.5t-164.5 73.5t-164 -73.5t-62 -228.5
q0 -151 63 -228.5t163 -77.5z" />
    <glyph glyph-name="omacron" unicode="&#x14d;" horiz-adv-x="530" 
d="M166 630h200v-35h-200v35zM266 -12q-98 0 -156 63t-58 188q0 126 58 189t156 63t155.5 -63t57.5 -189q0 -125 -57.5 -188t-155.5 -63zM266 24q82 0 127 54.5t45 160.5q0 105 -45 161t-127 56t-127 -56t-45 -161q0 -106 45 -160.5t127 -54.5z" />
    <glyph glyph-name="Ohungarumlaut" unicode="&#x150;" horiz-adv-x="649" 
d="M241 725q57 73 86 167l32 -18q-31 -87 -97 -161zM373 725q57 73 86 167l32 -18q-31 -87 -97 -161zM324 -12q-118 0 -193.5 87t-75.5 257q0 174 74.5 256.5t194.5 82.5q121 0 195.5 -82.5t74.5 -256.5q0 -170 -75.5 -257t-194.5 -87zM324 26q100 0 163.5 77.5t63.5 228.5
q0 155 -62.5 228.5t-164.5 73.5t-164 -73.5t-62 -228.5q0 -151 63 -228.5t163 -77.5z" />
    <glyph glyph-name="ohungarumlaut" unicode="&#x151;" horiz-adv-x="530" 
d="M180 568q57 73 86 167l32 -18q-31 -87 -97 -161zM312 568q57 73 86 167l32 -18q-31 -87 -97 -161zM266 -12q-98 0 -156 63t-58 188q0 126 58 189t156 63t155.5 -63t57.5 -189q0 -125 -57.5 -188t-155.5 -63zM266 24q82 0 127 54.5t45 160.5q0 105 -45 161t-127 56
t-127 -56t-45 -161q0 -106 45 -160.5t127 -54.5z" />
    <glyph glyph-name="OE" unicode="&#x152;" horiz-adv-x="822" 
d="M590 36q160 0 185 12v-53q-37 5 -185 5h-185q-37 -12 -81 -12q-118 0 -193.5 87t-75.5 257q0 174 74.5 256.5t194.5 82.5q46 0 86 -12h171q146 0 180 6v-54q-29 13 -180 13h-123v-256h105q126 0 153 12v-59q-27 12 -153 12h-105v-297h132zM98 332q0 -151 63 -228.5
t163 -77.5q53 0 93 20q2 14 2 57v453q0 31 -2 59q-41 19 -93 19q-102 0 -164 -73.5t-62 -228.5z" />
    <glyph glyph-name="oe" unicode="&#x153;" horiz-adv-x="891" 
d="M829 272q0 -20 -2 -36h-346q1 -112 43.5 -162t130.5 -50q96 0 147 55l17 -50q-95 -41 -165 -41q-153 0 -196 124q-48 -124 -192 -124q-98 0 -156 63t-58 188q0 126 58 189t156 63q145 0 193 -126q44 126 185 126q86 0 135.5 -57.5t49.5 -161.5zM266 24q82 0 127 54.5
t45 160.5q0 105 -45 161t-127 56t-127 -56t-45 -161q0 -106 45 -160.5t127 -54.5zM481 271h307q0 88 -38 136.5t-106 48.5q-74 0 -116.5 -47t-46.5 -138z" />
    <glyph glyph-name="Racute" unicode="&#x154;" horiz-adv-x="554" 
d="M237 739q79 56 135 149l32 -29q-57 -83 -153 -141zM85 663h183q117 0 175.5 -43t58.5 -144q0 -162 -159 -190l103 -180q38 -66 76 -106h-77q1 16 -6 33.5t-31 57.5l-109 190h-158v-178q0 -75 15 -103h-70q15 28 15 103v457q0 76 -16 103zM266 316q193 0 193 160
q0 84 -48 117.5t-153 33.5h-117v-311h125z" />
    <glyph glyph-name="racute" unicode="&#x155;" horiz-adv-x="330" 
d="M143 582q79 56 135 149l32 -29q-57 -83 -153 -141zM81 479h51q0 -65 -1 -94h3q17 48 52 77t78 29q10 0 28 -1.5t25 -0.5l-11 -54q-15 20 -49 20q-36 0 -70.5 -36t-53.5 -99v-217q0 -78 12 -103h-64q13 25 13 103v273q0 78 -13 103z" />
    <glyph glyph-name="uni0156" unicode="&#x156;" horiz-adv-x="554" 
d="M85 663h183q117 0 175.5 -43t58.5 -144q0 -162 -159 -190l103 -180q38 -66 76 -106h-77q1 16 -6 33.5t-31 57.5l-109 190h-158v-178q0 -75 15 -103h-70q15 28 15 103v457q0 76 -16 103zM266 316q193 0 193 160q0 84 -48 117.5t-153 33.5h-117v-311h125zM288 -43
q41 0 41 -52q0 -34 -19.5 -66.5t-53.5 -46.5l-10 17q48 23 52 77q-2 -2 -11 -2q-12 0 -22 10t-10 26q0 37 33 37z" />
    <glyph glyph-name="uni0157" unicode="&#x157;" horiz-adv-x="330" 
d="M81 479h51q0 -65 -1 -94h3q17 48 52 77t78 29q10 0 28 -1.5t25 -0.5l-11 -54q-15 20 -49 20q-36 0 -70.5 -36t-53.5 -99v-217q0 -78 12 -103h-64q13 25 13 103v273q0 78 -13 103zM116 -43q41 0 41 -52q0 -34 -19.5 -66.5t-53.5 -46.5l-10 17q48 23 52 77q-2 -2 -11 -2
q-12 0 -22 10t-10 26q0 37 33 37z" />
    <glyph glyph-name="Rcaron" unicode="&#x158;" horiz-adv-x="554" 
d="M253 719q-51 88 -117 145l17 18q72 -54 117 -127h4q45 73 117 127l17 -18q-66 -57 -117 -145h-38zM85 663h183q117 0 175.5 -43t58.5 -144q0 -162 -159 -190l103 -180q38 -66 76 -106h-77q1 16 -6 33.5t-31 57.5l-109 190h-158v-178q0 -75 15 -103h-70q15 28 15 103v457
q0 76 -16 103zM266 316q193 0 193 160q0 84 -48 117.5t-153 33.5h-117v-311h125z" />
    <glyph glyph-name="rcaron" unicode="&#x159;" horiz-adv-x="330" 
d="M160 562q-51 88 -117 145l17 18q72 -54 117 -127h4q45 73 117 127l17 -18q-66 -57 -117 -145h-38zM81 479h51q0 -65 -1 -94h3q17 48 52 77t78 29q10 0 28 -1.5t25 -0.5l-11 -54q-15 20 -49 20q-36 0 -70.5 -36t-53.5 -99v-217q0 -78 12 -103h-64q13 25 13 103v273
q0 78 -13 103z" />
    <glyph glyph-name="Sacute" unicode="&#x15a;" horiz-adv-x="533" 
d="M235 739q79 56 135 149l32 -29q-57 -83 -153 -141zM272 -12q-122 0 -222 64l27 65q56 -92 195 -92q75 0 119 38.5t44 102.5q0 59 -29.5 89.5t-89.5 51.5l-97 34q-136 48 -136 170q0 71 52.5 115.5t131.5 44.5q93 0 183 -52l-26 -55q-48 70 -157 70q-63 0 -103 -33.5
t-40 -87.5q0 -96 113 -134l96 -34q69 -25 106.5 -65t37.5 -112q0 -79 -56.5 -129.5t-148.5 -50.5z" />
    <glyph glyph-name="sacute" unicode="&#x15b;" horiz-adv-x="412" 
d="M174 582q79 56 135 149l32 -29q-57 -83 -153 -141zM205 -12q-41 0 -104.5 19.5t-66.5 20.5l23 62q17 -30 58.5 -48.5t89.5 -18.5q123 0 123 101q0 66 -112 101l-25 8q-130 41 -130 135q0 57 41 90t109 33q25 0 49.5 -5t56.5 -16t36 -12l-22 -57q-35 55 -120 55
q-51 0 -81.5 -23.5t-30.5 -63.5q0 -68 103 -99l25 -7q141 -42 141 -138q0 -64 -42 -100.5t-121 -36.5z" />
    <glyph glyph-name="Scedilla" unicode="&#x15e;" horiz-adv-x="533" 
d="M477 168q0 -76 -53 -126t-140 -54l-18 -41q71 -17 71 -68q0 -76 -143 -84l-6 31q113 4 113 51q0 22 -18 33.5t-60 16.5l31 61q-112 5 -204 64l27 65q56 -92 195 -92q75 0 119 38.5t44 102.5q0 59 -29.5 89.5t-89.5 51.5l-97 34q-136 48 -136 170q0 71 52.5 115.5
t131.5 44.5q93 0 183 -52l-26 -55q-48 70 -157 70q-63 0 -103 -33.5t-40 -87.5q0 -96 113 -134l96 -34q69 -25 106.5 -65t37.5 -112z" />
    <glyph glyph-name="scedilla" unicode="&#x15f;" horiz-adv-x="412" 
d="M368 125q0 -60 -37 -96t-107 -40l-19 -42q71 -17 71 -68q0 -76 -143 -84l-6 31q113 4 113 51q0 22 -18 33.5t-60 16.5l31 61q-38 2 -95.5 20.5t-63.5 19.5l23 62q17 -30 58.5 -48.5t89.5 -18.5q123 0 123 101q0 66 -112 101l-25 8q-130 41 -130 135q0 57 41 90t109 33
q25 0 49.5 -5t56.5 -16t36 -12l-22 -57q-35 55 -120 55q-51 0 -81.5 -23.5t-30.5 -63.5q0 -68 103 -99l25 -7q141 -42 141 -138z" />
    <glyph glyph-name="Scaron" unicode="&#x160;" horiz-adv-x="533" 
d="M252 719q-51 88 -117 145l17 18q72 -54 117 -127h4q45 73 117 127l17 -18q-66 -57 -117 -145h-38zM272 -12q-122 0 -222 64l27 65q56 -92 195 -92q75 0 119 38.5t44 102.5q0 59 -29.5 89.5t-89.5 51.5l-97 34q-136 48 -136 170q0 71 52.5 115.5t131.5 44.5q93 0 183 -52
l-26 -55q-48 70 -157 70q-63 0 -103 -33.5t-40 -87.5q0 -96 113 -134l96 -34q69 -25 106.5 -65t37.5 -112q0 -79 -56.5 -129.5t-148.5 -50.5z" />
    <glyph glyph-name="scaron" unicode="&#x161;" horiz-adv-x="412" 
d="M191 562q-51 88 -117 145l17 18q72 -54 117 -127h4q45 73 117 127l17 -18q-66 -57 -117 -145h-38zM205 -12q-41 0 -104.5 19.5t-66.5 20.5l23 62q17 -30 58.5 -48.5t89.5 -18.5q123 0 123 101q0 66 -112 101l-25 8q-130 41 -130 135q0 57 41 90t109 33q25 0 49.5 -5
t56.5 -16t36 -12l-22 -57q-35 55 -120 55q-51 0 -81.5 -23.5t-30.5 -63.5q0 -68 103 -99l25 -7q141 -42 141 -138q0 -64 -42 -100.5t-121 -36.5z" />
    <glyph glyph-name="uni0162" unicode="&#x162;" horiz-adv-x="500" 
d="M369 659q69 0 103 6v-56q-29 15 -103 15h-98v-521q0 -75 15 -103h-19l-24 -53q71 -17 71 -68q0 -76 -143 -84l-6 31q113 4 113 51q0 22 -18 33.5t-60 16.5l37 73h-22q15 30 15 103v521h-99q-74 0 -103 -15v56q34 -6 103 -6h238z" />
    <glyph glyph-name="uni0163" unicode="&#x163;" horiz-adv-x="314" 
d="M197 -53q71 -17 71 -68q0 -76 -143 -84l-6 31q113 4 113 51q0 22 -18 33.5t-60 16.5l32 64q-81 18 -81 139v319h-71v28q66 3 110 80v-78h132v-38q-29 8 -132 8v-319q0 -53 17.5 -80t63.5 -27q37 0 62 25l11 -51q-13 -1 -40 -5t-37 -4h-6z" />
    <glyph glyph-name="Tcaron" unicode="&#x164;" horiz-adv-x="500" 
d="M232 702q-51 88 -117 145l17 18q72 -54 117 -127h4q45 73 117 127l17 -18q-66 -57 -117 -145h-38zM230 624h-99q-74 0 -103 -15v56q34 -6 103 -6h238q69 0 103 6v-56q-29 15 -103 15h-98v-521q0 -75 15 -103h-71q15 30 15 103v521z" />
    <glyph glyph-name="tcaron" unicode="&#x165;" horiz-adv-x="314" 
d="M211 534l-6 145h37l-6 -145h-25zM221 -12q-64 0 -90 37t-26 105v319h-71v28q66 3 110 80v-78h132v-38q-29 8 -132 8v-319q0 -53 17.5 -80t63.5 -27q37 0 62 25l11 -51q-13 -1 -40 -5t-37 -4z" />
    <glyph glyph-name="Tbar" unicode="&#x166;" horiz-adv-x="500" 
d="M369 624h-98v-282h106v-33h-106v-206q0 -75 15 -103h-71q15 30 15 103v206h-106v33h106v282h-99q-74 0 -103 -15v56q34 -6 103 -6h238q69 0 103 6v-56q-29 15 -103 15z" />
    <glyph glyph-name="tbar" unicode="&#x167;" horiz-adv-x="314" 
d="M287 48l11 -51q-13 -1 -40 -5t-37 -4q-64 0 -90 37t-26 105v119h-67v33h67v167h-71v28q66 3 110 80v-78h132v-38q-29 8 -132 8v-167h108v-33h-108v-119q0 -53 17.5 -80t63.5 -27q37 0 62 25z" />
    <glyph glyph-name="Umacron" unicode="&#x16a;" horiz-adv-x="627" 
d="M214 787h200v-35h-200v35zM313 -12q-45 0 -82 12.5t-69 41t-50 81.5t-18 127v310q0 76 -16 103h71q-15 -27 -15 -103v-304q0 -123 49.5 -177t129.5 -54q81 0 131.5 53.5t50.5 177.5v304q0 78 -15 103h69q-15 -25 -15 -103v-310q0 -141 -62.5 -201.5t-158.5 -60.5z" />
    <glyph glyph-name="umacron" unicode="&#x16b;" horiz-adv-x="527" 
d="M152 624h200v-35h-200v35zM228 -12q-72 0 -107 46t-35 144v198q0 75 -14 103h53v-301q0 -155 107 -155q98 0 163 109v244q0 74 -12 103h51v-376q0 -76 13 -103h-55q0 43 4 81h-4q-25 -42 -69 -67.5t-95 -25.5z" />
    <glyph glyph-name="Uring" unicode="&#x16e;" horiz-adv-x="627" 
d="M313 717q-38 0 -63 21.5t-25 56.5q0 36 25 57t63 21t63 -21t25 -57q0 -35 -25 -56.5t-63 -21.5zM313 744q24 0 40 12.5t16 38.5t-16 38.5t-40 12.5t-40 -12.5t-16 -38.5t16 -38.5t40 -12.5zM313 -12q-45 0 -82 12.5t-69 41t-50 81.5t-18 127v310q0 76 -16 103h71
q-15 -27 -15 -103v-304q0 -123 49.5 -177t129.5 -54q81 0 131.5 53.5t50.5 177.5v304q0 78 -15 103h69q-15 -25 -15 -103v-310q0 -141 -62.5 -201.5t-158.5 -60.5z" />
    <glyph glyph-name="uring" unicode="&#x16f;" horiz-adv-x="527" 
d="M251 553q-38 0 -63 21.5t-25 56.5q0 36 25 57t63 21t63 -21t25 -57q0 -35 -25 -56.5t-63 -21.5zM251 580q24 0 40 12.5t16 38.5t-16 38.5t-40 12.5t-40 -12.5t-16 -38.5t16 -38.5t40 -12.5zM228 -12q-72 0 -107 46t-35 144v198q0 75 -14 103h53v-301q0 -155 107 -155
q98 0 163 109v244q0 74 -12 103h51v-376q0 -76 13 -103h-55q0 43 4 81h-4q-25 -42 -69 -67.5t-95 -25.5z" />
    <glyph glyph-name="Uhungarumlaut" unicode="&#x170;" horiz-adv-x="627" 
d="M228 725q57 73 86 167l32 -18q-31 -87 -97 -161zM360 725q57 73 86 167l32 -18q-31 -87 -97 -161zM313 -12q-45 0 -82 12.5t-69 41t-50 81.5t-18 127v310q0 76 -16 103h71q-15 -27 -15 -103v-304q0 -123 49.5 -177t129.5 -54q81 0 131.5 53.5t50.5 177.5v304
q0 78 -15 103h69q-15 -25 -15 -103v-310q0 -141 -62.5 -201.5t-158.5 -60.5z" />
    <glyph glyph-name="uhungarumlaut" unicode="&#x171;" horiz-adv-x="527" 
d="M166 561q57 73 86 167l32 -18q-31 -87 -97 -161zM298 561q57 73 86 167l32 -18q-31 -87 -97 -161zM228 -12q-72 0 -107 46t-35 144v198q0 75 -14 103h53v-301q0 -155 107 -155q98 0 163 109v244q0 74 -12 103h51v-376q0 -76 13 -103h-55q0 43 4 81h-4q-25 -42 -69 -67.5
t-95 -25.5z" />
    <glyph glyph-name="Uogonek" unicode="&#x172;" horiz-adv-x="627" 
d="M480 663h69q-15 -25 -15 -103v-310q0 -206 -143 -251q-38 -20 -62 -49.5t-24 -59.5q0 -20 13 -31t31 -11q26 0 42 22l16 -32q-27 -19 -60 -19q-34 0 -55.5 17t-21.5 52q0 55 65 101q-7 -1 -22 -1q-45 0 -82 12.5t-69 41t-50 81.5t-18 127v310q0 76 -16 103h71
q-15 -27 -15 -103v-304q0 -123 49.5 -177t129.5 -54q81 0 131.5 53.5t50.5 177.5v304q0 78 -15 103z" />
    <glyph glyph-name="uogonek" unicode="&#x173;" horiz-adv-x="527" 
d="M442 -130l16 -32q-27 -19 -60 -19q-34 0 -55.5 17t-21.5 52q0 31 23 61.5t60 50.5h-12q0 43 4 81h-4q-25 -42 -69 -67.5t-95 -25.5q-72 0 -107 46t-35 144v198q0 75 -14 103h53v-301q0 -155 107 -155q98 0 163 109v244q0 74 -12 103h51v-376q0 -76 13 -103h-3
q-39 -20 -63.5 -50t-24.5 -60q0 -20 13 -31t31 -11q26 0 42 22z" />
    <glyph glyph-name="Wcircumflex" unicode="&#x174;" horiz-adv-x="769" 
d="M383 843q-45 -73 -117 -127l-16 19q66 57 116 145h38q48 -88 116 -145l-16 -19q-72 54 -117 127h-4zM684 659h65q-17 -26 -33 -100l-98 -430q-22 -100 -18 -129h-65q3 29 -23 129l-127 485l-126 -485q-26 -102 -23 -129h-65q3 31 -19 129l-99 430q-16 72 -34 100h68
q-8 -26 7 -94l112 -514l133 513q12 49 14.5 64t-0.5 31h65q-5 -24 14 -94l135 -515l112 515q14 65 5 94z" />
    <glyph glyph-name="wcircumflex" unicode="&#x175;" horiz-adv-x="668" 
d="M333 679q-45 -73 -117 -127l-16 19q66 57 116 145h38q48 -88 116 -145l-16 -19q-72 54 -117 127h-4zM591 479h63q-19 -30 -42 -108l-77 -268q-18 -65 -20 -103h-68q-2 50 -18 103l-95 331l-94 -331q-17 -58 -19 -103h-65q0 36 -20 103l-79 268q-25 80 -43 108h66
q-5 -26 14 -96l95 -341l102 362q13 44 12 75h65q-2 -24 12 -76l102 -360l95 340q18 65 14 96z" />
    <glyph glyph-name="Ycircumflex" unicode="&#x176;" horiz-adv-x="476" 
d="M236 843q-45 -73 -117 -127l-16 19q66 57 116 145h38q48 -88 116 -145l-16 -19q-72 54 -117 127h-4zM402 551l-143 -282v-166q0 -75 15 -103h-71q15 28 15 103v166l-144 284q-41 81 -64 106h68q-2 -25 29 -88l132 -268l132 268q32 65 29 88h66q-21 -22 -64 -108z" />
    <glyph glyph-name="ycircumflex" unicode="&#x177;" horiz-adv-x="435" 
d="M211 716h38q48 -88 116 -145l-16 -19q-72 54 -117 127h-4q-45 -73 -117 -127l-16 19q66 57 116 145zM72 -200q-9 0 -26 1.5t-24 1.5l12 56q15 -22 42 -22q88 0 128 127l12 36h-9l-149 371q-34 83 -55 108h68q-6 -28 22 -95l136 -342h3l117 342q24 68 18 95h65
q-20 -28 -48 -108l-146 -420q-52 -151 -166 -151z" />
    <glyph glyph-name="Ydieresis" unicode="&#x178;" horiz-adv-x="476" 
d="M179 742q-15 0 -25 10.5t-10 25.5q0 14 10 24.5t25 10.5t25 -10.5t10 -24.5q0 -15 -10 -25.5t-25 -10.5zM301 742q-15 0 -25 10.5t-10 25.5q0 14 10 24.5t25 10.5t25 -10.5t10 -24.5q0 -15 -10 -25.5t-25 -10.5zM402 551l-143 -282v-166q0 -75 15 -103h-71q15 28 15 103
v166l-144 284q-41 81 -64 106h68q-2 -25 29 -88l132 -268l132 268q32 65 29 88h66q-21 -22 -64 -108z" />
    <glyph glyph-name="Zacute" unicode="&#x179;" horiz-adv-x="539" 
d="M412 859q-57 -83 -153 -141l-14 21q79 56 135 149zM312 36q95 0 128.5 3t49.5 13v-58q-32 6 -178 6h-261l-4 39q21 11 68 85l320 500h-214q-110 0 -137 -17v58q32 -6 137 -6h265l3 -38q-19 -10 -57 -70l-330 -515h210z" />
    <glyph glyph-name="zacute" unicode="&#x17a;" horiz-adv-x="403" 
d="M171 582q79 56 135 149l32 -29q-57 -83 -153 -141zM27 32q15 10 43 52l245 361h-147q-84 0 -109 -14v53q37 -5 79 -5h226l2 -32q-15 -10 -34 -38l-254 -374h178q93 0 119 13v-53q-37 5 -83 5h-263z" />
    <glyph glyph-name="Zdotaccent" unicode="&#x17b;" horiz-adv-x="539" 
d="M281 729q-36 0 -36 39q0 38 36 38t36 -38q0 -39 -36 -39zM312 36q95 0 128.5 3t49.5 13v-58q-32 6 -178 6h-261l-4 39q21 11 68 85l320 500h-214q-110 0 -137 -17v58q32 -6 137 -6h265l3 -38q-19 -10 -57 -70l-330 -515h210z" />
    <glyph glyph-name="zdotaccent" unicode="&#x17c;" horiz-adv-x="403" 
d="M207 572q-36 0 -36 39q0 38 36 38t36 -38q0 -39 -36 -39zM27 32q15 10 43 52l245 361h-147q-84 0 -109 -14v53q37 -5 79 -5h226l2 -32q-15 -10 -34 -38l-254 -374h178q93 0 119 13v-53q-37 5 -83 5h-263z" />
    <glyph glyph-name="Zcaron" unicode="&#x17d;" horiz-adv-x="539" 
d="M262 719q-51 88 -117 145l17 18q72 -54 117 -127h4q45 73 117 127l17 -18q-66 -57 -117 -145h-38zM312 36q95 0 128.5 3t49.5 13v-58q-32 6 -178 6h-261l-4 39q21 11 68 85l320 500h-214q-110 0 -137 -17v58q32 -6 137 -6h265l3 -38q-19 -10 -57 -70l-330 -515h210z" />
    <glyph glyph-name="zcaron" unicode="&#x17e;" horiz-adv-x="403" 
d="M188 562q-51 88 -117 145l17 18q72 -54 117 -127h4q45 73 117 127l17 -18q-66 -57 -117 -145h-38zM27 32q15 10 43 52l245 361h-147q-84 0 -109 -14v53q37 -5 79 -5h226l2 -32q-15 -10 -34 -38l-254 -374h178q93 0 119 13v-53q-37 5 -83 5h-263z" />
    <glyph glyph-name="florin" unicode="&#x192;" horiz-adv-x="423" 
d="M330 576q-83 0 -96 -129l-7 -63h84q38 0 56 8v-51q-17 9 -56 9h-88l-22 -197q-10 -91 -40.5 -128t-84.5 -37q-24 0 -56 10l10 47q18 -21 47 -21q37 0 57.5 29t27.5 100l21 197h-26q-39 0 -56 -9v51q18 -8 56 -8h30l7 63q19 165 136 165q27 0 71 -10l-10 -47
q-24 21 -61 21z" />
    <glyph glyph-name="uni0218" unicode="&#x218;" horiz-adv-x="533" 
d="M272 -12q-122 0 -222 64l27 65q56 -92 195 -92q75 0 119 38.5t44 102.5q0 59 -29.5 89.5t-89.5 51.5l-97 34q-136 48 -136 170q0 71 52.5 115.5t131.5 44.5q93 0 183 -52l-26 -55q-48 70 -157 70q-63 0 -103 -33.5t-40 -87.5q0 -96 113 -134l96 -34q69 -25 106.5 -65
t37.5 -112q0 -79 -56.5 -129.5t-148.5 -50.5zM274 -43q41 0 41 -52q0 -34 -19.5 -66.5t-53.5 -46.5l-10 17q48 23 52 77q-2 -2 -11 -2q-12 0 -22 10t-10 26q0 37 33 37z" />
    <glyph glyph-name="uni0219" unicode="&#x219;" horiz-adv-x="412" 
d="M205 -12q-41 0 -104.5 19.5t-66.5 20.5l23 62q17 -30 58.5 -48.5t89.5 -18.5q123 0 123 101q0 66 -112 101l-25 8q-130 41 -130 135q0 57 41 90t109 33q25 0 49.5 -5t56.5 -16t36 -12l-22 -57q-35 55 -120 55q-51 0 -81.5 -23.5t-30.5 -63.5q0 -68 103 -99l25 -7
q141 -42 141 -138q0 -64 -42 -100.5t-121 -36.5zM213 -43q41 0 41 -52q0 -34 -19.5 -66.5t-53.5 -46.5l-10 17q48 23 52 77q-2 -2 -11 -2q-12 0 -22 10t-10 26q0 37 33 37z" />
    <glyph glyph-name="uni021A" unicode="&#x21a;" horiz-adv-x="500" 
d="M230 624h-99q-74 0 -103 -15v56q34 -6 103 -6h238q69 0 103 6v-56q-29 15 -103 15h-98v-521q0 -75 15 -103h-71q15 30 15 103v521zM251 -43q41 0 41 -52q0 -34 -19.5 -66.5t-53.5 -46.5l-10 17q48 23 52 77q-2 -2 -11 -2q-12 0 -22 10t-10 26q0 37 33 37z" />
    <glyph glyph-name="uni021B" unicode="&#x21b;" horiz-adv-x="314" 
d="M221 -12q-64 0 -90 37t-26 105v319h-71v28q66 3 110 80v-78h132v-38q-29 8 -132 8v-319q0 -53 17.5 -80t63.5 -27q37 0 62 25l11 -51q-13 -1 -40 -5t-37 -4zM205 -43q41 0 41 -52q0 -34 -19.5 -66.5t-53.5 -46.5l-10 17q48 23 52 77q-2 -2 -11 -2q-12 0 -22 10t-10 26
q0 37 33 37z" />
    <glyph glyph-name="circumflex" unicode="&#x2c6;" horiz-adv-x="528" 
d="M245 737h38q48 -88 116 -145l-16 -19q-72 54 -117 127h-4q-45 -73 -117 -127l-16 19q66 57 116 145z" />
    <glyph glyph-name="caron" unicode="&#x2c7;" horiz-adv-x="542" 
d="M252 576q-47 85 -117 145l17 18q72 -54 117 -127h4q45 73 117 127l17 -18q-66 -57 -117 -145h-38z" />
    <glyph glyph-name="breve" unicode="&#x2d8;" horiz-adv-x="514" 
d="M257 571q-111 0 -109 142h28q0 -48 19.5 -79.5t61.5 -31.5q43 0 62.5 31.5t19.5 79.5h28q0 -142 -110 -142z" />
    <glyph glyph-name="dotaccent" unicode="&#x2d9;" horiz-adv-x="542" 
d="M271 586q-36 0 -36 39q0 38 36 38t36 -38q0 -39 -36 -39z" />
    <glyph glyph-name="ring" unicode="&#x2da;" horiz-adv-x="542" 
d="M271 574q-38 0 -63 21.5t-25 56.5q0 36 25 57t63 21q39 0 64 -21t25 -57q0 -35 -25.5 -56.5t-63.5 -21.5zM271 601q24 0 40 12.5t16 38.5t-16 38.5t-40 12.5t-40 -12.5t-16 -38.5t16 -38.5t40 -12.5z" />
    <glyph glyph-name="ogonek" unicode="&#x2db;" horiz-adv-x="320" 
d="M164 -178q-34 0 -55.5 17t-21.5 52q0 34 27 66.5t68 51.5l28 -6q-39 -20 -63.5 -50t-24.5 -60q0 -20 13 -31t31 -11q26 0 42 22l16 -32q-27 -19 -60 -19z" />
    <glyph glyph-name="tilde" unicode="&#x2dc;" horiz-adv-x="542" 
d="M337 589q-21 0 -40.5 13t-32.5 29t-29 29t-31 13q-50 0 -42 -67l-43 2q18 95 87 95q21 0 40.5 -13t32 -29t29 -29t31.5 -13q23 0 34 18t8 48l42 -2q-18 -94 -86 -94z" />
    <glyph glyph-name="hungarumlaut" unicode="&#x2dd;" horiz-adv-x="542" 
d="M192 582q57 73 86 167l32 -18q-31 -87 -97 -161zM324 582q57 73 86 167l32 -18q-31 -87 -97 -161z" />
    <glyph glyph-name="gravecomb" unicode="&#x300;" horiz-adv-x="0" 
d="M-222 599l-13 -22q-99 57 -155 139l30 31q59 -95 138 -148z" />
    <glyph glyph-name="acutecomb" unicode="&#x301;" horiz-adv-x="0" 
d="M-463 596q79 56 135 149l32 -29q-57 -83 -153 -141z" />
    <glyph glyph-name="uni0302" unicode="&#x302;" horiz-adv-x="0" 
d="M-297 737h38q48 -88 116 -145l-16 -19q-72 54 -117 127h-4q-45 -73 -117 -127l-16 19q66 57 116 145z" />
    <glyph glyph-name="tildecomb" unicode="&#x303;" horiz-adv-x="0" 
d="M-205 589q-21 0 -40.5 13t-32.5 29t-29 29t-31 13q-50 0 -42 -67l-43 2q18 95 87 95q21 0 40.5 -13t32 -29t29 -29t31.5 -13q23 0 34 18t8 48l42 -2q-18 -94 -86 -94z" />
    <glyph glyph-name="uni0304" unicode="&#x304;" horiz-adv-x="0" 
d="M-371 642h200v-35h-200v35z" />
    <glyph glyph-name="uni0306" unicode="&#x306;" horiz-adv-x="0" 
d="M-285 571q-111 0 -109 142h28q0 -48 19.5 -79.5t61.5 -31.5q43 0 62.5 31.5t19.5 79.5h28q0 -142 -110 -142z" />
    <glyph glyph-name="uni0307" unicode="&#x307;" horiz-adv-x="0" 
d="M-271 586q-36 0 -36 39q0 38 36 38t36 -38q0 -39 -36 -39z" />
    <glyph glyph-name="uni0308" unicode="&#x308;" horiz-adv-x="0" 
d="M-332 599q-15 0 -25 10.5t-10 25.5q0 14 10 24.5t25 10.5t25 -10.5t10 -24.5q0 -15 -10 -25.5t-25 -10.5zM-210 599q-15 0 -25 10.5t-10 25.5q0 14 10 24.5t25 10.5t25 -10.5t10 -24.5q0 -15 -10 -25.5t-25 -10.5z" />
    <glyph glyph-name="uni030A" unicode="&#x30a;" horiz-adv-x="0" 
d="M-271 574q-38 0 -63 21.5t-25 56.5q0 36 25 57t63 21q39 0 64 -21t25 -57q0 -35 -25.5 -56.5t-63.5 -21.5zM-271 601q24 0 40 12.5t16 38.5t-16 38.5t-40 12.5t-40 -12.5t-16 -38.5t16 -38.5t40 -12.5z" />
    <glyph glyph-name="uni030B" unicode="&#x30b;" horiz-adv-x="0" 
d="M-350 582q57 73 86 167l32 -18q-31 -87 -97 -161zM-218 582q57 73 86 167l32 -18q-31 -87 -97 -161z" />
    <glyph glyph-name="uni030C" unicode="&#x30c;" horiz-adv-x="0" 
d="M-290 576q-47 85 -117 145l17 18q72 -54 117 -127h4q45 73 117 127l17 -18q-66 -57 -117 -145h-38z" />
    <glyph glyph-name="uni0312" unicode="&#x312;" horiz-adv-x="0" 
d="M-163 563q-19 0 -30.5 14t-11.5 37q0 35 19.5 67t54.5 46l10 -16q-48 -23 -52 -77q4 2 11 2q12 0 22.5 -10t10.5 -26q0 -37 -34 -37z" />
    <glyph glyph-name="uni0326" unicode="&#x326;" horiz-adv-x="0" 
d="M-186 -43q41 0 41 -52q0 -34 -19.5 -66.5t-53.5 -46.5l-10 17q48 23 52 77q-2 -2 -11 -2q-12 0 -22 10t-10 26q0 37 33 37z" />
    <glyph glyph-name="uni0327" unicode="&#x327;" horiz-adv-x="0" 
d="M-344 -174q113 4 113 51q0 22 -18 33.5t-60 16.5l38 76h30l-25 -56q71 -17 71 -68q0 -76 -143 -84z" />
    <glyph glyph-name="uni0328" unicode="&#x328;" horiz-adv-x="0" 
d="M-378 -178q-34 0 -55.5 17t-21.5 52q0 34 27 66.5t68 51.5l28 -6q-39 -20 -63.5 -50t-24.5 -60q0 -20 13 -31t31 -11q26 0 42 22l16 -32q-27 -19 -60 -19z" />
    <glyph glyph-name="uni0394" unicode="&#x394;" horiz-adv-x="556" 
d="M330 571l188 -535l-10 -36h-461l-10 36l188 535q24 64 21 88h63q-1 -25 21 -88zM78 36h398l-199 583z" />
    <glyph glyph-name="uni03A9" unicode="&#x3a9;" horiz-adv-x="649" 
d="M438 36h91q38 0 56 8v-52q-18 8 -56 8h-156v36q75 28 126.5 119.5t51.5 206.5q0 128 -64 200t-163 72q-98 0 -162 -72t-64 -200q0 -115 51.5 -206.5t126.5 -119.5v-36h-156q-38 0 -56 -8v52q18 -8 56 -8h91q-72 43 -114 130.5t-42 195.5q0 147 76 228t193 81t193.5 -81
t76.5 -228q0 -108 -42 -195.5t-114 -130.5z" />
    <glyph glyph-name="uni03BC" unicode="&#x3bc;" horiz-adv-x="527" 
d="M447 0h-55q0 26 4 98h-4q-27 -52 -69.5 -81t-92.5 -29q-67 0 -105 53v-91q0 -72 16 -103h-71q16 28 16 103v426q0 75 -14 103h53v-333q0 -56 28.5 -88t78.5 -32q99 0 163 127v223q0 74 -12 103h51v-376q0 -76 13 -103z" />
    <glyph glyph-name="pi" unicode="&#x3c0;" horiz-adv-x="497" 
d="M381 444h-4v-331q0 -50 9.5 -69.5t30.5 -19.5q27 0 40 11l7 -43q-8 0 -23.5 -2t-25.5 -2q-40 0 -58.5 26t-18.5 97v333h-177v-341q0 -75 15 -103h-71q15 30 15 103v341h-4q-65 0 -89 -15v56q28 -6 89 -6h265q61 0 89 6v-56q-15 9 -31 12t-58 3z" />
    <glyph glyph-name="Wgrave" unicode="&#x1e80;" horiz-adv-x="769" 
d="M410 720q-99 57 -155 139l30 31q59 -95 138 -148zM684 659h65q-17 -26 -33 -100l-98 -430q-22 -100 -18 -129h-65q3 29 -23 129l-127 485l-126 -485q-26 -102 -23 -129h-65q3 31 -19 129l-99 430q-16 72 -34 100h68q-8 -26 7 -94l112 -514l133 513q12 49 14.5 64t-0.5 31
h65q-5 -24 14 -94l135 -515l112 515q14 65 5 94z" />
    <glyph glyph-name="wgrave" unicode="&#x1e81;" horiz-adv-x="668" 
d="M359 556q-99 57 -155 139l30 31q59 -95 138 -148zM591 479h63q-19 -30 -42 -108l-77 -268q-18 -65 -20 -103h-68q-2 50 -18 103l-95 331l-94 -331q-17 -58 -19 -103h-65q0 36 -20 103l-79 268q-25 80 -43 108h66q-5 -26 14 -96l95 -341l102 362q13 44 12 75h65
q-2 -24 12 -76l102 -360l95 340q18 65 14 96z" />
    <glyph glyph-name="Wacute" unicode="&#x1e82;" horiz-adv-x="769" 
d="M517 859q-57 -83 -153 -141l-14 21q79 56 135 149zM684 659h65q-17 -26 -33 -100l-98 -430q-22 -100 -18 -129h-65q3 29 -23 129l-127 485l-126 -485q-26 -102 -23 -129h-65q3 31 -19 129l-99 430q-16 72 -34 100h68q-8 -26 7 -94l112 -514l133 513q12 49 14.5 64
t-0.5 31h65q-5 -24 14 -94l135 -515l112 515q14 65 5 94z" />
    <glyph glyph-name="wacute" unicode="&#x1e83;" horiz-adv-x="668" 
d="M466 695q-57 -83 -153 -141l-14 21q79 56 135 149zM591 479h63q-19 -30 -42 -108l-77 -268q-18 -65 -20 -103h-68q-2 50 -18 103l-95 331l-94 -331q-17 -58 -19 -103h-65q0 36 -20 103l-79 268q-25 80 -43 108h66q-5 -26 14 -96l95 -341l102 362q13 44 12 75h65
q-2 -24 12 -76l102 -360l95 340q18 65 14 96z" />
    <glyph glyph-name="Wdieresis" unicode="&#x1e84;" horiz-adv-x="769" 
d="M326 742q-15 0 -25 10.5t-10 25.5q0 14 10 24.5t25 10.5t25 -10.5t10 -24.5q0 -15 -10 -25.5t-25 -10.5zM448 742q-15 0 -25 10.5t-10 25.5q0 14 10 24.5t25 10.5t25 -10.5t10 -24.5q0 -15 -10 -25.5t-25 -10.5zM684 659h65q-17 -26 -33 -100l-98 -430q-22 -100 -18 -129
h-65q3 29 -23 129l-127 485l-126 -485q-26 -102 -23 -129h-65q3 31 -19 129l-99 430q-16 72 -34 100h68q-8 -26 7 -94l112 -514l133 513q12 49 14.5 64t-0.5 31h65q-5 -24 14 -94l135 -515l112 515q14 65 5 94z" />
    <glyph glyph-name="wdieresis" unicode="&#x1e85;" horiz-adv-x="668" 
d="M275 578q-15 0 -25 10.5t-10 25.5q0 14 10 24.5t25 10.5t25 -10.5t10 -24.5q0 -15 -10 -25.5t-25 -10.5zM397 578q-15 0 -25 10.5t-10 25.5q0 14 10 24.5t25 10.5t25 -10.5t10 -24.5q0 -15 -10 -25.5t-25 -10.5zM591 479h63q-19 -30 -42 -108l-77 -268q-18 -65 -20 -103
h-68q-2 50 -18 103l-95 331l-94 -331q-17 -58 -19 -103h-65q0 36 -20 103l-79 268q-25 80 -43 108h66q-5 -26 14 -96l95 -341l102 362q13 44 12 75h65q-2 -24 12 -76l102 -360l95 340q18 65 14 96z" />
    <glyph glyph-name="uni1E9E" unicode="&#x1e9e;" horiz-adv-x="609" 
d="M99 103v331q0 117 53 177t143 60q69 0 115.5 -36.5t65.5 -98.5l-129 -172q108 -16 162 -67t54 -128q0 -83 -51 -132t-136 -49q-86 0 -165 51l34 56q27 -72 133 -72q66 0 104 39t38 106q0 142 -215 168v29l129 172q-14 44 -49.5 71t-89.5 27q-72 0 -114 -49.5t-42 -151.5
v-331q0 -74 15 -103h-70q15 29 15 103z" />
    <glyph glyph-name="Ygrave" unicode="&#x1ef2;" horiz-adv-x="476" 
d="M263 720q-99 57 -155 139l30 31q59 -95 138 -148zM402 551l-143 -282v-166q0 -75 15 -103h-71q15 28 15 103v166l-144 284q-41 81 -64 106h68q-2 -25 29 -88l132 -268l132 268q32 65 29 88h66q-21 -22 -64 -108z" />
    <glyph glyph-name="ygrave" unicode="&#x1ef3;" horiz-adv-x="435" 
d="M268 578l-13 -22q-99 57 -155 139l30 31q59 -95 138 -148zM72 -200q-9 0 -26 1.5t-24 1.5l12 56q15 -22 42 -22q88 0 128 127l12 36h-9l-149 371q-34 83 -55 108h68q-6 -28 22 -95l136 -342h3l117 342q24 68 18 95h65q-20 -28 -48 -108l-146 -420q-52 -151 -166 -151z
" />
    <glyph glyph-name="figuredash" unicode="&#x2012;" horiz-adv-x="497" 
d="M41 268h416v-34h-416v34z" />
    <glyph glyph-name="endash" unicode="&#x2013;" horiz-adv-x="480" 
d="M41 268h398v-34h-398v34z" />
    <glyph glyph-name="emdash" unicode="&#x2014;" horiz-adv-x="800" 
d="M41 268h718v-34h-718v34z" />
    <glyph glyph-name="quoteleft" unicode="&#x2018;" horiz-adv-x="201" 
d="M167 670q-67 -45 -67 -126q4 2 11 2q15 0 25.5 -10t10.5 -28q0 -19 -11 -29.5t-28 -10.5q-21 0 -34 18t-13 49q0 96 95 154z" />
    <glyph glyph-name="quoteright" unicode="&#x2019;" horiz-adv-x="199" 
d="M42 487q68 45 68 126q-4 -2 -11 -2q-15 0 -26 10.5t-11 28.5t11.5 28.5t27.5 10.5q21 0 34 -18t13 -49q0 -94 -94 -154z" />
    <glyph glyph-name="quotesinglbase" unicode="&#x201a;" horiz-adv-x="201" 
d="M42 -124q68 45 68 126q-4 -2 -11 -2q-15 0 -26 10.5t-11 28.5t11.5 28.5t27.5 10.5q21 0 34 -18t13 -49q0 -94 -94 -154z" />
    <glyph glyph-name="quotedblleft" unicode="&#x201c;" horiz-adv-x="326" 
d="M167 670q-68 -46 -68 -126q6 2 12 2q15 0 25.5 -10t10.5 -28q0 -19 -11 -29.5t-28 -10.5q-21 0 -34 18t-13 49q0 96 95 154zM292 670q-68 -45 -68 -126q4 2 11 2q15 0 26 -10t11 -28q0 -19 -11.5 -29.5t-27.5 -10.5q-21 0 -34 18t-13 49q0 95 94 154z" />
    <glyph glyph-name="quotedblright" unicode="&#x201d;" horiz-adv-x="326" 
d="M34 487q68 46 68 126q-6 -2 -12 -2q-15 0 -25.5 10t-10.5 29t11 29t28 10q21 0 34 -18t13 -49q0 -94 -95 -154zM159 487q67 45 67 126q-4 -2 -11 -2q-15 0 -26 10.5t-11 28.5t11.5 28.5t27.5 10.5q21 0 34.5 -18t13.5 -49q0 -93 -95 -154z" />
    <glyph glyph-name="quotedblbase" unicode="&#x201e;" horiz-adv-x="326" 
d="M42 -125q68 45 68 126q-4 -2 -11 -2q-15 0 -26 10.5t-11 28.5t11.5 28.5t27.5 10.5q21 0 34 -18t13 -49q0 -94 -94 -154zM167 -125q67 45 67 126q-4 -2 -11 -2q-15 0 -25.5 10t-10.5 29t11 29t28 10q21 0 34 -18t13 -49q0 -93 -95 -154z" />
    <glyph glyph-name="dagger" unicode="&#x2020;" horiz-adv-x="398" 
d="M171 662h57q-11 -17 -11 -72v-58l45 -1q53 0 72 11v-56q-18 12 -72 12h-45v-173q0 -61 11 -80h-57q11 19 11 80v173l-46 1q-56 0 -72 -12v56q17 -11 72 -11h46v58q0 52 -11 72z" />
    <glyph glyph-name="daggerdbl" unicode="&#x2021;" horiz-adv-x="428" 
d="M262 509h-45v-100l45 -1q51 -1 72 11v-56q-18 12 -72 12h-45v-50q0 -61 11 -80h-57q11 19 11 80v50l-46 1q-54 1 -72 -12v56q17 -11 72 -11h46v100h-46q-53 1 -72 -11v56q16 -12 72 -12h46v48q0 52 -11 72h57q-11 -17 -11 -72v-48l45 -1q52 -1 72 12v-56q-21 12 -72 12z
" />
    <glyph glyph-name="bullet" unicode="&#x2022;" horiz-adv-x="306" 
d="M153 185q-27 0 -57.5 29t-30.5 57q0 29 30.5 58t57.5 29t57.5 -29t30.5 -58q0 -28 -30.5 -57t-57.5 -29z" />
    <glyph glyph-name="ellipsis" unicode="&#x2026;" horiz-adv-x="662" 
d="M108 -12q-19 0 -32 11.5t-13 30.5q0 20 13 32t32 12t31.5 -12t12.5 -32q0 -19 -12.5 -30.5t-31.5 -11.5zM331 -12q-19 0 -31.5 11.5t-12.5 30.5q0 20 12.5 32t31.5 12t31.5 -12t12.5 -32q0 -19 -12.5 -30.5t-31.5 -11.5zM555 -12q-19 0 -32 11.5t-13 30.5q0 20 13 32
t32 12t31.5 -12t12.5 -32q0 -19 -12.5 -30.5t-31.5 -11.5z" />
    <glyph glyph-name="perthousand" unicode="&#x2030;" horiz-adv-x="1099" 
d="M563 668h36l-360 -680h-37zM181 257q-65 0 -102.5 50.5t-37.5 147.5q0 96 37.5 146t102.5 50t102.5 -50.5t37.5 -145.5q0 -97 -37.5 -147.5t-102.5 -50.5zM181 288q47 0 75 43t28 124t-28 123t-75 42t-75.5 -42t-28.5 -123t28.5 -124t75.5 -43zM607 -12
q-65 0 -102.5 50.5t-37.5 147.5q0 95 37.5 145.5t102.5 50.5t102.5 -50.5t37.5 -145.5q0 -97 -37.5 -147.5t-102.5 -50.5zM956 -12q-65 0 -102.5 50.5t-37.5 147.5q0 95 37.5 145.5t102.5 50.5t102.5 -50.5t37.5 -145.5q0 -97 -37.5 -147.5t-102.5 -50.5zM607 19
q47 0 75.5 43t28.5 124t-28.5 123t-75.5 42t-75 -42t-28 -123t28 -124t75 -43zM956 19q47 0 75 43t28 124t-28 123t-75 42t-75 -42t-28 -123t28 -124t75 -43z" />
    <glyph glyph-name="guilsinglleft" unicode="&#x2039;" horiz-adv-x="271" 
d="M225 107l-21 -16q-61 96 -153 142v39q92 44 153 141l21 -18q-55 -90 -137 -143q83 -55 137 -145z" />
    <glyph glyph-name="guilsinglright" unicode="&#x203a;" horiz-adv-x="271" 
d="M46 107q54 90 137 145q-82 53 -137 143l21 18q61 -97 153 -141v-39q-92 -46 -153 -142z" />
    <glyph glyph-name="fraction" unicode="&#x2044;" horiz-adv-x="86" 
d="M204 668h36l-360 -680h-36z" />
    <glyph glyph-name="uni2070" unicode="&#x2070;" 
d="M181 436q-65 0 -102.5 50.5t-37.5 147.5q0 96 37.5 146t102.5 50t102.5 -50.5t37.5 -145.5q0 -97 -37.5 -147.5t-102.5 -50.5zM181 467q47 0 75 43t28 124t-28 123t-75 42t-75.5 -42t-28.5 -123t28.5 -124t75.5 -43z" />
    <glyph glyph-name="uni2074" unicode="&#x2074;" 
d="M223 558h-176v25l179 252h31v-247q41 0 57 13v-43h-57v-24q0 -63 14 -86h-62q14 23 14 86v24zM223 588v195l-137 -195h137z" />
    <glyph glyph-name="uni2075" unicode="&#x2075;" 
d="M180 436q-31 0 -56 10t-46.5 24t-35.5 18l29 42q33 -64 111 -64q41 0 67.5 26.5t26.5 70.5t-25.5 69.5t-66.5 25.5q-51 0 -88 -20l-22 7l19 190h137q45 0 61 12v-55q-17 10 -61 10h-108l-13 -128q38 15 77 15q53 0 89.5 -33t36.5 -93q0 -58 -37.5 -92.5t-94.5 -34.5z" />
    <glyph glyph-name="uni2076" unicode="&#x2076;" 
d="M191 436q-63 0 -101.5 50.5t-38.5 138.5q0 112 45 167t106 55q19 0 45.5 -5t37.5 -3l-15 -50q-22 27 -68 27q-42 0 -77 -44t-39 -131q44 50 107 50q57 0 90 -35t33 -91t-35.5 -92.5t-89.5 -36.5zM192 660q-63 0 -106 -57q4 -63 32 -100t72 -37q41 0 66 28.5t25 70.5
t-23.5 68.5t-65.5 26.5z" />
    <glyph glyph-name="uni2077" unicode="&#x2077;" 
d="M143 448q6 113 34.5 194t98.5 162h-163q-45 0 -64 -15v54q19 -8 64 -8h201v-32q-74 -83 -102.5 -163t-32.5 -192h-36z" />
    <glyph glyph-name="uni2078" unicode="&#x2078;" 
d="M180 436q-57 0 -93 31.5t-36 76.5q0 37 23 65.5t60 43.5v4q-66 26 -66 90q0 43 32 71.5t80 28.5q50 0 83 -28t33 -72q0 -64 -67 -95v-4q36 -12 58.5 -39.5t22.5 -60.5q0 -50 -37 -81t-93 -31zM200 662q61 32 61 86q0 30 -23.5 48.5t-57.5 18.5q-32 0 -54.5 -19.5
t-22.5 -48.5q0 -60 97 -85zM180 466q40 0 67.5 22.5t27.5 57.5q0 64 -114 95q-75 -34 -75 -95q0 -32 26.5 -56t67.5 -24z" />
    <glyph glyph-name="uni2079" unicode="&#x2079;" 
d="M171 847q62 0 100.5 -50.5t38.5 -139.5q0 -112 -44.5 -166.5t-105.5 -54.5q-19 0 -45.5 5t-38.5 3l16 50q21 -28 68 -28q42 0 77 44.5t38 130.5q-44 -49 -107 -49q-57 0 -90 35t-33 91q0 55 36 92t90 37zM170 622q61 0 105 57q-4 64 -32 100.5t-72 36.5q-41 0 -66 -28
t-25 -70t24 -69t66 -27z" />
    <glyph glyph-name="uni2080" unicode="&#x2080;" 
d="M181 -191q-65 0 -102.5 50.5t-37.5 147.5q0 96 37.5 146t102.5 50t102.5 -50.5t37.5 -145.5q0 -97 -37.5 -147.5t-102.5 -50.5zM181 -160q47 0 75 43t28 124t-28 123t-75 42t-75.5 -42t-28.5 -123t28.5 -124t75.5 -43z" />
    <glyph glyph-name="uni2081" unicode="&#x2081;" 
d="M177 128h-85v27q77 0 119 38v-334l88 -11v-27h-215v27l93 11v269z" />
    <glyph glyph-name="uni2082" unicode="&#x2082;" 
d="M56 -151q106 80 150.5 131.5t44.5 102.5q0 40 -23 64.5t-57 24.5q-32 0 -58.5 -17t-38.5 -43l-26 40q8 2 47 26.5t76 24.5q49 0 82.5 -32.5t33.5 -87.5q0 -58 -43.5 -111t-131.5 -120h116q59 0 82 15v-46h-254v28z" />
    <glyph glyph-name="uni2083" unicode="&#x2083;" 
d="M183 -191q-31 0 -57 10.5t-48 24t-36 17.5l27 44q40 -66 114 -66q36 0 62 20.5t26 58.5q0 77 -141 77v29q58 0 91.5 22t33.5 57q0 32 -21.5 51t-55.5 19q-54 0 -97 -53l-23 42q8 2 48 21.5t72 19.5q48 0 80.5 -25.5t32.5 -72.5q0 -70 -78 -93q40 -6 67 -30t27 -64
q0 -51 -35.5 -80t-88.5 -29z" />
    <glyph glyph-name="uni2084" unicode="&#x2084;" 
d="M223 -69h-176v25l179 252h31v-247q41 0 57 13v-43h-57v-24q0 -63 14 -86h-62q14 23 14 86v24zM223 -39v195l-137 -195h137z" />
    <glyph glyph-name="uni2085" unicode="&#x2085;" 
d="M180 -190q-31 0 -56 10t-46.5 24t-35.5 18l29 42q33 -64 111 -64q41 0 67.5 26.5t26.5 70.5t-25.5 69.5t-66.5 25.5q-51 0 -88 -20l-22 7l19 190h137q45 0 61 12v-55q-17 10 -61 10h-108l-13 -128q37 15 77 15q53 0 89.5 -33t36.5 -93q0 -58 -37.5 -92.5t-94.5 -34.5z
" />
    <glyph glyph-name="uni2086" unicode="&#x2086;" 
d="M191 -191q-63 0 -101.5 50.5t-38.5 138.5q0 112 45 167t106 55q19 0 45.5 -5t37.5 -3l-15 -50q-22 27 -68 27q-42 0 -77 -44t-39 -131q44 50 107 50q57 0 90 -35t33 -91t-35.5 -92.5t-89.5 -36.5zM192 33q-63 0 -106 -57q4 -63 32 -100t72 -37q41 0 66 28.5t25 70.5
t-23.5 68.5t-65.5 26.5z" />
    <glyph glyph-name="uni2087" unicode="&#x2087;" 
d="M143 -179q6 113 34.5 194t98.5 162h-163q-45 0 -64 -15v54q19 -8 64 -8h201v-32q-74 -83 -102.5 -163t-32.5 -192h-36z" />
    <glyph glyph-name="uni2088" unicode="&#x2088;" 
d="M180 -191q-57 0 -93 31.5t-36 76.5q0 37 23 65.5t60 43.5v4q-66 26 -66 90q0 43 32 71.5t80 28.5q50 0 83 -28t33 -72q0 -64 -67 -95v-4q36 -12 58.5 -39.5t22.5 -60.5q0 -50 -37 -81t-93 -31zM200 35q61 32 61 86q0 30 -23.5 48.5t-57.5 18.5q-32 0 -54.5 -19.5
t-22.5 -48.5q0 -60 97 -85zM180 -161q40 0 67.5 22.5t27.5 57.5q0 64 -114 95q-75 -34 -75 -95q0 -32 26.5 -56t67.5 -24z" />
    <glyph glyph-name="uni2089" unicode="&#x2089;" 
d="M171 220q62 0 100.5 -50.5t38.5 -139.5q0 -112 -44.5 -166.5t-105.5 -54.5q-19 0 -45.5 5t-38.5 3l16 50q21 -28 68 -28q42 0 77 44.5t38 130.5q-43 -49 -107 -49q-57 0 -90 35t-33 91q0 55 36 92t90 37zM170 -5q61 0 105 57q-4 64 -32 100.5t-72 36.5q-41 0 -66 -28
t-25 -70t24 -69t66 -27z" />
    <glyph glyph-name="Euro" unicode="&#x20ac;" horiz-adv-x="520" 
d="M455 68l19 -54q-88 -26 -161 -26q-197 0 -220 245h-13q-40 0 -56 -10v45h66q-1 10 -1 36t1 35h-66v45q16 -10 56 -10h13q24 241 218 241q77 0 151 -31l-15 -53q-34 46 -136 46q-155 0 -177 -203h164q40 0 56 10v-45h-223q-1 -9 -1 -35.5t1 -35.5h223v-45q-16 10 -56 10
h-164q22 -208 179 -208q108 0 142 43z" />
    <glyph glyph-name="trademark" unicode="&#x2122;" horiz-adv-x="633" 
d="M93 662h93q37 0 50 4v-46q-13 9 -50 9h-30v-169q0 -41 8 -62h-51q9 20 9 62v169h-29q-38 0 -50 -9v46q12 -4 50 -4zM516 398q8 21 8 62v150l-105 -182l-108 186l1 -154q0 -41 8 -62h-50q8 21 8 62v140q0 45 -8 62h50l99 -173l98 173h48q-7 -21 -7 -62v-140q0 -42 9 -62
h-51z" />
    <glyph glyph-name="uni2150" unicode="&#x2150;" horiz-adv-x="864" 
d="M585 668h36l-360 -680h-36zM177 576h-85v27q77 0 119 38v-334l88 -11v-27h-215v27l93 11v269zM645 0q6 114 35 194.5t99 161.5h-163q-45 0 -64 -15v54q19 -8 64 -8h200v-32q-73 -83 -101.5 -163t-32.5 -192h-37z" />
    <glyph glyph-name="uni2151" unicode="&#x2151;" horiz-adv-x="842" 
d="M586 668h36l-360 -680h-36zM177 576h-85v27q77 0 119 38v-334l88 -11v-27h-215v27l93 11v269zM652 399q63 0 101.5 -50.5t38.5 -139.5q0 -111 -45 -166t-106 -55q-20 0 -46 4.5t-37 3.5l15 50q21 -28 68 -28q42 0 77 44.5t38 130.5q-44 -49 -107 -49q-57 0 -90 35t-33 91
q0 55 36 92t90 37zM651 174q61 0 105 57q-4 64 -32 100.5t-72 36.5q-41 0 -66 -28t-25 -70t24 -69t66 -27z" />
    <glyph glyph-name="uni2152" unicode="&#x2152;" horiz-adv-x="1120" 
d="M602 668h36l-360 -680h-36zM177 576h-85v27q77 0 119 38v-334l88 -11v-27h-215v27l93 11v269zM939 -12q-65 0 -102.5 50.5t-37.5 147.5q0 95 37.5 145.5t102.5 50.5t102.5 -50.5t37.5 -145.5q0 -97 -37.5 -147.5t-102.5 -50.5zM632 307h-85v27q78 0 120 38v-334l88 -11
v-27h-216v27l93 11v269zM939 19q47 0 75 43t28 124t-28 123t-75 42t-75 -42t-28 -123t28 -124t75 -43z" />
    <glyph glyph-name="uni2153" unicode="&#x2153;" horiz-adv-x="850" 
d="M601 668h36l-360 -680h-36zM177 576h-85v27q77 0 119 38v-334l88 -11v-27h-215v27l93 11v269zM671 -12q-42 0 -88 25t-53 27l28 44q40 -66 113 -66q37 0 62.5 20.5t25.5 58.5q0 77 -141 77v29q59 0 92 22t33 57q0 32 -21.5 51t-55.5 19q-54 0 -97 -53l-22 42q9 2 48 21.5
t71 19.5q48 0 80.5 -25.5t32.5 -72.5q0 -70 -78 -93q40 -6 67 -30t27 -64q0 -51 -35.5 -80t-88.5 -29z" />
    <glyph glyph-name="uni2154" unicode="&#x2154;" horiz-adv-x="841" 
d="M599 668h36l-360 -680h-37zM56 297q106 80 150.5 131.5t44.5 102.5q0 40 -23 64.5t-57 24.5q-32 0 -58.5 -17t-38.5 -43l-26 40q8 2 47 26.5t76 24.5q49 0 82.5 -32.5t33.5 -87.5q0 -58 -43.5 -111t-131.5 -120h116q59 0 82 15v-46h-254v28zM663 -12q-31 0 -57 10.5
t-48 24t-36 17.5l27 44q40 -66 114 -66q37 0 62.5 20.5t25.5 58.5q0 77 -141 77v29q58 0 91.5 22t33.5 57q0 32 -21.5 51t-55.5 19q-54 0 -97 -53l-22 42q8 2 47.5 21.5t71.5 19.5q48 0 80.5 -25.5t32.5 -72.5q0 -70 -78 -93q40 -6 67 -30t27 -64q0 -51 -35.5 -80t-88.5 -29
z" />
    <glyph glyph-name="uni2155" unicode="&#x2155;" horiz-adv-x="841" 
d="M602 668h36l-360 -680h-36zM177 576h-85v27q77 0 119 38v-334l88 -11v-27h-215v27l93 11v269zM660 -12q-31 0 -56 10t-46.5 24t-35.5 18l30 42q31 -64 110 -64q41 0 68 26.5t27 70.5t-26 69.5t-67 25.5q-50 0 -87 -20l-22 7l19 190h137q44 0 60 12v-55q-17 10 -60 10
h-109l-12 -128q36 15 76 15q54 0 90.5 -33t36.5 -93q0 -58 -38 -92.5t-95 -34.5z" />
    <glyph glyph-name="uni2156" unicode="&#x2156;" horiz-adv-x="835" 
d="M601 668h36l-360 -680h-36zM56 297q106 80 150.5 131.5t44.5 102.5q0 40 -23 64.5t-57 24.5q-32 0 -58.5 -17t-38.5 -43l-26 40q8 2 47 26.5t76 24.5q49 0 82.5 -32.5t33.5 -87.5q0 -58 -43.5 -111t-131.5 -120h116q59 0 82 15v-46h-254v28zM654 -12q-31 0 -56 10t-47 24
t-36 18l30 42q33 -64 110 -64q41 0 68 26.5t27 70.5t-26 69.5t-67 25.5q-50 0 -87 -20l-22 7l19 190h137q45 0 60 12v-55q-16 10 -60 10h-109l-12 -128q36 15 77 15q53 0 89.5 -33t36.5 -93q0 -58 -38 -92.5t-94 -34.5z" />
    <glyph glyph-name="uni2157" unicode="&#x2157;" horiz-adv-x="817" 
d="M577 668h36l-360 -680h-36zM183 257q-31 0 -57 10.5t-48 24t-36 17.5l27 44q40 -66 114 -66q36 0 62 20.5t26 58.5q0 77 -141 77v29q58 0 91.5 22t33.5 57q0 32 -21.5 51t-55.5 19q-54 0 -97 -53l-23 42q8 2 48 21.5t72 19.5q48 0 80.5 -25.5t32.5 -72.5q0 -70 -78 -93
q40 -6 67 -30t27 -64q0 -51 -35.5 -80t-88.5 -29zM636 -12q-32 0 -57 10t-46.5 24t-35.5 18l30 42q31 -64 110 -64q41 0 68 26.5t27 70.5t-26 69.5t-67 25.5q-50 0 -87 -20l-22 7l19 190h137q45 0 60 12v-55q-16 10 -60 10h-109l-12 -128q36 15 76 15q54 0 90.5 -33
t36.5 -93q0 -58 -38 -92.5t-94 -34.5z" />
    <glyph glyph-name="uni2158" unicode="&#x2158;" horiz-adv-x="825" 
d="M582 668h37l-361 -680h-36zM223 379h-176v25l179 252h31v-247q41 0 57 13v-43h-57v-24q0 -63 14 -86h-62q14 23 14 86v24zM223 409v195l-137 -195h137zM644 -12q-31 0 -56 10t-47 24t-35 18l29 42q33 -64 111 -64q41 0 67.5 26.5t26.5 70.5t-26 69.5t-67 25.5
q-50 0 -87 -20l-22 7l19 190h137q45 0 60 12v-55q-16 10 -60 10h-108l-13 -128q36 15 77 15q53 0 89.5 -33t36.5 -93q0 -58 -38 -92.5t-94 -34.5z" />
    <glyph glyph-name="uni2159" unicode="&#x2159;" horiz-adv-x="837" 
d="M602 668h36l-360 -680h-36zM177 576h-85v27q77 0 119 38v-334l88 -11v-27h-215v27l93 11v269zM666 -12q-63 0 -101.5 50.5t-38.5 138.5q0 111 45 166.5t106 55.5q19 0 45.5 -5t37.5 -3l-15 -50q-22 27 -68 27q-42 0 -77 -44t-39 -131q45 50 108 50q57 0 89.5 -35
t32.5 -91t-35 -92.5t-90 -36.5zM667 212q-63 0 -105 -57q4 -63 31.5 -100t72.5 -37q40 0 65 28.5t25 70.5t-23.5 68.5t-65.5 26.5z" />
    <glyph glyph-name="uni215A" unicode="&#x215a;" horiz-adv-x="817" 
d="M180 257q-31 0 -56 10t-46.5 24t-35.5 18l29 42q33 -64 111 -64q41 0 67.5 26.5t26.5 70.5t-25.5 69.5t-66.5 25.5q-51 0 -88 -20l-22 7l19 190h137q45 0 61 12v-55q-17 10 -61 10h-108l-13 -128q38 15 77 15q53 0 89.5 -33t36.5 -93q0 -58 -37.5 -92.5t-94.5 -34.5z
M587 668h36l-360 -680h-36zM646 -12q-63 0 -101.5 50.5t-38.5 138.5q0 111 45 166.5t106 55.5q20 0 46 -4.5t37 -3.5l-15 -50q-20 27 -68 27q-42 0 -77 -44t-38 -131q44 50 107 50q57 0 90 -35t33 -91t-35.5 -92.5t-90.5 -36.5zM647 212q-62 0 -105 -57q4 -63 32 -100
t72 -37q40 0 65 28.5t25 70.5t-23.5 68.5t-65.5 26.5z" />
    <glyph glyph-name="oneeighth" unicode="&#x215b;" horiz-adv-x="833" 
d="M598 668h36l-360 -680h-37zM177 576h-85v27q77 0 119 38v-334l88 -11v-27h-215v27l93 11v269zM652 -12q-57 0 -93 31.5t-36 76.5q0 37 23 65.5t60 43.5v4q-66 26 -66 90q0 43 32.5 71.5t79.5 28.5q50 0 83 -28t33 -72q0 -64 -67 -95v-4q36 -12 58.5 -39.5t22.5 -60.5
q0 -50 -37 -81t-93 -31zM672 214q61 32 61 86q0 30 -23.5 48.5t-57.5 18.5q-32 0 -54.5 -19.5t-22.5 -48.5q0 -60 97 -85zM652 18q40 0 67.5 22.5t27.5 57.5q0 64 -113 95q-76 -34 -76 -95q0 -32 26.5 -56t67.5 -24z" />
    <glyph glyph-name="threeeighths" unicode="&#x215c;" horiz-adv-x="825" 
d="M585 668h36l-360 -680h-36zM183 257q-31 0 -57 10.5t-48 24t-36 17.5l27 44q40 -66 114 -66q36 0 62 20.5t26 58.5q0 77 -141 77v29q58 0 91.5 22t33.5 57q0 32 -21.5 51t-55.5 19q-54 0 -97 -53l-23 42q8 2 48 21.5t72 19.5q48 0 80.5 -25.5t32.5 -72.5q0 -70 -78 -93
q40 -6 67 -30t27 -64q0 -51 -35.5 -80t-88.5 -29zM644 -12q-58 0 -93.5 31t-35.5 77q0 37 23 65.5t60 43.5v4q-66 26 -66 90q0 43 32 71.5t80 28.5q50 0 83 -28t33 -72q0 -64 -67 -95v-4q36 -12 58.5 -39.5t22.5 -60.5q0 -50 -37 -81t-93 -31zM664 214q61 32 61 86
q0 29 -23.5 48t-57.5 19q-32 0 -54.5 -19.5t-22.5 -48.5q0 -60 97 -85zM644 18q40 0 67.5 22.5t27.5 57.5q0 64 -114 95q-75 -34 -75 -95q0 -32 26.5 -56t67.5 -24z" />
    <glyph glyph-name="fiveeighths" unicode="&#x215d;" horiz-adv-x="829" 
d="M180 257q-31 0 -56 10t-46.5 24t-35.5 18l29 42q33 -64 111 -64q41 0 67.5 26.5t26.5 70.5t-25.5 69.5t-66.5 25.5q-51 0 -88 -20l-22 7l19 190h137q45 0 61 12v-55q-17 10 -61 10h-108l-13 -128q38 15 77 15q53 0 89.5 -33t36.5 -93q0 -58 -37.5 -92.5t-94.5 -34.5z
M589 668h36l-360 -680h-37zM648 -12q-57 0 -93 31.5t-36 76.5q0 37 23 65.5t60 43.5v4q-66 26 -66 90q0 43 32 71.5t80 28.5q50 0 83 -28t33 -72q0 -64 -67 -95v-4q36 -12 58.5 -39.5t22.5 -60.5q0 -50 -37 -81t-93 -31zM668 214q61 32 61 86q0 30 -23.5 48.5t-57.5 18.5
q-32 0 -54.5 -19.5t-22.5 -48.5q0 -60 97 -85zM648 18q40 0 67.5 22.5t27.5 57.5q0 64 -114 95q-75 -34 -75 -95q0 -32 26.5 -56t67.5 -24z" />
    <glyph glyph-name="seveneighths" unicode="&#x215e;" horiz-adv-x="803" 
d="M548 668h36l-360 -680h-37zM143 269q6 113 34.5 194t98.5 162h-163q-45 0 -64 -15v54q19 -8 64 -8h201v-32q-74 -83 -102.5 -163t-32.5 -192h-36zM622 -12q-57 0 -93 31.5t-36 76.5q0 37 23 65.5t60 43.5v4q-66 26 -66 90q0 43 32.5 71.5t79.5 28.5q50 0 83 -28t33 -72
q0 -64 -67 -95v-4q36 -12 58.5 -39.5t22.5 -60.5q0 -50 -37 -81t-93 -31zM642 214q61 32 61 86q0 30 -23.5 48.5t-57.5 18.5q-32 0 -54.5 -19.5t-22.5 -48.5q0 -60 97 -85zM622 18q40 0 67.5 22.5t27.5 57.5q0 64 -113 95q-76 -34 -76 -95q0 -32 26.5 -56t67.5 -24z" />
    <glyph glyph-name="uni2189" unicode="&#x2189;" horiz-adv-x="808" 
d="M576 668h36l-360 -680h-37zM181 257q-65 0 -102.5 50.5t-37.5 147.5q0 96 37.5 146t102.5 50t102.5 -50.5t37.5 -145.5q0 -97 -37.5 -147.5t-102.5 -50.5zM181 288q47 0 75 43t28 124t-28 123t-75 42t-75.5 -42t-28.5 -123t28.5 -124t75.5 -43zM630 -12q-31 0 -57 10.5
t-48 24t-36 17.5l27 44q40 -66 114 -66q37 0 62.5 20.5t25.5 58.5q0 77 -141 77v29q58 0 91.5 22t33.5 57q0 32 -21.5 51t-55.5 19q-54 0 -97 -53l-22 42q8 2 47.5 21.5t71.5 19.5q48 0 80.5 -25.5t32.5 -72.5q0 -70 -78 -93q40 -6 67 -30t27 -64q0 -51 -35.5 -80t-88.5 -29
z" />
    <glyph glyph-name="arrowleft" unicode="&#x2190;" horiz-adv-x="889" 
d="M805 329v-39l-600 1v-60q-53 53 -131 80q80 28 131 79v-60z" />
    <glyph glyph-name="arrowup" unicode="&#x2191;" horiz-adv-x="290" 
d="M224 599h-60v-599h-39v599h-59q53 56 79 131q26 -75 79 -131z" />
    <glyph glyph-name="arrowright" unicode="&#x2192;" horiz-adv-x="890" 
d="M684 390q56 -53 131 -79q-76 -26 -131 -80v60l-599 -1v39l599 1v60z" />
    <glyph glyph-name="arrowdown" unicode="&#x2193;" horiz-adv-x="289" 
d="M164 130h60q-51 -51 -79 -131q-27 78 -80 131h60v600h39v-600z" />
    <glyph glyph-name="arrowboth" unicode="&#x2194;" horiz-adv-x="884" 
d="M679 231v59l-474 1v-60q-53 53 -131 80q79 27 131 78v-59l474 -1v60q53 -52 131 -78q-77 -26 -131 -80z" />
    <glyph glyph-name="arrowupdn" unicode="&#x2195;" horiz-adv-x="300" 
d="M230 600h-60v-473h60q-54 -50 -80 -132q-24 80 -79 132h60v473h-60q55 55 79 131q26 -79 80 -131z" />
    <glyph glyph-name="uni2196" unicode="&#x2196;" horiz-adv-x="653" 
d="M596 67l-28 -28l-424 424l-42 -43q0 74 -36 149q75 -36 148 -36l-42 -42z" />
    <glyph glyph-name="uni2197" unicode="&#x2197;" horiz-adv-x="653" 
d="M587 569q-36 -75 -36 -149l-42 42l-424 -423l-28 28l423 424l-42 42q74 0 149 36z" />
    <glyph glyph-name="uni2198" unicode="&#x2198;" horiz-adv-x="652" 
d="M550 187q0 -74 36 -149q-77 37 -149 37l43 43l-424 423l27 28l425 -424z" />
    <glyph glyph-name="uni2199" unicode="&#x2199;" horiz-adv-x="652" 
d="M596 541l-424 -423l43 -43q-72 0 -149 -37q36 75 36 149l42 -42l425 424z" />
    <glyph glyph-name="partialdiff" unicode="&#x2202;" horiz-adv-x="490" 
d="M247 -12q-87 0 -146.5 58t-59.5 173q0 105 55.5 163.5t142.5 58.5q46 0 90.5 -22.5t73.5 -62.5q-22 101 -72 173t-136 129q-31 21 -61 24l20 44q294 -157 294 -475q0 -121 -54.5 -192t-146.5 -71zM81 219q0 -96 46.5 -145t119.5 -49q86 0 131 80.5t30 191.5
q-33 55 -78.5 81.5t-87.5 26.5q-76 0 -118.5 -49t-42.5 -137z" />
    <glyph glyph-name="emptyset" unicode="&#x2205;" horiz-adv-x="506" 
d="M476 459q-28 -13 -66 -51q44 -55 44 -129q0 -88 -58 -144t-143 -56q-75 0 -128 44q-43 -43 -53 -69l-43 45q25 8 68 51q-44 53 -44 129q0 88 57.5 144t142.5 56q74 0 129 -44q41 42 51 67zM253 441q-70 0 -114 -44.5t-44 -117.5q0 -58 30 -101l230 230q-42 33 -102 33z
M253 117q70 0 114.5 44.5t44.5 117.5q0 58 -30 101l-230 -230q42 -33 101 -33z" />
    <glyph glyph-name="product" unicode="&#x220f;" horiz-adv-x="500" 
d="M374 624h-4v-614q0 -76 15 -103h-71q15 27 15 103v614h-168v-614q0 -74 15 -103h-71q15 27 15 103v614h-4q-62 0 -88 -15v56q32 -6 88 -6h258q68 0 98 6v-56q-25 15 -98 15z" />
    <glyph glyph-name="summation" unicode="&#x2211;" horiz-adv-x="449" 
d="M412 611q-26 16 -132 16h-182l220 -342l-220 -343h182q106 0 132 16v-57q-32 6 -132 6h-237l-3 38q26 14 72 85l162 255l-162 254q-46 71 -72 85l3 39h237q97 0 132 5v-57z" />
    <glyph glyph-name="minus" unicode="&#x2212;" horiz-adv-x="426" 
d="M40 280q23 -11 93 -11h161q69 0 92 11v-61q-25 10 -92 10h-161q-68 0 -92 -10z" />
    <glyph glyph-name="radical" unicode="&#x221a;" horiz-adv-x="489" 
d="M534 663q84 0 119 5v-57q-26 16 -119 16h-56l-195 -599q-29 -90 -26 -123h-75q4 29 -27 123l-69 208q-30 90 -50 120h67q-3 -34 21 -109l94 -293h5l225 709h86z" />
    <glyph glyph-name="infinity" unicode="&#x221e;" horiz-adv-x="785" 
d="M576 477q74 0 122 -46.5t48 -130.5q0 -83 -48 -132.5t-122 -49.5q-58 0 -110.5 42.5t-73.5 93.5q-24 -59 -74.5 -97.5t-108.5 -38.5q-74 0 -122 46.5t-48 129.5q0 84 48 133.5t121 49.5q58 0 110.5 -42.5t74.5 -93.5q24 59 74.5 97.5t108.5 38.5zM209 156q56 0 100.5 40
t66.5 95q-24 60 -69.5 104t-98.5 44q-56 0 -92 -39.5t-36 -105.5q0 -65 36 -101.5t93 -36.5zM576 156q57 0 93 39t36 105q0 65 -36.5 102t-92.5 37t-100.5 -40t-66.5 -95q24 -61 69.5 -104.5t97.5 -43.5z" />
    <glyph glyph-name="integral" unicode="&#x222b;" horiz-adv-x="344" 
d="M286 673q20 0 69 -9l-10 -48q-23 22 -60 22q-35 0 -49.5 -29.5t-21.5 -100.5l-45 -450q-10 -89 -35 -127t-76 -38q-20 0 -69 9l9 48q25 -22 61 -22q34 0 48.5 29.5t22.5 100.5l45 450q9 89 34.5 127t76.5 38z" />
    <glyph glyph-name="approxequal" unicode="&#x2248;" horiz-adv-x="399" 
d="M279 280q-33 0 -84.5 39t-71.5 39q-46 0 -46 -61l-37 2q0 43 21.5 71t60.5 28q32 0 83 -38.5t72 -38.5q45 0 45 60l37 -2q0 -42 -21.5 -70.5t-58.5 -28.5zM279 146q-33 0 -84.5 39t-71.5 39q-46 0 -46 -61l-37 2q0 43 22 71t60 28q32 0 83 -39t72 -39q45 0 45 61l37 -2
q0 -43 -21.5 -71t-58.5 -28z" />
    <glyph glyph-name="notequal" unicode="&#x2260;" horiz-adv-x="426" 
d="M294 293h-40l-41 -87h81q68 0 92 10v-60q-25 10 -92 10h-100l-28 -60l-32 15l21 45h-22q-68 0 -92 -10l-1 60q24 -10 93 -10h41l41 87h-82q-68 0 -92 -10l-1 60q26 -11 93 -11h100l28 60l32 -15l-21 -45h22q66 0 92 11v-60q-25 10 -92 10z" />
    <glyph glyph-name="lessequal" unicode="&#x2264;" horiz-adv-x="421" 
d="M291 245q64 -23 86 -23l-20 -55q-14 15 -84 43l-225 85v41l226 85q64 23 83 42l20 -55q-25 0 -86 -23l-186 -69zM134 114h155q71 0 89 11v-61q-20 10 -89 10h-155q-68 0 -87 -10l-1 61q18 -11 88 -11z" />
    <glyph glyph-name="greaterequal" unicode="&#x2265;" horiz-adv-x="421" 
d="M48 222q22 0 87 23l185 71l-185 69q-61 23 -87 23l21 55q17 -19 82 -42l226 -85v-41l-225 -85q-70 -28 -83 -43zM291 114q70 0 88 11v-61q-20 10 -88 10h-155q-69 0 -88 -10l-1 61q18 -11 89 -11h155z" />
    <glyph glyph-name="lozenge" unicode="&#x25ca;" horiz-adv-x="511" 
d="M275 547l174 -273l-174 -274h-39l-174 274l174 273h39zM256 35l152 239l-152 238l-153 -238z" />
    <glyph glyph-name="uni261A" unicode="&#x261a;" horiz-adv-x="1505" 
d="M617 -15q-23 14 -46 47t-23 43q0 17 14.5 54t32.5 69q-2 5 -7.5 8.5t-9.5 2.5q-21 -27 -38 -62t-17 -46q0 -8 15.5 -49t20.5 -48q-45 -11 -59 19q-5 11 -19 36.5t-21.5 42.5t-7.5 26q0 16 19.5 58.5t48.5 79.5q-12 15 -17 15q-25 -30 -47.5 -69t-22.5 -47q0 -7 5.5 -38
t7.5 -38q-21 -8 -32 -1.5t-23 34.5l-24 55q-8 19 1 39q29 65 95 132q-7 9 -14 9q-3 0 -16.5 -11t-20.5 -20q-54 0 -95 6t-42 6q-33 -10 -83 -17t-80 -4q-43 4 -51 38q-5 21 7 26q62 19 171 38.5t191 27.5q14 1 42.5 9.5t42.5 8.5q57 0 198.5 -27.5t205.5 -27.5q18 0 56 5
t59 4q28 -1 51.5 -62.5t23.5 -126.5q0 -39 -9 -64.5t-24 -25.5q-8 0 -54.5 7.5t-63.5 7.5q-23 0 -98 -40t-112 -41q-32 0 -69 39q-4 -14 -18 -28.5t-29 -21.5q12 -6 18 -21q30 24 51 24t21 -16q0 -26 -79 -65q-5 -2 -13.5 -2t-12.5 2zM1097 33q35 17 55 74t20 138
q0 63 -21 121.5t-54 65.5h257q28 0 50.5 -31.5t33 -73.5t10.5 -82q0 -81 -28.5 -146.5t-79.5 -65.5h-243zM1259 72q11 0 18.5 8t7.5 19t-7.5 18.5t-18.5 7.5q-10 0 -17.5 -8t-7.5 -18q0 -11 7.5 -19t17.5 -8z" />
    <glyph glyph-name="uni261B" unicode="&#x261b;" horiz-adv-x="1499" 
d="M863 -15q-79 39 -79 65q0 16 21 16t51 -24q6 15 18 21q-15 7 -29 21.5t-18 28.5q-37 -39 -69 -39q-37 1 -112 41t-98 40q-17 0 -63.5 -7.5t-54.5 -7.5q-15 0 -24 25.5t-9 64.5q0 65 23.5 126.5t51.5 62.5q21 1 59 -4t56 -5q64 0 205.5 27.5t198.5 27.5q14 0 42.5 -8.5
t42.5 -9.5q82 -8 191 -27.5t171 -38.5q12 -4 7 -25q-7 -32 -45 -38l-6 -1q-30 -3 -80 4t-83 17q-1 0 -42 -6t-95 -6q-7 9 -20.5 20t-16.5 11q-7 0 -14 -9q66 -67 95 -132q9 -20 1 -39l-24 -55q-12 -28 -23 -34.5t-32 1.5q2 7 7.5 38t5.5 38q0 8 -22.5 47t-47.5 69
q-4 0 -17 -15q29 -37 48.5 -79.5t19.5 -58.5q0 -9 -7.5 -26t-21.5 -42.5t-19 -36.5q-14 -30 -59 -19q5 7 20.5 48t15.5 49q0 11 -17 46t-38 62q-4 1 -9.5 -2.5t-7.5 -8.5q18 -32 32.5 -69t14.5 -54q0 -10 -23 -43t-46 -47q-4 -2 -12.5 -2t-13.5 2zM166 33q-51 0 -79.5 65.5
t-28.5 146.5q0 40 10.5 82t33 73.5t50.5 31.5h257q-33 -7 -54 -65.5t-21 -121.5q0 -81 20 -138t55 -74h-243zM247 72q10 0 17.5 8t7.5 19q0 10 -7.5 18t-17.5 8q-11 0 -18.5 -7.5t-7.5 -18.5t7.5 -19t18.5 -8z" />
    <glyph glyph-name="uni261C" unicode="&#x261c;" horiz-adv-x="986" 
d="M883 206q26 -5 36 -16.5t10 -37.5q0 -34 -12 -57t-36 -22l-130 9q-41 -27 -89 -27q-68 0 -160 25l-54 -2q-19 -1 -30.5 11.5t-11.5 26.5q0 15 7 24h-2q-20 -1 -31.5 11.5t-11.5 32.5q0 14 7 25q-39 4 -39 41q0 5 2 15q-59 -2 -65 36l-127 10q-64 4 -64 47q0 32 40 33
l349 7q61 24 94 24h38q38 0 77 -22t65 -51l133 10q22 1 37.5 -27t15.5 -64q0 -40 -45 -52l-23 -6zM883 88q15 -1 23 17.5t8 46.5q0 20 -6.5 27.5t-24.5 11.5l-47 11v13l50 16q30 9 30 37q0 31 -11 54t-27 22l-122 -10q7 -10 9 -19q-31 37 -74 64.5t-88 27.5h-38
q-31 0 -122.5 -37.5t-154.5 -40.5l-1 -19q-1 -18 19.5 -25.5t52.5 -2.5l93 15q15 2 46.5 -3t38.5 -5q22 0 69 27q-30 -28 -50 -37q33 -52 77 -70t102 -19q-113 -15 -172 56q-5 -14 -12 -20q41 -6 41 -40q0 -18 -14 -30q24 -10 24 -33q0 -14 -10.5 -26.5t-31.5 -13.5h-9
q62 -13 111 -13q72 0 151 82q-17 -32 -43 -55zM273 343q67 0 161 40l-310 -7q-24 0 -24 -18q0 -29 46 -32l127 -8v25zM352 250q0 -26 35 -25l131 6q30 1 30 22q0 14 -19 22q-2 0 -33 4.5t-45 2.5l-92 -15h-1q-6 -7 -6 -17zM384 184q0 -13 7 -21.5t20 -7.5l135 7q30 1 30 24
q0 29 -48 29q-3 -1 -10 -1l-121 -5q-13 -4 -13 -25zM446 93l114 5q27 1 27 25q0 21 -32 25q-2 -1 -6 -1l-119 -6q-9 -9 -9 -25q0 -9 7 -16.5t18 -6.5z" />
    <glyph glyph-name="uni261D" unicode="&#x261d;" horiz-adv-x="552" 
d="M438 44l9 -130q1 -24 -22 -36t-57 -12q-26 0 -37.5 10t-16.5 36l-4 20l-6 -23q-12 -45 -52 -45q-36 0 -64 15.5t-27 37.5l10 133q-29 26 -51 65t-22 77v38q0 33 24 94l7 349q1 40 33 40q43 0 47 -64l10 -127q38 -6 36 -65q10 2 15 2q37 0 41 -39q11 7 25 7
q20 0 32.5 -11.5t11.5 -31.5v-2q9 7 24 7q14 0 26.5 -11.5t11.5 -30.5l-2 -54q25 -92 25 -160q0 -48 -27 -89zM144 671l-7 -310q40 94 40 161h25l-8 127q-3 46 -32 46q-18 0 -18 -24zM368 -119q28 0 46.5 8t17.5 23l-9 113q-23 -26 -55 -43q82 79 82 151q0 49 -13 111v-9
q-1 -21 -13.5 -31.5t-26.5 -10.5q-23 0 -33 24q-12 -14 -30 -14q-34 0 -40 41q-6 -7 -20 -12q71 -59 56 -172q-1 58 -19 102t-70 77q-9 -20 -37 -50q27 47 27 69q0 7 -5 38.5t-3 46.5l15 93q5 32 -2.5 52.5t-25.5 19.5l-19 -1q-3 -63 -40.5 -154.5t-37.5 -122.5v-38
q0 -45 27.5 -88t64.5 -74q-9 2 -19 9l-10 -122q-1 -16 22 -27t54 -11q28 0 37 30l16 50h13l11 -47q4 -18 11.5 -24.5t27.5 -6.5zM270 443q-10 0 -17 -6v-1l-15 -92q-1 -16 -0.5 -25t3.5 -26.5t4 -26.5q8 -19 22 -19q21 0 22 30l6 131q1 35 -25 35zM336 411q-21 0 -25 -13
l-5 -121q0 -7 -1 -10q0 -48 29 -48q23 0 24 30l7 135q1 13 -7.5 20t-21.5 7zM379 365l-6 -119q0 -4 -1 -6q4 -32 25 -32q24 0 25 27l5 114q1 11 -6.5 18t-16.5 7q-16 0 -25 -9z" />
    <glyph glyph-name="uni261E" unicode="&#x261e;" horiz-adv-x="936" 
d="M877 391q40 -1 40 -33q0 -43 -64 -47l-127 -10q-6 -38 -65 -36q2 -10 2 -15q0 -37 -39 -41q7 -11 7 -25q0 -20 -11.5 -32.5t-31.5 -11.5h-2q7 -9 7 -24q0 -14 -11.5 -26.5t-30.5 -11.5l-54 2q-92 -25 -160 -25q-48 0 -89 27l-130 -9q-24 -1 -36 22t-12 57q0 26 10 37.5
t36 16.5l20 4l-23 6q-45 12 -45 52q0 36 15.5 64t37.5 27l133 -10q26 29 65 51t77 22h38q33 0 94 -24zM640 282q32 -5 52.5 2.5t19.5 25.5l-1 19q-63 3 -154.5 40.5t-122.5 37.5h-38q-45 0 -88 -27.5t-74 -64.5q2 9 9 19l-122 10q-16 1 -27 -22t-11 -54q0 -28 30 -37l50 -16
v-13l-47 -11q-18 -4 -24.5 -11.5t-6.5 -27.5q0 -28 8 -46.5t23 -17.5l113 9q-26 23 -43 55q79 -82 151 -82q49 0 111 13h-9q-21 1 -31.5 13.5t-10.5 26.5q0 23 24 33q-14 12 -14 30q0 34 41 40q-7 6 -12 20q-59 -71 -172 -56q58 1 102 19t77 70q-20 9 -50 37q47 -27 69 -27
q7 0 38.5 5t46.5 3zM853 326q46 3 46 32q0 18 -24 18l-310 7q94 -40 161 -40v-25zM647 250q0 10 -6 17h-1l-92 15q-16 1 -25 0.5t-26.5 -3.5t-26.5 -4q-19 -8 -19 -22q0 -21 30 -22l131 -6q35 -1 35 25zM588 155q13 -1 20 7.5t7 21.5q0 21 -13 25l-121 5q-7 0 -10 1
q-48 0 -48 -29q0 -23 30 -24zM578 116q0 16 -9 25l-119 6q-4 0 -6 1q-32 -4 -32 -25q0 -24 27 -25l114 -5q11 -1 18 6.5t7 16.5z" />
    <glyph glyph-name="uni261F" unicode="&#x261f;" horiz-adv-x="473" 
d="M421 284l2 -54q1 -19 -11.5 -30.5t-26.5 -11.5q-15 0 -24 7v-2q1 -20 -11.5 -31.5t-32.5 -11.5q-14 0 -25 7q-4 -39 -41 -39q-5 0 -15 2q2 -59 -36 -65l-10 -127q-4 -64 -47 -64q-32 0 -33 40l-7 349q-24 61 -24 94v38q0 38 22 77t51 65l-10 133q-1 22 27 37.5t64 15.5
q40 0 52 -45l6 -23l4 20q5 26 16.5 36t37.5 10q34 0 57 -12t22 -36l-9 -130q27 -41 27 -89q0 -68 -25 -160zM191 69q18 -1 25.5 19.5t2.5 52.5l-15 93q-2 15 3 46.5t5 38.5q0 22 -27 69q28 -30 37 -50q52 33 70 77t19 102q15 -113 -56 -172q14 -5 20 -12q6 41 40 41
q18 0 30 -14q10 24 33 24q14 0 26.5 -10.5t13.5 -31.5v-9q13 62 13 111q0 72 -82 151q32 -17 55 -43l9 113q1 15 -17.5 23t-46.5 8q-20 0 -27.5 -6.5t-11.5 -24.5l-11 -47h-13l-16 50q-9 30 -37 30q-31 0 -54 -11t-22 -27l10 -122q10 7 19 9q-37 -31 -64.5 -74t-27.5 -88
v-38q0 -31 37.5 -122.5t40.5 -154.5zM385 203q9 0 16.5 7t6.5 18l-5 114q-1 27 -25 27q-21 0 -25 -32q1 -2 1 -6l6 -119q9 -9 25 -9zM317 166q13 0 21.5 7t7.5 20l-7 135q-1 30 -24 30q-29 0 -29 -48q1 -3 1 -10l5 -121q4 -13 25 -13zM251 134q26 0 25 35l-6 131
q-1 30 -22 30q-14 0 -22 -19q0 -2 -4.5 -33t-2.5 -45l15 -92v-1q8 -6 17 -6zM143 -118q29 0 32 46l8 127h-25q0 67 -40 161l7 -310q0 -24 18 -24z" />
    <glyph glyph-name="K.ss04" horiz-adv-x="570" 
d="M85 659h71q-15 -27 -15 -103v-272h3l262 304q38 44 46 71h81q-6 -4 -11.5 -8t-11 -8.5t-9.5 -7.5t-10 -9l-8.5 -8.5t-9.5 -10.5t-9.5 -10.5t-11 -12.5t-11.5 -13l-140 -162q198 -603 561 -603q84 0 144 34l-10 -49q-56 -27 -140 -27q-108 0 -199 44.5t-162 129t-125 190
t-101 243.5l-128 -146v-122q0 -75 15 -103h-71q16 27 16 103v453q0 76 -16 103z" />
    <glyph glyph-name="uni0136.ss04" horiz-adv-x="570" 
d="M85 659h71q-15 -27 -15 -103v-272h3l262 304q38 44 46 71h81q-6 -4 -11.5 -8t-11 -8.5t-9.5 -7.5t-10 -9l-8.5 -8.5t-9.5 -10.5t-9.5 -10.5t-11 -12.5t-11.5 -13l-140 -162q198 -603 561 -603q84 0 144 34l-10 -49q-56 -27 -140 -27q-108 0 -199 44.5t-162 129t-125 190
t-101 243.5l-128 -146v-122q0 -75 15 -103h-71q16 27 16 103v453q0 76 -16 103zM302 -43q41 0 41 -52q0 -34 -19.5 -66.5t-53.5 -46.5l-10 17q48 23 52 77q-2 -2 -11 -2q-12 0 -22 10t-10 26q0 37 33 37z" />
    <glyph glyph-name="Q.ss05" horiz-adv-x="649" 
d="M763 -193q186 0 311 96l-6 -54q-129 -85 -304 -85q-140 0 -259.5 59.5t-174.5 164.5h-6q-118 0 -193.5 87t-75.5 257q0 174 74.5 256.5t194.5 82.5q121 0 195.5 -82.5t74.5 -256.5q0 -151 -60 -236.5t-159 -103.5q55 -90 160.5 -137.5t227.5 -47.5zM98 332
q0 -151 63 -228.5t163 -77.5t163.5 77.5t63.5 228.5q0 155 -62.5 228.5t-164.5 73.5t-164 -73.5t-62 -228.5z" />
    <glyph glyph-name="R.ss06" horiz-adv-x="554" 
d="M86 0q15 28 15 103v453q0 76 -16 103h183q117 0 175.5 -43t58.5 -143q0 -161 -157 -190q80 -220 206.5 -348.5t300.5 -128.5q87 0 146 35l-10 -49q-58 -28 -142 -28q-188 0 -326.5 140t-218.5 374h-160v-175q0 -75 15 -103h-70zM141 313h125q193 0 193 160q0 83 -48 117
t-153 34h-117v-311z" />
    <glyph glyph-name="Racute.ss06" horiz-adv-x="554" 
d="M237 739q79 56 135 149l32 -29q-57 -83 -153 -141zM86 0q15 28 15 103v453q0 76 -16 103h183q117 0 175.5 -43t58.5 -143q0 -161 -157 -190q80 -220 206.5 -348.5t300.5 -128.5q87 0 146 35l-10 -49q-58 -28 -142 -28q-188 0 -326.5 140t-218.5 374h-160v-175
q0 -75 15 -103h-70zM141 313h125q193 0 193 160q0 83 -48 117t-153 34h-117v-311z" />
    <glyph glyph-name="Rcaron.ss06" horiz-adv-x="554" 
d="M253 719q-51 88 -117 145l17 18q72 -54 117 -127h4q45 73 117 127l17 -18q-66 -57 -117 -145h-38zM86 0q15 28 15 103v453q0 76 -16 103h183q117 0 175.5 -43t58.5 -143q0 -161 -157 -190q80 -220 206.5 -348.5t300.5 -128.5q87 0 146 35l-10 -49q-58 -28 -142 -28
q-188 0 -326.5 140t-218.5 374h-160v-175q0 -75 15 -103h-70zM141 313h125q193 0 193 160q0 83 -48 117t-153 34h-117v-311z" />
    <glyph glyph-name="uni0156.ss06" horiz-adv-x="554" 
d="M86 0q15 28 15 103v453q0 76 -16 103h183q117 0 175.5 -43t58.5 -143q0 -161 -157 -190q80 -220 206.5 -348.5t300.5 -128.5q87 0 146 35l-10 -49q-58 -28 -142 -28q-188 0 -326.5 140t-218.5 374h-160v-175q0 -75 15 -103h-70zM141 313h125q193 0 193 160q0 83 -48 117
t-153 34h-117v-311zM288 -43q41 0 41 -52q0 -34 -19.5 -66.5t-53.5 -46.5l-10 17q48 23 52 77q-2 -2 -11 -2q-12 0 -22 10t-10 26q0 37 33 37z" />
    <glyph glyph-name="i.loclTRK" horiz-adv-x="219" 
d="M110 572q-36 0 -36 39q0 38 36 38t36 -38q0 -39 -36 -39zM81 0q9 30 9 103v273q0 75 -9 103h55q-7 -31 -7 -103v-273q0 -74 10 -103h-58z" />
    <glyph glyph-name="a.inferior" horiz-adv-x="349" 
d="M146 -173q-49 0 -78 25t-29 72q0 103 163 103h53v30q0 95 -84 95q-31 0 -58 -12.5t-40 -30.5l-20 42q3 1 45 17.5t74 16.5q121 0 121 -129v-135q0 -66 11 -86h-47v54h-2q-16 -27 -46 -44.5t-63 -17.5zM149 -142q29 0 58 19.5t48 54.5v64h-53q-124 0 -124 -71
q0 -33 19.5 -50t51.5 -17z" />
    <glyph glyph-name="b.inferior" horiz-adv-x="384" 
d="M209 -173q-67 0 -106 44h-4l1 -35h-44q8 20 8 76v358q0 54 -10 76h56q-8 -22 -8 -76v-133q40 49 108 49q67 0 103.5 -46.5t36.5 -131.5q0 -86 -37 -133.5t-104 -47.5zM205 -139q52 0 79 39t27 108q0 67 -27.5 106t-78.5 39q-62 0 -103 -57v-180q42 -55 103 -55z" />
    <glyph glyph-name="c.inferior" horiz-adv-x="323" 
d="M185 -173q-150 0 -150 179q0 94 41.5 137t108.5 43q21 0 38.5 -4.5t40.5 -13.5l22 -10l-19 -44q-30 39 -81 39q-111 0 -111 -147q0 -145 111 -145q62 0 91 39l19 -44q-3 -1 -15 -6t-21.5 -8t-22.5 -7t-26.5 -6t-25.5 -2z" />
    <glyph glyph-name="d.inferior" horiz-adv-x="385" 
d="M178 -173q-67 0 -105 46.5t-38 133.5q0 86 39 132.5t105 46.5t104 -45v129q0 58 -8 76h53q-7 -21 -7 -76v-358q0 -57 9 -76h-45l1 38h-3q-41 -47 -105 -47zM183 -139q62 0 100 58v179q-40 55 -100 55q-50 0 -79 -39t-29 -107q0 -69 28 -107.5t80 -38.5z" />
    <glyph glyph-name="e.inferior" horiz-adv-x="358" 
d="M191 -173q-156 0 -156 179q0 92 40.5 136t106.5 44q64 0 99.5 -41.5t35.5 -114.5q0 -16 -2 -28h-240q1 -74 29.5 -108t89.5 -34q65 0 100 38l14 -43q-66 -28 -117 -28zM279 32q0 58 -25 89.5t-71 31.5q-50 0 -78 -32t-30 -89h204z" />
    <glyph glyph-name="f.inferior" horiz-adv-x="204" 
d="M70 153h-47v33h47v56q0 121 103 121q15 0 35 -3.5t23 -3.5l-8 -41q-16 15 -49 15q-67 0 -67 -88v-56h78v-37q-20 4 -78 4v-237q0 -55 9 -72h-55q9 17 9 72v237z" />
    <glyph glyph-name="g.inferior" horiz-adv-x="346" 
d="M329 138q-24 12 -74 12v-2q35 -35 35 -83q0 -56 -34 -88t-88 -32q-20 0 -40 5q-17 -12 -17 -32q0 -22 15.5 -29.5t59.5 -7.5q143 0 143 -92q0 -95 -154 -95q-141 0 -141 92q0 53 60 84q-16 16 -16 43t25 48q-57 29 -57 104q0 57 34 89t88 32q26 0 48 -9h45q35 0 68 5v-44
zM168 -26q37 0 61.5 23t24.5 68q0 41 -25 65.5t-61 24.5q-37 0 -60.5 -22t-23.5 -68q0 -45 24 -68t60 -23zM292 -211q0 29 -25 43t-83 14q-42 0 -65 9q-49 -27 -49 -68q0 -63 106 -63q116 0 116 65z" />
    <glyph glyph-name="h.inferior" horiz-adv-x="378" 
d="M54 354h56q-8 -18 -8 -75v-113q0 -24 -3 -32h3q45 60 114 60q106 0 106 -132v-142q0 -55 9 -76h-56q9 18 9 76v140q0 102 -74 102q-60 0 -108 -69v-173q0 -58 9 -76h-57q10 18 10 76v358q0 58 -10 76z" />
    <glyph glyph-name="i.inferior" horiz-adv-x="167" 
d="M84 258q-29 0 -29 31q0 29 29 29q30 0 30 -29q0 -31 -30 -31zM55 -160q10 20 10 76v190q0 56 -10 76h55q-7 -19 -7 -76v-190q0 -58 10 -76h-58z" />
    <glyph glyph-name="j.inferior" horiz-adv-x="167" 
d="M83 259q-29 0 -29 30t29 30t29 -30t-29 -30zM18 -301q-10 0 -27.5 2.5t-23.5 2.5l10 44q15 -16 40 -16q27 0 37.5 20t10.5 59v296q0 53 -10 76h55q-8 -21 -8 -76v-296q0 -57 -19.5 -84.5t-64.5 -27.5z" />
    <glyph glyph-name="k.inferior" horiz-adv-x="336" 
d="M54 351h56q-8 -18 -8 -76v-266q0 -18 -3 -29h4l121 151q27 34 30 52h64q-28 -22 -66 -69l-56 -68l86 -134q30 -47 56 -71h-64q-2 22 -26 61l-75 116l-71 -86v-16q0 -57 9 -75h-57q10 18 10 76v358q0 58 -10 76z" />
    <glyph glyph-name="l.inferior" horiz-adv-x="166" 
d="M54 -162q10 18 10 76v358q0 57 -10 76h55q-7 -20 -7 -76v-358q0 -58 10 -76h-58z" />
    <glyph glyph-name="m.inferior" horiz-adv-x="578" 
d="M54 178h47l-1 -52h3q16 24 45 42t60 18q76 0 95 -68q51 68 115 68q104 0 104 -127v-147q0 -57 10 -76h-57q9 19 9 76v146q0 95 -71 95q-53 0 -101 -64v-177q0 -57 9 -76h-56q9 19 9 76v146q0 95 -71 95q-53 0 -101 -64v-177q0 -57 9 -76h-57q10 19 10 76v190q0 58 -10 76
z" />
    <glyph glyph-name="n.inferior" horiz-adv-x="378" 
d="M54 181h46q0 -47 -1 -56h3q19 26 50 43.5t65 17.5q105 0 105 -130v-135q0 -62 9 -85h-56q9 20 9 85v133q0 99 -74 99q-60 0 -108 -67v-165q0 -64 8 -85h-56q10 21 10 85v175q0 65 -10 85z" />
    <glyph glyph-name="o.inferior" horiz-adv-x="378" 
d="M189 -173q-70 0 -112 45.5t-42 133.5q0 90 41.5 135t112.5 45t112.5 -45t41.5 -135q0 -88 -42 -133.5t-112 -45.5zM189 -139q55 0 84.5 36.5t29.5 108.5t-29.5 109.5t-84.5 37.5t-84.5 -37.5t-29.5 -109.5q0 -71 29.5 -108t84.5 -37z" />
    <glyph glyph-name="p.inferior" horiz-adv-x="384" 
d="M101 -129v-100q0 -57 10 -77h-57q10 21 10 77v334q0 56 -10 76h47l-2 -44h3q41 49 108 49t103.5 -46.5t36.5 -131.5q0 -86 -37.5 -133.5t-103.5 -47.5t-108 44zM205 -139q51 0 78.5 39t27.5 108q0 67 -27.5 106t-78.5 39q-60 0 -103 -57v-180q41 -55 103 -55z" />
    <glyph glyph-name="q.inferior" horiz-adv-x="385" 
d="M178 -173q-67 0 -105 46.5t-38 133.5q0 86 39 132.5t105 46.5t104 -45h4q-2 16 -2 40h45q-9 -23 -9 -76v-334q0 -53 10 -77h-58q10 20 10 76v73q0 12 3 30h-3q-41 -46 -105 -46zM181 -139q63 0 102 59v178q-40 55 -102 55q-49 0 -77.5 -39t-28.5 -107q0 -69 28 -107.5
t78 -38.5z" />
    <glyph glyph-name="r.inferior" horiz-adv-x="241" 
d="M54 178h46q0 -47 -1 -65h4q11 32 36.5 52.5t55.5 20.5q9 0 21.5 -1t16.5 -1l-9 -46q-12 14 -34 14q-26 0 -50.5 -26t-37.5 -69v-145q0 -59 10 -76h-58q10 18 10 76v190q0 57 -10 76z" />
    <glyph glyph-name="s.inferior" horiz-adv-x="296" 
d="M147 -173q-22 0 -46 5.5t-46 12.5t-31 9l19 52q13 -21 42 -34t62 -13q81 0 81 66q0 45 -74 66l-20 7q-92 27 -92 97q0 42 30 66.5t81 24.5q17 0 36 -4t39 -10.5t27 -8.5l-18 -47q-26 38 -83 38q-34 0 -54.5 -15.5t-20.5 -41.5q0 -44 67 -65l21 -7q99 -30 99 -99
q0 -46 -31 -72.5t-88 -26.5z" />
    <glyph glyph-name="t.inferior" horiz-adv-x="230" 
d="M161 -173q-88 0 -88 104v218h-51v26q54 5 89 61v-58h92v-35q-23 6 -92 6v-216q0 -36 11.5 -55t43.5 -19q25 0 43 19l10 -44l-28 -4t-30 -3z" />
    <glyph glyph-name="u.inferior" horiz-adv-x="378" 
d="M161 -173q-103 0 -103 136v139q0 55 -11 76h49v-214q0 -103 71 -103q67 0 110 75v166q0 54 -9 76h46v-266q0 -54 10 -76h-49q0 34 3 55h-3q-16 -28 -46.5 -46t-67.5 -18z" />
    <glyph glyph-name="v.inferior" horiz-adv-x="327" 
d="M7 178h58q-3 -22 13 -66l55 -156q18 -46 30 -85h4q5 17 29 85l55 156q16 45 13 66h56q-16 -21 -36 -75l-69 -189q-19 -56 -18 -78h-65q1 22 -19 78l-70 189q-22 57 -36 75z" />
    <glyph glyph-name="w.inferior" horiz-adv-x="486" 
d="M422 178h54q-18 -33 -31 -78l-52 -188q-14 -54 -14 -76h-61q0 32 -12 75l-63 219l-62 -219q-13 -46 -13 -75h-59q0 26 -14 76l-54 188q-22 62 -31 78h57q-4 -22 10 -70l63 -232l68 244q10 38 9 58h56q-3 -20 9 -59l67 -240l64 229q13 47 9 70z" />
    <glyph glyph-name="x.inferior" horiz-adv-x="303" 
d="M296 -164h-60q1 15 -18 47l-69 106l-67 -107q-20 -32 -18 -46h-58q18 15 42 53l81 126l-71 110q-26 40 -43 53h61q0 -19 18 -47l61 -95l58 95q18 29 17 47h57q-15 -13 -41 -53l-71 -114l79 -122q23 -36 42 -53z" />
    <glyph glyph-name="y.inferior" horiz-adv-x="320" 
d="M57 -306q-7 0 -20 1t-18 1l10 49q12 -18 32 -18q61 0 86 85l8 24h-6l-106 264q-20 52 -39 78h59q-4 -21 14 -66l91 -235h3l79 235q16 44 10 66h57q-17 -29 -34 -78l-103 -296q-38 -110 -123 -110z" />
    <glyph glyph-name="z.inferior" horiz-adv-x="293" 
d="M20 -136q11 7 33 39l163 243h-97q-59 0 -77 -11v46q30 -3 61 -3h160l2 -29q-13 -11 -26 -30l-170 -251h119q63 0 84 10v-46q-29 4 -65 4h-184z" />
    <glyph glyph-name="a.ordn" horiz-adv-x="349" 
d="M146 307q-49 0 -78 25t-29 72q0 103 163 103h53v30q0 95 -84 95q-31 0 -58 -12.5t-40 -30.5l-20 42q3 1 45 17.5t74 16.5q121 0 121 -129v-135q0 -66 11 -86h-47v54h-2q-16 -27 -46 -44.5t-63 -17.5zM149 338q29 0 58 19.5t48 54.5v64h-53q-124 0 -124 -71
q0 -33 19.5 -50t51.5 -17z" />
    <glyph glyph-name="b.ordn" horiz-adv-x="384" 
d="M209 307q-66 0 -106 43h-4l1 -35h-44q8 20 8 76v358q0 54 -10 76h56q-8 -22 -8 -76v-133q40 49 108 49q67 0 103.5 -46.5t36.5 -130.5q0 -87 -37 -134t-104 -47zM205 340q52 0 79 39t27 108q0 67 -27.5 106t-78.5 39q-62 0 -103 -57v-180q42 -55 103 -55z" />
    <glyph glyph-name="c.ordn" horiz-adv-x="323" 
d="M185 307q-150 0 -150 178q0 94 41.5 137t108.5 43q16 0 33 -3.5t25.5 -6.5t25 -10.5t17.5 -7.5l-19 -44q-30 39 -81 39q-111 0 -111 -147q0 -145 111 -145q62 0 91 39l19 -43q-71 -29 -111 -29z" />
    <glyph glyph-name="d.ordn" horiz-adv-x="385" 
d="M178 307q-67 0 -105 46t-38 133q0 86 39 132.5t105 46.5q65 0 104 -44v128q0 58 -8 76h53q-7 -20 -7 -76v-358q0 -55 9 -76h-45l1 38h-3q-40 -46 -105 -46zM183 340q61 0 100 58v179q-40 55 -100 55q-50 0 -79 -39t-29 -107q0 -69 28 -107.5t80 -38.5z" />
    <glyph glyph-name="e.ordn" horiz-adv-x="358" 
d="M191 307q-156 0 -156 178q0 92 40.5 136t106.5 44q64 0 99.5 -41.5t35.5 -114.5q0 -16 -2 -28h-240q1 -74 29.5 -107.5t89.5 -33.5q66 0 100 37l14 -43q-64 -27 -117 -27zM279 511q0 58 -25 89.5t-71 31.5q-50 0 -78 -32t-30 -89h204z" />
    <glyph glyph-name="eacute.ordn" horiz-adv-x="358" 
d="M154 734q55 36 100 103l26 -26q-43 -59 -113 -96zM191 307q-156 0 -156 178q0 92 40.5 136t106.5 44q64 0 99.5 -41.5t35.5 -114.5q0 -16 -2 -28h-240q1 -74 29.5 -107.5t89.5 -33.5q66 0 100 37l14 -43q-64 -27 -117 -27zM279 511q0 58 -25 89.5t-71 31.5q-50 0 -78 -32
t-30 -89h204z" />
    <glyph glyph-name="egrave.ordn" horiz-adv-x="358" 
d="M248 734l-13 -19q-71 39 -112 96l25 26q44 -65 100 -103zM191 307q-156 0 -156 178q0 92 40.5 136t106.5 44q64 0 99.5 -41.5t35.5 -114.5q0 -16 -2 -28h-240q1 -74 29.5 -107.5t89.5 -33.5q66 0 100 37l14 -43q-64 -27 -117 -27zM279 511q0 58 -25 89.5t-71 31.5
q-50 0 -78 -32t-30 -89h204z" />
    <glyph glyph-name="f.ordn" horiz-adv-x="204" 
d="M70 624h-47v33h47v56q0 120 103 120q15 0 35 -3t23 -3l-8 -41q-16 15 -49 15q-67 0 -67 -88v-56h78v-37q-20 4 -78 4v-237q0 -55 9 -72h-55q9 17 9 72v237z" />
    <glyph glyph-name="g.ordn" horiz-adv-x="346" 
d="M329 617q-24 12 -74 12v-2q35 -35 35 -83q0 -56 -34 -87.5t-88 -31.5q-19 0 -39 5q-18 -13 -18 -33q0 -22 15.5 -29.5t59.5 -7.5q75 0 109 -22.5t34 -69.5q0 -95 -154 -95q-141 0 -141 92q0 53 60 84q-16 16 -16 43t25 48q-57 32 -57 105q0 57 34 88.5t88 31.5
q24 0 48 -8h45q41 0 68 4v-44zM168 454q37 0 61.5 22.5t24.5 68.5q0 41 -25 65t-61 24q-37 0 -60.5 -22t-23.5 -67q0 -46 24 -68.5t60 -22.5zM292 268q0 58 -108 58q-41 0 -65 8q-49 -25 -49 -68q0 -63 106 -63q116 0 116 65z" />
    <glyph glyph-name="h.ordn" horiz-adv-x="378" 
d="M54 825h56q-8 -18 -8 -75v-113q0 -26 -3 -32h3q45 60 114 60q106 0 106 -133v-141q0 -55 9 -76h-56q9 18 9 76v140q0 101 -74 101q-61 0 -108 -68v-173q0 -58 9 -76h-57q10 18 10 76v358q0 58 -10 76z" />
    <glyph glyph-name="i.ordn" horiz-adv-x="169" 
d="M84 733q-29 0 -29 31q0 29 29 29q30 0 30 -29q0 -31 -30 -31zM55 315q10 20 10 76v190q0 56 -10 76h55q-7 -19 -7 -76v-190q0 -58 10 -76h-58z" />
    <glyph glyph-name="j.ordn" horiz-adv-x="167" 
d="M83 733q-29 0 -29 31q0 13 8 21t21 8q29 0 29 -29q0 -31 -29 -31zM18 173q-10 0 -27.5 2.5t-23.5 2.5l10 45q14 -17 40 -17q27 0 37.5 20t10.5 59v296q0 53 -10 76h55q-8 -21 -8 -76v-296q0 -57 -19.5 -84.5t-64.5 -27.5z" />
    <glyph glyph-name="k.ordn" horiz-adv-x="336" 
d="M54 825h56q-8 -18 -8 -76v-266q0 -17 -3 -29h4l121 151q27 33 30 52h64q-27 -21 -66 -68l-56 -69l86 -134q30 -47 56 -71h-64q-2 22 -26 61l-75 116l-71 -85v-17q0 -57 9 -75h-57q10 18 10 76v358q0 58 -10 76z" />
    <glyph glyph-name="l.ordn" horiz-adv-x="166" 
d="M54 315q10 18 10 76v358q0 57 -10 76h55q-7 -20 -7 -76v-358q0 -58 10 -76h-58z" />
    <glyph glyph-name="m.ordn" horiz-adv-x="578" 
d="M54 657h47l-1 -52h3q16 24 45 42t60 18q76 0 95 -68q51 68 115 68q104 0 104 -127v-147q0 -57 10 -76h-57q9 20 9 76v146q0 95 -71 95q-53 0 -101 -64v-177q0 -57 9 -76h-56q9 19 9 76v146q0 95 -71 95q-53 0 -101 -64v-177q0 -57 9 -76h-57q10 19 10 76v190q0 58 -10 76
z" />
    <glyph glyph-name="n.ordn" horiz-adv-x="378" 
d="M54 661h46q0 -47 -1 -56h3q45 60 115 60q105 0 105 -130v-134q0 -63 9 -86h-56q9 20 9 86v132q0 99 -74 99q-60 0 -108 -67v-164q0 -65 8 -86h-56q10 21 10 86v175q0 64 -10 85z" />
    <glyph glyph-name="o.ordn" horiz-adv-x="378" 
d="M189 307q-70 0 -112 45t-42 133q0 90 41.5 135t112.5 45t112.5 -45t41.5 -135q0 -88 -42 -133t-112 -45zM189 340q55 0 84.5 36.5t29.5 108.5t-29.5 109.5t-84.5 37.5t-84.5 -37.5t-29.5 -109.5q0 -71 29.5 -108t84.5 -37z" />
    <glyph glyph-name="p.ordn" horiz-adv-x="384" 
d="M101 350v-100q0 -57 10 -76h-57q10 20 10 76v334q0 56 -10 76h47l-2 -44h3q41 49 108 49t103.5 -46.5t36.5 -130.5q0 -86 -37.5 -133.5t-103.5 -47.5q-67 0 -108 43zM205 340q50 0 78 39.5t28 107.5q0 67 -27.5 106t-78.5 39q-60 0 -103 -57v-180q41 -55 103 -55z" />
    <glyph glyph-name="q.ordn" horiz-adv-x="385" 
d="M178 307q-67 0 -105 46t-38 133q0 86 39 132.5t105 46.5q65 0 104 -44h4q-2 16 -2 39h45q-9 -23 -9 -76v-334q0 -54 10 -76h-58q10 20 10 75v73q0 12 3 30h-3q-40 -45 -105 -45zM181 340q63 0 102 59v178q-40 55 -102 55q-49 0 -77.5 -39t-28.5 -107q0 -69 28 -107.5
t78 -38.5z" />
    <glyph glyph-name="r.ordn" horiz-adv-x="241" 
d="M54 657h46q0 -47 -1 -65h4q11 32 36.5 52.5t55.5 20.5q9 0 21.5 -1t16.5 -1l-9 -46q-12 14 -34 14q-26 0 -50.5 -26t-37.5 -69v-145q0 -58 10 -76h-58q10 18 10 76v190q0 57 -10 76z" />
    <glyph glyph-name="s.ordn" horiz-adv-x="296" 
d="M147 307q-30 0 -74.5 12.5t-48.5 13.5l19 52q13 -20 42 -33.5t62 -13.5q81 0 81 66q0 44 -74 67l-20 6q-92 29 -92 98q0 42 30 66t81 24q17 0 36 -4t39 -10.5t27 -8.5l-18 -47q-27 39 -83 39q-34 0 -54.5 -16t-20.5 -42q0 -44 67 -65l21 -7q99 -30 99 -98
q0 -46 -31 -72.5t-88 -26.5z" />
    <glyph glyph-name="t.ordn" horiz-adv-x="231" 
d="M161 307q-88 0 -88 103v218h-51v26q52 5 89 61v-58h92v-35q-23 6 -92 6v-216q0 -36 11.5 -55t43.5 -19q25 0 43 19l10 -44q-7 -1 -19.5 -2.5t-22 -2.5t-16.5 -1z" />
    <glyph glyph-name="u.ordn" horiz-adv-x="379" 
d="M161 307q-103 0 -103 135v139q0 55 -11 76h49v-214q0 -103 71 -103q67 0 110 75v166q0 54 -9 76h46v-266q0 -53 10 -76h-49q0 34 3 55h-3q-16 -28 -46.5 -45.5t-67.5 -17.5z" />
    <glyph glyph-name="v.ordn" horiz-adv-x="327" 
d="M7 657h58q-3 -22 13 -66l55 -156q18 -46 30 -85h4q5 17 29 85l55 156q16 46 13 66h56q-16 -21 -36 -75l-69 -189q-19 -54 -18 -78h-65q1 22 -19 78l-70 189q-22 57 -36 75z" />
    <glyph glyph-name="w.ordn" horiz-adv-x="486" 
d="M422 657h54q-18 -33 -31 -78l-52 -188q-14 -54 -14 -76h-61q0 32 -12 75l-63 219l-62 -219q-13 -46 -13 -75h-59q0 26 -14 76l-54 188q-22 64 -31 78h57q-4 -22 10 -70l63 -232l68 244q10 38 9 58h56q-3 -21 9 -58l67 -241l64 229q13 47 9 70z" />
    <glyph glyph-name="x.ordn" horiz-adv-x="303" 
d="M296 315h-60q1 15 -18 47l-69 106l-67 -106q-20 -32 -18 -47h-58q20 18 42 53l81 126l-71 110q-26 40 -43 53h61q0 -19 18 -47l61 -95l58 95q18 30 17 47h57q-17 -15 -41 -53l-71 -114l79 -122q23 -36 42 -53z" />
    <glyph glyph-name="y.ordn" horiz-adv-x="320" 
d="M57 173q-7 0 -20 1t-18 1l10 49q12 -18 32 -18q61 0 86 85l8 24h-6l-106 264q-20 52 -39 78h59q-4 -21 14 -66l91 -235h3l79 235q16 44 10 66h57q-17 -29 -34 -78l-103 -296q-38 -110 -123 -110z" />
    <glyph glyph-name="z.ordn" horiz-adv-x="293" 
d="M20 343q9 6 33 39l163 243h-97q-59 0 -77 -11v46q30 -3 61 -3h160l2 -29q-13 -11 -26 -30l-170 -251h119q63 0 84 11v-47q-29 4 -65 4h-184z" />
    <glyph glyph-name="a.ss01" horiz-adv-x="527" 
d="M254 -12q-96 0 -149 65t-53 187q0 121 53.5 186t149.5 65q94 0 151 -69q0 33 -11 64h51l1 -383q0 -77 10 -103h-49l1 56h-3q-58 -68 -152 -68zM256 24q91 0 152 85v264q-61 83 -152 83q-77 0 -119.5 -58t-42.5 -158q0 -101 42 -158.5t120 -57.5z" />
    <glyph glyph-name="aacute.ss01" horiz-adv-x="527" 
d="M245 582q79 56 135 149l32 -29q-57 -83 -153 -141zM254 -12q-96 0 -149 65t-53 187q0 121 53.5 186t149.5 65q94 0 151 -69q0 33 -11 64h51l1 -383q0 -77 10 -103h-49l1 56h-3q-58 -68 -152 -68zM256 24q91 0 152 85v264q-61 83 -152 83q-77 0 -119.5 -58t-42.5 -158
q0 -101 42 -158.5t120 -57.5z" />
    <glyph glyph-name="abreve.ss01" horiz-adv-x="527" 
d="M280 559q-111 0 -109 142h28q0 -48 19.5 -79.5t61.5 -31.5q43 0 62.5 31.5t19.5 79.5h28q0 -142 -110 -142zM254 -12q-96 0 -149 65t-53 187q0 121 53.5 186t149.5 65q94 0 151 -69q0 33 -11 64h51l1 -383q0 -77 10 -103h-49l1 56h-3q-58 -68 -152 -68zM256 24
q91 0 152 85v264q-61 83 -152 83q-77 0 -119.5 -58t-42.5 -158q0 -101 42 -158.5t120 -57.5z" />
    <glyph glyph-name="acircumflex.ss01" horiz-adv-x="527" 
d="M261 723h38q48 -88 116 -145l-16 -19q-72 54 -117 127h-4q-45 -73 -117 -127l-16 19q66 57 116 145zM254 -12q-96 0 -149 65t-53 187q0 121 53.5 186t149.5 65q94 0 151 -69q0 33 -11 64h51l1 -383q0 -77 10 -103h-49l1 56h-3q-58 -68 -152 -68zM256 24q91 0 152 85v264
q-61 83 -152 83q-77 0 -119.5 -58t-42.5 -158q0 -101 42 -158.5t120 -57.5z" />
    <glyph glyph-name="adieresis.ss01" horiz-adv-x="527" 
d="M221 585q-15 0 -25 10.5t-10 25.5q0 14 10 24.5t25 10.5t25 -10.5t10 -24.5q0 -15 -10 -25.5t-25 -10.5zM343 585q-15 0 -25 10.5t-10 25.5q0 14 10 24.5t25 10.5t25 -10.5t10 -24.5q0 -15 -10 -25.5t-25 -10.5zM254 -12q-96 0 -149 65t-53 187q0 121 53.5 186t149.5 65
q94 0 151 -69q0 33 -11 64h51l1 -383q0 -77 10 -103h-49l1 56h-3q-58 -68 -152 -68zM256 24q91 0 152 85v264q-61 83 -152 83q-77 0 -119.5 -58t-42.5 -158q0 -101 42 -158.5t120 -57.5z" />
    <glyph glyph-name="agrave.ss01" horiz-adv-x="527" 
d="M318 585l-13 -22q-99 57 -155 139l30 31q59 -95 138 -148zM254 -12q-96 0 -149 65t-53 187q0 121 53.5 186t149.5 65q94 0 151 -69q0 33 -11 64h51l1 -383q0 -77 10 -103h-49l1 56h-3q-58 -68 -152 -68zM256 24q91 0 152 85v264q-61 83 -152 83q-77 0 -119.5 -58
t-42.5 -158q0 -101 42 -158.5t120 -57.5z" />
    <glyph glyph-name="amacron.ss01" horiz-adv-x="527" 
d="M181 630h200v-35h-200v35zM254 -12q-96 0 -149 65t-53 187q0 121 53.5 186t149.5 65q94 0 151 -69q0 33 -11 64h51l1 -383q0 -77 10 -103h-49l1 56h-3q-58 -68 -152 -68zM256 24q91 0 152 85v264q-61 83 -152 83q-77 0 -119.5 -58t-42.5 -158q0 -101 42 -158.5t120 -57.5
z" />
    <glyph glyph-name="aogonek.ss01" horiz-adv-x="527" 
d="M455 -130l16 -32q-27 -19 -60 -19q-34 0 -55.5 17t-21.5 52q0 31 23 61.5t60 50.5h-9l1 56h-3q-58 -68 -152 -68q-96 0 -149 65t-53 187q0 121 53.5 186t149.5 65q94 0 151 -69q0 33 -11 64h51l1 -383q0 -77 10 -103q-39 -20 -63.5 -50t-24.5 -60q0 -20 13 -31t31 -11
q26 0 42 22zM408 109v264q-61 83 -152 83q-77 0 -119.5 -58t-42.5 -158q0 -101 42 -158.5t120 -57.5q91 0 152 85z" />
    <glyph glyph-name="aring.ss01" horiz-adv-x="527" 
d="M280 560q-38 0 -63 21.5t-25 56.5q0 36 25 57t63 21t63 -21t25 -57q0 -35 -25 -56.5t-63 -21.5zM280 587q24 0 40 12.5t16 38.5t-16 38.5t-40 12.5t-40 -12.5t-16 -38.5t16 -38.5t40 -12.5zM254 -12q-96 0 -149 65t-53 187q0 121 53.5 186t149.5 65q94 0 151 -69
q0 33 -11 64h51l1 -383q0 -77 10 -103h-49l1 56h-3q-58 -68 -152 -68zM256 24q91 0 152 85v264q-61 83 -152 83q-77 0 -119.5 -58t-42.5 -158q0 -101 42 -158.5t120 -57.5z" />
    <glyph glyph-name="atilde.ss01" horiz-adv-x="527" 
d="M346 575q-21 0 -40.5 13t-32.5 29t-29 29t-31 13q-50 0 -42 -67l-43 2q18 95 87 95q21 0 40.5 -13t32 -29t29 -29t31.5 -13q23 0 34 18t7 48l43 -2q-18 -94 -86 -94zM254 -12q-96 0 -149 65t-53 187q0 121 53.5 186t149.5 65q94 0 151 -69q0 33 -11 64h51l1 -383
q0 -77 10 -103h-49l1 56h-3q-58 -68 -152 -68zM256 24q91 0 152 85v264q-61 83 -152 83q-77 0 -119.5 -58t-42.5 -158q0 -101 42 -158.5t120 -57.5z" />
    <glyph glyph-name="g.ss02" horiz-adv-x="527" 
d="M52 240q0 121 53.5 186t149.5 65q94 0 151 -69q0 33 -11 64h51v-490q0 -194 -199 -196q-36 0 -67 6.5t-58.5 17.5t-31.5 12l12 52q49 -53 149 -53q72 0 115 37.5t42 121.5l-1 62q-58 -68 -153 -68q-96 0 -149 65t-53 187zM94 240q0 -101 42 -158.5t120 -57.5q91 0 152 85
v264q-61 83 -152 83q-77 0 -119.5 -58t-42.5 -158z" />
    <glyph glyph-name="gbreve.ss02" horiz-adv-x="527" 
d="M277 553q-111 0 -109 142h28q0 -48 19.5 -79.5t61.5 -31.5q43 0 62.5 31.5t19.5 79.5h28q0 -142 -110 -142zM52 240q0 121 53.5 186t149.5 65q94 0 151 -69q0 33 -11 64h51v-490q0 -194 -199 -196q-36 0 -67 6.5t-58.5 17.5t-31.5 12l12 52q49 -53 149 -53q72 0 115 37.5
t42 121.5l-1 62q-58 -68 -153 -68q-96 0 -149 65t-53 187zM94 240q0 -101 42 -158.5t120 -57.5q91 0 152 85v264q-61 83 -152 83q-77 0 -119.5 -58t-42.5 -158z" />
    <glyph glyph-name="uni0123.ss02" horiz-adv-x="527" 
d="M276 542q-19 0 -30.5 14t-11.5 37q0 35 19.5 67t54.5 46l10 -16q-48 -23 -52 -77q4 2 11 2q12 0 22.5 -10t10.5 -26q0 -37 -34 -37zM52 240q0 121 53.5 186t149.5 65q94 0 151 -69q0 33 -11 64h51v-490q0 -194 -199 -196q-36 0 -67 6.5t-58.5 17.5t-31.5 12l12 52
q49 -53 149 -53q72 0 115 37.5t42 121.5l-1 62q-58 -68 -153 -68q-96 0 -149 65t-53 187zM94 240q0 -101 42 -158.5t120 -57.5q91 0 152 85v264q-61 83 -152 83q-77 0 -119.5 -58t-42.5 -158z" />
    <glyph glyph-name="gdotaccent.ss02" horiz-adv-x="527" 
d="M277 565q-36 0 -36 39q0 38 36 38t36 -38q0 -39 -36 -39zM52 240q0 121 53.5 186t149.5 65q94 0 151 -69q0 33 -11 64h51v-490q0 -194 -199 -196q-36 0 -67 6.5t-58.5 17.5t-31.5 12l12 52q49 -53 149 -53q72 0 115 37.5t42 121.5l-1 62q-58 -68 -153 -68q-96 0 -149 65
t-53 187zM94 240q0 -101 42 -158.5t120 -57.5q91 0 152 85v264q-61 83 -152 83q-77 0 -119.5 -58t-42.5 -158z" />
    <glyph glyph-name="y.ss03" horiz-adv-x="514" 
d="M72 479h53v-301q0 -155 107 -155q98 0 163 109v244q0 74 -12 103h51v-480q0 -105 -56 -151.5t-145 -47.5q-35 0 -64 6t-53.5 16t-28.5 11l12 53q47 -51 138 -51q73 0 116 39.5t43 122.5v88q-25 -43 -71 -70t-97 -27q-72 0 -107 46t-35 144v198q0 75 -14 103z" />
    <glyph glyph-name="yacute.ss03" horiz-adv-x="514" 
d="M217 575q79 56 135 149l32 -29q-57 -83 -153 -141zM72 479h53v-301q0 -155 107 -155q98 0 163 109v244q0 74 -12 103h51v-480q0 -105 -56 -151.5t-145 -47.5q-35 0 -64 6t-53.5 16t-28.5 11l12 53q47 -51 138 -51q73 0 116 39.5t43 122.5v88q-25 -43 -71 -70t-97 -27
q-72 0 -107 46t-35 144v198q0 75 -14 103z" />
    <glyph glyph-name="ycircumflex.ss03" horiz-adv-x="514" 
d="M233 716h38q48 -88 116 -145l-16 -19q-72 54 -117 127h-4q-45 -73 -117 -127l-16 19q66 57 116 145zM72 479h53v-301q0 -155 107 -155q98 0 163 109v244q0 74 -12 103h51v-480q0 -105 -56 -151.5t-145 -47.5q-35 0 -64 6t-53.5 16t-28.5 11l12 53q47 -51 138 -51
q73 0 116 39.5t43 122.5v88q-25 -43 -71 -70t-97 -27q-72 0 -107 46t-35 144v198q0 75 -14 103z" />
    <glyph glyph-name="ydieresis.ss03" horiz-adv-x="514" 
d="M193 578q-15 0 -25 10.5t-10 25.5q0 14 10 24.5t25 10.5t25 -10.5t10 -24.5q0 -15 -10 -25.5t-25 -10.5zM315 578q-15 0 -25 10.5t-10 25.5q0 14 10 24.5t25 10.5t25 -10.5t10 -24.5q0 -15 -10 -25.5t-25 -10.5zM72 479h53v-301q0 -155 107 -155q98 0 163 109v244
q0 74 -12 103h51v-480q0 -105 -56 -151.5t-145 -47.5q-35 0 -64 6t-53.5 16t-28.5 11l12 53q47 -51 138 -51q73 0 116 39.5t43 122.5v88q-25 -43 -71 -70t-97 -27q-72 0 -107 46t-35 144v198q0 75 -14 103z" />
    <glyph glyph-name="ygrave.ss03" horiz-adv-x="514" 
d="M290 578l-13 -22q-99 57 -155 139l30 31q59 -95 138 -148zM72 479h53v-301q0 -155 107 -155q98 0 163 109v244q0 74 -12 103h51v-480q0 -105 -56 -151.5t-145 -47.5q-35 0 -64 6t-53.5 16t-28.5 11l12 53q47 -51 138 -51q73 0 116 39.5t43 122.5v88q-25 -43 -71 -70
t-97 -27q-72 0 -107 46t-35 144v198q0 75 -14 103z" />
    <glyph glyph-name="a.superior" horiz-adv-x="349" 
d="M146 473q-49 0 -78 25.5t-29 72.5q0 102 163 102h53v31q0 95 -84 95q-31 0 -58 -12.5t-40 -30.5l-20 42q3 1 45 17.5t74 16.5q121 0 121 -129v-136q0 -65 11 -85h-47v54h-2q-16 -27 -46 -45t-63 -18zM149 505q29 0 58 19.5t48 54.5v64h-53q-124 0 -124 -71
q0 -33 19.5 -50t51.5 -17z" />
    <glyph glyph-name="b.superior" horiz-adv-x="384" 
d="M209 473q-67 0 -106 44h-4l1 -35h-44q8 20 8 76v357q0 55 -10 77h56q-8 -22 -8 -77v-132q40 49 108 49q67 0 103.5 -46.5t36.5 -131.5q0 -86 -37 -133.5t-104 -47.5zM205 507q52 0 79 39t27 108q0 67 -27.5 106t-78.5 39q-62 0 -103 -57v-180q42 -55 103 -55z" />
    <glyph glyph-name="c.superior" horiz-adv-x="323" 
d="M185 473q-150 0 -150 179q0 94 41.5 137t108.5 43q21 0 38.5 -4.5t40.5 -13.5l22 -10l-19 -44q-30 39 -81 39q-111 0 -111 -147q0 -145 111 -145q62 0 91 39l19 -44q-3 -1 -15 -6t-21.5 -8t-22.5 -7t-26.5 -6t-25.5 -2z" />
    <glyph glyph-name="d.superior" horiz-adv-x="385" 
d="M178 473q-67 0 -105 46.5t-38 132.5t39 133t105 47t104 -45v128q0 59 -8 77h53q-7 -21 -7 -77v-357q0 -57 9 -76h-45l1 38h-3q-41 -47 -105 -47zM183 507q62 0 100 58v178q-19 27 -46 41.5t-54 14.5q-50 0 -79 -39t-29 -107q0 -69 28 -107.5t80 -38.5z" />
    <glyph glyph-name="e.superior" horiz-adv-x="358" 
d="M191 473q-156 0 -156 179q0 92 40.5 136t106.5 44q64 0 99.5 -41.5t35.5 -114.5q0 -15 -2 -29h-240q1 -74 30 -107.5t89 -33.5q65 0 100 38l14 -43q-66 -28 -117 -28zM279 678q0 57 -25 89t-71 32q-50 0 -78 -32t-30 -89h204z" />
    <glyph glyph-name="f.superior" horiz-adv-x="204" 
d="M70 799h-47v33h47v56q0 120 103 120q15 0 35 -3t23 -3l-8 -41q-16 15 -49 15q-67 0 -67 -88v-56h78v-37q-20 4 -78 4v-237q0 -55 9 -72h-55q9 17 9 72v237z" />
    <glyph glyph-name="g.superior" horiz-adv-x="346" 
d="M329 784q-24 12 -74 12v-2q35 -35 35 -83q0 -56 -34 -88t-88 -32q-20 0 -40 5q-17 -12 -17 -32q0 -22 15.5 -29.5t59.5 -7.5q143 0 143 -92q0 -96 -154 -96q-67 0 -104 23.5t-37 69.5q0 55 60 83q-16 16 -16 44t25 47q-57 32 -57 105q0 57 34 89t88 32q26 0 48 -9h45
q35 0 68 5v-44zM168 620q37 0 61.5 23t24.5 68q0 41 -25 65.5t-61 24.5q-37 0 -60.5 -22t-23.5 -68q0 -45 24 -68t60 -23zM292 435q0 29 -25 43t-83 14q-42 0 -66 8q-48 -26 -48 -67q0 -63 106 -63q116 0 116 65z" />
    <glyph glyph-name="h.superior" horiz-adv-x="378" 
d="M54 1000h56q-8 -18 -8 -75v-113q0 -26 -3 -32h3q45 60 114 60q106 0 106 -133v-141q0 -55 9 -76h-56q9 18 9 76v140q0 101 -74 101q-61 0 -108 -68v-173q0 -58 9 -76h-57q10 18 10 76v358q0 58 -10 76z" />
    <glyph glyph-name="i.superior" horiz-adv-x="167" 
d="M84 904q-29 0 -29 30t29 30q30 0 30 -30t-30 -30zM55 486q10 19 10 76v190q0 56 -10 76h55q-7 -19 -7 -76v-190q0 -59 10 -76h-58z" />
    <glyph glyph-name="j.superior" horiz-adv-x="167" 
d="M83 905q-29 0 -29 30q0 29 29 29t29 -29q0 -30 -29 -30zM18 345q-10 0 -27.5 2.5t-23.5 2.5l10 44q15 -16 40 -16q27 0 37.5 20t10.5 59v295q0 54 -10 77h55q-8 -21 -8 -77v-295q0 -57 -19.5 -84.5t-64.5 -27.5z" />
    <glyph glyph-name="k.superior" horiz-adv-x="336" 
d="M54 997h56q-8 -18 -8 -77v-266q0 -18 -3 -28h4l121 151q27 34 30 52h64q-28 -22 -66 -69l-56 -69l86 -133q32 -49 56 -72h-64q-2 23 -26 62l-75 115l-71 -85v-16q0 -57 9 -76h-57q10 19 10 77v357q0 59 -10 77z" />
    <glyph glyph-name="l.superior" horiz-adv-x="166" 
d="M54 484q10 18 10 76v358q0 57 -10 76h55q-7 -20 -7 -76v-358q0 -58 10 -76h-58z" />
    <glyph glyph-name="m.superior" horiz-adv-x="578" 
d="M54 824h47l-1 -52h3q16 24 45 42t60 18q76 0 95 -68q51 68 115 68q104 0 104 -127v-147q0 -57 10 -76h-57q9 19 9 76v145q0 96 -71 96q-53 0 -101 -64v-177q0 -57 9 -76h-56q9 19 9 76v145q0 96 -71 96q-53 0 -101 -64v-177q0 -57 9 -76h-57q10 19 10 76v189q0 59 -10 77
z" />
    <glyph glyph-name="n.superior" horiz-adv-x="378" 
d="M54 827h46q0 -47 -1 -56h3q19 26 50 43.5t65 17.5q105 0 105 -131v-134q0 -62 9 -85h-56q9 20 9 85v133q0 99 -74 99q-61 0 -108 -68v-164q0 -64 8 -85h-56q10 21 10 85v175q0 65 -10 85z" />
    <glyph glyph-name="o.superior" horiz-adv-x="378" 
d="M189 473q-71 0 -112.5 45t-41.5 134q0 90 41.5 135t112.5 45t112.5 -45t41.5 -135q0 -89 -41.5 -134t-112.5 -45zM189 507q55 0 84.5 36.5t29.5 108.5t-29.5 109.5t-84.5 37.5t-84.5 -37.5t-29.5 -109.5t29.5 -108.5t84.5 -36.5z" />
    <glyph glyph-name="p.superior" horiz-adv-x="384" 
d="M101 517v-100q0 -57 10 -77h-57q10 21 10 77v334q0 56 -10 76h47l-2 -44h3q41 49 108 49t103.5 -46.5t36.5 -131.5q0 -86 -37.5 -133.5t-103.5 -47.5t-108 44zM205 507q51 0 78.5 39t27.5 108q0 67 -27.5 106t-78.5 39q-60 0 -103 -57v-180q41 -55 103 -55z" />
    <glyph glyph-name="q.superior" horiz-adv-x="385" 
d="M178 473q-67 0 -105 46.5t-38 132.5t39 133t105 47t104 -45h4q-2 16 -2 40h45q-9 -23 -9 -76v-334q0 -53 10 -77h-58q10 20 10 76v73q0 12 3 30h-3q-41 -46 -105 -46zM181 507q64 0 102 59v177q-39 56 -102 56q-49 0 -77.5 -39t-28.5 -107q0 -69 28 -107.5t78 -38.5z" />
    <glyph glyph-name="r.superior" horiz-adv-x="241" 
d="M54 824h46q0 -47 -1 -66h4q11 33 36.5 53.5t55.5 20.5q9 0 21.5 -1t16.5 -1l-9 -46q-12 14 -34 14q-26 0 -50.5 -26t-37.5 -69v-145q0 -59 10 -76h-58q10 18 10 76v189q0 58 -10 77z" />
    <glyph glyph-name="s.superior" horiz-adv-x="296" 
d="M147 473q-22 0 -46 5.5t-46 12.5t-31 9l19 52q13 -21 42 -34t62 -13q81 0 81 66q0 45 -74 66l-20 7q-92 27 -92 97q0 42 30 66.5t81 24.5q17 0 36 -4t39 -10.5t27 -8.5l-18 -48q-26 39 -83 39q-34 0 -54.5 -15.5t-20.5 -41.5q0 -44 67 -65l21 -7q99 -30 99 -99
q0 -46 -31 -72.5t-88 -26.5z" />
    <glyph glyph-name="t.superior" horiz-adv-x="230" 
d="M161 473q-88 0 -88 104v218h-51v26q54 5 89 61v-58h92v-35q-23 6 -92 6v-217q0 -35 11.5 -54t43.5 -19q25 0 43 18l10 -43q-6 -1 -27.5 -4t-30.5 -3z" />
    <glyph glyph-name="u.superior" horiz-adv-x="378" 
d="M161 473q-103 0 -103 135v139q0 56 -11 77h49v-214q0 -103 71 -103q67 0 110 75v165q0 55 -9 77h46v-266q0 -54 10 -76h-49q0 34 3 55h-3q-16 -28 -46.5 -46t-67.5 -18z" />
    <glyph glyph-name="v.superior" horiz-adv-x="327" 
d="M7 824h58q-3 -22 13 -66l55 -156q18 -46 30 -85h4q7 22 29 85l55 156q16 45 13 66h56q-17 -23 -36 -75l-69 -189q-19 -56 -18 -78h-65q1 21 -19 78l-70 189q-22 57 -36 75z" />
    <glyph glyph-name="w.superior" horiz-adv-x="486" 
d="M422 824h54q-18 -33 -31 -78l-52 -188q-14 -54 -14 -76h-61q0 32 -12 75l-63 219l-62 -219q-13 -46 -13 -75h-59q0 26 -14 76l-54 188q-22 62 -31 78h57q-4 -22 10 -70l63 -232l68 243q10 39 9 59h56q-3 -20 9 -59l67 -240l64 229q13 47 9 70z" />
    <glyph glyph-name="x.superior" horiz-adv-x="303" 
d="M296 482h-60q1 16 -18 46l-69 107l-67 -107q-20 -32 -18 -46h-58q18 15 42 53l81 126l-71 110q-25 38 -43 53h61q0 -19 18 -47l61 -95l58 95q18 29 17 47h57q-17 -16 -41 -54l-71 -113l79 -122q26 -41 42 -53z" />
    <glyph glyph-name="y.superior" horiz-adv-x="320" 
d="M57 340q-7 0 -20 1t-18 1l10 48q12 -17 32 -17q61 0 86 85l8 24h-6l-106 264q-20 52 -39 78h59q-4 -22 14 -66l91 -235h3l79 235q16 44 10 66h57q-17 -28 -34 -78l-103 -296q-38 -110 -123 -110z" />
    <glyph glyph-name="z.superior" horiz-adv-x="293" 
d="M20 510q11 7 33 39l163 243h-97q-59 0 -77 -11v46q30 -3 61 -3h160l2 -29q-13 -11 -26 -30l-170 -252h119q61 0 84 11v-46q-29 4 -65 4h-184z" />
    <glyph glyph-name="L_A" horiz-adv-x="723" 
d="M85 659h71q-15 -27 -15 -103v-521h398q132 0 160 16v-56q-38 5 -160 5h-454q16 27 16 103v453q0 76 -16 103zM431 659h72q-3 -16 5 -45t37 -104l96 -251q3 -7 8 -20t6.5 -18t5.5 -14.5t5.5 -13t4.5 -10t5.5 -10t5.5 -8t6 -9.5h-67q6 29 -19 95l-24 65h-223l-24 -65
q-24 -69 -19 -95h-65q20 28 48 103l94 251q46 124 42 149zM367 350h199l-52 139q-34 90 -45 137h-4q-6 -29 -45 -137z" />
    <glyph glyph-name="L_E" horiz-adv-x="650" 
d="M276 659h208q80 0 104 7v-55q-22 14 -104 14h-154v-188h95q104 0 122 11v-57q-18 11 -122 11h-95v-211h148q97 0 119 14v-56q-22 7 -118 7h-203q15 26 15 110v283q0 85 -15 110zM85 659h71q-15 -27 -15 -103v-521h325q130 0 160 16v-56q-40 5 -160 5h-381q16 27 16 103
v453q0 76 -16 103z" />
    <glyph glyph-name="L_I" horiz-adv-x="455" 
d="M85 659h71q-15 -27 -15 -103v-521h130q130 0 160 16v-56q-40 5 -160 5h-186q16 27 16 103v453q0 76 -16 103zM303 659h68q-15 -25 -15 -110v-283q0 -84 15 -110h-68q14 27 14 110v283q0 85 -14 110z" />
    <glyph glyph-name="L_L" horiz-adv-x="650" 
d="M85 659h71q-15 -27 -15 -103v-521h325q130 0 160 16v-56q-40 5 -160 5h-381q16 27 16 103v453q0 76 -16 103zM276 659h69q-15 -26 -15 -113v-355h142q102 0 126 14v-57q-30 8 -126 8h-196q15 26 15 113v277q0 87 -15 113z" />
    <glyph glyph-name="L_O" horiz-adv-x="722" 
d="M476 147q-94 0 -151 67t-57 193t57 192t151 66q95 0 151.5 -66t56.5 -192t-56.5 -193t-151.5 -67zM85 659h71q-15 -27 -15 -103v-521h397q132 0 160 16v-56q-38 5 -160 5h-453q16 27 16 103v453q0 76 -16 103zM476 183q78 0 122 56.5t44 167.5q0 110 -44 165.5t-122 55.5
t-122 -55.5t-44 -165.5q0 -111 44 -167.5t122 -56.5z" />
    <glyph glyph-name="L_U" horiz-adv-x="692" 
d="M85 659h71q-15 -27 -15 -103v-521h367q130 0 160 15v-55q-40 5 -160 5h-423q16 27 16 103v453q0 76 -16 103zM467 151q-172 0 -172 204v189q0 90 -14 115h68q-14 -25 -14 -115v-184q0 -95 34.5 -134t97.5 -39q64 0 99.5 39t35.5 134v184q0 90 -14 115h65
q-14 -25 -14 -115v-189q0 -204 -172 -204z" />
    <glyph glyph-name="R_A" horiz-adv-x="1028" 
d="M86 0q15 28 15 103v457q0 76 -16 103h183q117 0 175.5 -43t58.5 -144q0 -160 -159 -190q81 -139 146.5 -192.5t169.5 -53.5h275q50 0 70 14v-54h-348q-63 0 -109 13.5t-88 50t-77 85t-85 132.5h-156v-178q0 -75 15 -103h-70zM548 156q20 27 49 103l94 251q46 124 42 149
h72q-3 -16 5 -45t37 -104l95 -251q33 -84 48 -103h-67q6 29 -19 95l-24 65h-223l-24 -65q-24 -69 -19 -95h-66zM141 316h125q193 0 193 160q0 84 -48 117.5t-153 33.5h-117v-311zM669 350h199l-52 139q-34 90 -45 137h-4q-6 -29 -45 -137z" />
    <glyph glyph-name="R_E" horiz-adv-x="1001" 
d="M923 149q-22 7 -119 7h-202q14 24 14 110v283q0 87 -14 110h208q81 0 103 7v-55q-20 14 -103 14h-154v-188h95q102 0 122 11v-57q-20 11 -122 11h-95v-211h148q97 0 119 14v-56zM86 0q15 28 15 103v457q0 76 -16 103h183q117 0 175.5 -43t58.5 -144q0 -160 -159 -190
q81 -140 146 -193t170 -53h225q52 0 70 14v-54h-298q-64 0 -110 13.5t-88 50t-77 85t-84 132.5h-156v-178q0 -75 15 -103h-70zM141 316h125q193 0 193 160q0 84 -48 117.5t-153 33.5h-117v-311z" />
    <glyph glyph-name="R_I" horiz-adv-x="748" 
d="M86 0q15 28 15 103v457q0 76 -16 103h183q117 0 175.5 -43t58.5 -144q0 -160 -159 -190q35 -57 55 -87t49 -66t53 -52.5t56.5 -28.5t70.5 -12h35q42 0 62 13v-53h-99q-45 0 -82.5 13t-64.5 31.5t-60.5 60t-56 75t-64.5 101.5h-156v-178q0 -75 15 -103h-70zM604 156
q14 27 14 110v283q0 85 -14 110h68q-14 -23 -14 -110v-283q0 -86 14 -110h-68zM141 316h125q193 0 193 160q0 84 -48 117.5t-153 33.5h-117v-311z" />
    <glyph glyph-name="R_O" horiz-adv-x="1061" 
d="M795 148q-94 0 -150.5 67t-56.5 193t56.5 192t150.5 66q95 0 151.5 -66t56.5 -192t-56.5 -193t-151.5 -67zM86 0q15 28 15 103v457q0 76 -16 103h183q117 0 175.5 -43t58.5 -144q0 -160 -159 -190q81 -139 146.5 -192.5t169.5 -53.5h277q50 0 70 14v-54h-350
q-63 0 -109 13.5t-88 50t-77 85t-85 132.5h-156v-178q0 -75 15 -103h-70zM795 184q78 0 122.5 57t44.5 167t-44.5 165.5t-122.5 55.5t-122 -55.5t-44 -165.5q0 -111 44 -167.5t122 -56.5zM141 316h125q193 0 193 160q0 84 -48 117.5t-153 33.5h-117v-311z" />
    <glyph glyph-name="R_R" horiz-adv-x="1005" 
d="M86 0q15 28 15 103v457q0 76 -16 103h183q117 0 175.5 -43t58.5 -144q0 -160 -159 -190q81 -140 146 -193t170 -53h244q50 0 70 14v-54h-317q-64 0 -110 13.5t-88 50t-77 85t-84 132.5h-156v-178q0 -75 15 -103h-70zM602 156q14 24 14 111v282q0 87 -14 110h154
q92 0 136 -33t44 -110q0 -128 -128 -146l67 -106q57 -87 78 -108h-67q-2 25 -43 88l-77 122h-110v-99q0 -84 14 -111h-68zM141 316h125q193 0 193 160q0 84 -48 117.5t-153 33.5h-117v-311zM656 399h99q75 0 109 27.5t34 87.5q0 61 -34 86.5t-109 25.5h-99v-227z" />
    <glyph glyph-name="R_U" horiz-adv-x="1005" 
d="M86 0q15 28 15 103v457q0 76 -16 103h183q117 0 175.5 -43t58.5 -144q0 -160 -159 -190q81 -140 146 -193t170 -53h252q50 0 70 14v-54h-325q-64 0 -110 13.5t-88 50t-77 85t-84 132.5h-156v-178q0 -75 15 -103h-70zM791 151q-172 0 -172 204v189q0 90 -14 115h68
q-14 -23 -14 -115v-184q0 -95 34.5 -134t97.5 -39q64 0 99.5 39t35.5 134v184q0 90 -15 115h66q-14 -25 -14 -115v-189q0 -204 -172 -204zM141 316h125q193 0 193 160q0 84 -48 117.5t-153 33.5h-117v-311z" />
    <glyph glyph-name="c_t" horiz-adv-x="774" 
d="M52 239q0 133 56 192.5t150 59.5q22 0 32 -2q-38 37 -38 96q0 79 63.5 128.5t166.5 49.5q99 0 154 -44t55 -111q0 -42 -24.5 -76.5t-66.5 -52.5h136v-38q-29 8 -132 8v-319q0 -53 17.5 -80t63.5 -27q37 0 62 25l11 -51q-13 -1 -40 -5t-37 -4q-64 0 -90 37t-26 105v319
h-71v28q84 7 124.5 42.5t40.5 89.5t-47 91t-130 37q-81 0 -140 -39t-59 -114q0 -68 63 -110q12 -4 29.5 -13t23.5 -11l-24 -50q-40 56 -117 56q-76 0 -120 -52.5t-44 -164.5q0 -114 42 -164.5t122 -50.5q90 0 132 56l23 -50q-4 -2 -21 -9t-29.5 -11.5t-30.5 -10t-37 -8.5
t-37 -3q-206 0 -206 251z" />
    <glyph glyph-name="f_b" horiz-adv-x="808" 
d="M553 491q96 0 147.5 -65t51.5 -185q0 -122 -52 -187.5t-148 -65.5q-95 0 -153 66h-3l1 -54h-51q12 28 12 103v514q0 45 -1 59q-36 21 -97 21q-65 0 -93.5 -31.5t-28.5 -101.5v-85h112v-41q-21 6 -112 6v-344q0 -77 11 -100h-60q10 24 10 100v344h-66v35h66v85
q0 88 39.5 128t121.5 40q53 0 101 -14h47q-11 -27 -11 -101v-197q59 71 156 71zM550 24q78 0 119.5 58t41.5 159q0 99 -41.5 157t-119.5 58q-40 0 -81 -21t-72 -63v-265q60 -83 153 -83z" />
    <glyph glyph-name="f_f_b" horiz-adv-x="1068" 
d="M812 491q97 0 148.5 -65t51.5 -185q0 -122 -52 -187.5t-148 -65.5q-95 0 -153 66h-3v-54h-50q12 28 12 103v514q0 45 -2 60q-35 20 -96 20q-65 0 -93.5 -31.5t-28.5 -101.5v-85h112v-41q-21 6 -112 6v-344q0 -77 11 -100h-60q10 24 10 100v344h-221v-344q0 -77 11 -100
h-60q10 24 10 100v344h-66v35h66v88q0 165 134 165q23 0 78 -10l-9 -47q-25 22 -69 22q-95 0 -95 -130v-88h221v85q0 89 39.5 128.5t121.5 39.5q52 0 100 -14h47q-10 -27 -10 -101v-197q59 71 155 71zM810 24q78 0 119.5 58t41.5 159q0 99 -41.5 157t-119.5 58
q-40 0 -81 -21t-72 -63v-265q60 -83 153 -83z" />
    <glyph glyph-name="f_f_h" horiz-adv-x="1050" 
d="M916 0q12 25 12 103v200q0 81 -27 117t-83 36q-91 0 -162 -99v-254q0 -78 13 -103h-65q13 25 13 103v514q0 45 -2 59q-34 21 -96 21q-65 0 -93.5 -31.5t-28.5 -101.5v-85h112v-41q-21 6 -112 6v-344q0 -77 11 -100h-60q10 24 10 100v344h-220v-344q0 -77 11 -100h-60
q10 24 10 100v344h-66v35h66v88q0 165 134 165q23 0 78 -10l-9 -47q-25 22 -69 22q-95 0 -95 -130v-88h220v85q0 88 39.5 128t121.5 40q53 0 101 -14h47q-11 -26 -11 -101v-174q0 -33 -2 -40h3q30 39 73 63.5t90 24.5q147 0 147 -188v-200q0 -78 13 -103h-64z" />
    <glyph glyph-name="f_f_j" horiz-adv-x="736" 
d="M656 479q-10 -27 -10 -103v-422q0 -85 -26.5 -119.5t-80.5 -34.5q-14 0 -38 4t-30 4l12 51q17 -23 56 -23q37 0 52.5 27.5t15.5 90.5v422q0 46 -3 68h-207v-344q0 -76 10 -100h-60q11 23 11 100v344h-220v-344q0 -77 11 -100h-60q10 24 10 100v344h-66v35h66v88
q0 165 134 165q23 0 78 -10l-9 -47q-25 22 -69 22q-95 0 -95 -130v-88h220v85q0 89 40 128.5t122 39.5t126 -20l-14 -50q-16 14 -47.5 24.5t-64.5 10.5q-66 0 -94.5 -31.5t-28.5 -101.5v-85h259z" />
    <glyph glyph-name="f_f_k" horiz-adv-x="983" 
d="M911 97q42 -66 75 -97h-74q-3 31 -37 84l-111 175l-108 -128v-28q0 -78 13 -103h-65q13 25 13 103v514q0 46 -2 59q-34 21 -96 21q-65 0 -93.5 -31.5t-28.5 -101.5v-85h112v-41q-21 6 -112 6v-344q0 -77 11 -100h-60q10 24 10 100v344h-220v-344q0 -77 11 -100h-60
q10 24 10 100v344h-66v35h66v88q0 165 134 165q23 0 78 -10l-9 -47q-25 22 -69 22q-95 0 -95 -130v-88h220v85q0 88 39.5 128t121.5 40q53 0 101 -14h46q-10 -26 -10 -101v-400q0 -7 -0.5 -18t-0.5 -16h3l183 225q37 47 42 71h74q-35 -26 -88 -91l-81 -99z" />
    <glyph glyph-name="f_f_t" horiz-adv-x="817" 
d="M790 48l11 -51q-13 -1 -40 -5t-37 -4q-64 0 -90.5 37t-26.5 105v314h-210v-344q0 -77 11 -100h-60q10 24 10 100v344h-220v-344q0 -77 11 -100h-60q10 24 10 100v344h-66v35h66v88q0 165 134 165q23 0 78 -10l-9 -47q-25 22 -69 22q-95 0 -95 -130v-88h220v88
q0 165 134 165q23 0 78 -10l-9 -47q-25 22 -69 22q-95 0 -95 -130v-88h155q57 11 95 78v-78h131v-38q-28 8 -131 8v-319q0 -54 17 -80.5t63 -26.5q37 0 63 25z" />
    <glyph glyph-name="f_f_y" horiz-adv-x="954" 
d="M886 479h64q-20 -29 -47 -108l-147 -420q-52 -151 -165 -151q-9 0 -26 1.5t-24 1.5l11 56q16 -22 42 -22q88 0 128 127l12 36h-8l-150 371q-20 51 -32 73h-147v-344q0 -77 11 -100h-60q10 24 10 100v344h-220v-344q0 -77 11 -100h-60q10 24 10 100v344h-66v35h66v88
q0 165 134 165q23 0 78 -10l-9 -47q-25 22 -69 22q-95 0 -95 -130v-88h220v88q0 165 134 165q23 0 78 -10l-9 -47q-25 22 -69 22q-95 0 -95 -130v-88h192q-4 -28 23 -95l135 -342h3l118 342q23 65 18 95z" />
    <glyph glyph-name="f_h" horiz-adv-x="791" 
d="M657 0q12 25 12 103v200q0 81 -27 117t-83 36q-91 0 -162 -99v-254q0 -78 13 -103h-65q13 25 13 103v514q0 45 -2 59q-34 21 -96 21q-65 0 -93.5 -31.5t-28.5 -101.5v-85h112v-41q-21 6 -112 6v-344q0 -77 11 -100h-60q10 24 10 100v344h-66v35h66v85q0 88 39.5 128
t121.5 40q53 0 101 -14h47q-11 -26 -11 -101v-174q0 -33 -2 -40h3q30 39 73 63.5t90 24.5q147 0 147 -188v-200q0 -78 13 -103h-64z" />
    <glyph glyph-name="f_j" horiz-adv-x="478" 
d="M397 479q-9 -25 -9 -103v-422q0 -85 -27 -119.5t-81 -34.5q-14 0 -38 4t-30 4l12 51q19 -23 56 -23t53 27.5t16 90.5v422q0 46 -3 68h-208v-344q0 -77 11 -100h-60q10 24 10 100v344h-66v35h66v85q0 89 40.5 128.5t122.5 39.5q81 0 125 -20l-13 -50q-16 14 -47.5 24.5
t-64.5 10.5q-66 0 -95 -31.5t-29 -101.5v-85h259z" />
    <glyph glyph-name="f_k" horiz-adv-x="724" 
d="M652 97q42 -66 75 -97h-74q-3 31 -37 84l-110 175l-109 -128v-28q0 -78 13 -103h-65q13 25 13 103v514q0 46 -2 59q-34 21 -96 21q-65 0 -93.5 -31.5t-28.5 -101.5v-85h112v-41q-21 6 -112 6v-344q0 -77 11 -100h-60q10 24 10 100v344h-66v35h66v85q0 88 39.5 128
t121.5 40q53 0 101 -14h47q-11 -26 -11 -101v-400q0 -7 -0.5 -18t-0.5 -16h3l183 225q36 45 42 71h75q-38 -28 -89 -91l-81 -99z" />
    <glyph glyph-name="f_t" horiz-adv-x="558" 
d="M531 48l11 -51q-13 -1 -40 -5t-37 -4q-64 0 -90 37t-26 105v314h-211v-344q0 -77 11 -100h-60q10 24 10 100v344h-66v35h66v88q0 165 134 165q23 0 78 -10l-9 -47q-25 22 -69 22q-95 0 -95 -130v-88h155q57 11 95 78v-78h132v-38q-29 8 -132 8v-319q0 -53 17.5 -80
t63.5 -27q36 0 62 25z" />
    <glyph glyph-name="f_y" horiz-adv-x="695" 
d="M627 479h64q-20 -29 -47 -108l-147 -420q-52 -151 -165 -151q-9 0 -26 1.5t-24 1.5l11 56q16 -22 42 -22q87 0 129 127l11 36h-8l-150 371q-20 51 -32 73h-147v-344q0 -77 11 -100h-60q10 24 10 100v344h-66v35h66v88q0 165 134 165q23 0 78 -10l-9 -47q-25 22 -69 22
q-95 0 -95 -130v-88h192q-4 -28 23 -95l136 -342h2l118 342q24 68 18 95z" />
    <glyph glyph-name="s_p" horiz-adv-x="956" 
d="M34 28l23 62q17 -30 58.5 -48.5t89.5 -18.5q123 0 123 101q0 66 -112 101l-25 8q-130 41 -130 135q0 57 41 90t109 33q18 0 26 -1q-37 37 -37 95q0 79 63.5 128.5t166.5 49.5q99 0 154 -44t55 -111q0 -43 -26 -78t-70 -52l-2 -58h4q61 71 155 71q97 0 148.5 -65
t51.5 -185q0 -122 -52.5 -187.5t-147.5 -65.5q-94 0 -155 67l-1 -152q-1 -75 12 -103h-63q13 27 13 103v480q0 76 -13 103q115 28 115 123q0 54 -47.5 91t-130.5 37q-81 0 -139.5 -39t-58.5 -114q0 -63 54 -104q12 -4 35 -11.5t32 -10.5l-22 -57q-35 55 -120 55
q-51 0 -81.5 -23.5t-30.5 -63.5q0 -68 103 -99l25 -7q141 -42 141 -138q0 -64 -42 -100.5t-121 -36.5q-41 0 -104.5 19.5t-66.5 20.5zM545 106q61 -82 153 -82q77 0 119 58t42 159q0 99 -41.5 157t-119.5 58q-41 0 -82 -21t-71 -63v-266z" />
    <glyph glyph-name="s_t" horiz-adv-x="726" 
d="M34 28l23 62q17 -30 58.5 -48.5t89.5 -18.5q123 0 123 101q0 66 -112 101l-25 8q-130 41 -130 135q0 57 41 90t109 33q20 0 30 -1q-38 37 -38 95q0 79 63.5 128.5t166.5 49.5q99 0 154 -44t55 -111q0 -42 -24.5 -76.5t-65.5 -52.5h135v-38q-29 8 -132 8v-319
q0 -53 17.5 -80t63.5 -27q37 0 63 25l11 -51q-13 -1 -40.5 -5t-36.5 -4q-64 0 -90.5 37t-26.5 105v319h-71v28q84 7 125 42.5t41 89.5t-47.5 91t-130.5 37q-80 0 -139 -39t-59 -114q0 -65 56 -106q13 -4 34 -11t28 -9l-22 -57q-35 55 -120 55q-51 0 -81.5 -23.5t-30.5 -63.5
q0 -68 103 -99l25 -7q141 -42 141 -138q0 -64 -42 -100.5t-121 -36.5q-41 0 -104.5 19.5t-66.5 20.5z" />
    <glyph glyph-name="a.sc" horiz-adv-x="462" 
d="M194 511h74q-6 -27 42 -151l97 -255q33 -83 49 -105h-69q6 30 -20 97l-24 66h-226l-24 -66q-24 -70 -19 -97h-67q18 26 49 105l96 255q47 122 42 151zM130 196h201l-52 141q-37 99 -46 140h-4q-7 -35 -46 -140z" />
    <glyph glyph-name="aacute.sc" horiz-adv-x="462" 
d="M196 606q79 56 135 149l32 -29q-57 -83 -153 -141zM194 511h74q-6 -27 42 -151l97 -255q33 -83 49 -105h-69q6 30 -20 97l-24 66h-226l-24 -66q-24 -70 -19 -97h-67q18 26 49 105l96 255q47 122 42 151zM130 196h201l-52 141q-37 99 -46 140h-4q-7 -35 -46 -140z" />
    <glyph glyph-name="abreve.sc" horiz-adv-x="462" 
d="M231 583q-111 0 -109 142h28q0 -48 19.5 -79.5t61.5 -31.5q43 0 62.5 31.5t19.5 79.5h28q0 -142 -110 -142zM194 511h74q-6 -27 42 -151l97 -255q33 -83 49 -105h-69q6 30 -20 97l-24 66h-226l-24 -66q-24 -70 -19 -97h-67q18 26 49 105l96 255q47 122 42 151zM130 196
h201l-52 141q-37 99 -46 140h-4q-7 -35 -46 -140z" />
    <glyph glyph-name="acircumflex.sc" horiz-adv-x="462" 
d="M212 747h38q48 -88 116 -145l-16 -19q-72 54 -117 127h-4q-45 -73 -117 -127l-16 19q66 57 116 145zM194 511h74q-6 -27 42 -151l97 -255q33 -83 49 -105h-69q6 30 -20 97l-24 66h-226l-24 -66q-24 -70 -19 -97h-67q18 26 49 105l96 255q47 122 42 151zM130 196h201
l-52 141q-37 99 -46 140h-4q-7 -35 -46 -140z" />
    <glyph glyph-name="adieresis.sc" horiz-adv-x="462" 
d="M172 609q-15 0 -25 10.5t-10 25.5q0 14 10 24.5t25 10.5t25 -10.5t10 -24.5q0 -15 -10 -25.5t-25 -10.5zM294 609q-15 0 -25 10.5t-10 25.5q0 14 10 24.5t25 10.5t25 -10.5t10 -24.5q0 -15 -10 -25.5t-25 -10.5zM194 511h74q-6 -27 42 -151l97 -255q33 -83 49 -105h-69
q6 30 -20 97l-24 66h-226l-24 -66q-24 -70 -19 -97h-67q18 26 49 105l96 255q47 122 42 151zM130 196h201l-52 141q-37 99 -46 140h-4q-7 -35 -46 -140z" />
    <glyph glyph-name="agrave.sc" horiz-adv-x="462" 
d="M269 609l-13 -22q-99 57 -155 139l30 31q59 -95 138 -148zM194 511h74q-6 -27 42 -151l97 -255q33 -83 49 -105h-69q6 30 -20 97l-24 66h-226l-24 -66q-24 -70 -19 -97h-67q18 26 49 105l96 255q47 122 42 151zM130 196h201l-52 141q-37 99 -46 140h-4q-7 -35 -46 -140z
" />
    <glyph glyph-name="amacron.sc" horiz-adv-x="462" 
d="M132 654h200v-35h-200v35zM194 511h74q-6 -27 42 -151l97 -255q33 -83 49 -105h-69q6 30 -20 97l-24 66h-226l-24 -66q-24 -70 -19 -97h-67q18 26 49 105l96 255q47 122 42 151zM130 196h201l-52 141q-37 99 -46 140h-4q-7 -35 -46 -140z" />
    <glyph glyph-name="aogonek.sc" horiz-adv-x="462" 
d="M454 -130l16 -32q-27 -19 -60 -19q-34 0 -55.5 17t-21.5 52q0 31 23 61.5t60 50.5h-29q6 30 -20 97l-24 66h-226l-24 -66q-24 -70 -19 -97h-67q18 26 49 105l96 255q47 122 42 151h74q-6 -27 42 -151l97 -255q33 -83 49 -105q-39 -20 -63.5 -50t-24.5 -60q0 -20 13 -31
t31 -11q26 0 42 22zM130 196h201l-52 141q-37 99 -46 140h-4q-7 -35 -46 -140z" />
    <glyph glyph-name="aring.sc" horiz-adv-x="462" 
d="M231 584q-38 0 -63 21.5t-25 56.5q0 36 25 57t63 21q39 0 64 -21t25 -57q0 -35 -25.5 -56.5t-63.5 -21.5zM231 611q24 0 40 12.5t16 38.5t-16 38.5t-40 12.5t-40 -12.5t-16 -38.5t16 -38.5t40 -12.5zM194 511h74q-6 -27 42 -151l97 -255q33 -83 49 -105h-69q6 30 -20 97
l-24 66h-226l-24 -66q-24 -70 -19 -97h-67q18 26 49 105l96 255q47 122 42 151zM130 196h201l-52 141q-37 99 -46 140h-4q-7 -35 -46 -140z" />
    <glyph glyph-name="atilde.sc" horiz-adv-x="462" 
d="M297 599q-21 0 -40.5 13t-32.5 29t-29 29t-31 13q-50 0 -42 -67l-43 2q18 95 87 95q21 0 40.5 -13t32 -29t29 -29t31.5 -13q23 0 34 18t8 48l42 -2q-18 -94 -86 -94zM194 511h74q-6 -27 42 -151l97 -255q33 -83 49 -105h-69q6 30 -20 97l-24 66h-226l-24 -66
q-24 -70 -19 -97h-67q18 26 49 105l96 255q47 122 42 151zM130 196h201l-52 141q-37 99 -46 140h-4q-7 -35 -46 -140z" />
    <glyph glyph-name="ae.sc" horiz-adv-x="685" 
d="M317 511h216q72 0 102 7v-56q-21 15 -102 15h-140v-188h85q95 0 116 12v-58q-21 12 -116 12h-85v-220h133q95 0 119 14v-56q-24 7 -119 7h-188q14 27 14 110v53h-188l-39 -65q-28 -46 -37 -65t-7 -33h-67q22 19 80 116l182 302q39 65 41 93zM184 197h168v281h-4
q-18 -38 -52 -96z" />
    <glyph glyph-name="b.sc" horiz-adv-x="500" 
d="M84 511h161q179 0 179 -123q0 -44 -26 -74.5t-79 -36.5v-4q140 -13 140 -125q0 -148 -199 -148h-176q14 27 14 113v286q0 87 -14 112zM225 288q160 0 160 98q0 49 -33 70t-108 21h-105v-189h86zM258 34q82 0 121 25.5t39 89.5q0 105 -191 105h-88v-220h119z" />
    <glyph glyph-name="c.sc" horiz-adv-x="487" 
d="M268 -12q-100 0 -156.5 65.5t-56.5 202.5q0 135 56.5 201t156.5 66q34 0 64.5 -7.5t59 -19.5t33.5 -13l-30 -49q-31 52 -127 52q-171 0 -171 -229q0 -232 171 -232q110 0 141 60l33 -50q-8 -2 -36 -14.5t-63.5 -22.5t-74.5 -10z" />
    <glyph glyph-name="cacute.sc" horiz-adv-x="487" 
d="M230 606q79 56 135 149l32 -29q-57 -83 -153 -141zM268 -12q-100 0 -156.5 65.5t-56.5 202.5q0 135 56.5 201t156.5 66q34 0 64.5 -7.5t59 -19.5t33.5 -13l-30 -49q-31 52 -127 52q-171 0 -171 -229q0 -232 171 -232q110 0 141 60l33 -50q-8 -2 -36 -14.5t-63.5 -22.5
t-74.5 -10z" />
    <glyph glyph-name="ccaron.sc" horiz-adv-x="487" 
d="M246 586q-47 85 -117 145l17 18q72 -54 117 -127h4q45 73 117 127l17 -18q-66 -57 -117 -145h-38zM268 -12q-100 0 -156.5 65.5t-56.5 202.5q0 135 56.5 201t156.5 66q34 0 64.5 -7.5t59 -19.5t33.5 -13l-30 -49q-31 52 -127 52q-171 0 -171 -229q0 -232 171 -232
q110 0 141 60l33 -50q-8 -2 -36 -14.5t-63.5 -22.5t-74.5 -10z" />
    <glyph glyph-name="ccedilla.sc" horiz-adv-x="487" 
d="M272 -53q71 -17 71 -68q0 -76 -143 -84l-6 31q113 4 113 51q0 22 -18 33.5t-60 16.5l31 61q-97 3 -151 68.5t-54 199.5q0 135 56.5 201t156.5 66q34 0 64.5 -7.5t59 -19.5t33.5 -13l-30 -49q-31 52 -127 52q-171 0 -171 -229q0 -232 171 -232q110 0 141 60l33 -50
l-54 -21q-53 -21 -97 -25z" />
    <glyph glyph-name="cdotaccent.sc" horiz-adv-x="487" 
d="M265 596q-36 0 -36 39q0 38 36 38t36 -38q0 -39 -36 -39zM268 -12q-100 0 -156.5 65.5t-56.5 202.5q0 135 56.5 201t156.5 66q34 0 64.5 -7.5t59 -19.5t33.5 -13l-30 -49q-31 52 -127 52q-171 0 -171 -229q0 -232 171 -232q110 0 141 60l33 -50q-8 -2 -36 -14.5
t-63.5 -22.5t-74.5 -10z" />
    <glyph glyph-name="d.sc" horiz-adv-x="521" 
d="M84 511h134q131 0 190 -60t59 -194t-59 -195.5t-189 -61.5h-135q14 27 14 113v286q0 87 -14 112zM218 34q111 0 159 51t48 172q0 116 -48.5 168t-158.5 52h-79v-443h79z" />
    <glyph glyph-name="eth.sc" horiz-adv-x="521" 
d="M218 511q131 0 190 -60t59 -194t-59 -195.5t-189 -61.5h-135q14 27 14 113v137h-57v32h57v117q0 87 -14 112h134zM218 34q111 0 159 51t48 172q0 116 -48.5 168t-158.5 52h-79v-195h155v-32h-155v-216h79z" />
    <glyph glyph-name="dcaron.sc" horiz-adv-x="521" 
d="M242 586q-47 85 -117 145l17 18q72 -54 117 -127h4q45 73 117 127l17 -18q-66 -57 -117 -145h-38zM84 511h134q131 0 190 -60t59 -194t-59 -195.5t-189 -61.5h-135q14 27 14 113v286q0 87 -14 112zM218 34q111 0 159 51t48 172q0 116 -48.5 168t-158.5 52h-79v-443h79z
" />
    <glyph glyph-name="dcroat.sc" horiz-adv-x="521" 
d="M218 511q131 0 190 -60t59 -194t-59 -195.5t-189 -61.5h-135q14 27 14 113v137h-57v32h57v117q0 87 -14 112h134zM218 34q111 0 159 51t48 172q0 116 -48.5 168t-158.5 52h-79v-195h155v-32h-155v-216h79z" />
    <glyph glyph-name="e.sc" horiz-adv-x="450" 
d="M84 511h210q78 0 106 7v-56q-20 15 -106 15h-155v-192h96q105 0 124 12v-58q-21 12 -124 12h-96v-216h149q100 0 122 14v-56q-22 7 -121 7h-205q14 27 14 113v286q0 87 -14 112z" />
    <glyph glyph-name="eacute.sc" horiz-adv-x="450" 
d="M212 606q79 56 135 149l32 -29q-57 -83 -153 -141zM84 511h210q78 0 106 7v-56q-20 15 -106 15h-155v-192h96q105 0 124 12v-58q-21 12 -124 12h-96v-216h149q100 0 122 14v-56q-22 7 -121 7h-205q14 27 14 113v286q0 87 -14 112z" />
    <glyph glyph-name="ecaron.sc" horiz-adv-x="450" 
d="M228 586q-47 85 -117 145l17 18q72 -54 117 -127h4q45 73 117 127l17 -18q-66 -57 -117 -145h-38zM84 511h210q78 0 106 7v-56q-20 15 -106 15h-155v-192h96q105 0 124 12v-58q-21 12 -124 12h-96v-216h149q100 0 122 14v-56q-22 7 -121 7h-205q14 27 14 113v286
q0 87 -14 112z" />
    <glyph glyph-name="ecircumflex.sc" horiz-adv-x="450" 
d="M228 747h38q48 -88 116 -145l-16 -19q-72 54 -117 127h-4q-45 -73 -117 -127l-16 19q66 57 116 145zM84 511h210q78 0 106 7v-56q-20 15 -106 15h-155v-192h96q105 0 124 12v-58q-21 12 -124 12h-96v-216h149q100 0 122 14v-56q-22 7 -121 7h-205q14 27 14 113v286
q0 87 -14 112z" />
    <glyph glyph-name="edieresis.sc" horiz-adv-x="450" 
d="M188 609q-15 0 -25 10.5t-10 25.5q0 14 10 24.5t25 10.5t25 -10.5t10 -24.5q0 -15 -10 -25.5t-25 -10.5zM310 609q-15 0 -25 10.5t-10 25.5q0 14 10 24.5t25 10.5t25 -10.5t10 -24.5q0 -15 -10 -25.5t-25 -10.5zM84 511h210q78 0 106 7v-56q-20 15 -106 15h-155v-192h96
q105 0 124 12v-58q-21 12 -124 12h-96v-216h149q100 0 122 14v-56q-22 7 -121 7h-205q14 27 14 113v286q0 87 -14 112z" />
    <glyph glyph-name="edotaccent.sc" horiz-adv-x="450" 
d="M247 596q-36 0 -36 39q0 38 36 38t36 -38q0 -39 -36 -39zM84 511h210q78 0 106 7v-56q-20 15 -106 15h-155v-192h96q105 0 124 12v-58q-21 12 -124 12h-96v-216h149q100 0 122 14v-56q-22 7 -121 7h-205q14 27 14 113v286q0 87 -14 112z" />
    <glyph glyph-name="egrave.sc" horiz-adv-x="450" 
d="M285 609l-13 -22q-99 57 -155 139l30 31q59 -95 138 -148zM84 511h210q78 0 106 7v-56q-20 15 -106 15h-155v-192h96q105 0 124 12v-58q-21 12 -124 12h-96v-216h149q100 0 122 14v-56q-22 7 -121 7h-205q14 27 14 113v286q0 87 -14 112z" />
    <glyph glyph-name="emacron.sc" horiz-adv-x="450" 
d="M148 654h200v-35h-200v35zM84 511h210q78 0 106 7v-56q-20 15 -106 15h-155v-192h96q105 0 124 12v-58q-21 12 -124 12h-96v-216h149q100 0 122 14v-56q-22 7 -121 7h-205q14 27 14 113v286q0 87 -14 112z" />
    <glyph glyph-name="eogonek.sc" horiz-adv-x="450" 
d="M408 -136l16 -32q-27 -19 -60 -19q-34 0 -55.5 17t-21.5 52q0 33 26 65t65 51q-36 2 -89 2h-205q14 27 14 113v286q0 87 -14 112h210q78 0 106 7v-56q-20 15 -106 15h-155v-192h96q105 0 124 12v-58q-21 12 -124 12h-96v-216h149q100 0 122 14v-56h-1q-39 -20 -63 -49.5
t-24 -59.5q0 -20 13 -31t31 -11q26 0 42 22z" />
    <glyph glyph-name="f.sc" horiz-adv-x="421" 
d="M84 511h212q76 0 106 7v-56q-20 14 -106 14h-157v-211h91q103 0 124 12v-59q-19 12 -124 12h-91v-117q0 -87 15 -113h-70q14 27 14 113v286q0 87 -14 112z" />
    <glyph glyph-name="g.sc" horiz-adv-x="519" 
d="M274 -12q-103 0 -161 65.5t-58 202.5q0 135 59 201t161 66q39 0 72 -7t59 -16.5t38 -11.5l-28 -55q-27 53 -141 53q-178 0 -178 -230q0 -231 178 -231q92 0 135 35v159q-104 0 -130 -13v46h178q-8 -23 -8 -89v-19q0 -64 7 -103q-84 -53 -183 -53z" />
    <glyph glyph-name="gbreve.sc" horiz-adv-x="519" 
d="M284 583q-111 0 -109 142h28q0 -48 19.5 -79.5t61.5 -31.5q43 0 62.5 31.5t19.5 79.5h28q0 -142 -110 -142zM274 -12q-103 0 -161 65.5t-58 202.5q0 135 59 201t161 66q39 0 72 -7t59 -16.5t38 -11.5l-28 -55q-27 53 -141 53q-178 0 -178 -230q0 -231 178 -231
q92 0 135 35v159q-104 0 -130 -13v46h178q-8 -23 -8 -89v-19q0 -64 7 -103q-84 -53 -183 -53z" />
    <glyph glyph-name="uni0123.sc" horiz-adv-x="519" 
d="M274 -12q-103 0 -161 65.5t-58 202.5q0 135 59 201t161 66q39 0 72 -7t59 -16.5t38 -11.5l-28 -55q-27 53 -141 53q-178 0 -178 -230q0 -231 178 -231q92 0 135 35v159q-104 0 -130 -13v46h178q-8 -23 -8 -89v-19q0 -64 7 -103q-84 -53 -183 -53zM290 -43q41 0 41 -52
q0 -34 -19.5 -66.5t-53.5 -46.5l-10 17q48 23 52 77q-2 -2 -11 -2q-12 0 -22 10t-10 26q0 37 33 37z" />
    <glyph glyph-name="gdotaccent.sc" horiz-adv-x="519" 
d="M284 596q-36 0 -36 39q0 38 36 38t36 -38q0 -39 -36 -39zM274 -12q-103 0 -161 65.5t-58 202.5q0 135 59 201t161 66q39 0 72 -7t59 -16.5t38 -11.5l-28 -55q-27 53 -141 53q-178 0 -178 -230q0 -231 178 -231q92 0 135 35v159q-104 0 -130 -13v46h178q-8 -23 -8 -89v-19
q0 -64 7 -103q-84 -53 -183 -53z" />
    <glyph glyph-name="h.sc" horiz-adv-x="576" 
d="M84 511h70q-15 -25 -15 -112v-109h298v109q0 87 -15 112h70q-14 -23 -14 -112v-286q0 -89 14 -113h-70q15 26 15 113v141h-298v-141q0 -87 15 -113h-70q14 27 14 113v286q0 87 -14 112z" />
    <glyph glyph-name="hbar.sc" horiz-adv-x="577" 
d="M528 384h-50v-271q0 -87 15 -113h-70q15 26 15 113v141h-298v-141q0 -86 14 -113h-69q14 27 14 113v271h-49v33h49q-1 71 -14 94h69q-13 -23 -14 -94h298q-1 72 -15 94h70q-14 -22 -15 -94h50v-33zM438 290v94h-298v-94h298z" />
    <glyph glyph-name="i.sc" horiz-adv-x="237" 
d="M84 511h70q-15 -25 -15 -112v-286q0 -87 15 -113h-70q14 27 14 113v286q0 87 -14 112z" />
    <glyph glyph-name="iacute.sc" horiz-adv-x="237" 
d="M83 606q79 56 135 149l32 -29q-57 -83 -153 -141zM84 511h70q-15 -25 -15 -112v-286q0 -87 15 -113h-70q14 27 14 113v286q0 87 -14 112z" />
    <glyph glyph-name="icircumflex.sc" horiz-adv-x="237" 
d="M100 747h38q48 -88 116 -145l-16 -19q-72 54 -117 127h-4q-45 -73 -117 -127l-16 19q66 57 116 145zM84 511h70q-15 -25 -15 -112v-286q0 -87 15 -113h-70q14 27 14 113v286q0 87 -14 112z" />
    <glyph glyph-name="idieresis.sc" horiz-adv-x="237" 
d="M60 609q-15 0 -25 10.5t-10 25.5q0 14 10 24.5t25 10.5t25 -10.5t10 -24.5q0 -15 -10 -25.5t-25 -10.5zM182 609q-15 0 -25 10.5t-10 25.5q0 14 10 24.5t25 10.5t25 -10.5t10 -24.5q0 -15 -10 -25.5t-25 -10.5zM84 511h70q-15 -25 -15 -112v-286q0 -87 15 -113h-70
q14 27 14 113v286q0 87 -14 112z" />
    <glyph glyph-name="i.sc.loclTRK" horiz-adv-x="237" 
d="M119 596q-36 0 -36 39q0 38 36 38t36 -38q0 -39 -36 -39zM84 511h70q-15 -25 -15 -112v-286q0 -87 15 -113h-70q14 27 14 113v286q0 87 -14 112z" />
    <glyph glyph-name="igrave.sc" horiz-adv-x="237" 
d="M156 609l-13 -22q-99 57 -155 139l30 31q59 -95 138 -148zM84 511h70q-15 -25 -15 -112v-286q0 -87 15 -113h-70q14 27 14 113v286q0 87 -14 112z" />
    <glyph glyph-name="imacron.sc" horiz-adv-x="237" 
d="M20 654h200v-35h-200v35zM84 511h70q-15 -25 -15 -112v-286q0 -87 15 -113h-70q14 27 14 113v286q0 87 -14 112z" />
    <glyph glyph-name="iogonek.sc" horiz-adv-x="237" 
d="M151 -130l16 -32q-27 -19 -60 -19q-34 0 -55.5 17t-21.5 52q0 31 23 61.5t60 50.5h-29q14 27 14 113v286q0 87 -14 112h70q-15 -25 -15 -112v-286q0 -87 15 -113h-1q-39 -20 -63.5 -50t-24.5 -60q0 -20 13 -31t31 -11q26 0 42 22z" />
    <glyph glyph-name="j.sc" horiz-adv-x="325" 
d="M184 511h70q-15 -25 -15 -112v-249q0 -162 -122 -162q-26 0 -51 11.5t-36.5 21t-29.5 26.5l34 46q21 -69 83 -69q41 0 61 28.5t20 95.5v251q0 87 -14 112z" />
    <glyph glyph-name="k.sc" horiz-adv-x="499" 
d="M84 511h70q-15 -25 -15 -112v-168h3l184 204q29 32 37.5 45.5t10.5 30.5h75q-28 -23 -94 -95l-87 -96l128 -196q60 -92 92 -124h-72q-1 28 -52 105l-122 186l-103 -113v-65q0 -87 15 -113h-70q14 27 14 113v286q0 87 -14 112z" />
    <glyph glyph-name="uni0137.sc" horiz-adv-x="499" 
d="M84 511h70q-15 -25 -15 -112v-168h3l184 204q29 32 37.5 45.5t10.5 30.5h75q-28 -23 -94 -95l-87 -96l128 -196q60 -92 92 -124h-72q-1 28 -52 105l-122 186l-103 -113v-65q0 -87 15 -113h-70q14 27 14 113v286q0 87 -14 112zM272 -43q41 0 41 -52q0 -34 -19.5 -66.5
t-53.5 -46.5l-10 17q48 23 52 77q-2 -2 -11 -2q-12 0 -22 10t-10 26q0 37 33 37z" />
    <glyph glyph-name="l.sc" horiz-adv-x="415" 
d="M84 511h70q-15 -25 -15 -112v-364h128q102 0 126 15v-58q-30 8 -126 8h-183q14 27 14 113v286q0 87 -14 112z" />
    <glyph glyph-name="lacute.sc" horiz-adv-x="415" 
d="M84 606q79 56 135 149l32 -29q-57 -83 -153 -141zM84 511h70q-15 -25 -15 -112v-364h128q102 0 126 15v-58q-30 8 -126 8h-183q14 27 14 113v286q0 87 -14 112z" />
    <glyph glyph-name="lcaron.sc" horiz-adv-x="415" 
d="M101 586q-47 85 -117 145l17 18q72 -54 117 -127h4q45 73 117 127l17 -18q-66 -57 -117 -145h-38zM84 511h70q-15 -25 -15 -112v-364h128q102 0 126 15v-58q-30 8 -126 8h-183q14 27 14 113v286q0 87 -14 112z" />
    <glyph glyph-name="uni013C.sc" horiz-adv-x="415" 
d="M84 511h70q-15 -25 -15 -112v-364h128q102 0 126 15v-58q-30 8 -126 8h-183q14 27 14 113v286q0 87 -14 112zM242 -43q41 0 41 -52q0 -34 -19.5 -66.5t-53.5 -46.5l-10 17q48 23 52 77q-2 -2 -11 -2q-12 0 -22 10t-10 26q0 37 33 37z" />
    <glyph glyph-name="lslash.sc" horiz-adv-x="437" 
d="M267 35q102 0 126 15v-58q-30 8 -126 8h-183q14 27 14 113v131l-67 -12l-7 33l74 13v121q0 87 -14 112h70q-15 -25 -15 -112v-114l110 20l6 -33l-116 -21v-216h128z" />
    <glyph glyph-name="m.sc" horiz-adv-x="622" 
d="M84 511h73l112 -296q27 -72 41 -128h2q25 85 42 128l112 296h73q-15 -25 -15 -112v-286q0 -87 15 -113h-68q15 26 15 113v216q0 112 3 141h-4l-114 -305q-32 -86 -33 -110h-54q0 24 -33 110l-115 305h-4q5 -45 5 -141v-216q0 -89 14 -113h-67q14 27 14 113v286
q0 87 -14 112z" />
    <glyph glyph-name="n.sc" horiz-adv-x="566" 
d="M84 511h61l291 -450h4q-6 94 -6 148v190q0 89 -14 112h67q-14 -25 -14 -112v-399h-43l-295 456h-4q6 -96 6 -145v-198q0 -89 14 -113h-67q14 27 14 113v286q0 87 -14 112z" />
    <glyph glyph-name="nacute.sc" horiz-adv-x="566" 
d="M267 606q79 56 135 149l32 -29q-57 -83 -153 -141zM84 511h61l291 -450h4q-6 94 -6 148v190q0 89 -14 112h67q-14 -25 -14 -112v-399h-43l-295 456h-4q6 -96 6 -145v-198q0 -89 14 -113h-67q14 27 14 113v286q0 87 -14 112z" />
    <glyph glyph-name="ncaron.sc" horiz-adv-x="566" 
d="M284 586q-47 85 -117 145l17 18q72 -54 117 -127h4q45 73 117 127l17 -18q-66 -57 -117 -145h-38zM84 511h61l291 -450h4q-6 94 -6 148v190q0 89 -14 112h67q-14 -25 -14 -112v-399h-43l-295 456h-4q6 -96 6 -145v-198q0 -89 14 -113h-67q14 27 14 113v286q0 87 -14 112z
" />
    <glyph glyph-name="uni0146.sc" horiz-adv-x="566" 
d="M84 511h61l291 -450h4q-6 94 -6 148v190q0 89 -14 112h67q-14 -25 -14 -112v-399h-43l-295 456h-4q6 -96 6 -145v-198q0 -89 14 -113h-67q14 27 14 113v286q0 87 -14 112zM291 -43q41 0 41 -52q0 -34 -19.5 -66.5t-53.5 -46.5l-10 17q48 23 52 77q-2 -2 -11 -2
q-12 0 -22 10t-10 26q0 37 33 37z" />
    <glyph glyph-name="ntilde.sc" horiz-adv-x="566" 
d="M369 599q-21 0 -40.5 13t-32.5 29t-29 29t-31 13q-50 0 -42 -67l-43 2q18 95 87 95q21 0 40.5 -13t32 -29t29 -29t31.5 -13q23 0 34 18t8 48l42 -2q-18 -94 -86 -94zM84 511h61l291 -450h4q-6 94 -6 148v190q0 89 -14 112h67q-14 -25 -14 -112v-399h-43l-295 456h-4
q6 -96 6 -145v-198q0 -89 14 -113h-67q14 27 14 113v286q0 87 -14 112z" />
    <glyph glyph-name="o.sc" horiz-adv-x="549" 
d="M274 -12q-103 0 -161 66.5t-58 202.5t58 201t161 65q104 0 162 -65t58 -201t-58 -202.5t-162 -66.5zM274 25q177 0 177 232q0 120 -45 174.5t-132 54.5q-86 0 -131 -54.5t-45 -174.5q0 -232 176 -232z" />
    <glyph glyph-name="oacute.sc" horiz-adv-x="549" 
d="M236 606q79 56 135 149l32 -29q-57 -83 -153 -141zM274 -12q-103 0 -161 66.5t-58 202.5t58 201t161 65q104 0 162 -65t58 -201t-58 -202.5t-162 -66.5zM274 25q177 0 177 232q0 120 -45 174.5t-132 54.5q-86 0 -131 -54.5t-45 -174.5q0 -232 176 -232z" />
    <glyph glyph-name="ocircumflex.sc" horiz-adv-x="549" 
d="M253 747h38q48 -88 116 -145l-16 -19q-72 54 -117 127h-4q-45 -73 -117 -127l-16 19q66 57 116 145zM274 -12q-103 0 -161 66.5t-58 202.5t58 201t161 65q104 0 162 -65t58 -201t-58 -202.5t-162 -66.5zM274 25q177 0 177 232q0 120 -45 174.5t-132 54.5
q-86 0 -131 -54.5t-45 -174.5q0 -232 176 -232z" />
    <glyph glyph-name="odieresis.sc" horiz-adv-x="549" 
d="M213 609q-15 0 -25 10.5t-10 25.5q0 14 10 24.5t25 10.5t25 -10.5t10 -24.5q0 -15 -10 -25.5t-25 -10.5zM335 609q-15 0 -25 10.5t-10 25.5q0 14 10 24.5t25 10.5t25 -10.5t10 -24.5q0 -15 -10 -25.5t-25 -10.5zM274 -12q-103 0 -161 66.5t-58 202.5t58 201t161 65
q104 0 162 -65t58 -201t-58 -202.5t-162 -66.5zM274 25q177 0 177 232q0 120 -45 174.5t-132 54.5q-86 0 -131 -54.5t-45 -174.5q0 -232 176 -232z" />
    <glyph glyph-name="ograve.sc" horiz-adv-x="549" 
d="M309 609l-13 -22q-99 57 -155 139l30 31q59 -95 138 -148zM274 -12q-103 0 -161 66.5t-58 202.5t58 201t161 65q104 0 162 -65t58 -201t-58 -202.5t-162 -66.5zM274 25q177 0 177 232q0 120 -45 174.5t-132 54.5q-86 0 -131 -54.5t-45 -174.5q0 -232 176 -232z" />
    </font>
</defs>
</svg>
