<?xml version="1.0" standalone="no"?>
<!DOCTYPE svg PUBLIC "-//W3C//DTD SVG 1.1//EN" "http://www.w3.org/Graphics/SVG/1.1/DTD/svg11.dtd" >
<svg xmlns="http://www.w3.org/2000/svg" xmlns:xlink="http://www.w3.org/1999/xlink" version="1.1">
<metadata>
Created by FontForge 20201107 at Wed Feb 19 16:35:55 2020
 By 
Copyright (c) 2019 by Rodrigo Lo'pez Fuentes. All rights reserved.
</metadata>
<defs>
<font id="Mondo-BlackItalic" horiz-adv-x="0" >
  <font-face 
    font-family="Mondo Black Italic"
    font-weight="400"
    font-style="italic"
    font-stretch="normal"
    units-per-em="1000"
    panose-1="0 0 10 0 0 0 0 0 0 0"
    ascent="776"
    descent="-224"
    x-height="503"
    cap-height="649"
    bbox="-393 -332 1436.24 1015"
    underline-thickness="50"
    underline-position="-150"
    slope="-11"
    unicode-range="U+0020-FB02"
  />
<missing-glyph horiz-adv-x="461" 
d="M378 722v-922h-292v922h292zM307 660h-152v-30h60v-34h-61v-31h153v31h-61v34h61v30zM246 541h-92v-96h153v32h-61v64zM215 510v-33h-31v33h31zM307 421h-153v-31h61v-34h-61v-30h92v64h61v31zM307 365h-30v-61h-123v-31h153v92zM307 253h-92v-52h31v21h31v-43h-93v74
h-30v-104h153v104zM307 93h-153v-104h153v104zM277 63v-44h-93v44h93zM307 -32h-153v-31h65l-65 -43v-30h153v30h-94l65 43h29v31z" />
    <glyph glyph-name="fi" unicode="fi" horiz-adv-x="708" 
d="M662 365l-43 -221q-12 -54 -10.5 -89.5t20.5 -54.5h-266q27 20 40.5 50.5t25.5 93.5l42 217h-162l-42 -216q-12 -57 -11 -91.5t21 -53.5h-267q28 20 41 50.5t26 94.5l42 216h-66l27 142h66l4 17q21 95 100 149.5t220 54.5q100 0 224 -37l-59 -139q-26 17 -77.5 30
t-101.5 13q-59 0 -85 -19.5t-33 -56.5l-2 -12h362q-15 -37 -36 -138z" />
    <glyph glyph-name="fl" unicode="fl" horiz-adv-x="722" 
d="M711 554l-80 -410q-12 -54 -10.5 -89.5t20.5 -54.5h-265q26 20 39.5 51t25.5 93l80 409q-35 25 -94 25q-42 0 -62 -15t-26 -45l-4 -20h96l-29 -152q-23 10 -94 10l-41 -211q-12 -57 -11 -91.5t21 -53.5h-267q28 20 41 50.5t26 94.5l41 211h-66l27 142h66l5 25
q16 87 87 136.5t195 49.5q14 0 111 -10h206q-21 -53 -38 -145z" />
    <glyph glyph-name="f_f" unicode="ff" horiz-adv-x="717" 
d="M720 574q-43 0 -52 -46l-5 -25h92l-28 -146h-93l-36 -194q-15 -75 -15 -107t16 -56h-221l70 357h-140l-42 -212q-12 -57 -11 -91.5t21 -53.5h-266q27 20 40 50t26 95l42 212h-66l28 146h66l5 23q33 186 263 186q17 0 37 -2t31.5 -2t21.5 4l-53 -154q-12 23 -50 23
q-49 0 -61 -60l-4 -18h140l9 37q44 172 243 172q19 0 58 -4.5t50 -2.5l-47 -151q-24 20 -69 20z" />
    <glyph glyph-name="f_f_i" unicode="ffi" horiz-adv-x="1039" 
d="M993 365l-43 -221q-12 -54 -11 -89.5t21 -54.5h-266q27 20 40 50t26 94l42 217h-162l-42 -216q-12 -57 -11 -91.5t21 -53.5h-267q28 20 41.5 50.5t25.5 94.5l42 216h-141l-42 -216q-12 -57 -11 -91.5t21 -53.5h-267q28 20 41 50.5t26 94.5l42 216h-66l27 142h66l5 23
q33 186 263 186q18 0 37.5 -2t31 -2t21.5 4l-52 -153q-14 22 -51 22q-49 0 -61 -60l-4 -18h141l4 17q21 95 99.5 149.5t220.5 54.5q100 0 224 -37l-59 -139q-27 17 -78 30t-101 13q-59 0 -85.5 -19.5t-32.5 -56.5l-2 -12h362q-14 -32 -36 -138z" />
    <glyph glyph-name="f_f_l" unicode="ffl" horiz-adv-x="1051" 
d="M1040 554l-79 -410q-12 -54 -11 -89.5t20 -54.5h-265q27 20 40.5 51t25.5 93l79 409q-38 25 -94 25q-76 0 -87 -60l-4 -20h95l-29 -152q-22 10 -93 10l-42 -211q-12 -56 -10.5 -91t21.5 -54h-267q28 20 41 50.5t25 94.5l42 211h-140l-41 -211q-12 -57 -11 -91.5t21 -53.5
h-267q28 20 41 50.5t26 94.5l41 211h-66l28 146h66l5 24q33 186 263 186q18 0 37.5 -2t31 -2t21.5 4l-52 -153q-14 22 -51 22q-49 0 -61 -60l-4 -19h140l3 21q16 87 87 136.5t195 49.5q14 0 111 -10h207q-19 -44 -39 -145z" />
    <glyph glyph-name=".notdef" horiz-adv-x="461" 
d="M378 722v-922h-292v922h292zM307 660h-152v-30h60v-34h-61v-31h153v31h-61v34h61v30zM246 541h-92v-96h153v32h-61v64zM215 510v-33h-31v33h31zM307 421h-153v-31h61v-34h-61v-30h92v64h61v31zM307 365h-30v-61h-123v-31h153v92zM307 253h-92v-52h31v21h31v-43h-93v74
h-30v-104h153v104zM307 93h-153v-104h153v104zM277 63v-44h-93v44h93zM307 -32h-153v-31h65l-65 -43v-30h153v30h-94l65 43h29v31z" />
    <glyph glyph-name=".null" 
 />
    <glyph glyph-name="nonmarkingreturn" horiz-adv-x="333" 
 />
    <glyph glyph-name="space" unicode=" " horiz-adv-x="163" 
 />
    <glyph glyph-name="exclam" unicode="!" horiz-adv-x="383" 
d="M108 285l49 252q11 55 11 84.5t-17 48.5h245q-21 -18 -32.5 -45t-22.5 -88l-50 -252h-183zM142 -12q-44 0 -67 22t-23 59q0 56 38 94t93 38q43 0 66.5 -22.5t23.5 -58.5q0 -55 -38 -93.5t-93 -38.5z" />
    <glyph glyph-name="quotedbl" unicode="&#x22;" horiz-adv-x="387" 
d="M118 431l3 167l15 92h113l-21 -92l-60 -167h-50zM291 431l4 167l15 92h113l-21 -92l-61 -167h-50z" />
    <glyph glyph-name="numbersign" unicode="#" horiz-adv-x="550" 
d="M51 0l64 202h-79l12 60h86l46 145h-84l12 62h91l58 181h55l-58 -181h131l59 181h55l-59 -181h80l-11 -62h-87l-46 -145h84l-11 -60h-92l-65 -202h-55l64 202h-130l-64 -202h-56zM190 262h130l46 145h-130z" />
    <glyph glyph-name="dollar" unicode="$" horiz-adv-x="616" 
d="M414 363q109 -39 109 -140q0 -88 -59 -151t-153 -79q-16 -59 -9 -91l-107 1q21 39 33 86q-47 2 -109 18.5t-84 10.5l93 194q13 -35 57.5 -62.5t93.5 -27.5q62 0 62 44q0 14 -14.5 24.5t-50.5 23.5l-36 13q-112 41 -112 144q0 86 59 146.5t154 74.5q10 60 4 88h108
q-19 -32 -30 -87q28 -3 79 -13.5t72 -7.5l-84 -175q-17 27 -50 46.5t-70 19.5q-26 0 -42.5 -11t-16.5 -28q0 -23 66 -47z" />
    <glyph glyph-name="percent" unicode="%" horiz-adv-x="977" 
d="M197 -12l493 680h136l-492 -680h-137zM209 254q-64 0 -101.5 34t-37.5 103q0 113 60.5 185t155.5 72q64 0 101.5 -33.5t37.5 -101.5q0 -112 -61 -185.5t-155 -73.5zM228 355q29 0 50 44t21 100q0 48 -34 48q-27 0 -48 -43t-21 -100q0 -49 32 -49zM718 -12
q-63 0 -100.5 34t-37.5 103q0 113 60.5 185t154.5 72q65 0 102.5 -33.5t37.5 -101.5q0 -112 -61.5 -185.5t-155.5 -73.5zM738 89q28 0 49.5 44t21.5 100q0 48 -34 48q-27 0 -48 -43t-21 -100q0 -49 32 -49z" />
    <glyph glyph-name="ampersand" unicode="&#x26;" horiz-adv-x="720" 
d="M569 141q69 -87 141 -141h-265q1 21 -13 43q-106 -57 -207 -57q-84 -1 -137 42t-53 115q0 77 50.5 139t137.5 100q-11 42 -11 79q0 103 75.5 175.5t178.5 72.5q78 0 126 -38.5t48 -106.5q0 -150 -209 -233q23 -41 59 -90q37 41 28 73h197q-67 -100 -146 -173zM437 559
q-26 0 -44 -22t-18 -55q0 -22 9 -49q90 36 90 91q0 16 -10 25.5t-27 9.5zM213 190q0 -25 17.5 -39.5t49.5 -14.5t67 13q-47 62 -79 122q-55 -33 -55 -81z" />
    <glyph glyph-name="quotesingle" unicode="'" horiz-adv-x="216" 
d="M123 438l3 197l9 62h121l-15 -62l-74 -197h-44z" />
    <glyph glyph-name="parenleft" unicode="(" horiz-adv-x="440" 
d="M166 -190q-114 115 -114 315q0 187 81 356.5t213 264.5l132 -79q-103 -49 -172 -211t-69 -357q0 -158 89 -210z" />
    <glyph glyph-name="parenright" unicode=")" horiz-adv-x="439" 
d="M105 -190l-132 79q104 50 172.5 212.5t68.5 355.5q0 157 -89 210l160 79q115 -118 115 -315q0 -186 -81.5 -356t-213.5 -265z" />
    <glyph glyph-name="asterisk" unicode="*" horiz-adv-x="442" 
d="M170 401l-39 33l67 102l-83 49l28 52l102 -12l41 106h56l1 -104l107 10l7 -52l-101 -49l25 -102l-51 -33l-63 81z" />
    <glyph glyph-name="plus" unicode="+" horiz-adv-x="514" 
d="M408 351q41 0 58 10l-25 -127q-14 10 -54 10h-87l-18 -93q-7 -40 0 -56h-128q12 13 20 56l18 93h-86q-41 0 -58 -10l25 127q13 -10 54 -10h86l18 93q9 39 1 56h128q-14 -20 -21 -56l-18 -93h87z" />
    <glyph glyph-name="comma" unicode="," horiz-adv-x="344" 
d="M159 173q40 0 64.5 -26.5t24.5 -65.5q0 -97 -72 -175t-188 -87l-8 79q52 3 90 31.5t47 58.5q-1 -1 -6 -1q-30 5 -48.5 25t-18.5 52q0 44 33.5 76.5t81.5 32.5z" />
    <glyph glyph-name="hyphen" unicode="-" horiz-adv-x="354" 
d="M39 187l25 131h252l-26 -131h-251z" />
    <glyph glyph-name="period" unicode="." horiz-adv-x="308" 
d="M101 -12q-37 0 -59.5 22t-22.5 54q0 50 34 85.5t87 35.5q37 0 59.5 -22t22.5 -54q0 -49 -33.5 -85t-87.5 -36z" />
    <glyph glyph-name="slash" unicode="/" horiz-adv-x="479" 
d="M-64 -160l350 705q53 107 49 165h215l-350 -707q-52 -108 -49 -163h-215z" />
    <glyph glyph-name="zero" unicode="0" horiz-adv-x="607" 
d="M253 -12q-97 0 -153 59.5t-56 171.5q0 191 97.5 317.5t243.5 126.5q96 0 151.5 -59.5t55.5 -172.5q0 -191 -97 -317t-242 -126zM284 150q44 0 80 82.5t36 185.5q0 83 -48 83q-44 0 -80 -83t-36 -185q0 -83 48 -83z" />
    <glyph glyph-name="one" unicode="1" horiz-adv-x="584" 
d="M16 0l24 121l140 33l61 312h-130l25 125q65 4 169 24.5t158 39.5l-97 -501l133 -33l-24 -121h-459z" />
    <glyph glyph-name="two" unicode="2" horiz-adv-x="568" 
d="M299 162h43q110 0 151 14l-34 -176h-457l15 135q49 30 99 66.5t102.5 81.5t85.5 91t33 81q0 19 -14.5 30t-36.5 11q-34 0 -73 -19.5t-69 -49.5l-39 178q13 2 93.5 30t140.5 28q89 0 141.5 -50t52.5 -130q0 -44 -18 -89t-43.5 -78.5t-60 -66t-60.5 -51.5t-52 -36z" />
    <glyph glyph-name="three" unicode="3" horiz-adv-x="539" 
d="M193 -12q-62 0 -120.5 16t-83.5 14l72 189q54 -59 135 -59q79 0 79 64q0 24 -30.5 37t-108.5 13l26 135q75 0 109.5 18t34.5 56q0 36 -42 36q-55 0 -108 -49l-47 162q20 3 85.5 23t110.5 20q88 0 141 -42t53 -111q0 -63 -34.5 -106t-97.5 -64l-1 -4q42 -12 67.5 -52.5
t25.5 -88.5q0 -96 -76.5 -151.5t-189.5 -55.5z" />
    <glyph glyph-name="four" unicode="4" horiz-adv-x="583" 
d="M485 295q53 0 79 13l-30 -152h-76q-20 -111 -4 -156h-238q37 49 56 156h-261l19 130l279 365h247zM206 295h93l36 182z" />
    <glyph glyph-name="five" unicode="5" horiz-adv-x="580" 
d="M216 -12q-62 0 -119 17t-80 18l95 186q41 -72 116 -72q43 0 70.5 28t27.5 72q0 29 -19.5 43.5t-49.5 14.5q-39 0 -73 -17l-84 29l84 344h236q98 0 139 19l-33 -174h-215l-19 -75q27 5 53 5q73 0 123 -47.5t50 -124.5q0 -120 -85 -193t-217 -73z" />
    <glyph glyph-name="six" unicode="6" horiz-adv-x="587" 
d="M262 -12q-93 0 -154 55.5t-61 169.5q0 192 103 321t257 129q40 0 94.5 -13.5t74.5 -12.5l-93 -171q-9 22 -35.5 35t-58.5 13q-103 0 -144 -167q20 27 60 45t83 18q62 0 105.5 -39.5t43.5 -110.5q0 -119 -78 -195.5t-197 -76.5zM285 126q31 0 52.5 30.5t21.5 74.5
q0 47 -50 47q-47 0 -83 -55q-2 -97 59 -97z" />
    <glyph glyph-name="seven" unicode="7" horiz-adv-x="495" 
d="M70 0q34 166 100.5 293t152.5 196h-122q-61 0 -89.5 -4t-51.5 -20l37 194q42 -8 137 -8h318l-27 -159q-112 -84 -179 -209t-67 -258v-25h-209z" />
    <glyph glyph-name="eight" unicode="8" horiz-adv-x="554" 
d="M223 -12q-90 0 -147 40t-57 105q0 56 38.5 105.5t98.5 70.5l1 4q-62 48 -62 119q0 89 76.5 151.5t184.5 62.5q79 0 127.5 -38.5t48.5 -103.5q0 -62 -36 -104t-75 -62l-2 -4q37 -14 60 -48t23 -80q0 -91 -81 -154.5t-198 -63.5zM338 384q36 43 36 89q0 45 -47 45
q-26 0 -44 -18.5t-18 -46.5q0 -20 17.5 -36t55.5 -33zM252 115q31 0 51.5 19.5t20.5 48.5q0 20 -22 36.5t-74 40.5q-14 -14 -27 -43t-13 -48q0 -25 18.5 -39.5t45.5 -14.5z" />
    <glyph glyph-name="nine" unicode="9" horiz-adv-x="591" 
d="M220 -12q-47 0 -98 13t-70 12l71 171q9 -22 40.5 -34.5t65.5 -12.5q47 0 91.5 42.5t55.5 111.5q-20 -22 -61 -36t-88 -14q-63 0 -105 41t-42 126q0 108 79.5 181.5t184.5 73.5q101 0 163.5 -64t62.5 -194q0 -107 -44.5 -202.5t-126 -155t-179.5 -59.5zM307 373
q45 0 84 49q2 103 -59 103q-32 0 -53.5 -31t-21.5 -74q0 -47 50 -47z" />
    <glyph glyph-name="colon" unicode=":" horiz-adv-x="306" 
d="M171 318q-37 0 -59.5 22t-22.5 55q0 50 34 85.5t87 35.5q37 0 59.5 -22t22.5 -55q0 -49 -33.5 -85t-87.5 -36zM112 -12q-37 0 -59.5 22t-22.5 54q0 50 33.5 85.5t86.5 35.5q38 0 60.5 -22t22.5 -54q0 -49 -33.5 -85t-87.5 -36z" />
    <glyph glyph-name="semicolon" unicode=";" horiz-adv-x="301" 
d="M158 298q-38 0 -60.5 22t-22.5 55q0 49 34 85t87 36q38 0 60.5 -22t22.5 -55q0 -49 -34 -85t-87 -36zM-51 -181l-7 79q52 3 90 31.5t47 58.5l-6 -1q-67 12 -67 77q0 44 33 76.5t82 32.5q39 0 64 -26.5t25 -65.5q0 -97 -72.5 -175t-188.5 -87z" />
    <glyph glyph-name="less" unicode="&#x3c;" horiz-adv-x="440" 
d="M401 408q-21 2 -57 -18l-159 -89l125 -88q28 -20 49 -18l-69 -118q-5 15 -43 43l-199 146l14 73l255 144q50 29 60 44z" />
    <glyph glyph-name="equal" unicode="=" horiz-adv-x="512" 
d="M86 331l25 127q13 -10 54 -10h241q39 0 58 10l-25 -127q-14 10 -54 10h-241q-41 0 -58 -10zM48 137l25 127q13 -10 54 -10h241q41 0 58 10l-25 -127q-14 10 -54 10h-241q-41 0 -58 -10z" />
    <glyph glyph-name="greater" unicode="&#x3e;" horiz-adv-x="440" 
d="M193 483l199 -144l-14 -73l-256 -146q-47 -27 -60 -43l-23 118q21 -2 57 18l158 89l-124 88q-28 20 -49 18l68 119q6 -16 44 -44z" />
    <glyph glyph-name="question" unicode="?" horiz-adv-x="476" 
d="M130 250q9 46 30.5 81.5t46 56t48 37.5t38.5 35.5t15 40.5q0 15 -12.5 25t-28.5 10q-56 0 -106 -57l-60 150q17 2 90 28t132 26q74 0 120 -34.5t46 -99.5q0 -56 -18 -94.5t-45 -59.5t-54.5 -39t-50.5 -44t-30 -62h-161zM163 -12q-41 0 -64 21.5t-23 57.5q0 55 37 92.5
t92 37.5q41 0 64 -21.5t23 -57.5q0 -55 -37 -92.5t-92 -37.5z" />
    <glyph glyph-name="at" unicode="@" horiz-adv-x="869" 
d="M363 -109q-140 0 -226 80.5t-86 212.5q0 129 60 232t162 158.5t225 55.5q139 0 230.5 -84t91.5 -211q0 -122 -64.5 -194t-161.5 -72q-108 0 -126 82q-12 -22 -40 -39t-66 -17q-50 0 -79.5 30t-29.5 93q0 75 49.5 134t113.5 59q29 0 50.5 -11t27.5 -26l17 30h108l-34 -174
q-11 -59 29 -59q31 0 51.5 41.5t20.5 102.5q0 89 -56 140.5t-155 51.5q-121 0 -206 -87.5t-85 -212.5q0 -87 56 -140.5t148 -53.5q56 0 106 24l-28 -134q-57 -12 -103 -12zM411 184q20 0 36 20t22 42l4 17q5 25 -6 42t-32 17q-24 0 -42 -28.5t-18 -65.5q0 -44 36 -44z" />
    <glyph glyph-name="A" unicode="A" horiz-adv-x="692" 
d="M-39 0q22 18 43.5 51t56.5 110l166 355q42 90 38 133h314q-19 -42 -12 -133l28 -355q6 -78 13 -111.5t24 -49.5h-259q36 33 39 104l-1 23h-177l-11 -23q-17 -38 -18 -61.5t15 -42.5h-259zM296 274h108l-6 235h-9z" />
    <glyph glyph-name="B" unicode="B" horiz-adv-x="668" 
d="M504 344q107 -24 107 -122q0 -115 -82.5 -168.5t-223.5 -53.5h-308q29 21 45.5 60t29.5 106l62 316q24 134 -12 167h288q105 0 163.5 -34.5t58.5 -104.5q0 -59 -35 -102.5t-93 -63.5zM357 400q37 0 60 18t23 47q0 38 -62 38h-45l-21 -103h45zM320 145q44 0 70 18.5
t26 50.5q0 47 -73 47h-58l-22 -116h57z" />
    <glyph glyph-name="C" unicode="C" horiz-adv-x="578" 
d="M292 -12q-112 0 -178.5 63.5t-66.5 190.5q0 186 97.5 302.5t264.5 116.5q47 0 108.5 -19.5t78.5 -20.5l-93 -183q-42 59 -113 59q-64 0 -105 -68t-41 -161q0 -117 90 -117q74 0 129 55l46 -182q-15 0 -88 -18t-129 -18z" />
    <glyph glyph-name="D" unicode="D" horiz-adv-x="663" 
d="M-3 0q50 35 75 166l61 316q13 67 11 107.5t-22 59.5h258q127 0 195 -67t68 -177q0 -195 -99 -300t-270 -105h-277zM260 151h26q71 0 116 62.5t45 163.5q0 120 -98 120h-22z" />
    <glyph glyph-name="E" unicode="E" horiz-adv-x="576" 
d="M478 -7q-42 7 -150 7h-331q51 36 76 166l60 316q26 135 -11 167h333q93 0 138 7l-37 -187q-38 21 -132 21h-99l-15 -81h68q93 0 134 15l-37 -189q-38 16 -127 16h-70l-17 -92h98q109 0 156 20z" />
    <glyph glyph-name="F" unicode="F" horiz-adv-x="568" 
d="M-3 0q49 32 76 166l60 316q26 135 -11 167h341q96 0 139 7l-37 -187q-37 21 -133 21h-107l-21 -103h89q88 0 127 19l-38 -197q-32 20 -119 20h-89l-12 -62q-12 -52 -10.5 -99.5t26.5 -67.5h-281z" />
    <glyph glyph-name="G" unicode="G" horiz-adv-x="627" 
d="M303 -12q-122 0 -190 58.5t-68 180.5q0 190 98.5 312t265.5 122q41 0 80 -7.5t73 -17.5t48 -12l-97 -172q-36 45 -125 45q-59 0 -102.5 -71.5t-43.5 -165.5q0 -109 95 -109q46 0 84 20l18 79h-17q-52 0 -76 -10l29 136q21 -9 71 -9h173q-18 -27 -39 -123l-15 -78
q-20 -93 -9 -123q-16 -4 -64 -19t-96 -25.5t-93 -10.5z" />
    <glyph glyph-name="H" unicode="H" horiz-adv-x="730" 
d="M-3 0q51 37 76 166l60 316q25 134 -11 167h277q-51 -38 -76 -167l-13 -69h173l13 69q15 66 13.5 105.5t-24.5 61.5h278q-28 -21 -45.5 -59.5t-31.5 -107.5l-61 -316q-25 -129 11 -166h-276q50 38 75 166l16 82h-173l-15 -82q-14 -61 -13 -102.5t24 -63.5h-277z" />
    <glyph glyph-name="I" unicode="I" horiz-adv-x="366" 
d="M-3 0q30 22 46.5 59.5t29.5 106.5l60 316q25 134 -11 167h277q-28 -22 -46 -59.5t-30 -107.5l-61 -316q-13 -58 -12 -101.5t23 -64.5h-276z" />
    <glyph glyph-name="J" unicode="J" horiz-adv-x="479" 
d="M134 -12q-39 0 -93 14.5t-74 12.5l81 202q31 -66 88 -66q53 0 67 72l50 259q27 129 -18 167h272q-23 -21 -36.5 -59.5t-26.5 -107.5l-50 -259q-25 -128 -86 -181.5t-174 -53.5z" />
    <glyph glyph-name="K" unicode="K" horiz-adv-x="692" 
d="M-4 0q50 34 76 166l60 316q15 80 15 115t-22 54h260q-40 -45 -57 -135l-17 -92h4l107 119q31 37 41.5 59t6.5 49h257q-56 -36 -140 -136l-117 -141l87 -210q56 -131 84 -164h-263q22 46 -22 157l-30 78l-66 -72l-5 -24q-18 -101 8 -139h-267z" />
    <glyph glyph-name="L" unicode="L" horiz-adv-x="535" 
d="M469 -7q-42 7 -118 7h-354q51 36 76 166l60 316q26 135 -11 167h277q-52 -38 -76 -167l-62 -323h121q82 0 125 35z" />
    <glyph glyph-name="M" unicode="M" horiz-adv-x="836" 
d="M612 649h258q-29 -21 -46 -59.5t-31 -107.5l-61 -316q-25 -131 11 -166h-246q27 19 40 54.5t29 111.5l11 56q23 114 47 176h-7l-120 -231q-37 -71 -47 -118h-142q8 52 -1 118l-37 231h-7q2 -74 -14 -175l-11 -61q-10 -62 -7.5 -102t22.5 -60h-256q52 37 76 166l60 316
q26 134 -11 167h254l55 -346z" />
    <glyph glyph-name="N" unicode="N" horiz-adv-x="726" 
d="M-3 0q51 36 76 166l60 316q23 128 -11 167h246l110 -358h9q-6 85 6 154l15 76q13 80 -12 128h261q-50 -38 -75 -167l-61 -316q-13 -53 -12 -99t24 -67h-237l-116 379h-9q4 -103 -9 -163l-12 -62q-25 -112 8 -154h-261z" />
    <glyph glyph-name="O" unicode="O" horiz-adv-x="681" 
d="M300 -12q-120 0 -186 68t-66 191q0 186 94 300t265 114q121 0 187.5 -66t66.5 -189q0 -185 -96 -301.5t-265 -116.5zM319 151q68 0 107.5 65t39.5 171q0 53 -22 82t-54 29q-70 0 -108 -62t-38 -170q0 -54 21 -84.5t54 -30.5z" />
    <glyph glyph-name="P" unicode="P" horiz-adv-x="629" 
d="M-3 0q51 33 76 166l60 316q25 134 -11 167h293q102 0 166.5 -45t64.5 -135q0 -135 -85 -201.5t-229 -66.5h-63l-7 -34q-29 -131 17 -167h-282zM298 351h56q48 0 75.5 23.5t27.5 64.5q0 59 -77 59h-53z" />
    <glyph glyph-name="Q" unicode="Q" horiz-adv-x="675" 
d="M395 -1q16 -55 95 -55q58 0 100 22l-1 -168q-19 3 -32 2t-44 -3.5t-54 -2.5q-93 0 -155 58t-67 141q-91 17 -140 82.5t-49 171.5q0 186 94 300t265 114q121 0 187.5 -66t66.5 -189q0 -156 -70 -266t-196 -141zM390 498q-70 0 -108 -62t-38 -170q0 -54 21 -84.5t54 -30.5
q68 0 107.5 65t39.5 171q0 53 -22 82t-54 29z" />
    <glyph glyph-name="R" unicode="R" horiz-adv-x="674" 
d="M-3 0q31 20 47 60.5t29 105.5l60 316q26 135 -11 167h300q102 0 165.5 -44.5t63.5 -131.5q0 -72 -41 -134t-110 -91l22 -61q51 -147 94 -187h-273q9 8 12.5 18t1.5 27.5t-5 30.5t-11.5 43t-13.5 49l-14 42h-43l-8 -44q-25 -131 3 -166h-268zM299 359h54q52 0 81 22.5
t29 62.5q0 55 -81 55h-56z" />
    <glyph glyph-name="S" unicode="S" horiz-adv-x="552" 
d="M234 -12q-57 0 -134.5 18.5t-105.5 12.5l90 210q18 -37 68.5 -65t103.5 -28q29 0 45.5 12t16.5 32q0 15 -13.5 27t-45.5 26l-52 23q-129 57 -129 180q0 104 74.5 164.5t188.5 60.5q51 0 114 -13t86 -9l-78 -197q-25 27 -61.5 45t-72.5 19q-25 1 -40 -9.5t-15 -28.5
q0 -16 14.5 -27.5t51.5 -27.5l48 -21q125 -55 125 -179q0 -109 -76.5 -167t-202.5 -58z" />
    <glyph glyph-name="T" unicode="T" horiz-adv-x="574" 
d="M101 0q28 22 45 60.5t29 105.5l63 324h-48q-80 0 -123 -21l36 187q36 -7 118 -7h288q82 0 119 7l-36 -187q-34 21 -114 21h-49l-64 -324q-13 -64 -11 -105t23 -61h-276z" />
    <glyph glyph-name="U" unicode="U" horiz-adv-x="706" 
d="M308 -12q-134 0 -192 75t-33 203l42 216q12 46 11.5 95.5t-23.5 71.5h277q-28 -22 -45 -59t-30 -108l-38 -193q-7 -42 -9 -72.5t14.5 -48t54.5 -17.5q51 0 76.5 32.5t39.5 104.5l37 194q27 131 -11 167h269q-51 -38 -75 -167l-42 -216q-26 -133 -101.5 -205.5
t-221.5 -72.5z" />
    <glyph glyph-name="V" unicode="V" horiz-adv-x="671" 
d="M145 0q14 40 16 72.5t-3 72.5l-33 335q-12 116 -24 145q-5 14 -13 24h252q-27 -45 -24 -144l9 -222q3 -76 2 -91h4q31 79 36 91l96 223q40 99 31 143h245q-26 -22 -49.5 -61.5t-56.5 -107.5l-160 -334q-24 -53 -33 -80.5t-10 -65.5h-285z" />
    <glyph glyph-name="W" unicode="W" horiz-adv-x="958" 
d="M795 649h224q-26 -32 -55 -113l-143 -410q-32 -91 -24 -126h-319q22 44 22 125l-1 217l-86 -217q-35 -92 -25 -125h-316q22 33 25 126l9 410q2 84 -13 113h248q-16 -20 -22 -42t-9 -63l-25 -336l141 358q20 48 15 83h249q-17 -36 -15 -83l5 -359l104 336q1 2 4 11.5
t3.5 12.5t3 11t3 11t2 10.5t1.5 11t0.5 9.5t-0.5 10t-2.5 9t-3.5 10z" />
    <glyph glyph-name="X" unicode="X" horiz-adv-x="657" 
d="M461 649h237q-29 -25 -78 -98l-154 -231l69 -213q22 -70 53 -107h-264q29 43 8 119l-25 84l-47 -84q-28 -55 -35.5 -77t-1.5 -42h-252q24 19 41.5 40t50.5 67l158 231l-65 213q-19 60 -44 98h246q-11 -25 -10 -45t12 -65l23 -86l46 85q26 52 32 72t0 39z" />
    <glyph glyph-name="Y" unicode="Y" horiz-adv-x="640" 
d="M460 649h242q-34 -28 -69 -80l-226 -356l-10 -47q-12 -53 -12 -99t21 -67h-276q46 39 76 164l11 48l-86 356q-9 34 -15 48t-23 33h254q-17 -20 -21 -40t2 -61l21 -167l90 167q20 38 24.5 57.5t-3.5 43.5z" />
    <glyph glyph-name="Z" unicode="Z" horiz-adv-x="582" 
d="M273 649h317l-27 -136q-15 -8 -29.5 -24.5t-55.5 -66.5l-217 -264h113q106 0 144 30l-37 -195q-35 7 -138 7h-347l27 135q23 14 41.5 33t69.5 81l198 241h-89q-93 0 -131 -32l38 198q35 -7 123 -7z" />
    <glyph glyph-name="bracketleft" unicode="[" horiz-adv-x="435" 
d="M308 -174q-59 21 -296 21l167 863q237 0 305 20l-31 -156h-116l-114 -591h117z" />
    <glyph glyph-name="backslash" unicode="\" horiz-adv-x="438" 
d="M146 -160q25 56 14 163l-75 707h214q-14 -35 -17 -69.5t3 -95.5l76 -705h-215z" />
    <glyph glyph-name="bracketright" unicode="]" horiz-adv-x="435" 
d="M-38 -174l31 157h116l114 591h-117l31 156q60 -20 297 -20l-167 -863q-238 0 -305 -21z" />
    <glyph glyph-name="asciicircum" unicode="^" horiz-adv-x="473" 
d="M441 344l-122 -59q5 20 -11 60l-48 125l-96 -125q-32 -40 -34 -60l-98 59q19 8 47 44l175 221h69l87 -221q14 -33 31 -44z" />
    <glyph glyph-name="underscore" unicode="_" horiz-adv-x="410" 
d="M-36 -161l23 122h347l-24 -122h-346z" />
    <glyph glyph-name="grave" unicode="`" horiz-adv-x="411" 
d="M351 573q-54 12 -107.5 45t-76.5 76l90 95q24 -50 63 -90t83 -64z" />
    <glyph glyph-name="a" unicode="a" horiz-adv-x="601" 
d="M185 -12q-69 0 -113.5 50.5t-44.5 141.5q0 142 78.5 236t179.5 94q65 0 122 -33l12 21h173l-72 -346q-24 -116 2 -152h-201q-6 16 -6 31h-6q-63 -43 -124 -43zM259 134q34 0 82 57l30 149q-24 29 -60 29q-38 0 -65.5 -49.5t-27.5 -123.5q0 -62 41 -62z" />
    <glyph glyph-name="b" unicode="b" horiz-adv-x="608" 
d="M317 -12q-68 0 -121 32l-28 -20h-150l109 529q17 87 17.5 123t-20.5 60h226l-48 -234q61 36 123 36q70 0 114 -50.5t44 -140.5q0 -139 -78 -237t-188 -98zM292 129q40 0 70 50.5t30 126.5q0 61 -41 61q-35 0 -80 -45l-35 -174q26 -19 56 -19z" />
    <glyph glyph-name="c" unicode="c" horiz-adv-x="470" 
d="M240 -12q-98 0 -154 52.5t-56 153.5q0 147 83.5 233.5t209.5 86.5q39 0 81.5 -11t56.5 -12l-56 -162q-26 35 -80 35q-42 0 -71.5 -47.5t-29.5 -106.5q0 -72 63 -72q52 0 83 35l31 -164q-15 0 -66.5 -10.5t-94.5 -10.5z" />
    <glyph glyph-name="d" unicode="d" horiz-adv-x="608" 
d="M185 -12q-70 0 -114 50.5t-44 140.5q0 139 78 237t188 98q55 0 109 -25l12 63q17 75 16 107.5t-23 52.5h227l-115 -571q-13 -54 -12 -87.5t21 -53.5h-198q-4 15 -2 36l-4 2q-63 -50 -139 -50zM259 134q31 0 80 47l35 174q-29 18 -56 18q-39 0 -69.5 -50t-30.5 -127
q0 -62 41 -62z" />
    <glyph glyph-name="e" unicode="e" horiz-adv-x="544" 
d="M272 -12q-111 0 -176 59t-65 155q0 139 80.5 225.5t208.5 86.5q90 0 148 -49t58 -119q0 -160 -221 -157l-88 1q2 -31 24 -50.5t60 -19.5q76 0 112 29l46 -135q-14 0 -76.5 -13t-110.5 -13zM223 294h60q67 0 67 40q0 21 -12.5 33t-34.5 12q-32 0 -52.5 -22.5t-27.5 -62.5z
" />
    <glyph glyph-name="f" unicode="f" horiz-adv-x="387" 
d="M48 0l70 357h-66l28 144h65l10 39q44 172 243 172q19 0 58 -4.5t50 -2.5l-47 -151q-24 20 -69 20q-43 0 -52 -46l-5 -25h92l-28 -146h-93l-36 -194q-15 -75 -15 -107t16 -56h-221z" />
    <glyph glyph-name="g" unicode="g" horiz-adv-x="592" 
d="M178 -212q-33 0 -91 12t-74 11l54 163q18 -22 52.5 -36.5t74.5 -14.5q92 0 111 88l6 25h-3q-41 -38 -117 -38t-119.5 45.5t-43.5 135.5q0 139 79.5 237t192.5 98q28 0 58.5 -11t47.5 -26l14 25h172l-94 -458q-26 -127 -103 -191.5t-217 -64.5zM259 135q17 0 40.5 14
t41.5 33l31 161q-26 30 -59 30q-39 0 -66.5 -49.5t-27.5 -127.5q0 -61 40 -61z" />
    <glyph glyph-name="h" unicode="h" horiz-adv-x="624" 
d="M21 0l111 552q16 75 15 108t-23 52h230l-52 -257h9q13 19 55 39t87 20q75 0 106.5 -56.5t13.5 -152.5l-32 -164q-11 -52 -10 -87t20 -54h-227l56 282q15 74 -27 74q-22 0 -45.5 -19.5t-41.5 -50.5l-28 -145q-12 -53 -11.5 -87t16.5 -54h-222z" />
    <glyph glyph-name="i" unicode="i" horiz-adv-x="323" 
d="M228 561q-102 0 -102 71q0 44 32 74t82 30q49 0 75.5 -19t26.5 -52q0 -47 -31.5 -75.5t-82.5 -28.5zM19 0l69 342q18 93 15 117q-4 27 -23 44h227l-73 -362q-12 -53 -11 -87.5t20 -53.5h-224z" />
    <glyph glyph-name="j" unicode="j" horiz-adv-x="308" 
d="M221 561q-102 0 -102 71q0 44 32 74t82 30q49 0 75.5 -19t26.5 -52q0 -47 -31.5 -75.5t-82.5 -28.5zM-16 -203q-19 0 -59.5 3t-56.5 1l49 158q20 -17 48 -17q24 0 37.5 18.5t23.5 66.5l62 314q15 66 15 104t-24 58h227l-91 -469q-23 -116 -76 -176.5t-155 -60.5z" />
    <glyph glyph-name="k" unicode="k" horiz-adv-x="613" 
d="M21 0l111 552q17 76 15.5 108t-23.5 52h227l-47 -235q62 37 132 37q64 0 106 -35.5t42 -101.5q0 -59 -33.5 -105.5t-90.5 -75.5l48 -103q29 -66 68 -93h-224l-73 188l11 61q40 1 71.5 22.5t31.5 60.5q0 47 -42 47q-40 0 -76 -44l-40 -196q-12 -53 -11 -86.5t21 -52.5
h-224z" />
    <glyph glyph-name="l" unicode="l" horiz-adv-x="323" 
d="M18 0l111 552q16 73 15.5 106.5t-22.5 53.5h227l-116 -571q-13 -55 -12 -88.5t21 -52.5h-224z" />
    <glyph glyph-name="m" unicode="m" horiz-adv-x="912" 
d="M19 0l72 364q8 40 10.5 59t-1.5 43t-19 37h222l-9 -63h6q67 74 164 74q89 0 107 -82q77 82 171 82q85 0 113.5 -53t12.5 -133l-38 -187q-23 -110 9 -141h-225l56 286q9 33 5.5 51t-24.5 18q-34 0 -84 -50l-32 -164q-8 -38 -10.5 -60.5t-1 -44.5t11.5 -36h-219l57 286
q9 31 6 50t-24 19q-37 0 -86 -50l-32 -164q-20 -109 1 -141h-219z" />
    <glyph glyph-name="n" unicode="n" horiz-adv-x="620" 
d="M21 0l70 364q8 40 10 57.5t-1.5 42t-18.5 39.5h215l-12 -56h6q72 67 147 67q76 0 113 -57.5t19 -150.5l-32 -165q-12 -55 -11 -88.5t20 -52.5h-224l55 282q16 74 -30 74q-38 0 -81 -60l-30 -155q-11 -61 -12 -88.5t12 -52.5h-215z" />
    <glyph glyph-name="o" unicode="o" horiz-adv-x="577" 
d="M243 -12q-99 0 -156 53t-57 150q0 151 84.5 237t222.5 86q98 0 155 -52t57 -148q0 -151 -84.5 -238.5t-221.5 -87.5zM268 139q41 0 65.5 41.5t24.5 113.5q0 70 -47 70q-42 0 -66.5 -41t-24.5 -112q0 -72 48 -72z" />
    <glyph glyph-name="p" unicode="p" horiz-adv-x="602" 
d="M-26 -200l109 542q16 72 15.5 106t-23.5 55h219l-4 -23h7q62 34 110 34q77 0 123 -50t46 -141q0 -141 -74.5 -238t-191.5 -97q-54 0 -108 25l-14 -72q-11 -46 -11 -83.5t20 -57.5h-223zM285 129q39 0 69.5 50t30.5 127q0 61 -41 61q-34 0 -78 -43l-37 -177q31 -18 56 -18
z" />
    <glyph glyph-name="q" unicode="q" horiz-adv-x="601" 
d="M260 -200l47 227l-3 3q-54 -42 -109 -42q-77 0 -123 50t-46 141q0 136 80 235.5t180 99.5q62 0 114 -27l20 15h171l-112 -549q-14 -66 -13.5 -100t14.5 -53h-220zM258 134q31 0 82 54l32 162q-25 23 -61 23q-39 0 -66.5 -50t-27.5 -127q0 -62 41 -62z" />
    <glyph glyph-name="r" unicode="r" horiz-adv-x="450" 
d="M20 0l71 365q12 53 11 86.5t-21 51.5h208l-11 -74h8q26 41 66.5 63t82.5 22q31 0 53 -11l-52 -180q-18 28 -51 28t-67.5 -20t-58.5 -64l-24 -127q-12 -47 -11.5 -83t19.5 -57h-223z" />
    <glyph glyph-name="s" unicode="s" horiz-adv-x="467" 
d="M189 -12q-55 0 -118.5 14.5t-81.5 14.5l83 175q16 -33 51.5 -56t72.5 -23q42 0 42 29q0 13 -10.5 21t-39.5 20l-23 9q-48 18 -78 54t-30 87q0 80 62 130.5t151 50.5q41 0 100 -14t74 -15l-77 -151q-16 23 -43 38t-53 15q-37 0 -37 -25q0 -12 10 -20.5t36 -17.5l22 -9
q117 -41 117 -140q0 -87 -64 -137t-166 -50z" />
    <glyph glyph-name="t" unicode="t" horiz-adv-x="434" 
d="M233 -9q-93 0 -135 51.5t-22 157.5l31 159h-65l27 142l66 2l20 109h188l-21 -109h111l-28 -144h-110l-29 -145q-14 -77 29 -77q37 0 65 19l20 -153q-18 1 -65 -5.5t-82 -6.5z" />
    <glyph glyph-name="u" unicode="u" horiz-adv-x="614" 
d="M168 -12q-154 0 -117 195l35 180q12 55 11 88t-19 52h223l-56 -285q-8 -40 -1.5 -55.5t30.5 -15.5q42 0 72 46l33 170q12 57 12.5 86.5t-13.5 53.5h216l-69 -362q-1 -4 -3.5 -17t-3 -17.5t-2.5 -15.5t-2 -16t-1 -14.5t0 -14.5t2 -12.5t3.5 -12.5t6 -10.5t8.5 -10.5h-215
l10 52h-8q-59 -64 -152 -64z" />
    <glyph glyph-name="v" unicode="v" horiz-adv-x="575" 
d="M140 0l-40 321q-16 138 -45 182h210l17 -207q6 -67 1 -160h9q13 44 93 239q20 47 23.5 73.5t-10.5 54.5h206q-15 -58 -70.5 -180.5t-98 -216t-34.5 -106.5h-261z" />
    <glyph glyph-name="w" unicode="w" horiz-adv-x="961" 
d="M112 0l-26 379q-4 63 -9 86t-18 38h196l9 -171q7 -149 3 -198h8q8 42 18.5 72.5t40.5 92.5q22 47 46 111.5t28 92.5h258l11 -171q8 -143 1 -198h8q3 15 33.5 93.5t57 159.5t24.5 116h183q-18 -71 -107 -271.5t-95 -231.5h-260l-12 240q-3 78 1 105h-6q-5 -35 -35 -104
q-83 -193 -97 -241h-261z" />
    <glyph glyph-name="x" unicode="x" horiz-adv-x="549" 
d="M433 100q28 -72 61 -100h-218l-14 47q-13 52 -27 94h-6q-20 -34 -35 -70l-10 -21q-12 -27 -8 -50h-212l203 288l-42 112q-30 79 -58 103h215l15 -49q4 -14 12 -46t11 -46h7q6 11 34 77l8 15q10 25 9 49h210l-204 -283z" />
    <glyph glyph-name="y" unicode="y" horiz-adv-x="575" 
d="M113 -200q-35 0 -70 5.5t-47 2.5l70 183q6 -19 28 -34.5t44 -15.5q47 0 59 52l2 7l-79 328q-30 137 -65 175h211l40 -268q7 -41 7 -67h8q8 32 20 64l46 141q31 97 16 130h198l-217 -524q-73 -179 -271 -179z" />
    <glyph glyph-name="z" unicode="z" horiz-adv-x="468" 
d="M475 503l-17 -111l-212 -255h57q75 0 120 20l-28 -157h-412l17 108l211 258h-47q-61 0 -99 -21l28 158h382z" />
    <glyph glyph-name="braceleft" unicode="{" horiz-adv-x="429" 
d="M304 -168l-98 11q-72 8 -107.5 36t-35.5 86q0 51 22.5 121.5t22.5 95.5q0 57 -75 42l21 108q43 -10 66.5 9t29.5 50q6 30 11.5 79t12.5 86q14 75 65 112.5t136 46.5l102 10l-26 -140l-26 5q-32 6 -49.5 -14t-25.5 -60q-5 -25 -9.5 -61t-9.5 -62q-10 -52 -29 -78t-53 -35
v-4q43 -13 43 -70q0 -54 -19 -118.5t-19 -78.5q0 -52 50 -42l27 5z" />
    <glyph glyph-name="bar" unicode="|" horiz-adv-x="555" 
d="M81 -190q27 43 54 180l107 555q27 135 16 180h217q-16 -27 -27 -62.5t-27 -117.5l-108 -555q-26 -138 -16 -180h-216z" />
    <glyph glyph-name="braceright" unicode="}" horiz-adv-x="427" 
d="M-37 -168l27 140l25 -5q59 -10 76 75l19 125q11 50 29.5 75.5t52.5 34.5v4q-44 15 -44 70q0 45 19 106t19 91q0 50 -50 42l-27 -5l27 140l98 -10q71 -8 106.5 -36.5t35.5 -87.5q0 -43 -21 -115t-21 -93q0 -22 18 -34.5t58 -4.5l-25 -130q-42 9 -65.5 -8t-29.5 -43
q-5 -25 -11 -75t-12 -84q-15 -76 -64.5 -114.5t-138.5 -47.5z" />
    <glyph glyph-name="asciitilde" unicode="~" horiz-adv-x="531" 
d="M332 284q-45 0 -86 24t-57 24t-26.5 -13t-13.5 -29h-101q16 81 57.5 122t93.5 41q44 0 86 -24t58 -24q15 0 25 12.5t14 28.5h100q-16 -80 -57.5 -121t-92.5 -41z" />
    <glyph glyph-name="exclamdown" unicode="&#xa1;" horiz-adv-x="356" 
d="M250 521q43 0 66.5 -22t23.5 -58q0 -56 -38 -94t-93 -38q-43 0 -66.5 22t-23.5 59q0 55 38 93t93 38zM284 224l-49 -251q-7 -38 -9.5 -58t0.5 -41.5t15 -34.5h-245q22 19 33 46t22 88l50 251h183z" />
    <glyph glyph-name="cent" unicode="&#xa2;" horiz-adv-x="516" 
d="M329 363q-44 0 -73.5 -44t-29.5 -111q0 -68 61 -68q66 0 105 36l16 -169q-16 0 -62 -8t-86 -10q-10 -57 -3 -86l-107 1q19 33 29 87q-151 20 -151 179q0 137 70 231t183 111q10 59 4 89h108q-20 -35 -30 -87q37 -2 76.5 -9t54.5 -7l-82 -168q-20 33 -83 33z" />
    <glyph glyph-name="sterling" unicode="&#xa3;" horiz-adv-x="540" 
d="M266 154l102 1q79 2 121 35l-38 -197q-41 7 -113 7h-356q26 33 40 108l3 15q1 1 1 4l1 5q44 0 73 32t29 79q0 7 -2 21h-37q-41 0 -58 -10l18 92q11 -10 54 -10h8q-6 34 -6 56q0 114 76.5 181t198.5 67q36 0 85.5 -7t65.5 -6l-64 -171q-9 18 -36 30.5t-54 12.5
q-37 0 -59 -22.5t-22 -59.5q0 -13 3 -25.5t9 -30t8 -25.5h51q41 0 58 10l-18 -92q-14 10 -54 10h-30q-7 -62 -58 -110z" />
    <glyph glyph-name="currency" unicode="&#xa4;" horiz-adv-x="617" 
d="M524 406q17 -36 17 -80q0 -97 -66 -173q35 -42 63 -55l-93 -77q-9 34 -40 73q-64 -37 -134 -37q-71 0 -119 37q-50 -43 -70 -73l-62 77q35 15 85 55q-17 36 -17 79q0 97 67 174q-38 44 -64 56l92 77q11 -38 43 -74q61 36 131 36t119 -37q49 43 70 75l63 -77
q-36 -14 -85 -56zM299 200q36 0 60 29.5t24 74.5q0 54 -53 54q-37 0 -61 -29.5t-24 -74.5q0 -54 54 -54z" />
    <glyph glyph-name="yen" unicode="&#xa5;" horiz-adv-x="641" 
d="M459 642h241q-37 -33 -69 -80l-177 -261h28q40 0 57 10l-16 -82h-112l-8 -39h113l-16 -82q-14 10 -54 10h-55q-12 -91 19 -118h-276q43 31 64 118h-54q-41 0 -58 -10l16 82h112l8 39h-113l16 82q14 -10 55 -10h27l-76 261q-14 49 -38 80h252q-17 -21 -21 -43.5t3 -58.5
l24 -154l84 154q22 40 27.5 61.5t-3.5 40.5z" />
    <glyph glyph-name="brokenbar" unicode="&#xa6;" horiz-adv-x="555" 
d="M242 639h216q-27 -46 -51 -163l-12 -63q-17 -92 -16 -129h10q-3 -5 -9 -17l3 -17h-11q-15 -36 -33 -129l-13 -62q-23 -121 -12 -163h-217q28 45 51 163l12 62q17 85 17 129h-11l10 18q0 2 -1 8t-2 8h10q17 41 34 129l12 63q22 118 13 163z" />
    <glyph glyph-name="section" unicode="&#xa7;" horiz-adv-x="698" 
d="M211 -109q-100 0 -156 18l37 188q26 -47 92 -47q26 0 44 17t18 42q0 22 -19 56t-41.5 66t-41.5 79.5t-19 93.5q0 131 106 217.5t266 86.5q96 0 152 -18l-37 -188q-26 47 -91 47q-25 0 -42.5 -16.5t-17.5 -41.5q0 -23 21 -60t46 -72t46 -85t21 -96q0 -128 -106 -207.5
t-278 -79.5zM310 14q59 4 100 46.5t41 100.5q0 46 -32.5 101.5t-64.5 106.5t-32 87q0 31 24.5 68t52.5 52q-58 -4 -99 -47.5t-41 -101.5q0 -45 32.5 -100t64.5 -106t32 -87q0 -30 -24 -66.5t-54 -53.5z" />
    <glyph glyph-name="dieresis" unicode="&#xa8;" horiz-adv-x="527" 
d="M219 587q-27 0 -43.5 16t-16.5 41q0 36 27 63t63 27q27 0 43.5 -16.5t16.5 -41.5q0 -36 -26.5 -62.5t-63.5 -26.5zM441 587q-27 0 -43.5 16t-16.5 41q0 36 27 63t62 27q28 0 44.5 -16.5t16.5 -41.5q0 -36 -26.5 -62.5t-63.5 -26.5z" />
    <glyph glyph-name="copyright" unicode="&#xa9;" horiz-adv-x="865" 
d="M371 -54q-133 0 -223.5 88.5t-90.5 219.5q0 189 130 321t332 132q133 0 223.5 -88t90.5 -220q0 -122 -57.5 -225t-164 -165.5t-240.5 -62.5zM393 61q141 0 230.5 94.5t89.5 232.5q0 94 -60 149t-157 55q-141 0 -230 -94t-89 -232q0 -95 60 -150t156 -55zM425 134
q-75 0 -117 37t-42 106q0 105 65 174t163 69q24 0 59 -5t47 -2l-28 -135q-26 28 -80 28q-31 0 -54 -24t-29 -64q-6 -35 9 -52.5t44 -17.5q55 0 90 26l-25 -134q-11 3 -46.5 -1.5t-55.5 -4.5z" />
    <glyph glyph-name="ordfeminine" unicode="&#xaa;" horiz-adv-x="434" 
d="M129 274q-44 0 -68.5 23.5t-24.5 64.5q0 74 54.5 114.5t154.5 40.5h20l2 10q3 17 -6.5 25.5t-32.5 8.5q-60 0 -110 -40l-8 120q8 1 65.5 14.5t93.5 13.5q79 0 116.5 -38.5t22.5 -112.5l-25 -129q-18 -82 9 -106h-156l9 30h-6q-44 -39 -110 -39zM198 374q26 0 45 29l6 33
h-18q-57 0 -57 -42q0 -20 24 -20z" />
    <glyph glyph-name="guillemotleft" unicode="&#xab;" horiz-adv-x="563" 
d="M181 30q-21 42 -66.5 92t-81.5 65l26 130q40 15 106.5 65.5t102.5 91.5l59 -59q-83 -101 -149 -163q56 -92 85 -165zM404 30q-21 42 -66.5 92t-81.5 65l26 130q41 15 107 65.5t102 91.5l59 -59q-83 -101 -149 -163q59 -97 86 -165z" />
    <glyph glyph-name="logicalnot" unicode="&#xac;" horiz-adv-x="475" 
d="M425 409q-12 -15 -21 -56l-27 -143q-9 -38 -1 -56h-128q13 17 21 56l17 90h-180q-41 0 -58 -10l25 129q13 -10 54 -10h298z" />
    <glyph glyph-name="uni00AD" unicode="&#xad;" horiz-adv-x="354" 
d="M39 187l25 131h252l-26 -131h-251z" />
    <glyph glyph-name="registered" unicode="&#xae;" horiz-adv-x="583" 
d="M387 751q90 0 146.5 -56t56.5 -144q0 -120 -82.5 -203.5t-210.5 -83.5q-91 0 -147 56.5t-56 144.5q0 119 82.5 202.5t210.5 83.5zM311 339q89 0 144.5 58t55.5 145q0 63 -38 99t-101 36q-88 0 -143.5 -58t-55.5 -145q0 -63 38 -99t100 -36zM379 614q75 0 75 -56t-56 -78
l9 -26q11 -34 28 -49h-91q4 19 -1 34l-6 31h-16l-3 -16q-6 -30 -5 -49h-94q15 18 22 49l21 110q6 33 -2 50h119zM340 568l-11 -53h16q33 0 33 35q0 18 -22 18h-16z" />
    <glyph glyph-name="macron" unicode="&#xaf;" horiz-adv-x="522" 
d="M149 599l17 87h266l-17 -87h-266z" />
    <glyph glyph-name="degree" unicode="&#xb0;" horiz-adv-x="455" 
d="M197 380q-60 0 -98 37.5t-38 94.5q0 75 61 134.5t138 59.5q59 0 96.5 -37.5t37.5 -94.5q0 -75 -60.5 -134.5t-136.5 -59.5zM217 482q28 0 47 22.5t19 55.5q0 20 -11.5 32t-31.5 12q-29 0 -48.5 -22.5t-19.5 -56.5q0 -43 45 -43z" />
    <glyph glyph-name="plusminus" unicode="&#xb1;" horiz-adv-x="522" 
d="M415 409q41 0 58 10l-25 -127q-13 10 -54 10h-63l-9 -45q-8 -40 -1 -56h-128q14 20 21 56l9 45h-65q-39 0 -58 -10l25 127q14 -10 54 -10h64l9 44q8 41 1 56h128q-14 -20 -21 -56l-9 -44h64zM128 143h236q41 0 58 10l-25 -127q-14 10 -54 10h-236q-41 0 -58 -10l25 127
q13 -10 54 -10z" />
    <glyph glyph-name="uni00B2" unicode="&#xb2;" horiz-adv-x="390" 
d="M74 395l18 92q73 35 132.5 84t59.5 87q0 31 -33 31q-46 0 -85 -56l-33 126q13 1 63.5 20.5t99.5 19.5q53 0 88.5 -28.5t35.5 -77.5q0 -102 -140 -187h32q64 0 90 19l-25 -130h-303z" />
    <glyph glyph-name="uni00B3" unicode="&#xb3;" horiz-adv-x="381" 
d="M209 383q-41 0 -86 14t-54 15l58 114q24 -42 78 -42q22 0 36.5 11.5t14.5 29.5q0 33 -78 33l15 75q78 0 78 42q0 23 -30 23q-52 0 -75 -34l-22 111q15 -2 60 11t91 13q51 0 82 -24t31 -65q0 -80 -86 -109q65 -24 65 -84q0 -63 -51 -98.5t-127 -35.5z" />
    <glyph glyph-name="acute" unicode="&#xb4;" horiz-adv-x="415" 
d="M191 567l-33 75q101 47 207 155l56 -103q-78 -83 -230 -127z" />
    <glyph glyph-name="uni00B5" unicode="&#xb5;" horiz-adv-x="691" 
d="M602 144q-12 -54 -11 -89t21 -55h-217q1 19 8 53h-9q-43 -50 -114 -62l-1 -3q-24 -130 -2 -166h-263q28 20 44.5 57.5t30.5 108.5l43 221l30 151q12 48 11.5 85t-21.5 58h228l-60 -308q-10 -46 29 -46q44 0 72 47l33 164q12 45 11.5 84t-22.5 59h228z" />
    <glyph glyph-name="paragraph" unicode="&#xb6;" horiz-adv-x="616" 
d="M74 -131l36 183q32 -27 70 -15t47 56l37 196q-31 -9 -68 -9q-70 0 -112.5 41.5t-42.5 114.5q0 112 78 185.5t197 73.5h258l-32 -164q-14 21 -54 21l-86 -438q-23 -119 -100.5 -182t-227.5 -63zM236 403q34 0 52 10l27 139h-50z" />
    <glyph glyph-name="periodcentered" unicode="&#xb7;" horiz-adv-x="305" 
d="M133 167q-37 0 -59.5 22t-22.5 54q0 50 33.5 85.5t86.5 35.5q38 0 60.5 -22t22.5 -54q0 -50 -33.5 -85.5t-87.5 -35.5z" />
    <glyph glyph-name="cedilla" unicode="&#xb8;" horiz-adv-x="374" 
d="M-3 -241l3 72q109 -15 109 39q0 29 -61 35l62 103h47l-19 -66q82 -8 82 -63q0 -57 -59 -88.5t-164 -31.5z" />
    <glyph glyph-name="uni00B9" unicode="&#xb9;" horiz-adv-x="389" 
d="M83 395l14 75l90 27l31 164h-99l17 81q58 0 129 14t114 31l-57 -290l80 -27l-15 -75h-304z" />
    <glyph glyph-name="ordmasculine" unicode="&#xba;" horiz-adv-x="453" 
d="M188 274q-73 0 -115 34t-42 105q0 115 64.5 185.5t169.5 70.5q73 0 115.5 -34t42.5 -105q0 -115 -65 -185.5t-170 -70.5zM210 389q28 0 47.5 37t19.5 91q0 37 -35 37q-27 0 -46 -38t-19 -91q0 -36 33 -36z" />
    <glyph glyph-name="guillemotright" unicode="&#xbb;" horiz-adv-x="567" 
d="M74 30l-61 57q65 81 150 165q-58 90 -86 163l83 59q21 -42 66.5 -92t80.5 -65l-25 -130q-42 -15 -106 -64.5t-102 -92.5zM300 30l-61 57q73 89 150 165q-57 92 -86 163l83 59q21 -42 66.5 -92t81.5 -65l-25 -130q-42 -15 -106 -64t-103 -93z" />
    <glyph glyph-name="onequarter" unicode="&#xbc;" horiz-adv-x="974" 
d="M236 -12l493 680h136l-492 -680h-137zM58 266l14 75l90 27l31 164h-99l17 81q58 0 129 14t114 31l-57 -290l80 -27l-15 -75h-304zM707 0q23 18 31 66l3 11h-177l13 66l203 247h139l-43 -228q44 0 59 14l-19 -99h-58l-1 -10q-7 -53 6 -67h-156zM691 162h66l22 113z" />
    <glyph glyph-name="onehalf" unicode="&#xbd;" horiz-adv-x="1015" 
d="M230 -12l492 680h137l-492 -680h-137zM58 266l14 75l90 27l31 164h-99l17 81q58 0 129 14t114 31l-57 -290l80 -27l-15 -75h-304zM622 0l18 92q73 35 132.5 84t59.5 87q0 31 -33 31q-46 0 -85 -56l-33 126q13 1 63.5 20.5t99.5 19.5q53 0 88.5 -28.5t35.5 -77.5
q0 -102 -140 -187h32q64 0 90 19l-25 -130h-303z" />
    <glyph glyph-name="threequarters" unicode="&#xbe;" horiz-adv-x="929" 
d="M184 254q-41 0 -86 14t-54 15l58 114q24 -42 78 -42q22 0 36.5 11.5t14.5 29.5q0 33 -78 33l15 75q78 0 78 42q0 23 -30 23q-52 0 -75 -34l-22 111q15 -2 60 11t91 13q51 0 82 -24t31 -65q0 -80 -86 -109q65 -24 65 -84q0 -63 -51 -98.5t-127 -35.5zM190 -12l492 680h136
l-492 -680h-136zM662 0q22 17 32 66l2 11h-176l13 66l203 247h138l-43 -228q44 0 59 14l-18 -99h-58l-2 -10q-6 -54 6 -67h-156zM646 162h67l21 113z" />
    <glyph glyph-name="questiondown" unicode="&#xbf;" horiz-adv-x="477" 
d="M314 513q41 0 64 -21.5t23 -57.5q0 -55 -37 -92.5t-91 -37.5q-41 0 -64.5 21.5t-23.5 57.5q0 55 37.5 92.5t91.5 37.5zM347 252q-9 -46 -30.5 -82t-46 -56.5t-48 -37.5t-38.5 -35.5t-15 -40.5q0 -15 12.5 -24.5t29.5 -9.5q57 0 106 56l59 -149q-15 -2 -89 -28.5
t-133 -26.5q-74 0 -119.5 34.5t-45.5 99.5q0 56 18 94.5t44.5 60t54 39t51 44t30.5 62.5h160z" />
    <glyph glyph-name="Agrave" unicode="&#xc0;" horiz-adv-x="692" 
d="M468 697q-54 12 -107.5 45t-76.5 76l90 95q24 -50 63 -90t83 -64zM-39 0q22 18 43.5 51t56.5 110l166 355q42 90 38 133h314q-19 -42 -12 -133l28 -355q6 -78 13 -111.5t24 -49.5h-259q36 33 39 104l-1 23h-177l-11 -23q-17 -38 -18 -61.5t15 -42.5h-259zM296 274h108
l-6 235h-9z" />
    <glyph glyph-name="Aacute" unicode="&#xc1;" horiz-adv-x="692" 
d="M389 691l-33 75q101 47 207 155l56 -103q-78 -83 -230 -127zM-39 0q22 18 43.5 51t56.5 110l166 355q42 90 38 133h314q-19 -42 -12 -133l28 -355q6 -78 13 -111.5t24 -49.5h-259q36 33 39 104l-1 23h-177l-11 -23q-17 -38 -18 -61.5t15 -42.5h-259zM296 274h108l-6 235
h-9z" />
    <glyph glyph-name="Acircumflex" unicode="&#xc2;" horiz-adv-x="692" 
d="M297 684l-48 55q81 58 133 130h148q27 -67 86 -130l-62 -55q-69 39 -107 98h-4q-57 -59 -146 -98zM-39 0q22 18 43.5 51t56.5 110l166 355q42 90 38 133h314q-19 -42 -12 -133l28 -355q6 -78 13 -111.5t24 -49.5h-259q36 33 39 104l-1 23h-177l-11 -23q-17 -38 -18 -61.5
t15 -42.5h-259zM296 274h108l-6 235h-9z" />
    <glyph glyph-name="Atilde" unicode="&#xc3;" horiz-adv-x="692" 
d="M507 703q-26 0 -49 10t-35.5 21.5t-25.5 21.5t-23 10q-15 0 -21.5 -14t0.5 -39l-101 7q11 74 46 110.5t84 36.5q34 0 60.5 -16t43.5 -32t28 -16q15 0 22.5 14.5t1.5 39.5l98 -8q-10 -74 -45 -110t-84 -36zM-39 0q22 18 43.5 51t56.5 110l166 355q42 90 38 133h314
q-19 -42 -12 -133l28 -355q6 -78 13 -111.5t24 -49.5h-259q36 33 39 104l-1 23h-177l-11 -23q-17 -38 -18 -61.5t15 -42.5h-259zM296 274h108l-6 235h-9z" />
    <glyph glyph-name="Adieresis" unicode="&#xc4;" horiz-adv-x="692" 
d="M320 711q-27 0 -43.5 16t-16.5 41q0 36 27 63t63 27q27 0 43.5 -16.5t16.5 -41.5q0 -36 -26.5 -62.5t-63.5 -26.5zM542 711q-27 0 -43.5 16t-16.5 41q0 36 27 63t62 27q28 0 44.5 -16.5t16.5 -41.5q0 -36 -26.5 -62.5t-63.5 -26.5zM-39 0q22 18 43.5 51t56.5 110l166 355
q42 90 38 133h314q-19 -42 -12 -133l28 -355q6 -78 13 -111.5t24 -49.5h-259q36 33 39 104l-1 23h-177l-11 -23q-17 -38 -18 -61.5t15 -42.5h-259zM296 274h108l-6 235h-9z" />
    <glyph glyph-name="Aring" unicode="&#xc5;" horiz-adv-x="692" 
d="M425 675q-50 0 -77 22.5t-27 58.5q0 52 40.5 87t102.5 35q50 0 77 -22t27 -59q0 -52 -41 -87t-102 -35zM436 732q22 0 36.5 16t14.5 42q0 31 -34 31q-22 0 -36.5 -16t-14.5 -41q0 -32 34 -32zM-39 0q22 18 43.5 51t56.5 110l166 355q42 90 38 133h314q-19 -42 -12 -133
l28 -355q6 -78 13 -111.5t24 -49.5h-259q36 33 39 104l-1 23h-177l-11 -23q-17 -38 -18 -61.5t15 -42.5h-259zM296 274h108l-6 235h-9z" />
    <glyph glyph-name="AE" unicode="&#xc6;" horiz-adv-x="898" 
d="M800 -7q-43 7 -158 7h-310q44 37 57 101l4 19h-156l-12 -17q-38 -55 -13 -103h-256q35 43 95 135l226 350q51 81 62.5 112t1.5 52h426q107 0 147 7l-37 -187q-35 21 -141 21h-82l-15 -81h57q96 0 138 16l-36 -190q-40 16 -132 16h-57l-19 -92h82q118 0 165 20zM327 266
h95l46 243h-4z" />
    <glyph glyph-name="Ccedilla" unicode="&#xc7;" horiz-adv-x="578" 
d="M509 24q-17 0 -80.5 -16t-110.5 -19l-13 -47q82 -8 82 -63q0 -57 -59 -88.5t-164 -31.5l3 72q109 -15 109 39q0 29 -61 35l51 84q-101 7 -160 70.5t-59 182.5q0 186 97.5 302.5t264.5 116.5q47 0 108.5 -19.5t78.5 -20.5l-93 -183q-42 59 -113 59q-64 0 -105 -68
t-41 -161q0 -117 90 -117q74 0 129 55z" />
    <glyph glyph-name="Egrave" unicode="&#xc8;" horiz-adv-x="576" 
d="M403 696q-54 12 -107.5 45t-76.5 76l90 95q24 -50 63 -90t83 -64zM478 -7q-42 7 -150 7h-331q51 36 76 166l60 316q26 135 -11 167h333q93 0 138 7l-37 -187q-38 21 -132 21h-99l-15 -81h68q93 0 134 15l-37 -189q-38 16 -127 16h-70l-17 -92h98q109 0 156 20z" />
    <glyph glyph-name="Eacute" unicode="&#xc9;" horiz-adv-x="576" 
d="M324 690l-33 75q101 47 207 155l56 -103q-78 -83 -230 -127zM478 -7q-42 7 -150 7h-331q51 36 76 166l60 316q26 135 -11 167h333q93 0 138 7l-37 -187q-38 21 -132 21h-99l-15 -81h68q93 0 134 15l-37 -189q-38 16 -127 16h-70l-17 -92h98q109 0 156 20z" />
    <glyph glyph-name="Ecircumflex" unicode="&#xca;" horiz-adv-x="576" 
d="M232 683l-48 55q81 58 133 130h148q27 -67 86 -130l-62 -55q-69 39 -107 98h-4q-57 -59 -146 -98zM478 -7q-42 7 -150 7h-331q51 36 76 166l60 316q26 135 -11 167h333q93 0 138 7l-37 -187q-38 21 -132 21h-99l-15 -81h68q93 0 134 15l-37 -189q-38 16 -127 16h-70
l-17 -92h98q109 0 156 20z" />
    <glyph glyph-name="Edieresis" unicode="&#xcb;" horiz-adv-x="576" 
d="M255 710q-27 0 -43.5 16t-16.5 41q0 36 27 63t63 27q27 0 43.5 -16.5t16.5 -41.5q0 -36 -26.5 -62.5t-63.5 -26.5zM477 710q-27 0 -43.5 16t-16.5 41q0 36 27 63t62 27q28 0 44.5 -16.5t16.5 -41.5q0 -36 -26.5 -62.5t-63.5 -26.5zM478 -7q-42 7 -150 7h-331
q51 36 76 166l60 316q26 135 -11 167h333q93 0 138 7l-37 -187q-38 21 -132 21h-99l-15 -81h68q93 0 134 15l-37 -189q-38 16 -127 16h-70l-17 -92h98q109 0 156 20z" />
    <glyph glyph-name="Igrave" unicode="&#xcc;" horiz-adv-x="366" 
d="M310 697q-54 12 -107.5 45t-76.5 76l90 95q24 -50 63 -90t83 -64zM-3 0q30 22 46.5 59.5t29.5 106.5l60 316q25 134 -11 167h277q-28 -22 -46 -59.5t-30 -107.5l-61 -316q-13 -58 -12 -101.5t23 -64.5h-276z" />
    <glyph glyph-name="Iacute" unicode="&#xcd;" horiz-adv-x="366" 
d="M230 691l-33 75q101 47 207 155l56 -103q-78 -83 -230 -127zM-3 0q30 22 46.5 59.5t29.5 106.5l60 316q25 134 -11 167h277q-28 -22 -46 -59.5t-30 -107.5l-61 -316q-13 -58 -12 -101.5t23 -64.5h-276z" />
    <glyph glyph-name="Icircumflex" unicode="&#xce;" horiz-adv-x="366" 
d="M139 684l-48 55q81 58 133 130h148q27 -67 86 -130l-62 -55q-69 39 -107 98h-4q-57 -59 -146 -98zM-3 0q30 22 46.5 59.5t29.5 106.5l60 316q25 134 -11 167h277q-28 -22 -46 -59.5t-30 -107.5l-61 -316q-13 -58 -12 -101.5t23 -64.5h-276z" />
    <glyph glyph-name="Idieresis" unicode="&#xcf;" horiz-adv-x="366" 
d="M161 711q-27 0 -43.5 16t-16.5 41q0 36 27 63t63 27q27 0 43.5 -16.5t16.5 -41.5q0 -36 -26.5 -62.5t-63.5 -26.5zM383 711q-27 0 -43.5 16t-16.5 41q0 36 27 63t62 27q28 0 44.5 -16.5t16.5 -41.5q0 -36 -26.5 -62.5t-63.5 -26.5zM-3 0q30 22 46.5 59.5t29.5 106.5
l60 316q25 134 -11 167h277q-28 -22 -46 -59.5t-30 -107.5l-61 -316q-13 -58 -12 -101.5t23 -64.5h-276z" />
    <glyph glyph-name="Eth" unicode="&#xd0;" horiz-adv-x="663" 
d="M379 649q127 0 195.5 -67t68.5 -177q0 -195 -99 -300t-271 -105h-277q49 34 76 166l21 108h-51l22 109h49l19 99q13 67 11 107.5t-22 59.5h258zM285 151q71 0 116 62.5t45 163.5q0 120 -98 120h-22l-22 -114h78l-22 -109h-77l-24 -123h26z" />
    <glyph glyph-name="Ntilde" unicode="&#xd1;" horiz-adv-x="726" 
d="M537 703q-26 0 -49 10t-35.5 21.5t-25.5 21.5t-23 10q-15 0 -21.5 -14t0.5 -39l-101 7q11 74 46 110.5t84 36.5q34 0 60.5 -16t43.5 -32t28 -16q15 0 22.5 14.5t1.5 39.5l98 -8q-10 -74 -45 -110t-84 -36zM-3 0q51 36 76 166l60 316q23 128 -11 167h246l110 -358h9
q-6 85 6 154l15 76q13 80 -12 128h261q-50 -38 -75 -167l-61 -316q-13 -53 -12 -99t24 -67h-237l-116 379h-9q4 -103 -9 -163l-12 -62q-25 -112 8 -154h-261z" />
    <glyph glyph-name="Ograve" unicode="&#xd2;" horiz-adv-x="681" 
d="M454 697q-54 12 -107.5 45t-76.5 76l90 95q24 -50 63 -90t83 -64zM300 -12q-120 0 -186 68t-66 191q0 186 94 300t265 114q121 0 187.5 -66t66.5 -189q0 -185 -96 -301.5t-265 -116.5zM319 151q68 0 107.5 65t39.5 171q0 53 -22 82t-54 29q-70 0 -108 -62t-38 -170
q0 -54 21 -84.5t54 -30.5z" />
    <glyph glyph-name="Oacute" unicode="&#xd3;" horiz-adv-x="681" 
d="M374 691l-33 75q101 47 207 155l56 -103q-78 -83 -230 -127zM300 -12q-120 0 -186 68t-66 191q0 186 94 300t265 114q121 0 187.5 -66t66.5 -189q0 -185 -96 -301.5t-265 -116.5zM319 151q68 0 107.5 65t39.5 171q0 53 -22 82t-54 29q-70 0 -108 -62t-38 -170
q0 -54 21 -84.5t54 -30.5z" />
    <glyph glyph-name="Ocircumflex" unicode="&#xd4;" horiz-adv-x="681" 
d="M283 684l-48 55q81 58 133 130h148q27 -67 86 -130l-62 -55q-69 39 -107 98h-4q-57 -59 -146 -98zM300 -12q-120 0 -186 68t-66 191q0 186 94 300t265 114q121 0 187.5 -66t66.5 -189q0 -185 -96 -301.5t-265 -116.5zM319 151q68 0 107.5 65t39.5 171q0 53 -22 82t-54 29
q-70 0 -108 -62t-38 -170q0 -54 21 -84.5t54 -30.5z" />
    <glyph glyph-name="Otilde" unicode="&#xd5;" horiz-adv-x="681" 
d="M493 703q-26 0 -49 10t-35.5 21.5t-25.5 21.5t-23 10q-15 0 -21.5 -14t0.5 -39l-101 7q11 74 46 110.5t84 36.5q34 0 60.5 -16t43.5 -32t28 -16q15 0 22.5 14.5t1.5 39.5l98 -8q-10 -74 -45 -110t-84 -36zM300 -12q-120 0 -186 68t-66 191q0 186 94 300t265 114
q121 0 187.5 -66t66.5 -189q0 -185 -96 -301.5t-265 -116.5zM319 151q68 0 107.5 65t39.5 171q0 53 -22 82t-54 29q-70 0 -108 -62t-38 -170q0 -54 21 -84.5t54 -30.5z" />
    <glyph glyph-name="Odieresis" unicode="&#xd6;" horiz-adv-x="681" 
d="M305 711q-27 0 -43.5 16t-16.5 41q0 36 27 63t63 27q27 0 43.5 -16.5t16.5 -41.5q0 -36 -26.5 -62.5t-63.5 -26.5zM527 711q-27 0 -43.5 16t-16.5 41q0 36 27 63t62 27q28 0 44.5 -16.5t16.5 -41.5q0 -36 -26.5 -62.5t-63.5 -26.5zM300 -12q-120 0 -186 68t-66 191
q0 186 94 300t265 114q121 0 187.5 -66t66.5 -189q0 -185 -96 -301.5t-265 -116.5zM319 151q68 0 107.5 65t39.5 171q0 53 -22 82t-54 29q-70 0 -108 -62t-38 -170q0 -54 21 -84.5t54 -30.5z" />
    <glyph glyph-name="multiply" unicode="&#xd7;" horiz-adv-x="486" 
d="M368 236q22 -29 40 -32l-107 -90q0 17 -23 46l-50 61l-74 -62q-36 -31 -41 -46l-73 90q19 5 52 32l75 63l-50 61q-25 29 -39 32l107 90q0 -17 23 -46l49 -61l75 62q35 29 41 46l73 -90q-19 -4 -53 -32l-74 -63z" />
    <glyph glyph-name="Oslash" unicode="&#xd8;" horiz-adv-x="692" 
d="M668 627l-51 -58q44 -62 44 -163q0 -185 -96 -301.5t-265 -116.5q-96 0 -158 45l-40 -46l-50 35l47 53q-50 65 -50 173q0 185 94 299t265 114q101 0 166 -48l44 49zM244 266q0 -17 1 -25l201 226q-21 31 -56 31q-70 0 -108 -62t-38 -170zM466 387v11l-197 -222
q21 -24 50 -24q68 0 107.5 64.5t39.5 170.5z" />
    <glyph glyph-name="Ugrave" unicode="&#xd9;" horiz-adv-x="706" 
d="M483 697q-54 12 -107.5 45t-76.5 76l90 95q24 -50 63 -90t83 -64zM308 -12q-134 0 -192 75t-33 203l42 216q12 46 11.5 95.5t-23.5 71.5h277q-28 -22 -45 -59t-30 -108l-38 -193q-7 -42 -9 -72.5t14.5 -48t54.5 -17.5q51 0 76.5 32.5t39.5 104.5l37 194q27 131 -11 167
h269q-51 -38 -75 -167l-42 -216q-26 -133 -101.5 -205.5t-221.5 -72.5z" />
    <glyph glyph-name="Uacute" unicode="&#xda;" horiz-adv-x="706" 
d="M404 691l-33 75q101 47 207 155l56 -103q-78 -83 -230 -127zM308 -12q-134 0 -192 75t-33 203l42 216q12 46 11.5 95.5t-23.5 71.5h277q-28 -22 -45 -59t-30 -108l-38 -193q-7 -42 -9 -72.5t14.5 -48t54.5 -17.5q51 0 76.5 32.5t39.5 104.5l37 194q27 131 -11 167h269
q-51 -38 -75 -167l-42 -216q-26 -133 -101.5 -205.5t-221.5 -72.5z" />
    <glyph glyph-name="Ucircumflex" unicode="&#xdb;" horiz-adv-x="706" 
d="M312 684l-48 55q81 58 133 130h148q27 -67 86 -130l-62 -55q-69 39 -107 98h-4q-57 -59 -146 -98zM308 -12q-134 0 -192 75t-33 203l42 216q12 46 11.5 95.5t-23.5 71.5h277q-28 -22 -45 -59t-30 -108l-38 -193q-7 -42 -9 -72.5t14.5 -48t54.5 -17.5q51 0 76.5 32.5
t39.5 104.5l37 194q27 131 -11 167h269q-51 -38 -75 -167l-42 -216q-26 -133 -101.5 -205.5t-221.5 -72.5z" />
    <glyph glyph-name="Udieresis" unicode="&#xdc;" horiz-adv-x="706" 
d="M335 711q-27 0 -43.5 16t-16.5 41q0 36 27 63t63 27q27 0 43.5 -16.5t16.5 -41.5q0 -36 -26.5 -62.5t-63.5 -26.5zM557 711q-27 0 -43.5 16t-16.5 41q0 36 27 63t62 27q28 0 44.5 -16.5t16.5 -41.5q0 -36 -26.5 -62.5t-63.5 -26.5zM308 -12q-134 0 -192 75t-33 203
l42 216q12 46 11.5 95.5t-23.5 71.5h277q-28 -22 -45 -59t-30 -108l-38 -193q-7 -42 -9 -72.5t14.5 -48t54.5 -17.5q51 0 76.5 32.5t39.5 104.5l37 194q27 131 -11 167h269q-51 -38 -75 -167l-42 -216q-26 -133 -101.5 -205.5t-221.5 -72.5z" />
    <glyph glyph-name="Yacute" unicode="&#xdd;" horiz-adv-x="640" 
d="M598 818q-78 -83 -230 -127l-33 75q101 47 207 155zM460 649h242q-34 -28 -69 -80l-226 -356l-10 -47q-12 -53 -12 -99t21 -67h-276q46 39 76 164l11 48l-86 356q-9 34 -15 48t-23 33h254q-17 -20 -21 -40t2 -61l21 -167l90 167q20 38 24.5 57.5t-3.5 43.5z" />
    <glyph glyph-name="Thorn" unicode="&#xde;" horiz-adv-x="641" 
d="M-4 0q43 34 65 152l67 347q24 118 -6 152h262q-40 -30 -57 -103h69q97 0 158 -49t61 -135q0 -117 -81.5 -184.5t-217.5 -67.5h-73q-13 -78 19 -112h-266zM271 258h52q48 0 75 22t27 62q0 57 -77 57h-49z" />
    <glyph glyph-name="germandbls" unicode="&#xdf;" horiz-adv-x="666" 
d="M384 -12q-34 0 -70 10t-55 12l63 154q33 -40 74 -40q22 0 35 13t13 37q0 26 -18.5 47t-41 34t-41 35.5t-18.5 50.5q0 29 16 54t34.5 41t34.5 38t16 44q0 17 -15 28.5t-40 11.5q-69 0 -88 -95l-63 -320q-12 -52 -11 -87.5t21 -55.5h-224l87 452q50 252 296 252
q97 0 151 -44.5t54 -114.5q0 -41 -16 -71.5t-34.5 -44.5t-34.5 -29.5t-16 -30.5q0 -9 13 -18.5t31.5 -21t37 -27t31.5 -43t13 -62.5q0 -102 -65 -155.5t-170 -53.5z" />
    <glyph glyph-name="agrave" unicode="&#xe0;" horiz-adv-x="601" 
d="M398 575q-54 12 -107.5 45t-76.5 76l90 95q24 -50 63 -90t83 -64zM185 -12q-69 0 -113.5 50.5t-44.5 141.5q0 142 78.5 236t179.5 94q65 0 122 -33l12 21h173l-72 -346q-24 -116 2 -152h-201q-6 16 -6 31h-6q-63 -43 -124 -43zM259 134q34 0 82 57l30 149q-24 29 -60 29
q-38 0 -65.5 -49.5t-27.5 -123.5q0 -62 41 -62z" />
    <glyph glyph-name="aacute" unicode="&#xe1;" horiz-adv-x="601" 
d="M319 569l-33 75q101 47 207 155l56 -103q-78 -83 -230 -127zM185 -12q-69 0 -113.5 50.5t-44.5 141.5q0 142 78.5 236t179.5 94q65 0 122 -33l12 21h173l-72 -346q-24 -116 2 -152h-201q-6 16 -6 31h-6q-63 -43 -124 -43zM259 134q34 0 82 57l30 149q-24 29 -60 29
q-38 0 -65.5 -49.5t-27.5 -123.5q0 -62 41 -62z" />
    <glyph glyph-name="acircumflex" unicode="&#xe2;" horiz-adv-x="601" 
d="M227 562l-48 55q81 58 133 130h148q27 -67 86 -130l-62 -55q-69 39 -107 98h-4q-57 -59 -146 -98zM185 -12q-69 0 -113.5 50.5t-44.5 141.5q0 142 78.5 236t179.5 94q65 0 122 -33l12 21h173l-72 -346q-24 -116 2 -152h-201q-6 16 -6 31h-6q-63 -43 -124 -43zM259 134
q34 0 82 57l30 149q-24 29 -60 29q-38 0 -65.5 -49.5t-27.5 -123.5q0 -62 41 -62z" />
    <glyph glyph-name="atilde" unicode="&#xe3;" horiz-adv-x="601" 
d="M437 581q-26 0 -49 10t-35.5 21.5t-25.5 21.5t-23 10q-15 0 -21.5 -14t0.5 -39l-101 7q11 74 46 110.5t84 36.5q34 0 60.5 -16t43.5 -32t28 -16q15 0 22.5 14.5t1.5 39.5l98 -8q-10 -74 -45 -110t-84 -36zM185 -12q-69 0 -113.5 50.5t-44.5 141.5q0 142 78.5 236
t179.5 94q65 0 122 -33l12 21h173l-72 -346q-24 -116 2 -152h-201q-6 16 -6 31h-6q-63 -43 -124 -43zM259 134q34 0 82 57l30 149q-24 29 -60 29q-38 0 -65.5 -49.5t-27.5 -123.5q0 -62 41 -62z" />
    <glyph glyph-name="adieresis" unicode="&#xe4;" horiz-adv-x="601" 
d="M250 589q-27 0 -43.5 16t-16.5 41q0 36 27 63t63 27q27 0 43.5 -16.5t16.5 -41.5q0 -36 -26.5 -62.5t-63.5 -26.5zM472 589q-27 0 -43.5 16t-16.5 41q0 36 27 63t62 27q28 0 44.5 -16.5t16.5 -41.5q0 -36 -26.5 -62.5t-63.5 -26.5zM185 -12q-69 0 -113.5 50.5
t-44.5 141.5q0 142 78.5 236t179.5 94q65 0 122 -33l12 21h173l-72 -346q-24 -116 2 -152h-201q-6 16 -6 31h-6q-63 -43 -124 -43zM259 134q34 0 82 57l30 149q-24 29 -60 29q-38 0 -65.5 -49.5t-27.5 -123.5q0 -62 41 -62z" />
    <glyph glyph-name="aring" unicode="&#xe5;" horiz-adv-x="601" 
d="M355 553q-50 0 -77 22.5t-27 58.5q0 52 40.5 87t102.5 35q50 0 77 -22t27 -59q0 -52 -41 -87t-102 -35zM366 610q22 0 36.5 16t14.5 42q0 31 -34 31q-22 0 -36.5 -16t-14.5 -41q0 -32 34 -32zM185 -12q-69 0 -113.5 50.5t-44.5 141.5q0 142 78.5 236t179.5 94
q65 0 122 -33l12 21h173l-72 -346q-24 -116 2 -152h-201q-6 16 -6 31h-6q-63 -43 -124 -43zM259 134q34 0 82 57l30 149q-24 29 -60 29q-38 0 -65.5 -49.5t-27.5 -123.5q0 -62 41 -62z" />
    <glyph glyph-name="ae" unicode="&#xe6;" horiz-adv-x="822" 
d="M802 336q0 -75 -47 -112t-131 -37l-126 -1q3 -25 25 -41t52 -16q70 0 108 34l51 -149q-14 0 -76.5 -13t-110.5 -13q-131 0 -195 77q-24 -32 -71 -54.5t-109 -22.5q-78 0 -119.5 36t-41.5 96q0 91 73.5 144.5t207.5 53.5h30l2 8q5 20 -9.5 34.5t-43.5 14.5q-90 0 -151 -49
l-12 158q26 1 95 16t112 15q90 0 135 -41q67 40 150 40q93 0 147.5 -52.5t54.5 -125.5zM575 306q25 0 36 7t11 24q0 19 -10 30.5t-28 11.5q-54 0 -76 -73h67zM291 181l5 29h-23q-80 0 -80 -51q0 -31 32 -31q22 0 40 14.5t26 38.5z" />
    <glyph glyph-name="ccedilla" unicode="&#xe7;" horiz-adv-x="470" 
d="M325 364q-42 0 -71.5 -47.5t-29.5 -106.5q0 -72 63 -72q52 0 83 35l31 -164q-16 0 -62 -9.5t-80 -11.5l-13 -45q82 -8 82 -63q0 -57 -59 -88.5t-164 -31.5l3 72q109 -15 109 39q0 29 -61 35l50 84q-82 8 -129 60t-47 144q0 147 83.5 233.5t209.5 86.5q39 0 81.5 -11
t56.5 -12l-56 -162q-26 35 -80 35z" />
    <glyph glyph-name="egrave" unicode="&#xe8;" horiz-adv-x="544" 
d="M374 575q-54 12 -107.5 45t-76.5 76l90 95q24 -50 63 -90t83 -64zM272 -12q-111 0 -176 59t-65 155q0 139 80.5 225.5t208.5 86.5q90 0 148 -49t58 -119q0 -160 -221 -157l-88 1q2 -31 24 -50.5t60 -19.5q76 0 112 29l46 -135q-14 0 -76.5 -13t-110.5 -13zM223 294h60
q67 0 67 40q0 21 -12.5 33t-34.5 12q-32 0 -52.5 -22.5t-27.5 -62.5z" />
    <glyph glyph-name="eacute" unicode="&#xe9;" horiz-adv-x="544" 
d="M295 569l-33 75q101 47 207 155l56 -103q-78 -83 -230 -127zM272 -12q-111 0 -176 59t-65 155q0 139 80.5 225.5t208.5 86.5q90 0 148 -49t58 -119q0 -160 -221 -157l-88 1q2 -31 24 -50.5t60 -19.5q76 0 112 29l46 -135q-14 0 -76.5 -13t-110.5 -13zM223 294h60
q67 0 67 40q0 21 -12.5 33t-34.5 12q-32 0 -52.5 -22.5t-27.5 -62.5z" />
    <glyph glyph-name="ecircumflex" unicode="&#xea;" horiz-adv-x="544" 
d="M203 562l-48 55q81 58 133 130h148q27 -67 86 -130l-62 -55q-69 39 -107 98h-4q-57 -59 -146 -98zM272 -12q-111 0 -176 59t-65 155q0 139 80.5 225.5t208.5 86.5q90 0 148 -49t58 -119q0 -160 -221 -157l-88 1q2 -31 24 -50.5t60 -19.5q76 0 112 29l46 -135
q-14 0 -76.5 -13t-110.5 -13zM223 294h60q67 0 67 40q0 21 -12.5 33t-34.5 12q-32 0 -52.5 -22.5t-27.5 -62.5z" />
    <glyph glyph-name="edieresis" unicode="&#xeb;" horiz-adv-x="544" 
d="M226 589q-27 0 -43.5 16t-16.5 41q0 36 27 63t63 27q27 0 43.5 -16.5t16.5 -41.5q0 -36 -26.5 -62.5t-63.5 -26.5zM448 589q-27 0 -43.5 16t-16.5 41q0 36 27 63t62 27q28 0 44.5 -16.5t16.5 -41.5q0 -36 -26.5 -62.5t-63.5 -26.5zM272 -12q-111 0 -176 59t-65 155
q0 139 80.5 225.5t208.5 86.5q90 0 148 -49t58 -119q0 -160 -221 -157l-88 1q2 -31 24 -50.5t60 -19.5q76 0 112 29l46 -135q-14 0 -76.5 -13t-110.5 -13zM223 294h60q67 0 67 40q0 21 -12.5 33t-34.5 12q-32 0 -52.5 -22.5t-27.5 -62.5z" />
    <glyph glyph-name="igrave" unicode="&#xec;" horiz-adv-x="319" 
d="M260 576q-54 12 -107.5 45t-76.5 76l90 95q24 -50 63 -90t83 -64zM20 0l69 342q16 74 15.5 107.5t-23.5 53.5h227l-73 -362q-12 -46 -11.5 -83t20.5 -58h-224z" />
    <glyph glyph-name="iacute" unicode="&#xed;" horiz-adv-x="319" 
d="M180 570l-33 75q101 47 207 155l56 -103q-78 -83 -230 -127zM20 0l69 342q16 74 15.5 107.5t-23.5 53.5h227l-73 -362q-12 -46 -11.5 -83t20.5 -58h-224z" />
    <glyph glyph-name="icircumflex" unicode="&#xee;" horiz-adv-x="319" 
d="M89 563l-48 55q81 58 133 130h148q27 -67 86 -130l-62 -55q-69 39 -107 98h-4q-57 -59 -146 -98zM20 0l69 342q16 74 15.5 107.5t-23.5 53.5h227l-73 -362q-12 -46 -11.5 -83t20.5 -58h-224z" />
    <glyph glyph-name="idieresis" unicode="&#xef;" horiz-adv-x="319" 
d="M111 590q-27 0 -43.5 16t-16.5 41q0 36 27 63t63 27q27 0 43.5 -16.5t16.5 -41.5q0 -36 -26.5 -62.5t-63.5 -26.5zM333 590q-27 0 -43.5 16t-16.5 41q0 36 27 63t62 27q28 0 44.5 -16.5t16.5 -41.5q0 -36 -26.5 -62.5t-63.5 -26.5zM20 0l69 342q16 74 15.5 107.5
t-23.5 53.5h227l-73 -362q-12 -46 -11.5 -83t20.5 -58h-224z" />
    <glyph glyph-name="eth" unicode="&#xf0;" horiz-adv-x="570" 
d="M470 604q76 -108 76 -259q0 -157 -83 -257t-215 -100q-95 0 -157 50.5t-62 143.5q0 117 73 197.5t171 80.5q58 0 98 -25q-17 52 -47 89l-70 -38l-40 71l47 26l-26 17q-29 19 -60 21l108 152q19 -27 63 -55q42 -26 68 -51l68 38l40 -72zM266 146q40 0 71.5 49t30.5 100
q-10 14 -30 23.5t-41 9.5q-34 0 -58.5 -36.5t-24.5 -86.5q0 -28 13.5 -43.5t38.5 -15.5z" />
    <glyph glyph-name="ntilde" unicode="&#xf1;" horiz-adv-x="620" 
d="M437 582q-34 0 -60.5 16t-43.5 31.5t-29 15.5q-15 0 -21.5 -14t0.5 -39l-101 7q11 74 46 110.5t84 36.5q34 0 60.5 -16t43.5 -32t28 -16q15 0 22.5 14t1.5 40l98 -8q-10 -74 -45 -110t-84 -36zM21 0l70 364q8 40 10 57.5t-1.5 42t-18.5 39.5h215l-12 -56h6q72 67 147 67
q76 0 113 -57.5t19 -150.5l-32 -165q-12 -55 -11 -88.5t20 -52.5h-224l55 282q16 74 -30 74q-38 0 -81 -60l-30 -155q-11 -61 -12 -88.5t12 -52.5h-215z" />
    <glyph glyph-name="ograve" unicode="&#xf2;" horiz-adv-x="577" 
d="M384 576q-54 12 -107.5 45t-76.5 76l90 95q24 -50 63 -90t83 -64zM243 -12q-99 0 -156 53t-57 150q0 151 84.5 237t222.5 86q98 0 155 -52t57 -148q0 -151 -84.5 -238.5t-221.5 -87.5zM268 139q41 0 65.5 41.5t24.5 113.5q0 70 -47 70q-42 0 -66.5 -41t-24.5 -112
q0 -72 48 -72z" />
    <glyph glyph-name="oacute" unicode="&#xf3;" horiz-adv-x="577" 
d="M304 570l-33 75q101 47 207 155l56 -103q-78 -83 -230 -127zM243 -12q-99 0 -156 53t-57 150q0 151 84.5 237t222.5 86q98 0 155 -52t57 -148q0 -151 -84.5 -238.5t-221.5 -87.5zM268 139q41 0 65.5 41.5t24.5 113.5q0 70 -47 70q-42 0 -66.5 -41t-24.5 -112
q0 -72 48 -72z" />
    <glyph glyph-name="ocircumflex" unicode="&#xf4;" horiz-adv-x="577" 
d="M213 563l-48 55q81 58 133 130h148q27 -67 86 -130l-62 -55q-69 39 -107 98h-4q-57 -59 -146 -98zM243 -12q-99 0 -156 53t-57 150q0 151 84.5 237t222.5 86q98 0 155 -52t57 -148q0 -151 -84.5 -238.5t-221.5 -87.5zM268 139q41 0 65.5 41.5t24.5 113.5q0 70 -47 70
q-42 0 -66.5 -41t-24.5 -112q0 -72 48 -72z" />
    <glyph glyph-name="otilde" unicode="&#xf5;" horiz-adv-x="577" 
d="M422 582q-34 0 -60.5 16t-43.5 31.5t-29 15.5q-15 0 -21.5 -14t0.5 -39l-101 7q11 74 46 110.5t84 36.5q34 0 60.5 -16t43.5 -32t28 -16q15 0 22.5 14t1.5 40l98 -8q-10 -74 -45 -110t-84 -36zM243 -12q-99 0 -156 53t-57 150q0 151 84.5 237t222.5 86q98 0 155 -52
t57 -148q0 -151 -84.5 -238.5t-221.5 -87.5zM268 139q41 0 65.5 41.5t24.5 113.5q0 70 -47 70q-42 0 -66.5 -41t-24.5 -112q0 -72 48 -72z" />
    <glyph glyph-name="odieresis" unicode="&#xf6;" horiz-adv-x="577" 
d="M235 590q-27 0 -43.5 16t-16.5 41q0 36 27 63t63 27q27 0 43.5 -16.5t16.5 -41.5q0 -36 -26.5 -62.5t-63.5 -26.5zM457 590q-27 0 -43.5 16t-16.5 41q0 36 27 63t62 27q28 0 44.5 -16.5t16.5 -41.5q0 -36 -26.5 -62.5t-63.5 -26.5zM243 -12q-99 0 -156 53t-57 150
q0 151 84.5 237t222.5 86q98 0 155 -52t57 -148q0 -151 -84.5 -238.5t-221.5 -87.5zM268 139q41 0 65.5 41.5t24.5 113.5q0 70 -47 70q-42 0 -66.5 -41t-24.5 -112q0 -72 48 -72z" />
    <glyph glyph-name="divide" unicode="&#xf7;" horiz-adv-x="491" 
d="M262 382q-26 0 -41.5 15t-15.5 40q0 35 25.5 60t59.5 25q25 0 40.5 -15.5t15.5 -39.5q0 -34 -25 -59.5t-59 -25.5zM48 234l25 127q13 -10 54 -10h258q41 0 58 10l-25 -127q-14 10 -54 10h-258q-41 0 -58 -10zM202 73q-26 0 -41 15.5t-15 39.5q0 35 25 60t59 25
q26 0 41 -15.5t15 -39.5q0 -34 -25 -59.5t-59 -25.5z" />
    <glyph glyph-name="oslash" unicode="&#xf8;" horiz-adv-x="589" 
d="M496 458q53 -51 53 -144q0 -151 -84.5 -238.5t-221.5 -87.5q-67 0 -115 24l-28 -34l-37 29l26 32q-59 53 -59 152q0 151 84.5 237t222.5 86q73 0 122 -28l32 39l36 -29zM220 211v-13l125 151q-11 15 -34 15q-42 0 -66.5 -41t-24.5 -112zM268 139q41 0 65 40.5t25 111.5
l-118 -143q10 -9 28 -9z" />
    <glyph glyph-name="ugrave" unicode="&#xf9;" horiz-adv-x="614" 
d="M390 576q-54 12 -107.5 45t-76.5 76l90 95q24 -50 63 -90t83 -64zM168 -12q-154 0 -117 195l35 180q12 55 11 88t-19 52h223l-56 -285q-8 -40 -1.5 -55.5t30.5 -15.5q42 0 72 46l33 170q12 57 12.5 86.5t-13.5 53.5h216l-69 -362q-1 -4 -3.5 -17t-3 -17.5t-2.5 -15.5
t-2 -16t-1 -14.5t0 -14.5t2 -12.5t3.5 -12.5t6 -10.5t8.5 -10.5h-215l10 52h-8q-59 -64 -152 -64z" />
    <glyph glyph-name="uacute" unicode="&#xfa;" horiz-adv-x="614" 
d="M310 570l-33 75q101 47 207 155l56 -103q-78 -83 -230 -127zM168 -12q-154 0 -117 195l35 180q12 55 11 88t-19 52h223l-56 -285q-8 -40 -1.5 -55.5t30.5 -15.5q42 0 72 46l33 170q12 57 12.5 86.5t-13.5 53.5h216l-69 -362q-1 -4 -3.5 -17t-3 -17.5t-2.5 -15.5t-2 -16
t-1 -14.5t0 -14.5t2 -12.5t3.5 -12.5t6 -10.5t8.5 -10.5h-215l10 52h-8q-59 -64 -152 -64z" />
    <glyph glyph-name="ucircumflex" unicode="&#xfb;" horiz-adv-x="614" 
d="M219 563l-48 55q81 58 133 130h148q27 -67 86 -130l-62 -55q-69 39 -107 98h-4q-57 -59 -146 -98zM168 -12q-154 0 -117 195l35 180q12 55 11 88t-19 52h223l-56 -285q-8 -40 -1.5 -55.5t30.5 -15.5q42 0 72 46l33 170q12 57 12.5 86.5t-13.5 53.5h216l-69 -362
q-1 -4 -3.5 -17t-3 -17.5t-2.5 -15.5t-2 -16t-1 -14.5t0 -14.5t2 -12.5t3.5 -12.5t6 -10.5t8.5 -10.5h-215l10 52h-8q-59 -64 -152 -64z" />
    <glyph glyph-name="udieresis" unicode="&#xfc;" horiz-adv-x="614" 
d="M241 590q-27 0 -43.5 16t-16.5 41q0 36 27 63t63 27q27 0 43.5 -16.5t16.5 -41.5q0 -36 -26.5 -62.5t-63.5 -26.5zM463 590q-27 0 -43.5 16t-16.5 41q0 36 27 63t62 27q28 0 44.5 -16.5t16.5 -41.5q0 -36 -26.5 -62.5t-63.5 -26.5zM168 -12q-154 0 -117 195l35 180
q12 55 11 88t-19 52h223l-56 -285q-8 -40 -1.5 -55.5t30.5 -15.5q42 0 72 46l33 170q12 57 12.5 86.5t-13.5 53.5h216l-69 -362q-1 -4 -3.5 -17t-3 -17.5t-2.5 -15.5t-2 -16t-1 -14.5t0 -14.5t2 -12.5t3.5 -12.5t6 -10.5t8.5 -10.5h-215l10 52h-8q-59 -64 -152 -64z" />
    <glyph glyph-name="yacute" unicode="&#xfd;" horiz-adv-x="575" 
d="M316 570l-33 75q101 47 207 155l56 -103q-78 -83 -230 -127zM113 -200q-35 0 -70 5.5t-47 2.5l70 183q6 -19 28 -34.5t44 -15.5q47 0 59 52l2 7l-79 328q-30 137 -65 175h211l40 -268q7 -41 7 -67h8q8 32 20 64l46 141q31 97 16 130h198l-217 -524q-73 -179 -271 -179z
" />
    <glyph glyph-name="thorn" unicode="&#xfe;" horiz-adv-x="596" 
d="M-33 -200l152 751q17 76 16 109t-24 52h227l-47 -232l3 -3q52 37 107 37q77 0 123 -50t46 -141q0 -141 -74.5 -238t-190.5 -97q-54 0 -108 25l-14 -72q-13 -57 -12 -89.5t20 -51.5h-224zM279 129q40 0 70 50.5t30 126.5q0 61 -40 61q-34 0 -80 -43l-35 -177
q28 -18 55 -18z" />
    <glyph glyph-name="ydieresis" unicode="&#xff;" horiz-adv-x="575" 
d="M247 590q-27 0 -43.5 16t-16.5 41q0 36 27 63t63 27q27 0 43.5 -16.5t16.5 -41.5q0 -36 -26.5 -62.5t-63.5 -26.5zM469 590q-27 0 -43.5 16t-16.5 41q0 36 27 63t62 27q28 0 44.5 -16.5t16.5 -41.5q0 -36 -26.5 -62.5t-63.5 -26.5zM113 -200q-35 0 -70 5.5t-47 2.5
l70 183q6 -19 28 -34.5t44 -15.5q47 0 59 52l2 7l-79 328q-30 137 -65 175h211l40 -268q7 -41 7 -67h8q8 32 20 64l46 141q31 97 16 130h198l-217 -524q-73 -179 -271 -179z" />
    <glyph glyph-name="Amacron" unicode="&#x100;" horiz-adv-x="692" 
d="M302 725l17 87h266l-17 -87h-266zM-39 0q22 18 43.5 51t56.5 110l166 355q42 90 38 133h314q-19 -42 -12 -133l28 -355q6 -78 13 -111.5t24 -49.5h-259q36 33 39 104l-1 23h-177l-11 -23q-17 -38 -18 -61.5t15 -42.5h-259zM296 274h108l-6 235h-9z" />
    <glyph glyph-name="amacron" unicode="&#x101;" horiz-adv-x="601" 
d="M232 603l17 87h266l-17 -87h-266zM185 -12q-69 0 -113.5 50.5t-44.5 141.5q0 142 78.5 236t179.5 94q65 0 122 -33l12 21h173l-72 -346q-24 -116 2 -152h-201q-6 16 -6 31h-6q-63 -43 -124 -43zM259 134q34 0 82 57l30 149q-24 29 -60 29q-38 0 -65.5 -49.5t-27.5 -123.5
q0 -62 41 -62z" />
    <glyph glyph-name="Abreve" unicode="&#x102;" horiz-adv-x="692" 
d="M432 687q-72 0 -108 42t-21 115h84q-2 -66 59 -66q59 0 79 66h84q-25 -157 -177 -157zM-39 0q22 18 43.5 51t56.5 110l166 355q42 90 38 133h314q-19 -42 -12 -133l28 -355q6 -78 13 -111.5t24 -49.5h-259q36 33 39 104l-1 23h-177l-11 -23q-17 -38 -18 -61.5t15 -42.5
h-259zM296 274h108l-6 235h-9z" />
    <glyph glyph-name="abreve" unicode="&#x103;" horiz-adv-x="601" 
d="M362 565q-72 0 -108 42t-21 115h84q-2 -66 59 -66q59 0 79 66h84q-25 -157 -177 -157zM185 -12q-69 0 -113.5 50.5t-44.5 141.5q0 142 78.5 236t179.5 94q65 0 122 -33l12 21h173l-72 -346q-24 -116 2 -152h-201q-6 16 -6 31h-6q-63 -43 -124 -43zM259 134q34 0 82 57
l30 149q-24 29 -60 29q-38 0 -65.5 -49.5t-27.5 -123.5q0 -62 41 -62z" />
    <glyph glyph-name="Aogonek" unicode="&#x104;" horiz-adv-x="692" 
d="M567 -132q23 0 38 17l27 -51q-45 -45 -108 -45q-39 0 -63 18.5t-24 50.5q0 39 33 77t91 65h-188q36 33 39 104l-1 23h-177l-11 -23q-17 -38 -18 -61.5t15 -42.5h-259q22 18 43.5 51t56.5 110l166 355q42 90 38 133h314q-19 -42 -12 -133l28 -355q6 -78 13 -111.5
t24 -49.5q-37 -21 -63.5 -53t-26.5 -55q0 -24 25 -24zM296 274h108l-6 235h-9z" />
    <glyph glyph-name="aogonek" unicode="&#x105;" horiz-adv-x="601" 
d="M520 152q-24 -116 2 -152h-3q-37 -21 -63.5 -53t-26.5 -55q0 -24 25 -24q23 0 38 17l27 -51q-45 -45 -108 -45q-39 0 -63 18.5t-24 50.5q0 39 33 77t91 65h-127q-6 16 -6 31h-6q-63 -43 -124 -43q-69 0 -113.5 50.5t-44.5 141.5q0 142 78.5 236t179.5 94q65 0 122 -33
l12 21h173zM341 191l30 149q-24 29 -60 29q-38 0 -65.5 -49.5t-27.5 -123.5q0 -62 41 -62q34 0 82 57z" />
    <glyph glyph-name="Cacute" unicode="&#x106;" horiz-adv-x="578" 
d="M382 691l-33 75q101 47 207 155l56 -103q-78 -83 -230 -127zM292 -12q-112 0 -178.5 63.5t-66.5 190.5q0 186 97.5 302.5t264.5 116.5q47 0 108.5 -19.5t78.5 -20.5l-93 -183q-42 59 -113 59q-64 0 -105 -68t-41 -161q0 -117 90 -117q74 0 129 55l46 -182q-15 0 -88 -18
t-129 -18z" />
    <glyph glyph-name="cacute" unicode="&#x107;" horiz-adv-x="470" 
d="M297 569l-33 75q101 47 207 155l56 -103q-78 -83 -230 -127zM240 -12q-98 0 -154 52.5t-56 153.5q0 147 83.5 233.5t209.5 86.5q39 0 81.5 -11t56.5 -12l-56 -162q-26 35 -80 35q-42 0 -71.5 -47.5t-29.5 -106.5q0 -72 63 -72q52 0 83 35l31 -164q-15 0 -66.5 -10.5
t-94.5 -10.5z" />
    <glyph glyph-name="Cdotaccent" unicode="&#x10a;" horiz-adv-x="578" 
d="M425 710q-70 -1 -70 55q0 41 27 66.5t71 25.5q69 0 69 -56q0 -41 -26 -65.5t-71 -25.5zM292 -12q-112 0 -178.5 63.5t-66.5 190.5q0 186 97.5 302.5t264.5 116.5q47 0 108.5 -19.5t78.5 -20.5l-93 -183q-42 59 -113 59q-64 0 -105 -68t-41 -161q0 -117 90 -117
q74 0 129 55l46 -182q-15 0 -88 -18t-129 -18z" />
    <glyph glyph-name="cdotaccent" unicode="&#x10b;" horiz-adv-x="470" 
d="M341 588q-70 -1 -70 55q0 41 27 66.5t71 25.5q69 0 69 -56q0 -41 -26 -65.5t-71 -25.5zM240 -12q-98 0 -154 52.5t-56 153.5q0 147 83.5 233.5t209.5 86.5q39 0 81.5 -11t56.5 -12l-56 -162q-26 35 -80 35q-42 0 -71.5 -47.5t-29.5 -106.5q0 -72 63 -72q52 0 83 35
l31 -164q-15 0 -66.5 -10.5t-94.5 -10.5z" />
    <glyph glyph-name="Ccaron" unicode="&#x10c;" horiz-adv-x="578" 
d="M354 685q-31 84 -85 133l58 52q59 -32 106 -98h4q66 61 147 98l40 -55q-76 -54 -136 -130h-134zM292 -12q-112 0 -178.5 63.5t-66.5 190.5q0 186 97.5 302.5t264.5 116.5q47 0 108.5 -19.5t78.5 -20.5l-93 -183q-42 59 -113 59q-64 0 -105 -68t-41 -161q0 -117 90 -117
q74 0 129 55l46 -182q-15 0 -88 -18t-129 -18z" />
    <glyph glyph-name="ccaron" unicode="&#x10d;" horiz-adv-x="470" 
d="M270 563q-31 84 -85 133l58 52q59 -32 106 -98h4q66 61 147 98l40 -55q-76 -54 -136 -130h-134zM240 -12q-98 0 -154 52.5t-56 153.5q0 147 83.5 233.5t209.5 86.5q39 0 81.5 -11t56.5 -12l-56 -162q-26 35 -80 35q-42 0 -71.5 -47.5t-29.5 -106.5q0 -72 63 -72
q52 0 83 35l31 -164q-15 0 -66.5 -10.5t-94.5 -10.5z" />
    <glyph glyph-name="Dcaron" unicode="&#x10e;" horiz-adv-x="663" 
d="M319 685q-31 84 -85 133l58 52q59 -32 106 -98h4q66 61 147 98l40 -55q-76 -54 -136 -130h-134zM-3 0q50 35 75 166l61 316q13 67 11 107.5t-22 59.5h258q127 0 195 -67t68 -177q0 -195 -99 -300t-270 -105h-277zM260 151h26q71 0 116 62.5t45 163.5q0 120 -98 120h-22z
" />
    <glyph glyph-name="dcaron" unicode="&#x10f;" horiz-adv-x="588" 
d="M185 -12q-70 0 -114 50.5t-44 140.5q0 139 78 237t188 98q55 0 109 -25l12 63q17 75 16 107.5t-23 52.5h227l-115 -571q-13 -54 -12 -87.5t21 -53.5h-198q-4 15 -2 36l-4 2q-63 -50 -139 -50zM637 522l35 188h102l-77 -188h-60zM259 134q31 0 80 47l35 174q-29 18 -56 18
q-39 0 -69.5 -50t-30.5 -127q0 -62 41 -62z" />
    <glyph glyph-name="Dcroat" unicode="&#x110;" horiz-adv-x="663" 
d="M379 649q127 0 195.5 -67t68.5 -177q0 -195 -99 -300t-271 -105h-277q49 34 76 166l21 108h-51l22 109h49l19 99q13 67 11 107.5t-22 59.5h258zM285 151q71 0 116 62.5t45 163.5q0 120 -98 120h-22l-22 -114h78l-22 -109h-77l-24 -123h26z" />
    <glyph glyph-name="dcroat" unicode="&#x111;" horiz-adv-x="588" 
d="M602 551l-83 -410q-13 -54 -12 -87.5t21 -53.5h-198q-4 15 -2 36l-4 2q-63 -50 -139 -50q-70 0 -114 50.5t-44 140.5q0 139 78 237t188 98q55 0 109 -25l12 62h-40l12 57h39q8 43 4 65.5t-22 38.5h227l-21 -104h42l-12 -57h-41zM339 181l35 174q-29 18 -56 18
q-39 0 -69.5 -50t-30.5 -127q0 -62 41 -62q31 0 80 47z" />
    <glyph glyph-name="Emacron" unicode="&#x112;" horiz-adv-x="576" 
d="M237 725l17 87h266l-17 -87h-266zM478 -7q-42 7 -150 7h-331q51 36 76 166l60 316q26 135 -11 167h333q93 0 138 7l-37 -187q-38 21 -132 21h-99l-15 -81h68q93 0 134 15l-37 -189q-38 16 -127 16h-70l-17 -92h98q109 0 156 20z" />
    <glyph glyph-name="emacron" unicode="&#x113;" horiz-adv-x="544" 
d="M208 603l17 87h266l-17 -87h-266zM272 -12q-111 0 -176 59t-65 155q0 139 80.5 225.5t208.5 86.5q90 0 148 -49t58 -119q0 -160 -221 -157l-88 1q2 -31 24 -50.5t60 -19.5q76 0 112 29l46 -135q-14 0 -76.5 -13t-110.5 -13zM223 294h60q67 0 67 40q0 21 -12.5 33
t-34.5 12q-32 0 -52.5 -22.5t-27.5 -62.5z" />
    <glyph glyph-name="Edotaccent" unicode="&#x116;" horiz-adv-x="576" 
d="M367 709q-70 -1 -70 55q0 41 27 66.5t71 25.5q69 0 69 -56q0 -41 -26 -65.5t-71 -25.5zM478 -7q-42 7 -150 7h-331q51 36 76 166l60 316q26 135 -11 167h333q93 0 138 7l-37 -187q-38 21 -132 21h-99l-15 -81h68q93 0 134 15l-37 -189q-38 16 -127 16h-70l-17 -92h98
q109 0 156 20z" />
    <glyph glyph-name="edotaccent" unicode="&#x117;" horiz-adv-x="544" 
d="M338 588q-70 -1 -70 55q0 41 27 66.5t71 25.5q69 0 69 -56q0 -41 -26 -65.5t-71 -25.5zM272 -12q-111 0 -176 59t-65 155q0 139 80.5 225.5t208.5 86.5q90 0 148 -49t58 -119q0 -160 -221 -157l-88 1q2 -31 24 -50.5t60 -19.5q76 0 112 29l46 -135q-14 0 -76.5 -13
t-110.5 -13zM223 294h60q67 0 67 40q0 21 -12.5 33t-34.5 12q-32 0 -52.5 -22.5t-27.5 -62.5z" />
    <glyph glyph-name="Eogonek" unicode="&#x118;" horiz-adv-x="576" 
d="M424 490h-99l-15 -81h68q93 0 134 15l-37 -189q-38 16 -127 16h-70l-17 -92h98q109 0 156 20l-37 -186q-37 -21 -63.5 -53t-26.5 -55q0 -24 25 -24q23 0 38 17l27 -51q-45 -45 -108 -45q-39 0 -63 18.5t-24 50.5q0 41 36.5 80.5t99.5 66.5q-24 2 -91 2h-331q51 36 76 166
l60 316q26 135 -11 167h333q93 0 138 7l-37 -187q-38 21 -132 21z" />
    <glyph glyph-name="eogonek" unicode="&#x119;" horiz-adv-x="544" 
d="M526 346q0 -160 -221 -157l-88 1q2 -31 24 -50.5t60 -19.5q76 0 112 29l46 -135h-1q-37 -21 -63.5 -53t-26.5 -55q0 -24 25 -24q23 0 38 17l27 -51q-45 -45 -108 -45q-39 0 -63 18.5t-24 50.5q0 69 89 123q-42 -7 -80 -7q-111 0 -176 59t-65 155q0 139 80.5 225.5
t208.5 86.5q90 0 148 -49t58 -119zM223 294h60q67 0 67 40q0 21 -12.5 33t-34.5 12q-32 0 -52.5 -22.5t-27.5 -62.5z" />
    <glyph glyph-name="Ecaron" unicode="&#x11a;" horiz-adv-x="576" 
d="M296 684q-31 84 -85 133l58 52q59 -32 106 -98h4q66 61 147 98l40 -55q-76 -54 -136 -130h-134zM478 -7q-42 7 -150 7h-331q51 36 76 166l60 316q26 135 -11 167h333q93 0 138 7l-37 -187q-38 21 -132 21h-99l-15 -81h68q93 0 134 15l-37 -189q-38 16 -127 16h-70
l-17 -92h98q109 0 156 20z" />
    <glyph glyph-name="ecaron" unicode="&#x11b;" horiz-adv-x="544" 
d="M267 563q-31 84 -85 133l58 52q59 -32 106 -98h4q66 61 147 98l40 -55q-76 -54 -136 -130h-134zM272 -12q-111 0 -176 59t-65 155q0 139 80.5 225.5t208.5 86.5q90 0 148 -49t58 -119q0 -160 -221 -157l-88 1q2 -31 24 -50.5t60 -19.5q76 0 112 29l46 -135
q-14 0 -76.5 -13t-110.5 -13zM223 294h60q67 0 67 40q0 21 -12.5 33t-34.5 12q-32 0 -52.5 -22.5t-27.5 -62.5z" />
    <glyph glyph-name="Gbreve" unicode="&#x11e;" horiz-adv-x="627" 
d="M425 693q-72 0 -108 42t-21 115h84q-2 -66 59 -66q59 0 79 66h84q-25 -157 -177 -157zM303 -12q-122 0 -190 58.5t-68 180.5q0 190 98.5 312t265.5 122q41 0 80 -7.5t73 -17.5t48 -12l-97 -172q-36 45 -125 45q-59 0 -102.5 -71.5t-43.5 -165.5q0 -109 95 -109
q46 0 84 20l18 79h-17q-52 0 -76 -10l29 136q21 -9 71 -9h173q-18 -27 -39 -123l-15 -78q-20 -93 -9 -123q-16 -4 -64 -19t-96 -25.5t-93 -10.5z" />
    <glyph glyph-name="gbreve" unicode="&#x11f;" horiz-adv-x="592" 
d="M353 566q-72 0 -108 42t-21 115h84q-2 -66 59 -66q59 0 79 66h84q-25 -157 -177 -157zM178 -212q-33 0 -91 12t-74 11l54 163q18 -22 52.5 -36.5t74.5 -14.5q92 0 111 88l6 25h-3q-41 -38 -117 -38t-119.5 45.5t-43.5 135.5q0 139 79.5 237t192.5 98q28 0 58.5 -11
t47.5 -26l14 25h172l-94 -458q-26 -127 -103 -191.5t-217 -64.5zM259 135q17 0 40.5 14t41.5 33l31 161q-26 30 -59 30q-39 0 -66.5 -49.5t-27.5 -127.5q0 -61 40 -61z" />
    <glyph glyph-name="Gdotaccent" unicode="&#x120;" horiz-adv-x="627" 
d="M425 715q-70 -1 -70 55q0 41 27 66.5t71 25.5q69 0 69 -56q0 -41 -26 -65.5t-71 -25.5zM303 -12q-122 0 -190 58.5t-68 180.5q0 190 98.5 312t265.5 122q41 0 80 -7.5t73 -17.5t48 -12l-97 -172q-36 45 -125 45q-59 0 -102.5 -71.5t-43.5 -165.5q0 -109 95 -109
q46 0 84 20l18 79h-17q-52 0 -76 -10l29 136q21 -9 71 -9h173q-18 -27 -39 -123l-15 -78q-20 -93 -9 -123q-16 -4 -64 -19t-96 -25.5t-93 -10.5z" />
    <glyph glyph-name="gdotaccent" unicode="&#x121;" horiz-adv-x="592" 
d="M353 589q-70 -1 -70 55q0 41 27 66.5t71 25.5q69 0 69 -56q0 -41 -26 -65.5t-71 -25.5zM178 -212q-33 0 -91 12t-74 11l54 163q18 -22 52.5 -36.5t74.5 -14.5q92 0 111 88l6 25h-3q-41 -38 -117 -38t-119.5 45.5t-43.5 135.5q0 139 79.5 237t192.5 98q28 0 58.5 -11
t47.5 -26l14 25h172l-94 -458q-26 -127 -103 -191.5t-217 -64.5zM259 135q17 0 40.5 14t41.5 33l31 161q-26 30 -59 30q-39 0 -66.5 -49.5t-27.5 -127.5q0 -61 40 -61z" />
    <glyph glyph-name="uni0122" unicode="&#x122;" horiz-adv-x="627" 
d="M303 -12q-122 0 -190 58.5t-68 180.5q0 190 98.5 312t265.5 122q41 0 80 -7.5t73 -17.5t48 -12l-97 -172q-36 45 -125 45q-59 0 -102.5 -71.5t-43.5 -165.5q0 -109 95 -109q46 0 84 20l18 79h-17q-52 0 -76 -10l29 136q21 -9 71 -9h173q-18 -27 -39 -123l-15 -78
q-20 -93 -9 -123q-16 -4 -64 -19t-96 -25.5t-93 -10.5zM209 -256l-8 46q33 3 56.5 21t25.5 37h-4q-23 0 -38.5 11.5t-15.5 31.5q0 26 21 42t54 16q31 0 47.5 -15.5t16.5 -43.5q0 -54 -46 -98t-109 -48z" />
    <glyph glyph-name="uni0123" unicode="&#x123;" horiz-adv-x="592" 
d="M354 565q-82 0 -82 64q0 65 58 115.5t137 54.5l9 -53q-40 -2 -69 -22.5t-34 -42.5h7q28 0 48 -13t20 -36q0 -29 -26.5 -48t-67.5 -19zM178 -212q-33 0 -91 12t-74 11l54 163q18 -22 52.5 -36.5t74.5 -14.5q92 0 111 88l6 25h-3q-41 -38 -117 -38t-119.5 45.5t-43.5 135.5
q0 139 79.5 237t192.5 98q28 0 58.5 -11t47.5 -26l14 25h172l-94 -458q-26 -127 -103 -191.5t-217 -64.5zM259 135q17 0 40.5 14t41.5 33l31 161q-26 30 -59 30q-39 0 -66.5 -49.5t-27.5 -127.5q0 -61 40 -61z" />
    <glyph glyph-name="Hbar" unicode="&#x126;" horiz-adv-x="750" 
d="M763 649q-38 -27 -58 -93h55l-18 -88h-59l-58 -302q-25 -129 11 -166h-276q50 38 75 166l16 82h-173l-15 -82q-14 -61 -13 -102.5t24 -63.5h-277q51 37 76 166l57 302h-38l18 88h33q6 69 -21 93h277q-37 -28 -58 -93h167q7 64 -23 93h278zM483 413l10 55h-173l-10 -55
h173z" />
    <glyph glyph-name="hbar" unicode="&#x127;" horiz-adv-x="586" 
d="M573 305l-32 -164q-11 -52 -10 -87t20 -54h-227l56 282q15 74 -27 74q-22 0 -45.5 -19.5t-41.5 -50.5l-28 -145q-12 -53 -11.5 -87t16.5 -54h-222l111 552l1 7h-47l12 57h46q5 40 1 60.5t-21 35.5h230l-19 -96h45l-12 -57h-45l-21 -104h9q13 19 55 39t87 20
q75 0 106.5 -56.5t13.5 -152.5z" />
    <glyph glyph-name="Imacron" unicode="&#x12a;" horiz-adv-x="366" 
d="M144 725l17 87h266l-17 -87h-266zM-3 0q30 22 46.5 59.5t29.5 106.5l60 316q25 134 -11 167h277q-28 -22 -46 -59.5t-30 -107.5l-61 -316q-13 -58 -12 -101.5t23 -64.5h-276z" />
    <glyph glyph-name="imacron" unicode="&#x12b;" horiz-adv-x="319" 
d="M94 604l17 87h266l-17 -87h-266zM20 0l69 342q16 74 15.5 107.5t-23.5 53.5h227l-73 -362q-12 -46 -11.5 -83t20.5 -58h-224z" />
    <glyph glyph-name="Iogonek" unicode="&#x12e;" horiz-adv-x="366" 
d="M122 649h277q-28 -22 -46 -59.5t-30 -107.5l-61 -316q-13 -58 -12 -101.5t23 -64.5q-37 -21 -63.5 -53t-26.5 -55q0 -24 25 -24q23 0 38 17l27 -51q-45 -45 -108 -45q-39 0 -63 18.5t-24 50.5q0 39 33 77t91 65h-205q30 22 46.5 59.5t29.5 106.5l60 316q25 134 -11 167z
" />
    <glyph glyph-name="iogonek" unicode="&#x12f;" horiz-adv-x="323" 
d="M240 736q49 0 75.5 -19t26.5 -52q0 -47 -31.5 -75.5t-82.5 -28.5q-102 0 -102 71q0 44 32 74t82 30zM307 503l-73 -362q-12 -53 -11 -87.5t20 -53.5q-37 -21 -63.5 -53t-26.5 -55q0 -24 25 -24q23 0 38 17l27 -51q-45 -45 -108 -45q-39 0 -63 18.5t-24 50.5q0 39 33 77
t91 65h-153l69 342q18 93 15 117q-4 27 -23 44h227z" />
    <glyph glyph-name="Idotaccent" unicode="&#x130;" horiz-adv-x="366" 
d="M273 710q-70 -1 -70 55q0 41 27 66.5t71 25.5q69 0 69 -56q0 -41 -26 -65.5t-71 -25.5zM-3 0q30 22 46.5 59.5t29.5 106.5l60 316q25 134 -11 167h277q-28 -22 -46 -59.5t-30 -107.5l-61 -316q-13 -58 -12 -101.5t23 -64.5h-276z" />
    <glyph glyph-name="dotlessi" unicode="&#x131;" horiz-adv-x="319" 
d="M20 0l69 342q16 74 15.5 107.5t-23.5 53.5h227l-73 -362q-12 -46 -11.5 -83t20.5 -58h-224z" />
    <glyph glyph-name="uni0136" unicode="&#x136;" horiz-adv-x="692" 
d="M-4 0q50 34 76 166l60 316q15 80 15 115t-22 54h260q-40 -45 -57 -135l-17 -92h4l107 119q31 37 41.5 59t6.5 49h257q-56 -36 -140 -136l-117 -141l87 -210q56 -131 84 -164h-263q22 46 -22 157l-30 78l-66 -72l-5 -24q-18 -101 8 -139h-267zM203 -256l-8 46
q33 3 56.5 21t25.5 37h-4q-23 0 -38.5 11.5t-15.5 31.5q0 26 21 42t54 16q31 0 47.5 -15.5t16.5 -43.5q0 -54 -46 -98t-109 -48z" />
    <glyph glyph-name="uni0137" unicode="&#x137;" horiz-adv-x="613" 
d="M21 0l111 552q17 76 15.5 108t-23.5 52h227l-47 -235q62 37 132 37q64 0 106 -35.5t42 -101.5q0 -59 -33.5 -105.5t-90.5 -75.5l48 -103q29 -66 68 -93h-224l-73 188l11 61q40 1 71.5 22.5t31.5 60.5q0 47 -42 47q-40 0 -76 -44l-40 -196q-12 -53 -11 -86.5t21 -52.5
h-224zM177 -256l-8 46q33 3 56.5 21t25.5 37h-4q-23 0 -38.5 11.5t-15.5 31.5q0 26 21 42t54 16q31 0 47.5 -15.5t16.5 -43.5q0 -54 -46 -98t-109 -48z" />
    <glyph glyph-name="Lacute" unicode="&#x139;" horiz-adv-x="535" 
d="M227 691l-33 75q101 47 207 155l56 -103q-78 -83 -230 -127zM469 -7q-42 7 -118 7h-354q51 36 76 166l60 316q26 135 -11 167h277q-52 -38 -76 -167l-62 -323h121q82 0 125 35z" />
    <glyph glyph-name="lacute" unicode="&#x13a;" horiz-adv-x="323" 
d="M216 743l-33 75q101 47 207 155l56 -103q-78 -83 -230 -127zM18 0l111 552q16 73 15.5 106.5t-22.5 53.5h227l-116 -571q-13 -55 -12 -88.5t21 -52.5h-224z" />
    <glyph glyph-name="uni013B" unicode="&#x13b;" horiz-adv-x="535" 
d="M469 -7q-42 7 -118 7h-354q51 36 76 166l60 316q26 135 -11 167h277q-52 -38 -76 -167l-62 -323h121q82 0 125 35zM141 -256l-8 46q33 3 56.5 21t25.5 37h-4q-23 0 -38.5 11.5t-15.5 31.5q0 26 21 42t54 16q31 0 47.5 -15.5t16.5 -43.5q0 -54 -46 -98t-109 -48z" />
    <glyph glyph-name="uni013C" unicode="&#x13c;" horiz-adv-x="323" 
d="M18 0l111 552q16 73 15.5 106.5t-22.5 53.5h227l-116 -571q-13 -55 -12 -88.5t21 -52.5h-224zM22 -256l-8 46q33 3 56.5 21t25.5 37h-4q-23 0 -38.5 11.5t-15.5 31.5q0 26 21 42t54 16q31 0 47.5 -15.5t16.5 -43.5q0 -54 -46 -98t-109 -48z" />
    <glyph glyph-name="Lcaron" unicode="&#x13d;" horiz-adv-x="525" 
d="M411 463l26 188h101l-59 -188h-68zM469 -7q-42 7 -118 7h-354q51 36 76 166l60 316q26 135 -11 167h277q-52 -38 -76 -167l-62 -323h121q82 0 125 35z" />
    <glyph glyph-name="lcaron" unicode="&#x13e;" horiz-adv-x="323" 
d="M18 0l111 552q16 73 15.5 106.5t-22.5 53.5h227l-116 -571q-13 -55 -12 -88.5t21 -52.5h-224zM373 522l33 188h102l-76 -188h-59z" />
    <glyph glyph-name="Lslash" unicode="&#x141;" horiz-adv-x="525" 
d="M382 159q82 0 125 35l-38 -201q-42 7 -118 7h-354q51 36 76 166l21 109l-30 -7l-19 88l67 15l21 111q26 135 -11 167h277q-52 -38 -76 -167l-13 -66l64 14l18 -88l-100 -23l-31 -160h121z" />
    <glyph glyph-name="lslash" unicode="&#x142;" horiz-adv-x="323" 
d="M269 320l-36 -179q-13 -55 -12 -88.5t21 -52.5h-224l56 277l-40 -9l-15 71l70 16l40 197q16 73 15.5 106.5t-22.5 53.5h227l-64 -313l38 8l16 -71z" />
    <glyph glyph-name="Nacute" unicode="&#x143;" horiz-adv-x="726" 
d="M419 691l-33 75q101 47 207 155l56 -103q-78 -83 -230 -127zM-3 0q51 36 76 166l60 316q23 128 -11 167h246l110 -358h9q-6 85 6 154l15 76q13 80 -12 128h261q-50 -38 -75 -167l-61 -316q-13 -53 -12 -99t24 -67h-237l-116 379h-9q4 -103 -9 -163l-12 -62
q-25 -112 8 -154h-261z" />
    <glyph glyph-name="nacute" unicode="&#x144;" horiz-adv-x="620" 
d="M319 570l-33 75q101 47 207 155l56 -103q-78 -83 -230 -127zM21 0l70 364q8 40 10 57.5t-1.5 42t-18.5 39.5h215l-12 -56h6q72 67 147 67q76 0 113 -57.5t19 -150.5l-32 -165q-12 -55 -11 -88.5t20 -52.5h-224l55 282q16 74 -30 74q-38 0 -81 -60l-30 -155
q-11 -61 -12 -88.5t12 -52.5h-215z" />
    <glyph glyph-name="uni0145" unicode="&#x145;" horiz-adv-x="726" 
d="M-3 0q51 36 76 166l60 316q23 128 -11 167h246l110 -358h9q-6 85 6 154l15 76q13 80 -12 128h261q-50 -38 -75 -167l-61 -316q-13 -53 -12 -99t24 -67h-237l-116 379h-9q4 -103 -9 -163l-12 -62q-25 -112 8 -154h-261zM208 -256l-8 46q33 3 56.5 21t25.5 37h-4
q-23 0 -38.5 11.5t-15.5 31.5q0 26 21 42t54 16q31 0 47.5 -15.5t16.5 -43.5q0 -54 -46 -98t-109 -48z" />
    <glyph glyph-name="uni0146" unicode="&#x146;" horiz-adv-x="620" 
d="M21 0l70 364q8 40 10 57.5t-1.5 42t-18.5 39.5h215l-12 -56h6q72 67 147 67q76 0 113 -57.5t19 -150.5l-32 -165q-12 -55 -11 -88.5t20 -52.5h-224l55 282q16 74 -30 74q-38 0 -81 -60l-30 -155q-11 -61 -12 -88.5t12 -52.5h-215zM175 -256l-8 46q33 3 56.5 21t25.5 37
h-4q-23 0 -38.5 11.5t-15.5 31.5q0 26 21 42t54 16q31 0 47.5 -15.5t16.5 -43.5q0 -54 -46 -98t-109 -48z" />
    <glyph glyph-name="Ncaron" unicode="&#x147;" horiz-adv-x="726" 
d="M391 685q-31 84 -85 133l58 52q59 -32 106 -98h4q66 61 147 98l40 -55q-76 -54 -136 -130h-134zM-3 0q51 36 76 166l60 316q23 128 -11 167h246l110 -358h9q-6 85 6 154l15 76q13 80 -12 128h261q-50 -38 -75 -167l-61 -316q-13 -53 -12 -99t24 -67h-237l-116 379h-9
q4 -103 -9 -163l-12 -62q-25 -112 8 -154h-261z" />
    <glyph glyph-name="ncaron" unicode="&#x148;" horiz-adv-x="620" 
d="M291 564q-31 84 -85 133l58 52q59 -32 106 -98h4q66 61 147 98l40 -55q-76 -54 -136 -130h-134zM21 0l70 364q8 40 10 57.5t-1.5 42t-18.5 39.5h215l-12 -56h6q72 67 147 67q76 0 113 -57.5t19 -150.5l-32 -165q-12 -55 -11 -88.5t20 -52.5h-224l55 282q16 74 -30 74
q-38 0 -81 -60l-30 -155q-11 -61 -12 -88.5t12 -52.5h-215z" />
    <glyph glyph-name="Eng" unicode="&#x14a;" horiz-adv-x="701" 
d="M487 649h262q-50 -38 -75 -167l-83 -428l-12 -60q-19 -101 -66 -147.5t-147 -46.5q-22 0 -49 3l-36 4t-26 -4l38 149q25 -11 55 -11q34 0 45 59h-13l-100 379h-9q4 -103 -9 -163l-12 -62q-25 -111 8 -154h-261q52 38 76 166l60 316q23 128 -11 167h254l94 -358h8
q-6 81 7 154l14 76q15 80 -12 128z" />
    <glyph glyph-name="eng" unicode="&#x14b;" horiz-adv-x="596" 
d="M284 -199q-26 0 -54.5 5t-37.5 4l51 153q11 -11 32 -11q22 0 32.5 16t18.5 54l51 259q16 75 -31 75q-38 0 -81 -60l-30 -155q-12 -59 -12 -89t13 -52h-216l71 364q8 39 10 57t-1.5 43t-18.5 39h214l-11 -56h6q72 67 147 67q77 0 113 -57.5t18 -151.5l-55 -283
q-19 -97 -74 -159t-155 -62z" />
    <glyph glyph-name="Omacron" unicode="&#x14c;" horiz-adv-x="681" 
d="M288 725l17 87h266l-17 -87h-266zM300 -12q-120 0 -186 68t-66 191q0 186 94 300t265 114q121 0 187.5 -66t66.5 -189q0 -185 -96 -301.5t-265 -116.5zM319 151q68 0 107.5 65t39.5 171q0 53 -22 82t-54 29q-70 0 -108 -62t-38 -170q0 -54 21 -84.5t54 -30.5z" />
    <glyph glyph-name="omacron" unicode="&#x14d;" horiz-adv-x="577" 
d="M218 604l17 87h266l-17 -87h-266zM243 -12q-99 0 -156 53t-57 150q0 151 84.5 237t222.5 86q98 0 155 -52t57 -148q0 -151 -84.5 -238.5t-221.5 -87.5zM268 139q41 0 65.5 41.5t24.5 113.5q0 70 -47 70q-42 0 -66.5 -41t-24.5 -112q0 -72 48 -72z" />
    <glyph glyph-name="Ohungarumlaut" unicode="&#x150;" horiz-adv-x="681" 
d="M328 701l-70 37q77 68 133 165l89 -54q-64 -90 -152 -148zM518 701l-70 37q77 68 133 165l89 -54q-70 -93 -152 -148zM300 -12q-120 0 -186 68t-66 191q0 186 94 300t265 114q121 0 187.5 -66t66.5 -189q0 -185 -96 -301.5t-265 -116.5zM319 151q68 0 107.5 65t39.5 171
q0 53 -22 82t-54 29q-70 0 -108 -62t-38 -170q0 -54 21 -84.5t54 -30.5z" />
    <glyph glyph-name="ohungarumlaut" unicode="&#x151;" horiz-adv-x="577" 
d="M258 580l-70 37q77 68 133 165l89 -54q-64 -90 -152 -148zM448 580l-70 37q77 68 133 165l89 -54q-70 -93 -152 -148zM243 -12q-99 0 -156 53t-57 150q0 151 84.5 237t222.5 86q98 0 155 -52t57 -148q0 -151 -84.5 -238.5t-221.5 -87.5zM268 139q41 0 65.5 41.5
t24.5 113.5q0 70 -47 70q-42 0 -66.5 -41t-24.5 -112q0 -72 48 -72z" />
    <glyph glyph-name="OE" unicode="&#x152;" horiz-adv-x="880" 
d="M728 490h-86l-14 -81h55q90 0 134 15l-36 -189q-40 16 -129 16h-55l-19 -92h85q109 0 156 20l-36 -186q-42 7 -150 7h-236q-47 -12 -99 -12q-117 0 -184 66.5t-67 186.5q0 193 105 306.5t277 113.5q53 0 98 -12h233q94 0 137 7l-36 -187q-36 21 -133 21zM242 260
q0 -109 88 -109q33 0 60 12q1 1 1 3l61 316q0 1 0.5 2.5t0.5 2.5q-20 10 -56 10q-72 0 -113.5 -61.5t-41.5 -175.5z" />
    <glyph glyph-name="oe" unicode="&#x153;" horiz-adv-x="871" 
d="M853 346q0 -160 -221 -157l-88 1q2 -31 24 -50.5t60 -19.5q77 0 111 29l46 -135q-14 0 -76.5 -13t-109.5 -13q-106 0 -172 55q-76 -55 -184 -55q-99 0 -156 53t-57 150q0 151 84.5 237t222.5 86q93 0 148 -46q69 46 162 46q90 0 148 -49t58 -119zM549 294h61q66 0 66 40
q0 21 -12.5 33t-34.5 12q-31 0 -52 -22.5t-28 -62.5zM268 139q41 0 65.5 41.5t24.5 113.5q0 70 -47 70q-42 0 -66.5 -41t-24.5 -112q0 -72 48 -72z" />
    <glyph glyph-name="Racute" unicode="&#x154;" horiz-adv-x="674" 
d="M359 691l-33 75q101 47 207 155l56 -103q-78 -83 -230 -127zM-3 0q31 20 47 60.5t29 105.5l60 316q26 135 -11 167h300q102 0 165.5 -44.5t63.5 -131.5q0 -72 -41 -134t-110 -91l22 -61q51 -147 94 -187h-273q9 8 12.5 18t1.5 27.5t-5 30.5t-11.5 43t-13.5 49l-14 42h-43
l-8 -44q-25 -131 3 -166h-268zM299 359h54q52 0 81 22.5t29 62.5q0 55 -81 55h-56z" />
    <glyph glyph-name="racute" unicode="&#x155;" horiz-adv-x="450" 
d="M242 570l-33 75q101 47 207 155l56 -103q-78 -83 -230 -127zM20 0l71 365q12 53 11 86.5t-21 51.5h208l-11 -74h8q26 41 66.5 63t82.5 22q31 0 53 -11l-52 -180q-18 28 -51 28t-67.5 -20t-58.5 -64l-24 -127q-12 -47 -11.5 -83t19.5 -57h-223z" />
    <glyph glyph-name="uni0156" unicode="&#x156;" horiz-adv-x="674" 
d="M-3 0q31 20 47 60.5t29 105.5l60 316q26 135 -11 167h300q102 0 165.5 -44.5t63.5 -131.5q0 -72 -41 -134t-110 -91l22 -61q51 -147 94 -187h-273q9 8 12.5 18t1.5 27.5t-5 30.5t-11.5 43t-13.5 49l-14 42h-43l-8 -44q-25 -131 3 -166h-268zM299 359h54q52 0 81 22.5
t29 62.5q0 55 -81 55h-56zM196 -256l-8 46q33 3 56.5 21t25.5 37h-4q-23 0 -38.5 11.5t-15.5 31.5q0 26 21 42t54 16q31 0 47.5 -15.5t16.5 -43.5q0 -54 -46 -98t-109 -48z" />
    <glyph glyph-name="uni0157" unicode="&#x157;" horiz-adv-x="450" 
d="M20 0l71 365q12 53 11 86.5t-21 51.5h208l-11 -74h8q26 41 66.5 63t82.5 22q31 0 53 -11l-52 -180q-18 28 -51 28t-67.5 -20t-58.5 -64l-24 -127q-12 -47 -11.5 -83t19.5 -57h-223zM16 -256l-8 46q33 3 56.5 21t25.5 37h-4q-23 0 -38.5 11.5t-15.5 31.5q0 26 21 42t54 16
q31 0 47.5 -15.5t16.5 -43.5q0 -54 -46 -98t-109 -48z" />
    <glyph glyph-name="Rcaron" unicode="&#x158;" horiz-adv-x="674" 
d="M331 685q-31 84 -85 133l58 52q59 -32 106 -98h4q66 61 147 98l40 -55q-76 -54 -136 -130h-134zM-3 0q31 20 47 60.5t29 105.5l60 316q26 135 -11 167h300q102 0 165.5 -44.5t63.5 -131.5q0 -72 -41 -134t-110 -91l22 -61q51 -147 94 -187h-273q9 8 12.5 18t1.5 27.5
t-5 30.5t-11.5 43t-13.5 49l-14 42h-43l-8 -44q-25 -131 3 -166h-268zM299 359h54q52 0 81 22.5t29 62.5q0 55 -81 55h-56z" />
    <glyph glyph-name="rcaron" unicode="&#x159;" horiz-adv-x="450" 
d="M214 564q-31 84 -85 133l58 52q59 -32 106 -98h4q66 61 147 98l40 -55q-76 -54 -136 -130h-134zM20 0l71 365q12 53 11 86.5t-21 51.5h208l-11 -74h8q26 41 66.5 63t82.5 22q31 0 53 -11l-52 -180q-18 28 -51 28t-67.5 -20t-58.5 -64l-24 -127q-12 -47 -11.5 -83
t19.5 -57h-223z" />
    <glyph glyph-name="Sacute" unicode="&#x15a;" horiz-adv-x="552" 
d="M311 691l-33 75q101 47 207 155l56 -103q-78 -83 -230 -127zM234 -12q-57 0 -134.5 18.5t-105.5 12.5l90 210q18 -37 68.5 -65t103.5 -28q29 0 45.5 12t16.5 32q0 15 -13.5 27t-45.5 26l-52 23q-129 57 -129 180q0 104 74.5 164.5t188.5 60.5q51 0 114 -13t86 -9
l-78 -197q-25 27 -61.5 45t-72.5 19q-25 1 -40 -9.5t-15 -28.5q0 -16 14.5 -27.5t51.5 -27.5l48 -21q125 -55 125 -179q0 -109 -76.5 -167t-202.5 -58z" />
    <glyph glyph-name="sacute" unicode="&#x15b;" horiz-adv-x="467" 
d="M238 570l-33 75q101 47 207 155l56 -103q-78 -83 -230 -127zM189 -12q-55 0 -118.5 14.5t-81.5 14.5l83 175q16 -33 51.5 -56t72.5 -23q42 0 42 29q0 13 -10.5 21t-39.5 20l-23 9q-48 18 -78 54t-30 87q0 80 62 130.5t151 50.5q41 0 100 -14t74 -15l-77 -151
q-16 23 -43 38t-53 15q-37 0 -37 -25q0 -12 10 -20.5t36 -17.5l22 -9q117 -41 117 -140q0 -87 -64 -137t-166 -50z" />
    <glyph glyph-name="Scedilla" unicode="&#x15e;" horiz-adv-x="552" 
d="M388 392q125 -55 125 -179q0 -104 -70.5 -162t-188.5 -63l-13 -46q82 -8 82 -63q0 -57 -59 -88.5t-164 -31.5l3 72q109 -15 109 39q0 29 -61 35l51 84q-41 3 -110.5 20t-97.5 10l90 210q18 -37 68.5 -65t103.5 -28q29 0 45.5 12t16.5 32q0 15 -13.5 27t-45.5 26l-52 23
q-129 57 -129 180q0 104 74.5 164.5t188.5 60.5q51 0 114 -13t86 -9l-78 -197q-25 27 -61.5 45t-72.5 19q-25 1 -40 -9.5t-15 -28.5q0 -16 14.5 -27.5t51.5 -27.5z" />
    <glyph glyph-name="scedilla" unicode="&#x15f;" horiz-adv-x="467" 
d="M302 315q117 -41 117 -140q0 -84 -59 -133t-154 -54l-13 -46q82 -8 82 -63q0 -57 -59 -88.5t-164 -31.5l3 72q109 -15 109 39q0 29 -61 35l51 84q-40 3 -93 15.5t-72 12.5l83 175q16 -33 51.5 -56t72.5 -23q42 0 42 29q0 13 -10.5 21t-39.5 20l-23 9q-48 18 -78 54
t-30 87q0 80 62 130.5t151 50.5q41 0 100 -14t74 -15l-77 -151q-16 23 -43 38t-53 15q-37 0 -37 -25q0 -12 10 -20.5t36 -17.5z" />
    <glyph glyph-name="Scaron" unicode="&#x160;" horiz-adv-x="552" 
d="M284 685q-31 84 -85 133l58 52q59 -32 106 -98h4q66 61 147 98l40 -55q-76 -54 -136 -130h-134zM234 -12q-57 0 -134.5 18.5t-105.5 12.5l90 210q18 -37 68.5 -65t103.5 -28q29 0 45.5 12t16.5 32q0 15 -13.5 27t-45.5 26l-52 23q-129 57 -129 180q0 104 74.5 164.5
t188.5 60.5q51 0 114 -13t86 -9l-78 -197q-25 27 -61.5 45t-72.5 19q-25 1 -40 -9.5t-15 -28.5q0 -16 14.5 -27.5t51.5 -27.5l48 -21q125 -55 125 -179q0 -109 -76.5 -167t-202.5 -58z" />
    <glyph glyph-name="scaron" unicode="&#x161;" horiz-adv-x="467" 
d="M211 564q-31 84 -85 133l58 52q59 -32 106 -98h4q66 61 147 98l40 -55q-76 -54 -136 -130h-134zM189 -12q-55 0 -118.5 14.5t-81.5 14.5l83 175q16 -33 51.5 -56t72.5 -23q42 0 42 29q0 13 -10.5 21t-39.5 20l-23 9q-48 18 -78 54t-30 87q0 80 62 130.5t151 50.5
q41 0 100 -14t74 -15l-77 -151q-16 23 -43 38t-53 15q-37 0 -37 -25q0 -12 10 -20.5t36 -17.5l22 -9q117 -41 117 -140q0 -87 -64 -137t-166 -50z" />
    <glyph glyph-name="uni0162" unicode="&#x162;" horiz-adv-x="574" 
d="M509 649q82 0 119 7l-36 -187q-34 21 -114 21h-49l-64 -324q-13 -64 -11 -105t23 -61h-118l-17 -58q82 -8 82 -63q0 -57 -59 -88.5t-164 -31.5l3 72q109 -15 109 39q0 29 -61 35l57 95h-108q28 22 45 60.5t29 105.5l63 324h-48q-80 0 -123 -21l36 187q36 -7 118 -7h288z
" />
    <glyph glyph-name="uni0163" unicode="&#x163;" horiz-adv-x="434" 
d="M295 359l-29 -145q-14 -77 29 -77q37 0 65 19l20 -153q-19 2 -62.5 -4.5t-72.5 -7.5l-14 -49q82 -8 82 -63q0 -57 -59 -88.5t-164 -31.5l3 72q109 -15 109 39q0 29 -61 35l53 89q-152 21 -118 206l31 159h-65l27 142l66 2l20 109h188l-21 -109h111l-28 -144h-110z" />
    <glyph glyph-name="Tcaron" unicode="&#x164;" horiz-adv-x="574" 
d="M309 687q-31 84 -85 133l58 52q59 -32 106 -98h4q66 61 147 98l40 -55q-76 -54 -136 -130h-134zM101 0q28 22 45 60.5t29 105.5l63 324h-48q-80 0 -123 -21l36 187q36 -7 118 -7h288q82 0 119 7l-36 -187q-34 21 -114 21h-49l-64 -324q-13 -64 -11 -105t23 -61h-276z" />
    <glyph glyph-name="tcaron" unicode="&#x165;" horiz-adv-x="399" 
d="M381 570l23 155h101l-74 -155h-50zM233 -9q-93 0 -135 51.5t-22 157.5l31 159h-65l27 142l66 2l20 109h188l-21 -109h111l-28 -144h-110l-29 -145q-14 -77 29 -77q37 0 65 19l20 -153q-18 1 -65 -5.5t-82 -6.5z" />
    <glyph glyph-name="Tbar" unicode="&#x166;" horiz-adv-x="574" 
d="M509 649q82 0 119 7l-36 -187q-34 21 -114 21h-49l-31 -159h68l-17 -90h-69l-15 -75q-13 -64 -11 -105t23 -61h-276q28 22 45 60.5t29 105.5l15 75h-77l17 90h77l31 159h-48q-80 0 -123 -21l36 187q36 -7 118 -7h288z" />
    <glyph glyph-name="tbar" unicode="&#x167;" horiz-adv-x="399" 
d="M405 359h-110l-12 -60h95l-15 -66h-93l-4 -19q-14 -77 29 -77q37 0 65 19l20 -153q-18 1 -65 -5.5t-82 -6.5q-93 0 -135 51.5t-22 157.5l6 33h-57l15 66h55l12 60h-65l27 142l66 2l20 109h188l-21 -109h111z" />
    <glyph glyph-name="Umacron" unicode="&#x16a;" horiz-adv-x="706" 
d="M317 725l17 87h266l-17 -87h-266zM308 -12q-134 0 -192 75t-33 203l42 216q12 46 11.5 95.5t-23.5 71.5h277q-28 -22 -45 -59t-30 -108l-38 -193q-7 -42 -9 -72.5t14.5 -48t54.5 -17.5q51 0 76.5 32.5t39.5 104.5l37 194q27 131 -11 167h269q-51 -38 -75 -167l-42 -216
q-26 -133 -101.5 -205.5t-221.5 -72.5z" />
    <glyph glyph-name="umacron" unicode="&#x16b;" horiz-adv-x="614" 
d="M224 604l17 87h266l-17 -87h-266zM168 -12q-154 0 -117 195l35 180q12 55 11 88t-19 52h223l-56 -285q-8 -40 -1.5 -55.5t30.5 -15.5q42 0 72 46l33 170q12 57 12.5 86.5t-13.5 53.5h216l-69 -362q-1 -4 -3.5 -17t-3 -17.5t-2.5 -15.5t-2 -16t-1 -14.5t0 -14.5t2 -12.5
t3.5 -12.5t6 -10.5t8.5 -10.5h-215l10 52h-8q-59 -64 -152 -64z" />
    <glyph glyph-name="Uring" unicode="&#x16e;" horiz-adv-x="706" 
d="M440 675q-50 0 -77 22.5t-27 58.5q0 52 40.5 87t102.5 35q50 0 77 -22t27 -59q0 -52 -41 -87t-102 -35zM451 732q22 0 36.5 16t14.5 42q0 31 -34 31q-22 0 -36.5 -16t-14.5 -41q0 -32 34 -32zM308 -12q-134 0 -192 75t-33 203l42 216q12 46 11.5 95.5t-23.5 71.5h277
q-28 -22 -45 -59t-30 -108l-38 -193q-7 -42 -9 -72.5t14.5 -48t54.5 -17.5q51 0 76.5 32.5t39.5 104.5l37 194q27 131 -11 167h269q-51 -38 -75 -167l-42 -216q-26 -133 -101.5 -205.5t-221.5 -72.5z" />
    <glyph glyph-name="uring" unicode="&#x16f;" horiz-adv-x="614" 
d="M347 554q-50 0 -77 22.5t-27 58.5q0 52 40.5 87t102.5 35q50 0 77 -22t27 -59q0 -52 -41 -87t-102 -35zM358 611q22 0 36.5 16t14.5 42q0 31 -34 31q-22 0 -36.5 -16t-14.5 -41q0 -32 34 -32zM168 -12q-154 0 -117 195l35 180q12 55 11 88t-19 52h223l-56 -285
q-8 -40 -1.5 -55.5t30.5 -15.5q42 0 72 46l33 170q12 57 12.5 86.5t-13.5 53.5h216l-69 -362q-1 -4 -3.5 -17t-3 -17.5t-2.5 -15.5t-2 -16t-1 -14.5t0 -14.5t2 -12.5t3.5 -12.5t6 -10.5t8.5 -10.5h-215l10 52h-8q-59 -64 -152 -64z" />
    <glyph glyph-name="Uhungarumlaut" unicode="&#x170;" horiz-adv-x="706" 
d="M358 701l-70 37q77 68 133 165l89 -54q-64 -90 -152 -148zM548 701l-70 37q77 68 133 165l89 -54q-70 -93 -152 -148zM308 -12q-134 0 -192 75t-33 203l42 216q12 46 11.5 95.5t-23.5 71.5h277q-28 -22 -45 -59t-30 -108l-38 -193q-7 -42 -9 -72.5t14.5 -48t54.5 -17.5
q51 0 76.5 32.5t39.5 104.5l37 194q27 131 -11 167h269q-51 -38 -75 -167l-42 -216q-26 -133 -101.5 -205.5t-221.5 -72.5z" />
    <glyph glyph-name="uhungarumlaut" unicode="&#x171;" horiz-adv-x="614" 
d="M264 580l-70 37q77 68 133 165l89 -54q-64 -90 -152 -148zM454 580l-70 37q77 68 133 165l89 -54q-70 -93 -152 -148zM168 -12q-154 0 -117 195l35 180q12 55 11 88t-19 52h223l-56 -285q-8 -40 -1.5 -55.5t30.5 -15.5q42 0 72 46l33 170q12 57 12.5 86.5t-13.5 53.5h216
l-69 -362q-1 -4 -3.5 -17t-3 -17.5t-2.5 -15.5t-2 -16t-1 -14.5t0 -14.5t2 -12.5t3.5 -12.5t6 -10.5t8.5 -10.5h-215l10 52h-8q-59 -64 -152 -64z" />
    <glyph glyph-name="Uogonek" unicode="&#x172;" horiz-adv-x="706" 
d="M479 649h269q-51 -38 -75 -167l-42 -216q-36 -187 -165 -248q-27 -21 -44.5 -45.5t-17.5 -43.5q0 -24 25 -24q23 0 38 17l27 -51q-45 -45 -108 -45q-39 0 -63 18.5t-24 50.5q0 50 51 95q-28 -2 -42 -2q-134 0 -192 75t-33 203l42 216q12 46 11.5 95.5t-23.5 71.5h277
q-28 -22 -45 -59t-30 -108l-38 -193q-7 -42 -9 -72.5t14.5 -48t54.5 -17.5q51 0 76.5 32.5t39.5 104.5l37 194q27 131 -11 167z" />
    <glyph glyph-name="uogonek" unicode="&#x173;" horiz-adv-x="614" 
d="M533 0q-37 -21 -63.5 -53t-26.5 -55q0 -24 25 -24q23 0 38 17l27 -51q-45 -45 -108 -45q-39 0 -63 18.5t-24 50.5q0 39 33 77t91 65h-144l10 52h-8q-59 -64 -152 -64q-154 0 -117 195l35 180q12 55 11 88t-19 52h223l-56 -285q-8 -40 -1.5 -55.5t30.5 -15.5q42 0 72 46
l33 170q12 57 12.5 86.5t-13.5 53.5h216l-69 -362q-1 -4 -3.5 -17t-3 -17.5t-2.5 -15.5t-2 -16t-1 -14.5t0 -14.5t2 -12.5t3.5 -12.5t6 -10.5t8.5 -10.5z" />
    <glyph glyph-name="Wcircumflex" unicode="&#x174;" horiz-adv-x="958" 
d="M583 782q-57 -59 -146 -98l-48 55q81 58 133 130h148q27 -67 86 -130l-62 -55q-69 39 -107 98h-4zM795 649h224q-26 -32 -55 -113l-143 -410q-32 -91 -24 -126h-319q22 44 22 125l-1 217l-86 -217q-35 -92 -25 -125h-316q22 33 25 126l9 410q2 84 -13 113h248
q-16 -20 -22 -42t-9 -63l-25 -336l141 358q20 48 15 83h249q-17 -36 -15 -83l5 -359l104 336q1 2 4 11.5t3.5 12.5t3 11t3 11t2 10.5t1.5 11t0.5 9.5t-0.5 10t-2.5 9t-3.5 10z" />
    <glyph glyph-name="wcircumflex" unicode="&#x175;" horiz-adv-x="961" 
d="M414 563l-48 55q81 58 133 130h148q27 -67 86 -130l-62 -55q-69 39 -107 98h-4q-57 -59 -146 -98zM112 0l-26 379q-4 63 -9 86t-18 38h196l9 -171q7 -149 3 -198h8q8 42 18.5 72.5t40.5 92.5q22 47 46 111.5t28 92.5h258l11 -171q8 -143 1 -198h8q3 15 33.5 93.5
t57 159.5t24.5 116h183q-18 -71 -107 -271.5t-95 -231.5h-260l-12 240q-3 78 1 105h-6q-5 -35 -35 -104q-83 -193 -97 -241h-261z" />
    <glyph glyph-name="Ycircumflex" unicode="&#x176;" horiz-adv-x="640" 
d="M423 782q-57 -59 -146 -98l-48 55q81 58 133 130h148q27 -67 86 -130l-62 -55q-69 39 -107 98h-4zM460 649h242q-34 -28 -69 -80l-226 -356l-10 -47q-12 -53 -12 -99t21 -67h-276q46 39 76 164l11 48l-86 356q-9 34 -15 48t-23 33h254q-17 -20 -21 -40t2 -61l21 -167
l90 167q20 38 24.5 57.5t-3.5 43.5z" />
    <glyph glyph-name="ycircumflex" unicode="&#x177;" horiz-adv-x="575" 
d="M225 563l-48 55q81 58 133 130h148q27 -67 86 -130l-62 -55q-69 39 -107 98h-4q-57 -59 -146 -98zM113 -200q-35 0 -70 5.5t-47 2.5l70 183q6 -19 28 -34.5t44 -15.5q47 0 59 52l2 7l-79 328q-30 137 -65 175h211l40 -268q7 -41 7 -67h8q8 32 20 64l46 141q31 97 16 130
h198l-217 -524q-73 -179 -271 -179z" />
    <glyph glyph-name="Ydieresis" unicode="&#x178;" horiz-adv-x="640" 
d="M299 711q-27 0 -43.5 16t-16.5 41q0 36 27 63t63 27q27 0 43.5 -16.5t16.5 -41.5q0 -36 -26.5 -62.5t-63.5 -26.5zM521 711q-27 0 -43.5 16t-16.5 41q0 36 27 63t62 27q28 0 44.5 -16.5t16.5 -41.5q0 -36 -26.5 -62.5t-63.5 -26.5zM460 649h242q-34 -28 -69 -80
l-226 -356l-10 -47q-12 -53 -12 -99t21 -67h-276q46 39 76 164l11 48l-86 356q-9 34 -15 48t-23 33h254q-17 -20 -21 -40t2 -61l21 -167l90 167q20 38 24.5 57.5t-3.5 43.5z" />
    <glyph glyph-name="Zacute" unicode="&#x179;" horiz-adv-x="582" 
d="M558 820q-78 -83 -230 -127l-33 75q101 47 207 155zM273 649h317l-27 -136q-15 -8 -29.5 -24.5t-55.5 -66.5l-217 -264h113q106 0 144 30l-37 -195q-35 7 -138 7h-347l27 135q23 14 41.5 33t69.5 81l198 241h-89q-93 0 -131 -32l38 198q35 -7 123 -7z" />
    <glyph glyph-name="zacute" unicode="&#x17a;" horiz-adv-x="468" 
d="M466 697q-78 -83 -230 -127l-33 75q101 47 207 155zM475 503l-17 -111l-212 -255h57q75 0 120 20l-28 -157h-412l17 108l211 258h-47q-61 0 -99 -21l28 158h382z" />
    <glyph glyph-name="Zdotaccent" unicode="&#x17b;" horiz-adv-x="582" 
d="M372 712q-70 -1 -70 55q0 41 27 66.5t71 25.5q69 0 69 -56q0 -41 -26 -65.5t-71 -25.5zM273 649h317l-27 -136q-15 -8 -29.5 -24.5t-55.5 -66.5l-217 -264h113q106 0 144 30l-37 -195q-35 7 -138 7h-347l27 135q23 14 41.5 33t69.5 81l198 241h-89q-93 0 -131 -32l38 198
q35 -7 123 -7z" />
    <glyph glyph-name="zdotaccent" unicode="&#x17c;" horiz-adv-x="468" 
d="M279 589q-70 -1 -70 55q0 41 27 66.5t71 25.5q69 0 69 -56q0 -41 -26 -65.5t-71 -25.5zM475 503l-17 -111l-212 -255h57q75 0 120 20l-28 -157h-412l17 108l211 258h-47q-61 0 -99 -21l28 158h382z" />
    <glyph glyph-name="Zcaron" unicode="&#x17d;" horiz-adv-x="582" 
d="M301 687q-31 84 -85 133l58 52q59 -32 106 -98h4q66 61 147 98l40 -55q-76 -54 -136 -130h-134zM273 649h317l-27 -136q-15 -8 -29.5 -24.5t-55.5 -66.5l-217 -264h113q106 0 144 30l-37 -195q-35 7 -138 7h-347l27 135q23 14 41.5 33t69.5 81l198 241h-89
q-93 0 -131 -32l38 198q35 -7 123 -7z" />
    <glyph glyph-name="zcaron" unicode="&#x17e;" horiz-adv-x="468" 
d="M209 564q-31 84 -85 133l58 52q59 -32 106 -98h4q66 61 147 98l40 -55q-76 -54 -136 -130h-134zM65 345l28 158h382l-17 -111l-212 -255h57q75 0 120 20l-28 -157h-412l17 108l211 258h-47q-61 0 -99 -21z" />
    <glyph glyph-name="florin" unicode="&#x192;" horiz-adv-x="580" 
d="M512 637q19 0 59 -3.5t52 -1.5l-50 -159q-8 11 -29.5 21.5t-44.5 10.5q-57 0 -80 -78l-13 -45h52q41 0 58 10l-17 -91q-13 10 -54 10h-58l-22 -77q-38 -134 -99.5 -190t-182.5 -56q-19 0 -54 3t-47 1l51 159q7 -12 24.5 -22t38.5 -10q25 0 41 17.5t28 60.5l31 114h-14
q-39 0 -58 -10l18 91q14 -10 54 -10h19l2 8q33 127 99 187t196 60z" />
    <glyph glyph-name="uni0218" unicode="&#x218;" horiz-adv-x="552" 
d="M234 -12q-57 0 -134.5 18.5t-105.5 12.5l90 210q18 -37 68.5 -65t103.5 -28q29 0 45.5 12t16.5 32q0 15 -13.5 27t-45.5 26l-52 23q-129 57 -129 180q0 104 74.5 164.5t188.5 60.5q51 0 114 -13t86 -9l-78 -197q-25 27 -61.5 45t-72.5 19q-25 1 -40 -9.5t-15 -28.5
q0 -16 14.5 -27.5t51.5 -27.5l48 -21q125 -55 125 -179q0 -109 -76.5 -167t-202.5 -58zM140 -256l-8 46q33 3 56.5 21t25.5 37h-4q-23 0 -38.5 11.5t-15.5 31.5q0 26 21 42t54 16q31 0 47.5 -15.5t16.5 -43.5q0 -54 -46 -98t-109 -48z" />
    <glyph glyph-name="uni0219" unicode="&#x219;" horiz-adv-x="467" 
d="M189 -12q-55 0 -118.5 14.5t-81.5 14.5l83 175q16 -33 51.5 -56t72.5 -23q42 0 42 29q0 13 -10.5 21t-39.5 20l-23 9q-48 18 -78 54t-30 87q0 80 62 130.5t151 50.5q41 0 100 -14t74 -15l-77 -151q-16 23 -43 38t-53 15q-37 0 -37 -25q0 -12 10 -20.5t36 -17.5l22 -9
q117 -41 117 -140q0 -87 -64 -137t-166 -50zM92 -256l-8 46q33 3 56.5 21t25.5 37h-4q-23 0 -38.5 11.5t-15.5 31.5q0 26 21 42t54 16q31 0 47.5 -15.5t16.5 -43.5q0 -54 -46 -98t-109 -48z" />
    <glyph glyph-name="uni021A" unicode="&#x21a;" horiz-adv-x="574" 
d="M101 0q28 22 45 60.5t29 105.5l63 324h-48q-80 0 -123 -21l36 187q36 -7 118 -7h288q82 0 119 7l-36 -187q-34 21 -114 21h-49l-64 -324q-13 -64 -11 -105t23 -61h-276zM142 -256l-8 46q33 3 56.5 21t25.5 37h-4q-23 0 -38.5 11.5t-15.5 31.5q0 26 21 42t54 16
q31 0 47.5 -15.5t16.5 -43.5q0 -54 -46 -98t-109 -48z" />
    <glyph glyph-name="uni021B" unicode="&#x21b;" horiz-adv-x="434" 
d="M233 -9q-93 0 -135 51.5t-22 157.5l31 159h-65l27 142l66 2l20 109h188l-21 -109h111l-28 -144h-110l-29 -145q-14 -77 29 -77q37 0 65 19l20 -153q-18 1 -65 -5.5t-82 -6.5zM130 -256l-8 46q33 3 56.5 21t25.5 37h-4q-23 0 -38.5 11.5t-15.5 31.5q0 26 21 42t54 16
q31 0 47.5 -15.5t16.5 -43.5q0 -54 -46 -98t-109 -48z" />
    <glyph glyph-name="circumflex" unicode="&#x2c6;" horiz-adv-x="530" 
d="M200 560l-48 55q81 58 133 130h148q27 -67 86 -130l-62 -55q-69 39 -107 98h-4q-57 -59 -146 -98z" />
    <glyph glyph-name="caron" unicode="&#x2c7;" horiz-adv-x="530" 
d="M264 561q-31 84 -85 133l58 52q59 -32 106 -98h4q66 61 147 98l40 -55q-76 -54 -136 -130h-134z" />
    <glyph glyph-name="breve" unicode="&#x2d8;" horiz-adv-x="469" 
d="M301 561q-72 0 -108 42t-21 115h84q-2 -66 59 -66q59 0 79 66h84q-25 -157 -177 -157z" />
    <glyph glyph-name="dotaccent" unicode="&#x2d9;" horiz-adv-x="325" 
d="M229 586q-70 -1 -70 55q0 41 27 66.5t71 25.5q69 0 69 -56q0 -41 -26 -65.5t-71 -25.5z" />
    <glyph glyph-name="ring" unicode="&#x2da;" horiz-adv-x="405" 
d="M262 551q-50 0 -77 22.5t-27 58.5q0 52 40.5 87t102.5 35q50 0 77 -22t27 -59q0 -52 -41 -87t-102 -35zM273 608q22 0 36.5 16t14.5 42q0 31 -34 31q-22 0 -36.5 -16t-14.5 -41q0 -32 34 -32z" />
    <glyph glyph-name="ogonek" unicode="&#x2db;" horiz-adv-x="365" 
d="M97 -208q-39 0 -63 18.5t-24 50.5q0 43 39 83.5t106 67.5l50 -9q-37 -21 -63.5 -53t-26.5 -55q0 -24 25 -24q23 0 38 17l27 -51q-45 -45 -108 -45z" />
    <glyph glyph-name="tilde" unicode="&#x2dc;" horiz-adv-x="577" 
d="M432 579q-26 0 -49 10t-35.5 21.5t-25.5 21.5t-23 10q-15 0 -21.5 -14t0.5 -39l-101 7q11 74 46 110.5t84 36.5q34 0 60.5 -16t43.5 -32t28 -16q15 0 22.5 14.5t1.5 39.5l98 -8q-10 -74 -45 -110t-84 -36z" />
    <glyph glyph-name="hungarumlaut" unicode="&#x2dd;" horiz-adv-x="527" 
d="M222 577l-70 37q77 68 133 165l89 -54q-64 -90 -152 -148zM412 577l-70 37q77 68 133 165l89 -54q-70 -93 -152 -148z" />
    <glyph glyph-name="gravecomb" unicode="&#x300;" 
d="M-90 573q-54 12 -107.5 45t-76.5 76l90 95q24 -50 63 -90t83 -64z" />
    <glyph glyph-name="acutecomb" unicode="&#x301;" 
d="M-320 567l-33 75q101 47 207 155l56 -103q-78 -83 -230 -127z" />
    <glyph glyph-name="uni0302" unicode="&#x302;" 
d="M-342 560l-48 55q81 58 133 130h148q27 -67 86 -130l-62 -55q-69 39 -107 98h-4q-57 -59 -146 -98z" />
    <glyph glyph-name="tildecomb" unicode="&#x303;" 
d="M-110 579q-26 0 -49 10t-35.5 21.5t-25.5 21.5t-23 10q-15 0 -21.5 -14t0.5 -39l-101 7q11 74 46 110.5t84 36.5q34 0 60.5 -16t43.5 -32t28 -16q15 0 22.5 14.5t1.5 39.5l98 -8q-10 -74 -45 -110t-84 -36z" />
    <glyph glyph-name="uni0304" unicode="&#x304;" 
d="M-393 599l17 87h266l-17 -87h-266z" />
    <glyph glyph-name="uni0306" unicode="&#x306;" 
d="M-241 561q-72 0 -108 42t-21 115h84q-2 -66 59 -66q59 0 79 66h84q-25 -157 -177 -157z" />
    <glyph glyph-name="uni0307" unicode="&#x307;" 
d="M-313 586q-70 -1 -70 55q0 41 27 66.5t71 25.5q69 0 69 -56q0 -41 -26 -65.5t-71 -25.5z" />
    <glyph glyph-name="uni0308" unicode="&#x308;" 
d="M-323 587q-27 0 -43.5 16t-16.5 41q0 36 27 63t63 27q27 0 43.5 -16.5t16.5 -41.5q0 -36 -26.5 -62.5t-63.5 -26.5zM-101 587q-27 0 -43.5 16t-16.5 41q0 36 27 63t62 27q28 0 44.5 -16.5t16.5 -41.5q0 -36 -26.5 -62.5t-63.5 -26.5z" />
    <glyph glyph-name="uni030A" unicode="&#x30a;" 
d="M-253 551q-50 0 -77 22.5t-27 58.5q0 52 40.5 87t102.5 35q50 0 77 -22t27 -59q0 -52 -41 -87t-102 -35zM-242 608q22 0 36.5 16t14.5 42q0 31 -34 31q-22 0 -36.5 -16t-14.5 -41q0 -32 34 -32z" />
    <glyph glyph-name="uni030B" unicode="&#x30b;" 
d="M-320 577l-70 37q77 68 133 165l89 -54q-64 -90 -152 -148zM-130 577l-70 37q77 68 133 165l89 -54q-70 -93 -152 -148z" />
    <glyph glyph-name="uni030C" unicode="&#x30c;" 
d="M-278 561q-31 84 -85 133l58 52q59 -32 106 -98h4q66 61 147 98l40 -55q-76 -54 -136 -130h-134z" />
    <glyph glyph-name="uni0312" unicode="&#x312;" 
d="M-106 562q-82 0 -82 64q0 65 58 115.5t137 54.5l9 -53q-40 -2 -69 -22.5t-34 -42.5h7q28 0 48 -13t20 -36q0 -29 -26.5 -48t-67.5 -19z" />
    <glyph glyph-name="uni0326" unicode="&#x326;" 
d="M-328 -256l-8 46q33 3 56.5 21t25.5 37h-4q-23 0 -38.5 11.5t-15.5 31.5q0 26 21 42t54 16q31 0 47.5 -15.5t16.5 -43.5q0 -54 -46 -98t-109 -48z" />
    <glyph glyph-name="uni0327" unicode="&#x327;" 
d="M-377 -241l3 72q109 -15 109 39q0 29 -61 35l62 103h47l-19 -66q82 -8 82 -63q0 -57 -59 -88.5t-164 -31.5z" />
    <glyph glyph-name="uni0328" unicode="&#x328;" 
d="M-291 -208q-39 0 -63 18.5t-24 50.5q0 43 39 83.5t106 67.5l50 -9q-37 -21 -63.5 -53t-26.5 -55q0 -24 25 -24q23 0 38 17l27 -51q-45 -45 -108 -45z" />
    <glyph glyph-name="uni0394" unicode="&#x394;" horiz-adv-x="667" 
d="M585 516l43 -413l-32 -103h-556l8 103l206 413q23 49 31 75.5t7 57.5h307q-12 -30 -15 -55.5t1 -77.5zM255 148h178l-19 361h-3z" />
    <glyph glyph-name="uni03A9" unicode="&#x3a9;" horiz-adv-x="780" 
d="M577 123h28q66 0 84 14l-30 -151q-11 14 -78 14h-196l10 53l14 70l3 13q52 26 89.5 106t37.5 163q0 92 -89 92q-69 0 -111 -68t-42 -181q0 -82 52 -112l-10 -48l-17 -88h-196q-68 0 -83 -14l29 151q10 -14 78 -14h26q-63 71 -63 181q0 153 105.5 255t263.5 102
q119 0 187.5 -60t68.5 -162q0 -90 -44.5 -175t-116.5 -141z" />
    <glyph glyph-name="uni03BC" unicode="&#x3bc;" horiz-adv-x="598" 
d="M602 144q-12 -54 -11 -89t21 -55h-217q1 19 8 53h-9q-43 -50 -114 -62l-1 -3q-24 -130 -2 -166h-263q28 20 44.5 57.5t30.5 108.5l43 221l30 151q12 48 11.5 85t-21.5 58h228l-60 -308q-10 -46 29 -46q44 0 72 47l33 164q12 45 11.5 84t-22.5 59h228z" />
    <glyph glyph-name="pi" unicode="&#x3c0;" horiz-adv-x="758" 
d="M536 -12q-81 0 -120 26.5t-42 75.5t10 119l26 137h-85l-35 -180q-25 -131 -1 -166h-264q28 20 45 58.5t31 107.5l35 180h-8q-51 0 -86 -21l37 187q29 -8 79 -8h481q57 0 90 8l-36 -187q-27 21 -84 21h-9l-27 -143q-15 -75 19 -75q24 0 46 12l-5 -146q-17 1 -47.5 -2.5
t-49.5 -3.5z" />
    <glyph glyph-name="Wgrave" unicode="&#x1e80;" horiz-adv-x="958" 
d="M608 697q-54 12 -107.5 45t-76.5 76l90 95q24 -50 63 -90t83 -64zM795 649h224q-26 -32 -55 -113l-143 -410q-32 -91 -24 -126h-319q22 44 22 125l-1 217l-86 -217q-35 -92 -25 -125h-316q22 33 25 126l9 410q2 84 -13 113h248q-16 -20 -22 -42t-9 -63l-25 -336l141 358
q20 48 15 83h249q-17 -36 -15 -83l5 -359l104 336q1 2 4 11.5t3.5 12.5t3 11t3 11t2 10.5t1.5 11t0.5 9.5t-0.5 10t-2.5 9t-3.5 10z" />
    <glyph glyph-name="wgrave" unicode="&#x1e81;" horiz-adv-x="961" 
d="M585 576q-54 12 -107.5 45t-76.5 76l90 95q24 -50 63 -90t83 -64zM112 0l-26 379q-4 63 -9 86t-18 38h196l9 -171q7 -149 3 -198h8q8 42 18.5 72.5t40.5 92.5q22 47 46 111.5t28 92.5h258l11 -171q8 -143 1 -198h8q3 15 33.5 93.5t57 159.5t24.5 116h183
q-18 -71 -107 -271.5t-95 -231.5h-260l-12 240q-3 78 1 105h-6q-5 -35 -35 -104q-83 -193 -97 -241h-261z" />
    <glyph glyph-name="Wacute" unicode="&#x1e82;" horiz-adv-x="958" 
d="M759 818q-78 -83 -230 -127l-33 75q101 47 207 155zM795 649h224q-26 -32 -55 -113l-143 -410q-32 -91 -24 -126h-319q22 44 22 125l-1 217l-86 -217q-35 -92 -25 -125h-316q22 33 25 126l9 410q2 84 -13 113h248q-16 -20 -22 -42t-9 -63l-25 -336l141 358q20 48 15 83
h249q-17 -36 -15 -83l5 -359l104 336q1 2 4 11.5t3.5 12.5t3 11t3 11t2 10.5t1.5 11t0.5 9.5t-0.5 10t-2.5 9t-3.5 10z" />
    <glyph glyph-name="wacute" unicode="&#x1e83;" horiz-adv-x="961" 
d="M505 570l-33 75q101 47 207 155l56 -103q-78 -83 -230 -127zM112 0l-26 379q-4 63 -9 86t-18 38h196l9 -171q7 -149 3 -198h8q8 42 18.5 72.5t40.5 92.5q22 47 46 111.5t28 92.5h258l11 -171q8 -143 1 -198h8q3 15 33.5 93.5t57 159.5t24.5 116h183q-18 -71 -107 -271.5
t-95 -231.5h-260l-12 240q-3 78 1 105h-6q-5 -35 -35 -104q-83 -193 -97 -241h-261z" />
    <glyph glyph-name="Wdieresis" unicode="&#x1e84;" horiz-adv-x="958" 
d="M460 711q-27 0 -43.5 16t-16.5 41q0 36 27 63t63 27q27 0 43.5 -16.5t16.5 -41.5q0 -36 -26.5 -62.5t-63.5 -26.5zM682 711q-27 0 -43.5 16t-16.5 41q0 36 27 63t62 27q28 0 44.5 -16.5t16.5 -41.5q0 -36 -26.5 -62.5t-63.5 -26.5zM795 649h224q-26 -32 -55 -113
l-143 -410q-32 -91 -24 -126h-319q22 44 22 125l-1 217l-86 -217q-35 -92 -25 -125h-316q22 33 25 126l9 410q2 84 -13 113h248q-16 -20 -22 -42t-9 -63l-25 -336l141 358q20 48 15 83h249q-17 -36 -15 -83l5 -359l104 336q1 2 4 11.5t3.5 12.5t3 11t3 11t2 10.5t1.5 11
t0.5 9.5t-0.5 10t-2.5 9t-3.5 10z" />
    <glyph glyph-name="wdieresis" unicode="&#x1e85;" horiz-adv-x="961" 
d="M436 590q-27 0 -43.5 16t-16.5 41q0 36 27 63t63 27q27 0 43.5 -16.5t16.5 -41.5q0 -36 -26.5 -62.5t-63.5 -26.5zM658 590q-27 0 -43.5 16t-16.5 41q0 36 27 63t62 27q28 0 44.5 -16.5t16.5 -41.5q0 -36 -26.5 -62.5t-63.5 -26.5zM112 0l-26 379q-4 63 -9 86t-18 38h196
l9 -171q7 -149 3 -198h8q8 42 18.5 72.5t40.5 92.5q22 47 46 111.5t28 92.5h258l11 -171q8 -143 1 -198h8q3 15 33.5 93.5t57 159.5t24.5 116h183q-18 -71 -107 -271.5t-95 -231.5h-260l-12 240q-3 78 1 105h-6q-5 -35 -35 -104q-83 -193 -97 -241h-261z" />
    <glyph glyph-name="uni1E9E" unicode="&#x1e9e;" horiz-adv-x="735" 
d="M453 -12q-38 0 -82.5 14.5t-65.5 12.5l75 172q23 -52 69 -52q21 0 33.5 11.5t12.5 30.5q0 26 -29.5 45.5t-84.5 27.5l18 100l94 115q-2 18 -21 31t-48 13q-46 0 -79.5 -37t-47.5 -110l-38 -196q-13 -49 -12.5 -96.5t23.5 -69.5h-277q29 20 46 58.5t30 107.5l42 211
q54 284 323 284q108 0 170.5 -62t60.5 -140l-88 -102q48 -14 80.5 -56.5t32.5 -98.5q0 -102 -66 -158t-171 -56z" />
    <glyph glyph-name="Ygrave" unicode="&#x1ef2;" horiz-adv-x="640" 
d="M448 697q-54 12 -107.5 45t-76.5 76l90 95q24 -50 63 -90t83 -64zM460 649h242q-34 -28 -69 -80l-226 -356l-10 -47q-12 -53 -12 -99t21 -67h-276q46 39 76 164l11 48l-86 356q-9 34 -15 48t-23 33h254q-17 -20 -21 -40t2 -61l21 -167l90 167q20 38 24.5 57.5t-3.5 43.5z
" />
    <glyph glyph-name="ygrave" unicode="&#x1ef3;" horiz-adv-x="575" 
d="M396 576q-54 12 -107.5 45t-76.5 76l90 95q24 -50 63 -90t83 -64zM113 -200q-35 0 -70 5.5t-47 2.5l70 183q6 -19 28 -34.5t44 -15.5q47 0 59 52l2 7l-79 328q-30 137 -65 175h211l40 -268q7 -41 7 -67h8q8 32 20 64l46 141q31 97 16 130h198l-217 -524
q-73 -179 -271 -179z" />
    <glyph glyph-name="figuredash" unicode="&#x2012;" horiz-adv-x="521" 
d="M41 189l24 125h416l-24 -125h-416z" />
    <glyph glyph-name="endash" unicode="&#x2013;" horiz-adv-x="504" 
d="M41 189l24 125h398l-24 -125h-398z" />
    <glyph glyph-name="emdash" unicode="&#x2014;" horiz-adv-x="824" 
d="M41 189l24 125h718l-24 -125h-718z" />
    <glyph glyph-name="quoteleft" unicode="&#x2018;" horiz-adv-x="296" 
d="M316 724l24 -80q-107 -44 -124 -126q4 1 11 1q33 0 54 -18.5t21 -49.5q0 -46 -33.5 -81t-77.5 -35q-43 0 -65 26t-22 73q0 95 55.5 171t156.5 119z" />
    <glyph glyph-name="quoteright" unicode="&#x2019;" horiz-adv-x="305" 
d="M83 309l-23 79q107 44 124 127q-5 -1 -12 -1q-33 0 -53.5 19t-20.5 49q0 46 33 80.5t77 34.5q87 0 87 -99q0 -94 -55.5 -170t-156.5 -119z" />
    <glyph glyph-name="quotesinglbase" unicode="&#x201a;" horiz-adv-x="316" 
d="M-14 -204l-24 79q109 44 124 127q-4 -1 -11 -1q-33 0 -54 18.5t-21 49.5q0 46 33.5 80.5t77.5 34.5q43 0 65 -26t22 -73q0 -94 -55.5 -170t-156.5 -119z" />
    <glyph glyph-name="quotedblleft" unicode="&#x201c;" horiz-adv-x="529" 
d="M316 724l23 -80q-107 -44 -124 -126q5 1 12 1q33 0 54 -18.5t21 -49.5q0 -46 -33.5 -81t-77.5 -35q-43 0 -65 26t-22 73q0 95 55.5 171t156.5 119zM552 724l23 -80q-107 -44 -124 -126q5 1 11 1q33 0 54 -18.5t21 -49.5q0 -46 -33 -81t-78 -35q-43 0 -65 26t-22 73
q0 95 55.5 171t157.5 119z" />
    <glyph glyph-name="quotedblright" unicode="&#x201d;" horiz-adv-x="531" 
d="M83 309l-23 79q107 44 124 127q-5 -1 -12 -1q-33 0 -53.5 19t-20.5 49q0 46 33 80.5t77 34.5q87 0 87 -99q0 -94 -55.5 -170t-156.5 -119zM319 309l-23 79q108 45 123 127q-4 -1 -11 -1q-33 0 -54 18.5t-21 49.5q0 46 33.5 80.5t77.5 34.5q87 0 87 -99q0 -94 -55.5 -170
t-156.5 -119z" />
    <glyph glyph-name="quotedblbase" unicode="&#x201e;" horiz-adv-x="579" 
d="M-17 -202l-23 80q107 44 124 126q-5 -1 -11 -1q-33 0 -54 18.5t-21 49.5q0 46 33 81t78 35q43 0 65 -26t22 -73q0 -94 -56 -171t-157 -119zM219 -202l-23 80q107 44 124 126q-5 -1 -12 -1q-33 0 -54 18.5t-21 49.5q0 46 33.5 81t77.5 35q43 0 65 -26t22 -73
q0 -94 -55.5 -170.5t-156.5 -119.5z" />
    <glyph glyph-name="dagger" unicode="&#x2020;" horiz-adv-x="475" 
d="M95 176q18 26 33 105l32 160h-14q-68 0 -99 -14l28 148q25 -13 95 -13h13l5 28q14 82 8 105h159q-21 -33 -34 -105l-5 -28h14q69 0 98 13l-28 -148q-25 14 -94 14h-13l-32 -160q-15 -78 -6 -105h-160z" />
    <glyph glyph-name="daggerdbl" unicode="&#x2021;" horiz-adv-x="556" 
d="M125 176q22 38 32 97l3 17h-14q-68 0 -99 -14l27 140q23 -13 94 -13h14l12 65h-14q-66 0 -98 -13l26 139q25 -13 95 -13h13l3 17q12 74 6 97h160q-22 -33 -33 -97l-2 -17h13q69 0 99 13l-27 -139q-27 13 -95 13h-13l-12 -65h13q69 0 99 13l-27 -140q-25 14 -94 14h-13
l-3 -17q-12 -76 -6 -97h-159z" />
    <glyph glyph-name="bullet" unicode="&#x2022;" horiz-adv-x="426" 
d="M185 112q-56 0 -89 32.5t-33 81.5q0 74 50.5 127.5t128.5 53.5q56 0 89.5 -33t33.5 -81q0 -73 -50.5 -127t-129.5 -54z" />
    <glyph glyph-name="ellipsis" unicode="&#x2026;" horiz-adv-x="881" 
d="M101 -12q-37 0 -59.5 22t-22.5 54q0 50 34 85.5t87 35.5q37 0 59.5 -22t22.5 -54q0 -49 -33.5 -85t-87.5 -36zM391 -12q-37 0 -59.5 22t-22.5 54q0 50 33.5 85.5t86.5 35.5q38 0 60.5 -22t22.5 -54q0 -49 -33.5 -85t-87.5 -36zM681 -12q-37 0 -59.5 22t-22.5 54
q0 50 33.5 85.5t86.5 35.5q38 0 60.5 -22t22.5 -54q0 -49 -33.5 -85t-87.5 -36z" />
    <glyph glyph-name="perthousand" unicode="&#x2030;" horiz-adv-x="1381" 
d="M198 -12l493 680h136l-492 -680h-137zM209 254q-64 0 -101.5 34t-37.5 103q0 113 60.5 185t155.5 72q64 0 101.5 -33.5t37.5 -101.5q0 -112 -61 -185.5t-155 -73.5zM228 355q29 0 50 44t21 100q0 48 -34 48q-27 0 -48 -43t-21 -100q0 -49 32 -49zM721 -12
q-63 0 -100.5 34t-37.5 103q0 113 60.5 185t154.5 72q65 0 102.5 -33.5t37.5 -101.5q0 -112 -61.5 -185.5t-155.5 -73.5zM1122 -12q-64 0 -101.5 34t-37.5 103q0 113 61 185t155 72q64 0 101.5 -33.5t37.5 -101.5q0 -112 -61 -185.5t-155 -73.5zM741 89q28 0 49.5 44
t21.5 100q0 48 -34 48q-27 0 -48 -43t-21 -100q0 -49 32 -49zM1141 89q29 0 50 44t21 100q0 48 -33 48q-28 0 -49 -42.5t-21 -100.5q0 -49 32 -49z" />
    <glyph glyph-name="guilsinglleft" unicode="&#x2039;" horiz-adv-x="340" 
d="M181 30q-21 42 -66.5 92t-81.5 65l26 130q40 15 106.5 65.5t102.5 91.5l59 -59q-83 -101 -149 -163q56 -92 85 -165z" />
    <glyph glyph-name="guilsinglright" unicode="&#x203a;" horiz-adv-x="341" 
d="M74 30l-61 57q65 81 150 165q-58 90 -86 163l83 59q21 -42 66.5 -92t80.5 -65l-25 -130q-42 -15 -106 -64.5t-102 -92.5z" />
    <glyph glyph-name="fraction" unicode="&#x2044;" horiz-adv-x="477" 
d="M-61 -12l492 680h137l-492 -680h-137z" />
    <glyph glyph-name="uni2070" unicode="&#x2070;" horiz-adv-x="416" 
d="M234 383q-64 0 -101.5 34t-37.5 103q0 113 60.5 185t155.5 72q64 0 101.5 -33.5t37.5 -101.5q0 -112 -61 -185.5t-155 -73.5zM253 484q29 0 50 44t21 100q0 48 -34 48q-27 0 -48 -43t-21 -100q0 -49 32 -49z" />
    <glyph glyph-name="uni2074" unicode="&#x2074;" horiz-adv-x="394" 
d="M204 395q22 17 32 66l2 11h-176l13 66l203 247h138l-43 -228q44 0 59 14l-18 -99h-58l-2 -10q-6 -54 6 -67h-156zM188 557h67l21 113z" />
    <glyph glyph-name="uni2075" unicode="&#x2075;" horiz-adv-x="388" 
d="M216 383q-43 0 -87 13.5t-59 14.5l60 115q34 -44 92 -44q22 0 35 12t13 30q0 28 -38 28q-24 0 -39 -9l-64 20l61 222h132q77 0 107 10l-27 -130q-27 17 -99 17h-43l-12 -49q16 7 42 7q52 0 83 -23.5t31 -69.5q0 -76 -52 -120t-136 -44z" />
    <glyph glyph-name="uni2076" unicode="&#x2076;" horiz-adv-x="394" 
d="M230 383q-63 0 -99 35.5t-36 106.5q0 116 69 194t174 78q25 0 56.5 -5t42.5 -4l-58 -116q-5 12 -22 20t-38 8q-73 0 -90 -82q35 28 82 28q48 0 76 -25.5t28 -71.5q0 -71 -53 -118.5t-132 -47.5zM251 480q20 0 33 14.5t13 35.5q0 28 -31 28q-25 0 -52 -19q-1 -59 37 -59z
" />
    <glyph glyph-name="uni2077" unicode="&#x2077;" horiz-adv-x="357" 
d="M113 395q46 183 166 280h-82q-70 0 -97 -21l27 143q21 -12 92 -12h221l-19 -96q-72 -53 -109.5 -123t-55.5 -171h-143z" />
    <glyph glyph-name="uni2078" unicode="&#x2078;" horiz-adv-x="389" 
d="M220 383q-66 0 -101.5 24t-35.5 66q0 41 29.5 74.5t71.5 45.5l-1 4q-48 25 -48 76q0 57 44 90.5t120 33.5q60 0 92.5 -25.5t32.5 -64.5q0 -71 -84 -103l-1 -4q63 -28 63 -85q0 -60 -50.5 -96t-131.5 -36zM287 633q23 26 23 48q0 11 -7.5 18t-20.5 7q-14 0 -23.5 -8
t-9.5 -21q0 -22 38 -44zM239 471q18 0 30 10t12 26q0 24 -49 49q-27 -27 -27 -54q0 -14 9 -22.5t25 -8.5z" />
    <glyph glyph-name="uni2079" unicode="&#x2079;" horiz-adv-x="394" 
d="M197 383q-25 0 -59.5 5t-46.5 4l57 116q7 -13 25 -21t37 -8q37 0 60.5 23t28.5 60q-36 -28 -82 -28q-48 0 -76.5 26.5t-28.5 71.5q0 71 52 118t130 47q65 0 102 -37.5t37 -104.5q0 -122 -65 -197t-171 -75zM262 620q27 0 48 21q8 57 -32 57q-20 0 -33 -14t-13 -34
q0 -30 30 -30z" />
    <glyph glyph-name="uni2080" unicode="&#x2080;" horiz-adv-x="416" 
d="M123 -189q-64 0 -101.5 34t-37.5 103q0 113 60.5 185t155.5 72q64 0 101.5 -33.5t37.5 -101.5q0 -112 -61 -185.5t-155 -73.5zM142 -88q29 0 50 44t21 100q0 48 -34 48q-27 0 -48 -43t-21 -100q0 -49 32 -49z" />
    <glyph glyph-name="uni2081" unicode="&#x2081;" horiz-adv-x="389" 
d="M-28 -177l14 75l90 27l31 164h-99l17 81q58 0 129 14t114 31l-57 -290l80 -27l-15 -75h-304z" />
    <glyph glyph-name="uni2082" unicode="&#x2082;" horiz-adv-x="390" 
d="M-37 -173l18 92q73 35 132.5 84t59.5 87q0 31 -33 31q-46 0 -85 -56l-33 126q13 1 63.5 20.5t99.5 19.5q53 0 88.5 -28.5t35.5 -77.5q0 -102 -140 -187h32q64 0 90 19l-25 -130h-303z" />
    <glyph glyph-name="uni2083" unicode="&#x2083;" horiz-adv-x="381" 
d="M98 -188q-41 0 -86 14t-54 15l58 114q24 -42 78 -42q22 0 36.5 11.5t14.5 29.5q0 33 -78 33l15 75q78 0 78 42q0 23 -30 23q-52 0 -75 -34l-22 111q15 -2 60 11t91 13q51 0 82 -24t31 -65q0 -80 -86 -109q65 -24 65 -84q0 -63 -51 -98.5t-127 -35.5z" />
    <glyph glyph-name="uni2084" unicode="&#x2084;" horiz-adv-x="394" 
d="M93 -177q22 17 32 66l2 11h-176l13 66l203 247h138l-43 -228q44 0 59 14l-18 -99h-58l-2 -10q-6 -54 6 -67h-156zM77 -15h67l21 113z" />
    <glyph glyph-name="uni2085" unicode="&#x2085;" horiz-adv-x="388" 
d="M105 -189q-43 0 -87 13.5t-59 14.5l60 115q34 -44 92 -44q22 0 35 12t13 30q0 28 -38 28q-24 0 -39 -9l-64 20l61 222h132q77 0 107 10l-27 -130q-27 17 -99 17h-43l-12 -49q16 7 42 7q52 0 83 -23.5t31 -69.5q0 -76 -52 -120t-136 -44z" />
    <glyph glyph-name="uni2086" unicode="&#x2086;" horiz-adv-x="394" 
d="M119 -189q-63 0 -99 35.5t-36 106.5q0 116 69 194t174 78q25 0 56.5 -5t42.5 -4l-58 -116q-5 12 -22 20t-38 8q-73 0 -90 -82q35 28 82 28q48 0 76 -25.5t28 -71.5q0 -71 -53 -118.5t-132 -47.5zM140 -92q20 0 33 14.5t13 35.5q0 28 -31 28q-25 0 -52 -19q-1 -59 37 -59z
" />
    <glyph glyph-name="uni2087" unicode="&#x2087;" horiz-adv-x="357" 
d="M2 -177q46 183 166 280h-82q-70 0 -97 -21l27 143q21 -12 92 -12h221l-19 -96q-72 -53 -109.5 -123t-55.5 -171h-143z" />
    <glyph glyph-name="uni2088" unicode="&#x2088;" horiz-adv-x="389" 
d="M109 -189q-66 0 -101.5 24t-35.5 66q0 41 29.5 74.5t71.5 45.5l-1 4q-48 25 -48 76q0 57 44 90.5t120 33.5q60 0 92.5 -25.5t32.5 -64.5q0 -72 -84 -103l-1 -4q63 -28 63 -85q0 -60 -50.5 -96t-131.5 -36zM176 61q23 26 23 48q0 11 -7.5 18t-20.5 7q-14 0 -23.5 -8
t-9.5 -21q0 -22 38 -44zM128 -101q18 0 30 10t12 26q0 24 -49 49q-27 -27 -27 -54q0 -14 9 -22.5t25 -8.5z" />
    <glyph glyph-name="uni2089" unicode="&#x2089;" horiz-adv-x="394" 
d="M86 -189q-25 0 -59.5 5t-46.5 4l57 116q7 -13 25 -21t37 -8q37 0 60.5 23t28.5 60q-36 -28 -82 -28q-48 0 -76.5 26.5t-28.5 71.5q0 71 52 118t130 47q65 0 102 -37.5t37 -104.5q0 -122 -65 -197t-171 -75zM151 48q27 0 48 21q8 57 -32 57q-20 0 -33 -14t-13 -34
q0 -30 30 -30z" />
    <glyph glyph-name="Euro" unicode="&#x20ac;" horiz-adv-x="572" 
d="M459 637q125 0 153 4l-58 -189q-24 27 -107 27q-70 0 -113 -76h74q40 0 57 10l-15 -82h-143q-3 -13 -7 -41h142l-16 -82q-14 10 -54 10h-74q9 -72 86 -72q82 0 117 28l-13 -190q-17 4 -154 4q-235 0 -235 212v18h-19q-41 0 -58 -10l16 82h67q2 17 8 41h-67l15 82
q14 -10 55 -10h18q43 109 128 171.5t197 62.5z" />
    <glyph glyph-name="trademark" unicode="&#x2122;" horiz-adv-x="880" 
d="M367 695q44 0 65 7l-23 -123q-17 14 -62 14h-16l-23 -117q-12 -65 -2 -87h-141q20 23 33 87l22 117h-16q-47 0 -67 -14l24 123q18 -7 63 -7h143zM771 695h123q-22 -36 -32 -87l-26 -132q-13 -63 -2 -87h-140q19 20 32 87l8 41l-105 -118l-60 115l-7 -38q-11 -66 -2 -87
h-141q21 25 32 87l26 132q11 57 2 87h128l55 -127z" />
    <glyph glyph-name="uni2150" unicode="&#x2150;" horiz-adv-x="1019" 
d="M227 -12l492 680h137l-493 -680h-136zM58 266l14 75l90 27l31 164h-99l17 81q58 0 129 14t114 31l-57 -290l80 -27l-15 -75h-304zM698 0q47 184 166 280h-82q-70 0 -98 -21l28 143q21 -12 92 -12h221l-19 -96q-72 -53 -109.5 -123t-55.5 -171h-143z" />
    <glyph glyph-name="uni2151" unicode="&#x2151;" horiz-adv-x="1017" 
d="M234 -12l493 680h136l-492 -680h-137zM58 266l14 75l90 27l31 164h-99l17 81q58 0 129 14t114 31l-57 -290l80 -27l-15 -75h-304zM743 -12q-26 0 -60 5t-46 4l57 116q7 -12 25 -20.5t36 -8.5q37 0 60.5 23t29.5 60q-36 -28 -83 -28t-75.5 26.5t-28.5 71.5q0 71 52 118
t130 47q65 0 102 -37.5t37 -104.5q0 -122 -65 -197t-171 -75zM807 225q26 0 49 21q7 57 -33 57q-19 0 -32 -14t-13 -34q0 -30 29 -30z" />
    <glyph glyph-name="uni2152" unicode="&#x2152;" horiz-adv-x="1421" 
d="M237 -12l493 680h136l-492 -680h-137zM58 266l14 75l90 27l31 164h-99l17 81q58 0 129 14t114 31l-57 -290l80 -27l-15 -75h-304zM647 0l15 75l89 27l32 164h-99l16 81q58 0 129 14t115 31l-57 -290l80 -27l-16 -75h-304zM1162 -12q-63 0 -100.5 34t-37.5 103
q0 113 60.5 185t154.5 72q64 0 102 -33.5t38 -101.5q0 -112 -61.5 -185.5t-155.5 -73.5zM1181 89q29 0 50 44t21 100q0 48 -33 48q-28 0 -48.5 -42.5t-20.5 -100.5q0 -49 31 -49z" />
    <glyph glyph-name="uni2153" unicode="&#x2153;" horiz-adv-x="1009" 
d="M227 -12l492 680h137l-493 -680h-136zM58 266l14 75l90 27l31 164h-99l17 81q58 0 129 14t114 31l-57 -290l80 -27l-15 -75h-304zM761 -12q-41 0 -86.5 14t-54.5 15l59 114q24 -42 77 -42q22 0 36.5 11.5t14.5 29.5q0 33 -78 33l15 75q79 0 79 42q0 23 -31 23
q-52 0 -75 -34l-22 111q15 -2 60 11t91 13q51 0 82 -24t31 -65q0 -80 -85 -109q64 -24 64 -84q0 -63 -50.5 -98.5t-126.5 -35.5z" />
    <glyph glyph-name="uni2154" unicode="&#x2154;" horiz-adv-x="1007" 
d="M49 266l18 92q73 35 132.5 84t59.5 87q0 31 -33 31q-46 0 -85 -56l-33 126q13 1 63.5 20.5t99.5 19.5q53 0 88.5 -28.5t35.5 -77.5q0 -102 -140 -187h32q64 0 90 19l-25 -130h-303zM225 -12l492 680h137l-493 -680h-136zM758 -12q-41 0 -86.5 14t-53.5 15l58 114
q24 -42 77 -42q22 0 37 11.5t15 29.5q0 33 -78 33l15 75q78 0 78 42q0 23 -30 23q-52 0 -75 -34l-22 111q15 -2 60 11t91 13q51 0 82 -24t31 -65q0 -80 -86 -109q65 -24 65 -84q0 -63 -51 -98.5t-127 -35.5z" />
    <glyph glyph-name="uni2155" unicode="&#x2155;" horiz-adv-x="980" 
d="M228 -12l492 680h137l-493 -680h-136zM58 266l14 75l90 27l31 164h-99l17 81q58 0 129 14t114 31l-57 -290l80 -27l-15 -75h-304zM730 -12q-43 0 -87 13.5t-58 14.5l59 115q36 -44 92 -44q23 0 36 12t13 30q0 28 -38 28q-23 0 -40 -9l-64 20l61 222h133q77 0 106 10
l-26 -130q-28 17 -99 17h-43l-13 -49q18 7 43 7q51 0 82 -23.5t31 -69.5q0 -76 -51.5 -120t-136.5 -44z" />
    <glyph glyph-name="uni2156" unicode="&#x2156;" horiz-adv-x="989" 
d="M49 266l18 92q73 35 132.5 84t59.5 87q0 31 -33 31q-46 0 -85 -56l-33 126q13 1 63.5 20.5t99.5 19.5q53 0 88.5 -28.5t35.5 -77.5q0 -102 -140 -187h32q64 0 90 19l-25 -130h-303zM220 -12l493 680h136l-492 -680h-137zM740 -12q-43 0 -87 13.5t-59 14.5l60 115
q34 -44 92 -44q22 0 35 12t13 30q0 28 -38 28q-24 0 -39 -9l-64 20l61 222h132q77 0 107 10l-27 -130q-27 17 -99 17h-43l-13 -49q17 7 43 7q52 0 83 -23.5t31 -69.5q0 -76 -52 -120t-136 -44z" />
    <glyph glyph-name="uni2157" unicode="&#x2157;" horiz-adv-x="944" 
d="M184 254q-41 0 -86 14t-54 15l58 114q24 -42 78 -42q22 0 36.5 11.5t14.5 29.5q0 33 -78 33l15 75q78 0 78 42q0 23 -30 23q-52 0 -75 -34l-22 111q15 -2 60 11t91 13q51 0 82 -24t31 -65q0 -80 -86 -109q65 -24 65 -84q0 -63 -51 -98.5t-127 -35.5zM185 -12l492 680h137
l-492 -680h-137zM695 -12q-43 0 -87 13.5t-59 14.5l60 115q34 -44 92 -44q22 0 35 12t13 30q0 28 -38 28q-24 0 -39 -9l-64 20l61 222h132q77 0 107 10l-27 -130q-27 17 -99 17h-43l-13 -49q18 7 43 7q52 0 83 -23.5t31 -69.5q0 -76 -52 -120t-136 -44z" />
    <glyph glyph-name="uni2158" unicode="&#x2158;" horiz-adv-x="961" 
d="M208 -12l492 680h137l-493 -680h-136zM179 266q22 17 32 66l2 11h-176l13 66l203 247h138l-43 -228q44 0 59 14l-18 -99h-58l-2 -10q-6 -54 6 -67h-156zM163 428h67l21 113zM712 -12q-43 0 -87 13.5t-59 14.5l60 115q34 -44 92 -44q22 0 35 12t13 30q0 28 -38 28
q-24 0 -40 -9l-63 20l61 222h132q77 0 107 10l-27 -130q-27 17 -99 17h-43l-13 -49q17 7 43 7q52 0 83 -23.5t31 -69.5q0 -76 -52 -120t-136 -44z" />
    <glyph glyph-name="uni2159" unicode="&#x2159;" horiz-adv-x="991" 
d="M232 -12l492 680h137l-492 -680h-137zM58 266l14 75l90 27l31 164h-99l17 81q58 0 129 14t114 31l-57 -290l80 -27l-15 -75h-304zM750 -12q-63 0 -99 35.5t-36 106.5q0 116 69 194t174 78q25 0 56.5 -5t42.5 -4l-58 -116q-5 12 -22 20t-38 8q-73 0 -90 -82q35 28 82 28
q48 0 76 -25.5t28 -71.5q0 -71 -53 -118.5t-132 -47.5zM771 85q20 0 33 14.5t13 35.5q0 28 -31 28q-25 0 -52 -19q-1 -59 37 -59z" />
    <glyph glyph-name="uni215A" unicode="&#x215a;" horiz-adv-x="968" 
d="M197 -12l492 680h137l-492 -680h-137zM191 253q-43 0 -87 13.5t-59 14.5l60 115q34 -44 92 -44q22 0 35 12t13 30q0 28 -38 28q-24 0 -39 -9l-64 20l61 222h132q77 0 107 10l-27 -130q-27 17 -99 17h-43l-12 -49q16 7 42 7q52 0 83 -23.5t31 -69.5q0 -76 -52 -120
t-136 -44zM727 -12q-63 0 -99.5 35.5t-36.5 106.5q0 116 69 194t174 78q25 0 56.5 -5t42.5 -4l-57 -116q-6 12 -23.5 20t-37.5 8q-36 0 -59 -22t-30 -60q35 28 81 28q48 0 76.5 -26t28.5 -71q0 -70 -53.5 -118t-131.5 -48zM747 85q21 0 33.5 14.5t12.5 35.5q0 28 -30 28
q-27 0 -52 -19q-3 -59 36 -59z" />
    <glyph glyph-name="oneeighth" unicode="&#x215b;" horiz-adv-x="1004" 
d="M233 -12l493 680h136l-492 -680h-137zM58 266l14 75l90 27l31 164h-99l17 81q58 0 129 14t114 31l-57 -290l80 -27l-15 -75h-304zM758 -12q-66 0 -102 24t-36 66q0 41 29.5 74.5t71.5 45.5v4q-49 25 -49 76q0 57 44 90.5t120 33.5q60 0 93 -25.5t33 -64.5q0 -71 -84 -103
l-1 -4q62 -28 62 -85q0 -60 -50 -96t-131 -36zM824 238q23 26 23 48q0 11 -7.5 18t-20.5 7q-14 0 -23 -8t-9 -21q0 -22 37 -44zM777 76q18 0 29.5 10t11.5 26q0 24 -49 49q-27 -29 -27 -54q0 -14 9.5 -22.5t25.5 -8.5z" />
    <glyph glyph-name="threeeighths" unicode="&#x215c;" horiz-adv-x="965" 
d="M184 254q-41 0 -86 14t-54 15l58 114q24 -42 78 -42q22 0 36.5 11.5t14.5 29.5q0 33 -78 33l15 75q78 0 78 42q0 23 -30 23q-52 0 -75 -34l-22 111q15 -2 60 11t91 13q51 0 82 -24t31 -65q0 -80 -86 -109q65 -24 65 -84q0 -63 -51 -98.5t-127 -35.5zM189 -12l493 680h136
l-492 -680h-137zM719 -12q-66 0 -102 24t-36 66q0 41 29.5 74.5t72.5 45.5l-1 4q-49 25 -49 76q0 57 44.5 90.5t120.5 33.5q60 0 92.5 -25.5t32.5 -64.5q0 -72 -84 -103l-1 -4q63 -28 63 -85q0 -60 -50.5 -96t-131.5 -36zM786 238q23 26 23 48q0 11 -7.5 18t-20.5 7
q-14 0 -23.5 -8t-9.5 -21q0 -22 38 -44zM738 76q18 0 30 10t12 26q0 24 -49 49q-27 -27 -27 -54q0 -14 9 -22.5t25 -8.5z" />
    <glyph glyph-name="fiveeighths" unicode="&#x215d;" horiz-adv-x="956" 
d="M185 -12l493 680h136l-492 -680h-137zM191 253q-43 0 -87 13.5t-59 14.5l60 115q34 -44 92 -44q22 0 35 12t13 30q0 28 -38 28q-24 0 -39 -9l-64 20l61 222h132q77 0 107 10l-27 -130q-27 17 -99 17h-43l-12 -49q16 7 42 7q52 0 83 -23.5t31 -69.5q0 -76 -52 -120
t-136 -44zM710 -12q-66 0 -102 24t-36 66q0 41 29.5 74.5t72.5 45.5l-1 4q-49 25 -49 76q0 57 44.5 90.5t120.5 33.5q60 0 92.5 -25.5t32.5 -64.5q0 -72 -84 -103l-1 -4q63 -28 63 -85q0 -60 -50.5 -96t-131.5 -36zM777 238q23 26 23 48q0 11 -8 18t-21 7q-14 0 -23 -8
t-9 -21q0 -22 38 -44zM729 76q18 0 29.5 10t11.5 26q0 24 -48 49q-27 -27 -27 -54q0 -14 9 -22.5t25 -8.5z" />
    <glyph glyph-name="seveneighths" unicode="&#x215e;" horiz-adv-x="902" 
d="M88 266q46 183 166 280h-82q-70 0 -97 -21l27 143q21 -12 92 -12h221l-19 -96q-72 -53 -109.5 -123t-55.5 -171h-143zM127 -12l492 680h137l-492 -680h-137zM656 -12q-66 0 -102 24t-36 66q0 41 29.5 74.5t72.5 45.5l-1 4q-49 25 -49 76q0 57 44.5 90.5t120.5 33.5
q59 0 92 -25.5t33 -64.5q0 -72 -84 -103l-1 -4q63 -28 63 -85q0 -60 -50.5 -96t-131.5 -36zM723 238q23 26 23 48q0 11 -8 18t-21 7q-14 0 -23 -8t-9 -21q0 -22 38 -44zM675 76q18 0 29.5 10t11.5 26q0 24 -49 49q-26 -28 -26 -54q0 -14 9 -22.5t25 -8.5z" />
    <glyph glyph-name="uni2189" unicode="&#x2189;" horiz-adv-x="973" 
d="M195 -12l492 680h137l-493 -680h-136zM209 254q-64 0 -101.5 34t-37.5 103q0 113 60.5 185t155.5 72q64 0 101.5 -33.5t37.5 -101.5q0 -112 -61 -185.5t-155 -73.5zM228 355q29 0 50 44t21 100q0 48 -34 48q-27 0 -48 -43t-21 -100q0 -49 32 -49zM725 -12q-41 0 -86.5 14
t-54.5 15l59 114q24 -42 77 -42q22 0 36.5 11.5t14.5 29.5q0 33 -78 33l15 75q79 0 79 42q0 23 -31 23q-52 0 -75 -34l-22 111q15 -2 60 11t91 13q51 0 82 -24t31 -65q0 -80 -85 -109q64 -24 64 -84q0 -63 -50.5 -98.5t-126.5 -35.5z" />
    <glyph glyph-name="arrowleft" unicode="&#x2190;" horiz-adv-x="836" 
d="M769 420v-190h-509v-127q-103 131 -227 222q125 93 227 223v-128h509z" />
    <glyph glyph-name="arrowup" unicode="&#x2191;" horiz-adv-x="501" 
d="M473 509h-128v-509h-190v509h-127q131 103 222 227q93 -125 223 -227z" />
    <glyph glyph-name="arrowright" unicode="&#x2192;" horiz-adv-x="836" 
d="M576 548q99 -127 227 -223q-124 -91 -227 -222v127h-509v190l509 1v127z" />
    <glyph glyph-name="arrowdown" unicode="&#x2193;" horiz-adv-x="500" 
d="M250 -13q-94 127 -222 227h127v509h190v-509h127q-128 -100 -222 -227z" />
    <glyph glyph-name="arrowboth" unicode="&#x2194;" horiz-adv-x="906" 
d="M260 103q-103 130 -227 222q127 94 227 222v-115l385 -1v116q99 -126 228 -222q-126 -94 -228 -222v115h-385v-115z" />
    <glyph glyph-name="arrowupdn" unicode="&#x2195;" horiz-adv-x="513" 
d="M256 -93q-92 126 -222 228h116v385h-116q131 103 222 227q93 -125 223 -227h-116v-385h116q-128 -101 -223 -228z" />
    <glyph glyph-name="uni2196" unicode="&#x2196;" horiz-adv-x="691" 
d="M654 135l-134 -134l-360 359l-90 -90q19 168 -4 318q157 -22 318 -4l-90 -90z" />
    <glyph glyph-name="uni2197" unicode="&#x2197;" horiz-adv-x="691" 
d="M625 587q-23 -150 -4 -318l-90 90l-360 -359l-134 134l360 359l-90 90q161 -18 318 4z" />
    <glyph glyph-name="uni2198" unicode="&#x2198;" horiz-adv-x="691" 
d="M621 323q-19 -167 4 -318q-151 23 -318 4l90 90l-360 359l134 135l360 -360z" />
    <glyph glyph-name="uni2199" unicode="&#x2199;" horiz-adv-x="691" 
d="M654 458l-360 -359l89 -90q-166 19 -318 -4q23 151 4 318l90 -90l360 360z" />
    <glyph glyph-name="partialdiff" unicode="&#x2202;" horiz-adv-x="613" 
d="M228 -12q-92 0 -146 47t-54 134q0 126 74 208.5t177 82.5q53 0 81 -20q-12 70 -71.5 126.5t-119.5 44.5l124 154q114 -44 183.5 -151.5t69.5 -237.5q0 -165 -91 -276.5t-227 -111.5zM259 140q44 0 71.5 47.5t32.5 108.5q-24 31 -65 31t-68 -36.5t-27 -93.5t56 -57z" />
    <glyph glyph-name="emptyset" unicode="&#x2205;" horiz-adv-x="577" 
d="M543 445q-38 -17 -76 -50q16 -34 16 -73q0 -104 -64 -173t-161 -69q-71 0 -117 41q-29 -24 -61 -64l-46 57q39 21 75 50q-16 31 -16 72q0 104 64 173t161 69q71 0 116 -40q40 34 61 64zM298 373q-40 0 -64 -34t-24 -86v-4l132 111q-18 13 -44 13zM278 185q40 0 63.5 34
t23.5 86v5l-132 -111q17 -14 45 -14z" />
    <glyph glyph-name="product" unicode="&#x220f;" horiz-adv-x="808" 
d="M37 -110q28 19 44 57.5t30 108.5l92 465h-8q-53 0 -105 -21l37 187q35 -8 110 -8h499q75 0 116 8l-36 -187q-35 21 -99 21h-3l-90 -465q-13 -52 -12.5 -99t23.5 -67h-261q36 39 60 166l91 465h-132l-90 -465q-26 -128 -4 -166h-262z" />
    <glyph glyph-name="summation" unicode="&#x2211;" horiz-adv-x="578" 
d="M472 676q107 0 143 7l-38 -196q-14 18 -44.5 24t-91.5 6h-102l101 -234l-192 -234h102q61 0 93.5 6t53.5 24l-37 -196q-34 7 -141 7h-339l27 135q49 28 117 114l118 144l-62 144q-23 53 -37.5 76t-34.5 38l25 135h339z" />
    <glyph glyph-name="minus" unicode="&#x2212;" horiz-adv-x="474" 
d="M48 234l25 127q13 -10 54 -10h241q41 0 58 10l-25 -127q-14 10 -54 10h-241q-41 0 -58 -10z" />
    <glyph glyph-name="radical" unicode="&#x221a;" horiz-adv-x="814" 
d="M780 727q95 0 128 8l-35 -180q-31 14 -124 14h-68l-255 -535q-42 -84 -39 -146h-293q21 55 12 146l-24 234q-14 117 -33 156h240q-26 -45 -20 -144l11 -199h4l294 646h202z" />
    <glyph glyph-name="infinity" unicode="&#x221e;" horiz-adv-x="633" 
d="M472 490q55 0 86 -36.5t31 -95.5q0 -92 -55 -163.5t-126 -71.5q-42 0 -70 21t-41 55q-59 -76 -136 -76q-56 0 -87 37.5t-31 96.5q0 91 56 162t127 71q80 0 110 -75q59 75 136 75zM431 261q23 0 38.5 17.5t15.5 44.5q0 18 -12 29.5t-33 11.5q-16 0 -38.5 -8t-32.5 -16
q7 -39 24 -59t38 -20zM193 249q16 0 39 8t33 16q-8 40 -24.5 60t-37.5 20q-23 0 -38.5 -17.5t-15.5 -44.5q0 -19 11.5 -30.5t32.5 -11.5z" />
    <glyph glyph-name="integral" unicode="&#x222b;" horiz-adv-x="523" 
d="M49 -135q-14 0 -42.5 3t-41.5 1l51 160q20 -33 47 -33q38 0 58 79l93 376q32 130 92 187.5t179 57.5q11 0 41 -2.5t43 -0.5l-52 -160q-17 32 -46 32q-39 0 -58 -78l-93 -376q-33 -133 -94 -189.5t-177 -56.5z" />
    <glyph glyph-name="approxequal" unicode="&#x2248;" horiz-adv-x="574" 
d="M92 290q15 80 56.5 121.5t92.5 41.5q45 0 86.5 -24t57.5 -24t26.5 12t13.5 29h101q-16 -80 -58 -121t-93 -41q-44 0 -86 24t-58 24q-14 0 -24.5 -13t-14.5 -29h-100zM48 68q16 81 57.5 122t93.5 41q44 0 86 -23.5t58 -23.5q15 0 25.5 12t13.5 28h100q-16 -80 -57.5 -121
t-92.5 -41q-45 0 -86 24t-57 24t-26.5 -13t-13.5 -29h-101z" />
    <glyph glyph-name="notequal" unicode="&#x2260;" horiz-adv-x="512" 
d="M385 341h-64l-58 -87h105q41 0 58 10l-25 -127q-14 10 -54 10h-154l-56 -84l-56 28l37 56h-12q-41 0 -58 -10l25 127q13 -10 54 -10h62l58 87h-103q-41 0 -58 -10l25 127q13 -10 54 -10h152l58 87l56 -28l-39 -59h14q39 0 58 10l-25 -127q-14 10 -54 10z" />
    <glyph glyph-name="lessequal" unicode="&#x2264;" horiz-adv-x="519" 
d="M479 446q-23 2 -54 -11l-149 -59l126 -58q29 -13 50 -11l-69 -125q-6 18 -52 43l-220 117l13 70l266 116q57 27 68 43zM48 26l25 127q13 -10 54 -10h236q41 0 58 10l-25 -127q-14 10 -54 10h-236q-41 0 -58 -10z" />
    <glyph glyph-name="greaterequal" unicode="&#x2265;" horiz-adv-x="509" 
d="M241 528l221 -116l-13 -70l-267 -117q-57 -26 -69 -43l-19 125q18 -1 53 11l149 59l-126 58q-28 13 -49 11l68 125q6 -18 52 -43zM40 26l25 127q13 -10 54 -10h235q41 0 58 10l-24 -127q-14 10 -54 10h-236q-41 0 -58 -10z" />
    <glyph glyph-name="lozenge" unicode="&#x25ca;" horiz-adv-x="599" 
d="M507 305l14 -43h-45l-152 -214h-206l-29 210h-32l25 48l-6 47h31l111 210h205l70 -214h45zM345 305l-8 107l-70 -107l29 -105z" />
    <glyph glyph-name="uni261A" unicode="&#x261a;" horiz-adv-x="1511" 
d="M618 -11q-23 13 -45.5 45.5t-22.5 42.5q0 17 14.5 53t32.5 68q-2 5 -7.5 8.5t-9.5 2.5q-21 -26 -37.5 -60.5t-16.5 -45.5q0 -9 15 -49.5t20 -46.5q-45 -9 -58 19q-5 11 -18.5 36t-21 42t-7.5 26q0 16 19 57.5t48 77.5q-12 15 -17 15q-24 -30 -46.5 -68t-22.5 -46
q0 -7 5.5 -37.5t7.5 -37.5q-21 -8 -31.5 -1.5t-22.5 34.5l-24 54q-8 18 1 38q28 63 94 130q-7 9 -14 9q-3 0 -16.5 -11t-20.5 -20q-53 0 -93 6t-41 6q-32 -10 -82 -16.5t-79 -3.5q-41 3 -50 36q-5 22 7 27q61 19 168.5 38t187.5 27q15 1 42.5 9t41.5 8q56 0 195 -27t203 -27
q17 0 54.5 5t58.5 4q28 -1 51 -61.5t23 -124.5q0 -38 -9 -63.5t-24 -25.5q-8 0 -53.5 7.5t-62.5 7.5q-22 0 -96 -39.5t-111 -40.5q-31 0 -68 39q-4 -14 -18 -28.5t-28 -20.5q12 -6 18 -21q29 23 50 23t21 -15q0 -26 -78 -64q-4 -2 -13 -2t-13 2zM1091 36q34 17 54 73t20 136
q0 61 -21 119t-53 65h253q41 0 66.5 -60.5t25.5 -123.5q0 -50 -11 -96.5t-36 -79.5t-59 -33h-239zM1250 74q11 0 18.5 8t7.5 19t-8 18.5t-18 7.5q-9 0 -16.5 -8t-7.5 -18q0 -11 7.5 -19t16.5 -8z" />
    <glyph glyph-name="uni261B" unicode="&#x261b;" horiz-adv-x="1475" 
d="M861 -11q-77 38 -77 64q0 15 20 15q21 0 51 -23q4 14 17 21q-14 7 -28 21t-18 28q-37 -39 -68 -39q-37 1 -110.5 40.5t-96.5 39.5q-16 0 -62 -7.5t-54 -7.5q-15 0 -23.5 25t-8.5 64q0 64 22.5 124.5t50.5 61.5q21 1 58.5 -4t55.5 -5q63 0 202 27t195 27q14 0 42 -8t42 -9
q80 -8 187.5 -27t169.5 -38q6 -5 8 -18t-12.5 -28t-39.5 -17q-29 -3 -79 3.5t-81 16.5q-1 0 -41.5 -6t-93.5 -6q-7 9 -20.5 20t-16.5 11q-6 0 -13 -9q64 -65 93 -130q9 -20 1 -38l-23 -54q-12 -28 -23 -34.5t-32 1.5q2 7 7.5 37.5t5.5 37.5q0 8 -22 46.5t-47 67.5
q-6 0 -16 -15q28 -37 47.5 -78t19.5 -57q0 -9 -7.5 -26t-21.5 -41.5t-19 -36.5q-13 -28 -58 -19q5 7 20.5 47.5t15.5 48.5q0 11 -17 45.5t-38 60.5q-4 1 -9.5 -3t-6.5 -8q46 -82 46 -121q0 -10 -22.5 -42.5t-45.5 -45.5q-4 -2 -12.5 -2t-13.5 2zM175 36q-34 0 -59 33
t-36 79.5t-11 96.5q0 63 25.5 123.5t66.5 60.5h253q-32 -7 -52.5 -65t-20.5 -119q0 -80 19.5 -136t53.5 -73h-239zM255 74q10 0 17.5 8t7.5 19q0 10 -7.5 18t-17.5 8q-11 0 -18.5 -7.5t-7.5 -18.5t7.5 -19t18.5 -8z" />
    <glyph glyph-name="uni261C" unicode="&#x261c;" horiz-adv-x="979" 
d="M873 224q26 -5 36 -16.5t10 -37.5q0 -34 -12 -57t-36 -22l-130 9q-41 -27 -89 -27q-68 0 -160 25l-54 -2q-19 -1 -30.5 11.5t-11.5 26.5q0 15 7 24h-2q-20 -1 -31.5 11.5t-11.5 32.5q0 14 7 25q-39 4 -39 41q0 5 2 15q-59 -2 -65 36l-127 10q-64 4 -64 47q0 32 40 33
l349 7q61 24 94 24h38q38 0 77 -22t65 -51l133 10q22 1 37.5 -27t15.5 -64q0 -40 -45 -52l-23 -6zM873 106q15 -1 23 17.5t8 46.5q0 20 -6.5 27.5t-24.5 11.5l-47 11v13l50 16q30 9 30 37q0 31 -11 54t-27 22l-122 -10q7 -10 9 -19q-31 37 -74 64.5t-88 27.5h-38
q-31 0 -122.5 -37.5t-154.5 -40.5l-1 -19q-1 -18 19.5 -25.5t52.5 -2.5l93 15q15 2 46.5 -3t38.5 -5q22 0 69 27q-30 -28 -50 -37q33 -52 77 -70t102 -19q-113 -15 -172 56q-5 -14 -12 -20q41 -6 41 -40q0 -18 -14 -30q24 -10 24 -33q0 -14 -10.5 -26.5t-31.5 -13.5h-9
q62 -13 111 -13q72 0 151 82q-17 -32 -43 -55zM263 361q67 0 161 40l-310 -7q-24 0 -24 -18q0 -29 46 -32l127 -8v25zM342 268q0 -26 35 -25l131 6q30 1 30 22q0 14 -19 22q-2 0 -33 4.5t-45 2.5l-92 -15h-1q-6 -7 -6 -17zM374 202q0 -13 7 -21.5t20 -7.5l135 7q30 1 30 24
q0 29 -48 29q-3 -1 -10 -1l-121 -5q-13 -4 -13 -25zM436 111l114 5q27 1 27 25q0 21 -32 25q-2 -1 -6 -1l-119 -6q-9 -9 -9 -25q0 -9 7 -16.5t18 -6.5z" />
    <glyph glyph-name="uni261D" unicode="&#x261d;" horiz-adv-x="528" 
d="M419 44l9 -130q1 -24 -22 -36t-57 -12q-26 0 -37.5 10t-16.5 36l-4 20l-6 -23q-12 -45 -52 -45q-36 0 -64 15.5t-27 37.5l10 133q-29 26 -51 65t-22 77v38q0 33 24 94l7 349q1 40 33 40q43 0 47 -64l10 -127q38 -6 36 -65q10 2 15 2q37 0 41 -39q11 7 25 7
q20 0 32.5 -11.5t11.5 -31.5v-2q9 7 24 7q14 0 26.5 -11.5t11.5 -30.5l-2 -54q25 -92 25 -160q0 -48 -27 -89zM125 671l-7 -310q40 94 40 161h25l-8 127q-3 46 -32 46q-18 0 -18 -24zM349 -119q28 0 46.5 8t17.5 23l-9 113q-23 -26 -55 -43q82 79 82 151q0 49 -13 111v-9
q-1 -21 -13.5 -31.5t-26.5 -10.5q-23 0 -33 24q-12 -14 -30 -14q-34 0 -40 41q-6 -7 -20 -12q71 -59 56 -172q-1 58 -19 102t-70 77q-9 -20 -37 -50q27 47 27 69q0 7 -5 38.5t-3 46.5l15 93q5 32 -2.5 52.5t-25.5 19.5l-19 -1q-3 -63 -40.5 -154.5t-37.5 -122.5v-38
q0 -45 27.5 -88t64.5 -74q-9 2 -19 9l-10 -122q-1 -16 22 -27t54 -11q28 0 37 30l16 50h13l11 -47q4 -18 11.5 -24.5t27.5 -6.5zM251 443q-9 0 -17 -6v-1l-15 -92q-1 -16 -0.5 -25t3.5 -26.5t4 -26.5q8 -19 22 -19q21 0 22 30l6 131q1 35 -25 35zM317 411q-21 0 -25 -13
l-5 -121q0 -7 -1 -10q0 -48 29 -48q23 0 24 30l7 135q1 13 -7.5 20t-21.5 7zM360 365l-6 -119q0 -4 -1 -6q4 -32 25 -32q24 0 25 27l5 114q1 11 -6.5 18t-16.5 7q-16 0 -25 -9z" />
    <glyph glyph-name="uni261E" unicode="&#x261e;" horiz-adv-x="937" 
d="M868 409q40 -1 40 -33q0 -43 -64 -47l-127 -10q-6 -38 -65 -36q2 -10 2 -15q0 -37 -39 -41q7 -11 7 -25q0 -20 -11.5 -32.5t-31.5 -11.5h-2q7 -9 7 -24q0 -14 -11.5 -26.5t-30.5 -11.5l-54 2q-92 -25 -160 -25q-48 0 -89 27l-130 -9q-24 -1 -36 22t-12 57q0 26 10 37.5
t36 16.5l20 4l-23 6q-45 12 -45 52q0 36 15.5 64t37.5 27l133 -10q26 29 65 51t77 22h38q33 0 94 -24zM631 300q32 -5 52.5 2.5t19.5 25.5l-1 19q-63 3 -154.5 40.5t-122.5 37.5h-38q-45 0 -88 -27.5t-74 -64.5q2 9 9 19l-122 10q-16 1 -27 -22t-11 -54q0 -28 30 -37l50 -16
v-13l-47 -11q-18 -4 -24.5 -11.5t-6.5 -27.5q0 -28 8 -46.5t23 -17.5l113 9q-26 23 -43 55q79 -82 151 -82q49 0 111 13h-9q-21 1 -31.5 13.5t-10.5 26.5q0 23 24 33q-14 12 -14 30q0 34 41 40q-7 6 -12 20q-59 -71 -172 -56q58 1 102 19t77 70q-20 9 -50 37q47 -27 69 -27
q7 0 38.5 5t46.5 3zM844 344q46 3 46 32q0 18 -24 18l-310 7q94 -40 161 -40v-25zM638 268q0 10 -6 17h-1l-92 15q-16 1 -25 0.5t-26.5 -3.5t-26.5 -4q-19 -8 -19 -22q0 -21 30 -22l131 -6q35 -1 35 25zM579 173q13 -1 20 7.5t7 21.5q0 21 -13 25l-121 5q-7 0 -10 1
q-48 0 -48 -29q0 -23 30 -24zM569 134q0 16 -9 25l-119 6q-4 0 -6 1q-32 -4 -32 -25q0 -24 27 -25l114 -5q11 -1 18 6.5t7 16.5z" />
    <glyph glyph-name="uni261F" unicode="&#x261f;" horiz-adv-x="468" 
d="M411 284l2 -54q1 -19 -11.5 -30.5t-26.5 -11.5q-15 0 -24 7v-2q1 -20 -11.5 -31.5t-32.5 -11.5q-14 0 -25 7q-4 -39 -41 -39q-5 0 -15 2q2 -59 -36 -65l-10 -127q-4 -64 -47 -64q-32 0 -33 40l-7 349q-24 61 -24 94v38q0 38 22 77t51 65l-10 133q-1 22 27 37.5t64 15.5
q40 0 52 -45l6 -23l4 20q5 26 16.5 36t37.5 10q34 0 57 -12t22 -36l-9 -130q27 -41 27 -89q0 -68 -25 -160zM181 69q18 -1 25.5 19.5t2.5 52.5l-15 93q-2 15 3 46.5t5 38.5q0 22 -27 69q28 -30 37 -50q52 33 70 77t19 102q15 -113 -56 -172q14 -5 20 -12q6 41 40 41
q18 0 30 -14q10 24 33 24q14 0 26.5 -10.5t13.5 -31.5v-9q13 62 13 111q0 72 -82 151q32 -17 55 -43l9 113q1 15 -17.5 23t-46.5 8q-20 0 -27.5 -6.5t-11.5 -24.5l-11 -47h-13l-16 50q-9 30 -37 30q-31 0 -54 -11t-22 -27l10 -122q10 7 19 9q-37 -31 -64.5 -74t-27.5 -88
v-38q0 -31 37.5 -122.5t40.5 -154.5zM375 203q9 0 16.5 7t6.5 18l-5 114q-1 27 -25 27q-21 0 -25 -32q1 -2 1 -6l6 -119q9 -9 25 -9zM307 166q13 0 21.5 7t7.5 20l-7 135q-1 30 -24 30q-29 0 -29 -48q1 -3 1 -10l5 -121q4 -13 25 -13zM241 134q26 0 25 35l-6 131
q-1 30 -22 30q-14 0 -22 -19q0 -2 -4.5 -33t-2.5 -45l15 -92v-1q8 -6 17 -6zM133 -118q29 0 32 46l8 127h-25q0 67 -40 161l7 -310q0 -24 18 -24z" />
    <glyph glyph-name="K.ss04" horiz-adv-x="627" 
d="M804 -247q-88 0 -160.5 27.5t-121.5 71.5t-89 109.5t-63.5 129t-44.5 143.5l-64 -68l-7 -33q-19 -95 2 -133h-260q49 37 75 166l62 316q26 130 -11 167h260q-37 -42 -55 -142l-16 -83h4l90 98q74 86 83 127h240q-23 -17 -33 -25.5t-34.5 -35t-72.5 -80.5l-120 -132
q12 -55 24 -99t30 -95t38.5 -89t49.5 -75t62.5 -60.5t78 -38t96.5 -14.5q106 0 195 39l-48 -166q-69 -25 -190 -25z" />
    <glyph glyph-name="uni0136.ss04" horiz-adv-x="627" 
d="M804 -247q-88 0 -160.5 27.5t-121.5 71.5t-89 109.5t-63.5 129t-44.5 143.5l-64 -68l-7 -33q-19 -95 2 -133h-260q49 37 75 166l62 316q26 130 -11 167h260q-37 -42 -55 -142l-16 -83h4l90 98q74 86 83 127h240q-23 -17 -33 -25.5t-34.5 -35t-72.5 -80.5l-120 -132
q12 -55 24 -99t30 -95t38.5 -89t49.5 -75t62.5 -60.5t78 -38t96.5 -14.5q106 0 195 39l-48 -166q-69 -25 -190 -25zM204 -256l-8 46q33 3 56.5 21t25.5 37h-4q-23 0 -38.5 11.5t-15.5 31.5q0 26 21 42t54 16q31 0 47.5 -15.5t16.5 -43.5q0 -54 -46 -98t-109 -48z" />
    <glyph glyph-name="Q.ss05" horiz-adv-x="675" 
d="M738 -108q70 0 148.5 15t133.5 38l-44 -160q-99 -44 -254 -44q-151 0 -267.5 63t-171.5 184q-112 5 -173.5 72.5t-61.5 186.5q0 186 94 300t265 114q121 0 187.5 -66t66.5 -189q0 -140 -56.5 -243.5t-160.5 -147.5q78 -123 294 -123zM390 498q-70 0 -108 -62t-38 -170
q0 -54 21 -84.5t54 -30.5q68 0 107.5 65t39.5 171q0 53 -22 82t-54 29z" />
    <glyph glyph-name="R.ss06" horiz-adv-x="640" 
d="M821 -247q-103 0 -186 32.5t-134 79t-90.5 113t-57.5 119t-31 113.5h-52l-9 -44q-24 -130 -9 -166h-256q31 22 47 62.5t28 103.5l62 316q26 130 -11 167h300q102 0 165.5 -38t63.5 -125q0 -94 -43.5 -156.5t-118.5 -86.5q15 -52 32.5 -94t48.5 -88.5t69 -78t96 -52
t128 -20.5q111 0 188 37l-53 -173q-56 -21 -177 -21zM298 355h54q53 0 81 24t28 70q0 50 -80 50h-54z" />
    <glyph glyph-name="Racute.ss06" horiz-adv-x="640" 
d="M377 691l-33 75q101 47 207 155l56 -103q-78 -83 -230 -127zM821 -247q-103 0 -186 32.5t-134 79t-90.5 113t-57.5 119t-31 113.5h-52l-9 -44q-24 -130 -9 -166h-256q31 22 47 62.5t28 103.5l62 316q26 130 -11 167h300q102 0 165.5 -38t63.5 -125q0 -94 -43.5 -156.5
t-118.5 -86.5q15 -52 32.5 -94t48.5 -88.5t69 -78t96 -52t128 -20.5q111 0 188 37l-53 -173q-56 -21 -177 -21zM298 355h54q53 0 81 24t28 70q0 50 -80 50h-54z" />
    <glyph glyph-name="Rcaron.ss06" horiz-adv-x="640" 
d="M349 685q-31 84 -85 133l58 52q59 -32 106 -98h4q66 61 147 98l40 -55q-76 -54 -136 -130h-134zM821 -247q-103 0 -186 32.5t-134 79t-90.5 113t-57.5 119t-31 113.5h-52l-9 -44q-24 -130 -9 -166h-256q31 22 47 62.5t28 103.5l62 316q26 130 -11 167h300
q102 0 165.5 -38t63.5 -125q0 -94 -43.5 -156.5t-118.5 -86.5q15 -52 32.5 -94t48.5 -88.5t69 -78t96 -52t128 -20.5q111 0 188 37l-53 -173q-56 -21 -177 -21zM298 355h54q53 0 81 24t28 70q0 50 -80 50h-54z" />
    <glyph glyph-name="uni0156.ss06" horiz-adv-x="640" 
d="M821 -247q-103 0 -186 32.5t-134 79t-90.5 113t-57.5 119t-31 113.5h-52l-9 -44q-24 -130 -9 -166h-256q31 22 47 62.5t28 103.5l62 316q26 130 -11 167h300q102 0 165.5 -38t63.5 -125q0 -94 -43.5 -156.5t-118.5 -86.5q15 -52 32.5 -94t48.5 -88.5t69 -78t96 -52
t128 -20.5q111 0 188 37l-53 -173q-56 -21 -177 -21zM298 355h54q53 0 81 24t28 70q0 50 -80 50h-54zM195 -256l-8 46q33 3 56.5 21t25.5 37h-4q-23 0 -38.5 11.5t-15.5 31.5q0 26 21 42t54 16q31 0 47.5 -15.5t16.5 -43.5q0 -54 -46 -98t-109 -48z" />
    <glyph glyph-name="i.loclTRK" horiz-adv-x="319" 
d="M223 589q-70 -1 -70 55q0 41 27 66.5t71 25.5q69 0 69 -56q0 -41 -26 -65.5t-71 -25.5zM20 0l69 342q16 74 15.5 107.5t-23.5 53.5h227l-73 -362q-12 -46 -11.5 -83t20.5 -58h-224z" />
    <glyph glyph-name="a.inferior" horiz-adv-x="412" 
d="M204 -169q-55 0 -90 39.5t-35 110.5q0 110 62 183t139 73q51 0 96 -26l10 15h138l-55 -268q-19 -92 1 -118h-161l-4 23h-4q-49 -32 -97 -32zM262 -52q25 0 64 42l23 111q-23 23 -48 23q-28 0 -48.5 -37t-20.5 -93q0 -46 30 -46z" />
    <glyph glyph-name="b.inferior" horiz-adv-x="441" 
d="M305 -169q-57 0 -96 25l-21 -16h-120l84 411q13 64 13.5 94t-15.5 48h179l-36 -179q48 26 95 26q54 0 89.5 -40t35.5 -111q0 -107 -61.5 -182.5t-146.5 -75.5zM285 -56q29 0 52 37.5t23 95.5q0 45 -30 45q-26 0 -62 -32l-26 -130q19 -16 43 -16z" />
    <glyph glyph-name="c.inferior" horiz-adv-x="355" 
d="M246 -169q-77 0 -121 41t-44 120q0 115 65.5 181.5t162.5 66.5q30 0 63 -8.5t46 -8.5l-46 -131q-19 28 -62 28q-30 0 -52.5 -36t-22.5 -79q0 -54 48 -54q41 0 62 25l27 -131q-13 1 -53 -6.5t-73 -7.5z" />
    <glyph glyph-name="d.inferior" horiz-adv-x="437" 
d="M204 -169q-55 0 -90 40t-35 110q0 107 61.5 182.5t146.5 75.5q40 0 86 -19l10 49q12 61 12 84.5t-18 39.5h180l-90 -443q-9 -42 -8.5 -68.5t15.5 -41.5h-157q-4 13 -2 26l-3 2q-46 -37 -108 -37zM262 -52q25 0 63 38l26 126q-23 14 -44 14q-29 0 -52 -37t-23 -95
q0 -46 30 -46z" />
    <glyph glyph-name="e.inferior" horiz-adv-x="394" 
d="M272 -169q-87 0 -138.5 46.5t-51.5 121.5q0 107 62.5 174t162.5 67q72 0 117.5 -39t45.5 -95q0 -122 -172 -122h-68q3 -19 20.5 -33t44.5 -14q58 0 84 22l39 -109q-12 0 -60 -9.5t-86 -9.5zM235 69h44q50 0 50 29q0 15 -9.5 24.5t-26.5 9.5q-48 0 -58 -63z" />
    <glyph glyph-name="f.inferior" horiz-adv-x="275" 
d="M95 -160l55 281h-50l21 108h49l8 31q32 132 192 132q53 0 87 -15l-39 -106q-18 18 -50 18q-36 0 -44 -41l-4 -17h73l-22 -110h-72l-30 -155q-11 -58 -11 -80.5t13 -45.5h-176z" />
    <glyph glyph-name="g.inferior" horiz-adv-x="418" 
d="M204 -320q-32 0 -81 9t-57 9l45 130q42 -42 104 -42q35 0 55.5 17t25.5 43l4 18l-2 2q-35 -35 -91 -35q-58 0 -93 39.5t-35 110.5q0 107 62.5 182.5t149.5 75.5q53 0 84 -28l11 18h137l-73 -357q-20 -96 -80 -144t-166 -48zM261 -52q29 0 65 41l22 114q-21 23 -47 23
q-27 0 -48 -37t-21 -95q0 -46 29 -46z" />
    <glyph glyph-name="h.inferior" horiz-adv-x="455" 
d="M70 -160l86 430q14 75 11 94q-4 18 -17 29h182l-40 -198h7q12 15 44.5 30t66.5 15q60 0 84.5 -45.5t9.5 -118.5l-24 -128q-9 -37 -8.5 -64.5t15.5 -43.5h-180l43 218q10 56 -19 56q-16 0 -34.5 -15.5t-32.5 -39.5l-21 -111q-6 -30 -8 -44.5t0 -33.5t12 -30h-177z" />
    <glyph glyph-name="i.inferior" horiz-adv-x="231" 
d="M235 275q-80 0 -80 56q0 36 25 60t65 24q38 0 59 -15.5t21 -42.5q0 -37 -25 -59.5t-65 -22.5zM70 -160l53 267q15 76 11 95q-3 17 -17 29h180l-57 -283q-10 -37 -9.5 -64.5t16.5 -43.5h-177z" />
    <glyph glyph-name="j.inferior" horiz-adv-x="234" 
d="M230 262q-38 0 -59 15t-21 42q0 35 25 59t65 24q39 0 60 -15.5t21 -42.5q0 -36 -25 -59t-66 -23zM45 -332q-19 0 -49.5 6t-41.5 5l39 124q20 -18 41 -18q16 0 26 15t18 53l47 240q12 59 12 84.5t-18 41.5l181 -1l-72 -360q-18 -92 -59.5 -141t-123.5 -49z" />
    <glyph glyph-name="k.inferior" horiz-adv-x="459" 
d="M69 -160l86 430q12 56 12 82t-17 41h179l-35 -181q46 28 103 28q49 0 82.5 -28t33.5 -80q0 -90 -93 -141l37 -81q21 -49 52 -70h-177l-57 145l8 49q30 0 53.5 16t23.5 47q0 34 -30 34q-32 0 -60 -33l-31 -151q-9 -42 -8 -67.5t16 -39.5h-178z" />
    <glyph glyph-name="l.inferior" horiz-adv-x="233" 
d="M69 -160l86 428q12 56 12 82.5t-17 42.5h179l-89 -444q-9 -41 -8.5 -68t15.5 -41h-178z" />
    <glyph glyph-name="m.inferior" horiz-adv-x="672" 
d="M69 -160l56 284q9 34 9 63t-17 44h177l-7 -49h4q52 57 127 57q69 0 84 -62q60 62 134 62q67 0 89 -41.5t9 -105.5l-28 -144q-17 -85 6 -108h-178l42 220q8 40 3 46q-4 6 -15 6q-27 0 -65 -38l-24 -126q-17 -83 0 -108h-174l44 220q0 2 1 5q6 21 4 34t-17 13
q-29 0 -66 -38l-25 -126q-9 -45 -9 -69t11 -39h-175z" />
    <glyph glyph-name="n.inferior" horiz-adv-x="455" 
d="M71 -160l54 283q12 65 6 85q-4 13 -14 23h171l-8 -42h4q55 51 114 51q60 0 89 -45.5t15 -117.5l-25 -128q-9 -40 -8.5 -67t15.5 -42h-178l42 218q12 55 -21 55q-28 0 -63 -47l-22 -117q-17 -84 0 -109h-171z" />
    <glyph glyph-name="o.inferior" horiz-adv-x="423" 
d="M248 -169q-78 0 -123 41t-45 116q0 116 67 184t174 68q77 0 122 -40.5t45 -115.5q0 -117 -67 -185t-173 -68zM268 -49q30 0 48.5 32t18.5 85q0 52 -35 52q-29 0 -48.5 -31.5t-19.5 -84.5t36 -53z" />
    <glyph glyph-name="p.inferior" horiz-adv-x="436" 
d="M34 -315l86 423q9 42 11.5 59t-1 35t-16.5 29h173l-3 -15h6q46 24 85 24q61 0 97 -39.5t36 -111.5q0 -108 -59 -183t-149 -75q-42 0 -84 20l-11 -58q-9 -46 -9 -69.5t15 -38.5h-177zM281 -56q29 0 52 37.5t23 95.5q0 45 -31 45q-25 0 -60 -32l-27 -131q23 -15 43 -15z
" />
    <glyph glyph-name="q.inferior" horiz-adv-x="433" 
d="M262 -315l36 174l-2 3q-41 -31 -85 -31q-60 0 -96.5 39.5t-36.5 110.5q0 104 63 181t140 77q48 0 90 -21l16 11h136l-86 -425q-19 -94 -1 -119h-174zM261 -52q24 0 63 41l24 119q-20 18 -47 18q-28 0 -49 -37t-21 -95q0 -46 30 -46z" />
    <glyph glyph-name="r.inferior" horiz-adv-x="327" 
d="M70 -160l55 285q9 39 8 66t-16 40h165l-8 -56h7q40 65 115 65q25 0 41 -9l-41 -143q-13 21 -39 21q-63 0 -99 -66l-17 -95q-6 -30 -8 -44.5t0.5 -33.5t13.5 -30h-177z" />
    <glyph glyph-name="s.inferior" horiz-adv-x="346" 
d="M210 -169q-44 0 -94 11.5t-65 10.5l67 140q13 -26 40.5 -43.5t56.5 -17.5q27 0 27 17t-37 33l-18 8q-84 37 -84 109q0 62 47.5 101.5t117.5 39.5q32 0 78 -11t60 -11l-62 -121q-13 18 -34.5 29.5t-40.5 11.5q-24 0 -24 -17q0 -14 33 -28l19 -7q90 -36 90 -110
q0 -68 -49.5 -106.5t-127.5 -38.5z" />
    <glyph glyph-name="t.inferior" horiz-adv-x="311" 
d="M242 -167q-72 0 -106.5 40.5t-18.5 124.5l24 118h-51l22 113l51 2l16 85h149l-15 -85h84l-23 -115h-83l-22 -107q-11 -59 22 -59q27 0 50 14l16 -123q-15 2 -52 -3t-63 -5z" />
    <glyph glyph-name="u.inferior" horiz-adv-x="449" 
d="M189 -169q-120 0 -93 148l28 144q6 31 8 46t-1 33t-13 29h177l-44 -223q-6 -28 -1.5 -39.5t21.5 -11.5q33 0 55 37l26 128q15 85 -2 109h172l-54 -279q-1 -4 -3 -15.5t-2.5 -15t-2 -13.5t-1.5 -14v-12t1 -12.5t3 -10.5t5 -10.5t7 -8.5h-171l7 39h-7q-41 -48 -115 -48z
" />
    <glyph glyph-name="v.inferior" horiz-adv-x="450" 
d="M163 -160l-30 249q-14 110 -36 142h167l13 -158q1 -14 1 -124h6q8 29 70 182q28 67 10 100h164q-11 -46 -54.5 -142t-76 -168.5t-25.5 -80.5h-209z" />
    <glyph glyph-name="w.inferior" horiz-adv-x="620" 
d="M148 -160l-20 295q-3 48 -6.5 66t-14.5 30h156l7 -129q6 -113 1 -156h7q10 55 40 118q51 110 61 167h206l8 -130q7 -99 1 -155h6q2 17 46.5 129t39.5 156h147q-15 -57 -83.5 -213.5t-72.5 -177.5h-208l-8 178q-2 73 1 87h-5q-6 -32 -30 -88q-57 -129 -70 -177h-209z" />
    <glyph glyph-name="x.inferior" horiz-adv-x="427" 
d="M397 -81q25 -60 47 -79h-173l-10 31q-3 12 -10.5 39.5t-10.5 42.5h-6q-23 -49 -26 -65l-7 -10q-7 -25 -5 -38h-169l159 227l-31 84q-19 58 -46 80h172l8 -32q18 -77 19 -81h7q6 13 12.5 30.5t10 26.5t6.5 10v6q9 17 8 40h167l-158 -223z" />
    <glyph glyph-name="y.inferior" horiz-adv-x="437" 
d="M152 -315q-26 0 -54.5 4t-38.5 1l55 146q5 -15 22 -26.5t35 -11.5q37 0 42 39l1 3l-59 257q-11 44 -16 61t-14.5 39t-21.5 34h168l32 -207q5 -33 4 -49h7q8 31 14 46l35 109q23 74 13 101h157l-171 -407q-58 -139 -210 -139z" />
    <glyph glyph-name="z.inferior" horiz-adv-x="370" 
d="M425 231l-13 -88l-160 -193h43q57 0 90 16l-22 -126h-321l14 86l159 195h-36q-45 0 -74 -16l22 126h298z" />
    <glyph glyph-name="a.ordn" horiz-adv-x="471" 
d="M204 341q-55 0 -90 39.5t-35 110.5q0 110 62 183t139 73q51 0 96 -26l10 15h138l-55 -268q-19 -92 1 -118h-161l-4 23h-4q-49 -32 -97 -32zM262 458q25 0 64 42l23 111q-23 23 -48 23q-28 0 -48.5 -37t-20.5 -93q0 -46 30 -46z" />
    <glyph glyph-name="b.ordn" horiz-adv-x="474" 
d="M305 341q-57 0 -96 25l-21 -16h-120l84 411q13 64 13.5 94t-15.5 48h179l-36 -179q48 26 95 26q54 0 89.5 -40t35.5 -111q0 -107 -61.5 -182.5t-146.5 -75.5zM285 454q29 0 52 37.5t23 95.5q0 45 -30 45q-26 0 -62 -32l-26 -130q19 -16 43 -16z" />
    <glyph glyph-name="c.ordn" horiz-adv-x="366" 
d="M246 341q-77 0 -121 41t-44 120q0 115 65.5 181.5t162.5 66.5q30 0 63 -8.5t46 -8.5l-46 -131q-19 28 -62 28q-30 0 -52.5 -36t-22.5 -79q0 -54 48 -54q41 0 62 25l27 -131q-13 1 -53 -6.5t-73 -7.5z" />
    <glyph glyph-name="d.ordn" horiz-adv-x="476" 
d="M204 341q-55 0 -90 40t-35 110q0 107 61.5 182.5t146.5 75.5q40 0 86 -19l10 49q12 61 12 84.5t-18 39.5h180l-90 -443q-9 -42 -8.5 -68.5t15.5 -41.5h-157q-4 13 -2 26l-3 2q-46 -37 -108 -37zM262 458q25 0 63 38l26 126q-23 14 -44 14q-29 0 -52 -37t-23 -95
q0 -46 30 -46z" />
    <glyph glyph-name="e.ordn" horiz-adv-x="427" 
d="M272 341q-87 0 -138.5 46.5t-51.5 121.5q0 107 62.5 174t162.5 67q72 0 117.5 -39t45.5 -95q0 -122 -172 -122h-68q3 -19 20.5 -33t44.5 -14q58 0 84 22l39 -109q-12 0 -60 -9.5t-86 -9.5zM235 579h44q50 0 50 29q0 15 -9.5 24.5t-26.5 9.5q-48 0 -58 -63z" />
    <glyph glyph-name="f.ordn" horiz-adv-x="302" 
d="M95 350l55 281h-50l21 108h49l8 31q32 132 192 132q53 0 87 -15l-39 -106q-18 18 -50 18q-36 0 -44 -41l-4 -17h73l-22 -110h-72l-30 -155q-11 -58 -11 -80.5t13 -45.5h-176z" />
    <glyph glyph-name="g.ordn" horiz-adv-x="464" 
d="M204 190q-32 0 -81 9t-57 9l45 130q42 -42 104 -42q35 0 55.5 17t25.5 43l4 18l-2 2q-35 -35 -91 -35q-58 0 -93 39.5t-35 110.5q0 107 62.5 182.5t149.5 75.5q53 0 84 -28l11 18h137l-73 -357q-20 -96 -80 -144t-166 -48zM261 458q29 0 65 41l22 114q-21 23 -47 23
q-27 0 -48 -37t-21 -95q0 -46 29 -46z" />
    <glyph glyph-name="h.ordn" horiz-adv-x="484" 
d="M70 350l86 430q14 75 11 94q-4 18 -17 29h182l-40 -198h7q12 15 44.5 30t66.5 15q60 0 84.5 -45.5t9.5 -118.5l-24 -128q-9 -37 -8.5 -64.5t15.5 -43.5h-180l43 218q10 56 -19 56q-16 0 -34.5 -15.5t-32.5 -39.5l-21 -111q-6 -30 -8 -44.5t0 -33.5t12 -30h-177z" />
    <glyph glyph-name="i.ordn" horiz-adv-x="248" 
d="M235 785q-80 0 -80 56q0 36 25 60t65 24q38 0 59 -15.5t21 -42.5q0 -37 -25 -59.5t-65 -22.5zM70 350l53 267q15 76 11 95q-4 18 -17 29h180l-57 -283q-10 -37 -9.5 -64.5t16.5 -43.5h-177z" />
    <glyph glyph-name="j.ordn" horiz-adv-x="236" 
d="M230 785q-80 0 -80 56q0 36 25 60t65 24q38 0 59.5 -15.5t21.5 -42.5q0 -37 -25 -59.5t-66 -22.5zM45 191q-19 0 -49.5 5.5t-41.5 4.5l39 125q19 -19 41 -19q16 0 26 15t18 54l47 240q12 59 12 84.5t-18 41.5l181 -1l-72 -361q-18 -91 -59.5 -140t-123.5 -49z" />
    <glyph glyph-name="k.ordn" horiz-adv-x="479" 
d="M69 350l86 430q12 56 12 82t-17 41h179l-35 -181q46 28 103 28q49 0 82.5 -28t33.5 -80q0 -90 -93 -141l37 -81q21 -49 52 -70h-177l-57 145l8 49q30 0 53.5 16t23.5 47q0 34 -30 34q-32 0 -60 -33l-31 -151q-9 -42 -8 -67.5t16 -39.5h-178z" />
    <glyph glyph-name="l.ordn" horiz-adv-x="249" 
d="M69 350l86 428q12 56 12 82.5t-17 42.5h179l-89 -444q-9 -41 -8.5 -68t15.5 -41h-178z" />
    <glyph glyph-name="m.ordn" horiz-adv-x="710" 
d="M69 350l56 284q9 34 9 63t-17 44h177l-7 -49h4q52 57 127 57q69 0 84 -62q60 62 134 62q67 0 89 -41.5t9 -105.5l-28 -144q-17 -85 6 -108h-178l42 220q8 40 3 46q-4 6 -15 6q-27 0 -65 -38l-24 -126q-17 -83 0 -108h-174l44 220q0 2 1 5q6 21 4 34t-17 13q-29 0 -66 -38
l-25 -126q-9 -45 -9 -69t11 -39h-175z" />
    <glyph glyph-name="n.ordn" horiz-adv-x="482" 
d="M71 350l54 283q12 65 6 85q-4 13 -14 23h171l-8 -42h4q55 51 114 51q60 0 89 -45.5t15 -117.5l-25 -128q-9 -40 -8.5 -67t15.5 -42h-178l42 218q12 55 -21 55q-28 0 -63 -47l-22 -117q-17 -84 0 -109h-171z" />
    <glyph glyph-name="o.ordn" horiz-adv-x="451" 
d="M248 341q-78 0 -123 41t-45 116q0 116 67 184t174 68q77 0 122 -40.5t45 -115.5q0 -117 -67 -185t-173 -68zM268 461q30 0 48.5 32t18.5 85q0 52 -35 52q-29 0 -48.5 -31.5t-19.5 -84.5t36 -53z" />
    <glyph glyph-name="p.ordn" horiz-adv-x="470" 
d="M34 195l86 423q9 42 11.5 59t-1 35t-16.5 29h173l-3 -15h6q46 24 85 24q61 0 97 -39.5t36 -111.5q0 -108 -59 -183t-149 -75q-42 0 -84 20l-11 -58q-9 -46 -9 -69.5t15 -38.5h-177zM281 454q29 0 52 37.5t23 95.5q0 45 -31 45q-25 0 -60 -32l-27 -131q23 -15 43 -15z" />
    <glyph glyph-name="q.ordn" horiz-adv-x="477" 
d="M262 195l36 174l-2 3q-41 -31 -85 -31q-60 0 -96.5 39.5t-36.5 110.5q0 104 63 181t140 77q48 0 90 -21l16 11h136l-86 -425q-19 -94 -1 -119h-174zM261 458q24 0 63 41l24 119q-19 18 -47 18t-49 -37t-21 -95q0 -46 30 -46z" />
    <glyph glyph-name="r.ordn" horiz-adv-x="350" 
d="M70 350l55 285q9 39 8 66t-16 40h165l-8 -56h7q40 65 115 65q25 0 41 -9l-41 -143q-13 21 -39 21q-63 0 -99 -66l-17 -95q-6 -30 -8 -44.5t0.5 -33.5t13.5 -30h-177z" />
    <glyph glyph-name="s.ordn" horiz-adv-x="366" 
d="M210 341q-44 0 -94 11.5t-65 10.5l67 140q13 -26 40.5 -43.5t56.5 -17.5q27 0 27 17t-37 33l-18 8q-84 37 -84 109q0 62 47.5 101.5t117.5 39.5q32 0 78 -11t60 -11l-62 -121q-13 18 -34.5 29.5t-40.5 11.5q-24 0 -24 -17q0 -14 33 -28l19 -7q90 -36 90 -110
q0 -68 -49.5 -106.5t-127.5 -38.5z" />
    <glyph glyph-name="t.ordn" horiz-adv-x="334" 
d="M242 343q-72 0 -106.5 40.5t-18.5 124.5l24 118h-51l22 113l51 2l16 85h149l-15 -85h84l-23 -115h-83l-22 -107q-11 -59 22 -59q27 0 50 14l16 -123q-15 2 -52 -3t-63 -5z" />
    <glyph glyph-name="u.ordn" horiz-adv-x="479" 
d="M189 341q-120 0 -93 148l28 144q6 31 8 46t-1 33t-13 29h177l-44 -223q-6 -28 -1.5 -39.5t21.5 -11.5q33 0 55 37l26 128q15 85 -2 109h172l-54 -279q-1 -4 -3 -15.5t-2.5 -15t-2 -13.5t-1.5 -14v-12t1 -12.5t3 -10.5t5 -10.5t7 -8.5h-171l7 39h-7q-41 -48 -115 -48z" />
    <glyph glyph-name="v.ordn" horiz-adv-x="448" 
d="M163 350l-30 249q-14 110 -36 142h167l13 -158q1 -14 1 -124h6q8 29 70 182q28 67 10 100h164q-11 -46 -54.5 -142t-76 -168.5t-25.5 -80.5h-209z" />
    <glyph glyph-name="w.ordn" horiz-adv-x="754" 
d="M148 350l-20 295q-3 48 -6.5 66t-14.5 30h156l7 -129q6 -113 1 -156h7q10 55 40 118q51 110 61 167h206l8 -130q7 -99 1 -155h6q2 17 46.5 129t39.5 156h147q-15 -57 -83.5 -213.5t-72.5 -177.5h-208l-8 178q-2 73 1 87h-5q-6 -32 -30 -88q-57 -129 -70 -177h-209z" />
    <glyph glyph-name="x.ordn" horiz-adv-x="427" 
d="M397 429q25 -60 47 -79h-173l-10 31q-3 12 -10.5 39.5t-10.5 42.5h-6q-23 -49 -26 -65l-7 -10q-7 -25 -5 -38h-169l159 227l-31 84q-19 58 -46 80h172l8 -32q18 -77 19 -81h7q6 13 12.5 30.5t10 26.5t6.5 10v6q9 17 8 40h167l-158 -223z" />
    <glyph glyph-name="y.ordn" horiz-adv-x="454" 
d="M152 195q-26 0 -54.5 4t-38.5 1l55 146q5 -15 22 -26.5t35 -11.5q37 0 42 39l1 3l-59 257q-11 44 -16 61t-14.5 39t-21.5 34h168l32 -207q5 -33 4 -49h7q8 31 14 46l35 109q23 74 13 101h157l-171 -407q-58 -139 -210 -139z" />
    <glyph glyph-name="z.ordn" horiz-adv-x="361" 
d="M425 741l-13 -88l-160 -193h43q57 0 90 16l-22 -126h-321l14 86l159 195h-36q-45 0 -74 -16l22 126h298z" />
    <glyph glyph-name="a.ss01" horiz-adv-x="554" 
d="M138 -12q-60 0 -94 33t-34 89q0 97 72 149t206 52h25l3 13q5 25 -7.5 36.5t-42.5 11.5q-72 0 -147 -44l-11 158q26 0 97.5 14.5t114.5 14.5q105 0 154 -51.5t29 -151.5l-33 -171q-11 -44 -11 -82.5t22 -58.5h-205l12 39h-9q-53 -51 -141 -51zM222 119q17 0 35 12t27 26
l9 48h-24q-77 0 -77 -58q0 -28 30 -28z" />
    <glyph glyph-name="aacute.ss01" horiz-adv-x="554" 
d="M278 569l-33 75q101 47 207 155l56 -103q-78 -83 -230 -127zM138 -12q-60 0 -94 33t-34 89q0 97 72 149t206 52h25l3 13q5 25 -7.5 36.5t-42.5 11.5q-72 0 -147 -44l-11 158q26 0 97.5 14.5t114.5 14.5q105 0 154 -51.5t29 -151.5l-33 -171q-11 -44 -11 -82.5t22 -58.5
h-205l12 39h-9q-53 -51 -141 -51zM222 119q17 0 35 12t27 26l9 48h-24q-77 0 -77 -58q0 -28 30 -28z" />
    <glyph glyph-name="abreve.ss01" horiz-adv-x="554" 
d="M321 565q-72 0 -108 42t-21 115h84q-2 -66 59 -66q59 0 79 66h84q-25 -157 -177 -157zM138 -12q-60 0 -94 33t-34 89q0 97 72 149t206 52h25l3 13q5 25 -7.5 36.5t-42.5 11.5q-72 0 -147 -44l-11 158q26 0 97.5 14.5t114.5 14.5q105 0 154 -51.5t29 -151.5l-33 -171
q-11 -44 -11 -82.5t22 -58.5h-205l12 39h-9q-53 -51 -141 -51zM222 119q17 0 35 12t27 26l9 48h-24q-77 0 -77 -58q0 -28 30 -28z" />
    <glyph glyph-name="acircumflex.ss01" horiz-adv-x="554" 
d="M186 562l-48 55q81 58 133 130h148q27 -67 86 -130l-62 -55q-69 39 -107 98h-4q-57 -59 -146 -98zM138 -12q-60 0 -94 33t-34 89q0 97 72 149t206 52h25l3 13q5 25 -7.5 36.5t-42.5 11.5q-72 0 -147 -44l-11 158q26 0 97.5 14.5t114.5 14.5q105 0 154 -51.5t29 -151.5
l-33 -171q-11 -44 -11 -82.5t22 -58.5h-205l12 39h-9q-53 -51 -141 -51zM222 119q17 0 35 12t27 26l9 48h-24q-77 0 -77 -58q0 -28 30 -28z" />
    <glyph glyph-name="adieresis.ss01" horiz-adv-x="554" 
d="M209 589q-27 0 -43.5 16t-16.5 41q0 36 27 63t63 27q27 0 43.5 -16.5t16.5 -41.5q0 -36 -26.5 -62.5t-63.5 -26.5zM431 589q-27 0 -43.5 16t-16.5 41q0 36 27 63t62 27q28 0 44.5 -16.5t16.5 -41.5q0 -36 -26.5 -62.5t-63.5 -26.5zM138 -12q-60 0 -94 33t-34 89
q0 97 72 149t206 52h25l3 13q5 25 -7.5 36.5t-42.5 11.5q-72 0 -147 -44l-11 158q26 0 97.5 14.5t114.5 14.5q105 0 154 -51.5t29 -151.5l-33 -171q-11 -44 -11 -82.5t22 -58.5h-205l12 39h-9q-53 -51 -141 -51zM222 119q17 0 35 12t27 26l9 48h-24q-77 0 -77 -58
q0 -28 30 -28z" />
    <glyph glyph-name="agrave.ss01" horiz-adv-x="554" 
d="M357 575q-54 12 -107.5 45t-76.5 76l90 95q24 -50 63 -90t83 -64zM138 -12q-60 0 -94 33t-34 89q0 97 72 149t206 52h25l3 13q5 25 -7.5 36.5t-42.5 11.5q-72 0 -147 -44l-11 158q26 0 97.5 14.5t114.5 14.5q105 0 154 -51.5t29 -151.5l-33 -171q-11 -44 -11 -82.5
t22 -58.5h-205l12 39h-9q-53 -51 -141 -51zM222 119q17 0 35 12t27 26l9 48h-24q-77 0 -77 -58q0 -28 30 -28z" />
    <glyph glyph-name="amacron.ss01" horiz-adv-x="554" 
d="M191 603l17 87h266l-17 -87h-266zM138 -12q-60 0 -94 33t-34 89q0 97 72 149t206 52h25l3 13q5 25 -7.5 36.5t-42.5 11.5q-72 0 -147 -44l-11 158q26 0 97.5 14.5t114.5 14.5q105 0 154 -51.5t29 -151.5l-33 -171q-11 -44 -11 -82.5t22 -58.5h-205l12 39h-9
q-53 -51 -141 -51zM222 119q17 0 35 12t27 26l9 48h-24q-77 0 -77 -58q0 -28 30 -28z" />
    <glyph glyph-name="aogonek.ss01" horiz-adv-x="554" 
d="M503 312l-33 -171q-11 -44 -11 -82.5t22 -58.5h-1q-37 -21 -63.5 -53t-26.5 -55q0 -24 25 -24q23 0 38 17l27 -51q-45 -45 -108 -45q-39 0 -63 18.5t-24 50.5q0 39 33 77t91 65h-133l12 39h-9q-53 -51 -141 -51q-60 0 -94 33t-34 89q0 97 72 149t206 52h25l3 13
q5 25 -7.5 36.5t-42.5 11.5q-72 0 -147 -44l-11 158q26 0 97.5 14.5t114.5 14.5q105 0 154 -51.5t29 -151.5zM284 157l9 48h-24q-77 0 -77 -58q0 -28 30 -28q17 0 35 12t27 26z" />
    <glyph glyph-name="aring.ss01" horiz-adv-x="554" 
d="M314 553q-50 0 -77 22.5t-27 58.5q0 52 40.5 87t102.5 35q50 0 77 -22t27 -59q0 -52 -41 -87t-102 -35zM325 610q22 0 36.5 16t14.5 42q0 31 -34 31q-22 0 -36.5 -16t-14.5 -41q0 -32 34 -32zM138 -12q-60 0 -94 33t-34 89q0 97 72 149t206 52h25l3 13q5 25 -7.5 36.5
t-42.5 11.5q-72 0 -147 -44l-11 158q26 0 97.5 14.5t114.5 14.5q105 0 154 -51.5t29 -151.5l-33 -171q-11 -44 -11 -82.5t22 -58.5h-205l12 39h-9q-53 -51 -141 -51zM222 119q17 0 35 12t27 26l9 48h-24q-77 0 -77 -58q0 -28 30 -28z" />
    <glyph glyph-name="atilde.ss01" horiz-adv-x="554" 
d="M396 581q-26 0 -49 10t-35.5 21.5t-25.5 21.5t-23 10q-15 0 -21.5 -14t0.5 -39l-101 7q11 74 46 110.5t84 36.5q34 0 60.5 -16t43.5 -32t28 -16q15 0 22.5 14.5t1.5 39.5l98 -8q-10 -74 -45 -110t-84 -36zM138 -12q-60 0 -94 33t-34 89q0 97 72 149t206 52h25l3 13
q5 25 -7.5 36.5t-42.5 11.5q-72 0 -147 -44l-11 158q26 0 97.5 14.5t114.5 14.5q105 0 154 -51.5t29 -151.5l-33 -171q-11 -44 -11 -82.5t22 -58.5h-205l12 39h-9q-53 -51 -141 -51zM222 119q17 0 35 12t27 26l9 48h-24q-77 0 -77 -58q0 -28 30 -28z" />
    <glyph glyph-name="g.ss02" horiz-adv-x="521" 
d="M446 489q69 0 114 30l-27 -133q-22 25 -71 25l-3 -5q17 -24 17 -64q0 -80 -65.5 -132t-181.5 -52h-16q-17 -10 -17 -26q0 -19 54 -19q113 0 161.5 -29.5t48.5 -99.5q0 -83 -79 -133.5t-216 -50.5q-221 0 -221 108q0 45 33.5 78.5t81.5 42.5q-17 22 -17 49q0 33 21 60.5
t49 42.5q-75 39 -75 124q0 89 71.5 149.5t190.5 60.5q64 0 104 -26h43zM250 261q25 0 43.5 30t18.5 71q0 36 -36 36q-25 0 -43 -28.5t-18 -70.5q0 -38 35 -38zM209 -23q-43 0 -76 9q-25 -14 -25 -39q0 -37 78 -37q43 0 68.5 12t25.5 32q0 23 -71 23z" />
    <glyph glyph-name="gbreve.ss02" horiz-adv-x="521" 
d="M308 550q-72 0 -108 42t-21 115h84q-2 -66 59 -66q59 0 79 66h84q-25 -157 -177 -157zM446 489q69 0 114 30l-27 -133q-22 25 -71 25l-3 -5q17 -24 17 -64q0 -80 -65.5 -132t-181.5 -52h-16q-17 -10 -17 -26q0 -19 54 -19q113 0 161.5 -29.5t48.5 -99.5q0 -83 -79 -133.5
t-216 -50.5q-221 0 -221 108q0 45 33.5 78.5t81.5 42.5q-17 22 -17 49q0 33 21 60.5t49 42.5q-75 39 -75 124q0 89 71.5 149.5t190.5 60.5q64 0 104 -26h43zM250 261q25 0 43.5 30t18.5 71q0 36 -36 36q-25 0 -43 -28.5t-18 -70.5q0 -38 35 -38zM209 -23q-43 0 -76 9
q-25 -14 -25 -39q0 -37 78 -37q43 0 68.5 12t25.5 32q0 23 -71 23z" />
    <glyph glyph-name="uni0123.ss02" horiz-adv-x="521" 
d="M309 549q-82 0 -82 64q0 65 58 115.5t137 54.5l9 -53q-40 -2 -69 -22.5t-34 -42.5h7q28 0 48 -13t20 -36q0 -29 -26.5 -48t-67.5 -19zM446 489q69 0 114 30l-27 -133q-22 25 -71 25l-3 -5q17 -24 17 -64q0 -80 -65.5 -132t-181.5 -52h-16q-17 -10 -17 -26q0 -19 54 -19
q113 0 161.5 -29.5t48.5 -99.5q0 -83 -79 -133.5t-216 -50.5q-221 0 -221 108q0 45 33.5 78.5t81.5 42.5q-17 22 -17 49q0 33 21 60.5t49 42.5q-75 39 -75 124q0 89 71.5 149.5t190.5 60.5q64 0 104 -26h43zM250 261q25 0 43.5 30t18.5 71q0 36 -36 36q-25 0 -43 -28.5
t-18 -70.5q0 -38 35 -38zM209 -23q-43 0 -76 9q-25 -14 -25 -39q0 -37 78 -37q43 0 68.5 12t25.5 32q0 23 -71 23z" />
    <glyph glyph-name="gdotaccent.ss02" horiz-adv-x="521" 
d="M308 573q-70 -1 -70 55q0 41 27 66.5t71 25.5q69 0 69 -56q0 -41 -26 -65.5t-71 -25.5zM446 489q69 0 114 30l-27 -133q-22 25 -71 25l-3 -5q17 -24 17 -64q0 -80 -65.5 -132t-181.5 -52h-16q-17 -10 -17 -26q0 -19 54 -19q113 0 161.5 -29.5t48.5 -99.5
q0 -83 -79 -133.5t-216 -50.5q-221 0 -221 108q0 45 33.5 78.5t81.5 42.5q-17 22 -17 49q0 33 21 60.5t49 42.5q-75 39 -75 124q0 89 71.5 149.5t190.5 60.5q64 0 104 -26h43zM250 261q25 0 43.5 30t18.5 71q0 36 -36 36q-25 0 -43 -28.5t-18 -70.5q0 -38 35 -38zM209 -23
q-43 0 -76 9q-25 -14 -25 -39q0 -37 78 -37q43 0 68.5 12t25.5 32q0 23 -71 23z" />
    <glyph glyph-name="y.ss03" horiz-adv-x="599" 
d="M164 -186q-57 0 -115.5 14.5t-60.5 14.5l56 152q36 -43 126 -43q59 0 102.5 26.5t51.5 67.5l4 19q-61 -69 -155 -69q-155 0 -117 194l33 170q6 36 7.5 46.5t3 34.5t-4 37.5t-17.5 24.5h228l-54 -276q-7 -39 -1.5 -54.5t27.5 -15.5q42 0 72 47l30 156q8 40 10.5 59.5
t-1.5 44t-19 39.5h227l-84 -440q-13 -69 -51 -120t-89.5 -77.5t-103.5 -39t-105 -12.5z" />
    <glyph glyph-name="yacute.ss03" horiz-adv-x="599" 
d="M328 570l-33 75q101 47 207 155l56 -103q-78 -83 -230 -127zM164 -186q-57 0 -115.5 14.5t-60.5 14.5l56 152q36 -43 126 -43q59 0 102.5 26.5t51.5 67.5l4 19q-61 -69 -155 -69q-155 0 -117 194l33 170q6 36 7.5 46.5t3 34.5t-4 37.5t-17.5 24.5h228l-54 -276
q-7 -39 -1.5 -54.5t27.5 -15.5q42 0 72 47l30 156q8 40 10.5 59.5t-1.5 44t-19 39.5h227l-84 -440q-13 -69 -51 -120t-89.5 -77.5t-103.5 -39t-105 -12.5z" />
    <glyph glyph-name="ycircumflex.ss03" horiz-adv-x="599" 
d="M236 563l-48 55q81 58 133 130h148q27 -67 86 -130l-62 -55q-69 39 -107 98h-4q-57 -59 -146 -98zM164 -186q-57 0 -115.5 14.5t-60.5 14.5l56 152q36 -43 126 -43q59 0 102.5 26.5t51.5 67.5l4 19q-61 -69 -155 -69q-155 0 -117 194l33 170q6 36 7.5 46.5t3 34.5
t-4 37.5t-17.5 24.5h228l-54 -276q-7 -39 -1.5 -54.5t27.5 -15.5q42 0 72 47l30 156q8 40 10.5 59.5t-1.5 44t-19 39.5h227l-84 -440q-13 -69 -51 -120t-89.5 -77.5t-103.5 -39t-105 -12.5z" />
    <glyph glyph-name="ydieresis.ss03" horiz-adv-x="599" 
d="M259 590q-27 0 -43.5 16t-16.5 41q0 36 27 63t63 27q27 0 43.5 -16.5t16.5 -41.5q0 -36 -26.5 -62.5t-63.5 -26.5zM481 590q-27 0 -43.5 16t-16.5 41q0 36 27 63t62 27q28 0 44.5 -16.5t16.5 -41.5q0 -36 -26.5 -62.5t-63.5 -26.5zM164 -186q-57 0 -115.5 14.5
t-60.5 14.5l56 152q36 -43 126 -43q59 0 102.5 26.5t51.5 67.5l4 19q-61 -69 -155 -69q-155 0 -117 194l33 170q6 36 7.5 46.5t3 34.5t-4 37.5t-17.5 24.5h228l-54 -276q-7 -39 -1.5 -54.5t27.5 -15.5q42 0 72 47l30 156q8 40 10.5 59.5t-1.5 44t-19 39.5h227l-84 -440
q-13 -69 -51 -120t-89.5 -77.5t-103.5 -39t-105 -12.5z" />
    <glyph glyph-name="ygrave.ss03" horiz-adv-x="599" 
d="M407 576q-54 12 -107.5 45t-76.5 76l90 95q24 -50 63 -90t83 -64zM164 -186q-57 0 -115.5 14.5t-60.5 14.5l56 152q36 -43 126 -43q59 0 102.5 26.5t51.5 67.5l4 19q-61 -69 -155 -69q-155 0 -117 194l33 170q6 36 7.5 46.5t3 34.5t-4 37.5t-17.5 24.5h228l-54 -276
q-7 -39 -1.5 -54.5t27.5 -15.5q42 0 72 47l30 156q8 40 10.5 59.5t-1.5 44t-19 39.5h227l-84 -440q-13 -69 -51 -120t-89.5 -77.5t-103.5 -39t-105 -12.5z" />
    <glyph glyph-name="a.superior" horiz-adv-x="412" 
d="M204 431q-55 0 -90 39.5t-35 110.5q0 110 62 183t139 73q51 0 96 -26l10 15h138l-55 -268q-19 -92 1 -118h-161l-4 23h-4q-49 -32 -97 -32zM262 548q25 0 64 42l23 111q-23 23 -48 23q-28 0 -48.5 -37t-20.5 -93q0 -46 30 -46z" />
    <glyph glyph-name="b.superior" horiz-adv-x="441" 
d="M305 431q-57 0 -96 25l-21 -16h-120l84 411q13 64 13.5 94t-15.5 48h179l-36 -179q48 26 95 26q54 0 89.5 -40t35.5 -111q0 -107 -61.5 -182.5t-146.5 -75.5zM285 544q29 0 52 37.5t23 95.5q0 45 -30 45q-26 0 -62 -32l-26 -130q19 -16 43 -16z" />
    <glyph glyph-name="c.superior" horiz-adv-x="355" 
d="M246 431q-77 0 -121 41t-44 120q0 115 65.5 181.5t162.5 66.5q30 0 63 -8.5t46 -8.5l-46 -131q-19 28 -62 28q-30 0 -52.5 -36t-22.5 -79q0 -54 48 -54q41 0 62 25l27 -131q-13 1 -53 -6.5t-73 -7.5z" />
    <glyph glyph-name="d.superior" horiz-adv-x="437" 
d="M204 431q-55 0 -90 40t-35 110q0 107 61.5 182.5t146.5 75.5q40 0 86 -19l10 49q12 61 12 84.5t-18 39.5h180l-90 -443q-9 -42 -8.5 -68.5t15.5 -41.5h-157q-4 13 -2 26l-3 2q-46 -37 -108 -37zM262 548q25 0 63 38l26 126q-23 14 -44 14q-29 0 -52 -37t-23 -95
q0 -46 30 -46z" />
    <glyph glyph-name="e.superior" horiz-adv-x="394" 
d="M272 431q-87 0 -138.5 46.5t-51.5 121.5q0 107 62.5 174t162.5 67q72 0 117.5 -39t45.5 -95q0 -122 -172 -122h-68q3 -19 20.5 -33t44.5 -14q58 0 84 22l39 -109q-12 0 -60 -9.5t-86 -9.5zM235 669h44q50 0 50 29q0 15 -9.5 24.5t-26.5 9.5q-48 0 -58 -63z" />
    <glyph glyph-name="f.superior" horiz-adv-x="275" 
d="M95 440l55 281h-50l21 108h49l8 31q32 132 192 132q53 0 87 -15l-39 -106q-18 18 -50 18q-36 0 -44 -41l-4 -17h73l-22 -110h-72l-30 -155q-11 -58 -11 -80.5t13 -45.5h-176z" />
    <glyph glyph-name="g.superior" horiz-adv-x="418" 
d="M204 280q-32 0 -81 9t-57 9l45 130q42 -42 104 -42q35 0 55.5 17t25.5 43l4 18l-2 2q-35 -35 -91 -35q-58 0 -93 39.5t-35 110.5q0 107 62.5 182.5t149.5 75.5q53 0 84 -28l11 18h137l-73 -357q-20 -96 -80 -144t-166 -48zM261 548q29 0 65 41l22 114q-21 23 -47 23
q-27 0 -48 -37t-21 -95q0 -46 29 -46z" />
    <glyph glyph-name="h.superior" horiz-adv-x="455" 
d="M70 440l86 430q14 75 11 94q-4 18 -17 29h182l-40 -198h7q12 15 44.5 30t66.5 15q60 0 84.5 -45.5t9.5 -118.5l-24 -128q-9 -37 -8.5 -64.5t15.5 -43.5h-180l43 218q10 56 -19 56q-16 0 -34.5 -15.5t-32.5 -39.5l-21 -111q-6 -30 -8 -44.5t0 -33.5t12 -30h-177z" />
    <glyph glyph-name="i.superior" horiz-adv-x="231" 
d="M235 875q-80 0 -80 56q0 36 25 60t65 24q38 0 59 -15.5t21 -42.5q0 -37 -25 -59.5t-65 -22.5zM70 440l53 267q15 76 11 95q-4 18 -17 29h180l-57 -283q-10 -37 -9.5 -64.5t16.5 -43.5h-177z" />
    <glyph glyph-name="j.superior" horiz-adv-x="234" 
d="M230 862q-38 0 -59 15t-21 42q0 35 25 59t65 24q39 0 60 -15.5t21 -42.5q0 -36 -25 -59t-66 -23zM45 268q-19 0 -49.5 6t-41.5 5l39 124q20 -18 41 -18q16 0 26 15t18 53l47 240q12 59 12 84.5t-18 41.5l181 -1l-72 -360q-18 -92 -59.5 -141t-123.5 -49z" />
    <glyph glyph-name="k.superior" horiz-adv-x="459" 
d="M69 440l86 430q12 56 12 82t-17 41h179l-35 -181q46 28 103 28q49 0 82.5 -28t33.5 -80q0 -90 -93 -141l37 -81q21 -49 52 -70h-177l-57 145l8 49q30 0 53.5 16t23.5 47q0 34 -30 34q-32 0 -60 -33l-31 -151q-9 -42 -8 -67.5t16 -39.5h-178z" />
    <glyph glyph-name="l.superior" horiz-adv-x="233" 
d="M69 440l86 428q12 56 12 82.5t-17 42.5h179l-89 -444q-9 -41 -8.5 -68t15.5 -41h-178z" />
    <glyph glyph-name="m.superior" horiz-adv-x="672" 
d="M69 440l56 284q9 34 9 63t-17 44h177l-7 -49h4q52 57 127 57q69 0 84 -62q60 62 134 62q67 0 89 -41.5t9 -105.5l-28 -144q-17 -85 6 -108h-178l42 220q8 40 3 46q-4 6 -15 6q-27 0 -65 -38l-24 -126q-17 -83 0 -108h-174l44 220q0 2 1 5q6 21 4 34t-17 13q-29 0 -66 -38
l-25 -126q-9 -45 -9 -69t11 -39h-175z" />
    <glyph glyph-name="n.superior" horiz-adv-x="455" 
d="M71 440l54 283q12 65 6 85q-4 13 -14 23h171l-8 -42h4q55 51 114 51q60 0 89 -45.5t15 -117.5l-25 -128q-9 -40 -8.5 -67t15.5 -42h-178l42 218q12 55 -21 55q-28 0 -63 -47l-22 -117q-17 -84 0 -109h-171z" />
    <glyph glyph-name="o.superior" horiz-adv-x="423" 
d="M248 431q-78 0 -123 41t-45 116q0 116 67 184t174 68q77 0 122 -40.5t45 -115.5q0 -117 -67 -185t-173 -68zM268 551q30 0 48.5 32t18.5 85q0 52 -35 52q-29 0 -48.5 -31.5t-19.5 -84.5t36 -53z" />
    <glyph glyph-name="p.superior" horiz-adv-x="436" 
d="M34 285l86 423q9 42 11.5 59t-1 35t-16.5 29h173l-3 -15h6q46 24 85 24q61 0 97 -39.5t36 -111.5q0 -108 -59 -183t-149 -75q-42 0 -84 20l-11 -58q-9 -46 -9 -69.5t15 -38.5h-177zM281 544q29 0 52 37.5t23 95.5q0 45 -31 45q-25 0 -60 -32l-27 -131q23 -15 43 -15z" />
    <glyph glyph-name="q.superior" horiz-adv-x="433" 
d="M262 285l36 174l-2 3q-41 -31 -85 -31q-60 0 -96.5 39.5t-36.5 110.5q0 104 63 181t140 77q48 0 90 -21l16 11h136l-86 -425q-19 -94 -1 -119h-174zM261 548q24 0 63 41l24 119q-19 18 -47 18t-49 -37t-21 -95q0 -46 30 -46z" />
    <glyph glyph-name="r.superior" horiz-adv-x="327" 
d="M70 440l55 285q9 39 8 66t-16 40h165l-8 -56h7q40 65 115 65q25 0 41 -9l-41 -143q-13 21 -39 21q-63 0 -99 -66l-17 -95q-6 -30 -8 -44.5t0.5 -33.5t13.5 -30h-177z" />
    <glyph glyph-name="s.superior" horiz-adv-x="346" 
d="M210 431q-44 0 -94 11.5t-65 10.5l67 140q13 -26 40.5 -43.5t56.5 -17.5q27 0 27 17t-37 33l-18 8q-84 37 -84 109q0 62 47.5 101.5t117.5 39.5q32 0 78 -11t60 -11l-62 -121q-13 18 -34.5 29.5t-40.5 11.5q-24 0 -24 -17q0 -14 33 -28l19 -7q90 -36 90 -110
q0 -68 -49.5 -106.5t-127.5 -38.5z" />
    <glyph glyph-name="t.superior" horiz-adv-x="311" 
d="M242 433q-72 0 -106.5 40.5t-18.5 124.5l24 118h-51l22 113l51 2l16 85h149l-15 -85h84l-23 -115h-83l-22 -107q-11 -59 22 -59q27 0 50 14l16 -123q-15 2 -52 -3t-63 -5z" />
    <glyph glyph-name="u.superior" horiz-adv-x="449" 
d="M189 431q-120 0 -93 148l28 144q6 31 8 46t-1 33t-13 29h177l-44 -223q-6 -28 -1.5 -39.5t21.5 -11.5q33 0 55 37l26 128q15 85 -2 109h172l-54 -279q-1 -4 -3 -15.5t-2.5 -15t-2 -13.5t-1.5 -14v-12t1 -12.5t3 -10.5t5 -10.5t7 -8.5h-171l7 39h-7q-41 -48 -115 -48z" />
    <glyph glyph-name="v.superior" horiz-adv-x="450" 
d="M163 440l-30 249q-14 110 -36 142h167l13 -158q1 -13 1 -124h6q8 29 70 182q28 67 10 100h164q-11 -46 -54.5 -142t-76 -168.5t-25.5 -80.5h-209z" />
    <glyph glyph-name="w.superior" horiz-adv-x="620" 
d="M148 440l-20 295q-3 48 -6.5 66t-14.5 30h156l7 -129q6 -113 1 -156h7q10 55 40 118q51 110 61 167h206l8 -130q7 -99 1 -155h6q2 17 46.5 129t39.5 156h147q-15 -57 -83.5 -213.5t-72.5 -177.5h-208l-8 178q-2 73 1 87h-5q-6 -32 -30 -88q-57 -129 -70 -177h-209z" />
    <glyph glyph-name="x.superior" horiz-adv-x="427" 
d="M397 519q25 -60 47 -79h-173l-10 31q-3 12 -10.5 39.5t-10.5 42.5h-6q-23 -49 -26 -65l-7 -10q-7 -25 -5 -38h-169l159 227l-31 84q-19 58 -46 80h172l8 -32q18 -77 19 -81h7q6 13 12.5 30.5t10 26.5t6.5 10v6q9 17 8 40h167l-158 -223z" />
    <glyph glyph-name="y.superior" horiz-adv-x="437" 
d="M152 285q-26 0 -54.5 4t-38.5 1l55 146q5 -15 22 -26.5t35 -11.5q37 0 42 39l1 3l-59 257q-11 44 -16 61t-14.5 39t-21.5 34h168l32 -207q5 -33 4 -49h7q8 31 14 46l35 109q23 74 13 101h157l-171 -407q-58 -139 -210 -139z" />
    <glyph glyph-name="z.superior" horiz-adv-x="370" 
d="M425 831l-13 -88l-160 -193h43q57 0 90 16l-22 -126h-321l14 86l159 195h-36q-45 0 -74 -16l22 126h298z" />
    <glyph glyph-name="L_A" horiz-adv-x="886" 
d="M794 -7q-39 7 -113 7h-685q49 37 75 166l62 316q26 130 -11 167h277q-52 -34 -76 -167l-64 -323h453q47 0 73 6.5t47 25.5zM354 237q30 36 76 132l90 186q33 69 32 94h239q-12 -39 -7 -94l19 -185q10 -114 22 -133h-188q16 29 15 64l1 18h-100l-6 -18q-16 -37 -9 -64
h-184zM586 420h73l-4 56q-4 53 -4 78h-6q-22 -55 -33 -78z" />
    <glyph glyph-name="L_E" horiz-adv-x="771" 
d="M694 231q-32 6 -111 6h-204q18 24 41 136l28 141q21 108 11 135h194q87 0 117 5l-25 -124q-17 9 -107 9h-40l-10 -50h31q75 0 99 9l-20 -105q-18 9 -96 9h-31l-11 -56h50q85 0 109 9zM679 -7q-39 7 -113 7h-570q49 37 75 166l62 316q26 130 -11 167h277q-52 -34 -76 -167
l-64 -323h338q47 0 73 6.5t47 25.5z" />
    <glyph glyph-name="L_I" horiz-adv-x="645" 
d="M553 -7q-39 7 -112 7h-445q49 37 75 166l62 316q26 130 -11 167h277q-52 -34 -76 -167l-64 -323h212q47 0 73 6.5t47 25.5zM389 237q21 26 42 136l27 140q21 108 12 136h174q-22 -29 -43 -136l-27 -140q-22 -110 -11 -136h-174z" />
    <glyph glyph-name="L_L" horiz-adv-x="770" 
d="M679 -7q-39 7 -113 7h-570q49 37 75 166l62 316q26 130 -11 167h277q-52 -34 -76 -167l-64 -323h338q47 0 73 6.5t47 25.5zM701 231q-31 6 -113 6h-210q22 28 42 136l27 140q21 110 11 136h175q-21 -26 -43 -136l-31 -162h54q84 0 114 16z" />
    <glyph glyph-name="L_O" horiz-adv-x="852" 
d="M581 228q-175 0 -175 153q0 128 70 203.5t190 75.5q177 0 177 -148q0 -129 -71.5 -206.5t-190.5 -77.5zM760 -7q-39 7 -113 7h-651q49 37 75 166l62 316q26 130 -11 167h277q-52 -34 -76 -167l-64 -323h419q47 0 73 6.5t47 25.5zM604 344q39 0 64.5 41.5t25.5 104.5
q0 55 -51 55q-39 0 -63.5 -40.5t-24.5 -104.5q0 -56 49 -56z" />
    <glyph glyph-name="L_U" horiz-adv-x="847" 
d="M755 -7q-39 7 -113 7h-646q49 37 75 166l62 316q26 130 -11 167h277q-52 -34 -76 -167l-64 -323h414q47 0 73 6t47 25zM590 228q-100 0 -136.5 48t-16.5 153l16 84q18 97 14 121q-2 9 -5 15h174q-22 -34 -41 -136l-16 -84q-9 -43 -1.5 -65t35.5 -22q50 0 67 87l17 84
q21 103 12 136h169q-24 -28 -45 -136l-16 -84q-19 -102 -72.5 -151.5t-154.5 -49.5z" />
    <glyph glyph-name="R_A" horiz-adv-x="1173" 
d="M-4 0q31 22 47 62.5t28 103.5l62 316q26 130 -11 167h300q229 0 229 -162q0 -76 -43 -143t-111 -97q50 -55 101 -71t160 -16h212q73 0 103.5 8.5t49.5 26.5l-38 -195h-364q-60 0 -100 2.5t-81 10t-69 21.5t-57.5 37.5t-53.5 57t-50 81.5h-40l-9 -44q-24 -130 -9 -166
h-256zM645 237q25 28 76 132l90 186q33 69 32 94h239q-12 -36 -7 -94l19 -185q12 -117 22 -133h-188q17 26 15 64l1 18h-100l-6 -18q-16 -37 -9 -64h-184zM877 420h73l-4 56q-4 53 -4 78h-6q-13 -37 -33 -78zM298 355h54q52 0 80.5 24.5t28.5 70.5q0 49 -80 49h-54z" />
    <glyph glyph-name="R_E" horiz-adv-x="1070" 
d="M998 231q-32 6 -112 6h-204q20 27 41 136l28 141q22 109 11 135h195q86 0 116 5l-24 -124q-18 9 -108 9h-40l-10 -50h31q75 0 100 9l-20 -105q-19 9 -97 9h-31l-11 -56h50q85 0 109 9zM-4 0q31 22 47 62.5t28 103.5l62 316q26 130 -11 167h300q229 0 229 -162
q0 -76 -43 -143t-111 -97q49 -55 99.5 -71t161.5 -16h109q73 0 103.5 8.5t49.5 26.5l-38 -195h-261q-93 0 -146.5 6t-104 28t-86.5 63.5t-74 112.5h-40l-9 -44q-24 -130 -9 -166h-256zM298 355h54q52 0 80.5 24.5t28.5 70.5q0 49 -80 49h-54z" />
    <glyph glyph-name="R_I" horiz-adv-x="932" 
d="M-4 0q31 22 47 62.5t28 103.5l62 316q26 130 -11 167h300q229 0 229 -162q0 -76 -43 -143t-111 -97q49 -49 98 -64t132 -15h53q73 0 104 34l-39 -202h-157q-112 0 -171 14.5t-105.5 57.5t-101.5 138h-40l-9 -44q-24 -130 -9 -166h-256zM685 237q20 27 42 136l27 140
q20 109 11 136h174q-21 -27 -42 -136l-27 -140q-22 -110 -11 -136h-174zM298 355h54q52 0 80.5 24.5t28.5 70.5q0 49 -80 49h-54z" />
    <glyph glyph-name="R_O" horiz-adv-x="1150" 
d="M888 227q-175 0 -175 153q0 128 69.5 203.5t189.5 75.5q178 0 178 -148q0 -129 -71.5 -206.5t-190.5 -77.5zM-4 0q31 22 47 62.5t28 103.5l62 316q26 130 -11 167h300q229 0 229 -162q0 -76 -43 -143t-111 -97q50 -55 101 -71.5t160 -16.5h190q51 0 83.5 5.5t44 11.5
t24.5 18l-37 -194h-342q-60 0 -100 2.5t-81 10t-69 21.5t-57.5 37.5t-53.5 57t-50 81.5h-40l-9 -44q-24 -130 -9 -166h-256zM911 343q38 0 64 41.5t26 104.5q0 55 -51 55q-39 0 -63.5 -40.5t-24.5 -104.5q0 -56 49 -56zM298 355h54q52 0 80.5 24.5t28.5 70.5q0 49 -80 49
h-54z" />
    <glyph glyph-name="R_R" horiz-adv-x="1169" 
d="M-4 0q31 22 47 62.5t28 103.5l62 316q26 130 -11 167h300q229 0 229 -162q0 -76 -43 -143t-111 -97q49 -55 99.5 -71t161.5 -16h209q73 0 103.5 8.5t49.5 26.5l-38 -195h-361q-61 0 -101 2.5t-81 10t-69 21.5t-57 37.5t-53.5 57t-49.5 81.5h-40l-9 -44q-24 -130 -9 -166
h-256zM681 237q20 27 43 138l26 137q21 110 11 137h195q161 0 161 -108q0 -46 -24 -87t-66 -67l9 -18q18 -33 36 -76t29 -56h-179q8 32 -18 98l-9 20h-31l-3 -15q-16 -70 -9 -103h-171zM882 446h21q27 0 43.5 15.5t19.5 38.5q4 22 -8.5 32t-37.5 10h-20zM298 355h54
q52 0 80.5 24.5t28.5 70.5q0 49 -80 49h-54z" />
    <glyph glyph-name="R_U" horiz-adv-x="1128" 
d="M-4 0q31 22 47 62.5t28 103.5l62 316q26 130 -11 167h300q229 0 229 -162q0 -76 -43 -143t-111 -97q49 -55 99.5 -71t161.5 -16h168q73 0 103.5 8.5t48.5 26.5l-38 -195h-319q-61 0 -101 2.5t-81 10t-69 21.5t-57 37.5t-53.5 57t-49.5 81.5h-40l-9 -44q-24 -130 -9 -166
h-256zM877 228q-100 0 -136.5 48t-15.5 153l16 84q1 6 3.5 20.5t3.5 20t3 17t2.5 17t1 15t0.5 14.5t-0.5 11.5t-2 11.5t-3.5 9h175q-22 -30 -42 -136l-16 -84q-9 -43 -1.5 -65t35.5 -22q50 0 67 87l17 84q21 103 12 136h170q-24 -28 -45 -136l-16 -84q-19 -102 -72 -151.5
t-156 -49.5zM298 355h54q52 0 80.5 24.5t28.5 70.5q0 49 -80 49h-54z" />
    <glyph glyph-name="c_t" horiz-adv-x="884" 
d="M220 -12q-87 0 -140.5 42.5t-53.5 139.5q0 146 79 242.5t203 102.5h4q-13 23 -13 49q0 93 98.5 158.5t251.5 65.5q108 0 173.5 -39.5t65.5 -101.5q0 -44 -28 -82t-75 -62h128l-31 -159q-19 11 -109 11l-30 -151q-7 -38 -0.5 -53t30.5 -15q40 0 61 29l-4 -169
q-12 1 -55.5 -3.5t-81.5 -4.5q-93 0 -129 43t-18 136l37 188h-65l27 141q96 4 153.5 38.5t57.5 85.5q0 37 -38 57.5t-103 20.5q-92 0 -154.5 -40t-64.5 -98q0 -35 17 -55q8 -2 24 -8.5t28 -9.5t24 -3l-103 -164q-14 43 -59 43q-46 0 -74.5 -44.5t-28.5 -115.5q0 -63 60 -63
q50 0 86 45l34 -168q-14 0 -72 -14.5t-112 -14.5z" />
    <glyph glyph-name="f_b" horiz-adv-x="996" 
d="M832 515q69 0 105 -42.5t36 -121.5q0 -152 -70.5 -257.5t-173.5 -105.5q-80 0 -120 38h-8l-9 -26h-216q28 20 41 50t25 94l80 410l1 7q-30 30 -94 30q-76 0 -89 -68l-4 -20h96l-29 -152q-23 10 -94 10l-42 -216q-12 -57 -11 -91.5t21 -53.5h-267q28 20 41 50.5t26 94.5
l42 216h-66l27 142h66l5 25q17 88 88.5 142t193.5 54q79 0 146 -25h170q-19 -41 -37 -145l-17 -89q58 50 137 50zM689 142q35 0 60.5 50.5t25.5 121.5q0 27 -10.5 37t-32.5 10q-30 0 -63 -30l-32 -164q22 -25 52 -25z" />
    <glyph glyph-name="f_f_b" horiz-adv-x="1326" 
d="M1162 515q69 0 105.5 -42.5t36.5 -121.5q0 -152 -70.5 -257.5t-173.5 -105.5q-80 0 -120 38h-9l-8 -26h-216q27 20 40 50t26 94l80 410l1 7q-30 30 -95 30q-75 0 -88 -68l-4 -20h96l-29 -152q-23 10 -94 10l-42 -216q-12 -57 -11 -91.5t21 -53.5h-267q28 20 41.5 50.5
t25.5 94.5l42 216h-141l-42 -216q-12 -57 -11 -91.5t21 -53.5h-267q28 20 41 50.5t26 94.5l42 216h-66l27 142h66l5 23q33 186 263 186q18 0 37.5 -2t31 -2t21.5 4l-52 -153q-14 22 -51 22q-49 0 -61 -60l-4 -18h141l5 25q17 88 88.5 142t193.5 54q78 0 146 -25h170
q-19 -41 -37 -145l-17 -89q58 50 136 50zM1020 142q35 0 60.5 50.5t25.5 121.5q0 27 -10.5 37t-33.5 10q-29 0 -62 -30l-32 -164q22 -25 52 -25z" />
    <glyph glyph-name="f_f_h" horiz-adv-x="1342" 
d="M1292 320l-34 -176q-12 -55 -10.5 -90t20.5 -54h-249q29 37 49 144l28 139q7 40 1 55.5t-29 15.5q-36 0 -72 -36l-34 -174q-21 -106 -7 -144h-249q27 20 40.5 51t25.5 93l80 410l1 7q-30 30 -94 30q-76 0 -89 -68l-4 -20h96l-29 -152q-22 10 -94 10l-42 -216
q-12 -57 -11 -91.5t21 -53.5h-267q28 20 41 50.5t26 94.5l42 216h-140l-42 -216q-12 -57 -11 -91.5t21 -53.5h-267q28 20 41 50.5t26 94.5l42 216h-66l27 142h66l5 23q33 186 263 186q18 0 37.5 -2t31 -2t21.5 4l-52 -153q-14 22 -51 22q-49 0 -61 -60l-4 -18h140l5 25
q17 88 88.5 142t193.5 54q75 0 140 -25h177q-18 -45 -31 -107l-13 -69q-9 -40 -16 -52l5 -4q69 48 148 48q157 0 119 -195z" />
    <glyph glyph-name="f_f_j" horiz-adv-x="1030" 
d="M1029 503q-19 -50 -36 -138l-64 -329q-11 -56 -26 -93.5t-43 -69t-74 -46t-112 -14.5q-26 0 -60 4t-52 2l62 148q19 -17 47 -17q29 0 44.5 19.5t22.5 58.5l64 333h-162l-42 -216q-12 -57 -11.5 -91.5t17.5 -53.5h-263q28 20 41.5 50.5t25.5 94.5l42 216h-141l-42 -216
q-12 -57 -11 -91.5t21 -53.5h-267q28 20 41 50.5t26 94.5l42 216h-66l27 142h66l5 23q34 186 263 186q18 0 37.5 -2t31 -2t21.5 4l-52 -153q-14 22 -51 22q-49 0 -61 -60l-4 -18h141l4 17q21 95 100 149.5t220 54.5q100 0 224 -37l-60 -144q-27 18 -78.5 33t-99.5 15
q-59 0 -85 -19.5t-33 -56.5l-2 -12h362z" />
    <glyph glyph-name="f_f_k" horiz-adv-x="1334" 
d="M1201 171q57 -135 96 -171h-267q16 23 15.5 50.5t-16.5 75.5l-19 46l-51 -49l-2 -11q-13 -82 0 -112h-250q27 20 40.5 51t25.5 93l79 410q0 2 0.5 4t0.5 4q-33 29 -94 29q-75 0 -89 -73l-3 -15h95l-29 -152q-22 10 -93 10l-42 -216q-12 -57 -11 -91.5t21 -53.5h-267
q28 20 41.5 50.5t25.5 94.5l41 211h-141l-41 -211q-12 -57 -11 -91.5t21 -53.5h-267q28 20 41 50.5t26 94.5l41 211h-66l28 146h66l5 24q33 186 263 186q18 0 37.5 -2t31 -2t21.5 4l-52 -153q-14 22 -51 22q-49 0 -61 -60l-4 -19h75v1h66l4 20q17 89 89 145t194 56
q73 0 138 -25h180q-19 -42 -40 -145l-27 -144q-12 -58 -24 -77h8l66 67q36 39 48 59.5t3 43.5h267q-65 -35 -156 -125l-81 -80z" />
    <glyph glyph-name="f_f_t" horiz-adv-x="1124" 
d="M985 359l-29 -145q-14 -77 28 -77q38 0 66 19l20 -153q-18 1 -65 -5.5t-82 -6.5q-93 0 -135 51.5t-22 157.5l31 159h-157l-42 -214q-12 -57 -11 -91.5t21 -53.5h-267q28 20 41.5 50.5t25.5 94.5l41 211h-141l-41 -211q-12 -57 -11 -91.5t21 -53.5h-267q28 20 41 50.5
t26 94.5l41 211h-66l28 146h66l5 24q33 186 263 186q18 0 37.5 -2t31 -2t21.5 4l-52 -153q-14 22 -51 22q-49 0 -61 -60l-4 -19h75v1h66l5 23q17 93 83 145.5t180 52.5q18 0 38.5 -2t32 -2t21.5 4l-51 -153q-14 22 -53 22q-49 0 -62 -72l-4 -18h158l20 109h188l-21 -109h111
l-28 -144h-110z" />
    <glyph glyph-name="f_f_y" horiz-adv-x="1205" 
d="M1034 503h198l-217 -524q-73 -179 -271 -179q-35 0 -70.5 5.5t-47.5 2.5l70 183q7 -20 29 -35t44 -15q47 0 59 52l1 7l-78 328q-4 20 -7 29h-104l-41 -212q-13 -56 -11.5 -91t21.5 -54h-267q28 20 41 50.5t26 94.5l41 211h-142l-41 -211q-12 -57 -11 -91.5t21 -53.5h-267
q28 20 41 50.5t26 94.5l41 211h-66l28 146h66l5 24q33 186 263 186q18 0 37.5 -2t31 -2t21.5 4l-52 -153q-14 22 -51 22q-49 0 -61 -60l-4 -19h76v1h66l4 23q17 93 83.5 145.5t180.5 52.5q19 0 42.5 -2t36.5 -2t23 4l-48 -155q-15 24 -58 24q-59 0 -71 -71l-3 -19h228
l41 -268q7 -51 7 -67h8q8 32 20 64l46 141q31 97 16 130z" />
    <glyph glyph-name="f_h" horiz-adv-x="1012" 
d="M962 320l-34 -176q-12 -55 -10.5 -90t20.5 -54h-249q29 37 49 144l28 139q7 40 1 55.5t-29 15.5q-36 0 -72 -36l-34 -174q-21 -106 -7 -144h-249q27 20 40.5 51t25.5 93l80 410l1 7q-30 30 -94 30q-76 0 -89 -68l-4 -20h96l-29 -152q-23 10 -94 10l-42 -216
q-12 -57 -11 -91.5t21 -53.5h-267q28 20 41 50.5t26 94.5l42 216h-66l27 142h66l5 25q17 88 88.5 142t193.5 54q75 0 140 -25h177q-18 -45 -31 -107l-13 -69q-9 -40 -16 -52l5 -4q69 48 148 48q157 0 119 -195z" />
    <glyph glyph-name="f_j" horiz-adv-x="699" 
d="M698 503q-19 -50 -36 -138l-64 -329q-11 -56 -26 -93.5t-43 -69t-74 -46t-112 -14.5q-26 0 -60 4t-52 2l62 148q19 -17 47 -17q29 0 44.5 19.5t22.5 58.5l64 333h-162l-42 -216q-12 -57 -11.5 -91.5t17.5 -53.5h-263q28 20 41 50.5t26 94.5l42 216h-66l27 142h66l4 17
q21 95 100 149.5t220 54.5q100 0 224 -37l-60 -144q-27 18 -78.5 33t-99.5 15q-59 0 -85 -19.5t-33 -56.5l-2 -12h362z" />
    <glyph glyph-name="f_k" horiz-adv-x="1003" 
d="M870 171q60 -137 96 -171h-267q16 23 15.5 50.5t-16.5 75.5l-19 46l-51 -49l-2 -11q-13 -82 0 -112h-250q27 20 40.5 51t25.5 93l80 410l1 7q-32 30 -94 30q-76 0 -90 -73l-3 -15h96l-29 -152q-23 10 -94 10l-42 -216q-12 -57 -11 -91.5t21 -53.5h-267q28 20 41 50.5
t26 94.5l42 216h-66l27 142h66l4 20q17 89 89.5 145t193.5 56q73 0 138 -25h180q-20 -44 -39 -145l-28 -144q-12 -58 -24 -77h9l65 67q37 39 49 59.5t2 43.5h268q-63 -33 -156 -125l-82 -80z" />
    <glyph glyph-name="f_t" horiz-adv-x="793" 
d="M654 359l-29 -145q-14 -77 28 -77q38 0 66 19l20 -153q-18 1 -65 -5.5t-82 -6.5q-93 0 -135 51.5t-22 157.5l31 159h-157l-42 -214q-12 -57 -11 -91.5t21 -53.5h-267q28 20 41 50.5t26 94.5l42 214h-66l27 144h66l5 23q17 93 83 145.5t180 52.5q18 0 38.5 -2t32 -2
t21.5 4l-51 -153q-14 22 -53 22q-49 0 -62 -72l-4 -18h158l20 109h188l-21 -109h111l-28 -144h-110z" />
    <glyph glyph-name="f_y" horiz-adv-x="874" 
d="M702 503h198l-217 -524q-72 -179 -270 -179q-35 0 -70.5 5.5t-47.5 2.5l70 183q6 -19 28 -34.5t44 -15.5q47 0 59 52l2 7l-79 328q-4 20 -7 29h-104l-41 -212q-12 -57 -11 -91.5t21 -53.5h-267q28 20 41 50.5t26 94.5l41 212h-66l28 146h66l5 23q17 93 83 145.5t180 52.5
q20 0 43.5 -2t36.5 -2t23 4l-49 -155q-13 24 -58 24q-58 0 -70 -71l-4 -19h229l40 -268q5 -30 8 -67h8q4 25 20 64l46 141q31 99 15 130z" />
    <glyph glyph-name="s_p" horiz-adv-x="1062" 
d="M409 -173q27 20 40.5 50t25.5 94l75 387q11 45 11 84.5t-21 59.5q90 3 144 34t54 81q0 38 -36 59t-102 21q-105 0 -163.5 -39.5t-58.5 -99.5q0 -33 17 -56q47 -12 76 -6l-84 -151q-38 36 -88 36q-22 0 -35.5 -9t-13.5 -23q0 -22 47 -38l30 -10q97 -33 97 -114
q0 -86 -69.5 -142.5t-175.5 -56.5q-42 0 -102 11t-90 5l95 173q17 -24 47 -39.5t63 -15.5q52 0 52 34q0 21 -50 36l-28 8q-95 29 -95 118q0 82 63 138.5t156 58.5h3q-14 16 -14 52q0 92 99 156.5t256 64.5q103 0 169 -40t66 -102q0 -44 -29.5 -84t-78.5 -62l-8 -36h8
q59 51 137 51q69 0 105 -42t36 -122q0 -153 -70.5 -258t-173.5 -105q-81 0 -120 37l-10 -54q-12 -56 -10.5 -91t21.5 -53h-267zM755 142q35 0 60.5 51t25.5 121q0 27 -10.5 37t-32.5 10q-28 0 -63 -30l-32 -164q22 -25 52 -25z" />
    <glyph glyph-name="s_t" horiz-adv-x="871" 
d="M179 -12q-42 0 -102 11t-90 5l95 173q17 -24 47 -39.5t63 -15.5q52 0 52 34q0 21 -50 36l-28 8q-95 29 -95 118q0 83 63.5 139t157.5 58q5 0 7 -1q-17 23 -17 61q0 87 100 150t255 63q103 0 169 -40t66 -102q0 -44 -27 -81.5t-73 -61.5h128l-31 -159q-19 11 -110 11
l-28 -151q-7 -40 -0.5 -54t29.5 -14q39 0 62 29l-5 -169q-12 1 -55.5 -3.5t-81.5 -4.5q-96 0 -130 44.5t-17 134.5l36 188h-65l28 141q96 4 152.5 37.5t56.5 83.5q0 38 -35.5 59t-101.5 21q-105 0 -164 -39.5t-59 -98.5q0 -39 22 -59q34 -8 68 -4l-84 -151q-38 36 -88 36
q-22 0 -35.5 -9t-13.5 -23q0 -22 47 -38l30 -10q97 -33 97 -114q0 -86 -69.5 -142.5t-175.5 -56.5z" />
    <glyph glyph-name="a.sc" horiz-adv-x="597" 
d="M-36 0q33 39 97 173l116 238q43 94 42 124h268q-13 -42 -5 -123l20 -240q11 -134 33 -172h-227q27 34 21 73l-1 13h-131l-5 -13q-14 -37 -8 -73h-220zM249 219h76l-2 28q-2 99 4 154h-9q-14 -51 -55 -151z" />
    <glyph glyph-name="aacute.sc" horiz-adv-x="597" 
d="M319 588l-33 75q101 47 207 155l56 -103q-78 -83 -230 -127zM-36 0q33 39 97 173l116 238q43 94 42 124h268q-13 -42 -5 -123l20 -240q11 -134 33 -172h-227q27 34 21 73l-1 13h-131l-5 -13q-14 -37 -8 -73h-220zM249 219h76l-2 28q-2 99 4 154h-9q-14 -51 -55 -151z" />
    <glyph glyph-name="abreve.sc" horiz-adv-x="597" 
d="M362 584q-72 0 -108 42t-21 115h84q-2 -66 59 -66q59 0 79 66h84q-25 -157 -177 -157zM-36 0q33 39 97 173l116 238q43 94 42 124h268q-13 -42 -5 -123l20 -240q11 -134 33 -172h-227q27 34 21 73l-1 13h-131l-5 -13q-14 -37 -8 -73h-220zM249 219h76l-2 28q-2 99 4 154
h-9q-14 -51 -55 -151z" />
    <glyph glyph-name="acircumflex.sc" horiz-adv-x="597" 
d="M228 581l-48 55q81 58 133 130h148q27 -67 86 -130l-62 -55q-69 39 -107 98h-4q-57 -59 -146 -98zM-36 0q33 39 97 173l116 238q43 94 42 124h268q-13 -42 -5 -123l20 -240q11 -134 33 -172h-227q27 34 21 73l-1 13h-131l-5 -13q-14 -37 -8 -73h-220zM249 219h76l-2 28
q-2 99 4 154h-9q-14 -51 -55 -151z" />
    <glyph glyph-name="adieresis.sc" horiz-adv-x="597" 
d="M250 608q-27 0 -43.5 16t-16.5 41q0 36 27 63t63 27q27 0 43.5 -16.5t16.5 -41.5q0 -36 -26.5 -62.5t-63.5 -26.5zM472 608q-27 0 -43.5 16t-16.5 41q0 36 27 63t62 27q28 0 44.5 -16.5t16.5 -41.5q0 -36 -26.5 -62.5t-63.5 -26.5zM-36 0q33 39 97 173l116 238
q43 94 42 124h268q-13 -42 -5 -123l20 -240q11 -134 33 -172h-227q27 34 21 73l-1 13h-131l-5 -13q-14 -37 -8 -73h-220zM249 219h76l-2 28q-2 99 4 154h-9q-14 -51 -55 -151z" />
    <glyph glyph-name="agrave.sc" horiz-adv-x="597" 
d="M399 594q-54 12 -107.5 45t-76.5 76l90 95q24 -50 63 -90t83 -64zM-36 0q33 39 97 173l116 238q43 94 42 124h268q-13 -42 -5 -123l20 -240q11 -134 33 -172h-227q27 34 21 73l-1 13h-131l-5 -13q-14 -37 -8 -73h-220zM249 219h76l-2 28q-2 99 4 154h-9q-14 -51 -55 -151
z" />
    <glyph glyph-name="amacron.sc" horiz-adv-x="597" 
d="M233 622l17 87h266l-17 -87h-266zM-36 0q33 39 97 173l116 238q43 94 42 124h268q-13 -42 -5 -123l20 -240q11 -134 33 -172h-227q27 34 21 73l-1 13h-131l-5 -13q-14 -37 -8 -73h-220zM249 219h76l-2 28q-2 99 4 154h-9q-14 -51 -55 -151z" />
    <glyph glyph-name="aogonek.sc" horiz-adv-x="597" 
d="M533 0q-37 -21 -63.5 -53t-26.5 -55q0 -24 25 -24q23 0 38 17l27 -51q-45 -45 -108 -45q-39 0 -63 18.5t-24 50.5q0 39 33 77t91 65h-154q27 34 21 73l-1 13h-131l-5 -13q-14 -37 -8 -73h-220q33 39 97 173l116 238q43 94 42 124h268q-13 -42 -5 -123l20 -240
q11 -134 33 -172h-2zM323 247q-2 99 4 154h-9q-14 -51 -55 -151l-14 -31h76z" />
    <glyph glyph-name="aring.sc" horiz-adv-x="597" 
d="M355 572q-50 0 -77 22.5t-27 58.5q0 52 40.5 87t102.5 35q50 0 77 -22t27 -59q0 -52 -41 -87t-102 -35zM366 629q22 0 36.5 16t14.5 42q0 31 -34 31q-22 0 -36.5 -16t-14.5 -41q0 -32 34 -32zM-36 0q33 39 97 173l116 238q43 94 42 124h268q-13 -42 -5 -123l20 -240
q11 -134 33 -172h-227q27 34 21 73l-1 13h-131l-5 -13q-14 -37 -8 -73h-220zM249 219h76l-2 28q-2 99 4 154h-9q-14 -51 -55 -151z" />
    <glyph glyph-name="atilde.sc" horiz-adv-x="597" 
d="M437 600q-34 0 -60.5 16t-43.5 31.5t-29 15.5q-15 0 -21.5 -14t0.5 -39l-101 7q11 74 46 110.5t84 36.5q34 0 60.5 -16t43.5 -32t28 -16q15 0 22.5 14t1.5 40l98 -8q-10 -74 -45 -110t-84 -36zM-36 0q33 39 97 173l116 238q43 94 42 124h268q-13 -42 -5 -123l20 -240
q11 -134 33 -172h-227q27 34 21 73l-1 13h-131l-5 -13q-14 -37 -8 -73h-220zM249 219h76l-2 28q-2 99 4 154h-9q-14 -51 -55 -151z" />
    <glyph glyph-name="ae.sc" horiz-adv-x="800" 
d="M708 -7q-41 7 -146 7h-245q10 19 17.5 47t4.5 37l1 2h-121l6 -3q-14 -8 -21 -36.5t-4 -46.5h-239q49 47 125 172l148 240q48 77 42 123h378q110 0 150 7l-32 -163q-34 12 -145 12h-36l-12 -57h32q96 0 128 12l-30 -157q-25 12 -124 12h-31l-11 -58h47q112 0 149 12z
M301 218h69l37 193h-4q-25 -61 -38 -80z" />
    <glyph glyph-name="b.sc" horiz-adv-x="557" 
d="M-1 0q28 36 55 177l34 180q29 148 14 178h239q200 0 200 -118q0 -46 -36 -83t-78 -47l-1 -8q89 -23 89 -100q0 -87 -70 -133t-188 -46h-258zM270 328h32q24 0 38.5 13t14.5 38q0 29 -41 29h-28zM231 126h31q31 0 50 12.5t19 38.5q0 37 -49 37h-34z" />
    <glyph glyph-name="c.sc" horiz-adv-x="516" 
d="M276 -12q-234 0 -234 220q0 156 80.5 247.5t221.5 91.5q29 0 58 -5t56.5 -12.5t38.5 -9.5l-62 -166q-15 22 -41 34t-46 12q-50 0 -80.5 -47t-30.5 -120q0 -98 66 -98q63 0 103 52l55 -159q-15 -3 -48.5 -14t-67.5 -18.5t-69 -7.5z" />
    <glyph glyph-name="cacute.sc" horiz-adv-x="516" 
d="M307 588l-33 75q101 47 207 155l56 -103q-78 -83 -230 -127zM276 -12q-234 0 -234 220q0 156 80.5 247.5t221.5 91.5q29 0 58 -5t56.5 -12.5t38.5 -9.5l-62 -166q-15 22 -41 34t-46 12q-50 0 -80.5 -47t-30.5 -120q0 -98 66 -98q63 0 103 52l55 -159q-15 -3 -48.5 -14
t-67.5 -18.5t-69 -7.5z" />
    <glyph glyph-name="ccaron.sc" horiz-adv-x="516" 
d="M280 582q-31 84 -85 133l58 52q59 -32 106 -98h4q66 61 147 98l40 -55q-76 -54 -136 -130h-134zM276 -12q-234 0 -234 220q0 156 80.5 247.5t221.5 91.5q29 0 58 -5t56.5 -12.5t38.5 -9.5l-62 -166q-15 22 -41 34t-46 12q-50 0 -80.5 -47t-30.5 -120q0 -98 66 -98
q63 0 103 52l55 -159q-15 -3 -48.5 -14t-67.5 -18.5t-69 -7.5z" />
    <glyph glyph-name="ccedilla.sc" horiz-adv-x="516" 
d="M461 28q-5 -1 -64.5 -19t-101.5 -20l-13 -47q82 -8 82 -63q0 -57 -59 -88.5t-164 -31.5l3 72q109 -15 109 39q0 29 -61 35l51 84q-201 16 -201 219q0 156 80.5 247.5t221.5 91.5q29 0 58 -5t56.5 -12.5t38.5 -9.5l-62 -166q-15 22 -41 34t-46 12q-50 0 -80.5 -47
t-30.5 -120q0 -98 66 -98q63 0 103 52z" />
    <glyph glyph-name="cdotaccent.sc" horiz-adv-x="516" 
d="M351 607q-70 -1 -70 55q0 41 27 66.5t71 25.5q69 0 69 -56q0 -41 -26 -65.5t-71 -25.5zM276 -12q-234 0 -234 220q0 156 80.5 247.5t221.5 91.5q29 0 58 -5t56.5 -12.5t38.5 -9.5l-62 -166q-15 22 -41 34t-46 12q-50 0 -80.5 -47t-30.5 -120q0 -98 66 -98q63 0 103 52
l55 -159q-15 -3 -48.5 -14t-67.5 -18.5t-69 -7.5z" />
    <glyph glyph-name="d.sc" horiz-adv-x="601" 
d="M-1 0q28 35 55 177l35 180q26 148 13 178h203q261 0 261 -207q0 -164 -93 -246t-260 -82h-214zM234 144h24q50 0 84.5 42t34.5 120q0 47 -19 65.5t-56 18.5h-20z" />
    <glyph glyph-name="eth.sc" horiz-adv-x="601" 
d="M304 535q120 0 191 -49t71 -158q0 -164 -93 -246t-260 -82h-214q28 38 55 177l11 56h-45l14 73h44l10 51q28 146 14 178h202zM257 144q50 0 85 42t35 120q0 47 -19 65.5t-56 18.5h-21l-16 -84h56l-14 -73h-56l-17 -89h23z" />
    <glyph glyph-name="dcaron.sc" horiz-adv-x="601" 
d="M253 582q-31 84 -85 133l58 52q59 -32 106 -98h4q66 61 147 98l40 -55q-76 -54 -136 -130h-134zM-1 0q28 35 55 177l35 180q26 148 13 178h203q261 0 261 -207q0 -164 -93 -246t-260 -82h-214zM234 144h24q50 0 84.5 42t34.5 120q0 47 -19 65.5t-56 18.5h-20z" />
    <glyph glyph-name="dcroat.sc" horiz-adv-x="601" 
d="M304 535q120 0 191 -49t71 -158q0 -164 -93 -246t-260 -82h-214q28 38 55 177l11 56h-45l14 73h44l10 51q28 146 14 178h202zM257 144q50 0 85 42t35 120q0 47 -19 65.5t-56 18.5h-21l-16 -84h56l-14 -73h-56l-17 -89h23z" />
    <glyph glyph-name="e.sc" horiz-adv-x="500" 
d="M408 -7q-39 7 -145 7h-264q28 36 50 153l40 204q26 148 13 178h252q111 0 151 7l-33 -167q-32 16 -145 16h-44l-13 -64h40q95 0 128 12l-27 -147q-31 16 -123 16h-41l-12 -64h56q118 0 149 15z" />
    <glyph glyph-name="eacute.sc" horiz-adv-x="500" 
d="M272 588l-33 75q101 47 207 155l56 -103q-78 -83 -230 -127zM408 -7q-39 7 -145 7h-264q28 36 50 153l40 204q26 148 13 178h252q111 0 151 7l-33 -167q-32 16 -145 16h-44l-13 -64h40q95 0 128 12l-27 -147q-31 16 -123 16h-41l-12 -64h56q118 0 149 15z" />
    <glyph glyph-name="ecaron.sc" horiz-adv-x="500" 
d="M244 582q-31 84 -85 133l58 52q59 -32 106 -98h4q66 61 147 98l40 -55q-76 -54 -136 -130h-134zM408 -7q-39 7 -145 7h-264q28 36 50 153l40 204q26 148 13 178h252q111 0 151 7l-33 -167q-32 16 -145 16h-44l-13 -64h40q95 0 128 12l-27 -147q-31 16 -123 16h-41
l-12 -64h56q118 0 149 15z" />
    <glyph glyph-name="ecircumflex.sc" horiz-adv-x="500" 
d="M180 581l-48 55q81 58 133 130h148q27 -67 86 -130l-62 -55q-69 39 -107 98h-4q-57 -59 -146 -98zM408 -7q-39 7 -145 7h-264q28 36 50 153l40 204q26 148 13 178h252q111 0 151 7l-33 -167q-32 16 -145 16h-44l-13 -64h40q95 0 128 12l-27 -147q-31 16 -123 16h-41
l-12 -64h56q118 0 149 15z" />
    <glyph glyph-name="edieresis.sc" horiz-adv-x="500" 
d="M203 608q-27 0 -43.5 16t-16.5 41q0 36 27 63t63 27q27 0 43.5 -16.5t16.5 -41.5q0 -36 -26.5 -62.5t-63.5 -26.5zM425 608q-27 0 -43.5 16t-16.5 41q0 36 27 63t62 27q28 0 44.5 -16.5t16.5 -41.5q0 -36 -26.5 -62.5t-63.5 -26.5zM408 -7q-39 7 -145 7h-264
q28 36 50 153l40 204q26 148 13 178h252q111 0 151 7l-33 -167q-32 16 -145 16h-44l-13 -64h40q95 0 128 12l-27 -147q-31 16 -123 16h-41l-12 -64h56q118 0 149 15z" />
    <glyph glyph-name="edotaccent.sc" horiz-adv-x="500" 
d="M315 607q-70 -1 -70 55q0 41 27 66.5t71 25.5q69 0 69 -56q0 -41 -26 -65.5t-71 -25.5zM408 -7q-39 7 -145 7h-264q28 36 50 153l40 204q26 148 13 178h252q111 0 151 7l-33 -167q-32 16 -145 16h-44l-13 -64h40q95 0 128 12l-27 -147q-31 16 -123 16h-41l-12 -64h56
q118 0 149 15z" />
    <glyph glyph-name="egrave.sc" horiz-adv-x="500" 
d="M351 594q-54 12 -107.5 45t-76.5 76l90 95q24 -50 63 -90t83 -64zM408 -7q-39 7 -145 7h-264q28 36 50 153l40 204q26 148 13 178h252q111 0 151 7l-33 -167q-32 16 -145 16h-44l-13 -64h40q95 0 128 12l-27 -147q-31 16 -123 16h-41l-12 -64h56q118 0 149 15z" />
    <glyph glyph-name="emacron.sc" horiz-adv-x="500" 
d="M185 622l17 87h266l-17 -87h-266zM408 -7q-39 7 -145 7h-264q28 36 50 153l40 204q26 148 13 178h252q111 0 151 7l-33 -167q-32 16 -145 16h-44l-13 -64h40q95 0 128 12l-27 -147q-31 16 -123 16h-41l-12 -64h56q118 0 149 15z" />
    <glyph glyph-name="eogonek.sc" horiz-adv-x="500" 
d="M327 391h-44l-13 -64h40q95 0 128 12l-27 -147q-31 16 -123 16h-41l-12 -64h56q118 0 149 15l-32 -166q-37 -21 -63.5 -53t-26.5 -55q0 -24 25 -24q23 0 38 17l27 -51q-45 -45 -108 -45q-39 0 -63 18.5t-24 50.5q0 41 36.5 80.5t100.5 66.5q-24 2 -87 2h-264
q28 36 50 153l40 204q26 148 13 178h252q111 0 151 7l-33 -167q-32 16 -145 16z" />
    </font>
</defs>
</svg>
