<?xml version="1.0" standalone="no"?>
<!DOCTYPE svg PUBLIC "-//W3C//DTD SVG 1.1//EN" "http://www.w3.org/Graphics/SVG/1.1/DTD/svg11.dtd" >
<svg xmlns="http://www.w3.org/2000/svg" xmlns:xlink="http://www.w3.org/1999/xlink" version="1.1">
<metadata>
Created by FontForge 20201107 at Wed Feb 19 16:34:49 2020
 By 
Copyright (c) 2020 by Rodrigo Lo'pez Fuentes. All rights reserved.
</metadata>
<defs>
<font id="Mondo-Light" horiz-adv-x="363" >
  <font-face 
    font-family="Mondo Light"
    font-weight="400"
    font-stretch="normal"
    units-per-em="1000"
    panose-1="0 0 4 0 0 0 0 0 0 0"
    ascent="785"
    descent="-215"
    x-height="481"
    cap-height="658"
    bbox="-464 -315 1448 1010"
    underline-thickness="50"
    underline-position="-150"
    unicode-range="U+0020-FB02"
  />
<missing-glyph horiz-adv-x="461" 
d="M378 722v-922h-292v922h292zM307 660h-152v-30h60v-34h-61v-31h153v31h-61v34h61v30zM246 541h-92v-96h153v32h-61v64zM215 510v-33h-31v33h31zM307 421h-153v-31h61v-34h-61v-30h92v64h61v31zM307 365h-30v-61h-123v-31h153v92zM307 253h-92v-52h31v21h31v-43h-93v74
h-30v-104h153v104zM307 93h-153v-104h153v104zM277 63v-44h-93v44h93zM307 -32h-153v-31h65l-65 -43v-30h153v30h-94l65 43h29v31z" />
    <glyph glyph-name="fi" unicode="fi" horiz-adv-x="495" 
d="M341 0q12 26 12 107v267q0 46 -2 61h-202v-336q0 -77 12 -99h-73q10 22 10 99v336h-66v46h66v71q0 93 43 135.5t130 42.5q37 0 75.5 -7.5t54.5 -16.5l-14 -59q-14 15 -48.5 26t-67.5 11q-65 0 -93.5 -30.5t-28.5 -101.5v-71h265q-10 -27 -10 -107v-267q0 -81 13 -107h-76
z" />
    <glyph glyph-name="fl" unicode="fl" horiz-adv-x="504" 
d="M350 0q13 26 13 107v502q0 38 -1 52q-32 23 -96 23q-62 0 -89.5 -30.5t-27.5 -99.5v-73h110v-51q-28 5 -110 5v-336q0 -77 12 -99h-73q10 22 10 99v336h-66v46h66v73q0 91 41.5 133.5t126.5 42.5q50 0 96 -14h62q-10 -28 -10 -107v-502q0 -81 12 -107h-76z" />
    <glyph glyph-name="f_f" unicode="ff" horiz-adv-x="549" 
d="M509 684q-95 0 -95 -124v-79h109v-51q-28 5 -109 5v-336q0 -77 12 -99h-74q11 22 11 99v336h-214v-336q0 -77 12 -99h-73q10 22 10 99v336h-66v46h66v79q0 170 146 170q8 0 81 -10l-9 -57q-25 21 -72 21q-95 0 -95 -124v-79h214v79q0 170 146 170q15 0 29.5 -1.5
t29.5 -4.5t22 -4l-10 -57q-24 21 -71 21z" />
    <glyph glyph-name="f_f_i" unicode="ffi" horiz-adv-x="759" 
d="M605 0q13 26 13 107v267q0 46 -2 61h-202v-336q0 -77 12 -99h-74q11 22 11 99v336h-214v-336q0 -77 12 -99h-73q10 22 10 99v336h-66v46h66v79q0 170 146 170q8 0 81 -10l-9 -57q-25 21 -72 21q-95 0 -95 -124v-79h214v71q0 93 43 135.5t130 42.5q84 0 130 -24l-14 -59
q-15 15 -49.5 26t-66.5 11q-65 0 -93.5 -30.5t-28.5 -101.5v-71h265q-10 -28 -10 -107v-267q0 -81 13 -107h-77z" />
    <glyph glyph-name="f_f_l" unicode="ffl" horiz-adv-x="768" 
d="M614 0q12 26 12 107v502q0 39 -1 53q-33 22 -95 22q-63 0 -90 -30.5t-27 -99.5v-73h110v-51q-28 5 -110 5v-336q0 -77 12 -99h-74q11 22 11 99v336h-213v-336q0 -77 12 -99h-73q10 22 10 99v336h-66v46h66v79q0 170 146 170q8 0 81 -10l-9 -57q-25 21 -72 21
q-95 0 -95 -124v-79h213v73q0 91 41 133.5t127 42.5q48 0 96 -14h62q-11 -27 -11 -107v-502q0 -81 13 -107h-76z" />
    <glyph glyph-name=".notdef" horiz-adv-x="461" 
d="M378 722v-922h-292v922h292zM307 660h-152v-30h60v-34h-61v-31h153v31h-61v34h61v30zM246 541h-92v-96h153v32h-61v64zM215 510v-33h-31v33h31zM307 421h-153v-31h61v-34h-61v-30h92v64h61v31zM307 365h-30v-61h-123v-31h153v92zM307 253h-92v-52h31v21h31v-43h-93v74
h-30v-104h153v104zM307 93h-153v-104h153v104zM277 63v-44h-93v44h93zM307 -32h-153v-31h65l-65 -43v-30h153v30h-94l65 43h29v31z" />
    <glyph glyph-name=".null" horiz-adv-x="0" 
 />
    <glyph glyph-name="nonmarkingreturn" horiz-adv-x="333" 
 />
    <glyph glyph-name="space" unicode=" " horiz-adv-x="200" 
 />
    <glyph glyph-name="exclam" unicode="!" horiz-adv-x="261" 
d="M88 670h85q-18 -33 -18 -140v-339h-49v339q0 107 -18 140zM131 -12q-21 0 -35 13t-14 36t14 37t35 14q20 0 34 -14t14 -37q0 -22 -14 -35.5t-34 -13.5z" />
    <glyph glyph-name="quotedbl" unicode="&#x22;" horiz-adv-x="329" 
d="M71 617l-3 74h58l-3 -74l-13 -167h-26zM205 617l-3 74h58l-3 -74l-13 -167h-26z" />
    <glyph glyph-name="numbersign" unicode="#" horiz-adv-x="486" 
d="M117 215h-86v39h91l20 163h-91v40h96l25 192h38l-25 -192h149l25 192h38l-25 -192h84v-40h-88l-20 -163h88v-39h-94l-26 -215h-38l26 215h-149l-26 -215h-38zM309 254l21 163h-149l-20 -163h148z" />
    <glyph glyph-name="dollar" unicode="$" horiz-adv-x="500" 
d="M442 149q0 -68 -43 -110.5t-121 -49.5q0 -62 11 -87l-68 1q11 25 11 86q-75 4 -184 57l31 69q49 -73 153 -79v238q-75 24 -114 60.5t-39 100.5q0 61 41 101.5t112 45.5q0 65 -11 90h68q-11 -26 -11 -90q54 -4 145 -46l-30 -62q-42 54 -115 61v-222l19 -6
q72 -23 108.5 -59t36.5 -99zM132 436q0 -42 24 -66t76 -41v206q-48 -5 -74 -31.5t-26 -67.5zM278 36q55 6 83 34.5t28 74.5q0 47 -25.5 71t-83.5 43l-2 1v-224z" />
    <glyph glyph-name="percent" unicode="%" horiz-adv-x="803" 
d="M559 668h44l-358 -680h-44zM182 262q-66 0 -104.5 51t-38.5 147q0 94 38.5 145t104.5 51q65 0 103.5 -51t38.5 -145q0 -95 -38.5 -146.5t-103.5 -51.5zM182 300q45 0 71 41t26 119q0 77 -26 117.5t-71 40.5q-46 0 -72 -40t-26 -118t26.5 -119t71.5 -41zM616 -12
q-66 0 -104.5 51t-38.5 147q0 94 38.5 145t104.5 51q65 0 103.5 -51t38.5 -145q0 -95 -38.5 -146.5t-103.5 -51.5zM616 26q45 0 71 41t26 119q0 77 -26 117.5t-71 40.5q-46 0 -72 -40t-26 -118t26.5 -119t71.5 -41z" />
    <glyph glyph-name="ampersand" unicode="&#x26;" horiz-adv-x="657" 
d="M492 115q68 -70 127 -115h-107q-14 36 -58 83q-88 -98 -204 -98q-80 0 -134 50.5t-54 125.5q0 67 40.5 113t117.5 83q-52 83 -52 153q0 73 49.5 117.5t115.5 44.5q67 0 110 -40.5t43 -107.5q0 -62 -44 -104t-138 -79l-10 -4q42 -59 133 -153l23 -25q38 54 26 92h78
q-32 -78 -69 -128zM221 510q0 -59 45 -133l15 6q89 34 120.5 64t31.5 76q0 45 -28 73t-72 28q-46 0 -79 -31.5t-33 -82.5zM252 33q90 0 167 87l-39 41q-89 94 -133 156q-68 -31 -100.5 -67.5t-32.5 -88.5q0 -55 39 -91.5t99 -36.5z" />
    <glyph glyph-name="quotesingle" unicode="'" horiz-adv-x="178" 
d="M63 629l-3 62h58l-3 -62l-15 -179h-23z" />
    <glyph glyph-name="parenleft" unicode="(" horiz-adv-x="303" 
d="M241 -160q-167 182 -167 438t167 438l27 -58q-60 -22 -100.5 -126t-40.5 -254t40.5 -254t100.5 -126z" />
    <glyph glyph-name="parenright" unicode=")" horiz-adv-x="303" 
d="M61 -160l-28 58q60 22 100.5 126t40.5 254t-40.5 254t-100.5 126l28 58q166 -181 166 -438t-166 -438z" />
    <glyph glyph-name="asterisk" unicode="*" horiz-adv-x="418" 
d="M115 478l56 91l-96 38l10 30l100 -25l8 106h31l8 -105l101 25l10 -31l-95 -38l55 -90l-26 -20l-68 83l-68 -83z" />
    <glyph glyph-name="plus" unicode="+" horiz-adv-x="456" 
d="M334 288q61 0 82 10v-70q-24 10 -82 10h-79v-95q0 -62 10 -83h-73q10 21 10 83v95h-79q-58 0 -82 -10l-1 70q21 -10 83 -10h79v95q0 61 -10 82h73q-10 -21 -10 -82v-95h79z" />
    <glyph glyph-name="comma" unicode="," horiz-adv-x="225" 
d="M48 -124q79 40 79 121q-4 -1 -11 -1q-20 0 -33 11.5t-13 33.5q0 20 13.5 32t32.5 12q25 0 40 -20.5t15 -55.5q0 -108 -108 -164z" />
    <glyph glyph-name="hyphen" unicode="-" horiz-adv-x="310" 
d="M40 277h230v-47h-230v47z" />
    <glyph glyph-name="hyphen" unicode="&#x2011;" horiz-adv-x="310" 
d="M40 277h230v-47h-230v47z" />
    <glyph glyph-name="hyphen" unicode="&#x2010;" horiz-adv-x="310" 
d="M40 277h230v-47h-230v47z" />
    <glyph glyph-name="period" unicode="." horiz-adv-x="226" 
d="M112 -12q-21 0 -34.5 13.5t-13.5 34.5q0 23 13.5 36t34.5 13t35 -13t14 -36q0 -21 -14 -34.5t-35 -13.5z" />
    <glyph glyph-name="slash" unicode="/" horiz-adv-x="375" 
d="M293 710h67l-254 -742q-32 -92 -24 -128h-68l253 735q34 101 26 135z" />
    <glyph glyph-name="zero" unicode="0" horiz-adv-x="501" 
d="M251 -12q-99 0 -156 85.5t-57 256.5t56 255.5t157 84.5q99 0 155.5 -85t56.5 -255q0 -171 -56.5 -256.5t-155.5 -85.5zM251 36q71 0 114 72t43 222t-43 221t-114 71q-73 0 -115.5 -70.5t-42.5 -221.5t42.5 -222.5t115.5 -71.5z" />
    <glyph glyph-name="one" unicode="1" horiz-adv-x="485" 
d="M83 36l149 16v536h-126v37q103 3 179 42v-615l138 -16v-36h-340v36z" />
    <glyph glyph-name="two" unicode="2" horiz-adv-x="482" 
d="M313 48q97 0 124 20v-68h-396v39q314 284 314 447q0 61 -35 99t-99 38q-48 0 -87.5 -23t-60.5 -57l-33 61q12 4 44 22.5t66.5 31t71.5 12.5q85 0 136 -50t51 -132q0 -94 -73 -202t-212 -238h189z" />
    <glyph glyph-name="three" unicode="3" horiz-adv-x="481" 
d="M230 -12q-44 0 -83.5 12t-68.5 25t-45 14l34 73q19 -32 61.5 -54t99.5 -22q67 0 108.5 37t41.5 100q0 67 -54.5 107t-164.5 40v48q100 0 147.5 38t47.5 99q0 53 -33.5 85t-88.5 32q-43 0 -86 -22t-62 -50l-29 66q7 1 70 27t108 26q76 0 125.5 -43.5t49.5 -118.5
q0 -60 -33 -101t-88 -58v-4q62 -12 103 -56.5t41 -113.5q0 -84 -57 -135t-144 -51z" />
    <glyph glyph-name="four" unicode="4" horiz-adv-x="487" 
d="M459 238v-60h-94q0 -99 3 -129.5t15 -48.5h-86q12 18 15 48.5t3 129.5h-293v35l290 445h53v-433q71 0 94 13zM82 225h233l2 367z" />
    <glyph glyph-name="five" unicode="5" horiz-adv-x="482" 
d="M230 -12q-60 0 -127 29t-70 29l30 64q20 -31 64.5 -54t102.5 -23q65 0 108.5 45t43.5 119q0 72 -40.5 115t-108.5 43q-64 0 -121 -35l-33 18l26 320h191q75 0 108 16v-61h-253l-22 -235q48 25 109 25q86 0 141 -52.5t55 -152.5q0 -98 -60.5 -154t-143.5 -56z" />
    <glyph glyph-name="six" unicode="6" horiz-adv-x="479" 
d="M258 -12q-99 0 -153 78.5t-54 227.5q0 101 19 176.5t51.5 117.5t71 62t82.5 20q36 0 80 -13t55 -13l-16 -66q-43 45 -118 45q-34 0 -63.5 -16.5t-55 -51.5t-40 -98.5t-15.5 -149.5q65 83 158 83q86 0 133.5 -51t47.5 -148q0 -89 -52 -146t-131 -57zM255 345
q-40 0 -79.5 -24.5t-71.5 -73.5q13 -212 155 -212q57 0 93.5 44t36.5 112q0 71 -33.5 112.5t-100.5 41.5z" />
    <glyph glyph-name="seven" unicode="7" horiz-adv-x="473" 
d="M181 0q3 356 192 613h-219q-89 0 -115 -16v68q28 -7 115 -7h282v-37q-96 -117 -148 -264t-52 -284q0 -42 9 -73h-64z" />
    <glyph glyph-name="eight" unicode="8" horiz-adv-x="481" 
d="M240 -12q-88 0 -144 47.5t-56 123.5q0 66 42.5 115t94.5 70v4q-101 62 -101 159q0 71 49 116.5t122 45.5q77 0 124.5 -43.5t47.5 -115.5q0 -56 -33.5 -102t-76.5 -66v-4q64 -34 98 -74.5t34 -102.5q0 -74 -56 -123.5t-145 -49.5zM268 356q102 57 102 154q0 51 -33 82
t-90 31q-54 0 -88 -32t-34 -84q0 -32 12.5 -57t37.5 -43.5t44 -28.5t49 -22zM240 34q67 0 108 36t41 91q0 33 -14 59.5t-44.5 47t-52.5 31t-63 27.5q-123 -57 -123 -167q0 -56 41 -90.5t107 -34.5z" />
    <glyph glyph-name="nine" unicode="9" horiz-adv-x="479" 
d="M221 670q99 0 152.5 -79.5t53.5 -231.5q0 -190 -64.5 -280.5t-158.5 -90.5q-36 0 -80 13.5t-55 13.5l16 68q46 -48 118 -48q73 0 123 74.5t51 235.5q-64 -88 -156 -88q-85 0 -133.5 54t-48.5 153q0 90 52 148t130 58zM226 304q38 0 78 26t71 73q-13 220 -155 220
q-57 0 -93.5 -45t-36.5 -114q0 -74 33.5 -117t102.5 -43z" />
    <glyph glyph-name="colon" unicode=":" horiz-adv-x="249" 
d="M112 348q-21 0 -34.5 13.5t-13.5 34.5q0 23 13.5 36.5t34.5 13.5t35 -13.5t14 -36.5q0 -21 -14 -34.5t-35 -13.5zM112 -12q-21 0 -34.5 13.5t-13.5 34.5q0 23 13.5 36t34.5 13t35 -13t14 -36q0 -21 -14 -34.5t-35 -13.5z" />
    <glyph glyph-name="semicolon" unicode=";" horiz-adv-x="249" 
d="M115 330q-21 0 -34.5 13.5t-13.5 34.5q0 23 13.5 36t34.5 13t35 -13t14 -36q0 -21 -14 -34.5t-35 -13.5zM48 -124q79 40 79 121q-4 -1 -11 -1q-20 0 -33 11.5t-13 33.5q0 20 13.5 32t32.5 12q25 0 40 -20.5t15 -55.5q0 -108 -108 -164z" />
    <glyph glyph-name="less" unicode="&#x3c;" horiz-adv-x="420" 
d="M299 169q56 -25 79 -25l-29 -64q-15 17 -71 44l-232 109v59l232 108q56 27 71 45l29 -64q-27 -2 -79 -26l-199 -92z" />
    <glyph glyph-name="equal" unicode="=" horiz-adv-x="428" 
d="M40 366q21 -10 83 -10h183q61 0 82 10v-70q-24 10 -82 10h-183q-58 0 -82 -10zM40 230q21 -10 83 -10h183q61 0 82 10v-71q-21 10 -82 10h-183q-61 0 -82 -10z" />
    <glyph glyph-name="greater" unicode="&#x3e;" horiz-adv-x="420" 
d="M144 400l233 -108v-59l-232 -109q-57 -26 -72 -44l-29 64q25 0 79 25l200 94l-200 92q-52 25 -79 26l29 64q17 -19 71 -45z" />
    <glyph glyph-name="question" unicode="?" horiz-adv-x="406" 
d="M147 193q0 55 16.5 94.5t40 62.5t47 43.5t40 50t16.5 69.5q0 54 -32.5 85t-84.5 31q-41 0 -77.5 -18t-52.5 -46l-34 64q16 1 69 23.5t95 22.5q74 0 121.5 -43.5t47.5 -118.5q0 -47 -16.5 -81t-40.5 -55.5t-48 -43.5t-40.5 -57t-16.5 -83h-50zM177 -12q-20 0 -33 12.5
t-13 32.5q0 22 12.5 35t33.5 13t34 -13t13 -35q0 -20 -13 -32.5t-34 -12.5z" />
    <glyph glyph-name="at" unicode="@" horiz-adv-x="775" 
d="M387 582q130 0 218 -89.5t88 -221.5q0 -97 -36.5 -148t-93.5 -51q-44 0 -68 26t-25 68q-10 -23 -36.5 -41.5t-65.5 -18.5q-61 0 -97.5 41.5t-36.5 115.5t36.5 115t97.5 41q38 0 64 -16.5t35 -37.5l5 44h39v-218q0 -78 53 -78q85 0 85 158q0 115 -74 191.5t-188 76.5
t-188 -76.5t-74 -193.5q0 -120 72 -195.5t183 -75.5q60 0 97 28v-64q-51 -7 -97 -7q-127 0 -213 88.5t-86 225.5q0 133 87.5 223t218.5 90zM467 245v37q-3 45 -32 71.5t-66 26.5q-41 0 -66 -29.5t-25 -88.5q0 -58 25 -87.5t66 -29.5q37 0 66 27.5t32 72.5z" />
    <glyph glyph-name="A" unicode="A" horiz-adv-x="566" 
d="M244 658h78q-3 -23 23 -95l155 -446q29 -85 53 -117h-86q9 25 -19 111l-34 102l-264 -1l-34 -101q-28 -85 -18 -111h-85q21 28 53 117l155 446q24 75 23 95zM165 257h234l-116 347h-3z" />
    <glyph glyph-name="B" unicode="B" horiz-adv-x="567" 
d="M376 355q72 -15 110 -58.5t38 -109.5q0 -94 -64 -140.5t-180 -46.5h-198q16 27 16 107v444q0 80 -16 107h182q217 0 217 -160q0 -108 -105 -143zM151 612v-239h111q82 0 124.5 32t42.5 93t-41 87.5t-124 26.5h-113zM280 46q192 0 192 140q0 142 -210 142h-111v-282h129z
" />
    <glyph glyph-name="C" unicode="C" horiz-adv-x="558" 
d="M325 -12q-271 0 -271 342q0 340 267 340q15 0 31 -1.5t28.5 -4t27.5 -7t24.5 -7.5t23.5 -9t19.5 -8.5t18 -8.5t14.5 -7l-31 -65q-18 29 -61 50t-94 21q-213 0 -213 -292q0 -296 217 -296q58 0 103 19t66 47l25 -67q-2 -1 -34 -13t-48 -16.5t-49 -10.5t-64 -6z" />
    <glyph glyph-name="D" unicode="D" horiz-adv-x="608" 
d="M82 658h159q162 0 237.5 -77.5t75.5 -248.5q0 -173 -75.5 -252.5t-236.5 -79.5h-160q16 27 16 107v444q0 80 -16 107zM236 46q139 0 201 67.5t62 218.5q0 149 -62 214.5t-201 65.5h-85v-566h85z" />
    <glyph glyph-name="E" unicode="E" horiz-adv-x="511" 
d="M82 658h205q125 0 162 6v-65q-30 13 -162 13h-139v-240h112q119 0 143 11v-69q-24 11 -143 11h-112v-279h149q136 0 166 13v-65q-37 6 -166 6h-215q15 28 15 107v444q0 79 -15 107z" />
    <glyph glyph-name="F" unicode="F" horiz-adv-x="474" 
d="M82 658h219q117 0 151 6v-65q-30 13 -151 13h-153v-270h106q114 0 147 10v-66q-29 10 -147 10h-106v-189q0 -79 15 -107h-81q15 28 15 107v444q0 79 -15 107z" />
    <glyph glyph-name="G" unicode="G" horiz-adv-x="600" 
d="M329 -12q-130 0 -202.5 79t-72.5 263t72.5 262t200.5 78q96 0 189 -60l-34 -58q-42 70 -155 70q-105 0 -161.5 -64.5t-56.5 -226.5q0 -163 56.5 -229t163.5 -66q99 0 149 47v191h-45q-78 0 -111 -10v65q34 -6 111 -6h103q-8 -27 -8 -116v-49q0 -80 5 -105
q-104 -65 -204 -65z" />
    <glyph glyph-name="H" unicode="H" horiz-adv-x="640" 
d="M82 658h83q-15 -29 -15 -107v-178h340v178q0 78 -15 107h83q-15 -29 -15 -107v-444q0 -78 15 -107h-83q15 29 15 107v219h-340v-219q0 -78 15 -107h-83q15 27 15 107v444q0 80 -15 107z" />
    <glyph glyph-name="I" unicode="I" horiz-adv-x="260" 
d="M157 107q0 -80 15 -107h-84q16 28 16 107v444q0 79 -16 107h84q-15 -27 -15 -107v-444z" />
    <glyph glyph-name="J" unicode="J" horiz-adv-x="421" 
d="M172 -12q-61 0 -136 55l31 63q10 -31 38.5 -51t66.5 -20q56 0 83.5 36.5t27.5 121.5v358q0 80 -15 107h83q-15 -27 -15 -107v-358q0 -205 -164 -205z" />
    <glyph glyph-name="K" unicode="K" horiz-adv-x="576" 
d="M82 658h83q-15 -29 -15 -107v-255h2l247 288q39 46 47 74h93l-14 -10t-14.5 -12t-11.5 -11t-13 -14t-11.5 -12.5t-13.5 -15t-13 -14.5l-137 -161l172 -289q37 -62 85 -119h-91q-3 33 -40 95l-161 272l-126 -146v-114q0 -78 15 -107h-83q15 27 15 107v444q0 80 -15 107z
" />
    <glyph glyph-name="L" unicode="L" horiz-adv-x="462" 
d="M82 658h83q-15 -29 -15 -107v-506h140q119 0 149 15v-66q-36 6 -149 6h-208q15 27 15 107v444q0 80 -15 107z" />
    <glyph glyph-name="M" unicode="M" horiz-adv-x="718" 
d="M622 551v-444q0 -80 15 -107h-81q15 27 15 107v319q0 91 7 175h-2l-156 -416q-31 -83 -30 -110h-63q3 26 -29 110l-156 416h-2q6 -72 6 -175v-319q0 -80 15 -107h-79q15 27 15 107v444q0 79 -15 107h88l190 -510l189 510h88q-15 -25 -15 -107z" />
    <glyph glyph-name="N" unicode="N" horiz-adv-x="642" 
d="M82 658h77l339 -565h3q-7 54 -7 128v330q0 80 -15 107h81q-15 -29 -15 -107v-434q0 -81 11 -117h-61l-351 584h-4q8 -46 8 -124v-353q0 -78 15 -107h-81q15 29 15 107v444q0 79 -15 107z" />
    <glyph glyph-name="O" unicode="O" horiz-adv-x="650" 
d="M325 -12q-122 0 -196.5 86.5t-74.5 257.5q0 173 73.5 255.5t197.5 82.5q123 0 197 -82.5t74 -255.5q0 -171 -74.5 -257.5t-196.5 -86.5zM325 36q97 0 156.5 74.5t59.5 221.5q0 150 -58.5 220t-157.5 70t-157.5 -70t-58.5 -220q0 -148 59 -222t157 -74z" />
    <glyph glyph-name="P" unicode="P" horiz-adv-x="544" 
d="M82 658h181q119 0 180 -46t61 -158q0 -213 -237 -213h-117v-134q0 -78 15 -107h-83q15 27 15 107v444q0 80 -15 107zM255 285q100 0 147.5 39t47.5 130t-47.5 126t-151.5 35h-101v-330h105z" />
    <glyph glyph-name="Q" unicode="Q" horiz-adv-x="650" 
d="M591 -92l12 -60q-7 0 -37.5 -4t-48.5 -4q-82 0 -138 40.5t-74 108.5q-114 7 -182.5 93t-68.5 250q0 173 73.5 255.5t197.5 82.5q123 0 197 -82.5t74 -255.5q0 -160 -66 -246.5t-176 -96.5q15 -49 60 -76t103 -27q47 0 74 22zM109 332q0 -148 59 -222t157 -74
q97 0 156.5 74.5t59.5 221.5q0 150 -58.5 220t-157.5 70t-157.5 -70t-58.5 -220z" />
    <glyph glyph-name="R" unicode="R" horiz-adv-x="558" 
d="M82 661h190q117 0 176.5 -43t59.5 -144q0 -161 -156 -191l99 -172q42 -73 79 -111h-92q1 28 -38 96l-104 181h-146v-170q0 -78 15 -107h-83q15 27 15 107v447q0 80 -15 107zM269 322q185 0 185 152q0 78 -45.5 109.5t-143.5 31.5h-115v-293h119z" />
    <glyph glyph-name="S" unicode="S" horiz-adv-x="532" 
d="M270 -12q-100 0 -224 63l33 74q59 -90 192 -90q73 0 114.5 35.5t41.5 95.5q0 56 -28.5 85t-88.5 50l-89 31q-140 51 -140 175q0 73 53.5 118t136.5 45t185 -52l-31 -64q-51 69 -154 69q-62 0 -99.5 -31t-37.5 -84q0 -52 29 -80.5t81 -46.5l88 -32q71 -24 109.5 -65
t38.5 -114q0 -80 -57 -131t-153 -51z" />
    <glyph glyph-name="T" unicode="T" horiz-adv-x="506" 
d="M226 612h-93q-75 0 -107 -15v67q39 -6 107 -6h239q68 0 108 6v-67q-34 15 -108 15h-93v-505q0 -73 15 -107h-83q15 31 15 107v505z" />
    <glyph glyph-name="U" unicode="U" horiz-adv-x="629" 
d="M314 -12q-100 0 -162 61.5t-62 205.5v299q0 80 -15 107h83q-15 -29 -15 -107v-295q0 -224 171 -224q175 0 175 224v295q0 78 -15 107h80q-15 -29 -15 -107v-299q0 -144 -62.5 -205.5t-162.5 -61.5z" />
    <glyph glyph-name="V" unicode="V" horiz-adv-x="539" 
d="M315 0h-89q2 39 -30 137l-128 392q-34 101 -54 129h82q-5 -30 22 -115l96 -306q13 -38 30 -95t25 -82h6q5 16 55 178l94 305q27 88 23 115h79q-23 -32 -53 -129l-128 -392q-32 -98 -30 -137z" />
    <glyph glyph-name="W" unicode="W" horiz-adv-x="778" 
d="M682 658h77q-18 -29 -35 -108l-95 -425q-21 -94 -15 -125h-84q5 29 -20 124l-120 467l-120 -467q-25 -94 -21 -124h-83q6 32 -16 125l-96 425q-16 76 -36 108h82q-9 -25 7 -100l104 -493l128 495q19 74 13 98h77q-6 -25 13 -98l130 -495l103 493q15 72 7 100z" />
    <glyph glyph-name="X" unicode="X" horiz-adv-x="495" 
d="M410 112q48 -82 77 -112h-84q-3 32 -39 96l-120 211l-116 -211q-37 -65 -38 -96h-82q32 32 78 113l131 229l-128 222q-41 70 -67 94h85q-1 -23 29 -77l116 -208l112 208q29 53 28 77h81q-28 -28 -65 -94l-129 -227z" />
    <glyph glyph-name="Y" unicode="Y" horiz-adv-x="487" 
d="M411 545l-141 -280v-158q0 -76 15 -107h-83q15 31 15 107v158l-141 281q-42 84 -66 112h81q-1 -28 30 -93l124 -256l124 256q33 67 30 93h79q-15 -17 -26.5 -36t-40.5 -77z" />
    <glyph glyph-name="Z" unicode="Z" horiz-adv-x="539" 
d="M331 46q80 0 111.5 3.5t49.5 14.5v-70q-34 6 -161 6h-282l-2 47q23 15 70 90l304 475h-207q-105 0 -132 -17v70q38 -7 132 -7h274l2 -46q-20 -13 -60 -75l-315 -491h216z" />
    <glyph glyph-name="bracketleft" unicode="[" horiz-adv-x="279" 
d="M86 699q126 0 161 15v-46h-110v-786h110v-46q-35 15 -161 15v848z" />
    <glyph glyph-name="backslash" unicode="\" horiz-adv-x="375" 
d="M82 710q-9 -32 26 -135l252 -735h-67q8 36 -24 128l-255 742h68z" />
    <glyph glyph-name="bracketright" unicode="]" horiz-adv-x="279" 
d="M194 699v-848q-127 0 -162 -15v46h110v786h-110v46q35 -15 162 -15z" />
    <glyph glyph-name="asciicircum" unicode="^" horiz-adv-x="374" 
d="M333 326l-64 -24q-1 25 -24 79l-58 140l-58 -140q-24 -56 -24 -79l-64 24q16 13 42 73l76 183h56l76 -184q24 -57 42 -72z" />
    <glyph glyph-name="underscore" unicode="_" horiz-adv-x="500" 
d="M12 -71h476v-39h-476v39z" />
    <glyph glyph-name="grave" unicode="`" horiz-adv-x="542" 
d="M321 610l-14 -30q-98 47 -165 129l34 41q62 -89 145 -140z" />
    <glyph glyph-name="a" unicode="a" horiz-adv-x="489" 
d="M206 -12q-69 0 -110 35.5t-41 102.5q0 144 228 144h76v42q0 67 -27.5 101t-90.5 34q-44 0 -82.5 -17.5t-56.5 -42.5l-27 59q7 1 64.5 24t102.5 23q169 0 169 -180v-194q0 -90 14 -119h-64l2 76h-5q-21 -37 -63 -62.5t-89 -25.5zM208 32q43 0 83.5 28t67.5 77v89h-76
q-174 0 -174 -100q0 -45 27 -69.5t72 -24.5z" />
    <glyph glyph-name="b" unicode="b" horiz-adv-x="544" 
d="M292 -12q-92 0 -150 61h-4l2 -49h-60q10 32 10 107v504q0 76 -12 107h74q-11 -32 -11 -107v-188q58 70 152 70q95 0 146 -65.5t51 -183.5q0 -122 -52 -189t-146 -67zM288 34q73 0 111 55.5t38 153.5q0 95 -38 149.5t-111 54.5q-40 0 -79.5 -21t-67.5 -60v-253
q29 -38 68 -58.5t79 -20.5z" />
    <glyph glyph-name="c" unicode="c" horiz-adv-x="455" 
d="M262 -12q-212 0 -212 252q0 132 58 192.5t154 60.5q22 0 46 -5t35 -9t35 -15l25 -11l-27 -60q-42 54 -114 54q-158 0 -158 -207q0 -206 158 -206q86 0 129 55l27 -59l-28 -11q-27 -11 -40.5 -15.5t-39.5 -10t-48 -5.5z" />
    <glyph glyph-name="d" unicode="d" horiz-adv-x="546" 
d="M256 -12q-93 0 -147 65t-54 187q0 121 55 187t148 66q90 0 146 -61v179q0 80 -11 107h71q-9 -28 -9 -107v-504q0 -80 11 -107h-61l2 54h-4q-56 -66 -147 -66zM261 34q39 0 78.5 22.5t64.5 62.5v250q-57 78 -142 78q-71 0 -112 -55t-41 -151q0 -98 40 -152.5t112 -54.5z
" />
    <glyph glyph-name="e" unicode="e" horiz-adv-x="501" 
d="M270 -12q-220 0 -220 252q0 129 56.5 191t150.5 62q89 0 138 -58t49 -161q0 -22 -2 -40h-338q1 -105 42 -152.5t128 -47.5q91 0 138 53l21 -59q-89 -40 -163 -40zM392 277q0 81 -35.5 125.5t-99.5 44.5q-69 0 -108.5 -44.5t-44.5 -125.5h288z" />
    <glyph glyph-name="f" unicode="f" horiz-adv-x="284" 
d="M98 435h-66v46h66v79q0 170 146 170q8 0 81 -10l-9 -57q-25 21 -72 21q-95 0 -95 -124v-79h110v-51q-28 5 -110 5v-336q0 -77 12 -99h-73q10 22 10 99v336z" />
    <glyph glyph-name="g" unicode="g" horiz-adv-x="486" 
d="M262 65q105 0 152.5 -32t47.5 -97q0 -136 -217 -136q-95 0 -146.5 33.5t-51.5 98.5q0 39 24 70.5t62 48.5q-20 20 -20 57q0 39 31 68q-80 42 -80 147q0 81 47.5 125.5t124.5 44.5q38 0 64 -12h66q61 0 95 7v-62q-35 16 -103 16v-3q48 -48 48 -117q0 -79 -47 -123.5
t-123 -44.5q-31 0 -53 7q-24 -17 -24 -48q0 -28 21.5 -38t81.5 -10zM236 450q-53 0 -87 -31.5t-34 -95.5t34.5 -96t86.5 -32t86.5 32t34.5 96q0 58 -35 92.5t-86 34.5zM246 -157q165 0 165 93q0 41 -34.5 61t-114.5 20q-64 0 -96 12q-69 -36 -69 -97q0 -89 149 -89z" />
    <glyph glyph-name="h" unicode="h" horiz-adv-x="532" 
d="M78 718h74q-11 -27 -11 -107v-156q0 -37 -3 -49h4q27 38 69.5 62.5t89.5 24.5q150 0 150 -185v-201q0 -81 13 -107h-76q12 26 12 107v201q0 75 -26 107.5t-78 32.5q-85 0 -155 -98v-243q0 -81 13 -107h-76q12 26 12 107v504q0 81 -12 107z" />
    <glyph glyph-name="i" unicode="i" horiz-adv-x="238" 
d="M119 589q-41 0 -41 43q0 41 41 41t41 -41q0 -43 -41 -43zM80 0q12 26 12 107v267q0 81 -12 107h73q-10 -27 -10 -107v-267q0 -81 13 -107h-76z" />
    <glyph glyph-name="j" unicode="j" horiz-adv-x="233" 
d="M116 589q-39 0 -39 43q0 41 39 41q40 0 40 -41q0 -43 -40 -43zM26 -200q-16 0 -41.5 4t-30.5 4l13 61q20 -23 59 -23q35 0 50 26t15 84v418q0 76 -13 107h76q-12 -31 -12 -107v-418q0 -83 -28.5 -119.5t-87.5 -36.5z" />
    <glyph glyph-name="k" unicode="k" horiz-adv-x="469" 
d="M78 718h74q-11 -27 -11 -107v-376q0 -11 -3 -41h4l174 215q37 46 41 72h89q-34 -25 -94 -97l-79 -96l124 -189q41 -66 77 -99h-88q-4 33 -38 84l-106 165l-101 -120v-22q0 -81 13 -107h-76q12 26 12 107v504q0 81 -12 107z" />
    <glyph glyph-name="l" unicode="l" horiz-adv-x="232" 
d="M78 0q12 26 12 107v504q0 81 -12 107h74q-11 -27 -11 -107v-504q0 -81 13 -107h-76z" />
    <glyph glyph-name="m" unicode="m" horiz-adv-x="813" 
d="M78 481h62l-2 -73h5q23 34 63 59.5t85 25.5q106 0 134 -95q73 95 162 95q145 0 145 -180v-206q0 -79 13 -107h-76q12 29 12 107v206q0 135 -100 135q-75 0 -144 -92v-249q0 -79 13 -107h-77q13 28 13 107v206q0 135 -101 135q-75 0 -144 -92v-249q0 -79 13 -107h-76
q12 29 12 107v267q0 81 -12 107z" />
    <glyph glyph-name="n" unicode="n" horiz-adv-x="532" 
d="M78 486h61q0 -55 -1 -78h3q27 35 70 60t92 25q148 0 148 -182v-192q0 -89 13 -119h-76q12 30 12 119v192q0 71 -26 104t-79 33q-86 0 -154 -96v-233q0 -88 11 -119h-74q12 30 12 119v248q0 89 -12 119z" />
    <glyph glyph-name="o" unicode="o" horiz-adv-x="530" 
d="M266 -12q-99 0 -157.5 63.5t-58.5 188.5q0 126 58.5 189.5t157.5 63.5t157 -63.5t58 -189.5q0 -125 -58 -188.5t-157 -63.5zM266 34q77 0 119 52t42 154t-42 154.5t-119 52.5q-78 0 -120 -52.5t-42 -154.5t42 -154t120 -52z" />
    <glyph glyph-name="p" unicode="p" horiz-adv-x="544" 
d="M141 49v-142q-1 -74 12 -107h-75q12 31 12 107v472q0 76 -12 107h62l-4 -62h5q60 69 152 69q95 0 146 -65.5t51 -183.5q0 -122 -53 -189t-145 -67q-93 0 -151 61zM288 34q72 0 110.5 56t38.5 153q0 95 -38 149.5t-111 54.5q-39 0 -79 -21.5t-68 -59.5v-254
q59 -78 147 -78z" />
    <glyph glyph-name="q" unicode="q" horiz-adv-x="546" 
d="M256 -12q-93 0 -147 65t-54 187q0 121 55 187t148 66q90 0 146 -61h5q-4 22 -4 54h63q-13 -34 -13 -107v-472q0 -76 13 -107h-77q13 31 13 107v101q0 9 3 45h-4q-57 -65 -147 -65zM259 34q40 0 79.5 23t65.5 63v249q-57 78 -145 78q-69 0 -109.5 -55t-40.5 -151
q0 -98 39.5 -152.5t110.5 -54.5z" />
    <glyph glyph-name="r" unicode="r" horiz-adv-x="337" 
d="M78 481h62q0 -44 -2 -92h5q16 46 51.5 75t79.5 29q11 0 28.5 -1.5t23.5 -1.5l-13 -62q-16 19 -46 19q-37 0 -72.5 -38t-53.5 -98v-204q0 -81 13 -107h-76q12 26 12 107v267q0 81 -12 107z" />
    <glyph glyph-name="s" unicode="s" horiz-adv-x="415" 
d="M206 -12q-42 0 -106.5 19.5t-65.5 19.5l26 72q18 -29 59 -47.5t88 -18.5q115 0 115 92q0 62 -103 93l-30 9q-130 40 -130 139q0 59 42.5 93t113.5 34q26 0 51 -5.5t56.5 -16.5t36.5 -12l-27 -66q-36 55 -117 55q-49 0 -77.5 -21.5t-28.5 -58.5q0 -64 93 -92l32 -10
q139 -41 139 -139q0 -65 -43 -102t-124 -37z" />
    <glyph glyph-name="t" unicode="t" horiz-adv-x="324" 
d="M226 -12q-67 0 -95 38.5t-28 109.5v306h-71v34q71 8 123 86v-81h131v-48q-31 9 -131 9v-307q0 -51 17 -77t62 -26q36 0 60 25l13 -59q-8 -1 -38 -5.5t-43 -4.5z" />
    <glyph glyph-name="u" unicode="u" horiz-adv-x="532" 
d="M227 -12q-145 0 -145 190v196q0 79 -14 107h66v-303q0 -145 100 -145q44 0 85 28t71 81v232q0 78 -12 107h63v-374q0 -76 13 -107h-66q0 48 5 80h-5q-24 -42 -66.5 -67t-94.5 -25z" />
    <glyph glyph-name="v" unicode="v" horiz-adv-x="458" 
d="M10 481h79q-4 -28 19 -91l80 -227l40 -113h5q27 80 40 113l80 227q22 67 19 91h76q-21 -28 -49 -104l-98 -265q-28 -78 -27 -112h-87q1 30 -29 112l-99 265q-28 76 -49 104z" />
    <glyph glyph-name="w" unicode="w" horiz-adv-x="682" 
d="M595 481h73q-22 -37 -43 -111l-73 -263q-20 -72 -20 -107h-83q-2 49 -19 107l-88 311l-88 -311q-19 -68 -19 -107h-81q0 40 -20 107l-77 263q-24 81 -43 111h78q-5 -29 14 -98l89 -324l96 338q17 53 14 84h77q-2 -27 14 -85l95 -337l90 324q18 69 14 98z" />
    <glyph glyph-name="x" unicode="x" horiz-adv-x="427" 
d="M417 0h-83q3 21 -25 64l-100 154l-95 -154q-28 -43 -25 -64h-79q22 20 57 72l115 180l-101 157q-34 53 -58 72h82q0 -24 25 -63l88 -138l83 138q25 40 24 63h78q-21 -17 -56 -72l-101 -164l113 -173q33 -51 58 -72z" />
    <glyph glyph-name="y" unicode="y" horiz-adv-x="450" 
d="M80 -200q-8 0 -26 2t-27 1l14 67q15 -25 45 -25q81 0 120 121l12 34h-8l-151 376q-33 79 -54 105h81q-4 -30 20 -90l131 -334h2l114 334q21 61 15 90h77q-20 -28 -48 -105l-147 -423q-53 -153 -170 -153z" />
    <glyph glyph-name="z" unicode="z" horiz-adv-x="413" 
d="M29 39q15 11 46 56l232 342h-140q-81 0 -108 -14v63q42 -5 87 -5h223l4 -40q-14 -9 -36 -42l-242 -355h169q90 0 119 14v-63q-45 5 -93 5h-257z" />
    <glyph glyph-name="braceleft" unicode="{" horiz-adv-x="303" 
d="M223 -152q-60 9 -87 34t-27 90q0 34 7.5 101t7.5 106q0 37 -21.5 60t-73.5 14v50q52 -9 73.5 13.5t21.5 59.5q0 40 -7.5 104t-7.5 98q0 65 27 90t87 34l44 7v-49l-33 4q-41 4 -57.5 -15.5t-16.5 -72.5q0 -29 6.5 -90.5t6.5 -106.5q0 -84 -65 -100v-2q65 -16 65 -101
q0 -45 -6.5 -109t-6.5 -93q0 -52 16.5 -74t57.5 -18l33 4v-45z" />
    <glyph glyph-name="bar" unicode="|" horiz-adv-x="279" 
d="M104 699h71q-12 -17 -12 -74v-693q0 -61 12 -80h-71q12 17 12 80v693q0 55 -12 74z" />
    <glyph glyph-name="braceright" unicode="}" horiz-adv-x="303" 
d="M80 -152l-44 -7v45l33 -4q41 -4 57.5 18t16.5 74q0 29 -6.5 93t-6.5 109q0 85 65 101v2q-65 16 -65 100q0 45 6.5 106.5t6.5 90.5q0 51 -16 72t-58 16l-33 -4v49l44 -7q60 -9 87 -34t27 -90q0 -34 -7.5 -98t-7.5 -104q0 -37 21.5 -59.5t73.5 -13.5v-50q-52 9 -73.5 -14
t-21.5 -60q0 -39 7.5 -106t7.5 -101q0 -67 -27.5 -90.5t-86.5 -33.5z" />
    <glyph glyph-name="asciitilde" unicode="~" horiz-adv-x="411" 
d="M283 284q-27 0 -56 17.5t-53.5 35t-42.5 17.5q-42 0 -42 -59l-49 2q0 50 24.5 80t64.5 30q34 0 83 -35.5t69 -35.5q41 0 41 58l49 -1q0 -49 -24 -79t-64 -30z" />
    <glyph glyph-name="uni00A0" unicode="&#xa0;" horiz-adv-x="200" 
 />
    <glyph glyph-name="exclamdown" unicode="&#xa1;" horiz-adv-x="261" 
d="M131 498q20 0 34 -13.5t14 -35.5q0 -23 -14 -37t-34 -14q-21 0 -35 14t-14 37t14 36t35 13zM88 -184q18 33 18 140v339h49v-339q0 -107 18 -140h-85z" />
    <glyph glyph-name="cent" unicode="&#xa2;" horiz-adv-x="455" 
d="M416 23q-90 -33 -146 -35q0 -59 12 -86l-69 1q11 25 11 87q-176 22 -176 250q0 227 176 251q0 66 -11 91h69q-12 -25 -12 -89q28 -1 55 -7t43.5 -13t34.5 -14l-23 -60q-38 47 -110 48v-413q83 2 123 50zM102 240q0 -180 122 -203v407q-122 -25 -122 -204z" />
    <glyph glyph-name="sterling" unicode="&#xa3;" horiz-adv-x="437" 
d="M277 45q100 0 130 15v-66q-36 6 -130 6h-242q11 21 11 39v3q51 0 73.5 30t22.5 73q0 44 -25 110h-24q-39 0 -56 -9v60q18 -8 56 -8h9q-28 80 -28 151q0 80 46.5 124.5t116.5 44.5q71 0 133 -33l-17 -60q-37 51 -115 51q-49 0 -80.5 -32.5t-31.5 -92.5q0 -68 31 -153h99
q38 0 56 8v-60q-17 9 -56 9h-84q20 -62 20 -106q0 -73 -39 -104h124z" />
    <glyph glyph-name="currency" unicode="&#xa4;" horiz-adv-x="499" 
d="M415 279q0 -55 -31 -99q50 -49 74 -57l-52 -52q-9 25 -57 74q-45 -32 -100 -32q-53 0 -99 31q-48 -49 -58 -73l-50 52q23 9 73 57q-32 42 -32 99q0 58 32 100q-49 48 -73 58l51 51q12 -28 58 -74q42 31 98 31q54 0 99 -32q49 51 57 74l52 -51q-25 -10 -73 -58
q31 -42 31 -99zM249 161q51 0 81.5 31.5t30.5 86.5t-30.5 86.5t-81.5 31.5t-81.5 -31.5t-30.5 -86.5t30.5 -86.5t81.5 -31.5z" />
    <glyph glyph-name="yen" unicode="&#xa5;" horiz-adv-x="479" 
d="M284 286h70q40 0 56 10v-54h-144v-61h144v-54q-16 10 -56 10h-88v-30q0 -76 15 -107h-83q15 31 15 107v30h-85q-40 0 -56 -10v54h141v61h-141v54q16 -10 56 -10h67l-117 210q-41 73 -72 110h81q-1 -25 36 -93l118 -210l118 210q39 69 36 93h79q-31 -34 -73 -110z" />
    <glyph glyph-name="brokenbar" unicode="&#xa6;" horiz-adv-x="279" 
d="M104 699h71q-12 -17 -12 -74v-190q0 -61 12 -80h-71q12 17 12 80v190q0 55 -12 74zM104 196h71q-12 -16 -12 -74v-190q0 -61 12 -80h-71q12 17 12 80v190q0 55 -12 74z" />
    <glyph glyph-name="section" unicode="&#xa7;" horiz-adv-x="523" 
d="M222 -53q48 0 82 37t34 95q0 41 -26.5 79.5t-64.5 71t-76 67.5t-64.5 82.5t-26.5 101.5q0 89 56.5 140.5t144.5 51.5q47 0 88 -14t60 -29v-93q-13 40 -53.5 66.5t-88.5 26.5q-41 0 -66.5 -37t-25.5 -97q0 -43 26.5 -82t64.5 -71t76 -65.5t64.5 -80t26.5 -99.5
q0 -88 -58.5 -141.5t-165.5 -53.5q-50 0 -92.5 13t-63.5 29v97q16 -40 57.5 -67.5t91.5 -27.5zM121 483q0 -41 19 -78.5t48 -65.5t62.5 -59t62.5 -58t48 -64t19 -76q0 -68 -40 -114q70 39 70 127q0 48 -26.5 90.5t-64 75.5t-75.5 65.5t-64.5 75t-26.5 90.5q0 68 32 113
q-64 -39 -64 -122z" />
    <glyph glyph-name="dieresis" unicode="&#xa8;" horiz-adv-x="542" 
d="M206 596q-17 0 -28.5 11t-11.5 28t11.5 28t28.5 11q16 0 27.5 -11t11.5 -28t-11.5 -28t-27.5 -11zM336 596q-16 0 -27.5 11t-11.5 28t11.5 28t27.5 11q17 0 28.5 -11t11.5 -28t-11.5 -28t-28.5 -11z" />
    <glyph glyph-name="copyright" unicode="&#xa9;" horiz-adv-x="886" 
d="M443 -26q-126 0 -213.5 87.5t-87.5 213.5t87.5 213t213.5 87t213.5 -87t87.5 -213t-87.5 -213.5t-213.5 -87.5zM443 14q108 0 184 76t76 185t-76 184.5t-184 75.5t-184 -75.5t-76 -184.5t76 -185t184 -76zM528 169v-59q-8 -1 -23.5 -4t-30 -4.5t-27.5 -1.5
q-70 0 -111 43.5t-41 131.5t40.5 131.5t111.5 43.5q13 0 27.5 -1.5t30 -4.5t23.5 -4v-58q-30 29 -78 29q-110 0 -110 -136q0 -135 110 -135q48 0 78 29z" />
    <glyph glyph-name="ordfeminine" unicode="&#xaa;" horiz-adv-x="358" 
d="M143 272q-50 0 -83 28.5t-33 79.5q0 115 179 115h56v31q0 49 -20.5 71.5t-68.5 22.5q-34 0 -64 -13.5t-44 -32.5l-21 53q5 1 50 19t80 18q137 0 137 -137v-152q0 -72 11 -94h-59l1 59h-3q-40 -68 -118 -68zM149 313q67 0 113 83v57h-56q-129 0 -129 -73q0 -34 20.5 -50.5
t51.5 -16.5z" />
    <glyph glyph-name="guillemotleft" unicode="&#xab;" horiz-adv-x="411" 
d="M223 105l-25 -21q-65 99 -149 143v51q85 45 149 142l25 -23q-54 -89 -132 -145q79 -58 132 -147zM363 105l-25 -21q-65 99 -149 143v51q85 45 149 142l25 -23q-54 -89 -132 -145q79 -58 132 -147z" />
    <glyph glyph-name="logicalnot" unicode="&#xac;" horiz-adv-x="390" 
d="M332 290v-57q0 -39 9 -58h-71q10 19 10 58v61h-157q-58 0 -82 -10l-1 75q21 -11 83 -11h217q-8 -16 -8 -58z" />
    <glyph glyph-name="uni00AD" unicode="&#xad;" horiz-adv-x="310" 
d="M40 277h230v-47h-230v47z" />
    <glyph glyph-name="registered" unicode="&#xae;" horiz-adv-x="578" 
d="M290 772q97 0 166.5 -69t69.5 -166t-69.5 -166t-166.5 -69q-98 0 -167.5 69t-69.5 166t69.5 166t167.5 69zM290 337q82 0 141 58.5t59 141.5t-58.5 142t-141.5 59q-84 0 -143 -59t-59 -142t59 -141.5t143 -58.5zM355 453q19 -32 39 -51h-59q4 13 -15 43l-37 60h-44
l-1 -52q0 -34 9 -51h-55q10 19 10 51v173q0 32 -10 51h100q48 0 72.5 -23t24.5 -62q0 -33 -18.5 -55t-50.5 -29zM238 535h53q62 0 62 56q0 54 -62 54h-53v-110z" />
    <glyph glyph-name="macron" unicode="&#xaf;" horiz-adv-x="542" 
d="M162 642h218v-41h-218v41z" />
    <glyph glyph-name="degree" unicode="&#xb0;" horiz-adv-x="379" 
d="M190 408q-56 0 -96 40t-40 96t40 95.5t96 39.5t95.5 -39.5t39.5 -95.5t-39.5 -96t-95.5 -40zM190 445q40 0 67.5 28.5t27.5 70.5q0 41 -27.5 69.5t-67.5 28.5t-68 -28.5t-28 -69.5q0 -42 27.5 -70.5t68.5 -28.5z" />
    <glyph glyph-name="plusminus" unicode="&#xb1;" horiz-adv-x="420" 
d="M296 348q61 0 82 11v-71q-24 10 -82 10h-59v-49q0 -61 10 -82h-74q11 21 11 82v49h-59q-58 0 -82 -10l-1 71q21 -11 83 -11h59v49q0 61 -11 82h74q-10 -21 -10 -82v-49h59zM125 121h171q61 0 82 10v-71q-21 10 -82 10h-171q-61 0 -82 -10l-1 71q21 -10 83 -10z" />
    <glyph glyph-name="uni00B2" unicode="&#xb2;" 
d="M54 487q103 76 147.5 126.5t44.5 99.5q0 39 -21.5 62t-54.5 23q-31 0 -56.5 -16.5t-38.5 -43.5l-29 48q9 2 48.5 25.5t75.5 23.5q53 0 87 -33t34 -89t-42 -107.5t-126 -114.5h107q58 0 83 15v-53h-259v34z" />
    <glyph glyph-name="uni00B3" unicode="&#xb3;" 
d="M183 441q-42 0 -88 24t-54 26l32 50q37 -64 110 -64q35 0 59 19t24 53q0 76 -136 76v34q57 0 89 21t32 54q0 30 -20.5 47.5t-52.5 17.5q-53 0 -94 -51l-25 48q7 2 47 20.5t72 18.5q50 0 83 -26t33 -74q0 -68 -78 -90q40 -6 67 -30.5t27 -65.5q0 -51 -36.5 -79.5
t-90.5 -28.5z" />
    <glyph glyph-name="acute" unicode="&#xb4;" horiz-adv-x="332" 
d="M78 604q80 50 140 143l36 -38q-62 -81 -159 -132z" />
    <glyph glyph-name="uni00B5" unicode="&#xb5;" horiz-adv-x="532" 
d="M454 0h-66q0 40 5 92h-5q-25 -48 -66 -76t-91 -28q-59 0 -97 41v-80q0 -74 16 -107h-83q15 31 15 107v425q0 79 -14 107h66v-337q0 -51 26 -79.5t74 -28.5q96 0 156 120v218q0 78 -12 107h63v-374q0 -76 13 -107z" />
    <glyph glyph-name="paragraph" unicode="&#xb6;" horiz-adv-x="465" 
d="M393 664v-58q-15 9 -44 9v-527q0 -78 -39.5 -122t-119.5 -44v74q54 -21 81.5 6t27.5 86v227q-29 -11 -63 -11q-82 0 -127.5 51.5t-45.5 128.5q0 76 52 128t152 52h126zM299 361v254h-52v-264q25 0 52 10z" />
    <glyph glyph-name="periodcentered" unicode="&#xb7;" horiz-adv-x="249" 
d="M125 269q-22 0 -37.5 14.5t-15.5 37.5q0 25 15 39.5t38 14.5q22 0 37 -14.5t15 -39.5q0 -23 -15 -37.5t-37 -14.5z" />
    <glyph glyph-name="cedilla" unicode="&#xb8;" horiz-adv-x="542" 
d="M193 -175q112 0 112 49q0 41 -77 49l40 80h36l-26 -58q71 -17 71 -70q0 -80 -149 -86z" />
    <glyph glyph-name="uni00B9" unicode="&#xb9;" 
d="M176 757h-85v33q83 0 127 37v-330l87 -12v-32h-221v32l92 12v260z" />
    <glyph glyph-name="ordmasculine" unicode="&#xba;" horiz-adv-x="374" 
d="M187 272q-71 0 -114 48.5t-43 146.5q0 99 43 148t114 49t114 -49t43 -148q0 -98 -43 -146.5t-114 -48.5zM187 315q108 0 108 152q0 154 -108 154t-108 -154q0 -152 108 -152z" />
    <glyph glyph-name="guillemotright" unicode="&#xbb;" horiz-adv-x="431" 
d="M48 105q53 89 132 147q-78 56 -132 145l25 23q64 -97 149 -142v-51q-84 -44 -149 -143zM208 105q53 89 132 147q-78 56 -132 145l25 23q64 -97 149 -142v-51q-84 -44 -149 -143z" />
    <glyph glyph-name="onequarter" unicode="&#xbc;" horiz-adv-x="786" 
d="M600 668h45l-358 -680h-45zM176 578h-85v33q83 0 127 37v-330l87 -12v-32h-221v32l92 12v260zM645 108h-177v29l175 245h42v-239q42 0 58 13v-48h-58v-23q0 -64 16 -85h-71q15 20 15 85v23zM645 143v186l-132 -186h132z" />
    <glyph glyph-name="onehalf" unicode="&#xbd;" horiz-adv-x="850" 
d="M593 668h45l-358 -680h-45zM176 578h-85v33q83 0 127 37v-330l87 -12v-32h-221v32l92 12v260zM540 34q103 76 148 126.5t45 99.5q0 39 -21.5 62t-54.5 23q-31 0 -56.5 -16.5t-38.5 -43.5l-30 48q10 2 49.5 25.5t75.5 23.5q53 0 87 -33t34 -89t-42.5 -107.5t-126.5 -114.5
h107q59 0 84 15v-53h-260v34z" />
    <glyph glyph-name="threequarters" unicode="&#xbe;" horiz-adv-x="778" 
d="M588 668h45l-358 -680h-45zM183 262q-42 0 -88 24t-54 26l32 50q37 -64 110 -64q35 0 59 19t24 53q0 76 -136 76v34q57 0 89 21t32 54q0 30 -20.5 47.5t-52.5 17.5q-53 0 -94 -51l-25 48q7 2 47 20.5t72 18.5q50 0 83 -26t33 -74q0 -68 -78 -90q40 -6 67 -30.5t27 -65.5
q0 -51 -36.5 -79.5t-90.5 -28.5zM637 108h-177v29l175 245h42v-239q42 0 58 13v-48h-58v-23q0 -64 16 -85h-71q15 20 15 85v23zM637 143v186l-132 -186h132z" />
    <glyph glyph-name="questiondown" unicode="&#xbf;" horiz-adv-x="406" 
d="M228 496q21 0 33.5 -12.5t12.5 -32.5q0 -22 -12.5 -35t-33.5 -13t-33.5 13t-12.5 35q0 20 13 32.5t33 12.5zM259 292q0 -55 -16.5 -95t-40 -63t-47 -43.5t-40 -50t-16.5 -69.5q0 -54 32 -85t84 -31q41 0 78 18t53 46l34 -64q-16 -1 -69.5 -23.5t-95.5 -22.5
q-74 0 -121 43.5t-47 118.5q0 47 16.5 81t40.5 55.5t48 43.5t40.5 57.5t16.5 83.5h50z" />
    <glyph glyph-name="Agrave" unicode="&#xc0;" horiz-adv-x="566" 
d="M324 748l-14 -30q-98 47 -165 129l34 41q62 -89 145 -140zM244 658h78q-3 -23 23 -95l155 -446q29 -85 53 -117h-86q9 25 -19 111l-34 102l-264 -1l-34 -101q-28 -85 -18 -111h-85q21 28 53 117l155 446q24 75 23 95zM165 257h234l-116 347h-3z" />
    <glyph glyph-name="Aacute" unicode="&#xc1;" horiz-adv-x="566" 
d="M245 742q80 50 140 143l36 -38q-62 -81 -159 -132zM244 658h78q-3 -23 23 -95l155 -446q29 -85 53 -117h-86q9 25 -19 111l-34 102l-264 -1l-34 -101q-28 -85 -18 -111h-85q21 28 53 117l155 446q24 75 23 95zM165 257h234l-116 347h-3z" />
    <glyph glyph-name="Acircumflex" unicode="&#xc2;" horiz-adv-x="566" 
d="M258 876h49q49 -89 115 -144l-20 -22q-73 50 -118 123h-4q-43 -72 -117 -123l-20 22q66 55 115 144zM244 658h78q-3 -23 23 -95l155 -446q29 -85 53 -117h-86q9 25 -19 111l-34 102l-264 -1l-34 -101q-28 -85 -18 -111h-85q21 28 53 117l155 446q24 75 23 95zM165 257
h234l-116 347h-3z" />
    <glyph glyph-name="Atilde" unicode="&#xc3;" horiz-adv-x="566" 
d="M347 726q-26 0 -49.5 20t-43.5 39.5t-37 19.5q-24 0 -33.5 -17.5t-4.5 -47.5l-52 3q21 100 91 100q26 0 49 -19.5t43 -39t38 -19.5q23 0 33 17.5t5 46.5l51 -3q-21 -100 -90 -100zM244 658h78q-3 -23 23 -95l155 -446q29 -85 53 -117h-86q9 25 -19 111l-34 102l-264 -1
l-34 -101q-28 -85 -18 -111h-85q21 28 53 117l155 446q24 75 23 95zM165 257h234l-116 347h-3z" />
    <glyph glyph-name="Adieresis" unicode="&#xc4;" horiz-adv-x="566" 
d="M219 734q-17 0 -28.5 11t-11.5 28t11.5 28t28.5 11t28 -11t11 -28t-11 -28t-28 -11zM349 734q-17 0 -28 11t-11 28t11 28t28 11t28.5 -11t11.5 -28t-11.5 -28t-28.5 -11zM244 658h78q-3 -23 23 -95l155 -446q29 -85 53 -117h-86q9 25 -19 111l-34 102l-264 -1l-34 -101
q-28 -85 -18 -111h-85q21 28 53 117l155 446q24 75 23 95zM165 257h234l-116 347h-3z" />
    <glyph glyph-name="Aring" unicode="&#xc5;" horiz-adv-x="566" 
d="M282 712q-42 0 -68 22.5t-26 58.5t26 58.5t68 22.5t68.5 -22.5t26.5 -58.5t-26.5 -58.5t-68.5 -22.5zM282 744q25 0 40.5 12.5t15.5 36.5t-15.5 36.5t-40.5 12.5t-40.5 -12.5t-15.5 -36.5t15.5 -36.5t40.5 -12.5zM244 658h78q-3 -23 23 -95l155 -446q29 -85 53 -117h-86
q9 25 -19 111l-34 102l-264 -1l-34 -101q-28 -85 -18 -111h-85q21 28 53 117l155 446q24 75 23 95zM165 257h234l-116 347h-3z" />
    <glyph glyph-name="AE" unicode="&#xc6;" horiz-adv-x="815" 
d="M642 46q92 0 126 15v-68q-35 7 -126 7h-247q15 30 15 107v105h-218l-48 -88q-51 -93 -45 -124h-90q29 32 90 144l218 396q46 87 45 118h280q77 0 115 7v-68q-34 15 -115 15h-179v-240h124q90 0 120 10v-67q-30 10 -120 10h-124v-279h179zM215 256h195v358h-4z" />
    <glyph glyph-name="Ccedilla" unicode="&#xc7;" horiz-adv-x="558" 
d="M324 -55q71 -17 71 -70q0 -80 -149 -86l-7 36q112 0 112 49q0 41 -77 49l33 65q-253 12 -253 342q0 340 267 340q15 0 31 -1.5t28.5 -4t27.5 -7t24.5 -7.5t23.5 -9t19.5 -8.5t18 -8.5t14.5 -7l-31 -65q-18 29 -61 50t-94 21q-213 0 -213 -292q0 -296 217 -296
q58 0 103 19t66 47l25 -67q-5 -2 -32 -12t-43 -15t-45 -11.5t-57 -7.5z" />
    <glyph glyph-name="Egrave" unicode="&#xc8;" horiz-adv-x="511" 
d="M316 748l-14 -30q-98 47 -165 129l34 41q62 -89 145 -140zM82 658h205q125 0 162 6v-65q-30 13 -162 13h-139v-240h112q119 0 143 11v-69q-24 11 -143 11h-112v-279h149q136 0 166 13v-65q-37 6 -166 6h-215q15 28 15 107v444q0 79 -15 107z" />
    <glyph glyph-name="Eacute" unicode="&#xc9;" horiz-adv-x="511" 
d="M237 742q80 50 140 143l36 -38q-62 -81 -159 -132zM82 658h205q125 0 162 6v-65q-30 13 -162 13h-139v-240h112q119 0 143 11v-69q-24 11 -143 11h-112v-279h149q136 0 166 13v-65q-37 6 -166 6h-215q15 28 15 107v444q0 79 -15 107z" />
    <glyph glyph-name="Ecircumflex" unicode="&#xca;" horiz-adv-x="511" 
d="M250 876h49q49 -89 115 -144l-20 -22q-73 50 -118 123h-4q-43 -72 -117 -123l-20 22q66 55 115 144zM82 658h205q125 0 162 6v-65q-30 13 -162 13h-139v-240h112q119 0 143 11v-69q-24 11 -143 11h-112v-279h149q136 0 166 13v-65q-37 6 -166 6h-215q15 28 15 107v444
q0 79 -15 107z" />
    <glyph glyph-name="Edieresis" unicode="&#xcb;" horiz-adv-x="511" 
d="M211 734q-17 0 -28.5 11t-11.5 28t11.5 28t28.5 11t28 -11t11 -28t-11 -28t-28 -11zM341 734q-17 0 -28 11t-11 28t11 28t28 11t28.5 -11t11.5 -28t-11.5 -28t-28.5 -11zM82 658h205q125 0 162 6v-65q-30 13 -162 13h-139v-240h112q119 0 143 11v-69q-24 11 -143 11h-112
v-279h149q136 0 166 13v-65q-37 6 -166 6h-215q15 28 15 107v444q0 79 -15 107z" />
    <glyph glyph-name="Igrave" unicode="&#xcc;" horiz-adv-x="260" 
d="M173 748l-14 -30q-98 47 -165 129l34 41q62 -89 145 -140zM157 107q0 -80 15 -107h-84q16 28 16 107v444q0 79 -16 107h84q-15 -27 -15 -107v-444z" />
    <glyph glyph-name="Iacute" unicode="&#xcd;" horiz-adv-x="260" 
d="M94 742q80 50 140 143l36 -38q-62 -81 -159 -132zM157 107q0 -80 15 -107h-84q16 28 16 107v444q0 79 -16 107h84q-15 -27 -15 -107v-444z" />
    <glyph glyph-name="Icircumflex" unicode="&#xce;" horiz-adv-x="260" 
d="M107 876h49q49 -89 115 -144l-20 -22q-73 50 -118 123h-4q-43 -72 -117 -123l-20 22q66 55 115 144zM157 107q0 -80 15 -107h-84q16 28 16 107v444q0 79 -16 107h84q-15 -27 -15 -107v-444z" />
    <glyph glyph-name="Idieresis" unicode="&#xcf;" horiz-adv-x="260" 
d="M68 734q-17 0 -28.5 11t-11.5 28t11.5 28t28.5 11q16 0 27.5 -11t11.5 -28t-11.5 -28t-27.5 -11zM198 734q-16 0 -27.5 11t-11.5 28t11.5 28t27.5 11q17 0 28.5 -11t11.5 -28t-11.5 -28t-28.5 -11zM157 107q0 -80 15 -107h-84q16 28 16 107v444q0 79 -16 107h84
q-15 -27 -15 -107v-444z" />
    <glyph glyph-name="Eth" unicode="&#xd0;" horiz-adv-x="608" 
d="M241 658q162 0 237.5 -77.5t75.5 -248.5q0 -173 -75.5 -252.5t-236.5 -79.5h-160q16 27 16 107v219h-66v36h66v189q0 80 -16 107h159zM236 46q139 0 201 67.5t62 218.5q0 149 -62 214.5t-201 65.5h-85v-250h193v-36h-193v-280h85z" />
    <glyph glyph-name="Ntilde" unicode="&#xd1;" horiz-adv-x="642" 
d="M391 726q-26 0 -49.5 20t-43.5 39.5t-37 19.5q-24 0 -33.5 -17.5t-4.5 -47.5l-52 3q21 100 91 100q26 0 49 -19.5t43 -39t38 -19.5q23 0 33 17.5t5 46.5l51 -3q-21 -100 -90 -100zM82 658h77l339 -565h3q-7 54 -7 128v330q0 80 -15 107h81q-15 -29 -15 -107v-434
q0 -81 11 -117h-61l-351 584h-4q8 -46 8 -124v-353q0 -78 15 -107h-81q15 29 15 107v444q0 79 -15 107z" />
    <glyph glyph-name="Ograve" unicode="&#xd2;" horiz-adv-x="650" 
d="M368 748l-14 -30q-98 47 -165 129l34 41q62 -89 145 -140zM325 -12q-122 0 -196.5 86.5t-74.5 257.5q0 173 73.5 255.5t197.5 82.5q123 0 197 -82.5t74 -255.5q0 -171 -74.5 -257.5t-196.5 -86.5zM325 36q97 0 156.5 74.5t59.5 221.5q0 150 -58.5 220t-157.5 70
t-157.5 -70t-58.5 -220q0 -148 59 -222t157 -74z" />
    <glyph glyph-name="Oacute" unicode="&#xd3;" horiz-adv-x="650" 
d="M289 742q80 50 140 143l36 -38q-62 -81 -159 -132zM325 -12q-122 0 -196.5 86.5t-74.5 257.5q0 173 73.5 255.5t197.5 82.5q123 0 197 -82.5t74 -255.5q0 -171 -74.5 -257.5t-196.5 -86.5zM325 36q97 0 156.5 74.5t59.5 221.5q0 150 -58.5 220t-157.5 70t-157.5 -70
t-58.5 -220q0 -148 59 -222t157 -74z" />
    <glyph glyph-name="Ocircumflex" unicode="&#xd4;" horiz-adv-x="650" 
d="M302 876h49q49 -89 115 -144l-20 -22q-73 50 -118 123h-4q-43 -72 -117 -123l-20 22q66 55 115 144zM325 -12q-122 0 -196.5 86.5t-74.5 257.5q0 173 73.5 255.5t197.5 82.5q123 0 197 -82.5t74 -255.5q0 -171 -74.5 -257.5t-196.5 -86.5zM325 36q97 0 156.5 74.5
t59.5 221.5q0 150 -58.5 220t-157.5 70t-157.5 -70t-58.5 -220q0 -148 59 -222t157 -74z" />
    <glyph glyph-name="Otilde" unicode="&#xd5;" horiz-adv-x="650" 
d="M391 726q-26 0 -49.5 20t-43.5 39.5t-37 19.5q-24 0 -33.5 -17.5t-4.5 -47.5l-52 3q21 100 91 100q26 0 49 -19.5t43 -39t38 -19.5q23 0 33 17.5t5 46.5l51 -3q-21 -100 -90 -100zM325 -12q-122 0 -196.5 86.5t-74.5 257.5q0 173 73.5 255.5t197.5 82.5q123 0 197 -82.5
t74 -255.5q0 -171 -74.5 -257.5t-196.5 -86.5zM325 36q97 0 156.5 74.5t59.5 221.5q0 150 -58.5 220t-157.5 70t-157.5 -70t-58.5 -220q0 -148 59 -222t157 -74z" />
    <glyph glyph-name="Odieresis" unicode="&#xd6;" horiz-adv-x="650" 
d="M263 734q-17 0 -28.5 11t-11.5 28t11.5 28t28.5 11t28 -11t11 -28t-11 -28t-28 -11zM393 734q-17 0 -28 11t-11 28t11 28t28 11t28.5 -11t11.5 -28t-11.5 -28t-28.5 -11zM325 -12q-122 0 -196.5 86.5t-74.5 257.5q0 173 73.5 255.5t197.5 82.5q123 0 197 -82.5t74 -255.5
q0 -171 -74.5 -257.5t-196.5 -86.5zM325 36q97 0 156.5 74.5t59.5 221.5q0 150 -58.5 220t-157.5 70t-157.5 -70t-58.5 -220q0 -148 59 -222t157 -74z" />
    <glyph glyph-name="multiply" unicode="&#xd7;" horiz-adv-x="418" 
d="M246 262l64 -64q40 -40 66 -51l-52 -52q-8 24 -50 66l-64 65l-67 -67q-41 -41 -51 -65l-52 52q24 8 66 50l67 67l-65 64q-40 40 -66 51l52 51q8 -23 50 -65l65 -65l67 67q41 43 50 65l52 -51q-23 -9 -66 -52z" />
    <glyph glyph-name="Oslash" unicode="&#xd8;" horiz-adv-x="654" 
d="M528 582q69 -88 69 -250q0 -171 -74.5 -257.5t-196.5 -86.5q-100 0 -166 56l-31 -45h-54l53 77q-73 89 -73 256q0 173 73.5 255.5t197.5 82.5q104 0 170 -56l30 44h54zM110 332q0 -134 50 -209l306 448q-54 51 -140 51q-99 0 -157.5 -70t-58.5 -220zM326 36
q97 0 156.5 74.5t59.5 221.5q0 128 -46 203l-306 -448q54 -51 136 -51z" />
    <glyph glyph-name="Ugrave" unicode="&#xd9;" horiz-adv-x="629" 
d="M356 748l-14 -30q-98 47 -165 129l34 41q62 -89 145 -140zM314 -12q-100 0 -162 61.5t-62 205.5v299q0 80 -15 107h83q-15 -29 -15 -107v-295q0 -224 171 -224q175 0 175 224v295q0 78 -15 107h80q-15 -29 -15 -107v-299q0 -144 -62.5 -205.5t-162.5 -61.5z" />
    <glyph glyph-name="Uacute" unicode="&#xda;" horiz-adv-x="629" 
d="M277 742q80 50 140 143l36 -38q-62 -81 -159 -132zM314 -12q-100 0 -162 61.5t-62 205.5v299q0 80 -15 107h83q-15 -29 -15 -107v-295q0 -224 171 -224q175 0 175 224v295q0 78 -15 107h80q-15 -29 -15 -107v-299q0 -144 -62.5 -205.5t-162.5 -61.5z" />
    <glyph glyph-name="Ucircumflex" unicode="&#xdb;" horiz-adv-x="629" 
d="M290 876h49q49 -89 115 -144l-20 -22q-73 50 -118 123h-4q-43 -72 -117 -123l-20 22q66 55 115 144zM314 -12q-100 0 -162 61.5t-62 205.5v299q0 80 -15 107h83q-15 -29 -15 -107v-295q0 -224 171 -224q175 0 175 224v295q0 78 -15 107h80q-15 -29 -15 -107v-299
q0 -144 -62.5 -205.5t-162.5 -61.5z" />
    <glyph glyph-name="Udieresis" unicode="&#xdc;" horiz-adv-x="629" 
d="M251 734q-17 0 -28.5 11t-11.5 28t11.5 28t28.5 11t28 -11t11 -28t-11 -28t-28 -11zM381 734q-17 0 -28 11t-11 28t11 28t28 11t28.5 -11t11.5 -28t-11.5 -28t-28.5 -11zM314 -12q-100 0 -162 61.5t-62 205.5v299q0 80 -15 107h83q-15 -29 -15 -107v-295q0 -224 171 -224
q175 0 175 224v295q0 78 -15 107h80q-15 -29 -15 -107v-299q0 -144 -62.5 -205.5t-162.5 -61.5z" />
    <glyph glyph-name="Yacute" unicode="&#xdd;" horiz-adv-x="487" 
d="M382 847q-62 -81 -159 -132l-17 27q80 50 140 143zM411 545l-141 -280v-158q0 -76 15 -107h-83q15 31 15 107v158l-141 281q-42 84 -66 112h81q-1 -28 30 -93l124 -256l124 256q33 67 30 93h79q-15 -17 -26.5 -36t-40.5 -77z" />
    <glyph glyph-name="Thorn" unicode="&#xde;" horiz-adv-x="543" 
d="M80 658h85q-16 -26 -16 -128h101q117 0 176.5 -42t59.5 -140q0 -190 -235 -190h-102q0 -85 2.5 -112.5t13.5 -45.5h-85q16 28 16 107v444q0 80 -16 107zM243 202q99 0 144 33.5t45 112.5q0 78 -45 108t-146 30h-92v-284h94z" />
    <glyph glyph-name="germandbls" unicode="&#xdf;" horiz-adv-x="522" 
d="M324 -12q-76 0 -129 43l26 64q33 -64 103 -64q53 0 83 33t30 94q0 42 -18 72.5t-43.5 48t-51.5 33t-44 37.5t-18 52q0 24 14 45t31 34t31 37t14 54q0 50 -27 79t-74 29q-116 0 -116 -159v-413q0 -75 11 -107h-72q10 32 10 107v413q0 100 44.5 152.5t123.5 52.5
q69 0 111 -41.5t42 -111.5q0 -36 -15 -64t-33 -42t-33 -30t-15 -31q0 -20 18.5 -36.5t44.5 -32t52.5 -35.5t45 -57t18.5 -86q0 -80 -45 -125t-119 -45z" />
    <glyph glyph-name="agrave" unicode="&#xe0;" horiz-adv-x="489" 
d="M286 596l-14 -30q-98 47 -165 129l34 41q62 -89 145 -140zM206 -12q-69 0 -110 35.5t-41 102.5q0 144 228 144h76v42q0 67 -27.5 101t-90.5 34q-44 0 -82.5 -17.5t-56.5 -42.5l-27 59q7 1 64.5 24t102.5 23q169 0 169 -180v-194q0 -90 14 -119h-64l2 76h-5
q-21 -37 -63 -62.5t-89 -25.5zM208 32q43 0 83.5 28t67.5 77v89h-76q-174 0 -174 -100q0 -45 27 -69.5t72 -24.5z" />
    <glyph glyph-name="aacute" unicode="&#xe1;" horiz-adv-x="489" 
d="M207 590q80 50 140 143l36 -38q-62 -81 -159 -132zM206 -12q-69 0 -110 35.5t-41 102.5q0 144 228 144h76v42q0 67 -27.5 101t-90.5 34q-44 0 -82.5 -17.5t-56.5 -42.5l-27 59q7 1 64.5 24t102.5 23q169 0 169 -180v-194q0 -90 14 -119h-64l2 76h-5q-21 -37 -63 -62.5
t-89 -25.5zM208 32q43 0 83.5 28t67.5 77v89h-76q-174 0 -174 -100q0 -45 27 -69.5t72 -24.5z" />
    <glyph glyph-name="acircumflex" unicode="&#xe2;" horiz-adv-x="489" 
d="M220 724h49q49 -89 115 -144l-20 -22q-73 50 -118 123h-4q-43 -72 -117 -123l-20 22q66 55 115 144zM206 -12q-69 0 -110 35.5t-41 102.5q0 144 228 144h76v42q0 67 -27.5 101t-90.5 34q-44 0 -82.5 -17.5t-56.5 -42.5l-27 59q7 1 64.5 24t102.5 23q169 0 169 -180v-194
q0 -90 14 -119h-64l2 76h-5q-21 -37 -63 -62.5t-89 -25.5zM208 32q43 0 83.5 28t67.5 77v89h-76q-174 0 -174 -100q0 -45 27 -69.5t72 -24.5z" />
    <glyph glyph-name="atilde" unicode="&#xe3;" horiz-adv-x="489" 
d="M309 574q-26 0 -49.5 20t-43.5 39.5t-37 19.5q-24 0 -33.5 -17.5t-4.5 -47.5l-52 3q21 100 91 100q26 0 49 -19.5t43 -39t38 -19.5q23 0 33 17.5t5 46.5l51 -3q-21 -100 -90 -100zM206 -12q-69 0 -110 35.5t-41 102.5q0 144 228 144h76v42q0 67 -27.5 101t-90.5 34
q-44 0 -82.5 -17.5t-56.5 -42.5l-27 59q7 1 64.5 24t102.5 23q169 0 169 -180v-194q0 -90 14 -119h-64l2 76h-5q-21 -37 -63 -62.5t-89 -25.5zM208 32q43 0 83.5 28t67.5 77v89h-76q-174 0 -174 -100q0 -45 27 -69.5t72 -24.5z" />
    <glyph glyph-name="adieresis" unicode="&#xe4;" horiz-adv-x="489" 
d="M181 582q-17 0 -28.5 11t-11.5 28t11.5 28t28.5 11t28 -11t11 -28t-11 -28t-28 -11zM311 582q-17 0 -28 11t-11 28t11 28t28 11t28.5 -11t11.5 -28t-11.5 -28t-28.5 -11zM206 -12q-69 0 -110 35.5t-41 102.5q0 144 228 144h76v42q0 67 -27.5 101t-90.5 34
q-44 0 -82.5 -17.5t-56.5 -42.5l-27 59q7 1 64.5 24t102.5 23q169 0 169 -180v-194q0 -90 14 -119h-64l2 76h-5q-21 -37 -63 -62.5t-89 -25.5zM208 32q43 0 83.5 28t67.5 77v89h-76q-174 0 -174 -100q0 -45 27 -69.5t72 -24.5z" />
    <glyph glyph-name="aring" unicode="&#xe5;" horiz-adv-x="489" 
d="M244 560q-42 0 -68 22.5t-26 58.5t26 58.5t68 22.5t68.5 -22.5t26.5 -58.5t-26.5 -58.5t-68.5 -22.5zM244 592q25 0 40.5 12.5t15.5 36.5t-15.5 36.5t-40.5 12.5t-40.5 -12.5t-15.5 -36.5t15.5 -36.5t40.5 -12.5zM206 -12q-69 0 -110 35.5t-41 102.5q0 144 228 144h76v42
q0 67 -27.5 101t-90.5 34q-44 0 -82.5 -17.5t-56.5 -42.5l-27 59q7 1 64.5 24t102.5 23q169 0 169 -180v-194q0 -90 14 -119h-64l2 76h-5q-21 -37 -63 -62.5t-89 -25.5zM208 32q43 0 83.5 28t67.5 77v89h-76q-174 0 -174 -100q0 -45 27 -69.5t72 -24.5z" />
    <glyph glyph-name="ae" unicode="&#xe6;" horiz-adv-x="810" 
d="M753 274q0 -22 -2 -40h-339q2 -105 43 -152.5t127 -47.5q91 0 139 53l21 -59q-95 -40 -164 -40q-145 0 -195 111q-71 -111 -177 -111q-69 0 -110 35.5t-41 102.5q0 142 223 142h81v44q0 69 -28 102t-92 33q-42 0 -78.5 -17.5t-58.5 -42.5l-26 57q10 3 39.5 16t62.5 23
t64 10q119 0 154 -89q53 89 169 89q89 0 138.5 -58.5t49.5 -160.5zM413 277h288q0 80 -35.5 125t-99.5 45q-70 0 -109.5 -44.5t-43.5 -125.5zM359 135v89h-76q-176 0 -176 -98q0 -45 27.5 -69.5t73.5 -24.5q43 0 83.5 27t67.5 76z" />
    <glyph glyph-name="ccedilla" unicode="&#xe7;" horiz-adv-x="455" 
d="M258 -54q71 -17 71 -70q0 -80 -149 -86l-7 36q112 0 112 49q0 41 -77 49l32 65q-190 12 -190 251q0 132 58 192.5t154 60.5q22 0 46 -5t35 -9t35 -15l25 -11l-27 -60q-42 54 -114 54q-158 0 -158 -207q0 -206 158 -206q86 0 129 55l27 -59l-24 -10q-25 -10 -37.5 -14
t-36 -10t-43.5 -7z" />
    <glyph glyph-name="egrave" unicode="&#xe8;" horiz-adv-x="501" 
d="M297 596l-14 -30q-98 47 -165 129l34 41q62 -89 145 -140zM270 -12q-220 0 -220 252q0 129 56.5 191t150.5 62q89 0 138 -58t49 -161q0 -22 -2 -40h-338q1 -105 42 -152.5t128 -47.5q91 0 138 53l21 -59q-89 -40 -163 -40zM392 277q0 81 -35.5 125.5t-99.5 44.5
q-69 0 -108.5 -44.5t-44.5 -125.5h288z" />
    <glyph glyph-name="eacute" unicode="&#xe9;" horiz-adv-x="501" 
d="M218 590q80 50 140 143l36 -38q-62 -81 -159 -132zM270 -12q-220 0 -220 252q0 129 56.5 191t150.5 62q89 0 138 -58t49 -161q0 -22 -2 -40h-338q1 -105 42 -152.5t128 -47.5q91 0 138 53l21 -59q-89 -40 -163 -40zM392 277q0 81 -35.5 125.5t-99.5 44.5
q-69 0 -108.5 -44.5t-44.5 -125.5h288z" />
    <glyph glyph-name="ecircumflex" unicode="&#xea;" horiz-adv-x="501" 
d="M231 724h49q49 -89 115 -144l-20 -22q-73 50 -118 123h-4q-43 -72 -117 -123l-20 22q66 55 115 144zM270 -12q-220 0 -220 252q0 129 56.5 191t150.5 62q89 0 138 -58t49 -161q0 -22 -2 -40h-338q1 -105 42 -152.5t128 -47.5q91 0 138 53l21 -59q-89 -40 -163 -40z
M392 277q0 81 -35.5 125.5t-99.5 44.5q-69 0 -108.5 -44.5t-44.5 -125.5h288z" />
    <glyph glyph-name="edieresis" unicode="&#xeb;" horiz-adv-x="501" 
d="M193 582q-17 0 -28.5 11t-11.5 28t11.5 28t28.5 11t28 -11t11 -28t-11 -28t-28 -11zM323 582q-17 0 -28 11t-11 28t11 28t28 11t28.5 -11t11.5 -28t-11.5 -28t-28.5 -11zM270 -12q-220 0 -220 252q0 129 56.5 191t150.5 62q89 0 138 -58t49 -161q0 -22 -2 -40h-338
q1 -105 42 -152.5t128 -47.5q91 0 138 53l21 -59q-89 -40 -163 -40zM392 277q0 81 -35.5 125.5t-99.5 44.5q-69 0 -108.5 -44.5t-44.5 -125.5h288z" />
    <glyph glyph-name="igrave" unicode="&#xec;" horiz-adv-x="224" 
d="M154 596l-14 -30q-98 47 -165 129l34 41q62 -89 145 -140zM78 0q9 33 9 107v267q0 74 -9 107h67q-7 -36 -7 -107v-267q0 -72 8 -107h-68z" />
    <glyph glyph-name="iacute" unicode="&#xed;" horiz-adv-x="224" 
d="M75 590q80 50 140 143l36 -38q-62 -81 -159 -132zM78 0q9 33 9 107v267q0 74 -9 107h67q-7 -36 -7 -107v-267q0 -72 8 -107h-68z" />
    <glyph glyph-name="icircumflex" unicode="&#xee;" horiz-adv-x="224" 
d="M88 724h49q49 -89 115 -144l-20 -22q-73 50 -118 123h-4q-43 -72 -117 -123l-20 22q66 55 115 144zM78 0q9 33 9 107v267q0 74 -9 107h67q-7 -36 -7 -107v-267q0 -72 8 -107h-68z" />
    <glyph glyph-name="idieresis" unicode="&#xef;" horiz-adv-x="224" 
d="M49 582q-17 0 -28.5 11t-11.5 28t11.5 28t28.5 11t28 -11t11 -28t-11 -28t-28 -11zM179 582q-17 0 -28 11t-11 28t11 28t28 11t28.5 -11t11.5 -28t-11.5 -28t-28.5 -11zM78 0q9 33 9 107v267q0 74 -9 107h67q-7 -36 -7 -107v-267q0 -72 8 -107h-68z" />
    <glyph glyph-name="eth" unicode="&#xf0;" horiz-adv-x="514" 
d="M330 608q134 -136 134 -355q0 -126 -54 -195.5t-151 -69.5q-88 0 -148.5 58t-60.5 174q0 105 56.5 164t144.5 59q98 0 156 -79q-27 134 -119 221l-111 -62l-17 29l102 57q-22 18 -48 36q-40 28 -72 32l25 51q7 -6 17.5 -13t26 -16t24.5 -15q35 -23 68 -52l113 63l17 -30z
M260 32q78 0 116 58.5t38 161.5q0 18 -2 44q-29 50 -72.5 76.5t-83.5 26.5q-74 0 -114.5 -48t-40.5 -131q0 -93 44.5 -140.5t114.5 -47.5z" />
    <glyph glyph-name="ntilde" unicode="&#xf1;" horiz-adv-x="532" 
d="M335 574q-26 0 -49.5 20t-43.5 39.5t-37 19.5q-24 0 -33.5 -17.5t-4.5 -47.5l-52 3q21 100 91 100q26 0 49 -19.5t43 -39t38 -19.5q23 0 33 17.5t5 46.5l51 -3q-21 -100 -90 -100zM78 486h61q0 -55 -1 -78h3q27 35 70 60t92 25q148 0 148 -182v-192q0 -89 13 -119h-76
q12 30 12 119v192q0 71 -26 104t-79 33q-86 0 -154 -96v-233q0 -88 11 -119h-74q12 30 12 119v248q0 89 -12 119z" />
    <glyph glyph-name="ograve" unicode="&#xf2;" horiz-adv-x="530" 
d="M307 596l-14 -30q-98 47 -165 129l34 41q62 -89 145 -140zM266 -12q-99 0 -157.5 63.5t-58.5 188.5q0 126 58.5 189.5t157.5 63.5t157 -63.5t58 -189.5q0 -125 -58 -188.5t-157 -63.5zM266 34q77 0 119 52t42 154t-42 154.5t-119 52.5q-78 0 -120 -52.5t-42 -154.5
t42 -154t120 -52z" />
    <glyph glyph-name="oacute" unicode="&#xf3;" horiz-adv-x="530" 
d="M228 590q80 50 140 143l36 -38q-62 -81 -159 -132zM266 -12q-99 0 -157.5 63.5t-58.5 188.5q0 126 58.5 189.5t157.5 63.5t157 -63.5t58 -189.5q0 -125 -58 -188.5t-157 -63.5zM266 34q77 0 119 52t42 154t-42 154.5t-119 52.5q-78 0 -120 -52.5t-42 -154.5t42 -154
t120 -52z" />
    <glyph glyph-name="ocircumflex" unicode="&#xf4;" horiz-adv-x="530" 
d="M241 724h49q49 -89 115 -144l-20 -22q-73 50 -118 123h-4q-43 -72 -117 -123l-20 22q66 55 115 144zM266 -12q-99 0 -157.5 63.5t-58.5 188.5q0 126 58.5 189.5t157.5 63.5t157 -63.5t58 -189.5q0 -125 -58 -188.5t-157 -63.5zM266 34q77 0 119 52t42 154t-42 154.5
t-119 52.5q-78 0 -120 -52.5t-42 -154.5t42 -154t120 -52z" />
    <glyph glyph-name="otilde" unicode="&#xf5;" horiz-adv-x="530" 
d="M330 574q-26 0 -49.5 20t-43.5 39.5t-37 19.5q-24 0 -33.5 -17.5t-4.5 -47.5l-52 3q21 100 91 100q26 0 49 -19.5t43 -39t38 -19.5q23 0 33 17.5t5 46.5l51 -3q-21 -100 -90 -100zM266 -12q-99 0 -157.5 63.5t-58.5 188.5q0 126 58.5 189.5t157.5 63.5t157 -63.5
t58 -189.5q0 -125 -58 -188.5t-157 -63.5zM266 34q77 0 119 52t42 154t-42 154.5t-119 52.5q-78 0 -120 -52.5t-42 -154.5t42 -154t120 -52z" />
    <glyph glyph-name="odieresis" unicode="&#xf6;" horiz-adv-x="530" 
d="M202 582q-17 0 -28.5 11t-11.5 28t11.5 28t28.5 11q16 0 27.5 -11t11.5 -28t-11.5 -28t-27.5 -11zM332 582q-16 0 -27.5 11t-11.5 28t11.5 28t27.5 11q17 0 28.5 -11t11.5 -28t-11.5 -28t-28.5 -11zM266 -12q-99 0 -157.5 63.5t-58.5 188.5q0 126 58.5 189.5t157.5 63.5
t157 -63.5t58 -189.5q0 -125 -58 -188.5t-157 -63.5zM266 34q77 0 119 52t42 154t-42 154.5t-119 52.5q-78 0 -120 -52.5t-42 -154.5t42 -154t120 -52z" />
    <glyph glyph-name="divide" unicode="&#xf7;" horiz-adv-x="429" 
d="M215 336q-22 0 -36 13t-14 34q0 23 14 36.5t36 13.5q21 0 35 -13.5t14 -36.5q0 -21 -14 -34t-35 -13zM40 298q21 -10 83 -10h184q61 0 82 10l-1 -70q-24 10 -81 10h-184q-58 0 -82 -10zM215 92q-22 0 -36 13t-14 35q0 23 14 36.5t36 13.5q21 0 35 -13.5t14 -36.5
q0 -21 -14 -34.5t-35 -13.5z" />
    <glyph glyph-name="oslash" unicode="&#xf8;" horiz-adv-x="533" 
d="M481 476l-50 -61q47 -64 47 -175q0 -125 -58 -188.5t-157 -63.5q-87 0 -142 48l-43 -52l-29 22l47 57q-49 65 -49 177q0 126 58.5 189.5t157.5 63.5q90 0 144 -51l46 56zM101 240q0 -85 29 -135l245 298q-41 44 -112 44q-78 0 -120 -52.5t-42 -154.5zM424 240
q0 80 -28 133l-243 -298q41 -41 110 -41q77 0 119 52t42 154z" />
    <glyph glyph-name="ugrave" unicode="&#xf9;" horiz-adv-x="532" 
d="M295 591l-14 -30q-98 47 -165 129l34 41q62 -89 145 -140zM227 -12q-145 0 -145 190v196q0 79 -14 107h66v-303q0 -145 100 -145q44 0 85 28t71 81v232q0 78 -12 107h63v-374q0 -76 13 -107h-66q0 48 5 80h-5q-24 -42 -66.5 -67t-94.5 -25z" />
    <glyph glyph-name="uacute" unicode="&#xfa;" horiz-adv-x="532" 
d="M216 585q80 50 140 143l36 -38q-62 -81 -159 -132zM227 -12q-145 0 -145 190v196q0 79 -14 107h66v-303q0 -145 100 -145q44 0 85 28t71 81v232q0 78 -12 107h63v-374q0 -76 13 -107h-66q0 48 5 80h-5q-24 -42 -66.5 -67t-94.5 -25z" />
    <glyph glyph-name="ucircumflex" unicode="&#xfb;" horiz-adv-x="532" 
d="M229 719h49q49 -89 115 -144l-20 -22q-73 50 -118 123h-4q-43 -72 -117 -123l-20 22q66 55 115 144zM227 -12q-145 0 -145 190v196q0 79 -14 107h66v-303q0 -145 100 -145q44 0 85 28t71 81v232q0 78 -12 107h63v-374q0 -76 13 -107h-66q0 48 5 80h-5q-24 -42 -66.5 -67
t-94.5 -25z" />
    <glyph glyph-name="udieresis" unicode="&#xfc;" horiz-adv-x="532" 
d="M190 577q-17 0 -28.5 11t-11.5 28t11.5 28t28.5 11q16 0 27.5 -11.5t11.5 -27.5t-11.5 -27.5t-27.5 -11.5zM320 577q-16 0 -27.5 11.5t-11.5 27.5t11.5 27.5t27.5 11.5q17 0 28.5 -11t11.5 -28t-11.5 -28t-28.5 -11zM227 -12q-145 0 -145 190v196q0 79 -14 107h66v-303
q0 -145 100 -145q44 0 85 28t71 81v232q0 78 -12 107h63v-374q0 -76 13 -107h-66q0 48 5 80h-5q-24 -42 -66.5 -67t-94.5 -25z" />
    <glyph glyph-name="yacute" unicode="&#xfd;" horiz-adv-x="450" 
d="M200 585q80 50 140 143l36 -38q-62 -81 -159 -132zM80 -200q-8 0 -26 2t-27 1l14 67q15 -25 45 -25q81 0 120 121l12 34h-8l-151 376q-33 79 -54 105h81q-4 -30 20 -90l131 -334h2l114 334q21 61 15 90h77q-20 -28 -48 -105l-147 -423q-53 -153 -170 -153z" />
    <glyph glyph-name="thorn" unicode="&#xfe;" horiz-adv-x="539" 
d="M141 50v-143q0 -81 10 -107h-71q10 27 10 107v704q0 80 -10 107h72q-11 -30 -11 -107v-189q59 71 152 71q95 0 146 -65.5t51 -183.5q0 -122 -52 -189t-146 -67q-91 0 -151 62zM288 34q73 0 111 55.5t38 153.5q0 95 -38 149.5t-111 54.5q-40 0 -79.5 -21t-67.5 -60v-253
q29 -38 68 -58.5t79 -20.5z" />
    <glyph glyph-name="ydieresis" unicode="&#xff;" horiz-adv-x="450" 
d="M174 577q-17 0 -28.5 11t-11.5 28t11.5 28t28.5 11q16 0 27.5 -11.5t11.5 -27.5t-11.5 -27.5t-27.5 -11.5zM304 577q-16 0 -27.5 11.5t-11.5 27.5t11.5 27.5t27.5 11.5q17 0 28.5 -11t11.5 -28t-11.5 -28t-28.5 -11zM80 -200q-8 0 -26 2t-27 1l14 67q15 -25 45 -25
q81 0 120 121l12 34h-8l-151 376q-33 79 -54 105h81q-4 -30 20 -90l131 -334h2l114 334q21 61 15 90h77q-20 -28 -48 -105l-147 -423q-53 -153 -170 -153z" />
    <glyph glyph-name="Amacron" unicode="&#x100;" horiz-adv-x="566" 
d="M174 786h218v-41h-218v41zM244 658h78q-3 -23 23 -95l155 -446q29 -85 53 -117h-86q9 25 -19 111l-34 102l-264 -1l-34 -101q-28 -85 -18 -111h-85q21 28 53 117l155 446q24 75 23 95zM165 257h234l-116 347h-3z" />
    <glyph glyph-name="amacron" unicode="&#x101;" horiz-adv-x="489" 
d="M136 634h218v-41h-218v41zM206 -12q-69 0 -110 35.5t-41 102.5q0 144 228 144h76v42q0 67 -27.5 101t-90.5 34q-44 0 -82.5 -17.5t-56.5 -42.5l-27 59q7 1 64.5 24t102.5 23q169 0 169 -180v-194q0 -90 14 -119h-64l2 76h-5q-21 -37 -63 -62.5t-89 -25.5zM208 32
q43 0 83.5 28t67.5 77v89h-76q-174 0 -174 -100q0 -45 27 -69.5t72 -24.5z" />
    <glyph glyph-name="Abreve" unicode="&#x102;" horiz-adv-x="566" 
d="M283 716q-116 0 -112 142h33q0 -46 19.5 -75t59.5 -29t59 29t19 75h33q2 -62 -23.5 -102t-87.5 -40zM244 658h78q-3 -23 23 -95l155 -446q29 -85 53 -117h-86q9 25 -19 111l-34 102l-264 -1l-34 -101q-28 -85 -18 -111h-85q21 28 53 117l155 446q24 75 23 95zM165 257
h234l-116 347h-3z" />
    <glyph glyph-name="abreve" unicode="&#x103;" horiz-adv-x="489" 
d="M244 564q-116 0 -112 142h33q0 -46 19.5 -75t59.5 -29t59 29t19 75h33q2 -62 -23.5 -102t-87.5 -40zM206 -12q-69 0 -110 35.5t-41 102.5q0 144 228 144h76v42q0 67 -27.5 101t-90.5 34q-44 0 -82.5 -17.5t-56.5 -42.5l-27 59q7 1 64.5 24t102.5 23q169 0 169 -180v-194
q0 -90 14 -119h-64l2 76h-5q-21 -37 -63 -62.5t-89 -25.5zM208 32q43 0 83.5 28t67.5 77v89h-76q-174 0 -174 -100q0 -45 27 -69.5t72 -24.5z" />
    <glyph glyph-name="Aogonek" unicode="&#x104;" horiz-adv-x="566" 
d="M547 -128l18 -36q-26 -20 -62 -20q-35 0 -57 17.5t-22 53.5q0 32 23 63t59 50h-39q9 25 -19 111l-34 102l-264 -1l-34 -101q-28 -85 -18 -111h-85q21 28 53 117l155 446q24 75 23 95h78q-3 -23 23 -95l155 -446q29 -85 53 -117q-39 -20 -63 -49t-24 -59q0 -20 12 -30.5
t30 -10.5q24 0 39 21zM165 257h234l-116 347h-3z" />
    <glyph glyph-name="aogonek" unicode="&#x105;" horiz-adv-x="489" 
d="M418 -128l18 -36q-26 -20 -62 -20q-35 0 -57 17.5t-22 53.5q0 32 23 63t59 50h-16l2 76h-5q-21 -37 -63 -62.5t-89 -25.5q-69 0 -110 35.5t-41 102.5q0 144 228 144h76v42q0 67 -27.5 101t-90.5 34q-44 0 -82.5 -17.5t-56.5 -42.5l-27 59q7 1 64.5 24t102.5 23
q169 0 169 -180v-194q0 -90 14 -119h-1q-39 -20 -63 -49t-24 -59q0 -20 12 -30.5t30 -10.5q24 0 39 21zM359 137v89h-76q-174 0 -174 -100q0 -45 27 -69.5t72 -24.5q43 0 83.5 28t67.5 77z" />
    <glyph glyph-name="Cacute" unicode="&#x106;" horiz-adv-x="558" 
d="M283 742q80 50 140 143l36 -38q-62 -81 -159 -132zM325 -12q-271 0 -271 342q0 340 267 340q15 0 31 -1.5t28.5 -4t27.5 -7t24.5 -7.5t23.5 -9t19.5 -8.5t18 -8.5t14.5 -7l-31 -65q-18 29 -61 50t-94 21q-213 0 -213 -292q0 -296 217 -296q58 0 103 19t66 47l25 -67
q-2 -1 -34 -13t-48 -16.5t-49 -10.5t-64 -6z" />
    <glyph glyph-name="cacute" unicode="&#x107;" horiz-adv-x="455" 
d="M220 590q80 50 140 143l36 -38q-62 -81 -159 -132zM262 -12q-212 0 -212 252q0 132 58 192.5t154 60.5q22 0 46 -5t35 -9t35 -15l25 -11l-27 -60q-42 54 -114 54q-158 0 -158 -207q0 -206 158 -206q86 0 129 55l27 -59l-28 -11q-27 -11 -40.5 -15.5t-39.5 -10t-48 -5.5z
" />
    <glyph glyph-name="Cdotaccent" unicode="&#x10a;" horiz-adv-x="558" 
d="M321 724q-41 0 -41 43q0 42 41 42t41 -42q0 -43 -41 -43zM325 -12q-271 0 -271 342q0 340 267 340q15 0 31 -1.5t28.5 -4t27.5 -7t24.5 -7.5t23.5 -9t19.5 -8.5t18 -8.5t14.5 -7l-31 -65q-18 29 -61 50t-94 21q-213 0 -213 -292q0 -296 217 -296q58 0 103 19t66 47
l25 -67q-2 -1 -34 -13t-48 -16.5t-49 -10.5t-64 -6z" />
    <glyph glyph-name="cdotaccent" unicode="&#x10b;" horiz-adv-x="455" 
d="M257 572q-41 0 -41 43q0 42 41 42t41 -42q0 -43 -41 -43zM262 -12q-212 0 -212 252q0 132 58 192.5t154 60.5q22 0 46 -5t35 -9t35 -15l25 -11l-27 -60q-42 54 -114 54q-158 0 -158 -207q0 -206 158 -206q86 0 129 55l27 -59l-28 -11q-27 -11 -40.5 -15.5t-39.5 -10
t-48 -5.5z" />
    <glyph glyph-name="Ccaron" unicode="&#x10c;" horiz-adv-x="558" 
d="M296 713q-45 84 -116 144l22 22q72 -51 117 -123h4q45 72 117 123l22 -22q-67 -57 -116 -144h-50zM325 -12q-271 0 -271 342q0 340 267 340q15 0 31 -1.5t28.5 -4t27.5 -7t24.5 -7.5t23.5 -9t19.5 -8.5t18 -8.5t14.5 -7l-31 -65q-18 29 -61 50t-94 21q-213 0 -213 -292
q0 -296 217 -296q58 0 103 19t66 47l25 -67q-2 -1 -34 -13t-48 -16.5t-49 -10.5t-64 -6z" />
    <glyph glyph-name="ccaron" unicode="&#x10d;" horiz-adv-x="455" 
d="M232 561q-45 84 -116 144l22 22q72 -51 117 -123h4q45 72 117 123l22 -22q-67 -57 -116 -144h-50zM262 -12q-212 0 -212 252q0 132 58 192.5t154 60.5q22 0 46 -5t35 -9t35 -15l25 -11l-27 -60q-42 54 -114 54q-158 0 -158 -207q0 -206 158 -206q86 0 129 55l27 -59
l-28 -11q-27 -11 -40.5 -15.5t-39.5 -10t-48 -5.5z" />
    <glyph glyph-name="Dcaron" unicode="&#x10e;" horiz-adv-x="608" 
d="M262 713q-45 84 -116 144l22 22q72 -51 117 -123h4q45 72 117 123l22 -22q-67 -57 -116 -144h-50zM82 658h159q162 0 237.5 -77.5t75.5 -248.5q0 -173 -75.5 -252.5t-236.5 -79.5h-160q16 27 16 107v444q0 80 -16 107zM236 46q139 0 201 67.5t62 218.5q0 149 -62 214.5
t-201 65.5h-85v-566h85z" />
    <glyph glyph-name="dcaron" unicode="&#x10f;" horiz-adv-x="555" 
d="M256 -12q-93 0 -147 65t-54 187q0 121 55 187t148 66q90 0 146 -61v179q0 80 -11 107h71q-9 -28 -9 -107v-504q0 -80 11 -107h-61l2 54h-4q-56 -66 -147 -66zM531 541l-12 176h58l-13 -176h-33zM261 34q39 0 78.5 22.5t64.5 62.5v250q-57 78 -142 78q-71 0 -112 -55
t-41 -151q0 -98 40 -152.5t112 -54.5z" />
    <glyph glyph-name="Dcroat" unicode="&#x110;" horiz-adv-x="608" 
d="M241 658q162 0 237.5 -77.5t75.5 -248.5q0 -173 -75.5 -252.5t-236.5 -79.5h-160q16 27 16 107v219h-66v36h66v189q0 80 -16 107h159zM236 46q139 0 201 67.5t62 218.5q0 149 -62 214.5t-201 65.5h-85v-250h193v-36h-193v-280h85z" />
    <glyph glyph-name="dcroat" unicode="&#x111;" horiz-adv-x="555" 
d="M526 555h-71v-448q0 -80 11 -107h-61l2 54h-4q-56 -66 -147 -66q-93 0 -147 65t-54 187q0 121 55 187t148 66q90 0 146 -61v123h-95v41h95v15q0 80 -11 107h71q-9 -28 -9 -107v-15h71v-41zM404 119v250q-57 78 -142 78q-71 0 -112 -55t-41 -151q0 -98 40 -152.5
t112 -54.5q39 0 78.5 22.5t64.5 62.5z" />
    <glyph glyph-name="Emacron" unicode="&#x112;" horiz-adv-x="511" 
d="M166 786h218v-41h-218v41zM82 658h205q125 0 162 6v-65q-30 13 -162 13h-139v-240h112q119 0 143 11v-69q-24 11 -143 11h-112v-279h149q136 0 166 13v-65q-37 6 -166 6h-215q15 28 15 107v444q0 79 -15 107z" />
    <glyph glyph-name="emacron" unicode="&#x113;" horiz-adv-x="501" 
d="M148 634h218v-41h-218v41zM270 -12q-220 0 -220 252q0 129 56.5 191t150.5 62q89 0 138 -58t49 -161q0 -22 -2 -40h-338q1 -105 42 -152.5t128 -47.5q91 0 138 53l21 -59q-89 -40 -163 -40zM392 277q0 81 -35.5 125.5t-99.5 44.5q-69 0 -108.5 -44.5t-44.5 -125.5h288z
" />
    <glyph glyph-name="Edotaccent" unicode="&#x116;" horiz-adv-x="511" 
d="M274 724q-41 0 -41 43q0 42 41 42t41 -42q0 -43 -41 -43zM82 658h205q125 0 162 6v-65q-30 13 -162 13h-139v-240h112q119 0 143 11v-69q-24 11 -143 11h-112v-279h149q136 0 166 13v-65q-37 6 -166 6h-215q15 28 15 107v444q0 79 -15 107z" />
    <glyph glyph-name="edotaccent" unicode="&#x117;" horiz-adv-x="501" 
d="M256 572q-41 0 -41 43q0 42 41 42t41 -42q0 -43 -41 -43zM270 -12q-220 0 -220 252q0 129 56.5 191t150.5 62q89 0 138 -58t49 -161q0 -22 -2 -40h-338q1 -105 42 -152.5t128 -47.5q91 0 138 53l21 -59q-89 -40 -163 -40zM392 277q0 81 -35.5 125.5t-99.5 44.5
q-69 0 -108.5 -44.5t-44.5 -125.5h288z" />
    <glyph glyph-name="Eogonek" unicode="&#x118;" horiz-adv-x="511" 
d="M458 -134l18 -36q-26 -20 -62 -20q-35 0 -57 17.5t-22 53.5q0 34 25 66t64 51q-50 2 -127 2h-215q15 28 15 107v444q0 79 -15 107h205q125 0 162 6v-65q-30 13 -162 13h-139v-240h112q119 0 143 11v-69q-24 11 -143 11h-112v-279h149q136 0 166 13v-65h1q-39 -20 -63 -49
t-24 -59q0 -20 12 -30.5t30 -10.5q24 0 39 21z" />
    <glyph glyph-name="eogonek" unicode="&#x119;" horiz-adv-x="501" 
d="M428 -100l18 -36q-26 -20 -62 -20q-35 0 -57 17.5t-22 53.5q0 43 39 82q-41 -9 -74 -9q-220 0 -220 252q0 129 56.5 191t150.5 62q89 0 138 -58t49 -161q0 -22 -2 -40h-338q1 -105 42 -152.5t128 -47.5q91 0 138 53l21 -59h1q-39 -20 -63 -49t-24 -59q0 -20 12 -30.5
t30 -10.5q24 0 39 21zM257 447q-69 0 -108.5 -44.5t-44.5 -125.5h288q0 81 -35.5 125.5t-99.5 44.5z" />
    <glyph glyph-name="Ecaron" unicode="&#x11a;" horiz-adv-x="511" 
d="M249 713q-45 84 -116 144l22 22q72 -51 117 -123h4q45 72 117 123l22 -22q-67 -57 -116 -144h-50zM82 658h205q125 0 162 6v-65q-30 13 -162 13h-139v-240h112q119 0 143 11v-69q-24 11 -143 11h-112v-279h149q136 0 166 13v-65q-37 6 -166 6h-215q15 28 15 107v444
q0 79 -15 107z" />
    <glyph glyph-name="ecaron" unicode="&#x11b;" horiz-adv-x="501" 
d="M231 561q-45 84 -116 144l22 22q72 -51 117 -123h4q45 72 117 123l22 -22q-67 -57 -116 -144h-50zM270 -12q-220 0 -220 252q0 129 56.5 191t150.5 62q89 0 138 -58t49 -161q0 -22 -2 -40h-338q1 -105 42 -152.5t128 -47.5q91 0 138 53l21 -59q-89 -40 -163 -40zM392 277
q0 81 -35.5 125.5t-99.5 44.5q-69 0 -108.5 -44.5t-44.5 -125.5h288z" />
    <glyph glyph-name="Gbreve" unicode="&#x11e;" horiz-adv-x="600" 
d="M317 716q-116 0 -112 142h33q0 -46 19.5 -75t59.5 -29t59 29t19 75h33q2 -62 -23.5 -102t-87.5 -40zM329 -12q-130 0 -202.5 79t-72.5 263t72.5 262t200.5 78q96 0 189 -60l-34 -58q-42 70 -155 70q-105 0 -161.5 -64.5t-56.5 -226.5q0 -163 56.5 -229t163.5 -66
q99 0 149 47v191h-45q-78 0 -111 -10v65q34 -6 111 -6h103q-8 -27 -8 -116v-49q0 -80 5 -105q-104 -65 -204 -65z" />
    <glyph glyph-name="gbreve" unicode="&#x11f;" horiz-adv-x="486" 
d="M238 559q-116 0 -112 142h33q0 -46 19.5 -75t59.5 -29t59 29t19 75h33q2 -62 -23.5 -102t-87.5 -40zM262 65q105 0 152.5 -32t47.5 -97q0 -136 -217 -136q-95 0 -146.5 33.5t-51.5 98.5q0 39 24 70.5t62 48.5q-20 20 -20 57q0 39 31 68q-80 42 -80 147q0 81 47.5 125.5
t124.5 44.5q38 0 64 -12h66q61 0 95 7v-62q-35 16 -103 16v-3q48 -48 48 -117q0 -79 -47 -123.5t-123 -44.5q-31 0 -53 7q-24 -17 -24 -48q0 -28 21.5 -38t81.5 -10zM236 450q-53 0 -87 -31.5t-34 -95.5t34.5 -96t86.5 -32t86.5 32t34.5 96q0 58 -35 92.5t-86 34.5z
M246 -157q165 0 165 93q0 41 -34.5 61t-114.5 20q-64 0 -96 12q-69 -36 -69 -97q0 -89 149 -89z" />
    <glyph glyph-name="Gdotaccent" unicode="&#x120;" horiz-adv-x="600" 
d="M317 724q-41 0 -41 43q0 42 41 42t41 -42q0 -43 -41 -43zM329 -12q-130 0 -202.5 79t-72.5 263t72.5 262t200.5 78q96 0 189 -60l-34 -58q-42 70 -155 70q-105 0 -161.5 -64.5t-56.5 -226.5q0 -163 56.5 -229t163.5 -66q99 0 149 47v191h-45q-78 0 -111 -10v65
q34 -6 111 -6h103q-8 -27 -8 -116v-49q0 -80 5 -105q-104 -65 -204 -65z" />
    <glyph glyph-name="gdotaccent" unicode="&#x121;" horiz-adv-x="486" 
d="M237 567q-41 0 -41 43q0 42 41 42t41 -42q0 -43 -41 -43zM262 65q105 0 152.5 -32t47.5 -97q0 -136 -217 -136q-95 0 -146.5 33.5t-51.5 98.5q0 39 24 70.5t62 48.5q-20 20 -20 57q0 39 31 68q-80 42 -80 147q0 81 47.5 125.5t124.5 44.5q38 0 64 -12h66q61 0 95 7v-62
q-35 16 -103 16v-3q48 -48 48 -117q0 -79 -47 -123.5t-123 -44.5q-31 0 -53 7q-24 -17 -24 -48q0 -28 21.5 -38t81.5 -10zM236 450q-53 0 -87 -31.5t-34 -95.5t34.5 -96t86.5 -32t86.5 32t34.5 96q0 58 -35 92.5t-86 34.5zM246 -157q165 0 165 93q0 41 -34.5 61t-114.5 20
q-64 0 -96 12q-69 -36 -69 -97q0 -89 149 -89z" />
    <glyph glyph-name="uni0122" unicode="&#x122;" horiz-adv-x="600" 
d="M329 -12q-130 0 -202.5 79t-72.5 263t72.5 262t200.5 78q96 0 189 -60l-34 -58q-42 70 -155 70q-105 0 -161.5 -64.5t-56.5 -226.5q0 -163 56.5 -229t163.5 -66q99 0 149 47v191h-45q-78 0 -111 -10v65q34 -6 111 -6h103q-8 -27 -8 -116v-49q0 -80 5 -105
q-104 -65 -204 -65zM326 -47q44 0 44 -57q0 -35 -19.5 -67t-56.5 -47l-12 21q50 23 54 76q-4 -2 -10 -2q-13 0 -24 10t-11 27q0 19 10 29t25 10z" />
    <glyph glyph-name="uni0123" unicode="&#x123;" horiz-adv-x="486" 
d="M237 545q-20 0 -32.5 15t-12.5 40q0 36 20.5 67.5t57.5 46.5l11 -18q-47 -24 -53 -75q3 1 10 1q15 0 26 -10t11 -28t-10.5 -28.5t-27.5 -10.5zM262 65q105 0 152.5 -32t47.5 -97q0 -136 -217 -136q-95 0 -146.5 33.5t-51.5 98.5q0 39 24 70.5t62 48.5q-20 20 -20 57
q0 39 31 68q-80 42 -80 147q0 81 47.5 125.5t124.5 44.5q38 0 64 -12h66q61 0 95 7v-62q-35 16 -103 16v-3q48 -48 48 -117q0 -79 -47 -123.5t-123 -44.5q-31 0 -53 7q-24 -17 -24 -48q0 -28 21.5 -38t81.5 -10zM236 450q-53 0 -87 -31.5t-34 -95.5t34.5 -96t86.5 -32
t86.5 32t34.5 96q0 58 -35 92.5t-86 34.5zM246 -157q165 0 165 93q0 41 -34.5 61t-114.5 20q-64 0 -96 12q-69 -36 -69 -97q0 -89 149 -89z" />
    <glyph glyph-name="Hbar" unicode="&#x126;" horiz-adv-x="640" 
d="M603 486h-60v-379q0 -78 15 -107h-83q15 29 15 107v219h-340v-219q0 -78 15 -107h-83q15 27 15 107v379h-59v40h59v25q0 80 -15 107h83q-15 -29 -15 -107v-25h340v25q0 78 -15 107h83q-15 -29 -15 -107v-25h60v-40zM490 373v113h-340v-113h340z" />
    <glyph glyph-name="hbar" unicode="&#x127;" horiz-adv-x="532" 
d="M388 0q12 26 12 107v201q0 75 -26 107.5t-78 32.5q-85 0 -155 -98v-243q0 -81 13 -107h-76q12 26 12 107v452h-76v41h76v11q0 81 -12 107h74q-11 -27 -11 -107v-11h121v-41h-121v-104q0 -37 -3 -49h4q27 38 69.5 62.5t89.5 24.5q150 0 150 -185v-201q0 -81 13 -107h-76z
" />
    <glyph glyph-name="Imacron" unicode="&#x12a;" horiz-adv-x="260" 
d="M23 786h218v-41h-218v41zM157 107q0 -80 15 -107h-84q16 28 16 107v444q0 79 -16 107h84q-15 -27 -15 -107v-444z" />
    <glyph glyph-name="imacron" unicode="&#x12b;" horiz-adv-x="224" 
d="M4 634h218v-41h-218v41zM78 0q9 33 9 107v267q0 74 -9 107h67q-7 -36 -7 -107v-267q0 -72 8 -107h-68z" />
    <glyph glyph-name="Iogonek" unicode="&#x12e;" horiz-adv-x="260" 
d="M166 -128l18 -36q-26 -20 -62 -20q-35 0 -57 17.5t-22 53.5q0 32 23 63t59 50h-37q16 28 16 107v444q0 79 -16 107h84q-15 -27 -15 -107v-444q0 -80 15 -107q-39 -20 -63 -49t-24 -59q0 -20 12 -30.5t30 -10.5q24 0 39 21z" />
    <glyph glyph-name="iogonek" unicode="&#x12f;" horiz-adv-x="238" 
d="M119 589q-41 0 -41 43q0 41 41 41t41 -41q0 -43 -41 -43zM148 -128l18 -36q-26 -20 -62 -20q-35 0 -57 17.5t-22 53.5q0 32 23 63t59 50h-27q12 26 12 107v267q0 81 -12 107h73q-10 -27 -10 -107v-267q0 -81 13 -107h-2q-39 -20 -63 -49t-24 -59q0 -20 12 -30.5t30 -10.5
q24 0 39 21z" />
    <glyph glyph-name="Idotaccent" unicode="&#x130;" horiz-adv-x="260" 
d="M131 724q-41 0 -41 43q0 42 41 42t41 -42q0 -43 -41 -43zM157 107q0 -80 15 -107h-84q16 28 16 107v444q0 79 -16 107h84q-15 -27 -15 -107v-444z" />
    <glyph glyph-name="dotlessi" unicode="&#x131;" horiz-adv-x="224" 
d="M78 0q9 33 9 107v267q0 74 -9 107h67q-7 -36 -7 -107v-267q0 -72 8 -107h-68z" />
    <glyph glyph-name="uni0136" unicode="&#x136;" horiz-adv-x="576" 
d="M82 658h83q-15 -29 -15 -107v-255h2l247 288q39 46 47 74h93l-14 -10t-14.5 -12t-11.5 -11t-13 -14t-11.5 -12.5t-13.5 -15t-13 -14.5l-137 -161l172 -289q37 -62 85 -119h-91q-3 33 -40 95l-161 272l-126 -146v-114q0 -78 15 -107h-83q15 27 15 107v444q0 80 -15 107z
M301 -47q44 0 44 -57q0 -35 -19.5 -67t-56.5 -47l-12 21q50 23 54 76q-4 -2 -10 -2q-13 0 -24 10t-11 27q0 19 10 29t25 10z" />
    <glyph glyph-name="uni0137" unicode="&#x137;" horiz-adv-x="469" 
d="M78 718h74q-11 -27 -11 -107v-376q0 -11 -3 -41h4l174 215q37 46 41 72h89q-34 -25 -94 -97l-79 -96l124 -189q41 -66 77 -99h-88q-4 33 -38 84l-106 165l-101 -120v-22q0 -81 13 -107h-76q12 26 12 107v504q0 81 -12 107zM260 -47q44 0 44 -57q0 -35 -19.5 -67
t-56.5 -47l-12 21q50 23 54 76q-4 -2 -10 -2q-13 0 -24 10t-11 27q0 19 10 29t25 10z" />
    <glyph glyph-name="Lacute" unicode="&#x139;" horiz-adv-x="462" 
d="M92 742q80 50 140 143l36 -38q-62 -81 -159 -132zM82 658h83q-15 -29 -15 -107v-506h140q119 0 149 15v-66q-36 6 -149 6h-208q15 27 15 107v444q0 80 -15 107z" />
    <glyph glyph-name="lacute" unicode="&#x13a;" horiz-adv-x="232" 
d="M78 801q80 50 140 143l36 -38q-62 -81 -159 -132zM78 0q12 26 12 107v504q0 81 -12 107h74q-11 -27 -11 -107v-504q0 -81 13 -107h-76z" />
    <glyph glyph-name="uni013B" unicode="&#x13b;" horiz-adv-x="462" 
d="M82 658h83q-15 -29 -15 -107v-506h140q119 0 149 15v-66q-36 6 -149 6h-208q15 27 15 107v444q0 80 -15 107zM271 -47q44 0 44 -57q0 -35 -19.5 -67t-56.5 -47l-12 21q50 23 54 76q-4 -2 -10 -2q-13 0 -24 10t-11 27q0 19 10 29t25 10z" />
    <glyph glyph-name="uni013C" unicode="&#x13c;" horiz-adv-x="232" 
d="M78 0q12 26 12 107v504q0 81 -12 107h74q-11 -27 -11 -107v-504q0 -81 13 -107h-76zM117 -47q44 0 44 -57q0 -35 -19.5 -67t-56.5 -47l-12 21q50 23 54 76q-4 -2 -10 -2q-13 0 -24 10t-11 27q0 19 10 29t25 10z" />
    <glyph glyph-name="Lcaron" unicode="&#x13d;" horiz-adv-x="486" 
d="M82 658h83q-15 -29 -15 -107v-506h140q119 0 149 15v-66q-36 6 -149 6h-208q15 27 15 107v444q0 80 -15 107zM296 467l-10 188h51l-10 -188h-31z" />
    <glyph glyph-name="lcaron" unicode="&#x13e;" horiz-adv-x="232" 
d="M90 772q-45 84 -116 144l22 22q72 -51 117 -123h4q45 72 117 123l22 -22q-67 -57 -116 -144h-50zM78 0q12 26 12 107v504q0 81 -12 107h74q-11 -27 -11 -107v-504q0 -81 13 -107h-76z" />
    <glyph glyph-name="Lslash" unicode="&#x141;" horiz-adv-x="462" 
d="M290 45q119 0 149 15v-66q-36 6 -149 6h-208q15 27 15 107v210l-62 -11l-7 37l69 13v195q0 80 -15 107h83q-15 -29 -15 -107v-186l93 17l7 -37l-100 -18v-282h140z" />
    <glyph glyph-name="lslash" unicode="&#x142;" horiz-adv-x="235" 
d="M141 337v-230q0 -81 13 -107h-76q12 26 12 107v219l-60 -12l-8 40l68 14v243q0 81 -12 107h74q-11 -27 -11 -107v-233l63 13l7 -40z" />
    <glyph glyph-name="Nacute" unicode="&#x143;" horiz-adv-x="642" 
d="M288 742q80 50 140 143l36 -38q-62 -81 -159 -132zM82 658h77l339 -565h3q-7 54 -7 128v330q0 80 -15 107h81q-15 -29 -15 -107v-434q0 -81 11 -117h-61l-351 584h-4q8 -46 8 -124v-353q0 -78 15 -107h-81q15 29 15 107v444q0 79 -15 107z" />
    <glyph glyph-name="nacute" unicode="&#x144;" horiz-adv-x="532" 
d="M233 590q80 50 140 143l36 -38q-62 -81 -159 -132zM78 486h61q0 -55 -1 -78h3q27 35 70 60t92 25q148 0 148 -182v-192q0 -89 13 -119h-76q12 30 12 119v192q0 71 -26 104t-79 33q-86 0 -154 -96v-233q0 -88 11 -119h-74q12 30 12 119v248q0 89 -12 119z" />
    <glyph glyph-name="uni0145" unicode="&#x145;" horiz-adv-x="642" 
d="M82 658h77l339 -565h3q-7 54 -7 128v330q0 80 -15 107h81q-15 -29 -15 -107v-434q0 -81 11 -117h-61l-351 584h-4q8 -46 8 -124v-353q0 -78 15 -107h-81q15 29 15 107v444q0 79 -15 107zM315 -47q44 0 44 -57q0 -35 -19.5 -67t-56.5 -47l-12 21q50 23 54 76q-4 -2 -10 -2
q-13 0 -24 10t-11 27q0 19 10 29t25 10z" />
    <glyph glyph-name="uni0146" unicode="&#x146;" horiz-adv-x="532" 
d="M78 486h61q0 -55 -1 -78h3q27 35 70 60t92 25q148 0 148 -182v-192q0 -89 13 -119h-76q12 30 12 119v192q0 71 -26 104t-79 33q-86 0 -154 -96v-233q0 -88 11 -119h-74q12 30 12 119v248q0 89 -12 119zM272 -47q44 0 44 -57q0 -35 -19.5 -67t-56.5 -47l-12 21
q50 23 54 76q-4 -2 -10 -2q-13 0 -24 10t-11 27q0 19 10 29t25 10z" />
    <glyph glyph-name="Ncaron" unicode="&#x147;" horiz-adv-x="642" 
d="M301 713q-45 84 -116 144l22 22q72 -51 117 -123h4q45 72 117 123l22 -22q-67 -57 -116 -144h-50zM82 658h77l339 -565h3q-7 54 -7 128v330q0 80 -15 107h81q-15 -29 -15 -107v-434q0 -81 11 -117h-61l-351 584h-4q8 -46 8 -124v-353q0 -78 15 -107h-81q15 29 15 107v444
q0 79 -15 107z" />
    <glyph glyph-name="ncaron" unicode="&#x148;" horiz-adv-x="532" 
d="M245 561q-45 84 -116 144l22 22q72 -51 117 -123h4q45 72 117 123l22 -22q-67 -57 -116 -144h-50zM78 486h61q0 -55 -1 -78h3q27 35 70 60t92 25q148 0 148 -182v-192q0 -89 13 -119h-76q12 30 12 119v192q0 71 -26 104t-79 33q-86 0 -154 -96v-233q0 -88 11 -119h-74
q12 30 12 119v248q0 89 -12 119z" />
    <glyph glyph-name="Eng" unicode="&#x14a;" horiz-adv-x="646" 
d="M479 658h81q-15 -29 -15 -107v-607q0 -144 -111 -144q-11 0 -34.5 3t-31.5 2l14 61q17 -22 49 -22q37 0 51 26t14 76v54h-1l-351 585h-3q7 -82 7 -147v-331q0 -78 15 -107h-81q15 29 15 107v444q0 79 -15 107h77l339 -566h3q-7 86 -7 151v308q0 80 -15 107z" />
    <glyph glyph-name="eng" unicode="&#x14b;" horiz-adv-x="532" 
d="M80 486h57l1 -80h2q30 39 73 63t91 24q147 0 147 -190v-318q0 -75 -27 -111t-85 -36q-18 0 -63 9l12 57q16 -22 49 -22q37 0 50 26t13 77v318q0 75 -25 110t-77 35q-85 0 -157 -97v-232q0 -88 11 -119h-72q10 31 10 119v248q0 88 -10 119z" />
    <glyph glyph-name="Omacron" unicode="&#x14c;" horiz-adv-x="650" 
d="M218 786h218v-41h-218v41zM325 -12q-122 0 -196.5 86.5t-74.5 257.5q0 173 73.5 255.5t197.5 82.5q123 0 197 -82.5t74 -255.5q0 -171 -74.5 -257.5t-196.5 -86.5zM325 36q97 0 156.5 74.5t59.5 221.5q0 150 -58.5 220t-157.5 70t-157.5 -70t-58.5 -220q0 -148 59 -222
t157 -74z" />
    <glyph glyph-name="omacron" unicode="&#x14d;" horiz-adv-x="530" 
d="M157 634h218v-41h-218v41zM266 -12q-99 0 -157.5 63.5t-58.5 188.5q0 126 58.5 189.5t157.5 63.5t157 -63.5t58 -189.5q0 -125 -58 -188.5t-157 -63.5zM266 34q77 0 119 52t42 154t-42 154.5t-119 52.5q-78 0 -120 -52.5t-42 -154.5t42 -154t120 -52z" />
    <glyph glyph-name="Ohungarumlaut" unicode="&#x150;" horiz-adv-x="650" 
d="M237 722q56 72 86 168l39 -21q-32 -87 -98 -162zM373 722q58 74 87 168l39 -21q-33 -90 -98 -162zM325 -12q-122 0 -196.5 86.5t-74.5 257.5q0 173 73.5 255.5t197.5 82.5q123 0 197 -82.5t74 -255.5q0 -171 -74.5 -257.5t-196.5 -86.5zM325 36q97 0 156.5 74.5
t59.5 221.5q0 150 -58.5 220t-157.5 70t-157.5 -70t-58.5 -220q0 -148 59 -222t157 -74z" />
    <glyph glyph-name="ohungarumlaut" unicode="&#x151;" horiz-adv-x="530" 
d="M176 570q56 72 86 168l39 -21q-32 -87 -98 -162zM312 570q58 74 87 168l39 -21q-33 -90 -98 -162zM266 -12q-99 0 -157.5 63.5t-58.5 188.5q0 126 58.5 189.5t157.5 63.5t157 -63.5t58 -189.5q0 -125 -58 -188.5t-157 -63.5zM266 34q77 0 119 52t42 154t-42 154.5
t-119 52.5q-78 0 -120 -52.5t-42 -154.5t42 -154t120 -52z" />
    <glyph glyph-name="OE" unicode="&#x152;" horiz-adv-x="831" 
d="M617 46q136 0 167 13v-65q-39 6 -167 6h-209q-39 -12 -83 -12q-122 0 -196.5 86.5t-74.5 257.5q0 173 73.5 255.5t197.5 82.5q47 0 87 -12h195q125 0 162 6v-65q-30 13 -162 13h-135v-240h109q117 0 143 11v-69q-26 11 -143 11h-109v-279h145zM109 332q0 -148 59 -222
t157 -74q52 0 95 23q1 13 1 48v444q0 37 -1 51q-40 20 -95 20q-99 0 -157.5 -70t-58.5 -220z" />
    <glyph glyph-name="oe" unicode="&#x153;" horiz-adv-x="882" 
d="M825 274q0 -22 -2 -40h-339q2 -105 43 -152.5t127 -47.5q92 0 139 53l21 -59q-89 -40 -164 -40q-147 0 -195 113q-53 -113 -189 -113q-99 0 -157.5 63.5t-58.5 188.5q0 126 58.5 189.5t157.5 63.5q138 0 189 -114q50 114 182 114q89 0 138.5 -58t49.5 -161zM266 34
q77 0 119 52t42 154t-42 154.5t-119 52.5q-78 0 -120 -52.5t-42 -154.5t42 -154t120 -52zM485 277h288q0 81 -35.5 125.5t-99.5 44.5q-70 0 -109.5 -44.5t-43.5 -125.5z" />
    <glyph glyph-name="Racute" unicode="&#x154;" horiz-adv-x="558" 
d="M235 742q80 50 140 143l36 -38q-62 -81 -159 -132zM82 661h190q117 0 176.5 -43t59.5 -144q0 -161 -156 -191l99 -172q42 -73 79 -111h-92q1 28 -38 96l-104 181h-146v-170q0 -78 15 -107h-83q15 27 15 107v447q0 80 -15 107zM269 322q185 0 185 152q0 78 -45.5 109.5
t-143.5 31.5h-115v-293h119z" />
    <glyph glyph-name="racute" unicode="&#x155;" horiz-adv-x="337" 
d="M141 590q80 50 140 143l36 -38q-62 -81 -159 -132zM78 481h62q0 -44 -2 -92h5q16 46 51.5 75t79.5 29q11 0 28.5 -1.5t23.5 -1.5l-13 -62q-16 19 -46 19q-37 0 -72.5 -38t-53.5 -98v-204q0 -81 13 -107h-76q12 26 12 107v267q0 81 -12 107z" />
    <glyph glyph-name="uni0156" unicode="&#x156;" horiz-adv-x="558" 
d="M82 661h190q117 0 176.5 -43t59.5 -144q0 -161 -156 -191l99 -172q42 -73 79 -111h-92q1 28 -38 96l-104 181h-146v-170q0 -78 15 -107h-83q15 27 15 107v447q0 80 -15 107zM269 322q185 0 185 152q0 78 -45.5 109.5t-143.5 31.5h-115v-293h119zM290 -47q44 0 44 -57
q0 -35 -19.5 -67t-56.5 -47l-12 21q50 23 54 76q-4 -2 -10 -2q-13 0 -24 10t-11 27q0 19 10 29t25 10z" />
    <glyph glyph-name="uni0157" unicode="&#x157;" horiz-adv-x="337" 
d="M78 481h62q0 -44 -2 -92h5q16 46 51.5 75t79.5 29q11 0 28.5 -1.5t23.5 -1.5l-13 -62q-16 19 -46 19q-37 0 -72.5 -38t-53.5 -98v-204q0 -81 13 -107h-76q12 26 12 107v267q0 81 -12 107zM119 -47q44 0 44 -57q0 -35 -19.5 -67t-56.5 -47l-12 21q50 23 54 76
q-4 -2 -10 -2q-13 0 -24 10t-11 27q0 19 10 29t25 10z" />
    <glyph glyph-name="Rcaron" unicode="&#x158;" horiz-adv-x="558" 
d="M247 713q-45 84 -116 144l22 22q72 -51 117 -123h4q45 72 117 123l22 -22q-67 -57 -116 -144h-50zM82 661h190q117 0 176.5 -43t59.5 -144q0 -161 -156 -191l99 -172q42 -73 79 -111h-92q1 28 -38 96l-104 181h-146v-170q0 -78 15 -107h-83q15 27 15 107v447
q0 80 -15 107zM269 322q185 0 185 152q0 78 -45.5 109.5t-143.5 31.5h-115v-293h119z" />
    <glyph glyph-name="rcaron" unicode="&#x159;" horiz-adv-x="337" 
d="M154 561q-45 84 -116 144l22 22q72 -51 117 -123h4q45 72 117 123l22 -22q-67 -57 -116 -144h-50zM78 481h62q0 -44 -2 -92h5q16 46 51.5 75t79.5 29q11 0 28.5 -1.5t23.5 -1.5l-13 -62q-16 19 -46 19q-37 0 -72.5 -38t-53.5 -98v-204q0 -81 13 -107h-76q12 26 12 107
v267q0 81 -12 107z" />
    <glyph glyph-name="Sacute" unicode="&#x15a;" horiz-adv-x="532" 
d="M232 742q80 50 140 143l36 -38q-62 -81 -159 -132zM270 -12q-100 0 -224 63l33 74q59 -90 192 -90q73 0 114.5 35.5t41.5 95.5q0 56 -28.5 85t-88.5 50l-89 31q-140 51 -140 175q0 73 53.5 118t136.5 45t185 -52l-31 -64q-51 69 -154 69q-62 0 -99.5 -31t-37.5 -84
q0 -52 29 -80.5t81 -46.5l88 -32q71 -24 109.5 -65t38.5 -114q0 -80 -57 -131t-153 -51z" />
    <glyph glyph-name="sacute" unicode="&#x15b;" horiz-adv-x="415" 
d="M173 590q80 50 140 143l36 -38q-62 -81 -159 -132zM206 -12q-42 0 -106.5 19.5t-65.5 19.5l26 72q18 -29 59 -47.5t88 -18.5q115 0 115 92q0 62 -103 93l-30 9q-130 40 -130 139q0 59 42.5 93t113.5 34q26 0 51 -5.5t56.5 -16.5t36.5 -12l-27 -66q-36 55 -117 55
q-49 0 -77.5 -21.5t-28.5 -58.5q0 -64 93 -92l32 -10q139 -41 139 -139q0 -65 -43 -102t-124 -37z" />
    <glyph glyph-name="Scedilla" unicode="&#x15e;" horiz-adv-x="532" 
d="M480 170q0 -76 -52 -126.5t-142 -55.5l-19 -43q71 -17 71 -70q0 -80 -149 -86l-7 36q112 0 112 49q0 41 -77 49l33 66q-91 4 -204 62l33 74q59 -90 192 -90q73 0 114.5 35.5t41.5 95.5q0 56 -28.5 85t-88.5 50l-89 31q-140 51 -140 175q0 73 53.5 118t136.5 45t185 -52
l-31 -64q-51 69 -154 69q-62 0 -99.5 -31t-37.5 -84q0 -52 29 -80.5t81 -46.5l88 -32q71 -24 109.5 -65t38.5 -114z" />
    <glyph glyph-name="scedilla" unicode="&#x15f;" horiz-adv-x="415" 
d="M373 127q0 -60 -38 -97t-108 -41l-20 -44q71 -17 71 -70q0 -80 -149 -86l-7 36q112 0 112 49q0 41 -77 49l33 66q-38 2 -93 19.5t-63 18.5l26 72q18 -29 59 -47.5t88 -18.5q115 0 115 92q0 62 -103 93l-30 9q-130 40 -130 139q0 59 42.5 93t113.5 34q26 0 51 -5.5
t56.5 -16.5t36.5 -12l-27 -66q-36 55 -117 55q-49 0 -77.5 -21.5t-28.5 -58.5q0 -64 93 -92l32 -10q139 -41 139 -139z" />
    <glyph glyph-name="Scaron" unicode="&#x160;" horiz-adv-x="532" 
d="M245 713q-45 84 -116 144l22 22q72 -51 117 -123h4q45 72 117 123l22 -22q-67 -57 -116 -144h-50zM270 -12q-100 0 -224 63l33 74q59 -90 192 -90q73 0 114.5 35.5t41.5 95.5q0 56 -28.5 85t-88.5 50l-89 31q-140 51 -140 175q0 73 53.5 118t136.5 45t185 -52l-31 -64
q-51 69 -154 69q-62 0 -99.5 -31t-37.5 -84q0 -52 29 -80.5t81 -46.5l88 -32q71 -24 109.5 -65t38.5 -114q0 -80 -57 -131t-153 -51z" />
    <glyph glyph-name="scaron" unicode="&#x161;" horiz-adv-x="415" 
d="M186 561q-45 84 -116 144l22 22q72 -51 117 -123h4q45 72 117 123l22 -22q-67 -57 -116 -144h-50zM206 -12q-42 0 -106.5 19.5t-65.5 19.5l26 72q18 -29 59 -47.5t88 -18.5q115 0 115 92q0 62 -103 93l-30 9q-130 40 -130 139q0 59 42.5 93t113.5 34q26 0 51 -5.5
t56.5 -16.5t36.5 -12l-27 -66q-36 55 -117 55q-49 0 -77.5 -21.5t-28.5 -58.5q0 -64 93 -92l32 -10q139 -41 139 -139q0 -65 -43 -102t-124 -37z" />
    <glyph glyph-name="uni0162" unicode="&#x162;" horiz-adv-x="506" 
d="M372 658q68 0 108 6v-67q-34 15 -108 15h-93v-505q0 -73 15 -107h-21l-25 -55q71 -17 71 -70q0 -80 -149 -86l-7 36q112 0 112 49q0 41 -77 49l39 77h-26q15 31 15 107v505h-93q-75 0 -107 -15v67q39 -6 107 -6h239z" />
    <glyph glyph-name="uni0163" unicode="&#x163;" horiz-adv-x="324" 
d="M204 -55q71 -17 71 -70q0 -80 -149 -86l-7 36q112 0 112 49q0 41 -77 49l34 69q-85 19 -85 144v306h-71v34q71 8 123 86v-81h131v-48q-31 9 -131 9v-307q0 -51 17 -77t62 -26q36 0 60 25l13 -59q-8 -1 -38 -5.5t-43 -4.5h-3z" />
    <glyph glyph-name="Tcaron" unicode="&#x164;" horiz-adv-x="506" 
d="M229 701q-45 84 -116 144l22 22q72 -51 117 -123h4q45 72 117 123l22 -22q-67 -57 -116 -144h-50zM226 612h-93q-75 0 -107 -15v67q39 -6 107 -6h239q68 0 108 6v-67q-34 15 -108 15h-93v-505q0 -73 15 -107h-83q15 31 15 107v505z" />
    <glyph glyph-name="tcaron" unicode="&#x165;" horiz-adv-x="324" 
d="M220 536l-9 154h47l-8 -154h-30zM226 -12q-67 0 -95 38.5t-28 109.5v306h-71v34q71 8 123 86v-81h131v-48q-31 9 -131 9v-307q0 -51 17 -77t62 -26q36 0 60 25l13 -59q-8 -1 -38 -5.5t-43 -4.5z" />
    <glyph glyph-name="Tbar" unicode="&#x166;" horiz-adv-x="506" 
d="M372 612h-93v-268h108v-40h-108v-197q0 -73 15 -107h-83q15 31 15 107v197h-101v40h101v268h-93q-75 0 -107 -15v67q39 -6 107 -6h239q68 0 108 6v-67q-34 15 -108 15z" />
    <glyph glyph-name="tbar" unicode="&#x167;" horiz-adv-x="324" 
d="M294 57l13 -59q-8 -1 -38 -5.5t-43 -4.5q-67 0 -95 38.5t-28 109.5v108h-67v39h67v159h-71v34q71 8 123 86v-81h131v-48q-31 9 -131 9v-159h107v-39h-107v-109q0 -51 17 -77t62 -26q36 0 60 25z" />
    <glyph glyph-name="Umacron" unicode="&#x16a;" horiz-adv-x="629" 
d="M206 786h218v-41h-218v41zM314 -12q-100 0 -162 61.5t-62 205.5v299q0 80 -15 107h83q-15 -29 -15 -107v-295q0 -224 171 -224q175 0 175 224v295q0 78 -15 107h80q-15 -29 -15 -107v-299q0 -144 -62.5 -205.5t-162.5 -61.5z" />
    <glyph glyph-name="umacron" unicode="&#x16b;" horiz-adv-x="532" 
d="M145 629h218v-41h-218v41zM227 -12q-145 0 -145 190v196q0 79 -14 107h66v-303q0 -145 100 -145q44 0 85 28t71 81v232q0 78 -12 107h63v-374q0 -76 13 -107h-66q0 48 5 80h-5q-24 -42 -66.5 -67t-94.5 -25z" />
    <glyph glyph-name="Uring" unicode="&#x16e;" horiz-adv-x="629" 
d="M314 712q-42 0 -68 22.5t-26 58.5t26 58.5t68 22.5t68.5 -22.5t26.5 -58.5t-26.5 -58.5t-68.5 -22.5zM314 744q25 0 40.5 12.5t15.5 36.5t-15.5 36.5t-40.5 12.5t-40.5 -12.5t-15.5 -36.5t15.5 -36.5t40.5 -12.5zM314 -12q-100 0 -162 61.5t-62 205.5v299q0 80 -15 107
h83q-15 -29 -15 -107v-295q0 -224 171 -224q175 0 175 224v295q0 78 -15 107h80q-15 -29 -15 -107v-299q0 -144 -62.5 -205.5t-162.5 -61.5z" />
    <glyph glyph-name="uring" unicode="&#x16f;" horiz-adv-x="532" 
d="M253 555q-42 0 -68 22.5t-26 58.5t26 58.5t68 22.5t68.5 -22.5t26.5 -58.5t-26.5 -58.5t-68.5 -22.5zM253 587q25 0 40.5 12.5t15.5 36.5t-15.5 36.5t-40.5 12.5t-40.5 -12.5t-15.5 -36.5t15.5 -36.5t40.5 -12.5zM227 -12q-145 0 -145 190v196q0 79 -14 107h66v-303
q0 -145 100 -145q44 0 85 28t71 81v232q0 78 -12 107h63v-374q0 -76 13 -107h-66q0 48 5 80h-5q-24 -42 -66.5 -67t-94.5 -25z" />
    <glyph glyph-name="Uhungarumlaut" unicode="&#x170;" horiz-adv-x="629" 
d="M225 722q56 72 86 168l39 -21q-32 -87 -98 -162zM361 722q58 74 87 168l39 -21q-33 -90 -98 -162zM314 -12q-100 0 -162 61.5t-62 205.5v299q0 80 -15 107h83q-15 -29 -15 -107v-295q0 -224 171 -224q175 0 175 224v295q0 78 -15 107h80q-15 -29 -15 -107v-299
q0 -144 -62.5 -205.5t-162.5 -61.5z" />
    <glyph glyph-name="uhungarumlaut" unicode="&#x171;" horiz-adv-x="532" 
d="M164 565q56 72 86 168l39 -21q-32 -87 -98 -162zM300 565q58 74 87 168l39 -21q-33 -90 -98 -162zM227 -12q-145 0 -145 190v196q0 79 -14 107h66v-303q0 -145 100 -145q44 0 85 28t71 81v232q0 78 -12 107h63v-374q0 -76 13 -107h-66q0 48 5 80h-5q-24 -42 -66.5 -67
t-94.5 -25z" />
    <glyph glyph-name="Uogonek" unicode="&#x172;" horiz-adv-x="629" 
d="M474 661h80q-15 -29 -15 -107v-299q0 -212 -145 -256q-38 -20 -61.5 -49t-23.5 -58q0 -20 12 -30.5t30 -10.5q24 0 39 21l18 -36q-26 -20 -62 -20q-35 0 -57 17.5t-22 53.5q0 58 63 101h-16q-100 0 -162 61.5t-62 205.5v299q0 80 -15 107h83q-15 -29 -15 -107v-295
q0 -224 171 -224q175 0 175 224v295q0 78 -15 107z" />
    <glyph glyph-name="uogonek" unicode="&#x173;" horiz-adv-x="532" 
d="M446 -128l18 -36q-26 -20 -62 -20q-35 0 -57 17.5t-22 53.5q0 32 23 63t59 50h-17q0 48 5 80h-5q-24 -42 -66.5 -67t-94.5 -25q-145 0 -145 190v196q0 79 -14 107h66v-303q0 -145 100 -145q44 0 85 28t71 81v232q0 78 -12 107h63v-374q0 -76 13 -107h-2q-39 -20 -63 -49
t-24 -59q0 -20 12 -30.5t30 -10.5q24 0 39 21z" />
    <glyph glyph-name="Wcircumflex" unicode="&#x174;" horiz-adv-x="778" 
d="M387 833q-43 -72 -117 -123l-20 22q66 55 115 144h49q49 -89 115 -144l-20 -22q-73 50 -118 123h-4zM682 658h77q-18 -29 -35 -108l-95 -425q-21 -94 -15 -125h-84q5 29 -20 124l-120 467l-120 -467q-25 -94 -21 -124h-83q6 32 -16 125l-96 425q-16 76 -36 108h82
q-9 -25 7 -100l104 -493l128 495q19 74 13 98h77q-6 -25 13 -98l130 -495l103 493q15 72 7 100z" />
    <glyph glyph-name="wcircumflex" unicode="&#x175;" horiz-adv-x="682" 
d="M341 676q-43 -72 -117 -123l-20 22q66 55 115 144h49q49 -89 115 -144l-20 -22q-73 50 -118 123h-4zM595 481h73q-22 -37 -43 -111l-73 -263q-20 -72 -20 -107h-83q-2 49 -19 107l-88 311l-88 -311q-19 -68 -19 -107h-81q0 40 -20 107l-77 263q-24 81 -43 111h78
q-5 -29 14 -98l89 -324l96 338q17 53 14 84h77q-2 -27 14 -85l95 -337l90 324q18 69 14 98z" />
    <glyph glyph-name="Ycircumflex" unicode="&#x176;" horiz-adv-x="487" 
d="M241 833q-43 -72 -117 -123l-20 22q66 55 115 144h49q49 -89 115 -144l-20 -22q-73 50 -118 123h-4zM411 545l-141 -280v-158q0 -76 15 -107h-83q15 31 15 107v158l-141 281q-42 84 -66 112h81q-1 -28 30 -93l124 -256l124 256q33 67 30 93h79q-15 -17 -26.5 -36
t-40.5 -77z" />
    <glyph glyph-name="ycircumflex" unicode="&#x177;" horiz-adv-x="450" 
d="M213 719h49q49 -89 115 -144l-20 -22q-73 50 -118 123h-4q-43 -72 -117 -123l-20 22q66 55 115 144zM80 -200q-8 0 -26 2t-27 1l14 67q15 -25 45 -25q81 0 120 121l12 34h-8l-151 376q-33 79 -54 105h81q-4 -30 20 -90l131 -334h2l114 334q21 61 15 90h77
q-20 -28 -48 -105l-147 -423q-53 -153 -170 -153z" />
    <glyph glyph-name="Ydieresis" unicode="&#x178;" horiz-adv-x="487" 
d="M181 734q-17 0 -28.5 11t-11.5 28t11.5 28t28.5 11t28 -11t11 -28t-11 -28t-28 -11zM311 734q-17 0 -28 11t-11 28t11 28t28 11t28.5 -11t11.5 -28t-11.5 -28t-28.5 -11zM411 545l-141 -280v-158q0 -76 15 -107h-83q15 31 15 107v158l-141 281q-42 84 -66 112h81
q-1 -28 30 -93l124 -256l124 256q33 67 30 93h79q-15 -17 -26.5 -36t-40.5 -77z" />
    <glyph glyph-name="Zacute" unicode="&#x179;" horiz-adv-x="539" 
d="M414 847q-62 -81 -159 -132l-17 27q80 50 140 143zM331 46q80 0 111.5 3.5t49.5 14.5v-70q-34 6 -161 6h-282l-2 47q23 15 70 90l304 475h-207q-105 0 -132 -17v70q38 -7 132 -7h274l2 -46q-20 -13 -60 -75l-315 -491h216z" />
    <glyph glyph-name="zacute" unicode="&#x17a;" horiz-adv-x="413" 
d="M175 590q80 50 140 143l36 -38q-62 -81 -159 -132zM29 39q15 11 46 56l232 342h-140q-81 0 -108 -14v63q42 -5 87 -5h223l4 -40q-14 -9 -36 -42l-242 -355h169q90 0 119 14v-63q-45 5 -93 5h-257z" />
    <glyph glyph-name="Zdotaccent" unicode="&#x17b;" horiz-adv-x="539" 
d="M275 724q-41 0 -41 43q0 42 41 42t41 -42q0 -43 -41 -43zM331 46q80 0 111.5 3.5t49.5 14.5v-70q-34 6 -161 6h-282l-2 47q23 15 70 90l304 475h-207q-105 0 -132 -17v70q38 -7 132 -7h274l2 -46q-20 -13 -60 -75l-315 -491h216z" />
    <glyph glyph-name="zdotaccent" unicode="&#x17c;" horiz-adv-x="413" 
d="M212 572q-41 0 -41 43q0 42 41 42t41 -42q0 -43 -41 -43zM29 39q15 11 46 56l232 342h-140q-81 0 -108 -14v63q42 -5 87 -5h223l4 -40q-14 -9 -36 -42l-242 -355h169q90 0 119 14v-63q-45 5 -93 5h-257z" />
    <glyph glyph-name="Zcaron" unicode="&#x17d;" horiz-adv-x="539" 
d="M250 713q-45 84 -116 144l22 22q72 -51 117 -123h4q45 72 117 123l22 -22q-67 -57 -116 -144h-50zM331 46q80 0 111.5 3.5t49.5 14.5v-70q-34 6 -161 6h-282l-2 47q23 15 70 90l304 475h-207q-105 0 -132 -17v70q38 -7 132 -7h274l2 -46q-20 -13 -60 -75l-315 -491h216z
" />
    <glyph glyph-name="zcaron" unicode="&#x17e;" horiz-adv-x="413" 
d="M187 561q-45 84 -116 144l22 22q72 -51 117 -123h4q45 72 117 123l22 -22q-67 -57 -116 -144h-50zM29 39q15 11 46 56l232 342h-140q-81 0 -108 -14v63q42 -5 87 -5h223l4 -40q-14 -9 -36 -42l-242 -355h169q90 0 119 14v-63q-45 5 -93 5h-257z" />
    <glyph glyph-name="florin" unicode="&#x192;" horiz-adv-x="419" 
d="M330 566q-77 0 -90 -124l-7 -62h78q39 0 56 9v-61q-17 9 -56 9h-83l-20 -179q-10 -91 -41.5 -130.5t-89.5 -39.5q-21 0 -57 8l9 59q21 -21 49 -21q33 0 52.5 28t26.5 96l20 179h-25q-40 0 -56 -9v61q17 -9 56 -9h30l7 62q19 170 142 170q12 0 71 -8l-9 -59q-26 21 -63 21
z" />
    <glyph glyph-name="uni0218" unicode="&#x218;" horiz-adv-x="532" 
d="M270 -12q-100 0 -224 63l33 74q59 -90 192 -90q73 0 114.5 35.5t41.5 95.5q0 56 -28.5 85t-88.5 50l-89 31q-140 51 -140 175q0 73 53.5 118t136.5 45t185 -52l-31 -64q-51 69 -154 69q-62 0 -99.5 -31t-37.5 -84q0 -52 29 -80.5t81 -46.5l88 -32q71 -24 109.5 -65
t38.5 -114q0 -80 -57 -131t-153 -51zM272 -47q44 0 44 -57q0 -35 -19.5 -67t-56.5 -47l-12 21q50 23 54 76q-4 -2 -10 -2q-13 0 -24 10t-11 27q0 19 10 29t25 10z" />
    <glyph glyph-name="uni0219" unicode="&#x219;" horiz-adv-x="415" 
d="M206 -12q-42 0 -106.5 19.5t-65.5 19.5l26 72q18 -29 59 -47.5t88 -18.5q115 0 115 92q0 62 -103 93l-30 9q-130 40 -130 139q0 59 42.5 93t113.5 34q26 0 51 -5.5t56.5 -16.5t36.5 -12l-27 -66q-36 55 -117 55q-49 0 -77.5 -21.5t-28.5 -58.5q0 -64 93 -92l32 -10
q139 -41 139 -139q0 -65 -43 -102t-124 -37zM213 -47q44 0 44 -57q0 -35 -19.5 -67t-56.5 -47l-12 21q50 23 54 76q-4 -2 -10 -2q-13 0 -24 10t-11 27q0 19 10 29t25 10z" />
    <glyph glyph-name="uni021A" unicode="&#x21a;" horiz-adv-x="506" 
d="M226 612h-93q-75 0 -107 -15v67q39 -6 107 -6h239q68 0 108 6v-67q-34 15 -108 15h-93v-505q0 -73 15 -107h-83q15 31 15 107v505zM254 -47q44 0 44 -57q0 -35 -19.5 -67t-56.5 -47l-12 21q50 23 54 76q-4 -2 -10 -2q-13 0 -24 10t-11 27q0 19 10 29t25 10z" />
    <glyph glyph-name="uni021B" unicode="&#x21b;" horiz-adv-x="324" 
d="M226 -12q-67 0 -95 38.5t-28 109.5v306h-71v34q71 8 123 86v-81h131v-48q-31 9 -131 9v-307q0 -51 17 -77t62 -26q36 0 60 25l13 -59q-8 -1 -38 -5.5t-43 -4.5zM210 -47q44 0 44 -57q0 -35 -19.5 -67t-56.5 -47l-12 21q50 23 54 76q-4 -2 -10 -2q-13 0 -24 10t-11 27
q0 19 10 29t25 10z" />
    <glyph glyph-name="circumflex" unicode="&#x2c6;" horiz-adv-x="509" 
d="M230 738h49q49 -89 115 -144l-20 -22q-73 50 -118 123h-4q-43 -72 -117 -123l-20 22q66 55 115 144z" />
    <glyph glyph-name="caron" unicode="&#x2c7;" horiz-adv-x="542" 
d="M246 575q-45 84 -116 144l22 22q72 -51 117 -123h4q45 72 117 123l22 -22q-67 -57 -116 -144h-50z" />
    <glyph glyph-name="breve" unicode="&#x2d8;" horiz-adv-x="477" 
d="M239 572q-116 0 -112 142h33q0 -46 19.5 -75t59.5 -29t59 29t19 75h33q2 -62 -23.5 -102t-87.5 -40z" />
    <glyph glyph-name="dotaccent" unicode="&#x2d9;" horiz-adv-x="542" 
d="M271 586q-41 0 -41 43q0 42 41 42t41 -42q0 -43 -41 -43z" />
    <glyph glyph-name="ring" unicode="&#x2da;" horiz-adv-x="542" 
d="M271 574q-42 0 -68 22.5t-26 58.5t26 58.5t68 22.5t68.5 -22.5t26.5 -58.5t-26.5 -58.5t-68.5 -22.5zM271 606q25 0 40.5 12.5t15.5 36.5t-15.5 36.5t-40.5 12.5t-40.5 -12.5t-15.5 -36.5t15.5 -36.5t40.5 -12.5z" />
    <glyph glyph-name="ogonek" unicode="&#x2db;" horiz-adv-x="382" 
d="M190 -181q-35 0 -57 17.5t-22 53.5q0 35 26.5 68t67.5 51l35 -6q-39 -20 -63 -49t-24 -59q0 -20 12 -30.5t30 -10.5q24 0 39 21l18 -36q-26 -20 -62 -20z" />
    <glyph glyph-name="tilde" unicode="&#x2dc;" horiz-adv-x="542" 
d="M336 588q-26 0 -49.5 20t-43.5 39.5t-37 19.5q-24 0 -33.5 -17.5t-4.5 -47.5l-52 3q21 100 91 100q26 0 49 -19.5t43 -39t38 -19.5q23 0 33 17.5t5 46.5l51 -3q-21 -100 -90 -100z" />
    <glyph glyph-name="hungarumlaut" unicode="&#x2dd;" horiz-adv-x="542" 
d="M188 584q56 72 86 168l39 -21q-32 -87 -98 -162zM324 584q58 74 87 168l39 -21q-33 -90 -98 -162z" />
    <glyph glyph-name="gravecomb" unicode="&#x300;" horiz-adv-x="0" 
d="M-221 610l-14 -30q-98 47 -165 129l34 41q62 -89 145 -140z" />
    <glyph glyph-name="acutecomb" unicode="&#x301;" horiz-adv-x="0" 
d="M-464 604q80 50 140 143l36 -38q-62 -81 -159 -132z" />
    <glyph glyph-name="uni0302" unicode="&#x302;" horiz-adv-x="0" 
d="M-312 738h49q49 -89 115 -144l-20 -22q-73 50 -118 123h-4q-43 -72 -117 -123l-20 22q66 55 115 144z" />
    <glyph glyph-name="tildecomb" unicode="&#x303;" horiz-adv-x="0" 
d="M-206 588q-26 0 -49.5 20t-43.5 39.5t-37 19.5q-24 0 -33.5 -17.5t-4.5 -47.5l-52 3q21 100 91 100q26 0 49 -19.5t43 -39t38 -19.5q23 0 33 17.5t5 46.5l51 -3q-21 -100 -90 -100z" />
    <glyph glyph-name="uni0304" unicode="&#x304;" horiz-adv-x="0" 
d="M-380 642h218v-41h-218v41z" />
    <glyph glyph-name="uni0306" unicode="&#x306;" horiz-adv-x="0" 
d="M-303 572q-116 0 -112 142h33q0 -46 19.5 -75t59.5 -29t59 29t19 75h33q2 -62 -23.5 -102t-87.5 -40z" />
    <glyph glyph-name="uni0307" unicode="&#x307;" horiz-adv-x="0" 
d="M-271 586q-41 0 -41 43q0 42 41 42t41 -42q0 -43 -41 -43z" />
    <glyph glyph-name="uni0308" unicode="&#x308;" horiz-adv-x="0" 
d="M-336 596q-17 0 -28.5 11t-11.5 28t11.5 28t28.5 11q16 0 27.5 -11t11.5 -28t-11.5 -28t-27.5 -11zM-206 596q-16 0 -27.5 11t-11.5 28t11.5 28t27.5 11q17 0 28.5 -11t11.5 -28t-11.5 -28t-28.5 -11z" />
    <glyph glyph-name="uni030A" unicode="&#x30a;" horiz-adv-x="0" 
d="M-271 574q-42 0 -68 22.5t-26 58.5t26 58.5t68 22.5t68.5 -22.5t26.5 -58.5t-26.5 -58.5t-68.5 -22.5zM-271 606q25 0 40.5 12.5t15.5 36.5t-15.5 36.5t-40.5 12.5t-40.5 -12.5t-15.5 -36.5t15.5 -36.5t40.5 -12.5z" />
    <glyph glyph-name="uni030B" unicode="&#x30b;" horiz-adv-x="0" 
d="M-354 584q56 72 86 168l39 -21q-32 -87 -98 -162zM-218 584q58 74 87 168l39 -21q-33 -90 -98 -162z" />
    <glyph glyph-name="uni030C" unicode="&#x30c;" horiz-adv-x="0" 
d="M-296 575q-45 84 -116 144l22 22q72 -51 117 -123h4q45 72 117 123l22 -22q-67 -57 -116 -144h-50z" />
    <glyph glyph-name="uni0312" unicode="&#x312;" horiz-adv-x="0" 
d="M-160 564q-20 0 -32.5 15t-12.5 40q0 36 20.5 67.5t57.5 46.5l11 -18q-47 -24 -53 -75q3 1 10 1q15 0 26 -10t11 -28t-10.5 -28.5t-27.5 -10.5z" />
    <glyph glyph-name="uni0326" unicode="&#x326;" horiz-adv-x="0" 
d="M-166 -47q44 0 44 -57q0 -35 -19.5 -67t-56.5 -47l-12 21q50 23 54 76q-4 -2 -10 -2q-13 0 -24 10t-11 27q0 19 10 29t25 10z" />
    <glyph glyph-name="uni0327" unicode="&#x327;" horiz-adv-x="0" 
d="M-349 -175q112 0 112 49q0 41 -77 49l40 80h36l-26 -58q71 -17 71 -70q0 -80 -149 -86z" />
    <glyph glyph-name="uni0328" unicode="&#x328;" horiz-adv-x="0" 
d="M-352 -181q-35 0 -57 17.5t-22 53.5q0 35 26.5 68t67.5 51l35 -6q-39 -20 -63 -49t-24 -59q0 -20 12 -30.5t30 -10.5q24 0 39 21l18 -36q-26 -20 -62 -20z" />
    <glyph glyph-name="uni0394" unicode="&#x394;" horiz-adv-x="558" 
d="M341 563l180 -517l-13 -46h-459l-13 46l181 517q23 67 22 95h80q-3 -25 22 -95zM90 47h375l-187 561z" />
    <glyph glyph-name="uni03A9" unicode="&#x3a9;" horiz-adv-x="650" 
d="M449 46h84q39 0 56 9v-64q-17 9 -56 9h-162v46q71 26 120.5 114t49.5 202q0 121 -60.5 190.5t-155.5 69.5q-96 0 -156 -69t-60 -191q0 -115 49 -202.5t121 -113.5v-46h-163q-40 0 -56 -9v64q16 -9 56 -9h85q-68 43 -107.5 127.5t-39.5 188.5q0 145 75.5 226.5t195.5 81.5
q119 0 195 -82t76 -226q0 -104 -40 -188.5t-107 -127.5z" />
    <glyph glyph-name="uni03BC" unicode="&#x3bc;" horiz-adv-x="532" 
d="M454 0h-66q0 40 5 92h-5q-25 -48 -66 -76t-91 -28q-59 0 -97 41v-80q0 -74 16 -107h-83q15 31 15 107v425q0 79 -14 107h66v-337q0 -51 26 -79.5t74 -28.5q96 0 156 120v218q0 78 -12 107h63v-374q0 -76 13 -107z" />
    <glyph glyph-name="pi" unicode="&#x3c0;" horiz-adv-x="503" 
d="M389 435h-3v-311q0 -49 9 -69t30 -20q26 0 40 12l7 -54q-4 0 -21 -2.5t-29 -2.5q-45 0 -66 29t-21 103v315h-164v-328q0 -76 15 -107h-83q15 34 15 107v328h-4q-66 0 -89 -15v67q27 -6 89 -6h275q61 0 90 6v-67q-24 15 -90 15z" />
    <glyph glyph-name="Wgrave" unicode="&#x1e80;" horiz-adv-x="778" 
d="M417 718q-98 47 -165 129l34 41q62 -89 145 -140zM682 658h77q-18 -29 -35 -108l-95 -425q-21 -94 -15 -125h-84q5 29 -20 124l-120 467l-120 -467q-25 -94 -21 -124h-83q6 32 -16 125l-96 425q-16 76 -36 108h82q-9 -25 7 -100l104 -493l128 495q19 74 13 98h77
q-6 -25 13 -98l130 -495l103 493q15 72 7 100z" />
    <glyph glyph-name="wgrave" unicode="&#x1e81;" horiz-adv-x="682" 
d="M371 561q-98 47 -165 129l34 41q62 -89 145 -140zM595 481h73q-22 -37 -43 -111l-73 -263q-20 -72 -20 -107h-83q-2 49 -19 107l-88 311l-88 -311q-19 -68 -19 -107h-81q0 40 -20 107l-77 263q-24 81 -43 111h78q-5 -29 14 -98l89 -324l96 338q17 53 14 84h77
q-2 -27 14 -85l95 -337l90 324q18 69 14 98z" />
    <glyph glyph-name="Wacute" unicode="&#x1e82;" horiz-adv-x="778" 
d="M528 847q-62 -81 -159 -132l-17 27q80 50 140 143zM682 658h77q-18 -29 -35 -108l-95 -425q-21 -94 -15 -125h-84q5 29 -20 124l-120 467l-120 -467q-25 -94 -21 -124h-83q6 32 -16 125l-96 425q-16 76 -36 108h82q-9 -25 7 -100l104 -493l128 495q19 74 13 98h77
q-6 -25 13 -98l130 -495l103 493q15 72 7 100z" />
    <glyph glyph-name="wacute" unicode="&#x1e83;" horiz-adv-x="682" 
d="M482 690q-62 -81 -159 -132l-17 27q80 50 140 143zM595 481h73q-22 -37 -43 -111l-73 -263q-20 -72 -20 -107h-83q-2 49 -19 107l-88 311l-88 -311q-19 -68 -19 -107h-81q0 40 -20 107l-77 263q-24 81 -43 111h78q-5 -29 14 -98l89 -324l96 338q17 53 14 84h77
q-2 -27 14 -85l95 -337l90 324q18 69 14 98z" />
    <glyph glyph-name="Wdieresis" unicode="&#x1e84;" horiz-adv-x="778" 
d="M327 734q-17 0 -28.5 11t-11.5 28t11.5 28t28.5 11t28 -11t11 -28t-11 -28t-28 -11zM457 734q-17 0 -28 11t-11 28t11 28t28 11t28.5 -11t11.5 -28t-11.5 -28t-28.5 -11zM682 658h77q-18 -29 -35 -108l-95 -425q-21 -94 -15 -125h-84q5 29 -20 124l-120 467l-120 -467
q-25 -94 -21 -124h-83q6 32 -16 125l-96 425q-16 76 -36 108h82q-9 -25 7 -100l104 -493l128 495q19 74 13 98h77q-6 -25 13 -98l130 -495l103 493q15 72 7 100z" />
    <glyph glyph-name="wdieresis" unicode="&#x1e85;" horiz-adv-x="682" 
d="M280 577q-17 0 -28.5 11t-11.5 28t11.5 28t28.5 11q16 0 27.5 -11.5t11.5 -27.5t-11.5 -27.5t-27.5 -11.5zM410 577q-16 0 -27.5 11.5t-11.5 27.5t11.5 27.5t27.5 11.5q17 0 28.5 -11t11.5 -28t-11.5 -28t-28.5 -11zM595 481h73q-22 -37 -43 -111l-73 -263
q-20 -72 -20 -107h-83q-2 49 -19 107l-88 311l-88 -311q-19 -68 -19 -107h-81q0 40 -20 107l-77 263q-24 81 -43 111h78q-5 -29 14 -98l89 -324l96 338q17 53 14 84h77q-2 -27 14 -85l95 -337l90 324q18 69 14 98z" />
    <glyph glyph-name="uni1E9E" unicode="&#x1e9e;" horiz-adv-x="621" 
d="M97 107v321q0 119 55 180.5t149 61.5q72 0 121 -38t67 -100l-124 -168q105 -17 157.5 -67.5t52.5 -126.5q0 -82 -51.5 -132t-138.5 -50q-71 0 -165 47l36 66q29 -68 130 -68q62 0 97.5 36.5t35.5 99.5q0 136 -207 157v37l124 169q-13 40 -47.5 66.5t-87.5 26.5
q-70 0 -111 -48.5t-41 -148.5v-321q0 -77 15 -107h-82q15 30 15 107z" />
    <glyph glyph-name="Ygrave" unicode="&#x1ef2;" horiz-adv-x="487" 
d="M271 718q-98 47 -165 129l34 41q62 -89 145 -140zM411 545l-141 -280v-158q0 -76 15 -107h-83q15 31 15 107v158l-141 281q-42 84 -66 112h81q-1 -28 30 -93l124 -256l124 256q33 67 30 93h79q-15 -17 -26.5 -36t-40.5 -77z" />
    <glyph glyph-name="ygrave" unicode="&#x1ef3;" horiz-adv-x="450" 
d="M279 591l-14 -30q-98 47 -165 129l34 41q62 -89 145 -140zM80 -200q-8 0 -26 2t-27 1l14 67q15 -25 45 -25q81 0 120 121l12 34h-8l-151 376q-33 79 -54 105h81q-4 -30 20 -90l131 -334h2l114 334q21 61 15 90h77q-20 -28 -48 -105l-147 -423q-53 -153 -170 -153z" />
    <glyph glyph-name="figuredash" unicode="&#x2012;" horiz-adv-x="497" 
d="M41 272h416v-41h-416v41z" />
    <glyph glyph-name="endash" unicode="&#x2013;" horiz-adv-x="480" 
d="M41 272h398v-41h-398v41z" />
    <glyph glyph-name="emdash" unicode="&#x2014;" horiz-adv-x="800" 
d="M41 272h718v-41h-718v41z" />
    <glyph glyph-name="quoteleft" unicode="&#x2018;" horiz-adv-x="214" 
d="M175 668q-69 -46 -69 -126q4 2 10 2q17 0 29 -11.5t12 -30.5q0 -21 -12.5 -32.5t-30.5 -11.5q-24 0 -38 19.5t-14 54.5q0 100 98 160z" />
    <glyph glyph-name="quoteright" unicode="&#x2019;" horiz-adv-x="209" 
d="M45 482q70 47 70 126q-6 -2 -10 -2q-17 0 -29.5 11.5t-12.5 30.5q0 20 12.5 32t30.5 12q24 0 38 -20t14 -54q0 -101 -98 -160z" />
    <glyph glyph-name="quotesinglbase" unicode="&#x201a;" horiz-adv-x="214" 
d="M45 -124q70 47 70 126q-6 -2 -10 -2q-17 0 -29.5 11.5t-12.5 30.5q0 21 12.5 32.5t30.5 11.5q24 0 38 -19.5t14 -54.5q0 -101 -98 -160z" />
    <glyph glyph-name="quotedblleft" unicode="&#x201c;" horiz-adv-x="352" 
d="M175 668q-70 -47 -70 -126q6 2 11 2q17 0 29 -11.5t12 -30.5q0 -21 -12.5 -32.5t-30.5 -11.5q-24 0 -38 19.5t-14 54.5q0 100 98 160zM312 668q-69 -46 -69 -126q4 2 10 2q17 0 29 -11.5t12 -30.5q0 -21 -12 -32.5t-31 -11.5q-24 0 -37.5 19.5t-13.5 54.5q0 101 98 160z
" />
    <glyph glyph-name="quotedblright" unicode="&#x201d;" horiz-adv-x="352" 
d="M39 482q70 46 70 126q-4 -2 -10 -2q-17 0 -29.5 11.5t-12.5 30.5q0 20 12.5 32t30.5 12q24 0 38 -20t14 -54q0 -101 -98 -160zM177 482q69 46 69 126q-4 -2 -10 -2q-17 0 -29 11.5t-12 30.5q0 20 12 32t31 12q23 0 37 -20t14 -54q0 -101 -98 -160z" />
    <glyph glyph-name="quotedblbase" unicode="&#x201e;" horiz-adv-x="352" 
d="M45 -125q70 47 70 126q-6 -2 -10 -2q-17 0 -29.5 11.5t-12.5 30.5q0 21 12.5 32.5t30.5 11.5q24 0 38 -19.5t14 -54.5q0 -101 -98 -160zM182 -125q70 46 70 126q-4 -2 -10 -2q-17 0 -29 11.5t-12 30.5q0 21 12 32.5t31 11.5q24 0 37.5 -19.5t13.5 -54.5q0 -101 -98 -160z
" />
    <glyph glyph-name="dagger" unicode="&#x2020;" horiz-adv-x="396" 
d="M165 664h66q-12 -16 -12 -74v-56l43 -1q56 0 74 12v-63q-21 12 -74 12h-43v-173q0 -61 12 -80h-65q11 17 11 80v173l-42 1q-56 0 -74 -13v64q17 -12 74 -12h42v56q0 58 -12 74z" />
    <glyph glyph-name="daggerdbl" unicode="&#x2021;" horiz-adv-x="428" 
d="M262 505h-43v-98l43 -1q56 0 74 12v-63q-21 12 -74 12h-43v-46q0 -61 12 -80h-65q11 17 11 80v46l-42 1q-56 0 -74 -13v64q17 -12 74 -12h42v98l-42 1q-54 1 -74 -13v64q17 -12 74 -12h42v45q0 58 -12 74h66q-12 -16 -12 -74v-45l43 -1q56 0 74 12v-63q-18 12 -74 12z
" />
    <glyph glyph-name="bullet" unicode="&#x2022;" horiz-adv-x="308" 
d="M154 177q-29 0 -61 31t-32 61q0 31 32 62.5t61 31.5t61 -31.5t32 -62.5q0 -30 -32 -61t-61 -31z" />
    <glyph glyph-name="ellipsis" unicode="&#x2026;" horiz-adv-x="681" 
d="M112 -12q-21 0 -34.5 13.5t-13.5 34.5q0 23 13.5 36t34.5 13t35 -13t14 -36q0 -21 -14 -34.5t-35 -13.5zM341 -12q-21 0 -35 13.5t-14 34.5q0 23 14 36t35 13q20 0 34 -13.5t14 -35.5q0 -21 -14 -34.5t-34 -13.5zM569 -12q-21 0 -35 13.5t-14 34.5q0 23 14 36t35 13
q20 0 34 -13.5t14 -35.5q0 -21 -14 -34.5t-34 -13.5z" />
    <glyph glyph-name="perthousand" unicode="&#x2030;" horiz-adv-x="1123" 
d="M560 668h44l-358 -680h-44zM182 262q-66 0 -104.5 51t-38.5 147q0 94 38.5 145t104.5 51q65 0 103.5 -51t38.5 -145q0 -95 -38.5 -146.5t-103.5 -51.5zM182 300q45 0 71 41t26 119q0 77 -26 117.5t-71 40.5q-46 0 -72 -40t-26 -118t26.5 -119t71.5 -41zM616 -12
q-66 0 -104.5 51t-38.5 147q0 94 38.5 145t104.5 51q65 0 103.5 -51t38.5 -145q0 -95 -38.5 -146.5t-103.5 -51.5zM969 -12q-65 0 -103.5 51.5t-38.5 146.5q0 94 38.5 145t103.5 51q66 0 104.5 -51t38.5 -145q0 -96 -38.5 -147t-104.5 -51zM616 26q45 0 71 41t26 119
q0 77 -26 117.5t-71 40.5q-46 0 -72 -40t-26 -118t26.5 -119t71.5 -41zM969 26q45 0 71.5 41t26.5 119t-26 118t-72 40q-45 0 -71 -40.5t-26 -117.5q0 -78 26 -119t71 -41z" />
    <glyph glyph-name="guilsinglleft" unicode="&#x2039;" horiz-adv-x="271" 
d="M223 105l-25 -21q-65 99 -149 143v51q85 45 149 142l25 -23q-54 -89 -132 -145q79 -58 132 -147z" />
    <glyph glyph-name="guilsinglright" unicode="&#x203a;" horiz-adv-x="271" 
d="M48 105q53 89 132 147q-78 56 -132 145l25 23q64 -97 149 -142v-51q-84 -44 -149 -143z" />
    <glyph glyph-name="fraction" unicode="&#x2044;" horiz-adv-x="86" 
d="M199 668h44l-358 -680h-44z" />
    <glyph glyph-name="uni2070" unicode="&#x2070;" 
d="M182 441q-66 0 -104.5 51t-38.5 147q0 94 38.5 145t104.5 51q65 0 103.5 -51t38.5 -145q0 -95 -38.5 -146.5t-103.5 -51.5zM182 479q45 0 71 41t26 119q0 77 -26 117.5t-71 40.5q-46 0 -72 -40t-26 -118t26.5 -119t71.5 -41z" />
    <glyph glyph-name="uni2074" unicode="&#x2074;" 
d="M222 561h-176v29l174 245h43v-239q41 0 58 13v-48h-58v-23q0 -65 15 -85h-71q15 20 15 85v23zM222 596v186l-132 -186h132z" />
    <glyph glyph-name="uni2075" unicode="&#x2075;" 
d="M180 441q-42 0 -86 23.5t-52 25.5l31 49q33 -62 109 -62q39 0 64.5 24.5t25.5 65.5t-25 65t-65 24q-47 0 -84 -20l-24 8l18 191h137q49 0 65 12v-63q-16 12 -65 12h-102l-11 -118q30 14 71 14q54 0 91 -33.5t37 -91.5t-38 -92t-97 -34z" />
    <glyph glyph-name="uni2076" unicode="&#x2076;" 
d="M191 441q-64 0 -103 50t-39 139q0 108 45.5 162.5t109.5 54.5q20 0 46.5 -5t37.5 -4l-16 -55q-22 28 -68 28q-41 0 -74.5 -41.5t-37.5 -119.5q43 46 103 46q58 0 91 -34.5t33 -90.5q0 -57 -36 -93.5t-92 -36.5zM194 660q-61 0 -102 -54q4 -60 30.5 -94.5t68.5 -34.5
q38 0 62 26.5t24 66.5t-22.5 65t-60.5 25z" />
    <glyph glyph-name="uni2077" unicode="&#x2077;" 
d="M139 453q6 111 34.5 188.5t96.5 155.5h-151q-51 0 -70 -15v61q19 -8 70 -8h198v-37q-74 -82 -102 -159t-31 -186h-45z" />
    <glyph glyph-name="uni2078" unicode="&#x2078;" 
d="M181 441q-59 0 -95.5 31t-36.5 78q0 35 23 63t58 43v4q-64 25 -64 87q0 43 33.5 71.5t81.5 28.5q50 0 84 -28t34 -72q0 -33 -19.5 -56.5t-45.5 -35.5v-4q36 -12 57.5 -39t21.5 -60q0 -49 -37.5 -80t-94.5 -31zM201 667q56 32 56 82q0 27 -22 44t-54 17q-30 0 -51.5 -18
t-21.5 -45q0 -57 93 -80zM181 475q38 0 64 21.5t26 54.5q0 34 -30 54.5t-80 35.5q-70 -33 -70 -90q0 -31 25 -53.5t65 -22.5z" />
    <glyph glyph-name="uni2079" unicode="&#x2079;" 
d="M172 847q64 0 103 -50t39 -139q0 -108 -45.5 -162.5t-109.5 -54.5q-20 0 -47 5t-38 4l17 55q22 -28 68 -28q41 0 74.5 41.5t37.5 119.5q-43 -46 -103 -46q-58 0 -91 34t-33 91t36 93.5t92 36.5zM169 628q61 0 102 54q-4 60 -30.5 94.5t-68.5 34.5q-38 0 -62 -26.5
t-24 -66.5t22.5 -65t60.5 -25z" />
    <glyph glyph-name="uni2080" unicode="&#x2080;" 
d="M182 -194q-66 0 -104.5 51t-38.5 147q0 94 38.5 145t104.5 51q65 0 103.5 -51t38.5 -145q0 -95 -38.5 -146.5t-103.5 -51.5zM182 -156q45 0 71 41t26 119q0 77 -26 117.5t-71 40.5q-46 0 -72 -40t-26 -118t26.5 -119t71.5 -41z" />
    <glyph glyph-name="uni2081" unicode="&#x2081;" 
d="M176 122h-85v33q83 0 127 37v-330l87 -12v-32h-221v32l92 12v260z" />
    <glyph glyph-name="uni2082" unicode="&#x2082;" 
d="M54 -148q103 76 147.5 126.5t44.5 99.5q0 39 -21.5 62t-54.5 23q-31 0 -56.5 -16.5t-38.5 -43.5l-29 48q9 2 48.5 25.5t75.5 23.5q53 0 87 -33t34 -89t-42 -107.5t-126 -114.5h107q58 0 83 15v-53h-259v34z" />
    <glyph glyph-name="uni2083" unicode="&#x2083;" 
d="M183 -194q-42 0 -88 24t-54 26l32 50q37 -64 110 -64q35 0 59 19t24 53q0 76 -136 76v34q57 0 89 21t32 54q0 30 -20.5 47.5t-52.5 17.5q-53 0 -94 -51l-25 48q7 2 47 20.5t72 18.5q50 0 83 -26t33 -74q0 -68 -78 -90q40 -6 67 -30.5t27 -65.5q0 -51 -36.5 -79.5
t-90.5 -28.5z" />
    <glyph glyph-name="uni2084" unicode="&#x2084;" 
d="M222 -74h-176v29l174 245h43v-239q41 0 58 13v-48h-58v-23q0 -65 15 -85h-71q15 20 15 85v23zM222 -39v186l-132 -186h132z" />
    <glyph glyph-name="uni2085" unicode="&#x2085;" 
d="M180 -190q-42 0 -86 23.5t-52 25.5l31 49q33 -62 109 -62q39 0 64.5 24.5t25.5 65.5t-25 65t-65 24q-47 0 -84 -20l-24 8l18 191h137q49 0 65 12v-63q-16 12 -65 12h-102l-11 -118q30 14 71 14q54 0 91 -33.5t37 -91.5t-38 -92t-97 -34z" />
    <glyph glyph-name="uni2086" unicode="&#x2086;" 
d="M191 -194q-64 0 -103 50t-39 139q0 108 45.5 162.5t109.5 54.5q20 0 46.5 -5t37.5 -4l-16 -55q-22 28 -68 28q-41 0 -74.5 -41.5t-37.5 -119.5q43 46 103 46q58 0 91 -34.5t33 -90.5q0 -57 -36 -93.5t-92 -36.5zM194 25q-61 0 -102 -54q4 -60 30.5 -94.5t68.5 -34.5
q38 0 62 26.5t24 66.5t-22.5 65t-60.5 25z" />
    <glyph glyph-name="uni2087" unicode="&#x2087;" 
d="M139 -182q6 111 34.5 188.5t96.5 155.5h-151q-51 0 -70 -15v61q19 -8 70 -8h198v-37q-74 -82 -102 -159t-31 -186h-45z" />
    <glyph glyph-name="uni2088" unicode="&#x2088;" 
d="M181 -194q-59 0 -95.5 31t-36.5 78q0 35 23 63t58 43v4q-64 25 -64 87q0 43 33.5 71.5t81.5 28.5q50 0 84 -28t34 -72q0 -33 -19.5 -56.5t-45.5 -35.5v-4q36 -12 57.5 -39t21.5 -60q0 -49 -37.5 -80t-94.5 -31zM201 32q56 32 56 82q0 27 -22 44t-54 17q-30 0 -51.5 -18
t-21.5 -45q0 -57 93 -80zM181 -160q38 0 64 21.5t26 54.5q0 34 -30 54.5t-80 35.5q-70 -33 -70 -90q0 -31 25 -53.5t65 -22.5z" />
    <glyph glyph-name="uni2089" unicode="&#x2089;" 
d="M172 212q64 0 103 -50t39 -139q0 -108 -45.5 -162.5t-109.5 -54.5q-20 0 -47 5t-38 4l17 55q22 -28 68 -28q41 0 74.5 41.5t37.5 119.5q-41 -46 -103 -46q-58 0 -91 34t-33 91t36 93.5t92 36.5zM169 -7q61 0 102 54q-4 60 -30.5 94.5t-68.5 34.5q-38 0 -62 -26.5
t-24 -66.5t22.5 -65t60.5 -25z" />
    <glyph glyph-name="Euro" unicode="&#x20ac;" horiz-adv-x="515" 
d="M453 78l21 -66q-6 -1 -42 -9t-62.5 -11.5t-54.5 -3.5q-197 0 -224 240h-11q-40 0 -56 -10v54h63q0 56 1 67h-64v54q16 -10 56 -10h11q28 235 220 235q64 0 153 -28l-19 -65q-30 46 -134 46q-141 0 -166 -188h157q40 0 56 10v-54h-217q-1 -9 -1 -33.5t1 -33.5h217v-54
q-16 10 -56 10h-157q24 -193 171 -193q105 0 137 43z" />
    <glyph glyph-name="trademark" unicode="&#x2122;" horiz-adv-x="658" 
d="M100 664h90q42 0 55 5v-52q-14 10 -55 10h-25v-165q0 -43 9 -64h-57q8 22 8 64v165h-25q-40 0 -54 -10v52q12 -5 54 -5zM527 398q9 21 9 64v143l-104 -179l-106 179l1 -143q0 -43 9 -64h-57q9 21 9 64v138q0 42 -9 64h55l98 -169l97 169h54q-8 -23 -8 -64v-138
q0 -43 9 -64h-57z" />
    <glyph glyph-name="uni2150" unicode="&#x2150;" horiz-adv-x="862" 
d="M582 668h44l-358 -680h-44zM176 578h-85v33q83 0 127 37v-330l87 -12v-32h-221v32l92 12v260zM638 0q5 110 33.5 187.5t97.5 156.5h-151q-51 0 -70 -15v61q19 -8 70 -8h198v-37q-74 -82 -102 -159t-31 -186h-45z" />
    <glyph glyph-name="uni2151" unicode="&#x2151;" horiz-adv-x="838" 
d="M583 668h45l-358 -680h-45zM176 578h-85v33q83 0 127 37v-330l87 -12v-32h-221v32l92 12v260zM646 394q64 0 103 -50t39 -139q0 -108 -45.5 -162.5t-108.5 -54.5q-20 0 -47 5t-38 4l17 55q22 -28 68 -28q41 0 74.5 41.5t37.5 119.5q-44 -46 -103 -46q-58 0 -91 34t-33 91
t36 93.5t91 36.5zM644 175q60 0 101 54q-4 60 -30.5 94.5t-67.5 34.5q-39 0 -62.5 -26.5t-23.5 -66.5t22.5 -65t60.5 -25z" />
    <glyph glyph-name="uni2152" unicode="&#x2152;" horiz-adv-x="1124" 
d="M596 668h45l-358 -680h-45zM176 578h-85v33q83 0 127 37v-330l87 -12v-32h-221v32l92 12v260zM943 -12q-66 0 -104 51t-38 147q0 94 38 145t104 51t104.5 -51t38.5 -145q0 -96 -38.5 -147t-104.5 -51zM630 304h-85v33q82 0 128 37v-330l86 -12v-32h-220v32l91 12v260z
M943 26q45 0 71 41t26 119q0 77 -26 117.5t-71 40.5t-71 -40.5t-26 -117.5q0 -78 26 -119t71 -41z" />
    <glyph glyph-name="uni2153" unicode="&#x2153;" horiz-adv-x="841" 
d="M591 668h45l-358 -680h-45zM176 578h-85v33q83 0 127 37v-330l87 -12v-32h-221v32l92 12v260zM661 -12q-41 0 -87 24t-54 26l32 50q16 -29 45 -46.5t64 -17.5t59.5 19t24.5 53q0 76 -137 76v34q57 0 89 21t32 54q0 30 -20 47.5t-53 17.5q-52 0 -93 -51l-26 48
q8 2 48 20.5t71 18.5q51 0 84 -26t33 -74q0 -68 -78 -90q40 -6 67 -30.5t27 -65.5q0 -51 -36.5 -79.5t-91.5 -28.5z" />
    <glyph glyph-name="uni2154" unicode="&#x2154;" horiz-adv-x="836" 
d="M591 668h45l-358 -680h-44zM54 308q103 76 147.5 126.5t44.5 99.5q0 39 -21.5 62t-54.5 23q-31 0 -56.5 -16.5t-38.5 -43.5l-29 48q9 2 48.5 25.5t75.5 23.5q53 0 87 -33t34 -89t-42 -107.5t-126 -114.5h107q58 0 83 15v-53h-259v34zM655 -12q-41 0 -87 24t-54 26l32 50
q37 -64 109 -64q35 0 59.5 19t24.5 53q0 76 -137 76v34q57 0 89 21t32 54q0 30 -20 47.5t-53 17.5q-52 0 -93 -51l-26 48q8 2 48 20.5t71 18.5q51 0 84 -26t33 -74q0 -68 -78 -90q40 -6 67 -30.5t27 -65.5q0 -51 -36.5 -79.5t-91.5 -28.5z" />
    <glyph glyph-name="uni2155" unicode="&#x2155;" horiz-adv-x="836" 
d="M596 668h44l-358 -680h-44zM176 578h-85v33q83 0 127 37v-330l87 -12v-32h-221v32l92 12v260zM653 -12q-42 0 -87 23.5t-52 25.5l32 49q33 -62 108 -62q39 0 64.5 24.5t25.5 65.5t-25 65t-65 24q-46 0 -83 -20l-25 8l19 191h137q49 0 65 12v-63q-16 12 -65 12h-102
l-12 -118q32 14 72 14q54 0 91 -33.5t37 -91.5t-38 -92t-97 -34z" />
    <glyph glyph-name="uni2156" unicode="&#x2156;" horiz-adv-x="831" 
d="M596 668h44l-358 -680h-44zM54 308q103 76 147.5 126.5t44.5 99.5q0 39 -21.5 62t-54.5 23q-31 0 -56.5 -16.5t-38.5 -43.5l-29 48q9 2 48.5 25.5t75.5 23.5q53 0 87 -33t34 -89t-42 -107.5t-126 -114.5h107q58 0 83 15v-53h-259v34zM648 -12q-42 0 -86 23.5t-52 25.5
l31 49q33 -62 109 -62q39 0 64 24.5t25 65.5t-24.5 65t-64.5 24q-47 0 -84 -20l-24 8l18 191h137q49 0 65 12v-63q-16 12 -65 12h-102l-12 -118q31 14 72 14q54 0 91 -33.5t37 -91.5t-38 -92t-97 -34z" />
    <glyph glyph-name="uni2157" unicode="&#x2157;" horiz-adv-x="818" 
d="M574 668h45l-358 -680h-45zM183 262q-42 0 -88 24t-54 26l32 50q37 -64 110 -64q35 0 59 19t24 53q0 76 -136 76v34q57 0 89 21t32 54q0 30 -20.5 47.5t-52.5 17.5q-53 0 -94 -51l-25 48q7 2 47 20.5t72 18.5q50 0 83 -26t33 -74q0 -68 -78 -90q40 -6 67 -30.5t27 -65.5
q0 -51 -36.5 -79.5t-90.5 -28.5zM635 -12q-42 0 -87 23.5t-52 25.5l32 49q33 -62 108 -62q40 0 65 24.5t25 65.5t-24.5 65t-64.5 24q-47 0 -84 -20l-24 8l18 191h137q49 0 65 12v-63q-16 12 -65 12h-102l-12 -118q32 14 72 14q54 0 91 -33.5t37 -91.5t-38 -92t-97 -34z" />
    <glyph glyph-name="uni2158" unicode="&#x2158;" horiz-adv-x="824" 
d="M580 668h45l-358 -680h-45zM222 382h-176v29l174 245h43v-239q41 0 58 13v-48h-58v-23q0 -65 15 -85h-71q15 20 15 85v23zM222 417v186l-132 -186h132zM641 -12q-42 0 -87 23.5t-52 25.5l32 49q33 -62 108 -62q40 0 65 24.5t25 65.5t-24.5 65t-64.5 24q-47 0 -84 -20
l-24 8l18 191h137q49 0 65 12v-63q-16 12 -65 12h-102l-12 -118q32 14 72 14q54 0 91 -33.5t37 -91.5t-38 -92t-97 -34z" />
    <glyph glyph-name="uni2159" unicode="&#x2159;" horiz-adv-x="832" 
d="M597 668h45l-358 -680h-45zM176 578h-85v33q83 0 127 37v-330l87 -12v-32h-221v32l92 12v260zM660 -12q-64 0 -103 50t-39 139q0 108 45.5 162.5t109.5 54.5q20 0 47 -5t38 -4l-17 -55q-22 28 -68 28q-41 0 -74.5 -41.5t-37.5 -119.5q43 46 103 46q58 0 91 -34.5
t33 -90.5q0 -57 -36 -93.5t-92 -36.5zM663 207q-61 0 -102 -54q4 -60 30.5 -94.5t68.5 -34.5q38 0 62 26.5t24 66.5t-22.5 65t-60.5 25z" />
    <glyph glyph-name="uni215A" unicode="&#x215a;" horiz-adv-x="818" 
d="M180 262q-42 0 -86 23.5t-52 25.5l31 49q33 -62 109 -62q39 0 64.5 24.5t25.5 65.5t-25 65t-65 24q-47 0 -84 -20l-24 8l18 191h137q49 0 65 12v-63q-16 12 -65 12h-102l-11 -118q30 14 71 14q54 0 91 -33.5t37 -91.5t-38 -92t-97 -34zM581 668h45l-358 -680h-45z
M646 -12q-64 0 -103 50t-39 139q0 108 45.5 162.5t108.5 54.5q20 0 47 -5t38 -4l-17 -55q-21 28 -68 28q-41 0 -74.5 -41.5t-37.5 -119.5q44 46 104 46q58 0 91 -34.5t33 -90.5q0 -57 -36 -93.5t-92 -36.5zM648 207q-60 0 -101 -54q4 -60 30.5 -94.5t68.5 -34.5
q38 0 62 26.5t24 66.5t-23 65t-61 25z" />
    <glyph glyph-name="oneeighth" unicode="&#x215b;" horiz-adv-x="830" 
d="M593 668h45l-358 -680h-45zM176 578h-85v33q83 0 127 37v-330l87 -12v-32h-221v32l92 12v260zM648 -12q-59 0 -95.5 31t-36.5 78q0 35 22.5 63t57.5 43v4q-63 25 -63 87q0 43 33.5 71.5t81.5 28.5q50 0 84 -28t34 -72q0 -33 -19.5 -56.5t-45.5 -35.5v-4q35 -12 57 -39
t22 -60q0 -49 -38 -80t-94 -31zM668 214q56 32 56 82q0 26 -22.5 43.5t-53.5 17.5q-30 0 -51.5 -18t-21.5 -45q0 -57 93 -80zM648 22q38 0 63.5 21.5t25.5 54.5q0 35 -29.5 55t-79.5 35q-70 -33 -70 -90q0 -31 25 -53.5t65 -22.5z" />
    <glyph glyph-name="threeeighths" unicode="&#x215c;" horiz-adv-x="824" 
d="M580 668h45l-358 -680h-45zM183 262q-42 0 -88 24t-54 26l32 50q37 -64 110 -64q35 0 59 19t24 53q0 76 -136 76v34q57 0 89 21t32 54q0 30 -20.5 47.5t-52.5 17.5q-53 0 -94 -51l-25 48q7 2 47 20.5t72 18.5q50 0 83 -26t33 -74q0 -68 -78 -90q40 -6 67 -30.5t27 -65.5
q0 -51 -36.5 -79.5t-90.5 -28.5zM642 -12q-59 0 -95.5 31t-36.5 78q0 35 22.5 63t57.5 43v4q-63 25 -63 87q0 43 33.5 71.5t81.5 28.5q50 0 84 -28t34 -72q0 -33 -19.5 -56.5t-45.5 -35.5v-4q35 -12 57 -39t22 -60q0 -49 -38 -80t-94 -31zM662 214q56 32 56 82q0 27 -22 44
t-54 17q-30 0 -51.5 -18t-21.5 -45q0 -57 93 -80zM642 22q38 0 63.5 21.5t25.5 54.5q0 35 -29.5 55t-79.5 35q-70 -33 -70 -90q0 -31 25 -53.5t65 -22.5z" />
    <glyph glyph-name="fiveeighths" unicode="&#x215d;" horiz-adv-x="827" 
d="M180 262q-42 0 -86 23.5t-52 25.5l31 49q33 -62 109 -62q39 0 64.5 24.5t25.5 65.5t-25 65t-65 24q-47 0 -84 -20l-24 8l18 191h137q49 0 65 12v-63q-16 12 -65 12h-102l-11 -118q30 14 71 14q54 0 91 -33.5t37 -91.5t-38 -92t-97 -34zM584 668h44l-357 -680h-45z
M645 -12q-59 0 -95.5 31t-36.5 78q0 35 22.5 63t57.5 43v4q-63 25 -63 87q0 43 33.5 71.5t81.5 28.5q50 0 84 -28t34 -72q0 -33 -19.5 -56.5t-45.5 -35.5v-4q35 -12 57 -39t22 -60q0 -49 -38 -80t-94 -31zM665 214q56 32 56 82q0 27 -22 44t-54 17q-30 0 -51.5 -18
t-21.5 -45q0 -57 93 -80zM645 22q38 0 63.5 21.5t25.5 54.5q0 35 -29.5 55t-79.5 35q-70 -33 -70 -90q0 -31 25 -53.5t65 -22.5z" />
    <glyph glyph-name="seveneighths" unicode="&#x215e;" horiz-adv-x="800" 
d="M540 668h45l-358 -680h-44zM139 274q6 111 34.5 188.5t96.5 155.5h-151q-51 0 -70 -15v61q19 -8 70 -8h198v-37q-74 -82 -102 -159t-31 -186h-45zM618 -12q-59 0 -95.5 31t-36.5 78q0 35 22.5 63t57.5 43v4q-63 25 -63 87q0 43 33.5 71.5t81.5 28.5q50 0 84 -28t34 -72
q0 -33 -19.5 -56.5t-45.5 -35.5v-4q35 -12 57 -39t22 -60q0 -49 -38 -80t-94 -31zM638 214q56 32 56 82q0 26 -22.5 43.5t-53.5 17.5q-30 0 -51.5 -18t-21.5 -45q0 -57 93 -80zM618 22q38 0 63.5 21.5t25.5 54.5q0 35 -29.5 55t-79.5 35q-70 -33 -70 -90q0 -31 25 -53.5
t65 -22.5z" />
    <glyph glyph-name="uni2189" unicode="&#x2189;" horiz-adv-x="812" 
d="M571 668h44l-357 -680h-45zM182 262q-66 0 -104.5 51t-38.5 147q0 94 38.5 145t104.5 51q65 0 103.5 -51t38.5 -145q0 -95 -38.5 -146.5t-103.5 -51.5zM182 300q45 0 71 41t26 119q0 77 -26 117.5t-71 40.5q-46 0 -72 -40t-26 -118t26.5 -119t71.5 -41zM631 -12
q-41 0 -87 24t-54 26l32 50q37 -64 109 -64q35 0 59.5 19t24.5 53q0 76 -137 76v34q57 0 89.5 21t32.5 54q0 30 -20.5 47.5t-53.5 17.5q-52 0 -93 -51l-25 48q7 2 47 20.5t71 18.5q51 0 84 -26t33 -74q0 -68 -78 -90q40 -6 67 -30.5t27 -65.5q0 -51 -36.5 -79.5t-91.5 -28.5
z" />
    <glyph glyph-name="arrowleft" unicode="&#x2190;" horiz-adv-x="881" 
d="M799 336v-51l-594 1v-64q-56 59 -137 90q80 29 137 89v-64z" />
    <glyph glyph-name="arrowup" unicode="&#x2191;" horiz-adv-x="298" 
d="M238 593h-64v-593h-51v593h-63q58 56 89 138q31 -82 89 -138z" />
    <glyph glyph-name="arrowright" unicode="&#x2192;" horiz-adv-x="881" 
d="M676 401q56 -57 137 -89q-81 -32 -137 -89v64l-593 -1v51l593 1v63z" />
    <glyph glyph-name="arrowdown" unicode="&#x2193;" horiz-adv-x="296" 
d="M174 136h63q-58 -56 -89 -138q-31 82 -89 138h64v593h51v-593z" />
    <glyph glyph-name="arrowboth" unicode="&#x2194;" horiz-adv-x="879" 
d="M673 222v63l-468 1v-64q-55 58 -138 90q81 29 138 88v-62l468 -1v63q58 -59 137 -88q-81 -31 -137 -90z" />
    <glyph glyph-name="arrowupdn" unicode="&#x2195;" horiz-adv-x="309" 
d="M244 594h-64v-467h64q-60 -54 -90 -138q-28 83 -89 138h64v467h-64q61 58 89 138q30 -81 90 -138z" />
    <glyph glyph-name="uni2196" unicode="&#x2196;" horiz-adv-x="650" 
d="M597 72l-36 -36l-419 419l-46 -45q3 78 -34 161q83 -37 161 -34l-45 -45z" />
    <glyph glyph-name="uni2197" unicode="&#x2197;" horiz-adv-x="650" 
d="M587 570q-36 -78 -34 -160l-45 45l-420 -420l-36 37l420 420l-46 44q81 -2 161 34z" />
    <glyph glyph-name="uni2198" unicode="&#x2198;" horiz-adv-x="649" 
d="M552 197q-2 -81 34 -161q-77 35 -160 35l45 45l-420 419l36 36l421 -419z" />
    <glyph glyph-name="uni2199" unicode="&#x2199;" horiz-adv-x="649" 
d="M598 535l-419 -419l44 -45q-81 0 -160 -35q36 80 34 161l45 -45l420 419z" />
    <glyph glyph-name="partialdiff" unicode="&#x2202;" horiz-adv-x="500" 
d="M251 -12q-89 0 -149 58t-60 174q0 104 56.5 163.5t144.5 59.5q44 0 86 -20.5t69 -58.5q-20 92 -67 159.5t-126 121.5q-38 28 -72 29l26 54q144 -76 220.5 -195.5t76.5 -279.5q0 -124 -55.5 -194.5t-149.5 -70.5zM93 220q0 -93 44.5 -140t114.5 -47q56 0 95 37.5t53 96.5
t4 128q-29 51 -72.5 77t-83.5 26q-73 0 -114 -47.5t-41 -130.5z" />
    <glyph glyph-name="emptyset" unicode="&#x2205;" horiz-adv-x="501" 
d="M473 449q-27 -11 -64 -47q40 -53 40 -123q0 -87 -57 -142.5t-141 -55.5q-71 0 -123 40q-37 -38 -48 -65l-51 53q24 9 64 47q-40 53 -40 123q0 87 57 142.5t141 55.5q71 0 122 -39q36 36 48 63zM251 429q-64 0 -104.5 -41t-40.5 -109q0 -50 23 -87l210 211q-37 26 -88 26z
M251 129q64 0 104.5 41t40.5 109q0 50 -23 87l-210 -211q37 -26 88 -26z" />
    <glyph glyph-name="product" unicode="&#x220f;" horiz-adv-x="511" 
d="M387 612h-5v-603q0 -76 15 -107h-83q15 34 15 107v603h-156v-603q0 -76 15 -107h-83q15 34 15 107v603h-6q-60 0 -85 -15v67q30 -6 85 -6h273q65 0 96 6v-67q-26 15 -96 15z" />
    <glyph glyph-name="summation" unicode="&#x2211;" horiz-adv-x="461" 
d="M427 597q-28 18 -133 18h-179l215 -334l-215 -333h179q105 0 133 18v-70q-33 6 -133 6h-252l-2 47q31 16 78 90l155 242l-155 243q-46 71 -78 90l2 47h252q100 0 133 6v-70z" />
    <glyph glyph-name="minus" unicode="&#x2212;" horiz-adv-x="428" 
d="M40 298q21 -10 83 -10h183q61 0 82 10v-70q-24 10 -82 10h-183q-58 0 -82 -10z" />
    <glyph glyph-name="radical" unicode="&#x221a;" horiz-adv-x="507" 
d="M549 661q86 0 119 6v-70q-28 18 -119 18h-61l-190 -581q-32 -98 -30 -137h-89q2 40 -31 137l-64 192q-34 102 -54 130h82q-4 -33 22 -115l88 -282h6l221 702h100z" />
    <glyph glyph-name="infinity" unicode="&#x221e;" horiz-adv-x="779" 
d="M568 477q76 0 124.5 -47.5t48.5 -131.5q0 -83 -47.5 -132.5t-123.5 -49.5q-56 0 -107 38.5t-74 87.5q-24 -55 -73.5 -90.5t-105.5 -35.5q-75 0 -123.5 47.5t-48.5 130.5t47.5 133t123.5 50q57 0 107.5 -38.5t73.5 -88.5q24 56 73.5 91.5t104.5 35.5zM210 164
q52 0 94.5 37t62.5 85q-22 59 -65.5 100.5t-92.5 41.5q-53 0 -86 -37t-33 -97t34 -95t86 -35zM570 164q53 0 86 37t33 97t-34 95t-87 35q-51 0 -93.5 -36.5t-63.5 -85.5q23 -59 66.5 -100.5t92.5 -41.5z" />
    <glyph glyph-name="integral" unicode="&#x222b;" horiz-adv-x="335" 
d="M283 673q14 0 65 -7l-9 -60q-23 22 -60 22q-31 0 -44.5 -27.5t-20.5 -96.5l-42 -449q-8 -90 -35.5 -130t-83.5 -40q-5 0 -66 8l9 59q25 -21 61 -21q31 0 44.5 28t19.5 96l42 449q9 90 36.5 129.5t83.5 39.5z" />
    <glyph glyph-name="approxequal" unicode="&#x2248;" horiz-adv-x="411" 
d="M283 284q-27 0 -56 17.5t-53.5 35t-42.5 17.5q-42 0 -42 -59l-49 2q0 50 24.5 80t64.5 30q34 0 83 -35.5t69 -35.5q41 0 41 58l49 -1q0 -49 -24 -79t-64 -30zM283 136q-27 0 -56 18t-53.5 35.5t-42.5 17.5q-42 0 -42 -59l-49 1q0 50 24 80t65 30q34 0 83 -35t69 -35
q41 0 41 58l49 -1q0 -50 -24 -80t-64 -30z" />
    <glyph glyph-name="notequal" unicode="&#x2260;" horiz-adv-x="428" 
d="M306 306h-47l-40 -86h87q61 0 82 10v-71q-21 10 -82 10h-111l-29 -63l-41 19l21 44h-23q-61 0 -82 -10l-1 71q21 -10 83 -10h47l40 86h-87q-58 0 -82 -10l-1 70q21 -10 83 -10h110l30 63l40 -19l-21 -44h24q61 0 82 10v-70q-24 10 -82 10z" />
    <glyph glyph-name="lessequal" unicode="&#x2264;" horiz-adv-x="417" 
d="M299 255q55 -20 75 -19l-23 -64q-14 15 -73 38l-232 89v51l232 88q59 23 73 39l23 -64q-26 -1 -75 -20l-182 -68zM123 120h171q63 0 80 11l-1 -71q-20 10 -79 10h-171q-58 0 -78 -10l-1 71q17 -11 79 -11z" />
    <glyph glyph-name="greaterequal" unicode="&#x2265;" horiz-adv-x="417" 
d="M46 236q20 -1 75 19l183 70l-183 68q-49 19 -75 20l23 64q15 -16 73 -39l232 -88v-51l-232 -89q-59 -23 -73 -38zM297 120q62 0 79 11l-1 -71q-20 10 -78 10h-171q-59 0 -79 -10v71q17 -11 79 -11h171z" />
    <glyph glyph-name="lozenge" unicode="&#x25ca;" horiz-adv-x="512" 
d="M281 552l173 -276l-173 -276h-50l-173 276l173 276h50zM256 43l146 233l-146 233l-145 -233z" />
    <glyph glyph-name="uni261A" unicode="&#x261a;" horiz-adv-x="1504" 
d="M617 -15q-23 14 -46 47t-23 43q0 17 14.5 54t32.5 69q-2 5 -7.5 8.5t-9.5 2.5q-21 -27 -38 -62t-17 -46q0 -8 15.5 -49t20.5 -48q-45 -11 -59 19q-5 11 -19 36.5t-21.5 42.5t-7.5 26q0 16 19.5 58.5t48.5 79.5q-12 15 -17 15q-25 -30 -47.5 -69t-22.5 -47q0 -7 5.5 -38
t7.5 -38q-21 -8 -32 -1.5t-23 34.5l-24 55q-8 19 1 39q29 65 95 132q-7 9 -14 9q-3 0 -16.5 -11t-20.5 -20q-54 0 -95 6t-42 6q-33 -10 -83 -17t-80 -4q-43 4 -51 38q-5 21 7 26q62 19 171 38.5t191 27.5q14 1 42.5 9.5t42.5 8.5q57 0 198.5 -27.5t205.5 -27.5q18 0 56 5
t59 4q28 -1 51.5 -62.5t23.5 -126.5q0 -39 -9 -64.5t-24 -25.5q-8 0 -54.5 7.5t-63.5 7.5q-23 0 -98 -40t-112 -41q-32 0 -69 39q-4 -14 -18 -28.5t-29 -21.5q12 -6 18 -21q30 24 51 24t21 -16q0 -26 -79 -65q-5 -2 -13.5 -2t-12.5 2zM1097 33q35 17 55 74t20 138
q0 63 -21 121.5t-54 65.5h257q28 0 50.5 -31.5t33 -73.5t10.5 -82q0 -81 -28.5 -146.5t-79.5 -65.5h-243zM1259 72q11 0 18.5 8t7.5 19t-7.5 18.5t-18.5 7.5q-10 0 -17.5 -8t-7.5 -18q0 -11 7.5 -19t17.5 -8z" />
    <glyph glyph-name="uni261B" unicode="&#x261b;" horiz-adv-x="1489" 
d="M863 -15q-79 39 -79 65q0 16 21 16t51 -24q6 15 18 21q-15 7 -29 21.5t-18 28.5q-37 -39 -69 -39q-37 1 -112 41t-98 40q-17 0 -63.5 -7.5t-54.5 -7.5q-15 0 -24 25.5t-9 64.5q0 65 23.5 126.5t51.5 62.5q21 1 59 -4t56 -5q64 0 205.5 27.5t198.5 27.5q14 0 42.5 -8.5
t42.5 -9.5q82 -8 191 -27.5t171 -38.5q12 -4 7 -25q-7 -32 -45 -38l-6 -1q-30 -3 -80 4t-83 17q-1 0 -42 -6t-95 -6q-7 9 -20.5 20t-16.5 11q-7 0 -14 -9q66 -67 95 -132q9 -20 1 -39l-24 -55q-12 -28 -23 -34.5t-32 1.5q2 7 7.5 38t5.5 38q0 8 -22.5 47t-47.5 69
q-4 0 -17 -15q29 -37 48.5 -79.5t19.5 -58.5q0 -9 -7.5 -26t-21.5 -42.5t-19 -36.5q-14 -30 -59 -19q5 7 20.5 48t15.5 49q0 11 -17 46t-38 62q-4 1 -9.5 -2.5t-7.5 -8.5q18 -32 32.5 -69t14.5 -54q0 -10 -23 -43t-46 -47q-4 -2 -12.5 -2t-13.5 2zM166 33q-51 0 -79.5 65.5
t-28.5 146.5q0 40 10.5 82t33 73.5t50.5 31.5h257q-33 -7 -54 -65.5t-21 -121.5q0 -81 20 -138t55 -74h-243zM247 72q10 0 17.5 8t7.5 19q0 10 -7.5 18t-17.5 8q-11 0 -18.5 -7.5t-7.5 -18.5t7.5 -19t18.5 -8z" />
    <glyph glyph-name="uni261C" unicode="&#x261c;" horiz-adv-x="985" 
d="M883 206q26 -5 36 -16.5t10 -37.5q0 -34 -12 -57t-36 -22l-130 9q-41 -27 -89 -27q-68 0 -160 25l-54 -2q-19 -1 -30.5 11.5t-11.5 26.5q0 15 7 24h-2q-20 -1 -31.5 11.5t-11.5 32.5q0 14 7 25q-39 4 -39 41q0 5 2 15q-59 -2 -65 36l-127 10q-64 4 -64 47q0 32 40 33
l349 7q61 24 94 24h38q38 0 77 -22t65 -51l133 10q22 1 37.5 -27t15.5 -64q0 -40 -45 -52l-23 -6zM883 88q15 -1 23 17.5t8 46.5q0 20 -6.5 27.5t-24.5 11.5l-47 11v13l50 16q30 9 30 37q0 31 -11 54t-27 22l-122 -10q7 -10 9 -19q-31 37 -74 64.5t-88 27.5h-38
q-31 0 -122.5 -37.5t-154.5 -40.5l-1 -19q-1 -18 19.5 -25.5t52.5 -2.5l93 15q15 2 46.5 -3t38.5 -5q22 0 69 27q-30 -28 -50 -37q33 -52 77 -70t102 -19q-113 -15 -172 56q-5 -14 -12 -20q41 -6 41 -40q0 -18 -14 -30q24 -10 24 -33q0 -14 -10.5 -26.5t-31.5 -13.5h-9
q62 -13 111 -13q72 0 151 82q-17 -32 -43 -55zM273 343q67 0 161 40l-310 -7q-24 0 -24 -18q0 -29 46 -32l127 -8v25zM352 250q0 -26 35 -25l131 6q30 1 30 22q0 14 -19 22q-2 0 -33 4.5t-45 2.5l-92 -15h-1q-6 -7 -6 -17zM384 184q0 -13 7 -21.5t20 -7.5l135 7q30 1 30 24
q0 29 -48 29q-3 -1 -10 -1l-121 -5q-13 -4 -13 -25zM446 93l114 5q27 1 27 25q0 21 -32 25q-2 -1 -6 -1l-119 -6q-9 -9 -9 -25q0 -9 7 -16.5t18 -6.5z" />
    <glyph glyph-name="uni261D" unicode="&#x261d;" horiz-adv-x="548" 
d="M438 44l9 -130q1 -24 -22 -36t-57 -12q-26 0 -37.5 10t-16.5 36l-4 20l-6 -23q-12 -45 -52 -45q-36 0 -64 15.5t-27 37.5l10 133q-29 26 -51 65t-22 77v38q0 33 24 94l7 349q1 40 33 40q43 0 47 -64l10 -127q38 -6 36 -65q10 2 15 2q37 0 41 -39q11 7 25 7
q20 0 32.5 -11.5t11.5 -31.5v-2q9 7 24 7q14 0 26.5 -11.5t11.5 -30.5l-2 -54q25 -92 25 -160q0 -48 -27 -89zM144 671l-7 -310q40 94 40 161h25l-8 127q-3 46 -32 46q-18 0 -18 -24zM368 -119q28 0 46.5 8t17.5 23l-9 113q-23 -26 -55 -43q82 79 82 151q0 49 -13 111v-9
q-1 -21 -13.5 -31.5t-26.5 -10.5q-23 0 -33 24q-12 -14 -30 -14q-34 0 -40 41q-6 -7 -20 -12q71 -59 56 -172q-1 58 -19 102t-70 77q-9 -20 -37 -50q27 47 27 69q0 7 -5 38.5t-3 46.5l15 93q5 32 -2.5 52.5t-25.5 19.5l-19 -1q-3 -63 -40.5 -154.5t-37.5 -122.5v-38
q0 -45 27.5 -88t64.5 -74q-9 2 -19 9l-10 -122q-1 -16 22 -27t54 -11q28 0 37 30l16 50h13l11 -47q4 -18 11.5 -24.5t27.5 -6.5zM270 443q-10 0 -17 -6v-1l-15 -92q-1 -16 -0.5 -25t3.5 -26.5t4 -26.5q8 -19 22 -19q21 0 22 30l6 131q1 35 -25 35zM336 411q-21 0 -25 -13
l-5 -121q0 -7 -1 -10q0 -48 29 -48q23 0 24 30l7 135q1 13 -7.5 20t-21.5 7zM379 365l-6 -119q0 -4 -1 -6q4 -32 25 -32q24 0 25 27l5 114q1 11 -6.5 18t-16.5 7q-16 0 -25 -9z" />
    <glyph glyph-name="uni261E" unicode="&#x261e;" horiz-adv-x="936" 
d="M877 391q40 -1 40 -33q0 -43 -64 -47l-127 -10q-6 -38 -65 -36q2 -10 2 -15q0 -37 -39 -41q7 -11 7 -25q0 -20 -11.5 -32.5t-31.5 -11.5h-2q7 -9 7 -24q0 -14 -11.5 -26.5t-30.5 -11.5l-54 2q-92 -25 -160 -25q-48 0 -89 27l-130 -9q-24 -1 -36 22t-12 57q0 26 10 37.5
t36 16.5l20 4l-23 6q-45 12 -45 52q0 36 15.5 64t37.5 27l133 -10q26 29 65 51t77 22h38q33 0 94 -24zM640 282q32 -5 52.5 2.5t19.5 25.5l-1 19q-63 3 -154.5 40.5t-122.5 37.5h-38q-45 0 -88 -27.5t-74 -64.5q2 9 9 19l-122 10q-16 1 -27 -22t-11 -54q0 -28 30 -37l50 -16
v-13l-47 -11q-18 -4 -24.5 -11.5t-6.5 -27.5q0 -28 8 -46.5t23 -17.5l113 9q-26 23 -43 55q79 -82 151 -82q49 0 111 13h-9q-21 1 -31.5 13.5t-10.5 26.5q0 23 24 33q-14 12 -14 30q0 34 41 40q-7 6 -12 20q-59 -71 -172 -56q58 1 102 19t77 70q-20 9 -50 37q47 -27 69 -27
q7 0 38.5 5t46.5 3zM853 326q46 3 46 32q0 18 -24 18l-310 7q94 -40 161 -40v-25zM647 250q0 10 -6 17h-1l-92 15q-16 1 -25 0.5t-26.5 -3.5t-26.5 -4q-19 -8 -19 -22q0 -21 30 -22l131 -6q35 -1 35 25zM588 155q13 -1 20 7.5t7 21.5q0 21 -13 25l-121 5q-7 0 -10 1
q-48 0 -48 -29q0 -23 30 -24zM578 116q0 16 -9 25l-119 6q-4 0 -6 1q-32 -4 -32 -25q0 -24 27 -25l114 -5q11 -1 18 6.5t7 16.5z" />
    <glyph glyph-name="uni261F" unicode="&#x261f;" horiz-adv-x="473" 
d="M421 284l2 -54q1 -19 -11.5 -30.5t-26.5 -11.5q-15 0 -24 7v-2q1 -20 -11.5 -31.5t-32.5 -11.5q-14 0 -25 7q-4 -39 -41 -39q-5 0 -15 2q2 -59 -36 -65l-10 -127q-4 -64 -47 -64q-32 0 -33 40l-7 349q-24 61 -24 94v38q0 38 22 77t51 65l-10 133q-1 22 27 37.5t64 15.5
q40 0 52 -45l6 -23l4 20q5 26 16.5 36t37.5 10q34 0 57 -12t22 -36l-9 -130q27 -41 27 -89q0 -68 -25 -160zM191 69q18 -1 25.5 19.5t2.5 52.5l-15 93q-2 15 3 46.5t5 38.5q0 22 -27 69q28 -30 37 -50q52 33 70 77t19 102q15 -113 -56 -172q14 -5 20 -12q6 41 40 41
q18 0 30 -14q10 24 33 24q14 0 26.5 -10.5t13.5 -31.5v-9q13 62 13 111q0 72 -82 151q32 -17 55 -43l9 113q1 15 -17.5 23t-46.5 8q-20 0 -27.5 -6.5t-11.5 -24.5l-11 -47h-13l-16 50q-9 30 -37 30q-31 0 -54 -11t-22 -27l10 -122q10 7 19 9q-37 -31 -64.5 -74t-27.5 -88
v-38q0 -31 37.5 -122.5t40.5 -154.5zM385 203q9 0 16.5 7t6.5 18l-5 114q-1 27 -25 27q-21 0 -25 -32q1 -2 1 -6l6 -119q9 -9 25 -9zM317 166q13 0 21.5 7t7.5 20l-7 135q-1 30 -24 30q-29 0 -29 -48q1 -3 1 -10l5 -121q4 -13 25 -13zM251 134q26 0 25 35l-6 131
q-1 30 -22 30q-14 0 -22 -19q0 -2 -4.5 -33t-2.5 -45l15 -92v-1q8 -6 17 -6zM143 -118q29 0 32 46l8 127h-25q0 67 -40 161l7 -310q0 -24 18 -24z" />
    <glyph glyph-name="K.ss04" horiz-adv-x="576" 
d="M82 658h83q-15 -29 -15 -107v-255h2l247 288q39 46 47 74h93l-14 -10t-14.5 -12t-11.5 -11t-13 -14t-11.5 -12.5t-13.5 -15t-13 -14.5l-137 -161q43 -128 96 -231.5t122 -187.5t157 -130.5t188 -46.5q81 0 143 32l-11 -59q-58 -25 -140 -25q-92 0 -173 33.5t-142.5 88
t-115.5 134t-92.5 162t-72.5 181.5l-120 -138v-114q0 -78 15 -107h-83q15 27 15 107v444q0 80 -15 107z" />
    <glyph glyph-name="uni0136.ss04" horiz-adv-x="576" 
d="M82 658h83q-15 -29 -15 -107v-255h2l247 288q39 46 47 74h93l-14 -10t-14.5 -12t-11.5 -11t-13 -14t-11.5 -12.5t-13.5 -15t-13 -14.5l-137 -161q43 -128 96 -231.5t122 -187.5t157 -130.5t188 -46.5q81 0 143 32l-11 -59q-58 -25 -140 -25q-92 0 -173 33.5t-142.5 88
t-115.5 134t-92.5 162t-72.5 181.5l-120 -138v-114q0 -78 15 -107h-83q15 27 15 107v444q0 80 -15 107zM301 -47q44 0 44 -57q0 -35 -19.5 -67t-56.5 -47l-12 21q50 23 54 76q-4 -2 -10 -2q-13 0 -24 10t-11 27q0 19 10 29t25 10z" />
    <glyph glyph-name="Q.ss05" horiz-adv-x="650" 
d="M762 -186q186 0 311 96l-8 -67q-130 -83 -304 -83q-143 0 -263 61.5t-174 166.5q-122 1 -196 87t-74 257q0 173 73.5 255.5t197.5 82.5q123 0 197 -82.5t74 -255.5q0 -150 -58.5 -235.5t-156.5 -103.5q56 -88 158.5 -133.5t222.5 -45.5zM109 332q0 -148 59 -222t157 -74
q97 0 156.5 74.5t59.5 221.5q0 150 -58.5 220t-157.5 70t-157.5 -70t-58.5 -220z" />
    <glyph glyph-name="R.ss06" horiz-adv-x="558" 
d="M82 0q15 27 15 107v444q0 80 -15 107h190q117 0 176.5 -43t59.5 -144q0 -158 -153 -190q38 -101 86 -183t109.5 -147.5t140.5 -102t169 -36.5q85 0 144 32l-12 -58q-54 -26 -141 -26q-103 0 -192 41.5t-156.5 116t-117.5 162.5t-88 195h-147v-168q0 -78 15 -107h-83z
M150 320h119q185 0 185 151q0 78 -45.5 110t-143.5 32h-115v-293z" />
    <glyph glyph-name="Racute.ss06" horiz-adv-x="558" 
d="M235 742q80 50 140 143l36 -38q-62 -81 -159 -132zM82 0q15 27 15 107v444q0 80 -15 107h190q117 0 176.5 -43t59.5 -144q0 -158 -153 -190q38 -101 86 -183t109.5 -147.5t140.5 -102t169 -36.5q85 0 144 32l-12 -58q-54 -26 -141 -26q-103 0 -192 41.5t-156.5 116
t-117.5 162.5t-88 195h-147v-168q0 -78 15 -107h-83zM150 320h119q185 0 185 151q0 78 -45.5 110t-143.5 32h-115v-293z" />
    <glyph glyph-name="Rcaron.ss06" horiz-adv-x="558" 
d="M247 713q-45 84 -116 144l22 22q72 -51 117 -123h4q45 72 117 123l22 -22q-67 -57 -116 -144h-50zM82 0q15 27 15 107v444q0 80 -15 107h190q117 0 176.5 -43t59.5 -144q0 -158 -153 -190q38 -101 86 -183t109.5 -147.5t140.5 -102t169 -36.5q85 0 144 32l-12 -58
q-54 -26 -141 -26q-103 0 -192 41.5t-156.5 116t-117.5 162.5t-88 195h-147v-168q0 -78 15 -107h-83zM150 320h119q185 0 185 151q0 78 -45.5 110t-143.5 32h-115v-293z" />
    <glyph glyph-name="uni0156.ss06" horiz-adv-x="558" 
d="M82 0q15 27 15 107v444q0 80 -15 107h190q117 0 176.5 -43t59.5 -144q0 -158 -153 -190q38 -101 86 -183t109.5 -147.5t140.5 -102t169 -36.5q85 0 144 32l-12 -58q-54 -26 -141 -26q-103 0 -192 41.5t-156.5 116t-117.5 162.5t-88 195h-147v-168q0 -78 15 -107h-83z
M150 320h119q185 0 185 151q0 78 -45.5 110t-143.5 32h-115v-293zM290 -47q44 0 44 -57q0 -35 -19.5 -67t-56.5 -47l-12 21q50 23 54 76q-4 -2 -10 -2q-13 0 -24 10t-11 27q0 19 10 29t25 10z" />
    <glyph glyph-name="i.loclTRK" horiz-adv-x="224" 
d="M112 572q-41 0 -41 43q0 42 41 42t41 -42q0 -43 -41 -43zM78 0q9 33 9 107v267q0 74 -9 107h67q-7 -36 -7 -107v-267q0 -72 8 -107h-68z" />
    <glyph glyph-name="a.inferior" horiz-adv-x="359" 
d="M147 -179q-50 0 -79.5 26.5t-29.5 74.5q0 106 166 106h51v29q0 90 -81 90q-31 0 -58.5 -12.5t-41.5 -30.5l-21 50q3 1 46.5 17.5t77.5 16.5q126 0 126 -132v-139q0 -66 13 -88h-58l1 52h-3q-16 -26 -46 -43t-63 -17zM154 -141q28 0 55.5 19t45.5 53v61h-51
q-117 0 -117 -68q0 -31 18.5 -48t48.5 -17z" />
    <glyph glyph-name="b.inferior" horiz-adv-x="394" 
d="M218 -179q-66 0 -106 42h-4l1 -33h-55q9 21 9 81v357q0 58 -11 80h67q-8 -23 -8 -80v-128q41 48 108 48q68 0 104.5 -47t36.5 -133q0 -89 -37 -138t-105 -49zM210 -137q50 0 75.5 37.5t25.5 106.5q0 66 -25.5 103t-74.5 37q-59 0 -100 -55v-176q39 -53 99 -53z" />
    <glyph glyph-name="c.inferior" horiz-adv-x="331" 
d="M190 -179q-71 0 -113 43.5t-42 139.5q0 97 42.5 140.5t112.5 43.5q17 0 34.5 -3.5t27.5 -7t24.5 -10t18.5 -7.5l-23 -51q-30 38 -79 38q-108 0 -108 -143q0 -141 108 -141q60 0 89 39l23 -52q-4 -1 -21 -7.5t-28.5 -10.5t-30.5 -7.5t-35 -3.5z" />
    <glyph glyph-name="d.inferior" horiz-adv-x="395" 
d="M179 -179q-67 0 -105.5 47.5t-38.5 136.5q0 88 39.5 135.5t106.5 47.5q65 0 103 -42v122q0 60 -10 80h65q-7 -21 -7 -80v-357q0 -60 10 -81h-56l1 38h-4q-39 -47 -104 -47zM187 -137q26 0 53 15t44 42v174q-39 53 -96 53q-48 0 -75.5 -37t-27.5 -104q0 -69 27 -106
t75 -37z" />
    <glyph glyph-name="e.inferior" horiz-adv-x="365" 
d="M197 -179q-162 0 -162 183q0 93 42 138.5t110 45.5q66 0 102.5 -42.5t36.5 -117.5q0 -19 -2 -31h-240q1 -70 29.5 -102.5t87.5 -32.5q65 0 99 37l17 -50q-71 -28 -120 -28zM279 33q0 54 -24 84.5t-67 30.5q-48 0 -75 -30.5t-29 -84.5h195z" />
    <glyph glyph-name="f.inferior" horiz-adv-x="212" 
d="M70 145h-47v41h47v53q0 124 113 124q15 0 36 -3t24 -3l-8 -49q-17 15 -51 15q-66 0 -66 -85v-52h78v-46q-20 5 -78 5v-234q0 -59 11 -75h-68q9 16 9 75v234z" />
    <glyph glyph-name="g.inferior" horiz-adv-x="358" 
d="M339 135q-26 13 -73 13v-3q33 -33 33 -81q0 -58 -35 -90t-91 -32q-19 0 -39 5q-15 -13 -15 -31q0 -21 15.5 -28t59.5 -7q145 0 145 -95q0 -101 -160 -101q-70 0 -108.5 24t-38.5 71q0 57 62 85q-15 15 -15 43q0 30 26 50q-60 31 -60 107q0 59 35.5 91t92.5 32q28 0 51 -9
h44q41 0 71 6v-50zM173 -24q35 0 58 22t23 67q0 40 -23.5 63.5t-57.5 23.5q-36 0 -58.5 -21.5t-22.5 -65.5q0 -45 23 -67t58 -22zM191 -161q-43 0 -68 8q-46 -25 -46 -65q0 -60 103 -60q113 0 113 62q0 28 -24 41.5t-78 13.5z" />
    <glyph glyph-name="h.inferior" horiz-adv-x="391" 
d="M52 354h67q-8 -21 -8 -77v-106q0 -27 -3 -36h3q46 59 114 59q109 0 109 -134v-143q0 -61 11 -81h-68q9 18 9 81v140q0 49 -16.5 72.5t-53.5 23.5q-58 0 -105 -66v-170q0 -61 10 -81h-69q11 18 11 81v357q0 62 -11 80z" />
    <glyph glyph-name="i.inferior" horiz-adv-x="175" 
d="M88 258q-34 0 -34 34q0 33 34 33q35 0 35 -33q0 -34 -35 -34zM53 -167q11 20 11 81v189q0 59 -11 80h66q-7 -21 -7 -80v-189q0 -63 11 -81h-70z" />
    <glyph glyph-name="j.inferior" horiz-adv-x="176" 
d="M88 258q-34 0 -34 35q0 33 34 33t34 -33q0 -35 -34 -35zM20 -311q-12 0 -30.5 3t-24.5 3l11 51q15 -16 42 -16t36.5 19.5t9.5 57.5v296q0 57 -11 81h67q-8 -23 -8 -81v-295q0 -60 -21 -89.5t-71 -29.5z" />
    <glyph glyph-name="k.inferior" horiz-adv-x="352" 
d="M52 352h66q-7 -20 -7 -81v-254q0 -19 -3 -33h4l116 145q2 3 7.5 10t7 9.5t5 8.5t5 9t3 8t1.5 10h78q-26 -20 -71 -73l-56 -69l86 -132q33 -51 60 -77h-77q-2 26 -27 64l-71 111l-68 -82v-14q0 -59 10 -79h-69q11 19 11 81v357q0 63 -11 81z" />
    <glyph glyph-name="l.inferior" horiz-adv-x="175" 
d="M52 -168q11 18 11 80v358q0 60 -11 80h67q-8 -24 -8 -80v-358q0 -60 11 -80h-70z" />
    <glyph glyph-name="m.inferior" horiz-adv-x="595" 
d="M52 180h57l-1 -52h3q18 24 47 42t61 18q76 0 96 -67q53 67 117 67q106 0 106 -130v-147q0 -59 12 -81h-69q10 21 10 81v143q0 93 -68 93q-51 0 -98 -62v-174q0 -60 10 -81h-68q10 20 10 81v143q0 93 -68 93q-50 0 -98 -62v-174q0 -61 10 -81h-69q11 20 11 81v189
q0 62 -11 80z" />
    <glyph glyph-name="n.inferior" horiz-adv-x="391" 
d="M52 183h57q0 -34 -1 -54h3q18 24 49 41.5t66 17.5q108 0 108 -132v-138q0 -65 11 -88h-68q9 21 9 88v135q0 94 -70 94q-58 0 -105 -66v-163q0 -64 9 -88h-68q11 21 11 88v178q0 66 -11 87z" />
    <glyph glyph-name="o.inferior" horiz-adv-x="386" 
d="M194 -179q-73 0 -116 46t-43 137q0 92 43 138t116 46q72 0 115.5 -46t43.5 -138q0 -90 -43.5 -136.5t-115.5 -46.5zM194 -137q52 0 80.5 35.5t28.5 105.5t-28.5 106.5t-80.5 36.5q-109 0 -109 -143q0 -141 109 -141z" />
    <glyph glyph-name="p.inferior" horiz-adv-x="394" 
d="M111 -137v-95q0 -60 11 -81h-70q11 21 11 81v335q0 59 -11 80h57l-2 -43h4q42 48 108 48q68 0 104.5 -47t36.5 -133q0 -89 -38 -138t-104 -49q-65 0 -107 42zM210 -137q48 0 74.5 38t26.5 106q0 66 -25.5 103t-74.5 37q-59 0 -100 -55v-176q38 -53 99 -53z" />
    <glyph glyph-name="q.inferior" horiz-adv-x="394" 
d="M179 -179q-67 0 -105.5 47.5t-38.5 136.5q0 88 39.5 135.5t105.5 47.5q65 0 104 -42h4q-3 24 -3 37h56q-9 -26 -9 -80v-335q0 -58 11 -81h-70q11 23 11 79v66q0 11 3 35h-4q-39 -46 -104 -46zM186 -137q27 0 54 15.5t44 42.5v173q-39 53 -98 53q-47 0 -74 -37t-27 -104
q0 -69 26.5 -106t74.5 -37z" />
    <glyph glyph-name="r.inferior" horiz-adv-x="252" 
d="M52 180h57q0 -48 -1 -65h3q12 32 38 52.5t57 20.5q9 0 22 -1t17 -1l-11 -54q-12 14 -34 14q-26 0 -51.5 -26.5t-37.5 -68.5v-140q0 -60 11 -81h-70q11 18 11 81v189q0 61 -11 80z" />
    <glyph glyph-name="s.inferior" horiz-adv-x="304" 
d="M151 -179q-32 0 -79 13.5t-48 13.5l22 60q13 -21 42 -34.5t62 -13.5q78 0 78 63q0 41 -71 62l-22 7q-93 30 -93 101q0 44 31.5 69.5t83.5 25.5q19 0 38.5 -4t40.5 -10.5t28 -8.5l-21 -54q-27 39 -83 39q-33 0 -52.5 -15t-19.5 -40q0 -42 64 -62l24 -8q99 -30 99 -101
q0 -47 -32 -75t-92 -28z" />
    <glyph glyph-name="t.inferior" horiz-adv-x="241" 
d="M167 -179q-94 0 -94 109v213h-51v33q57 8 99 66v-62h94v-43q-25 6 -94 6v-210q0 -34 11.5 -53t43.5 -19q25 0 43 19l11 -52q-9 0 -30.5 -3.5t-32.5 -3.5z" />
    <glyph glyph-name="u.inferior" horiz-adv-x="390" 
d="M163 -179q-106 0 -106 138v141q0 58 -12 80h61v-218q0 -99 68 -99q63 0 105 74v163q0 58 -11 80h59v-269q0 -60 11 -81h-60q0 27 4 55h-5q-17 -28 -47 -46t-67 -18z" />
    <glyph glyph-name="v.inferior" horiz-adv-x="343" 
d="M7 180h71q-5 -24 12 -69l53 -154q10 -28 28 -84h4q19 57 29 84l52 154q17 47 13 69h67q-18 -24 -38 -81l-66 -184q-21 -59 -20 -85h-80q3 25 -20 85l-67 184q-22 60 -38 81z" />
    <glyph glyph-name="w.inferior" horiz-adv-x="506" 
d="M432 180h64q-18 -32 -32 -81l-51 -188q-14 -56 -14 -81h-74q2 30 -13 79l-59 211l-59 -211q-13 -49 -12 -79h-73q0 31 -14 81l-54 188q-18 60 -31 81h68q-5 -21 9 -72l60 -229l65 239q12 41 10 62h66q-1 -21 10 -63l64 -234l62 225q13 48 8 72z" />
    <glyph glyph-name="x.inferior" horiz-adv-x="320" 
d="M313 -170h-73q3 16 -18 48l-66 104l-64 -104q-19 -34 -16 -48h-69q17 14 42 55l81 129l-71 112q-28 42 -43 54h73q-2 -18 16 -48l59 -94l56 95q17 30 16 47h68q-19 -16 -42 -55l-72 -118l79 -121q25 -41 44 -56z" />
    <glyph glyph-name="y.inferior" horiz-adv-x="337" 
d="M65 -314q-7 0 -21.5 1.5t-20.5 0.5l11 57q13 -19 36 -19q56 0 82 81l7 23h-7l-107 269q-22 57 -41 81h72q-5 -21 12 -67l89 -232h2l77 232q15 45 9 67h67q-17 -27 -35 -81l-103 -298q-39 -115 -129 -115z" />
    <glyph glyph-name="z.inferior" horiz-adv-x="305" 
d="M21 -136q13 9 35 42l158 235h-93q-57 0 -79 -13v56q28 -4 67 -4h164l3 -34q-13 -12 -28 -34l-165 -242h114q64 0 86 12v-56q-32 4 -72 4h-186z" />
    <glyph glyph-name="a.ordn" horiz-adv-x="359" 
d="M147 299q-50 0 -79.5 26.5t-29.5 75.5q0 105 166 105h51v29q0 91 -81 91q-31 0 -58.5 -12.5t-41.5 -30.5l-21 50q3 0 46.5 16.5t77.5 16.5q126 0 126 -132v-138q0 -67 13 -88h-58l1 52h-3q-16 -26 -46 -43.5t-63 -17.5zM154 338q28 0 55.5 19t45.5 52v61h-51
q-117 0 -117 -68q0 -31 18.5 -47.5t48.5 -16.5z" />
    <glyph glyph-name="b.ordn" horiz-adv-x="394" 
d="M218 299q-66 0 -106 42h-4l1 -33h-55q9 21 9 81v357q0 58 -11 80h67q-8 -23 -8 -80v-128q41 48 108 48q68 0 104.5 -47t36.5 -133q0 -89 -37 -138t-105 -49zM210 341q50 0 75.5 37.5t25.5 106.5q0 66 -25.5 103t-74.5 37q-59 0 -100 -55v-176q39 -53 99 -53z" />
    <glyph glyph-name="c.ordn" horiz-adv-x="331" 
d="M190 299q-71 0 -113 43.5t-42 139.5q0 97 42.5 140.5t112.5 43.5q17 0 34.5 -3.5t27.5 -7t24.5 -10t18.5 -7.5l-23 -51q-30 38 -79 38q-108 0 -108 -143q0 -141 108 -141q60 0 89 39l23 -52q-4 -1 -21 -7.5t-28.5 -10.5t-30.5 -7.5t-35 -3.5z" />
    <glyph glyph-name="d.ordn" horiz-adv-x="395" 
d="M179 299q-67 0 -105.5 47.5t-38.5 136.5q0 88 39.5 135.5t106.5 47.5q65 0 103 -42v122q0 60 -10 80h65q-7 -21 -7 -80v-357q0 -60 10 -81h-56l1 38h-4q-39 -47 -104 -47zM187 341q26 0 53 15t44 42v174q-39 53 -96 53q-48 0 -75.5 -37t-27.5 -104q0 -69 27 -106t75 -37z
" />
    <glyph glyph-name="e.ordn" horiz-adv-x="365" 
d="M197 299q-162 0 -162 183q0 93 42 138.5t110 45.5q66 0 102.5 -42.5t36.5 -117.5q0 -19 -2 -31h-240q1 -70 29.5 -102.5t87.5 -32.5q65 0 99 37l17 -50q-71 -28 -120 -28zM279 511q0 54 -24 84.5t-67 30.5q-48 0 -75 -30.5t-29 -84.5h195z" />
    <glyph glyph-name="eacute.ordn" horiz-adv-x="365" 
d="M156 740q57 35 105 104l29 -32q-44 -58 -119 -95zM197 299q-162 0 -162 183q0 93 42 138.5t110 45.5q66 0 102.5 -42.5t36.5 -117.5q0 -19 -2 -31h-240q1 -70 29.5 -102.5t87.5 -32.5q65 0 99 37l17 -50q-71 -28 -120 -28zM279 511q0 54 -24 84.5t-67 30.5
q-48 0 -75 -30.5t-29 -84.5h195z" />
    <glyph glyph-name="egrave.ordn" horiz-adv-x="365" 
d="M256 740l-14 -23q-75 37 -120 95l30 32q48 -68 104 -104zM197 299q-162 0 -162 183q0 93 42 138.5t110 45.5q66 0 102.5 -42.5t36.5 -117.5q0 -19 -2 -31h-240q1 -70 29.5 -102.5t87.5 -32.5q65 0 99 37l17 -50q-71 -28 -120 -28zM279 511q0 54 -24 84.5t-67 30.5
q-48 0 -75 -30.5t-29 -84.5h195z" />
    <glyph glyph-name="f.ordn" horiz-adv-x="212" 
d="M70 617h-47v41h47v53q0 124 113 124q15 0 36 -3t24 -3l-8 -49q-17 15 -51 15q-66 0 -66 -85v-52h78v-46q-20 5 -78 5v-234q0 -59 11 -75h-68q9 16 9 75v234z" />
    <glyph glyph-name="g.ordn" horiz-adv-x="357" 
d="M339 613q-26 13 -73 13v-3q33 -33 33 -81q0 -58 -35 -90t-91 -32q-19 0 -39 5q-15 -13 -15 -31q0 -21 15.5 -28t59.5 -7q145 0 145 -95q0 -101 -160 -101q-70 0 -108.5 24t-38.5 71q0 57 62 85q-15 15 -15 43q0 30 26 50q-60 31 -60 107q0 59 35.5 91t92.5 32q28 0 51 -9
h44q41 0 71 6v-50zM173 454q35 0 58 22t23 67q0 40 -23.5 63.5t-57.5 23.5q-36 0 -58.5 -21.5t-22.5 -65.5q0 -45 23 -67t58 -22zM191 317q-43 0 -68 8q-46 -25 -46 -65q0 -60 103 -60q113 0 113 62q0 28 -24 41.5t-78 13.5z" />
    <glyph glyph-name="h.ordn" horiz-adv-x="391" 
d="M52 826h67q-8 -21 -8 -77v-106q0 -27 -3 -36h3q46 59 114 59q109 0 109 -134v-143q0 -60 11 -81h-68q9 19 9 81v140q0 49 -16.5 72.5t-53.5 23.5q-58 0 -105 -66v-170q0 -60 10 -81h-69q11 18 11 81v357q0 62 -11 80z" />
    <glyph glyph-name="i.ordn" horiz-adv-x="178" 
d="M88 733q-34 0 -34 34q0 33 34 33q35 0 35 -33q0 -34 -35 -34zM53 308q11 21 11 81v189q0 59 -11 80h66q-7 -21 -7 -80v-189q0 -62 11 -81h-70z" />
    <glyph glyph-name="j.ordn" horiz-adv-x="176" 
d="M88 733q-34 0 -34 34q0 33 34 33t34 -33q0 -34 -34 -34zM20 164q-12 0 -30.5 2.5t-24.5 2.5l11 52q15 -16 42 -16t36.5 19.5t9.5 57.5v296q0 57 -11 80h67q-8 -22 -8 -80v-296q0 -60 -21 -89t-71 -29z" />
    <glyph glyph-name="k.ordn" horiz-adv-x="352" 
d="M52 826h66q-7 -19 -7 -80v-254q0 -20 -3 -33h4l116 145l9 12t8 11t5.5 9t5 11t1.5 11h78q-28 -20 -71 -73l-56 -68l86 -133q31 -49 60 -76h-77q-2 26 -27 64l-71 110l-68 -81v-15q0 -59 10 -78h-69q11 18 11 81v357q0 62 -11 80z" />
    <glyph glyph-name="l.ordn" horiz-adv-x="175" 
d="M52 308q11 18 11 81v357q0 61 -11 80h67q-8 -23 -8 -80v-357q0 -60 11 -81h-70z" />
    <glyph glyph-name="m.ordn" horiz-adv-x="595" 
d="M52 658h57l-1 -52h3q18 24 47 42t61 18q76 0 96 -67q53 67 117 67q106 0 106 -130v-147q0 -59 12 -81h-69q10 21 10 81v143q0 93 -68 93q-51 0 -98 -62v-174q0 -60 10 -81h-68q10 20 10 81v143q0 93 -68 93q-50 0 -98 -62v-174q0 -61 10 -81h-69q11 20 11 81v189
q0 62 -11 80z" />
    <glyph glyph-name="n.ordn" horiz-adv-x="391" 
d="M52 661h57q0 -34 -1 -54h3q18 24 49 41.5t66 17.5q108 0 108 -132v-138q0 -65 11 -88h-68q9 21 9 88v135q0 94 -70 94q-58 0 -105 -66v-163q0 -64 9 -88h-68q11 21 11 88v178q0 66 -11 87z" />
    <glyph glyph-name="o.ordn" horiz-adv-x="386" 
d="M194 299q-73 0 -116 46t-43 137q0 92 43 138t116 46q72 0 115.5 -46t43.5 -138q0 -90 -43.5 -136.5t-115.5 -46.5zM194 341q52 0 80.5 35.5t28.5 105.5t-28.5 106.5t-80.5 36.5q-109 0 -109 -143q0 -141 109 -141z" />
    <glyph glyph-name="p.ordn" horiz-adv-x="394" 
d="M111 341v-95q0 -60 11 -81h-70q11 21 11 81v335q0 59 -11 80h57l-2 -43h4q42 48 108 48q68 0 104.5 -47t36.5 -133q0 -89 -38 -138t-104 -49q-65 0 -107 42zM210 341q48 0 74.5 38t26.5 106q0 66 -25.5 103t-74.5 37q-59 0 -100 -55v-176q38 -53 99 -53z" />
    <glyph glyph-name="q.ordn" horiz-adv-x="394" 
d="M179 299q-67 0 -105.5 47.5t-38.5 136.5q0 88 39.5 135.5t105.5 47.5q65 0 104 -42h4q-3 24 -3 37h56q-9 -26 -9 -80v-335q0 -58 11 -81h-70q11 23 11 79v66q0 11 3 35h-4q-39 -46 -104 -46zM186 341q27 0 54 15.5t44 42.5v173q-39 53 -98 53q-47 0 -74 -37t-27 -104
q0 -69 26.5 -106t74.5 -37z" />
    <glyph glyph-name="r.ordn" horiz-adv-x="252" 
d="M52 658h57q0 -48 -1 -65h3q12 32 38 52.5t57 20.5q9 0 22 -1t17 -1l-11 -54q-12 14 -34 14q-26 0 -51.5 -26.5t-37.5 -68.5v-140q0 -60 11 -81h-70q11 18 11 81v189q0 61 -11 80z" />
    <glyph glyph-name="s.ordn" horiz-adv-x="304" 
d="M151 299q-32 0 -79 13.5t-48 13.5l22 60q13 -21 42 -34.5t62 -13.5q78 0 78 63q0 41 -71 62l-22 7q-93 30 -93 101q0 44 31.5 69.5t83.5 25.5q19 0 38.5 -4t40.5 -10.5t28 -8.5l-21 -54q-27 39 -83 39q-33 0 -52.5 -15t-19.5 -40q0 -42 64 -62l24 -8q99 -30 99 -101
q0 -47 -32 -75t-92 -28z" />
    <glyph glyph-name="t.ordn" horiz-adv-x="242" 
d="M167 299q-94 0 -94 109v213h-51v33q57 8 99 66v-62h94v-43q-25 6 -94 6v-210q0 -34 11.5 -53t43.5 -19q25 0 43 19l11 -52q-9 0 -30.5 -3.5t-32.5 -3.5z" />
    <glyph glyph-name="u.ordn" horiz-adv-x="390" 
d="M163 299q-106 0 -106 138v141q0 58 -12 80h61v-218q0 -99 68 -99q63 0 105 74v163q0 58 -11 80h59v-269q0 -60 11 -81h-60q0 27 4 55h-5q-17 -28 -47 -46t-67 -18z" />
    <glyph glyph-name="v.ordn" horiz-adv-x="343" 
d="M7 658h71q-5 -24 12 -69l53 -154q10 -28 28 -84h4q19 57 29 84l52 154q17 47 13 69h67q-18 -24 -38 -81l-66 -184q-21 -59 -20 -85h-80q3 25 -20 85l-67 184q-22 60 -38 81z" />
    <glyph glyph-name="w.ordn" horiz-adv-x="506" 
d="M432 658h64q-18 -32 -32 -81l-51 -188q-14 -56 -14 -81h-74q2 30 -13 79l-59 211l-59 -211q-13 -49 -12 -79h-73q0 31 -14 81l-54 188q-18 60 -31 81h68q-5 -21 9 -72l60 -229l65 239q12 41 10 62h66q-1 -21 10 -63l64 -234l62 225q13 48 8 72z" />
    <glyph glyph-name="x.ordn" horiz-adv-x="320" 
d="M313 308h-73q3 16 -18 48l-66 104l-64 -104q-19 -34 -16 -48h-69q17 14 42 55l81 129l-71 112q-28 42 -43 54h73q-2 -18 16 -48l59 -94l56 95q17 30 16 47h68q-19 -16 -42 -55l-72 -118l79 -121q25 -41 44 -56z" />
    <glyph glyph-name="y.ordn" horiz-adv-x="337" 
d="M65 164q-7 0 -21.5 1.5t-20.5 0.5l11 57q13 -19 36 -19q56 0 82 81l7 23h-7l-107 269q-22 57 -41 81h72q-5 -21 12 -67l89 -232h2l77 232q15 45 9 67h67q-17 -27 -35 -81l-103 -298q-39 -115 -129 -115z" />
    <glyph glyph-name="z.ordn" horiz-adv-x="306" 
d="M21 342q13 9 35 42l158 235h-93q-57 0 -79 -13v56q28 -4 67 -4h164l3 -34q-13 -12 -28 -34l-165 -242h114q64 0 86 12v-56q-32 4 -72 4h-186z" />
    <glyph glyph-name="a.ss01" horiz-adv-x="529" 
d="M251 -12q-93 0 -147 65t-54 187q0 121 55 187t148 66t145 -64q-2 35 -11 57h64l-1 -379q0 -80 11 -107h-61l2 54h-4q-56 -66 -147 -66zM256 34q39 0 78.5 22.5t64.5 62.5v249q-26 37 -64.5 58t-77.5 21q-71 0 -112 -55t-41 -151q0 -98 40 -152.5t112 -54.5z" />
    <glyph glyph-name="aacute.ss01" horiz-adv-x="529" 
d="M245 590q80 50 140 143l36 -38q-62 -81 -159 -132zM251 -12q-93 0 -147 65t-54 187q0 121 55 187t148 66t145 -64q-2 35 -11 57h64l-1 -379q0 -80 11 -107h-61l2 54h-4q-56 -66 -147 -66zM256 34q39 0 78.5 22.5t64.5 62.5v249q-26 37 -64.5 58t-77.5 21q-71 0 -112 -55
t-41 -151q0 -98 40 -152.5t112 -54.5z" />
    <glyph glyph-name="abreve.ss01" horiz-adv-x="529" 
d="M282 564q-116 0 -112 142h33q0 -46 19.5 -75t59.5 -29t59 29t19 75h33q2 -62 -23.5 -102t-87.5 -40zM251 -12q-93 0 -147 65t-54 187q0 121 55 187t148 66t145 -64q-2 35 -11 57h64l-1 -379q0 -80 11 -107h-61l2 54h-4q-56 -66 -147 -66zM256 34q39 0 78.5 22.5
t64.5 62.5v249q-26 37 -64.5 58t-77.5 21q-71 0 -112 -55t-41 -151q0 -98 40 -152.5t112 -54.5z" />
    <glyph glyph-name="acircumflex.ss01" horiz-adv-x="529" 
d="M257 724h49q49 -89 115 -144l-20 -22q-73 50 -118 123h-4q-43 -72 -117 -123l-20 22q66 55 115 144zM251 -12q-93 0 -147 65t-54 187q0 121 55 187t148 66t145 -64q-2 35 -11 57h64l-1 -379q0 -80 11 -107h-61l2 54h-4q-56 -66 -147 -66zM256 34q39 0 78.5 22.5
t64.5 62.5v249q-26 37 -64.5 58t-77.5 21q-71 0 -112 -55t-41 -151q0 -98 40 -152.5t112 -54.5z" />
    <glyph glyph-name="adieresis.ss01" horiz-adv-x="529" 
d="M219 582q-17 0 -28.5 11t-11.5 28t11.5 28t28.5 11t28 -11t11 -28t-11 -28t-28 -11zM349 582q-17 0 -28 11t-11 28t11 28t28 11t28.5 -11t11.5 -28t-11.5 -28t-28.5 -11zM251 -12q-93 0 -147 65t-54 187q0 121 55 187t148 66t145 -64q-2 35 -11 57h64l-1 -379
q0 -80 11 -107h-61l2 54h-4q-56 -66 -147 -66zM256 34q39 0 78.5 22.5t64.5 62.5v249q-26 37 -64.5 58t-77.5 21q-71 0 -112 -55t-41 -151q0 -98 40 -152.5t112 -54.5z" />
    <glyph glyph-name="agrave.ss01" horiz-adv-x="529" 
d="M323 596l-14 -30q-98 47 -165 129l34 41q62 -89 145 -140zM251 -12q-93 0 -147 65t-54 187q0 121 55 187t148 66t145 -64q-2 35 -11 57h64l-1 -379q0 -80 11 -107h-61l2 54h-4q-56 -66 -147 -66zM256 34q39 0 78.5 22.5t64.5 62.5v249q-26 37 -64.5 58t-77.5 21
q-71 0 -112 -55t-41 -151q0 -98 40 -152.5t112 -54.5z" />
    <glyph glyph-name="amacron.ss01" horiz-adv-x="529" 
d="M174 634h218v-41h-218v41zM251 -12q-93 0 -147 65t-54 187q0 121 55 187t148 66t145 -64q-2 35 -11 57h64l-1 -379q0 -80 11 -107h-61l2 54h-4q-56 -66 -147 -66zM256 34q39 0 78.5 22.5t64.5 62.5v249q-26 37 -64.5 58t-77.5 21q-71 0 -112 -55t-41 -151
q0 -98 40 -152.5t112 -54.5z" />
    <glyph glyph-name="aogonek.ss01" horiz-adv-x="529" 
d="M456 -128l18 -36q-26 -20 -62 -20q-35 0 -57 17.5t-22 53.5q0 32 23 63t59 50h-15l2 54h-4q-56 -66 -147 -66q-93 0 -147 65t-54 187q0 121 55 187t148 66t145 -64q-2 35 -11 57h64l-1 -379q0 -80 11 -107h1q-39 -20 -63 -49t-24 -59q0 -20 12 -30.5t30 -10.5q24 0 39 21
zM399 119v249q-26 37 -64.5 58t-77.5 21q-71 0 -112 -55t-41 -151q0 -98 40 -152.5t112 -54.5q39 0 78.5 22.5t64.5 62.5z" />
    <glyph glyph-name="aring.ss01" horiz-adv-x="529" 
d="M282 560q-42 0 -68 22.5t-26 58.5t26 58.5t68 22.5t68.5 -22.5t26.5 -58.5t-26.5 -58.5t-68.5 -22.5zM282 592q25 0 40.5 12.5t15.5 36.5t-15.5 36.5t-40.5 12.5t-40.5 -12.5t-15.5 -36.5t15.5 -36.5t40.5 -12.5zM251 -12q-93 0 -147 65t-54 187q0 121 55 187t148 66
t145 -64q-2 35 -11 57h64l-1 -379q0 -80 11 -107h-61l2 54h-4q-56 -66 -147 -66zM256 34q39 0 78.5 22.5t64.5 62.5v249q-26 37 -64.5 58t-77.5 21q-71 0 -112 -55t-41 -151q0 -98 40 -152.5t112 -54.5z" />
    <glyph glyph-name="atilde.ss01" horiz-adv-x="529" 
d="M347 574q-26 0 -49.5 20t-43.5 39.5t-37 19.5q-24 0 -33.5 -17.5t-4.5 -47.5l-52 3q21 100 91 100q26 0 49 -19.5t43 -39t38 -19.5q23 0 33 17.5t5 46.5l51 -3q-21 -100 -90 -100zM251 -12q-93 0 -147 65t-54 187q0 121 55 187t148 66t145 -64q-2 35 -11 57h64l-1 -379
q0 -80 11 -107h-61l2 54h-4q-56 -66 -147 -66zM256 34q39 0 78.5 22.5t64.5 62.5v249q-26 37 -64.5 58t-77.5 21q-71 0 -112 -55t-41 -151q0 -98 40 -152.5t112 -54.5z" />
    <glyph glyph-name="g.ss02" horiz-adv-x="528" 
d="M50 240q0 121 55 187t148 66t145 -64q-2 35 -11 57h64l-1 -485q-1 -199 -204 -201q-37 0 -69.5 7t-57 16.5t-29.5 10.5l14 62q47 -51 145 -51q153 0 150 151v58q-58 -66 -148 -66q-93 0 -147 65t-54 187zM104 241q0 -98 40 -152.5t112 -54.5q39 0 78.5 22.5t64.5 62.5
v249q-26 37 -64.5 58t-77.5 21q-71 0 -112 -55t-41 -151z" />
    <glyph glyph-name="gbreve.ss02" horiz-adv-x="528" 
d="M277 559q-116 0 -112 142h33q0 -46 19.5 -75t59.5 -29t59 29t19 75h33q2 -62 -23.5 -102t-87.5 -40zM50 240q0 121 55 187t148 66t145 -64q-2 35 -11 57h64l-1 -485q-1 -199 -204 -201q-37 0 -69.5 7t-57 16.5t-29.5 10.5l14 62q47 -51 145 -51q153 0 150 151v58
q-58 -66 -148 -66q-93 0 -147 65t-54 187zM104 241q0 -98 40 -152.5t112 -54.5q39 0 78.5 22.5t64.5 62.5v249q-26 37 -64.5 58t-77.5 21q-71 0 -112 -55t-41 -151z" />
    <glyph glyph-name="uni0123.ss02" horiz-adv-x="528" 
d="M277 545q-20 0 -32.5 15t-12.5 40q0 36 20.5 67.5t57.5 46.5l11 -18q-47 -24 -53 -75q3 1 10 1q15 0 26 -10t11 -28t-10.5 -28.5t-27.5 -10.5zM50 240q0 121 55 187t148 66t145 -64q-2 35 -11 57h64l-1 -485q-1 -199 -204 -201q-37 0 -69.5 7t-57 16.5t-29.5 10.5l14 62
q47 -51 145 -51q153 0 150 151v58q-58 -66 -148 -66q-93 0 -147 65t-54 187zM104 241q0 -98 40 -152.5t112 -54.5q39 0 78.5 22.5t64.5 62.5v249q-26 37 -64.5 58t-77.5 21q-71 0 -112 -55t-41 -151z" />
    <glyph glyph-name="gdotaccent.ss02" horiz-adv-x="528" 
d="M277 567q-41 0 -41 43q0 42 41 42t41 -42q0 -43 -41 -43zM50 240q0 121 55 187t148 66t145 -64q-2 35 -11 57h64l-1 -485q-1 -199 -204 -201q-37 0 -69.5 7t-57 16.5t-29.5 10.5l14 62q47 -51 145 -51q153 0 150 151v58q-58 -66 -148 -66q-93 0 -147 65t-54 187zM104 241
q0 -98 40 -152.5t112 -54.5q39 0 78.5 22.5t64.5 62.5v249q-26 37 -64.5 58t-77.5 21q-71 0 -112 -55t-41 -151z" />
    <glyph glyph-name="y.ss03" horiz-adv-x="518" 
d="M68 481h66v-303q0 -145 100 -145q44 0 85 28t71 81v232q0 78 -12 107h63v-474q0 -108 -58 -157t-151 -50q-37 0 -66.5 6.5t-53 16t-26.5 10.5l13 62q48 -50 136 -50q74 0 115 38.5t41 118.5v81q-24 -43 -67.5 -69t-96.5 -26q-145 0 -145 190v196q0 79 -14 107z" />
    <glyph glyph-name="yacute.ss03" horiz-adv-x="518" 
d="M218 585q80 50 140 143l36 -38q-62 -81 -159 -132zM68 481h66v-303q0 -145 100 -145q44 0 85 28t71 81v232q0 78 -12 107h63v-474q0 -108 -58 -157t-151 -50q-37 0 -66.5 6.5t-53 16t-26.5 10.5l13 62q48 -50 136 -50q74 0 115 38.5t41 118.5v81q-24 -43 -67.5 -69
t-96.5 -26q-145 0 -145 190v196q0 79 -14 107z" />
    <glyph glyph-name="ycircumflex.ss03" horiz-adv-x="518" 
d="M230 719h49q49 -89 115 -144l-20 -22q-73 50 -118 123h-4q-43 -72 -117 -123l-20 22q66 55 115 144zM68 481h66v-303q0 -145 100 -145q44 0 85 28t71 81v232q0 78 -12 107h63v-474q0 -108 -58 -157t-151 -50q-37 0 -66.5 6.5t-53 16t-26.5 10.5l13 62q48 -50 136 -50
q74 0 115 38.5t41 118.5v81q-24 -43 -67.5 -69t-96.5 -26q-145 0 -145 190v196q0 79 -14 107z" />
    <glyph glyph-name="ydieresis.ss03" horiz-adv-x="518" 
d="M192 577q-17 0 -28.5 11t-11.5 28t11.5 28t28.5 11q16 0 27.5 -11.5t11.5 -27.5t-11.5 -27.5t-27.5 -11.5zM322 577q-16 0 -27.5 11.5t-11.5 27.5t11.5 27.5t27.5 11.5q17 0 28.5 -11t11.5 -28t-11.5 -28t-28.5 -11zM68 481h66v-303q0 -145 100 -145q44 0 85 28t71 81
v232q0 78 -12 107h63v-474q0 -108 -58 -157t-151 -50q-37 0 -66.5 6.5t-53 16t-26.5 10.5l13 62q48 -50 136 -50q74 0 115 38.5t41 118.5v81q-24 -43 -67.5 -69t-96.5 -26q-145 0 -145 190v196q0 79 -14 107z" />
    <glyph glyph-name="ygrave.ss03" horiz-adv-x="518" 
d="M296 591l-14 -30q-98 47 -165 129l34 41q62 -89 145 -140zM68 481h66v-303q0 -145 100 -145q44 0 85 28t71 81v232q0 78 -12 107h63v-474q0 -108 -58 -157t-151 -50q-37 0 -66.5 6.5t-53 16t-26.5 10.5l13 62q48 -50 136 -50q74 0 115 38.5t41 118.5v81
q-24 -43 -67.5 -69t-96.5 -26q-145 0 -145 190v196q0 79 -14 107z" />
    <glyph glyph-name="a.superior" horiz-adv-x="359" 
d="M147 469q-50 0 -79.5 26.5t-29.5 74.5q0 105 166 105h51v29q0 91 -81 91q-31 0 -58.5 -12.5t-41.5 -30.5l-21 50q3 0 46.5 16.5t77.5 16.5q126 0 126 -132v-138q0 -67 13 -88h-58l1 52h-3q-16 -26 -46 -43t-63 -17zM154 507q28 0 55.5 19t45.5 52v61h-51q-117 0 -117 -68
q0 -31 18.5 -47.5t48.5 -16.5z" />
    <glyph glyph-name="b.superior" horiz-adv-x="394" 
d="M218 469q-65 0 -106 41h-4l1 -33h-55q9 21 9 81v357q0 58 -11 80h67q-8 -23 -8 -80v-128q41 48 108 48q68 0 104.5 -47t36.5 -133q0 -89 -37 -137.5t-105 -48.5zM210 510q50 0 75.5 37.5t25.5 106.5q0 66 -25.5 103t-74.5 37q-59 0 -100 -55v-176q39 -53 99 -53z" />
    <glyph glyph-name="c.superior" horiz-adv-x="331" 
d="M190 469q-155 0 -155 182q0 97 42.5 140.5t112.5 43.5q17 0 34.5 -3.5t27.5 -7t24.5 -10t18.5 -7.5l-23 -51q-30 38 -79 38q-108 0 -108 -143q0 -141 108 -141q60 0 89 39l23 -51q-77 -29 -115 -29z" />
    <glyph glyph-name="d.superior" horiz-adv-x="395" 
d="M179 469q-67 0 -105.5 47t-38.5 136q0 88 39.5 135.5t106.5 47.5q65 0 103 -42v122q0 60 -10 80h65q-7 -21 -7 -80v-357q0 -60 10 -81h-56l1 38h-4q-38 -46 -104 -46zM187 510q26 0 53 15t44 42v174q-39 53 -96 53q-48 0 -75.5 -37t-27.5 -104q0 -69 27 -106t75 -37z" />
    <glyph glyph-name="e.superior" horiz-adv-x="365" 
d="M197 469q-162 0 -162 182q0 93 42 138.5t110 45.5q66 0 102.5 -42.5t36.5 -117.5q0 -19 -2 -31h-240q1 -70 29.5 -102.5t87.5 -32.5q65 0 99 37l17 -50q-69 -27 -120 -27zM279 680q0 54 -24 84.5t-67 30.5q-48 0 -75 -30.5t-29 -84.5h195z" />
    <glyph glyph-name="f.superior" horiz-adv-x="212" 
d="M70 792h-47v41h47v53q0 124 113 124q15 0 36 -3t24 -3l-8 -49q-17 15 -51 15q-66 0 -66 -85v-52h78v-46q-20 5 -78 5v-234q0 -58 11 -75h-68q9 16 9 75v234z" />
    <glyph glyph-name="g.superior" horiz-adv-x="358" 
d="M339 782q-26 13 -73 13v-3q33 -33 33 -81q0 -58 -35 -90t-91 -32q-19 0 -39 5q-15 -13 -15 -31q0 -21 15.5 -28t59.5 -7q145 0 145 -95q0 -101 -160 -101q-70 0 -108.5 24t-38.5 71q0 57 62 85q-15 17 -15 43q0 30 26 50q-60 31 -60 107q0 59 35.5 91t92.5 32q28 0 51 -9
h44q41 0 71 6v-50zM173 623q35 0 58 22t23 67q0 40 -23.5 63.5t-57.5 23.5q-36 0 -58.5 -21.5t-22.5 -65.5q0 -45 23 -67t58 -22zM191 486q-45 0 -69 9q-45 -24 -45 -66q0 -60 103 -60q113 0 113 62q0 28 -24 41.5t-78 13.5z" />
    <glyph glyph-name="h.superior" horiz-adv-x="391" 
d="M52 1001h67q-8 -21 -8 -77v-106q0 -27 -3 -36h3q46 59 114 59q109 0 109 -134v-143q0 -60 11 -81h-68q9 19 9 81v140q0 49 -16.5 72.5t-53.5 23.5q-58 0 -105 -66v-170q0 -60 10 -81h-69q11 18 11 81v357q0 62 -11 80z" />
    <glyph glyph-name="i.superior" horiz-adv-x="175" 
d="M88 905q-34 0 -34 34q0 33 34 33q35 0 35 -33q0 -34 -35 -34zM53 480q11 21 11 81v189q0 59 -11 80h66q-7 -21 -7 -80v-189q0 -62 11 -81h-70z" />
    <glyph glyph-name="j.superior" horiz-adv-x="176" 
d="M88 905q-34 0 -34 35q0 33 34 33t34 -33q0 -35 -34 -35zM20 336q-12 0 -30.5 3t-24.5 3l11 51q15 -16 42 -16t36.5 19.5t9.5 57.5v296q0 57 -11 81h67q-8 -23 -8 -81v-295q0 -60 -21 -89.5t-71 -29.5z" />
    <glyph glyph-name="k.superior" horiz-adv-x="352" 
d="M52 999h66q-7 -20 -7 -81v-254q0 -20 -3 -32h4l116 144q2 3 7.5 10t7 9.5t5 8.5t5 9t3 8t1.5 10h78q-26 -20 -71 -73l-56 -69l86 -132q31 -49 60 -76h-77q-2 24 -27 63l-71 111l-68 -81v-15q0 -59 10 -78h-69q11 18 11 80v357q0 63 -11 81z" />
    <glyph glyph-name="l.superior" horiz-adv-x="175" 
d="M52 479q11 18 11 80v358q0 60 -11 80h67q-8 -24 -8 -80v-358q0 -60 11 -80h-70z" />
    <glyph glyph-name="m.superior" horiz-adv-x="595" 
d="M52 827h57l-1 -52h3q18 24 47 42t61 18q76 0 96 -67q53 67 117 67q106 0 106 -130v-147q0 -59 12 -81h-69q10 22 10 81v143q0 93 -68 93q-51 0 -98 -62v-174q0 -60 10 -81h-68q10 20 10 81v143q0 93 -68 93q-50 0 -98 -62v-174q0 -61 10 -81h-69q11 20 11 81v189
q0 62 -11 80z" />
    <glyph glyph-name="n.superior" horiz-adv-x="391" 
d="M52 830h57q0 -34 -1 -54h3q18 24 49 41.5t66 17.5q108 0 108 -132v-138q0 -65 11 -88h-68q9 21 9 88v135q0 94 -70 94q-58 0 -105 -66v-163q0 -64 9 -88h-68q11 21 11 88v178q0 66 -11 87z" />
    <glyph glyph-name="o.superior" horiz-adv-x="386" 
d="M194 469q-73 0 -116 45.5t-43 136.5q0 92 43 138t116 46q72 0 115.5 -46t43.5 -138q0 -90 -43.5 -136t-115.5 -46zM194 510q52 0 80.5 35.5t28.5 105.5t-28.5 106.5t-80.5 36.5q-109 0 -109 -143q0 -141 109 -141z" />
    <glyph glyph-name="p.superior" horiz-adv-x="394" 
d="M111 510v-95q0 -60 11 -81h-70q11 21 11 81v335q0 59 -11 80h57l-2 -43h4q42 48 108 48q68 0 104.5 -47t36.5 -133q0 -89 -37.5 -137.5t-104.5 -48.5q-66 0 -107 41zM210 510q48 0 74.5 38t26.5 106q0 66 -25.5 103t-74.5 37q-59 0 -100 -55v-176q38 -53 99 -53z" />
    <glyph glyph-name="q.superior" horiz-adv-x="394" 
d="M179 469q-67 0 -105.5 47t-38.5 136q0 88 39.5 135.5t105.5 47.5q65 0 104 -42h4q-3 24 -3 37h56q-9 -26 -9 -80v-335q0 -58 11 -81h-70q11 24 11 79v66q0 14 3 35h-4q-39 -45 -104 -45zM186 510q27 0 54 15.5t44 42.5v173q-39 53 -98 53q-47 0 -74 -37t-27 -104
q0 -69 26.5 -106t74.5 -37z" />
    <glyph glyph-name="r.superior" horiz-adv-x="252" 
d="M52 827h57q0 -48 -1 -65h3q12 32 38 52.5t57 20.5q9 0 22 -1t17 -1l-11 -54q-12 14 -34 14q-26 0 -51.5 -26.5t-37.5 -68.5v-140q0 -60 11 -81h-70q11 18 11 81v189q0 61 -11 80z" />
    <glyph glyph-name="s.superior" horiz-adv-x="304" 
d="M151 469q-31 0 -76.5 12.5t-50.5 13.5l22 60q13 -21 42 -34.5t62 -13.5q78 0 78 63q0 40 -71 63l-22 6q-93 30 -93 101q0 44 31.5 69.5t83.5 25.5q19 0 38.5 -4t40.5 -10.5t28 -8.5l-21 -54q-27 39 -83 39q-33 0 -52.5 -15t-19.5 -40q0 -42 64 -62l24 -8q99 -30 99 -101
q0 -47 -32 -74.5t-92 -27.5z" />
    <glyph glyph-name="t.superior" horiz-adv-x="241" 
d="M167 469q-94 0 -94 108v213h-51v33q57 8 99 66v-62h94v-43q-25 6 -94 6v-210q0 -34 11.5 -53t43.5 -19q25 0 43 19l11 -52q-9 0 -30.5 -3t-32.5 -3z" />
    <glyph glyph-name="u.superior" horiz-adv-x="390" 
d="M163 469q-106 0 -106 137v141q0 58 -12 80h61v-218q0 -99 68 -99q63 0 105 74v163q0 58 -11 80h59v-269q0 -60 11 -81h-60q0 27 4 55h-5q-37 -63 -114 -63z" />
    <glyph glyph-name="v.superior" horiz-adv-x="343" 
d="M7 827h71q-5 -24 12 -69l53 -154q10 -28 28 -84h4q19 57 29 84l52 154q17 47 13 69h67q-18 -24 -38 -81l-66 -184q-21 -59 -20 -85h-80q3 25 -20 85l-67 184q-22 60 -38 81z" />
    <glyph glyph-name="w.superior" horiz-adv-x="506" 
d="M432 827h64q-18 -32 -32 -81l-51 -188q-14 -56 -14 -81h-74q2 30 -13 79l-59 211l-59 -211q-13 -49 -12 -79h-73q0 31 -14 81l-54 188q-18 60 -31 81h68q-5 -21 9 -72l60 -229l65 239q12 41 10 62h66q-1 -21 10 -63l64 -234l62 225q13 48 8 72z" />
    <glyph glyph-name="x.superior" horiz-adv-x="320" 
d="M313 477h-73q3 17 -18 48l-66 104l-64 -104q-19 -33 -16 -48h-69q18 17 42 55l81 129l-71 112q-28 42 -43 54h73q-2 -18 16 -48l59 -94l56 95q17 30 16 47h68q-19 -16 -42 -55l-72 -118l79 -121q25 -41 44 -56z" />
    <glyph glyph-name="y.superior" horiz-adv-x="337" 
d="M65 333q-7 0 -21.5 1.5t-20.5 0.5l11 57q13 -19 36 -19q56 0 82 81l7 23h-7l-107 269q-22 57 -41 81h72q-5 -21 12 -67l89 -231h2l77 231q15 45 9 67h67q-17 -27 -35 -81l-103 -298q-39 -115 -129 -115z" />
    <glyph glyph-name="z.superior" horiz-adv-x="305" 
d="M21 511q13 9 35 42l158 235h-93q-57 0 -79 -13v56q28 -4 67 -4h164l3 -34q-13 -12 -28 -34l-165 -242h114q64 0 86 12v-56q-32 4 -72 4h-186z" />
    <glyph glyph-name="L_A" horiz-adv-x="728" 
d="M82 658h83q-15 -29 -15 -107v-506h406q119 0 149 17v-68q-37 6 -149 6h-474q15 27 15 107v444q0 80 -15 107zM427 658h87q-4 -30 38 -140l89 -242q34 -89 51 -111h-78q5 36 -20 100l-19 51h-211l-19 -51q-24 -70 -19 -100h-77q22 30 52 111l88 242q42 113 38 140z
M379 358h182l-44 118q-37 109 -45 143h-5q-8 -39 -45 -143z" />
    <glyph glyph-name="L_E" horiz-adv-x="650" 
d="M278 658h196q82 0 114 7v-63q-21 13 -114 13h-133v-171h82q103 0 126 12v-66q-23 12 -126 12h-82v-194h131q103 0 126 13v-63q-31 7 -125 7h-195q14 25 14 118v257q0 93 -14 118zM82 658h83q-15 -29 -15 -107v-506h328q119 0 149 17v-68q-37 6 -149 6h-396q15 27 15 107
v444q0 80 -15 107z" />
    <glyph glyph-name="L_I" horiz-adv-x="462" 
d="M82 658h83q-15 -29 -15 -107v-506h140q120 0 149 17v-68q-36 6 -149 6h-208q15 27 15 107v444q0 80 -15 107zM304 658h76q-14 -25 -14 -118v-257q0 -93 14 -118h-76q13 26 13 118v257q0 92 -13 118z" />
    <glyph glyph-name="L_L" horiz-adv-x="650" 
d="M82 658h83q-15 -29 -15 -107v-506h328q119 0 149 17v-68q-37 6 -149 6h-396q15 27 15 107v444q0 80 -15 107zM278 658h77q-14 -28 -14 -124v-326h125q110 0 134 14v-65q-34 8 -134 8h-188q14 28 14 124v245q0 96 -14 124z" />
    <glyph glyph-name="L_O" horiz-adv-x="726" 
d="M479 154q-95 0 -151.5 65t-56.5 192q0 126 56.5 190t151.5 64t151 -63.5t56 -190.5t-56 -192t-151 -65zM82 658h83q-15 -29 -15 -107v-506h404q119 0 149 17v-68q-37 6 -149 6h-472q15 27 15 107v444q0 80 -15 107zM479 200q73 0 114.5 52t41.5 159q0 106 -41 157.5
t-115 51.5t-115 -51.5t-41 -157.5q0 -107 41.5 -159t114.5 -52z" />
    <glyph glyph-name="L_U" horiz-adv-x="705" 
d="M82 658h83q-15 -29 -15 -107v-506h384q118 0 148 15v-66q-36 6 -148 6h-452q15 27 15 107v444q0 80 -15 107zM476 157q-176 0 -176 206v173q0 95 -14 122h76q-13 -27 -13 -122v-171q0 -89 33 -125.5t94 -36.5t94.5 36.5t33.5 125.5v171q0 97 -13 122h73q-13 -27 -13 -122
v-173q0 -206 -175 -206z" />
    <glyph glyph-name="R_A" horiz-adv-x="1039" 
d="M82 0q15 27 15 107v447q0 80 -15 107h190q117 0 176.5 -43t59.5 -144q0 -81 -41 -128.5t-114 -61.5q85 -136 154 -185t182 -49h246q57 0 81 16v-66h-337q-130 0 -207.5 58t-177.5 219h-144v-170q0 -78 15 -107h-83zM553 165q21 27 52 111l88 242q42 110 38 140h87
q-4 -28 38 -140l90 -242q33 -88 51 -111h-78q5 37 -21 100l-18 51h-212l-18 -51q-24 -67 -20 -100h-77zM683 358h183l-44 118q-35 97 -45 143h-5q-8 -39 -45 -143zM150 322h119q185 0 185 152q0 78 -45.5 109.5t-143.5 31.5h-115v-293z" />
    <glyph glyph-name="R_E" horiz-adv-x="1000" 
d="M922 158q-31 7 -125 7h-195q14 25 14 118v257q0 93 -14 118h196q82 0 114 7v-63q-21 13 -114 13h-133v-171h82q103 0 127 12v-66q-24 12 -127 12h-82v-194h131q103 0 126 13v-63zM82 0q15 27 15 107v447q0 80 -15 107h190q117 0 176.5 -43t59.5 -144q0 -81 -41 -128.5
t-114 -61.5q86 -138 152.5 -186t183.5 -48h183q56 0 80 16v-66h-273q-91 0 -154 27.5t-113 83.5t-118 166h-144v-170q0 -78 15 -107h-83zM150 322h119q185 0 185 152q0 78 -45.5 109.5t-143.5 31.5h-115v-293z" />
    <glyph glyph-name="R_I" horiz-adv-x="760" 
d="M82 0q15 27 15 107v447q0 80 -15 107h190q117 0 176.5 -43t59.5 -144q0 -81 -41 -128.5t-114 -61.5q41 -65 69 -103t62 -70.5t69.5 -46t79.5 -13.5h41q40 0 63 15v-66h-108q-54 0 -97 16t-83.5 55.5t-73 83.5t-81.5 122h-144v-170q0 -78 15 -107h-83zM606 165
q14 25 14 118v257q0 93 -14 118h77q-14 -25 -14 -118v-257q0 -93 14 -118h-77zM150 322h119q185 0 185 152q0 78 -45.5 109.5t-143.5 31.5h-115v-293z" />
    <glyph glyph-name="R_O" horiz-adv-x="1067" 
d="M800 155q-95 0 -151.5 65t-56.5 191q0 127 56.5 191t151.5 64t151.5 -64t56.5 -191q0 -126 -56.5 -191t-151.5 -65zM82 0q15 27 15 107v447q0 80 -15 107h190q117 0 176.5 -43t59.5 -144q0 -81 -41 -128.5t-114 -61.5q85 -136 154 -185t182 -49h243q57 0 81 16v-66h-334
q-130 0 -207.5 58t-177.5 219h-144v-170q0 -78 15 -107h-83zM800 201q73 0 114.5 51.5t41.5 158.5q0 209 -156 209t-156 -209q0 -107 41.5 -158.5t114.5 -51.5zM150 322h119q185 0 185 152q0 78 -45.5 109.5t-143.5 31.5h-115v-293z" />
    <glyph glyph-name="R_R" horiz-adv-x="1011" 
d="M82 0q15 27 15 107v447q0 80 -15 107h190q117 0 176.5 -43t59.5 -144q0 -81 -41 -128.5t-114 -61.5q86 -138 152.5 -186t183.5 -48h213q57 0 81 16v-66h-304q-91 0 -154 27.5t-113 83.5t-118 166h-144v-170q0 -78 15 -107h-83zM602 165q14 25 14 119v255q0 94 -14 119
h160q90 0 135.5 -33t45.5 -109q0 -121 -124 -143l61 -94q61 -93 82 -114h-79q-3 29 -43 91l-71 111h-104v-83q0 -96 14 -119h-77zM665 409h93q71 0 103.5 25.5t32.5 79.5q0 56 -32.5 79.5t-103.5 23.5h-93v-208zM150 322h119q185 0 185 152q0 78 -45.5 109.5t-143.5 31.5
h-115v-293z" />
    <glyph glyph-name="R_U" horiz-adv-x="1010" 
d="M82 0q15 27 15 107v447q0 80 -15 107h190q117 0 176.5 -43t59.5 -144q0 -81 -41 -128.5t-114 -61.5q86 -138 152.5 -186t183.5 -48h218q56 0 80 16v-66h-308q-91 0 -154 27.5t-113 83.5t-118 166h-144v-170q0 -78 15 -107h-83zM795 157q-176 0 -176 206v173q0 97 -13 122
h76q-13 -25 -13 -122v-171q0 -89 33 -125.5t94 -36.5t94.5 36.5t33.5 125.5v171q0 97 -13 122h73q-13 -25 -13 -122v-173q0 -206 -176 -206zM150 322h119q185 0 185 152q0 78 -45.5 109.5t-143.5 31.5h-115v-293z" />
    <glyph glyph-name="c_t" horiz-adv-x="784" 
d="M50 240q0 132 58 192.5t154 60.5q17 0 26 -2q-37 37 -37 94q0 79 65 129.5t171 50.5q100 0 157 -43.5t57 -112.5q0 -41 -23 -75t-63 -53h131v-48q-31 9 -131 9v-307q0 -51 17 -77t62 -26q36 0 60 25l13 -59q-8 -1 -38 -5.5t-43 -4.5q-67 0 -95 38.5t-28 109.5v306h-71v34
q83 8 125 42t42 89q0 52 -46.5 88t-125.5 36q-80 0 -137.5 -38.5t-57.5 -110.5q0 -66 57 -106q13 -5 31 -13t23 -10l-27 -60q-42 54 -114 54q-158 0 -158 -207q0 -206 158 -206q86 0 129 55l27 -59l-28 -11q-27 -11 -40.5 -15.5t-39.5 -10t-48 -5.5q-212 0 -212 252z" />
    <glyph glyph-name="f_b" horiz-adv-x="817" 
d="M565 493q95 0 146 -65.5t51 -183.5q0 -122 -52 -189t-146 -67q-92 0 -150 61h-4l2 -49h-60q11 32 11 107v504q0 37 -1 50q-32 23 -96 23q-62 0 -89.5 -30.5t-27.5 -99.5v-73h110v-51q-28 5 -110 5v-336q0 -77 12 -99h-73q10 22 10 99v336h-66v46h66v73q0 91 41.5 133.5
t126.5 42.5q50 0 96 -14h62q-10 -27 -10 -105v-188q25 31 65 50.5t86 19.5zM560 34q73 0 111 55.5t38 153.5q0 95 -38 149.5t-111 54.5q-39 0 -78.5 -21t-67.5 -60v-253q28 -38 67 -58.5t79 -20.5z" />
    <glyph glyph-name="f_f_b" horiz-adv-x="1081" 
d="M830 493q95 0 146 -65.5t51 -183.5q0 -122 -52 -189t-146 -67q-92 0 -150 61h-4l2 -49h-60q11 32 11 107v504q0 37 -1 50q-32 23 -96 23q-63 0 -90 -30.5t-27 -99.5v-73h110v-51q-28 5 -110 5v-336q0 -77 12 -99h-74q11 22 11 99v336h-214v-336q0 -77 12 -99h-73
q10 22 10 99v336h-66v46h66v79q0 170 146 170q8 0 81 -10l-9 -57q-25 21 -72 21q-95 0 -95 -124v-79h214v73q0 91 41.5 133.5t126.5 42.5q50 0 96 -14h62q-10 -27 -10 -105v-188q25 31 65 50.5t86 19.5zM825 34q73 0 111 55.5t38 153.5q0 95 -38 149.5t-111 54.5
q-40 0 -79.5 -21t-66.5 -60v-253q28 -38 67 -58.5t79 -20.5z" />
    <glyph glyph-name="f_f_h" horiz-adv-x="1069" 
d="M924 0q13 26 13 107v201q0 75 -26 107.5t-78 32.5q-86 0 -155 -98v-243q0 -81 13 -107h-77q13 26 13 107v504q0 37 -1 50q-31 23 -95 23q-63 0 -90 -30.5t-27 -99.5v-73h109v-51q-28 5 -109 5v-336q0 -77 12 -99h-74q11 22 11 99v336h-214v-336q0 -77 12 -99h-73
q10 22 10 99v336h-66v46h66v79q0 170 146 170q8 0 81 -10l-9 -57q-25 21 -72 21q-95 0 -95 -124v-79h214v73q0 91 41 133.5t127 42.5q48 0 96 -14h62q-11 -27 -11 -105v-156q0 -33 -4 -49h5q27 38 69 62.5t89 24.5q151 0 151 -185v-201q0 -81 13 -107h-77z" />
    <glyph glyph-name="f_f_j" horiz-adv-x="755" 
d="M678 481q-9 -29 -9 -107v-418q0 -83 -28.5 -119.5t-87.5 -36.5q-16 0 -41.5 4t-30.5 4l13 61q20 -23 59 -23q35 0 50 26t15 84v418q0 46 -2 61h-203v-336q0 -78 13 -99h-74q10 22 10 99v336h-213v-336q0 -77 12 -99h-73q10 22 10 99v336h-66v46h66v79q0 170 146 170
q8 0 81 -10l-9 -57q-25 21 -72 21q-95 0 -95 -124v-79h213v71q0 93 43.5 135.5t129.5 42.5q37 0 75.5 -7.5t54.5 -16.5l-14 -59q-14 15 -48.5 26t-67.5 11q-64 0 -93 -30.5t-29 -101.5v-71h265z" />
    <glyph glyph-name="f_f_k" horiz-adv-x="1006" 
d="M933 99q45 -70 78 -99h-89q-4 32 -37 84l-107 165l-101 -120v-22q0 -81 13 -107h-76q13 26 13 107v504q0 37 -1 50q-32 23 -96 23q-63 0 -90 -30.5t-27 -99.5v-73h110v-51q-28 5 -110 5v-336q0 -77 12 -99h-74q11 22 11 99v336h-213v-336q0 -77 12 -99h-73q10 22 10 99
v336h-66v46h66v79q0 170 146 170q8 0 81 -10l-9 -57q-25 21 -72 21q-95 0 -95 -124v-79h213v73q0 91 41.5 133.5t126.5 42.5q50 0 96 -14h62q-11 -30 -11 -105v-376q0 -26 -3 -41h4l174 215q37 46 42 72h88q-34 -25 -94 -97l-79 -96z" />
    <glyph glyph-name="f_f_t" horiz-adv-x="838" 
d="M808 57l13 -59q-8 -1 -38 -5.5t-43 -4.5q-67 0 -95 38.5t-28 109.5v299h-204v-336q0 -77 12 -99h-74q11 22 11 99v336h-213v-336q0 -77 12 -99h-73q10 22 10 99v336h-66v46h66v79q0 170 146 170q8 0 81 -10l-9 -57q-25 21 -72 21q-95 0 -95 -124v-79h213v79
q0 170 146 170q8 0 81 -10l-9 -57q-26 21 -72 21q-95 0 -95 -124v-79h157q59 19 99 81v-81h131v-48q-31 9 -131 9v-307q0 -51 17 -77t62 -26q36 0 60 25z" />
    <glyph glyph-name="f_f_y" horiz-adv-x="974" 
d="M892 481h77q-21 -29 -47 -105l-147 -423q-53 -153 -170 -153q-9 0 -27 2t-26 1l13 67q17 -25 45 -25q82 0 121 121l11 34h-7l-152 376q-14 35 -25 59h-145v-336q0 -77 12 -99h-74q11 22 11 99v336h-213v-336q0 -77 12 -99h-73q10 22 10 99v336h-66v46h66v79
q0 170 146 170q8 0 81 -10l-9 -57q-25 21 -72 21q-95 0 -95 -124v-79h213v79q0 170 146 170q8 0 81 -10l-9 -57q-26 21 -72 21q-95 0 -95 -124v-79h198q-5 -30 19 -90l131 -334h3l113 334q21 63 15 90z" />
    <glyph glyph-name="f_h" horiz-adv-x="804" 
d="M660 0q13 26 13 107v201q0 75 -26 107.5t-78 32.5q-86 0 -155 -98v-243q0 -81 12 -107h-76q13 26 13 107v504q0 37 -1 50q-32 23 -96 23q-62 0 -89.5 -30.5t-27.5 -99.5v-73h110v-51q-28 5 -110 5v-336q0 -77 12 -99h-73q10 22 10 99v336h-66v46h66v73q0 91 41.5 133.5
t126.5 42.5q50 0 96 -14h62q-10 -28 -10 -105v-156q0 -33 -4 -49h4q27 38 69.5 62.5t89.5 24.5q151 0 151 -185v-201q0 -81 12 -107h-76z" />
    <glyph glyph-name="f_j" horiz-adv-x="491" 
d="M414 481q-10 -33 -10 -107v-418q0 -83 -28.5 -119.5t-86.5 -36.5q-16 0 -41.5 4t-30.5 4l13 61q20 -23 59 -23q35 0 49.5 26t14.5 84v418q0 46 -2 61h-202v-336q0 -77 12 -99h-73q10 22 10 99v336h-66v46h66v71q0 93 43 135.5t130 42.5q37 0 75.5 -7.5t54.5 -16.5
l-14 -59q-14 15 -48.5 26t-67.5 11q-65 0 -93.5 -30.5t-28.5 -101.5v-71h265z" />
    <glyph glyph-name="f_k" horiz-adv-x="742" 
d="M669 99q43 -67 78 -99h-89q-4 32 -37 84l-107 165l-101 -120v-22q0 -81 13 -107h-76q13 26 13 107v504q0 37 -1 50q-32 23 -96 23q-62 0 -89.5 -30.5t-27.5 -99.5v-73h110v-51q-28 5 -110 5v-336q0 -77 12 -99h-73q10 22 10 99v336h-66v46h66v73q0 91 41.5 133.5
t126.5 42.5q50 0 96 -14h62q-11 -30 -11 -105v-376q0 -26 -3 -41h4l174 215q37 46 42 72h88q-34 -25 -94 -97l-79 -96z" />
    <glyph glyph-name="f_t" horiz-adv-x="574" 
d="M544 57l13 -59q-8 -1 -38 -5.5t-43 -4.5q-67 0 -95 38.5t-28 109.5v299h-204v-336q0 -77 12 -99h-73q10 22 10 99v336h-66v46h66v79q0 170 146 170q8 0 81 -10l-9 -57q-25 21 -72 21q-95 0 -95 -124v-79h157q59 19 99 81v-81h131v-48q-31 9 -131 9v-307q0 -51 17 -77
t62 -26q36 0 60 25z" />
    <glyph glyph-name="f_y" horiz-adv-x="710" 
d="M628 481h77q-21 -29 -47 -105l-147 -423q-53 -153 -170 -153q-9 0 -27 2t-26 1l14 67q15 -25 44 -25q82 0 121 121l11 34h-7l-152 376q-14 35 -25 59h-145v-336q0 -77 12 -99h-73q10 22 10 99v336h-66v46h66v79q0 170 146 170q8 0 81 -10l-9 -57q-25 21 -72 21
q-95 0 -95 -124v-79h198q-5 -30 19 -90l131 -334h3l113 334q21 63 15 90z" />
    <glyph glyph-name="s_p" horiz-adv-x="959" 
d="M34 27l26 72q18 -29 59 -47.5t88 -18.5q115 0 115 92q0 62 -103 93l-30 9q-130 40 -130 139q0 59 42.5 93t113.5 34q13 0 19 -1q-36 38 -36 93q0 79 65 129.5t171 50.5q100 0 157 -43.5t57 -112.5q0 -43 -25 -78t-69 -53l-2 -54h5q25 30 65.5 49.5t85.5 19.5
q95 0 146 -65.5t51 -183.5q0 -122 -53 -189t-145 -67q-94 0 -150 61l-1 -142q-1 -74 12 -107h-75q13 31 13 107v472q0 76 -13 107q113 30 113 121q0 52 -46.5 88t-125.5 36q-80 0 -137.5 -38.5t-57.5 -110.5q0 -62 49 -100q14 -4 38 -12.5t33 -10.5l-27 -66q-36 55 -117 55
q-49 0 -77.5 -21.5t-28.5 -58.5q0 -64 93 -92l32 -10q139 -41 139 -139q0 -65 -43 -102t-124 -37q-42 0 -106.5 19.5t-65.5 19.5zM557 112q28 -38 67 -58t79 -20q72 0 110.5 56t38.5 153q0 95 -38 149.5t-111 54.5q-39 0 -78.5 -21.5t-67.5 -59.5v-254z" />
    <glyph glyph-name="s_t" horiz-adv-x="738" 
d="M34 27l26 72q18 -29 59 -47.5t88 -18.5q115 0 115 92q0 62 -103 93l-30 9q-130 40 -130 139q0 59 42.5 93t113.5 34q18 0 27 -1q-36 38 -36 93q0 79 65 129.5t170 50.5q100 0 157 -43.5t57 -112.5q0 -41 -23 -75t-62 -53h131v-48q-31 9 -132 9v-307q0 -51 17 -77t62 -26
q37 0 61 25l12 -59q-7 -1 -37.5 -5.5t-42.5 -4.5q-67 0 -95 38.5t-28 109.5v306h-72v34q83 8 125 42t42 89q0 52 -46.5 88t-125.5 36q-80 0 -137 -38.5t-57 -110.5q0 -65 54 -104q13 -4 32.5 -10.5l25.5 -8.5l-27 -66q-36 55 -117 55q-49 0 -77.5 -21.5t-28.5 -58.5
q0 -64 93 -92l32 -10q139 -41 139 -139q0 -65 -43 -102t-124 -37q-42 0 -106.5 19.5t-65.5 19.5z" />
    <glyph glyph-name="a.sc" horiz-adv-x="474" 
d="M191 513h91q-4 -31 39 -145l93 -251q36 -94 54 -117h-83q6 33 -21 106l-19 52h-218l-19 -52q-26 -71 -20 -106h-82q25 34 55 117l91 251q43 112 39 145zM142 200h189l-45 122q-37 104 -47 150h-5q-8 -36 -47 -150z" />
    <glyph glyph-name="aacute.sc" horiz-adv-x="474" 
d="M200 614q80 50 140 143l36 -38q-62 -81 -159 -132zM191 513h91q-4 -31 39 -145l93 -251q36 -94 54 -117h-83q6 33 -21 106l-19 52h-218l-19 -52q-26 -71 -20 -106h-82q25 34 55 117l91 251q43 112 39 145zM142 200h189l-45 122q-37 104 -47 150h-5q-8 -36 -47 -150z" />
    <glyph glyph-name="abreve.sc" horiz-adv-x="474" 
d="M237 588q-116 0 -112 142h33q0 -46 19.5 -75t59.5 -29t59 29t19 75h33q2 -62 -23.5 -102t-87.5 -40zM191 513h91q-4 -31 39 -145l93 -251q36 -94 54 -117h-83q6 33 -21 106l-19 52h-218l-19 -52q-26 -71 -20 -106h-82q25 34 55 117l91 251q43 112 39 145zM142 200h189
l-45 122q-37 104 -47 150h-5q-8 -36 -47 -150z" />
    <glyph glyph-name="acircumflex.sc" horiz-adv-x="474" 
d="M213 748h49q49 -89 115 -144l-20 -22q-73 50 -118 123h-4q-43 -72 -117 -123l-20 22q66 55 115 144zM191 513h91q-4 -31 39 -145l93 -251q36 -94 54 -117h-83q6 33 -21 106l-19 52h-218l-19 -52q-26 -71 -20 -106h-82q25 34 55 117l91 251q43 112 39 145zM142 200h189
l-45 122q-37 104 -47 150h-5q-8 -36 -47 -150z" />
    <glyph glyph-name="adieresis.sc" horiz-adv-x="474" 
d="M174 606q-17 0 -28.5 11t-11.5 28t11.5 28t28.5 11q16 0 27.5 -11t11.5 -28t-11.5 -28t-27.5 -11zM304 606q-16 0 -27.5 11t-11.5 28t11.5 28t27.5 11q17 0 28.5 -11t11.5 -28t-11.5 -28t-28.5 -11zM191 513h91q-4 -31 39 -145l93 -251q36 -94 54 -117h-83q6 33 -21 106
l-19 52h-218l-19 -52q-26 -71 -20 -106h-82q25 34 55 117l91 251q43 112 39 145zM142 200h189l-45 122q-37 104 -47 150h-5q-8 -36 -47 -150z" />
    <glyph glyph-name="agrave.sc" horiz-adv-x="474" 
d="M279 620l-14 -30q-98 47 -165 129l34 41q62 -89 145 -140zM191 513h91q-4 -31 39 -145l93 -251q36 -94 54 -117h-83q6 33 -21 106l-19 52h-218l-19 -52q-26 -71 -20 -106h-82q25 34 55 117l91 251q43 112 39 145zM142 200h189l-45 122q-37 104 -47 150h-5
q-8 -36 -47 -150z" />
    <glyph glyph-name="amacron.sc" horiz-adv-x="474" 
d="M129 658h218v-41h-218v41zM191 513h91q-4 -31 39 -145l93 -251q36 -94 54 -117h-83q6 33 -21 106l-19 52h-218l-19 -52q-26 -71 -20 -106h-82q25 34 55 117l91 251q43 112 39 145zM142 200h189l-45 122q-37 104 -47 150h-5q-8 -36 -47 -150z" />
    <glyph glyph-name="aogonek.sc" horiz-adv-x="474" 
d="M462 -128l18 -36q-26 -20 -62 -20q-35 0 -57 17.5t-22 53.5q0 32 23 63t59 50h-36q6 33 -21 106l-19 52h-218l-19 -52q-26 -71 -20 -106h-82q25 34 55 117l91 251q43 112 39 145h91q-4 -31 39 -145l93 -251q36 -94 54 -117q-39 -20 -63 -49t-24 -59q0 -20 12 -30.5
t30 -10.5q24 0 39 21zM142 200h189l-45 122q-37 104 -47 150h-5q-8 -36 -47 -150z" />
    <glyph glyph-name="aring.sc" horiz-adv-x="474" 
d="M237 584q-42 0 -68 22.5t-26 58.5t26 58.5t68 22.5t68.5 -22.5t26.5 -58.5t-26.5 -58.5t-68.5 -22.5zM237 616q25 0 40.5 12.5t15.5 36.5t-15.5 36.5t-40.5 12.5t-40.5 -12.5t-15.5 -36.5t15.5 -36.5t40.5 -12.5zM191 513h91q-4 -31 39 -145l93 -251q36 -94 54 -117h-83
q6 33 -21 106l-19 52h-218l-19 -52q-26 -71 -20 -106h-82q25 34 55 117l91 251q43 112 39 145zM142 200h189l-45 122q-37 104 -47 150h-5q-8 -36 -47 -150z" />
    <glyph glyph-name="atilde.sc" horiz-adv-x="474" 
d="M302 598q-26 0 -49.5 20t-43.5 39.5t-37 19.5q-24 0 -33.5 -17.5t-4.5 -47.5l-52 3q21 100 91 100q26 0 49 -19.5t43 -39t38 -19.5q23 0 33 17.5t5 46.5l51 -3q-21 -100 -90 -100zM191 513h91q-4 -31 39 -145l93 -251q36 -94 54 -117h-83q6 33 -21 106l-19 52h-218
l-19 -52q-26 -71 -20 -106h-82q25 34 55 117l91 251q43 112 39 145zM142 200h189l-45 122q-37 104 -47 150h-5q-8 -36 -47 -150z" />
    <glyph glyph-name="ae.sc" horiz-adv-x="693" 
d="M309 513h224q77 0 110 7v-64q-24 14 -110 14h-128v-178h86q87 0 112 12v-66q-25 12 -112 12h-86v-207h123q95 0 125 14v-64q-27 7 -125 7h-190q14 28 14 118v39h-183l-33 -54q-47 -79 -43 -103h-81q30 31 84 126l172 292q38 63 41 95zM193 199h159v273h-5
q-22 -49 -61 -115z" />
    <glyph glyph-name="b.sc" horiz-adv-x="508" 
d="M82 513h167q184 0 184 -125q0 -42 -25.5 -72.5t-75.5 -38.5v-4q64 -7 99 -38.5t35 -85.5q0 -149 -203 -149h-181q14 28 14 125v264q0 96 -14 124zM233 292q150 0 150 93q0 47 -32 66.5t-104 19.5h-98v-179h84zM259 42q79 0 117.5 24t38.5 85q0 99 -178 99h-88v-208h110z
" />
    <glyph glyph-name="c.sc" horiz-adv-x="488" 
d="M271 -12q-101 0 -159 64.5t-58 204.5q0 138 58.5 203t158.5 65q35 0 65 -7t64 -21l33 -14l-36 -59q-32 55 -126 55q-162 0 -162 -221q0 -224 162 -224q107 0 139 59l36 -59q-7 -2 -36.5 -14.5t-65 -22t-73.5 -9.5z" />
    <glyph glyph-name="cacute.sc" horiz-adv-x="488" 
d="M231 614q80 50 140 143l36 -38q-62 -81 -159 -132zM271 -12q-101 0 -159 64.5t-58 204.5q0 138 58.5 203t158.5 65q35 0 65 -7t64 -21l33 -14l-36 -59q-32 55 -126 55q-162 0 -162 -221q0 -224 162 -224q107 0 139 59l36 -59q-7 -2 -36.5 -14.5t-65 -22t-73.5 -9.5z" />
    <glyph glyph-name="ccaron.sc" horiz-adv-x="488" 
d="M244 585q-45 84 -116 144l22 22q72 -51 117 -123h4q45 72 117 123l22 -22q-67 -57 -116 -144h-50zM271 -12q-101 0 -159 64.5t-58 204.5q0 138 58.5 203t158.5 65q35 0 65 -7t64 -21l33 -14l-36 -59q-32 55 -126 55q-162 0 -162 -221q0 -224 162 -224q107 0 139 59
l36 -59q-7 -2 -36.5 -14.5t-65 -22t-73.5 -9.5z" />
    <glyph glyph-name="ccedilla.sc" horiz-adv-x="488" 
d="M282 -55q71 -17 71 -70q0 -80 -149 -86l-7 36q112 0 112 49q0 41 -77 49l33 65q-211 5 -211 269q0 138 58.5 203t158.5 65q35 0 65 -7t64 -21l33 -14l-36 -59q-32 55 -126 55q-162 0 -162 -221q0 -224 162 -224q107 0 139 59l36 -59q-8 -2 -31.5 -12t-53 -19.5
t-59.5 -12.5z" />
    <glyph glyph-name="cdotaccent.sc" horiz-adv-x="488" 
d="M269 596q-41 0 -41 43q0 42 41 42t41 -42q0 -43 -41 -43zM271 -12q-101 0 -159 64.5t-58 204.5q0 138 58.5 203t158.5 65q35 0 65 -7t64 -21l33 -14l-36 -59q-32 55 -126 55q-162 0 -162 -221q0 -224 162 -224q107 0 139 59l36 -59q-7 -2 -36.5 -14.5t-65 -22t-73.5 -9.5
z" />
    <glyph glyph-name="d.sc" horiz-adv-x="528" 
d="M82 513h137q132 0 193.5 -59.5t61.5 -195.5t-61 -197t-192 -61h-139q14 28 14 125v264q0 96 -14 124zM220 43q108 0 154 48t46 167q0 114 -47 163t-153 49h-71v-427h71z" />
    <glyph glyph-name="eth.sc" horiz-adv-x="528" 
d="M219 513q132 0 193.5 -59.5t61.5 -195.5t-61 -197t-192 -61h-139q14 28 14 125v125h-57v35h57v104q0 96 -14 124h137zM220 43q108 0 154 48t46 167q0 114 -47 163t-153 49h-71v-185h152v-35h-152v-207h71z" />
    <glyph glyph-name="dcaron.sc" horiz-adv-x="528" 
d="M231 585q-45 84 -116 144l22 22q72 -51 117 -123h4q45 72 117 123l22 -22q-67 -57 -116 -144h-50zM82 513h137q132 0 193.5 -59.5t61.5 -195.5t-61 -197t-192 -61h-139q14 28 14 125v264q0 96 -14 124zM220 43q108 0 154 48t46 167q0 114 -47 163t-153 49h-71v-427h71z
" />
    <glyph glyph-name="dcroat.sc" horiz-adv-x="528" 
d="M219 513q132 0 193.5 -59.5t61.5 -195.5t-61 -197t-192 -61h-139q14 28 14 125v125h-57v35h57v104q0 96 -14 124h137zM220 43q108 0 154 48t46 167q0 114 -47 163t-153 49h-71v-185h152v-35h-152v-207h71z" />
    <glyph glyph-name="e.sc" horiz-adv-x="455" 
d="M82 513h203q87 0 120 7v-64q-24 14 -120 14h-136v-181h83q108 0 133 12v-66q-23 12 -133 12h-83v-204h135q104 0 131 14v-64q-27 7 -131 7h-202q14 28 14 125v264q0 96 -14 124z" />
    <glyph glyph-name="eacute.sc" horiz-adv-x="455" 
d="M212 614q80 50 140 143l36 -38q-62 -81 -159 -132zM82 513h203q87 0 120 7v-64q-24 14 -120 14h-136v-181h83q108 0 133 12v-66q-23 12 -133 12h-83v-204h135q104 0 131 14v-64q-27 7 -131 7h-202q14 28 14 125v264q0 96 -14 124z" />
    <glyph glyph-name="ecaron.sc" horiz-adv-x="455" 
d="M224 585q-45 84 -116 144l22 22q72 -51 117 -123h4q45 72 117 123l22 -22q-67 -57 -116 -144h-50zM82 513h203q87 0 120 7v-64q-24 14 -120 14h-136v-181h83q108 0 133 12v-66q-23 12 -133 12h-83v-204h135q104 0 131 14v-64q-27 7 -131 7h-202q14 28 14 125v264
q0 96 -14 124z" />
    <glyph glyph-name="ecircumflex.sc" horiz-adv-x="455" 
d="M225 748h49q49 -89 115 -144l-20 -22q-73 50 -118 123h-4q-43 -72 -117 -123l-20 22q66 55 115 144zM82 513h203q87 0 120 7v-64q-24 14 -120 14h-136v-181h83q108 0 133 12v-66q-23 12 -133 12h-83v-204h135q104 0 131 14v-64q-27 7 -131 7h-202q14 28 14 125v264
q0 96 -14 124z" />
    <glyph glyph-name="edieresis.sc" horiz-adv-x="455" 
d="M186 606q-17 0 -28.5 11t-11.5 28t11.5 28t28.5 11q16 0 27.5 -11t11.5 -28t-11.5 -28t-27.5 -11zM316 606q-16 0 -27.5 11t-11.5 28t11.5 28t27.5 11q17 0 28.5 -11t11.5 -28t-11.5 -28t-28.5 -11zM82 513h203q87 0 120 7v-64q-24 14 -120 14h-136v-181h83q108 0 133 12
v-66q-23 12 -133 12h-83v-204h135q104 0 131 14v-64q-27 7 -131 7h-202q14 28 14 125v264q0 96 -14 124z" />
    <glyph glyph-name="edotaccent.sc" horiz-adv-x="455" 
d="M249 596q-41 0 -41 43q0 42 41 42t41 -42q0 -43 -41 -43zM82 513h203q87 0 120 7v-64q-24 14 -120 14h-136v-181h83q108 0 133 12v-66q-23 12 -133 12h-83v-204h135q104 0 131 14v-64q-27 7 -131 7h-202q14 28 14 125v264q0 96 -14 124z" />
    <glyph glyph-name="egrave.sc" horiz-adv-x="455" 
d="M291 620l-14 -30q-98 47 -165 129l34 41q62 -89 145 -140zM82 513h203q87 0 120 7v-64q-24 14 -120 14h-136v-181h83q108 0 133 12v-66q-23 12 -133 12h-83v-204h135q104 0 131 14v-64q-27 7 -131 7h-202q14 28 14 125v264q0 96 -14 124z" />
    <glyph glyph-name="emacron.sc" horiz-adv-x="455" 
d="M141 658h218v-41h-218v41zM82 513h203q87 0 120 7v-64q-24 14 -120 14h-136v-181h83q108 0 133 12v-66q-23 12 -133 12h-83v-204h135q104 0 131 14v-64q-27 7 -131 7h-202q14 28 14 125v264q0 96 -14 124z" />
    <glyph glyph-name="eogonek.sc" horiz-adv-x="455" 
d="M409 -134l18 -36q-26 -20 -62 -20q-35 0 -57 17.5t-22 53.5q0 34 25 66.5t65 50.5q-40 2 -92 2h-202q14 28 14 125v264q0 96 -14 124h203q87 0 120 7v-64q-24 14 -120 14h-136v-181h83q108 0 133 12v-66q-23 12 -133 12h-83v-204h135q104 0 131 14v-64h-1
q-39 -20 -62.5 -48.5t-23.5 -58.5q0 -20 12 -30.5t30 -10.5q24 0 39 21z" />
    <glyph glyph-name="f.sc" horiz-adv-x="428" 
d="M82 513h204q87 0 120 7v-65q-24 14 -120 14h-137v-198h80q108 0 133 12v-67q-23 12 -133 12h-80v-103q0 -99 13 -125h-80q14 28 14 125v264q0 96 -14 124z" />
    <glyph glyph-name="g.sc" horiz-adv-x="528" 
d="M278 -12q-105 0 -164.5 64.5t-59.5 204.5q0 138 61 203t165 65q37 0 69.5 -7t63 -18t38.5 -13l-32 -62q-30 54 -138 54q-172 0 -172 -222q0 -119 43.5 -171t128.5 -52q88 0 129 33v150q-98 0 -125 -13v54h184q-9 -23 -9 -94v-22q0 -64 7 -102q-89 -52 -189 -52z" />
    <glyph glyph-name="gbreve.sc" horiz-adv-x="528" 
d="M287 588q-116 0 -112 142h33q0 -46 19.5 -75t59.5 -29t59 29t19 75h33q2 -62 -23.5 -102t-87.5 -40zM278 -12q-105 0 -164.5 64.5t-59.5 204.5q0 138 61 203t165 65q37 0 69.5 -7t63 -18t38.5 -13l-32 -62q-30 54 -138 54q-172 0 -172 -222q0 -119 43.5 -171t128.5 -52
q88 0 129 33v150q-98 0 -125 -13v54h184q-9 -23 -9 -94v-22q0 -64 7 -102q-89 -52 -189 -52z" />
    <glyph glyph-name="uni0123.sc" horiz-adv-x="528" 
d="M278 -12q-105 0 -164.5 64.5t-59.5 204.5q0 138 61 203t165 65q37 0 69.5 -7t63 -18t38.5 -13l-32 -62q-30 54 -138 54q-172 0 -172 -222q0 -119 43.5 -171t128.5 -52q88 0 129 33v150q-98 0 -125 -13v54h184q-9 -23 -9 -94v-22q0 -64 7 -102q-89 -52 -189 -52zM293 -47
q44 0 44 -57q0 -35 -19.5 -67t-56.5 -47l-12 21q50 23 54 76q-4 -2 -10 -2q-13 0 -24 10t-11 27q0 19 10 29t25 10z" />
    <glyph glyph-name="gdotaccent.sc" horiz-adv-x="528" 
d="M287 596q-41 0 -41 43q0 42 41 42t41 -42q0 -43 -41 -43zM278 -12q-105 0 -164.5 64.5t-59.5 204.5q0 138 61 203t165 65q37 0 69.5 -7t63 -18t38.5 -13l-32 -62q-30 54 -138 54q-172 0 -172 -222q0 -119 43.5 -171t128.5 -52q88 0 129 33v150q-98 0 -125 -13v54h184
q-9 -23 -9 -94v-22q0 -64 7 -102q-89 -52 -189 -52z" />
    <glyph glyph-name="h.sc" horiz-adv-x="581" 
d="M82 513h80q-13 -26 -13 -124v-95h283v95q0 98 -13 124h80q-14 -28 -14 -124v-264q0 -97 14 -125h-80q13 26 13 125v124h-283v-124q0 -99 13 -125h-80q14 28 14 125v264q0 96 -14 124z" />
    <glyph glyph-name="hbar.sc" horiz-adv-x="582" 
d="M532 382h-46v-257q0 -99 13 -125h-80q14 28 14 125v124h-284v-124q0 -97 14 -125h-80q14 28 14 125v257h-47v40h47q-1 66 -14 91h80q-13 -25 -14 -91h284q-1 66 -14 91h80q-12 -23 -13 -91h46v-40zM433 294v88h-284v-88h284z" />
    <glyph glyph-name="i.sc" horiz-adv-x="245" 
d="M82 513h80q-13 -26 -13 -124v-264q0 -99 13 -125h-80q14 28 14 125v264q0 96 -14 124z" />
    <glyph glyph-name="iacute.sc" horiz-adv-x="245" 
d="M85 614q80 50 140 143l36 -38q-62 -81 -159 -132zM82 513h80q-13 -26 -13 -124v-264q0 -99 13 -125h-80q14 28 14 125v264q0 96 -14 124z" />
    <glyph glyph-name="icircumflex.sc" horiz-adv-x="245" 
d="M98 748h49q49 -89 115 -144l-20 -22q-73 50 -118 123h-4q-43 -72 -117 -123l-20 22q66 55 115 144zM82 513h80q-13 -26 -13 -124v-264q0 -99 13 -125h-80q14 28 14 125v264q0 96 -14 124z" />
    <glyph glyph-name="idieresis.sc" horiz-adv-x="245" 
d="M59 606q-17 0 -28.5 11t-11.5 28t11.5 28t28.5 11t28 -11t11 -28t-11 -28t-28 -11zM189 606q-17 0 -28 11t-11 28t11 28t28 11t28.5 -11t11.5 -28t-11.5 -28t-28.5 -11zM82 513h80q-13 -26 -13 -124v-264q0 -99 13 -125h-80q14 28 14 125v264q0 96 -14 124z" />
    <glyph glyph-name="i.sc.loclTRK" horiz-adv-x="245" 
d="M122 596q-41 0 -41 43q0 42 41 42t41 -42q0 -43 -41 -43zM82 513h80q-13 -26 -13 -124v-264q0 -99 13 -125h-80q14 28 14 125v264q0 96 -14 124z" />
    <glyph glyph-name="igrave.sc" horiz-adv-x="245" 
d="M164 620l-14 -30q-98 47 -165 129l34 41q62 -89 145 -140zM82 513h80q-13 -26 -13 -124v-264q0 -99 13 -125h-80q14 28 14 125v264q0 96 -14 124z" />
    <glyph glyph-name="imacron.sc" horiz-adv-x="245" 
d="M14 658h218v-41h-218v41zM82 513h80q-13 -26 -13 -124v-264q0 -99 13 -125h-80q14 28 14 125v264q0 96 -14 124z" />
    <glyph glyph-name="iogonek.sc" horiz-adv-x="245" 
d="M157 -128l18 -36q-26 -20 -62 -20q-35 0 -57 17.5t-22 53.5q0 32 23 63t59 50h-34q14 28 14 125v264q0 96 -14 124h80q-13 -26 -13 -124v-264q0 -99 13 -125h1q-39 -20 -63 -49t-24 -59q0 -20 12 -30.5t30 -10.5q24 0 39 21z" />
    <glyph glyph-name="j.sc" horiz-adv-x="343" 
d="M192 513h81q-14 -28 -14 -124v-237q0 -164 -130 -164q-60 0 -123 56l38 59q25 -69 85 -69q38 0 57.5 25.5t19.5 87.5v242q0 98 -14 124z" />
    <glyph glyph-name="k.sc" horiz-adv-x="503" 
d="M82 513h80q-13 -26 -13 -124v-146h3l170 189q30 34 39.5 48.5t14.5 32.5h87q-33 -27 -103 -105l-79 -88l119 -186q68 -106 98 -134h-84q-2 28 -55 110l-111 173l-99 -108v-50q0 -99 13 -125h-80q14 28 14 125v264q0 96 -14 124z" />
    <glyph glyph-name="uni0137.sc" horiz-adv-x="503" 
d="M82 513h80q-13 -26 -13 -124v-146h3l170 189q30 34 39.5 48.5t14.5 32.5h87q-33 -27 -103 -105l-79 -88l119 -186q68 -106 98 -134h-84q-2 28 -55 110l-111 173l-99 -108v-50q0 -99 13 -125h-80q14 28 14 125v264q0 96 -14 124zM274 -47q44 0 44 -57q0 -35 -19.5 -67
t-56.5 -47l-12 21q50 23 54 76q-4 -2 -10 -2q-13 0 -24 10t-11 27q0 19 10 29t25 10z" />
    <glyph glyph-name="l.sc" horiz-adv-x="421" 
d="M82 513h80q-13 -26 -13 -124v-344h115q109 0 134 13v-66q-34 8 -134 8h-182q14 28 14 125v264q0 96 -14 124z" />
    <glyph glyph-name="lacute.sc" horiz-adv-x="421" 
d="M86 614q80 50 140 143l36 -38q-62 -81 -159 -132zM82 513h80q-13 -26 -13 -124v-344h115q109 0 134 13v-66q-34 8 -134 8h-182q14 28 14 125v264q0 96 -14 124z" />
    <glyph glyph-name="lcaron.sc" horiz-adv-x="421" 
d="M98 585q-45 84 -116 144l22 22q72 -51 117 -123h4q45 72 117 123l22 -22q-67 -57 -116 -144h-50zM82 513h80q-13 -26 -13 -124v-344h115q109 0 134 13v-66q-34 8 -134 8h-182q14 28 14 125v264q0 96 -14 124z" />
    <glyph glyph-name="uni013C.sc" horiz-adv-x="421" 
d="M82 513h80q-13 -26 -13 -124v-344h115q109 0 134 13v-66q-34 8 -134 8h-182q14 28 14 125v264q0 96 -14 124zM241 -47q44 0 44 -57q0 -35 -19.5 -67t-56.5 -47l-12 21q50 23 54 76q-4 -2 -10 -2q-13 0 -24 10t-11 27q0 19 10 29t25 10z" />
    <glyph glyph-name="lslash.sc" horiz-adv-x="437" 
d="M264 45q109 0 134 13v-66q-34 8 -134 8h-182q14 28 14 125v116l-65 -12l-7 39l72 13v108q0 96 -14 124h80q-13 -26 -13 -124v-99l100 18l6 -39l-106 -19v-205h115z" />
    <glyph glyph-name="m.sc" horiz-adv-x="631" 
d="M82 513h85l108 -286q18 -46 39 -126h3q16 60 40 126l107 286h85q-14 -28 -14 -124v-264q0 -97 14 -125h-77q14 28 14 125v183q0 114 4 148h-4l-108 -291q-31 -86 -32 -111h-61q-1 29 -33 111l-109 291h-4q6 -48 6 -148v-183q0 -97 14 -125h-77q14 28 14 125v264
q0 96 -14 124z" />
    <glyph glyph-name="n.sc" horiz-adv-x="570" 
d="M82 513h71l280 -437h4q-7 64 -7 151v162q0 96 -14 124h77q-14 -28 -14 -124v-389h-54l-283 441h-4q7 -66 7 -148v-168q0 -97 14 -125h-77q14 28 14 125v264q0 96 -14 124z" />
    <glyph glyph-name="nacute.sc" horiz-adv-x="570" 
d="M264 614q80 50 140 143l36 -38q-62 -81 -159 -132zM82 513h71l280 -437h4q-7 64 -7 151v162q0 96 -14 124h77q-14 -28 -14 -124v-389h-54l-283 441h-4q7 -66 7 -148v-168q0 -97 14 -125h-77q14 28 14 125v264q0 96 -14 124z" />
    <glyph glyph-name="ncaron.sc" horiz-adv-x="570" 
d="M276 585q-45 84 -116 144l22 22q72 -51 117 -123h4q45 72 117 123l22 -22q-67 -57 -116 -144h-50zM82 513h71l280 -437h4q-7 64 -7 151v162q0 96 -14 124h77q-14 -28 -14 -124v-389h-54l-283 441h-4q7 -66 7 -148v-168q0 -97 14 -125h-77q14 28 14 125v264q0 96 -14 124z
" />
    <glyph glyph-name="uni0146.sc" horiz-adv-x="570" 
d="M82 513h71l280 -437h4q-7 64 -7 151v162q0 96 -14 124h77q-14 -28 -14 -124v-389h-54l-283 441h-4q7 -66 7 -148v-168q0 -97 14 -125h-77q14 28 14 125v264q0 96 -14 124zM289 -47q44 0 44 -57q0 -35 -19.5 -67t-56.5 -47l-12 21q50 23 54 76q-4 -2 -10 -2q-13 0 -24 10
t-11 27q0 19 10 29t25 10z" />
    <glyph glyph-name="ntilde.sc" horiz-adv-x="570" 
d="M366 598q-26 0 -49.5 20t-43.5 39.5t-37 19.5q-24 0 -33.5 -17.5t-4.5 -47.5l-52 3q21 100 91 100q26 0 49 -19.5t43 -39t38 -19.5q23 0 33 17.5t5 46.5l51 -3q-21 -100 -90 -100zM82 513h71l280 -437h4q-7 64 -7 151v162q0 96 -14 124h77q-14 -28 -14 -124v-389h-54
l-283 441h-4q7 -66 7 -148v-168q0 -97 14 -125h-77q14 28 14 125v264q0 96 -14 124z" />
    <glyph glyph-name="o.sc" horiz-adv-x="552" 
d="M276 -12q-222 0 -222 270q0 267 222 267t222 -267q0 -270 -222 -270zM276 34q82 0 124.5 52t42.5 172q0 119 -42.5 170t-124.5 51t-124.5 -51t-42.5 -170t43 -171.5t124 -52.5z" />
    <glyph glyph-name="oacute.sc" horiz-adv-x="552" 
d="M237 614q80 50 140 143l36 -38q-62 -81 -159 -132zM276 -12q-222 0 -222 270q0 267 222 267t222 -267q0 -270 -222 -270zM276 34q82 0 124.5 52t42.5 172q0 119 -42.5 170t-124.5 51t-124.5 -51t-42.5 -170t43 -171.5t124 -52.5z" />
    <glyph glyph-name="ocircumflex.sc" horiz-adv-x="552" 
d="M250 748h49q49 -89 115 -144l-20 -22q-73 50 -118 123h-4q-43 -72 -117 -123l-20 22q66 55 115 144zM276 -12q-222 0 -222 270q0 267 222 267t222 -267q0 -270 -222 -270zM276 34q82 0 124.5 52t42.5 172q0 119 -42.5 170t-124.5 51t-124.5 -51t-42.5 -170t43 -171.5
t124 -52.5z" />
    <glyph glyph-name="odieresis.sc" horiz-adv-x="552" 
d="M211 606q-17 0 -28.5 11t-11.5 28t11.5 28t28.5 11t28 -11t11 -28t-11 -28t-28 -11zM341 606q-17 0 -28 11t-11 28t11 28t28 11t28.5 -11t11.5 -28t-11.5 -28t-28.5 -11zM276 -12q-222 0 -222 270q0 267 222 267t222 -267q0 -270 -222 -270zM276 34q82 0 124.5 52
t42.5 172q0 119 -42.5 170t-124.5 51t-124.5 -51t-42.5 -170t43 -171.5t124 -52.5z" />
    <glyph glyph-name="ograve.sc" horiz-adv-x="552" 
d="M316 620l-14 -30q-98 47 -165 129l34 41q62 -89 145 -140zM276 -12q-222 0 -222 270q0 267 222 267t222 -267q0 -270 -222 -270zM276 34q82 0 124.5 52t42.5 172q0 119 -42.5 170t-124.5 51t-124.5 -51t-42.5 -170t43 -171.5t124 -52.5z" />
    </font>
</defs>
</svg>
