<?xml version="1.0" standalone="no"?>
<!DOCTYPE svg PUBLIC "-//W3C//DTD SVG 1.1//EN" "http://www.w3.org/Graphics/SVG/1.1/DTD/svg11.dtd" >
<svg xmlns="http://www.w3.org/2000/svg" xmlns:xlink="http://www.w3.org/1999/xlink" version="1.1">
<metadata>
Created by FontForge 20201107 at Wed Feb 19 16:35:02 2020
 By 
Copyright (c) 2020 by Rodrigo Lo'pez Fuentes. All rights reserved.
</metadata>
<defs>
<font id="Mondo-Book" horiz-adv-x="366" >
  <font-face 
    font-family="Mondo Book"
    font-weight="400"
    font-stretch="normal"
    units-per-em="1000"
    panose-1="0 0 5 0 0 0 0 0 0 0"
    ascent="784"
    descent="-216"
    x-height="485"
    cap-height="657"
    bbox="-465 -332 1448 1014"
    underline-thickness="50"
    underline-position="-150"
    unicode-range="U+0020-FB02"
  />
<missing-glyph horiz-adv-x="461" 
d="M378 722v-922h-292v922h292zM307 660h-152v-30h60v-34h-61v-31h153v31h-61v34h61v30zM246 541h-92v-96h153v32h-61v64zM215 510v-33h-31v33h31zM307 421h-153v-31h61v-34h-61v-30h92v64h61v31zM307 365h-30v-61h-123v-31h153v92zM307 253h-92v-52h31v21h31v-43h-93v74
h-30v-104h153v104zM307 93h-153v-104h153v104zM277 63v-44h-93v44h93zM307 -32h-153v-31h65l-65 -43v-30h153v30h-94l65 43h29v31z" />
    <glyph glyph-name="fi" unicode="fi" horiz-adv-x="522" 
d="M351 0q12 30 12 116v253q0 36 -1 50h-190v-321q0 -78 14 -98h-101q12 20 12 98v321h-66v66h66v45q0 195 193 195q38 0 80 -9.5t59 -20.5l-16 -77q-11 15 -50.5 28t-72.5 13q-62 0 -90 -28t-28 -101v-45h275q-9 -32 -9 -116v-253q0 -86 12 -116h-99z" />
    <glyph glyph-name="fl" unicode="fl" horiz-adv-x="530" 
d="M359 0q12 30 12 116v481v34q-25 28 -92 28q-57 0 -82 -28.5t-25 -96.5v-49h104v-73q-31 7 -104 7v-321q0 -78 14 -98h-101q12 20 12 98v321h-66v66h66v49q0 191 182 191q45 0 83 -12h96q-12 -30 -12 -116v-481q0 -86 13 -116h-100z" />
    <glyph glyph-name="f_f" unicode="ff" horiz-adv-x="565" 
d="M541 659q-48 0 -71.5 -26t-23.5 -86v-62h105v-73q-31 7 -105 7v-321q0 -78 15 -98h-101q11 21 11 98v321h-199v-321q0 -78 14 -98h-101q12 20 12 98v321h-66v66h66v62q0 178 170 178q22 0 50.5 -4t35.5 -4l-8 -78q-25 20 -78 20q-49 0 -72 -25.5t-23 -86.5v-62h199v62
q0 178 170 178q22 0 51 -4t36 -4l-8 -78q-26 20 -79 20z" />
    <glyph glyph-name="f_f_i" unicode="ffi" horiz-adv-x="796" 
d="M625 0q12 30 12 116v253q0 36 -1 50h-190v-321q0 -78 14 -98h-101q12 20 12 98v321h-199v-321q0 -78 14 -98h-101q12 20 12 98v321h-66v66h66v62q0 178 170 178q22 0 50.5 -4t35.5 -4l-8 -78q-25 20 -78 20q-49 0 -72 -25.5t-23 -86.5v-62h199v45q0 195 193 195
q38 0 80 -9.5t59 -20.5l-15 -77q-11 15 -51 28t-73 13q-62 0 -90 -28t-28 -101v-45h275q-9 -32 -9 -116v-253q0 -86 12 -116h-99z" />
    <glyph glyph-name="f_f_l" unicode="ffl" horiz-adv-x="805" 
d="M721 597v-481q0 -86 12 -116h-99q12 30 12 116v481v34q-25 28 -92 28q-57 0 -82.5 -28.5t-25.5 -96.5v-49h105v-73q-32 7 -105 7v-321q0 -78 15 -98h-101q11 21 11 98v321h-199v-321q0 -78 14 -98h-101q12 20 12 98v321h-66v66h66v62q0 178 170 178q22 0 50.5 -4t35.5 -4
l-8 -78q-25 20 -78 20q-49 0 -72 -25.5t-23 -86.5v-62h199v49q0 191 183 191q44 0 83 -12h96q-12 -30 -12 -116z" />
    <glyph glyph-name=".notdef" horiz-adv-x="461" 
d="M378 722v-922h-292v922h292zM307 660h-152v-30h60v-34h-61v-31h153v31h-61v34h61v30zM246 541h-92v-96h153v32h-61v64zM215 510v-33h-31v33h31zM307 421h-153v-31h61v-34h-61v-30h92v64h61v31zM307 365h-30v-61h-123v-31h153v92zM307 253h-92v-52h31v21h31v-43h-93v74
h-30v-104h153v104zM307 93h-153v-104h153v104zM277 63v-44h-93v44h93zM307 -32h-153v-31h65l-65 -43v-30h153v30h-94l65 43h29v31z" />
    <glyph glyph-name=".null" horiz-adv-x="0" 
 />
    <glyph glyph-name="nonmarkingreturn" horiz-adv-x="333" 
 />
    <glyph glyph-name="space" unicode=" " horiz-adv-x="200" 
 />
    <glyph glyph-name="exclam" unicode="!" horiz-adv-x="283" 
d="M87 670h109q-11 -18 -14.5 -45.5t-3.5 -97.5v-315h-73v315q0 111 -18 143zM142 -12q-26 0 -43.5 17t-17.5 44q0 29 17.5 46.5t43.5 17.5t43 -17.5t17 -46.5q0 -27 -17.5 -44t-42.5 -17z" />
    <glyph glyph-name="quotedbl" unicode="&#x22;" horiz-adv-x="404" 
d="M80 602l-3 88h82l-3 -88l-16 -167h-44zM248 602l-3 88h81l-3 -88l-15 -167h-45z" />
    <glyph glyph-name="numbersign" unicode="#" horiz-adv-x="494" 
d="M115 206h-81v53h88l19 152h-87v54h93l23 185h50l-23 -185h136l25 185h49l-24 -185h82v-54h-88l-18 -152h86v-53h-93l-25 -206h-50l25 206h-136l-25 -206h-51zM308 259l19 152h-136l-18 -152h135z" />
    <glyph glyph-name="dollar" unicode="$" horiz-adv-x="519" 
d="M468 157q0 -69 -41.5 -113.5t-125.5 -53.5q0 -55 13 -88l-92 1q12 34 12 87q-36 4 -72.5 15t-70.5 25.5t-48 18.5l46 92q55 -74 145 -84v207q-78 23 -119.5 60.5t-41.5 102.5t41.5 106t119.5 48q0 60 -12 91h92q-13 -31 -13 -91q29 -3 58.5 -12t58.5 -20.5t41 -15.5
l-42 -82q-51 55 -116 63v-194l10 -3q78 -23 117.5 -59t39.5 -101zM150 428q0 -33 20.5 -52.5t63.5 -34.5v173q-84 -11 -84 -86zM301 57q89 12 89 93q0 39 -21 59t-68 35v-187z" />
    <glyph glyph-name="percent" unicode="%" horiz-adv-x="816" 
d="M553 668h62l-354 -680h-61zM183 271q-67 0 -107 53t-40 145q0 91 40 143.5t107 52.5t107.5 -52.5t40.5 -143.5q0 -92 -40.5 -145t-107.5 -53zM183 323q40 0 62.5 37t22.5 109q0 144 -85 144t-85 -144q0 -72 22.5 -109t62.5 -37zM632 -12q-67 0 -107 53t-40 145
q0 91 40 143.5t107 52.5t107.5 -52.5t40.5 -143.5q0 -92 -40.5 -145t-107.5 -53zM632 40q40 0 62.5 37t22.5 109q0 144 -85 144t-85 -144q0 -72 22.5 -109t62.5 -37z" />
    <glyph glyph-name="ampersand" unicode="&#x26;" horiz-adv-x="665" 
d="M639 0h-154q-3 30 -39 68q-90 -83 -199 -83q-84 0 -139.5 51.5t-55.5 128.5q0 117 144 194q-41 76 -41 143q0 79 52.5 123t124.5 44q70 0 114.5 -41t44.5 -110q0 -62 -44 -104.5t-131 -76.5q-2 -1 -6.5 -2.5t-6.5 -2.5q42 -56 132 -146l8 -9q28 46 10 80h115
q-32 -78 -73 -132q83 -80 144 -125zM233 501q0 -51 31 -110l16 6q79 31 105.5 56t26.5 65q0 36 -22 59t-58 23q-43 0 -71 -26t-28 -73zM130 167q0 -50 33 -81.5t87 -31.5q74 0 145 66l-31 32q-80 81 -130 148q-54 -28 -79 -59.5t-25 -73.5z" />
    <glyph glyph-name="quotesingle" unicode="'" horiz-adv-x="201" 
d="M63 628l-3 62h81l-3 -62l-19 -193h-36z" />
    <glyph glyph-name="parenleft" unicode="(" horiz-adv-x="303" 
d="M228 -170q-82 94 -124 198.5t-42 249.5t42 249.5t124 198.5l40 -78q-60 -19 -96 -116.5t-36 -253.5t36 -253.5t96 -116.5z" />
    <glyph glyph-name="parenright" unicode=")" horiz-adv-x="303" 
d="M75 -170l-40 78q60 19 96 116.5t36 253.5t-36 253.5t-96 116.5l40 78q82 -95 124 -199t42 -249t-42 -249t-124 -199z" />
    <glyph glyph-name="asterisk" unicode="*" horiz-adv-x="418" 
d="M102 456l57 93l-97 40l14 42l101 -25l9 107h45l9 -106l102 24l14 -42l-96 -40l55 -93l-36 -27l-70 85l-70 -85z" />
    <glyph glyph-name="plus" unicode="+" horiz-adv-x="469" 
d="M367 325q45 0 62 10v-91q-17 10 -62 10h-94v-105q0 -43 10 -62h-97q11 18 11 62v105h-95q-45 0 -62 -10v91q17 -10 62 -10h95v105q0 46 -11 62h97q-10 -17 -10 -62v-105h94z" />
    <glyph glyph-name="comma" unicode="," horiz-adv-x="243" 
d="M47 -123q42 19 65.5 51t22.5 71q-3 -1 -11 -1q-24 0 -39.5 14.5t-15.5 40.5q0 25 16.5 40t40.5 15q31 0 48.5 -25t17.5 -68q0 -61 -33.5 -108.5t-92.5 -73.5z" />
    <glyph glyph-name="hyphen" unicode="-" horiz-adv-x="310" 
d="M40 285h230v-67h-230v67z" />
    <glyph glyph-name="hyphen" unicode="&#x2011;" horiz-adv-x="310" 
d="M40 285h230v-67h-230v67z" />
    <glyph glyph-name="hyphen" unicode="&#x2010;" horiz-adv-x="310" 
d="M40 285h230v-67h-230v67z" />
    <glyph glyph-name="period" unicode="." horiz-adv-x="244" 
d="M122 -12q-24 0 -40.5 16.5t-16.5 42.5q0 27 16.5 44t40.5 17t40.5 -17t16.5 -44q0 -26 -16.5 -42.5t-40.5 -16.5z" />
    <glyph glyph-name="slash" unicode="/" horiz-adv-x="369" 
d="M269 710h85l-235 -744q-26 -86 -19 -126h-85l229 729q34 105 25 141z" />
    <glyph glyph-name="zero" unicode="0" horiz-adv-x="523" 
d="M262 -12q-108 0 -167.5 83.5t-59.5 258.5q0 338 227 338q226 0 226 -338q0 -175 -59.5 -258.5t-166.5 -83.5zM262 57q147 0 147 273q0 270 -147 270q-71 0 -109.5 -61.5t-38.5 -208.5q0 -273 148 -273z" />
    <glyph glyph-name="one" unicode="1" horiz-adv-x="499" 
d="M80 45l146 27v498h-118v53q96 6 195 45v-596l134 -27v-45h-357v45z" />
    <glyph glyph-name="two" unicode="2" horiz-adv-x="494" 
d="M322 71q100 0 127 20v-91h-409v60q301 256 301 414q0 57 -31 90.5t-83 33.5q-47 0 -85.5 -22.5t-60.5 -58.5l-44 83q15 5 48.5 24t69.5 32t73 13q84 0 138 -53t54 -138q0 -170 -259 -407h161z" />
    <glyph glyph-name="three" unicode="3" horiz-adv-x="493" 
d="M236 -12q-59 0 -124.5 24t-79.5 25l46 96q21 -33 62.5 -54t90.5 -21q61 0 98 30.5t37 85.5q0 59 -51 95t-154 36v71q92 0 137 33t45 88q0 45 -30.5 72.5t-81.5 27.5q-40 0 -78.5 -19t-58.5 -49l-40 86q5 1 70 27t110 26q82 0 134.5 -46t52.5 -125q0 -58 -32.5 -97.5
t-85.5 -52.5v-6q61 -10 100.5 -53t39.5 -113q0 -85 -59 -136t-148 -51z" />
    <glyph glyph-name="four" unicode="4" horiz-adv-x="495" 
d="M469 249v-79h-88q0 -91 3.5 -120t15.5 -50h-113q12 21 15.5 50t3.5 120h-288v56l277 431h86v-419q63 0 88 11zM97 238h209l5 335z" />
    <glyph glyph-name="five" unicode="5" horiz-adv-x="494" 
d="M235 -12q-43 0 -84 13.5t-72 28.5t-45 17l39 83q18 -30 64 -54t98 -24q60 0 97.5 40t37.5 107q0 65 -36 101t-97 36t-118 -30l-42 20l26 331h193q80 0 121 15v-81h-248l-18 -204q46 18 95 18q87 0 143.5 -52.5t56.5 -152.5q0 -98 -62 -155t-149 -57z" />
    <glyph glyph-name="six" unicode="6" horiz-adv-x="489" 
d="M266 -12q-100 0 -159.5 80.5t-59.5 232.5q0 187 69 277t171 90q32 0 76 -11t55 -12l-20 -87q-42 42 -108 42q-73 0 -120 -65.5t-49 -208.5q28 33 69.5 52.5t85.5 19.5q83 0 131 -52t48 -150q0 -91 -54.5 -149.5t-134.5 -58.5zM266 332q-84 0 -143 -90q7 -90 44 -138
t99 -48q50 0 82.5 38t32.5 102t-30 100t-85 36z" />
    <glyph glyph-name="seven" unicode="7" horiz-adv-x="491" 
d="M178 0q8 357 185 590h-210q-86 0 -110 -15v89q22 -7 110 -7h298v-60q-88 -93 -141.5 -243t-53.5 -273q0 -49 14 -81h-92z" />
    <glyph glyph-name="eight" unicode="8" horiz-adv-x="493" 
d="M246 -12q-92 0 -148.5 44.5t-56.5 125.5q0 62 39.5 110.5t87.5 67.5v4q-95 61 -95 161q0 70 51 118t126 48q80 0 130 -44t50 -117q0 -52 -31.5 -97t-71.5 -66v-3q61 -32 93.5 -74t32.5 -104q0 -76 -56.5 -125t-150.5 -49zM271 366q90 53 90 140q0 43 -30 69.5t-81 26.5
q-47 0 -77 -28.5t-30 -72.5q0 -28 11.5 -50.5t33 -38.5t39.5 -26t44 -20zM246 54q61 0 97 29.5t36 78.5q0 54 -42 87t-114 61q-49 -23 -79 -62t-30 -90q0 -49 36 -76.5t96 -27.5z" />
    <glyph glyph-name="nine" unicode="9" horiz-adv-x="489" 
d="M223 668q102 0 159.5 -80.5t57.5 -234.5q0 -185 -68 -275t-170 -90q-32 0 -75.5 11.5t-55.5 12.5l20 89q47 -45 108 -45q74 0 120.5 64t48.5 207q-27 -37 -68 -57.5t-82 -20.5q-81 0 -131.5 55.5t-50.5 153.5q0 92 54 151t133 59zM227 316q35 0 74 25t65 66
q-7 94 -44 143.5t-99 49.5q-50 0 -82.5 -38.5t-32.5 -103.5q0 -66 30 -104t89 -38z" />
    <glyph glyph-name="colon" unicode=":" horiz-adv-x="249" 
d="M122 349q-24 0 -40.5 16.5t-16.5 42.5t16.5 43t40.5 17t40.5 -17t16.5 -43t-16.5 -42.5t-40.5 -16.5zM122 -12q-24 0 -40.5 16.5t-16.5 42.5q0 27 16.5 44t40.5 17t40.5 -17t16.5 -44q0 -26 -16.5 -42.5t-40.5 -16.5z" />
    <glyph glyph-name="semicolon" unicode=";" horiz-adv-x="249" 
d="M125 330q-24 0 -40.5 16.5t-16.5 42.5q0 27 16.5 44t40.5 17t40.5 -17t16.5 -44q0 -26 -16.5 -42.5t-40.5 -16.5zM47 -123q42 19 65.5 51t22.5 71q-3 -1 -11 -1q-24 0 -39.5 14.5t-15.5 40.5q0 25 16.5 40t40.5 15q31 0 48.5 -25t17.5 -68q0 -61 -33.5 -108.5
t-92.5 -73.5z" />
    <glyph glyph-name="less" unicode="&#x3c;" horiz-adv-x="414" 
d="M317 194q38 -19 60 -17l-38 -82q-12 17 -53 35l-245 115v89l246 115q40 19 52 35l38 -82q-20 1 -60 -17l-206 -95z" />
    <glyph glyph-name="equal" unicode="=" horiz-adv-x="432" 
d="M40 413q17 -11 62 -11h228q46 0 62 11v-92q-16 10 -62 10h-228q-47 0 -62 -10v92zM40 258q17 -10 62 -10h228q45 0 62 10v-91q-19 10 -62 10h-228q-45 0 -62 -10v91z" />
    <glyph glyph-name="greater" unicode="&#x3e;" horiz-adv-x="414" 
d="M129 449l245 -115v-89l-245 -115q-41 -18 -53 -35l-38 82q22 -2 60 17l206 96l-206 95q-38 19 -60 17l38 82q12 -17 53 -35z" />
    <glyph glyph-name="question" unicode="?" horiz-adv-x="405" 
d="M136 205q0 46 11.5 80.5t29 53.5t38 37.5t38 33t29 40.5t11.5 60q0 48 -29.5 75t-74.5 27q-41 0 -75.5 -16t-51.5 -43l-41 81q18 1 71.5 22.5t96.5 21.5q78 0 128.5 -43.5t50.5 -124.5q0 -42 -12 -74t-30 -49.5t-38.5 -36t-38.5 -34.5t-30 -44.5t-12 -66.5h-71zM178 -12
q-26 0 -41.5 15.5t-15.5 40.5q0 27 15.5 42.5t41.5 15.5t42 -15.5t16 -42.5q0 -25 -16 -40.5t-42 -15.5z" />
    <glyph glyph-name="at" unicode="@" horiz-adv-x="777" 
d="M389 591q135 0 226 -90.5t91 -227.5q0 -99 -40 -153t-101 -54q-93 0 -99 94q-10 -23 -34.5 -41t-61.5 -18q-61 0 -99 42.5t-38 116.5t37.5 116t99.5 42q35 0 58.5 -14.5t32.5 -34.5l5 39h55v-211q0 -42 10.5 -59t33.5 -17q81 0 81 151q0 114 -72.5 186t-184.5 72
q-113 0 -185.5 -72.5t-72.5 -189.5q0 -118 72 -191t185 -73q56 0 92 27v-82q-48 -5 -92 -5q-136 0 -226.5 91t-90.5 233q0 140 91 231.5t227 91.5zM461 242v39q-7 39 -31 62.5t-58 23.5q-36 0 -57 -27t-21 -81q0 -53 21 -79.5t57 -26.5q33 0 57.5 25.5t31.5 63.5z" />
    <glyph glyph-name="A" unicode="A" horiz-adv-x="578" 
d="M234 657h110q-2 -26 26 -109l143 -421q30 -90 54 -127h-111q10 25 -19 119l-26 82l-246 -1l-27 -81q-29 -92 -19 -119h-108q25 36 55 127l142 421q29 88 26 109zM185 265h205l-102 318h-2z" />
    <glyph glyph-name="B" unicode="B" horiz-adv-x="581" 
d="M403 355q66 -14 101.5 -56t35.5 -108q0 -96 -63.5 -143.5t-180.5 -47.5h-220q17 30 17 116v425q0 84 -17 116h200q114 0 169.5 -39t55.5 -124q0 -48 -24.5 -85t-73.5 -54zM169 590v-209h103q154 0 154 113q0 52 -35 74t-115 22h-107zM296 67q84 0 126.5 28.5t42.5 95.5
q0 65 -48 95t-145 30h-103v-249h127z" />
    <glyph glyph-name="C" unicode="C" horiz-adv-x="561" 
d="M334 -12q-138 0 -210.5 77.5t-72.5 263.5q0 184 71.5 262t202.5 78q38 0 75.5 -11t70.5 -25.5t43 -17.5l-42 -87q-15 28 -56.5 50.5t-89.5 22.5q-93 0 -144.5 -61t-51.5 -210q0 -152 53 -213.5t153 -61.5q51 0 93.5 21t59.5 48l35 -92q-13 -3 -45.5 -14.5t-69.5 -20.5
t-75 -9z" />
    <glyph glyph-name="D" unicode="D" horiz-adv-x="614" 
d="M76 657h177q157 0 233.5 -76t76.5 -250t-76.5 -252.5t-230.5 -78.5h-180q17 30 17 116v425q0 84 -17 116zM247 67q123 0 180 60t57 204q0 143 -56.5 201t-180.5 58h-78v-523h78z" />
    <glyph glyph-name="E" unicode="E" horiz-adv-x="523" 
d="M76 657h257q80 0 128 6v-88q-37 15 -128 15h-166v-212h123q93 0 123 10v-87q-30 10 -123 10h-123v-244h178q92 0 129 15v-89q-43 7 -129 7h-269q15 34 15 116v425q0 81 -15 116z" />
    <glyph glyph-name="F" unicode="F" horiz-adv-x="489" 
d="M76 657h262q87 0 126 6v-88q-35 15 -126 15h-171v-246h126q93 0 124 10v-87q-36 10 -124 10h-126v-161q0 -85 15 -116h-106q15 34 15 116v425q0 81 -15 116z" />
    <glyph glyph-name="G" unicode="G" horiz-adv-x="600" 
d="M334 -12q-133 0 -208 77.5t-75 263.5q0 96 21 164t60 105.5t87.5 54t110.5 16.5q43 0 79.5 -9.5t76.5 -28.5l41 -19l-43 -80q-45 68 -154 68q-96 0 -148 -58.5t-52 -211.5t53 -213t151 -60q86 0 132 39v160h-34q-71 0 -113 -11v90q38 -7 113 -7h111q-7 -28 -7 -118v-70
q0 -73 5 -98q-10 -3 -47.5 -18.5t-77 -25.5t-82.5 -10z" />
    <glyph glyph-name="H" unicode="H" horiz-adv-x="648" 
d="M76 657h106q-15 -35 -15 -116v-160h313v160q0 81 -15 116h107q-15 -35 -15 -116v-425q0 -82 15 -116h-107q15 34 15 116v196h-313v-196q0 -82 15 -116h-106q15 34 15 116v425q0 81 -15 116z" />
    <glyph glyph-name="I" unicode="I" horiz-adv-x="270" 
d="M173 116q0 -82 15 -116h-106q15 34 15 116v425q0 81 -15 116h106q-15 -35 -15 -116v-425z" />
    <glyph glyph-name="J" unicode="J" horiz-adv-x="434" 
d="M171 -12q-27 0 -53.5 8t-51 19t-35.5 14l30 91q13 -27 42.5 -46t67.5 -19q53 0 78.5 31t25.5 113v342q0 86 -14 116h105q-14 -30 -14 -116v-342q0 -211 -181 -211z" />
    <glyph glyph-name="K" unicode="K" horiz-adv-x="587" 
d="M76 657h106q-15 -35 -15 -116v-221h3l214 256q40 49 50 81h118q-38 -29 -91 -94l-130 -156l160 -272q41 -71 90 -135h-114q-6 39 -42 101l-143 246l-115 -136v-95q0 -82 15 -116h-106q15 34 15 116v425q0 81 -15 116z" />
    <glyph glyph-name="L" unicode="L" horiz-adv-x="475" 
d="M76 657h106q-15 -35 -15 -116v-476h163q90 0 124 15v-87q-35 7 -124 7h-254q15 34 15 116v425q0 81 -15 116z" />
    <glyph glyph-name="M" unicode="M" horiz-adv-x="728" 
d="M637 541v-425q0 -87 15 -116h-102q16 29 16 116v271q0 121 10 178h-3l-142 -384q-33 -91 -30 -117h-75q2 28 -30 117l-142 384h-3q9 -60 9 -178v-271q0 -87 15 -116h-99q15 29 15 116v425q0 86 -15 116h112l177 -480l175 480h112q-15 -33 -15 -116z" />
    <glyph glyph-name="N" unicode="N" horiz-adv-x="649" 
d="M76 657h105l310 -515h4q-9 40 -9 109v290q0 81 -15 116h102q-15 -35 -15 -116v-405q0 -91 14 -136h-82l-333 552h-4q10 -39 10 -105v-331q0 -82 15 -116h-102q15 34 15 116v425q0 81 -15 116z" />
    <glyph glyph-name="O" unicode="O" horiz-adv-x="651" 
d="M326 -12q-129 0 -202 85.5t-73 257.5q0 171 72.5 254.5t202.5 83.5q129 0 202 -83.5t73 -254.5q0 -172 -73 -257.5t-202 -85.5zM326 57q92 0 143.5 67.5t51.5 206.5q0 269 -195 269t-195 -269q0 -140 51 -207t144 -67z" />
    <glyph glyph-name="P" unicode="P" horiz-adv-x="554" 
d="M76 657h197q119 0 182 -47.5t63 -160.5q0 -110 -64 -163.5t-177 -53.5h-110v-116q0 -82 15 -116h-106q15 34 15 116v425q0 81 -15 116zM267 295q89 0 131.5 36t42.5 118t-42.5 114t-135.5 32h-96v-300h100z" />
    <glyph glyph-name="Q" unicode="Q" horiz-adv-x="651" 
d="M602 -80l16 -76q-4 0 -37.5 -4t-55.5 -4q-86 0 -145.5 42t-80.5 111q-118 9 -183 94t-65 248q0 171 72.5 254.5t202.5 83.5q129 0 202 -83.5t73 -254.5q0 -157 -61.5 -242.5t-171.5 -98.5q17 -43 60.5 -66t96.5 -23q50 0 77 19zM131 331q0 -140 51 -207t144 -67
q92 0 143.5 67.5t51.5 206.5q0 269 -195 269t-195 -269z" />
    <glyph glyph-name="R" unicode="R" horiz-adv-x="566" 
d="M76 657h204q117 0 178.5 -43t61.5 -146q0 -80 -40 -128t-109 -62l91 -159q48 -81 84 -119h-123q0 38 -38 104l-94 165h-124v-153q0 -82 15 -116h-106q15 34 15 116v426q0 81 -15 115zM277 334q84 0 125.5 32t41.5 102q0 67 -41 95t-125 28h-111v-257h110z" />
    <glyph glyph-name="S" unicode="S" horiz-adv-x="529" 
d="M267 -12q-41 0 -83.5 11t-88.5 29.5t-57 21.5l47 93q30 -42 79 -65t104 -23q70 0 105.5 30t35.5 83q0 49 -26 75t-85 46l-73 27q-68 24 -108 65.5t-40 116.5q0 77 56 124t144 47q37 0 71.5 -8.5t73.5 -24.5t47 -19l-42 -83q-58 67 -150 67q-57 0 -90 -27t-33 -75
q0 -46 25.5 -70t77.5 -43l73 -27q76 -28 116.5 -70t40.5 -115q0 -81 -58 -133.5t-162 -52.5z" />
    <glyph glyph-name="T" unicode="T" horiz-adv-x="517" 
d="M220 590h-83q-73 0 -116 -15v88q51 -6 116 -6h243q66 0 115 6v-88q-41 15 -115 15h-83v-474q0 -74 15 -116h-107q15 42 15 116v474z" />
    <glyph glyph-name="U" unicode="U" horiz-adv-x="634" 
d="M317 -12q-233 0 -233 278v276q0 81 -15 115h106q-15 -34 -15 -115v-277q0 -210 157 -210q160 0 160 210v277q0 81 -15 115h103q-15 -34 -15 -115v-276q0 -278 -233 -278z" />
    <glyph glyph-name="V" unicode="V" horiz-adv-x="559" 
d="M340 0h-119q-3 54 -37 163l-111 343q-37 117 -62 151h110q-5 -32 25 -130l98 -320q21 -72 35 -126h8q24 91 35 127l96 319q30 100 24 130h106q-25 -39 -61 -151l-110 -343q-35 -108 -37 -163z" />
    <glyph glyph-name="W" unicode="W" horiz-adv-x="796" 
d="M676 657h103q-22 -40 -40 -125l-87 -416q-19 -84 -11 -116h-119q5 33 -15 116l-109 431l-107 -431q-21 -87 -15 -116h-118q7 36 -11 116l-90 416q-18 84 -40 125h108q-9 -32 7 -114l89 -450l116 457q20 80 14 107h99q-8 -26 13 -107l117 -456l89 449q17 85 7 114z" />
    <glyph glyph-name="X" unicode="X" horiz-adv-x="524" 
d="M434 118q24 -41 32.5 -55.5t21.5 -32t27 -30.5h-114q-1 33 -36 94l-107 197l-104 -197q-34 -63 -34 -94h-111q32 30 82 118l125 222l-121 214q-46 80 -72 103h113q0 -27 28 -78l103 -194l100 194q27 54 26 78h110q-12 -10 -24.5 -26.5t-19.5 -28t-28 -48.5l-123 -218z
" />
    <glyph glyph-name="Y" unicode="Y" horiz-adv-x="510" 
d="M429 532l-136 -276v-140q0 -77 15 -116h-107q15 39 15 116v140l-135 276q-3 5 -12 23.5t-11 22.5t-9 17.5t-10 18.5t-9 14t-10.5 15.5t-10.5 13.5h107q1 -35 34 -105l107 -231l107 231q32 65 34 105h102q-25 -31 -71 -125z" />
    <glyph glyph-name="Z" unicode="Z" horiz-adv-x="539" 
d="M368 67q92 0 128 20v-95q-33 8 -128 8h-322l-1 62q28 25 76 100l275 428h-198q-89 0 -121 -21v95q36 -7 121 -7h295v-61q-24 -22 -66 -86l-285 -443h226z" />
    <glyph glyph-name="bracketleft" unicode="[" horiz-adv-x="298" 
d="M92 706q128 0 175 19v-63h-101v-770h101v-62q-47 19 -175 19v857z" />
    <glyph glyph-name="backslash" unicode="\" horiz-adv-x="369" 
d="M100 710q-9 -37 24 -141l230 -729h-85q8 40 -19 126l-235 744h85z" />
    <glyph glyph-name="bracketright" unicode="]" horiz-adv-x="298" 
d="M206 706v-857q-128 0 -175 -19v62h101v770h-101v63q47 -19 175 -19z" />
    <glyph glyph-name="asciicircum" unicode="^" horiz-adv-x="396" 
d="M348 277l-82 -29q1 17 -16 59l-51 134l-53 -134q-16 -42 -15 -59l-83 29q14 9 32 53l82 208h72l83 -208q16 -42 31 -53z" />
    <glyph glyph-name="underscore" unicode="_" horiz-adv-x="500" 
d="M12 -71h476v-51h-476v51z" />
    <glyph glyph-name="grave" unicode="`" horiz-adv-x="542" 
d="M323 633l-17 -45q-100 29 -184 108l41 62q78 -88 160 -125z" />
    <glyph glyph-name="a" unicode="a" horiz-adv-x="493" 
d="M201 -12q-72 0 -113 37.5t-41 106.5q0 145 226 145h70v38q0 59 -22.5 87t-78.5 28q-44 0 -83.5 -16t-60.5 -40l-34 78q10 1 70 23t108 22q94 0 135.5 -44t41.5 -136v-199q0 -87 12 -118h-86l5 64h-7q-18 -30 -57.5 -53t-84.5 -23zM207 51q41 0 79 27t57 68v69h-70
q-148 0 -148 -83q0 -39 22.5 -60t59.5 -21z" />
    <glyph glyph-name="b" unicode="b" horiz-adv-x="546" 
d="M301 -12q-85 0 -143 50h-7l4 -38h-79q8 45 8 116v482q0 75 -12 115h95q-8 -44 -8 -115v-167q22 27 61.5 46.5t82.5 19.5q92 0 142 -66t50 -182q0 -122 -52.5 -191.5t-141.5 -69.5zM292 55q125 0 125 194q0 85 -31 133t-93 48q-37 0 -74.5 -21.5t-59.5 -53.5v-230
q23 -30 60 -50t73 -20z" />
    <glyph glyph-name="c" unicode="c" horiz-adv-x="455" 
d="M271 -12q-103 0 -164 61.5t-61 192.5t61.5 193t163.5 62q52 0 142 -39l-36 -78q-41 50 -106 50q-67 0 -107 -44.5t-40 -143.5q0 -187 147 -187q77 0 121 53l35 -78q-100 -42 -156 -42z" />
    <glyph glyph-name="d" unicode="d" horiz-adv-x="547" 
d="M250 -12q-88 0 -143.5 65.5t-55.5 188.5q0 121 58 188t145 67q82 0 133 -49v150q0 85 -12 115h95q-7 -35 -7 -115v-482q0 -86 12 -116h-85l4 50h-7q-54 -62 -137 -62zM261 55q36 0 72 24t54 58v224q-22 30 -55.5 49.5t-68.5 19.5q-60 0 -97 -49t-37 -139q0 -93 35.5 -140
t96.5 -47z" />
    <glyph glyph-name="e" unicode="e" horiz-adv-x="497" 
d="M276 -12q-110 0 -170 63.5t-60 189.5q0 125 58 190.5t152 65.5t144 -58.5t50 -159.5q0 -32 -3 -50h-323q4 -89 41 -131.5t120 -42.5q84 0 123 47l29 -77q-82 -37 -161 -37zM374 289q0 66 -30 103.5t-86 37.5q-61 0 -95 -39t-40 -102h251z" />
    <glyph glyph-name="f" unicode="f" horiz-adv-x="290" 
d="M97 419h-66v66h66v62q0 178 170 178q22 0 50.5 -4t35.5 -4l-8 -78q-25 20 -78 20q-49 0 -72 -25.5t-23 -86.5v-62h104v-73q-31 7 -104 7v-321q0 -78 14 -98h-101q12 20 12 98v321z" />
    <glyph glyph-name="g" unicode="g" horiz-adv-x="496" 
d="M470 414q-52 20 -98 20v-7q41 -43 41 -104q0 -81 -47.5 -125t-129.5 -44q-24 0 -43 4q-16 -16 -16 -37q0 -24 21.5 -31t80.5 -7q191 0 191 -136q0 -74 -59.5 -110.5t-166.5 -36.5q-99 0 -152.5 36t-53.5 104q0 41 25.5 74.5t62.5 47.5q-12 20 -12 47q0 39 25 66
q-84 44 -84 150q0 82 49.5 127t131.5 45q38 0 67 -12h63q62 0 104 9v-80zM236 210q47 0 77.5 29t30.5 86q0 52 -31 82t-77 30q-48 0 -78 -28t-30 -84q0 -57 30.5 -86t77.5 -29zM279 16q-78 0 -112 14q-58 -30 -58 -90q0 -79 136 -79q71 0 111 21.5t40 64.5q0 37 -28 53
t-89 16z" />
    <glyph glyph-name="h" unicode="h" horiz-adv-x="544" 
d="M72 713h95q-8 -33 -8 -115v-119q0 -40 -7 -66h7q21 36 62 60t88 24q76 0 117 -45t41 -135v-201q0 -86 12 -116h-100q13 30 13 116v201q0 62 -23.5 87.5t-66.5 25.5q-36 0 -75 -25t-68 -68v-221q0 -86 12 -116h-99q12 30 12 116v482q0 85 -12 115z" />
    <glyph glyph-name="i" unicode="i" horiz-adv-x="253" 
d="M127 586q-26 0 -40.5 13.5t-14.5 38.5q0 24 15 38t40 14t40 -14t15 -38t-15 -38t-40 -14zM76 0q12 30 12 116v253q0 86 -12 116h96q-9 -32 -9 -116v-253q0 -86 12 -116h-99z" />
    <glyph glyph-name="j" unicode="j" horiz-adv-x="244" 
d="M122 586q-24 0 -38.5 14t-14.5 38t14.5 38t38.5 14q23 0 37.5 -14t14.5 -38t-14 -38t-38 -14zM27 -200q-20 0 -49 3.5t-31 3.5l16 81q22 -21 64 -21q33 0 45.5 22.5t12.5 71.5v408q0 75 -12 116h99q-12 -41 -12 -116v-408q0 -161 -133 -161z" />
    <glyph glyph-name="k" unicode="k" horiz-adv-x="489" 
d="M72 713h94q-8 -33 -8 -115v-327q0 -36 -7 -54h7l154 193q37 44 41 75h116q-35 -28 -103 -109l-76 -91l125 -183q49 -70 84 -102h-119q-5 33 -38 85l-98 145l-86 -104v-10q0 -87 12 -116h-98q12 30 12 116v482q0 85 -12 115z" />
    <glyph glyph-name="l" unicode="l" horiz-adv-x="243" 
d="M72 0q12 30 12 116v482q0 85 -12 115h99q-12 -30 -12 -115v-482q0 -86 12 -116h-99z" />
    <glyph glyph-name="m" unicode="m" horiz-adv-x="825" 
d="M72 485h84l-4 -71h7q24 34 63.5 58.5t84.5 24.5q102 0 134 -90q67 90 160 90q147 0 147 -188v-193q0 -85 12 -116h-99q12 31 12 116v193q0 123 -84 123q-70 0 -135 -87v-229q0 -85 12 -116h-99q12 31 12 116v193q0 123 -85 123q-70 0 -135 -87v-229q0 -85 12 -116h-99
q12 31 12 116v253q0 86 -12 116z" />
    <glyph glyph-name="n" unicode="n" horiz-adv-x="544" 
d="M72 486h85q0 -32 -5 -69h7q20 30 62.5 55t93.5 25q70 0 111 -43.5t41 -130.5v-205q0 -87 12 -118h-100q13 31 13 118v205q0 107 -93 107q-39 0 -77.5 -26t-62.5 -64v-222q0 -87 12 -118h-99q12 31 12 118v251q0 86 -12 117z" />
    <glyph glyph-name="o" unicode="o" horiz-adv-x="530" 
d="M265 -12q-100 0 -159.5 64.5t-59.5 188.5q0 126 59.5 191t159.5 65t159.5 -65t59.5 -191q0 -124 -59.5 -188.5t-159.5 -64.5zM265 55q141 0 141 186q0 189 -141 189t-141 -189q0 -186 141 -186z" />
    <glyph glyph-name="p" unicode="p" horiz-adv-x="546" 
d="M159 36v-120q0 -75 12 -116h-99q12 41 12 116v454q0 76 -12 116h84l-4 -54h7q23 26 62 45.5t82 19.5q92 0 142 -66t50 -182q0 -121 -53.5 -191t-140.5 -70t-142 48zM292 55q60 0 92.5 51t32.5 143q0 85 -31 133t-93 48q-36 0 -73.5 -22.5t-60.5 -53.5v-230
q23 -30 59.5 -49.5t73.5 -19.5z" />
    <glyph glyph-name="q" unicode="q" horiz-adv-x="547" 
d="M250 -12q-88 0 -143.5 65.5t-55.5 188.5q0 121 58 188t145 67q82 0 133 -49h7q-4 22 -4 38h85q-12 -51 -12 -116v-454q0 -75 12 -116h-100q12 41 12 116v66q0 40 7 65h-7q-54 -59 -137 -59zM257 55q38 0 74.5 24.5t55.5 60.5v221q-52 69 -130 69q-56 0 -92 -49.5
t-36 -138.5q0 -92 34.5 -139.5t93.5 -47.5z" />
    <glyph glyph-name="r" unicode="r" horiz-adv-x="351" 
d="M72 485h84q0 -62 -5 -90h8q15 43 51.5 72.5t82.5 29.5q12 0 52 -5l-16 -78q-19 15 -44 15q-38 0 -75 -41.5t-51 -95.5v-176q0 -86 12 -116h-99q12 30 12 116v253q0 86 -12 116z" />
    <glyph glyph-name="s" unicode="s" horiz-adv-x="421" 
d="M208 -12q-32 0 -65.5 7t-66 17.5t-44.5 13.5l33 92q21 -28 61 -47t85 -19q48 0 74 19.5t26 55.5q0 52 -86 77l-39 11q-130 37 -130 145q0 65 43.5 101t121.5 36q26 0 54 -6.5t58 -16.5t38 -12l-38 -83q-15 24 -45.5 39t-66.5 15q-44 0 -68.5 -18t-24.5 -50q0 -57 73 -78
l47 -14q136 -40 136 -141q0 -68 -45.5 -106t-130.5 -38z" />
    <glyph glyph-name="t" unicode="t" horiz-adv-x="342" 
d="M235 -12q-135 0 -135 159v279h-72v48q39 10 81 38t67 60v-87h131v-66q-41 7 -131 7v-280q0 -48 17 -72t59 -24q33 0 56 23l15 -73q-7 -1 -39.5 -6.5t-48.5 -5.5z" />
    <glyph glyph-name="u" unicode="u" horiz-adv-x="540" 
d="M224 -12q-148 0 -148 190v191q0 77 -17 116h93v-307q0 -125 86 -125q39 0 78.5 29t65.5 78v209q0 76 -16 116h91v-369q0 -75 12 -116h-89q0 41 8 77h-8q-49 -89 -156 -89z" />
    <glyph glyph-name="v" unicode="v" horiz-adv-x="480" 
d="M10 485h104q-4 -30 19 -97l78 -231q18 -53 28 -87h7q9 30 28 87l77 231q24 68 19 97h100q-25 -36 -53 -115l-84 -238q-35 -97 -34 -132h-115q1 35 -34 132l-87 238q-32 86 -53 115z" />
    <glyph glyph-name="w" unicode="w" horiz-adv-x="712" 
d="M603 485h94q-25 -42 -45 -116l-68 -253q-20 -78 -20 -116h-112q1 40 -20 116l-74 267l-75 -267q-21 -74 -20 -116h-113q1 40 -20 116l-71 253q-27 88 -44 116h101q-4 -33 14 -101l78 -295l84 294q20 72 19 102h99q-2 -29 18 -104l80 -291l81 294q18 69 14 101z" />
    <glyph glyph-name="x" unicode="x" horiz-adv-x="457" 
d="M445 0h-108q4 17 -20 56l-94 148l-88 -147q-23 -37 -20 -57h-103q21 18 52 67l117 189l-103 163q-28 47 -54 66h108q-1 -22 21 -56l82 -135l77 135q20 33 18 56h103q-25 -21 -51 -66l-105 -176l114 -176q30 -49 54 -67z" />
    <glyph glyph-name="y" unicode="y" horiz-adv-x="479" 
d="M96 -200q-11 0 -30.5 2.5t-29.5 2.5l20 87q16 -29 50 -29q69 0 106 108l10 29h-6l-156 387q-28 71 -51 98h108q-5 -33 14 -80l121 -316h3l104 316q17 48 10 80h101q-20 -26 -46 -98l-148 -428q-28 -79 -70 -119t-110 -40z" />
    <glyph glyph-name="z" unicode="z" horiz-adv-x="432" 
d="M32 53q21 17 52 64l209 306h-127q-75 0 -105 -15v82q50 -5 100 -5h219l9 -55q-14 -8 -44 -49l-218 -319h153q82 0 117 15v-82q-57 5 -111 5h-245z" />
    <glyph glyph-name="braceleft" unicode="{" horiz-adv-x="303" 
d="M227 -152q-65 12 -91 36.5t-26 94.5q0 36 5.5 99t5.5 97q0 81 -88 70v66q48 -6 68 14.5t20 54.5q0 35 -5.5 97t-5.5 99t6.5 60.5t23.5 37.5t35.5 20.5t51.5 12.5l51 9v-66l-29 4q-38 6 -51.5 -14.5t-13.5 -68.5q0 -29 3.5 -88t3.5 -96q0 -48 -15 -73.5t-52 -33.5v-4
q37 -8 52 -33.5t15 -73.5q0 -37 -3.5 -96.5t-3.5 -89.5q0 -53 13.5 -75t51.5 -16l29 4v-57z" />
    <glyph glyph-name="bar" unicode="|" horiz-adv-x="287" 
d="M95 703h95q-13 -17 -13 -79v-698q0 -59 14 -80h-95q14 17 14 80v698q0 59 -15 79z" />
    <glyph glyph-name="braceright" unicode="}" horiz-adv-x="303" 
d="M76 -152l-51 -9v57l29 -4q38 -6 51.5 16t13.5 75q0 30 -3.5 89.5t-3.5 96.5q0 48 15 73.5t52 33.5v4q-37 8 -52 33.5t-15 73.5q0 37 3.5 96t3.5 88q0 48 -13 68.5t-52 14.5l-29 -4v66l51 -9q33 -6 51.5 -12.5t35.5 -20.5t23.5 -37.5t6.5 -60.5t-5.5 -99t-5.5 -97
q0 -34 20 -54.5t68 -14.5v-66q-88 11 -88 -70q0 -34 5.5 -97t5.5 -99q0 -71 -26.5 -95t-90.5 -36z" />
    <glyph glyph-name="asciitilde" unicode="~" horiz-adv-x="436" 
d="M293 290q-38 0 -82.5 28t-63.5 28q-34 0 -34 -55h-73q0 64 29 98t73 34q38 0 83 -28t64 -28q34 0 34 54h73q0 -64 -29.5 -97.5t-73.5 -33.5z" />
    <glyph glyph-name="uni00A0" unicode="&#xa0;" horiz-adv-x="200" 
 />
    <glyph glyph-name="exclamdown" unicode="&#xa1;" horiz-adv-x="283" 
d="M142 498q25 0 42.5 -17t17.5 -44q0 -29 -17 -46.5t-43 -17.5t-43.5 17.5t-17.5 46.5q0 27 17.5 44t43.5 17zM87 -184q18 32 18 143v315h73v-315q0 -70 3.5 -97.5t14.5 -45.5h-109z" />
    <glyph glyph-name="cent" unicode="&#xa2;" horiz-adv-x="455" 
d="M422 22q-63 -29 -134 -34q0 -53 12 -86l-92 1q13 30 13 89q-179 29 -179 250q0 115 48 176t131 75q0 64 -13 94h92q-12 -31 -12 -90q59 -3 125 -30l-28 -81q-35 40 -97 44v-375q70 4 108 47zM120 242q0 -153 101 -181v363q-101 -30 -101 -182z" />
    <glyph glyph-name="sterling" unicode="&#xa3;" horiz-adv-x="458" 
d="M311 65q86 0 121 15v-87q-36 7 -121 7h-277q14 34 14 54v4q53 0 73 27.5t20 63.5q0 34 -24 106h-29q-40 0 -56 -10v79q16 -10 56 -10h10q-23 74 -23 139q0 80 47 126.5t121 46.5q80 0 146 -35l-24 -75q-43 51 -120 51q-44 0 -71 -29t-27 -81q0 -60 27 -143h91q40 0 56 10
v-79q-16 10 -56 10h-71q17 -54 17 -100q0 -63 -24 -90h124z" />
    <glyph glyph-name="currency" unicode="&#xa4;" horiz-adv-x="508" 
d="M420 279q0 -50 -24 -88q45 -46 76 -58l-72 -71q-13 29 -57 75q-42 -24 -89 -24t-88 23q-42 -41 -58 -74l-72 71q30 11 76 57q-24 38 -24 89q0 53 25 90q-44 44 -77 58l72 71q15 -34 59 -76q38 23 87 23q46 0 88 -24q44 46 57 75l72 -71q-29 -11 -75 -57q24 -40 24 -89z
M254 182q42 0 64.5 25t22.5 72t-22.5 72t-64.5 25q-87 0 -87 -97t87 -97z" />
    <glyph glyph-name="yen" unicode="&#xa5;" horiz-adv-x="502" 
d="M312 294h61q40 0 56 10v-72h-140v-50h140v-73q-16 10 -56 10h-84v-3q0 -77 15 -116h-107q15 39 15 116v3h-79q-40 0 -56 -10v73h135v50h-135v72q16 -10 56 -10h56l-105 196q-45 84 -79 124h107q1 -31 40 -105l101 -193l101 193q38 74 40 105h102q-38 -47 -79 -124z" />
    <glyph glyph-name="brokenbar" unicode="&#xa6;" horiz-adv-x="287" 
d="M95 703h95q-13 -17 -13 -79v-192q0 -59 14 -80h-95q14 17 14 80v192q0 59 -15 79zM95 197h95q-13 -17 -13 -79v-192q0 -59 14 -80h-95q14 17 14 80v192q0 59 -15 79z" />
    <glyph glyph-name="section" unicode="&#xa7;" horiz-adv-x="528" 
d="M210 -37q45 0 76 33t31 86q0 38 -25.5 75t-61.5 69.5t-72.5 67.5t-62 82t-25.5 100q0 94 61.5 148.5t157.5 54.5q46 0 87.5 -12t60.5 -26v-107q-13 36 -51.5 60t-83.5 24q-39 0 -62.5 -33t-23.5 -88q0 -40 25.5 -77.5t62 -70t73.5 -66.5t62.5 -80.5t25.5 -98.5
q0 -93 -62.5 -147.5t-177.5 -54.5q-101 0 -156 32v114q17 -36 56 -60.5t85 -24.5zM125 478q0 -46 25.5 -88.5t62 -76.5t73.5 -67.5t62.5 -74.5t25.5 -84q0 -66 -43 -112q77 37 77 126q0 46 -25.5 87.5t-62 74.5t-72.5 66t-61.5 74t-25.5 86q0 71 35 112q-71 -37 -71 -123z
" />
    <glyph glyph-name="dieresis" unicode="&#xa8;" horiz-adv-x="542" 
d="M197 589q-20 0 -33.5 14t-13.5 34t13.5 33.5t33.5 13.5t33.5 -13.5t13.5 -33.5t-13.5 -34t-33.5 -14zM345 589q-20 0 -33.5 14t-13.5 34t13.5 33.5t33.5 13.5t33.5 -13.5t13.5 -33.5t-13.5 -34t-33.5 -14z" />
    <glyph glyph-name="copyright" unicode="&#xa9;" horiz-adv-x="874" 
d="M438 -43q-149 0 -254 104.5t-105 253.5t105 253.5t254 104.5q148 0 252.5 -104.5t104.5 -253.5q0 -148 -104.5 -253t-252.5 -105zM438 9q127 0 216.5 89.5t89.5 216.5t-89.5 216.5t-216.5 89.5q-128 0 -218 -89.5t-90 -216.5t90 -216.5t218 -89.5zM539 193v-75
q-3 0 -39 -6t-57 -6q-85 0 -136 52.5t-51 156.5q0 105 50.5 157t135.5 52q16 0 33.5 -2t36 -5t27.5 -4v-75q-34 34 -90 34q-62 0 -98 -38t-36 -119t36 -119t98 -38q55 0 90 35z" />
    <glyph glyph-name="ordfeminine" unicode="&#xaa;" horiz-adv-x="370" 
d="M149 272q-51 0 -85.5 30t-34.5 83q0 114 177 114h54v29q0 42 -17 59.5t-61 17.5q-34 0 -65 -12.5t-47 -31.5l-27 70q9 1 55.5 18t83.5 17q147 0 147 -136v-156q0 -67 10 -92h-77l4 50h-6q-34 -60 -111 -60zM162 328q27 0 55 22t43 54v37h-54q-106 0 -106 -56
q0 -30 19 -43.5t43 -13.5z" />
    <glyph glyph-name="guillemotleft" unicode="&#xab;" horiz-adv-x="411" 
d="M220 100l-34 -30q-68 98 -140 145v75q74 48 140 144l34 -32q-53 -87 -123 -150q71 -65 123 -152zM360 100l-34 -30q-68 98 -140 145v75q74 48 140 144l34 -32q-53 -87 -123 -150q71 -65 123 -152z" />
    <glyph glyph-name="logicalnot" unicode="&#xac;" horiz-adv-x="397" 
d="M337 318v-82q0 -40 10 -56h-95q10 16 10 56v59h-160q-45 0 -62 -10v99q17 -10 62 -10h245q-10 -16 -10 -56z" />
    <glyph glyph-name="uni00AD" unicode="&#xad;" horiz-adv-x="310" 
d="M40 285h230v-67h-230v67z" />
    <glyph glyph-name="registered" unicode="&#xae;" horiz-adv-x="603" 
d="M302 769q98 0 167.5 -69.5t69.5 -166.5q0 -98 -69.5 -167t-167.5 -69t-168 69t-70 167q0 97 70 166.5t168 69.5zM302 338q80 0 137.5 57t57.5 138t-57.5 138.5t-137.5 57.5q-81 0 -138.5 -57.5t-57.5 -138.5t57.5 -138t138.5 -57zM371 449q21 -32 38 -47h-68q5 12 -12 42
l-33 55h-40v-46q0 -34 11 -51h-66q12 19 12 51v163q0 33 -12 52h105q47 0 72 -22.5t25 -61.5q0 -31 -17.5 -52.5t-48.5 -28.5zM255 534h48q59 0 59 49t-59 49h-48v-98z" />
    <glyph glyph-name="macron" unicode="&#xaf;" horiz-adv-x="542" 
d="M143 644h256v-54h-256v54z" />
    <glyph glyph-name="degree" unicode="&#xb0;" horiz-adv-x="397" 
d="M198 404q-58 0 -98.5 41t-40.5 99q0 57 40.5 98t98.5 41t99 -41t41 -98q0 -58 -41 -99t-99 -41zM198 450q38 0 64 26.5t26 67.5q0 40 -26 66.5t-64 26.5t-64 -26.5t-26 -66.5q0 -41 26 -67.5t64 -26.5z" />
    <glyph glyph-name="plusminus" unicode="&#xb1;" horiz-adv-x="415" 
d="M308 374q45 0 62 10v-91q-15 10 -62 10h-63v-63q0 -45 10 -62h-96q10 17 10 62v63h-63q-46 0 -62 -10v91q19 -10 62 -10h63v64q0 45 -10 62h96q-10 -17 -10 -62v-64h63zM106 133h202q47 0 62 10v-91q-17 10 -62 10h-202q-43 0 -62 -10v91q16 -10 62 -10z" />
    <glyph glyph-name="uni00B2" unicode="&#xb2;" 
d="M48 508q98 69 143.5 117t45.5 94q0 34 -18.5 54.5t-49.5 20.5q-62 0 -92 -58l-37 62q13 2 53.5 24t75.5 22q59 0 95 -34t36 -91q0 -95 -156 -206h90q62 0 84 18v-69h-270v46z" />
    <glyph glyph-name="uni00B3" unicode="&#xb3;" 
d="M182 450q-40 0 -85.5 21.5t-56.5 23.5l41 65q31 -62 101 -62q32 0 54 16t22 43q0 71 -129 71v48q54 0 83.5 17.5t29.5 47.5q0 25 -18 40t-47 15q-47 0 -86 -48l-31 61q3 1 45 18t72 17q55 0 89.5 -26.5t34.5 -76.5q0 -65 -78 -86q42 -6 68 -31t26 -67q0 -49 -38.5 -78
t-96.5 -29z" />
    <glyph glyph-name="acute" unicode="&#xb4;" horiz-adv-x="348" 
d="M77 619q78 41 147 132l48 -56q-77 -77 -173 -115z" />
    <glyph glyph-name="uni00B5" unicode="&#xb5;" horiz-adv-x="540" 
d="M469 0h-89q0 38 8 80h-8q-22 -42 -60.5 -67t-87.5 -25q-44 0 -80 25v-65q0 -72 15 -115h-107q16 45 16 115v421q0 77 -17 116h93v-346q0 -83 86 -83q39 0 78.5 28.5t65.5 79.5v205q0 76 -16 116h91v-369q0 -75 12 -116z" />
    <glyph glyph-name="paragraph" unicode="&#xb6;" horiz-adv-x="477" 
d="M416 669v-86q-14 14 -49 14v-505q0 -85 -47.5 -131.5t-142.5 -46.5v100q55 -26 86 -4t31 82v219q-29 -11 -64 -11q-82 0 -128.5 52.5t-46.5 132.5q0 78 53.5 131t152.5 53h155zM294 377v220h-53v-230q26 0 53 10z" />
    <glyph glyph-name="periodcentered" unicode="&#xb7;" horiz-adv-x="249" 
d="M125 261q-24 0 -41.5 17t-17.5 43q0 27 17 44.5t42 17.5q24 0 41 -17.5t17 -44.5q0 -26 -17 -43t-41 -17z" />
    <glyph glyph-name="cedilla" unicode="&#xb8;" horiz-adv-x="542" 
d="M185 -176q53 -6 81 6.5t28 35.5q0 44 -77 48l43 89h49l-28 -61q73 -17 73 -75q0 -43 -42 -66t-120 -24z" />
    <glyph glyph-name="uni00B9" unicode="&#xb9;" 
d="M173 759h-85v46q92 0 144 36v-323l84 -14v-42h-232v42l89 14v241z" />
    <glyph glyph-name="ordmasculine" unicode="&#xba;" horiz-adv-x="397" 
d="M199 272q-77 0 -123 50t-46 147t46 147t123 50t122.5 -50t45.5 -147t-46 -147t-122 -50zM199 332q98 0 98 137t-98 137q-99 0 -99 -137t99 -137z" />
    <glyph glyph-name="guillemotright" unicode="&#xbb;" horiz-adv-x="431" 
d="M51 100q52 87 123 152q-70 63 -123 150l34 32q66 -96 140 -144v-75q-72 -47 -140 -145zM211 100q52 87 123 152q-70 63 -123 150l34 32q66 -96 140 -144v-75q-72 -47 -140 -145z" />
    <glyph glyph-name="onequarter" unicode="&#xbc;" horiz-adv-x="785" 
d="M592 668h61l-353 -680h-61zM173 580h-85v46q92 0 144 36v-323l84 -14v-42h-232v42l89 14v241zM640 102h-178v39l166 232h66v-225q41 0 58 14v-60h-58v-18q0 -43 3 -58.5t14 -25.5h-89q11 10 14.5 26t3.5 58v18zM640 148v168l-121 -168h121z" />
    <glyph glyph-name="onehalf" unicode="&#xbd;" horiz-adv-x="842" 
d="M580 668h61l-353 -680h-61zM173 580h-85v46q92 0 144 36v-323l84 -14v-42h-232v42l89 14v241zM525 46q98 69 143 117t45 94q0 34 -18.5 54.5t-49.5 20.5q-62 0 -92 -58l-36 62q12 2 52 24t76 22q59 0 95 -34t36 -91q0 -95 -156 -206h90q62 0 84 18v-69h-269v46z" />
    <glyph glyph-name="threequarters" unicode="&#xbe;" horiz-adv-x="779" 
d="M573 668h61l-353 -680h-61zM182 271q-40 0 -85.5 21.5t-56.5 23.5l41 65q31 -62 101 -62q32 0 54 16t22 43q0 71 -129 71v48q54 0 83.5 17.5t29.5 47.5q0 25 -18 40t-47 15q-47 0 -86 -48l-31 61q3 1 45 18t72 17q55 0 89.5 -26.5t34.5 -76.5q0 -65 -78 -86q42 -6 68 -31
t26 -67q0 -49 -38.5 -78t-96.5 -29zM634 102h-178v39l167 232h65v-225q43 0 58 14v-60h-58v-18q0 -42 3.5 -58t13.5 -26h-89q11 10 14.5 26t3.5 58v18zM634 148v168l-120 -168h120z" />
    <glyph glyph-name="questiondown" unicode="&#xbf;" horiz-adv-x="405" 
d="M227 498q26 0 41.5 -15t15.5 -41q0 -27 -15.5 -42t-41.5 -15t-42 15t-16 42q0 26 16 41t42 15zM269 282q0 -46 -11.5 -81t-29 -53.5t-38 -37.5t-38 -33.5t-29 -40t-11.5 -59.5q0 -49 29.5 -76t75.5 -27q40 0 74.5 16t51.5 44l41 -82q-19 -1 -72 -22.5t-95 -21.5
q-78 0 -129 44t-51 125q0 50 16.5 84.5t40 54.5t47.5 39t40.5 50.5t16.5 76.5h71z" />
    <glyph glyph-name="Agrave" unicode="&#xc0;" horiz-adv-x="578" 
d="M338 762l-17 -45q-100 29 -184 108l41 62q78 -88 160 -125zM234 657h110q-2 -26 26 -109l143 -421q30 -90 54 -127h-111q10 25 -19 119l-26 82l-246 -1l-27 -81q-29 -92 -19 -119h-108q25 36 55 127l142 421q29 88 26 109zM185 265h205l-102 318h-2z" />
    <glyph glyph-name="Aacute" unicode="&#xc1;" horiz-adv-x="578" 
d="M249 748q78 41 147 132l48 -56q-77 -77 -173 -115zM234 657h110q-2 -26 26 -109l143 -421q30 -90 54 -127h-111q10 25 -19 119l-26 82l-246 -1l-27 -81q-29 -92 -19 -119h-108q25 36 55 127l142 421q29 88 26 109zM185 265h205l-102 318h-2z" />
    <glyph glyph-name="Acircumflex" unicode="&#xc2;" horiz-adv-x="578" 
d="M251 868h75q45 -89 110 -140l-28 -30q-74 43 -117 115h-4q-45 -72 -118 -115l-28 30q65 51 110 140zM234 657h110q-2 -26 26 -109l143 -421q30 -90 54 -127h-111q10 25 -19 119l-26 82l-246 -1l-27 -81q-29 -92 -19 -119h-108q25 36 55 127l142 421q29 88 26 109z
M185 265h205l-102 318h-2z" />
    <glyph glyph-name="Atilde" unicode="&#xc3;" horiz-adv-x="578" 
d="M351 716q-33 0 -69.5 34t-55.5 34q-22 0 -30 -18t1 -43l-70 3q13 53 38.5 83t59.5 30q26 0 48.5 -17t41.5 -34t36 -17q21 0 29 17.5t0 43.5l69 -4q-13 -53 -38.5 -82.5t-59.5 -29.5zM234 657h110q-2 -26 26 -109l143 -421q30 -90 54 -127h-111q10 25 -19 119l-26 82
l-246 -1l-27 -81q-29 -92 -19 -119h-108q25 36 55 127l142 421q29 88 26 109zM185 265h205l-102 318h-2z" />
    <glyph glyph-name="Adieresis" unicode="&#xc4;" horiz-adv-x="578" 
d="M216 718q-20 0 -33.5 14t-13.5 34t13.5 33.5t33.5 13.5t33.5 -13.5t13.5 -33.5t-13.5 -34t-33.5 -14zM364 718q-20 0 -33.5 14t-13.5 34t13.5 33.5t33.5 13.5t33.5 -13.5t13.5 -33.5t-13.5 -34t-33.5 -14zM234 657h110q-2 -26 26 -109l143 -421q30 -90 54 -127h-111
q10 25 -19 119l-26 82l-246 -1l-27 -81q-29 -92 -19 -119h-108q25 36 55 127l142 421q29 88 26 109zM185 265h205l-102 318h-2z" />
    <glyph glyph-name="Aring" unicode="&#xc5;" horiz-adv-x="578" 
d="M288 703q-48 0 -77 24t-29 63t29 63t77 24t77.5 -24.5t29.5 -62.5t-29.5 -62.5t-77.5 -24.5zM288 743q25 0 41 12.5t16 34.5t-16 34t-41 12t-41 -12t-16 -34t16 -34.5t41 -12.5zM234 657h110q-2 -26 26 -109l143 -421q30 -90 54 -127h-111q10 25 -19 119l-26 82l-246 -1
l-27 -81q-29 -92 -19 -119h-108q25 36 55 127l142 421q29 88 26 109zM185 265h205l-102 318h-2z" />
    <glyph glyph-name="AE" unicode="&#xc6;" horiz-adv-x="833" 
d="M665 67q82 0 119 15v-89q-43 7 -119 7h-269q15 34 15 116v80h-209l-34 -65q-49 -93 -44 -131h-118q35 41 99 162l196 372q45 82 43 123h310q70 0 118 6v-88q-42 15 -118 15h-167v-212h118q88 0 118 10v-87q-30 10 -118 10h-118v-244h178zM234 257h177v338h-4z" />
    <glyph glyph-name="Ccedilla" unicode="&#xc7;" horiz-adv-x="561" 
d="M318 -58q73 -17 73 -75q0 -43 -42 -66t-120 -24l-7 47q53 -6 81 6.5t28 35.5q0 44 -77 48l37 76q-117 10 -178.5 89t-61.5 250q0 184 71.5 262t202.5 78q38 0 75.5 -11t70.5 -25.5t43 -17.5l-42 -87q-15 28 -56.5 50.5t-89.5 22.5q-93 0 -144.5 -61t-51.5 -210
q0 -152 53 -213.5t153 -61.5q51 0 93.5 21t59.5 48l35 -92q-13 -3 -44.5 -14.5t-67.5 -20.5t-73 -9z" />
    <glyph glyph-name="Egrave" unicode="&#xc8;" horiz-adv-x="523" 
d="M329 762l-17 -45q-100 29 -184 108l41 62q78 -88 160 -125zM76 657h257q80 0 128 6v-88q-37 15 -128 15h-166v-212h123q93 0 123 10v-87q-30 10 -123 10h-123v-244h178q92 0 129 15v-89q-43 7 -129 7h-269q15 34 15 116v425q0 81 -15 116z" />
    <glyph glyph-name="Eacute" unicode="&#xc9;" horiz-adv-x="523" 
d="M239 748q78 41 147 132l48 -56q-77 -77 -173 -115zM76 657h257q80 0 128 6v-88q-37 15 -128 15h-166v-212h123q93 0 123 10v-87q-30 10 -123 10h-123v-244h178q92 0 129 15v-89q-43 7 -129 7h-269q15 34 15 116v425q0 81 -15 116z" />
    <glyph glyph-name="Ecircumflex" unicode="&#xca;" horiz-adv-x="523" 
d="M241 868h75q45 -89 110 -140l-28 -30q-74 43 -117 115h-4q-45 -72 -118 -115l-28 30q65 51 110 140zM76 657h257q80 0 128 6v-88q-37 15 -128 15h-166v-212h123q93 0 123 10v-87q-30 10 -123 10h-123v-244h178q92 0 129 15v-89q-43 7 -129 7h-269q15 34 15 116v425
q0 81 -15 116z" />
    <glyph glyph-name="Edieresis" unicode="&#xcb;" horiz-adv-x="523" 
d="M207 718q-20 0 -33.5 14t-13.5 34t13.5 33.5t33.5 13.5t33.5 -13.5t13.5 -33.5t-13.5 -34t-33.5 -14zM355 718q-20 0 -33.5 14t-13.5 34t13.5 33.5t33.5 13.5t33.5 -13.5t13.5 -33.5t-13.5 -34t-33.5 -14zM76 657h257q80 0 128 6v-88q-37 15 -128 15h-166v-212h123
q93 0 123 10v-87q-30 10 -123 10h-123v-244h178q92 0 129 15v-89q-43 7 -129 7h-269q15 34 15 116v425q0 81 -15 116z" />
    <glyph glyph-name="Igrave" unicode="&#xcc;" horiz-adv-x="270" 
d="M187 762l-17 -45q-100 29 -184 108l41 62q78 -88 160 -125zM173 116q0 -82 15 -116h-106q15 34 15 116v425q0 81 -15 116h106q-15 -35 -15 -116v-425z" />
    <glyph glyph-name="Iacute" unicode="&#xcd;" horiz-adv-x="270" 
d="M98 748q78 41 147 132l48 -56q-77 -77 -173 -115zM173 116q0 -82 15 -116h-106q15 34 15 116v425q0 81 -15 116h106q-15 -35 -15 -116v-425z" />
    <glyph glyph-name="Icircumflex" unicode="&#xce;" horiz-adv-x="270" 
d="M100 868h75q45 -89 110 -140l-28 -30q-74 43 -117 115h-4q-45 -72 -118 -115l-28 30q65 51 110 140zM173 116q0 -82 15 -116h-106q15 34 15 116v425q0 81 -15 116h106q-15 -35 -15 -116v-425z" />
    <glyph glyph-name="Idieresis" unicode="&#xcf;" horiz-adv-x="270" 
d="M65 718q-20 0 -33.5 14t-13.5 34t13.5 33.5t33.5 13.5t33.5 -13.5t13.5 -33.5t-13.5 -34t-33.5 -14zM213 718q-20 0 -33.5 14t-13.5 34t13.5 33.5t33.5 13.5t33.5 -13.5t13.5 -33.5t-13.5 -34t-33.5 -14zM173 116q0 -82 15 -116h-106q15 34 15 116v425q0 81 -15 116h106
q-15 -35 -15 -116v-425z" />
    <glyph glyph-name="Eth" unicode="&#xd0;" horiz-adv-x="614" 
d="M253 657q157 0 233.5 -76t76.5 -250t-76.5 -252.5t-230.5 -78.5h-180q17 30 17 116v206h-61v45h61v174q0 84 -17 116h177zM247 67q123 0 180 60t57 204q0 143 -56.5 201t-180.5 58h-78v-223h175v-45h-175v-255h78z" />
    <glyph glyph-name="Ntilde" unicode="&#xd1;" horiz-adv-x="649" 
d="M390 716q-33 0 -69.5 34t-55.5 34q-22 0 -30 -18t1 -43l-70 3q13 53 38.5 83t59.5 30q26 0 48.5 -17t41.5 -34t36 -17q21 0 29 17.5t0 43.5l69 -4q-13 -53 -38.5 -82.5t-59.5 -29.5zM76 657h105l310 -515h4q-9 40 -9 109v290q0 81 -15 116h102q-15 -35 -15 -116v-405
q0 -91 14 -136h-82l-333 552h-4q10 -39 10 -105v-331q0 -82 15 -116h-102q15 34 15 116v425q0 81 -15 116z" />
    <glyph glyph-name="Ograve" unicode="&#xd2;" horiz-adv-x="651" 
d="M376 762l-17 -45q-100 29 -184 108l41 62q78 -88 160 -125zM326 -12q-129 0 -202 85.5t-73 257.5q0 171 72.5 254.5t202.5 83.5q129 0 202 -83.5t73 -254.5q0 -172 -73 -257.5t-202 -85.5zM326 57q92 0 143.5 67.5t51.5 206.5q0 269 -195 269t-195 -269q0 -140 51 -207
t144 -67z" />
    <glyph glyph-name="Oacute" unicode="&#xd3;" horiz-adv-x="651" 
d="M286 748q78 41 147 132l48 -56q-77 -77 -173 -115zM326 -12q-129 0 -202 85.5t-73 257.5q0 171 72.5 254.5t202.5 83.5q129 0 202 -83.5t73 -254.5q0 -172 -73 -257.5t-202 -85.5zM326 57q92 0 143.5 67.5t51.5 206.5q0 269 -195 269t-195 -269q0 -140 51 -207t144 -67z
" />
    <glyph glyph-name="Ocircumflex" unicode="&#xd4;" horiz-adv-x="651" 
d="M288 868h75q45 -89 110 -140l-28 -30q-74 43 -117 115h-4q-45 -72 -118 -115l-28 30q65 51 110 140zM326 -12q-129 0 -202 85.5t-73 257.5q0 171 72.5 254.5t202.5 83.5q129 0 202 -83.5t73 -254.5q0 -172 -73 -257.5t-202 -85.5zM326 57q92 0 143.5 67.5t51.5 206.5
q0 269 -195 269t-195 -269q0 -140 51 -207t144 -67z" />
    <glyph glyph-name="Otilde" unicode="&#xd5;" horiz-adv-x="651" 
d="M389 716q-33 0 -69.5 34t-55.5 34q-22 0 -30 -18t1 -43l-70 3q13 53 38.5 83t59.5 30q26 0 48.5 -17t41.5 -34t36 -17q21 0 29 17.5t0 43.5l69 -4q-13 -53 -38.5 -82.5t-59.5 -29.5zM326 -12q-129 0 -202 85.5t-73 257.5q0 171 72.5 254.5t202.5 83.5q129 0 202 -83.5
t73 -254.5q0 -172 -73 -257.5t-202 -85.5zM326 57q92 0 143.5 67.5t51.5 206.5q0 269 -195 269t-195 -269q0 -140 51 -207t144 -67z" />
    <glyph glyph-name="Odieresis" unicode="&#xd6;" horiz-adv-x="651" 
d="M254 718q-20 0 -33.5 14t-13.5 34t13.5 33.5t33.5 13.5t33.5 -13.5t13.5 -33.5t-13.5 -34t-33.5 -14zM402 718q-20 0 -33.5 14t-13.5 34t13.5 33.5t33.5 13.5t33.5 -13.5t13.5 -33.5t-13.5 -34t-33.5 -14zM326 -12q-129 0 -202 85.5t-73 257.5q0 171 72.5 254.5
t202.5 83.5q129 0 202 -83.5t73 -254.5q0 -172 -73 -257.5t-202 -85.5zM326 57q92 0 143.5 67.5t51.5 206.5q0 269 -195 269t-195 -269q0 -140 51 -207t144 -67z" />
    <glyph glyph-name="multiply" unicode="&#xd7;" horiz-adv-x="434" 
d="M270 290l70 -70q30 -30 51 -36l-68 -68q-6 22 -37 51l-69 69l-73 -72q-31 -34 -36 -52l-68 69q19 4 51 36l73 73l-69 69q-30 30 -52 36l69 68q6 -21 36 -51l69 -69l73 72q30 32 36 52l68 -69q-17 -4 -51 -36z" />
    <glyph glyph-name="Oslash" unicode="&#xd8;" horiz-adv-x="654" 
d="M537 576q65 -85 65 -245q0 -172 -73 -257.5t-202 -85.5q-96 0 -161 47l-24 -36h-80l56 82q-66 90 -66 250q0 171 72.5 254.5t202.5 83.5q97 0 162 -46l24 35h80zM132 331q0 -113 34 -179l281 409q-46 39 -120 39q-195 0 -195 -269zM327 57q92 0 143.5 67.5t51.5 206.5
q0 109 -33 175l-280 -409q46 -40 118 -40z" />
    <glyph glyph-name="Ugrave" unicode="&#xd9;" horiz-adv-x="634" 
d="M367 762l-17 -45q-100 29 -184 108l41 62q78 -88 160 -125zM317 -12q-233 0 -233 278v276q0 81 -15 115h106q-15 -34 -15 -115v-277q0 -210 157 -210q160 0 160 210v277q0 81 -15 115h103q-15 -34 -15 -115v-276q0 -278 -233 -278z" />
    <glyph glyph-name="Uacute" unicode="&#xda;" horiz-adv-x="634" 
d="M278 748q78 41 147 132l48 -56q-77 -77 -173 -115zM317 -12q-233 0 -233 278v276q0 81 -15 115h106q-15 -34 -15 -115v-277q0 -210 157 -210q160 0 160 210v277q0 81 -15 115h103q-15 -34 -15 -115v-276q0 -278 -233 -278z" />
    <glyph glyph-name="Ucircumflex" unicode="&#xdb;" horiz-adv-x="634" 
d="M280 868h75q45 -89 110 -140l-28 -30q-74 43 -117 115h-4q-45 -72 -118 -115l-28 30q65 51 110 140zM317 -12q-233 0 -233 278v276q0 81 -15 115h106q-15 -34 -15 -115v-277q0 -210 157 -210q160 0 160 210v277q0 81 -15 115h103q-15 -34 -15 -115v-276q0 -278 -233 -278
z" />
    <glyph glyph-name="Udieresis" unicode="&#xdc;" horiz-adv-x="634" 
d="M245 718q-20 0 -33.5 14t-13.5 34t13.5 33.5t33.5 13.5t33.5 -13.5t13.5 -33.5t-13.5 -34t-33.5 -14zM393 718q-20 0 -33.5 14t-13.5 34t13.5 33.5t33.5 13.5t33.5 -13.5t13.5 -33.5t-13.5 -34t-33.5 -14zM317 -12q-233 0 -233 278v276q0 81 -15 115h106
q-15 -34 -15 -115v-277q0 -210 157 -210q160 0 160 210v277q0 81 -15 115h103q-15 -34 -15 -115v-276q0 -278 -233 -278z" />
    <glyph glyph-name="Yacute" unicode="&#xdd;" horiz-adv-x="510" 
d="M410 824q-77 -77 -173 -115l-22 39q78 41 147 132zM429 532l-136 -276v-140q0 -77 15 -116h-107q15 39 15 116v140l-135 276q-3 5 -12 23.5t-11 22.5t-9 17.5t-10 18.5t-9 14t-10.5 15.5t-10.5 13.5h107q1 -35 34 -105l107 -231l107 231q32 65 34 105h102
q-25 -31 -71 -125z" />
    <glyph glyph-name="Thorn" unicode="&#xde;" horiz-adv-x="566" 
d="M74 657h111q-18 -31 -18 -125h96q118 0 181 -44t63 -144q0 -99 -63.5 -147.5t-176.5 -48.5h-100q0 -73 3.5 -101t14.5 -47h-111q17 29 17 116v425q0 82 -17 116zM257 211q89 0 131 31t42 102q0 69 -42.5 97t-134.5 28h-86v-258h90z" />
    <glyph glyph-name="germandbls" unicode="&#xdf;" horiz-adv-x="550" 
d="M347 -12q-68 0 -136 33l33 80q42 -54 101 -54q44 0 71 29t27 81q0 35 -17 61t-41.5 42t-49 31.5t-41.5 38.5t-17 54q0 25 13 47.5t28.5 38t28.5 39.5t13 52q0 40 -25.5 64t-67.5 24q-51 0 -80 -36.5t-29 -107.5v-389q0 -74 11 -116h-98q12 41 12 116v389q0 98 49 154
t136 56q74 0 120 -43.5t46 -110.5q0 -35 -14 -64t-30 -44.5t-30 -32t-14 -30.5q0 -18 17.5 -33.5t42 -30.5t49.5 -34.5t42.5 -54t17.5 -80.5q0 -78 -46.5 -123.5t-121.5 -45.5z" />
    <glyph glyph-name="agrave" unicode="&#xe0;" horiz-adv-x="493" 
d="M296 619l-17 -45q-100 29 -184 108l41 62q78 -88 160 -125zM201 -12q-72 0 -113 37.5t-41 106.5q0 145 226 145h70v38q0 59 -22.5 87t-78.5 28q-44 0 -83.5 -16t-60.5 -40l-34 78q10 1 70 23t108 22q94 0 135.5 -44t41.5 -136v-199q0 -87 12 -118h-86l5 64h-7
q-18 -30 -57.5 -53t-84.5 -23zM207 51q41 0 79 27t57 68v69h-70q-148 0 -148 -83q0 -39 22.5 -60t59.5 -21z" />
    <glyph glyph-name="aacute" unicode="&#xe1;" horiz-adv-x="493" 
d="M207 605q78 41 147 132l48 -56q-77 -77 -173 -115zM201 -12q-72 0 -113 37.5t-41 106.5q0 145 226 145h70v38q0 59 -22.5 87t-78.5 28q-44 0 -83.5 -16t-60.5 -40l-34 78q10 1 70 23t108 22q94 0 135.5 -44t41.5 -136v-199q0 -87 12 -118h-86l5 64h-7q-18 -30 -57.5 -53
t-84.5 -23zM207 51q41 0 79 27t57 68v69h-70q-148 0 -148 -83q0 -39 22.5 -60t59.5 -21z" />
    <glyph glyph-name="acircumflex" unicode="&#xe2;" horiz-adv-x="493" 
d="M209 725h75q45 -89 110 -140l-28 -30q-74 43 -117 115h-4q-45 -72 -118 -115l-28 30q65 51 110 140zM201 -12q-72 0 -113 37.5t-41 106.5q0 145 226 145h70v38q0 59 -22.5 87t-78.5 28q-44 0 -83.5 -16t-60.5 -40l-34 78q10 1 70 23t108 22q94 0 135.5 -44t41.5 -136
v-199q0 -87 12 -118h-86l5 64h-7q-18 -30 -57.5 -53t-84.5 -23zM207 51q41 0 79 27t57 68v69h-70q-148 0 -148 -83q0 -39 22.5 -60t59.5 -21z" />
    <glyph glyph-name="atilde" unicode="&#xe3;" horiz-adv-x="493" 
d="M309 573q-33 0 -69.5 34t-55.5 34q-22 0 -30 -17.5t1 -43.5l-70 3q13 53 38.5 83t59.5 30q26 0 48.5 -17t41.5 -34t36 -17q21 0 29 18t0 43l69 -4q-13 -53 -38.5 -82.5t-59.5 -29.5zM201 -12q-72 0 -113 37.5t-41 106.5q0 145 226 145h70v38q0 59 -22.5 87t-78.5 28
q-44 0 -83.5 -16t-60.5 -40l-34 78q10 1 70 23t108 22q94 0 135.5 -44t41.5 -136v-199q0 -87 12 -118h-86l5 64h-7q-18 -30 -57.5 -53t-84.5 -23zM207 51q41 0 79 27t57 68v69h-70q-148 0 -148 -83q0 -39 22.5 -60t59.5 -21z" />
    <glyph glyph-name="adieresis" unicode="&#xe4;" horiz-adv-x="493" 
d="M174 575q-20 0 -33.5 14t-13.5 34t13.5 33.5t33.5 13.5t33.5 -13.5t13.5 -33.5t-13.5 -34t-33.5 -14zM322 575q-20 0 -33.5 14t-13.5 34t13.5 33.5t33.5 13.5t33.5 -13.5t13.5 -33.5t-13.5 -34t-33.5 -14zM201 -12q-72 0 -113 37.5t-41 106.5q0 145 226 145h70v38
q0 59 -22.5 87t-78.5 28q-44 0 -83.5 -16t-60.5 -40l-34 78q10 1 70 23t108 22q94 0 135.5 -44t41.5 -136v-199q0 -87 12 -118h-86l5 64h-7q-18 -30 -57.5 -53t-84.5 -23zM207 51q41 0 79 27t57 68v69h-70q-148 0 -148 -83q0 -39 22.5 -60t59.5 -21z" />
    <glyph glyph-name="aring" unicode="&#xe5;" horiz-adv-x="493" 
d="M246 560q-48 0 -77 24t-29 63t29 63t77 24t77.5 -24.5t29.5 -62.5t-29.5 -62.5t-77.5 -24.5zM246 600q25 0 41 12.5t16 34.5t-16 34t-41 12t-41 -12t-16 -34t16 -34.5t41 -12.5zM201 -12q-72 0 -113 37.5t-41 106.5q0 145 226 145h70v38q0 59 -22.5 87t-78.5 28
q-44 0 -83.5 -16t-60.5 -40l-34 78q10 1 70 23t108 22q94 0 135.5 -44t41.5 -136v-199q0 -87 12 -118h-86l5 64h-7q-18 -30 -57.5 -53t-84.5 -23zM207 51q41 0 79 27t57 68v69h-70q-148 0 -148 -83q0 -39 22.5 -60t59.5 -21z" />
    <glyph glyph-name="ae" unicode="&#xe6;" horiz-adv-x="793" 
d="M745 279q0 -32 -3 -50h-322q4 -89 41 -131.5t120 -42.5q78 0 123 47l29 -77q-95 -37 -161 -37q-141 0 -197 101q-72 -101 -174 -101q-72 0 -113 37.5t-41 106.5q0 71 52.5 106t164.5 35h79v42q0 61 -23.5 88t-82.5 27q-76 0 -139 -56l-30 76q9 3 43 16t67 22t63 9
q116 0 155 -70q55 70 155 70q93 0 143.5 -60t50.5 -158zM419 289h251q0 63 -30.5 102t-86.5 39q-61 0 -94.5 -39t-39.5 -102zM343 142v68v1h-70q-81 0 -116.5 -19t-35.5 -60q0 -39 23.5 -60t62.5 -21q41 0 79 25.5t57 65.5z" />
    <glyph glyph-name="ccedilla" unicode="&#xe7;" horiz-adv-x="455" 
d="M270 -57q73 -17 73 -75q0 -43 -42 -66t-120 -24l-7 47q53 -6 81 6.5t28 35.5q0 44 -77 48l36 74q-90 9 -143 70.5t-53 182.5q0 131 61.5 193t163.5 62q52 0 142 -39l-36 -78q-41 50 -106 50q-67 0 -107 -44.5t-40 -143.5q0 -187 147 -187q77 0 121 53l35 -78
q-84 -36 -136 -41z" />
    <glyph glyph-name="egrave" unicode="&#xe8;" horiz-adv-x="497" 
d="M308 619l-17 -45q-100 29 -184 108l41 62q78 -88 160 -125zM276 -12q-110 0 -170 63.5t-60 189.5q0 125 58 190.5t152 65.5t144 -58.5t50 -159.5q0 -32 -3 -50h-323q4 -89 41 -131.5t120 -42.5q84 0 123 47l29 -77q-82 -37 -161 -37zM374 289q0 66 -30 103.5t-86 37.5
q-61 0 -95 -39t-40 -102h251z" />
    <glyph glyph-name="eacute" unicode="&#xe9;" horiz-adv-x="497" 
d="M218 605q78 41 147 132l48 -56q-77 -77 -173 -115zM276 -12q-110 0 -170 63.5t-60 189.5q0 125 58 190.5t152 65.5t144 -58.5t50 -159.5q0 -32 -3 -50h-323q4 -89 41 -131.5t120 -42.5q84 0 123 47l29 -77q-82 -37 -161 -37zM374 289q0 66 -30 103.5t-86 37.5
q-61 0 -95 -39t-40 -102h251z" />
    <glyph glyph-name="ecircumflex" unicode="&#xea;" horiz-adv-x="497" 
d="M220 725h75q45 -89 110 -140l-28 -30q-74 43 -117 115h-4q-45 -72 -118 -115l-28 30q65 51 110 140zM276 -12q-110 0 -170 63.5t-60 189.5q0 125 58 190.5t152 65.5t144 -58.5t50 -159.5q0 -32 -3 -50h-323q4 -89 41 -131.5t120 -42.5q84 0 123 47l29 -77
q-82 -37 -161 -37zM374 289q0 66 -30 103.5t-86 37.5q-61 0 -95 -39t-40 -102h251z" />
    <glyph glyph-name="edieresis" unicode="&#xeb;" horiz-adv-x="497" 
d="M185 575q-20 0 -33.5 14t-13.5 34t13.5 33.5t33.5 13.5t33.5 -13.5t13.5 -33.5t-13.5 -34t-33.5 -14zM333 575q-20 0 -33.5 14t-13.5 34t13.5 33.5t33.5 13.5t33.5 -13.5t13.5 -33.5t-13.5 -34t-33.5 -14zM276 -12q-110 0 -170 63.5t-60 189.5q0 125 58 190.5t152 65.5
t144 -58.5t50 -159.5q0 -32 -3 -50h-323q4 -89 41 -131.5t120 -42.5q84 0 123 47l29 -77q-82 -37 -161 -37zM374 289q0 66 -30 103.5t-86 37.5q-61 0 -95 -39t-40 -102h251z" />
    <glyph glyph-name="igrave" unicode="&#xec;" horiz-adv-x="233" 
d="M167 619l-17 -45q-100 29 -184 108l41 62q78 -88 160 -125zM72 0q7 48 7 116v253q0 68 -7 116h89q-7 -48 -7 -116v-253q0 -71 8 -116h-90z" />
    <glyph glyph-name="iacute" unicode="&#xed;" horiz-adv-x="233" 
d="M77 605q78 41 147 132l48 -56q-77 -77 -173 -115zM72 0q7 48 7 116v253q0 68 -7 116h89q-7 -48 -7 -116v-253q0 -71 8 -116h-90z" />
    <glyph glyph-name="icircumflex" unicode="&#xee;" horiz-adv-x="233" 
d="M79 725h75q45 -89 110 -140l-28 -30q-74 43 -117 115h-4q-45 -72 -118 -115l-28 30q65 51 110 140zM72 0q7 48 7 116v253q0 68 -7 116h89q-7 -48 -7 -116v-253q0 -71 8 -116h-90z" />
    <glyph glyph-name="idieresis" unicode="&#xef;" horiz-adv-x="233" 
d="M45 575q-20 0 -33.5 14t-13.5 34t13.5 33.5t33.5 13.5t33.5 -13.5t13.5 -33.5t-13.5 -34t-33.5 -14zM193 575q-20 0 -33.5 14t-13.5 34t13.5 33.5t33.5 13.5t33.5 -13.5t13.5 -33.5t-13.5 -34t-33.5 -14zM72 0q7 48 7 116v253q0 68 -7 116h89q-7 -48 -7 -116v-253
q0 -71 8 -116h-90z" />
    <glyph glyph-name="eth" unicode="&#xf0;" horiz-adv-x="520" 
d="M338 607q136 -136 136 -351q0 -130 -57 -199t-156 -69q-92 0 -153.5 58.5t-61.5 174.5q0 101 58.5 163t146.5 62q91 0 140 -64q-24 110 -109 192l-91 -54l-23 38l78 47q-12 10 -19 15q-45 35 -93 46l35 66q9 -9 42 -29t44 -27q29 -20 48 -37l95 57l23 -39zM262 51
q140 0 140 202q0 20 -2 38q-22 43 -62 68.5t-77 25.5q-67 0 -105 -45t-38 -119q0 -86 40.5 -128t103.5 -42z" />
    <glyph glyph-name="ntilde" unicode="&#xf1;" horiz-adv-x="544" 
d="M339 573q-33 0 -69.5 34t-55.5 34q-22 0 -30 -17.5t1 -43.5l-70 3q13 53 38.5 83t59.5 30q26 0 48.5 -17t41.5 -34t36 -17q21 0 29 18t0 43l69 -4q-13 -53 -38.5 -82.5t-59.5 -29.5zM72 486h85q0 -32 -5 -69h7q20 30 62.5 55t93.5 25q70 0 111 -43.5t41 -130.5v-205
q0 -87 12 -118h-100q13 31 13 118v205q0 107 -93 107q-39 0 -77.5 -26t-62.5 -64v-222q0 -87 12 -118h-99q12 31 12 118v251q0 86 -12 117z" />
    <glyph glyph-name="ograve" unicode="&#xf2;" horiz-adv-x="530" 
d="M315 619l-17 -45q-100 29 -184 108l41 62q78 -88 160 -125zM265 -12q-100 0 -159.5 64.5t-59.5 188.5q0 126 59.5 191t159.5 65t159.5 -65t59.5 -191q0 -124 -59.5 -188.5t-159.5 -64.5zM265 55q141 0 141 186q0 189 -141 189t-141 -189q0 -186 141 -186z" />
    <glyph glyph-name="oacute" unicode="&#xf3;" horiz-adv-x="530" 
d="M225 605q78 41 147 132l48 -56q-77 -77 -173 -115zM265 -12q-100 0 -159.5 64.5t-59.5 188.5q0 126 59.5 191t159.5 65t159.5 -65t59.5 -191q0 -124 -59.5 -188.5t-159.5 -64.5zM265 55q141 0 141 186q0 189 -141 189t-141 -189q0 -186 141 -186z" />
    <glyph glyph-name="ocircumflex" unicode="&#xf4;" horiz-adv-x="530" 
d="M227 725h75q45 -89 110 -140l-28 -30q-74 43 -117 115h-4q-45 -72 -118 -115l-28 30q65 51 110 140zM265 -12q-100 0 -159.5 64.5t-59.5 188.5q0 126 59.5 191t159.5 65t159.5 -65t59.5 -191q0 -124 -59.5 -188.5t-159.5 -64.5zM265 55q141 0 141 186q0 189 -141 189
t-141 -189q0 -186 141 -186z" />
    <glyph glyph-name="otilde" unicode="&#xf5;" horiz-adv-x="530" 
d="M328 573q-33 0 -69.5 34t-55.5 34q-22 0 -30 -17.5t1 -43.5l-70 3q13 53 38.5 83t59.5 30q26 0 48.5 -17t41.5 -34t36 -17q21 0 29 18t0 43l69 -4q-13 -53 -38.5 -82.5t-59.5 -29.5zM265 -12q-100 0 -159.5 64.5t-59.5 188.5q0 126 59.5 191t159.5 65t159.5 -65
t59.5 -191q0 -124 -59.5 -188.5t-159.5 -64.5zM265 55q141 0 141 186q0 189 -141 189t-141 -189q0 -186 141 -186z" />
    <glyph glyph-name="odieresis" unicode="&#xf6;" horiz-adv-x="530" 
d="M193 575q-20 0 -33.5 14t-13.5 34t13.5 33.5t33.5 13.5t33.5 -13.5t13.5 -33.5t-13.5 -34t-33.5 -14zM341 575q-20 0 -33.5 14t-13.5 34t13.5 33.5t33.5 13.5t33.5 -13.5t13.5 -33.5t-13.5 -34t-33.5 -14zM265 -12q-100 0 -159.5 64.5t-59.5 188.5q0 126 59.5 191
t159.5 65t159.5 -65t59.5 -191q0 -124 -59.5 -188.5t-159.5 -64.5zM265 55q141 0 141 186q0 189 -141 189t-141 -189q0 -186 141 -186z" />
    <glyph glyph-name="divide" unicode="&#xf7;" horiz-adv-x="432" 
d="M216 359q-26 0 -43 17t-17 42q0 27 17 44t43 17t43 -17t17 -44q0 -25 -17 -42t-43 -17zM40 335q17 -10 62 -10h228q45 0 62 10v-91q-17 10 -62 10h-228q-45 0 -62 -10v91zM216 101q-26 0 -43 16.5t-17 41.5q0 27 17 44t43 17t43 -17t17 -44q0 -25 -17 -41.5t-43 -16.5z
" />
    <glyph glyph-name="oslash" unicode="&#xf8;" horiz-adv-x="539" 
d="M493 479l-54 -66q44 -66 44 -172q0 -124 -59.5 -188.5t-159.5 -64.5q-82 0 -138 44l-44 -54l-35 28l48 59q-49 65 -49 176q0 126 59 191t159 65q89 0 146 -51l49 60zM123 241q0 -73 22 -116l219 265q-36 40 -100 40q-141 0 -141 -189zM406 241q0 67 -18 110l-216 -263
q34 -33 92 -33q142 0 142 186z" />
    <glyph glyph-name="ugrave" unicode="&#xf9;" horiz-adv-x="540" 
d="M307 618l-17 -45q-100 29 -184 108l41 62q78 -88 160 -125zM224 -12q-148 0 -148 190v191q0 77 -17 116h93v-307q0 -125 86 -125q39 0 78.5 29t65.5 78v209q0 76 -16 116h91v-369q0 -75 12 -116h-89q0 41 8 77h-8q-49 -89 -156 -89z" />
    <glyph glyph-name="uacute" unicode="&#xfa;" horiz-adv-x="540" 
d="M217 604q78 41 147 132l48 -56q-77 -77 -173 -115zM224 -12q-148 0 -148 190v191q0 77 -17 116h93v-307q0 -125 86 -125q39 0 78.5 29t65.5 78v209q0 76 -16 116h91v-369q0 -75 12 -116h-89q0 41 8 77h-8q-49 -89 -156 -89z" />
    <glyph glyph-name="ucircumflex" unicode="&#xfb;" horiz-adv-x="540" 
d="M219 724h75q45 -89 110 -140l-28 -30q-74 43 -117 115h-4q-45 -72 -118 -115l-28 30q65 51 110 140zM224 -12q-148 0 -148 190v191q0 77 -17 116h93v-307q0 -125 86 -125q39 0 78.5 29t65.5 78v209q0 76 -16 116h91v-369q0 -75 12 -116h-89q0 41 8 77h-8
q-49 -89 -156 -89z" />
    <glyph glyph-name="udieresis" unicode="&#xfc;" horiz-adv-x="540" 
d="M185 574q-20 0 -33.5 14t-13.5 34t13.5 33.5t33.5 13.5t33.5 -13.5t13.5 -33.5t-13.5 -34t-33.5 -14zM333 574q-20 0 -33.5 14t-13.5 34t13.5 33.5t33.5 13.5t33.5 -13.5t13.5 -33.5t-13.5 -34t-33.5 -14zM224 -12q-148 0 -148 190v191q0 77 -17 116h93v-307
q0 -125 86 -125q39 0 78.5 29t65.5 78v209q0 76 -16 116h91v-369q0 -75 12 -116h-89q0 41 8 77h-8q-49 -89 -156 -89z" />
    <glyph glyph-name="yacute" unicode="&#xfd;" horiz-adv-x="479" 
d="M211 604q78 41 147 132l48 -56q-77 -77 -173 -115zM96 -200q-11 0 -30.5 2.5t-29.5 2.5l20 87q16 -29 50 -29q69 0 106 108l10 29h-6l-156 387q-28 71 -51 98h108q-5 -33 14 -80l121 -316h3l104 316q17 48 10 80h101q-20 -26 -46 -98l-148 -428q-28 -79 -70 -119
t-110 -40z" />
    <glyph glyph-name="thorn" unicode="&#xfe;" horiz-adv-x="541" 
d="M158 38l1 -122q2 -91 11 -116h-98q12 30 12 116v682q0 85 -12 115h99q-12 -33 -12 -115l-1 -166q22 26 62 45.5t83 19.5q92 0 142 -66t50 -182q0 -122 -52.5 -191.5t-141.5 -69.5q-85 0 -143 50zM292 55q125 0 125 194q0 85 -31 133t-93 48q-37 0 -74.5 -21.5
t-59.5 -53.5v-230q23 -30 60 -50t73 -20z" />
    <glyph glyph-name="ydieresis" unicode="&#xff;" horiz-adv-x="479" 
d="M179 574q-20 0 -33.5 14t-13.5 34t13.5 33.5t33.5 13.5t33.5 -13.5t13.5 -33.5t-13.5 -34t-33.5 -14zM327 574q-20 0 -33.5 14t-13.5 34t13.5 33.5t33.5 13.5t33.5 -13.5t13.5 -33.5t-13.5 -34t-33.5 -14zM96 -200q-11 0 -30.5 2.5t-29.5 2.5l20 87q16 -29 50 -29
q69 0 106 108l10 29h-6l-156 387q-28 71 -51 98h108q-5 -33 14 -80l121 -316h3l104 316q17 48 10 80h101q-20 -26 -46 -98l-148 -428q-28 -79 -70 -119t-110 -40z" />
    <glyph glyph-name="Amacron" unicode="&#x100;" horiz-adv-x="578" 
d="M161 785h256v-54h-256v54zM234 657h110q-2 -26 26 -109l143 -421q30 -90 54 -127h-111q10 25 -19 119l-26 82l-246 -1l-27 -81q-29 -92 -19 -119h-108q25 36 55 127l142 421q29 88 26 109zM185 265h205l-102 318h-2z" />
    <glyph glyph-name="amacron" unicode="&#x101;" horiz-adv-x="493" 
d="M119 642h256v-54h-256v54zM201 -12q-72 0 -113 37.5t-41 106.5q0 145 226 145h70v38q0 59 -22.5 87t-78.5 28q-44 0 -83.5 -16t-60.5 -40l-34 78q10 1 70 23t108 22q94 0 135.5 -44t41.5 -136v-199q0 -87 12 -118h-86l5 64h-7q-18 -30 -57.5 -53t-84.5 -23zM207 51
q41 0 79 27t57 68v69h-70q-148 0 -148 -83q0 -39 22.5 -60t59.5 -21z" />
    <glyph glyph-name="Abreve" unicode="&#x102;" horiz-adv-x="578" 
d="M288 715q-63 0 -90.5 38.5t-24.5 102.5h43q0 -40 18.5 -65t53.5 -25q34 0 53 25t19 65h43q3 -63 -25 -102t-90 -39zM234 657h110q-2 -26 26 -109l143 -421q30 -90 54 -127h-111q10 25 -19 119l-26 82l-246 -1l-27 -81q-29 -92 -19 -119h-108q25 36 55 127l142 421
q29 88 26 109zM185 265h205l-102 318h-2z" />
    <glyph glyph-name="abreve" unicode="&#x103;" horiz-adv-x="493" 
d="M247 572q-63 0 -90.5 38.5t-24.5 102.5h43q0 -40 18.5 -65t53.5 -25q34 0 53 25t19 65h43q3 -63 -25 -102t-90 -39zM201 -12q-72 0 -113 37.5t-41 106.5q0 145 226 145h70v38q0 59 -22.5 87t-78.5 28q-44 0 -83.5 -16t-60.5 -40l-34 78q10 1 70 23t108 22q94 0 135.5 -44
t41.5 -136v-199q0 -87 12 -118h-86l5 64h-7q-18 -30 -57.5 -53t-84.5 -23zM207 51q41 0 79 27t57 68v69h-70q-148 0 -148 -83q0 -39 22.5 -60t59.5 -21z" />
    <glyph glyph-name="Aogonek" unicode="&#x104;" horiz-adv-x="578" 
d="M555 -123l21 -46q-27 -23 -66 -23q-37 0 -61 19.5t-24 58.5q0 34 23 65t60 49h-52q10 25 -19 119l-26 82l-246 -1l-27 -81q-29 -92 -19 -119h-108q25 36 55 127l142 421q29 88 26 109h110q-2 -26 26 -109l143 -421q30 -90 54 -127q-38 -19 -61.5 -46.5t-23.5 -55.5
q0 -42 38 -42q20 0 35 21zM185 265h205l-102 318h-2z" />
    <glyph glyph-name="aogonek" unicode="&#x105;" horiz-adv-x="493" 
d="M419 -123l21 -46q-27 -23 -66 -23q-37 0 -61 19.5t-24 58.5q0 34 23 65t60 49h-27l5 64h-7q-18 -30 -57.5 -53t-84.5 -23q-72 0 -113 37.5t-41 106.5q0 145 226 145h70v38q0 59 -22.5 87t-78.5 28q-44 0 -83.5 -16t-60.5 -40l-34 78q10 1 70 23t108 22q94 0 135.5 -44
t41.5 -136v-199q0 -87 12 -118q-38 -19 -61.5 -46.5t-23.5 -55.5q0 -42 38 -42q20 0 35 21zM343 146v69h-70q-148 0 -148 -83q0 -39 22.5 -60t59.5 -21q41 0 79 27t57 68z" />
    <glyph glyph-name="Cacute" unicode="&#x106;" horiz-adv-x="561" 
d="M271 748q78 41 147 132l48 -56q-77 -77 -173 -115zM334 -12q-138 0 -210.5 77.5t-72.5 263.5q0 184 71.5 262t202.5 78q38 0 75.5 -11t70.5 -25.5t43 -17.5l-42 -87q-15 28 -56.5 50.5t-89.5 22.5q-93 0 -144.5 -61t-51.5 -210q0 -152 53 -213.5t153 -61.5q51 0 93.5 21
t59.5 48l35 -92q-13 -3 -45.5 -14.5t-69.5 -20.5t-75 -9z" />
    <glyph glyph-name="cacute" unicode="&#x107;" horiz-adv-x="455" 
d="M221 605q78 41 147 132l48 -56q-77 -77 -173 -115zM271 -12q-103 0 -164 61.5t-61 192.5t61.5 193t163.5 62q52 0 142 -39l-36 -78q-41 50 -106 50q-67 0 -107 -44.5t-40 -143.5q0 -187 147 -187q77 0 121 53l35 -78q-100 -42 -156 -42z" />
    <glyph glyph-name="Cdotaccent" unicode="&#x10a;" horiz-adv-x="561" 
d="M311 715q-52 0 -52 52q0 24 13.5 37.5t38.5 13.5q52 0 52 -51q0 -52 -52 -52zM334 -12q-138 0 -210.5 77.5t-72.5 263.5q0 184 71.5 262t202.5 78q38 0 75.5 -11t70.5 -25.5t43 -17.5l-42 -87q-15 28 -56.5 50.5t-89.5 22.5q-93 0 -144.5 -61t-51.5 -210
q0 -152 53 -213.5t153 -61.5q51 0 93.5 21t59.5 48l35 -92q-13 -3 -45.5 -14.5t-69.5 -20.5t-75 -9z" />
    <glyph glyph-name="cdotaccent" unicode="&#x10b;" horiz-adv-x="455" 
d="M260 572q-52 0 -52 52q0 24 13.5 37.5t38.5 13.5q52 0 52 -51q0 -52 -52 -52zM271 -12q-103 0 -164 61.5t-61 192.5t61.5 193t163.5 62q52 0 142 -39l-36 -78q-41 50 -106 50q-67 0 -107 -44.5t-40 -143.5q0 -187 147 -187q77 0 121 53l35 -78q-100 -42 -156 -42z" />
    <glyph glyph-name="Ccaron" unicode="&#x10c;" horiz-adv-x="561" 
d="M274 703q-43 85 -115 141l32 30q75 -45 118 -115h4q43 70 118 115l32 -30q-70 -54 -115 -141h-74zM334 -12q-138 0 -210.5 77.5t-72.5 263.5q0 184 71.5 262t202.5 78q38 0 75.5 -11t70.5 -25.5t43 -17.5l-42 -87q-15 28 -56.5 50.5t-89.5 22.5q-93 0 -144.5 -61
t-51.5 -210q0 -152 53 -213.5t153 -61.5q51 0 93.5 21t59.5 48l35 -92q-13 -3 -45.5 -14.5t-69.5 -20.5t-75 -9z" />
    <glyph glyph-name="ccaron" unicode="&#x10d;" horiz-adv-x="455" 
d="M223 560q-43 85 -115 141l32 30q75 -45 118 -115h4q43 70 118 115l32 -30q-70 -54 -115 -141h-74zM271 -12q-103 0 -164 61.5t-61 192.5t61.5 193t163.5 62q52 0 142 -39l-36 -78q-41 50 -106 50q-67 0 -107 -44.5t-40 -143.5q0 -187 147 -187q77 0 121 53l35 -78
q-100 -42 -156 -42z" />
    <glyph glyph-name="Dcaron" unicode="&#x10e;" horiz-adv-x="614" 
d="M249 703q-43 85 -115 141l32 30q75 -45 118 -115h4q43 70 118 115l32 -30q-70 -54 -115 -141h-74zM76 657h177q157 0 233.5 -76t76.5 -250t-76.5 -252.5t-230.5 -78.5h-180q17 30 17 116v425q0 84 -17 116zM247 67q123 0 180 60t57 204q0 143 -56.5 201t-180.5 58h-78
v-523h78z" />
    <glyph glyph-name="dcaron" unicode="&#x10f;" horiz-adv-x="555" 
d="M250 -12q-88 0 -143.5 65.5t-55.5 188.5q0 121 58 188t145 67q82 0 133 -49v150q0 85 -12 115h95q-7 -35 -7 -115v-482q0 -86 12 -116h-85l4 50h-7q-54 -62 -137 -62zM544 526l-13 186h73l-13 -186h-47zM261 55q36 0 72 24t54 58v224q-22 30 -55.5 49.5t-68.5 19.5
q-60 0 -97 -49t-37 -139q0 -93 35.5 -140t96.5 -47z" />
    <glyph glyph-name="Dcroat" unicode="&#x110;" horiz-adv-x="614" 
d="M253 657q157 0 233.5 -76t76.5 -250t-76.5 -252.5t-230.5 -78.5h-180q17 30 17 116v206h-61v45h61v174q0 84 -17 116h177zM247 67q123 0 180 60t57 204q0 143 -56.5 201t-180.5 58h-78v-223h175v-45h-175v-255h78z" />
    <glyph glyph-name="dcroat" unicode="&#x111;" horiz-adv-x="555" 
d="M540 552h-77v-436q0 -86 12 -116h-85l4 50h-7q-54 -62 -137 -62q-88 0 -143.5 65.5t-55.5 188.5q0 121 58 188t145 67q82 0 133 -49v104h-98v53h98q0 79 -12 108h95q-7 -34 -7 -108h77v-53zM387 137v224q-22 30 -55.5 49.5t-68.5 19.5q-60 0 -97 -49t-37 -139
q0 -93 35.5 -140t96.5 -47q36 0 72 24t54 58z" />
    <glyph glyph-name="Emacron" unicode="&#x112;" horiz-adv-x="523" 
d="M152 785h256v-54h-256v54zM76 657h257q80 0 128 6v-88q-37 15 -128 15h-166v-212h123q93 0 123 10v-87q-30 10 -123 10h-123v-244h178q92 0 129 15v-89q-43 7 -129 7h-269q15 34 15 116v425q0 81 -15 116z" />
    <glyph glyph-name="emacron" unicode="&#x113;" horiz-adv-x="497" 
d="M130 642h256v-54h-256v54zM276 -12q-110 0 -170 63.5t-60 189.5q0 125 58 190.5t152 65.5t144 -58.5t50 -159.5q0 -32 -3 -50h-323q4 -89 41 -131.5t120 -42.5q84 0 123 47l29 -77q-82 -37 -161 -37zM374 289q0 66 -30 103.5t-86 37.5q-61 0 -95 -39t-40 -102h251z" />
    <glyph glyph-name="Edotaccent" unicode="&#x116;" horiz-adv-x="523" 
d="M279 715q-52 0 -52 52q0 24 13.5 37.5t38.5 13.5q52 0 52 -51q0 -52 -52 -52zM76 657h257q80 0 128 6v-88q-37 15 -128 15h-166v-212h123q93 0 123 10v-87q-30 10 -123 10h-123v-244h178q92 0 129 15v-89q-43 7 -129 7h-269q15 34 15 116v425q0 81 -15 116z" />
    <glyph glyph-name="edotaccent" unicode="&#x117;" horiz-adv-x="497" 
d="M257 572q-52 0 -52 52q0 24 13.5 37.5t38.5 13.5q52 0 52 -51q0 -52 -52 -52zM276 -12q-110 0 -170 63.5t-60 189.5q0 125 58 190.5t152 65.5t144 -58.5t50 -159.5q0 -32 -3 -50h-323q4 -89 41 -131.5t120 -42.5q84 0 123 47l29 -77q-82 -37 -161 -37zM374 289
q0 66 -30 103.5t-86 37.5q-61 0 -95 -39t-40 -102h251z" />
    <glyph glyph-name="Eogonek" unicode="&#x118;" horiz-adv-x="523" 
d="M76 657h257q80 0 128 6v-88q-37 15 -128 15h-166v-212h123q93 0 123 10v-87q-30 10 -123 10h-123v-244h178q92 0 129 15v-89q-43 7 -129 7h-269q15 34 15 116v425q0 81 -15 116zM417 -199q-37 0 -61 19.5t-24 58.5q0 37 26.5 69.5t68.5 49.5l47 -5q-38 -19 -61.5 -46.5
t-23.5 -55.5q0 -42 38 -42q20 0 35 21l21 -46q-27 -23 -66 -23z" />
    <glyph glyph-name="eogonek" unicode="&#x119;" horiz-adv-x="497" 
d="M450 279q0 -32 -3 -50h-323q4 -89 41 -131.5t120 -42.5q84 0 123 47l29 -77q-38 -19 -61.5 -46.5t-23.5 -55.5q0 -42 38 -42q20 0 35 21l21 -46q-27 -23 -66 -23q-37 0 -61 19.5t-24 58.5q0 45 37 82q-30 -5 -56 -5q-110 0 -170 63.5t-60 189.5q0 125 58 190.5t152 65.5
t144 -58.5t50 -159.5zM123 289h251q0 66 -30 103.5t-86 37.5q-61 0 -95 -39t-40 -102z" />
    <glyph glyph-name="Ecaron" unicode="&#x11a;" horiz-adv-x="523" 
d="M242 703q-43 85 -115 141l32 30q75 -45 118 -115h4q43 70 118 115l32 -30q-70 -54 -115 -141h-74zM76 657h257q80 0 128 6v-88q-37 15 -128 15h-166v-212h123q93 0 123 10v-87q-30 10 -123 10h-123v-244h178q92 0 129 15v-89q-43 7 -129 7h-269q15 34 15 116v425
q0 81 -15 116z" />
    <glyph glyph-name="ecaron" unicode="&#x11b;" horiz-adv-x="497" 
d="M220 560q-43 85 -115 141l32 30q75 -45 118 -115h4q43 70 118 115l32 -30q-70 -54 -115 -141h-74zM276 -12q-110 0 -170 63.5t-60 189.5q0 125 58 190.5t152 65.5t144 -58.5t50 -159.5q0 -32 -3 -50h-323q4 -89 41 -131.5t120 -42.5q84 0 123 47l29 -77q-82 -37 -161 -37
zM374 289q0 66 -30 103.5t-86 37.5q-61 0 -95 -39t-40 -102h251z" />
    <glyph glyph-name="Gbreve" unicode="&#x11e;" horiz-adv-x="600" 
d="M327 715q-63 0 -90.5 38.5t-24.5 102.5h43q0 -40 18.5 -65t53.5 -25q34 0 53 25t19 65h43q3 -63 -25 -102t-90 -39zM334 -12q-133 0 -208 77.5t-75 263.5q0 96 21 164t60 105.5t87.5 54t110.5 16.5q43 0 79.5 -9.5t76.5 -28.5l41 -19l-43 -80q-45 68 -154 68
q-96 0 -148 -58.5t-52 -211.5t53 -213t151 -60q86 0 132 39v160h-34q-71 0 -113 -11v90q38 -7 113 -7h111q-7 -28 -7 -118v-70q0 -73 5 -98q-10 -3 -47.5 -18.5t-77 -25.5t-82.5 -10z" />
    <glyph glyph-name="gbreve" unicode="&#x11f;" horiz-adv-x="496" 
d="M239 571q-63 0 -90.5 38.5t-24.5 102.5h43q0 -40 18.5 -65t53.5 -25q34 0 53 25t19 65h43q3 -63 -25 -102t-90 -39zM470 414q-52 20 -98 20v-7q41 -43 41 -104q0 -81 -47.5 -125t-129.5 -44q-24 0 -43 4q-16 -16 -16 -37q0 -24 21.5 -31t80.5 -7q191 0 191 -136
q0 -74 -59.5 -110.5t-166.5 -36.5q-99 0 -152.5 36t-53.5 104q0 41 25.5 74.5t62.5 47.5q-12 20 -12 47q0 39 25 66q-84 44 -84 150q0 82 49.5 127t131.5 45q38 0 67 -12h63q62 0 104 9v-80zM236 210q47 0 77.5 29t30.5 86q0 52 -31 82t-77 30q-48 0 -78 -28t-30 -84
q0 -57 30.5 -86t77.5 -29zM279 16q-78 0 -112 14q-58 -30 -58 -90q0 -79 136 -79q71 0 111 21.5t40 64.5q0 37 -28 53t-89 16z" />
    <glyph glyph-name="Gdotaccent" unicode="&#x120;" horiz-adv-x="600" 
d="M326 715q-52 0 -52 52q0 24 13.5 37.5t38.5 13.5q52 0 52 -51q0 -52 -52 -52zM334 -12q-133 0 -208 77.5t-75 263.5q0 96 21 164t60 105.5t87.5 54t110.5 16.5q43 0 79.5 -9.5t76.5 -28.5l41 -19l-43 -80q-45 68 -154 68q-96 0 -148 -58.5t-52 -211.5t53 -213t151 -60
q86 0 132 39v160h-34q-71 0 -113 -11v90q38 -7 113 -7h111q-7 -28 -7 -118v-70q0 -73 5 -98q-10 -3 -47.5 -18.5t-77 -25.5t-82.5 -10z" />
    <glyph glyph-name="gdotaccent" unicode="&#x121;" horiz-adv-x="496" 
d="M239 571q-52 0 -52 52q0 24 13.5 37.5t38.5 13.5q52 0 52 -51q0 -52 -52 -52zM470 414q-52 20 -98 20v-7q41 -43 41 -104q0 -81 -47.5 -125t-129.5 -44q-24 0 -43 4q-16 -16 -16 -37q0 -24 21.5 -31t80.5 -7q191 0 191 -136q0 -74 -59.5 -110.5t-166.5 -36.5
q-99 0 -152.5 36t-53.5 104q0 41 25.5 74.5t62.5 47.5q-12 20 -12 47q0 39 25 66q-84 44 -84 150q0 82 49.5 127t131.5 45q38 0 67 -12h63q62 0 104 9v-80zM236 210q47 0 77.5 29t30.5 86q0 52 -31 82t-77 30q-48 0 -78 -28t-30 -84q0 -57 30.5 -86t77.5 -29zM279 16
q-78 0 -112 14q-58 -30 -58 -90q0 -79 136 -79q71 0 111 21.5t40 64.5q0 37 -28 53t-89 16z" />
    <glyph glyph-name="uni0122" unicode="&#x122;" horiz-adv-x="600" 
d="M334 -12q-133 0 -208 77.5t-75 263.5q0 96 21 164t60 105.5t87.5 54t110.5 16.5q43 0 79.5 -9.5t76.5 -28.5l41 -19l-43 -80q-45 68 -154 68q-96 0 -148 -58.5t-52 -211.5t53 -213t151 -60q86 0 132 39v160h-34q-71 0 -113 -11v90q38 -7 113 -7h111q-7 -28 -7 -118v-70
q0 -73 5 -98q-10 -3 -47.5 -18.5t-77 -25.5t-82.5 -10zM336 -56q49 0 49 -66q0 -80 -80 -116l-16 29q53 26 56 72q-3 -1 -9 -1q-15 0 -27 11t-12 29q0 20 11 31t28 11z" />
    <glyph glyph-name="uni0123" unicode="&#x123;" horiz-adv-x="496" 
d="M244 551q-23 0 -37.5 17t-14.5 46q0 80 83 117l16 -23q-50 -28 -55 -72q2 1 8 1q18 0 31 -11.5t13 -30.5t-12.5 -31.5t-31.5 -12.5zM470 414q-52 20 -98 20v-7q41 -43 41 -104q0 -81 -47.5 -125t-129.5 -44q-24 0 -43 4q-16 -16 -16 -37q0 -24 21.5 -31t80.5 -7
q191 0 191 -136q0 -74 -59.5 -110.5t-166.5 -36.5q-99 0 -152.5 36t-53.5 104q0 41 25.5 74.5t62.5 47.5q-12 20 -12 47q0 39 25 66q-84 44 -84 150q0 82 49.5 127t131.5 45q38 0 67 -12h63q62 0 104 9v-80zM236 210q47 0 77.5 29t30.5 86q0 52 -31 82t-77 30q-48 0 -78 -28
t-30 -84q0 -57 30.5 -86t77.5 -29zM279 16q-78 0 -112 14q-58 -30 -58 -90q0 -79 136 -79q71 0 111 21.5t40 64.5q0 37 -28 53t-89 16z" />
    <glyph glyph-name="Hbar" unicode="&#x126;" horiz-adv-x="648" 
d="M608 482h-51v-366q0 -82 15 -116h-107q15 34 15 116v196h-313v-196q0 -82 15 -116h-106q15 34 15 116v366h-49v53h49v6q0 81 -15 116h106q-15 -35 -15 -116v-6h313v6q0 81 -15 116h107q-15 -35 -15 -116v-6h51v-53zM480 381v101h-313v-101h313z" />
    <glyph glyph-name="hbar" unicode="&#x127;" horiz-adv-x="544" 
d="M379 0q13 30 13 116v201q0 62 -23.5 87.5t-66.5 25.5q-36 0 -75 -25t-68 -68v-221q0 -86 12 -116h-99q12 30 12 116v443h-75v53h75q0 70 -12 101h95q-8 -37 -8 -101h112v-53h-112v-80q0 -40 -7 -66h7q21 36 62 60t88 24q76 0 117 -45t41 -135v-201q0 -86 12 -116h-100z
" />
    <glyph glyph-name="Imacron" unicode="&#x12a;" horiz-adv-x="270" 
d="M10 785h256v-54h-256v54zM173 116q0 -82 15 -116h-106q15 34 15 116v425q0 81 -15 116h106q-15 -35 -15 -116v-425z" />
    <glyph glyph-name="imacron" unicode="&#x12b;" horiz-adv-x="233" 
d="M-10 642h256v-54h-256v54zM72 0q7 48 7 116v253q0 68 -7 116h89q-7 -48 -7 -116v-253q0 -71 8 -116h-90z" />
    <glyph glyph-name="Iogonek" unicode="&#x12e;" horiz-adv-x="270" 
d="M176 -123l21 -46q-27 -23 -66 -23q-37 0 -61 19.5t-24 58.5q0 34 23 65t60 49h-47q15 34 15 116v425q0 81 -15 116h106q-15 -35 -15 -116v-425q0 -82 15 -116q-38 -19 -61.5 -46.5t-23.5 -55.5q0 -42 38 -42q20 0 35 21z" />
    <glyph glyph-name="iogonek" unicode="&#x12f;" horiz-adv-x="253" 
d="M127 586q-26 0 -40.5 13.5t-14.5 38.5q0 24 15 38t40 14t40 -14t15 -38t-15 -38t-40 -14zM163 -123l21 -46q-27 -23 -66 -23q-37 0 -61 19.5t-24 58.5q0 34 23 65t60 49h-40q12 30 12 116v253q0 86 -12 116h96q-9 -32 -9 -116v-253q0 -86 12 -116q-38 -19 -61.5 -46.5
t-23.5 -55.5q0 -42 38 -42q20 0 35 21z" />
    <glyph glyph-name="Idotaccent" unicode="&#x130;" horiz-adv-x="270" 
d="M137 715q-52 0 -52 52q0 24 13.5 37.5t38.5 13.5q52 0 52 -51q0 -52 -52 -52zM173 116q0 -82 15 -116h-106q15 34 15 116v425q0 81 -15 116h106q-15 -35 -15 -116v-425z" />
    <glyph glyph-name="dotlessi" unicode="&#x131;" horiz-adv-x="233" 
d="M72 0q7 48 7 116v253q0 68 -7 116h89q-7 -48 -7 -116v-253q0 -71 8 -116h-90z" />
    <glyph glyph-name="uni0136" unicode="&#x136;" horiz-adv-x="587" 
d="M76 657h106q-15 -35 -15 -116v-221h3l214 256q40 49 50 81h118q-38 -29 -91 -94l-130 -156l160 -272q41 -71 90 -135h-114q-6 39 -42 101l-143 246l-115 -136v-95q0 -82 15 -116h-106q15 34 15 116v425q0 81 -15 116zM300 -56q49 0 49 -66q0 -80 -80 -116l-16 29
q53 26 56 72q-3 -1 -9 -1q-15 0 -27 11t-12 29q0 20 11 31t28 11z" />
    <glyph glyph-name="uni0137" unicode="&#x137;" horiz-adv-x="489" 
d="M72 713h94q-8 -33 -8 -115v-327q0 -36 -7 -54h7l154 193q37 44 41 75h116q-35 -28 -103 -109l-76 -91l125 -183q49 -70 84 -102h-119q-5 33 -38 85l-98 145l-86 -104v-10q0 -87 12 -116h-98q12 30 12 116v482q0 85 -12 115zM260 -56q49 0 49 -66q0 -80 -80 -116l-16 29
q53 26 56 72q-3 -1 -9 -1q-15 0 -27 11t-12 29q0 20 11 31t28 11z" />
    <glyph glyph-name="Lacute" unicode="&#x139;" horiz-adv-x="475" 
d="M92 748q78 41 147 132l48 -56q-77 -77 -173 -115zM76 657h106q-15 -35 -15 -116v-476h163q90 0 124 15v-87q-35 7 -124 7h-254q15 34 15 116v425q0 81 -15 116z" />
    <glyph glyph-name="lacute" unicode="&#x13a;" horiz-adv-x="243" 
d="M81 802q78 41 147 132l48 -56q-77 -77 -173 -115zM72 0q12 30 12 116v482q0 85 -12 115h99q-12 -30 -12 -115v-482q0 -86 12 -116h-99z" />
    <glyph glyph-name="uni013B" unicode="&#x13b;" horiz-adv-x="475" 
d="M76 657h106q-15 -35 -15 -116v-476h163q90 0 124 15v-87q-35 7 -124 7h-254q15 34 15 116v425q0 81 -15 116zM270 -56q49 0 49 -66q0 -80 -80 -116l-16 29q53 26 56 72q-3 -1 -9 -1q-15 0 -27 11t-12 29q0 20 11 31t28 11z" />
    <glyph glyph-name="uni013C" unicode="&#x13c;" horiz-adv-x="243" 
d="M72 0q12 30 12 116v482q0 85 -12 115h99q-12 -30 -12 -115v-482q0 -86 12 -116h-99zM124 -56q49 0 49 -66q0 -80 -80 -116l-16 29q53 26 56 72q-3 -1 -9 -1q-15 0 -27 11t-12 29q0 20 11 31t28 11z" />
    <glyph glyph-name="Lcaron" unicode="&#x13d;" horiz-adv-x="486" 
d="M76 657h106q-15 -35 -15 -116v-476h163q90 0 124 15v-87q-35 7 -124 7h-254q15 34 15 116v425q0 81 -15 116zM297 467l-12 188h71l-12 -188h-47z" />
    <glyph glyph-name="lcaron" unicode="&#x13e;" horiz-adv-x="243" 
d="M84 757q-43 85 -115 141l32 30q75 -45 118 -115h4q43 70 118 115l32 -30q-70 -54 -115 -141h-74zM72 0q12 30 12 116v482q0 85 -12 115h99q-12 -30 -12 -115v-482q0 -86 12 -116h-99z" />
    <glyph glyph-name="Lslash" unicode="&#x141;" horiz-adv-x="475" 
d="M330 65q90 0 124 15v-87q-35 7 -124 7h-254q15 34 15 116v194l-55 -10l-10 52l65 11v178q0 81 -15 116h106q-15 -35 -15 -116v-164l91 16l9 -52l-100 -18v-258h163z" />
    <glyph glyph-name="lslash" unicode="&#x142;" horiz-adv-x="251" 
d="M159 326v-210q0 -86 12 -116h-99q12 30 12 116v196l-52 -10l-9 52l61 12v232q0 85 -12 115h99q-12 -30 -12 -115v-218l56 11l9 -52z" />
    <glyph glyph-name="Nacute" unicode="&#x143;" horiz-adv-x="649" 
d="M288 748q78 41 147 132l48 -56q-77 -77 -173 -115zM76 657h105l310 -515h4q-9 40 -9 109v290q0 81 -15 116h102q-15 -35 -15 -116v-405q0 -91 14 -136h-82l-333 552h-4q10 -39 10 -105v-331q0 -82 15 -116h-102q15 34 15 116v425q0 81 -15 116z" />
    <glyph glyph-name="nacute" unicode="&#x144;" horiz-adv-x="544" 
d="M237 605q78 41 147 132l48 -56q-77 -77 -173 -115zM72 486h85q0 -32 -5 -69h7q20 30 62.5 55t93.5 25q70 0 111 -43.5t41 -130.5v-205q0 -87 12 -118h-100q13 31 13 118v205q0 107 -93 107q-39 0 -77.5 -26t-62.5 -64v-222q0 -87 12 -118h-99q12 31 12 118v251
q0 86 -12 117z" />
    <glyph glyph-name="uni0145" unicode="&#x145;" horiz-adv-x="649" 
d="M76 657h105l310 -515h4q-9 40 -9 109v290q0 81 -15 116h102q-15 -35 -15 -116v-405q0 -91 14 -136h-82l-333 552h-4q10 -39 10 -105v-331q0 -82 15 -116h-102q15 34 15 116v425q0 81 -15 116zM315 -56q49 0 49 -66q0 -80 -80 -116l-16 29q53 26 56 72q-3 -1 -9 -1
q-15 0 -27 11t-12 29q0 20 11 31t28 11z" />
    <glyph glyph-name="uni0146" unicode="&#x146;" horiz-adv-x="544" 
d="M72 486h85q0 -32 -5 -69h7q20 30 62.5 55t93.5 25q70 0 111 -43.5t41 -130.5v-205q0 -87 12 -118h-100q13 31 13 118v205q0 107 -93 107q-39 0 -77.5 -26t-62.5 -64v-222q0 -87 12 -118h-99q12 31 12 118v251q0 86 -12 117zM272 -56q49 0 49 -66q0 -80 -80 -116l-16 29
q53 26 56 72q-3 -1 -9 -1q-15 0 -27 11t-12 29q0 20 11 31t28 11z" />
    <glyph glyph-name="Ncaron" unicode="&#x147;" horiz-adv-x="649" 
d="M290 703q-43 85 -115 141l32 30q75 -45 118 -115h4q43 70 118 115l32 -30q-70 -54 -115 -141h-74zM76 657h105l310 -515h4q-9 40 -9 109v290q0 81 -15 116h102q-15 -35 -15 -116v-405q0 -91 14 -136h-82l-333 552h-4q10 -39 10 -105v-331q0 -82 15 -116h-102
q15 34 15 116v425q0 81 -15 116z" />
    <glyph glyph-name="ncaron" unicode="&#x148;" horiz-adv-x="544" 
d="M239 560q-43 85 -115 141l32 30q75 -45 118 -115h4q43 70 118 115l32 -30q-70 -54 -115 -141h-74zM72 486h85q0 -32 -5 -69h7q20 30 62.5 55t93.5 25q70 0 111 -43.5t41 -130.5v-205q0 -87 12 -118h-100q13 31 13 118v205q0 107 -93 107q-39 0 -77.5 -26t-62.5 -64v-222
q0 -87 12 -118h-99q12 31 12 118v251q0 86 -12 117z" />
    <glyph glyph-name="Eng" unicode="&#x14a;" horiz-adv-x="646" 
d="M471 657h102q-15 -35 -15 -116v-583q0 -158 -127 -158q-14 0 -38 2.5t-33 1.5l16 80q16 -22 47 -22q64 0 64 96v47l-330 548h-4q10 -44 10 -111v-326q0 -82 15 -116h-102q15 34 15 116v425q0 81 -15 116h105l310 -515h4q-9 47 -9 114v285q0 81 -15 116z" />
    <glyph glyph-name="eng" unicode="&#x14b;" horiz-adv-x="544" 
d="M72 486h81v-72h2q67 83 161 83q151 0 151 -190v-340q0 -158 -129 -158q-16 0 -39 3t-30 3l18 73q12 -18 44 -18q35 0 48 24.5t13 72.5v340q0 125 -88 125q-76 0 -145 -93v-221q0 -87 12 -118h-99q12 31 12 118v250q0 87 -12 118z" />
    <glyph glyph-name="Omacron" unicode="&#x14c;" horiz-adv-x="651" 
d="M199 785h256v-54h-256v54zM326 -12q-129 0 -202 85.5t-73 257.5q0 171 72.5 254.5t202.5 83.5q129 0 202 -83.5t73 -254.5q0 -172 -73 -257.5t-202 -85.5zM326 57q92 0 143.5 67.5t51.5 206.5q0 269 -195 269t-195 -269q0 -140 51 -207t144 -67z" />
    <glyph glyph-name="omacron" unicode="&#x14d;" horiz-adv-x="530" 
d="M138 642h256v-54h-256v54zM265 -12q-100 0 -159.5 64.5t-59.5 188.5q0 126 59.5 191t159.5 65t159.5 -65t59.5 -191q0 -124 -59.5 -188.5t-159.5 -64.5zM265 55q141 0 141 186q0 189 -141 189t-141 -189q0 -186 141 -186z" />
    <glyph glyph-name="Ohungarumlaut" unicode="&#x150;" horiz-adv-x="651" 
d="M227 717q57 76 86 171l54 -26q-32 -87 -99 -165zM374 717q58 78 87 171l53 -26q-31 -86 -98 -165zM326 -12q-129 0 -202 85.5t-73 257.5q0 171 72.5 254.5t202.5 83.5q129 0 202 -83.5t73 -254.5q0 -172 -73 -257.5t-202 -85.5zM326 57q92 0 143.5 67.5t51.5 206.5
q0 269 -195 269t-195 -269q0 -140 51 -207t144 -67z" />
    <glyph glyph-name="ohungarumlaut" unicode="&#x151;" horiz-adv-x="530" 
d="M166 574q57 76 86 171l54 -26q-32 -87 -99 -165zM313 574q59 78 87 171l53 -26q-31 -86 -98 -165zM265 -12q-100 0 -159.5 64.5t-59.5 188.5q0 126 59.5 191t159.5 65t159.5 -65t59.5 -191q0 -124 -59.5 -188.5t-159.5 -64.5zM265 55q141 0 141 186q0 189 -141 189
t-141 -189q0 -186 141 -186z" />
    <glyph glyph-name="OE" unicode="&#x152;" horiz-adv-x="849" 
d="M671 67q92 0 129 15v-89q-43 7 -129 7h-257q-39 -12 -88 -12q-129 0 -202 85.5t-73 257.5q0 171 72.5 254.5t202.5 83.5q49 0 88 -12h245q81 0 128 6v-88q-37 15 -128 15h-157v-212h114q94 0 123 10v-87q-29 10 -123 10h-114v-244h169zM131 331q0 -140 51 -207t144 -67
q60 0 99 26q1 10 1 33v425q0 23 -1 34q-40 25 -99 25q-195 0 -195 -269z" />
    <glyph glyph-name="oe" unicode="&#x153;" horiz-adv-x="865" 
d="M817 279q0 -32 -3 -50h-322q4 -89 41 -131.5t120 -42.5q82 0 123 47l29 -77q-84 -37 -161 -37q-139 0 -195 98q-56 -98 -184 -98q-100 0 -159.5 64.5t-59.5 188.5q0 126 59.5 191t159.5 65q128 0 184 -99q55 99 175 99q94 0 143.5 -58.5t49.5 -159.5zM265 55
q141 0 141 186q0 189 -141 189t-141 -189q0 -186 141 -186zM491 289h251q0 65 -30.5 103t-85.5 38q-61 0 -95 -39t-40 -102z" />
    <glyph glyph-name="Racute" unicode="&#x154;" horiz-adv-x="566" 
d="M231 748q78 41 147 132l48 -56q-77 -77 -173 -115zM76 657h204q117 0 178.5 -43t61.5 -146q0 -80 -40 -128t-109 -62l91 -159q48 -81 84 -119h-123q0 38 -38 104l-94 165h-124v-153q0 -82 15 -116h-106q15 34 15 116v426q0 81 -15 115zM277 334q84 0 125.5 32t41.5 102
q0 67 -41 95t-125 28h-111v-257h110z" />
    <glyph glyph-name="racute" unicode="&#x155;" horiz-adv-x="351" 
d="M139 605q78 41 147 132l48 -56q-77 -77 -173 -115zM72 485h84q0 -62 -5 -90h8q15 43 51.5 72.5t82.5 29.5q12 0 52 -5l-16 -78q-19 15 -44 15q-38 0 -75 -41.5t-51 -95.5v-176q0 -86 12 -116h-99q12 30 12 116v253q0 86 -12 116z" />
    <glyph glyph-name="uni0156" unicode="&#x156;" horiz-adv-x="566" 
d="M76 657h204q117 0 178.5 -43t61.5 -146q0 -80 -40 -128t-109 -62l91 -159q48 -81 84 -119h-123q0 38 -38 104l-94 165h-124v-153q0 -82 15 -116h-106q15 34 15 116v426q0 81 -15 115zM277 334q84 0 125.5 32t41.5 102q0 67 -41 95t-125 28h-111v-257h110zM295 -56
q49 0 49 -66q0 -80 -80 -116l-16 29q53 26 56 72q-3 -1 -9 -1q-15 0 -27 11t-12 29q0 20 11 31t28 11z" />
    <glyph glyph-name="uni0157" unicode="&#x157;" horiz-adv-x="351" 
d="M72 485h84q0 -62 -5 -90h8q15 43 51.5 72.5t82.5 29.5q12 0 52 -5l-16 -78q-19 15 -44 15q-38 0 -75 -41.5t-51 -95.5v-176q0 -86 12 -116h-99q12 30 12 116v253q0 86 -12 116zM127 -56q49 0 49 -66q0 -80 -80 -116l-16 29q53 26 56 72q-3 -1 -9 -1q-15 0 -27 11t-12 29
q0 20 11 31t28 11z" />
    <glyph glyph-name="Rcaron" unicode="&#x158;" horiz-adv-x="566" 
d="M233 703q-43 85 -115 141l32 30q75 -45 118 -115h4q43 70 118 115l32 -30q-70 -54 -115 -141h-74zM76 657h204q117 0 178.5 -43t61.5 -146q0 -80 -40 -128t-109 -62l91 -159q48 -81 84 -119h-123q0 38 -38 104l-94 165h-124v-153q0 -82 15 -116h-106q15 34 15 116v426
q0 81 -15 115zM277 334q84 0 125.5 32t41.5 102q0 67 -41 95t-125 28h-111v-257h110z" />
    <glyph glyph-name="rcaron" unicode="&#x159;" horiz-adv-x="351" 
d="M141 560q-43 85 -115 141l32 30q75 -45 118 -115h4q43 70 118 115l32 -30q-70 -54 -115 -141h-74zM72 485h84q0 -62 -5 -90h8q15 43 51.5 72.5t82.5 29.5q12 0 52 -5l-16 -78q-19 15 -44 15q-38 0 -75 -41.5t-51 -95.5v-176q0 -86 12 -116h-99q12 30 12 116v253
q0 86 -12 116z" />
    <glyph glyph-name="Sacute" unicode="&#x15a;" horiz-adv-x="529" 
d="M227 748q78 41 147 132l48 -56q-77 -77 -173 -115zM267 -12q-41 0 -83.5 11t-88.5 29.5t-57 21.5l47 93q30 -42 79 -65t104 -23q70 0 105.5 30t35.5 83q0 49 -26 75t-85 46l-73 27q-68 24 -108 65.5t-40 116.5q0 77 56 124t144 47q37 0 71.5 -8.5t73.5 -24.5t47 -19
l-42 -83q-58 67 -150 67q-57 0 -90 -27t-33 -75q0 -46 25.5 -70t77.5 -43l73 -27q76 -28 116.5 -70t40.5 -115q0 -81 -58 -133.5t-162 -52.5z" />
    <glyph glyph-name="sacute" unicode="&#x15b;" horiz-adv-x="421" 
d="M173 605q78 41 147 132l48 -56q-77 -77 -173 -115zM208 -12q-32 0 -65.5 7t-66 17.5t-44.5 13.5l33 92q21 -28 61 -47t85 -19q48 0 74 19.5t26 55.5q0 52 -86 77l-39 11q-130 37 -130 145q0 65 43.5 101t121.5 36q26 0 54 -6.5t58 -16.5t38 -12l-38 -83q-15 24 -45.5 39
t-66.5 15q-44 0 -68.5 -18t-24.5 -50q0 -57 73 -78l47 -14q136 -40 136 -141q0 -68 -45.5 -106t-130.5 -38z" />
    <glyph glyph-name="Scedilla" unicode="&#x15e;" horiz-adv-x="529" 
d="M487 174q0 -77 -52 -128.5t-147 -56.5l-21 -47q73 -17 73 -75q0 -43 -42 -66t-120 -24l-7 47q53 -6 81 6.5t28 35.5q0 44 -77 48l36 75q-36 4 -74 15.5t-75.5 26.5t-51.5 19l47 93q30 -42 79 -65t104 -23q70 0 105.5 30t35.5 83q0 49 -26 75t-85 46l-73 27
q-68 24 -108 65.5t-40 116.5q0 77 56 124t144 47q37 0 71.5 -8.5t73.5 -24.5t47 -19l-42 -83q-58 67 -150 67q-57 0 -90 -27t-33 -75q0 -46 25.5 -70t77.5 -43l73 -27q76 -28 116.5 -70t40.5 -115z" />
    <glyph glyph-name="scedilla" unicode="&#x15f;" horiz-adv-x="421" 
d="M384 132q0 -63 -40 -101t-115 -42l-21 -47q73 -17 73 -75q0 -43 -42 -66t-120 -24l-7 47q53 -6 81 6.5t28 35.5q0 44 -77 48l36 75q-36 4 -89.5 20t-58.5 17l33 92q21 -28 61 -47t85 -19q48 0 74 19.5t26 55.5q0 52 -86 77l-39 11q-130 37 -130 145q0 65 43.5 101
t121.5 36q26 0 54 -6.5t58 -16.5t38 -12l-38 -83q-15 24 -45.5 39t-66.5 15q-44 0 -68.5 -18t-24.5 -50q0 -57 73 -78l47 -14q136 -40 136 -141z" />
    <glyph glyph-name="Scaron" unicode="&#x160;" horiz-adv-x="529" 
d="M230 703q-43 85 -115 141l32 30q75 -45 118 -115h4q43 70 118 115l32 -30q-70 -54 -115 -141h-74zM267 -12q-41 0 -83.5 11t-88.5 29.5t-57 21.5l47 93q30 -42 79 -65t104 -23q70 0 105.5 30t35.5 83q0 49 -26 75t-85 46l-73 27q-68 24 -108 65.5t-40 116.5q0 77 56 124
t144 47q37 0 71.5 -8.5t73.5 -24.5t47 -19l-42 -83q-58 67 -150 67q-57 0 -90 -27t-33 -75q0 -46 25.5 -70t77.5 -43l73 -27q76 -28 116.5 -70t40.5 -115q0 -81 -58 -133.5t-162 -52.5z" />
    <glyph glyph-name="scaron" unicode="&#x161;" horiz-adv-x="421" 
d="M175 560q-43 85 -115 141l32 30q75 -45 118 -115h4q43 70 118 115l32 -30q-70 -54 -115 -141h-74zM208 -12q-32 0 -65.5 7t-66 17.5t-44.5 13.5l33 92q21 -28 61 -47t85 -19q48 0 74 19.5t26 55.5q0 52 -86 77l-39 11q-130 37 -130 145q0 65 43.5 101t121.5 36
q26 0 54 -6.5t58 -16.5t38 -12l-38 -83q-15 24 -45.5 39t-66.5 15q-44 0 -68.5 -18t-24.5 -50q0 -57 73 -78l47 -14q136 -40 136 -141q0 -68 -45.5 -106t-130.5 -38z" />
    <glyph glyph-name="uni0162" unicode="&#x162;" horiz-adv-x="517" 
d="M380 657q66 0 115 6v-88q-41 15 -115 15h-83v-474q0 -74 15 -116h-28l-27 -58q73 -17 73 -75q0 -43 -42 -66t-120 -24l-7 47q53 -6 81 6.5t28 35.5q0 44 -77 48l42 86h-30q15 42 15 116v474h-83q-73 0 -116 -15v88q51 -6 116 -6h243z" />
    <glyph glyph-name="uni0163" unicode="&#x163;" horiz-adv-x="342" 
d="M218 -58q73 -17 73 -75q0 -43 -42 -66t-120 -24l-7 47q53 -6 81 6.5t28 35.5q0 44 -77 48l38 79q-92 21 -92 154v279h-72v48q39 10 81 38t67 60v-87h131v-66q-41 7 -131 7v-280q0 -48 17 -72t59 -24q33 0 56 23l15 -73q-8 -1 -38.5 -6t-45.5 -6z" />
    <glyph glyph-name="Tcaron" unicode="&#x164;" horiz-adv-x="517" 
d="M223 700q-43 85 -115 141l32 30q75 -45 118 -115h4q43 70 118 115l32 -30q-70 -54 -115 -141h-74zM220 590h-83q-73 0 -116 -15v88q51 -6 116 -6h243q66 0 115 6v-88q-41 15 -115 15h-83v-474q0 -74 15 -116h-107q15 42 15 116v474z" />
    <glyph glyph-name="tcaron" unicode="&#x165;" horiz-adv-x="342" 
d="M236 541l-12 172h67l-12 -172h-43zM235 -12q-135 0 -135 159v279h-72v48q39 10 81 38t67 60v-87h131v-66q-41 7 -131 7v-280q0 -48 17 -72t59 -24q33 0 56 23l15 -73q-7 -1 -39.5 -6.5t-48.5 -5.5z" />
    <glyph glyph-name="Tbar" unicode="&#x166;" horiz-adv-x="517" 
d="M380 590h-83v-243h111v-53h-111v-178q0 -74 15 -116h-107q15 42 15 116v178h-93v53h93v243h-83q-73 0 -116 -15v88q51 -6 116 -6h243q66 0 115 6v-88q-41 15 -115 15z" />
    <glyph glyph-name="tbar" unicode="&#x167;" horiz-adv-x="342" 
d="M308 73l15 -73q-7 -1 -39.5 -6.5t-48.5 -5.5q-135 0 -135 159v86h-68v53h68v140h-72v48q39 10 81 38t67 60v-87h131v-66q-41 7 -131 7v-140h105v-53h-105v-87q0 -48 17 -72t59 -24q33 0 56 23z" />
    <glyph glyph-name="Umacron" unicode="&#x16a;" horiz-adv-x="634" 
d="M190 785h256v-54h-256v54zM317 -12q-233 0 -233 278v276q0 81 -15 115h106q-15 -34 -15 -115v-277q0 -210 157 -210q160 0 160 210v277q0 81 -15 115h103q-15 -34 -15 -115v-276q0 -278 -233 -278z" />
    <glyph glyph-name="umacron" unicode="&#x16b;" horiz-adv-x="540" 
d="M130 641h256v-54h-256v54zM224 -12q-148 0 -148 190v191q0 77 -17 116h93v-307q0 -125 86 -125q39 0 78.5 29t65.5 78v209q0 76 -16 116h91v-369q0 -75 12 -116h-89q0 41 8 77h-8q-49 -89 -156 -89z" />
    <glyph glyph-name="Uring" unicode="&#x16e;" horiz-adv-x="634" 
d="M317 703q-48 0 -77 24t-29 63t29 63t77 24t77.5 -24.5t29.5 -62.5t-29.5 -62.5t-77.5 -24.5zM317 743q25 0 41 12.5t16 34.5t-16 34t-41 12t-41 -12t-16 -34t16 -34.5t41 -12.5zM317 -12q-233 0 -233 278v276q0 81 -15 115h106q-15 -34 -15 -115v-277q0 -210 157 -210
q160 0 160 210v277q0 81 -15 115h103q-15 -34 -15 -115v-276q0 -278 -233 -278z" />
    <glyph glyph-name="uring" unicode="&#x16f;" horiz-adv-x="540" 
d="M257 559q-48 0 -77 24t-29 63t29 63t77 24t77.5 -24.5t29.5 -62.5t-29.5 -62.5t-77.5 -24.5zM257 599q25 0 41 12.5t16 34.5t-16 34t-41 12t-41 -12t-16 -34t16 -34.5t41 -12.5zM224 -12q-148 0 -148 190v191q0 77 -17 116h93v-307q0 -125 86 -125q39 0 78.5 29t65.5 78
v209q0 76 -16 116h91v-369q0 -75 12 -116h-89q0 41 8 77h-8q-49 -89 -156 -89z" />
    <glyph glyph-name="Uhungarumlaut" unicode="&#x170;" horiz-adv-x="634" 
d="M218 717q57 76 86 171l54 -26q-32 -87 -99 -165zM365 717q59 78 87 171l53 -26q-31 -86 -98 -165zM317 -12q-233 0 -233 278v276q0 81 -15 115h106q-15 -34 -15 -115v-277q0 -210 157 -210q160 0 160 210v277q0 81 -15 115h103q-15 -34 -15 -115v-276q0 -278 -233 -278z
" />
    <glyph glyph-name="uhungarumlaut" unicode="&#x171;" horiz-adv-x="540" 
d="M158 573q57 76 86 171l54 -26q-32 -87 -99 -165zM305 573q59 78 87 171l53 -26q-31 -86 -98 -165zM224 -12q-148 0 -148 190v191q0 77 -17 116h93v-307q0 -125 86 -125q39 0 78.5 29t65.5 78v209q0 76 -16 116h91v-369q0 -75 12 -116h-89q0 41 8 77h-8q-49 -89 -156 -89z
" />
    <glyph glyph-name="Uogonek" unicode="&#x172;" horiz-adv-x="634" 
d="M462 657h103q-15 -34 -15 -115v-276q0 -221 -149 -267q-38 -19 -61 -46t-23 -55q0 -42 38 -42q20 0 35 21l21 -46q-27 -23 -66 -23q-37 0 -61 19.5t-24 58.5q0 61 62 102h-5q-233 0 -233 278v276q0 81 -15 115h106q-15 -34 -15 -115v-277q0 -210 157 -210q160 0 160 210
v277q0 81 -15 115z" />
    <glyph glyph-name="uogonek" unicode="&#x173;" horiz-adv-x="540" 
d="M457 -123l21 -46q-27 -23 -66 -23q-37 0 -61 19.5t-24 58.5q0 34 23 65t60 49h-30q0 41 8 77h-8q-49 -89 -156 -89q-148 0 -148 190v191q0 77 -17 116h93v-307q0 -125 86 -125q39 0 78.5 29t65.5 78v209q0 76 -16 116h91v-369q0 -75 12 -116q-38 -19 -61.5 -46.5
t-23.5 -55.5q0 -42 38 -42q20 0 35 21z" />
    <glyph glyph-name="Wcircumflex" unicode="&#x174;" horiz-adv-x="796" 
d="M397 813q-45 -72 -118 -115l-28 30q65 51 110 140h75q45 -89 110 -140l-28 -30q-74 43 -117 115h-4zM676 657h103q-22 -40 -40 -125l-87 -416q-19 -84 -11 -116h-119q5 33 -15 116l-109 431l-107 -431q-21 -87 -15 -116h-118q7 36 -11 116l-90 416q-18 84 -40 125h108
q-9 -32 7 -114l89 -450l116 457q20 80 14 107h99q-8 -26 13 -107l117 -456l89 449q17 85 7 114z" />
    <glyph glyph-name="wcircumflex" unicode="&#x175;" horiz-adv-x="712" 
d="M359 669q-45 -72 -118 -115l-28 30q65 51 110 140h75q45 -89 110 -140l-28 -30q-74 43 -117 115h-4zM603 485h94q-25 -42 -45 -116l-68 -253q-20 -78 -20 -116h-112q1 40 -20 116l-74 267l-75 -267q-21 -74 -20 -116h-113q1 40 -20 116l-71 253q-27 88 -44 116h101
q-4 -33 14 -101l78 -295l84 294q20 72 19 102h99q-2 -29 18 -104l80 -291l81 294q18 69 14 101z" />
    <glyph glyph-name="Ycircumflex" unicode="&#x176;" horiz-adv-x="510" 
d="M253 813q-45 -72 -118 -115l-28 30q65 51 110 140h75q45 -89 110 -140l-28 -30q-74 43 -117 115h-4zM429 532l-136 -276v-140q0 -77 15 -116h-107q15 39 15 116v140l-135 276q-3 5 -12 23.5t-11 22.5t-9 17.5t-10 18.5t-9 14t-10.5 15.5t-10.5 13.5h107q1 -35 34 -105
l107 -231l107 231q32 65 34 105h102q-25 -31 -71 -125z" />
    <glyph glyph-name="ycircumflex" unicode="&#x177;" horiz-adv-x="479" 
d="M213 724h75q45 -89 110 -140l-28 -30q-74 43 -117 115h-4q-45 -72 -118 -115l-28 30q65 51 110 140zM96 -200q-11 0 -30.5 2.5t-29.5 2.5l20 87q16 -29 50 -29q69 0 106 108l10 29h-6l-156 387q-28 71 -51 98h108q-5 -33 14 -80l121 -316h3l104 316q17 48 10 80h101
q-20 -26 -46 -98l-148 -428q-28 -79 -70 -119t-110 -40z" />
    <glyph glyph-name="Ydieresis" unicode="&#x178;" horiz-adv-x="510" 
d="M183 718q-20 0 -33.5 14t-13.5 34t13.5 33.5t33.5 13.5t33.5 -13.5t13.5 -33.5t-13.5 -34t-33.5 -14zM331 718q-20 0 -33.5 14t-13.5 34t13.5 33.5t33.5 13.5t33.5 -13.5t13.5 -33.5t-13.5 -34t-33.5 -14zM429 532l-136 -276v-140q0 -77 15 -116h-107q15 39 15 116v140
l-135 276q-3 5 -12 23.5t-11 22.5t-9 17.5t-10 18.5t-9 14t-10.5 15.5t-10.5 13.5h107q1 -35 34 -105l107 -231l107 231q32 65 34 105h102q-25 -31 -71 -125z" />
    <glyph glyph-name="Zacute" unicode="&#x179;" horiz-adv-x="539" 
d="M419 824q-77 -77 -173 -115l-22 39q78 41 147 132zM368 67q92 0 128 20v-95q-33 8 -128 8h-322l-1 62q28 25 76 100l275 428h-198q-89 0 -121 -21v95q36 -7 121 -7h295v-61q-24 -22 -66 -86l-285 -443h226z" />
    <glyph glyph-name="zacute" unicode="&#x17a;" horiz-adv-x="432" 
d="M182 605q78 41 147 132l48 -56q-77 -77 -173 -115zM32 53q21 17 52 64l209 306h-127q-75 0 -105 -15v82q50 -5 100 -5h219l9 -55q-14 -8 -44 -49l-218 -319h153q82 0 117 15v-82q-57 5 -111 5h-245z" />
    <glyph glyph-name="Zdotaccent" unicode="&#x17b;" horiz-adv-x="539" 
d="M263 715q-52 0 -52 52q0 24 13.5 37.5t38.5 13.5q52 0 52 -51q0 -52 -52 -52zM368 67q92 0 128 20v-95q-33 8 -128 8h-322l-1 62q28 25 76 100l275 428h-198q-89 0 -121 -21v95q36 -7 121 -7h295v-61q-24 -22 -66 -86l-285 -443h226z" />
    <glyph glyph-name="zdotaccent" unicode="&#x17c;" horiz-adv-x="432" 
d="M222 572q-52 0 -52 52q0 24 13.5 37.5t38.5 13.5q52 0 52 -51q0 -52 -52 -52zM32 53q21 17 52 64l209 306h-127q-75 0 -105 -15v82q50 -5 100 -5h219l9 -55q-14 -8 -44 -49l-218 -319h153q82 0 117 15v-82q-57 5 -111 5h-245z" />
    <glyph glyph-name="Zcaron" unicode="&#x17d;" horiz-adv-x="539" 
d="M226 703q-43 85 -115 141l32 30q75 -45 118 -115h4q43 70 118 115l32 -30q-70 -54 -115 -141h-74zM368 67q92 0 128 20v-95q-33 8 -128 8h-322l-1 62q28 25 76 100l275 428h-198q-89 0 -121 -21v95q36 -7 121 -7h295v-61q-24 -22 -66 -86l-285 -443h226z" />
    <glyph glyph-name="zcaron" unicode="&#x17e;" horiz-adv-x="432" 
d="M185 560q-43 85 -115 141l32 30q75 -45 118 -115h4q43 70 118 115l32 -30q-70 -54 -115 -141h-74zM32 53q21 17 52 64l209 306h-127q-75 0 -105 -15v82q50 -5 100 -5h219l9 -55q-14 -8 -44 -49l-218 -319h153q82 0 117 15v-82q-57 5 -111 5h-245z" />
    <glyph glyph-name="florin" unicode="&#x192;" horiz-adv-x="413" 
d="M332 546q-68 0 -80 -112l-7 -63h67q40 0 56 10v-78q-16 9 -56 9h-74l-16 -146q-10 -91 -44 -134.5t-100 -43.5q-11 0 -30 2t-28 2l8 82q25 -20 51 -20q56 0 68 112l16 146h-19q-39 0 -56 -9v78q16 -10 56 -10h26l7 63q19 178 157 178q19 0 42 -2t29 -2l-8 -82
q-29 20 -65 20z" />
    <glyph glyph-name="uni0218" unicode="&#x218;" horiz-adv-x="529" 
d="M267 -12q-41 0 -83.5 11t-88.5 29.5t-57 21.5l47 93q30 -42 79 -65t104 -23q70 0 105.5 30t35.5 83q0 49 -26 75t-85 46l-73 27q-68 24 -108 65.5t-40 116.5q0 77 56 124t144 47q37 0 71.5 -8.5t73.5 -24.5t47 -19l-42 -83q-58 67 -150 67q-57 0 -90 -27t-33 -75
q0 -46 25.5 -70t77.5 -43l73 -27q76 -28 116.5 -70t40.5 -115q0 -81 -58 -133.5t-162 -52.5zM270 -56q49 0 49 -66q0 -80 -80 -116l-16 29q53 26 56 72q-3 -1 -9 -1q-15 0 -27 11t-12 29q0 20 11 31t28 11z" />
    <glyph glyph-name="uni0219" unicode="&#x219;" horiz-adv-x="421" 
d="M208 -12q-32 0 -65.5 7t-66 17.5t-44.5 13.5l33 92q21 -28 61 -47t85 -19q48 0 74 19.5t26 55.5q0 52 -86 77l-39 11q-130 37 -130 145q0 65 43.5 101t121.5 36q26 0 54 -6.5t58 -16.5t38 -12l-38 -83q-15 24 -45.5 39t-66.5 15q-44 0 -68.5 -18t-24.5 -50q0 -57 73 -78
l47 -14q136 -40 136 -141q0 -68 -45.5 -106t-130.5 -38zM212 -56q49 0 49 -66q0 -80 -80 -116l-16 29q53 26 56 72q-3 -1 -9 -1q-15 0 -27 11t-12 29q0 20 11 31t28 11z" />
    <glyph glyph-name="uni021A" unicode="&#x21a;" horiz-adv-x="517" 
d="M220 590h-83q-73 0 -116 -15v88q51 -6 116 -6h243q66 0 115 6v-88q-41 15 -115 15h-83v-474q0 -74 15 -116h-107q15 42 15 116v474zM261 -56q49 0 49 -66q0 -80 -80 -116l-16 29q53 26 56 72q-3 -1 -9 -1q-15 0 -27 11t-12 29q0 20 11 31t28 11z" />
    <glyph glyph-name="uni021B" unicode="&#x21b;" horiz-adv-x="342" 
d="M235 -12q-135 0 -135 159v279h-72v48q39 10 81 38t67 60v-87h131v-66q-41 7 -131 7v-280q0 -48 17 -72t59 -24q33 0 56 23l15 -73q-7 -1 -39.5 -6.5t-48.5 -5.5zM221 -56q49 0 49 -66q0 -80 -80 -116l-16 29q53 26 56 72q-3 -1 -9 -1q-15 0 -27 11t-12 29q0 20 11 31
t28 11z" />
    <glyph glyph-name="circumflex" unicode="&#x2c6;" horiz-adv-x="471" 
d="M198 739h75q45 -89 110 -140l-28 -30q-74 43 -117 115h-4q-45 -72 -118 -115l-28 30q65 51 110 140z" />
    <glyph glyph-name="caron" unicode="&#x2c7;" horiz-adv-x="542" 
d="M234 574q-43 85 -115 141l32 30q75 -45 118 -115h4q43 70 118 115l32 -30q-70 -54 -115 -141h-74z" />
    <glyph glyph-name="breve" unicode="&#x2d8;" horiz-adv-x="404" 
d="M202 574q-63 0 -90.5 38.5t-24.5 102.5h43q0 -40 18.5 -65t53.5 -25q34 0 53 25t19 65h43q3 -63 -25 -102t-90 -39z" />
    <glyph glyph-name="dotaccent" unicode="&#x2d9;" horiz-adv-x="542" 
d="M271 586q-52 0 -52 52q0 24 13.5 37.5t38.5 13.5q52 0 52 -51q0 -52 -52 -52z" />
    <glyph glyph-name="ring" unicode="&#x2da;" horiz-adv-x="542" 
d="M271 574q-48 0 -77 24t-29 63t29 63t77 24t77.5 -24.5t29.5 -62.5t-29.5 -62.5t-77.5 -24.5zM271 614q25 0 41 12.5t16 34.5t-16 34t-41 12t-41 -12t-16 -34t16 -34.5t41 -12.5z" />
    <glyph glyph-name="ogonek" unicode="&#x2db;" horiz-adv-x="506" 
d="M242 -189q-37 0 -61 19.5t-24 58.5q0 37 26.5 69.5t68.5 49.5l47 -5q-38 -19 -61.5 -46.5t-23.5 -55.5q0 -42 38 -42q20 0 35 21l21 -46q-27 -23 -66 -23z" />
    <glyph glyph-name="tilde" unicode="&#x2dc;" horiz-adv-x="542" 
d="M334 587q-33 0 -69.5 34t-55.5 34q-22 0 -30 -17.5t1 -43.5l-70 3q13 53 38.5 83t59.5 30q26 0 48.5 -17t41.5 -34t36 -17q21 0 29 18t0 43l69 -4q-13 -53 -38.5 -82.5t-59.5 -29.5z" />
    <glyph glyph-name="hungarumlaut" unicode="&#x2dd;" horiz-adv-x="542" 
d="M178 588q57 76 86 171l54 -26q-32 -87 -99 -165zM325 588q59 78 87 171l53 -26q-31 -86 -98 -165z" />
    <glyph glyph-name="gravecomb" unicode="&#x300;" horiz-adv-x="0" 
d="M-219 633l-17 -45q-100 29 -184 108l41 62q78 -88 160 -125z" />
    <glyph glyph-name="acutecomb" unicode="&#x301;" horiz-adv-x="0" 
d="M-465 619q78 41 147 132l48 -56q-77 -77 -173 -115z" />
    <glyph glyph-name="uni0302" unicode="&#x302;" horiz-adv-x="0" 
d="M-344 739h75q45 -89 110 -140l-28 -30q-74 43 -117 115h-4q-45 -72 -118 -115l-28 30q65 51 110 140z" />
    <glyph glyph-name="tildecomb" unicode="&#x303;" horiz-adv-x="0" 
d="M-208 587q-33 0 -69.5 34t-55.5 34q-22 0 -30 -17.5t1 -43.5l-70 3q13 53 38.5 83t59.5 30q26 0 48.5 -17t41.5 -34t36 -17q21 0 29 18t0 43l69 -4q-13 -53 -38.5 -82.5t-59.5 -29.5z" />
    <glyph glyph-name="uni0304" unicode="&#x304;" horiz-adv-x="0" 
d="M-399 644h256v-54h-256v54z" />
    <glyph glyph-name="uni0306" unicode="&#x306;" horiz-adv-x="0" 
d="M-340 574q-63 0 -90.5 38.5t-24.5 102.5h43q0 -40 18.5 -65t53.5 -25q34 0 53 25t19 65h43q3 -63 -25 -102t-90 -39z" />
    <glyph glyph-name="uni0307" unicode="&#x307;" horiz-adv-x="0" 
d="M-271 586q-52 0 -52 52q0 24 13.5 37.5t38.5 13.5q52 0 52 -51q0 -52 -52 -52z" />
    <glyph glyph-name="uni0308" unicode="&#x308;" horiz-adv-x="0" 
d="M-345 589q-20 0 -33.5 14t-13.5 34t13.5 33.5t33.5 13.5t33.5 -13.5t13.5 -33.5t-13.5 -34t-33.5 -14zM-197 589q-20 0 -33.5 14t-13.5 34t13.5 33.5t33.5 13.5t33.5 -13.5t13.5 -33.5t-13.5 -34t-33.5 -14z" />
    <glyph glyph-name="uni030A" unicode="&#x30a;" horiz-adv-x="0" 
d="M-271 574q-48 0 -77 24t-29 63t29 63t77 24t77.5 -24.5t29.5 -62.5t-29.5 -62.5t-77.5 -24.5zM-271 614q25 0 41 12.5t16 34.5t-16 34t-41 12t-41 -12t-16 -34t16 -34.5t41 -12.5z" />
    <glyph glyph-name="uni030B" unicode="&#x30b;" horiz-adv-x="0" 
d="M-364 588q57 76 86 171l54 -26q-32 -87 -99 -165zM-217 588q59 78 87 171l53 -26q-31 -86 -98 -165z" />
    <glyph glyph-name="uni030C" unicode="&#x30c;" horiz-adv-x="0" 
d="M-308 574q-43 85 -115 141l32 30q75 -45 118 -115h4q43 70 118 115l32 -30q-70 -54 -115 -141h-74z" />
    <glyph glyph-name="uni0312" unicode="&#x312;" horiz-adv-x="0" 
d="M-152 566q-23 0 -37.5 17t-14.5 46q0 80 83 117l16 -23q-50 -28 -55 -72q2 1 8 1q18 0 31 -11.5t13 -30.5t-12.5 -31.5t-31.5 -12.5z" />
    <glyph glyph-name="uni0326" unicode="&#x326;" horiz-adv-x="0" 
d="M-125 -56q49 0 49 -66q0 -80 -80 -116l-16 29q53 26 56 72q-3 -1 -9 -1q-15 0 -27 11t-12 29q0 20 11 31t28 11z" />
    <glyph glyph-name="uni0327" unicode="&#x327;" horiz-adv-x="0" 
d="M-357 -176q53 -6 81 6.5t28 35.5q0 44 -77 48l43 89h49l-28 -61q73 -17 73 -75q0 -43 -42 -66t-120 -24z" />
    <glyph glyph-name="uni0328" unicode="&#x328;" horiz-adv-x="0" 
d="M-300 -189q-37 0 -61 19.5t-24 58.5q0 37 26.5 69.5t68.5 49.5l47 -5q-38 -19 -61.5 -46.5t-23.5 -55.5q0 -42 38 -42q20 0 35 21l21 -46q-27 -23 -66 -23z" />
    <glyph glyph-name="uni0394" unicode="&#x394;" horiz-adv-x="562" 
d="M362 548l164 -481l-18 -67h-454l-19 67l164 481q28 80 24 109h114q-3 -29 25 -109zM279 586l-164 -516h329z" />
    <glyph glyph-name="uni03A9" unicode="&#x3a9;" horiz-adv-x="651" 
d="M472 67h71q40 0 56 10v-87q-16 10 -56 10h-176v67q64 21 109 101t45 193q0 108 -53.5 173.5t-141.5 65.5q-89 0 -142 -65.5t-53 -173.5q0 -113 44.5 -193t108.5 -101v-67h-176q-40 0 -56 -10v87q16 -10 56 -10h72q-59 44 -94 121.5t-35 172.5q0 140 75 224t200 84
t200 -84t75 -224q0 -95 -35 -172.5t-94 -121.5z" />
    <glyph glyph-name="uni03BC" unicode="&#x3bc;" horiz-adv-x="540" 
d="M469 0h-89q0 38 8 80h-8q-22 -42 -60.5 -67t-87.5 -25q-44 0 -80 25v-65q0 -72 15 -115h-107q16 45 16 115v421q0 77 -17 116h93v-346q0 -83 86 -83q39 0 78.5 28.5t65.5 79.5v205q0 76 -16 116h91v-369q0 -75 12 -116z" />
    <glyph glyph-name="pi" unicode="&#x3c0;" horiz-adv-x="516" 
d="M407 418h-5v-273q0 -89 41 -89q21 0 36 16l9 -78q-33 -6 -52 -6q-55 0 -82 34.5t-27 113.5v282h-136v-302q0 -74 15 -116h-107q15 42 15 116v302h-5q-67 0 -88 -15v89q24 -7 88 -7h298q66 0 88 7v-89q-20 15 -88 15z" />
    <glyph glyph-name="Wgrave" unicode="&#x1e80;" horiz-adv-x="796" 
d="M449 762l-17 -45q-100 29 -184 108l41 62q78 -88 160 -125zM676 657h103q-22 -40 -40 -125l-87 -416q-19 -84 -11 -116h-119q5 33 -15 116l-109 431l-107 -431q-21 -87 -15 -116h-118q7 36 -11 116l-90 416q-18 84 -40 125h108q-9 -32 7 -114l89 -450l116 457
q20 80 14 107h99q-8 -26 13 -107l117 -456l89 449q17 85 7 114z" />
    <glyph glyph-name="wgrave" unicode="&#x1e81;" horiz-adv-x="712" 
d="M410 618l-17 -45q-100 29 -184 108l41 62q78 -88 160 -125zM603 485h94q-25 -42 -45 -116l-68 -253q-20 -78 -20 -116h-112q1 40 -20 116l-74 267l-75 -267q-21 -74 -20 -116h-113q1 40 -20 116l-71 253q-27 88 -44 116h101q-4 -33 14 -101l78 -295l84 294q20 72 19 102
h99q-2 -29 18 -104l80 -291l81 294q18 69 14 101z" />
    <glyph glyph-name="Wacute" unicode="&#x1e82;" horiz-adv-x="796" 
d="M554 824q-77 -77 -173 -115l-22 39q78 41 147 132zM676 657h103q-22 -40 -40 -125l-87 -416q-19 -84 -11 -116h-119q5 33 -15 116l-109 431l-107 -431q-21 -87 -15 -116h-118q7 36 -11 116l-90 416q-18 84 -40 125h108q-9 -32 7 -114l89 -450l116 457q20 80 14 107h99
q-8 -26 13 -107l117 -456l89 449q17 85 7 114z" />
    <glyph glyph-name="wacute" unicode="&#x1e83;" horiz-adv-x="712" 
d="M515 680q-77 -77 -173 -115l-22 39q78 41 147 132zM603 485h94q-25 -42 -45 -116l-68 -253q-20 -78 -20 -116h-112q1 40 -20 116l-74 267l-75 -267q-21 -74 -20 -116h-113q1 40 -20 116l-71 253q-27 88 -44 116h101q-4 -33 14 -101l78 -295l84 294q20 72 19 102h99
q-2 -29 18 -104l80 -291l81 294q18 69 14 101z" />
    <glyph glyph-name="Wdieresis" unicode="&#x1e84;" horiz-adv-x="796" 
d="M326 718q-20 0 -33.5 14t-13.5 34t13.5 33.5t33.5 13.5t33.5 -13.5t13.5 -33.5t-13.5 -34t-33.5 -14zM474 718q-20 0 -33.5 14t-13.5 34t13.5 33.5t33.5 13.5t33.5 -13.5t13.5 -33.5t-13.5 -34t-33.5 -14zM676 657h103q-22 -40 -40 -125l-87 -416q-19 -84 -11 -116h-119
q5 33 -15 116l-109 431l-107 -431q-21 -87 -15 -116h-118q7 36 -11 116l-90 416q-18 84 -40 125h108q-9 -32 7 -114l89 -450l116 457q20 80 14 107h99q-8 -26 13 -107l117 -456l89 449q17 85 7 114z" />
    <glyph glyph-name="wdieresis" unicode="&#x1e85;" horiz-adv-x="712" 
d="M288 574q-20 0 -33.5 14t-13.5 34t13.5 33.5t33.5 13.5t33.5 -13.5t13.5 -33.5t-13.5 -34t-33.5 -14zM436 574q-20 0 -33.5 14t-13.5 34t13.5 33.5t33.5 13.5t33.5 -13.5t13.5 -33.5t-13.5 -34t-33.5 -14zM603 485h94q-25 -42 -45 -116l-68 -253q-20 -78 -20 -116h-112
q1 40 -20 116l-74 267l-75 -267q-21 -74 -20 -116h-113q1 40 -20 116l-71 253q-27 88 -44 116h101q-4 -33 14 -101l78 -295l84 294q20 72 19 102h99q-2 -29 18 -104l80 -291l81 294q18 69 14 101z" />
    <glyph glyph-name="uni1E9E" unicode="&#x1e9e;" horiz-adv-x="645" 
d="M93 116v300q0 124 58.5 188.5t161.5 64.5q79 0 131.5 -41.5t71.5 -105.5l-115 -160q99 -17 147.5 -66.5t48.5 -124.5q0 -80 -53 -131.5t-142 -51.5q-42 0 -102 19t-62 19l41 88q16 -30 49.5 -46t73.5 -16q54 0 85 32.5t31 85.5q0 125 -192 138v52l113 161q-9 32 -41.5 58
t-84.5 26q-66 0 -105 -46t-39 -143v-300q0 -82 15 -116h-106q15 34 15 116z" />
    <glyph glyph-name="Ygrave" unicode="&#x1ef2;" horiz-adv-x="510" 
d="M305 762l-17 -45q-100 29 -184 108l41 62q78 -88 160 -125zM429 532l-136 -276v-140q0 -77 15 -116h-107q15 39 15 116v140l-135 276q-3 5 -12 23.5t-11 22.5t-9 17.5t-10 18.5t-9 14t-10.5 15.5t-10.5 13.5h107q1 -35 34 -105l107 -231l107 231q32 65 34 105h102
q-25 -31 -71 -125z" />
    <glyph glyph-name="ygrave" unicode="&#x1ef3;" horiz-adv-x="479" 
d="M301 618l-17 -45q-100 29 -184 108l41 62q78 -88 160 -125zM96 -200q-11 0 -30.5 2.5t-29.5 2.5l20 87q16 -29 50 -29q69 0 106 108l10 29h-6l-156 387q-28 71 -51 98h108q-5 -33 14 -80l121 -316h3l104 316q17 48 10 80h101q-20 -26 -46 -98l-148 -428q-28 -79 -70 -119
t-110 -40z" />
    <glyph glyph-name="figuredash" unicode="&#x2012;" horiz-adv-x="497" 
d="M41 278h416v-53h-416v53z" />
    <glyph glyph-name="endash" unicode="&#x2013;" horiz-adv-x="480" 
d="M41 278h398v-53h-398v53z" />
    <glyph glyph-name="emdash" unicode="&#x2014;" horiz-adv-x="800" 
d="M41 278h718v-53h-718v53z" />
    <glyph glyph-name="quoteleft" unicode="&#x2018;" horiz-adv-x="241" 
d="M191 662q-74 -48 -74 -125q3 1 9 1q21 0 35.5 -13t14.5 -35q0 -24 -14 -38.5t-36 -14.5q-29 0 -45 23t-16 64q0 111 105 173z" />
    <glyph glyph-name="quoteright" unicode="&#x2019;" horiz-adv-x="230" 
d="M51 472q74 48 74 125q-3 -1 -8 -1q-21 0 -36 13t-15 35q0 25 14.5 39t36.5 14q28 0 44 -22.5t16 -64.5q0 -112 -105 -173z" />
    <glyph glyph-name="quotesinglbase" unicode="&#x201a;" horiz-adv-x="241" 
d="M51 -123q74 48 74 125q-3 -1 -8 -1q-21 0 -36 13t-15 35q0 25 14.5 39t36.5 14q28 0 44 -22.5t16 -64.5q0 -112 -105 -173z" />
    <glyph glyph-name="quotedblleft" unicode="&#x201c;" horiz-adv-x="404" 
d="M191 662q-73 -48 -73 -125q2 1 8 1q21 0 35.5 -13t14.5 -35q0 -24 -14 -38.5t-36 -14.5q-29 0 -45 23t-16 64q0 111 105 173zM354 662q-74 -48 -74 -125q3 1 9 1q21 0 35.5 -13t14.5 -35q0 -24 -14.5 -38.5t-36.5 -14.5q-28 0 -44 23t-16 64q0 112 105 173z" />
    <glyph glyph-name="quotedblright" unicode="&#x201d;" horiz-adv-x="404" 
d="M50 472q74 48 74 125q-3 -1 -9 -1q-21 0 -35.5 13t-14.5 35q0 25 14 39t37 14q28 0 44 -22.5t16 -64.5q0 -111 -105 -173zM213 472q73 49 73 125q-3 -1 -8 -1q-21 0 -36 13t-15 35q0 25 14.5 39t36.5 14q28 0 44.5 -23t16.5 -64q0 -111 -105 -173z" />
    <glyph glyph-name="quotedblbase" unicode="&#x201e;" horiz-adv-x="404" 
d="M51 -124q74 48 74 125q-3 -1 -8 -1q-21 0 -36 13t-15 35q0 25 14.5 39t36.5 14q28 0 44 -22.5t16 -64.5q0 -112 -105 -173zM214 -124q74 48 74 125q-3 -1 -9 -1q-21 0 -35.5 13t-14.5 35q0 25 14 39t37 14q28 0 44 -22.5t16 -64.5q0 -111 -105 -173z" />
    <glyph glyph-name="dagger" unicode="&#x2020;" horiz-adv-x="393" 
d="M154 669h84q-13 -17 -13 -79v-52h36q62 0 79 13v-79q-19 14 -79 14h-36v-175q0 -61 14 -80h-84q14 17 14 80v175h-37q-60 0 -79 -14v79q17 -13 79 -13h37v52q0 59 -15 79z" />
    <glyph glyph-name="daggerdbl" unicode="&#x2021;" horiz-adv-x="430" 
d="M261 499h-36v-96h36q62 0 79 14v-80q-20 15 -79 15h-36v-41q0 -61 14 -80h-84q14 17 14 80v41h-37q-59 0 -79 -15v80q17 -14 79 -14h37v96h-37q-58 0 -79 -14v79q17 -14 79 -14h37v40q0 59 -15 79h84q-13 -17 -13 -79v-40h36q62 0 79 14v-80q-20 15 -79 15z" />
    <glyph glyph-name="bullet" unicode="&#x2022;" horiz-adv-x="313" 
d="M156 159q-35 0 -69.5 35t-34.5 70q0 36 34.5 71.5t69.5 35.5t69.5 -35.5t34.5 -71.5q0 -35 -34.5 -70t-69.5 -35z" />
    <glyph glyph-name="ellipsis" unicode="&#x2026;" horiz-adv-x="718" 
d="M122 -12q-24 0 -40.5 16.5t-16.5 42.5q0 27 16.5 44t40.5 17t40.5 -17t16.5 -44q0 -26 -16.5 -42.5t-40.5 -16.5zM359 -12q-24 0 -40.5 16.5t-16.5 42.5q0 27 16.5 44t40.5 17t40.5 -17t16.5 -44q0 -26 -16.5 -42.5t-40.5 -16.5zM597 -12q-24 0 -41 16.5t-17 42.5
q0 27 17 44t41 17t40 -17t16 -44q0 -26 -16 -42.5t-40 -16.5z" />
    <glyph glyph-name="perthousand" unicode="&#x2030;" horiz-adv-x="1173" 
d="M554 668h61l-353 -680h-62zM183 271q-67 0 -107 53t-40 145q0 91 40 143.5t107 52.5t107.5 -52.5t40.5 -143.5q0 -92 -40.5 -145t-107.5 -53zM183 323q40 0 62.5 37t22.5 109q0 144 -85 144t-85 -144q0 -72 22.5 -109t62.5 -37zM632 -12q-67 0 -107 53t-40 145
q0 91 40 143.5t107 52.5t107.5 -52.5t40.5 -143.5q0 -92 -40.5 -145t-107.5 -53zM996 -12q-67 0 -107 53t-40 145q0 91 40 143.5t107 52.5t107.5 -52.5t40.5 -143.5q0 -92 -40.5 -145t-107.5 -53zM632 40q40 0 62.5 37t22.5 109q0 144 -85 144t-85 -144q0 -72 22.5 -109
t62.5 -37zM996 40q40 0 62.5 37t22.5 109q0 144 -85 144t-85 -144q0 -72 22.5 -109t62.5 -37z" />
    <glyph glyph-name="guilsinglleft" unicode="&#x2039;" horiz-adv-x="271" 
d="M220 100l-34 -30q-68 98 -140 145v75q74 48 140 144l34 -32q-53 -87 -123 -150q71 -65 123 -152z" />
    <glyph glyph-name="guilsinglright" unicode="&#x203a;" horiz-adv-x="271" 
d="M51 100q52 87 123 152q-70 63 -123 150l34 32q66 -96 140 -144v-75q-72 -47 -140 -145z" />
    <glyph glyph-name="fraction" unicode="&#x2044;" horiz-adv-x="86" 
d="M188 668h61l-353 -680h-61z" />
    <glyph glyph-name="uni2070" unicode="&#x2070;" 
d="M183 450q-67 0 -107 53t-40 145q0 91 40 143.5t107 52.5t107.5 -52.5t40.5 -143.5q0 -92 -40.5 -145t-107.5 -53zM183 502q40 0 62.5 37t22.5 109q0 144 -85 144t-85 -144q0 -72 22.5 -109t62.5 -37z" />
    <glyph glyph-name="uni2074" unicode="&#x2074;" 
d="M221 564h-178v39l166 232h66v-225q41 0 58 14v-60h-58v-18q0 -43 3 -58.5t14 -25.5h-89q11 10 14.5 26t3.5 58v18zM221 610v168l-121 -168h121z" />
    <glyph glyph-name="uni2075" unicode="&#x2075;" 
d="M181 450q-41 0 -83.5 20.5t-56.5 22.5l36 64q34 -59 104 -59q36 0 58.5 20t22.5 56q0 35 -23.5 55.5t-60.5 20.5q-41 0 -76 -20l-30 11l19 194h137q54 0 73 11v-78q-18 14 -73 14h-91l-9 -96q24 11 61 11q54 0 93 -34t39 -89q0 -58 -39 -91t-101 -33z" />
    <glyph glyph-name="uni2076" unicode="&#x2076;" 
d="M193 450q-67 0 -107 50t-40 137q0 101 47 155.5t115 54.5q20 0 48.5 -6t39.5 -5l-20 -66q-21 29 -68 29q-40 0 -70 -35.5t-35 -98.5q40 42 95 42q59 0 92.5 -33.5t33.5 -92.5q0 -58 -37 -94.5t-94 -36.5zM198 659q-58 0 -94 -49q4 -53 27.5 -82.5t60.5 -29.5q34 0 55 23
t21 60q0 35 -20 56.5t-50 21.5z" />
    <glyph glyph-name="uni2077" unicode="&#x2077;" 
d="M133 462q6 105 33 176.5t92 145.5h-127q-63 0 -84 -18v78q24 -9 84 -9h193v-46q-73 -81 -100 -151.5t-29 -175.5h-62z" />
    <glyph glyph-name="uni2078" unicode="&#x2078;" 
d="M182 450q-61 0 -98.5 31t-37.5 79q0 31 22 58t53 41v4q-59 27 -59 85q0 43 34.5 71t85.5 28q53 0 88 -27.5t35 -71.5q0 -30 -18.5 -54t-42.5 -36v-4q34 -12 54 -37t20 -57q0 -48 -38.5 -79t-97.5 -31zM204 675q45 31 45 73q0 22 -19.5 37.5t-47.5 15.5q-27 0 -46 -15.5
t-19 -37.5q0 -49 87 -73zM182 494q35 0 57.5 18.5t22.5 47.5q0 30 -26 46.5t-77 32.5q-57 -32 -57 -79q0 -28 22.5 -47t57.5 -19z" />
    <glyph glyph-name="uni2079" unicode="&#x2079;" 
d="M173 847q67 0 107 -50.5t40 -137.5q0 -100 -47 -154.5t-115 -54.5q-20 0 -48.5 5.5t-39.5 4.5l20 66q22 -28 68 -28q40 0 70.5 36t34.5 98q-40 -42 -95 -42q-59 0 -92.5 33.5t-33.5 91.5q0 59 37 95.5t94 36.5zM168 638q57 0 94 48q-4 53 -27.5 83t-60.5 30
q-34 0 -55 -23.5t-21 -59.5q0 -35 20 -56.5t50 -21.5z" />
    <glyph glyph-name="uni2080" unicode="&#x2080;" 
d="M183 -200q-67 0 -107 53t-40 145q0 91 40 143.5t107 52.5t107.5 -52.5t40.5 -143.5q0 -92 -40.5 -145t-107.5 -53zM183 -148q40 0 62.5 37t22.5 109q0 144 -85 144t-85 -144q0 -72 22.5 -109t62.5 -37z" />
    <glyph glyph-name="uni2081" unicode="&#x2081;" 
d="M173 109h-85v46q92 0 144 36v-323l84 -14v-42h-232v42l89 14v241z" />
    <glyph glyph-name="uni2082" unicode="&#x2082;" 
d="M48 -142q98 69 143.5 117t45.5 94q0 34 -18.5 54.5t-49.5 20.5q-62 0 -92 -58l-37 62q13 2 53.5 24t75.5 22q59 0 95 -34t36 -91q0 -95 -156 -206h90q62 0 84 18v-69h-270v46z" />
    <glyph glyph-name="uni2083" unicode="&#x2083;" 
d="M182 -200q-40 0 -85.5 21.5t-56.5 23.5l41 65q31 -62 101 -62q32 0 54 16t22 43q0 71 -129 71v48q54 0 83.5 17.5t29.5 47.5q0 25 -18 40t-47 15q-47 0 -86 -48l-31 61q3 1 45 18t72 17q55 0 89.5 -26.5t34.5 -76.5q0 -65 -78 -86q42 -6 68 -31t26 -67q0 -49 -38.5 -78
t-96.5 -29z" />
    <glyph glyph-name="uni2084" unicode="&#x2084;" 
d="M221 -86h-178v39l166 232h66v-225q41 0 58 14v-60h-58v-18q0 -43 3 -58.5t14 -25.5h-89q11 10 14.5 26t3.5 58v18zM221 -40v168l-121 -168h121z" />
    <glyph glyph-name="uni2085" unicode="&#x2085;" 
d="M181 -192q-41 0 -83.5 20.5t-56.5 22.5l36 64q34 -59 104 -59q36 0 58.5 20t22.5 56q0 35 -23.5 55.5t-60.5 20.5q-41 0 -76 -20l-30 10l19 195h137q54 0 73 11v-78q-18 14 -73 14h-91l-9 -96q24 11 61 11q54 0 93 -34t39 -89q0 -58 -39 -91t-101 -33z" />
    <glyph glyph-name="uni2086" unicode="&#x2086;" 
d="M193 -200q-67 0 -107 50t-40 137q0 101 47 155.5t115 54.5q20 0 48.5 -6t39.5 -5l-20 -66q-21 29 -68 29q-40 0 -70 -35.5t-35 -98.5q40 42 95 42q59 0 92.5 -33.5t33.5 -92.5q0 -58 -37 -94.5t-94 -36.5zM198 9q-58 0 -94 -49q4 -53 27.5 -82.5t60.5 -29.5q34 0 55 23
t21 60q0 35 -20 56.5t-50 21.5z" />
    <glyph glyph-name="uni2087" unicode="&#x2087;" 
d="M133 -188q6 105 33 176.5t92 145.5h-127q-63 0 -84 -18v78q24 -9 84 -9h193v-46q-73 -81 -100 -151.5t-29 -175.5h-62z" />
    <glyph glyph-name="uni2088" unicode="&#x2088;" 
d="M182 -200q-61 0 -98.5 31t-37.5 79q0 31 22 58t53 41v4q-59 27 -59 85q0 43 34.5 71t85.5 28q53 0 88 -27.5t35 -71.5q0 -30 -18.5 -54t-42.5 -36v-4q34 -12 54 -37t20 -57q0 -48 -38.5 -79t-97.5 -31zM204 25q45 31 45 73q0 22 -19.5 37.5t-47.5 15.5q-27 0 -46 -15.5
t-19 -37.5q0 -49 87 -73zM182 -156q35 0 57.5 18.5t22.5 47.5q0 30 -26 46.5t-77 32.5q-57 -32 -57 -79q0 -28 22.5 -47t57.5 -19z" />
    <glyph glyph-name="uni2089" unicode="&#x2089;" 
d="M173 197q67 0 107 -50.5t40 -137.5q0 -100 -47 -154.5t-115 -54.5q-20 0 -48.5 5.5t-39.5 4.5l20 66q22 -28 68 -28q40 0 70.5 36t34.5 98q-39 -42 -95 -42q-59 0 -92.5 33.5t-33.5 91.5q0 59 37 95.5t94 36.5zM168 -12q57 0 94 48q-4 53 -27.5 83t-60.5 30
q-34 0 -55 -23.5t-21 -59.5q0 -35 20 -56.5t50 -21.5z" />
    <glyph glyph-name="Euro" unicode="&#x20ac;" horiz-adv-x="505" 
d="M449 99l26 -92q-19 1 -69 -9t-86 -10q-200 0 -233 229h-9q-40 0 -56 -10v73h60q-1 9 -1 30.5t1 28.5h-60v73q16 -10 56 -10h10q17 116 76.5 170t146.5 54q45 0 95.5 -11t61.5 -12l-26 -89q-24 45 -130 45q-53 0 -91.5 -38t-52.5 -119h142q40 0 56 10v-73h-205
q-1 -7 -1 -29t1 -30h205v-73q-16 10 -56 10h-142q14 -84 54.5 -123t99.5 -39q100 0 127 44z" />
    <glyph glyph-name="trademark" unicode="&#x2122;" horiz-adv-x="709" 
d="M116 669h84q48 0 63 5v-62q-15 9 -63 9h-17v-156q0 -45 10 -69h-70q10 24 10 69v156h-17q-48 0 -62 -9v62q14 -5 62 -5zM608 600v-135q0 -45 10 -69h-69q9 25 9 69v124l-100 -167l-103 169l1 -126q0 -45 10 -69h-69q9 26 9 69v135q0 41 -9 69h66l95 -162l95 162h65
q-10 -31 -10 -69z" />
    <glyph glyph-name="uni2150" unicode="&#x2150;" horiz-adv-x="856" 
d="M574 668h61l-353 -680h-61zM173 580h-85v46q92 0 144 36v-323l84 -14v-42h-232v42l89 14v241zM623 0q6 105 33 176.5t92 145.5h-127q-64 0 -83 -18v78q23 -9 83 -9h193v-46q-72 -80 -99 -150.5t-30 -176.5h-62z" />
    <glyph glyph-name="uni2151" unicode="&#x2151;" horiz-adv-x="828" 
d="M578 668h61l-354 -680h-61zM173 580h-85v46q92 0 144 36v-323l84 -14v-42h-232v42l89 14v241zM635 385q67 0 107 -50.5t40 -137.5q0 -100 -47 -154.5t-115 -54.5q-21 0 -49 5.5t-39 4.5l20 66q20 -28 68 -28q40 0 70 35.5t35 98.5q-40 -42 -95 -42q-59 0 -93 33.5
t-34 91.5q0 59 37.5 95.5t94.5 36.5zM630 176q57 0 94 48q-4 53 -27.5 83t-60.5 30q-34 0 -55.5 -23.5t-21.5 -59.5q0 -35 20.5 -56.5t50.5 -21.5z" />
    <glyph glyph-name="uni2152" unicode="&#x2152;" horiz-adv-x="1134" 
d="M585 668h61l-353 -680h-61zM173 580h-85v46q92 0 144 36v-323l84 -14v-42h-232v42l89 14v241zM952 -12q-67 0 -107.5 53t-40.5 145q0 91 40.5 143.5t107.5 52.5t107 -52.5t40 -143.5q0 -92 -40 -145t-107 -53zM626 297h-85v46q92 0 144 36v-323l84 -14v-42h-232v42l89 14
v241zM952 40q40 0 62 37t22 109q0 71 -22 107.5t-62 36.5q-86 0 -86 -144q0 -72 22.5 -109t63.5 -37z" />
    <glyph glyph-name="uni2153" unicode="&#x2153;" horiz-adv-x="825" 
d="M573 668h61l-354 -680h-61zM173 580h-85v46q92 0 144 36v-323l84 -14v-42h-232v42l89 14v241zM641 -12q-40 0 -85.5 21.5t-56.5 23.5l41 65q31 -62 101 -62q32 0 53.5 16t21.5 43q0 71 -128 71v48q54 0 83.5 17.5t29.5 47.5q0 25 -18 40t-47 15q-48 0 -86 -48l-31 61
q3 1 45 18t72 17q55 0 89.5 -26.5t34.5 -76.5q0 -65 -78 -86q42 -6 68 -31t26 -67q0 -49 -39 -78t-96 -29z" />
    <glyph glyph-name="uni2154" unicode="&#x2154;" horiz-adv-x="824" 
d="M577 668h61l-353 -680h-61zM48 329q98 69 143.5 117t45.5 94q0 34 -18.5 54.5t-49.5 20.5q-62 0 -92 -58l-37 62q13 2 53.5 24t75.5 22q59 0 95 -34t36 -91q0 -95 -156 -206h90q62 0 84 18v-69h-270v46zM640 -12q-40 0 -86 21.5t-56 23.5l40 65q33 -62 102 -62
q32 0 53.5 16t21.5 43q0 71 -128 71v48q54 0 83.5 17.5t29.5 47.5q0 25 -18 40t-47 15q-48 0 -87 -48l-31 61q3 1 45.5 18t72.5 17q55 0 89 -26.5t34 -76.5q0 -66 -78 -86q43 -6 68.5 -30.5t25.5 -67.5q0 -49 -38.5 -78t-95.5 -29z" />
    <glyph glyph-name="uni2155" unicode="&#x2155;" horiz-adv-x="824" 
d="M583 668h61l-353 -680h-62zM173 580h-85v46q92 0 144 36v-323l84 -14v-42h-232v42l89 14v241zM638 -12q-41 0 -83 20.5t-56 22.5l35 64q34 -59 105 -59q35 0 57.5 20t22.5 56q0 35 -23 55.5t-60 20.5q-40 0 -77 -20l-29 11l18 194h137q55 0 73 11v-78q-17 14 -73 14h-91
l-9 -96q25 11 62 11q54 0 93 -34.5t39 -88.5q0 -58 -39.5 -91t-101.5 -33z" />
    <glyph glyph-name="uni2156" unicode="&#x2156;" horiz-adv-x="822" 
d="M585 668h61l-353 -680h-61zM48 329q98 69 143.5 117t45.5 94q0 34 -18.5 54.5t-49.5 20.5q-62 0 -92 -58l-37 62q13 2 53.5 24t75.5 22q59 0 95 -34t36 -91q0 -95 -156 -206h90q62 0 84 18v-69h-270v46zM637 -12q-41 0 -83 20.5t-56 22.5l35 64q34 -59 105 -59
q35 0 57.5 20t22.5 56q0 35 -23.5 55.5t-60.5 20.5q-41 0 -76 -20l-29 11l18 194h137q55 0 73 11v-78q-17 14 -73 14h-91l-9 -96q25 11 62 11q54 0 93 -34.5t39 -88.5q0 -58 -39.5 -91t-101.5 -33z" />
    <glyph glyph-name="uni2157" unicode="&#x2157;" horiz-adv-x="819" 
d="M569 668h61l-354 -680h-61zM182 271q-40 0 -85.5 21.5t-56.5 23.5l41 65q31 -62 101 -62q32 0 54 16t22 43q0 71 -129 71v48q54 0 83.5 17.5t29.5 47.5q0 25 -18 40t-47 15q-47 0 -86 -48l-31 61q3 1 45 18t72 17q55 0 89.5 -26.5t34.5 -76.5q0 -65 -78 -86q42 -6 68 -31
t26 -67q0 -49 -38.5 -78t-96.5 -29zM634 -12q-41 0 -83 20.5t-56 22.5l35 64q34 -59 105 -59q35 0 57.5 20t22.5 56q0 35 -23.5 55.5t-60.5 20.5q-41 0 -76 -20l-29 11l18 194h137q55 0 73 11v-78q-17 14 -73 14h-91l-9 -96q25 11 62 11q54 0 93 -34.5t39 -88.5
q0 -58 -39.5 -91t-101.5 -33z" />
    <glyph glyph-name="uni2158" unicode="&#x2158;" horiz-adv-x="821" 
d="M576 668h61l-353 -680h-61zM221 385h-178v39l166 232h66v-225q41 0 58 14v-60h-58v-18q0 -43 3 -58.5t14 -25.5h-89q11 10 14.5 26t3.5 58v18zM221 431v168l-121 -168h121zM636 -12q-41 0 -83.5 20.5t-56.5 22.5l36 64q33 -59 104 -59q36 0 58.5 20t22.5 56
q0 35 -23.5 55.5t-60.5 20.5q-41 0 -76 -20l-30 11l18 194h137q55 0 74 11v-78q-18 14 -74 14h-90l-10 -96q25 11 62 11q54 0 93 -34t39 -89q0 -58 -39.5 -91t-100.5 -33z" />
    <glyph glyph-name="uni2159" unicode="&#x2159;" horiz-adv-x="823" 
d="M587 668h61l-353 -680h-61zM173 580h-85v46q92 0 144 36v-323l84 -14v-42h-232v42l89 14v241zM649 -12q-66 0 -106 50.5t-40 136.5q0 100 46.5 155t114.5 55q21 0 49 -6t39 -5l-20 -66q-20 29 -68 29q-39 0 -69.5 -36t-35.5 -98q42 42 96 42q59 0 92.5 -33.5t33.5 -92.5
q0 -58 -37.5 -94.5t-94.5 -36.5zM654 197q-58 0 -94 -49q4 -53 27.5 -82.5t60.5 -29.5q34 0 55.5 23t21.5 60q0 35 -20.5 56.5t-50.5 21.5z" />
    <glyph glyph-name="uni215A" unicode="&#x215a;" horiz-adv-x="819" 
d="M570 668h61l-353 -680h-61zM181 271q-41 0 -83.5 20.5t-56.5 22.5l36 64q34 -59 104 -59q36 0 58.5 20t22.5 56q0 35 -23.5 55.5t-60.5 20.5q-41 0 -76 -20l-30 11l19 194h137q54 0 73 11v-78q-18 14 -73 14h-91l-9 -96q24 11 61 11q54 0 93 -34t39 -89q0 -58 -39 -91
t-101 -33zM646 -12q-67 0 -107 50t-40 137q0 100 47 155t115 55q21 0 49 -6t39 -5l-20 -66q-20 29 -68 29q-40 0 -70 -35.5t-35 -98.5q42 42 95 42q59 0 93 -33.5t34 -92.5q0 -58 -37.5 -94.5t-94.5 -36.5zM651 197q-58 0 -94 -49q4 -53 27.5 -82.5t60.5 -29.5q34 0 55.5 23
t21.5 60q0 35 -20.5 56.5t-50.5 21.5z" />
    <glyph glyph-name="oneeighth" unicode="&#x215b;" horiz-adv-x="822" 
d="M585 668h61l-354 -680h-61zM173 580h-85v46q92 0 144 36v-323l84 -14v-42h-232v42l89 14v241zM638 -12q-61 0 -98.5 31t-37.5 79q0 31 22 58t54 41v4q-60 27 -60 85q0 43 35 71t85 28q53 0 88 -27.5t35 -71.5q0 -30 -18.5 -54t-42.5 -36v-4q35 -12 54.5 -37t19.5 -57
q0 -48 -38.5 -79t-97.5 -31zM660 213q45 31 45 73q0 22 -19.5 37.5t-47.5 15.5q-27 0 -46 -15.5t-19 -37.5q0 -49 87 -73zM638 32q35 0 58 18.5t23 47.5q0 30 -26 46.5t-77 32.5q-58 -32 -58 -79q0 -28 22.5 -47t57.5 -19z" />
    <glyph glyph-name="threeeighths" unicode="&#x215c;" horiz-adv-x="821" 
d="M570 668h61l-353 -680h-61zM182 271q-40 0 -85.5 21.5t-56.5 23.5l41 65q31 -62 101 -62q32 0 54 16t22 43q0 71 -129 71v48q54 0 83.5 17.5t29.5 47.5q0 25 -18 40t-47 15q-47 0 -86 -48l-31 61q3 1 45 18t72 17q55 0 89.5 -26.5t34.5 -76.5q0 -65 -78 -86q42 -6 68 -31
t26 -67q0 -49 -38.5 -78t-96.5 -29zM636 -12q-60 0 -97.5 31t-37.5 79q0 31 22 58t53 41v4q-59 27 -59 85q0 43 34.5 71t84.5 28q53 0 88.5 -27.5t35.5 -71.5q0 -30 -18.5 -54t-42.5 -36v-4q34 -12 54 -37t20 -57q0 -48 -39 -79t-98 -31zM659 213q45 32 45 73
q0 22 -19.5 37.5t-48.5 15.5q-26 0 -45 -15.5t-19 -37.5q0 -49 87 -73zM636 32q36 0 58.5 18.5t22.5 47.5q0 30 -26 46.5t-77 32.5q-57 -31 -57 -79q0 -28 22 -47t57 -19z" />
    <glyph glyph-name="fiveeighths" unicode="&#x215d;" horiz-adv-x="821" 
d="M575 668h61l-353 -680h-62zM181 271q-41 0 -83.5 20.5t-56.5 22.5l36 64q34 -59 104 -59q36 0 58.5 20t22.5 56q0 35 -23.5 55.5t-60.5 20.5q-41 0 -76 -20l-30 11l19 194h137q54 0 73 11v-78q-18 14 -73 14h-91l-9 -96q24 11 61 11q54 0 93 -34t39 -89q0 -58 -39 -91
t-101 -33zM637 -12q-60 0 -98 31t-38 79q0 31 22 58t54 41v4q-59 27 -59 85q0 43 34.5 71t84.5 28q53 0 88.5 -27.5t35.5 -71.5q0 -30 -18.5 -54t-43.5 -36v-4q35 -12 55 -37t20 -57q0 -48 -39 -79t-98 -31zM660 213q45 32 45 73q0 22 -19.5 37.5t-48.5 15.5
q-26 0 -45 -15.5t-19 -37.5q0 -50 87 -73zM637 32q35 0 58 18.5t23 47.5q0 30 -26 46.5t-77 32.5q-58 -32 -58 -79q0 -28 22.5 -47t57.5 -19z" />
    <glyph glyph-name="seveneighths" unicode="&#x215e;" horiz-adv-x="792" 
d="M526 668h61l-353 -680h-61zM133 283q6 105 33 176.5t92 145.5h-127q-63 0 -84 -18v78q24 -9 84 -9h193v-46q-73 -81 -100 -151.5t-29 -175.5h-62zM608 -12q-61 0 -98.5 31t-37.5 79q0 31 22 58t54 41v4q-60 27 -60 85q0 43 35 71t85 28q53 0 88 -27.5t35 -71.5
q0 -30 -18.5 -54t-42.5 -36v-4q35 -12 54.5 -37t19.5 -57q0 -48 -38.5 -79t-97.5 -31zM630 213q45 31 45 73q0 22 -19.5 37.5t-47.5 15.5q-27 0 -46 -15.5t-19 -37.5q0 -49 87 -73zM608 32q35 0 58 18.5t23 47.5q0 30 -26 46.5t-77 32.5q-58 -32 -58 -79q0 -28 22.5 -47
t57.5 -19z" />
    <glyph glyph-name="uni2189" unicode="&#x2189;" horiz-adv-x="818" 
d="M562 668h61l-353 -680h-62zM183 271q-67 0 -107 53t-40 145q0 91 40 143.5t107 52.5t107.5 -52.5t40.5 -143.5q0 -92 -40.5 -145t-107.5 -53zM183 323q40 0 62.5 37t22.5 109q0 144 -85 144t-85 -144q0 -72 22.5 -109t62.5 -37zM634 -12q-40 0 -85.5 21.5t-56.5 23.5
l41 65q31 -62 101 -62q32 0 54 16t22 43q0 71 -129 71v48q55 0 84 17.5t29 47.5q0 25 -18 40t-47 15q-47 0 -86 -48l-31 61q3 1 45 18t72 17q55 0 89.5 -26.5t34.5 -76.5q0 -65 -78 -86q42 -6 68 -31t26 -67q0 -49 -38.5 -78t-96.5 -29z" />
    <glyph glyph-name="arrowleft" unicode="&#x2190;" horiz-adv-x="863" 
d="M787 350v-75l-581 1v-72q-63 71 -151 109q91 41 151 110v-73h581z" />
    <glyph glyph-name="arrowup" unicode="&#x2191;" horiz-adv-x="313" 
d="M266 581h-72v-581h-75v581h-71q71 64 109 151q37 -87 109 -151z" />
    <glyph glyph-name="arrowright" unicode="&#x2192;" horiz-adv-x="865" 
d="M658 424q63 -70 151 -110q-88 -38 -151 -109v72l-581 -1v75l581 1v72z" />
    <glyph glyph-name="arrowdown" unicode="&#x2193;" horiz-adv-x="310" 
d="M192 148h72q-71 -63 -109 -151q-38 88 -109 151h71v580h75v-580z" />
    <glyph glyph-name="arrowboth" unicode="&#x2194;" horiz-adv-x="868" 
d="M661 204v71l-456 1v-72q-63 71 -151 109q88 40 151 110v-71l456 -1v72q61 -70 151 -110q-89 -38 -151 -109z" />
    <glyph glyph-name="arrowupdn" unicode="&#x2195;" horiz-adv-x="325" 
d="M272 583h-72v-454h72q-70 -63 -109 -152q-41 90 -110 152h72v454h-72q70 63 110 151q38 -88 109 -151z" />
    <glyph glyph-name="uni2196" unicode="&#x2196;" horiz-adv-x="644" 
d="M600 83l-53 -53l-411 411l-51 -51q6 94 -29 184q91 -35 184 -29l-50 -51z" />
    <glyph glyph-name="uni2197" unicode="&#x2197;" horiz-adv-x="644" 
d="M587 573q-36 -94 -29 -184l-51 51l-411 -411l-53 53l411 411l-51 51q93 -6 184 29z" />
    <glyph glyph-name="uni2198" unicode="&#x2198;" horiz-adv-x="644" 
d="M558 215q-7 -90 29 -184q-93 36 -184 30l51 51l-411 411l53 53l411 -411z" />
    <glyph glyph-name="uni2199" unicode="&#x2199;" horiz-adv-x="644" 
d="M601 523l-410 -411l50 -51q-93 6 -184 -30q35 91 29 184l51 -50l411 411z" />
    <glyph glyph-name="partialdiff" unicode="&#x2202;" horiz-adv-x="521" 
d="M259 -12q-92 0 -153.5 58.5t-61.5 174.5q0 101 58.5 163t146.5 62q92 0 141 -64q-32 140 -165 238q-47 37 -93 40l35 72q147 -75 226 -196t79 -280q0 -130 -57.5 -199t-155.5 -69zM116 221q0 -86 40.5 -128t103.5 -42q81 0 116.5 70.5t21.5 168.5q-21 43 -61.5 69
t-76.5 26q-68 0 -106 -45t-38 -119z" />
    <glyph glyph-name="emptyset" unicode="&#x2205;" horiz-adv-x="493" 
d="M465 429q-28 -12 -57 -39q32 -50 32 -111q0 -86 -55.5 -139.5t-138.5 -53.5q-61 0 -109 31q-30 -33 -42 -58l-68 70q23 8 58 39q-32 50 -32 111q0 85 55.5 139t137.5 54q62 0 110 -31q29 32 40 58zM246 403q-54 0 -85.5 -33t-31.5 -91q0 -33 10 -57l167 167
q-26 14 -60 14zM246 155q54 0 85.5 33t31.5 91q0 33 -10 56l-166 -167q28 -13 59 -13z" />
    <glyph glyph-name="product" unicode="&#x220f;" horiz-adv-x="534" 
d="M414 590h-9v-582q0 -72 15 -115h-107q15 43 15 115v582h-133v-582q0 -72 15 -115h-107q15 39 15 115v582h-9q-53 0 -79 -15v88q31 -6 79 -6h305q58 0 90 6v-88q-26 15 -90 15z" />
    <glyph glyph-name="summation" unicode="&#x2211;" horiz-adv-x="485" 
d="M458 570q-36 20 -137 20h-171l203 -315l-203 -315h171q101 0 137 20v-95q-33 8 -137 8h-280l-1 62q40 25 89 100l141 220l-141 220q-49 75 -89 100l1 62h280q104 0 137 8v-95z" />
    <glyph glyph-name="minus" unicode="&#x2212;" horiz-adv-x="432" 
d="M40 335q17 -10 62 -10h228q45 0 62 10v-91q-19 10 -62 10h-228q-45 0 -62 -10v91z" />
    <glyph glyph-name="radical" unicode="&#x221a;" horiz-adv-x="544" 
d="M580 657q85 0 118 8v-95q-36 20 -118 20h-72l-180 -544q-33 -102 -37 -163h-118q-3 58 -38 163l-54 162q-2 6 -7.5 22t-7.5 21.5t-6.5 18.5t-6.5 18t-6 15.5t-6.5 16t-6.5 13t-8 13.5l-8 12h111q-6 -31 24 -130l78 -258h7l214 687h128z" />
    <glyph glyph-name="infinity" unicode="&#x221e;" horiz-adv-x="767" 
d="M554 476q79 0 129 -49.5t50 -132.5q0 -80 -47 -131t-128 -51q-55 0 -102.5 30.5t-71.5 77.5q-27 -49 -73.5 -78.5t-97.5 -29.5q-79 0 -128.5 49t-49.5 133q0 81 47 131.5t128 50.5q55 0 102 -30t72 -77q26 49 72.5 78t97.5 29zM213 182q43 0 80.5 30t57.5 66
q-20 56 -59.5 92t-81.5 36q-45 0 -72.5 -32t-27.5 -80q0 -49 29 -80.5t74 -31.5zM558 182q45 0 72 32t27 80q0 49 -29 80.5t-74 31.5q-44 0 -81 -29.5t-56 -65.5q21 -57 59.5 -93t81.5 -36z" />
    <glyph glyph-name="integral" unicode="&#x222b;" horiz-adv-x="319" 
d="M275 674q11 0 29.5 -2t30.5 -2l-8 -82q-25 20 -60 20q-24 0 -36 -25t-16 -88l-36 -445q-8 -92 -39 -135.5t-96 -43.5q-11 0 -29.5 2t-30.5 2l8 83q24 -21 60 -21q24 0 35.5 25t16.5 88l36 445q7 92 38.5 135.5t96.5 43.5z" />
    <glyph glyph-name="approxequal" unicode="&#x2248;" horiz-adv-x="436" 
d="M293 290q-38 0 -82.5 28t-63.5 28q-34 0 -34 -55h-73q0 64 29 98t73 34q38 0 83 -28t64 -28q34 0 34 54h73q0 -64 -29.5 -97.5t-73.5 -33.5zM293 118q-38 0 -82.5 28t-63.5 28q-34 0 -34 -55h-73q0 64 29 98t73 34q38 0 83 -28.5t64 -28.5q34 0 34 55l73 -1
q0 -63 -29.5 -96.5t-73.5 -33.5z" />
    <glyph glyph-name="notequal" unicode="&#x2260;" horiz-adv-x="432" 
d="M330 331h-61l-38 -83h99q45 0 62 10v-91q-19 10 -62 10h-132l-33 -70l-56 26l21 44h-28q-45 0 -62 -10v91q17 -10 62 -10h61l38 83h-99q-47 0 -62 -10v92q17 -11 62 -11h132l33 70l56 -25l-21 -45h28q46 0 62 11v-92q-16 10 -62 10z" />
    <glyph glyph-name="lessequal" unicode="&#x2264;" horiz-adv-x="409" 
d="M317 275q36 -13 52 -12l-30 -83q-9 14 -53 32l-245 95v71l246 95q42 17 52 31l30 -83q-18 1 -52 -12l-177 -66zM102 132h200q46 0 62 11v-92q-15 10 -62 10h-200q-46 0 -61 -10v92q17 -11 61 -11z" />
    <glyph glyph-name="greaterequal" unicode="&#x2265;" horiz-adv-x="409" 
d="M41 263q16 -1 52 12l177 68l-177 66q-34 13 -52 12l30 83q10 -14 52 -31l246 -95v-71l-245 -95q-44 -18 -53 -32zM308 132q44 0 61 11v-92q-15 10 -61 10h-200q-47 0 -62 -10v92q16 -11 62 -11h200z" />
    <glyph glyph-name="lozenge" unicode="&#x25ca;" horiz-adv-x="514" 
d="M294 560l171 -279l-171 -281h-73l-172 281l172 279h73zM257 63l132 218l-132 217l-131 -217z" />
    <glyph glyph-name="uni261A" unicode="&#x261a;" horiz-adv-x="1502" 
d="M617 -15q-23 14 -46 47t-23 43q0 17 14.5 54t32.5 69q-2 5 -7.5 8.5t-9.5 2.5q-21 -27 -38 -62t-17 -46q0 -8 15.5 -49t20.5 -48q-45 -11 -59 19q-5 11 -19 36.5t-21.5 42.5t-7.5 26q0 16 19.5 58.5t48.5 79.5q-12 15 -17 15q-25 -30 -47.5 -69t-22.5 -47q0 -7 5.5 -38
t7.5 -38q-21 -8 -32 -1.5t-23 34.5l-24 55q-8 19 1 39q29 65 95 132q-7 9 -14 9q-3 0 -16.5 -11t-20.5 -20q-54 0 -95 6t-42 6q-33 -10 -83 -17t-80 -4q-43 4 -51 38q-5 21 7 26q62 19 171 38.5t191 27.5q14 1 42.5 9.5t42.5 8.5q57 0 198.5 -27.5t205.5 -27.5q18 0 56 5
t59 4q28 -1 51.5 -62.5t23.5 -126.5q0 -39 -9 -64.5t-24 -25.5q-8 0 -54.5 7.5t-63.5 7.5q-23 0 -98 -40t-112 -41q-32 0 -69 39q-4 -14 -18 -28.5t-29 -21.5q12 -6 18 -21q30 24 51 24t21 -16q0 -26 -79 -65q-5 -2 -13.5 -2t-12.5 2zM1097 33q35 17 55 74t20 138
q0 63 -21 121.5t-54 65.5h257q28 0 50.5 -31.5t33 -73.5t10.5 -82q0 -81 -28.5 -146.5t-79.5 -65.5h-243zM1259 72q11 0 18.5 8t7.5 19t-7.5 18.5t-18.5 7.5q-10 0 -17.5 -8t-7.5 -18q0 -11 7.5 -19t17.5 -8z" />
    <glyph glyph-name="uni261B" unicode="&#x261b;" horiz-adv-x="1471" 
d="M863 -15q-79 39 -79 65q0 16 21 16t51 -24q6 15 18 21q-15 7 -29 21.5t-18 28.5q-37 -39 -69 -39q-37 1 -112 41t-98 40q-17 0 -63.5 -7.5t-54.5 -7.5q-15 0 -24 25.5t-9 64.5q0 65 23.5 126.5t51.5 62.5q21 1 59 -4t56 -5q64 0 205.5 27.5t198.5 27.5q14 0 42.5 -8.5
t42.5 -9.5q82 -8 191 -27.5t171 -38.5q12 -4 7 -25q-7 -32 -45 -38l-6 -1q-30 -3 -80 4t-83 17q-1 0 -42 -6t-95 -6q-7 9 -20.5 20t-16.5 11q-7 0 -14 -9q66 -67 95 -132q9 -20 1 -39l-24 -55q-12 -28 -23 -34.5t-32 1.5q2 7 7.5 38t5.5 38q0 8 -22.5 47t-47.5 69
q-4 0 -17 -15q29 -37 48.5 -79.5t19.5 -58.5q0 -9 -7.5 -26t-21.5 -42.5t-19 -36.5q-14 -30 -59 -19q5 7 20.5 48t15.5 49q0 11 -17 46t-38 62q-4 1 -9.5 -2.5t-7.5 -8.5q18 -32 32.5 -69t14.5 -54q0 -10 -23 -43t-46 -47q-4 -2 -12.5 -2t-13.5 2zM166 33q-51 0 -79.5 65.5
t-28.5 146.5q0 40 10.5 82t33 73.5t50.5 31.5h257q-33 -7 -54 -65.5t-21 -121.5q0 -81 20 -138t55 -74h-243zM247 72q10 0 17.5 8t7.5 19q0 10 -7.5 18t-17.5 8q-11 0 -18.5 -7.5t-7.5 -18.5t7.5 -19t18.5 -8z" />
    <glyph glyph-name="uni261C" unicode="&#x261c;" horiz-adv-x="983" 
d="M883 206q26 -5 36 -16.5t10 -37.5q0 -34 -12 -57t-36 -22l-130 9q-41 -27 -89 -27q-68 0 -160 25l-54 -2q-19 -1 -30.5 11.5t-11.5 26.5q0 15 7 24h-2q-20 -1 -31.5 11.5t-11.5 32.5q0 14 7 25q-39 4 -39 41q0 5 2 15q-59 -2 -65 36l-127 10q-64 4 -64 47q0 32 40 33
l349 7q61 24 94 24h38q38 0 77 -22t65 -51l133 10q22 1 37.5 -27t15.5 -64q0 -40 -45 -52l-23 -6zM883 88q15 -1 23 17.5t8 46.5q0 20 -6.5 27.5t-24.5 11.5l-47 11v13l50 16q30 9 30 37q0 31 -11 54t-27 22l-122 -10q7 -10 9 -19q-31 37 -74 64.5t-88 27.5h-38
q-31 0 -122.5 -37.5t-154.5 -40.5l-1 -19q-1 -18 19.5 -25.5t52.5 -2.5l93 15q15 2 46.5 -3t38.5 -5q22 0 69 27q-30 -28 -50 -37q33 -52 77 -70t102 -19q-113 -15 -172 56q-5 -14 -12 -20q41 -6 41 -40q0 -18 -14 -30q24 -10 24 -33q0 -14 -10.5 -26.5t-31.5 -13.5h-9
q62 -13 111 -13q72 0 151 82q-17 -32 -43 -55zM273 343q67 0 161 40l-310 -7q-24 0 -24 -18q0 -29 46 -32l127 -8v25zM352 250q0 -26 35 -25l131 6q30 1 30 22q0 14 -19 22q-2 0 -33 4.5t-45 2.5l-92 -15h-1q-6 -7 -6 -17zM384 184q0 -13 7 -21.5t20 -7.5l135 7q30 1 30 24
q0 29 -48 29q-3 -1 -10 -1l-121 -5q-13 -4 -13 -25zM446 93l114 5q27 1 27 25q0 21 -32 25q-2 -1 -6 -1l-119 -6q-9 -9 -9 -25q0 -9 7 -16.5t18 -6.5z" />
    <glyph glyph-name="uni261D" unicode="&#x261d;" horiz-adv-x="542" 
d="M438 44l9 -130q1 -24 -22 -36t-57 -12q-26 0 -37.5 10t-16.5 36l-4 20l-6 -23q-12 -45 -52 -45q-36 0 -64 15.5t-27 37.5l10 133q-29 26 -51 65t-22 77v38q0 33 24 94l7 349q1 40 33 40q43 0 47 -64l10 -127q38 -6 36 -65q10 2 15 2q37 0 41 -39q11 7 25 7
q20 0 32.5 -11.5t11.5 -31.5v-2q9 7 24 7q14 0 26.5 -11.5t11.5 -30.5l-2 -54q25 -92 25 -160q0 -48 -27 -89zM144 671l-7 -310q40 94 40 161h25l-8 127q-3 46 -32 46q-18 0 -18 -24zM368 -119q28 0 46.5 8t17.5 23l-9 113q-23 -26 -55 -43q82 79 82 151q0 49 -13 111v-9
q-1 -21 -13.5 -31.5t-26.5 -10.5q-23 0 -33 24q-12 -14 -30 -14q-34 0 -40 41q-6 -7 -20 -12q71 -59 56 -172q-1 58 -19 102t-70 77q-9 -20 -37 -50q27 47 27 69q0 7 -5 38.5t-3 46.5l15 93q5 32 -2.5 52.5t-25.5 19.5l-19 -1q-3 -63 -40.5 -154.5t-37.5 -122.5v-38
q0 -45 27.5 -88t64.5 -74q-9 2 -19 9l-10 -122q-1 -16 22 -27t54 -11q28 0 37 30l16 50h13l11 -47q4 -18 11.5 -24.5t27.5 -6.5zM270 443q-10 0 -17 -6v-1l-15 -92q-1 -16 -0.5 -25t3.5 -26.5t4 -26.5q8 -19 22 -19q21 0 22 30l6 131q1 35 -25 35zM336 411q-21 0 -25 -13
l-5 -121q0 -7 -1 -10q0 -48 29 -48q23 0 24 30l7 135q1 13 -7.5 20t-21.5 7zM379 365l-6 -119q0 -4 -1 -6q4 -32 25 -32q24 0 25 27l5 114q1 11 -6.5 18t-16.5 7q-16 0 -25 -9z" />
    <glyph glyph-name="uni261E" unicode="&#x261e;" horiz-adv-x="937" 
d="M877 391q40 -1 40 -33q0 -43 -64 -47l-127 -10q-6 -38 -65 -36q2 -10 2 -15q0 -37 -39 -41q7 -11 7 -25q0 -20 -11.5 -32.5t-31.5 -11.5h-2q7 -9 7 -24q0 -14 -11.5 -26.5t-30.5 -11.5l-54 2q-92 -25 -160 -25q-48 0 -89 27l-130 -9q-24 -1 -36 22t-12 57q0 26 10 37.5
t36 16.5l20 4l-23 6q-45 12 -45 52q0 36 15.5 64t37.5 27l133 -10q26 29 65 51t77 22h38q33 0 94 -24zM640 282q32 -5 52.5 2.5t19.5 25.5l-1 19q-63 3 -154.5 40.5t-122.5 37.5h-38q-45 0 -88 -27.5t-74 -64.5q2 9 9 19l-122 10q-16 1 -27 -22t-11 -54q0 -28 30 -37l50 -16
v-13l-47 -11q-18 -4 -24.5 -11.5t-6.5 -27.5q0 -28 8 -46.5t23 -17.5l113 9q-26 23 -43 55q79 -82 151 -82q49 0 111 13h-9q-21 1 -31.5 13.5t-10.5 26.5q0 23 24 33q-14 12 -14 30q0 34 41 40q-7 6 -12 20q-59 -71 -172 -56q58 1 102 19t77 70q-20 9 -50 37q47 -27 69 -27
q7 0 38.5 5t46.5 3zM853 326q46 3 46 32q0 18 -24 18l-310 7q94 -40 161 -40v-25zM647 250q0 10 -6 17h-1l-92 15q-16 1 -25 0.5t-26.5 -3.5t-26.5 -4q-19 -8 -19 -22q0 -21 30 -22l131 -6q35 -1 35 25zM588 155q13 -1 20 7.5t7 21.5q0 21 -13 25l-121 5q-7 0 -10 1
q-48 0 -48 -29q0 -23 30 -24zM578 116q0 16 -9 25l-119 6q-4 0 -6 1q-32 -4 -32 -25q0 -24 27 -25l114 -5q11 -1 18 6.5t7 16.5z" />
    <glyph glyph-name="uni261F" unicode="&#x261f;" horiz-adv-x="471" 
d="M421 284l2 -54q1 -19 -11.5 -30.5t-26.5 -11.5q-15 0 -24 7v-2q1 -20 -11.5 -31.5t-32.5 -11.5q-14 0 -25 7q-4 -39 -41 -39q-5 0 -15 2q2 -59 -36 -65l-10 -127q-4 -64 -47 -64q-32 0 -33 40l-7 349q-24 61 -24 94v38q0 38 22 77t51 65l-10 133q-1 22 27 37.5t64 15.5
q40 0 52 -45l6 -23l4 20q5 26 16.5 36t37.5 10q34 0 57 -12t22 -36l-9 -130q27 -41 27 -89q0 -68 -25 -160zM191 69q18 -1 25.5 19.5t2.5 52.5l-15 93q-2 15 3 46.5t5 38.5q0 22 -27 69q28 -30 37 -50q52 33 70 77t19 102q15 -113 -56 -172q14 -5 20 -12q6 41 40 41
q18 0 30 -14q10 24 33 24q14 0 26.5 -10.5t13.5 -31.5v-9q13 62 13 111q0 72 -82 151q32 -17 55 -43l9 113q1 15 -17.5 23t-46.5 8q-20 0 -27.5 -6.5t-11.5 -24.5l-11 -47h-13l-16 50q-9 30 -37 30q-31 0 -54 -11t-22 -27l10 -122q10 7 19 9q-37 -31 -64.5 -74t-27.5 -88
v-38q0 -31 37.5 -122.5t40.5 -154.5zM385 203q9 0 16.5 7t6.5 18l-5 114q-1 27 -25 27q-21 0 -25 -32q1 -2 1 -6l6 -119q9 -9 25 -9zM317 166q13 0 21.5 7t7.5 20l-7 135q-1 30 -24 30q-29 0 -29 -48q1 -3 1 -10l5 -121q4 -13 25 -13zM251 134q26 0 25 35l-6 131
q-1 30 -22 30q-14 0 -22 -19q0 -2 -4.5 -33t-2.5 -45l15 -92v-1q8 -6 17 -6zM143 -118q29 0 32 46l8 127h-25q0 67 -40 161l7 -310q0 -24 18 -24z" />
    <glyph glyph-name="K.ss04" horiz-adv-x="587" 
d="M76 657h106q-15 -35 -15 -116v-221h3l214 256q40 49 50 81h118q-38 -29 -91 -94l-129 -156q30 -88 67.5 -167.5t90 -157t112.5 -133.5t137 -90.5t160 -34.5q74 0 141 29l-16 -80q-60 -23 -139 -23q-394 0 -614 583l-104 -122v-95q0 -82 15 -116h-106q15 34 15 116v425
q0 81 -15 116z" />
    <glyph glyph-name="uni0136.ss04" horiz-adv-x="587" 
d="M76 657h106q-15 -35 -15 -116v-221h3l214 256q40 49 50 81h118q-38 -29 -91 -94l-129 -156q30 -88 67.5 -167.5t90 -157t112.5 -133.5t137 -90.5t160 -34.5q74 0 141 29l-16 -80q-60 -23 -139 -23q-394 0 -614 583l-104 -122v-95q0 -82 15 -116h-106q15 34 15 116v425
q0 81 -15 116zM300 -56q49 0 49 -66q0 -80 -80 -116l-16 29q53 26 56 72q-3 -1 -9 -1q-15 0 -27 11t-12 29q0 20 11 31t28 11z" />
    <glyph glyph-name="Q.ss05" horiz-adv-x="651" 
d="M759 -170q87 0 170 24.5t142 69.5l-12 -92q-136 -82 -306 -82q-147 0 -268.5 65.5t-173.5 172.5q-122 5 -191 90.5t-69 252.5q0 171 72.5 254.5t202.5 83.5q129 0 202 -83.5t73 -254.5q0 -148 -55 -232.5t-154 -104.5q56 -81 154.5 -122.5t212.5 -41.5zM131 331
q0 -140 51 -207t144 -67q92 0 143.5 67.5t51.5 206.5q0 269 -195 269t-195 -269z" />
    <glyph glyph-name="R.ss06" horiz-adv-x="566" 
d="M76 0q15 34 15 116v425q0 81 -15 116h204q117 0 178.5 -43t61.5 -146q0 -80 -39.5 -127.5t-107.5 -62.5q194 -455 501 -455q80 0 142 28l-16 -78q-54 -23 -140 -23q-93 0 -175 34t-139.5 84.5t-109.5 124.5t-83 136.5t-62 139.5h-124v-153q0 -82 15 -116h-106zM167 333
h110q84 0 125.5 32t41.5 103q0 67 -41 94.5t-125 27.5h-111v-257z" />
    <glyph glyph-name="Racute.ss06" horiz-adv-x="566" 
d="M231 748q78 41 147 132l48 -56q-77 -77 -173 -115zM76 0q15 34 15 116v425q0 81 -15 116h204q117 0 178.5 -43t61.5 -146q0 -80 -39.5 -127.5t-107.5 -62.5q194 -455 501 -455q80 0 142 28l-16 -78q-54 -23 -140 -23q-93 0 -175 34t-139.5 84.5t-109.5 124.5t-83 136.5
t-62 139.5h-124v-153q0 -82 15 -116h-106zM167 333h110q84 0 125.5 32t41.5 103q0 67 -41 94.5t-125 27.5h-111v-257z" />
    <glyph glyph-name="Rcaron.ss06" horiz-adv-x="566" 
d="M233 703q-43 85 -115 141l32 30q75 -45 118 -115h4q43 70 118 115l32 -30q-70 -54 -115 -141h-74zM76 0q15 34 15 116v425q0 81 -15 116h204q117 0 178.5 -43t61.5 -146q0 -80 -39.5 -127.5t-107.5 -62.5q194 -455 501 -455q80 0 142 28l-16 -78q-54 -23 -140 -23
q-93 0 -175 34t-139.5 84.5t-109.5 124.5t-83 136.5t-62 139.5h-124v-153q0 -82 15 -116h-106zM167 333h110q84 0 125.5 32t41.5 103q0 67 -41 94.5t-125 27.5h-111v-257z" />
    <glyph glyph-name="uni0156.ss06" horiz-adv-x="566" 
d="M76 0q15 34 15 116v425q0 81 -15 116h204q117 0 178.5 -43t61.5 -146q0 -80 -39.5 -127.5t-107.5 -62.5q194 -455 501 -455q80 0 142 28l-16 -78q-54 -23 -140 -23q-93 0 -175 34t-139.5 84.5t-109.5 124.5t-83 136.5t-62 139.5h-124v-153q0 -82 15 -116h-106zM167 333
h110q84 0 125.5 32t41.5 103q0 67 -41 94.5t-125 27.5h-111v-257zM295 -56q49 0 49 -66q0 -80 -80 -116l-16 29q53 26 56 72q-3 -1 -9 -1q-15 0 -27 11t-12 29q0 20 11 31t28 11z" />
    <glyph glyph-name="i.loclTRK" horiz-adv-x="233" 
d="M117 572q-52 0 -52 52q0 24 13.5 37.5t38.5 13.5q52 0 52 -51q0 -52 -52 -52zM72 0q7 48 7 116v253q0 68 -7 116h89q-7 -48 -7 -116v-253q0 -71 8 -116h-90z" />
    <glyph glyph-name="a.inferior" horiz-adv-x="379" 
d="M150 -191q-53 0 -83.5 28.5t-30.5 80.5q0 111 173 111h47v27q0 81 -74 81q-68 0 -106 -43l-25 66q6 1 53 17t82 16q138 0 138 -139v-143q0 -70 14 -93h-78l3 48h-5q-15 -24 -44.5 -40.5t-63.5 -16.5zM162 -138q27 0 53 18t41 48v54h-47q-106 0 -106 -61q0 -28 16.5 -43.5
t42.5 -15.5z" />
    <glyph glyph-name="b.inferior" horiz-adv-x="413" 
d="M237 -191q-66 0 -107 39h-5l1 -30h-76q12 28 12 90v356q0 63 -14 90h89q-7 -29 -7 -90v-119q39 49 108 49q68 0 105.5 -50t37.5 -138q0 -94 -38.5 -145.5t-105.5 -51.5zM221 -132q90 0 90 138q0 129 -89 129q-25 0 -50.5 -14t-41.5 -37v-168q38 -48 91 -48z" />
    <glyph glyph-name="c.inferior" horiz-adv-x="345" 
d="M201 -191q-76 0 -122 46t-46 146t46.5 146.5t121.5 46.5q23 0 44.5 -5.5t41.5 -13.5t25 -9l-30 -68q-28 37 -76 37q-103 0 -103 -134q0 -133 103 -133q57 0 86 39l30 -69q-4 -1 -28.5 -10t-47.5 -14t-45 -5z" />
    <glyph glyph-name="d.inferior" horiz-adv-x="413" 
d="M182 -191q-67 0 -108 49t-41 143q0 93 42 143t109 50q64 0 101 -39v109q0 67 -12 90h87q-6 -24 -6 -90v-356q0 -67 12 -90h-79l2 37h-4q-39 -46 -103 -46zM197 -132q24 0 48.5 14.5t39.5 38.5v167q-35 47 -87 47q-43 0 -69 -34t-26 -98q0 -68 25 -101.5t69 -33.5z" />
    <glyph glyph-name="e.inferior" horiz-adv-x="380" 
d="M209 -191q-83 0 -129.5 47.5t-46.5 144.5q0 95 45 144t117 49q73 0 111.5 -45t38.5 -124q0 -16 -3 -37h-240q2 -63 28.5 -92.5t83.5 -29.5q64 0 98 34l22 -64q-78 -27 -125 -27zM280 35q0 49 -21.5 76t-62.5 27q-43 0 -67 -28t-27 -75h178z" />
    <glyph glyph-name="f.inferior" horiz-adv-x="230" 
d="M72 130h-50v56h50v45q0 134 130 134q17 0 39.5 -3.5t27.5 -3.5l-9 -64q-18 16 -56 16q-64 0 -64 -80v-44h78v-62q-23 6 -78 6v-229q0 -63 14 -81h-95q13 17 13 81v229z" />
    <glyph glyph-name="g.inferior" horiz-adv-x="380" 
d="M360 127q-29 16 -73 16v-4q31 -33 31 -76q0 -61 -37.5 -94.5t-99.5 -33.5q-19 0 -35 3q-12 -10 -12 -25q0 -20 16 -26t62 -6q147 0 147 -103q0 -110 -171 -110q-159 0 -159 100q0 29 18 52.5t46 36.5q-13 18 -13 43q0 31 27 51q-65 33 -65 112q0 62 39 96.5t100 34.5
q32 0 58 -11h43q44 0 78 8v-64zM181 -20q32 0 53.5 21t21.5 62q0 38 -21.5 59.5t-53.5 21.5q-33 0 -53.5 -20t-20.5 -61t21 -62t53 -21zM205 -176q-48 0 -76 9q-39 -22 -39 -59q0 -58 98 -58q106 0 106 60q0 25 -21 36.5t-68 11.5z" />
    <glyph glyph-name="h.inferior" horiz-adv-x="416" 
d="M48 355h89q-7 -22 -7 -84v-91q0 -30 -5 -43h5q18 25 48.5 41.5t65.5 16.5q116 0 116 -139v-147q0 -68 13 -89h-92q11 22 11 89v141q0 86 -64 86q-25 0 -52 -17t-46 -45v-165q0 -69 10 -89h-92q14 22 14 89v356q0 68 -14 90z" />
    <glyph glyph-name="i.inferior" horiz-adv-x="191" 
d="M96 257q-45 0 -45 42t45 42q22 0 34 -11.5t12 -30.5t-12 -30.5t-34 -11.5zM48 -181q14 21 14 89v189q0 67 -14 88h89q-7 -24 -7 -88v-189q0 -68 13 -89h-95z" />
    <glyph glyph-name="j.inferior" horiz-adv-x="192" 
d="M97 257q-45 0 -45 42q0 19 12 30.5t33 11.5q44 0 44 -42t-44 -42zM23 -329q-14 0 -35 2.5t-28 2.5l15 66q15 -15 44 -15q26 0 35 18.5t9 53.5v298q0 62 -13 88h90q-9 -28 -9 -88v-297q0 -64 -24 -96.5t-84 -32.5z" />
    <glyph glyph-name="k.inferior" horiz-adv-x="384" 
d="M48 354h88q-6 -22 -6 -89v-230q0 -23 -5 -41h5l104 132q31 41 30 59h103q-28 -20 -79 -81l-56 -68l86 -131q40 -61 69 -86h-105q0 29 -26 70l-65 99l-61 -74v-11q0 -64 10 -84h-92q14 22 14 90v356q0 67 -14 89z" />
    <glyph glyph-name="l.inferior" horiz-adv-x="191" 
d="M48 -181q14 22 14 89v356q0 68 -14 90h89q-7 -22 -7 -90v-356q0 -70 13 -89h-95z" />
    <glyph glyph-name="m.inferior" horiz-adv-x="628" 
d="M48 185h79l-3 -51l5 -1q45 61 111 61q75 0 100 -67q53 67 120 67q112 0 112 -139v-147q0 -68 14 -90h-93q11 24 11 90v140q0 87 -61 87q-47 0 -92 -58v-169q0 -67 11 -90h-89q10 24 10 90v140q0 87 -62 87q-47 0 -91 -58v-169q0 -68 10 -90h-92q14 22 14 90v188
q0 68 -14 89z" />
    <glyph glyph-name="n.inferior" horiz-adv-x="416" 
d="M48 187h78q0 -37 -2 -52h5q18 24 48.5 41.5t67.5 17.5q54 0 84.5 -34.5t30.5 -101.5v-147q0 -69 13 -93h-92q11 24 11 93v141q0 83 -65 83q-56 0 -97 -63v-161q0 -71 10 -93h-92q14 23 14 93v183q0 70 -14 93z" />
    <glyph glyph-name="o.inferior" horiz-adv-x="404" 
d="M202 -191q-77 0 -123 48.5t-46 143.5q0 96 46 144.5t123 48.5q78 0 123.5 -48.5t45.5 -144.5q0 -95 -46 -143.5t-123 -48.5zM202 -132q99 0 99 133q0 134 -99 134t-99 -134q0 -133 99 -133z" />
    <glyph glyph-name="p.inferior" horiz-adv-x="412" 
d="M129 -153v-85q0 -64 14 -90h-95q14 27 14 90v335q0 64 -14 89h79l-2 -40h5q40 48 108 48t105.5 -50t37.5 -138q0 -93 -38.5 -145t-105.5 -52q-66 0 -108 38zM221 -132q90 0 90 138q0 129 -89 129q-25 0 -50 -14t-42 -37v-169q37 -47 91 -47z" />
    <glyph glyph-name="q.inferior" horiz-adv-x="413" 
d="M181 -191q-67 0 -107.5 49.5t-40.5 142.5t42 143t108 50q65 0 102 -39h5q-3 12 -3 31h76q-9 -28 -9 -89v-335q0 -65 13 -90h-96q14 26 14 85v53q0 26 4 44h-4q-42 -45 -104 -45zM194 -132q26 0 51 15.5t40 39.5v165q-35 47 -91 47q-40 0 -65.5 -34.5t-25.5 -97.5
q0 -67 24.5 -101t66.5 -34z" />
    <glyph glyph-name="r.inferior" horiz-adv-x="275" 
d="M48 185h78q0 -38 -2 -66h5q12 33 39.5 54t60.5 21q9 0 22 -1.5t18 -1.5l-14 -72q-12 14 -35 14q-27 0 -53 -26.5t-37 -67.5v-131q0 -69 13 -90h-95q14 22 14 90v188q0 68 -14 89z" />
    <glyph glyph-name="s.inferior" horiz-adv-x="322" 
d="M159 -191q-34 0 -81.5 12.5t-53.5 13.5l27 76q15 -21 45 -34.5t62 -13.5q70 0 70 54q0 37 -65 56l-25 8q-97 31 -97 108q0 49 34 77t92 28q26 0 66.5 -11t49.5 -12l-28 -69q-28 38 -83 38q-30 0 -47.5 -13t-17.5 -35q0 -39 57 -57l29 -9q101 -33 101 -106
q0 -51 -35.5 -81t-99.5 -30z" />
    <glyph glyph-name="t.inferior" horiz-adv-x="264" 
d="M179 -191q-106 0 -106 120v203h-53v46q69 14 122 76v-69h95v-60q-25 7 -95 7v-197q0 -71 52 -71q26 0 43 20l14 -67q-8 0 -33 -4t-39 -4z" />
    <glyph glyph-name="u.inferior" horiz-adv-x="412" 
d="M167 -191q-111 0 -111 144v143q0 63 -16 89h84v-226q0 -90 62 -90q27 0 53.5 19t44.5 51v157q0 62 -14 89h82v-277q0 -63 13 -90h-81q0 29 4 55h-5q-37 -64 -116 -64z" />
    <glyph glyph-name="v.inferior" horiz-adv-x="376" 
d="M7 185h96q-7 -23 10 -76l49 -149q15 -43 25 -84h6q14 50 25 84l49 149q17 53 10 76h92q-17 -23 -43 -95l-61 -172q-25 -74 -21 -100h-110q4 28 -23 100l-61 172q-28 75 -43 95z" />
    <glyph glyph-name="w.inferior" horiz-adv-x="545" 
d="M452 185h83q-19 -32 -33 -87l-50 -190q-15 -60 -13 -90h-101q2 28 -13 86l-52 193l-52 -193q-14 -57 -12 -86h-101q3 31 -13 90l-52 190q-19 66 -33 87h90q-5 -23 7 -76l55 -219l60 224q13 49 11 71h86q-2 -25 11 -72l59 -222l57 218q12 49 6 76z" />
    <glyph glyph-name="x.inferior" horiz-adv-x="354" 
d="M346 -182h-98q4 20 -16 51l-61 98l-58 -99q-18 -32 -15 -50h-90q20 19 44 59l82 135l-73 115q-28 45 -44 58h97q-4 -18 14 -51l55 -89l51 91q15 31 14 49h88q-17 -16 -42 -58l-74 -126l78 -123q35 -49 48 -60z" />
    <glyph glyph-name="y.inferior" horiz-adv-x="369" 
d="M79 -330q-8 0 -25 1.5t-25 0.5l16 75q14 -22 41 -22q52 0 75 74l7 19l-9 1l-109 278q-29 68 -44 88h96q-8 -26 9 -71l83 -223h3l71 223q14 48 6 71h90q-19 -31 -38 -87l-103 -303q-21 -62 -55 -93.5t-89 -31.5z" />
    <glyph glyph-name="z.inferior" horiz-adv-x="329" 
d="M22 -135q15 9 41 47l147 218h-85q-57 0 -81 -15v74q42 -4 78 -4h169l6 -47q-13 -10 -33 -39l-151 -225h103q62 0 90 14v-74q-39 4 -86 4h-191z" />
    <glyph glyph-name="a.ordn" horiz-adv-x="379" 
d="M150 285q-53 0 -83.5 28.5t-30.5 80.5q0 111 173 111h47v27q0 81 -74 81q-68 0 -106 -43l-25 66q6 1 53 17t82 16q138 0 138 -139v-143q0 -70 14 -93h-78l3 47h-5q-15 -24 -44.5 -40t-63.5 -16zM162 338q27 0 53 18t41 48v54h-47q-106 0 -106 -61q0 -28 16.5 -43.5
t42.5 -15.5z" />
    <glyph glyph-name="b.ordn" horiz-adv-x="413" 
d="M237 285q-67 0 -107 38h-5l1 -29h-76q12 28 12 89v357q0 63 -14 89h89q-7 -29 -7 -89v-119q38 48 108 48q68 0 105.5 -49.5t37.5 -137.5q0 -94 -38.5 -145.5t-105.5 -51.5zM221 343q90 0 90 138q0 130 -89 130q-25 0 -50.5 -14t-41.5 -37v-168q38 -49 91 -49z" />
    <glyph glyph-name="c.ordn" horiz-adv-x="345" 
d="M201 285q-77 0 -122.5 45.5t-45.5 146.5q0 100 46.5 146t121.5 46q23 0 44 -5t43 -13.5t24 -9.5l-30 -67q-28 37 -76 37q-103 0 -103 -134t103 -134q57 0 86 39l30 -68q-4 -1 -28.5 -10t-47.5 -14t-45 -5z" />
    <glyph glyph-name="d.ordn" horiz-adv-x="415" 
d="M182 285q-67 0 -108 49t-41 143q0 92 42 142t109 50q63 0 101 -38v109q0 67 -12 89h87q-6 -23 -6 -89v-357q0 -66 12 -89h-79l2 36h-4q-40 -45 -103 -45zM197 343q23 0 48 15t40 39v167q-37 47 -87 47q-43 0 -69 -34.5t-26 -98.5q0 -67 25 -101t69 -34z" />
    <glyph glyph-name="e.ordn" horiz-adv-x="380" 
d="M209 285q-83 0 -129.5 47.5t-46.5 144.5q0 95 45 143.5t117 48.5q73 0 111.5 -44.5t38.5 -123.5q0 -17 -3 -38h-240q2 -63 28.5 -92t83.5 -29q66 0 98 34l22 -65q-75 -26 -125 -26zM280 511q0 49 -21.5 76t-62.5 27q-43 0 -67 -28t-27 -75h178z" />
    <glyph glyph-name="eacute.ordn" horiz-adv-x="380" 
d="M160 753q58 33 114 105l37 -45q-54 -60 -132 -91zM209 285q-83 0 -129.5 47.5t-46.5 144.5q0 95 45 143.5t117 48.5q73 0 111.5 -44.5t38.5 -123.5q0 -17 -3 -38h-240q2 -63 28.5 -92t83.5 -29q66 0 98 34l22 -65q-75 -26 -125 -26zM280 511q0 49 -21.5 76t-62.5 27
q-43 0 -67 -28t-27 -75h178z" />
    <glyph glyph-name="egrave.ordn" horiz-adv-x="380" 
d="M272 753l-18 -31q-79 31 -133 91l37 45q55 -71 114 -105zM209 285q-83 0 -129.5 47.5t-46.5 144.5q0 95 45 143.5t117 48.5q73 0 111.5 -44.5t38.5 -123.5q0 -17 -3 -38h-240q2 -63 28.5 -92t83.5 -29q66 0 98 34l22 -65q-75 -26 -125 -26zM280 511q0 49 -21.5 76
t-62.5 27q-43 0 -67 -28t-27 -75h178z" />
    <glyph glyph-name="f.ordn" horiz-adv-x="230" 
d="M72 604h-50v56h50v45q0 134 130 134q17 0 38.5 -3t28.5 -3l-9 -65q-18 16 -56 16q-64 0 -64 -79v-45h78v-62q-23 6 -78 6v-229q0 -63 14 -81h-95q13 18 13 81v229z" />
    <glyph glyph-name="g.ordn" horiz-adv-x="379" 
d="M360 603q-32 16 -73 16v-5q31 -31 31 -76q0 -61 -37.5 -94t-99.5 -33q-19 0 -35 3q-12 -10 -12 -25q0 -20 16 -26t62 -6q147 0 147 -103q0 -110 -171 -110q-159 0 -159 100q0 29 18 52.5t46 35.5q-13 18 -13 43q0 32 27 52q-65 33 -65 112q0 62 39 96t100 34q30 0 58 -10
h43q50 0 78 8v-64zM181 456q32 0 53.5 21t21.5 62q0 38 -21.5 59.5t-53.5 21.5t-53 -20.5t-21 -60.5q0 -41 21 -62t53 -21zM205 300q-48 0 -76 9q-39 -22 -39 -60q0 -57 98 -57q106 0 106 59q0 26 -20.5 37.5t-68.5 11.5z" />
    <glyph glyph-name="h.ordn" horiz-adv-x="416" 
d="M48 829h89q-7 -22 -7 -83v-91q0 -31 -5 -43h5q18 24 48.5 40.5t65.5 16.5q116 0 116 -139v-147q0 -67 13 -89h-92q11 23 11 89v141q0 86 -64 86q-25 0 -52 -16.5t-46 -45.5v-165q0 -68 10 -89h-92q14 22 14 89v357q0 67 -14 89z" />
    <glyph glyph-name="i.ordn" horiz-adv-x="194" 
d="M96 732q-45 0 -45 42t45 42q22 0 34 -11.5t12 -30.5t-12 -30.5t-34 -11.5zM48 294q14 22 14 89v189q0 67 -14 88h89q-7 -24 -7 -88v-189q0 -67 13 -89h-95z" />
    <glyph glyph-name="j.ordn" horiz-adv-x="192" 
d="M97 732q-45 0 -45 42q0 19 12 30.5t33 11.5q44 0 44 -42t-44 -42zM23 145q-14 0 -35 3t-28 3l15 66q15 -15 44 -15q26 0 35 18t9 54v298q0 62 -13 88h90q-9 -28 -9 -88v-297q0 -64 -24 -97t-84 -33z" />
    <glyph glyph-name="k.ordn" horiz-adv-x="384" 
d="M48 829h88q-6 -22 -6 -89v-230q0 -23 -5 -41h5l104 132q31 40 30 59h103q-28 -20 -79 -81l-56 -68l86 -131q40 -61 69 -86h-105q0 29 -26 69l-65 100l-61 -74v-11q0 -64 10 -84h-92q14 22 14 89v357q0 67 -14 89z" />
    <glyph glyph-name="l.ordn" horiz-adv-x="191" 
d="M48 294q14 22 14 89v357q0 67 -14 89h89q-7 -22 -7 -89v-357q0 -68 13 -89h-95z" />
    <glyph glyph-name="m.ordn" horiz-adv-x="628" 
d="M48 660h79l-3 -51l5 -1q43 61 111 61q75 0 100 -66q52 66 120 66q112 0 112 -139v-147q0 -67 14 -89h-93q11 23 11 89v141q0 87 -61 87q-47 0 -92 -58v-170q0 -66 11 -89h-89q10 24 10 89v141q0 87 -62 87q-47 0 -91 -58v-170q0 -67 10 -89h-92q14 22 14 89v189
q0 67 -14 88z" />
    <glyph glyph-name="n.ordn" horiz-adv-x="416" 
d="M48 663h78q0 -37 -2 -52h5q17 23 48 40.5t68 17.5q54 0 84.5 -34t30.5 -102v-146q0 -69 13 -93h-92q11 24 11 93v140q0 83 -65 83q-57 0 -97 -63v-160q0 -71 10 -93h-92q14 23 14 93v183q0 70 -14 93z" />
    <glyph glyph-name="o.ordn" horiz-adv-x="404" 
d="M202 285q-78 0 -123.5 48t-45.5 144t46 144t123 48q78 0 123.5 -48t45.5 -144t-45.5 -144t-123.5 -48zM202 343q99 0 99 134t-99 134t-99 -134t99 -134z" />
    <glyph glyph-name="p.ordn" horiz-adv-x="413" 
d="M129 322v-85q0 -63 14 -89h-95q14 27 14 89v336q0 63 -14 89h79l-2 -40h5q41 47 108 47q68 0 105.5 -49.5t37.5 -137.5q0 -93 -38.5 -145t-105.5 -52t-108 37zM221 343q90 0 90 138q0 130 -89 130q-53 0 -92 -51v-169q37 -48 91 -48z" />
    <glyph glyph-name="q.ordn" horiz-adv-x="413" 
d="M181 285q-67 0 -107.5 49.5t-40.5 142.5q0 92 42 142t108 50t102 -38h5q-3 12 -3 31h76q-9 -28 -9 -89v-336q0 -64 13 -89h-96q14 26 14 85v53q0 27 4 43h-4q-41 -44 -104 -44zM194 343q26 0 51 16t40 40v165q-37 47 -91 47q-41 0 -66 -34.5t-25 -98.5q0 -67 24.5 -101
t66.5 -34z" />
    <glyph glyph-name="r.ordn" horiz-adv-x="275" 
d="M48 660h78q0 -36 -2 -66h5q12 33 39.5 54t60.5 21q9 0 22 -1.5t18 -1.5l-14 -72q-12 14 -35 14q-27 0 -53 -26.5t-37 -67.5v-131q0 -68 13 -89h-95q14 22 14 89v189q0 68 -14 88z" />
    <glyph glyph-name="s.ordn" horiz-adv-x="322" 
d="M159 285q-34 0 -80 12t-55 13l27 77q15 -21 45 -34.5t62 -13.5q70 0 70 54q0 37 -65 56l-25 8q-97 31 -97 108q0 49 34 76.5t92 27.5q26 0 68 -11t48 -12l-28 -69q-27 39 -83 39q-30 0 -47.5 -13t-17.5 -35q0 -39 57 -57l29 -9q101 -33 101 -106q0 -51 -35.5 -81
t-99.5 -30z" />
    <glyph glyph-name="t.ordn" horiz-adv-x="265" 
d="M179 285q-106 0 -106 119v204h-53v46q69 14 122 76v-70h95v-59q-25 7 -95 7v-198q0 -70 52 -70q27 0 43 19l14 -66q-8 0 -33 -4t-39 -4z" />
    <glyph glyph-name="u.ordn" horiz-adv-x="413" 
d="M167 285q-111 0 -111 144v143q0 63 -16 88h84v-225q0 -91 62 -91q27 0 53.5 19t44.5 52v157q0 63 -14 88h82v-277q0 -63 13 -89h-81q0 30 4 54h-5q-37 -63 -116 -63z" />
    <glyph glyph-name="v.ordn" horiz-adv-x="376" 
d="M7 660h96q-7 -22 10 -76l49 -148q16 -45 25 -84h6q20 68 25 84l49 148q17 53 10 76h92q-18 -23 -43 -94l-61 -172q-25 -74 -21 -100h-110q4 27 -23 100l-61 172q-28 75 -43 94z" />
    <glyph glyph-name="w.ordn" horiz-adv-x="545" 
d="M452 660h83q-19 -30 -33 -86l-50 -191q-15 -59 -13 -89h-101q2 28 -13 86l-52 192l-52 -192q-14 -57 -12 -86h-101q3 32 -13 89l-52 191q-19 65 -33 86h90q-6 -23 7 -75l55 -219l60 224q14 47 11 70h86q-2 -24 11 -71l59 -223l57 219q12 48 6 75z" />
    <glyph glyph-name="x.ordn" horiz-adv-x="354" 
d="M346 294h-98q4 20 -16 50l-61 99l-58 -99q-18 -32 -15 -50h-90q20 19 44 59l82 134l-73 115q-28 45 -44 58h97q-5 -18 14 -50l55 -89l51 91q15 31 14 48h88q-19 -17 -42 -58l-74 -125l78 -123q31 -46 48 -60z" />
    <glyph glyph-name="y.ordn" horiz-adv-x="369" 
d="M79 145q-7 0 -24.5 1.5t-25.5 0.5l16 75q14 -22 41 -22q52 0 75 74l7 20l-9 1l-109 277q-28 68 -44 88h96q-8 -25 9 -70l83 -223h3l71 223q15 48 6 70h90q-19 -30 -38 -87l-103 -303q-21 -62 -55 -93.5t-89 -31.5z" />
    <glyph glyph-name="z.ordn" horiz-adv-x="331" 
d="M22 341q15 9 41 47l147 218h-85q-57 0 -81 -15v74q35 -5 78 -5h169l6 -46q-13 -10 -33 -39l-151 -226h103q62 0 90 15v-75q-36 5 -86 5h-191z" />
    <glyph glyph-name="a.ss01" horiz-adv-x="535" 
d="M245 -12q-88 0 -143.5 65.5t-55.5 188.5q0 121 58 188t145 67q45 0 80 -16t51 -38q-2 23 -8 43h87l-1 -370q0 -86 12 -116h-85l4 50h-7q-54 -62 -137 -62zM256 55q36 0 72 24t54 58v222q-19 29 -54 50t-70 21q-60 0 -97 -49t-37 -139q0 -93 35.5 -140t96.5 -47z" />
    <glyph glyph-name="aacute.ss01" horiz-adv-x="535" 
d="M245 605q78 41 147 132l48 -56q-77 -77 -173 -115zM245 -12q-88 0 -143.5 65.5t-55.5 188.5q0 121 58 188t145 67q45 0 80 -16t51 -38q-2 23 -8 43h87l-1 -370q0 -86 12 -116h-85l4 50h-7q-54 -62 -137 -62zM256 55q36 0 72 24t54 58v222q-19 29 -54 50t-70 21
q-60 0 -97 -49t-37 -139q0 -93 35.5 -140t96.5 -47z" />
    <glyph glyph-name="abreve.ss01" horiz-adv-x="535" 
d="M285 572q-63 0 -90.5 38.5t-24.5 102.5h43q0 -40 18.5 -65t53.5 -25q34 0 53 25t19 65h43q3 -63 -25 -102t-90 -39zM245 -12q-88 0 -143.5 65.5t-55.5 188.5q0 121 58 188t145 67q45 0 80 -16t51 -38q-2 23 -8 43h87l-1 -370q0 -86 12 -116h-85l4 50h-7q-54 -62 -137 -62
zM256 55q36 0 72 24t54 58v222q-19 29 -54 50t-70 21q-60 0 -97 -49t-37 -139q0 -93 35.5 -140t96.5 -47z" />
    <glyph glyph-name="acircumflex.ss01" horiz-adv-x="535" 
d="M248 725h75q45 -89 110 -140l-28 -30q-74 43 -117 115h-4q-45 -72 -118 -115l-28 30q65 51 110 140zM245 -12q-88 0 -143.5 65.5t-55.5 188.5q0 121 58 188t145 67q45 0 80 -16t51 -38q-2 23 -8 43h87l-1 -370q0 -86 12 -116h-85l4 50h-7q-54 -62 -137 -62zM256 55
q36 0 72 24t54 58v222q-19 29 -54 50t-70 21q-60 0 -97 -49t-37 -139q0 -93 35.5 -140t96.5 -47z" />
    <glyph glyph-name="adieresis.ss01" horiz-adv-x="535" 
d="M213 575q-20 0 -33.5 14t-13.5 34t13.5 33.5t33.5 13.5t33.5 -13.5t13.5 -33.5t-13.5 -34t-33.5 -14zM361 575q-20 0 -33.5 14t-13.5 34t13.5 33.5t33.5 13.5t33.5 -13.5t13.5 -33.5t-13.5 -34t-33.5 -14zM245 -12q-88 0 -143.5 65.5t-55.5 188.5q0 121 58 188t145 67
q45 0 80 -16t51 -38q-2 23 -8 43h87l-1 -370q0 -86 12 -116h-85l4 50h-7q-54 -62 -137 -62zM256 55q36 0 72 24t54 58v222q-19 29 -54 50t-70 21q-60 0 -97 -49t-37 -139q0 -93 35.5 -140t96.5 -47z" />
    <glyph glyph-name="agrave.ss01" horiz-adv-x="535" 
d="M335 619l-17 -45q-100 29 -184 108l41 62q78 -88 160 -125zM245 -12q-88 0 -143.5 65.5t-55.5 188.5q0 121 58 188t145 67q45 0 80 -16t51 -38q-2 23 -8 43h87l-1 -370q0 -86 12 -116h-85l4 50h-7q-54 -62 -137 -62zM256 55q36 0 72 24t54 58v222q-19 29 -54 50t-70 21
q-60 0 -97 -49t-37 -139q0 -93 35.5 -140t96.5 -47z" />
    <glyph glyph-name="amacron.ss01" horiz-adv-x="535" 
d="M158 642h256v-54h-256v54zM245 -12q-88 0 -143.5 65.5t-55.5 188.5q0 121 58 188t145 67q45 0 80 -16t51 -38q-2 23 -8 43h87l-1 -370q0 -86 12 -116h-85l4 50h-7q-54 -62 -137 -62zM256 55q36 0 72 24t54 58v222q-19 29 -54 50t-70 21q-60 0 -97 -49t-37 -139
q0 -93 35.5 -140t96.5 -47z" />
    <glyph glyph-name="aogonek.ss01" horiz-adv-x="535" 
d="M458 -123l21 -46q-27 -23 -66 -23q-37 0 -61 19.5t-24 58.5q0 34 23 65t60 49h-26l4 50h-7q-54 -62 -137 -62q-88 0 -143.5 65.5t-55.5 188.5q0 121 58 188t145 67q45 0 80 -16t51 -38q-2 23 -8 43h87l-1 -370q0 -86 12 -116q-38 -19 -61.5 -46.5t-23.5 -55.5
q0 -42 38 -42q20 0 35 21zM382 137v222q-19 29 -54 50t-70 21q-60 0 -97 -49t-37 -139q0 -93 35.5 -140t96.5 -47q36 0 72 24t54 58z" />
    <glyph glyph-name="aring.ss01" horiz-adv-x="535" 
d="M285 560q-48 0 -77 24t-29 63t29 63t77 24t77.5 -24.5t29.5 -62.5t-29.5 -62.5t-77.5 -24.5zM285 600q25 0 41 12.5t16 34.5t-16 34t-41 12t-41 -12t-16 -34t16 -34.5t41 -12.5zM245 -12q-88 0 -143.5 65.5t-55.5 188.5q0 121 58 188t145 67q45 0 80 -16t51 -38
q-2 23 -8 43h87l-1 -370q0 -86 12 -116h-85l4 50h-7q-54 -62 -137 -62zM256 55q36 0 72 24t54 58v222q-19 29 -54 50t-70 21q-60 0 -97 -49t-37 -139q0 -93 35.5 -140t96.5 -47z" />
    <glyph glyph-name="atilde.ss01" horiz-adv-x="535" 
d="M348 573q-33 0 -69.5 34t-55.5 34q-22 0 -30 -17.5t1 -43.5l-70 3q13 53 38.5 83t59.5 30q26 0 48.5 -17t41.5 -34t36 -17q21 0 29 18t0 43l69 -4q-13 -53 -38.5 -82.5t-59.5 -29.5zM245 -12q-88 0 -143.5 65.5t-55.5 188.5q0 121 58 188t145 67q45 0 80 -16t51 -38
q-2 23 -8 43h87l-1 -370q0 -86 12 -116h-85l4 50h-7q-54 -62 -137 -62zM256 55q36 0 72 24t54 58v222q-19 29 -54 50t-70 21q-60 0 -97 -49t-37 -139q0 -93 35.5 -140t96.5 -47z" />
    <glyph glyph-name="g.ss02" horiz-adv-x="529" 
d="M46 242q0 121 58 188t145 67q45 0 80 -16t51 -38q-2 23 -8 43h87l-1 -477q-1 -112 -62 -160.5t-153 -48.5q-41 0 -74 7t-53.5 15.5t-24.5 8.5l16 81q50 -47 136 -47q69 0 104.5 30.5t35.5 103.5v51q-54 -62 -138 -62q-88 0 -143.5 65.5t-55.5 188.5zM124 242
q0 -93 35.5 -140t96.5 -47q36 0 72 24t54 58v222q-19 29 -54 50t-70 21q-60 0 -97 -49t-37 -139z" />
    <glyph glyph-name="gbreve.ss02" horiz-adv-x="529" 
d="M276 571q-63 0 -90.5 38.5t-24.5 102.5h43q0 -40 18.5 -65t53.5 -25q34 0 53 25t19 65h43q3 -63 -25 -102t-90 -39zM46 242q0 121 58 188t145 67q45 0 80 -16t51 -38q-2 23 -8 43h87l-1 -477q-1 -112 -62 -160.5t-153 -48.5q-41 0 -74 7t-53.5 15.5t-24.5 8.5l16 81
q50 -47 136 -47q69 0 104.5 30.5t35.5 103.5v51q-54 -62 -138 -62q-88 0 -143.5 65.5t-55.5 188.5zM124 242q0 -93 35.5 -140t96.5 -47q36 0 72 24t54 58v222q-19 29 -54 50t-70 21q-60 0 -97 -49t-37 -139z" />
    <glyph glyph-name="uni0123.ss02" horiz-adv-x="529" 
d="M280 551q-23 0 -37.5 17t-14.5 46q0 80 83 117l16 -23q-50 -28 -55 -72q2 1 8 1q18 0 31 -11.5t13 -30.5t-12.5 -31.5t-31.5 -12.5zM46 242q0 121 58 188t145 67q45 0 80 -16t51 -38q-2 23 -8 43h87l-1 -477q-1 -112 -62 -160.5t-153 -48.5q-41 0 -74 7t-53.5 15.5
t-24.5 8.5l16 81q50 -47 136 -47q69 0 104.5 30.5t35.5 103.5v51q-54 -62 -138 -62q-88 0 -143.5 65.5t-55.5 188.5zM124 242q0 -93 35.5 -140t96.5 -47q36 0 72 24t54 58v222q-19 29 -54 50t-70 21q-60 0 -97 -49t-37 -139z" />
    <glyph glyph-name="gdotaccent.ss02" horiz-adv-x="529" 
d="M275 571q-52 0 -52 52q0 24 13.5 37.5t38.5 13.5q52 0 52 -51q0 -52 -52 -52zM46 242q0 121 58 188t145 67q45 0 80 -16t51 -38q-2 23 -8 43h87l-1 -477q-1 -112 -62 -160.5t-153 -48.5q-41 0 -74 7t-53.5 15.5t-24.5 8.5l16 81q50 -47 136 -47q69 0 104.5 30.5
t35.5 103.5v51q-54 -62 -138 -62q-88 0 -143.5 65.5t-55.5 188.5zM124 242q0 -93 35.5 -140t96.5 -47q36 0 72 24t54 58v222q-19 29 -54 50t-70 21q-60 0 -97 -49t-37 -139z" />
    <glyph glyph-name="y.ss03" horiz-adv-x="527" 
d="M59 485h93v-307q0 -125 86 -125q39 0 78.5 29t65.5 78v209q0 76 -16 116h91v-462q0 -114 -63.5 -168.5t-162.5 -54.5q-40 0 -72 7.5t-51.5 15.5t-24.5 9l16 82q49 -49 133 -49q150 0 150 148v65q-22 -41 -63 -65.5t-95 -24.5q-148 0 -148 190v191q0 77 -17 116z" />
    <glyph glyph-name="yacute.ss03" horiz-adv-x="527" 
d="M221 604q78 41 147 132l48 -56q-77 -77 -173 -115zM59 485h93v-307q0 -125 86 -125q39 0 78.5 29t65.5 78v209q0 76 -16 116h91v-462q0 -114 -63.5 -168.5t-162.5 -54.5q-40 0 -72 7.5t-51.5 15.5t-24.5 9l16 82q49 -49 133 -49q150 0 150 148v65q-22 -41 -63 -65.5
t-95 -24.5q-148 0 -148 190v191q0 77 -17 116z" />
    <glyph glyph-name="ycircumflex.ss03" horiz-adv-x="527" 
d="M223 724h75q45 -89 110 -140l-28 -30q-74 43 -117 115h-4q-45 -72 -118 -115l-28 30q65 51 110 140zM59 485h93v-307q0 -125 86 -125q39 0 78.5 29t65.5 78v209q0 76 -16 116h91v-462q0 -114 -63.5 -168.5t-162.5 -54.5q-40 0 -72 7.5t-51.5 15.5t-24.5 9l16 82
q49 -49 133 -49q150 0 150 148v65q-22 -41 -63 -65.5t-95 -24.5q-148 0 -148 190v191q0 77 -17 116z" />
    <glyph glyph-name="ydieresis.ss03" horiz-adv-x="527" 
d="M188 574q-20 0 -33.5 14t-13.5 34t13.5 33.5t33.5 13.5t33.5 -13.5t13.5 -33.5t-13.5 -34t-33.5 -14zM336 574q-20 0 -33.5 14t-13.5 34t13.5 33.5t33.5 13.5t33.5 -13.5t13.5 -33.5t-13.5 -34t-33.5 -14zM59 485h93v-307q0 -125 86 -125q39 0 78.5 29t65.5 78v209
q0 76 -16 116h91v-462q0 -114 -63.5 -168.5t-162.5 -54.5q-40 0 -72 7.5t-51.5 15.5t-24.5 9l16 82q49 -49 133 -49q150 0 150 148v65q-22 -41 -63 -65.5t-95 -24.5q-148 0 -148 190v191q0 77 -17 116z" />
    <glyph glyph-name="ygrave.ss03" horiz-adv-x="527" 
d="M310 618l-17 -45q-100 29 -184 108l41 62q78 -88 160 -125zM59 485h93v-307q0 -125 86 -125q39 0 78.5 29t65.5 78v209q0 76 -16 116h91v-462q0 -114 -63.5 -168.5t-162.5 -54.5q-40 0 -72 7.5t-51.5 15.5t-24.5 9l16 82q49 -49 133 -49q150 0 150 148v65
q-22 -41 -63 -65.5t-95 -24.5q-148 0 -148 190v191q0 77 -17 116z" />
    <glyph glyph-name="a.superior" horiz-adv-x="379" 
d="M150 459q-53 0 -83.5 28.5t-30.5 80.5q0 111 173 111h47v27q0 80 -74 80q-70 0 -106 -43l-25 67q6 1 53 17t82 16q138 0 138 -139v-144q0 -70 14 -92h-78l3 47h-5q-15 -24 -44.5 -40t-63.5 -16zM162 512q27 0 53 18t41 47v54h-47q-106 0 -106 -61q0 -28 16 -43t43 -15z
" />
    <glyph glyph-name="b.superior" horiz-adv-x="413" 
d="M237 459q-67 0 -107 38h-5l1 -29h-76q12 26 12 89v356q0 63 -14 90h89q-7 -29 -7 -90v-118q38 48 108 48q68 0 105.5 -49.5t37.5 -137.5q0 -94 -38.5 -145.5t-105.5 -51.5zM221 517q90 0 90 138q0 130 -89 130q-25 0 -50 -14t-42 -37v-169q38 -48 91 -48z" />
    <glyph glyph-name="c.superior" horiz-adv-x="345" 
d="M201 459q-76 0 -122 45.5t-46 145.5q0 101 46.5 147t121.5 46q23 0 44.5 -5.5t41.5 -13.5t25 -9l-30 -68q-29 38 -76 38q-103 0 -103 -135q0 -133 103 -133q57 0 86 39l30 -68q-4 -1 -28.5 -10t-47.5 -14t-45 -5z" />
    <glyph glyph-name="d.superior" horiz-adv-x="413" 
d="M182 459q-67 0 -108 49t-41 142t42 143t109 50q63 0 101 -38v108q0 67 -12 90h87q-6 -24 -6 -90v-356q0 -67 12 -89h-79l2 36h-4q-40 -45 -103 -45zM197 517q24 0 48.5 15t39.5 39v166q-36 48 -87 48q-43 0 -69 -34.5t-26 -98.5q0 -68 25 -101.5t69 -33.5z" />
    <glyph glyph-name="e.superior" horiz-adv-x="380" 
d="M209 459q-83 0 -129.5 47t-46.5 144q0 96 45 144.5t117 48.5q73 0 111.5 -45t38.5 -124q0 -16 -3 -37h-240q2 -63 29 -92.5t83 -29.5q65 0 98 35l22 -65q-75 -26 -125 -26zM280 685q0 48 -21.5 75t-62.5 27q-43 0 -67 -28t-27 -74h178z" />
    <glyph glyph-name="f.superior" horiz-adv-x="230" 
d="M72 779h-50v56h50v45q0 134 130 134q17 0 38.5 -3t28.5 -3l-9 -65q-18 16 -56 16q-64 0 -64 -79v-45h78v-62q-23 6 -78 6v-229q0 -63 14 -81h-95q13 18 13 81v229z" />
    <glyph glyph-name="g.superior" horiz-adv-x="380" 
d="M360 776q-31 17 -73 17v-5q31 -31 31 -76q0 -61 -37.5 -94.5t-99.5 -33.5q-19 0 -35 3q-12 -10 -12 -25q0 -20 16 -26t62 -6q147 0 147 -103q0 -55 -44.5 -82.5t-126.5 -27.5q-77 0 -118 25.5t-41 75.5q0 29 18 52.5t47 35.5q-14 17 -14 43q0 31 27 51q-65 34 -65 113
q0 62 39 96t100 34q32 0 58 -11h43q46 0 78 9v-65zM181 629q32 0 53.5 21.5t21.5 62.5q0 38 -21.5 59t-53.5 21t-53 -20t-21 -60q0 -41 21 -62.5t53 -21.5zM205 474q-48 0 -76 9q-39 -22 -39 -60q0 -57 98 -57q106 0 106 59q0 26 -20.5 37.5t-68.5 11.5z" />
    <glyph glyph-name="h.superior" horiz-adv-x="416" 
d="M48 1004h89q-7 -22 -7 -83v-91q0 -31 -5 -43h5q18 24 48.5 40.5t65.5 16.5q116 0 116 -139v-147q0 -67 13 -89h-92q11 23 11 89v141q0 86 -64 86q-25 0 -52 -16.5t-46 -45.5v-165q0 -68 10 -89h-92q14 22 14 89v357q0 67 -14 89z" />
    <glyph glyph-name="i.superior" horiz-adv-x="191" 
d="M96 906q-45 0 -45 42t45 42q22 0 34 -11.5t12 -30.5t-12 -30.5t-34 -11.5zM48 468q14 22 14 90v188q0 67 -14 89h89q-7 -25 -7 -89v-188q0 -68 13 -90h-95z" />
    <glyph glyph-name="j.superior" horiz-adv-x="192" 
d="M97 907q-45 0 -45 41q0 19 12 30.5t33 11.5q44 0 44 -42q0 -41 -44 -41zM23 320q-14 0 -35 3t-28 3l15 66q15 -16 44 -16q26 0 35 18.5t9 54.5v297q0 63 -13 89h90q-9 -28 -9 -89v-297q0 -64 -24 -96.5t-84 -32.5z" />
    <glyph glyph-name="k.superior" horiz-adv-x="384" 
d="M48 1004h88q-6 -23 -6 -90v-230q0 -23 -5 -40h5l104 131q31 41 30 60h103q-28 -21 -79 -82l-56 -68l86 -130q38 -59 69 -86h-105q0 28 -26 69l-65 99l-61 -73v-11q0 -64 10 -84h-92q14 21 14 89v356q0 68 -14 90z" />
    <glyph glyph-name="l.superior" horiz-adv-x="191" 
d="M48 468q14 22 14 90v356q0 68 -14 89h89q-7 -21 -7 -89v-356q0 -69 13 -90h-95z" />
    <glyph glyph-name="m.superior" horiz-adv-x="628" 
d="M48 834h79l-3 -51l5 -1q43 61 111 61q75 0 100 -66q52 66 120 66q112 0 112 -139v-147q0 -68 14 -89h-93q11 23 11 89v140q0 88 -61 88q-46 0 -92 -58v-170q0 -66 11 -89h-89q10 23 10 89v140q0 88 -62 88q-47 0 -91 -58v-170q0 -68 10 -89h-92q14 21 14 89v188
q0 68 -14 89z" />
    <glyph glyph-name="n.superior" horiz-adv-x="416" 
d="M48 836h78q0 -36 -2 -52h5q18 24 48.5 41.5t67.5 17.5q54 0 84.5 -34t30.5 -102v-147q0 -70 13 -92h-92q11 23 11 92v141q0 83 -65 83q-56 0 -97 -63v-161q0 -71 10 -92h-92q14 23 14 92v184q0 70 -14 92z" />
    <glyph glyph-name="o.superior" horiz-adv-x="404" 
d="M202 459q-77 0 -123 48t-46 143q0 97 46 145t123 48q78 0 123.5 -48t45.5 -145q0 -95 -46 -143t-123 -48zM202 517q99 0 99 133q0 135 -99 135t-99 -135q0 -133 99 -133z" />
    <glyph glyph-name="p.superior" horiz-adv-x="412" 
d="M129 496v-85q0 -63 14 -89h-95q14 26 14 89v336q0 63 -14 88h79l-2 -39h5q41 47 108 47q68 0 105.5 -49.5t37.5 -137.5q0 -93 -38.5 -145t-105.5 -52t-108 37zM221 517q90 0 90 138q0 130 -89 130q-53 0 -92 -51v-170q37 -47 91 -47z" />
    <glyph glyph-name="q.superior" horiz-adv-x="413" 
d="M181 459q-67 0 -107.5 49.5t-40.5 141.5q0 93 42 143t108 50t102 -38h5q-3 12 -3 30h76q-9 -28 -9 -88v-336q0 -65 13 -89h-96q14 26 14 85v53q0 27 4 43h-4q-41 -44 -104 -44zM194 517q26 0 51 15.5t40 40.5v164q-36 48 -91 48q-41 0 -66 -34.5t-25 -98.5
q0 -67 24.5 -101t66.5 -34z" />
    <glyph glyph-name="r.superior" horiz-adv-x="275" 
d="M48 834h78q0 -36 -2 -66h5q12 33 39.5 54t60.5 21q9 0 22 -1.5t18 -1.5l-14 -72q-12 14 -35 14q-27 0 -53 -26.5t-37 -67.5v-131q0 -69 13 -89h-95q14 22 14 89v188q0 68 -14 89z" />
    <glyph glyph-name="s.superior" horiz-adv-x="322" 
d="M159 459q-34 0 -80 12t-55 13l27 76q15 -21 44.5 -34t62.5 -13q70 0 70 54q0 37 -65 56l-25 8q-97 29 -97 108q0 49 34 76.5t92 27.5q26 0 66.5 -11t49.5 -12l-28 -69q-28 38 -83 38q-30 0 -47.5 -13t-17.5 -35q0 -38 57 -56l29 -10q101 -33 101 -105q0 -51 -35.5 -81
t-99.5 -30z" />
    <glyph glyph-name="t.superior" horiz-adv-x="264" 
d="M179 459q-106 0 -106 119v204h-53v46q70 14 122 76v-70h95v-59q-25 7 -95 7v-198q0 -71 52 -71q26 0 43 20l14 -66q-4 0 -30.5 -4t-41.5 -4z" />
    <glyph glyph-name="u.superior" horiz-adv-x="412" 
d="M167 459q-111 0 -111 143v143q0 64 -16 89h84v-226q0 -90 62 -90q27 0 53.5 19t44.5 52v156q0 64 -14 89h82v-277q0 -63 13 -89h-81q0 30 4 54h-5q-37 -63 -116 -63z" />
    <glyph glyph-name="v.superior" horiz-adv-x="376" 
d="M7 834h96q-7 -23 10 -76l49 -148q16 -46 25 -85h6q14 50 25 85l49 148q17 53 10 76h92q-17 -22 -43 -94l-61 -172q-25 -74 -21 -100h-110q4 27 -23 100l-61 172q-29 76 -43 94z" />
    <glyph glyph-name="w.superior" horiz-adv-x="545" 
d="M452 834h83q-18 -30 -33 -86l-50 -191q-15 -60 -13 -89h-101q2 28 -13 86l-52 192l-52 -192q-14 -59 -12 -86h-101q3 32 -13 89l-52 191q-18 64 -33 86h90q-5 -23 7 -76l55 -219l60 224q13 49 11 71h86q-2 -24 11 -71l59 -223l57 218q12 49 6 76z" />
    <glyph glyph-name="x.superior" horiz-adv-x="354" 
d="M346 468h-98q4 20 -16 50l-61 98l-58 -99q-18 -31 -15 -49h-90q20 19 44 59l82 134l-73 115q-28 45 -44 58h97q-5 -18 14 -50l55 -90l51 91q15 31 14 49h88q-17 -16 -42 -58l-75 -126l79 -123q34 -48 48 -59z" />
    <glyph glyph-name="y.superior" horiz-adv-x="369" 
d="M79 319q-7 0 -24.5 1.5t-25.5 0.5l16 75q14 -22 41 -22q52 0 75 74l7 20l-9 1l-109 277q-28 68 -44 88h96q-8 -26 9 -70l83 -223h3l71 223q15 48 6 70h90q-18 -28 -38 -87l-103 -303q-21 -62 -55 -93.5t-89 -31.5z" />
    <glyph glyph-name="z.superior" horiz-adv-x="329" 
d="M22 514q17 12 41 48l147 217h-85q-59 0 -81 -15v75q35 -5 78 -5h169l6 -47q-13 -9 -33 -39l-151 -225h103q62 0 90 14v-74q-36 5 -86 5h-191z" />
    <glyph glyph-name="L_A" horiz-adv-x="736" 
d="M76 657h106q-15 -35 -15 -116v-476h424q93 0 125 20v-92q-36 7 -125 7h-515q15 34 15 116v425q0 81 -15 116zM418 657h118q-2 -34 29 -124l78 -222q33 -98 58 -130h-102q6 48 -21 114l-8 20h-188l-7 -20q-25 -73 -20 -114h-102q29 37 60 130l76 222q31 90 29 124z
M401 373h150l-26 77q-37 110 -45 154h-7q-7 -36 -45 -154z" />
    <glyph glyph-name="L_E" horiz-adv-x="649" 
d="M282 657h173q104 0 135 7v-79q-27 11 -135 11h-92v-137h54q112 0 138 11v-81q-26 11 -138 11h-54v-158h98q111 0 138 11v-79q-39 7 -138 7h-179q11 27 11 135v205q0 109 -11 136zM76 657h106q-15 -35 -15 -116v-476h337q93 0 124 20v-92q-35 7 -124 7h-428q15 34 15 116
v425q0 81 -15 116z" />
    <glyph glyph-name="L_I" horiz-adv-x="475" 
d="M76 657h106q-15 -35 -15 -116v-476h163q93 0 124 20v-92q-35 7 -124 7h-254q15 34 15 116v425q0 81 -15 116zM305 657h93q-12 -26 -12 -136v-205q0 -109 12 -135h-93q12 26 12 135v205q0 110 -12 136z" />
    <glyph glyph-name="L_L" horiz-adv-x="649" 
d="M76 657h106q-15 -35 -15 -116v-476h337q93 0 124 20v-92q-35 7 -124 7h-428q15 34 15 116v425q0 81 -15 116zM281 657h94q-12 -30 -12 -149v-266h90q121 0 150 12v-80q-42 7 -150 7h-172q12 29 12 148v179q0 119 -12 149z" />
    <glyph glyph-name="L_O" horiz-adv-x="732" 
d="M484 170q-95 0 -151 61t-56 188q0 128 56 187.5t151 59.5q96 0 152 -59.5t56 -187.5q0 -127 -56.5 -188t-151.5 -61zM76 657h106q-15 -35 -15 -116v-476h420q93 0 124 20v-92q-35 7 -124 7h-511q15 34 15 116v425q0 81 -15 116zM484 233q65 0 100 43t35 143t-35 141.5
t-100 41.5t-100 -41.5t-35 -141.5t35 -143t100 -43z" />
    <glyph glyph-name="L_U" horiz-adv-x="731" 
d="M76 657h106q-15 -35 -15 -116v-476h419q90 0 125 15v-87q-36 7 -125 7h-510q15 34 15 116v425q0 81 -15 116zM492 170q-184 0 -184 207v143q0 109 -11 137h92q-11 -28 -11 -137v-144q0 -78 30 -110.5t85 -32.5q117 0 117 143v144q0 106 -12 137h89q-12 -28 -12 -137v-143
q0 -207 -183 -207z" />
    <glyph glyph-name="R_A" horiz-adv-x="1060" 
d="M76 0q15 34 15 116v426q0 81 -15 115h204q117 0 178.5 -43t61.5 -146q0 -79 -39.5 -127t-107.5 -63q93 -127 167.5 -167t207.5 -40h189q72 0 102 21v-91l-313 -1q-101 0 -172.5 25.5t-131.5 81.5t-134 162h-121v-153q0 -82 15 -116h-106zM562 181q30 37 61 130l76 222
q30 90 29 124h117q-1 -38 30 -124l77 -222q35 -99 58 -130h-101q4 50 -22 114l-8 20h-188l-7 -20q-24 -72 -20 -114h-102zM711 373h149l-26 77q-35 109 -45 154h-7q-9 -47 -45 -154zM167 334h110q84 0 125.5 32t41.5 102q0 67 -41 95t-125 28h-111v-257z" />
    <glyph glyph-name="R_E" horiz-adv-x="997" 
d="M920 174q-39 7 -138 7h-179q11 27 11 135v205q0 109 -11 136h173q104 0 135 7v-79q-27 11 -135 11h-92v-137h54q113 0 137 11v-81q-24 11 -137 11h-54v-158h98q111 0 138 11v-79zM76 0q15 34 15 116v426q0 81 -15 115h204q117 0 178.5 -43t61.5 -146q0 -79 -39.5 -127
t-107.5 -63q65 -90 113.5 -132t106.5 -58.5t155 -16.5h98q72 0 102 21v-91l-222 -1q-152 0 -242 56.5t-196 212.5h-121v-153q0 -82 15 -116h-106zM167 334h110q84 0 125.5 32t41.5 102q0 67 -41 95t-125 28h-111v-257z" />
    <glyph glyph-name="R_I" horiz-adv-x="782" 
d="M76 0q15 34 15 116v426q0 81 -15 115h204q117 0 178.5 -43t61.5 -146q0 -79 -39.5 -127t-107.5 -63q78 -114 137 -159.5t135 -45.5h52q38 0 65 18v-91h-123q-102 0 -181 63t-170 206h-121v-153q0 -82 15 -116h-106zM612 181q11 27 11 135v205q0 109 -11 136h92
q-12 -26 -12 -136v-205q0 -109 12 -135h-92zM167 334h110q84 0 125.5 32t41.5 102q0 67 -41 95t-125 28h-111v-257z" />
    <glyph glyph-name="R_O" horiz-adv-x="1079" 
d="M809 170q-95 0 -151 61t-56 188q0 128 56 187.5t151 59.5q96 0 151.5 -59.5t55.5 -187.5q0 -127 -56 -188t-151 -61zM76 0q15 34 15 116v426q0 81 -15 115h204q117 0 178.5 -43t61.5 -146q0 -79 -39.5 -127t-107.5 -63q93 -127 167.5 -167t207.5 -40h178q70 0 102 21v-91
l-302 -1q-101 0 -172.5 25.5t-131.5 81.5t-134 162h-121v-153q0 -82 15 -116h-106zM809 233q135 0 135 186q0 100 -35 141.5t-100 41.5t-100 -41.5t-35 -141.5q0 -186 135 -186zM167 334h110q84 0 125.5 32t41.5 102q0 67 -41 95t-125 28h-111v-257z" />
    <glyph glyph-name="R_R" horiz-adv-x="1022" 
d="M76 0q15 34 15 116v426q0 81 -15 115h204q117 0 178.5 -43t61.5 -146q0 -79 -39.5 -127t-107.5 -63q65 -90 113.5 -132t106.5 -58.5t155 -16.5h153q71 0 101 21v-91l-276 -1q-152 0 -242 56.5t-196 212.5h-121v-153q0 -82 15 -116h-106zM602 181q12 26 12 137v202
q0 111 -12 137h171q182 0 182 -139q0 -54 -29.5 -90t-83.5 -49l46 -68q88 -126 92 -130h-102q-3 35 -45 100l-59 89h-90v-52q0 -113 11 -137h-93zM684 427h82q122 0 122 85q0 47 -30.5 67t-92.5 20h-81v-172zM167 334h110q84 0 125.5 32t41.5 102q0 67 -41 95t-125 28h-111
v-257z" />
    <glyph glyph-name="R_U" horiz-adv-x="1021" 
d="M76 0q15 34 15 116v426q0 81 -15 115h204q117 0 178.5 -43t61.5 -146q0 -79 -39.5 -127t-107.5 -63q65 -90 113.5 -132t106.5 -58.5t155 -16.5h150q72 0 102 21v-91l-274 -1q-152 0 -242 56.5t-196 212.5h-121v-153q0 -82 15 -116h-106zM804 170q-184 0 -184 207v143
q0 109 -12 137h93q-12 -28 -12 -137v-144q0 -78 30 -110.5t85 -32.5q117 0 117 143v144q0 109 -12 137h89q-12 -31 -12 -137v-143q0 -207 -182 -207zM167 334h110q84 0 125.5 32t41.5 102q0 67 -41 95t-125 28h-111v-257z" />
    <glyph glyph-name="c_t" horiz-adv-x="802" 
d="M46 242q0 131 61.5 193t163.5 62h11q-32 37 -32 86q0 79 68.5 132.5t178.5 53.5q102 0 162 -43t60 -116q0 -81 -74 -125h122v-66q-41 7 -131 7v-280q0 -48 17 -72t59 -24q33 0 56 23l15 -73q-7 -1 -39.5 -6.5t-48.5 -5.5q-135 0 -135 159v279h-72v48q81 9 125 42t44 87
q0 50 -44 83t-116 33q-79 0 -133.5 -37.5t-54.5 -105.5q0 -61 46 -94q14 -5 35 -14t23 -10l-36 -78q-41 50 -106 50q-67 0 -107 -44.5t-40 -143.5q0 -187 147 -187q77 0 121 53l35 -78q-100 -42 -156 -42q-103 0 -164 61.5t-61 192.5z" />
    <glyph glyph-name="f_b" horiz-adv-x="833" 
d="M591 497q92 0 141.5 -66t49.5 -182q0 -123 -52 -192t-141 -69q-85 0 -143 50h-7l4 -38h-79q7 48 7 116v482v32q-26 29 -92 29q-57 0 -82 -28.5t-25 -96.5v-49h104v-73q-31 7 -104 7v-321q0 -78 14 -98h-101q12 20 12 98v321h-66v66h66v49q0 191 182 191q45 0 83 -12h96
q-12 -36 -12 -115v-167q22 27 61.5 46.5t83.5 19.5zM579 55q125 0 125 194q0 85 -31 133t-93 48q-36 0 -74 -21.5t-60 -53.5v-230q24 -30 60.5 -50t72.5 -20z" />
    <glyph glyph-name="f_f_b" horiz-adv-x="1108" 
d="M866 497q92 0 141.5 -66t49.5 -182q0 -123 -52 -192t-141 -69q-85 0 -143 50h-7l4 -38h-79q7 48 7 116v482v32q-26 29 -92 29q-57 0 -82 -28.5t-25 -96.5v-49h104v-73q-31 7 -104 7v-321q0 -78 14 -98h-101q12 20 12 98v321h-200v-321q0 -78 14 -98h-101q12 20 12 98v321
h-66v66h66v62q0 178 170 178q22 0 50.5 -4t35.5 -4l-8 -78q-25 20 -78 20q-49 0 -72 -25.5t-23 -86.5v-62h200v49q0 191 182 191q45 0 83 -12h96q-12 -36 -12 -115v-167q22 27 61.5 46.5t83.5 19.5zM854 55q125 0 125 194q0 85 -31 133t-93 48q-36 0 -74 -21.5t-60 -53.5
v-230q24 -30 60.5 -50t72.5 -20z" />
    <glyph glyph-name="f_f_h" horiz-adv-x="1106" 
d="M942 0q12 30 12 116v201q0 62 -23 87.5t-67 25.5q-36 0 -75 -25t-68 -68v-221q0 -86 12 -116h-99q12 30 12 116v482v33q-25 28 -92 28q-57 0 -82.5 -28.5t-25.5 -96.5v-49h105v-73q-31 7 -105 7v-321q0 -78 15 -98h-101q11 21 11 98v321h-199v-321q0 -78 14 -98h-101
q12 20 12 98v321h-66v66h66v62q0 178 170 178q22 0 50.5 -4t35.5 -4l-8 -78q-25 20 -78 20q-49 0 -72 -25.5t-23 -86.5v-62h199v49q0 191 183 191q44 0 83 -12h96q-12 -30 -12 -115v-119q0 -47 -7 -66h7q22 36 63 60t88 24q76 0 116.5 -45t40.5 -135v-201q0 -86 12 -116h-99
z" />
    <glyph glyph-name="f_f_j" horiz-adv-x="793" 
d="M723 485q-9 -38 -9 -116v-408q0 -161 -133 -161q-20 0 -49 3.5t-31 3.5l16 81q22 -21 64 -21q33 0 45.5 22.5t12.5 71.5v408q0 35 -1 50h-191v-321q0 -78 15 -98h-102q12 20 12 98v321h-200v-321q0 -78 14 -98h-101q12 20 12 98v321h-66v66h66v62q0 178 170 178
q22 0 50.5 -4t35.5 -4l-8 -78q-25 20 -78 20q-49 0 -72 -25.5t-23 -86.5v-62h200v45q0 195 193 195q39 0 81 -9.5t59 -20.5l-16 -77q-11 15 -51 28t-73 13q-62 0 -90 -28.5t-28 -100.5v-45h276z" />
    <glyph glyph-name="f_f_k" horiz-adv-x="1051" 
d="M977 102q47 -69 83 -102h-119q-4 34 -38 85l-97 145l-86 -104v-10q0 -87 12 -116h-99q12 30 12 116v482v33q-25 28 -92 28q-57 0 -82 -28.5t-25 -96.5v-49h104v-73q-31 7 -104 7v-321q0 -78 14 -98h-101q12 20 12 98v321h-199v-321q0 -78 14 -98h-101q12 20 12 98v321
h-66v66h66v62q0 178 170 178q22 0 50.5 -4t35.5 -4l-8 -78q-25 20 -78 20q-49 0 -72 -25.5t-23 -86.5v-62h199v49q0 191 182 191q45 0 83 -12h96q-12 -30 -12 -115v-327q0 -31 -7 -54h7l154 193q37 47 41 75h116q-38 -29 -103 -109l-76 -91z" />
    <glyph glyph-name="f_f_t" horiz-adv-x="880" 
d="M845 73l15 -73q-7 -1 -39 -6.5t-48 -5.5q-136 0 -136 159v272h-191v-321q0 -78 14 -98h-101q12 20 12 98v321h-199v-321q0 -78 14 -98h-101q12 20 12 98v321h-66v66h66v62q0 178 170 178q22 0 50.5 -4t35.5 -4l-8 -78q-25 20 -78 20q-49 0 -72 -25.5t-23 -86.5v-62h199
v62q0 178 170 178q22 0 50.5 -4t35.5 -4l-8 -78q-25 20 -78 20q-49 0 -72 -25.5t-23 -86.5v-62h151q74 32 116 87v-87h131v-66q-39 7 -131 7v-280q0 -48 17 -72t59 -24q33 0 56 23z" />
    <glyph glyph-name="f_f_y" horiz-adv-x="1016" 
d="M905 485h102q-23 -30 -46 -98l-149 -428q-27 -79 -69 -119t-110 -40q-11 0 -30.5 2.5t-29.5 2.5l19 87q17 -29 51 -29q68 0 105 108l10 29h-5l-156 387l-13 32h-138v-321q0 -78 14 -98h-101q12 20 12 98v321h-199v-321q0 -78 14 -98h-101q12 20 12 98v321h-66v66h66v62
q0 178 170 178q22 0 50.5 -4t35.5 -4l-8 -78q-25 20 -78 20q-49 0 -72 -25.5t-23 -86.5v-62h199v62q0 178 170 178q22 0 50.5 -4t35.5 -4l-8 -78q-25 20 -78 20q-49 0 -72 -25.5t-23 -86.5v-62h207q-4 -32 14 -80l122 -316h2l105 316q16 52 9 80z" />
    <glyph glyph-name="f_h" horiz-adv-x="831" 
d="M667 0q12 30 12 116v201q0 62 -23 87.5t-67 25.5q-36 0 -75 -25t-68 -68v-221q0 -86 13 -116h-100q12 30 12 116v482v33q-25 28 -92 28q-57 0 -82 -28.5t-25 -96.5v-49h104v-73q-31 7 -104 7v-321q0 -78 14 -98h-101q12 20 12 98v321h-66v66h66v49q0 191 182 191
q45 0 83 -12h96q-12 -30 -12 -115v-119q0 -47 -7 -66h8q21 36 62 60t88 24q76 0 116.5 -45t40.5 -135v-201q0 -86 12 -116h-99z" />
    <glyph glyph-name="f_j" horiz-adv-x="517" 
d="M447 485q-9 -38 -9 -116v-408q0 -161 -133 -161q-20 0 -49 3.5t-31 3.5l17 81q21 -21 63 -21q33 0 45.5 22.5t12.5 71.5v408q0 35 -1 50h-190v-321q0 -78 14 -98h-101q12 20 12 98v321h-66v66h66v45q0 195 193 195q38 0 80 -9.5t59 -20.5l-16 -77q-11 15 -50.5 28
t-72.5 13q-62 0 -90 -28t-28 -101v-45h275z" />
    <glyph glyph-name="f_k" horiz-adv-x="777" 
d="M703 102q47 -69 83 -102h-119q-4 34 -38 85l-97 145l-86 -104v-10q0 -87 12 -116h-99q12 30 12 116v482v33q-25 28 -92 28q-57 0 -82 -28.5t-25 -96.5v-49h104v-73q-31 7 -104 7v-321q0 -78 14 -98h-101q12 20 12 98v321h-66v66h66v49q0 191 182 191q45 0 83 -12h96
q-12 -30 -12 -115v-327q0 -31 -7 -54h7l154 193q37 47 41 75h116q-38 -29 -103 -109l-76 -91z" />
    <glyph glyph-name="f_t" horiz-adv-x="606" 
d="M571 73l15 -73q-7 -1 -39 -6.5t-48 -5.5q-136 0 -136 159v272h-191v-321q0 -78 14 -98h-101q12 20 12 98v321h-66v66h66v62q0 178 170 178q22 0 50.5 -4t35.5 -4l-8 -78q-25 20 -78 20q-49 0 -72 -25.5t-23 -86.5v-62h151q74 32 116 87v-87h131v-66q-39 7 -131 7v-280
q0 -48 17 -72t59 -24q33 0 56 23z" />
    <glyph glyph-name="f_y" horiz-adv-x="742" 
d="M631 485h102q-23 -30 -46 -98l-149 -428q-27 -79 -69 -119t-110 -40q-11 0 -30.5 2.5t-29.5 2.5l19 87q17 -29 51 -29q68 0 105 108l10 29h-5l-156 387l-13 32h-138v-321q0 -78 14 -98h-101q12 20 12 98v321h-66v66h66v62q0 178 170 178q22 0 50.5 -4t35.5 -4l-8 -78
q-25 20 -78 20q-49 0 -72 -25.5t-23 -86.5v-62h207q-4 -32 14 -80l122 -316h2l105 316q16 52 9 80z" />
    <glyph glyph-name="s_p" horiz-adv-x="967" 
d="M32 26l33 92q21 -28 61 -47t85 -19q48 0 74 19.5t26 55.5q0 52 -86 77l-39 11q-130 37 -130 145q0 65 43.5 101t121.5 36h6q-32 37 -32 86q0 79 68 132.5t179 53.5q102 0 162 -43t60 -116q0 -88 -87 -132l-4 -46h7q23 26 62 45.5t82 19.5q92 0 142 -66t50 -182
q0 -121 -53.5 -191t-139.5 -70q-88 0 -143 48v-120q0 -75 12 -116h-99q12 41 12 116v454q0 76 -12 116q109 33 109 117q0 50 -44 83t-116 33q-80 0 -134 -37.5t-54 -105.5q0 -57 40 -90q16 -4 42 -13t35 -11l-38 -83q-15 24 -45.5 39t-66.5 15q-44 0 -68.5 -18t-24.5 -50
q0 -57 73 -78l47 -14q136 -40 136 -141q0 -68 -45.5 -106t-130.5 -38q-32 0 -65.5 7t-66 17.5t-44.5 13.5zM580 124q24 -31 60 -50t73 -19q60 0 92.5 51t32.5 143q0 85 -31 133t-93 48q-35 0 -73 -22.5t-61 -53.5v-230z" />
    <glyph glyph-name="s_t" horiz-adv-x="764" 
d="M32 26l33 92q21 -28 61 -47t85 -19q48 0 74 19.5t26 55.5q0 52 -86 77l-39 11q-130 37 -130 145q0 65 43.5 101t121.5 36q15 0 23 -1q-33 36 -33 87q0 79 68.5 132.5t176.5 53.5q103 0 163.5 -43t60.5 -116q0 -80 -74 -125h122v-66q-41 7 -131 7v-280q0 -48 17 -72
t59 -24q33 0 56 23l15 -73q-7 -1 -39 -6.5t-49 -5.5q-135 0 -135 159v279h-72v48q81 9 125 42t44 87q0 50 -44.5 83t-117.5 33q-77 0 -131.5 -37.5t-54.5 -105.5q0 -62 51 -98q7 -2 17.5 -6t18.5 -6.5t14 -3.5l-38 -83q-15 24 -45.5 39t-66.5 15q-44 0 -68.5 -18t-24.5 -50
q0 -57 73 -78l47 -14q136 -40 136 -141q0 -68 -45.5 -106t-130.5 -38q-32 0 -65.5 7t-66 17.5t-44.5 13.5z" />
    <glyph glyph-name="a.sc" horiz-adv-x="496" 
d="M186 517h126q-2 -36 32 -134l84 -241q39 -110 63 -142h-110q4 47 -24 124l-9 25h-202l-9 -25q-26 -77 -21 -124h-111q30 38 66 142l83 241q33 97 32 134zM166 206h163l-28 85q-42 126 -50 169h-7q-9 -43 -49 -169z" />
    <glyph glyph-name="aacute.sc" horiz-adv-x="496" 
d="M209 629q78 41 147 132l48 -56q-77 -77 -173 -115zM186 517h126q-2 -36 32 -134l84 -241q39 -110 63 -142h-110q4 47 -24 124l-9 25h-202l-9 -25q-26 -77 -21 -124h-111q30 38 66 142l83 241q33 97 32 134zM166 206h163l-28 85q-42 126 -50 169h-7q-9 -43 -49 -169z" />
    <glyph glyph-name="abreve.sc" horiz-adv-x="496" 
d="M249 596q-63 0 -90.5 38.5t-24.5 102.5h43q0 -40 18.5 -65t53.5 -25q34 0 53 25t19 65h43q3 -63 -25 -102t-90 -39zM186 517h126q-2 -36 32 -134l84 -241q39 -110 63 -142h-110q4 47 -24 124l-9 25h-202l-9 -25q-26 -77 -21 -124h-111q30 38 66 142l83 241q33 97 32 134z
M166 206h163l-28 85q-42 126 -50 169h-7q-9 -43 -49 -169z" />
    <glyph glyph-name="acircumflex.sc" horiz-adv-x="496" 
d="M211 749h75q45 -89 110 -140l-28 -30q-74 43 -117 115h-4q-45 -72 -118 -115l-28 30q65 51 110 140zM186 517h126q-2 -36 32 -134l84 -241q39 -110 63 -142h-110q4 47 -24 124l-9 25h-202l-9 -25q-26 -77 -21 -124h-111q30 38 66 142l83 241q33 97 32 134zM166 206h163
l-28 85q-42 126 -50 169h-7q-9 -43 -49 -169z" />
    <glyph glyph-name="adieresis.sc" horiz-adv-x="496" 
d="M177 599q-20 0 -33.5 14t-13.5 34t13.5 33.5t33.5 13.5t33.5 -13.5t13.5 -33.5t-13.5 -34t-33.5 -14zM325 599q-20 0 -33.5 14t-13.5 34t13.5 33.5t33.5 13.5t33.5 -13.5t13.5 -33.5t-13.5 -34t-33.5 -14zM186 517h126q-2 -36 32 -134l84 -241q39 -110 63 -142h-110
q4 47 -24 124l-9 25h-202l-9 -25q-26 -77 -21 -124h-111q30 38 66 142l83 241q33 97 32 134zM166 206h163l-28 85q-42 126 -50 169h-7q-9 -43 -49 -169z" />
    <glyph glyph-name="agrave.sc" horiz-adv-x="496" 
d="M299 643l-17 -45q-100 29 -184 108l41 62q78 -88 160 -125zM186 517h126q-2 -36 32 -134l84 -241q39 -110 63 -142h-110q4 47 -24 124l-9 25h-202l-9 -25q-26 -77 -21 -124h-111q30 38 66 142l83 241q33 97 32 134zM166 206h163l-28 85q-42 126 -50 169h-7
q-9 -43 -49 -169z" />
    <glyph glyph-name="amacron.sc" horiz-adv-x="496" 
d="M122 666h256v-54h-256v54zM186 517h126q-2 -36 32 -134l84 -241q39 -110 63 -142h-110q4 47 -24 124l-9 25h-202l-9 -25q-26 -77 -21 -124h-111q30 38 66 142l83 241q33 97 32 134zM166 206h163l-28 85q-42 126 -50 169h-7q-9 -43 -49 -169z" />
    <glyph glyph-name="aogonek.sc" horiz-adv-x="496" 
d="M479 -123l21 -46q-27 -23 -66 -23q-37 0 -61 19.5t-24 58.5q0 34 23 65t60 49h-51q4 47 -24 124l-9 25h-202l-9 -25q-26 -77 -21 -124h-111q30 38 66 142l83 241q33 97 32 134h126q-2 -36 32 -134l84 -241q39 -110 63 -142q-38 -19 -61.5 -46.5t-23.5 -55.5q0 -42 38 -42
q20 0 35 21zM166 206h163l-28 85q-42 126 -50 169h-7q-9 -43 -49 -169z" />
    <glyph glyph-name="aring.sc" horiz-adv-x="496" 
d="M249 584q-48 0 -77 24t-29 63t29 63t77 24t77.5 -24.5t29.5 -62.5t-29.5 -62.5t-77.5 -24.5zM249 624q25 0 41 12.5t16 34.5t-16 34t-41 12t-41 -12t-16 -34t16 -34.5t41 -12.5zM186 517h126q-2 -36 32 -134l84 -241q39 -110 63 -142h-110q4 47 -24 124l-9 25h-202
l-9 -25q-26 -77 -21 -124h-111q30 38 66 142l83 241q33 97 32 134zM166 206h163l-28 85q-42 126 -50 169h-7q-9 -43 -49 -169z" />
    <glyph glyph-name="atilde.sc" horiz-adv-x="496" 
d="M312 597q-33 0 -69.5 34t-55.5 34q-22 0 -30 -17.5t1 -43.5l-70 3q13 53 38.5 83t59.5 30q26 0 48.5 -17t41.5 -34t36 -17q21 0 29 18t0 43l69 -4q-13 -53 -38.5 -82.5t-59.5 -29.5zM186 517h126q-2 -36 32 -134l84 -241q39 -110 63 -142h-110q4 47 -24 124l-9 25h-202
l-9 -25q-26 -77 -21 -124h-111q30 38 66 142l83 241q33 97 32 134zM166 206h163l-28 85q-42 126 -50 169h-7q-9 -43 -49 -169z" />
    <glyph glyph-name="ae.sc" horiz-adv-x="708" 
d="M294 517h238q86 0 126 7v-80q-31 12 -126 12h-103v-156h87q73 0 105 12v-82q-32 12 -105 12h-87v-181h103q105 0 136 12v-80q-40 7 -136 7h-192q12 29 12 133v12h-175l-18 -33q-27 -49 -36 -71.5t-8 -40.5h-109q37 41 95 146l153 274q36 65 40 97zM209 202h143v257h-7
q-27 -59 -77 -152z" />
    <glyph glyph-name="b.sc" horiz-adv-x="522" 
d="M79 517h179q92 0 142 -29t50 -98q0 -40 -24 -70.5t-69 -40.5v-4q124 -21 124 -125q0 -77 -56 -113.5t-154 -36.5h-192q12 29 12 148v221q0 119 -12 148zM247 300q69 0 100.5 20t31.5 62q0 43 -30.5 60t-96.5 17h-85v-159h80zM262 58q72 0 108.5 21.5t36.5 75.5
q0 87 -150 87h-90v-184h95z" />
    <glyph glyph-name="c.sc" horiz-adv-x="489" 
d="M277 -12q-224 0 -224 270q0 271 224 271q24 0 46 -3t41.5 -9t31.5 -10.5t29 -12.5t22 -10l-44 -78q-17 26 -51 42t-75 16q-146 0 -146 -205q0 -114 39 -160t107 -46q98 0 134 55l44 -76q-4 -2 -21.5 -9t-31 -12t-34.5 -11t-44 -9t-47 -3z" />
    <glyph glyph-name="cacute.sc" horiz-adv-x="489" 
d="M236 629q78 41 147 132l48 -56q-77 -77 -173 -115zM277 -12q-224 0 -224 270q0 271 224 271q24 0 46 -3t41.5 -9t31.5 -10.5t29 -12.5t22 -10l-44 -78q-17 26 -51 42t-75 16q-146 0 -146 -205q0 -114 39 -160t107 -46q98 0 134 55l44 -76q-4 -2 -21.5 -9t-31 -12
t-34.5 -11t-44 -9t-47 -3z" />
    <glyph glyph-name="ccaron.sc" horiz-adv-x="489" 
d="M238 584q-43 85 -115 141l32 30q75 -45 118 -115h4q43 70 118 115l32 -30q-70 -54 -115 -141h-74zM277 -12q-224 0 -224 270q0 271 224 271q24 0 46 -3t41.5 -9t31.5 -10.5t29 -12.5t22 -10l-44 -78q-17 26 -51 42t-75 16q-146 0 -146 -205q0 -114 39 -160t107 -46
q98 0 134 55l44 -76q-4 -2 -21.5 -9t-31 -12t-34.5 -11t-44 -9t-47 -3z" />
    <glyph glyph-name="ccedilla.sc" horiz-adv-x="489" 
d="M300 -58q73 -17 73 -75q0 -43 -42 -66t-120 -24l-7 47q53 -6 81 6.5t28 35.5q0 44 -77 48l36 74q-102 2 -160.5 63.5t-58.5 206.5q0 271 224 271q24 0 46 -3t41.5 -9t31.5 -10.5t29 -12.5t22 -10l-44 -78q-17 26 -51 42t-75 16q-146 0 -146 -205q0 -114 39 -160t107 -46
q98 0 134 55l44 -76q-3 -1 -22 -9t-31.5 -12.5t-35 -10.5t-43.5 -9z" />
    <glyph glyph-name="cdotaccent.sc" horiz-adv-x="489" 
d="M275 596q-52 0 -52 52q0 24 13.5 37.5t38.5 13.5q52 0 52 -51q0 -52 -52 -52zM277 -12q-224 0 -224 270q0 271 224 271q24 0 46 -3t41.5 -9t31.5 -10.5t29 -12.5t22 -10l-44 -78q-17 26 -51 42t-75 16q-146 0 -146 -205q0 -114 39 -160t107 -46q98 0 134 55l44 -76
q-4 -2 -21.5 -9t-31 -12t-34.5 -11t-44 -9t-47 -3z" />
    <glyph glyph-name="d.sc" horiz-adv-x="542" 
d="M79 517h143q136 0 201.5 -57.5t65.5 -199.5t-65.5 -201t-197.5 -59h-147q12 29 12 148v221q0 119 -12 148zM224 60q99 0 142.5 43t43.5 157q0 111 -43.5 153.5t-142.5 42.5h-57v-396h57z" />
    <glyph glyph-name="eth.sc" horiz-adv-x="542" 
d="M222 517q136 0 201.5 -57.5t65.5 -199.5t-65.5 -201t-197.5 -59h-147q12 29 12 148v100h-57v45h57v76q0 119 -12 148h143zM224 60q99 0 142.5 43t43.5 157q0 111 -43.5 153.5t-142.5 42.5h-57v-163h148v-45h-148v-188h57z" />
    <glyph glyph-name="dcaron.sc" horiz-adv-x="542" 
d="M209 584q-43 85 -115 141l32 30q75 -45 118 -115h4q43 70 118 115l32 -30q-70 -54 -115 -141h-74zM79 517h143q136 0 201.5 -57.5t65.5 -199.5t-65.5 -201t-197.5 -59h-147q12 29 12 148v221q0 119 -12 148zM224 60q99 0 142.5 43t43.5 157q0 111 -43.5 153.5
t-142.5 42.5h-57v-396h57z" />
    <glyph glyph-name="dcroat.sc" horiz-adv-x="542" 
d="M222 517q136 0 201.5 -57.5t65.5 -199.5t-65.5 -201t-197.5 -59h-147q12 29 12 148v100h-57v45h57v76q0 119 -12 148h143zM224 60q99 0 142.5 43t43.5 157q0 111 -43.5 153.5t-142.5 42.5h-57v-163h148v-45h-148v-188h57z" />
    <glyph glyph-name="e.sc" horiz-adv-x="463" 
d="M79 517h187q107 0 147 7v-80q-28 12 -147 12h-99v-157h59q121 0 150 12v-82q-29 12 -150 12h-59v-180h107q121 0 149 12v-80q-40 7 -149 7h-195q12 29 12 148v221q0 119 -12 148z" />
    <glyph glyph-name="eacute.sc" horiz-adv-x="463" 
d="M213 629q78 41 147 132l48 -56q-77 -77 -173 -115zM79 517h187q107 0 147 7v-80q-28 12 -147 12h-99v-157h59q121 0 150 12v-82q-29 12 -150 12h-59v-180h107q121 0 149 12v-80q-40 7 -149 7h-195q12 29 12 148v221q0 119 -12 148z" />
    <glyph glyph-name="ecaron.sc" horiz-adv-x="463" 
d="M216 584q-43 85 -115 141l32 30q75 -45 118 -115h4q43 70 118 115l32 -30q-70 -54 -115 -141h-74zM79 517h187q107 0 147 7v-80q-28 12 -147 12h-99v-157h59q121 0 150 12v-82q-29 12 -150 12h-59v-180h107q121 0 149 12v-80q-40 7 -149 7h-195q12 29 12 148v221
q0 119 -12 148z" />
    <glyph glyph-name="ecircumflex.sc" horiz-adv-x="463" 
d="M215 749h75q45 -89 110 -140l-28 -30q-74 43 -117 115h-4q-45 -72 -118 -115l-28 30q65 51 110 140zM79 517h187q107 0 147 7v-80q-28 12 -147 12h-99v-157h59q121 0 150 12v-82q-29 12 -150 12h-59v-180h107q121 0 149 12v-80q-40 7 -149 7h-195q12 29 12 148v221
q0 119 -12 148z" />
    <glyph glyph-name="edieresis.sc" horiz-adv-x="463" 
d="M181 599q-20 0 -33.5 14t-13.5 34t13.5 33.5t33.5 13.5t33.5 -13.5t13.5 -33.5t-13.5 -34t-33.5 -14zM329 599q-20 0 -33.5 14t-13.5 34t13.5 33.5t33.5 13.5t33.5 -13.5t13.5 -33.5t-13.5 -34t-33.5 -14zM79 517h187q107 0 147 7v-80q-28 12 -147 12h-99v-157h59
q121 0 150 12v-82q-29 12 -150 12h-59v-180h107q121 0 149 12v-80q-40 7 -149 7h-195q12 29 12 148v221q0 119 -12 148z" />
    <glyph glyph-name="edotaccent.sc" horiz-adv-x="463" 
d="M253 596q-52 0 -52 52q0 24 13.5 37.5t38.5 13.5q52 0 52 -51q0 -52 -52 -52zM79 517h187q107 0 147 7v-80q-28 12 -147 12h-99v-157h59q121 0 150 12v-82q-29 12 -150 12h-59v-180h107q121 0 149 12v-80q-40 7 -149 7h-195q12 29 12 148v221q0 119 -12 148z" />
    <glyph glyph-name="egrave.sc" horiz-adv-x="463" 
d="M303 643l-17 -45q-100 29 -184 108l41 62q78 -88 160 -125zM79 517h187q107 0 147 7v-80q-28 12 -147 12h-99v-157h59q121 0 150 12v-82q-29 12 -150 12h-59v-180h107q121 0 149 12v-80q-40 7 -149 7h-195q12 29 12 148v221q0 119 -12 148z" />
    <glyph glyph-name="emacron.sc" horiz-adv-x="463" 
d="M126 666h256v-54h-256v54zM79 517h187q107 0 147 7v-80q-28 12 -147 12h-99v-157h59q121 0 150 12v-82q-29 12 -150 12h-59v-180h107q121 0 149 12v-80q-40 7 -149 7h-195q12 29 12 148v221q0 119 -12 148z" />
    <glyph glyph-name="eogonek.sc" horiz-adv-x="463" 
d="M412 -128l21 -46q-27 -23 -66 -23q-37 0 -61 19.5t-24 58.5q0 36 25 67.5t65 49.5q-46 2 -98 2h-195q12 29 12 148v221q0 119 -12 148h187q107 0 147 7v-80q-28 12 -147 12h-99v-157h59q121 0 150 12v-82q-29 12 -150 12h-59v-180h107q121 0 149 12v-78h1h-1v-2h-2
q-37 -19 -59.5 -46t-22.5 -54q0 -42 38 -42q20 0 35 21z" />
    <glyph glyph-name="f.sc" horiz-adv-x="440" 
d="M79 517h188q105 0 147 7v-82q-29 12 -147 12h-100v-171h59q118 0 150 12v-83q-29 12 -150 12h-59v-76q0 -117 13 -148h-101q12 29 12 148v221q0 119 -12 148z" />
    <glyph glyph-name="g.sc" horiz-adv-x="545" 
d="M286 -12q-233 0 -233 270q0 75 18.5 129t52 84t75 44t92.5 14q64 0 175 -43l-39 -77q-40 55 -135 55q-77 0 -119 -44.5t-42 -161.5t40.5 -161.5t120.5 -44.5q82 0 116 29v132q-85 0 -115 -12v69h197q-12 -26 -12 -105v-26q0 -45 7 -101q-108 -50 -199 -50z" />
    <glyph glyph-name="gbreve.sc" horiz-adv-x="545" 
d="M293 596q-63 0 -90.5 38.5t-24.5 102.5h43q0 -40 18.5 -65t53.5 -25q34 0 53 25t19 65h43q3 -63 -25 -102t-90 -39zM286 -12q-233 0 -233 270q0 75 18.5 129t52 84t75 44t92.5 14q64 0 175 -43l-39 -77q-40 55 -135 55q-77 0 -119 -44.5t-42 -161.5t40.5 -161.5
t120.5 -44.5q82 0 116 29v132q-85 0 -115 -12v69h197q-12 -26 -12 -105v-26q0 -45 7 -101q-108 -50 -199 -50z" />
    <glyph glyph-name="uni0123.sc" horiz-adv-x="545" 
d="M286 -12q-233 0 -233 270q0 75 18.5 129t52 84t75 44t92.5 14q64 0 175 -43l-39 -77q-40 55 -135 55q-77 0 -119 -44.5t-42 -161.5t40.5 -161.5t120.5 -44.5q82 0 116 29v132q-85 0 -115 -12v69h197q-12 -26 -12 -105v-26q0 -45 7 -101q-108 -50 -199 -50zM299 -56
q49 0 49 -66q0 -80 -80 -116l-16 29q53 26 56 72q-3 -1 -9 -1q-15 0 -27 11t-12 29q0 20 11 31t28 11z" />
    <glyph glyph-name="gdotaccent.sc" horiz-adv-x="545" 
d="M292 596q-52 0 -52 52q0 24 13.5 37.5t38.5 13.5q52 0 52 -51q0 -52 -52 -52zM286 -12q-233 0 -233 270q0 75 18.5 129t52 84t75 44t92.5 14q64 0 175 -43l-39 -77q-40 55 -135 55q-77 0 -119 -44.5t-42 -161.5t40.5 -161.5t120.5 -44.5q82 0 116 29v132q-85 0 -115 -12
v69h197q-12 -26 -12 -105v-26q0 -45 7 -101q-108 -50 -199 -50z" />
    <glyph glyph-name="h.sc" horiz-adv-x="591" 
d="M79 517h101q-13 -31 -13 -148v-65h257v65q0 117 -13 148h101q-12 -29 -12 -148v-221q0 -119 12 -148h-101q13 31 13 148v90h-257v-90q0 -117 13 -148h-101q12 29 12 148v221q0 119 -12 148z" />
    <glyph glyph-name="hbar.sc" horiz-adv-x="591" 
d="M500 378v-9v-221q0 -119 12 -148h-101q13 28 13 148v90h-256v-90q0 -119 12 -148h-101q12 29 12 148v221v9h-42v53h41q-1 63 -11 86h101q-10 -23 -11 -86h254q-1 64 -12 86h101q-10 -23 -11 -86h41v-53h-42zM424 304v65v9h-256v-9v-65h256z" />
    <glyph glyph-name="i.sc" horiz-adv-x="259" 
d="M79 517h101q-13 -31 -13 -148v-221q0 -117 13 -148h-101q12 29 12 148v221q0 119 -12 148z" />
    <glyph glyph-name="iacute.sc" horiz-adv-x="259" 
d="M89 629q78 41 147 132l48 -56q-77 -77 -173 -115zM79 517h101q-13 -31 -13 -148v-221q0 -117 13 -148h-101q12 29 12 148v221q0 119 -12 148z" />
    <glyph glyph-name="icircumflex.sc" horiz-adv-x="259" 
d="M91 749h75q45 -89 110 -140l-28 -30q-74 43 -117 115h-4q-45 -72 -118 -115l-28 30q65 51 110 140zM79 517h101q-13 -31 -13 -148v-221q0 -117 13 -148h-101q12 29 12 148v221q0 119 -12 148z" />
    <glyph glyph-name="idieresis.sc" horiz-adv-x="259" 
d="M57 599q-20 0 -33.5 14t-13.5 34t13.5 33.5t33.5 13.5t33.5 -13.5t13.5 -33.5t-13.5 -34t-33.5 -14zM205 599q-20 0 -33.5 14t-13.5 34t13.5 33.5t33.5 13.5t33.5 -13.5t13.5 -33.5t-13.5 -34t-33.5 -14zM79 517h101q-13 -31 -13 -148v-221q0 -117 13 -148h-101
q12 29 12 148v221q0 119 -12 148z" />
    <glyph glyph-name="i.sc.loclTRK" horiz-adv-x="259" 
d="M129 596q-52 0 -52 52q0 24 13.5 37.5t38.5 13.5q52 0 52 -51q0 -52 -52 -52zM79 517h101q-13 -31 -13 -148v-221q0 -117 13 -148h-101q12 29 12 148v221q0 119 -12 148z" />
    <glyph glyph-name="igrave.sc" horiz-adv-x="259" 
d="M179 643l-17 -45q-100 29 -184 108l41 62q78 -88 160 -125zM79 517h101q-13 -31 -13 -148v-221q0 -117 13 -148h-101q12 29 12 148v221q0 119 -12 148z" />
    <glyph glyph-name="imacron.sc" horiz-adv-x="259" 
d="M2 666h256v-54h-256v54zM79 517h101q-13 -31 -13 -148v-221q0 -117 13 -148h-101q12 29 12 148v221q0 119 -12 148z" />
    <glyph glyph-name="iogonek.sc" horiz-adv-x="259" 
d="M168 -123l21 -46q-27 -23 -66 -23q-37 0 -61 19.5t-24 58.5q0 34 23 65t60 49h-42q12 29 12 148v221q0 119 -12 148h101q-13 -31 -13 -148v-221q0 -117 13 -148q-38 -19 -61.5 -46.5t-23.5 -55.5q0 -42 38 -42q20 0 35 21z" />
    <glyph glyph-name="j.sc" horiz-adv-x="380" 
d="M210 517h102q-13 -28 -13 -148v-213q0 -80 -36.5 -124t-109.5 -44q-76 0 -135 50l45 83q31 -68 90 -68q69 0 69 91v225q0 119 -12 148z" />
    <glyph glyph-name="k.sc" horiz-adv-x="512" 
d="M79 517h101q-13 -31 -13 -148v-104h3l143 162q54 61 68 90h109q-39 -31 -122 -125l-62 -72l103 -165q77 -124 107 -155h-106q-6 30 -60 118l-91 149l-92 -98v-21q0 -117 13 -148h-101q12 29 12 148v221q0 119 -12 148z" />
    <glyph glyph-name="uni0137.sc" horiz-adv-x="512" 
d="M79 517h101q-13 -31 -13 -148v-104h3l143 162q54 61 68 90h109q-39 -31 -122 -125l-62 -72l103 -165q77 -124 107 -155h-106q-6 30 -60 118l-91 149l-92 -98v-21q0 -117 13 -148h-101q12 29 12 148v221q0 119 -12 148zM278 -56q49 0 49 -66q0 -80 -80 -116l-16 29
q53 26 56 72q-3 -1 -9 -1q-15 0 -27 11t-12 29q0 20 11 31t28 11z" />
    <glyph glyph-name="l.sc" horiz-adv-x="433" 
d="M79 517h101q-13 -31 -13 -148v-306h90q119 0 150 13v-83q-42 7 -150 7h-178q12 29 12 148v221q0 119 -12 148z" />
    <glyph glyph-name="lacute.sc" horiz-adv-x="433" 
d="M91 629q78 41 147 132l48 -56q-77 -77 -173 -115zM79 517h101q-13 -31 -13 -148v-306h90q119 0 150 13v-83q-42 7 -150 7h-178q12 29 12 148v221q0 119 -12 148z" />
    <glyph glyph-name="lcaron.sc" horiz-adv-x="433" 
d="M94 584q-43 85 -115 141l32 30q75 -45 118 -115h4q43 70 118 115l32 -30q-70 -54 -115 -141h-74zM79 517h101q-13 -31 -13 -148v-306h90q119 0 150 13v-83q-42 7 -150 7h-178q12 29 12 148v221q0 119 -12 148z" />
    <glyph glyph-name="uni013C.sc" horiz-adv-x="433" 
d="M79 517h101q-13 -31 -13 -148v-306h90q119 0 150 13v-83q-42 7 -150 7h-178q12 29 12 148v221q0 119 -12 148zM240 -56q49 0 49 -66q0 -80 -80 -116l-16 29q53 26 56 72q-3 -1 -9 -1q-15 0 -27 11t-12 29q0 20 11 31t28 11z" />
    <glyph glyph-name="lslash.sc" horiz-adv-x="437" 
d="M257 63q119 0 150 13v-83q-42 7 -150 7h-178q12 29 12 148v87l-59 -11l-10 52l69 12v81q0 119 -12 148h101q-13 -31 -13 -148v-67l80 14l9 -52l-89 -16v-185h90z" />
    <glyph glyph-name="m.sc" horiz-adv-x="648" 
d="M79 517h108l100 -268q19 -48 36 -121h3q16 64 37 121l98 268h108q-12 -29 -12 -148v-221q0 -119 12 -148h-96q12 29 12 148v120q0 109 8 160h-4l-97 -263q-30 -83 -32 -114h-73q-1 31 -32 114l-97 263h-4q9 -57 9 -160v-120q0 -119 12 -148h-96q12 29 12 148v221
q0 119 -12 148z" />
    <glyph glyph-name="n.sc" horiz-adv-x="579" 
d="M79 517h90l258 -410h4q-11 59 -11 157v105q0 120 -13 148h97q-13 -31 -13 -148v-369h-76l-259 411h-4q11 -62 11 -155v-108q0 -119 12 -148h-96q12 29 12 148v221q0 119 -12 148z" />
    <glyph glyph-name="nacute.sc" horiz-adv-x="579" 
d="M258 629q78 41 147 132l48 -56q-77 -77 -173 -115zM79 517h90l258 -410h4q-11 59 -11 157v105q0 120 -13 148h97q-13 -31 -13 -148v-369h-76l-259 411h-4q11 -62 11 -155v-108q0 -119 12 -148h-96q12 29 12 148v221q0 119 -12 148z" />
    <glyph glyph-name="ncaron.sc" horiz-adv-x="579" 
d="M261 584q-43 85 -115 141l32 30q75 -45 118 -115h4q43 70 118 115l32 -30q-70 -54 -115 -141h-74zM79 517h90l258 -410h4q-11 59 -11 157v105q0 120 -13 148h97q-13 -31 -13 -148v-369h-76l-259 411h-4q11 -62 11 -155v-108q0 -119 12 -148h-96q12 29 12 148v221
q0 119 -12 148z" />
    <glyph glyph-name="uni0146.sc" horiz-adv-x="579" 
d="M79 517h90l258 -410h4q-11 59 -11 157v105q0 120 -13 148h97q-13 -31 -13 -148v-369h-76l-259 411h-4q11 -62 11 -155v-108q0 -119 12 -148h-96q12 29 12 148v221q0 119 -12 148zM286 -56q49 0 49 -66q0 -80 -80 -116l-16 29q53 26 56 72q-3 -1 -9 -1q-15 0 -27 11
t-12 29q0 20 11 31t28 11z" />
    <glyph glyph-name="ntilde.sc" horiz-adv-x="579" 
d="M361 597q-33 0 -69.5 34t-55.5 34q-22 0 -30 -17.5t1 -43.5l-70 3q13 53 38.5 83t59.5 30q26 0 48.5 -17t41.5 -34t36 -17q21 0 29 18t0 43l69 -4q-13 -53 -38.5 -82.5t-59.5 -29.5zM79 517h90l258 -410h4q-11 59 -11 157v105q0 120 -13 148h97q-13 -31 -13 -148v-369
h-76l-259 411h-4q11 -62 11 -155v-108q0 -119 12 -148h-96q12 29 12 148v221q0 119 -12 148z" />
    <glyph glyph-name="o.sc" horiz-adv-x="560" 
d="M280 -12q-109 0 -168 62.5t-59 208.5q0 147 58.5 208.5t168.5 61.5t168.5 -61.5t58.5 -208.5q0 -146 -59 -208.5t-168 -62.5zM280 53q73 0 110.5 45t37.5 161q0 117 -37.5 161t-110.5 44t-110.5 -44t-37.5 -161q0 -116 37.5 -161t110.5 -45z" />
    <glyph glyph-name="oacute.sc" horiz-adv-x="560" 
d="M240 629q78 41 147 132l48 -56q-77 -77 -173 -115zM280 -12q-109 0 -168 62.5t-59 208.5q0 147 58.5 208.5t168.5 61.5t168.5 -61.5t58.5 -208.5q0 -146 -59 -208.5t-168 -62.5zM280 53q73 0 110.5 45t37.5 161q0 117 -37.5 161t-110.5 44t-110.5 -44t-37.5 -161
q0 -116 37.5 -161t110.5 -45z" />
    <glyph glyph-name="ocircumflex.sc" horiz-adv-x="560" 
d="M242 749h75q45 -89 110 -140l-28 -30q-74 43 -117 115h-4q-45 -72 -118 -115l-28 30q65 51 110 140zM280 -12q-109 0 -168 62.5t-59 208.5q0 147 58.5 208.5t168.5 61.5t168.5 -61.5t58.5 -208.5q0 -146 -59 -208.5t-168 -62.5zM280 53q73 0 110.5 45t37.5 161
q0 117 -37.5 161t-110.5 44t-110.5 -44t-37.5 -161q0 -116 37.5 -161t110.5 -45z" />
    </font>
</defs>
</svg>
