<?xml version="1.0" standalone="no"?>
<!DOCTYPE svg PUBLIC "-//W3C//DTD SVG 1.1//EN" "http://www.w3.org/Graphics/SVG/1.1/DTD/svg11.dtd" >
<svg xmlns="http://www.w3.org/2000/svg" xmlns:xlink="http://www.w3.org/1999/xlink" version="1.1">
<metadata>
Created by FontForge 20201107 at Wed Feb 19 16:35:02 2020
 By 
Copyright (c) 2019 by Rodrigo Lo'pez Fuentes. All rights reserved.
</metadata>
<defs>
<font id="Mondo-Italic" horiz-adv-x="0" >
  <font-face 
    font-family="Mondo Italic"
    font-weight="400"
    font-style="italic"
    font-stretch="normal"
    units-per-em="1000"
    panose-1="0 0 6 0 0 0 0 0 0 0"
    ascent="768"
    descent="-232"
    x-height="487"
    cap-height="656"
    bbox="-430 -322 1387.27 988"
    underline-thickness="50"
    underline-position="-150"
    slope="-11"
    unicode-range="U+0020-FB02"
  />
<missing-glyph horiz-adv-x="461" 
d="M378 722v-922h-292v922h292zM307 660h-152v-30h60v-34h-61v-31h153v31h-61v34h61v30zM246 541h-92v-96h153v32h-61v64zM215 510v-33h-31v33h31zM307 421h-153v-31h61v-34h-61v-30h92v64h61v31zM307 365h-30v-61h-123v-31h153v92zM307 253h-92v-52h31v21h31v-43h-93v74
h-30v-104h153v104zM307 93h-153v-104h153v104zM277 63v-44h-93v44h93zM307 -32h-153v-31h65l-65 -43v-30h153v30h-94l65 43h29v31z" />
    <glyph glyph-name="fi" unicode="fi" horiz-adv-x="530" 
d="M517 487q-15 -30 -32 -119l-48 -248q-17 -88 -10 -120h-116q18 31 37 120l48 248q8 41 8 43h-187l-59 -310q-17 -81 -3 -101h-120q17 21 34 101l59 310h-66l15 76h66l7 36q38 201 244 201q40 0 82.5 -10.5t59.5 -21.5l-35 -87q-8 16 -47.5 29.5t-73.5 13.5
q-62 0 -95 -27.5t-46 -98.5l-7 -35h285z" />
    <glyph glyph-name="fl" unicode="fl" horiz-adv-x="531" 
d="M461 711h110q-19 -33 -35 -120l-91 -471q-17 -89 -10 -120h-116q20 31 37 120l91 471q1 4 2.5 13t2.5 14q-20 29 -85 29q-58 0 -87 -29.5t-40 -90.5l-8 -40h103l-16 -84q-32 7 -102 7l-59 -309q-17 -81 -3 -101h-120q17 21 34 101l59 309h-66l15 77h66l8 41
q38 195 230 195q44 0 80 -12z" />
    <glyph glyph-name="f_f" unicode="ff" horiz-adv-x="573" 
d="M621 723q49 0 112 -25l-34 -82q-29 31 -87 31q-72 0 -92 -92l-14 -68h112l-16 -80h-113l-58 -294q-12 -56 -12.5 -79.5t8.5 -33.5h-109l81 407h-183l-58 -306q-17 -81 -4 -101h-119q17 21 34 101l58 306h-66l16 80h66l11 55q35 181 216 181q19 0 42.5 -3.5t34.5 -3.5
l-35 -92q-18 23 -56 23q-48 0 -75 -24t-38 -81l-11 -55h184l14 69q16 80 67.5 123.5t123.5 43.5z" />
    <glyph glyph-name="f_f_i" unicode="ffi" horiz-adv-x="804" 
d="M791 487q-15 -30 -32 -119l-48 -248q-19 -88 -10 -120h-116q18 31 37 120l48 248q8 41 8 43h-187l-59 -310q-17 -81 -4 -101h-119q17 21 34 101l59 310h-185l-59 -310q-17 -81 -3 -101h-120q17 21 34 101l59 310h-66l15 76h66l11 55q35 181 211 181q22 0 47 -3.5t35 -3.5
l-33 -89q-22 20 -63 20q-44 0 -70.5 -24t-37.5 -81l-11 -55h185l7 36q38 201 244 201q39 0 81.5 -10.5t60.5 -21.5l-35 -87q-8 16 -47.5 29.5t-73.5 13.5q-62 0 -95 -27.5t-46 -98.5l-7 -35h285z" />
    <glyph glyph-name="f_f_l" unicode="ffl" horiz-adv-x="802" 
d="M732 711h110q-19 -37 -35 -120l-91 -471q-17 -89 -10 -120h-116q20 31 37 120l91 471q1 4 2.5 13t2.5 14q-20 29 -85 29q-58 0 -87 -29.5t-40 -90.5l-8 -40h103l-16 -84q-32 7 -102 7l-59 -309q-17 -81 -3 -101h-120q17 21 34 101l59 309h-182l-59 -309q-17 -81 -3 -101
h-120q17 21 34 101l59 309h-66l15 77h66l11 55q35 181 211 181q22 0 47 -3.5t35 -3.5l-33 -89q-22 20 -63 20q-44 0 -70.5 -24t-37.5 -81l-11 -55h182l8 41q38 195 230 195q44 0 80 -12z" />
    <glyph glyph-name=".notdef" horiz-adv-x="461" 
d="M378 722v-922h-292v922h292zM307 660h-152v-30h60v-34h-61v-31h153v31h-61v34h61v30zM246 541h-92v-96h153v32h-61v64zM215 510v-33h-31v33h31zM307 421h-153v-31h61v-34h-61v-30h92v64h61v31zM307 365h-30v-61h-123v-31h153v92zM307 253h-92v-52h31v21h31v-43h-93v74
h-30v-104h153v104zM307 93h-153v-104h153v104zM277 63v-44h-93v44h93zM307 -32h-153v-31h65l-65 -43v-30h153v30h-94l65 43h29v31z" />
    <glyph glyph-name=".null" 
 />
    <glyph glyph-name="nonmarkingreturn" horiz-adv-x="333" 
 />
    <glyph glyph-name="space" unicode=" " horiz-adv-x="179" 
 />
    <glyph glyph-name="exclam" unicode="!" horiz-adv-x="295" 
d="M101 222l60 305q22 112 8 143h123q-15 -19 -23.5 -46t-21.5 -97l-60 -305h-86zM99 -12q-25 0 -40 14t-15 38q0 35 24 60t58 25q24 0 38.5 -14t14.5 -39q0 -35 -23.5 -59.5t-56.5 -24.5z" />
    <glyph glyph-name="quotedbl" unicode="&#x22;" horiz-adv-x="348" 
d="M107 431l15 167l15 92h90l-21 -92l-49 -167h-50zM265 431l15 167l15 92h90l-21 -92l-49 -167h-50z" />
    <glyph glyph-name="numbersign" unicode="#" horiz-adv-x="548" 
d="M50 0l65 204h-80l11 57h87l47 148h-85l11 58h92l59 183h53l-59 -183h133l60 183h53l-60 -183h81l-11 -58h-87l-47 -148h85l-11 -57h-92l-65 -204h-53l64 204h-132l-65 -204h-54zM187 261h132l47 148h-132z" />
    <glyph glyph-name="dollar" unicode="$" horiz-adv-x="532" 
d="M336 323q65 -20 98.5 -49.5t33.5 -79.5q0 -82 -56.5 -137t-148.5 -66q-11 -62 -5 -89l-100 1q19 33 30 87q-47 5 -109 30.5t-72 27.5l70 104q41 -71 126 -85l37 191q-134 41 -134 134q0 77 53.5 128t143.5 62q11 63 5 91h100q-19 -35 -31 -91q39 -5 90.5 -25t61.5 -22
l-63 -93q-43 54 -104 63l-35 -179zM197 411q0 -40 61 -63l30 156q-91 -16 -91 -93zM278 68q96 15 96 104q0 25 -15.5 39.5t-48.5 25.5z" />
    <glyph glyph-name="percent" unicode="%" horiz-adv-x="846" 
d="M167 -12l485 680h70l-484 -680h-71zM196 273q-56 0 -87 36t-31 100q0 107 57 182.5t138 75.5q56 0 87.5 -36t31.5 -100q0 -106 -58 -182t-138 -76zM208 332q45 0 78.5 59t33.5 138t-59 79q-46 0 -79 -57.5t-33 -138.5q0 -80 59 -80zM605 -12q-56 0 -87.5 36t-31.5 100
q0 107 57.5 182.5t138.5 75.5q55 0 86.5 -36t31.5 -100q0 -106 -57.5 -182t-137.5 -76zM616 47q46 0 79.5 58.5t33.5 138.5q0 79 -59 79q-46 0 -79.5 -58t-33.5 -138t59 -80z" />
    <glyph glyph-name="ampersand" unicode="&#x26;" horiz-adv-x="643" 
d="M622 0h-158q-4 27 -32 65q-107 -80 -217 -80q-74 0 -119 41t-45 105q0 140 188 225q-18 48 -18 98q0 105 68 169t148 64q62 0 100.5 -36.5t38.5 -94.5q0 -152 -223 -235q34 -58 96 -133l2 -2q33 41 31 77h125q-52 -81 -107 -137q58 -71 122 -126zM307 465q0 -36 14 -76
l4 1q81 29 123 62.5t42 87.5q0 29 -18.5 47t-50.5 18q-50 0 -82 -39.5t-32 -100.5zM139 148q0 -37 26 -59t71 -22q69 0 148 58l-18 23q-65 81 -97 141q-66 -29 -98 -61t-32 -80z" />
    <glyph glyph-name="quotesingle" unicode="'" horiz-adv-x="190" 
d="M112 431l16 197l9 62h90l-15 -62l-60 -197h-40z" />
    <glyph glyph-name="parenleft" unicode="(" horiz-adv-x="344" 
d="M157 -174q-49 70 -74 145.5t-25 174.5q0 110 28.5 211.5t73.5 174t87.5 121.5t81.5 77l36 -74q-95 -29 -160 -185t-65 -365q0 -180 78 -206z" />
    <glyph glyph-name="parenright" unicode=")" horiz-adv-x="345" 
d="M29 -174l-35 74q95 29 160 185.5t65 364.5q0 180 -79 206l62 74q99 -141 99 -320q0 -89 -20 -173.5t-49.5 -147.5t-67.5 -118t-71.5 -89t-63.5 -56z" />
    <glyph glyph-name="asterisk" unicode="*" horiz-adv-x="414" 
d="M169 419l-34 29l74 95l-88 40l24 47l97 -25l31 108h49l-11 -107l108 24l6 -47l-105 -40l38 -95l-46 -29l-54 85z" />
    <glyph glyph-name="plus" unicode="+" horiz-adv-x="493" 
d="M395 337q41 0 58 10l-19 -99q-14 10 -54 10h-98l-21 -107q-8 -40 -1 -56h-105q14 18 21 56l21 107h-98q-41 0 -58 -10l19 99q13 -10 54 -10h98l21 107q7 40 1 56h105q-14 -18 -21 -56l-21 -107h98z" />
    <glyph glyph-name="comma" unicode="," horiz-adv-x="324" 
d="M23 -171l-11 50q99 37 115 120q-3 -1 -9 -1q-23 1 -37.5 12.5t-14.5 33.5q0 31 22.5 52.5t54.5 21.5q26 0 40.5 -17.5t14.5 -49.5q0 -69 -48.5 -131.5t-126.5 -90.5z" />
    <glyph glyph-name="hyphen" unicode="-" horiz-adv-x="318" 
d="M37 212l15 77h231l-14 -77h-232z" />
    <glyph glyph-name="period" unicode="." horiz-adv-x="277" 
d="M84 -12q-22 0 -36.5 14.5t-14.5 36.5q0 31 23.5 55.5t53.5 24.5q22 0 36 -14.5t14 -37.5q0 -32 -22.5 -55.5t-53.5 -23.5z" />
    <glyph glyph-name="slash" unicode="/" horiz-adv-x="532" 
d="M10 -160l363 726q30 60 41.5 90t10.5 54h98l-373 -743q-42 -84 -42 -127h-98z" />
    <glyph glyph-name="zero" unicode="0" horiz-adv-x="562" 
d="M250 -12q-89 0 -144 61.5t-55 176.5q0 188 82.5 315t212.5 127q89 0 143.5 -60.5t54.5 -177.5q0 -184 -83 -313t-211 -129zM259 69q75 0 133.5 108.5t58.5 245.5q0 164 -115 164q-50 0 -94.5 -49t-71.5 -131t-27 -174q0 -164 116 -164z" />
    <glyph glyph-name="one" unicode="1" horiz-adv-x="447" 
d="M-9 0l10 53l151 30l87 446h-126l12 62q44 2 112.5 17t113.5 31l-108 -556l126 -30l-10 -53h-368z" />
    <glyph glyph-name="two" unicode="2" horiz-adv-x="506" 
d="M148 82h152q103 0 132 18l-19 -100h-415l12 69q36 33 117 99.5t128 108t88 99t41 105.5q0 43 -25 67t-66 24q-88 0 -156 -81l-35 93q18 5 52.5 23t72 31t78.5 13q76 0 123 -44t47 -117q0 -48 -21.5 -95t-61.5 -91.5t-76.5 -77.5t-90 -77t-77.5 -67z" />
    <glyph glyph-name="three" unicode="3" horiz-adv-x="491" 
d="M190 -12q-59 0 -128 24t-81 25l62 106q16 -32 59 -54t92 -22q63 0 105 33t42 85q0 107 -180 107l15 79q92 0 147 35.5t55 92.5q0 73 -91 73q-40 0 -78.5 -17.5t-59.5 -43.5l-36 95q9 1 75 23t112 22q75 0 124.5 -37.5t49.5 -104.5q0 -62 -41.5 -108t-109.5 -64l-1 -6
q51 -14 81.5 -49t30.5 -88q0 -93 -70 -149.5t-174 -56.5z" />
    <glyph glyph-name="four" unicode="4" horiz-adv-x="505" 
d="M399 245q59 0 88 11l-15 -84h-86q-18 -87 -20.5 -117.5t6.5 -54.5h-131q17 23 27 53.5t28 118.5h-283l10 62l348 405h105zM309 245l61 287l-246 -287h185z" />
    <glyph glyph-name="five" unicode="5" horiz-adv-x="497" 
d="M191 -12q-44 0 -84.5 12.5t-70.5 27.5t-42 17l52 102q16 -35 58.5 -58.5t93.5 -23.5q66 0 111.5 49t45.5 121q0 47 -27 71.5t-76 24.5q-60 0 -120 -34l-42 28l82 314h197q83 0 128 15l-18 -92h-244l-44 -171q37 15 90 15q73 0 119.5 -40.5t46.5 -112.5
q0 -112 -71.5 -188.5t-184.5 -76.5z" />
    <glyph glyph-name="six" unicode="6" horiz-adv-x="500" 
d="M219 -12q-81 0 -128.5 52.5t-47.5 151.5q0 122 43.5 228t119.5 168.5t165 62.5q31 0 72.5 -11t54.5 -11l-41 -93q-34 41 -97 41q-66 0 -125.5 -65t-89.5 -192q30 33 72 52t85 19q70 0 113.5 -41t43.5 -112q0 -106 -69.5 -178t-170.5 -72zM233 64q55 0 96 46.5t41 111.5
q0 43 -25.5 68t-71.5 25q-78 0 -141 -83q-8 -81 17.5 -124.5t83.5 -43.5z" />
    <glyph glyph-name="seven" unicode="7" horiz-adv-x="474" 
d="M114 0q28 161 99.5 296t192.5 266h-204q-84 0 -113 -17l19 101q30 -7 109 -7h304l-11 -58q-126 -128 -209.5 -283t-83.5 -257q0 -27 7 -41h-110z" />
    <glyph glyph-name="eight" unicode="8" horiz-adv-x="500" 
d="M200 -12q-82 0 -131 36t-49 102q0 74 52.5 129.5t108.5 76.5l1 4q-71 51 -71 129q0 83 65.5 141.5t157.5 58.5q71 0 113.5 -36.5t42.5 -97.5q0 -67 -42 -114.5t-92 -72.5l-2 -4q94 -55 94 -145q0 -89 -69 -148t-179 -59zM294 372q114 62 114 143q0 34 -23 54t-65 20
q-50 0 -85 -31.5t-35 -79.5q0 -62 94 -106zM215 64q63 0 104 31.5t41 80.5q0 71 -120 124q-60 -27 -96 -69.5t-36 -86.5q0 -40 28.5 -60t78.5 -20z" />
    <glyph glyph-name="nine" unicode="9" horiz-adv-x="499" 
d="M168 -12q-37 0 -82 10.5t-55 11.5l41 95q33 -40 106 -40q61 0 122.5 66t82.5 178q-29 -27 -70 -44t-80 -17q-72 0 -117.5 41.5t-45.5 112.5q0 105 67 177t166 72q80 0 131.5 -56.5t51.5 -150.5q0 -193 -92.5 -324.5t-225.5 -131.5zM249 323q37 0 77 21t71 62
q8 79 -19.5 124t-85.5 45q-53 0 -93 -48t-40 -110q0 -43 23.5 -68.5t66.5 -25.5z" />
    <glyph glyph-name="colon" unicode=":" horiz-adv-x="253" 
d="M154 347q-22 0 -36.5 14.5t-14.5 36.5q0 31 23.5 55.5t53.5 24.5q22 0 36 -14.5t14 -37.5q0 -32 -22.5 -55.5t-53.5 -23.5zM85 -12q-23 0 -37 14t-14 37q0 31 23.5 55.5t53.5 24.5q21 0 35.5 -14.5t14.5 -37.5q0 -31 -23 -55t-53 -24z" />
    <glyph glyph-name="semicolon" unicode=";" horiz-adv-x="252" 
d="M147 328q-23 0 -37 14t-14 37q0 31 23 55.5t54 24.5q21 0 35.5 -14.5t14.5 -37.5q0 -31 -23 -55t-53 -24zM-13 -171l-10 50q99 38 115 120q-3 -1 -10 -1q-22 1 -36.5 12.5t-14.5 33.5q0 31 22.5 52.5t54.5 21.5q26 0 40.5 -17.5t14.5 -49.5q0 -69 -49 -131.5t-127 -90.5z
" />
    <glyph glyph-name="less" unicode="&#x3c;" horiz-adv-x="444" 
d="M408 408q-19 3 -58 -14l-222 -97l185 -95q33 -17 52 -14l-59 -90q-9 16 -41 33l-224 119l18 96l271 118q43 21 54 34z" />
    <glyph glyph-name="equal" unicode="=" horiz-adv-x="485" 
d="M72 329l19 99q14 -10 54 -10h241q41 0 58 10l-19 -99q-13 10 -54 10h-241q-40 0 -58 -10zM41 167l19 99q13 -10 54 -10h241q41 0 58 10l-19 -99q-14 10 -54 10h-241q-41 0 -58 -10z" />
    <glyph glyph-name="greater" unicode="&#x3e;" horiz-adv-x="444" 
d="M179 464l224 -118l-18 -96l-271 -119q-44 -20 -54 -33l-24 90q18 -3 58 14l222 96l-185 96q-33 17 -52 14l59 90q6 -15 41 -34z" />
    <glyph glyph-name="question" unicode="?" horiz-adv-x="419" 
d="M128 211q10 49 30.5 85t43.5 54.5t48.5 37t46 33.5t33.5 43t13 67q0 34 -23 52.5t-60 18.5q-87 0 -134 -58l-28 92q20 1 78 22t101 21q69 0 112 -33.5t43 -97.5q0 -62 -19.5 -103.5t-49 -63t-60 -40.5t-57 -51t-35.5 -79h-83zM132 -12q-23 0 -37.5 12.5t-14.5 34.5
q0 33 22 56t54 23q25 0 39.5 -13t14.5 -35q0 -33 -23 -55.5t-55 -22.5z" />
    <glyph glyph-name="at" unicode="@" horiz-adv-x="798" 
d="M336 -62q-121 0 -195 71t-74 187q0 166 114.5 282.5t280.5 116.5q118 0 193.5 -71t75.5 -184q0 -112 -54.5 -192.5t-132.5 -80.5q-45 0 -69 23.5t-23 67.5q-37 -58 -106 -58q-51 0 -81 30t-30 85q0 85 50 144t123 59q64 0 79 -48l13 38h62l-40 -207q-7 -42 -1 -58t28 -16
q45 0 78.5 60t33.5 142q0 90 -57.5 144t-154.5 54q-128 0 -220 -95t-92 -224q0 -92 58 -147t154 -55q52 0 96 26l-17 -90q-60 -4 -92 -4zM361 157q31 0 58 24.5t43 59.5l7 39q0 36 -18 58t-50 22q-41 0 -69 -40t-28 -99q0 -64 57 -64z" />
    <glyph glyph-name="A" unicode="A" horiz-adv-x="588" 
d="M531 0h-127q17 27 6 120l-8 72h-234l-39 -72q-47 -90 -39 -120h-127q45 61 82 132l215 409q47 92 48 115h133q-8 -25 4 -115l57 -409q15 -102 29 -132zM205 267h189l-37 303z" />
    <glyph glyph-name="B" unicode="B" horiz-adv-x="580" 
d="M18 0q25 33 43 121l80 413q9 52 10 71t-7 51h211q201 0 201 -139q0 -59 -39.5 -106.5t-98.5 -57.5v-3q57 -7 87.5 -43t30.5 -92q0 -105 -74.5 -160t-211.5 -55h-232zM203 384h96q80 0 123.5 32t43.5 92q0 70 -120 70h-107zM142 78h117q187 0 187 132q0 100 -162 100h-97z
" />
    <glyph glyph-name="C" unicode="C" horiz-adv-x="554" 
d="M287 -14q-111 0 -170.5 68t-59.5 204q0 172 87.5 291.5t228.5 119.5q47 0 84.5 -12t64 -26.5t39.5 -16.5l-51 -94q-17 27 -56.5 47t-86.5 20q-90 0 -152.5 -97t-62.5 -225q0 -196 146 -196q114 0 163 52l29 -98q-12 0 -80 -18.5t-123 -18.5z" />
    <glyph glyph-name="D" unicode="D" horiz-adv-x="605" 
d="M18 0q26 34 43 121l80 413q18 87 4 122h170q122 0 194 -64t72 -189q0 -196 -96.5 -299.5t-279.5 -103.5h-187zM143 80h72q130 0 201 79.5t71 232.5q0 184 -182 184h-66z" />
    <glyph glyph-name="E" unicode="E" horiz-adv-x="510" 
d="M425 -7q-45 7 -119 7h-288q23 35 40 121l81 413q16 84 6 122h272q72 0 120 7l-20 -101q-35 15 -116 15h-165l-37 -195h122q87 0 121 10l-19 -99q-30 10 -117 10h-122l-45 -224h182q81 0 123 15z" />
    <glyph glyph-name="F" unicode="F" horiz-adv-x="499" 
d="M18 0q23 35 40 121l81 413q16 84 6 122h280q82 0 120 7l-20 -101q-31 15 -116 15h-173l-44 -230h129q80 0 120 10l-19 -99q-36 10 -116 10h-129l-29 -147q-16 -88 -7 -121h-123z" />
    <glyph glyph-name="G" unicode="G" horiz-adv-x="593" 
d="M296 -14q-239 0 -239 271q0 172 90.5 292t232.5 120q49 0 88 -12t66 -26.5t40 -17.5l-54 -92q-15 27 -56 46.5t-91 19.5q-88 0 -154.5 -98t-66.5 -224q0 -198 153 -198q69 0 121 38l28 146h-25q-69 0 -113 -11l20 100q35 -8 109 -8h117q-13 -27 -31 -119l-15 -77
q-13 -70 -12 -97q-5 -1 -79 -27t-129 -26z" />
    <glyph glyph-name="H" unicode="H" horiz-adv-x="640" 
d="M18 0q25 45 40 121l80 413q16 87 6 122h124q-24 -43 -39 -122l-29 -149h296l29 149q16 89 6 122h124q-24 -38 -40 -122l-80 -413q-16 -88 -7 -121h-124q24 38 40 121l35 183h-296l-35 -183q-16 -87 -7 -121h-123z" />
    <glyph glyph-name="I" unicode="I" horiz-adv-x="253" 
d="M18 0q25 45 40 121l80 413q16 87 6 122h124q-24 -43 -39 -122l-81 -413q-17 -83 -7 -121h-123z" />
    <glyph glyph-name="J" unicode="J" horiz-adv-x="403" 
d="M119 -12q-40 0 -88 17t-61 17l50 109q11 -23 39.5 -41.5t66.5 -18.5q42 0 67.5 31t38.5 100l65 332q17 88 3 122h127q-22 -36 -39 -122l-65 -332q-22 -112 -69 -163t-135 -51z" />
    <glyph glyph-name="K" unicode="K" horiz-adv-x="598" 
d="M17 0q25 39 41 121l81 413q9 51 10.5 67.5t-3.5 54.5h122q-24 -38 -39 -119l-40 -204h4l247 244q30 30 41.5 45.5t13.5 33.5h140q-42 -26 -135 -120l-132 -135l103 -260q37 -98 71 -141h-136q3 45 -21 107l-88 227l-133 -129l-17 -86q-15 -84 -6 -119h-124z" />
    <glyph glyph-name="L" unicode="L" horiz-adv-x="476" 
d="M407 -7q-35 7 -117 7h-272q23 35 40 121l81 413q16 84 6 122h124q-25 -38 -40 -122l-90 -457h166q86 0 122 20z" />
    <glyph glyph-name="M" unicode="M" horiz-adv-x="733" 
d="M606 656h142q-23 -30 -40 -122l-81 -413q-18 -90 -6 -121h-122q21 28 40 121l47 245q22 114 46 179h-3l-205 -366q-50 -88 -51 -119h-87q9 36 -4 119l-63 366h-4q0 -57 -24 -179l-47 -245q-18 -91 -7 -121h-119q22 27 40 121l81 413q18 90 6 122h142l75 -435z" />
    <glyph glyph-name="N" unicode="N" horiz-adv-x="639" 
d="M18 0q23 35 40 121l81 413q16 84 6 122h120l197 -491h4q0 50 11 107l52 265q14 85 6 119h119q-24 -40 -40 -122l-76 -390q-19 -101 -12 -144h-95l-215 532h-4q2 -46 -9 -104l-60 -308q-17 -85 -7 -120h-118z" />
    <glyph glyph-name="O" unicode="O" horiz-adv-x="637" 
d="M288 -12q-100 0 -164.5 73t-64.5 201q0 174 84 290t239 116q100 0 164.5 -73t64.5 -200q0 -114 -34.5 -204t-109 -146.5t-179.5 -56.5zM295 71q69 0 120.5 44.5t76.5 115t25 156.5q0 96 -41 147t-101 51q-69 0 -120.5 -44t-76 -115t-24.5 -157q0 -96 40 -147t101 -51z
" />
    <glyph glyph-name="P" unicode="P" horiz-adv-x="549" 
d="M18 0q23 35 40 121l81 413q16 85 6 122h208q94 0 153.5 -42.5t59.5 -134.5q0 -114 -80 -182.5t-212 -68.5h-105l-21 -107q-17 -86 -6 -121h-124zM184 308h94q96 0 146.5 42t50.5 124q0 102 -147 102h-92z" />
    <glyph glyph-name="Q" unicode="Q" horiz-adv-x="637" 
d="M488 -92q50 0 79 19l15 -87q-8 0 -41 -4t-55 -4q-88 0 -149 44t-82 114q-88 12 -142 83.5t-54 188.5q0 174 84 290t239 116q100 0 164.5 -73t64.5 -200q0 -161 -71 -273t-204 -131q17 -40 59 -61.5t93 -21.5zM154 269q0 -96 40 -147t101 -51q69 0 120.5 44.5t76.5 115
t25 156.5q0 96 -41 147t-101 51q-69 0 -120.5 -44t-76 -115t-24.5 -157z" />
    <glyph glyph-name="R" unicode="R" horiz-adv-x="572" 
d="M18 0q23 35 40 121l81 413q16 84 6 122h214q95 0 151 -41.5t56 -127.5q0 -84 -49 -141.5t-134 -71.5l57 -148q35 -92 68 -126h-145q9 36 -18 111l-57 152h-112l-28 -142q-16 -91 -7 -121h-123zM191 343h103q180 0 180 136q0 97 -131 97h-107z" />
    <glyph glyph-name="S" unicode="S" horiz-adv-x="537" 
d="M228 -12q-44 0 -88.5 12t-83.5 28t-55 20l71 105q23 -39 67.5 -62t96.5 -23q68 0 111.5 34t43.5 92q0 62 -87 96l-63 25q-124 49 -124 152q0 94 65 147.5t166 53.5q40 0 77 -9.5t72.5 -23.5t46.5 -17l-63 -96q-48 65 -141 65q-56 0 -93 -30.5t-37 -80.5q0 -32 22 -51.5
t63 -35.5l63 -25q128 -50 128 -158q0 -100 -73 -159t-185 -59z" />
    <glyph glyph-name="T" unicode="T" horiz-adv-x="524" 
d="M153 0q26 48 41 121l88 456h-78q-74 0 -121 -15l19 101q48 -7 117 -7h246q70 0 119 7l-19 -101q-42 15 -115 15h-78l-88 -456q-16 -77 -7 -121h-124z" />
    <glyph glyph-name="U" unicode="U" horiz-adv-x="630" 
d="M273 -12q-112 0 -164.5 66.5t-23.5 214.5l51 265q17 89 7 122h124q-23 -36 -41 -122l-51 -266q-38 -201 107 -201q148 0 187 201l51 266q17 87 7 122h120q-25 -41 -40 -122l-52 -265q-28 -149 -96.5 -215t-185.5 -66z" />
    <glyph glyph-name="V" unicode="V" horiz-adv-x="572" 
d="M167 0q12 49 -2 168l-41 331q-9 74 -15 104t-19 53h124q-14 -34 -3 -135l37 -318q8 -66 8 -109h8q13 45 46 110l160 317q50 100 49 135h123q-23 -27 -41 -57t-54 -100l-168 -331q-37 -73 -50 -106.5t-15 -61.5h-147z" />
    <glyph glyph-name="W" unicode="W" horiz-adv-x="819" 
d="M759 656h120q-27 -35 -66 -128l-164 -413q-34 -83 -31 -115h-148q16 37 12 114l-17 393l-175 -393q-41 -90 -34 -114h-149q18 36 16 115l-7 417q-1 84 -16 124h125q-19 -34 -18 -117l2 -417l190 426q36 81 30 108h130q-11 -30 -8 -108l18 -425l163 416q2 5 6.5 17t6 16.5
t5 14t4.5 13.5l3 12t2.5 12.5t1 10.5t0 11t-1.5 10z" />
    <glyph glyph-name="X" unicode="X" horiz-adv-x="556" 
d="M477 656h131q-45 -34 -96 -105l-159 -221l79 -212q32 -85 62 -118h-136q9 32 -14 96l-65 181l-130 -181q-45 -62 -48 -96h-133q21 17 31 26t29.5 32t46.5 60l164 225l-75 208q-26 73 -54 105h135q-7 -16 -5.5 -31.5t12.5 -49.5l62 -179l126 179q24 35 30.5 49.5t6.5 31.5
z" />
    <glyph glyph-name="Y" unicode="Y" horiz-adv-x="526" 
d="M472 656h123q-29 -28 -86 -112l-199 -293l-26 -130q-18 -92 -4 -121h-128q14 19 22 41.5t19 79.5l26 130l-86 296q-22 76 -43 109h123q-5 -19 -3 -38.5t15 -69.5l57 -214l142 214q29 45 38.5 65.5t9.5 42.5z" />
    <glyph glyph-name="Z" unicode="Z" horiz-adv-x="559" 
d="M280 656h298l-11 -70q-17 -9 -30 -22.5t-52 -61.5l-341 -420h209q82 0 123 22l-21 -112q-27 8 -118 8h-330l9 71q20 13 36 30t62 74l323 398h-173q-86 0 -123 -21l21 111q28 -7 118 -7z" />
    <glyph glyph-name="bracketleft" unicode="[" horiz-adv-x="336" 
d="M196 -172q-49 20 -183 20l167 860q135 0 191 20l-14 -73h-100l-147 -754h100z" />
    <glyph glyph-name="backslash" unicode="\" horiz-adv-x="214" 
d="M96 -160q16 44 7 127l-83 743h98q-17 -40 -5 -144l82 -726h-99z" />
    <glyph glyph-name="bracketright" unicode="]" horiz-adv-x="336" 
d="M-22 -172l14 73h100l147 754h-100l14 73q48 -20 183 -20l-167 -860q-136 0 -191 -20z" />
    <glyph glyph-name="asciicircum" unicode="^" horiz-adv-x="408" 
d="M359 268l-96 -33q4 19 -4 55l-26 132l-77 -132q-22 -37 -24 -55l-83 33q16 9 38 47l130 215h76l45 -215q8 -38 21 -47z" />
    <glyph glyph-name="underscore" unicode="_" horiz-adv-x="504" 
d="M9 -128l12 59h467l-12 -59h-467z" />
    <glyph glyph-name="grave" unicode="`" horiz-adv-x="362" 
d="M304 573q-88 50 -130 151l62 53q26 -104 105 -167z" />
    <glyph glyph-name="a" unicode="a" horiz-adv-x="530" 
d="M179 -12q-67 0 -106 47.5t-39 133.5q0 142 81.5 236.5t185.5 94.5q58 0 113 -30l9 17h84l-73 -356q-21 -101 -5 -131h-97q-4 29 4 66h-5q-30 -34 -70.5 -56t-81.5 -22zM198 67q70 0 157 113l41 206q-42 34 -93 34q-71 0 -124 -69t-53 -174q0 -52 19 -81t53 -29z" />
    <glyph glyph-name="b" unicode="b" horiz-adv-x="526" 
d="M224 -10q-73 0 -122 37l-14 -27h-68l116 570q22 107 10 142h109l-61 -288q68 77 152 77q68 0 106.5 -47t38.5 -136q0 -139 -81.5 -233.5t-185.5 -94.5zM223 70q71 0 123.5 70t52.5 177q0 50 -18.5 77.5t-52.5 27.5q-32 0 -78.5 -35t-80.5 -86l-41 -194q38 -37 95 -37z
" />
    <glyph glyph-name="c" unicode="c" horiz-adv-x="429" 
d="M210 -16q-81 0 -127 51.5t-46 143.5q0 146 74.5 235t177.5 89q43 0 90.5 -20.5t51.5 -21.5l-51 -93q-12 23 -38.5 38t-60.5 15q-59 0 -105 -70t-46 -164q0 -62 26.5 -92t66.5 -30q41 0 73.5 17t47.5 40l36 -92q-4 0 -62 -23t-108 -23z" />
    <glyph glyph-name="d" unicode="d" horiz-adv-x="526" 
d="M179 -12q-68 0 -106.5 47t-38.5 136q0 139 81.5 233.5t185.5 94.5q54 0 112 -24l21 102q11 56 13 81.5t-5 53.5h108l-116 -581q-8 -44 -10.5 -59t-2 -36.5t8.5 -35.5h-97q-4 28 3 66h-4q-66 -78 -153 -78zM198 67q36 0 82 39t79 96l37 189q-42 28 -93 28q-71 0 -124 -70
t-53 -177q0 -50 19 -77.5t53 -27.5z" />
    <glyph glyph-name="e" unicode="e" horiz-adv-x="492" 
d="M222 -16q-83 0 -133.5 52t-50.5 145q0 142 73.5 232t181.5 90q77 0 122.5 -44.5t45.5 -110.5q0 -140 -202 -140h-129q-8 -63 22.5 -104t82.5 -41q93 0 134 54l33 -86q-88 -47 -180 -47zM143 279h95q78 0 105.5 18t27.5 50t-22.5 54.5t-65.5 22.5q-52 0 -90.5 -42.5
t-49.5 -102.5z" />
    <glyph glyph-name="f" unicode="f" horiz-adv-x="298" 
d="M43 0l82 407h-64l16 80h64l14 69q16 80 67.5 123.5t124.5 43.5q51 0 111 -25l-34 -82q-27 31 -86 31q-73 0 -93 -92l-14 -68h112l-16 -80h-113l-58 -294q-11 -57 -11.5 -79.5t7.5 -33.5h-109z" />
    <glyph glyph-name="g" unicode="g" horiz-adv-x="519" 
d="M168 -219q-86 0 -176 51l49 93q47 -67 128 -67q60 0 98.5 33.5t53.5 93.5l19 81h-4q-63 -77 -152 -77q-68 0 -106.5 46.5t-38.5 135.5q0 139 82 233.5t186 94.5q60 0 120 -29l9 17h80l-107 -500q-44 -206 -241 -206zM200 70q39 0 83.5 33t78.5 86l43 198q-43 32 -98 32
q-71 0 -123.5 -70t-52.5 -177q0 -50 18 -76t51 -26z" />
    <glyph glyph-name="h" unicode="h" horiz-adv-x="530" 
d="M24 0l115 577q20 97 7 135h102l-54 -287h5q28 33 72 55.5t90 22.5q72 0 102.5 -52.5t14.5 -135.5l-40 -203q-14 -77 -10 -94q2 -10 7 -18h-109l62 313q22 109 -56 109q-36 0 -80 -30.5t-76 -73.5l-40 -206q-14 -77 -10 -94q2 -10 7 -18h-109z" />
    <glyph glyph-name="i" unicode="i" horiz-adv-x="238" 
d="M185 576q-23 0 -37 13t-14 38q0 34 20 54.5t50 20.5q23 0 36.5 -13.5t13.5 -38.5q0 -34 -19.5 -54t-49.5 -20zM26 0l69 352q11 55 13 77.5t-5 57.5h110l-75 -375q-19 -89 -3 -112h-109z" />
    <glyph glyph-name="j" unicode="j" horiz-adv-x="233" 
d="M187 576q-23 0 -36.5 13t-13.5 38q0 34 20 54.5t49 20.5q23 0 36.5 -13.5t13.5 -38.5q0 -34 -19.5 -54t-49.5 -20zM-55 -216q-43 0 -81 15l32 84q20 -20 48 -20q32 0 52 30.5t36 108.5l71 350q11 57 12.5 77.5t-4.5 57.5h109l-99 -485q-23 -115 -64 -166.5t-112 -51.5z
" />
    <glyph glyph-name="k" unicode="k" horiz-adv-x="500" 
d="M24 0l115 577q19 99 7 135h109l-61 -306q28 43 72 69t94 26q56 0 92 -33.5t36 -88.5q0 -70 -42.5 -115.5t-107.5 -65.5l51 -103q24 -48 35 -64.5t30 -30.5h-110l-101 209v37q66 2 109.5 35t43.5 85q0 26 -15 41.5t-40 15.5q-42 0 -90.5 -40t-82.5 -107l-32 -164
q-10 -53 -11 -72t8 -40h-109z" />
    <glyph glyph-name="l" unicode="l" horiz-adv-x="233" 
d="M24 0l112 568q21 99 7 144h112l-117 -591q-19 -94 -1 -121h-113z" />
    <glyph glyph-name="m" unicode="m" horiz-adv-x="803" 
d="M22 0l70 354q11 54 13 76t-5 57h104l-15 -72h4q73 84 157 84q102 0 114 -94q84 94 170 94q78 0 106 -52t9 -145l-38 -189q-7 -36 -9.5 -49.5t-2 -33.5t8.5 -30h-109l60 299q12 60 -0.5 89.5t-54.5 29.5q-56 0 -139 -95l-42 -211q-11 -57 -12 -77.5t8 -34.5h-109l60 299
q14 58 3 88.5t-54 30.5q-28 0 -68 -27t-76 -68l-41 -211q-11 -56 -11.5 -77.5t7.5 -34.5h-108z" />
    <glyph glyph-name="n" unicode="n" horiz-adv-x="531" 
d="M24 0l68 344q20 103 8 143h102l-9 -62h4q30 34 73.5 56t89.5 22q72 0 103.5 -50t15.5 -131l-39 -201q-19 -97 -3 -121h-111l62 313q22 109 -57 109q-35 0 -79 -30.5t-76 -73.5l-38 -197q-19 -96 -4 -121h-110z" />
    <glyph glyph-name="o" unicode="o" horiz-adv-x="527" 
d="M222 -16q-86 0 -135.5 51.5t-49.5 144.5q0 139 77 231t191 92q85 0 134.5 -51.5t49.5 -144.5q0 -139 -76.5 -231t-190.5 -92zM232 66q65 0 115 70t50 170q0 53 -26 84t-76 31q-65 0 -115.5 -70t-50.5 -170q0 -53 26.5 -84t76.5 -31z" />
    <glyph glyph-name="p" unicode="p" horiz-adv-x="523" 
d="M-24 -200l113 556q20 104 11 131h100l-14 -64h5q66 78 152 78q69 0 107.5 -47t38.5 -136q0 -139 -81.5 -233.5t-185.5 -94.5q-61 0 -114 30l-23 -109q-16 -81 -5 -111h-104zM220 70q71 0 124 70t53 177q0 50 -19 77.5t-53 27.5q-32 0 -79 -36t-80 -87l-40 -192
q38 -37 94 -37z" />
    <glyph glyph-name="q" unicode="q" horiz-adv-x="536" 
d="M280 -200l57 268h-3q-68 -80 -154 -80q-69 0 -107.5 47t-38.5 136q0 138 82 233t185 95q55 0 115 -25l11 13h80l-111 -555q-11 -58 -13 -79.5t8 -52.5h-111zM198 67q36 0 82.5 40t80.5 99l36 183q-40 30 -94 30q-71 0 -124 -70t-53 -177q0 -50 19 -77.5t53 -27.5z" />
    <glyph glyph-name="r" unicode="r" horiz-adv-x="360" 
d="M26 0l68 344q20 105 6 143h102l-10 -73h4q24 38 63 62.5t74 24.5q34 0 56 -13l-33 -89q-14 18 -36 18q-33 0 -76 -40.5t-77 -111.5l-26 -134q-19 -107 2 -131h-117z" />
    <glyph glyph-name="s" unicode="s" horiz-adv-x="413" 
d="M182 -12q-39 0 -73.5 10t-70 27.5t-41.5 19.5l59 95q40 -76 133 -76q36 0 59 17.5t23 49.5q0 27 -18 43t-54 33l-26 13q-98 49 -98 136q0 66 46 106.5t119 40.5q31 0 60 -9t57 -22t39 -16l-49 -93q-36 63 -113 63q-31 0 -51 -16.5t-20 -42.5q0 -43 56 -72l31 -16
q24 -12 38.5 -21t33.5 -25.5t28 -40t9 -53.5q0 -68 -47.5 -109.5t-129.5 -41.5z" />
    <glyph glyph-name="t" unicode="t" horiz-adv-x="350" 
d="M183 -12q-65 0 -95.5 46t-14.5 124l53 252h-71l15 77h74l19 86h86l-17 -86h122l-14 -77h-125l-52 -255q-10 -49 2 -69.5t45 -20.5q44 0 68 26l20 -89q-8 0 -47.5 -7t-67.5 -7z" />
    <glyph glyph-name="u" unicode="u" horiz-adv-x="525" 
d="M166 -16q-68 0 -96 46.5t-12 127.5l39 208q6 33 7.5 43t3.5 30t0 30t-8 18h111l-62 -313q-22 -109 41 -109q39 0 82 37t79 91l35 173q20 97 3 121h111l-69 -344q-20 -101 -2 -143h-104l8 72h-5q-30 -36 -73 -62t-89 -26z" />
    <glyph glyph-name="v" unicode="v" horiz-adv-x="472" 
d="M138 0l-54 371q-13 92 -35 116h108l40 -295q13 -89 10 -122h5q12 30 75.5 150.5t86.5 172.5q28 62 18 94h111q-20 -61 -125 -261.5t-114 -225.5h-126z" />
    <glyph glyph-name="w" unicode="w" horiz-adv-x="726" 
d="M105 0l-26 384q-3 33 -5 46.5t-7 29t-15 27.5h108l15 -278q4 -110 3 -140h4q21 62 97 226q74 158 69 192h126l17 -278q5 -74 0 -140h4q12 37 58.5 138t75 178t18.5 102h104q-19 -62 -107.5 -263t-96.5 -224h-128l-14 264q-2 41 -2 141h-4q-15 -62 -50 -141
q-13 -30 -39.5 -84.5t-44.5 -95.5t-32 -84h-128z" />
    <glyph glyph-name="x" unicode="x" horiz-adv-x="437" 
d="M339 91q28 -67 53 -91h-107l-47 122q-2 5 -29 78h-4q-28 -46 -52 -77l-45 -58q-34 -46 -34 -65h-113l210 265l-53 134q-28 71 -48 88h104l40 -104q19 -53 28 -83h5q24 40 57 82l31 39q35 44 32 66h112l-200 -250z" />
    <glyph glyph-name="y" unicode="y" horiz-adv-x="459" 
d="M19 -200q-14 0 -37.5 3t-34.5 1l29 94q18 -19 49 -19q66 0 117 103l8 17l-66 386q-14 81 -35 102h106l42 -273q11 -77 12 -124h4l62 124l87 174q38 77 29 99h109l-273 -527q-37 -71 -91 -115.5t-117 -44.5z" />
    <glyph glyph-name="z" unicode="z" horiz-adv-x="414" 
d="M423 487l-7 -59l-299 -352h150q65 0 92 18l-17 -94h-351l8 60l299 351h-132q-61 0 -85 -18l19 94h323z" />
    <glyph glyph-name="braceleft" unicode="{" horiz-adv-x="349" 
d="M210 -162l-54 10q-51 10 -75.5 28.5t-24.5 58.5q0 42 27 131.5t27 126.5q0 58 -75 48l14 74q45 -6 69 14t30 53t14 95t15 98q14 71 46 96.5t100 36.5l59 10l-15 -75l-27 4q-35 5 -52.5 -15t-25.5 -64q-6 -32 -13 -75t-11 -71t-4 -31q-10 -51 -30 -76.5t-60 -34.5v-4
q51 -13 51 -77q0 -48 -25.5 -135.5t-25.5 -122.5q0 -25 11.5 -35t40.5 -6l27 4z" />
    <glyph glyph-name="bar" unicode="|" horiz-adv-x="461" 
d="M92 -158q18 19 32 86l134 691q12 65 1 86h109q-16 -18 -30 -86l-134 -691q-13 -66 -2 -86h-110z" />
    <glyph glyph-name="braceright" unicode="}" horiz-adv-x="347" 
d="M-20 -162l15 75l27 -4q34 -5 51 14.5t26 65.5q6 28 13.5 72.5t11.5 74.5l4 29q10 51 30 76.5t59 34.5v4q-50 13 -50 77q0 47 25.5 135t25.5 123q0 49 -52 41l-27 -4l13 66l54 -10q51 -9 75 -28t24 -59q0 -41 -26.5 -131t-26.5 -127q0 -57 75 -47l-15 -76q-45 6 -69 -13.5
t-30 -52.5q-6 -32 -13.5 -94t-14.5 -98q-14 -72 -46 -97.5t-100 -36.5z" />
    <glyph glyph-name="asciitilde" unicode="~" horiz-adv-x="474" 
d="M298 291q-39 0 -77.5 26t-56.5 26q-31 0 -42 -53h-81q14 69 51 104.5t83 35.5q39 0 77.5 -26t57.5 -26q32 0 42 52h81q-13 -69 -51 -104t-84 -35z" />
    <glyph glyph-name="exclamdown" unicode="&#xa1;" horiz-adv-x="293" 
d="M242 546q24 0 39.5 -14t15.5 -38q0 -35 -24 -60t-58 -25q-24 0 -39 14.5t-15 38.5q0 34 24 59t57 25zM239 312l-59 -304q-22 -113 -8 -144h-124q14 19 23 46t23 98l59 304h86z" />
    <glyph glyph-name="cent" unicode="&#xa2;" horiz-adv-x="470" 
d="M352 498q56 -3 118 -27l-48 -92q-26 35 -86 39l-67 -349q67 4 111 42l11 -91q-76 -28 -139 -31q-9 -60 -3 -87l-99 1q19 34 30 89q-140 25 -140 175q0 131 65 220t173 108q12 63 5 95h99q-19 -35 -30 -92zM133 183q0 -86 64 -107l65 333q-59 -21 -94 -81t-35 -145z" />
    <glyph glyph-name="sterling" unicode="&#xa3;" horiz-adv-x="469" 
d="M318 560q-55 0 -86.5 -44.5t-31.5 -121.5q0 -26 6 -74h86q41 0 58 10l-16 -84q-14 10 -54 10h-65q2 -26 2 -40q0 -97 -46 -140h126q83 0 121 17l-19 -100q-36 7 -117 7h-292q21 34 27 58l2 9q55 0 83 34t28 87q0 20 -6 68h-30q-41 0 -58 -10l16 84q14 -10 54 -10h10
q-3 27 -3 56q0 127 63.5 190t151.5 63q35 0 72 -10.5t57 -24.5l-29 -85q-36 51 -110 51z" />
    <glyph glyph-name="currency" unicode="&#xa4;" horiz-adv-x="501" 
d="M387 191q38 -45 65 -57l-93 -77q-8 33 -42 75q-46 -23 -93 -23q-49 0 -84 23q-49 -42 -72 -75l-62 77q34 14 86 57q-9 23 -9 52q0 70 45 126q-38 45 -65 57l92 77q11 -36 44 -76q44 22 91 22q48 0 83 -23q54 47 72 76l63 -77q-34 -13 -88 -57q10 -23 10 -53
q0 -68 -43 -124zM239 189q44 0 72 33t28 85q0 62 -65 62q-43 0 -71 -33t-28 -85q0 -62 64 -62z" />
    <glyph glyph-name="yen" unicode="&#xa5;" horiz-adv-x="541" 
d="M596 618q-45 -45 -103 -125l-141 -196h56q40 0 57 10l-15 -78h-137l-9 -46h137l-15 -79q-14 10 -54 10h-81q-14 -78 -5 -114h-125q23 40 40 114h-77q-41 0 -58 -10l15 79h133l8 46h-132l15 78q14 -10 55 -10h50l-64 196q-27 81 -55 125h123q-4 -21 -1 -41t18 -67l57 -185
l130 185q54 76 60 108h118z" />
    <glyph glyph-name="brokenbar" unicode="&#xa6;" horiz-adv-x="461" 
d="M186 321q18 22 30 86l37 184q11 64 0 86h110q-18 -19 -31 -86l-36 -184q-12 -65 -1 -86h-109zM98 -130q18 21 31 86l35 184q12 64 2 86h110q-19 -21 -32 -86l-35 -184q-14 -63 -2 -86h-109z" />
    <glyph glyph-name="section" unicode="&#xa7;" horiz-adv-x="642" 
d="M217 -100q-100 0 -151 30l24 123q11 -34 44 -57.5t77 -23.5q49 0 87 40.5t38 91.5q0 30 -17.5 61t-43 59.5t-50.5 58.5t-42.5 69.5t-17.5 80.5q0 105 79.5 177t195.5 72q45 0 85.5 -11t57.5 -24l-23 -116q-7 35 -40.5 57t-76.5 22q-41 0 -73 -41.5t-32 -93.5
q0 -31 18 -62.5t43.5 -60t51 -58.5t43.5 -68t18 -79q0 -108 -82.5 -177.5t-212.5 -69.5zM334 -21q50 20 79.5 62.5t29.5 94.5q0 43 -27 87.5t-59 75.5t-59 74.5t-27 85.5q0 35 18 75t44 64q-46 -19 -74.5 -61t-28.5 -92q0 -36 18 -71.5t43 -65t50.5 -59t43.5 -64t18 -68.5
t-19.5 -73t-49.5 -65z" />
    <glyph glyph-name="dieresis" unicode="&#xa8;" horiz-adv-x="457" 
d="M198 587q-19 0 -30.5 11.5t-11.5 29.5q0 25 19 43.5t44 18.5q19 0 30 -11.5t11 -29.5q0 -24 -18.5 -43t-43.5 -19zM392 587q-18 0 -29.5 11.5t-11.5 29.5q0 24 18.5 43t43.5 19q19 0 30.5 -11.5t11.5 -29.5q0 -25 -19 -43.5t-44 -18.5z" />
    <glyph glyph-name="copyright" unicode="&#xa9;" horiz-adv-x="884" 
d="M377 -16q-124 0 -204 79t-80 198q0 174 121.5 291t295.5 117q123 0 202.5 -79t79.5 -198q0 -168 -121.5 -288t-293.5 -120zM389 52q131 0 233 100t102 229q0 96 -64 158t-163 62q-134 0 -235 -97t-101 -231q0 -96 64 -158.5t164 -62.5zM414 128q-69 0 -108.5 36
t-39.5 106q0 113 63 184.5t160 71.5q21 0 51.5 -5.5t38.5 -5.5l-19 -81q-26 30 -75 30q-64 0 -104 -57t-40 -124q-1 -51 21.5 -72t69.5 -21q50 0 86 31l-11 -82q-7 -1 -40 -6t-53 -5z" />
    <glyph glyph-name="ordfeminine" unicode="&#xaa;" horiz-adv-x="398" 
d="M131 272q-45 0 -73 23.5t-28 65.5q0 67 53 103.5t149 36.5h52l4 28q7 38 -5.5 53t-54.5 15q-75 0 -120 -42l-14 78q11 1 61.5 17.5t87.5 16.5q153 0 126 -137l-31 -155q-15 -67 -8 -93h-87l13 46h-6q-44 -56 -119 -56zM161 336q24 0 55 21t48 49l7 32h-51
q-108 0 -108 -64q0 -38 49 -38z" />
    <glyph glyph-name="guillemotleft" unicode="&#xab;" horiz-adv-x="455" 
d="M156 64q-52 99 -112 145l17 86q87 54 168 145l32 -36q-75 -93 -149 -152q53 -64 89 -154zM301 64q-21 41 -52 82t-59 63l16 86q85 51 168 145l32 -36q-75 -93 -149 -152q53 -63 90 -154z" />
    <glyph glyph-name="logicalnot" unicode="&#xac;" horiz-adv-x="422" 
d="M372 384q-14 -18 -21 -56l-18 -93q-9 -39 -1 -56h-105q14 17 21 56l12 60h-161q-41 0 -58 -10l21 109q13 -10 54 -10h256z" />
    <glyph glyph-name="uni00AD" unicode="&#xad;" horiz-adv-x="318" 
d="M37 212l15 77h231l-14 -77h-232z" />
    <glyph glyph-name="registered" unicode="&#xae;" horiz-adv-x="548" 
d="M376 767q86 0 141.5 -55t55.5 -137q0 -117 -85 -199.5t-204 -82.5q-86 0 -141.5 55t-55.5 138q0 116 85 198.5t204 82.5zM295 346q88 0 155.5 64.5t67.5 154.5q0 64 -43 106.5t-110 42.5q-88 0 -155 -64t-67 -155q0 -64 43 -106.5t109 -42.5zM361 650q78 0 78 -57
q0 -33 -21 -58t-56 -33l21 -46q12 -27 26 -43h-72q7 11 -1 38l-18 48h-30l-7 -39q-6 -32 1 -47h-70q13 14 21 47l27 143q7 31 -3 47h104zM329 533q28 0 44 14t16 39q0 30 -43 30h-36l-17 -83h36z" />
    <glyph glyph-name="macron" unicode="&#xaf;" horiz-adv-x="432" 
d="M147 588l12 59h266l-12 -59h-266z" />
    <glyph glyph-name="degree" unicode="&#xb0;" horiz-adv-x="410" 
d="M177 401q-51 0 -84 33t-33 83q0 65 53 116.5t120 51.5q51 0 84 -32.5t33 -81.5q0 -66 -53 -118t-120 -52zM188 453q42 0 73.5 33.5t31.5 77.5q0 31 -19.5 50.5t-50.5 19.5q-43 0 -74.5 -33.5t-31.5 -77.5q0 -32 19.5 -51t51.5 -19z" />
    <glyph glyph-name="plusminus" unicode="&#xb1;" horiz-adv-x="483" 
d="M379 384q41 0 58 10l-19 -99q-14 10 -54 10h-64l-13 -67q-9 -39 -1 -56h-104q14 20 21 56l13 67h-65q-39 0 -58 -10l20 99q13 -10 54 -10h64l13 66q7 40 1 56h104q-13 -15 -21 -56l-13 -66h64zM119 136h212q41 0 58 10l-19 -99q-12 10 -54 10h-213q-41 0 -58 -10l20 99
q13 -10 54 -10z" />
    <glyph glyph-name="uni00B2" unicode="&#xb2;" horiz-adv-x="353" 
d="M79 414l7 53q114 68 170 119t56 102q0 24 -13.5 38t-37.5 14q-61 0 -101 -57l-27 70q13 2 58 23t82 21q52 0 81.5 -26t29.5 -71q0 -110 -192 -227h85q62 0 88 18l-15 -77h-271z" />
    <glyph glyph-name="uni00B3" unicode="&#xb3;" horiz-adv-x="349" 
d="M201 402q-40 0 -82 20.5t-52 22.5l56 72q21 -61 87 -61q36 0 60 19t24 48q0 56 -112 56l10 52q57 0 89 19t32 52q0 41 -52 41q-46 0 -92 -46l-21 67q5 1 50 17t76 16q50 0 79 -21t29 -60q0 -40 -25 -68.5t-71 -38.5q76 -13 76 -78q0 -55 -46.5 -92t-114.5 -37z" />
    <glyph glyph-name="acute" unicode="&#xb4;" horiz-adv-x="363" 
d="M186 573l-34 43q96 54 176 166l48 -58q-83 -102 -190 -151z" />
    <glyph glyph-name="uni00B5" unicode="&#xb5;" horiz-adv-x="660" 
d="M593 487l-71 -367q-15 -82 -10 -120h-103q9 43 22 74h-8q-65 -86 -161 -86q-39 0 -66 18l-11 -55q-14 -83 -7 -122h-124q27 46 42 122l56 290h1l24 126q14 83 5 120h108l-67 -345q-15 -74 64 -74q37 0 80 27t75 73l39 199q17 81 5 120h107z" />
    <glyph glyph-name="paragraph" unicode="&#xb6;" horiz-adv-x="526" 
d="M67 -91l22 113q47 -29 83.5 -8.5t47.5 79.5l42 216q-31 -11 -66 -11q-69 0 -107 39t-38 103q0 100 71 166t179 66h168l-19 -98q-12 15 -47 15l-96 -495q-18 -88 -78 -136.5t-162 -48.5zM224 374q25 0 53 10l40 205h-52z" />
    <glyph glyph-name="periodcentered" unicode="&#xb7;" horiz-adv-x="255" 
d="M115 253q-22 0 -36.5 14.5t-14.5 36.5q0 31 23.5 55.5t53.5 24.5q22 0 36 -14.5t14 -37.5q0 -32 -22.5 -55.5t-53.5 -23.5z" />
    <glyph glyph-name="cedilla" unicode="&#xb8;" horiz-adv-x="336" 
d="M-3 -227l2 51q53 -7 85 6.5t32 42.5q0 34 -68 39l41 91h38l-19 -54q76 -13 76 -68q0 -51 -50 -79.5t-137 -28.5z" />
    <glyph glyph-name="uni00B9" unicode="&#xb9;" horiz-adv-x="316" 
d="M75 414l9 47l91 16l44 230h-86l11 52q47 0 92.5 11t68.5 25l-61 -318l80 -16l-10 -47h-239z" />
    <glyph glyph-name="ordmasculine" unicode="&#xba;" horiz-adv-x="418" 
d="M171 272q-66 0 -103.5 35.5t-37.5 103.5q0 111 62 183.5t156 72.5q65 0 102.5 -35.5t37.5 -103.5q0 -110 -61.5 -183t-155.5 -73zM184 340q54 0 89 50.5t35 130.5q0 78 -73 78q-54 0 -89 -51t-35 -130q0 -78 73 -78z" />
    <glyph glyph-name="guillemotright" unicode="&#xbb;" horiz-adv-x="475" 
d="M82 64l-33 34q67 83 150 154q-56 68 -90 152l46 36q20 -41 51 -82t61 -63l-17 -86q-81 -49 -168 -145zM247 64l-33 34q70 87 150 154q-56 67 -91 152l47 36q49 -98 111 -145l-16 -86q-39 -23 -85.5 -63.5t-82.5 -81.5z" />
    <glyph glyph-name="onequarter" unicode="&#xbc;" horiz-adv-x="751" 
d="M156 -12l484 680h71l-485 -680h-70zM50 285l9 47l91 16l44 230h-86l11 52q47 0 92.5 11t68.5 25l-61 -318l80 -16l-10 -47h-239zM545 0q14 11 21 27.5t14 55.5l3 16h-178l8 43l208 229h76l-42 -220q42 0 60 14l-12 -66h-58l-3 -16q-8 -44 -8 -56t9 -27h-98zM480 151h113
l31 159z" />
    <glyph glyph-name="onehalf" unicode="&#xbd;" horiz-adv-x="826" 
d="M157 -12l485 680h70l-484 -680h-71zM50 285l9 47l91 16l44 230h-86l11 52q47 0 92.5 11t68.5 25l-61 -318l80 -16l-10 -47h-239zM472 0l7 53q114 68 170.5 119t56.5 102q0 23 -14 37.5t-38 14.5q-61 0 -101 -57l-26 70q13 2 58 23t81 21q52 0 81.5 -26t29.5 -71
q0 -109 -191 -227h84q62 0 88 18l-14 -77h-272z" />
    <glyph glyph-name="threequarters" unicode="&#xbe;" horiz-adv-x="745" 
d="M176 273q-40 0 -82 20.5t-52 22.5l56 72q21 -61 87 -61q36 0 60 19t24 48q0 56 -112 56l10 52q57 0 89 19t32 52q0 41 -52 41q-46 0 -92 -46l-21 67q5 1 50 17t76 16q49 0 78.5 -21t29.5 -60q0 -40 -25 -68.5t-71 -38.5q76 -13 76 -78q0 -55 -46.5 -92t-114.5 -37z
M151 -12l484 680h71l-485 -680h-70zM539 0q14 11 21 28.5t13 54.5l3 16h-178l9 43l207 229h77l-42 -220q42 0 60 14l-13 -66h-58l-3 -16q-7 -45 -7 -56t9 -27h-98zM473 151h114l30 159z" />
    <glyph glyph-name="questiondown" unicode="&#xbf;" horiz-adv-x="419" 
d="M287 500q24 0 38 -12.5t14 -34.5q0 -33 -22 -56t-54 -23q-25 0 -39.5 13t-14.5 35q0 33 23 55.5t55 22.5zM291 277q-10 -49 -30.5 -85t-43.5 -54.5t-48.5 -37t-46 -33.5t-33.5 -43t-13 -67q0 -34 23 -52.5t60 -18.5q86 0 134 57l28 -91q-20 -1 -78 -22t-101 -21
q-69 0 -112 33.5t-43 97.5q0 62 19.5 103.5t49 63t60 40.5t57 51t35.5 79h83z" />
    <glyph glyph-name="Agrave" unicode="&#xc0;" horiz-adv-x="588" 
d="M385 718q-88 50 -130 151l62 53q26 -104 105 -167zM531 0h-127q17 27 6 120l-8 72h-234l-39 -72q-47 -90 -39 -120h-127q45 61 82 132l215 409q47 92 48 115h133q-8 -25 4 -115l57 -409q15 -102 29 -132zM205 267h189l-37 303z" />
    <glyph glyph-name="Aacute" unicode="&#xc1;" horiz-adv-x="588" 
d="M564 869q-83 -102 -190 -151l-34 43q96 54 176 166zM445 541l57 -409q15 -102 29 -132h-127q17 27 6 120l-8 72h-234l-39 -72q-47 -90 -39 -120h-127q45 61 82 132l215 409q47 92 48 115h133q-8 -25 4 -115zM205 267h189l-37 303z" />
    <glyph glyph-name="Acircumflex" unicode="&#xc2;" horiz-adv-x="588" 
d="M405 824q-55 -67 -141 -112l-30 34q82 54 141 139h86q26 -84 87 -139l-42 -34q-70 46 -97 112h-4zM445 541l57 -409q15 -102 29 -132h-127q17 27 6 120l-8 72h-234l-39 -72q-47 -90 -39 -120h-127q45 61 82 132l215 409q47 92 48 115h133q-8 -25 4 -115zM205 267h189
l-37 303z" />
    <glyph glyph-name="Atilde" unicode="&#xc3;" horiz-adv-x="588" 
d="M322 800q-22 0 -29 -14t-5 -49l-66 3q20 123 111 123q30 0 53.5 -18.5t41.5 -37t34 -18.5q39 0 33 64l67 -4q-20 -122 -112 -122q-24 0 -44 11.5t-31.5 25t-25.5 25t-27 11.5zM445 541l57 -409q15 -102 29 -132h-127q17 27 6 120l-8 72h-234l-39 -72q-47 -90 -39 -120
h-127q45 61 82 132l215 409q47 92 48 115h133q-8 -25 4 -115zM205 267h189l-37 303z" />
    <glyph glyph-name="Adieresis" unicode="&#xc4;" horiz-adv-x="588" 
d="M293 732q-19 0 -30.5 11.5t-11.5 29.5q0 25 19 43.5t44 18.5q19 0 30 -11.5t11 -29.5q0 -24 -18.5 -43t-43.5 -19zM508 835q19 0 30.5 -11.5t11.5 -29.5q0 -25 -19 -43.5t-44 -18.5q-18 0 -29.5 11.5t-11.5 29.5q0 24 18.5 43t43.5 19zM445 541l57 -409q15 -102 29 -132
h-127q17 27 6 120l-8 72h-234l-39 -72q-47 -90 -39 -120h-127q45 61 82 132l215 409q47 92 48 115h133q-8 -25 4 -115zM205 267h189l-37 303z" />
    <glyph glyph-name="Aring" unicode="&#xc5;" horiz-adv-x="588" 
d="M383 699q-44 0 -69 22t-25 57q0 49 38.5 83.5t93.5 34.5q43 0 68.5 -22t25.5 -56q0 -49 -38.5 -84t-93.5 -35zM414 853q-29 0 -47.5 -19.5t-18.5 -50.5q0 -19 12 -30t30 -11q28 0 47 20t19 50q0 19 -12 30t-30 11zM531 0h-127q17 27 6 120l-8 72h-234l-39 -72
q-47 -90 -39 -120h-127q45 61 82 132l215 409q47 92 48 115h133q-8 -25 4 -115l57 -409q15 -102 29 -132zM205 267h189l-37 303z" />
    <glyph glyph-name="AE" unicode="&#xc6;" horiz-adv-x="827" 
d="M742 -7q-45 7 -120 7h-277q24 40 39 117l14 69h-198l-40 -55q-66 -91 -66 -131h-139q47 44 131 165l254 364q62 91 61 127h336q74 0 122 7l-20 -101q-35 15 -117 15h-158l-37 -195h111q90 0 121 10l-20 -99q-27 10 -117 10h-111l-43 -224h169q86 0 125 15zM249 259h163
l63 326h-4z" />
    <glyph glyph-name="Ccedilla" unicode="&#xc7;" horiz-adv-x="554" 
d="M373 669q47 0 84.5 -12t64 -26.5t39.5 -16.5l-51 -94q-17 27 -56.5 47t-86.5 20q-90 0 -152.5 -97t-62.5 -225q0 -196 146 -196q114 0 163 52l29 -98q-13 0 -76.5 -17.5t-114.5 -19.5l-13 -37q76 -13 76 -68q0 -51 -50 -79.5t-137 -28.5l2 51q53 -7 85 6.5t32 42.5
q0 34 -68 39l34 75q-203 16 -203 271q0 172 87.5 291.5t228.5 119.5z" />
    <glyph glyph-name="Egrave" unicode="&#xc8;" horiz-adv-x="510" 
d="M339 716q-88 50 -130 151l62 53q26 -104 105 -167zM425 -7q-45 7 -119 7h-288q23 35 40 121l81 413q16 84 6 122h272q72 0 120 7l-20 -101q-35 15 -116 15h-165l-37 -195h122q87 0 121 10l-19 -99q-30 10 -117 10h-122l-45 -224h182q81 0 123 15z" />
    <glyph glyph-name="Eacute" unicode="&#xc9;" horiz-adv-x="510" 
d="M327 716l-34 43q96 54 176 166l48 -58q-83 -102 -190 -151zM425 -7q-45 7 -119 7h-288q23 35 40 121l81 413q16 84 6 122h272q72 0 120 7l-20 -101q-35 15 -116 15h-165l-37 -195h122q87 0 121 10l-19 -99q-30 10 -117 10h-122l-45 -224h182q81 0 123 15z" />
    <glyph glyph-name="Ecircumflex" unicode="&#xca;" horiz-adv-x="510" 
d="M218 710l-30 34q82 54 141 139h86q26 -84 87 -139l-42 -34q-70 46 -97 112h-4q-55 -67 -141 -112zM425 -7q-45 7 -119 7h-288q23 35 40 121l81 413q16 84 6 122h272q72 0 120 7l-20 -101q-35 15 -116 15h-165l-37 -195h122q87 0 121 10l-19 -99q-30 10 -117 10h-122
l-45 -224h182q81 0 123 15z" />
    <glyph glyph-name="Edieresis" unicode="&#xcb;" horiz-adv-x="510" 
d="M247 730q-19 0 -30.5 11.5t-11.5 29.5q0 25 19 43.5t44 18.5q19 0 30 -11.5t11 -29.5q0 -24 -18.5 -43t-43.5 -19zM441 730q-18 0 -29.5 11.5t-11.5 29.5q0 24 18.5 43t43.5 19q19 0 30.5 -11.5t11.5 -29.5q0 -25 -19 -43.5t-44 -18.5zM425 -7q-45 7 -119 7h-288
q23 35 40 121l81 413q16 84 6 122h272q72 0 120 7l-20 -101q-35 15 -116 15h-165l-37 -195h122q87 0 121 10l-19 -99q-30 10 -117 10h-122l-45 -224h182q81 0 123 15z" />
    <glyph glyph-name="Igrave" unicode="&#xcc;" horiz-adv-x="253" 
d="M219 718q-88 50 -130 151l62 53q26 -104 105 -167zM18 0q25 45 40 121l80 413q16 87 6 122h124q-24 -43 -39 -122l-81 -413q-17 -83 -7 -121h-123z" />
    <glyph glyph-name="Iacute" unicode="&#xcd;" horiz-adv-x="253" 
d="M207 718l-34 43q96 54 176 166l48 -58q-83 -102 -190 -151zM18 0q25 45 40 121l80 413q16 87 6 122h124q-24 -43 -39 -122l-81 -413q-17 -83 -7 -121h-123z" />
    <glyph glyph-name="Icircumflex" unicode="&#xce;" horiz-adv-x="253" 
d="M97 712l-30 34q82 54 141 139h86q26 -84 87 -139l-42 -34q-70 46 -97 112h-4q-55 -67 -141 -112zM18 0q25 45 40 121l80 413q16 87 6 122h124q-24 -43 -39 -122l-81 -413q-17 -83 -7 -121h-123z" />
    <glyph glyph-name="Idieresis" unicode="&#xcf;" horiz-adv-x="253" 
d="M127 732q-19 0 -30.5 11.5t-11.5 29.5q0 25 19 43.5t44 18.5q19 0 30 -11.5t11 -29.5q0 -24 -18.5 -43t-43.5 -19zM321 732q-18 0 -29.5 11.5t-11.5 29.5q0 24 18.5 43t43.5 19q19 0 30.5 -11.5t11.5 -29.5q0 -25 -19 -43.5t-44 -18.5zM18 0q25 45 40 121l80 413
q16 87 6 122h124q-24 -43 -39 -122l-81 -413q-17 -83 -7 -121h-123z" />
    <glyph glyph-name="Eth" unicode="&#xd0;" horiz-adv-x="614" 
d="M325 656q121 0 193.5 -64t72.5 -189q0 -196 -96.5 -299.5t-280.5 -103.5h-187q26 34 43 121l34 171h-55l13 72h56l33 170q16 87 4 122h170zM224 80q130 0 201.5 79.5t71.5 232.5q0 184 -183 184h-66l-41 -212h111l-13 -72h-112l-41 -212h72z" />
    <glyph glyph-name="Ntilde" unicode="&#xd1;" horiz-adv-x="639" 
d="M485 727q-24 0 -44 11.5t-31.5 25t-25.5 25t-27 11.5q-22 0 -29 -14t-5 -49l-66 3q20 123 111 123q30 0 53.5 -18.5t41.5 -37t34 -18.5q39 0 33 64l67 -4q-20 -122 -112 -122zM18 0q23 35 40 121l81 413q16 84 6 122h120l197 -491h4q0 50 11 107l52 265q14 85 6 119h119
q-24 -40 -40 -122l-76 -390q-19 -101 -12 -144h-95l-215 532h-4q2 -46 -9 -104l-60 -308q-17 -85 -7 -120h-118z" />
    <glyph glyph-name="Ograve" unicode="&#xd2;" horiz-adv-x="637" 
d="M396 718q-88 50 -130 151l62 53q26 -104 105 -167zM288 -12q-100 0 -164.5 73t-64.5 201q0 174 84 290t239 116q100 0 164.5 -73t64.5 -200q0 -114 -34.5 -204t-109 -146.5t-179.5 -56.5zM295 71q69 0 120.5 44.5t76.5 115t25 156.5q0 96 -41 147t-101 51
q-69 0 -120.5 -44t-76 -115t-24.5 -157q0 -96 40 -147t101 -51z" />
    <glyph glyph-name="Oacute" unicode="&#xd3;" horiz-adv-x="637" 
d="M384 718l-34 43q96 54 176 166l48 -58q-83 -102 -190 -151zM288 -12q-100 0 -164.5 73t-64.5 201q0 174 84 290t239 116q100 0 164.5 -73t64.5 -200q0 -114 -34.5 -204t-109 -146.5t-179.5 -56.5zM295 71q69 0 120.5 44.5t76.5 115t25 156.5q0 96 -41 147t-101 51
q-69 0 -120.5 -44t-76 -115t-24.5 -157q0 -96 40 -147t101 -51z" />
    <glyph glyph-name="Ocircumflex" unicode="&#xd4;" horiz-adv-x="637" 
d="M274 712l-30 34q82 54 141 139h86q26 -84 87 -139l-42 -34q-70 46 -97 112h-4q-55 -67 -141 -112zM288 -12q-100 0 -164.5 73t-64.5 201q0 174 84 290t239 116q100 0 164.5 -73t64.5 -200q0 -114 -34.5 -204t-109 -146.5t-179.5 -56.5zM295 71q69 0 120.5 44.5t76.5 115
t25 156.5q0 96 -41 147t-101 51q-69 0 -120.5 -44t-76 -115t-24.5 -157q0 -96 40 -147t101 -51z" />
    <glyph glyph-name="Otilde" unicode="&#xd5;" horiz-adv-x="637" 
d="M460 727q-24 0 -44 11.5t-31.5 25t-25.5 25t-27 11.5q-22 0 -29 -14t-5 -49l-66 3q20 123 111 123q30 0 53.5 -18.5t41.5 -37t34 -18.5q39 0 33 64l67 -4q-20 -122 -112 -122zM288 -12q-100 0 -164.5 73t-64.5 201q0 174 84 290t239 116q100 0 164.5 -73t64.5 -200
q0 -114 -34.5 -204t-109 -146.5t-179.5 -56.5zM295 71q69 0 120.5 44.5t76.5 115t25 156.5q0 96 -41 147t-101 51q-69 0 -120.5 -44t-76 -115t-24.5 -157q0 -96 40 -147t101 -51z" />
    <glyph glyph-name="Odieresis" unicode="&#xd6;" horiz-adv-x="637" 
d="M304 732q-19 0 -30.5 11.5t-11.5 29.5q0 25 19 43.5t44 18.5q19 0 30 -11.5t11 -29.5q0 -24 -18.5 -43t-43.5 -19zM498 732q-18 0 -29.5 11.5t-11.5 29.5q0 24 18.5 43t43.5 19q19 0 30.5 -11.5t11.5 -29.5q0 -25 -19 -43.5t-44 -18.5zM288 -12q-100 0 -164.5 73
t-64.5 201q0 174 84 290t239 116q100 0 164.5 -73t64.5 -200q0 -114 -34.5 -204t-109 -146.5t-179.5 -56.5zM295 71q69 0 120.5 44.5t76.5 115t25 156.5q0 96 -41 147t-101 51q-69 0 -120.5 -44t-76 -115t-24.5 -157q0 -96 40 -147t101 -51z" />
    <glyph glyph-name="multiply" unicode="&#xd7;" horiz-adv-x="480" 
d="M356 228q20 -27 41 -32l-89 -75q0 18 -23 47l-57 70l-87 -73q-35 -32 -41 -47l-60 74q20 5 53 32l87 73l-56 70q-23 28 -39 32l88 75q0 -18 23 -47l56 -70l87 73q36 31 42 47l59 -74q-16 -2 -53 -32l-87 -73z" />
    <glyph glyph-name="Oslash" unicode="&#xd8;" horiz-adv-x="656" 
d="M556 582q56 -72 56 -189q0 -175 -84 -291t-239 -116q-71 0 -123 36l-29 -42l-58 34l38 54q-57 73 -57 192q0 113 34.5 203t109 146.5t179.5 56.5q71 0 125 -37l30 42l57 -33zM155 267q0 -66 21 -114l280 401q-35 29 -80 29q-104 0 -162.5 -91t-58.5 -225zM296 69
q103 0 162 91.5t59 224.5q0 67 -20 112l-279 -401q34 -27 78 -27z" />
    <glyph glyph-name="Ugrave" unicode="&#xd9;" horiz-adv-x="630" 
d="M401 718q-88 50 -130 151l62 53q26 -104 105 -167zM273 -12q-112 0 -164.5 66.5t-23.5 214.5l51 265q17 89 7 122h124q-23 -36 -41 -122l-51 -266q-38 -201 107 -201q148 0 187 201l51 266q17 87 7 122h120q-25 -41 -40 -122l-52 -265q-28 -149 -96.5 -215t-185.5 -66z
" />
    <glyph glyph-name="Uacute" unicode="&#xda;" horiz-adv-x="630" 
d="M390 718l-34 43q96 54 176 166l48 -58q-83 -102 -190 -151zM273 -12q-112 0 -164.5 66.5t-23.5 214.5l51 265q17 89 7 122h124q-23 -36 -41 -122l-51 -266q-38 -201 107 -201q148 0 187 201l51 266q17 87 7 122h120q-25 -41 -40 -122l-52 -265q-28 -149 -96.5 -215
t-185.5 -66z" />
    <glyph glyph-name="Ucircumflex" unicode="&#xdb;" horiz-adv-x="630" 
d="M280 712l-30 34q82 54 141 139h86q26 -84 87 -139l-42 -34q-70 46 -97 112h-4q-55 -67 -141 -112zM273 -12q-112 0 -164.5 66.5t-23.5 214.5l51 265q17 89 7 122h124q-23 -36 -41 -122l-51 -266q-38 -201 107 -201q148 0 187 201l51 266q17 87 7 122h120
q-25 -41 -40 -122l-52 -265q-28 -149 -96.5 -215t-185.5 -66z" />
    <glyph glyph-name="Udieresis" unicode="&#xdc;" horiz-adv-x="630" 
d="M309 732q-19 0 -30.5 11.5t-11.5 29.5q0 25 19 43.5t44 18.5q19 0 30 -11.5t11 -29.5q0 -24 -18.5 -43t-43.5 -19zM503 732q-18 0 -29.5 11.5t-11.5 29.5q0 24 18.5 43t43.5 19q19 0 30.5 -11.5t11.5 -29.5q0 -25 -19 -43.5t-44 -18.5zM273 -12q-112 0 -164.5 66.5
t-23.5 214.5l51 265q17 89 7 122h124q-23 -36 -41 -122l-51 -266q-38 -201 107 -201q148 0 187 201l51 266q17 87 7 122h120q-25 -41 -40 -122l-52 -265q-28 -149 -96.5 -215t-185.5 -66z" />
    <glyph glyph-name="Yacute" unicode="&#xdd;" horiz-adv-x="526" 
d="M532 869q-83 -102 -190 -151l-34 43q96 54 176 166zM472 656h123q-29 -28 -86 -112l-199 -293l-26 -130q-18 -92 -4 -121h-128q14 19 22 41.5t19 79.5l26 130l-86 296q-22 76 -43 109h123q-5 -19 -3 -38.5t15 -69.5l57 -214l142 214q29 45 38.5 65.5t9.5 42.5z" />
    <glyph glyph-name="Thorn" unicode="&#xde;" horiz-adv-x="548" 
d="M17 0q15 18 22.5 43.5t17.5 76.5l81 415q18 92 7 121h123q-22 -32 -40 -123h82q99 0 155 -41.5t56 -121.5q0 -109 -75.5 -168t-207.5 -59h-87q-12 -71 -14.5 -96t3.5 -47h-123zM167 222h75q95 0 141 33.5t46 107.5q0 50 -36.5 70t-107.5 20h-73z" />
    <glyph glyph-name="germandbls" unicode="&#xdf;" horiz-adv-x="544" 
d="M317 -12q-39 0 -84 14.5t-54 15.5l47 96q32 -47 91 -47q42 0 65 22.5t23 64.5q0 35 -19.5 61t-42.5 40.5t-42.5 42t-19.5 64.5q0 29 13.5 52t32.5 38.5t38 30t32.5 34.5t14.5 45q1 35 -21 54.5t-59 19.5q-42 0 -73.5 -38.5t-46.5 -110.5l-77 -375q-11 -53 -12 -71t9 -41
h-109l99 496q20 103 75.5 161t143.5 58q67 0 113 -39.5t46 -106.5q0 -46 -21 -79.5t-45.5 -48t-45.5 -32.5t-21 -37q0 -20 20 -40.5t43.5 -38t43.5 -52t20 -79.5q0 -82 -49.5 -128t-127.5 -46z" />
    <glyph glyph-name="agrave" unicode="&#xe0;" horiz-adv-x="530" 
d="M328 560q-88 50 -130 151l62 53q26 -104 105 -167zM179 -12q-67 0 -106 47.5t-39 133.5q0 142 81.5 236.5t185.5 94.5q58 0 113 -30l9 17h84l-73 -356q-21 -101 -5 -131h-97q-4 29 4 66h-5q-30 -34 -70.5 -56t-81.5 -22zM198 67q70 0 157 113l41 206q-42 34 -93 34
q-71 0 -124 -69t-53 -174q0 -52 19 -81t53 -29z" />
    <glyph glyph-name="aacute" unicode="&#xe1;" horiz-adv-x="530" 
d="M316 560l-34 43q96 54 176 166l48 -58q-83 -102 -190 -151zM179 -12q-67 0 -106 47.5t-39 133.5q0 142 81.5 236.5t185.5 94.5q58 0 113 -30l9 17h84l-73 -356q-21 -101 -5 -131h-97q-4 29 4 66h-5q-30 -34 -70.5 -56t-81.5 -22zM198 67q70 0 157 113l41 206
q-42 34 -93 34q-71 0 -124 -69t-53 -174q0 -52 19 -81t53 -29z" />
    <glyph glyph-name="acircumflex" unicode="&#xe2;" horiz-adv-x="530" 
d="M206 554l-30 34q82 54 141 139h86q26 -84 87 -139l-42 -34q-70 46 -97 112h-4q-55 -67 -141 -112zM179 -12q-67 0 -106 47.5t-39 133.5q0 142 81.5 236.5t185.5 94.5q58 0 113 -30l9 17h84l-73 -356q-21 -101 -5 -131h-97q-4 29 4 66h-5q-30 -34 -70.5 -56t-81.5 -22z
M198 67q70 0 157 113l41 206q-42 34 -93 34q-71 0 -124 -69t-53 -174q0 -52 19 -81t53 -29z" />
    <glyph glyph-name="atilde" unicode="&#xe3;" horiz-adv-x="530" 
d="M392 569q-24 0 -44 11.5t-31.5 25t-25.5 25t-27 11.5q-22 0 -29 -14t-5 -49l-66 3q20 123 111 123q30 0 53.5 -18.5t41.5 -37t34 -18.5q39 0 33 64l67 -4q-20 -122 -112 -122zM179 -12q-67 0 -106 47.5t-39 133.5q0 142 81.5 236.5t185.5 94.5q58 0 113 -30l9 17h84
l-73 -356q-21 -101 -5 -131h-97q-4 29 4 66h-5q-30 -34 -70.5 -56t-81.5 -22zM198 67q70 0 157 113l41 206q-42 34 -93 34q-71 0 -124 -69t-53 -174q0 -52 19 -81t53 -29z" />
    <glyph glyph-name="adieresis" unicode="&#xe4;" horiz-adv-x="530" 
d="M236 574q-19 0 -30.5 11.5t-11.5 29.5q0 25 19 43.5t44 18.5q19 0 30 -11.5t11 -29.5q0 -24 -18.5 -43t-43.5 -19zM430 574q-18 0 -29.5 11.5t-11.5 29.5q0 24 18.5 43t43.5 19q19 0 30.5 -11.5t11.5 -29.5q0 -25 -19 -43.5t-44 -18.5zM179 -12q-67 0 -106 47.5
t-39 133.5q0 142 81.5 236.5t185.5 94.5q58 0 113 -30l9 17h84l-73 -356q-21 -101 -5 -131h-97q-4 29 4 66h-5q-30 -34 -70.5 -56t-81.5 -22zM198 67q70 0 157 113l41 206q-42 34 -93 34q-71 0 -124 -69t-53 -174q0 -52 19 -81t53 -29z" />
    <glyph glyph-name="aring" unicode="&#xe5;" horiz-adv-x="530" 
d="M325 541q-44 0 -69 22t-25 57q0 49 38.5 83.5t93.5 34.5q43 0 68.5 -22t25.5 -56q0 -49 -38.5 -84t-93.5 -35zM332 584q28 0 47 20t19 50q0 19 -12 30t-30 11q-29 0 -47.5 -19.5t-18.5 -50.5q0 -19 12 -30t30 -11zM179 -12q-67 0 -106 47.5t-39 133.5q0 142 81.5 236.5
t185.5 94.5q58 0 113 -30l9 17h84l-73 -356q-21 -101 -5 -131h-97q-4 29 4 66h-5q-30 -34 -70.5 -56t-81.5 -22zM198 67q70 0 157 113l41 206q-42 34 -93 34q-71 0 -124 -69t-53 -174q0 -52 19 -81t53 -29z" />
    <glyph glyph-name="ae" unicode="&#xe6;" horiz-adv-x="788" 
d="M559 208l-132 -1q-8 -63 22.5 -103t81.5 -40q95 0 134 54l33 -87q-85 -47 -180 -47q-118 0 -164 97q-35 -44 -85 -68.5t-101 -24.5q-66 0 -106 33t-40 90q0 174 250 174h74l3 12l4 20q11 57 -6 81t-71 24q-39 0 -79 -16.5t-61 -41.5l-27 90q11 1 73.5 23t107.5 22
q111 0 143 -59q68 63 157 63q77 0 122.5 -45t45.5 -111q0 -139 -199 -139zM580 424q-52 0 -90 -41.5t-50 -102.5h96q77 0 104.5 17.5t27.5 49.5t-22.5 54.5t-65.5 22.5zM323 150l10 66h-65q-157 0 -157 -90q0 -31 20.5 -47.5t52.5 -16.5q39 0 76 24t63 64z" />
    <glyph glyph-name="ccedilla" unicode="&#xe7;" horiz-adv-x="429" 
d="M281 421q-59 0 -105 -70t-46 -164q0 -62 26.5 -92t66.5 -30q41 0 73.5 17t47.5 40l36 -92q-6 -1 -59.5 -22.5t-99.5 -23.5l-12 -34q76 -13 76 -68q0 -51 -50 -79.5t-137 -28.5l2 51q53 -7 85 6.5t32 42.5q0 34 -68 39l33 73q-68 9 -106.5 59.5t-38.5 133.5
q0 146 74.5 235t177.5 89q43 0 90.5 -20.5t51.5 -21.5l-51 -93q-12 23 -38.5 38t-60.5 15z" />
    <glyph glyph-name="egrave" unicode="&#xe8;" horiz-adv-x="492" 
d="M306 560q-88 50 -130 151l62 53q26 -104 105 -167zM222 -16q-83 0 -133.5 52t-50.5 145q0 142 73.5 232t181.5 90q77 0 122.5 -44.5t45.5 -110.5q0 -140 -202 -140h-129q-8 -63 22.5 -104t82.5 -41q93 0 134 54l33 -86q-88 -47 -180 -47zM143 279h95q78 0 105.5 18
t27.5 50t-22.5 54.5t-65.5 22.5q-52 0 -90.5 -42.5t-49.5 -102.5z" />
    <glyph glyph-name="eacute" unicode="&#xe9;" horiz-adv-x="492" 
d="M294 560l-34 43q96 54 176 166l48 -58q-83 -102 -190 -151zM222 -16q-83 0 -133.5 52t-50.5 145q0 142 73.5 232t181.5 90q77 0 122.5 -44.5t45.5 -110.5q0 -140 -202 -140h-129q-8 -63 22.5 -104t82.5 -41q93 0 134 54l33 -86q-88 -47 -180 -47zM143 279h95
q78 0 105.5 18t27.5 50t-22.5 54.5t-65.5 22.5q-52 0 -90.5 -42.5t-49.5 -102.5z" />
    <glyph glyph-name="ecircumflex" unicode="&#xea;" horiz-adv-x="492" 
d="M184 554l-30 34q82 54 141 139h86q26 -84 87 -139l-42 -34q-70 46 -97 112h-4q-55 -67 -141 -112zM222 -16q-83 0 -133.5 52t-50.5 145q0 142 73.5 232t181.5 90q77 0 122.5 -44.5t45.5 -110.5q0 -140 -202 -140h-129q-8 -63 22.5 -104t82.5 -41q93 0 134 54l33 -86
q-88 -47 -180 -47zM143 279h95q78 0 105.5 18t27.5 50t-22.5 54.5t-65.5 22.5q-52 0 -90.5 -42.5t-49.5 -102.5z" />
    <glyph glyph-name="edieresis" unicode="&#xeb;" horiz-adv-x="492" 
d="M213 574q-19 0 -30.5 11.5t-11.5 29.5q0 25 19 43.5t44 18.5q19 0 30 -11.5t11 -29.5q0 -24 -18.5 -43t-43.5 -19zM407 574q-18 0 -29.5 11.5t-11.5 29.5q0 24 18.5 43t43.5 19q19 0 30.5 -11.5t11.5 -29.5q0 -25 -19 -43.5t-44 -18.5zM222 -16q-83 0 -133.5 52
t-50.5 145q0 142 73.5 232t181.5 90q77 0 122.5 -44.5t45.5 -110.5q0 -140 -202 -140h-129q-8 -63 22.5 -104t82.5 -41q93 0 134 54l33 -86q-88 -47 -180 -47zM143 279h95q78 0 105.5 18t27.5 50t-22.5 54.5t-65.5 22.5q-52 0 -90.5 -42.5t-49.5 -102.5z" />
    <glyph glyph-name="igrave" unicode="&#xec;" horiz-adv-x="232" 
d="M174 560q-88 50 -130 151l62 53q26 -104 105 -167zM22 0l70 352q11 58 12.5 78.5t-4.5 56.5h110l-76 -375q-18 -91 -3 -112h-109z" />
    <glyph glyph-name="iacute" unicode="&#xed;" horiz-adv-x="232" 
d="M162 560l-34 43q96 54 176 166l48 -58q-83 -102 -190 -151zM22 0l70 352q11 58 12.5 78.5t-4.5 56.5h110l-76 -375q-18 -91 -3 -112h-109z" />
    <glyph glyph-name="icircumflex" unicode="&#xee;" horiz-adv-x="232" 
d="M52 554l-30 34q82 54 141 139h86q26 -84 87 -139l-42 -34q-70 46 -97 112h-4q-55 -67 -141 -112zM22 0l70 352q11 58 12.5 78.5t-4.5 56.5h110l-76 -375q-18 -91 -3 -112h-109z" />
    <glyph glyph-name="idieresis" unicode="&#xef;" horiz-adv-x="232" 
d="M82 574q-19 0 -30.5 11.5t-11.5 29.5q0 25 19 43.5t44 18.5q19 0 30 -11.5t11 -29.5q0 -24 -18.5 -43t-43.5 -19zM276 574q-18 0 -29.5 11.5t-11.5 29.5q0 24 18.5 43t43.5 19q19 0 30.5 -11.5t11.5 -29.5q0 -25 -19 -43.5t-44 -18.5zM22 0l70 352q11 58 12.5 78.5
t-4.5 56.5h110l-76 -375q-18 -91 -3 -112h-109z" />
    <glyph glyph-name="eth" unicode="&#xf0;" horiz-adv-x="515" 
d="M486 654l-87 -47q85 -116 85 -279q0 -152 -74.5 -246t-194.5 -94q-76 0 -130 51.5t-54 140.5q0 121 66.5 199t167.5 78q86 0 136 -65q-15 106 -72 176l-93 -51l-17 43l78 43l-11 9q-48 42 -83 43l51 84q5 -8 18.5 -18t32 -22.5t27.5 -20.5q23 -19 37 -36l100 55zM227 68
q63 0 113.5 63t58.5 151q-18 38 -57 67.5t-80 29.5q-61 0 -100.5 -54t-39.5 -136q0 -57 29.5 -89t75.5 -32z" />
    <glyph glyph-name="ntilde" unicode="&#xf1;" horiz-adv-x="531" 
d="M390 569q-24 0 -44 11.5t-31.5 25t-25.5 25t-27 11.5q-22 0 -29 -14t-5 -49l-66 3q20 123 111 123q30 0 53.5 -18.5t41.5 -37t34 -18.5q39 0 33 64l67 -4q-20 -122 -112 -122zM24 0l68 344q20 103 8 143h102l-9 -62h4q30 34 73.5 56t89.5 22q72 0 103.5 -50t15.5 -131
l-39 -201q-19 -97 -3 -121h-111l62 313q22 109 -57 109q-35 0 -79 -30.5t-76 -73.5l-38 -197q-19 -96 -4 -121h-110z" />
    <glyph glyph-name="ograve" unicode="&#xf2;" horiz-adv-x="527" 
d="M316 560q-88 50 -130 151l62 53q26 -104 105 -167zM222 -16q-86 0 -135.5 51.5t-49.5 144.5q0 139 77 231t191 92q85 0 134.5 -51.5t49.5 -144.5q0 -139 -76.5 -231t-190.5 -92zM232 66q65 0 115 70t50 170q0 53 -26 84t-76 31q-65 0 -115.5 -70t-50.5 -170
q0 -53 26.5 -84t76.5 -31z" />
    <glyph glyph-name="oacute" unicode="&#xf3;" horiz-adv-x="527" 
d="M305 560l-34 43q96 54 176 166l48 -58q-83 -102 -190 -151zM222 -16q-86 0 -135.5 51.5t-49.5 144.5q0 139 77 231t191 92q85 0 134.5 -51.5t49.5 -144.5q0 -139 -76.5 -231t-190.5 -92zM232 66q65 0 115 70t50 170q0 53 -26 84t-76 31q-65 0 -115.5 -70t-50.5 -170
q0 -53 26.5 -84t76.5 -31z" />
    <glyph glyph-name="ocircumflex" unicode="&#xf4;" horiz-adv-x="527" 
d="M195 554l-30 34q82 54 141 139h86q26 -84 87 -139l-42 -34q-70 46 -97 112h-4q-55 -67 -141 -112zM222 -16q-86 0 -135.5 51.5t-49.5 144.5q0 139 77 231t191 92q85 0 134.5 -51.5t49.5 -144.5q0 -139 -76.5 -231t-190.5 -92zM232 66q65 0 115 70t50 170q0 53 -26 84
t-76 31q-65 0 -115.5 -70t-50.5 -170q0 -53 26.5 -84t76.5 -31z" />
    <glyph glyph-name="otilde" unicode="&#xf5;" horiz-adv-x="527" 
d="M380 569q-24 0 -44 11.5t-31.5 25t-25.5 25t-27 11.5q-22 0 -29 -14t-5 -49l-66 3q20 123 111 123q30 0 53.5 -18.5t41.5 -37t34 -18.5q39 0 33 64l67 -4q-20 -122 -112 -122zM222 -16q-86 0 -135.5 51.5t-49.5 144.5q0 139 77 231t191 92q85 0 134.5 -51.5t49.5 -144.5
q0 -139 -76.5 -231t-190.5 -92zM232 66q65 0 115 70t50 170q0 53 -26 84t-76 31q-65 0 -115.5 -70t-50.5 -170q0 -53 26.5 -84t76.5 -31z" />
    <glyph glyph-name="odieresis" unicode="&#xf6;" horiz-adv-x="527" 
d="M224 574q-19 0 -30.5 11.5t-11.5 29.5q0 25 19 43.5t44 18.5q19 0 30 -11.5t11 -29.5q0 -24 -18.5 -43t-43.5 -19zM418 574q-18 0 -29.5 11.5t-11.5 29.5q0 24 18.5 43t43.5 19q19 0 30.5 -11.5t11.5 -29.5q0 -25 -19 -43.5t-44 -18.5zM222 -16q-86 0 -135.5 51.5
t-49.5 144.5q0 139 77 231t191 92q85 0 134.5 -51.5t49.5 -144.5q0 -139 -76.5 -231t-190.5 -92zM232 66q65 0 115 70t50 170q0 53 -26 84t-76 31q-65 0 -115.5 -70t-50.5 -170q0 -53 26.5 -84t76.5 -31z" />
    <glyph glyph-name="divide" unicode="&#xf7;" horiz-adv-x="455" 
d="M241 367q-23 0 -38 13.5t-15 35.5q0 32 23 55t55 23q23 0 37 -13.5t14 -36.5q0 -31 -22.5 -54t-53.5 -23zM41 248l19 99q13 -10 54 -10h242q41 0 58 10l-19 -99q-14 10 -54 10h-242q-41 0 -58 -10zM190 101q-23 0 -38 13.5t-15 35.5q0 31 23 54.5t54 23.5q23 0 37 -14
t14 -36q0 -31 -22.5 -54t-52.5 -23z" />
    <glyph glyph-name="oslash" unicode="&#xf8;" horiz-adv-x="527" 
d="M490 481l-37 -45q36 -52 36 -129q0 -139 -76.5 -231t-190.5 -92q-68 0 -113 33l-33 -40l-37 29l36 44q-38 49 -38 130q0 139 77 231t191 92q69 0 115 -34l34 41zM129 181q0 -31 9 -55l224 273q-25 22 -67 22q-65 0 -115.5 -70t-50.5 -170zM397 306q0 28 -8 52l-223 -271
q26 -21 66 -21q65 0 115 70t50 170z" />
    <glyph glyph-name="ugrave" unicode="&#xf9;" horiz-adv-x="525" 
d="M310 560q-88 50 -130 151l62 53q26 -104 105 -167zM166 -16q-68 0 -96 46.5t-12 127.5l39 208q6 33 7.5 43t3.5 30t0 30t-8 18h111l-62 -313q-22 -109 41 -109q39 0 82 37t79 91l35 173q20 97 3 121h111l-69 -344q-20 -101 -2 -143h-104l8 72h-5q-30 -36 -73 -62t-89 -26
z" />
    <glyph glyph-name="uacute" unicode="&#xfa;" horiz-adv-x="525" 
d="M298 560l-34 43q96 54 176 166l48 -58q-83 -102 -190 -151zM166 -16q-68 0 -96 46.5t-12 127.5l39 208q6 33 7.5 43t3.5 30t0 30t-8 18h111l-62 -313q-22 -109 41 -109q39 0 82 37t79 91l35 173q20 97 3 121h111l-69 -344q-20 -101 -2 -143h-104l8 72h-5q-30 -36 -73 -62
t-89 -26z" />
    <glyph glyph-name="ucircumflex" unicode="&#xfb;" horiz-adv-x="525" 
d="M189 554l-30 34q82 54 141 139h86q26 -84 87 -139l-42 -34q-70 46 -97 112h-4q-55 -67 -141 -112zM166 -16q-68 0 -96 46.5t-12 127.5l39 208q6 33 7.5 43t3.5 30t0 30t-8 18h111l-62 -313q-22 -109 41 -109q39 0 82 37t79 91l35 173q20 97 3 121h111l-69 -344
q-20 -101 -2 -143h-104l8 72h-5q-30 -36 -73 -62t-89 -26z" />
    <glyph glyph-name="udieresis" unicode="&#xfc;" horiz-adv-x="525" 
d="M218 574q-19 0 -30.5 11.5t-11.5 29.5q0 25 19 43.5t44 18.5q19 0 30 -11.5t11 -29.5q0 -24 -18.5 -43t-43.5 -19zM412 574q-18 0 -29.5 11.5t-11.5 29.5q0 24 18.5 43t43.5 19q19 0 30.5 -11.5t11.5 -29.5q0 -25 -19 -43.5t-44 -18.5zM166 -16q-68 0 -96 46.5t-12 127.5
l39 208q6 33 7.5 43t3.5 30t0 30t-8 18h111l-62 -313q-22 -109 41 -109q39 0 82 37t79 91l35 173q20 97 3 121h111l-69 -344q-20 -101 -2 -143h-104l8 72h-5q-30 -36 -73 -62t-89 -26z" />
    <glyph glyph-name="yacute" unicode="&#xfd;" horiz-adv-x="459" 
d="M276 560l-34 43q96 54 176 166l48 -58q-83 -102 -190 -151zM19 -200q-14 0 -37.5 3t-34.5 1l29 94q18 -19 49 -19q66 0 117 103l8 17l-66 386q-14 81 -35 102h106l42 -273q11 -77 12 -124h4l62 124l87 174q38 77 29 99h109l-273 -527q-37 -71 -91 -115.5t-117 -44.5z" />
    <glyph glyph-name="thorn" unicode="&#xfe;" horiz-adv-x="531" 
d="M-16 -200l156 781q21 104 12 131h104l-61 -289h5q64 78 151 78q69 0 107.5 -47t38.5 -136q0 -139 -81.5 -233.5t-185.5 -94.5q-63 0 -114 30l-23 -109q-16 -82 -5 -111h-104zM229 70q71 0 123.5 70t52.5 177q0 50 -19 77.5t-53 27.5q-32 0 -79 -36t-80 -87l-40 -192
q38 -37 95 -37z" />
    <glyph glyph-name="ydieresis" unicode="&#xff;" horiz-adv-x="459" 
d="M196 574q-19 0 -30.5 11.5t-11.5 29.5q0 25 19 43.5t44 18.5q19 0 30 -11.5t11 -29.5q0 -24 -18.5 -43t-43.5 -19zM390 574q-18 0 -29.5 11.5t-11.5 29.5q0 24 18.5 43t43.5 19q19 0 30.5 -11.5t11.5 -29.5q0 -25 -19 -43.5t-44 -18.5zM19 -200q-14 0 -37.5 3t-34.5 1
l29 94q18 -19 49 -19q66 0 117 103l8 17l-66 386q-14 81 -35 102h106l42 -273q11 -77 12 -124h4l62 124l87 174q38 77 29 99h109l-273 -527q-37 -71 -91 -115.5t-117 -44.5z" />
    <glyph glyph-name="Amacron" unicode="&#x100;" horiz-adv-x="588" 
d="M538 805l-12 -59h-266l12 59h266zM445 541l57 -409q15 -102 29 -132h-127q17 27 6 120l-8 72h-234l-39 -72q-47 -90 -39 -120h-127q45 61 82 132l215 409q47 92 48 115h133q-8 -25 4 -115zM205 267h189l-37 303z" />
    <glyph glyph-name="amacron" unicode="&#x101;" horiz-adv-x="530" 
d="M202 588l12 59h266l-12 -59h-266zM179 -12q-67 0 -106 47.5t-39 133.5q0 142 81.5 236.5t185.5 94.5q58 0 113 -30l9 17h84l-73 -356q-21 -101 -5 -131h-97q-4 29 4 66h-5q-30 -34 -70.5 -56t-81.5 -22zM198 67q70 0 157 113l41 206q-42 34 -93 34q-71 0 -124 -69
t-53 -174q0 -52 19 -81t53 -29z" />
    <glyph glyph-name="Abreve" unicode="&#x102;" horiz-adv-x="588" 
d="M390 715q-65 0 -91.5 46.5t-9.5 112.5h48q-8 -44 6.5 -72.5t53.5 -28.5q40 0 65.5 29t33.5 72h49q-23 -159 -155 -159zM445 541l57 -409q15 -102 29 -132h-127q17 27 6 120l-8 72h-234l-39 -72q-47 -90 -39 -120h-127q45 61 82 132l215 409q47 92 48 115h133
q-8 -25 4 -115zM205 267h189l-37 303z" />
    <glyph glyph-name="abreve" unicode="&#x103;" horiz-adv-x="530" 
d="M332 557q-65 0 -91.5 46.5t-9.5 112.5h48q-8 -44 6.5 -72.5t53.5 -28.5q40 0 65.5 29t33.5 72h49q-23 -159 -155 -159zM179 -12q-67 0 -106 47.5t-39 133.5q0 142 81.5 236.5t185.5 94.5q58 0 113 -30l9 17h84l-73 -356q-21 -101 -5 -131h-97q-4 29 4 66h-5
q-30 -34 -70.5 -56t-81.5 -22zM198 67q70 0 157 113l41 206q-42 34 -93 34q-71 0 -124 -69t-53 -174q0 -52 19 -81t53 -29z" />
    <glyph glyph-name="Aogonek" unicode="&#x104;" horiz-adv-x="588" 
d="M457 -141q20 0 36 19l14 -48q-29 -25 -74 -25q-33 0 -53 15.5t-20 45.5q0 40 30 77t78 57h-64q17 27 6 120l-8 72h-234l-39 -72q-47 -90 -39 -120h-127q45 61 82 132l215 409q47 92 48 115h133q-8 -25 4 -115l57 -409q15 -102 29 -132q-47 -21 -75.5 -52.5t-28.5 -61.5
q0 -27 30 -27zM205 267h189l-37 303z" />
    <glyph glyph-name="aogonek" unicode="&#x105;" horiz-adv-x="530" 
d="M507 487l-73 -356q-21 -101 -5 -131q-47 -21 -75.5 -52.5t-28.5 -61.5q0 -27 30 -27q20 0 36 19l14 -48q-29 -25 -74 -25q-33 0 -53 15.5t-20 45.5q0 40 30 77t78 57h-34q-4 29 4 66h-5q-30 -34 -70.5 -56t-81.5 -22q-67 0 -106 47.5t-39 133.5q0 142 81.5 236.5
t185.5 94.5q58 0 113 -30l9 17h84zM198 67q70 0 157 113l41 206q-42 34 -93 34q-71 0 -124 -69t-53 -174q0 -52 19 -81t53 -29z" />
    <glyph glyph-name="Cacute" unicode="&#x106;" horiz-adv-x="554" 
d="M375 718l-34 43q96 54 176 166l48 -58q-83 -102 -190 -151zM287 -14q-111 0 -170.5 68t-59.5 204q0 172 87.5 291.5t228.5 119.5q47 0 84.5 -12t64 -26.5t39.5 -16.5l-51 -94q-17 27 -56.5 47t-86.5 20q-90 0 -152.5 -97t-62.5 -225q0 -196 146 -196q114 0 163 52l29 -98
q-12 0 -80 -18.5t-123 -18.5z" />
    <glyph glyph-name="cacute" unicode="&#x107;" horiz-adv-x="429" 
d="M290 560l-34 43q96 54 176 166l48 -58q-83 -102 -190 -151zM210 -16q-81 0 -127 51.5t-46 143.5q0 146 74.5 235t177.5 89q43 0 90.5 -20.5t51.5 -21.5l-51 -93q-12 23 -38.5 38t-60.5 15q-59 0 -105 -70t-46 -164q0 -62 26.5 -92t66.5 -30q41 0 73.5 17t47.5 40l36 -92
q-4 0 -62 -23t-108 -23z" />
    <glyph glyph-name="Cdotaccent" unicode="&#x10a;" horiz-adv-x="554" 
d="M391 731q-48 0 -48 40q0 31 19.5 51t49.5 20q48 0 48 -41q0 -31 -19 -50.5t-50 -19.5zM287 -14q-111 0 -170.5 68t-59.5 204q0 172 87.5 291.5t228.5 119.5q47 0 84.5 -12t64 -26.5t39.5 -16.5l-51 -94q-17 27 -56.5 47t-86.5 20q-90 0 -152.5 -97t-62.5 -225
q0 -196 146 -196q114 0 163 52l29 -98q-12 0 -80 -18.5t-123 -18.5z" />
    <glyph glyph-name="cdotaccent" unicode="&#x10b;" horiz-adv-x="429" 
d="M306 573q-48 0 -48 40q0 31 19.5 51t49.5 20q48 0 48 -41q0 -31 -19 -50.5t-50 -19.5zM210 -16q-81 0 -127 51.5t-46 143.5q0 146 74.5 235t177.5 89q43 0 90.5 -20.5t51.5 -21.5l-51 -93q-12 23 -38.5 38t-60.5 15q-59 0 -105 -70t-46 -164q0 -62 26.5 -92t66.5 -30
q41 0 73.5 17t47.5 40l36 -92q-4 0 -62 -23t-108 -23z" />
    <glyph glyph-name="Ccaron" unicode="&#x10c;" horiz-adv-x="554" 
d="M345 718q-26 85 -87 140l43 33q70 -47 96 -112h4q59 70 141 112l29 -34q-85 -58 -140 -139h-86zM287 -14q-111 0 -170.5 68t-59.5 204q0 172 87.5 291.5t228.5 119.5q47 0 84.5 -12t64 -26.5t39.5 -16.5l-51 -94q-17 27 -56.5 47t-86.5 20q-90 0 -152.5 -97t-62.5 -225
q0 -196 146 -196q114 0 163 52l29 -98q-12 0 -80 -18.5t-123 -18.5z" />
    <glyph glyph-name="ccaron" unicode="&#x10d;" horiz-adv-x="429" 
d="M260 560q-26 85 -87 140l43 33q70 -47 96 -112h4q59 70 141 112l29 -34q-85 -58 -140 -139h-86zM210 -16q-81 0 -127 51.5t-46 143.5q0 146 74.5 235t177.5 89q43 0 90.5 -20.5t51.5 -21.5l-51 -93q-12 23 -38.5 38t-60.5 15q-59 0 -105 -70t-46 -164q0 -62 26.5 -92
t66.5 -30q41 0 73.5 17t47.5 40l36 -92q-4 0 -62 -23t-108 -23z" />
    <glyph glyph-name="Dcaron" unicode="&#x10e;" horiz-adv-x="605" 
d="M322 718q-26 85 -87 140l43 33q70 -47 96 -112h4q59 70 141 112l29 -34q-85 -58 -140 -139h-86zM18 0q26 34 43 121l80 413q18 87 4 122h170q122 0 194 -64t72 -189q0 -196 -96.5 -299.5t-279.5 -103.5h-187zM143 80h72q130 0 201 79.5t71 232.5q0 184 -182 184h-66z" />
    <glyph glyph-name="dcaron" unicode="&#x10f;" horiz-adv-x="524" 
d="M179 -12q-68 0 -106.5 47t-38.5 136q0 139 81.5 233.5t185.5 94.5q54 0 112 -24l21 102q11 56 13 81.5t-5 53.5h108l-116 -581q-8 -44 -10.5 -59t-2 -36.5t8.5 -35.5h-97q-4 28 3 66h-4q-66 -78 -153 -78zM556 522l33 188h78l-60 -188h-51zM198 67q36 0 82 39t79 96
l37 189q-42 28 -93 28q-71 0 -124 -70t-53 -177q0 -50 19 -77.5t53 -27.5z" />
    <glyph glyph-name="Dcroat" unicode="&#x110;" horiz-adv-x="614" 
d="M325 656q121 0 193.5 -64t72.5 -189q0 -196 -96.5 -299.5t-280.5 -103.5h-187q26 34 43 121l34 171h-55l13 72h56l33 170q16 87 4 122h170zM224 80q130 0 201.5 79.5t71.5 232.5q0 184 -183 184h-66l-41 -212h111l-13 -72h-112l-41 -212h72z" />
    <glyph glyph-name="dcroat" unicode="&#x111;" horiz-adv-x="524" 
d="M585 608l-12 -57h-55l-84 -420q-8 -44 -10.5 -59t-2 -36.5t8.5 -35.5h-97q-4 28 3 66h-4q-66 -78 -153 -78q-68 0 -106.5 47t-38.5 136q0 139 81.5 233.5t185.5 94.5q54 0 112 -24l16 76h-71l12 57h70q12 68 2 104h108l-21 -104h56zM359 202l37 189q-42 28 -93 28
q-71 0 -124 -70t-53 -177q0 -50 19 -77.5t53 -27.5q36 0 82 39t79 96z" />
    <glyph glyph-name="Emacron" unicode="&#x112;" horiz-adv-x="510" 
d="M214 744l12 59h266l-12 -59h-266zM425 -7q-45 7 -119 7h-288q23 35 40 121l81 413q16 84 6 122h272q72 0 120 7l-20 -101q-35 15 -116 15h-165l-37 -195h122q87 0 121 10l-19 -99q-30 10 -117 10h-122l-45 -224h182q81 0 123 15z" />
    <glyph glyph-name="emacron" unicode="&#x113;" horiz-adv-x="492" 
d="M180 588l12 59h266l-12 -59h-266zM222 -16q-83 0 -133.5 52t-50.5 145q0 142 73.5 232t181.5 90q77 0 122.5 -44.5t45.5 -110.5q0 -140 -202 -140h-129q-8 -63 22.5 -104t82.5 -41q93 0 134 54l33 -86q-88 -47 -180 -47zM143 279h95q78 0 105.5 18t27.5 50t-22.5 54.5
t-65.5 22.5q-52 0 -90.5 -42.5t-49.5 -102.5z" />
    <glyph glyph-name="Edotaccent" unicode="&#x116;" horiz-adv-x="510" 
d="M343 729q-48 0 -48 40q0 31 19.5 51t49.5 20q48 0 48 -41q0 -31 -19 -50.5t-50 -19.5zM425 -7q-45 7 -119 7h-288q23 35 40 121l81 413q16 84 6 122h272q72 0 120 7l-20 -101q-35 15 -116 15h-165l-37 -195h122q87 0 121 10l-19 -99q-30 10 -117 10h-122l-45 -224h182
q81 0 123 15z" />
    <glyph glyph-name="edotaccent" unicode="&#x117;" horiz-adv-x="492" 
d="M309 573q-48 0 -48 40q0 31 19.5 51t49.5 20q48 0 48 -41q0 -31 -19 -50.5t-50 -19.5zM222 -16q-83 0 -133.5 52t-50.5 145q0 142 73.5 232t181.5 90q77 0 122.5 -44.5t45.5 -110.5q0 -140 -202 -140h-129q-8 -63 22.5 -104t82.5 -41q93 0 134 54l33 -86
q-88 -47 -180 -47zM143 279h95q78 0 105.5 18t27.5 50t-22.5 54.5t-65.5 22.5q-52 0 -90.5 -42.5t-49.5 -102.5z" />
    <glyph glyph-name="Eogonek" unicode="&#x118;" horiz-adv-x="510" 
d="M425 -7q-45 7 -119 7h-288q23 35 40 121l81 413q16 84 6 122h272q72 0 120 7l-20 -101q-35 15 -116 15h-165l-37 -195h122q87 0 121 10l-19 -99q-30 10 -117 10h-122l-45 -224h182q81 0 123 15zM327 -202q-33 0 -53 15.5t-20 45.5q0 42 34 81t87 58l50 -5
q-47 -21 -75.5 -52.5t-28.5 -61.5q0 -27 30 -27q20 0 36 19l14 -48q-29 -25 -74 -25z" />
    <glyph glyph-name="eogonek" unicode="&#x119;" horiz-adv-x="492" 
d="M259 208h-129q-8 -63 22.5 -104t82.5 -41q93 0 134 54l33 -86l-20 -10q-39 -22 -61.5 -50t-22.5 -54q0 -27 30 -27q20 0 36 19l14 -48q-29 -25 -74 -25q-33 0 -53 15.5t-20 45.5q0 48 43 91q-21 -4 -52 -4q-83 0 -133.5 52t-50.5 145q0 142 73.5 232t181.5 90
q77 0 122.5 -44.5t45.5 -110.5q0 -140 -202 -140zM283 424q-52 0 -90.5 -42.5t-49.5 -102.5h95q78 0 105.5 18t27.5 50t-22.5 54.5t-65.5 22.5z" />
    <glyph glyph-name="Ecaron" unicode="&#x11a;" horiz-adv-x="510" 
d="M298 716q-26 85 -87 140l43 33q70 -47 96 -112h4q59 70 141 112l29 -34q-85 -58 -140 -139h-86zM425 -7q-45 7 -119 7h-288q23 35 40 121l81 413q16 84 6 122h272q72 0 120 7l-20 -101q-35 15 -116 15h-165l-37 -195h122q87 0 121 10l-19 -99q-30 10 -117 10h-122
l-45 -224h182q81 0 123 15z" />
    <glyph glyph-name="ecaron" unicode="&#x11b;" horiz-adv-x="492" 
d="M264 560q-26 85 -87 140l43 33q70 -47 96 -112h4q59 70 141 112l29 -34q-85 -58 -140 -139h-86zM222 -16q-83 0 -133.5 52t-50.5 145q0 142 73.5 232t181.5 90q77 0 122.5 -44.5t45.5 -110.5q0 -140 -202 -140h-129q-8 -63 22.5 -104t82.5 -41q93 0 134 54l33 -86
q-88 -47 -180 -47zM143 279h95q78 0 105.5 18t27.5 50t-22.5 54.5t-65.5 22.5q-52 0 -90.5 -42.5t-49.5 -102.5z" />
    <glyph glyph-name="Gbreve" unicode="&#x11e;" horiz-adv-x="593" 
d="M390 715q-65 0 -91.5 46.5t-9.5 112.5h48q-8 -44 6.5 -72.5t53.5 -28.5q40 0 65.5 29t33.5 72h49q-23 -159 -155 -159zM296 -14q-239 0 -239 271q0 172 90.5 292t232.5 120q49 0 88 -12t66 -26.5t40 -17.5l-54 -92q-15 27 -56 46.5t-91 19.5q-88 0 -154.5 -98t-66.5 -224
q0 -198 153 -198q69 0 121 38l28 146h-25q-69 0 -113 -11l20 100q35 -8 109 -8h117q-13 -27 -31 -119l-15 -77q-13 -70 -12 -97q-5 -1 -79 -27t-129 -26z" />
    <glyph glyph-name="gbreve" unicode="&#x11f;" horiz-adv-x="519" 
d="M334 557q-65 0 -91.5 46.5t-9.5 112.5h48q-8 -44 6.5 -72.5t53.5 -28.5q40 0 65.5 29t33.5 72h49q-23 -159 -155 -159zM168 -219q-86 0 -176 51l49 93q47 -67 128 -67q60 0 98.5 33.5t53.5 93.5l19 81h-4q-63 -77 -152 -77q-68 0 -106.5 46.5t-38.5 135.5q0 139 82 233.5
t186 94.5q60 0 120 -29l9 17h80l-107 -500q-44 -206 -241 -206zM200 70q39 0 83.5 33t78.5 86l43 198q-43 32 -98 32q-71 0 -123.5 -70t-52.5 -177q0 -50 18 -76t51 -26z" />
    <glyph glyph-name="Gdotaccent" unicode="&#x120;" horiz-adv-x="593" 
d="M389 731q-48 0 -48 40q0 31 19.5 51t49.5 20q48 0 48 -41q0 -31 -19 -50.5t-50 -19.5zM296 -14q-239 0 -239 271q0 172 90.5 292t232.5 120q49 0 88 -12t66 -26.5t40 -17.5l-54 -92q-15 27 -56 46.5t-91 19.5q-88 0 -154.5 -98t-66.5 -224q0 -198 153 -198q69 0 121 38
l28 146h-25q-69 0 -113 -11l20 100q35 -8 109 -8h117q-13 -27 -31 -119l-15 -77q-13 -70 -12 -97q-5 -1 -79 -27t-129 -26z" />
    <glyph glyph-name="gdotaccent" unicode="&#x121;" horiz-adv-x="519" 
d="M334 573q-48 0 -48 40q0 31 19.5 51t49.5 20q48 0 48 -41q0 -31 -19 -50.5t-50 -19.5zM168 -219q-86 0 -176 51l49 93q47 -67 128 -67q60 0 98.5 33.5t53.5 93.5l19 81h-4q-63 -77 -152 -77q-68 0 -106.5 46.5t-38.5 135.5q0 139 82 233.5t186 94.5q60 0 120 -29l9 17h80
l-107 -500q-44 -206 -241 -206zM200 70q39 0 83.5 33t78.5 86l43 198q-43 32 -98 32q-71 0 -123.5 -70t-52.5 -177q0 -50 18 -76t51 -26z" />
    <glyph glyph-name="uni0122" unicode="&#x122;" horiz-adv-x="593" 
d="M296 -14q-239 0 -239 271q0 172 90.5 292t232.5 120q49 0 88 -12t66 -26.5t40 -17.5l-54 -92q-15 27 -56 46.5t-91 19.5q-88 0 -154.5 -98t-66.5 -224q0 -198 153 -198q69 0 121 38l28 146h-25q-69 0 -113 -11l20 100q35 -8 109 -8h117q-13 -27 -31 -119l-15 -77
q-13 -70 -12 -97q-5 -1 -79 -27t-129 -26zM228 -245l-12 33q59 25 72 70q-3 -1 -8 -1q-15 0 -25 9t-10 24q0 21 15 36.5t35 15.5q42 0 42 -45q0 -44 -29 -82.5t-80 -59.5z" />
    <glyph glyph-name="uni0123" unicode="&#x123;" horiz-adv-x="519" 
d="M327 551q-43 0 -43 46q0 45 30 84t82 59l12 -33q-60 -23 -73 -71q4 1 9 1q15 0 25.5 -8.5t10.5 -24.5q0 -22 -15.5 -37.5t-37.5 -15.5zM168 -219q-86 0 -176 51l49 93q47 -67 128 -67q60 0 98.5 33.5t53.5 93.5l19 81h-4q-63 -77 -152 -77q-68 0 -106.5 46.5t-38.5 135.5
q0 139 82 233.5t186 94.5q60 0 120 -29l9 17h80l-107 -500q-44 -206 -241 -206zM200 70q39 0 83.5 33t78.5 86l43 198q-43 32 -98 32q-71 0 -123.5 -70t-52.5 -177q0 -50 18 -76t51 -26z" />
    <glyph glyph-name="Hbar" unicode="&#x126;" horiz-adv-x="660" 
d="M679 544l-13 -59h-60l-71 -364q-16 -88 -7 -121h-124q24 38 40 121l35 183h-296l-35 -183q-16 -87 -7 -121h-123q25 45 40 121l71 364h-43l13 59h41q14 77 4 112h124q-24 -43 -37 -112h296q14 77 4 112h124q-24 -36 -38 -112h62zM496 385l19 100h-296l-19 -100h296z" />
    <glyph glyph-name="hbar" unicode="&#x127;" horiz-adv-x="527" 
d="M361 503q72 0 102.5 -52.5t14.5 -135.5l-40 -203q-14 -77 -10 -94q2 -10 7 -18h-109l62 313q22 109 -56 109q-36 0 -80 -30.5t-76 -73.5l-40 -206q-14 -77 -10 -94q2 -10 7 -18h-109l110 552h-53l12 57h52q12 70 1 103h102l-19 -103h80l-12 -57h-79l-24 -127h5
q28 33 72 55.5t90 22.5z" />
    <glyph glyph-name="Imacron" unicode="&#x12a;" horiz-adv-x="253" 
d="M93 746l12 59h266l-12 -59h-266zM18 0q25 45 40 121l80 413q16 87 6 122h124q-24 -43 -39 -122l-81 -413q-17 -83 -7 -121h-123z" />
    <glyph glyph-name="imacron" unicode="&#x12b;" horiz-adv-x="232" 
d="M48 588l12 59h266l-12 -59h-266zM22 0l70 352q11 58 12.5 78.5t-4.5 56.5h110l-76 -375q-18 -91 -3 -112h-109z" />
    <glyph glyph-name="Iogonek" unicode="&#x12e;" horiz-adv-x="253" 
d="M144 656h124q-24 -43 -39 -122l-81 -413q-17 -83 -7 -121q-47 -21 -75.5 -52.5t-28.5 -61.5q0 -27 30 -27q20 0 36 19l14 -48q-29 -25 -74 -25q-33 0 -53 15.5t-20 45.5q0 40 30 77t78 57h-60q25 45 40 121l80 413q16 87 6 122z" />
    <glyph glyph-name="iogonek" unicode="&#x12f;" horiz-adv-x="238" 
d="M204 702q23 0 36.5 -13.5t13.5 -38.5q0 -34 -19.5 -54t-49.5 -20q-23 0 -37 13t-14 38q0 34 20 54.5t50 20.5zM95 352q11 55 13 77.5t-5 57.5h110l-75 -375q-19 -89 -3 -112q-47 -21 -75.5 -52.5t-28.5 -61.5q0 -27 30 -27q20 0 36 19l14 -48q-29 -25 -74 -25
q-33 0 -53 15.5t-20 45.5q0 40 30 77t78 57h-46z" />
    <glyph glyph-name="Idotaccent" unicode="&#x130;" horiz-adv-x="253" 
d="M223 731q-48 0 -48 40q0 31 19.5 51t49.5 20q48 0 48 -41q0 -31 -19 -50.5t-50 -19.5zM18 0q25 45 40 121l80 413q16 87 6 122h124q-24 -43 -39 -122l-81 -413q-17 -83 -7 -121h-123z" />
    <glyph glyph-name="dotlessi" unicode="&#x131;" horiz-adv-x="232" 
d="M22 0l70 352q11 58 12.5 78.5t-4.5 56.5h110l-76 -375q-18 -91 -3 -112h-109z" />
    <glyph glyph-name="uni0136" unicode="&#x136;" horiz-adv-x="598" 
d="M17 0q25 39 41 121l81 413q9 51 10.5 67.5t-3.5 54.5h122q-24 -38 -39 -119l-40 -204h4l247 244q30 30 41.5 45.5t13.5 33.5h140q-42 -26 -135 -120l-132 -135l103 -260q37 -98 71 -141h-136q3 45 -21 107l-88 227l-133 -129l-17 -86q-15 -84 -6 -119h-124zM188 -245
l-12 33q59 25 72 70q-3 -1 -8 -1q-15 0 -25 9t-10 24q0 21 15 36.5t35 15.5q42 0 42 -45q0 -44 -29 -82.5t-80 -59.5z" />
    <glyph glyph-name="uni0137" unicode="&#x137;" horiz-adv-x="500" 
d="M24 0l115 577q19 99 7 135h109l-61 -306q28 43 72 69t94 26q56 0 92 -33.5t36 -88.5q0 -70 -42.5 -115.5t-107.5 -65.5l51 -103q24 -48 35 -64.5t30 -30.5h-110l-101 209v37q66 2 109.5 35t43.5 85q0 26 -15 41.5t-40 15.5q-42 0 -90.5 -40t-82.5 -107l-32 -164
q-10 -53 -11 -72t8 -40h-109zM147 -245l-12 33q59 25 72 70q-3 -1 -8 -1q-15 0 -25 9t-10 24q0 21 15 36.5t35 15.5q42 0 42 -45q0 -44 -29 -82.5t-80 -59.5z" />
    <glyph glyph-name="Lacute" unicode="&#x139;" horiz-adv-x="476" 
d="M241 718l-34 43q96 54 176 166l48 -58q-83 -102 -190 -151zM407 -7q-35 7 -117 7h-272q23 35 40 121l81 413q16 84 6 122h124q-25 -38 -40 -122l-90 -457h166q86 0 122 20z" />
    <glyph glyph-name="lacute" unicode="&#x13a;" horiz-adv-x="233" 
d="M202 752l-34 43q96 54 176 166l48 -58q-83 -102 -190 -151zM24 0l112 568q21 99 7 144h112l-117 -591q-19 -94 -1 -121h-113z" />
    <glyph glyph-name="uni013B" unicode="&#x13b;" horiz-adv-x="476" 
d="M407 -7q-35 7 -117 7h-272q23 35 40 121l81 413q16 84 6 122h124q-25 -38 -40 -122l-90 -457h166q86 0 122 20zM178 -245l-12 33q59 25 72 70q-3 -1 -8 -1q-15 0 -25 9t-10 24q0 21 15 36.5t35 15.5q42 0 42 -45q0 -44 -29 -82.5t-80 -59.5z" />
    <glyph glyph-name="uni013C" unicode="&#x13c;" horiz-adv-x="233" 
d="M24 0l112 568q21 99 7 144h112l-117 -591q-19 -94 -1 -121h-113zM-3 -245l-12 33q59 25 72 70q-3 -1 -8 -1q-15 0 -25 9t-10 24q0 21 15 36.5t35 15.5q42 0 42 -45q0 -44 -29 -82.5t-80 -59.5z" />
    <glyph glyph-name="Lcaron" unicode="&#x13d;" horiz-adv-x="485" 
d="M407 -7q-35 7 -117 7h-272q23 35 40 121l81 413q16 84 6 122h124q-25 -38 -40 -122l-90 -457h166q86 0 122 20zM319 468l24 188h78l-50 -188h-52z" />
    <glyph glyph-name="lcaron" unicode="&#x13e;" horiz-adv-x="233" 
d="M24 0l112 568q21 99 7 144h112l-117 -591q-19 -94 -1 -121h-113zM273 522l24 188h78l-51 -188h-51z" />
    <glyph glyph-name="Lslash" unicode="&#x141;" horiz-adv-x="485" 
d="M305 77q86 0 122 20l-20 -104q-35 7 -117 7h-272q23 35 40 121l36 185l-55 -10l-1 58l68 12l33 168q16 84 6 122h124q-25 -38 -40 -122l-30 -152l90 16v-58l-102 -18l-48 -245h166z" />
    <glyph glyph-name="lslash" unicode="&#x142;" horiz-adv-x="233" 
d="M232 392l11 -57l-65 -13l-40 -201q-19 -94 -1 -121h-113l60 304l-43 -8l-11 57l66 13l40 202q21 99 7 144h112l-65 -328z" />
    <glyph glyph-name="Nacute" unicode="&#x143;" horiz-adv-x="639" 
d="M409 718l-34 43q96 54 176 166l48 -58q-83 -102 -190 -151zM18 0q23 35 40 121l81 413q16 84 6 122h120l197 -491h4q0 50 11 107l52 265q14 85 6 119h119q-24 -40 -40 -122l-76 -390q-19 -101 -12 -144h-95l-215 532h-4q2 -46 -9 -104l-60 -308q-17 -85 -7 -120h-118z
" />
    <glyph glyph-name="nacute" unicode="&#x144;" horiz-adv-x="531" 
d="M314 560l-34 43q96 54 176 166l48 -58q-83 -102 -190 -151zM24 0l68 344q20 103 8 143h102l-9 -62h4q30 34 73.5 56t89.5 22q72 0 103.5 -50t15.5 -131l-39 -201q-19 -97 -3 -121h-111l62 313q22 109 -57 109q-35 0 -79 -30.5t-76 -73.5l-38 -197q-19 -96 -4 -121h-110z
" />
    <glyph glyph-name="uni0145" unicode="&#x145;" horiz-adv-x="639" 
d="M18 0q23 35 40 121l81 413q16 84 6 122h120l197 -491h4q0 50 11 107l52 265q14 85 6 119h119q-24 -40 -40 -122l-76 -390q-19 -101 -12 -144h-95l-215 532h-4q2 -46 -9 -104l-60 -308q-17 -85 -7 -120h-118zM203 -245l-12 33q59 25 72 70q-3 -1 -8 -1q-15 0 -25 9t-10 24
q0 21 15 36.5t35 15.5q42 0 42 -45q0 -44 -29 -82.5t-80 -59.5z" />
    <glyph glyph-name="uni0146" unicode="&#x146;" horiz-adv-x="531" 
d="M24 0l68 344q20 103 8 143h102l-9 -62h4q30 34 73.5 56t89.5 22q72 0 103.5 -50t15.5 -131l-39 -201q-19 -97 -3 -121h-111l62 313q22 109 -57 109q-35 0 -79 -30.5t-76 -73.5l-38 -197q-19 -96 -4 -121h-110zM157 -236l-12 33q59 25 72 70q-3 -1 -8 -1q-15 0 -25 9
t-10 24q0 21 15 36.5t35 15.5q42 0 42 -45q0 -44 -29 -82.5t-80 -59.5z" />
    <glyph glyph-name="Ncaron" unicode="&#x147;" horiz-adv-x="639" 
d="M379 718q-26 85 -87 140l43 33q70 -47 96 -112h4q59 70 141 112l29 -34q-85 -58 -140 -139h-86zM18 0q23 35 40 121l81 413q16 84 6 122h120l197 -491h4q0 50 11 107l52 265q14 85 6 119h119q-24 -40 -40 -122l-76 -390q-19 -101 -12 -144h-95l-215 532h-4q2 -46 -9 -104
l-60 -308q-17 -85 -7 -120h-118z" />
    <glyph glyph-name="ncaron" unicode="&#x148;" horiz-adv-x="531" 
d="M284 560q-26 85 -87 140l43 33q70 -47 96 -112h4q59 70 141 112l29 -34q-85 -58 -140 -139h-86zM24 0l68 344q20 103 8 143h102l-9 -62h4q30 34 73.5 56t89.5 22q72 0 103.5 -50t15.5 -131l-39 -201q-19 -97 -3 -121h-111l62 313q22 109 -57 109q-35 0 -79 -30.5
t-76 -73.5l-38 -197q-19 -96 -4 -121h-110z" />
    <glyph glyph-name="Eng" unicode="&#x14a;" horiz-adv-x="639" 
d="M654 656q-23 -36 -41 -122l-90 -464l-21 -105q-17 -90 -55.5 -127.5t-111.5 -37.5q-13 0 -38 2.5t-35 0.5l33 98q12 -23 50 -23q33 0 50.5 28t30.5 97l1 5l-211 524h-4q2 -46 -9 -104l-60 -308q-16 -89 -7 -120h-118q24 37 40 121l81 413q16 83 6 122h121l196 -491h4
q0 50 11 107l51 265q15 82 7 119h119z" />
    <glyph glyph-name="eng" unicode="&#x14b;" horiz-adv-x="510" 
d="M238 -186q-17 0 -41 3t-30 3l37 90q11 -23 43 -23q55 0 78 116l61 310q22 109 -57 109q-35 0 -79 -30.5t-76 -73.5l-40 -206q-11 -56 -11.5 -77.5t7.5 -34.5h-108l70 354q11 53 13 75.5t-5 57.5h101l-10 -62h5q29 33 72.5 55.5t89.5 22.5q72 0 103 -53t14 -135l-63 -321
q-18 -93 -59 -136.5t-115 -43.5z" />
    <glyph glyph-name="Omacron" unicode="&#x14c;" horiz-adv-x="637" 
d="M270 746l12 59h266l-12 -59h-266zM288 -12q-100 0 -164.5 73t-64.5 201q0 174 84 290t239 116q100 0 164.5 -73t64.5 -200q0 -114 -34.5 -204t-109 -146.5t-179.5 -56.5zM295 71q69 0 120.5 44.5t76.5 115t25 156.5q0 96 -41 147t-101 51q-69 0 -120.5 -44t-76 -115
t-24.5 -157q0 -96 40 -147t101 -51z" />
    <glyph glyph-name="omacron" unicode="&#x14d;" horiz-adv-x="527" 
d="M191 588l12 59h266l-12 -59h-266zM222 -16q-86 0 -135.5 51.5t-49.5 144.5q0 139 77 231t191 92q85 0 134.5 -51.5t49.5 -144.5q0 -139 -76.5 -231t-190.5 -92zM232 66q65 0 115 70t50 170q0 53 -26 84t-76 31q-65 0 -115.5 -70t-50.5 -170q0 -53 26.5 -84t76.5 -31z" />
    <glyph glyph-name="Ohungarumlaut" unicode="&#x150;" horiz-adv-x="637" 
d="M336 714l-43 22q70 72 120 171l57 -30q-57 -94 -134 -163zM490 714l-44 22q72 77 121 171l55 -30q-57 -93 -132 -163zM288 -12q-100 0 -164.5 73t-64.5 201q0 174 84 290t239 116q100 0 164.5 -73t64.5 -200q0 -114 -34.5 -204t-109 -146.5t-179.5 -56.5zM295 71
q69 0 120.5 44.5t76.5 115t25 156.5q0 96 -41 147t-101 51q-69 0 -120.5 -44t-76 -115t-24.5 -157q0 -96 40 -147t101 -51z" />
    <glyph glyph-name="ohungarumlaut" unicode="&#x151;" horiz-adv-x="527" 
d="M257 556l-43 22q70 72 120 171l57 -30q-57 -94 -134 -163zM411 556l-44 22q72 77 121 171l55 -30q-57 -93 -132 -163zM222 -16q-86 0 -135.5 51.5t-49.5 144.5q0 139 77 231t191 92q85 0 134.5 -51.5t49.5 -144.5q0 -139 -76.5 -231t-190.5 -92zM232 66q65 0 115 70
t50 170q0 53 -26 84t-76 31q-65 0 -115.5 -70t-50.5 -170q0 -53 26.5 -84t76.5 -31z" />
    <glyph glyph-name="OE" unicode="&#x152;" horiz-adv-x="844" 
d="M739 577h-159l-37 -195h112q87 0 121 10l-19 -99q-30 10 -117 10h-112l-44 -224h171q82 0 123 15l-19 -101q-46 7 -119 7h-268q-44 -12 -94 -12q-107 0 -165.5 63.5t-58.5 186.5q0 191 99.5 310.5t256.5 119.5q49 0 88 -12h256q74 0 122 7l-21 -101q-35 15 -116 15z
M149 247q0 -88 38 -133t107 -45q62 0 102 24l6 28l81 413l6 35q-40 18 -85 18q-110 0 -182.5 -94.5t-72.5 -245.5z" />
    <glyph glyph-name="oe" unicode="&#x153;" horiz-adv-x="844" 
d="M611 208h-129q-8 -63 22.5 -104t82.5 -41q94 0 134 54l33 -86q-88 -47 -180 -47q-115 0 -161 92q-76 -92 -191 -92q-86 0 -135.5 51.5t-49.5 144.5q0 139 77 231t191 92t160 -88q72 88 180 88q77 0 123 -45t46 -110q0 -140 -203 -140zM636 424q-52 0 -91 -42.5
t-50 -102.5h95q78 0 106 18t28 50t-23 54.5t-65 22.5zM232 66q65 0 115 70t50 170q0 53 -26 84t-76 31q-65 0 -115.5 -70t-50.5 -170q0 -53 26.5 -84t76.5 -31z" />
    <glyph glyph-name="Racute" unicode="&#x154;" horiz-adv-x="572" 
d="M343 718l-34 43q96 54 176 166l48 -58q-83 -102 -190 -151zM18 0q23 35 40 121l81 413q16 84 6 122h214q95 0 151 -41.5t56 -127.5q0 -84 -49 -141.5t-134 -71.5l57 -148q35 -92 68 -126h-145q9 36 -18 111l-57 152h-112l-28 -142q-16 -91 -7 -121h-123zM191 343h103
q180 0 180 136q0 97 -131 97h-107z" />
    <glyph glyph-name="racute" unicode="&#x155;" horiz-adv-x="360" 
d="M223 560l-34 43q96 54 176 166l48 -58q-83 -102 -190 -151zM26 0l68 344q20 105 6 143h102l-10 -73h4q24 38 63 62.5t74 24.5q34 0 56 -13l-33 -89q-14 18 -36 18q-33 0 -76 -40.5t-77 -111.5l-26 -134q-19 -107 2 -131h-117z" />
    <glyph glyph-name="uni0156" unicode="&#x156;" horiz-adv-x="572" 
d="M18 0q23 35 40 121l81 413q16 84 6 122h214q95 0 151 -41.5t56 -127.5q0 -84 -49 -141.5t-134 -71.5l57 -148q35 -92 68 -126h-145q9 36 -18 111l-57 152h-112l-28 -142q-16 -91 -7 -121h-123zM191 343h103q180 0 180 136q0 97 -131 97h-107zM171 -245l-12 33
q59 25 72 70q-3 -1 -8 -1q-15 0 -25 9t-10 24q0 21 15 36.5t35 15.5q42 0 42 -45q0 -44 -29 -82.5t-80 -59.5z" />
    <glyph glyph-name="uni0157" unicode="&#x157;" horiz-adv-x="360" 
d="M26 0l68 344q20 105 6 143h102l-10 -73h4q24 38 63 62.5t74 24.5q34 0 56 -13l-33 -89q-14 18 -36 18q-33 0 -76 -40.5t-77 -111.5l-26 -134q-19 -107 2 -131h-117zM3 -245l-12 33q59 25 72 70q-3 -1 -8 -1q-15 0 -25 9t-10 24q0 21 15 36.5t35 15.5q42 0 42 -45
q0 -44 -29 -82.5t-80 -59.5z" />
    <glyph glyph-name="Rcaron" unicode="&#x158;" horiz-adv-x="572" 
d="M313 718q-26 85 -87 140l43 33q70 -47 96 -112h4q59 70 141 112l29 -34q-85 -58 -140 -139h-86zM18 0q23 35 40 121l81 413q16 84 6 122h214q95 0 151 -41.5t56 -127.5q0 -84 -49 -141.5t-134 -71.5l57 -148q35 -92 68 -126h-145q9 36 -18 111l-57 152h-112l-28 -142
q-16 -91 -7 -121h-123zM191 343h103q180 0 180 136q0 97 -131 97h-107z" />
    <glyph glyph-name="rcaron" unicode="&#x159;" horiz-adv-x="360" 
d="M193 560q-26 85 -87 140l43 33q70 -47 96 -112h4q59 70 141 112l29 -34q-85 -58 -140 -139h-86zM26 0l68 344q20 105 6 143h102l-10 -73h4q24 38 63 62.5t74 24.5q34 0 56 -13l-33 -89q-14 18 -36 18q-33 0 -76 -40.5t-77 -111.5l-26 -134q-19 -107 2 -131h-117z" />
    <glyph glyph-name="Sacute" unicode="&#x15a;" horiz-adv-x="537" 
d="M341 718l-34 43q96 54 176 166l48 -58q-83 -102 -190 -151zM228 -12q-44 0 -88.5 12t-83.5 28t-55 20l71 105q23 -39 67.5 -62t96.5 -23q68 0 111.5 34t43.5 92q0 62 -87 96l-63 25q-124 49 -124 152q0 94 65 147.5t166 53.5q40 0 77 -9.5t72.5 -23.5t46.5 -17l-63 -96
q-48 65 -141 65q-56 0 -93 -30.5t-37 -80.5q0 -32 22 -51.5t63 -35.5l63 -25q128 -50 128 -158q0 -100 -73 -159t-185 -59z" />
    <glyph glyph-name="sacute" unicode="&#x15b;" horiz-adv-x="413" 
d="M239 560l-34 43q96 54 176 166l48 -58q-83 -102 -190 -151zM182 -12q-39 0 -73.5 10t-70 27.5t-41.5 19.5l59 95q40 -76 133 -76q36 0 59 17.5t23 49.5q0 27 -18 43t-54 33l-26 13q-98 49 -98 136q0 66 46 106.5t119 40.5q31 0 60 -9t57 -22t39 -16l-49 -93
q-36 63 -113 63q-31 0 -51 -16.5t-20 -42.5q0 -43 56 -72l31 -16q24 -12 38.5 -21t33.5 -25.5t28 -40t9 -53.5q0 -68 -47.5 -109.5t-129.5 -41.5z" />
    <glyph glyph-name="Scedilla" unicode="&#x15e;" horiz-adv-x="537" 
d="M358 364q128 -50 128 -158q0 -93 -63 -151t-163 -66l-14 -40q76 -13 76 -68q0 -51 -50 -79.5t-137 -28.5l2 51q53 -7 85 6.5t32 42.5q0 34 -68 39l34 76q-57 2 -137 31t-82 29l71 105q23 -39 67.5 -62t96.5 -23q68 0 111.5 34t43.5 92q0 62 -87 96l-63 25
q-124 49 -124 152q0 94 65 147.5t166 53.5q40 0 77 -9.5t72.5 -23.5t46.5 -17l-63 -96q-48 65 -141 65q-56 0 -93 -30.5t-37 -80.5q0 -32 22 -51.5t63 -35.5z" />
    <glyph glyph-name="scedilla" unicode="&#x15f;" horiz-adv-x="413" 
d="M250 279q24 -12 38.5 -21t33.5 -25.5t28 -40t9 -53.5q0 -67 -45.5 -108t-123.5 -43l-14 -39q76 -13 76 -68q0 -51 -50 -79.5t-137 -28.5l2 51q53 -7 85 6.5t32 42.5q0 34 -68 39l35 78q-31 4 -60 14t-57 24t-37 17l59 95q40 -76 133 -76q36 0 59 17.5t23 49.5
q0 27 -18 43t-54 33l-26 13q-98 49 -98 136q0 66 46 106.5t119 40.5q31 0 60 -9t57 -22t39 -16l-49 -93q-36 63 -113 63q-31 0 -51 -16.5t-20 -42.5q0 -43 56 -72z" />
    <glyph glyph-name="Scaron" unicode="&#x160;" horiz-adv-x="537" 
d="M311 718q-26 85 -87 140l43 33q70 -47 96 -112h4q59 70 141 112l29 -34q-85 -58 -140 -139h-86zM228 -12q-44 0 -88.5 12t-83.5 28t-55 20l71 105q23 -39 67.5 -62t96.5 -23q68 0 111.5 34t43.5 92q0 62 -87 96l-63 25q-124 49 -124 152q0 94 65 147.5t166 53.5
q40 0 77 -9.5t72.5 -23.5t46.5 -17l-63 -96q-48 65 -141 65q-56 0 -93 -30.5t-37 -80.5q0 -32 22 -51.5t63 -35.5l63 -25q128 -50 128 -158q0 -100 -73 -159t-185 -59z" />
    <glyph glyph-name="scaron" unicode="&#x161;" horiz-adv-x="413" 
d="M209 560q-26 85 -87 140l43 33q70 -47 96 -112h4q59 70 141 112l29 -34q-85 -58 -140 -139h-86zM182 -12q-39 0 -73.5 10t-70 27.5t-41.5 19.5l59 95q40 -76 133 -76q36 0 59 17.5t23 49.5q0 27 -18 43t-54 33l-26 13q-98 49 -98 136q0 66 46 106.5t119 40.5q31 0 60 -9
t57 -22t39 -16l-49 -93q-36 63 -113 63q-31 0 -51 -16.5t-20 -42.5q0 -43 56 -72l31 -16q24 -12 38.5 -21t33.5 -25.5t28 -40t9 -53.5q0 -68 -47.5 -109.5t-129.5 -41.5z" />
    <glyph glyph-name="uni0162" unicode="&#x162;" horiz-adv-x="524" 
d="M465 656q70 0 119 7l-19 -101q-42 15 -115 15h-78l-88 -456q-16 -77 -7 -121h-49l-18 -51q76 -13 76 -68q0 -51 -50 -79.5t-137 -28.5l2 51q53 -7 85 6.5t32 42.5q0 34 -68 39l40 88h-37q26 48 41 121l88 456h-78q-74 0 -121 -15l19 101q48 -7 117 -7h246z" />
    <glyph glyph-name="uni0163" unicode="&#x163;" horiz-adv-x="350" 
d="M215 410l-52 -255q-10 -49 2 -69.5t45 -20.5q44 0 68 26l20 -89q-9 0 -44 -6.5t-60 -7.5l-14 -39q76 -13 76 -68q0 -51 -50 -79.5t-137 -28.5l2 51q53 -7 85 6.5t32 42.5q0 34 -68 39l35 78q-51 10 -73.5 54.5t-8.5 113.5l53 252h-71l15 77h74l19 86h86l-17 -86h122
l-14 -77h-125z" />
    <glyph glyph-name="Tcaron" unicode="&#x164;" horiz-adv-x="524" 
d="M306 699q-26 85 -87 140l43 33q70 -47 96 -112h4q59 70 141 112l29 -34q-85 -58 -140 -139h-86zM153 0q26 48 41 121l88 456h-78q-74 0 -121 -15l19 101q48 -7 117 -7h246q70 0 119 7l-19 -101q-42 15 -115 15h-78l-88 -456q-16 -77 -7 -121h-124z" />
    <glyph glyph-name="tcaron" unicode="&#x165;" horiz-adv-x="348" 
d="M290 541l23 186h74l-50 -186h-47zM183 -12q-65 0 -95.5 46t-14.5 124l53 252h-71l15 77h74l19 86h86l-17 -86h122l-14 -77h-125l-52 -255q-10 -49 2 -69.5t45 -20.5q44 0 68 26l20 -89q-8 0 -47.5 -7t-67.5 -7z" />
    <glyph glyph-name="Tbar" unicode="&#x166;" horiz-adv-x="524" 
d="M465 656q70 0 119 7l-19 -101q-42 15 -115 15h-78l-44 -230h101l-13 -59h-100l-32 -167q-16 -77 -7 -121h-124q26 48 41 121l32 167h-99l12 59h99l44 230h-78q-74 0 -121 -15l19 101q48 -7 117 -7h246z" />
    <glyph glyph-name="tbar" unicode="&#x167;" horiz-adv-x="348" 
d="M340 410h-125l-21 -105h95l-12 -58h-95l-19 -92q-10 -49 2 -69.5t45 -20.5q44 0 68 26l20 -89q-8 0 -47.5 -7t-67.5 -7q-65 0 -95.5 46t-14.5 124l19 89h-62l12 58h62l22 105h-71l15 77h74l19 86h86l-17 -86h122z" />
    <glyph glyph-name="Umacron" unicode="&#x16a;" horiz-adv-x="630" 
d="M276 746l12 59h266l-12 -59h-266zM273 -12q-112 0 -164.5 66.5t-23.5 214.5l51 265q17 89 7 122h124q-23 -36 -41 -122l-51 -266q-38 -201 107 -201q148 0 187 201l51 266q17 87 7 122h120q-25 -41 -40 -122l-52 -265q-28 -149 -96.5 -215t-185.5 -66z" />
    <glyph glyph-name="umacron" unicode="&#x16b;" horiz-adv-x="525" 
d="M185 588l12 59h266l-12 -59h-266zM166 -16q-68 0 -96 46.5t-12 127.5l39 208q6 33 7.5 43t3.5 30t0 30t-8 18h111l-62 -313q-22 -109 41 -109q39 0 82 37t79 91l35 173q20 97 3 121h111l-69 -344q-20 -101 -2 -143h-104l8 72h-5q-30 -36 -73 -62t-89 -26z" />
    <glyph glyph-name="Uring" unicode="&#x16e;" horiz-adv-x="630" 
d="M399 699q-44 0 -69 22t-25 57q0 49 38.5 83.5t93.5 34.5q43 0 68.5 -22t25.5 -56q0 -49 -38.5 -84t-93.5 -35zM406 742q28 0 47 20t19 50q0 19 -12 30t-30 11q-29 0 -47.5 -19.5t-18.5 -50.5q0 -19 12 -30t30 -11zM273 -12q-112 0 -164.5 66.5t-23.5 214.5l51 265
q17 89 7 122h124q-23 -36 -41 -122l-51 -266q-38 -201 107 -201q148 0 187 201l51 266q17 87 7 122h120q-25 -41 -40 -122l-52 -265q-28 -149 -96.5 -215t-185.5 -66z" />
    <glyph glyph-name="uring" unicode="&#x16f;" horiz-adv-x="525" 
d="M308 541q-44 0 -69 22t-25 57q0 49 38.5 83.5t93.5 34.5q43 0 68.5 -22t25.5 -56q0 -49 -38.5 -84t-93.5 -35zM315 584q28 0 47 20t19 50q0 19 -12 30t-30 11q-29 0 -47.5 -19.5t-18.5 -50.5q0 -19 12 -30t30 -11zM166 -16q-68 0 -96 46.5t-12 127.5l39 208q6 33 7.5 43
t3.5 30t0 30t-8 18h111l-62 -313q-22 -109 41 -109q39 0 82 37t79 91l35 173q20 97 3 121h111l-69 -344q-20 -101 -2 -143h-104l8 72h-5q-30 -36 -73 -62t-89 -26z" />
    <glyph glyph-name="Uhungarumlaut" unicode="&#x170;" horiz-adv-x="630" 
d="M342 714l-43 22q70 72 120 171l57 -30q-57 -94 -134 -163zM496 714l-44 22q72 77 121 171l55 -30q-57 -93 -132 -163zM273 -12q-112 0 -164.5 66.5t-23.5 214.5l51 265q17 89 7 122h124q-23 -36 -41 -122l-51 -266q-38 -201 107 -201q148 0 187 201l51 266q17 87 7 122
h120q-25 -41 -40 -122l-52 -265q-28 -149 -96.5 -215t-185.5 -66z" />
    <glyph glyph-name="uhungarumlaut" unicode="&#x171;" horiz-adv-x="525" 
d="M251 556l-43 22q70 72 120 171l57 -30q-57 -94 -134 -163zM405 556l-44 22q72 77 121 171l55 -30q-57 -93 -132 -163zM166 -16q-68 0 -96 46.5t-12 127.5l39 208q6 33 7.5 43t3.5 30t0 30t-8 18h111l-62 -313q-22 -109 41 -109q39 0 82 37t79 91l35 173q20 97 3 121h111
l-69 -344q-20 -101 -2 -143h-104l8 72h-5q-30 -36 -73 -62t-89 -26z" />
    <glyph glyph-name="Uogonek" unicode="&#x172;" horiz-adv-x="630" 
d="M527 656h120q-25 -41 -40 -122l-52 -265q-23 -124 -74 -190t-133 -84q-42 -21 -66.5 -50.5t-24.5 -56.5t30 -27q20 0 36 19l14 -48q-29 -25 -74 -25q-33 0 -53 15.5t-20 45.5q0 33 22 65.5t59 54.5q-111 1 -163 67.5t-23 213.5l51 265q17 89 7 122h124q-23 -36 -41 -122
l-51 -266q-38 -201 107 -201q148 0 187 201l51 266q17 87 7 122z" />
    <glyph glyph-name="uogonek" unicode="&#x173;" horiz-adv-x="525" 
d="M500 487l-69 -344q-20 -101 -2 -143q-47 -21 -75.5 -52.5t-28.5 -61.5q0 -27 30 -27q20 0 36 19l14 -48q-29 -25 -74 -25q-33 0 -53 15.5t-20 45.5q0 40 30 77t78 57h-41l8 72h-5q-30 -36 -73 -62t-89 -26q-68 0 -96 46.5t-12 127.5l39 208q6 33 7.5 43t3.5 30t0 30
t-8 18h111l-62 -313q-22 -109 41 -109q39 0 82 37t79 91l35 173q20 97 3 121h111z" />
    <glyph glyph-name="Wcircumflex" unicode="&#x174;" horiz-adv-x="819" 
d="M530 824q-55 -67 -141 -112l-30 34q82 54 141 139h86q26 -84 87 -139l-42 -34q-70 46 -97 112h-4zM759 656h120q-27 -35 -66 -128l-164 -413q-34 -83 -31 -115h-148q16 37 12 114l-17 393l-175 -393q-41 -90 -34 -114h-149q18 36 16 115l-7 417q-1 84 -16 124h125
q-19 -34 -18 -117l2 -417l190 426q36 81 30 108h130q-11 -30 -8 -108l18 -425l163 416q2 5 6.5 17t6 16.5t5 14t4.5 13.5l3 12t2.5 12.5t1 10.5t0 11t-1.5 10z" />
    <glyph glyph-name="wcircumflex" unicode="&#x175;" horiz-adv-x="726" 
d="M304 554l-30 34q82 54 141 139h86q26 -84 87 -139l-42 -34q-70 46 -97 112h-4q-55 -67 -141 -112zM105 0l-26 384q-3 33 -5 46.5t-7 29t-15 27.5h108l15 -278q4 -110 3 -140h4q21 62 97 226q74 158 69 192h126l17 -278q5 -74 0 -140h4q12 37 58.5 138t75 178t18.5 102
h104q-19 -62 -107.5 -263t-96.5 -224h-128l-14 264q-2 41 -2 141h-4q-15 -62 -50 -141q-13 -30 -39.5 -84.5t-44.5 -95.5t-32 -84h-128z" />
    <glyph glyph-name="Ycircumflex" unicode="&#x176;" horiz-adv-x="526" 
d="M373 824q-55 -67 -141 -112l-30 34q82 54 141 139h86q26 -84 87 -139l-42 -34q-70 46 -97 112h-4zM472 656h123q-29 -28 -86 -112l-199 -293l-26 -130q-18 -92 -4 -121h-128q14 19 22 41.5t19 79.5l26 130l-86 296q-22 76 -43 109h123q-5 -19 -3 -38.5t15 -69.5l57 -214
l142 214q29 45 38.5 65.5t9.5 42.5z" />
    <glyph glyph-name="ycircumflex" unicode="&#x177;" horiz-adv-x="459" 
d="M167 554l-30 34q82 54 141 139h86q26 -84 87 -139l-42 -34q-70 46 -97 112h-4q-55 -67 -141 -112zM19 -200q-14 0 -37.5 3t-34.5 1l29 94q18 -19 49 -19q66 0 117 103l8 17l-66 386q-14 81 -35 102h106l42 -273q11 -77 12 -124h4l62 124l87 174q38 77 29 99h109
l-273 -527q-37 -71 -91 -115.5t-117 -44.5z" />
    <glyph glyph-name="Ydieresis" unicode="&#x178;" horiz-adv-x="526" 
d="M261 732q-19 0 -30.5 11.5t-11.5 29.5q0 25 19 43.5t44 18.5q19 0 30 -11.5t11 -29.5q0 -24 -18.5 -43t-43.5 -19zM455 732q-18 0 -29.5 11.5t-11.5 29.5q0 24 18.5 43t43.5 19q19 0 30.5 -11.5t11.5 -29.5q0 -25 -19 -43.5t-44 -18.5zM472 656h123q-29 -28 -86 -112
l-199 -293l-26 -130q-18 -92 -4 -121h-128q14 19 22 41.5t19 79.5l26 130l-86 296q-22 76 -43 109h123q-5 -19 -3 -38.5t15 -69.5l57 -214l142 214q29 45 38.5 65.5t9.5 42.5z" />
    <glyph glyph-name="Zacute" unicode="&#x179;" horiz-adv-x="559" 
d="M537 850q-83 -102 -190 -151l-34 43q96 54 176 166zM280 656h298l-11 -70q-17 -9 -30 -22.5t-52 -61.5l-341 -420h209q82 0 123 22l-21 -112q-27 8 -118 8h-330l9 71q20 13 36 30t62 74l323 398h-173q-86 0 -123 -21l21 111q28 -7 118 -7z" />
    <glyph glyph-name="zacute" unicode="&#x17a;" horiz-adv-x="414" 
d="M427 711q-83 -102 -190 -151l-34 43q96 54 176 166zM81 393l19 94h323l-7 -59l-299 -352h150q65 0 92 18l-17 -94h-351l8 60l299 351h-132q-61 0 -85 -18z" />
    <glyph glyph-name="Zdotaccent" unicode="&#x17b;" horiz-adv-x="559" 
d="M363 712q-48 0 -48 40q0 31 19.5 51t49.5 20q48 0 48 -41q0 -31 -19 -50.5t-50 -19.5zM280 656h298l-11 -70q-17 -9 -30 -22.5t-52 -61.5l-341 -420h209q82 0 123 22l-21 -112q-27 8 -118 8h-330l9 71q20 13 36 30t62 74l323 398h-173q-86 0 -123 -21l21 111
q28 -7 118 -7z" />
    <glyph glyph-name="zdotaccent" unicode="&#x17c;" horiz-adv-x="414" 
d="M252 573q-48 0 -48 40q0 31 19.5 51t49.5 20q48 0 48 -41q0 -31 -19 -50.5t-50 -19.5zM423 487l-7 -59l-299 -352h150q65 0 92 18l-17 -94h-351l8 60l299 351h-132q-61 0 -85 -18l19 94h323z" />
    <glyph glyph-name="Zcaron" unicode="&#x17d;" horiz-adv-x="559" 
d="M317 699q-26 85 -87 140l43 33q70 -47 96 -112h4q59 70 141 112l29 -34q-85 -58 -140 -139h-86zM280 656h298l-11 -70q-17 -9 -30 -22.5t-52 -61.5l-341 -420h209q82 0 123 22l-21 -112q-27 8 -118 8h-330l9 71q20 13 36 30t62 74l323 398h-173q-86 0 -123 -21l21 111
q28 -7 118 -7z" />
    <glyph glyph-name="zcaron" unicode="&#x17e;" horiz-adv-x="414" 
d="M207 560q-26 85 -87 140l43 33q70 -47 96 -112h4q59 70 141 112l29 -34q-85 -58 -140 -139h-86zM81 393l19 94h323l-7 -59l-299 -352h150q65 0 92 18l-17 -94h-351l8 60l299 351h-132q-61 0 -85 -18z" />
    <glyph glyph-name="florin" unicode="&#x192;" horiz-adv-x="464" 
d="M411 538q-32 0 -59 -25.5t-42 -81.5l-16 -61h64q41 0 58 10l-16 -85q-13 10 -54 10h-70l-35 -132q-50 -185 -195 -185q-11 0 -29.5 1.5t-30.5 1.5l26 94q23 -21 49 -21t50.5 25.5t39.5 81.5l35 134h-17q-41 0 -58 -10l16 85q14 -10 54 -10h23l15 58q49 186 209 186
q16 0 38.5 -2t34.5 -1l-27 -94q-27 21 -63 21z" />
    <glyph glyph-name="uni0218" unicode="&#x218;" horiz-adv-x="537" 
d="M228 -12q-44 0 -88.5 12t-83.5 28t-55 20l71 105q23 -39 67.5 -62t96.5 -23q68 0 111.5 34t43.5 92q0 62 -87 96l-63 25q-124 49 -124 152q0 94 65 147.5t166 53.5q40 0 77 -9.5t72.5 -23.5t46.5 -17l-63 -96q-48 65 -141 65q-56 0 -93 -30.5t-37 -80.5q0 -32 22 -51.5
t63 -35.5l63 -25q128 -50 128 -158q0 -100 -73 -159t-185 -59zM176 -245l-12 33q59 25 72 70q-3 -1 -8 -1q-15 0 -25 9t-10 24q0 21 15 36.5t35 15.5q42 0 42 -45q0 -44 -29 -82.5t-80 -59.5z" />
    <glyph glyph-name="uni0219" unicode="&#x219;" horiz-adv-x="413" 
d="M182 -12q-39 0 -73.5 10t-70 27.5t-41.5 19.5l59 95q40 -76 133 -76q36 0 59 17.5t23 49.5q0 27 -18 43t-54 33l-26 13q-98 49 -98 136q0 66 46 106.5t119 40.5q31 0 60 -9t57 -22t39 -16l-49 -93q-36 63 -113 63q-31 0 -51 -16.5t-20 -42.5q0 -43 56 -72l31 -16
q24 -12 38.5 -21t33.5 -25.5t28 -40t9 -53.5q0 -68 -47.5 -109.5t-129.5 -41.5zM106 -245l-12 33q59 25 72 70q-3 -1 -8 -1q-15 0 -25 9t-10 24q0 21 15 36.5t35 15.5q42 0 42 -45q0 -44 -29 -82.5t-80 -59.5z" />
    <glyph glyph-name="uni021A" unicode="&#x21a;" horiz-adv-x="524" 
d="M153 0q26 48 41 121l88 456h-78q-74 0 -121 -15l19 101q48 -7 117 -7h246q70 0 119 7l-19 -101q-42 15 -115 15h-78l-88 -456q-16 -77 -7 -121h-124zM140 -245l-12 33q59 25 72 70q-3 -1 -8 -1q-15 0 -25 9t-10 24q0 21 15 36.5t35 15.5q42 0 42 -45q0 -44 -29 -82.5
t-80 -59.5z" />
    <glyph glyph-name="uni021B" unicode="&#x21b;" horiz-adv-x="350" 
d="M183 -12q-65 0 -95.5 46t-14.5 124l53 252h-71l15 77h74l19 86h86l-17 -86h122l-14 -77h-125l-52 -255q-10 -49 2 -69.5t45 -20.5q44 0 68 26l20 -89q-8 0 -47.5 -7t-67.5 -7zM111 -245l-12 33q59 25 72 70q-3 -1 -8 -1q-15 0 -25 9t-10 24q0 21 15 36.5t35 15.5
q42 0 42 -45q0 -44 -29 -82.5t-80 -59.5z" />
    <glyph glyph-name="circumflex" unicode="&#x2c6;" horiz-adv-x="474" 
d="M179 567l-30 34q82 54 141 139h86q26 -84 87 -139l-42 -34q-70 46 -97 112h-4q-55 -67 -141 -112z" />
    <glyph glyph-name="caron" unicode="&#x2c7;" horiz-adv-x="474" 
d="M259 573q-26 85 -87 140l43 33q70 -47 96 -112h4q59 70 141 112l29 -34q-85 -58 -140 -139h-86z" />
    <glyph glyph-name="breve" unicode="&#x2d8;" horiz-adv-x="417" 
d="M273 557q-65 0 -91.5 46.5t-9.5 112.5h48q-8 -44 6.5 -72.5t53.5 -28.5q40 0 65.5 29t33.5 72h49q-23 -159 -155 -159z" />
    <glyph glyph-name="dotaccent" unicode="&#x2d9;" horiz-adv-x="275" 
d="M204 586q-48 0 -48 40q0 31 19.5 51t49.5 20q48 0 48 -41q0 -31 -19 -50.5t-50 -19.5z" />
    <glyph glyph-name="ring" unicode="&#x2da;" horiz-adv-x="382" 
d="M252 554q-44 0 -69 22t-25 57q0 49 38.5 83.5t93.5 34.5q43 0 68.5 -22t25.5 -56q0 -49 -38.5 -84t-93.5 -35zM259 597q28 0 47 20t19 50q0 19 -12 30t-30 11q-29 0 -47.5 -19.5t-18.5 -50.5q0 -19 12 -30t30 -11z" />
    <glyph glyph-name="ogonek" unicode="&#x2db;" horiz-adv-x="316" 
d="M82 -192q-33 0 -53 15.5t-20 45.5q0 42 34 81t87 58l50 -5q-47 -21 -75.5 -52.5t-28.5 -61.5q0 -27 30 -27q20 0 36 19l14 -48q-29 -25 -74 -25z" />
    <glyph glyph-name="tilde" unicode="&#x2dc;" horiz-adv-x="520" 
d="M397 582q-30 0 -53.5 18t-41 36.5t-33.5 18.5q-22 0 -29 -14t-5 -49l-66 3q20 123 111 123q30 0 53.5 -18.5t41.5 -37t34 -18.5q39 0 33 64l67 -4q-20 -122 -112 -122z" />
    <glyph glyph-name="hungarumlaut" unicode="&#x2dd;" horiz-adv-x="460" 
d="M190 569l-43 22q70 72 120 171l57 -30q-57 -94 -134 -163zM344 569l-44 22q72 77 121 171l55 -30q-57 -93 -132 -163z" />
    <glyph glyph-name="gravecomb" unicode="&#x300;" 
d="M-231 573q-88 50 -130 151l62 53q26 -104 105 -167z" />
    <glyph glyph-name="acutecomb" unicode="&#x301;" 
d="M-183 573l-34 43q96 54 176 166l48 -58q-83 -102 -190 -151z" />
    <glyph glyph-name="uni0302" unicode="&#x302;" 
d="M-363 567l-30 34q82 54 141 139h86q26 -84 87 -139l-42 -34q-70 46 -97 112h-4q-55 -67 -141 -112z" />
    <glyph glyph-name="tildecomb" unicode="&#x303;" 
d="M-145 582q-30 0 -53.5 18t-41 36.5t-33.5 18.5q-22 0 -29 -14t-5 -49l-66 3q20 123 111 123q30 0 53.5 -18.5t41.5 -37t34 -18.5q39 0 33 64l67 -4q-20 -122 -112 -122z" />
    <glyph glyph-name="uni0304" unicode="&#x304;" 
d="M-395 588l12 59h266l-12 -59h-266z" />
    <glyph glyph-name="uni0306" unicode="&#x306;" 
d="M-269 557q-65 0 -91.5 46.5t-9.5 112.5h48q-8 -44 6.5 -72.5t53.5 -28.5q40 0 65.5 29t33.5 72h49q-23 -159 -155 -159z" />
    <glyph glyph-name="uni0307" unicode="&#x307;" 
d="M-338 586q-48 0 -48 40q0 31 19.5 51t49.5 20q48 0 48 -41q0 -31 -19 -50.5t-50 -19.5z" />
    <glyph glyph-name="uni0308" unicode="&#x308;" 
d="M-344 587q-19 0 -30.5 11.5t-11.5 29.5q0 25 19 43.5t44 18.5q19 0 30 -11.5t11 -29.5q0 -24 -18.5 -43t-43.5 -19zM-150 587q-18 0 -29.5 11.5t-11.5 29.5q0 24 18.5 43t43.5 19q19 0 30.5 -11.5t11.5 -29.5q0 -25 -19 -43.5t-44 -18.5z" />
    <glyph glyph-name="uni030A" unicode="&#x30a;" 
d="M-137 554q-44 0 -69 22t-25 57q0 49 38.5 83.5t93.5 34.5q43 0 68.5 -22t25.5 -56q0 -49 -38.5 -84t-93.5 -35zM-130 597q28 0 47 20t19 50q0 19 -12 30t-30 11q-29 0 -47.5 -19.5t-18.5 -50.5q0 -19 12 -30t30 -11z" />
    <glyph glyph-name="uni030B" unicode="&#x30b;" 
d="M-352 569l-43 22q70 72 120 171l57 -30q-57 -94 -134 -163zM-198 569l-44 22q72 77 121 171l55 -30q-57 -93 -132 -163z" />
    <glyph glyph-name="uni030C" unicode="&#x30c;" 
d="M-283 573q-26 85 -87 140l43 33q70 -47 96 -112h4q59 70 141 112l29 -34q-85 -58 -140 -139h-86z" />
    <glyph glyph-name="uni0312" unicode="&#x312;" 
d="M-68 564q-43 0 -43 46q0 45 30 84t82 59l12 -33q-60 -23 -73 -71q4 1 9 1q15 0 25.5 -8.5t10.5 -24.5q0 -22 -15.5 -37.5t-37.5 -15.5z" />
    <glyph glyph-name="uni0326" unicode="&#x326;" 
d="M-260 -245l-12 33q59 25 72 70q-3 -1 -8 -1q-15 0 -25 9t-10 24q0 21 15 36.5t35 15.5q42 0 42 -45q0 -44 -29 -82.5t-80 -59.5z" />
    <glyph glyph-name="uni0327" unicode="&#x327;" 
d="M-339 -227l2 51q53 -7 85 6.5t32 42.5q0 34 -68 39l41 91h38l-19 -54q76 -13 76 -68q0 -51 -50 -79.5t-137 -28.5z" />
    <glyph glyph-name="uni0328" unicode="&#x328;" 
d="M-357 -192q-33 0 -53 15.5t-20 45.5q0 42 34 81t87 58l50 -5q-47 -21 -75.5 -52.5t-28.5 -61.5q0 -27 30 -27q20 0 36 19l14 -48q-29 -25 -74 -25z" />
    <glyph glyph-name="uni0394" unicode="&#x394;" horiz-adv-x="570" 
d="M467 541l67 -466l-33 -75h-460l-5 75l248 466q45 88 45 115h136q-10 -34 2 -115zM131 81h307l-58 494z" />
    <glyph glyph-name="uni03A9" unicode="&#x3a9;" horiz-adv-x="735" 
d="M497 76h68q43 0 59 11l-18 -97q-14 10 -56 10h-181l6 30h-1l10 47q80 26 143 132t63 217q0 75 -38.5 118t-108.5 43q-101 0 -169 -91t-68 -227q0 -75 28 -125.5t71 -66.5v-1l-6 -33l-3 -13l-6 -30h-181q-42 0 -59 -10l18 97q14 -11 56 -11h66q-76 71 -76 202
q0 165 99.5 277.5t246.5 112.5q107 0 166.5 -60.5t59.5 -165.5q0 -109 -53.5 -210t-135.5 -156z" />
    <glyph glyph-name="uni03BC" unicode="&#x3bc;" horiz-adv-x="547" 
d="M593 487l-71 -367q-15 -82 -10 -120h-103q9 43 22 74h-8q-65 -86 -161 -86q-39 0 -66 18l-11 -55q-14 -83 -7 -122h-124q27 46 42 122l56 290h1l24 126q14 83 5 120h108l-67 -345q-15 -74 64 -74q37 0 80 27t75 73l39 199q17 81 5 120h107z" />
    <glyph glyph-name="pi" unicode="&#x3c0;" horiz-adv-x="552" 
d="M371 -12q-62 0 -83.5 37.5t-5.5 119.5l51 264h-125l-55 -288q-16 -76 -8 -121h-124q25 43 41 121l55 288h-5q-68 0 -91 -16l20 101q21 -7 86 -7h316q66 0 89 7l-20 -101q-17 16 -84 16h-6l-49 -255q-17 -88 24 -88q21 0 38 17l-6 -88q-28 -7 -58 -7z" />
    <glyph glyph-name="Wgrave" unicode="&#x1e80;" horiz-adv-x="819" 
d="M511 718q-88 50 -130 151l62 53q26 -104 105 -167zM759 656h120q-27 -35 -66 -128l-164 -413q-34 -83 -31 -115h-148q16 37 12 114l-17 393l-175 -393q-41 -90 -34 -114h-149q18 36 16 115l-7 417q-1 84 -16 124h125q-19 -34 -18 -117l2 -417l190 426q36 81 30 108h130
q-11 -30 -8 -108l18 -425l163 416q2 5 6.5 17t6 16.5t5 14t4.5 13.5l3 12t2.5 12.5t1 10.5t0 11t-1.5 10z" />
    <glyph glyph-name="wgrave" unicode="&#x1e81;" horiz-adv-x="726" 
d="M426 560q-88 50 -130 151l62 53q26 -104 105 -167zM105 0l-26 384q-3 33 -5 46.5t-7 29t-15 27.5h108l15 -278q4 -110 3 -140h4q21 62 97 226q74 158 69 192h126l17 -278q5 -74 0 -140h4q12 37 58.5 138t75 178t18.5 102h104q-19 -62 -107.5 -263t-96.5 -224h-128
l-14 264q-2 41 -2 141h-4q-15 -62 -50 -141q-13 -30 -39.5 -84.5t-44.5 -95.5t-32 -84h-128z" />
    <glyph glyph-name="Wacute" unicode="&#x1e82;" horiz-adv-x="819" 
d="M689 869q-83 -102 -190 -151l-34 43q96 54 176 166zM759 656h120q-27 -35 -66 -128l-164 -413q-34 -83 -31 -115h-148q16 37 12 114l-17 393l-175 -393q-41 -90 -34 -114h-149q18 36 16 115l-7 417q-1 84 -16 124h125q-19 -34 -18 -117l2 -417l190 426q36 81 30 108h130
q-11 -30 -8 -108l18 -425l163 416q2 5 6.5 17t6 16.5t5 14t4.5 13.5l3 12t2.5 12.5t1 10.5t0 11t-1.5 10z" />
    <glyph glyph-name="wacute" unicode="&#x1e83;" horiz-adv-x="726" 
d="M414 560l-34 43q96 54 176 166l48 -58q-83 -102 -190 -151zM105 0l-26 384q-3 33 -5 46.5t-7 29t-15 27.5h108l15 -278q4 -110 3 -140h4q21 62 97 226q74 158 69 192h126l17 -278q5 -74 0 -140h4q12 37 58.5 138t75 178t18.5 102h104q-19 -62 -107.5 -263t-96.5 -224
h-128l-14 264q-2 41 -2 141h-4q-15 -62 -50 -141q-13 -30 -39.5 -84.5t-44.5 -95.5t-32 -84h-128z" />
    <glyph glyph-name="Wdieresis" unicode="&#x1e84;" horiz-adv-x="819" 
d="M418 732q-19 0 -30.5 11.5t-11.5 29.5q0 25 19 43.5t44 18.5q19 0 30 -11.5t11 -29.5q0 -24 -18.5 -43t-43.5 -19zM612 732q-18 0 -29.5 11.5t-11.5 29.5q0 24 18.5 43t43.5 19q19 0 30.5 -11.5t11.5 -29.5q0 -25 -19 -43.5t-44 -18.5zM759 656h120q-27 -35 -66 -128
l-164 -413q-34 -83 -31 -115h-148q16 37 12 114l-17 393l-175 -393q-41 -90 -34 -114h-149q18 36 16 115l-7 417q-1 84 -16 124h125q-19 -34 -18 -117l2 -417l190 426q36 81 30 108h130q-11 -30 -8 -108l18 -425l163 416q2 5 6.5 17t6 16.5t5 14t4.5 13.5l3 12t2.5 12.5
t1 10.5t0 11t-1.5 10z" />
    <glyph glyph-name="wdieresis" unicode="&#x1e85;" horiz-adv-x="726" 
d="M334 574q-19 0 -30.5 11.5t-11.5 29.5q0 25 19 43.5t44 18.5q19 0 30 -11.5t11 -29.5q0 -24 -18.5 -43t-43.5 -19zM528 574q-18 0 -29.5 11.5t-11.5 29.5q0 24 18.5 43t43.5 19q19 0 30.5 -11.5t11.5 -29.5q0 -25 -19 -43.5t-44 -18.5zM105 0l-26 384q-3 33 -5 46.5
t-7 29t-15 27.5h108l15 -278q4 -110 3 -140h4q21 62 97 226q74 158 69 192h126l17 -278q5 -74 0 -140h4q12 37 58.5 138t75 178t18.5 102h104q-19 -62 -107.5 -263t-96.5 -224h-128l-14 264q-2 41 -2 141h-4q-15 -62 -50 -141q-13 -30 -39.5 -84.5t-44.5 -95.5t-32 -84h-128
z" />
    <glyph glyph-name="uni1E9E" unicode="&#x1e9e;" horiz-adv-x="635" 
d="M371 -12q-52 0 -108.5 22t-65.5 23l61 99q11 -30 43.5 -49.5t75.5 -19.5q49 0 81 32.5t32 80.5q0 49 -36.5 83t-115.5 40l2 62l133 154q-2 25 -35.5 48t-77.5 23q-61 0 -100 -41t-57 -136l-56 -288q-16 -88 -2 -121h-129q22 28 41 121l56 289q26 134 88 196t167 62
q79 0 137 -50.5t67 -107.5l-135 -148q69 -15 108 -64t39 -114q0 -89 -57.5 -142.5t-155.5 -53.5z" />
    <glyph glyph-name="Ygrave" unicode="&#x1ef2;" horiz-adv-x="526" 
d="M353 718q-88 50 -130 151l62 53q26 -104 105 -167zM472 656h123q-29 -28 -86 -112l-199 -293l-26 -130q-18 -92 -4 -121h-128q14 19 22 41.5t19 79.5l26 130l-86 296q-22 76 -43 109h123q-5 -19 -3 -38.5t15 -69.5l57 -214l142 214q29 45 38.5 65.5t9.5 42.5z" />
    <glyph glyph-name="ygrave" unicode="&#x1ef3;" horiz-adv-x="459" 
d="M288 560q-88 50 -130 151l62 53q26 -104 105 -167zM19 -200q-14 0 -37.5 3t-34.5 1l29 94q18 -19 49 -19q66 0 117 103l8 17l-66 386q-14 81 -35 102h106l42 -273q11 -77 12 -124h4l62 124l87 174q38 77 29 99h109l-273 -527q-37 -71 -91 -115.5t-117 -44.5z" />
    <glyph glyph-name="figuredash" unicode="&#x2012;" horiz-adv-x="509" 
d="M41 221l12 61h416l-12 -61h-416z" />
    <glyph glyph-name="endash" unicode="&#x2013;" horiz-adv-x="492" 
d="M41 221l12 61h398l-12 -61h-398z" />
    <glyph glyph-name="emdash" unicode="&#x2014;" horiz-adv-x="812" 
d="M41 221l12 61h718l-12 -61h-718z" />
    <glyph glyph-name="quoteleft" unicode="&#x2018;" horiz-adv-x="252" 
d="M285 701l17 -41q-45 -27 -69 -55.5t-32 -69.5q3 1 8 1q20 0 33 -11t13 -30q0 -29 -20 -49.5t-48 -20.5q-50 0 -50 61q0 64 39 121.5t109 93.5z" />
    <glyph glyph-name="quoteright" unicode="&#x2019;" horiz-adv-x="281" 
d="M80 423l-16 41q44 26 68 54.5t32 70.5q-3 -1 -8 -1q-20 0 -33 11t-13 30q0 28 20 49t48 21q51 0 51 -62q0 -63 -39.5 -120t-109.5 -94z" />
    <glyph glyph-name="quotesinglbase" unicode="&#x201a;" horiz-adv-x="253" 
d="M-23 -164l-17 41q45 27 69 55.5t32 69.5q-3 -1 -8 -1q-20 0 -33 11t-13 30q0 28 20 49t48 21q23 0 36.5 -16t13.5 -46q0 -64 -39 -121t-109 -93z" />
    <glyph glyph-name="quotedblleft" unicode="&#x201c;" horiz-adv-x="426" 
d="M283 701l17 -41q-45 -27 -69 -55.5t-32 -69.5q3 1 8 1q20 0 33 -11t13 -30q0 -29 -20 -49.5t-48 -20.5q-23 0 -36.5 16t-13.5 45q0 64 39 121.5t109 93.5zM458 701l16 -41q-45 -27 -69 -55.5t-32 -69.5q3 1 9 1q20 0 33 -11t13 -30q0 -29 -20 -49.5t-48 -20.5
q-51 0 -51 61q0 64 39.5 121t109.5 94z" />
    <glyph glyph-name="quotedblright" unicode="&#x201d;" horiz-adv-x="426" 
d="M90 423l-17 41q87 50 101 125q-3 -1 -9 -1q-20 0 -33 11t-13 30q0 28 20 49t48 21q51 0 51 -62q0 -63 -39.5 -120t-108.5 -94zM264 423l-17 41q87 50 101 125q-3 -1 -8 -1q-20 0 -33 11t-13 30q0 28 20 49t48 21q50 0 50 -62q0 -64 -39 -121t-109 -93z" />
    <glyph glyph-name="quotedblbase" unicode="&#x201e;" horiz-adv-x="429" 
d="M-24 -165l-16 41q45 27 69 55.5t32 69.5q-3 -1 -9 -1q-20 0 -33 11t-13 30q0 29 20 49.5t48 20.5q51 0 51 -61q0 -64 -39.5 -121t-109.5 -94zM151 -165l-17 41q45 27 69 55.5t32 69.5q-3 -1 -8 -1q-20 0 -33 11t-13 30q0 29 20 49.5t48 20.5q23 0 36.5 -16t13.5 -45
q0 -64 -39 -121.5t-109 -93.5z" />
    <glyph glyph-name="dagger" unicode="&#x2020;" horiz-adv-x="412" 
d="M104 225q18 18 31 81l33 175h-33q-61 0 -84 -15l17 88q13 -13 79 -13h33l10 49q11 61 0 82h94q-17 -18 -29 -82l-10 -49h34q63 0 83 13l-17 -88q-18 15 -78 15h-34l-34 -175q-11 -60 -1 -81h-94z" />
    <glyph glyph-name="daggerdbl" unicode="&#x2021;" horiz-adv-x="480" 
d="M132 225q16 18 29 81l7 37h-33q-61 0 -84 -15l16 88q15 -14 80 -14h33l18 93h-34q-59 0 -84 -15l17 88q15 -14 79 -14h33l7 37q12 61 2 81h93q-18 -17 -30 -81l-7 -37h34q63 0 83 14l-17 -88q-17 15 -78 15h-34l-17 -93h33q63 0 84 14l-17 -88q-18 15 -78 15h-34l-8 -37
q-11 -63 0 -81h-93z" />
    <glyph glyph-name="bullet" unicode="&#x2022;" horiz-adv-x="317" 
d="M135 141q-41 0 -67 26t-26 68q0 60 42 105.5t98 45.5q41 0 67 -26.5t26 -69.5q0 -59 -42 -104t-98 -45z" />
    <glyph glyph-name="ellipsis" unicode="&#x2026;" horiz-adv-x="739" 
d="M84 -12q-22 0 -36.5 14.5t-14.5 36.5q0 31 23.5 55.5t53.5 24.5q22 0 36 -14.5t14 -37.5q0 -32 -22.5 -55.5t-53.5 -23.5zM327 -12q-22 0 -36.5 14.5t-14.5 36.5q0 31 23.5 55.5t53.5 24.5q22 0 36.5 -14.5t14.5 -37.5q0 -32 -23 -55.5t-54 -23.5zM571 -12
q-23 0 -37.5 14.5t-14.5 36.5q0 31 23.5 55.5t54.5 24.5q21 0 35.5 -14.5t14.5 -37.5q0 -31 -23 -55t-53 -24z" />
    <glyph glyph-name="perthousand" unicode="&#x2030;" horiz-adv-x="1212" 
d="M162 -12l485 680h71l-485 -680h-71zM196 273q-56 0 -87 36t-31 100q0 107 57 182.5t138 75.5q56 0 87.5 -36t31.5 -100q0 -106 -58 -182t-138 -76zM208 332q45 0 78.5 59t33.5 138t-59 79q-46 0 -79 -57.5t-33 -138.5q0 -80 59 -80zM603 -12q-56 0 -87 36t-31 100
q0 107 57 182.5t138 75.5q56 0 87.5 -36t31.5 -100q0 -106 -58 -182t-138 -76zM971 -12q-56 0 -87.5 36t-31.5 100q0 107 57 182.5t139 75.5q55 0 86.5 -36t31.5 -100q0 -106 -57.5 -182t-137.5 -76zM615 47q45 0 78.5 59t33.5 138t-58 79q-47 0 -80 -57.5t-33 -138.5
q0 -80 59 -80zM982 47q46 0 79 58.5t33 138.5q0 79 -58 79q-46 0 -79.5 -58t-33.5 -138t59 -80z" />
    <glyph glyph-name="guilsinglleft" unicode="&#x2039;" horiz-adv-x="310" 
d="M156 64q-52 99 -112 145l17 86q87 54 168 145l32 -36q-75 -93 -149 -152q53 -64 89 -154z" />
    <glyph glyph-name="guilsinglright" unicode="&#x203a;" horiz-adv-x="311" 
d="M82 64l-33 34q67 83 150 154q-56 68 -90 152l46 36q20 -41 51 -82t61 -63l-17 -86q-81 -49 -168 -145z" />
    <glyph glyph-name="fraction" unicode="&#x2044;" horiz-adv-x="402" 
d="M-60 -12l484 680h71l-484 -680h-71z" />
    <glyph glyph-name="uni2070" unicode="&#x2070;" horiz-adv-x="382" 
d="M221 402q-56 0 -87 36t-31 100q0 107 57 182.5t138 75.5q56 0 87.5 -36t31.5 -100q0 -106 -58 -182t-138 -76zM233 461q45 0 78.5 59t33.5 138t-59 79q-46 0 -79 -57.5t-33 -138.5q0 -80 59 -80z" />
    <glyph glyph-name="uni2074" unicode="&#x2074;" horiz-adv-x="343" 
d="M216 414q14 11 21 27.5t14 55.5l3 16h-178l9 43l207 229h77l-43 -220q43 0 60 14l-12 -66h-58l-3 -16q-7 -43 -7.5 -56.5t8.5 -26.5h-98zM151 565h114l30 159z" />
    <glyph glyph-name="uni2075" unicode="&#x2075;" horiz-adv-x="352" 
d="M204 402q-41 0 -79 19.5t-54 20.5l51 71q24 -57 92 -57q39 0 65 24t26 61q0 25 -18.5 40t-49.5 15q-38 0 -76 -19l-31 12l56 196h137q58 0 80 11l-17 -86q-15 16 -74 16h-85l-25 -88q25 11 60 11q47 0 79 -27.5t32 -71.5q0 -64 -48 -106t-121 -42z" />
    <glyph glyph-name="uni2076" unicode="&#x2076;" horiz-adv-x="359" 
d="M220 402q-56 0 -87 35t-31 97q0 107 63 185t149 78q21 0 48.5 -6t39.5 -5l-36 -72q-16 29 -63 29q-38 0 -73.5 -33.5t-50.5 -89.5q44 39 99 39q50 0 77.5 -24.5t27.5 -68.5q0 -68 -47.5 -116t-115.5 -48zM230 456q36 0 62.5 28.5t26.5 66.5q0 25 -15.5 40t-37.5 15
q-54 0 -99 -45q-5 -50 12 -77.5t51 -27.5z" />
    <glyph glyph-name="uni2077" unicode="&#x2077;" horiz-adv-x="322" 
d="M136 414q25 101 65 171t117 142h-117q-67 0 -91 -18l17 86q21 -10 86 -10h194l-10 -52q-87 -78 -127 -146.5t-62 -172.5h-72z" />
    <glyph glyph-name="uni2078" unicode="&#x2078;" horiz-adv-x="354" 
d="M207 402q-55 0 -87 25t-32 65q0 42 30.5 73t64.5 45l1 4q-44 21 -44 65q0 49 42 83.5t101 34.5q48 0 78.5 -22.5t30.5 -59.5q0 -36 -25 -64.5t-54 -40.5l-1 -4q57 -22 57 -77q0 -52 -48 -89.5t-114 -37.5zM273 629q55 35 55 76q0 17 -15.5 29t-38.5 12q-28 0 -49.5 -17.5
t-21.5 -39.5q0 -38 70 -60zM217 452q35 0 61.5 21t26.5 49q0 22 -21.5 36t-63.5 29q-67 -37 -67 -85q0 -22 17.5 -36t46.5 -14z" />
    <glyph glyph-name="uni2079" unicode="&#x2079;" horiz-adv-x="358" 
d="M183 402q-21 0 -48.5 6t-39.5 5l35 72q16 -29 63 -29q39 0 74.5 33.5t50.5 89.5q-47 -39 -100 -39q-50 0 -77.5 24.5t-27.5 68.5q0 69 47.5 116.5t115.5 47.5q56 0 87.5 -34.5t31.5 -96.5q0 -108 -63 -186t-149 -78zM230 593q55 0 99 46q6 49 -11 76.5t-51 27.5
q-37 0 -63 -28t-26 -67q0 -25 14.5 -40t37.5 -15z" />
    <glyph glyph-name="uni2080" unicode="&#x2080;" horiz-adv-x="382" 
d="M108 -182q-56 0 -87 36t-31 100q0 107 57 182.5t138 75.5q56 0 87.5 -36t31.5 -100q0 -106 -58 -182t-138 -76zM120 -123q45 0 78.5 59t33.5 138t-59 79q-46 0 -79 -57.5t-33 -138.5q0 -80 59 -80z" />
    <glyph glyph-name="uni2081" unicode="&#x2081;" horiz-adv-x="316" 
d="M-38 -170l9 47l91 16l44 230h-86l11 52q47 0 92.5 11t68.5 25l-61 -318l80 -16l-10 -47h-239z" />
    <glyph glyph-name="uni2082" unicode="&#x2082;" horiz-adv-x="353" 
d="M-34 -170l7 53q114 68 170 119t56 102q0 24 -13.5 38t-37.5 14q-61 0 -101 -57l-27 70q13 2 58 23t82 21q52 0 81.5 -26t29.5 -71q0 -110 -192 -227h85q62 0 88 18l-15 -77h-271z" />
    <glyph glyph-name="uni2083" unicode="&#x2083;" horiz-adv-x="349" 
d="M88 -182q-40 0 -82 20.5t-52 22.5l56 72q21 -61 87 -61q36 0 60 19t24 48q0 56 -112 56l10 52q57 0 89 19t32 52q0 41 -52 41q-46 0 -92 -46l-21 67q5 1 50 17t76 16q50 0 79 -21t29 -60q0 -40 -25 -68.5t-71 -38.5q76 -13 76 -78q0 -55 -46.5 -92t-114.5 -37z" />
    <glyph glyph-name="uni2084" unicode="&#x2084;" horiz-adv-x="343" 
d="M103 -170q14 11 21 27.5t14 55.5l3 16h-178l9 43l207 229h77l-43 -220q43 0 60 14l-12 -66h-58l-3 -16q-7 -43 -7.5 -56.5t8.5 -26.5h-98zM38 -19h114l30 159z" />
    <glyph glyph-name="uni2085" unicode="&#x2085;" horiz-adv-x="352" 
d="M93 -173q-41 0 -79 19.5t-54 20.5l51 71q24 -57 92 -57q39 0 65 24t26 61q0 25 -18.5 40t-49.5 15q-38 0 -76 -19l-31 12l56 196h137q58 0 80 11l-17 -86q-15 16 -74 16h-85l-25 -88q25 11 60 11q47 0 79 -27.5t32 -71.5q0 -64 -48 -106t-121 -42z" />
    <glyph glyph-name="uni2086" unicode="&#x2086;" horiz-adv-x="359" 
d="M107 -182q-56 0 -87 35t-31 97q0 107 63 185t149 78q21 0 48.5 -6t39.5 -5l-36 -72q-16 29 -63 29q-38 0 -73.5 -33.5t-50.5 -89.5q44 39 99 39q50 0 77.5 -24.5t27.5 -68.5q0 -68 -47.5 -116t-115.5 -48zM117 -128q36 0 62.5 28.5t26.5 66.5q0 25 -15.5 40t-37.5 15
q-54 0 -99 -45q-5 -50 12 -77.5t51 -27.5z" />
    <glyph glyph-name="uni2087" unicode="&#x2087;" horiz-adv-x="322" 
d="M23 -170q25 101 65 171t117 142h-117q-67 0 -91 -18l17 86q21 -10 86 -10h194l-10 -52q-87 -78 -127 -146.5t-62 -172.5h-72z" />
    <glyph glyph-name="uni2088" unicode="&#x2088;" horiz-adv-x="354" 
d="M94 -182q-55 0 -87 25t-32 65q0 42 30.5 73t64.5 45l1 4q-44 21 -44 65q0 49 42 83.5t101 34.5q48 0 78.5 -22.5t30.5 -59.5q0 -36 -25 -64.5t-54 -40.5l-1 -4q57 -22 57 -77q0 -52 -48 -89.5t-114 -37.5zM160 45q55 35 55 76q0 17 -15.5 29t-38.5 12q-28 0 -49.5 -17.5
t-21.5 -39.5q0 -38 70 -60zM104 -132q35 0 61.5 21t26.5 49q0 22 -21.5 36t-63.5 29q-67 -37 -67 -85q0 -22 17.5 -36t46.5 -14z" />
    <glyph glyph-name="uni2089" unicode="&#x2089;" horiz-adv-x="358" 
d="M70 -182q-21 0 -48.5 6t-39.5 5l35 72q16 -29 63 -29q39 0 74.5 33.5t50.5 89.5q-47 -39 -100 -39q-50 0 -77.5 24.5t-27.5 68.5q0 69 47.5 116.5t115.5 47.5q56 0 87.5 -34.5t31.5 -96.5q0 -108 -63 -186t-149 -78zM117 9q55 0 99 46q6 49 -11 76.5t-51 27.5
q-37 0 -63 -28t-26 -67q0 -25 14.5 -40t37.5 -15z" />
    <glyph glyph-name="Euro" unicode="&#x20ac;" horiz-adv-x="512" 
d="M397 629q45 0 92 -10t62 -10l-47 -102q-14 43 -120 43q-48 0 -91 -38.5t-71 -104.5h133q41 0 58 10l-15 -79h-199q-8 -36 -10 -55h198l-15 -79q-14 10 -54 10h-134q0 -77 32 -112.5t86 -35.5q96 0 132 43l6 -104q-19 2 -70 -7.5t-87 -9.5q-194 0 -194 206v20h-9
q-41 0 -58 -10l15 79h58q5 35 10 55h-57l15 79q14 -10 54 -10h9q40 102 111.5 162t159.5 60z" />
    <glyph glyph-name="trademark" unicode="&#x2122;" horiz-adv-x="735" 
d="M213 672h87q49 0 66 6l-14 -70q-16 10 -63 10h-15l-30 -151q-9 -49 -3 -71h-78q15 24 25 71l29 151h-15q-49 0 -66 -10l14 70q12 -6 63 -6zM681 672h72q-18 -37 -25 -71l-26 -134q-9 -43 -4 -71h-77q16 29 25 71l22 115l-130 -162l-69 161l-21 -114q-8 -47 -4 -71h-77
q17 30 24 71l26 134q7 40 4 71h73l63 -157z" />
    <glyph glyph-name="uni2150" unicode="&#x2150;" horiz-adv-x="845" 
d="M157 -12l484 680h71l-485 -680h-70zM50 285l9 47l91 16l44 230h-86l11 52q47 0 92.5 11t68.5 25l-61 -318l80 -16l-10 -47h-239zM578 0q26 102 66 171.5t117 141.5h-117q-67 0 -91 -18l17 86q21 -10 85 -10h194l-9 -52q-87 -77 -127 -146t-63 -173h-72z" />
    <glyph glyph-name="uni2151" unicode="&#x2151;" horiz-adv-x="827" 
d="M157 -12l485 680h70l-484 -680h-71zM50 285l9 47l91 16l44 230h-86l11 52q47 0 92.5 11t68.5 25l-61 -318l80 -16l-10 -47h-239zM572 -12q-22 0 -49 6t-39 5l35 72q16 -29 63 -29q38 0 74 33.5t51 89.5q-47 -39 -100 -39q-50 0 -77.5 24.5t-27.5 68.5q0 69 47 116.5
t115 47.5q57 0 88.5 -34.5t31.5 -96.5q0 -108 -63 -186t-149 -78zM619 179q55 0 99 46q5 49 -12 76.5t-50 27.5q-37 0 -63 -28t-26 -67q0 -25 14.5 -40t37.5 -15z" />
    <glyph glyph-name="uni2152" unicode="&#x2152;" horiz-adv-x="1152" 
d="M156 -12l484 680h71l-485 -680h-70zM50 285l9 47l91 16l44 230h-86l11 52q47 0 92.5 11t68.5 25l-61 -318l80 -16l-10 -47h-239zM910 -12q-56 0 -87 36t-31 100q0 107 57 182.5t138 75.5q56 0 87.5 -36t31.5 -100q0 -106 -57.5 -182t-138.5 -76zM481 0l10 47l91 16
l44 230h-86l10 52q47 0 92.5 11t69.5 25l-62 -318l80 -16l-9 -47h-240zM922 47q45 0 78.5 59t33.5 138t-58 79q-46 0 -79.5 -58t-33.5 -138t59 -80z" />
    <glyph glyph-name="uni2153" unicode="&#x2153;" horiz-adv-x="823" 
d="M156 -12l484 680h71l-485 -680h-70zM50 285l9 47l91 16l44 230h-86l11 52q47 0 92.5 11t68.5 25l-61 -318l80 -16l-10 -47h-239zM595 -12q-40 0 -82.5 20.5t-51.5 22.5l56 72q21 -61 87 -61q35 0 59 19t24 48q0 56 -111 56l10 52q56 0 88.5 19t32.5 52q0 41 -52 41
q-46 0 -92 -46l-21 67q6 1 50.5 17t74.5 16q50 0 79.5 -21t29.5 -60q0 -40 -25.5 -68.5t-71.5 -38.5q77 -13 77 -78q0 -55 -46.5 -92t-114.5 -37z" />
    <glyph glyph-name="uni2154" unicode="&#x2154;" horiz-adv-x="846" 
d="M54 285l7 53q114 68 170 119t56 102q0 24 -13.5 38t-37.5 14q-61 0 -101 -57l-27 70q13 2 58 23t82 21q52 0 81.5 -26t29.5 -71q0 -110 -192 -227h85q62 0 88 18l-15 -77h-271zM187 -12l484 680h71l-485 -680h-70zM618 -12q-40 0 -82 20.5t-52 22.5l56 72q21 -61 87 -61
q36 0 60 19t24 48q0 56 -112 56l10 52q57 0 89 19t32 52q0 41 -52 41q-46 0 -92 -46l-21 67q5 1 50 17t76 16q49 0 78.5 -21t29.5 -60q0 -40 -25 -68.5t-71 -38.5q76 -14 76 -78q0 -55 -46.5 -92t-114.5 -37z" />
    <glyph glyph-name="uni2155" unicode="&#x2155;" horiz-adv-x="796" 
d="M153 -12l485 680h70l-484 -680h-71zM50 285l9 47l91 16l44 230h-86l11 52q47 0 92.5 11t68.5 25l-61 -318l80 -16l-10 -47h-239zM567 -12q-41 0 -79 19.5t-54 20.5l51 71q24 -57 92 -57q39 0 65 24t26 61q0 25 -18.5 40t-49.5 15q-39 0 -75 -19l-32 12l57 196h136
q59 0 80 11l-16 -86q-16 16 -75 16h-84l-25 -88q24 11 59 11q48 0 80 -27.5t32 -71.5q0 -64 -48.5 -106t-121.5 -42z" />
    <glyph glyph-name="uni2156" unicode="&#x2156;" horiz-adv-x="838" 
d="M54 285l7 53q114 68 170 119t56 102q0 24 -13.5 38t-37.5 14q-61 0 -101 -57l-27 70q13 2 58 23t82 21q52 0 81.5 -26t29.5 -71q0 -110 -192 -227h85q62 0 88 18l-15 -77h-271zM184 -12l485 680h71l-485 -680h-71zM610 -12q-41 0 -79 19.5t-54 20.5l51 71q24 -57 92 -57
q39 0 65 24t26 61q0 25 -18.5 40t-49.5 15q-40 0 -76 -19l-31 12l56 196h137q58 0 80 11l-17 -86q-15 16 -74 16h-85l-25 -88q25 11 60 11q47 0 79 -27.5t32 -71.5q0 -64 -48 -106t-121 -42z" />
    <glyph glyph-name="uni2157" unicode="&#x2157;" horiz-adv-x="793" 
d="M176 273q-40 0 -82 20.5t-52 22.5l56 72q21 -61 87 -61q36 0 60 19t24 48q0 56 -112 56l10 52q57 0 89 19t32 52q0 41 -52 41q-46 0 -92 -46l-21 67q5 1 50 17t76 16q49 0 78.5 -21t29.5 -60q0 -40 -25 -68.5t-71 -38.5q76 -13 76 -78q0 -55 -46.5 -92t-114.5 -37z
M149 -12l484 680h71l-485 -680h-70zM565 -12q-41 0 -79 19.5t-54 20.5l51 71q24 -57 92 -57q39 0 65 24t26 61q0 25 -18.5 40t-49.5 15q-40 0 -76 -19l-31 12l56 196h137q58 0 80 11l-17 -86q-15 16 -74 16h-85l-25 -88q25 11 60 11q47 0 79 -27.5t32 -71.5q0 -64 -48 -106
t-121 -42z" />
    <glyph glyph-name="uni2158" unicode="&#x2158;" horiz-adv-x="801" 
d="M156 -12l484 680h71l-485 -680h-70zM191 285q14 11 21 27.5t14 55.5l3 16h-178l9 43l207 229h77l-43 -220q43 0 60 14l-12 -66h-58l-3 -16q-7 -43 -7.5 -56.5t8.5 -26.5h-98zM126 436h114l30 159zM573 -12q-41 0 -79 19.5t-54 20.5l50 71q25 -57 92 -57q39 0 65 24t26 61
q0 25 -18.5 40t-48.5 15q-40 0 -76 -19l-31 12l56 196h137q58 0 80 11l-17 -86q-16 16 -75 16h-84l-25 -88q25 11 60 11q47 0 79 -27.5t32 -71.5q0 -64 -48 -106t-121 -42z" />
    <glyph glyph-name="uni2159" unicode="&#x2159;" horiz-adv-x="814" 
d="M164 -12l484 680h71l-485 -680h-70zM50 285l9 47l91 16l44 230h-86l11 52q47 0 92.5 11t68.5 25l-61 -318l80 -16l-10 -47h-239zM595 -12q-56 0 -87 35t-31 97q0 107 63 185t149 78q21 0 48 -6t39 -5l-35 -72q-16 29 -63 29q-38 0 -73.5 -33.5t-50.5 -89.5q44 39 98 39
q50 0 78 -24.5t28 -68.5q0 -68 -47.5 -116t-115.5 -48zM605 42q36 0 62.5 28.5t26.5 66.5q0 25 -15.5 40t-37.5 15q-56 0 -99 -45q-5 -50 12 -77.5t51 -27.5z" />
    <glyph glyph-name="uni215A" unicode="&#x215a;" horiz-adv-x="806" 
d="M152 -12l485 680h70l-484 -680h-71zM179 273q-41 0 -79 19.5t-54 20.5l51 71q24 -57 92 -57q39 0 65 24t26 61q0 25 -18.5 40t-49.5 15q-38 0 -76 -19l-31 12l56 196h137q58 0 80 11l-17 -86q-15 16 -74 16h-85l-25 -88q25 11 60 11q47 0 79 -27.5t32 -71.5
q0 -64 -48 -106t-121 -42zM587 -12q-56 0 -87 35t-31 97q0 107 63 185t149 78q21 0 48 -6t39 -5l-35 -72q-16 29 -63 29q-38 0 -73.5 -33.5t-51.5 -89.5q45 39 99 39q50 0 78 -24.5t28 -68.5q0 -68 -47.5 -116t-115.5 -48zM596 42q37 0 63 28.5t26 66.5q0 25 -15 40t-37 15
q-56 0 -99 -45q-5 -50 12 -77.5t50 -27.5z" />
    <glyph glyph-name="oneeighth" unicode="&#x215b;" horiz-adv-x="818" 
d="M166 -12l484 680h71l-485 -680h-70zM50 285l9 47l91 16l44 230h-86l11 52q47 0 92.5 11t68.5 25l-61 -318l80 -16l-10 -47h-239zM591 -12q-55 0 -87.5 25t-32.5 65q0 42 30.5 73t65.5 45l1 4q-45 21 -45 65q0 49 42.5 83.5t101.5 34.5q48 0 78.5 -22.5t30.5 -59.5
q0 -36 -25.5 -64.5t-53.5 -40.5l-1 -4q57 -22 57 -77q0 -52 -48 -89.5t-114 -37.5zM657 215q54 35 54 76q0 17 -15.5 29t-38.5 12q-28 0 -49 -17t-21 -40q0 -38 70 -60zM600 38q36 0 62 20.5t26 49.5q0 22 -21.5 36t-63.5 29q-67 -38 -67 -85q0 -22 17.5 -36t46.5 -14z" />
    <glyph glyph-name="threeeighths" unicode="&#x215c;" horiz-adv-x="820" 
d="M176 273q-40 0 -82 20.5t-52 22.5l56 72q21 -61 87 -61q36 0 60 19t24 48q0 56 -112 56l10 52q57 0 89 19t32 52q0 41 -52 41q-46 0 -92 -46l-21 67q5 1 50 17t76 16q49 0 78.5 -21t29.5 -60q0 -40 -25 -68.5t-71 -38.5q76 -13 76 -78q0 -55 -46.5 -92t-114.5 -37z
M164 -12l484 680h71l-485 -680h-70zM593 -12q-55 0 -87.5 25t-32.5 65q0 42 30.5 73t65.5 45l1 4q-45 22 -45 65q0 49 42.5 83.5t101.5 34.5q48 0 78.5 -22.5t30.5 -59.5q0 -36 -25.5 -64.5t-53.5 -40.5l-1 -4q57 -22 57 -77q0 -52 -48 -89.5t-114 -37.5zM659 215
q55 35 55 76q0 17 -16 29t-39 12q-27 0 -48.5 -17.5t-21.5 -39.5q0 -38 70 -60zM602 38q36 0 62 20.5t26 49.5q0 22 -21 36t-63 29q-68 -38 -68 -85q0 -22 17.5 -36t46.5 -14z" />
    <glyph glyph-name="fiveeighths" unicode="&#x215d;" horiz-adv-x="819" 
d="M164 -12l484 680h71l-485 -680h-70zM179 273q-41 0 -79 19.5t-54 20.5l51 71q24 -57 92 -57q39 0 65 24t26 61q0 25 -18.5 40t-49.5 15q-38 0 -76 -19l-31 12l56 196h137q58 0 80 11l-17 -86q-15 16 -74 16h-85l-25 -88q25 11 60 11q47 0 79 -27.5t32 -71.5
q0 -64 -48 -106t-121 -42zM592 -12q-55 0 -87 25t-32 65q0 42 30.5 73t64.5 45l1 4q-44 21 -44 65q0 49 42 83.5t101 34.5q48 0 78.5 -22.5t30.5 -59.5q0 -36 -25 -64.5t-54 -40.5l-1 -4q58 -23 58 -77q0 -52 -48.5 -89.5t-114.5 -37.5zM658 215q55 35 55 76q0 17 -15.5 29
t-38.5 12q-28 0 -49.5 -17.5t-21.5 -39.5q0 -38 70 -60zM602 38q35 0 61.5 21t26.5 49q0 22 -21.5 36t-63.5 29q-67 -37 -67 -85q0 -22 17.5 -36t46.5 -14z" />
    <glyph glyph-name="seveneighths" unicode="&#x215e;" horiz-adv-x="746" 
d="M99 -12l484 680h71l-484 -680h-71zM111 285q25 101 65 171t117 142h-117q-67 0 -91 -18l17 86q21 -10 86 -10h194l-10 -52q-87 -78 -127 -146.5t-62 -172.5h-72zM519 -12q-55 0 -87.5 25t-32.5 65q0 42 30.5 73t65.5 45l1 4q-45 21 -45 65q0 49 42.5 83.5t101.5 34.5
q48 0 78.5 -22.5t30.5 -59.5q0 -36 -25.5 -64.5t-53.5 -40.5l-1 -4q57 -22 57 -77q0 -52 -48 -89.5t-114 -37.5zM585 215q54 35 54 76q0 17 -15.5 29t-38.5 12q-28 0 -49 -17t-21 -40q0 -38 70 -60zM528 38q36 0 62 20.5t26 49.5q0 22 -21.5 36t-63.5 29q-67 -38 -67 -85
q0 -22 17.5 -36t46.5 -14z" />
    <glyph glyph-name="uni2189" unicode="&#x2189;" horiz-adv-x="833" 
d="M161 -12l485 680h70l-484 -680h-71zM196 273q-56 0 -87 36t-31 100q0 107 57 182.5t138 75.5q56 0 87.5 -36t31.5 -100q0 -106 -58 -182t-138 -76zM208 332q45 0 78.5 59t33.5 138t-59 79q-46 0 -79 -57.5t-33 -138.5q0 -80 59 -80zM604 -12q-40 0 -82 20.5t-51 22.5
l56 72q9 -29 32 -45t54 -16q36 0 60 19t24 48q0 56 -112 56l11 52q56 0 88.5 19t32.5 52q0 41 -53 41q-45 0 -91 -46l-22 67q7 1 51.5 17t74.5 16q50 0 79.5 -21t29.5 -60q0 -40 -25.5 -68.5t-71.5 -38.5q76 -13 76 -78q0 -55 -46 -92t-115 -37z" />
    <glyph glyph-name="arrowleft" unicode="&#x2190;" horiz-adv-x="857" 
d="M782 358v-89l-572 1v-77q-67 76 -160 122q95 45 160 122v-79h572z" />
    <glyph glyph-name="arrowup" unicode="&#x2191;" horiz-adv-x="330" 
d="M287 573h-78v-573h-89v573h-77q78 67 122 159q44 -92 122 -159z" />
    <glyph glyph-name="arrowright" unicode="&#x2192;" horiz-adv-x="858" 
d="M648 438q68 -79 160 -122q-92 -44 -160 -122v77l-573 -1v89l573 1v78z" />
    <glyph glyph-name="arrowdown" unicode="&#x2193;" horiz-adv-x="326" 
d="M163 -5q-43 92 -122 160h78v573h89v-573h77q-79 -68 -122 -160z" />
    <glyph glyph-name="arrowboth" unicode="&#x2194;" horiz-adv-x="868" 
d="M209 193q-67 76 -160 122q93 44 160 122v-76l447 -1v77q68 -79 160 -122q-92 -44 -160 -122v75l-447 1v-76z" />
    <glyph glyph-name="arrowupdn" unicode="&#x2195;" horiz-adv-x="342" 
d="M171 -31q-44 93 -122 160h77v447h-77q80 70 122 160q42 -90 122 -160h-77v-447h77q-78 -67 -122 -160z" />
    <glyph glyph-name="uni2196" unicode="&#x2196;" horiz-adv-x="645" 
d="M604 89l-63 -63l-405 406l-55 -55q9 97 -26 199q95 -35 199 -27l-55 -54z" />
    <glyph glyph-name="uni2197" unicode="&#x2197;" horiz-adv-x="645" 
d="M589 575q-34 -98 -26 -199l-55 55l-405 -406l-63 63l405 406l-55 54q104 -8 199 27z" />
    <glyph glyph-name="uni2198" unicode="&#x2198;" horiz-adv-x="645" 
d="M563 228q-8 -102 26 -200q-95 35 -199 27l56 55l-406 405l63 63l406 -405z" />
    <glyph glyph-name="uni2199" unicode="&#x2199;" horiz-adv-x="645" 
d="M605 515l-405 -405l55 -55q-104 8 -199 -27q35 101 26 200l56 -55l404 405z" />
    <glyph glyph-name="partialdiff" unicode="&#x2202;" horiz-adv-x="555" 
d="M222 -12q-78 0 -128 43t-50 128q0 119 75 204t181 85q87 0 122 -58q-5 92 -66.5 174.5t-135.5 88.5l57 82q110 -60 168.5 -154.5t58.5 -215.5q0 -165 -79 -271t-203 -106zM238 61q78 0 124 67.5t51 160.5q-11 39 -45 64t-68 25q-72 0 -121.5 -59t-49.5 -146
q0 -57 29.5 -84.5t79.5 -27.5z" />
    <glyph glyph-name="emptyset" unicode="&#x2205;" horiz-adv-x="548" 
d="M521 424q-32 -12 -64 -38q13 -31 13 -66q0 -95 -69 -164t-164 -69q-58 0 -101 30q-36 -34 -51 -57l-58 74q28 9 64 38q-13 33 -13 66q0 95 69 164t164 69q60 0 101 -29q34 31 50 56zM296 394q-57 0 -94.5 -42t-37.5 -105q0 -9 1 -13l179 150q-19 10 -48 10zM252 164
q57 0 94.5 42t37.5 105q0 10 -1 14l-179 -151q19 -10 48 -10z" />
    <glyph glyph-name="product" unicode="&#x220f;" horiz-adv-x="549" 
d="M35 -110q27 48 40 121l111 568h-12q-57 0 -87 -15l19 101q29 -7 80 -7h327q64 0 91 7l-19 -101q-24 15 -81 15h-10l-110 -568q-16 -76 -7 -121h-124q23 38 40 121l110 568h-126l-110 -568q-15 -81 -8 -121h-124z" />
    <glyph glyph-name="summation" unicode="&#x2211;" horiz-adv-x="638" 
d="M478 657q103 0 139 8l-20 -108q-35 22 -135 22h-165l137 -305l-255 -305h164q104 0 143 21l-21 -108q-32 8 -137 8h-292l14 71q51 30 112 104l175 209l-93 208q-19 42 -33.5 64t-38.5 40l13 71h293z" />
    <glyph glyph-name="minus" unicode="&#x2212;" horiz-adv-x="453" 
d="M41 248l19 99q13 -10 54 -10h241q41 0 58 10l-19 -99q-16 10 -54 10h-241q-41 0 -58 -10z" />
    <glyph glyph-name="radical" unicode="&#x221a;" horiz-adv-x="627" 
d="M656 661q83 0 119 8l-20 -107q-37 20 -114 20h-76l-278 -534q-57 -107 -70 -168h-138q9 65 -6 168l-21 158q-17 123 -35 156h127q-14 -33 -2 -134l24 -248h8l341 681h141z" />
    <glyph glyph-name="infinity" unicode="&#x221e;" horiz-adv-x="764" 
d="M582 477q68 0 107.5 -37.5t39.5 -101.5q0 -95 -62 -160.5t-151 -65.5q-53 0 -93.5 27.5t-56.5 72.5q-35 -46 -85.5 -73t-98.5 -27q-68 0 -107.5 37t-39.5 101q0 95 62 161t151 66q54 0 93.5 -27.5t56.5 -72.5q35 46 85.5 73t98.5 27zM531 192q45 0 79 37.5t34 88.5
q0 36 -21 58t-57 22q-39 0 -78.5 -26.5t-65.5 -57.5q9 -55 39.5 -88.5t69.5 -33.5zM198 191q39 0 79 26.5t65 57.5q-10 55 -40 88.5t-69 33.5q-46 0 -79.5 -38t-33.5 -89q0 -35 21 -57t57 -22z" />
    <glyph glyph-name="integral" unicode="&#x222b;" horiz-adv-x="473" 
d="M41 -133q-10 0 -28.5 1.5t-30.5 1.5l27 94q21 -21 55 -21q22 0 38 23.5t31 83.5l118 440q24 90 65.5 137.5t116.5 47.5q10 0 28.5 -1.5t30.5 -1.5l-27 -93q-21 21 -56 21q-23 0 -38 -25.5t-30 -81.5l-118 -441q-25 -94 -67.5 -139.5t-114.5 -45.5z" />
    <glyph glyph-name="approxequal" unicode="&#x2248;" horiz-adv-x="509" 
d="M76 290q13 69 51 104.5t83 35.5q39 0 78.5 -26t57.5 -26q32 0 42 52h81q-13 -68 -51.5 -103.5t-83.5 -35.5q-40 0 -78.5 26t-56.5 26q-31 0 -42 -53h-81zM41 107q14 69 51 104.5t83 35.5q39 0 77.5 -26t57.5 -26q32 0 42 52h81q-13 -68 -51 -103t-84 -35
q-39 0 -77.5 25.5t-56.5 25.5q-32 0 -42 -53h-81z" />
    <glyph glyph-name="notequal" unicode="&#x2260;" horiz-adv-x="485" 
d="M371 339h-64l-55 -83h103q41 0 58 10l-19 -99q-14 10 -54 10h-140l-48 -73l-56 28l30 45h-27q-41 0 -58 -10l19 99q13 -10 54 -10h64l55 83h-103q-40 0 -58 -10l19 99q14 -10 54 -10h140l48 73l56 -28l-30 -45h27q41 0 58 10l-19 -99q-13 10 -54 10z" />
    <glyph glyph-name="lessequal" unicode="&#x2264;" horiz-adv-x="483" 
d="M443 425q-16 1 -48 -10l-185 -65l159 -67q25 -11 44 -10l-50 -90q-5 13 -41 30l-230 98l15 77l267 98q44 18 54 30zM41 47l19 99q13 -10 54 -10h211q41 0 58 10l-20 -99q-13 10 -54 10h-210q-41 0 -58 -10z" />
    <glyph glyph-name="greaterequal" unicode="&#x2265;" horiz-adv-x="470" 
d="M199 486l230 -98l-15 -77l-268 -98q-42 -17 -54 -30l-14 90q16 -1 48 10l185 66l-160 66q-25 11 -43 10l49 91q7 -15 42 -30zM40 47l19 99q13 -10 54 -10h211q41 0 58 10l-19 -99q-13 10 -54 10h-211q-41 0 -58 -10z" />
    <glyph glyph-name="lozenge" unicode="&#x25ca;" horiz-adv-x="520" 
d="M453 284l6 -15h-18l-198 -252h-87l-87 250h-17l12 16l-6 17h18l184 249h87l100 -251h17zM305 474l-149 -190l76 -191l139 191z" />
    <glyph glyph-name="uni261A" unicode="&#x261a;" horiz-adv-x="1502" 
d="M624 6q-21 13 -42 42.5t-21 39.5q0 15 13 49t30 63q-4 12 -16 10q-19 -24 -34.5 -56.5t-15.5 -42.5q0 -8 14 -45.5t19 -42.5q-42 -9 -54 17q-5 11 -17 33.5t-19.5 38.5t-7.5 25q0 15 18 53t44 72q-9 14 -15 14q-23 -28 -43.5 -63t-20.5 -43q0 -6 5 -35t7 -35
q-18 -7 -28.5 -1t-22.5 32l-22 50q-8 18 1 36q25 57 87 121q-6 8 -12 8q-3 0 -15.5 -10t-18.5 -19q-50 0 -87 6t-38 6q-30 -10 -76 -16.5t-74 -3.5q-23 2 -36 16t-11 26.5t7 16.5q57 17 157.5 35t173.5 25q14 1 39.5 8.5t38.5 7.5q52 0 181 -25t188 -25q15 0 50.5 4.5
t55.5 3.5q26 -1 47 -57.5t21 -115.5q0 -35 -8.5 -58t-21.5 -23q-8 0 -50.5 6.5t-58.5 6.5q-20 0 -88.5 -36.5t-102.5 -37.5q-30 0 -63 35q-4 -13 -17 -25.5t-26 -19.5q13 -7 16 -19q28 21 47 21t19 -14q0 -23 -72 -59q-4 -2 -12 -2t-12 2zM1063 49q32 16 50 68t18 126
q0 57 -19 111t-49 60h234q26 0 47 -29t30.5 -67.5t9.5 -74.5q0 -74 -26 -134t-73 -60h-222zM1211 85q10 0 17 7t7 17t-7 17.5t-17 7.5q-9 0 -16 -7.5t-7 -17.5t7 -17t16 -7z" />
    <glyph glyph-name="uni261B" unicode="&#x261b;" horiz-adv-x="1466" 
d="M854 6q-72 36 -72 59q0 14 19 14t47 -21q4 12 17 19q-34 16 -44 45q-33 -35 -63 -35q-34 1 -102.5 37.5t-88.5 36.5q-16 0 -58.5 -6.5t-50.5 -6.5q-13 0 -21.5 23t-8.5 58q0 60 21.5 116t47.5 57q19 1 54.5 -3.5t50.5 -4.5q59 0 188.5 25t180.5 25q13 0 38.5 -7.5
t40.5 -8.5q73 -7 173.5 -25t156.5 -35q5 -4 7 -16.5t-11 -26.5t-36 -16q-28 -3 -74 3.5t-76 16.5q-1 0 -38 -6t-86 -6q-6 9 -19 19t-16 10q-6 0 -12 -8q61 -62 87 -121q9 -18 1 -36l-22 -50q-11 -26 -21.5 -32t-29.5 1q2 6 7.5 35t5.5 35q0 8 -21 43t-44 63q-6 0 -15 -14
q26 -34 44 -72t18 -53q0 -9 -7.5 -25t-19.5 -38.5t-17 -33.5q-12 -26 -54 -17q5 5 19 42.5t14 45.5q0 10 -15.5 42.5t-34.5 56.5q-4 1 -9 -2.5t-6 -7.5q42 -76 42 -112q0 -10 -20.5 -39.5t-41.5 -42.5q-4 -2 -12.5 -2t-12.5 2zM217 49q-32 0 -55 31t-33 74t-10 89
q0 59 24 115t62 56h234q-30 -6 -49 -60t-19 -111q0 -74 18 -126t50 -68h-222zM291 85q10 0 17 7t7 17t-7 17.5t-17 7.5t-17 -7.5t-7 -17.5t7 -17t17 -7z" />
    <glyph glyph-name="uni261C" unicode="&#x261c;" horiz-adv-x="982" 
d="M879 217q26 -5 36 -16.5t10 -37.5q0 -34 -12 -57t-36 -22l-130 9q-41 -27 -89 -27q-68 0 -160 25l-54 -2q-19 -1 -30.5 11.5t-11.5 26.5q0 15 7 24h-2q-20 -1 -31.5 11.5t-11.5 32.5q0 14 7 25q-39 4 -39 41q0 5 2 15q-59 -2 -65 36l-127 10q-64 4 -64 47q0 32 40 33
l349 7q61 24 94 24h38q38 0 77 -22t65 -51l133 10q22 1 37.5 -27t15.5 -64q0 -40 -45 -52l-23 -6zM879 99q15 -1 23 17.5t8 46.5q0 20 -6.5 27.5t-24.5 11.5l-47 11v13l50 16q30 9 30 37q0 31 -11 54t-27 22l-122 -10q7 -10 9 -19q-31 37 -74 64.5t-88 27.5h-38
q-31 0 -122.5 -37.5t-154.5 -40.5l-1 -19q-1 -18 19.5 -25.5t52.5 -2.5l93 15q15 2 46.5 -3t38.5 -5q22 0 69 27q-30 -28 -50 -37q33 -52 77 -70t102 -19q-113 -15 -172 56q-5 -14 -12 -20q41 -6 41 -40q0 -18 -14 -30q24 -10 24 -33q0 -14 -10.5 -26.5t-31.5 -13.5h-9
q62 -13 111 -13q72 0 151 82q-17 -32 -43 -55zM269 354q67 0 161 40l-310 -7q-24 0 -24 -18q0 -29 46 -32l127 -8v25zM348 261q0 -26 35 -25l131 6q30 1 30 22q0 14 -19 22q-2 0 -33 4.5t-45 2.5l-92 -15h-1q-6 -8 -6 -17zM380 195q0 -13 7 -21.5t20 -7.5l135 7q30 1 30 24
q0 29 -48 29q-3 -1 -10 -1l-121 -5q-13 -4 -13 -25zM442 104l114 5q27 1 27 25q0 21 -32 25q-2 -1 -6 -1l-119 -6q-9 -9 -9 -25q0 -9 7 -16.5t18 -6.5z" />
    <glyph glyph-name="uni261D" unicode="&#x261d;" horiz-adv-x="539" 
d="M428 44l9 -130q1 -24 -22 -36t-57 -12q-26 0 -37.5 10t-16.5 36l-4 20l-6 -23q-12 -45 -52 -45q-36 0 -64 15.5t-27 37.5l10 133q-29 26 -51 65t-22 77v38q0 33 24 94l7 349q1 40 33 40q43 0 47 -64l10 -127q38 -6 36 -65q10 2 15 2q37 0 41 -39q11 7 25 7
q20 0 32.5 -11.5t11.5 -31.5v-2q9 7 24 7q14 0 26.5 -11.5t11.5 -30.5l-2 -54q25 -92 25 -160q0 -48 -27 -89zM134 671l-7 -310q40 94 40 161h25l-8 127q-3 46 -32 46q-18 0 -18 -24zM358 -119q28 0 46.5 8t17.5 23l-9 113q-23 -26 -55 -43q82 79 82 151q0 49 -13 111v-9
q-1 -21 -13.5 -31.5t-26.5 -10.5q-23 0 -33 24q-12 -14 -30 -14q-34 0 -40 41q-6 -7 -20 -12q71 -59 56 -172q-1 58 -19 102t-70 77q-9 -20 -37 -50q27 47 27 69q0 7 -5 38.5t-3 46.5l15 93q5 32 -2.5 52.5t-25.5 19.5l-19 -1q-3 -63 -40.5 -154.5t-37.5 -122.5v-38
q0 -45 27.5 -88t64.5 -74q-9 2 -19 9l-10 -122q-1 -16 22 -27t54 -11q28 0 37 30l16 50h13l11 -47q4 -18 11.5 -24.5t27.5 -6.5zM260 443q-10 0 -17 -6v-1l-15 -92q-1 -16 -0.5 -25t3.5 -26.5t4 -26.5q8 -19 22 -19q21 0 22 30l6 131q1 35 -25 35zM326 411q-21 0 -25 -13
l-5 -121q0 -7 -1 -10q0 -48 29 -48q23 0 24 30l7 135q1 13 -7.5 20t-21.5 7zM369 365l-6 -119q0 -4 -1 -6q4 -32 25 -32q24 0 25 27l5 114q1 11 -6.5 18t-16.5 7q-16 0 -25 -9z" />
    <glyph glyph-name="uni261E" unicode="&#x261e;" horiz-adv-x="937" 
d="M874 402q40 -1 40 -33q0 -43 -64 -47l-127 -10q-6 -38 -65 -36q2 -10 2 -15q0 -37 -39 -41q7 -11 7 -25q0 -20 -11.5 -32.5t-31.5 -11.5h-2q7 -9 7 -24q0 -14 -11.5 -26.5t-30.5 -11.5l-54 2q-92 -25 -160 -25q-48 0 -89 27l-130 -9q-24 -1 -36 22t-12 57q0 26 10 37.5
t36 16.5l20 4l-23 6q-45 12 -45 52q0 36 15.5 64t37.5 27l133 -10q26 29 65 51t77 22h38q33 0 94 -24zM637 293q32 -5 52.5 2.5t19.5 25.5l-1 19q-63 3 -154.5 40.5t-122.5 37.5h-38q-45 0 -88 -27.5t-74 -64.5q2 9 9 19l-122 10q-16 1 -27 -22t-11 -54q0 -28 30 -37l50 -16
v-13l-47 -11q-18 -4 -24.5 -11.5t-6.5 -27.5q0 -28 8 -46.5t23 -17.5l113 9q-26 23 -43 55q79 -82 151 -82q49 0 111 13h-9q-21 1 -31.5 13.5t-10.5 26.5q0 23 24 33q-14 12 -14 30q0 34 41 40q-7 6 -12 20q-59 -71 -172 -56q58 1 102 19t77 70q-20 9 -50 37q47 -27 69 -27
q7 0 38.5 5t46.5 3zM850 337q46 3 46 32q0 18 -24 18l-310 7q94 -40 161 -40v-25zM644 261q0 9 -6 17h-1l-92 15q-16 1 -25 0.5t-26.5 -3.5t-26.5 -4q-19 -8 -19 -22q0 -21 30 -22l131 -6q35 -1 35 25zM585 166q13 -1 20 7.5t7 21.5q0 21 -13 25l-121 5q-7 0 -10 1
q-48 0 -48 -29q0 -23 30 -24zM575 127q0 16 -9 25l-119 6q-4 0 -6 1q-32 -4 -32 -25q0 -24 27 -25l114 -5q11 -1 18 6.5t7 16.5z" />
    <glyph glyph-name="uni261F" unicode="&#x261f;" horiz-adv-x="471" 
d="M417 284l2 -54q1 -19 -11.5 -30.5t-26.5 -11.5q-15 0 -24 7v-2q1 -20 -11.5 -31.5t-32.5 -11.5q-14 0 -25 7q-4 -39 -41 -39q-5 0 -15 2q2 -59 -36 -65l-10 -127q-4 -64 -47 -64q-32 0 -33 40l-7 349q-24 61 -24 94v38q0 38 22 77t51 65l-10 133q-1 22 27 37.5t64 15.5
q40 0 52 -45l6 -23l4 20q5 26 16.5 36t37.5 10q34 0 57 -12t22 -36l-9 -130q27 -41 27 -89q0 -68 -25 -160zM187 69q18 -1 25.5 19.5t2.5 52.5l-15 93q-2 15 3 46.5t5 38.5q0 22 -27 69q28 -30 37 -50q52 33 70 77t19 102q15 -113 -56 -172q14 -5 20 -12q6 41 40 41
q18 0 30 -14q10 24 33 24q14 0 26.5 -10.5t13.5 -31.5v-9q13 62 13 111q0 72 -82 151q32 -17 55 -43l9 113q1 15 -17.5 23t-46.5 8q-20 0 -27.5 -6.5t-11.5 -24.5l-11 -47h-13l-16 50q-9 30 -37 30q-31 0 -54 -11t-22 -27l10 -122q10 7 19 9q-37 -31 -64.5 -74t-27.5 -88
v-38q0 -31 37.5 -122.5t40.5 -154.5zM381 203q9 0 16.5 7t6.5 18l-5 114q-1 27 -25 27q-21 0 -25 -32q1 -2 1 -6l6 -119q9 -9 25 -9zM313 166q13 0 21.5 7t7.5 20l-7 135q-1 30 -24 30q-29 0 -29 -48q1 -3 1 -10l5 -121q4 -13 25 -13zM247 134q26 0 25 35l-6 131
q-1 30 -22 30q-14 0 -22 -19q0 -2 -4.5 -33t-2.5 -45l15 -92v-1q8 -6 17 -6zM139 -118q29 0 32 46l8 127h-25q0 67 -40 161l7 -310q0 -24 18 -24z" />
    <glyph glyph-name="K.ss04" horiz-adv-x="529" 
d="M722 -203q-340 0 -441 514l-119 -115l-15 -77q-16 -87 -7 -119h-123q23 35 41 121l81 413q15 89 6 122h123q-23 -33 -39 -120l-40 -203h4l242 238q49 49 67 85h133q-38 -26 -113 -107l-171 -170q96 -501 391 -501q106 0 199 41l-35 -97q-75 -25 -184 -25z" />
    <glyph glyph-name="uni0136.ss04" horiz-adv-x="529" 
d="M722 -203q-340 0 -441 514l-119 -115l-15 -77q-16 -87 -7 -119h-123q23 35 41 121l81 413q15 89 6 122h123q-23 -33 -39 -120l-40 -203h4l242 238q49 49 67 85h133q-38 -26 -113 -107l-171 -170q96 -501 391 -501q106 0 199 41l-35 -97q-75 -25 -184 -25zM170 -245
l-12 33q59 25 72 70q-3 -1 -8 -1q-15 0 -25 9t-10 24q0 21 15 36.5t35 15.5q42 0 42 -45q0 -44 -29 -82.5t-80 -59.5z" />
    <glyph glyph-name="Q.ss05" horiz-adv-x="625" 
d="M722 -171q84 0 172 29t147 75l-29 -112q-120 -74 -309 -74q-138 0 -246 65.5t-167 175.5h-2q-100 0 -164.5 73t-64.5 201q0 174 84 290t239 116q100 0 164.5 -73t64.5 -200q0 -146 -59 -253.5t-170 -140.5q50 -82 140.5 -127t199.5 -45zM154 269q0 -96 40 -147t101 -51
q69 0 120.5 44.5t76.5 115t25 156.5q0 96 -41 147t-101 51q-69 0 -120.5 -44t-76 -115t-24.5 -157z" />
    <glyph glyph-name="R.ss06" horiz-adv-x="546" 
d="M726 -203q-64 0 -119 15.5t-95.5 41t-74.5 64t-56.5 77t-42 88.5t-30.5 90.5t-22 89.5h-110l-28 -142q-17 -88 -8 -121h-123q25 37 41 121l81 413q15 88 6 122h214q212 0 212 -146q0 -97 -52.5 -159t-146.5 -81q17 -65 35.5 -116.5t49.5 -104.5t68.5 -88t92 -57.5
t120.5 -22.5q114 0 187 38l-35 -100q-57 -22 -164 -22zM190 338h104q89 0 137 39t48 113q0 89 -135 89h-107z" />
    <glyph glyph-name="Racute.ss06" horiz-adv-x="546" 
d="M343 699l-34 43q96 54 176 166l48 -58q-83 -102 -190 -151zM726 -203q-64 0 -119 15.5t-95.5 41t-74.5 64t-56.5 77t-42 88.5t-30.5 90.5t-22 89.5h-110l-28 -142q-17 -88 -8 -121h-123q25 37 41 121l81 413q15 88 6 122h214q212 0 212 -146q0 -97 -52.5 -159t-146.5 -81
q17 -65 35.5 -116.5t49.5 -104.5t68.5 -88t92 -57.5t120.5 -22.5q114 0 187 38l-35 -100q-57 -22 -164 -22zM190 338h104q89 0 137 39t48 113q0 89 -135 89h-107z" />
    <glyph glyph-name="Rcaron.ss06" horiz-adv-x="546" 
d="M313 699q-26 85 -87 140l43 33q70 -47 96 -112h4q59 70 141 112l29 -34q-85 -58 -140 -139h-86zM726 -203q-64 0 -119 15.5t-95.5 41t-74.5 64t-56.5 77t-42 88.5t-30.5 90.5t-22 89.5h-110l-28 -142q-17 -88 -8 -121h-123q25 37 41 121l81 413q15 88 6 122h214
q212 0 212 -146q0 -97 -52.5 -159t-146.5 -81q17 -65 35.5 -116.5t49.5 -104.5t68.5 -88t92 -57.5t120.5 -22.5q114 0 187 38l-35 -100q-57 -22 -164 -22zM190 338h104q89 0 137 39t48 113q0 89 -135 89h-107z" />
    <glyph glyph-name="uni0156.ss06" horiz-adv-x="546" 
d="M726 -203q-64 0 -119 15.5t-95.5 41t-74.5 64t-56.5 77t-42 88.5t-30.5 90.5t-22 89.5h-110l-28 -142q-17 -88 -8 -121h-123q25 37 41 121l81 413q15 88 6 122h214q212 0 212 -146q0 -97 -52.5 -159t-146.5 -81q17 -65 35.5 -116.5t49.5 -104.5t68.5 -88t92 -57.5
t120.5 -22.5q114 0 187 38l-35 -100q-57 -22 -164 -22zM190 338h104q89 0 137 39t48 113q0 89 -135 89h-107zM166 -245l-12 33q59 25 72 70q-3 -1 -8 -1q-15 0 -25 9t-10 24q0 21 15 36.5t35 15.5q42 0 42 -45q0 -44 -29 -82.5t-80 -59.5z" />
    <glyph glyph-name="i.loclTRK" horiz-adv-x="232" 
d="M177 573q-48 0 -48 40q0 31 19.5 51t49.5 20q48 0 48 -41q0 -31 -19 -50.5t-50 -19.5zM22 0l70 352q11 58 12.5 78.5t-4.5 56.5h110l-76 -375q-18 -91 -3 -112h-109z" />
    <glyph glyph-name="a.inferior" horiz-adv-x="387" 
d="M197 -169q-51 0 -82 36.5t-31 103.5q0 107 62 179t142 72q42 0 90 -22l6 12h75l-55 -268q-16 -80 -2 -104h-87q-3 21 1 45h-4q-50 -54 -115 -54zM220 -102q50 0 111 78l31 156q-30 22 -68 22q-51 0 -89 -50.5t-38 -126.5q0 -37 14 -58t39 -21z" />
    <glyph glyph-name="b.inferior" horiz-adv-x="420" 
d="M244 -168q-54 0 -94 26l-12 -18h-63l88 427q19 92 5 115h98l-44 -213q52 54 116 54q52 0 82.5 -36.5t30.5 -104.5q0 -105 -62 -177.5t-145 -72.5zM239 -101q52 0 90.5 51.5t38.5 128.5t-53 77q-23 0 -56 -24t-56 -58l-31 -151q27 -24 67 -24z" />
    <glyph glyph-name="c.inferior" horiz-adv-x="349" 
d="M225 -171q-64 0 -101.5 38.5t-37.5 111.5q0 110 58.5 177t143.5 67q24 0 44.5 -5.5t38 -13t26.5 -9.5l-38 -78q-23 37 -75 37q-46 0 -80.5 -50.5t-34.5 -118.5q0 -44 20.5 -65t51.5 -21q61 0 91 41l24 -79q-7 -1 -28.5 -10t-48 -15.5t-54.5 -6.5z" />
    <glyph glyph-name="d.inferior" horiz-adv-x="420" 
d="M197 -169q-52 0 -82.5 36t-30.5 105q0 105 62 177.5t145 72.5q39 0 85 -18l14 70q9 46 10 63t-7 45h99l-89 -442q-6 -31 -8 -44t-0.5 -29.5t8.5 -26.5h-87q-2 25 3 47h-3q-51 -56 -119 -56zM220 -102q24 0 56 25t56 61l30 151q-30 20 -66 20q-52 0 -90.5 -51t-38.5 -129
q0 -37 14 -57t39 -20z" />
    <glyph glyph-name="e.inferior" horiz-adv-x="385" 
d="M237 -171q-69 0 -110 40t-41 112q0 107 58 174.5t145 67.5q60 0 97.5 -33.5t37.5 -83.5q0 -108 -161 -108h-95q-5 -47 17.5 -75.5t63.5 -28.5q72 0 104 37l26 -71q-86 -31 -142 -31zM176 54h74q95 0 95 50q0 23 -17 38.5t-47 15.5q-37 0 -66.5 -29.5t-38.5 -74.5z" />
    <glyph glyph-name="f.inferior" horiz-adv-x="238" 
d="M93 -160l61 305h-51l13 67h51l10 48q13 64 54.5 96t99.5 32q44 0 83 -18l-28 -68q-19 23 -60 23q-54 0 -68 -69l-10 -44h84l-13 -67h-85l-41 -209q-15 -77 -2 -96h-98z" />
    <glyph glyph-name="g.inferior" horiz-adv-x="389" 
d="M189 -322q-64 0 -134 34l36 79q37 -49 101 -49q87 0 111 94l12 50l-2 1q-49 -56 -113 -56q-54 0 -85 36t-31 105q0 105 62.5 177.5t145.5 72.5q46 0 90 -23l9 14h72l-78 -369q-37 -166 -196 -166zM219 -101q27 0 59 23.5t55 59.5l32 149q-34 24 -71 24q-51 0 -89 -51.5
t-38 -128.5q0 -36 14 -56t38 -20z" />
    <glyph glyph-name="h.inferior" horiz-adv-x="425" 
d="M78 -160l87 434q9 46 10.5 62.5t-7.5 45.5h96l-41 -215h4q20 23 54 40t70 17q55 0 79 -40t12 -104l-28 -149q-9 -45 -9.5 -59t8.5 -32h-99l46 234q15 79 -42 79q-27 0 -58.5 -22t-52.5 -51l-29 -149q-12 -64 -7 -80q2 -6 6 -11h-99z" />
    <glyph glyph-name="i.inferior" horiz-adv-x="198" 
d="M206 277q-44 0 -44 43q0 25 15.5 41t40.5 16q44 0 44 -43q0 -26 -15.5 -41.5t-40.5 -15.5zM77 -160l53 264q1 4 3 16t3 16t2.5 14t1.5 14.5v12.5t-1 13t-2.5 11t-4.5 11h100l-57 -281q-14 -74 1 -91h-99z" />
    <glyph glyph-name="j.inferior" horiz-adv-x="199" 
d="M203 276q-45 0 -45 43q0 25 16 41t41 16q44 0 44 -43q0 -26 -15.5 -41.5t-40.5 -15.5zM17 -321q-15 0 -67 11l26 74q15 -17 39 -17q25 0 39 22t24 71l54 264q6 34 8 47t1 30.5t-7 30.5l100 -1l-75 -369q-17 -83 -49 -123t-93 -40z" />
    <glyph glyph-name="k.inferior" horiz-adv-x="397" 
d="M78 -160l87 434q17 81 3 108h99l-44 -222q49 63 124 63q43 0 72 -26t29 -69q0 -50 -32.5 -85t-83.5 -51l40 -78q28 -57 54 -74h-101l-76 156l2 31q47 2 81 25t34 61q0 21 -12 33t-32 12q-29 0 -62 -26t-56 -69l-27 -132q-6 -30 -7.5 -42.5t0 -26.5t8.5 -22h-100z" />
    <glyph glyph-name="l.inferior" horiz-adv-x="198" 
d="M78 -160l85 429q17 85 3 113h101l-89 -446q-14 -76 2 -96h-102z" />
    <glyph glyph-name="m.inferior" horiz-adv-x="640" 
d="M76 -160l53 269q9 44 10 61.5t-7 41.5h95l-10 -53h4q54 63 123 63q78 0 88 -70q63 70 133 70q59 0 82 -39t9 -105l-30 -146q0 -1 -2 -10t-2.5 -12t-2 -11t-1.5 -11.5t-0.5 -10.5t0 -11t1.5 -9.5t3 -9.5t5 -7h-100l46 228q17 83 -39 83q-44 0 -101 -65l-32 -155
q-12 -64 -7 -81q2 -5 5 -10h-98l47 228q9 43 0 63t-38 20q-46 0 -105 -66l-30 -154q-15 -72 -1 -91h-98z" />
    <glyph glyph-name="n.inferior" horiz-adv-x="425" 
d="M78 -160l52 265q15 82 2 107h93l-7 -46h3q22 23 56.5 40.5t69.5 17.5q55 0 80.5 -38.5t13.5 -101.5l-29 -148q-14 -78 0 -96h-99l46 234q17 79 -43 79q-25 0 -56.5 -21t-53.5 -50l-29 -146q-14 -77 -1 -96h-98z" />
    <glyph glyph-name="o.inferior" horiz-adv-x="410" 
d="M233 -171q-68 0 -107.5 40t-39.5 112q0 108 59.5 175t152.5 67q67 0 107 -39.5t40 -110.5q0 -108 -59.5 -176t-152.5 -68zM243 -101q50 0 84.5 48.5t34.5 121.5q0 40 -19.5 62.5t-54.5 22.5q-50 0 -85 -48.5t-35 -121.5q0 -41 19.5 -63t55.5 -22z" />
    <glyph glyph-name="p.inferior" horiz-adv-x="419" 
d="M43 -312l85 418q18 84 5 106h93l-9 -44h4q50 55 113 55q54 0 85 -36t31 -105q0 -106 -61 -178t-146 -72q-48 0 -87 22l-15 -75q-14 -71 -1 -91h-97zM239 -101q52 0 90 51.5t38 128.5t-53 77q-23 0 -56 -24t-57 -59l-30 -150q27 -24 68 -24z" />
    <glyph glyph-name="q.inferior" horiz-adv-x="419" 
d="M273 -312l43 199l-2 1q-50 -57 -114 -57q-54 0 -85 36t-31 105q0 105 62.5 177.5t142.5 72.5q43 0 89 -20l9 11h73l-85 -422q-1 -3 -2.5 -12.5t-2 -13t-2 -11.5t-2 -11.5t-1 -10t0 -10t0.5 -9t1 -9.5t2.5 -8t3.5 -8h-100zM220 -102q26 0 58.5 26.5t55.5 65.5l29 143
q-30 22 -69 22q-52 0 -90 -51t-38 -129q0 -36 14.5 -56.5t39.5 -20.5z" />
    <glyph glyph-name="r.inferior" horiz-adv-x="284" 
d="M78 -160l53 265q17 80 1 107h93l-9 -58h4q19 31 49.5 50t60.5 19q24 0 42 -10l-27 -79q-12 16 -31 16q-26 0 -57.5 -27t-56.5 -75l-21 -107q-15 -81 3 -101h-104z" />
    <glyph glyph-name="s.inferior" horiz-adv-x="328" 
d="M199 -169q-30 0 -58.5 7t-52.5 16.5t-33 11.5l46 82q31 -54 103 -54q28 0 45.5 12.5t17.5 35.5q0 20 -13.5 31.5t-41.5 23.5l-18 8q-80 32 -80 101q0 52 37.5 85t96.5 33q32 0 76.5 -14.5t47.5 -15.5l-40 -76q-29 43 -87 43q-23 0 -38 -12t-15 -31q0 -30 45 -50l22 -10
q39 -18 62.5 -41.5t23.5 -63.5q0 -56 -39.5 -89t-106.5 -33z" />
    <glyph glyph-name="t.inferior" horiz-adv-x="273" 
d="M206 -169q-52 0 -78 34.5t-13 98.5l38 183h-55l13 65h57l14 70h79l-13 -70h95l-13 -65h-96l-38 -181q-14 -68 34 -68q39 0 55 20l16 -75q-8 0 -40 -6t-55 -6z" />
    <glyph glyph-name="u.inferior" horiz-adv-x="421" 
d="M188 -171q-53 0 -75.5 35.5t-9.5 102.5l28 150q6 30 8 43.5t0.5 28.5t-8.5 23h100l-46 -231q-17 -81 34 -81q27 0 58.5 24t54.5 58l27 135q15 77 1 95h98l-52 -266q-15 -79 1 -106h-95l7 53h-4q-54 -64 -127 -64z" />
    <glyph glyph-name="v.inferior" horiz-adv-x="389" 
d="M164 -160l-42 273q-14 81 -30 99h96l30 -210q8 -55 8 -100h4q11 28 56.5 114.5t60.5 119.5q25 54 13 76h97q-15 -46 -94.5 -198.5t-85.5 -173.5h-113z" />
    <glyph glyph-name="w.inferior" horiz-adv-x="561" 
d="M143 -160l-22 290q-6 64 -21 82h92l13 -196q5 -66 3 -115h5q13 42 75 174q50 107 50 137h113l14 -196q5 -63 2 -115h4q9 25 43 99t56 133t16 79h88q-13 -46 -82 -197t-77 -175h-114l-13 208q-2 27 -2 93h-3q-10 -37 -34 -92q-11 -24 -31.5 -68.5t-35 -78t-24.5 -62.5
h-115z" />
    <glyph glyph-name="x.inferior" horiz-adv-x="368" 
d="M335 -90q25 -55 43 -70h-97l-36 86q-10 23 -21 61h-3q-26 -44 -35 -55l-37 -45q-23 -28 -23 -47h-98l166 203l-44 101q-20 51 -39 68h94l32 -75q12 -33 21 -63h2q27 46 37 59l26 33q24 26 22 46h98l-155 -193z" />
    <glyph glyph-name="y.inferior" horiz-adv-x="383" 
d="M86 -312q-15 0 -34.5 2.5t-27.5 1.5l28 83q15 -20 42 -20q50 0 84 72l6 11l-54 282q-16 75 -34 92h95l34 -207q9 -53 11 -88h4l42 88l62 128q29 63 21 79h94l-205 -400q-64 -124 -168 -124z" />
    <glyph glyph-name="z.inferior" horiz-adv-x="338" 
d="M393 212l-6 -50l-226 -258h107q55 0 80 15l-15 -79h-284l7 51l223 257h-91q-49 0 -71 -14l15 78h261z" />
    <glyph glyph-name="a.ordn" horiz-adv-x="422" 
d="M197 341q-51 0 -82 36.5t-31 103.5q0 107 62 179t142 72q42 0 90 -22l6 12h75l-55 -268q-16 -80 -2 -104h-87q-3 21 1 45h-4q-50 -54 -115 -54zM220 408q50 0 111 78l31 156q-30 22 -68 22q-51 0 -89 -50.5t-38 -126.5q0 -37 14 -58t39 -21z" />
    <glyph glyph-name="b.ordn" horiz-adv-x="422" 
d="M244 342q-54 0 -94 26l-12 -18h-63l88 427q19 92 5 115h98l-44 -213q52 54 116 54q52 0 82.5 -36.5t30.5 -104.5q0 -105 -62 -177.5t-145 -72.5zM239 409q52 0 90.5 51.5t38.5 128.5t-53 77q-23 0 -56 -24t-56 -58l-31 -151q27 -24 67 -24z" />
    <glyph glyph-name="c.ordn" horiz-adv-x="342" 
d="M225 339q-64 0 -101.5 38.5t-37.5 111.5q0 110 58.5 177t143.5 67q24 0 44.5 -5.5t38 -13t26.5 -9.5l-38 -78q-23 37 -75 37q-46 0 -80.5 -50.5t-34.5 -118.5q0 -44 20.5 -65t51.5 -21q61 0 91 41l24 -79q-7 -1 -28.5 -10t-48 -15.5t-54.5 -6.5z" />
    <glyph glyph-name="d.ordn" horiz-adv-x="422" 
d="M197 341q-52 0 -82.5 36t-30.5 105q0 105 62 177.5t145 72.5q39 0 85 -18l14 70q9 46 10 63t-7 45h99l-89 -442q-6 -31 -8 -44t-0.5 -29.5t8.5 -26.5h-87q-2 25 3 47h-3q-51 -56 -119 -56zM220 408q24 0 56 25t56 61l30 151q-30 20 -66 20q-52 0 -90.5 -51t-38.5 -129
q0 -37 14 -57t39 -20z" />
    <glyph glyph-name="e.ordn" horiz-adv-x="390" 
d="M237 339q-69 0 -110 40t-41 112q0 107 58 174.5t145 67.5q60 0 97.5 -33.5t37.5 -83.5q0 -108 -161 -108h-95q-5 -47 17.5 -75.5t63.5 -28.5q72 0 104 37l26 -71q-86 -31 -142 -31zM176 564h74q95 0 95 50q0 23 -17 38.5t-47 15.5q-37 0 -66.5 -29.5t-38.5 -74.5z" />
    <glyph glyph-name="f.ordn" horiz-adv-x="245" 
d="M93 350l61 305h-51l13 67h51l10 48q13 64 54.5 96t99.5 32q44 0 83 -18l-28 -68q-19 23 -60 23q-54 0 -68 -69l-10 -44h84l-13 -67h-85l-41 -209q-15 -77 -2 -96h-98z" />
    <glyph glyph-name="g.ordn" horiz-adv-x="412" 
d="M189 188q-64 0 -134 34l36 79q37 -49 101 -49q87 0 111 94l12 50l-2 1q-49 -56 -113 -56q-54 0 -85 36t-31 105q0 105 62.5 177.5t145.5 72.5q46 0 90 -23l9 14h72l-78 -369q-37 -166 -196 -166zM219 409q27 0 59 23.5t55 59.5l32 149q-34 24 -71 24q-51 0 -89 -51.5
t-38 -128.5q0 -36 14 -56t38 -20z" />
    <glyph glyph-name="h.ordn" horiz-adv-x="427" 
d="M78 350l87 434q9 46 10.5 62.5t-7.5 45.5h96l-41 -215h4q20 23 54 40t70 17q55 0 79 -40t12 -104l-28 -149q-9 -45 -9.5 -59t8.5 -32h-99l46 234q15 79 -42 79q-27 0 -58.5 -22t-52.5 -51l-29 -149q-12 -64 -7 -80q2 -6 6 -11h-99z" />
    <glyph glyph-name="i.ordn" horiz-adv-x="196" 
d="M206 787q-44 0 -44 43q0 25 15.5 41t40.5 16q44 0 44 -43q0 -26 -15.5 -41.5t-40.5 -15.5zM77 350l53 264q1 4 3 16t3 16t2.5 14t1.5 14.5v12.5t-1 13t-2.5 11t-4.5 11h100l-57 -281q-14 -74 1 -91h-99z" />
    <glyph glyph-name="j.ordn" horiz-adv-x="186" 
d="M203 787q-45 0 -45 43q0 25 16 41t41 16q44 0 44 -43q0 -26 -15.5 -41.5t-40.5 -15.5zM17 190q-25 0 -67 11l26 74q16 -18 39 -18q25 0 39 22t24 72l54 264q15 82 2 108l100 -1l-75 -369q-17 -83 -49 -123t-93 -40z" />
    <glyph glyph-name="k.ordn" horiz-adv-x="404" 
d="M78 350l87 434q17 81 3 108h99l-44 -222q49 63 124 63q43 0 72 -26t29 -69q0 -50 -32.5 -85t-83.5 -51l40 -78q28 -57 54 -74h-101l-76 156l2 31q47 2 81 25t34 61q0 21 -12 33t-32 12q-29 0 -62 -26t-56 -69l-27 -132q-6 -30 -7.5 -42.5t0 -26.5t8.5 -22h-100z" />
    <glyph glyph-name="l.ordn" horiz-adv-x="199" 
d="M78 350l85 429q17 85 3 113h101l-89 -446q-14 -76 2 -96h-102z" />
    <glyph glyph-name="m.ordn" horiz-adv-x="641" 
d="M76 350l53 269q9 44 10 61.5t-7 41.5h95l-10 -53h4q54 63 123 63q78 0 88 -70q63 70 133 70q59 0 82 -39t9 -105l-30 -146q0 -1 -2 -10t-2.5 -12t-2 -11t-1.5 -11.5t-0.5 -10.5t0 -11t1.5 -9.5t3 -9.5t5 -7h-100l46 228q17 83 -39 83q-44 0 -101 -65l-32 -155
q-12 -64 -7 -81q2 -5 5 -10h-98l47 228q9 43 0 63t-38 20q-46 0 -105 -66l-30 -154q-15 -72 -1 -91h-98z" />
    <glyph glyph-name="n.ordn" horiz-adv-x="426" 
d="M78 350l52 265q15 82 2 107h93l-7 -46h3q22 23 56.5 40.5t69.5 17.5q55 0 80.5 -38.5t13.5 -101.5l-29 -148q-14 -78 0 -96h-99l46 234q17 79 -43 79q-25 0 -56.5 -21t-53.5 -50l-29 -146q-14 -77 -1 -96h-98z" />
    <glyph glyph-name="o.ordn" horiz-adv-x="417" 
d="M233 339q-68 0 -107.5 40t-39.5 112q0 108 59.5 175t152.5 67q67 0 107 -39.5t40 -110.5q0 -108 -59.5 -176t-152.5 -68zM243 409q50 0 84.5 48.5t34.5 121.5q0 40 -19.5 62.5t-54.5 22.5q-50 0 -85 -48.5t-35 -121.5q0 -41 19.5 -63t55.5 -22z" />
    <glyph glyph-name="p.ordn" horiz-adv-x="420" 
d="M43 198l85 418q18 84 5 106h93l-9 -44h4q50 55 113 55q54 0 85 -36t31 -105q0 -106 -61 -178t-146 -72q-48 0 -87 22l-15 -75q-14 -71 -1 -91h-97zM239 409q52 0 90 51.5t38 128.5t-53 77q-23 0 -56 -24t-57 -59l-30 -150q27 -24 68 -24z" />
    <glyph glyph-name="q.ordn" horiz-adv-x="428" 
d="M273 198l43 199l-2 1q-50 -57 -114 -57q-54 0 -85 36t-31 105q0 105 62.5 177.5t142.5 72.5q43 0 89 -20l9 11h73l-85 -422q-1 -3 -2.5 -12.5t-2 -13t-2 -11.5t-2 -11.5t-1 -10t0 -10t0.5 -9t1 -9.5t2.5 -8t3.5 -8h-100zM220 408q26 0 58.5 26.5t55.5 65.5l29 143
q-30 22 -69 22q-52 0 -90 -51t-38 -129q0 -36 14.5 -56.5t39.5 -20.5z" />
    <glyph glyph-name="r.ordn" horiz-adv-x="292" 
d="M78 350l53 265q17 80 1 107h93l-9 -58h4q19 31 49.5 50t60.5 19q24 0 42 -10l-27 -79q-12 16 -31 16q-26 0 -57.5 -27t-56.5 -75l-21 -107q-15 -81 3 -101h-104z" />
    <glyph glyph-name="s.ordn" horiz-adv-x="330" 
d="M199 341q-30 0 -58.5 7t-52.5 16.5t-33 11.5l46 82q31 -54 103 -54q28 0 45.5 12.5t17.5 35.5q0 20 -13.5 31.5t-41.5 23.5l-18 8q-80 32 -80 101q0 52 37.5 85t96.5 33q32 0 76.5 -14.5t47.5 -15.5l-40 -76q-29 43 -87 43q-23 0 -38 -12t-15 -31q0 -30 45 -50l22 -10
q39 -18 62.5 -41.5t23.5 -63.5q0 -56 -39.5 -89t-106.5 -33z" />
    <glyph glyph-name="t.ordn" horiz-adv-x="285" 
d="M206 341q-52 0 -78 34.5t-13 98.5l38 183h-55l13 65h57l14 70h79l-13 -70h95l-13 -65h-96l-38 -181q-14 -68 34 -68q39 0 55 20l16 -75q-8 0 -40 -6t-55 -6z" />
    <glyph glyph-name="u.ordn" horiz-adv-x="422" 
d="M188 339q-53 0 -75.5 35.5t-9.5 102.5l28 150q6 30 8 43.5t0.5 28.5t-8.5 23h100l-46 -231q-17 -81 34 -81q27 0 58.5 24t54.5 58l27 135q15 77 1 95h98l-52 -266q-15 -79 1 -106h-95l7 53h-4q-54 -64 -127 -64z" />
    <glyph glyph-name="v.ordn" horiz-adv-x="377" 
d="M164 350l-42 273q-14 81 -30 99h96l30 -210q8 -55 8 -100h4q11 28 56.5 114.5t60.5 119.5q25 54 13 76h97q-15 -46 -94.5 -198.5t-85.5 -173.5h-113z" />
    <glyph glyph-name="w.ordn" horiz-adv-x="599" 
d="M143 350l-22 290q-6 64 -21 82h92l13 -196q5 -66 3 -115h5q13 42 75 174q50 107 50 137h113l14 -196q5 -63 2 -115h4q9 25 43 99t56 133t16 79h88q-13 -46 -82 -197t-77 -175h-114l-13 208q-2 27 -2 93h-3q-10 -37 -34 -92q-11 -24 -31.5 -68.5t-35 -78t-24.5 -62.5h-115
z" />
    <glyph glyph-name="x.ordn" horiz-adv-x="360" 
d="M335 420q25 -55 43 -70h-97l-36 86q-10 23 -21 61h-3q-26 -44 -35 -55l-37 -45q-23 -28 -23 -47h-98l166 203l-44 101q-20 51 -39 68h94l32 -75q12 -33 21 -63h2q27 46 37 59l26 33q24 26 22 46h98l-155 -193z" />
    <glyph glyph-name="y.ordn" horiz-adv-x="374" 
d="M86 198q-15 0 -34.5 2.5t-27.5 1.5l28 83q15 -20 42 -20q50 0 84 72l6 11l-54 282q-16 75 -34 92h95l34 -207q9 -53 11 -88h4l42 88l62 128q29 63 21 79h94l-205 -400q-64 -124 -168 -124z" />
    <glyph glyph-name="z.ordn" horiz-adv-x="332" 
d="M393 722l-6 -50l-226 -258h107q55 0 80 15l-15 -79h-284l7 51l223 257h-91q-49 0 -71 -14l15 78h261z" />
    <glyph glyph-name="a.ss01" horiz-adv-x="486" 
d="M149 -12q-62 0 -96.5 31t-34.5 86q0 85 66.5 130.5t192.5 45.5h65l7 36q10 55 -5.5 80t-67.5 25q-43 0 -85.5 -15.5t-69.5 -39.5l-20 89q14 1 79 22t113 21q96 0 130.5 -44t15.5 -137l-38 -198q-18 -90 -10 -120h-99l14 52h-8q-22 -26 -63.5 -45t-85.5 -19zM172 61
q38 0 79.5 26t65.5 63l12 62h-66q-151 0 -151 -96q0 -27 16.5 -41t43.5 -14z" />
    <glyph glyph-name="aacute.ss01" horiz-adv-x="486" 
d="M281 560l-34 43q96 54 176 166l48 -58q-83 -102 -190 -151zM149 -12q-62 0 -96.5 31t-34.5 86q0 85 66.5 130.5t192.5 45.5h65l7 36q10 55 -5.5 80t-67.5 25q-43 0 -85.5 -15.5t-69.5 -39.5l-20 89q14 1 79 22t113 21q96 0 130.5 -44t15.5 -137l-38 -198
q-18 -90 -10 -120h-99l14 52h-8q-22 -26 -63.5 -45t-85.5 -19zM172 61q38 0 79.5 26t65.5 63l12 62h-66q-151 0 -151 -96q0 -27 16.5 -41t43.5 -14z" />
    <glyph glyph-name="abreve.ss01" horiz-adv-x="486" 
d="M298 557q-65 0 -91.5 46.5t-9.5 112.5h48q-8 -44 6.5 -72.5t53.5 -28.5q40 0 65.5 29t33.5 72h49q-23 -159 -155 -159zM149 -12q-62 0 -96.5 31t-34.5 86q0 85 66.5 130.5t192.5 45.5h65l7 36q10 55 -5.5 80t-67.5 25q-43 0 -85.5 -15.5t-69.5 -39.5l-20 89q14 1 79 22
t113 21q96 0 130.5 -44t15.5 -137l-38 -198q-18 -90 -10 -120h-99l14 52h-8q-22 -26 -63.5 -45t-85.5 -19zM172 61q38 0 79.5 26t65.5 63l12 62h-66q-151 0 -151 -96q0 -27 16.5 -41t43.5 -14z" />
    <glyph glyph-name="acircumflex.ss01" horiz-adv-x="486" 
d="M172 554l-30 34q82 54 141 139h86q26 -84 87 -139l-42 -34q-70 46 -97 112h-4q-55 -67 -141 -112zM149 -12q-62 0 -96.5 31t-34.5 86q0 85 66.5 130.5t192.5 45.5h65l7 36q10 55 -5.5 80t-67.5 25q-43 0 -85.5 -15.5t-69.5 -39.5l-20 89q14 1 79 22t113 21
q96 0 130.5 -44t15.5 -137l-38 -198q-18 -90 -10 -120h-99l14 52h-8q-22 -26 -63.5 -45t-85.5 -19zM172 61q38 0 79.5 26t65.5 63l12 62h-66q-151 0 -151 -96q0 -27 16.5 -41t43.5 -14z" />
    <glyph glyph-name="adieresis.ss01" horiz-adv-x="486" 
d="M201 574q-19 0 -30.5 11.5t-11.5 29.5q0 25 19 43.5t44 18.5q19 0 30 -11.5t11 -29.5q0 -24 -18.5 -43t-43.5 -19zM395 574q-18 0 -29.5 11.5t-11.5 29.5q0 24 18.5 43t43.5 19q19 0 30.5 -11.5t11.5 -29.5q0 -25 -19 -43.5t-44 -18.5zM149 -12q-62 0 -96.5 31t-34.5 86
q0 85 66.5 130.5t192.5 45.5h65l7 36q10 55 -5.5 80t-67.5 25q-43 0 -85.5 -15.5t-69.5 -39.5l-20 89q14 1 79 22t113 21q96 0 130.5 -44t15.5 -137l-38 -198q-18 -90 -10 -120h-99l14 52h-8q-22 -26 -63.5 -45t-85.5 -19zM172 61q38 0 79.5 26t65.5 63l12 62h-66
q-151 0 -151 -96q0 -27 16.5 -41t43.5 -14z" />
    <glyph glyph-name="agrave.ss01" horiz-adv-x="486" 
d="M293 560q-88 50 -130 151l62 53q26 -104 105 -167zM149 -12q-62 0 -96.5 31t-34.5 86q0 85 66.5 130.5t192.5 45.5h65l7 36q10 55 -5.5 80t-67.5 25q-43 0 -85.5 -15.5t-69.5 -39.5l-20 89q14 1 79 22t113 21q96 0 130.5 -44t15.5 -137l-38 -198q-18 -90 -10 -120h-99
l14 52h-8q-22 -26 -63.5 -45t-85.5 -19zM172 61q38 0 79.5 26t65.5 63l12 62h-66q-151 0 -151 -96q0 -27 16.5 -41t43.5 -14z" />
    <glyph glyph-name="amacron.ss01" horiz-adv-x="486" 
d="M168 588l12 59h266l-12 -59h-266zM149 -12q-62 0 -96.5 31t-34.5 86q0 85 66.5 130.5t192.5 45.5h65l7 36q10 55 -5.5 80t-67.5 25q-43 0 -85.5 -15.5t-69.5 -39.5l-20 89q14 1 79 22t113 21q96 0 130.5 -44t15.5 -137l-38 -198q-18 -90 -10 -120h-99l14 52h-8
q-22 -26 -63.5 -45t-85.5 -19zM172 61q38 0 79.5 26t65.5 63l12 62h-66q-151 0 -151 -96q0 -27 16.5 -41t43.5 -14z" />
    <glyph glyph-name="aogonek.ss01" horiz-adv-x="486" 
d="M293 499q96 0 130.5 -44t15.5 -137l-38 -198q-18 -90 -10 -120q-47 -21 -75.5 -52.5t-28.5 -61.5q0 -27 30 -27q20 0 36 19l14 -48q-29 -25 -74 -25q-33 0 -53 15.5t-20 45.5q0 40 30 77t78 57h-36l14 52h-8q-22 -26 -63.5 -45t-85.5 -19q-62 0 -96.5 31t-34.5 86
q0 85 66.5 130.5t192.5 45.5h65l7 36q10 55 -5.5 80t-67.5 25q-43 0 -85.5 -15.5t-69.5 -39.5l-20 89q14 1 79 22t113 21zM172 61q38 0 79.5 26t65.5 63l12 62h-66q-151 0 -151 -96q0 -27 16.5 -41t43.5 -14z" />
    <glyph glyph-name="aring.ss01" horiz-adv-x="486" 
d="M291 541q-44 0 -69 22t-25 57q0 49 38.5 83.5t93.5 34.5q43 0 68.5 -22t25.5 -56q0 -49 -38.5 -84t-93.5 -35zM298 584q28 0 47 20t19 50q0 19 -12 30t-30 11q-29 0 -47.5 -19.5t-18.5 -50.5q0 -19 12 -30t30 -11zM149 -12q-62 0 -96.5 31t-34.5 86q0 85 66.5 130.5
t192.5 45.5h65l7 36q10 55 -5.5 80t-67.5 25q-43 0 -85.5 -15.5t-69.5 -39.5l-20 89q14 1 79 22t113 21q96 0 130.5 -44t15.5 -137l-38 -198q-18 -90 -10 -120h-99l14 52h-8q-22 -26 -63.5 -45t-85.5 -19zM172 61q38 0 79.5 26t65.5 63l12 62h-66q-151 0 -151 -96
q0 -27 16.5 -41t43.5 -14z" />
    <glyph glyph-name="atilde.ss01" horiz-adv-x="486" 
d="M357 569q-24 0 -44 11.5t-31.5 25t-25.5 25t-27 11.5q-22 0 -29 -14t-5 -49l-66 3q20 123 111 123q30 0 53.5 -18.5t41.5 -37t34 -18.5q39 0 33 64l67 -4q-20 -122 -112 -122zM149 -12q-62 0 -96.5 31t-34.5 86q0 85 66.5 130.5t192.5 45.5h65l7 36q10 55 -5.5 80
t-67.5 25q-43 0 -85.5 -15.5t-69.5 -39.5l-20 89q14 1 79 22t113 21q96 0 130.5 -44t15.5 -137l-38 -198q-18 -90 -10 -120h-99l14 52h-8q-22 -26 -63.5 -45t-85.5 -19zM172 61q38 0 79.5 26t65.5 63l12 62h-66q-151 0 -151 -96q0 -27 16.5 -41t43.5 -14z" />
    <glyph glyph-name="g.ss02" horiz-adv-x="472" 
d="M494 409q-50 21 -92 21l-2 -8q23 -30 23 -73q0 -86 -61 -140.5t-156 -54.5q-12 0 -30 2q-20 -16 -20 -35q0 -18 19 -24t66 -6q167 0 167 -113q0 -85 -68 -131.5t-193 -46.5q-180 0 -180 115q0 94 114 148q-7 17 -7 37q0 46 37 75q-63 36 -63 111q0 95 62.5 154t159.5 59
q35 0 67 -13h65q66 0 109 12zM220 222q50 0 86 37.5t36 93.5q0 37 -23.5 55t-61.5 18q-51 0 -86.5 -36.5t-35.5 -93.5q0 -38 23.5 -56t61.5 -18zM224 13q-55 0 -85 8q-39 -15 -63.5 -39t-24.5 -51q0 -31 26 -44.5t84 -13.5q72 0 115 25t43 66q0 49 -95 49z" />
    <glyph glyph-name="gbreve.ss02" horiz-adv-x="472" 
d="M277 556q-65 0 -91.5 46.5t-9.5 112.5h48q-8 -44 6.5 -72.5t53.5 -28.5q40 0 65.5 29t33.5 72h49q-23 -159 -155 -159zM494 409q-50 21 -92 21l-2 -8q23 -30 23 -73q0 -86 -61 -140.5t-156 -54.5q-12 0 -30 2q-20 -16 -20 -35q0 -18 19 -24t66 -6q167 0 167 -113
q0 -85 -68 -131.5t-193 -46.5q-180 0 -180 115q0 94 114 148q-7 17 -7 37q0 46 37 75q-63 36 -63 111q0 95 62.5 154t159.5 59q35 0 67 -13h65q66 0 109 12zM220 222q50 0 86 37.5t36 93.5q0 37 -23.5 55t-61.5 18q-51 0 -86.5 -36.5t-35.5 -93.5q0 -38 23.5 -56t61.5 -18z
M224 13q-55 0 -85 8q-39 -15 -63.5 -39t-24.5 -51q0 -31 26 -44.5t84 -13.5q72 0 115 25t43 66q0 49 -95 49z" />
    <glyph glyph-name="uni0123.ss02" horiz-adv-x="472" 
d="M270 550q-43 0 -43 46q0 45 30 84t82 59l12 -33q-60 -23 -73 -71q4 1 9 1q15 0 25.5 -8.5t10.5 -24.5q0 -22 -15.5 -37.5t-37.5 -15.5zM494 409q-50 21 -92 21l-2 -8q23 -30 23 -73q0 -86 -61 -140.5t-156 -54.5q-12 0 -30 2q-20 -16 -20 -35q0 -18 19 -24t66 -6
q167 0 167 -113q0 -85 -68 -131.5t-193 -46.5q-180 0 -180 115q0 94 114 148q-7 17 -7 37q0 46 37 75q-63 36 -63 111q0 95 62.5 154t159.5 59q35 0 67 -13h65q66 0 109 12zM220 222q50 0 86 37.5t36 93.5q0 37 -23.5 55t-61.5 18q-51 0 -86.5 -36.5t-35.5 -93.5
q0 -38 23.5 -56t61.5 -18zM224 13q-55 0 -85 8q-39 -15 -63.5 -39t-24.5 -51q0 -31 26 -44.5t84 -13.5q72 0 115 25t43 66q0 49 -95 49z" />
    <glyph glyph-name="gdotaccent.ss02" horiz-adv-x="472" 
d="M276 572q-48 0 -48 40q0 31 19.5 51t49.5 20q48 0 48 -41q0 -31 -19 -50.5t-50 -19.5zM494 409q-50 21 -92 21l-2 -8q23 -30 23 -73q0 -86 -61 -140.5t-156 -54.5q-12 0 -30 2q-20 -16 -20 -35q0 -18 19 -24t66 -6q167 0 167 -113q0 -85 -68 -131.5t-193 -46.5
q-180 0 -180 115q0 94 114 148q-7 17 -7 37q0 46 37 75q-63 36 -63 111q0 95 62.5 154t159.5 59q35 0 67 -13h65q66 0 109 12zM220 222q50 0 86 37.5t36 93.5q0 37 -23.5 55t-61.5 18q-51 0 -86.5 -36.5t-35.5 -93.5q0 -38 23.5 -56t61.5 -18zM224 13q-55 0 -85 8
q-39 -15 -63.5 -39t-24.5 -51q0 -31 26 -44.5t84 -13.5q72 0 115 25t43 66q0 49 -95 49z" />
    <glyph glyph-name="y.ss03" horiz-adv-x="519" 
d="M144 -199q-41 0 -73 7.5t-49.5 16t-22.5 8.5l36 91q39 -48 123 -48q147 0 174 142l12 58q-66 -87 -173 -87q-149 0 -112 190l37 188q15 81 4 120h109l-60 -306q-22 -116 57 -116q36 0 79 28.5t76 74.5l39 199q14 85 5 120h107l-89 -457q-23 -116 -100 -172.5t-179 -56.5z
" />
    <glyph glyph-name="yacute.ss03" horiz-adv-x="519" 
d="M312 560l-34 43q96 54 176 166l48 -58q-83 -102 -190 -151zM144 -199q-41 0 -73 7.5t-49.5 16t-22.5 8.5l36 91q39 -48 123 -48q147 0 174 142l12 58q-66 -87 -173 -87q-149 0 -112 190l37 188q15 81 4 120h109l-60 -306q-22 -116 57 -116q36 0 79 28.5t76 74.5l39 199
q14 85 5 120h107l-89 -457q-23 -116 -100 -172.5t-179 -56.5z" />
    <glyph glyph-name="ycircumflex.ss03" horiz-adv-x="519" 
d="M202 554l-30 34q82 54 141 139h86q26 -84 87 -139l-42 -34q-70 46 -97 112h-4q-55 -67 -141 -112zM144 -199q-41 0 -73 7.5t-49.5 16t-22.5 8.5l36 91q39 -48 123 -48q147 0 174 142l12 58q-66 -87 -173 -87q-149 0 -112 190l37 188q15 81 4 120h109l-60 -306
q-22 -116 57 -116q36 0 79 28.5t76 74.5l39 199q14 85 5 120h107l-89 -457q-23 -116 -100 -172.5t-179 -56.5z" />
    <glyph glyph-name="ydieresis.ss03" horiz-adv-x="519" 
d="M231 574q-19 0 -30.5 11.5t-11.5 29.5q0 25 19 43.5t44 18.5q19 0 30 -11.5t11 -29.5q0 -24 -18.5 -43t-43.5 -19zM425 574q-18 0 -29.5 11.5t-11.5 29.5q0 24 18.5 43t43.5 19q19 0 30.5 -11.5t11.5 -29.5q0 -25 -19 -43.5t-44 -18.5zM144 -199q-41 0 -73 7.5t-49.5 16
t-22.5 8.5l36 91q39 -48 123 -48q147 0 174 142l12 58q-66 -87 -173 -87q-149 0 -112 190l37 188q15 81 4 120h109l-60 -306q-22 -116 57 -116q36 0 79 28.5t76 74.5l39 199q14 85 5 120h107l-89 -457q-23 -116 -100 -172.5t-179 -56.5z" />
    <glyph glyph-name="ygrave.ss03" horiz-adv-x="519" 
d="M324 560q-88 50 -130 151l62 53q26 -104 105 -167zM144 -199q-41 0 -73 7.5t-49.5 16t-22.5 8.5l36 91q39 -48 123 -48q147 0 174 142l12 58q-66 -87 -173 -87q-149 0 -112 190l37 188q15 81 4 120h109l-60 -306q-22 -116 57 -116q36 0 79 28.5t76 74.5l39 199
q14 85 5 120h107l-89 -457q-23 -116 -100 -172.5t-179 -56.5z" />
    <glyph glyph-name="a.superior" horiz-adv-x="387" 
d="M197 431q-51 0 -82 36.5t-31 103.5q0 107 62 179t142 72q42 0 90 -22l6 12h75l-55 -268q-16 -80 -2 -104h-87q-3 21 1 45h-4q-50 -54 -115 -54zM220 498q50 0 111 78l31 156q-30 22 -68 22q-51 0 -89 -50.5t-38 -126.5q0 -37 14 -58t39 -21z" />
    <glyph glyph-name="b.superior" horiz-adv-x="420" 
d="M244 432q-54 0 -94 26l-12 -18h-63l88 427q19 92 5 115h98l-44 -213q52 54 116 54q52 0 82.5 -36.5t30.5 -104.5q0 -105 -62 -177.5t-145 -72.5zM239 499q52 0 90.5 51.5t38.5 128.5t-53 77q-23 0 -56 -24t-56 -58l-31 -151q27 -24 67 -24z" />
    <glyph glyph-name="c.superior" horiz-adv-x="349" 
d="M225 429q-64 0 -101.5 38.5t-37.5 111.5q0 110 58.5 177t143.5 67q24 0 44.5 -5.5t38 -13t26.5 -9.5l-38 -78q-23 37 -75 37q-46 0 -80.5 -50.5t-34.5 -118.5q0 -44 20.5 -65t51.5 -21q61 0 91 41l24 -79q-7 -1 -28.5 -10t-48 -15.5t-54.5 -6.5z" />
    <glyph glyph-name="d.superior" horiz-adv-x="420" 
d="M197 431q-52 0 -82.5 36t-30.5 105q0 105 62 177.5t145 72.5q39 0 85 -18l14 70q9 46 10 63t-7 45h99l-89 -442q-6 -31 -8 -44t-0.5 -29.5t8.5 -26.5h-87q-2 25 3 47h-3q-51 -56 -119 -56zM220 498q24 0 56 25t56 61l30 151q-30 20 -66 20q-52 0 -90.5 -51t-38.5 -129
q0 -37 14 -57t39 -20z" />
    <glyph glyph-name="e.superior" horiz-adv-x="385" 
d="M237 429q-69 0 -110 40t-41 112q0 107 58 174.5t145 67.5q60 0 97.5 -33.5t37.5 -83.5q0 -108 -161 -108h-95q-5 -47 17.5 -75.5t63.5 -28.5q72 0 104 37l26 -71q-86 -31 -142 -31zM176 654h74q95 0 95 50q0 23 -17 38.5t-47 15.5q-37 0 -66.5 -29.5t-38.5 -74.5z" />
    <glyph glyph-name="f.superior" horiz-adv-x="238" 
d="M93 440l61 305h-51l13 67h51l10 48q13 64 54.5 96t99.5 32q44 0 83 -18l-28 -68q-19 23 -60 23q-54 0 -68 -69l-10 -44h84l-13 -67h-85l-41 -209q-15 -77 -2 -96h-98z" />
    <glyph glyph-name="g.superior" horiz-adv-x="389" 
d="M189 278q-64 0 -134 34l36 79q37 -49 101 -49q87 0 111 94l12 50l-2 1q-49 -56 -113 -56q-54 0 -85 36t-31 105q0 105 62.5 177.5t145.5 72.5q46 0 90 -23l9 14h72l-78 -369q-37 -166 -196 -166zM219 499q27 0 59 23.5t55 59.5l32 149q-34 24 -71 24q-51 0 -89 -51.5
t-38 -128.5q0 -36 14 -56t38 -20z" />
    <glyph glyph-name="h.superior" horiz-adv-x="425" 
d="M78 440l87 434q9 46 10.5 62.5t-7.5 45.5h96l-41 -215h4q20 23 54 40t70 17q55 0 79 -40t12 -104l-28 -149q-9 -45 -9.5 -59t8.5 -32h-99l46 234q15 79 -42 79q-27 0 -58.5 -22t-52.5 -51l-29 -149q-12 -64 -7 -80q2 -6 6 -11h-99z" />
    <glyph glyph-name="i.superior" horiz-adv-x="198" 
d="M206 877q-44 0 -44 43q0 25 15.5 41t40.5 16q44 0 44 -43q0 -26 -15.5 -41.5t-40.5 -15.5zM77 440l53 264q1 4 3 16t3 16t2.5 14t1.5 14.5v12.5t-1 13t-2.5 11t-4.5 11h100l-57 -281q-14 -74 1 -91h-99z" />
    <glyph glyph-name="j.superior" horiz-adv-x="199" 
d="M203 876q-45 0 -45 43q0 25 16 41t41 16q44 0 44 -43q0 -26 -15.5 -41.5t-40.5 -15.5zM17 279q-15 0 -67 11l26 74q15 -17 39 -17q25 0 39 22t24 71l54 264q6 34 8 47t1 30.5t-7 30.5l100 -1l-75 -369q-17 -83 -49 -123t-93 -40z" />
    <glyph glyph-name="k.superior" horiz-adv-x="397" 
d="M78 440l87 434q17 81 3 108h99l-44 -222q49 63 124 63q43 0 72 -26t29 -69q0 -50 -32.5 -85t-83.5 -51l40 -78q28 -57 54 -74h-101l-76 156l2 31q47 2 81 25t34 61q0 21 -12 33t-32 12q-29 0 -62 -26t-56 -69l-27 -132q-6 -30 -7.5 -42.5t0 -26.5t8.5 -22h-100z" />
    <glyph glyph-name="l.superior" horiz-adv-x="198" 
d="M78 440l85 429q17 85 3 113h101l-89 -446q-14 -76 2 -96h-102z" />
    <glyph glyph-name="m.superior" horiz-adv-x="640" 
d="M76 440l53 269q9 44 10 61.5t-7 41.5h95l-10 -53h4q54 63 123 63q78 0 88 -70q63 70 133 70q59 0 82 -39t9 -105l-30 -146q0 -1 -2 -10t-2.5 -12t-2 -11t-1.5 -11.5t-0.5 -10.5t0 -11t1.5 -9.5t3 -9.5t5 -7h-100l46 228q17 83 -39 83q-44 0 -101 -65l-32 -155
q-12 -64 -7 -81q2 -5 5 -10h-98l47 228q9 43 0 63t-38 20q-46 0 -105 -66l-30 -154q-15 -72 -1 -91h-98z" />
    <glyph glyph-name="n.superior" horiz-adv-x="425" 
d="M78 440l52 265q15 82 2 107h93l-7 -46h3q22 23 56.5 40.5t69.5 17.5q55 0 80.5 -38.5t13.5 -101.5l-29 -148q-14 -78 0 -96h-99l46 234q17 79 -43 79q-25 0 -56.5 -21t-53.5 -50l-29 -146q-14 -77 -1 -96h-98z" />
    <glyph glyph-name="o.superior" horiz-adv-x="410" 
d="M233 429q-68 0 -107.5 40t-39.5 112q0 108 59.5 175t152.5 67q67 0 107 -39.5t40 -110.5q0 -108 -59.5 -176t-152.5 -68zM243 499q50 0 84.5 48.5t34.5 121.5q0 40 -19.5 62.5t-54.5 22.5q-50 0 -85 -48.5t-35 -121.5q0 -41 19.5 -63t55.5 -22z" />
    <glyph glyph-name="p.superior" horiz-adv-x="419" 
d="M43 288l85 418q18 84 5 106h93l-9 -44h4q50 55 113 55q54 0 85 -36t31 -105q0 -106 -61 -178t-146 -72q-48 0 -87 22l-15 -75q-14 -71 -1 -91h-97zM239 499q52 0 90 51.5t38 128.5t-53 77q-23 0 -56 -24t-57 -59l-30 -150q27 -24 68 -24z" />
    <glyph glyph-name="q.superior" horiz-adv-x="419" 
d="M273 288l43 199l-2 1q-50 -57 -114 -57q-54 0 -85 36t-31 105q0 105 62.5 177.5t142.5 72.5q43 0 89 -20l9 11h73l-85 -422q-1 -3 -2.5 -12.5t-2 -13t-2 -11.5t-2 -11.5t-1 -10t0 -10t0.5 -9t1 -9.5t2.5 -8t3.5 -8h-100zM220 498q26 0 58.5 26.5t55.5 65.5l29 143
q-30 22 -69 22q-52 0 -90 -51t-38 -129q0 -36 14.5 -56.5t39.5 -20.5z" />
    <glyph glyph-name="r.superior" horiz-adv-x="284" 
d="M78 440l53 265q17 80 1 107h93l-9 -58h4q19 31 49.5 50t60.5 19q24 0 42 -10l-27 -79q-12 16 -31 16q-26 0 -57.5 -27t-56.5 -75l-21 -107q-15 -81 3 -101h-104z" />
    <glyph glyph-name="s.superior" horiz-adv-x="328" 
d="M199 431q-30 0 -58.5 7t-52.5 16.5t-33 11.5l46 82q31 -54 103 -54q28 0 45.5 12.5t17.5 35.5q0 20 -13.5 31.5t-41.5 23.5l-18 8q-80 32 -80 101q0 52 37.5 85t96.5 33q32 0 76.5 -14.5t47.5 -15.5l-40 -76q-29 43 -87 43q-23 0 -38 -12t-15 -31q0 -30 45 -50l22 -10
q39 -18 62.5 -41.5t23.5 -63.5q0 -56 -39.5 -89t-106.5 -33z" />
    <glyph glyph-name="t.superior" horiz-adv-x="273" 
d="M206 431q-52 0 -78 34.5t-13 98.5l38 183h-55l13 65h57l14 70h79l-13 -70h95l-13 -65h-96l-38 -181q-14 -68 34 -68q39 0 55 20l16 -75q-8 0 -40 -6t-55 -6z" />
    <glyph glyph-name="u.superior" horiz-adv-x="421" 
d="M188 429q-53 0 -75.5 35.5t-9.5 102.5l28 150q6 30 8 43.5t0.5 28.5t-8.5 23h100l-46 -231q-17 -81 34 -81q27 0 58.5 24t54.5 58l27 135q15 77 1 95h98l-52 -266q-15 -79 1 -106h-95l7 53h-4q-54 -64 -127 -64z" />
    <glyph glyph-name="v.superior" horiz-adv-x="389" 
d="M164 440l-42 273q-14 81 -30 99h96l30 -210q8 -55 8 -100h4q11 28 56.5 114.5t60.5 119.5q25 54 13 76h97q-15 -46 -94.5 -198.5t-85.5 -173.5h-113z" />
    <glyph glyph-name="w.superior" horiz-adv-x="561" 
d="M143 440l-22 290q-6 64 -21 82h92l13 -196q5 -66 3 -115h5q13 42 75 174q50 107 50 137h113l14 -196q5 -63 2 -115h4q9 25 43 99t56 133t16 79h88q-13 -46 -82 -197t-77 -175h-114l-13 208q-2 27 -2 93h-3q-10 -37 -34 -92q-11 -24 -31.5 -68.5t-35 -78t-24.5 -62.5h-115
z" />
    <glyph glyph-name="x.superior" horiz-adv-x="368" 
d="M335 510q25 -55 43 -70h-97l-36 86q-10 23 -21 61h-3q-26 -44 -35 -55l-37 -45q-23 -28 -23 -47h-98l166 203l-44 101q-20 51 -39 68h94l32 -75q12 -33 21 -63h2q27 46 37 59l26 33q24 26 22 46h98l-155 -193z" />
    <glyph glyph-name="y.superior" horiz-adv-x="383" 
d="M86 288q-15 0 -34.5 2.5t-27.5 1.5l28 83q15 -20 42 -20q50 0 84 72l6 11l-54 282q-16 75 -34 92h95l34 -207q9 -53 11 -88h4l42 88l62 128q29 63 21 79h94l-205 -400q-64 -124 -168 -124z" />
    <glyph glyph-name="z.superior" horiz-adv-x="338" 
d="M393 812l-6 -50l-226 -258h107q55 0 80 15l-15 -79h-284l7 51l223 257h-91q-49 0 -71 -14l15 78h261z" />
    <glyph glyph-name="L_A" horiz-adv-x="751" 
d="M672 -7q-36 7 -117 7h-538q23 35 41 121l81 413q15 89 6 122h124q-24 -33 -40 -122l-90 -457h431q86 0 122 20zM243 189q36 37 88 135l113 215q42 76 49 117h133q-8 -35 4 -117l31 -215q15 -106 32 -135h-113q16 57 2 114l-3 12h-176l-6 -12q-37 -79 -40 -114h-114z
M436 381h136l-8 63q-14 126 -13 153h-8q-22 -57 -73 -153z" />
    <glyph glyph-name="L_E" horiz-adv-x="660" 
d="M586 182q-37 7 -138 7h-177q16 25 39 140l36 187q22 116 17 140h168q104 0 140 6l-17 -85q-23 10 -137 10h-77l-24 -122h46q110 0 139 11l-16 -87q-26 11 -135 11h-46l-28 -142h86q114 0 141 10zM580 -7q-35 7 -117 7h-446q23 35 41 121l81 413q15 89 6 122h124
q-24 -33 -40 -122l-90 -457h339q86 0 122 20z" />
    <glyph glyph-name="L_I" horiz-adv-x="493" 
d="M413 -7q-35 7 -117 7h-279q23 35 41 121l81 413q15 89 6 122h124q-24 -33 -40 -122l-90 -457h172q86 0 122 20zM294 189q15 26 38 140l36 187q22 116 17 140h102q-20 -33 -39 -140l-37 -187q-22 -114 -15 -140h-102z" />
    <glyph glyph-name="L_L" horiz-adv-x="655" 
d="M580 -7q-35 7 -117 7h-446q23 35 41 121l81 413q15 89 6 122h124q-24 -33 -40 -122l-90 -457h339q86 0 122 20zM592 182q-42 7 -152 7h-170q19 31 42 154l31 159q25 124 19 154h104q-21 -33 -43 -154l-47 -244h78q122 0 154 13z" />
    <glyph glyph-name="L_O" horiz-adv-x="744" 
d="M473 178q-79 0 -124 40t-45 126q0 142 73.5 232t189.5 90q168 0 168 -163q0 -143 -73.5 -234t-188.5 -91zM665 -7q-36 7 -117 7h-531q23 35 41 121l81 413q15 89 6 122h124q-24 -33 -40 -122l-90 -457h424q86 0 122 20zM486 250q74 0 120.5 67.5t46.5 174.5
q0 102 -100 102q-74 0 -119.5 -66.5t-45.5 -174.5q0 -103 98 -103z" />
    <glyph glyph-name="L_U" horiz-adv-x="749" 
d="M669 -7q-35 7 -117 7h-535q23 35 41 121l81 413q15 89 6 122h124q-24 -33 -40 -122l-90 -457h428q84 0 121 16zM483 178q-186 0 -146 206l25 131q22 112 17 141h102q-20 -36 -39 -141l-26 -133q-13 -73 9 -103.5t73 -30.5q110 0 135 134l26 133q21 111 16 141h98
q-17 -28 -39 -141l-25 -131q-41 -206 -226 -206z" />
    <glyph glyph-name="R_A" horiz-adv-x="1075" 
d="M17 0q25 37 41 121l81 413q15 88 6 122h214q98 0 155 -31t57 -110q0 -88 -51 -154.5t-134 -85.5q68 -121 136 -157t205 -36h176q76 0 114 23l-20 -104l-311 -1q-154 0 -237.5 55t-163.5 208h-109l-28 -142q-17 -88 -8 -121h-123zM552 189q33 31 89 135l113 215
q42 80 49 117h133q-8 -34 3 -117l32 -215q15 -106 32 -135h-113q16 57 2 114l-3 12h-176l-6 -12q-37 -75 -41 -114h-114zM746 381h136l-8 63q-14 114 -13 153h-8q-24 -59 -73 -153zM190 338h104q88 0 136.5 41t48.5 116q0 84 -135 84h-107z" />
    <glyph glyph-name="R_E" horiz-adv-x="976" 
d="M905 182q-38 7 -138 7h-177q16 25 39 140l36 187q22 110 17 140h167q105 0 141 6l-17 -85q-23 10 -137 10h-77l-24 -122h46q110 0 139 11l-16 -87q-26 11 -136 11h-46l-27 -142h86q114 0 141 10zM17 0q25 37 41 121l81 413q15 88 6 122h214q98 0 155 -31t57 -110
q0 -88 -51 -154.5t-134 -85.5q69 -123 132.5 -158t208.5 -35h76q77 0 115 23l-20 -104l-212 -1q-158 0 -240.5 54.5t-160.5 208.5h-109l-28 -142q-17 -88 -8 -121h-123zM190 338h104q88 0 136.5 41t48.5 116q0 84 -135 84h-107z" />
    <glyph glyph-name="R_I" horiz-adv-x="800" 
d="M17 0q25 37 41 121l81 413q15 88 6 122h214q98 0 155 -31t57 -110q0 -88 -51 -154.5t-134 -85.5q54 -107 105 -148.5t125 -41.5h56q40 0 71 20l-20 -105h-129q-105 0 -175.5 61.5t-133.5 201.5h-109l-28 -142q-17 -88 -8 -121h-123zM600 189q15 26 38 140l36 187
q22 116 17 140h102q-18 -30 -39 -140l-36 -187q-23 -110 -16 -140h-102zM190 338h104q88 0 136.5 41t48.5 116q0 84 -135 84h-107z" />
    <glyph glyph-name="R_O" horiz-adv-x="1060" 
d="M797 177q-78 0 -123 40.5t-45 126.5q0 143 73 232.5t190 89.5q168 0 168 -163q0 -143 -73.5 -234.5t-189.5 -91.5zM17 0q25 37 41 121l81 413q15 88 6 122h214q98 0 155 -31t57 -110q0 -88 -51 -154.5t-134 -85.5q68 -121 136 -157t205 -36h161q77 0 115 23l-20 -104
l-297 -1q-154 0 -237.5 55t-163.5 208h-109l-28 -142q-17 -88 -8 -121h-123zM811 249q74 0 120.5 68t46.5 175q0 102 -100 102q-74 0 -120 -66.5t-46 -174.5q0 -104 99 -104zM190 338h104q88 0 136.5 41t48.5 116q0 84 -135 84h-107z" />
    <glyph glyph-name="R_R" horiz-adv-x="1034" 
d="M17 0q25 37 41 121l81 413q15 88 6 122h214q98 0 155 -31t57 -110q0 -88 -51 -154.5t-134 -85.5q69 -123 132.5 -158t208.5 -35h140q77 0 115 23l-21 -104l-275 -1q-158 0 -240.5 54.5t-160.5 208.5h-109l-28 -142q-17 -88 -8 -121h-123zM589 189q19 28 41 142l35 183
q22 117 16 142h175q158 0 158 -106q0 -59 -37 -105.5t-99 -63.5l29 -58q12 -23 24 -49l18 -39t13 -25.5t13 -20.5h-114q5 40 -24 102l-37 79h-84l-7 -41q-2 -10 -5 -27q-17 -93 -12 -113h-103zM729 434h75q61 0 96 25.5t35 70.5q0 61 -102 61h-74zM190 338h104
q88 0 136.5 41t48.5 116q0 84 -135 84h-107z" />
    <glyph glyph-name="R_U" horiz-adv-x="1033" 
d="M17 0q25 37 41 121l81 413q15 88 6 122h214q98 0 155 -31t57 -110q0 -88 -51 -154.5t-134 -85.5q69 -123 132.5 -158t208.5 -35h134q76 0 114 23l-20 -104l-269 -1q-158 0 -240.5 54.5t-160.5 208.5h-109l-28 -142q-17 -88 -8 -121h-123zM791 178q-186 0 -146 206l25 131
q22 113 16 141h102q-17 -27 -39 -141l-25 -133q-14 -73 8 -103.5t74 -30.5q107 0 132 134l25 133q22 113 17 141h101q-19 -31 -40 -141l-25 -131q-22 -110 -78.5 -158t-146.5 -48zM190 338h104q88 0 136.5 41t48.5 116q0 84 -135 84h-107z" />
    <glyph glyph-name="c_t" horiz-adv-x="797" 
d="M222 -12q-86 0 -137 43.5t-51 134.5q0 146 80 239.5t206 93.5h8q-17 26 -17 59q0 87 84.5 150t203.5 63q93 0 149 -37t56 -98q0 -44 -26 -83.5t-73 -65.5h119l-14 -77q-37 8 -129 8l-51 -265q-9 -45 2 -69t53 -24q34 0 59 24l1 -83q-8 -1 -27.5 -5t-36 -6t-31.5 -2
q-143 0 -111 163l52 267h-71l11 57q82 11 137.5 51t55.5 95q0 41 -38 62.5t-104 21.5q-84 0 -143 -45.5t-59 -110.5q0 -40 23 -65q14 -4 31.5 -12t23.5 -10l-58 -90q-31 49 -92 49q-79 0 -129.5 -67.5t-50.5 -171.5q0 -116 111 -116q73 0 126 52l23 -89q-116 -41 -166 -41z
" />
    <glyph glyph-name="f_b" horiz-adv-x="843" 
d="M660 499q72 0 110.5 -44.5t38.5 -123.5q0 -140 -73.5 -241.5t-176.5 -101.5q-85 0 -131 46h-8l-3 -34h-93q21 63 32 120l91 471q4 18 5 27q-9 14 -34.5 22t-50.5 8q-58 0 -87 -29.5t-40 -90.5l-8 -41h103l-16 -84q-31 8 -102 8l-59 -310q-17 -81 -3 -101h-120
q17 21 34 101l59 310h-66l15 76h66l8 41q38 196 230 196q44 0 83 -13h107q-19 -35 -35 -120l-30 -156q25 26 68.5 45t85.5 19zM559 66q65 0 111 73.5t46 177.5t-87 104q-33 0 -73 -21t-67 -49l-42 -220q17 -27 47.5 -46t64.5 -19z" />
    <glyph glyph-name="f_f_b" horiz-adv-x="1117" 
d="M935 499q72 0 110.5 -44.5t38.5 -123.5q0 -140 -73.5 -241.5t-176.5 -101.5q-84 0 -132 46h-8l-2 -34h-93q19 54 32 120l91 471q4 18 5 27q-9 14 -34.5 22t-50.5 8q-58 0 -87 -29.5t-40 -90.5l-8 -41h103l-16 -84q-31 8 -102 8l-60 -310q-15 -82 -3 -101h-119
q18 22 33 101l60 310h-186l-59 -310q-17 -81 -3 -101h-120q17 21 34 101l59 310h-66l15 76h66l11 55q35 181 211 181q22 0 47 -3.5t35 -3.5l-33 -89q-22 20 -63 20q-44 0 -70.5 -24t-37.5 -81l-11 -55h186l8 41q38 196 230 196q42 0 83 -13h107q-19 -35 -35 -120l-30 -156
q25 26 68.5 45t85.5 19zM834 66q65 0 111 73.5t46 177.5t-87 104q-34 0 -74 -21t-66 -49l-42 -220q17 -27 47.5 -46t64.5 -19z" />
    <glyph glyph-name="f_f_h" horiz-adv-x="1106" 
d="M936 499q76 0 108.5 -45.5t15.5 -133.5l-39 -200q-16 -94 -9 -120h-115q19 33 35 120l39 198q11 57 -6 79.5t-57 22.5q-34 0 -75.5 -23.5t-75.5 -64.5l-42 -212q-16 -93 -11 -120h-115q20 28 37 120l91 471q4 22 5 27q-9 14 -34.5 22t-50.5 8q-58 0 -86.5 -29.5
t-40.5 -90.5l-8 -41h103l-16 -84q-31 8 -101 8l-60 -310q-17 -81 -3 -101h-120q17 21 34 101l60 310h-182l-59 -310q-17 -81 -3 -101h-120q17 21 34 101l59 310h-66l15 76h66l11 55q35 181 211 181q22 0 47 -3.5t35 -3.5l-33 -89q-22 20 -63 20q-44 0 -70.5 -24t-37.5 -81
l-11 -55h181l8 41q38 196 230 196q44 0 83 -13h108q-18 -32 -35 -117l-21 -106q-10 -51 -20 -69l7 -1q26 34 71.5 57.5t91.5 23.5z" />
    <glyph glyph-name="f_f_j" horiz-adv-x="799" 
d="M792 487q-16 -41 -31 -119l-78 -401q-31 -166 -175 -166q-22 0 -51.5 3.5t-31.5 3.5l35 91q20 -21 60 -21q33 0 49.5 22.5t24.5 65.5l78 402q6 26 8 43h-187l-60 -310q-15 -82 -3 -101h-119q18 22 33 101l60 310h-187l-59 -310q-17 -81 -3 -101h-120q17 21 34 101l59 310
h-66l15 76h66l11 55q35 181 211 181q22 0 47 -3.5t35 -3.5l-33 -89q-22 20 -63 20q-44 0 -70.5 -24t-37.5 -81l-11 -55h187l7 36q38 201 244 201q39 0 81.5 -10.5t60.5 -21.5l-35 -87q-8 16 -47.5 29.5t-73.5 13.5q-62 0 -95 -27.5t-46 -98.5l-7 -35h284z" />
    <glyph glyph-name="f_f_k" horiz-adv-x="1085" 
d="M883 285l89 -178q43 -83 67 -107h-137q3 37 -21 88l-64 133l-98 -96l-1 -7q-2 -13 -5 -33t-4.5 -29t-2.5 -21t-0.5 -20t1.5 -15h-114q20 31 37 120l91 471q1 4 2.5 13.5t2.5 14.5q-19 29 -85 29q-58 0 -87 -29.5t-40 -91.5l-8 -40h103l-16 -84q-31 8 -102 8l-59 -310
q-17 -81 -4 -101h-119q17 21 34 101l59 310h-26v-1h-159l-59 -309q-17 -81 -3 -101h-120q17 21 34 101l59 309h-66l15 77h66l11 55q35 181 211 181q22 0 47 -3.5t35 -3.5l-33 -89q-22 20 -63 20q-44 0 -70.5 -24t-37.5 -81l-11 -55h185l8 41q38 196 230 196q42 0 83 -13h107
q-20 -37 -36 -120l-58 -302q-7 -36 -19 -58h8l176 178q47 47 55 78h133q-43 -30 -129 -113z" />
    <glyph glyph-name="f_f_t" horiz-adv-x="901" 
d="M767 410l-52 -255q-10 -49 1.5 -69.5t44.5 -20.5q46 0 68 26l20 -89q-8 0 -47 -7t-67 -7q-65 0 -96 46t-14 124l52 252h-184l-60 -309q-15 -82 -3 -101h-119q18 22 33 101l60 309h-187l-59 -309q-17 -81 -3 -101h-120q17 21 34 101l59 309h-66l15 77h66l11 55
q35 181 211 181q22 0 47 -3.5t35 -3.5l-33 -89q-22 20 -63 20q-44 0 -70.5 -24t-37.5 -81l-11 -55h187l11 55q35 182 216 182q21 0 48 -3.5t38 -3.5l-26 -89q-20 20 -74 20q-47 0 -74.5 -24t-38.5 -82l-11 -55h188l19 86h86l-17 -86h122l-15 -77h-124z" />
    <glyph glyph-name="f_f_y" horiz-adv-x="996" 
d="M928 487h109l-273 -527q-36 -71 -90.5 -115.5t-117.5 -44.5q-14 0 -37.5 3t-33.5 1l29 94q16 -19 48 -19q66 0 117 103l9 17l-67 386q-1 4 -2.5 12.5t-2.5 12.5h-120l-60 -309q-15 -82 -3 -101h-119q18 22 33 101l60 309h-190l-59 -309q-17 -81 -3 -101h-120
q17 21 34 101l59 309h-66l15 77h66l11 55q35 181 211 181q22 0 47 -3.5t35 -3.5l-33 -89q-22 20 -63 20q-44 0 -70.5 -24t-37.5 -81l-11 -55h190l10 55q35 182 217 182q22 0 49.5 -3.5t37.5 -3.5l-26 -89q-20 20 -75 20q-47 0 -74.5 -24t-39.5 -82l-10 -55h181l42 -273
q12 -71 13 -124h4l61 124l87 174q39 77 29 99z" />
    <glyph glyph-name="f_h" horiz-adv-x="836" 
d="M666 499q76 0 108.5 -45.5t15.5 -133.5l-39 -200q-16 -94 -9 -120h-116q19 33 36 120l39 198q11 57 -6 79.5t-57 22.5q-34 0 -75.5 -23.5t-76.5 -64.5l-41 -212q-16 -93 -11 -120h-115q20 31 37 120l91 471q1 4 2.5 13.5t2.5 14.5q-20 29 -85 29q-58 0 -87 -29.5
t-40 -90.5l-8 -41h103l-16 -84q-31 8 -102 8l-59 -310q-17 -81 -3 -101h-120q17 21 34 101l59 310h-66l15 76h66l8 41q38 196 230 196q42 0 83 -13h107q-17 -32 -34 -117l-21 -106q-12 -52 -21 -69l8 -1q26 34 71.5 57.5t91.5 23.5z" />
    <glyph glyph-name="f_j" horiz-adv-x="523" 
d="M517 487q-14 -33 -32 -119l-78 -401q-31 -166 -175 -166q-22 0 -51.5 3.5t-31.5 3.5l36 91q18 -21 60 -21q33 0 49 22.5t24 65.5l78 402q6 26 8 43h-187l-59 -310q-17 -81 -4 -101h-119q17 21 34 101l59 310h-66l15 76h66l7 36q38 201 244 201q40 0 82.5 -10.5
t59.5 -21.5l-35 -87q-8 16 -47.5 29.5t-73.5 13.5q-62 0 -95 -27.5t-46 -98.5l-7 -35h285z" />
    <glyph glyph-name="f_k" horiz-adv-x="811" 
d="M609 285l89 -178q43 -83 67 -107h-137q3 37 -21 88l-64 133l-98 -96l-1 -7q-2 -13 -5 -33t-4.5 -29t-2.5 -21t-0.5 -20t1.5 -15h-114q20 31 37 120l91 471q1 4 2.5 13.5t2.5 14.5q-19 29 -85 29q-58 0 -87 -29.5t-40 -91.5l-8 -40h103l-16 -84q-31 8 -102 8l-59 -310
q-17 -81 -3 -101h-120q17 21 34 101l59 310h-66l15 76h66l8 41q38 196 230 196q42 0 83 -13h107q-20 -37 -36 -120l-58 -302q-7 -36 -19 -58h8l176 178q47 47 55 78h133q-45 -32 -128 -113z" />
    <glyph glyph-name="f_t" horiz-adv-x="626" 
d="M491 410l-52 -255q-10 -49 2 -69.5t45 -20.5q45 0 67 26l20 -89q-8 0 -47 -7t-67 -7q-65 0 -95.5 46t-14.5 124l52 252h-184l-59 -309q-17 -81 -3 -101h-120q17 21 34 101l59 309h-66l15 77h66l11 55q35 182 216 182q22 0 49 -3.5t37 -3.5l-25 -89q-22 20 -75 20
q-47 0 -74.5 -24t-38.5 -82l-11 -55h188l19 86h86l-17 -86h122l-15 -77h-124z" />
    <glyph glyph-name="f_y" horiz-adv-x="718" 
d="M650 487h109l-273 -527q-37 -71 -91 -115.5t-118 -44.5q-13 0 -36.5 3t-34.5 1l29 94q18 -19 49 -19q66 0 117 103l8 17l-67 386q-1 5 -2.5 13t-1.5 12h-121l-59 -309q-17 -81 -3 -101h-120q17 21 34 101l59 309h-66l15 77h66l11 55q35 182 216 182q22 0 49.5 -3.5
t37.5 -3.5l-25 -89q-22 20 -75 20q-48 0 -75.5 -24t-38.5 -82l-11 -55h182l41 -273q12 -71 13 -124h4l61 124l88 174q38 77 29 99z" />
    <glyph glyph-name="s_p" horiz-adv-x="972" 
d="M411 -198q21 41 37 119l86 446q15 91 10 120q60 19 98.5 54.5t38.5 79.5q0 40 -37 61.5t-102 21.5q-93 0 -153.5 -42t-60.5 -105q0 -45 22 -69q13 -4 38.5 -12.5t35.5 -10.5l-58 -92q-12 22 -39.5 37t-61.5 15q-44 0 -71.5 -20t-27.5 -54q0 -43 53 -60l47 -14
q109 -35 109 -116q0 -76 -59 -124.5t-151 -48.5q-33 0 -65 7t-63 17t-43 13l56 102q16 -28 51.5 -46.5t79.5 -18.5q47 0 77 21.5t30 54.5q0 42 -67 61l-39 12q-104 31 -104 117q0 76 55.5 123.5t144.5 47.5h2q-22 24 -22 71q0 82 83.5 141.5t214.5 59.5q93 0 149 -35t56 -96
q0 -47 -32.5 -91t-87.5 -70l-12 -43h8q26 25 68.5 44t84.5 19q73 0 111.5 -44t38.5 -124q0 -138 -75 -240.5t-176 -102.5q-85 0 -131 44l-21 -111q-14 -83 -10 -119h-116zM690 66q64 0 110.5 74.5t46.5 176.5q0 104 -87 104q-34 0 -74.5 -21.5t-65.5 -50.5l-42 -219
q16 -27 46.5 -45.5t65.5 -18.5z" />
    <glyph glyph-name="s_t" horiz-adv-x="767" 
d="M165 -12q-33 0 -65 7t-63 17t-43 13l56 102q16 -28 51.5 -46.5t79.5 -18.5q47 0 77 21.5t30 54.5q0 42 -67 61l-39 12q-104 31 -104 117q0 76 55.5 123.5t144.5 47.5q13 0 21 -1q-23 33 -23 74q0 80 87.5 139.5t208.5 59.5q93 0 149.5 -35t56.5 -96q0 -45 -29 -86
t-75 -67h120l-14 -77q-37 8 -129 8l-51 -265q-9 -47 3.5 -70t51.5 -23q34 0 59 24l1 -83q-8 -1 -27.5 -5t-36 -6t-31.5 -2q-144 0 -110 163l52 267h-72l11 57q86 11 141.5 50.5t55.5 94.5q0 41 -36.5 62.5t-101.5 21.5q-94 0 -154.5 -41t-60.5 -100q0 -58 34 -84
q43 -13 45 -14l-58 -92q-12 22 -39.5 37t-61.5 15q-44 0 -71.5 -20t-27.5 -54q0 -43 53 -60l47 -14q109 -35 109 -116q0 -76 -59 -124.5t-151 -48.5z" />
    <glyph glyph-name="a.sc" horiz-adv-x="532" 
d="M-35 0q38 29 103 151l126 239q47 87 54 129h145q-10 -37 4 -129l34 -239q17 -118 41 -151h-134q19 44 6 125l-3 17h-193l-8 -17q-46 -87 -40 -125h-135zM183 209h150l-8 71q-16 134 -15 172h-8q-22 -56 -82 -172z" />
    <glyph glyph-name="aacute.sc" horiz-adv-x="532" 
d="M320 584l-34 43q96 54 176 166l48 -58q-83 -102 -190 -151zM-35 0q38 29 103 151l126 239q47 87 54 129h145q-10 -37 4 -129l34 -239q17 -118 41 -151h-134q19 44 6 125l-3 17h-193l-8 -17q-46 -87 -40 -125h-135zM183 209h150l-8 71q-16 134 -15 172h-8
q-22 -56 -82 -172z" />
    <glyph glyph-name="abreve.sc" horiz-adv-x="532" 
d="M336 581q-65 0 -91.5 46.5t-9.5 112.5h48q-8 -44 6.5 -72.5t53.5 -28.5q40 0 65.5 29t33.5 72h49q-23 -159 -155 -159zM-35 0q38 29 103 151l126 239q47 87 54 129h145q-10 -37 4 -129l34 -239q17 -118 41 -151h-134q19 44 6 125l-3 17h-193l-8 -17q-46 -87 -40 -125
h-135zM183 209h150l-8 71q-16 134 -15 172h-8q-22 -56 -82 -172z" />
    <glyph glyph-name="acircumflex.sc" horiz-adv-x="532" 
d="M210 578l-30 34q82 54 141 139h86q26 -84 87 -139l-42 -34q-70 46 -97 112h-4q-55 -67 -141 -112zM-35 0q38 29 103 151l126 239q47 87 54 129h145q-10 -37 4 -129l34 -239q17 -118 41 -151h-134q19 44 6 125l-3 17h-193l-8 -17q-46 -87 -40 -125h-135zM183 209h150
l-8 71q-16 134 -15 172h-8q-22 -56 -82 -172z" />
    <glyph glyph-name="adieresis.sc" horiz-adv-x="532" 
d="M239 598q-19 0 -30.5 11.5t-11.5 29.5q0 25 19 43.5t44 18.5q19 0 30 -11.5t11 -29.5q0 -24 -18.5 -43t-43.5 -19zM433 598q-18 0 -29.5 11.5t-11.5 29.5q0 24 18.5 43t43.5 19q19 0 30.5 -11.5t11.5 -29.5q0 -25 -19 -43.5t-44 -18.5zM-35 0q38 29 103 151l126 239
q47 87 54 129h145q-10 -37 4 -129l34 -239q17 -118 41 -151h-134q19 44 6 125l-3 17h-193l-8 -17q-46 -87 -40 -125h-135zM183 209h150l-8 71q-16 134 -15 172h-8q-22 -56 -82 -172z" />
    <glyph glyph-name="agrave.sc" horiz-adv-x="532" 
d="M331 584q-88 50 -130 151l62 53q26 -104 105 -167zM-35 0q38 29 103 151l126 239q47 87 54 129h145q-10 -37 4 -129l34 -239q17 -118 41 -151h-134q19 44 6 125l-3 17h-193l-8 -17q-46 -87 -40 -125h-135zM183 209h150l-8 71q-16 134 -15 172h-8q-22 -56 -82 -172z" />
    <glyph glyph-name="amacron.sc" horiz-adv-x="532" 
d="M206 612l12 59h266l-12 -59h-266zM-35 0q38 29 103 151l126 239q47 87 54 129h145q-10 -37 4 -129l34 -239q17 -118 41 -151h-134q19 44 6 125l-3 17h-193l-8 -17q-46 -87 -40 -125h-135zM183 209h150l-8 71q-16 134 -15 172h-8q-22 -56 -82 -172z" />
    <glyph glyph-name="aogonek.sc" horiz-adv-x="532" 
d="M468 0q-47 -21 -75.5 -52.5t-28.5 -61.5q0 -27 30 -27q20 0 36 19l14 -48q-29 -25 -74 -25q-33 0 -53 15.5t-20 45.5q0 40 30 77t78 57h-67q19 44 6 125l-3 17h-193l-8 -17q-46 -87 -40 -125h-135q38 29 103 151l126 239q47 87 54 129h145q-10 -37 4 -129l34 -239
q17 -118 41 -151h-4zM183 209h150l-8 71q-16 134 -15 172h-8q-22 -56 -82 -172z" />
    <glyph glyph-name="aring.sc" horiz-adv-x="532" 
d="M329 565q-44 0 -69 22t-25 57q0 49 38.5 83.5t93.5 34.5q43 0 68.5 -22t25.5 -56q0 -49 -38.5 -84t-93.5 -35zM336 608q28 0 47 20t19 50q0 19 -12 30t-30 11q-29 0 -47.5 -19.5t-18.5 -50.5q0 -19 12 -30t30 -11zM-35 0q38 29 103 151l126 239q47 87 54 129h145
q-10 -37 4 -129l34 -239q17 -118 41 -151h-134q19 44 6 125l-3 17h-193l-8 -17q-46 -87 -40 -125h-135zM183 209h150l-8 71q-16 134 -15 172h-8q-22 -56 -82 -172z" />
    <glyph glyph-name="atilde.sc" horiz-adv-x="532" 
d="M395 593q-24 0 -44 11.5t-31.5 25t-25.5 25t-27 11.5q-22 0 -29 -14t-5 -49l-66 3q20 123 111 123q30 0 53.5 -18.5t41.5 -37t34 -18.5q39 0 33 64l67 -4q-20 -122 -112 -122zM-35 0q38 29 103 151l126 239q47 87 54 129h145q-10 -37 4 -129l34 -239q17 -118 41 -151
h-134q19 44 6 125l-3 17h-193l-8 -17q-46 -87 -40 -125h-135zM183 209h150l-8 71q-16 134 -15 172h-8q-22 -56 -82 -172z" />
    <glyph glyph-name="ae.sc" horiz-adv-x="726" 
d="M643 -7q-44 7 -139 7h-203q24 32 43 128l2 9h-169l-17 -24q-62 -81 -59 -113h-138q48 35 135 153l197 266q32 44 42.5 62.5t11.5 37.5h254q87 0 134 7l-17 -90q-33 12 -130 12h-93l-27 -144h83q70 0 106 12l-17 -91q-31 12 -103 12h-83l-32 -166h94q106 0 142 12z
M225 204h134l48 248h-8q-34 -57 -108 -157z" />
    <glyph glyph-name="b.sc" horiz-adv-x="503" 
d="M12 0q16 18 25 48.5t24 107.5l41 207q14 71 16.5 103t-5.5 53h183q175 0 175 -115q0 -52 -29.5 -87.5t-80.5 -41.5l-1 -4q93 -19 93 -108q0 -163 -245 -163h-196zM180 307h66q70 0 104 20t34 66q0 29 -25.5 40.5t-83.5 11.5h-69zM135 74h76q82 0 119 20.5t37 65.5
q0 75 -124 75h-77z" />
    <glyph glyph-name="c.sc" horiz-adv-x="449" 
d="M226 -12q-193 0 -193 199q0 151 67.5 247.5t191.5 96.5q30 0 61.5 -7.5t59 -17t34.5 -11.5l-45 -97q-9 22 -41.5 38.5t-72.5 16.5q-78 0 -120 -73t-42 -179q0 -73 27.5 -104t80.5 -31q83 0 122 51l35 -91q-2 0 -62 -19t-103 -19z" />
    <glyph glyph-name="cacute.sc" horiz-adv-x="449" 
d="M313 584l-34 43q96 54 176 166l48 -58q-83 -102 -190 -151zM226 -12q-193 0 -193 199q0 151 67.5 247.5t191.5 96.5q30 0 61.5 -7.5t59 -17t34.5 -11.5l-45 -97q-9 22 -41.5 38.5t-72.5 16.5q-78 0 -120 -73t-42 -179q0 -73 27.5 -104t80.5 -31q83 0 122 51l35 -91
q-2 0 -62 -19t-103 -19z" />
    <glyph glyph-name="ccaron.sc" horiz-adv-x="449" 
d="M283 584q-26 85 -87 140l43 33q70 -47 96 -112h4q59 70 141 112l29 -34q-85 -58 -140 -139h-86zM226 -12q-193 0 -193 199q0 151 67.5 247.5t191.5 96.5q30 0 61.5 -7.5t59 -17t34.5 -11.5l-45 -97q-9 22 -41.5 38.5t-72.5 16.5q-78 0 -120 -73t-42 -179q0 -73 27.5 -104
t80.5 -31q83 0 122 51l35 -91q-2 0 -62 -19t-103 -19z" />
    <glyph glyph-name="ccedilla.sc" horiz-adv-x="449" 
d="M288 453q-78 0 -120 -73t-42 -179q0 -73 27.5 -104t80.5 -31q83 0 122 51l35 -91q-8 -1 -56.5 -17.5t-84.5 -19.5l-14 -40q76 -13 76 -68q0 -51 -50 -79.5t-137 -28.5l2 51q53 -7 85 6.5t32 42.5q0 34 -68 39l34 76q-177 8 -177 199q0 151 67.5 247.5t191.5 96.5
q30 0 61.5 -7.5t59 -17t34.5 -11.5l-45 -97q-9 22 -41.5 38.5t-72.5 16.5z" />
    <glyph glyph-name="cdotaccent.sc" horiz-adv-x="449" 
d="M329 597q-48 0 -48 40q0 31 19.5 51t49.5 20q48 0 48 -41q0 -31 -19 -50.5t-50 -19.5zM226 -12q-193 0 -193 199q0 151 67.5 247.5t191.5 96.5q30 0 61.5 -7.5t59 -17t34.5 -11.5l-45 -97q-9 22 -41.5 38.5t-72.5 16.5q-78 0 -120 -73t-42 -179q0 -73 27.5 -104t80.5 -31
q83 0 122 51l35 -91q-2 0 -62 -19t-103 -19z" />
    <glyph glyph-name="d.sc" horiz-adv-x="514" 
d="M12 0q14 19 23.5 50t24.5 106l40 207q25 127 13 156h144q231 0 231 -184q0 -168 -84 -251.5t-243 -83.5h-149zM133 78h41q108 0 164.5 58.5t56.5 186.5q0 67 -38 92.5t-110 25.5h-41z" />
    <glyph glyph-name="eth.sc" horiz-adv-x="517" 
d="M260 519q231 0 231 -184q0 -168 -84.5 -251.5t-243.5 -83.5h-148q14 19 23 49t24 107l15 74h-55l12 70h57l12 63q25 127 13 156h144zM177 78q108 0 164.5 58.5t56.5 186.5q0 67 -38 92.5t-110 25.5h-41l-28 -141h102l-12 -70h-104l-31 -152h41z" />
    <glyph glyph-name="dcaron.sc" horiz-adv-x="514" 
d="M255 584q-26 85 -87 140l43 33q70 -47 96 -112h4q59 70 141 112l29 -34q-85 -58 -140 -139h-86zM12 0q14 19 23.5 50t24.5 106l40 207q25 127 13 156h144q231 0 231 -184q0 -168 -84 -251.5t-243 -83.5h-149zM133 78h41q108 0 164.5 58.5t56.5 186.5q0 67 -38 92.5
t-110 25.5h-41z" />
    <glyph glyph-name="dcroat.sc" horiz-adv-x="517" 
d="M260 519q231 0 231 -184q0 -168 -84.5 -251.5t-243.5 -83.5h-148q14 19 23 49t24 107l15 74h-55l12 70h57l12 63q25 127 13 156h144zM177 78q108 0 164.5 58.5t56.5 186.5q0 67 -38 92.5t-110 25.5h-41l-28 -141h102l-12 -70h-104l-31 -152h41z" />
    <glyph glyph-name="e.sc" horiz-adv-x="450" 
d="M368 -7q-44 7 -154 7h-202q14 19 23 48.5t24 106.5l41 208q25 127 13 156h192q111 0 156 7l-19 -100q-38 16 -151 16h-86l-26 -134h51q123 0 155 12l-22 -105q-30 17 -149 17h-50l-30 -154h95q125 0 157 12z" />
    <glyph glyph-name="eacute.sc" horiz-adv-x="450" 
d="M279 584l-34 43q96 54 176 166l48 -58q-83 -102 -190 -151zM368 -7q-44 7 -154 7h-202q14 19 23 48.5t24 106.5l41 208q25 127 13 156h192q111 0 156 7l-19 -100q-38 16 -151 16h-86l-26 -134h51q123 0 155 12l-22 -105q-30 17 -149 17h-50l-30 -154h95q125 0 157 12z
" />
    <glyph glyph-name="ecaron.sc" horiz-adv-x="450" 
d="M249 584q-26 85 -87 140l43 33q70 -47 96 -112h4q59 70 141 112l29 -34q-85 -58 -140 -139h-86zM368 -7q-44 7 -154 7h-202q14 19 23 48.5t24 106.5l41 208q25 127 13 156h192q111 0 156 7l-19 -100q-38 16 -151 16h-86l-26 -134h51q123 0 155 12l-22 -105
q-30 17 -149 17h-50l-30 -154h95q125 0 157 12z" />
    <glyph glyph-name="ecircumflex.sc" horiz-adv-x="450" 
d="M169 578l-30 34q82 54 141 139h86q26 -84 87 -139l-42 -34q-70 46 -97 112h-4q-55 -67 -141 -112zM368 -7q-44 7 -154 7h-202q14 19 23 48.5t24 106.5l41 208q25 127 13 156h192q111 0 156 7l-19 -100q-38 16 -151 16h-86l-26 -134h51q123 0 155 12l-22 -105
q-30 17 -149 17h-50l-30 -154h95q125 0 157 12z" />
    <glyph glyph-name="edieresis.sc" horiz-adv-x="450" 
d="M199 598q-19 0 -30.5 11.5t-11.5 29.5q0 25 19 43.5t44 18.5q19 0 30 -11.5t11 -29.5q0 -24 -18.5 -43t-43.5 -19zM393 598q-18 0 -29.5 11.5t-11.5 29.5q0 24 18.5 43t43.5 19q19 0 30.5 -11.5t11.5 -29.5q0 -25 -19 -43.5t-44 -18.5zM368 -7q-44 7 -154 7h-202
q14 19 23 48.5t24 106.5l41 208q25 127 13 156h192q111 0 156 7l-19 -100q-38 16 -151 16h-86l-26 -134h51q123 0 155 12l-22 -105q-30 17 -149 17h-50l-30 -154h95q125 0 157 12z" />
    <glyph glyph-name="edotaccent.sc" horiz-adv-x="450" 
d="M295 597q-48 0 -48 40q0 31 19.5 51t49.5 20q48 0 48 -41q0 -31 -19 -50.5t-50 -19.5zM368 -7q-44 7 -154 7h-202q14 19 23 48.5t24 106.5l41 208q25 127 13 156h192q111 0 156 7l-19 -100q-38 16 -151 16h-86l-26 -134h51q123 0 155 12l-22 -105q-30 17 -149 17h-50
l-30 -154h95q125 0 157 12z" />
    <glyph glyph-name="egrave.sc" horiz-adv-x="450" 
d="M291 584q-88 50 -130 151l62 53q26 -104 105 -167zM368 -7q-44 7 -154 7h-202q14 19 23 48.5t24 106.5l41 208q25 127 13 156h192q111 0 156 7l-19 -100q-38 16 -151 16h-86l-26 -134h51q123 0 155 12l-22 -105q-30 17 -149 17h-50l-30 -154h95q125 0 157 12z" />
    <glyph glyph-name="emacron.sc" horiz-adv-x="450" 
d="M165 612l12 59h266l-12 -59h-266zM368 -7q-44 7 -154 7h-202q14 19 23 48.5t24 106.5l41 208q25 127 13 156h192q111 0 156 7l-19 -100q-38 16 -151 16h-86l-26 -134h51q123 0 155 12l-22 -105q-30 17 -149 17h-50l-30 -154h95q125 0 157 12z" />
    <glyph glyph-name="eogonek.sc" horiz-adv-x="450" 
d="M291 442h-86l-26 -134h51q123 0 155 12l-22 -105q-30 17 -149 17h-50l-30 -154h95q125 0 157 12l-18 -97q-6 1 -45 5l45 -5q-47 -21 -75.5 -52.5t-28.5 -61.5q0 -27 30 -27q20 0 36 19l14 -48q-29 -25 -74 -25q-33 0 -53 15.5t-20 45.5q0 42 34 81t87 58q-50 2 -104 2
h-202q14 19 23 48.5t24 106.5l41 208q25 127 13 156h192q111 0 156 7l-19 -100q-38 16 -151 16z" />
    <glyph glyph-name="f.sc" horiz-adv-x="439" 
d="M12 0q17 18 27.5 51t24.5 104l41 208q9 49 13 73.5t3.5 47t-8.5 35.5h197q110 0 156 7l-20 -102q-28 18 -151 18h-86l-29 -154h51q122 0 156 12l-21 -105q-28 17 -151 17h-51l-10 -57q-23 -119 -4 -155h-138z" />
    <glyph glyph-name="g.sc" horiz-adv-x="500" 
d="M225 -12q-86 0 -140 44.5t-54 145.5q0 161 76.5 257t208.5 96q31 0 61.5 -7.5t59 -18t36.5 -12.5l-46 -95q-17 25 -50 40t-72 15q-82 0 -131.5 -71t-49.5 -194q0 -67 31 -94.5t88 -27.5q61 0 97 27l22 119q-72 0 -107 -15l15 79h202q-18 -30 -33 -107l-6 -29
q-12 -67 -9 -103q-8 -2 -48 -17.5t-76 -23.5t-75 -8z" />
    <glyph glyph-name="gbreve.sc" horiz-adv-x="500" 
d="M333 581q-65 0 -91.5 46.5t-9.5 112.5h48q-8 -44 6.5 -72.5t53.5 -28.5q40 0 65.5 29t33.5 72h49q-23 -159 -155 -159zM225 -12q-86 0 -140 44.5t-54 145.5q0 161 76.5 257t208.5 96q31 0 61.5 -7.5t59 -18t36.5 -12.5l-46 -95q-17 25 -50 40t-72 15q-82 0 -131.5 -71
t-49.5 -194q0 -67 31 -94.5t88 -27.5q61 0 97 27l22 119q-72 0 -107 -15l15 79h202q-18 -30 -33 -107l-6 -29q-12 -67 -9 -103q-8 -2 -48 -17.5t-76 -23.5t-75 -8z" />
    <glyph glyph-name="uni0123.sc" horiz-adv-x="500" 
d="M225 -12q-86 0 -140 44.5t-54 145.5q0 161 76.5 257t208.5 96q31 0 61.5 -7.5t59 -18t36.5 -12.5l-46 -95q-17 25 -50 40t-72 15q-82 0 -131.5 -71t-49.5 -194q0 -67 31 -94.5t88 -27.5q61 0 97 27l22 119q-72 0 -107 -15l15 79h202q-18 -30 -33 -107l-6 -29
q-12 -67 -9 -103q-8 -2 -48 -17.5t-76 -23.5t-75 -8zM152 -245l-12 33q59 25 72 70q-3 -1 -8 -1q-15 0 -25 9t-10 24q0 21 15 36.5t35 15.5q42 0 42 -45q0 -44 -29 -82.5t-80 -59.5z" />
    </font>
</defs>
</svg>
