<?xml version="1.0" standalone="no"?>
<!DOCTYPE svg PUBLIC "-//W3C//DTD SVG 1.1//EN" "http://www.w3.org/Graphics/SVG/1.1/DTD/svg11.dtd" >
<svg xmlns="http://www.w3.org/2000/svg" xmlns:xlink="http://www.w3.org/1999/xlink" version="1.1">
<metadata>
Created by FontForge 20201107 at Wed Feb 19 16:34:49 2020
 By 
Copyright (c) 2019 by Rodrigo Lo'pez Fuentes. All rights reserved.
</metadata>
<defs>
<font id="Mondo-ExtraLightItalic" horiz-adv-x="483" >
  <font-face 
    font-family="Mondo Extra Light Italic"
    font-weight="400"
    font-style="italic"
    font-stretch="normal"
    units-per-em="1000"
    panose-1="0 0 3 0 0 0 0 0 0 0"
    ascent="781"
    descent="-219"
    x-height="479"
    cap-height="659"
    bbox="-394 -315 1280.67 993"
    underline-thickness="50"
    underline-position="-150"
    slope="-11"
    unicode-range="U+0020-FB02"
  />
<missing-glyph horiz-adv-x="461" 
d="M378 722v-922h-292v922h292zM307 660h-152v-30h60v-34h-61v-31h153v31h-61v34h61v30zM246 541h-92v-96h153v32h-61v64zM215 510v-33h-31v33h31zM307 421h-153v-31h61v-34h-61v-30h92v64h61v31zM307 365h-30v-61h-123v-31h153v92zM307 253h-92v-52h31v21h31v-43h-93v74
h-30v-104h153v104zM307 93h-153v-104h153v104zM277 63v-44h-93v44h93zM307 -32h-153v-31h65l-65 -43v-30h153v30h-94l65 43h29v31z" />
    <glyph glyph-name="fi" unicode="fi" horiz-adv-x="466" 
d="M349 732q81 0 121 -20l-23 -50q-13 14 -42.5 24.5t-62.5 10.5q-66 0 -101 -31.5t-49 -101.5l-16 -85h259q-15 -28 -30 -103l-53 -273q-15 -78 -7 -103h-64q18 25 32 103l53 273q10 54 11 68h-208l-67 -344q-15 -75 -8 -100h-60q14 23 29 100l67 344h-66l7 35h66l16 85
q16 84 62 126t134 42z" />
    <glyph glyph-name="fl" unicode="fl" horiz-adv-x="474" 
d="M445 718h47q-15 -24 -31 -103l-99 -512q-16 -79 -7 -103h-65q17 26 33 103l99 512q2 11 4.5 24.5t4 22t2.5 14.5q-31 21 -93 21q-66 0 -100 -32t-48 -101l-16 -85h112l-8 -41q-19 6 -111 6l-67 -344q-15 -75 -8 -100h-60q14 23 29 100l67 344h-66l7 35h66l16 85
q17 84 62 126t132 42q52 0 98 -14z" />
    <glyph glyph-name="f_f" unicode="ff" horiz-adv-x="488" 
d="M533 722q59 0 87 -24l-12 -43q-21 32 -80 32q-43 0 -75.5 -34.5t-46.5 -107.5l-13 -66h114l-8 -36h-113l-64 -325q-18 -96 -4 -118h-58l86 443h-177l-67 -343q-15 -75 -8 -100h-60q14 23 29 100l67 343h-66l7 36h66l17 88q32 165 167 165q22 0 74 -10l-21 -48
q-20 23 -61 23q-94 0 -120 -130l-17 -88h178l12 66q18 92 63 134.5t104 42.5z" />
    <glyph glyph-name="f_f_i" unicode="ffi" horiz-adv-x="677" 
d="M561 732q81 0 121 -20l-23 -50q-13 14 -43 24.5t-63 10.5q-66 0 -100.5 -31.5t-48.5 -101.5l-16 -85h259q-16 -28 -31 -103l-53 -273q-15 -78 -7 -103h-64q18 25 32 103l53 273q10 54 11 68h-208l-67 -344q-14 -78 -8 -100h-60q14 23 29 100l67 344h-172l-67 -344
q-15 -75 -8 -100h-60q14 23 29 100l67 344h-66l7 35h66l17 88q32 165 166 165q23 0 75 -10l-20 -47q-21 22 -63 22q-93 0 -119 -130l-17 -88h173l16 85q16 84 62 126t134 42z" />
    <glyph glyph-name="f_f_l" unicode="ffl" horiz-adv-x="683" 
d="M654 718h47q-15 -24 -31 -103l-99 -512q-16 -79 -7 -103h-65q17 26 33 103l99 512q2 11 4.5 24.5t4 22t2.5 14.5q-31 21 -93 21q-66 0 -100 -32t-47 -101l-17 -85h112l-8 -41q-20 6 -111 6l-67 -344q-15 -75 -8 -100h-60q14 23 29 100l67 344h-170l-67 -344
q-15 -75 -8 -100h-60q14 23 29 100l67 344h-66l7 35h66l17 88q32 165 166 165q23 0 75 -10l-20 -47q-21 22 -63 22q-93 0 -119 -130l-17 -88h170l17 85q16 84 61 126t132 42q52 0 98 -14z" />
    <glyph glyph-name=".notdef" horiz-adv-x="461" 
d="M378 722v-922h-292v922h292zM307 660h-152v-30h60v-34h-61v-31h153v31h-61v34h61v30zM246 541h-92v-96h153v32h-61v64zM215 510v-33h-31v33h31zM307 421h-153v-31h61v-34h-61v-30h92v64h61v31zM307 365h-30v-61h-123v-31h153v92zM307 253h-92v-52h31v21h31v-43h-93v74
h-30v-104h153v104zM307 93h-153v-104h153v104zM277 63v-44h-93v44h93zM307 -32h-153v-31h65l-65 -43v-30h153v30h-94l65 43h29v31z" />
    <glyph glyph-name=".null" horiz-adv-x="0" 
 />
    <glyph glyph-name="nonmarkingreturn" horiz-adv-x="333" 
 />
    <glyph glyph-name="space" unicode=" " horiz-adv-x="180" 
 />
    <glyph glyph-name="exclam" unicode="!" horiz-adv-x="247" 
d="M93 180l68 352q21 105 9 138h74q-14 -20 -23 -46t-22 -92l-68 -352h-38zM75 -12q-16 0 -26 9t-10 24q0 22 15.5 38t37.5 16q15 0 25.5 -9t10.5 -25q0 -21 -16 -37t-37 -16z" />
    <glyph glyph-name="quotedbl" unicode="&#x22;" horiz-adv-x="261" 
d="M109 457l26 192l10 67h47l-16 -67l-49 -192h-18zM219 457l26 192l10 67h47l-16 -67l-49 -192h-18z" />
    <glyph glyph-name="numbersign" unicode="#" horiz-adv-x="527" 
d="M48 0l69 219h-87l6 32h92l54 170h-93l6 32h97l64 195h33l-64 -195h155l64 195h32l-64 -195h85l-6 -32h-88l-55 -170h90l-6 -32h-94l-69 -219h-33l69 219h-155l-69 -219h-33zM161 251h155l54 170h-155z" />
    <glyph glyph-name="dollar" unicode="$" horiz-adv-x="512" 
d="M444 485q-26 54 -102 60l-46 -235l21 -7q55 -20 84 -48.5t29 -75.5q0 -78 -55.5 -131t-141.5 -59q-11 -65 -6 -87l-57 1q15 24 27 85q-93 5 -169 56l36 59q29 -73 140 -78l50 255l-4 1q-57 20 -87.5 49t-30.5 76q0 70 52 121t129 56q12 69 7 89h56q-15 -25 -27 -90
q66 -4 129 -45zM174 414q0 -33 21.5 -53.5t66.5 -38.5l44 223q-57 -4 -94.5 -40.5t-37.5 -90.5zM297 264l-9 3l-48 -241q65 6 106 46t41 99q0 36 -21.5 56t-68.5 37z" />
    <glyph glyph-name="percent" unicode="%" horiz-adv-x="798" 
d="M170 -12l492 680h36l-492 -680h-36zM199 257q-51 0 -79.5 33t-28.5 96q0 111 54 188t131 77q52 0 80.5 -32.5t28.5 -95.5q0 -111 -54 -188.5t-132 -77.5zM205 288q58 0 100.5 68.5t42.5 160.5q0 51 -20.5 77t-57.5 26q-58 0 -100 -67.5t-42 -160.5q0 -51 20.5 -77.5
t56.5 -26.5zM570 -12q-52 0 -80.5 33t-28.5 96q0 111 54 188t132 77q51 0 79.5 -32.5t28.5 -95.5q0 -111 -54 -188.5t-131 -77.5zM576 19q58 0 100 68.5t42 160.5q0 51 -20.5 77t-56.5 26q-58 0 -100.5 -67.5t-42.5 -160.5q0 -51 20.5 -77.5t57.5 -26.5z" />
    <glyph glyph-name="ampersand" unicode="&#x26;" horiz-adv-x="626" 
d="M486 109q41 -56 95 -109h-80q-15 42 -48 83l-6 8q-109 -106 -226 -106q-68 0 -111 39.5t-43 101.5q0 142 208 227q-30 68 -30 123q0 86 61.5 143.5t131.5 57.5q56 0 90.5 -32t34.5 -85q0 -79 -60 -130t-166 -90l-8 -3q37 -67 102 -154l25 -33q53 60 53 98h59
q-42 -72 -91 -126zM284 482q0 -51 29 -114q5 1 15 5q99 36 147 75t48 104q0 40 -25.5 63.5t-66.5 23.5q-53 0 -100 -44t-47 -113zM230 23q99 0 197 96l-34 47q-68 92 -103 157q-84 -34 -133.5 -77.5t-49.5 -112.5q0 -48 34 -79t89 -31z" />
    <glyph glyph-name="quotesingle" unicode="'" horiz-adv-x="152" 
d="M110 457l26 197l9 62h47l-15 -62l-51 -197h-16z" />
    <glyph glyph-name="parenleft" unicode="(" horiz-adv-x="321" 
d="M177 -155q-97 126 -97 306q0 161 75.5 313t189.5 247l11 -47q-59 -22 -114 -106.5t-88.5 -201.5t-33.5 -231q0 -94 24 -155.5t62 -77.5z" />
    <glyph glyph-name="parenright" unicode=")" horiz-adv-x="321" 
d="M-8 -155l-12 47q59 22 114 106.5t88.5 201.5t33.5 231q0 92 -23.5 154t-62.5 79l30 47q96 -127 96 -306q0 -162 -75.5 -314t-188.5 -246z" />
    <glyph glyph-name="asterisk" unicode="*" horiz-adv-x="348" 
d="M263 439l-49 83l-52 -53l-33 21l69 77l-62 29l15 40l89 -32l15 67l43 4l-16 -93l64 16l11 -39l-91 -28l34 -64z" />
    <glyph glyph-name="plus" unicode="+" horiz-adv-x="461" 
d="M326 269q69 0 95 11l-13 -61q-21 10 -89 10h-72l-18 -90q-12 -68 -7 -92h-62q14 24 28 92l18 90h-72q-68 0 -94 -10l11 61q22 -11 91 -11h71l18 90q14 67 7 92h62q-15 -26 -28 -92l-18 -90h72z" />
    <glyph glyph-name="comma" unicode="," horiz-adv-x="225" 
d="M-6 -149l-10 24q80 42 92 121q-4 -1 -12 -1q-15 0 -25 8.5t-10 23.5q0 20 13.5 33.5t33.5 13.5q18 0 29 -13.5t11 -37.5q0 -49 -32.5 -95.5t-89.5 -76.5z" />
    <glyph glyph-name="hyphen" unicode="-" horiz-adv-x="315" 
d="M41 236l8 37h230l-8 -37h-230z" />
    <glyph glyph-name="period" unicode="." horiz-adv-x="199" 
d="M47 -12q-14 0 -24 9.5t-10 25.5q0 21 13.5 36t32.5 15q15 0 25 -9.5t10 -26.5q0 -22 -14.5 -36t-32.5 -14z" />
    <glyph glyph-name="slash" unicode="/" horiz-adv-x="433" 
d="M-37 -160l407 738q56 103 53 132h58l-408 -741q-54 -96 -52 -129h-58z" />
    <glyph glyph-name="zero" unicode="0" horiz-adv-x="494" 
d="M203 -12q-75 0 -117 53t-42 156q0 188 81.5 323t195.5 135q76 0 118 -53.5t42 -155.5q0 -123 -36.5 -228t-100.5 -167.5t-141 -62.5zM207 24q57 0 110.5 58t87 155.5t33.5 203.5q0 88 -32.5 133t-87.5 45q-59 0 -112.5 -58t-86.5 -156t-33 -206q0 -87 32 -131t89 -44z
" />
    <glyph glyph-name="one" unicode="1" horiz-adv-x="443" 
d="M13 0l6 31l152 11l103 530h-131l5 28q49 1 100.5 12.5t78.5 27.5l-115 -598l137 -11l-5 -31h-331z" />
    <glyph glyph-name="two" unicode="2" horiz-adv-x="485" 
d="M77 36h203q95 0 125 19l-11 -55h-389l6 28q107 86 169 138.5t124 115t89.5 112.5t27.5 96q0 59 -31.5 92.5t-85.5 33.5q-52 0 -95.5 -23t-71.5 -56l-21 50q8 4 34.5 18t46 22.5t51 16.5t61.5 8q69 0 111.5 -42t42.5 -117q0 -36 -12 -71.5t-43 -76.5t-56.5 -70.5
t-82.5 -79t-88.5 -75.5t-103.5 -84z" />
    <glyph glyph-name="three" unicode="3" horiz-adv-x="479" 
d="M183 -12q-45 0 -82 10.5t-65 24t-39 15.5l38 60q12 -31 52.5 -52.5t101.5 -21.5q78 0 132.5 48t54.5 114q0 132 -200 132l8 36q106 0 168.5 44t62.5 120q0 44 -29 71t-78 27q-45 0 -94 -22t-71 -48l-15 54q10 2 43 16.5t70.5 25t72.5 10.5q63 0 103.5 -35t40.5 -96
q0 -71 -43.5 -117.5t-113.5 -64.5l-1 -4q53 -12 85.5 -48.5t32.5 -95.5q0 -88 -67 -145.5t-168 -57.5z" />
    <glyph glyph-name="four" unicode="4" horiz-adv-x="490" 
d="M363 219q77 0 99 14l-9 -49h-96q-20 -107 -23 -137t4 -47h-73q14 17 23 49t30 135h-294l4 23l380 433h37zM324 219l70 354l-313 -354h243z" />
    <glyph glyph-name="five" unicode="5" horiz-adv-x="479" 
d="M186 -12q-46 0 -82 10.5t-66.5 27.5t-36.5 19l34 57q14 -35 54 -56.5t102 -21.5q81 0 139.5 60.5t58.5 147.5q0 59 -32.5 97t-87.5 38q-66 0 -138 -40l-25 18l81 295h190q69 0 104 15l-10 -51h-256l-65 -230q58 29 125 29q69 0 112.5 -44.5t43.5 -120.5
q0 -107 -71 -178.5t-174 -71.5z" />
    <glyph glyph-name="six" unicode="6" horiz-adv-x="480" 
d="M207 -12q-76 0 -115.5 47.5t-39.5 138.5q0 122 42 233t111.5 178t145.5 67q29 0 53 -5t45 -12.5t29 -9.5l-25 -49q-30 41 -106 41q-69 0 -138.5 -80.5t-102.5 -239.5q76 88 178 88q70 0 109 -39t39 -109q0 -107 -65.5 -178t-159.5 -71zM213 24q71 0 124 60t53 145
q0 120 -117 120q-41 0 -87.5 -26t-86.5 -74q-33 -225 114 -225z" />
    <glyph glyph-name="seven" unicode="7" horiz-adv-x="447" 
d="M124 0q42 304 316 604h-226q-94 0 -121 -15l11 58q22 -7 117 -7h272l-5 -31q-133 -135 -224 -309t-91 -269q0 -20 4 -31h-53z" />
    <glyph glyph-name="eight" unicode="8" horiz-adv-x="486" 
d="M192 -12q-75 0 -121.5 38t-46.5 98q0 68 51.5 129t128.5 89l1 3q-78 47 -78 122q0 80 59 133.5t144 53.5q65 0 103 -33.5t38 -88.5q0 -69 -45 -123t-106 -79v-3q105 -53 105 -152q0 -88 -65 -137.5t-168 -49.5zM289 344q67 32 104.5 79t37.5 102q0 43 -28.5 68.5
t-80.5 25.5q-61 0 -107.5 -43.5t-46.5 -102.5q0 -80 121 -129zM199 24q78 0 131.5 39.5t53.5 105.5q0 95 -152 156q-78 -32 -122 -84t-44 -109q0 -48 36 -78t97 -30z" />
    <glyph glyph-name="nine" unicode="9" horiz-adv-x="480" 
d="M160 -12q-39 0 -81.5 13.5t-52.5 13.5l25 56q34 -47 115 -47q69 0 145 91.5t94 225.5q-79 -86 -172 -86q-73 0 -114.5 38.5t-41.5 106.5q0 106 64 179t157 73q76 0 117.5 -48.5t41.5 -138.5q0 -122 -41.5 -233t-110.5 -177.5t-145 -66.5zM237 290q88 0 173 101
q33 225 -118 225q-70 0 -121.5 -61t-51.5 -146q0 -54 29 -86.5t89 -32.5z" />
    <glyph glyph-name="colon" unicode=":" horiz-adv-x="249" 
d="M60 348q-15 0 -25 10t-10 25q0 21 13.5 36t32.5 15q15 0 25 -9.5t10 -26.5q0 -21 -14.5 -35.5t-31.5 -14.5zM47 -12q-14 0 -24 9.5t-10 25.5q0 21 13.5 36t32.5 15q15 0 25 -9.5t10 -26.5q0 -22 -14.5 -36t-32.5 -14z" />
    <glyph glyph-name="semicolon" unicode=";" horiz-adv-x="249" 
d="M61 330q-15 0 -25 9.5t-10 25.5q0 21 14 36t33 15q14 0 24 -9.5t10 -26.5q0 -22 -14.5 -36t-31.5 -14zM-12 -149l-10 24q80 42 92 121q-4 -1 -12 -1q-35 0 -35 32q0 20 13.5 33.5t33.5 13.5q18 0 29 -13.5t11 -37.5q0 -49 -32.5 -95.5t-89.5 -76.5z" />
    <glyph glyph-name="less" unicode="&#x3c;" horiz-adv-x="450" 
d="M406 370q-30 -2 -93 -30l-215 -91l179 -92q55 -29 82 -30l-35 -54q-13 18 -71 48l-205 106l9 44l247 105q67 29 89 49z" />
    <glyph glyph-name="equal" unicode="=" horiz-adv-x="462" 
d="M64 283l12 60q23 -11 90 -11h161q66 0 95 11l-13 -60q-21 10 -89 10h-161q-67 0 -95 -10zM40 156l11 60q22 -10 91 -10h161q69 0 94 10l-12 -60q-23 10 -90 10h-161q-68 0 -94 -10z" />
    <glyph glyph-name="greater" unicode="&#x3e;" horiz-adv-x="450" 
d="M200 376l206 -105l-9 -44l-245 -106q-71 -31 -90 -48l-14 54q25 1 93 30l215 92l-179 91q-58 29 -82 30l35 55q12 -19 70 -49z" />
    <glyph glyph-name="question" unicode="?" horiz-adv-x="399" 
d="M126 187q12 60 40 103t59 67t60.5 47t49 57t19.5 83q0 43 -27 68.5t-74 25.5q-43 0 -84 -19.5t-62 -47.5l-20 55q14 1 72.5 24t100.5 23q62 0 99 -32t37 -90q0 -57 -20 -96t-50 -63.5t-61.5 -47.5t-59.5 -62.5t-39 -94.5h-40zM113 -12q-16 0 -25.5 8.5t-9.5 22.5
q0 21 14.5 36t35.5 15q16 0 25.5 -8.5t9.5 -22.5q0 -21 -14.5 -36t-35.5 -15z" />
    <glyph glyph-name="at" unicode="@" horiz-adv-x="787" 
d="M307 -57q-106 0 -171.5 66.5t-65.5 173.5q0 154 103 266.5t255 112.5q111 0 183.5 -69.5t72.5 -174.5t-48.5 -182t-116.5 -77q-43 0 -63 26.5t-13 66.5q-42 -65 -119 -65q-48 0 -76.5 31t-28.5 85q0 85 47.5 142.5t119.5 57.5q39 0 63.5 -17.5t29.5 -38.5l13 46h31
l-42 -221q-15 -80 41 -80q50 0 87.5 65.5t37.5 155.5q0 93 -63 153t-162 60q-130 0 -223 -101t-93 -237q0 -95 56.5 -152t150.5 -57q64 0 105 28l-11 -55q-52 -9 -100 -9zM331 119q44 0 78.5 30.5t45.5 79.5l7 36q9 48 -16.5 76.5t-64.5 28.5q-53 0 -89 -47t-36 -115
q0 -42 20.5 -65.5t54.5 -23.5z" />
    <glyph glyph-name="A" unicode="A" horiz-adv-x="558" 
d="M498 0h-73q13 21 2 107l-17 111h-271l-60 -111q-42 -77 -38 -107h-74q30 32 74 113l250 458q6 11 15.5 29t12.5 24.5t6 16t4 18.5h62q-6 -21 5 -88l72 -458q12 -78 30 -113zM158 253l247 1l-53 362z" />
    <glyph glyph-name="B" unicode="B" horiz-adv-x="534" 
d="M355 352q64 -8 99.5 -46t35.5 -99q0 -101 -72.5 -154t-210.5 -53h-187q20 24 35 103l88 453q16 79 5 103h173q181 0 181 -140q0 -69 -39 -113t-108 -54zM197 624l-49 -255h116q95 0 146 37t51 111q0 107 -145 107h-119zM213 36q111 0 174 43t63 125q0 130 -192 130h-117
l-58 -298h130z" />
    <glyph glyph-name="C" unicode="C" horiz-adv-x="560" 
d="M272 -12q-100 0 -156 58.5t-56 176.5q0 193 95.5 321t241.5 128q84 0 174 -57l-32 -50q-13 27 -55.5 48t-92.5 21q-123 0 -204.5 -116.5t-81.5 -290.5q0 -201 173 -201q122 0 186 64l14 -56q-120 -46 -206 -46z" />
    <glyph glyph-name="D" unicode="D" horiz-adv-x="589" 
d="M20 0q13 16 18.5 34t16.5 69l89 453q15 79 4 103h146q124 0 194.5 -63t70.5 -178q0 -198 -102.5 -308t-287.5 -110h-149zM83 36h92q157 0 249 99t92 278q0 101 -61.5 155.5t-169.5 54.5h-88z" />
    <glyph glyph-name="E" unicode="E" 
d="M392 -5q-40 5 -184 5h-188q13 16 19 34t16 68l88 454q15 78 5 103h178q145 0 181 6l-10 -54q-25 13 -177 13h-123l-50 -256h105q129 0 155 12l-11 -59q-24 12 -150 12h-105l-59 -297h133q159 0 188 12z" />
    <glyph glyph-name="F" unicode="F" horiz-adv-x="463" 
d="M20 0q13 16 18.5 34t16.5 69l88 453q15 78 5 103h197q132 0 165 6l-10 -54q-25 13 -162 13h-141l-55 -282h94q132 0 159 10l-10 -56q-27 10 -156 10h-94l-40 -203q-9 -46 -10 -62t6 -41h-71z" />
    <glyph glyph-name="G" unicode="G" horiz-adv-x="589" 
d="M283 -12q-104 0 -162.5 58t-58.5 177q0 199 87 324t227 125q92 0 195 -62l-34 -47q-11 27 -58 49.5t-106 22.5q-118 0 -193 -114.5t-75 -293.5q0 -103 48 -152.5t133 -49.5q106 0 167 54l39 198h-50q-76 0 -112 -12l11 54q32 -6 109 -6h99q-14 -25 -30 -107l-8 -38
q-15 -76 -16 -112q-101 -68 -212 -68z" />
    <glyph glyph-name="H" unicode="H" horiz-adv-x="600" 
d="M20 0q20 27 35 103l89 453q9 46 10 62t-6 41h71q-21 -27 -34 -103l-37 -187h354l37 187q1 3 2 10q12 65 3 89l-2 4h72q-13 -16 -19.5 -37t-15.5 -66l-88 -453q-14 -79 -5 -103h-72q20 25 36 103l45 230h-354l-45 -230q-15 -78 -5 -103h-71z" />
    <glyph glyph-name="I" unicode="I" horiz-adv-x="205" 
d="M20 0q20 27 35 103l89 453q9 46 10 62t-6 41h71q-19 -26 -34 -103l-89 -453q-15 -75 -5 -103h-71z" />
    <glyph glyph-name="J" unicode="J" horiz-adv-x="385" 
d="M127 -12q-28 0 -55.5 11.5t-40.5 21.5t-34 29l37 47q21 -73 98 -73q50 0 79.5 34t44.5 116l75 382q1 4 3 14t2.5 14t2 12.5t1.5 12.5t0.5 11t0 11t-1 9.5t-2 10t-3.5 8.5h72q-20 -27 -34 -103l-75 -382q-20 -99 -56.5 -142.5t-113.5 -43.5z" />
    <glyph glyph-name="K" unicode="K" horiz-adv-x="546" 
d="M20 0q20 29 35 103l89 453q15 73 4 103h71q-21 -27 -34 -103l-53 -268h2l311 301q45 43 51 70h83q-34 -23 -105 -92l-169 -165l119 -290q30 -77 63 -112h-77q3 29 -23 92l-114 282l-152 -149l-24 -122q-15 -74 -4 -103h-73z" />
    <glyph glyph-name="L" unicode="L" horiz-adv-x="425" 
d="M364 -5q-21 5 -127 5h-217q13 16 19.5 37t15.5 66l89 453q9 46 10 61.5t-6 41.5h71q-12 -14 -18 -34t-16 -69l-102 -521h161q100 0 132 16z" />
    <glyph glyph-name="M" unicode="M" horiz-adv-x="680" 
d="M614 659h80q-13 -17 -19.5 -36.5t-15.5 -66.5l-89 -453q-15 -77 -4 -103h-72q13 16 20 36.5t16 66.5l66 342q23 115 39 174h-2l-246 -432q-44 -76 -49 -107h-59q7 31 -6 107l-80 432h-2q-8 -61 -30 -174l-66 -342q-15 -79 -5 -103h-70q20 28 35 103l88 453q15 78 5 103
h78l95 -517z" />
    <glyph glyph-name="N" unicode="N" horiz-adv-x="602" 
d="M20 0q20 28 35 103l88 453q15 75 5 103h62l239 -590h4q5 61 20 135l69 352q14 79 4 103h70q-19 -28 -34 -103l-88 -449q-15 -75 -12 -107h-49l-244 602h-3q-5 -50 -20 -133l-71 -366q-15 -77 -5 -103h-70z" />
    <glyph glyph-name="O" unicode="O" horiz-adv-x="643" 
d="M275 -12q-94 0 -154 63.5t-60 175.5q0 189 96.5 316.5t244.5 127.5q94 0 154 -63t60 -175q0 -123 -43.5 -224.5t-122 -161t-175.5 -59.5zM281 24q121 0 207 118.5t86 285.5q0 100 -49.5 153.5t-128.5 53.5q-123 0 -208 -117t-85 -286q0 -101 49.5 -154.5t128.5 -53.5z
" />
    <glyph glyph-name="P" unicode="P" horiz-adv-x="514" 
d="M21 0q19 26 34 103l89 453q9 46 10 62t-6 41h174q90 0 146.5 -37t56.5 -119q0 -124 -74 -191t-206 -67h-121l-28 -142q-14 -78 -4 -103h-71zM131 281h107q119 0 182 55.5t63 162.5q0 69 -47.5 96.5t-134.5 27.5h-103z" />
    <glyph glyph-name="Q" unicode="Q" horiz-adv-x="635" 
d="M440 -121q46 0 78 23l2 -52q-7 0 -37 -4t-47 -4q-78 0 -126 40t-56 107q-85 7 -139 69.5t-54 168.5q0 189 96.5 316.5t244.5 127.5q94 0 154 -63t60 -175q0 -182 -92 -309t-232 -135q7 -53 47 -81.5t101 -28.5zM103 232q0 -101 49.5 -154.5t128.5 -53.5q121 0 207 118.5
t86 285.5q0 100 -49.5 153.5t-128.5 53.5q-123 0 -208 -117t-85 -286z" />
    <glyph glyph-name="R" unicode="R" horiz-adv-x="516" 
d="M21 0q19 26 34 103l89 453q15 78 4 103h183q84 0 138.5 -37.5t54.5 -116.5q0 -54 -18.5 -96t-48.5 -67.5t-63 -39.5t-69 -19l68 -177q31 -76 57 -106h-78q6 26 -19 91l-74 187h-149l-34 -175q-15 -77 -5 -103h-70zM138 314h125q97 0 158 47.5t61 138.5q0 123 -168 123
h-116z" />
    <glyph glyph-name="S" unicode="S" horiz-adv-x="532" 
d="M224 -12q-120 0 -211 72l35 57q37 -91 184 -91q81 0 134.5 44.5t53.5 115.5q0 53 -32 81.5t-86 48.5l-46 18q-130 49 -130 149q0 85 60.5 136.5t149.5 51.5q101 0 177 -60l-32 -47q-36 70 -152 70q-66 0 -113.5 -40t-47.5 -102q0 -45 30.5 -73t82.5 -49l45 -17
q137 -53 137 -159q0 -92 -67.5 -149t-171.5 -57z" />
    <glyph glyph-name="T" unicode="T" horiz-adv-x="492" 
d="M164 0q20 29 35 103l101 521h-98q-76 0 -106 -15l10 56q36 -6 102 -6h237q69 0 105 6l-11 -56q-26 15 -100 15h-98l-101 -521q-15 -77 -6 -103h-70z" />
    <glyph glyph-name="U" unicode="U" horiz-adv-x="585" 
d="M245 -12q-94 0 -145 60.5t-24 201.5l59 306q9 46 10 62.5t-6 40.5h72q-19 -23 -35 -103l-58 -304q-44 -227 133 -227q80 0 141.5 54t85.5 177l58 300q15 78 4 103h69q-19 -29 -34 -103l-60 -304q-51 -264 -270 -264z" />
    <glyph glyph-name="V" unicode="V" horiz-adv-x="523" 
d="M180 0q10 31 -3 125l-55 415q-13 93 -27 119h67q-10 -32 0 -108l40 -305q16 -120 24 -197h5q30 68 97 197l159 309q35 67 40 104h64q-23 -28 -70 -119l-215 -415q-48 -92 -48 -125h-78z" />
    <glyph glyph-name="W" unicode="W" horiz-adv-x="782" 
d="M777 659h65q-21 -24 -53 -100l-179 -430q-40 -93 -43 -129h-73q8 31 2 129l-33 474l-218 -474q-45 -97 -47 -129h-74q10 34 6 129l-13 431q-2 64 -14 99h64q-11 -32 -9 -98l13 -509l235 512q32 71 32 95h71q-9 -27 -4 -94l35 -513l212 513q18 45 22.5 62t2.5 32z" />
    <glyph glyph-name="X" unicode="X" horiz-adv-x="528" 
d="M495 659h66q-38 -36 -79 -90l-175 -232l90 -228q30 -76 54 -109h-69q3 32 -22 96l-84 220l-166 -220q-53 -71 -57 -96h-68q42 38 97 111l178 235l-86 224q-23 59 -45 89h68q-5 -26 14 -77l81 -215l161 215q25 34 33 48t9 29z" />
    <glyph glyph-name="Y" unicode="Y" 
d="M483 659h67q-30 -29 -82 -105l-198 -290l-32 -161q-16 -75 -4 -103h-72q19 24 35 103l33 166l-93 287q-26 80 -42 103h65q-5 -26 17 -95l81 -261l176 260q48 70 49 96z" />
    <glyph glyph-name="Z" unicode="Z" horiz-adv-x="547" 
d="M299 659h264l-3 -38q-20 -7 -71 -69l-419 -516h204q93 0 128.5 3.5t53.5 13.5l-12 -59q-28 6 -176 6h-261l3 39q25 12 84 85l406 499h-208q-108 0 -141 -18l12 60q30 -6 136 -6z" />
    <glyph glyph-name="bracketleft" unicode="[" horiz-adv-x="292" 
d="M167 -160q-31 12 -152 12l163 844q124 0 157 12l-7 -38h-114l-154 -792h114z" />
    <glyph glyph-name="backslash" unicode="\" horiz-adv-x="376" 
d="M225 -160q14 35 -1 129l-121 741h59q-15 -29 2 -132l120 -738h-59z" />
    <glyph glyph-name="bracketright" unicode="]" horiz-adv-x="292" 
d="M-30 -160l7 38h114l154 792h-114l8 38q28 -12 151 -12l-164 -844q-121 0 -156 -12z" />
    <glyph glyph-name="asciicircum" unicode="^" horiz-adv-x="362" 
d="M325 350l-59 -20q4 26 -11 87l-32 144l-89 -144q-40 -61 -45 -87l-51 20q19 16 62 83l107 171h48l39 -172q16 -66 31 -82z" />
    <glyph glyph-name="underscore" unicode="_" horiz-adv-x="506" 
d="M12 -104l6 33h476l-6 -33h-476z" />
    <glyph glyph-name="grave" unicode="`" horiz-adv-x="327" 
d="M294 574q-85 61 -120 148l34 26q34 -97 103 -157z" />
    <glyph glyph-name="a" unicode="a" 
d="M170 -12q-60 0 -95 43.5t-35 125.5q0 142 76.5 239.5t189.5 97.5q51 0 102 -24l8 16h35l-73 -356q-12 -57 -13.5 -83.5t8.5 -46.5h-45q-6 34 6 82h-4q-33 -42 -76 -68t-84 -26zM175 24q40 0 90.5 39.5t79.5 94.5l55 272q-43 26 -99 26q-92 0 -155.5 -86.5t-63.5 -210.5
q0 -65 25 -100t68 -35z" />
    <glyph glyph-name="b" unicode="b" horiz-adv-x="485" 
d="M179 -12q-57 0 -114 31l-10 -19h-23l117 573q22 107 11 139h57l-66 -318q32 44 76.5 72t87.5 28q60 0 95 -43t35 -126q0 -141 -76.5 -239t-189.5 -98zM184 26q92 0 155.5 87.5t63.5 211.5q0 64 -25 98.5t-68 34.5t-97 -45t-80 -105l-52 -251q41 -31 103 -31z" />
    <glyph glyph-name="c" unicode="c" horiz-adv-x="430" 
d="M196 -13q-67 0 -111 44t-44 130q0 140 69.5 235.5t176.5 95.5q70 0 135 -47l-29 -43q-37 54 -111 54q-86 0 -143 -85t-57 -204q0 -72 33.5 -107.5t87.5 -35.5q43 0 85 20.5t66 51.5l12 -51q-82 -58 -170 -58z" />
    <glyph glyph-name="d" unicode="d" horiz-adv-x="492" 
d="M170 -12q-60 0 -95 43t-35 127q0 141 76.5 238.5t189.5 97.5q48 0 101 -22l20 99q19 105 9 141h57l-116 -590q-19 -99 -4 -122h-47q-3 38 8 82h-4q-32 -42 -75 -68t-85 -26zM175 24q41 0 91.5 40t78.5 97l54 269q-41 26 -98 26q-92 0 -155.5 -87t-63.5 -211q0 -64 25 -99
t68 -35z" />
    <glyph glyph-name="e" unicode="e" horiz-adv-x="465" 
d="M201 -13q-72 0 -116 43.5t-44 132.5q0 144 74 236.5t177 92.5q62 0 102 -36t40 -90q0 -66 -46.5 -99.5t-156.5 -33.5h-144q-19 -105 14.5 -157.5t105.5 -52.5q41 0 89.5 17t72.5 44l10 -50q-24 -17 -76.5 -32t-101.5 -15zM94 268h139q87 0 123.5 23t36.5 71
q0 41 -28.5 67.5t-77.5 26.5q-59 0 -116.5 -51t-76.5 -137z" />
    <glyph glyph-name="f" unicode="f" horiz-adv-x="277" 
d="M50 0l86 443h-72l7 36h72l13 66q17 92 62 134.5t104 42.5q57 0 88 -24l-13 -43q-20 32 -80 32q-43 0 -75.5 -34.5t-46.5 -107.5l-12 -66h113l-8 -36h-113l-63 -325q-20 -96 -4 -118h-58z" />
    <glyph glyph-name="g" unicode="g" horiz-adv-x="482" 
d="M153 -203q-77 0 -155 49l32 51q14 -29 46.5 -47t76.5 -18q67 0 104.5 40.5t60.5 133.5l19 80h-3q-32 -44 -75.5 -71t-87.5 -27q-60 0 -95 43t-35 127q0 141 76.5 238.5t189.5 97.5q52 0 110 -27l11 19h32l-103 -478q-25 -113 -72.5 -162t-131.5 -49zM175 24q43 0 96 42.5
t80 101.5l55 258q-44 30 -104 30q-92 0 -155.5 -87t-63.5 -211q0 -64 24.5 -99t67.5 -35z" />
    <glyph glyph-name="h" unicode="h" horiz-adv-x="502" 
d="M37 0l114 571q19 102 9 141h55l-59 -305h2q29 34 77 60.5t95 26.5q60 0 92.5 -43t17.5 -123l-42 -210q-11 -56 -12 -79.5t8 -38.5h-59l66 325q14 71 -10.5 102t-70.5 31q-44 0 -92.5 -31.5t-82.5 -75.5l-45 -233q-19 -95 -4 -118h-59z" />
    <glyph glyph-name="i" unicode="i" horiz-adv-x="227" 
d="M177 589q-31 0 -27 37q4 39 40 39q33 0 27 -35q-4 -41 -40 -41zM45 0l69 338q20 96 8 141h60l-74 -361q-19 -89 -2 -118h-61z" />
    <glyph glyph-name="j" unicode="j" horiz-adv-x="197" 
d="M165 589q-31 0 -27 37q4 39 40 39q32 0 28 -35q-6 -41 -41 -41zM-74 -203q-31 0 -65 15l21 50q12 -29 49 -29q40 0 60.5 29.5t33.5 97.5l76 385q17 87 5 134h60l-101 -519q-19 -91 -52 -127t-87 -36z" />
    <glyph glyph-name="k" unicode="k" horiz-adv-x="457" 
d="M39 0l113 571q20 97 8 141h60l-66 -331q27 47 74.5 79.5t104.5 32.5q51 0 84 -30.5t33 -78.5q0 -72 -56.5 -116t-140.5 -56l64 -110q27 -46 43 -66.5t39 -35.5h-65l-127 218v19q91 8 146 44.5t55 97.5q0 36 -22 57t-58 21q-55 0 -107.5 -44.5t-83.5 -118.5l-35 -176
q-20 -91 -2 -118h-61z" />
    <glyph glyph-name="l" unicode="l" horiz-adv-x="227" 
d="M46 0l112 569q21 97 8 143h61l-118 -592q-19 -93 -1 -120h-62z" />
    <glyph glyph-name="m" unicode="m" horiz-adv-x="770" 
d="M37 0l67 338q20 102 9 141h52l-13 -76h4q79 92 164 92q46 0 76 -26t34 -75q84 101 174 101q61 0 92 -43.5t14 -124.5l-44 -209q-20 -95 -4 -118h-57l65 324q15 72 -8.5 103t-67.5 31q-41 0 -84.5 -29.5t-79.5 -76.5l-49 -234q-19 -96 -4 -118h-57l66 324q15 72 -8 103
t-68 31q-41 0 -85 -31t-80 -78l-47 -231q-19 -94 -4 -118h-57z" />
    <glyph glyph-name="n" unicode="n" horiz-adv-x="501" 
d="M37 0l67 336q20 103 9 143h52l-11 -70h4q30 34 78 60t95 26q60 0 93 -42.5t17 -121.5l-44 -211q-21 -96 -4 -120h-58l66 327q15 71 -9.5 101.5t-70.5 30.5q-45 0 -93 -31t-82 -76l-47 -232q-21 -96 -4 -120h-58z" />
    <glyph glyph-name="o" unicode="o" horiz-adv-x="510" 
d="M217 -13q-79 0 -125.5 50t-46.5 140q0 141 66.5 228t181.5 87q79 0 125 -50t46 -141q0 -141 -66 -227.5t-181 -86.5zM221 24q92 0 146.5 77t54.5 200q0 72 -34.5 113.5t-98.5 41.5q-92 0 -147 -78t-55 -201q0 -72 34.5 -112.5t99.5 -40.5z" />
    <glyph glyph-name="p" unicode="p" horiz-adv-x="493" 
d="M-2 -200l108 539q19 97 8 140h58l-19 -90l2 -1q31 46 77 76t91 30q60 0 95 -43t35 -126q0 -141 -76.5 -239t-189.5 -98q-51 0 -107 26l-19 -96q-19 -90 -2 -118h-61zM192 26q92 0 155.5 87.5t63.5 211.5q0 64 -25 98.5t-68 34.5t-98 -44.5t-81 -104.5l-51 -252
q43 -31 104 -31z" />
    <glyph glyph-name="q" unicode="q" horiz-adv-x="493" 
d="M279 -200l59 293h-1q-32 -46 -77 -75.5t-90 -29.5q-60 0 -95 43t-35 127q0 141 76.5 238.5t189.5 97.5q52 0 106 -25l5 17h39l-113 -564q-19 -95 -2 -122h-62zM175 24q44 0 98.5 45.5t80.5 106.5l50 252q-44 28 -103 28q-92 0 -155.5 -87t-63.5 -211q0 -64 25 -99t68 -35
z" />
    <glyph glyph-name="r" unicode="r" horiz-adv-x="326" 
d="M39 0l67 336q22 102 7 143h57l-15 -90h2q26 44 66.5 74t77.5 30q32 0 55 -16l-21 -42q-17 22 -40 22q-34 0 -77 -40t-78 -109l-36 -178q-20 -105 1 -130h-66z" />
    <glyph glyph-name="s" unicode="s" horiz-adv-x="402" 
d="M160 -12q-77 0 -162 51l34 51q12 -29 49 -47.5t86 -18.5q57 0 96 30.5t39 79.5q0 40 -24.5 61.5t-67.5 36.5l-20 7q-21 8 -35.5 15t-33 20.5t-28.5 35t-10 49.5q0 57 47 96t115 39q75 0 137 -47l-29 -46q-11 25 -41.5 41t-72.5 16q-48 0 -83 -27.5t-35 -66.5
q0 -37 22.5 -57t60.5 -33l21 -8q55 -18 85 -48t30 -80q0 -64 -50.5 -107t-129.5 -43z" />
    <glyph glyph-name="t" unicode="t" horiz-adv-x="344" 
d="M157 -12q-55 0 -76.5 37.5t-7.5 103.5l66 316h-76l8 34h76l18 85h36l-17 -85h143l-8 -34h-143l-65 -318q-21 -105 52 -105q24 0 50 11.5t33 25.5l17 -45q-62 -26 -106 -26z" />
    <glyph glyph-name="u" unicode="u" horiz-adv-x="503" 
d="M172 -13q-66 0 -91.5 48t-8.5 139l36 185q10 51 11 73.5t-10 46.5h61l-59 -302q-30 -154 68 -154q43 0 95 36t94 91l40 209q19 95 4 120h59l-69 -355q-18 -96 -6 -124h-53l15 88h-3q-89 -101 -183 -101z" />
    <glyph glyph-name="v" unicode="v" horiz-adv-x="437" 
d="M157 0l-62 373q-12 82 -36 106h55l55 -325q15 -98 16 -116h4q29 59 106 194t90 160q35 64 24 87h59q-17 -42 -125.5 -233t-132.5 -246h-53z" />
    <glyph glyph-name="w" unicode="w" horiz-adv-x="655" 
d="M122 0l-33 375q-7 79 -25 104h54l27 -322q8 -100 7 -119h7q18 46 49 112.5t64.5 135.5t43.5 91q36 80 32 102h62l22 -322q5 -86 4 -119h7q19 49 73 157t88.5 186.5t27.5 97.5h49q-12 -42 -103 -228.5t-113 -250.5h-60l-24 354q-4 83 -5 86h-1q-9 -30 -32 -80
q-19 -42 -57.5 -122t-64 -137.5t-40.5 -100.5h-59z" />
    <glyph glyph-name="x" unicode="x" horiz-adv-x="426" 
d="M311 79q18 -39 26 -52.5t22 -26.5h-53l-84 182l-19 44l-32 -39l-95 -118q-43 -52 -42 -69h-57l211 255l-66 146q-21 44 -27.5 55.5t-19.5 22.5h51l73 -161l20 -47l33 42l80 97q41 49 41 69h57l-196 -235z" />
    <glyph glyph-name="y" unicode="y" horiz-adv-x="428" 
d="M-14 -200q-12 0 -50 7l20 51q13 -22 40 -22q80 0 150 129l13 24l-64 382q-9 50 -16 72t-20 36h54l49 -282q13 -75 23 -159h4q28 59 83 162l101 188q23 43 30 62t-1 29h59l-282 -528q-81 -151 -193 -151z" />
    <glyph glyph-name="z" unicode="z" horiz-adv-x="417" 
d="M414 479l-5 -31l-365 -412h188q58 0 80 3t38 15l-10 -54h-353l5 32l365 412h-159q-52 0 -71.5 -3.5t-36.5 -14.5l11 53h313z" />
    <glyph glyph-name="braceleft" unicode="{" horiz-adv-x="329" 
d="M204 -158l-39 6q-48 8 -71 25t-23 58q0 37 32.5 137t32.5 136q0 68 -85 54l8 40q52 -9 78 15t34 62q9 46 13 110t10 94q13 66 46 89.5t91 31.5l41 6l-9 -42l-34 4q-41 5 -63 -15.5t-32 -73.5q-6 -34 -11 -98t-13 -104q-15 -83 -84 -98v-2q48 -12 48 -70q0 -44 -32 -144.5
t-32 -133.5q0 -59 66 -51l36 4z" />
    <glyph glyph-name="bar" unicode="|" horiz-adv-x="438" 
d="M108 -145q15 20 27 80l133 691q10 55 3 71h59q-15 -22 -24 -71l-134 -691q-12 -65 -5 -80h-59z" />
    <glyph glyph-name="braceright" unicode="}" horiz-adv-x="329" 
d="M-30 -158l8 41l35 -4q41 -5 63 16t32 74q6 34 11 98.5t12 103.5q17 83 85 98v2q-48 10 -48 69q0 45 32 145.5t32 132.5q0 59 -66 52l-36 -4l8 40l39 -6q48 -8 71 -25t23 -58q0 -37 -32.5 -137t-32.5 -136q0 -68 85 -54l-8 -41q-52 9 -78.5 -14.5t-33.5 -61.5
q-9 -46 -13 -110t-10 -95q-12 -65 -45.5 -88.5t-91.5 -31.5z" />
    <glyph glyph-name="asciitilde" unicode="~" horiz-adv-x="415" 
d="M275 280q-33 0 -76.5 39t-63.5 39q-46 0 -58 -61l-37 2q9 43 36 71t66 28q32 0 75.5 -38.5t64.5 -38.5q45 0 56 60l37 -2q-9 -42 -36.5 -70.5t-63.5 -28.5z" />
    <glyph glyph-name="exclamdown" unicode="&#xa1;" horiz-adv-x="247" 
d="M182 507q15 0 25.5 -9.5t10.5 -24.5q0 -21 -16 -37.5t-37 -16.5q-15 0 -25.5 9.5t-10.5 25.5q0 21 16 37t37 16zM164 315l-68 -352q-12 -61 -14 -86.5t5 -51.5h-75q15 19 23.5 45.5t21.5 92.5l69 352h38z" />
    <glyph glyph-name="cent" unicode="&#xa2;" horiz-adv-x="463" 
d="M321 491q18 0 34 -2.5t31 -7t23.5 -8t23.5 -10t18 -7.5l-32 -51q-26 49 -105 50l-85 -431q92 0 140 51l11 -51q-4 -1 -28.5 -9t-40 -12.5t-41.5 -9.5t-48 -5q-11 -68 -6 -86l-56 1q13 23 26 87q-134 15 -134 161q0 139 64 231.5t168 106.5q12 72 7 90h57q-16 -26 -27 -88
zM93 158q0 -116 101 -132l83 426q-82 -14 -133 -95t-51 -199z" />
    <glyph glyph-name="sterling" unicode="&#xa3;" horiz-adv-x="492" 
d="M346 615q59 0 118 -32l-22 -53q-22 51 -102 51q-70 0 -111.5 -55.5t-41.5 -149.5q0 -38 9 -87h104q40 0 58 9l-10 -51q-16 8 -54 8h-92q6 -40 6 -61q0 -116 -77 -159h128q107 0 138 15l-10 -55q-38 5 -135 5h-225q13 16 16 32h1v2q55 0 88.5 42.5t33.5 110.5q0 28 -7 68
h-21q-39 0 -58 -8l10 51q15 -9 54 -9h10q-8 40 -8 82q0 112 56 178t144 66z" />
    <glyph glyph-name="currency" unicode="&#xa4;" horiz-adv-x="544" 
d="M384 175q40 -49 61 -57l-49 -42q-4 22 -43 73q-52 -36 -112 -36t-98 35q-60 -52 -72 -72l-32 42q23 8 83 56q-18 30 -18 70q0 79 59 140q-40 49 -61 57l49 42q4 -22 43 -73q52 35 111 35q60 0 98 -35q61 53 71 72l34 -41q-24 -9 -84 -56q19 -32 19 -71q0 -80 -59 -139z
M146 247q0 -45 27 -70.5t75 -25.5q65 0 108.5 46t43.5 114q0 45 -27.5 70.5t-74.5 25.5q-64 0 -108 -46t-44 -114z" />
    <glyph glyph-name="yen" unicode="&#xa5;" horiz-adv-x="496" 
d="M434 603h67q-29 -26 -90 -104l-167 -218h75q41 0 58 10l-8 -45h-146l-12 -66h145l-9 -45q-14 10 -54 10h-89l-8 -42q-14 -79 -6 -103h-71q22 29 36 103l8 42h-89q-41 0 -58 -10l9 45h145l12 66h-144l8 45q14 -10 54 -10h75l-82 218q-27 71 -49 104h68q-7 -25 18 -88
l83 -219l169 219q46 61 51 79q1 5 1 9z" />
    <glyph glyph-name="brokenbar" unicode="&#xa6;" horiz-adv-x="438" 
d="M254 610h59q-14 -24 -24 -72l-37 -190q-8 -41 -8 -64h6q-1 -1 -2.5 -3.5t-2.5 -3.5q0 -5 2 -9h-6q-8 -18 -16 -56l-36 -189q-11 -63 -5 -80h-59q15 20 27 80l36 189q6 39 6 56h-6q4 3 5 8q0 4 -2 8h7q10 23 17 64l36 190q10 54 3 72z" />
    <glyph glyph-name="section" unicode="&#xa7;" horiz-adv-x="629" 
d="M221 -96q-49 0 -89 14.5t-57 31.5l17 89q8 -42 45 -70.5t88 -28.5q58 0 104 50t46 112q0 35 -19.5 68.5t-47.5 62t-56.5 59t-48 69.5t-19.5 82q0 95 68 161.5t165 66.5q48 0 86 -15.5t52 -31.5l-16 -86q-4 42 -41 70t-86 28q-47 0 -85.5 -52t-38.5 -115q0 -36 19.5 -69.5
t48 -61.5t56.5 -57t47.5 -67.5t19.5 -80.5q0 -99 -73 -164t-185 -65zM348 -35q42 23 68 66.5t26 93.5q0 38 -19.5 74t-48 64.5t-56.5 57t-47.5 64.5t-19.5 75q0 36 16 77t40 70q-39 -24 -63 -66.5t-24 -87.5q0 -39 19.5 -76t48 -67t56.5 -59.5t47.5 -66t19.5 -74.5
q0 -37 -17 -76.5t-46 -68.5z" />
    <glyph glyph-name="dieresis" unicode="&#xa8;" horiz-adv-x="359" 
d="M185 599q-13 0 -21 8t-8 21q0 16 13 29t30 13q12 0 20 -8t8 -21q0 -16 -12.5 -29t-29.5 -13zM314 599q-13 0 -21 8t-8 21q0 16 13 29t30 13q13 0 21 -8t8 -21q0 -16 -13 -29t-30 -13z" />
    <glyph glyph-name="copyright" unicode="&#xa9;" horiz-adv-x="636" 
d="M266 -11q-96 0 -158 60t-62 153q0 132 94.5 225t229.5 93q97 0 158.5 -59.5t61.5 -152.5q0 -131 -95 -225t-229 -94zM273 25q111 0 194.5 83t83.5 193q0 81 -52.5 132.5t-135.5 51.5q-111 0 -194.5 -82.5t-83.5 -193.5q0 -81 52.5 -132.5t135.5 -51.5zM292 101
q-106 0 -106 104q0 91 46 147.5t120 56.5q12 0 71 -8l-11 -51q-22 26 -65 26q-55 0 -89 -47t-34 -117q0 -78 75 -78q43 0 76 26l-10 -51q-56 -8 -73 -8z" />
    <glyph glyph-name="ordfeminine" unicode="&#xaa;" horiz-adv-x="370" 
d="M122 272q-43 0 -69.5 21t-26.5 61q0 66 54 102.5t151 36.5h56l6 32q10 52 -6.5 77.5t-65.5 25.5q-34 0 -66.5 -14.5t-49.5 -33.5l-10 45q2 0 50.5 19t83.5 19q129 0 103 -138l-29 -150q-14 -70 -6 -94h-51l13 64h-2q-55 -73 -135 -73zM132 305q68 0 136 88l12 66h-56
q-157 0 -157 -99q0 -27 18 -41t47 -14z" />
    <glyph glyph-name="guillemotleft" unicode="&#xab;" horiz-adv-x="442" 
d="M177 91q-46 98 -126 142l8 39q99 44 180 141l17 -18q-76 -94 -164 -143q72 -56 108 -145zM317 91q-46 98 -126 142l8 39q99 44 180 141l17 -18q-76 -94 -164 -143q72 -56 108 -145z" />
    <glyph glyph-name="logicalnot" unicode="&#xac;" horiz-adv-x="394" 
d="M346 335q-10 -17 -19 -59l-9 -44q-8 -39 -2 -59h-59q14 20 22 59l12 61h-157q-68 0 -94 -10l11 63q22 -11 91 -11h204z" />
    <glyph glyph-name="uni00AD" unicode="&#xad;" horiz-adv-x="314" 
d="M41 236l8 37h230l-8 -37h-230z" />
    <glyph glyph-name="registered" unicode="&#xae;" horiz-adv-x="563" 
d="M370 708q85 0 140 -54.5t55 -136.5q0 -115 -83 -196.5t-203 -81.5q-86 0 -140.5 54t-54.5 136q0 116 82.5 197.5t203.5 81.5zM286 272q101 0 172.5 70t71.5 170q0 70 -47 116.5t-120 46.5q-101 0 -172.5 -70t-71.5 -170q0 -70 47 -116.5t120 -46.5zM353 613q40 0 61 -17
t21 -47q0 -40 -24.5 -68.5t-64.5 -36.5l24 -54q17 -38 30 -52h-54q6 14 -8 43l-26 60h-46l-11 -53q-7 -30 -2 -50h-49q11 17 18 50l34 175q6 34 1 50h96zM324 469q34 0 55.5 20.5t21.5 53.5q0 41 -54 41h-54l-23 -115h54z" />
    <glyph glyph-name="macron" unicode="&#xaf;" horiz-adv-x="360" 
d="M151 607l7 35h200l-7 -35h-200z" />
    <glyph glyph-name="degree" unicode="&#xb0;" horiz-adv-x="375" 
d="M162 410q-48 0 -79 31t-31 78q0 61 49.5 109.5t112.5 48.5q48 0 78.5 -31t30.5 -77q0 -61 -49.5 -110t-111.5 -49zM168 443q46 0 82.5 37t36.5 84q0 35 -22 57.5t-58 22.5q-47 0 -83.5 -37t-36.5 -84q0 -35 22.5 -57.5t58.5 -22.5z" />
    <glyph glyph-name="plusminus" unicode="&#xb1;" horiz-adv-x="477" 
d="M341 335q69 0 95 11l-13 -61q-23 10 -89 10h-58l-8 -41q-13 -67 -8 -93h-62q18 29 30 93l8 41h-58q-69 0 -94 -10l11 61q21 -11 91 -11h57l8 41q14 69 7 93h62q-15 -28 -28 -93l-8 -41h57zM143 114h155q68 0 95 11l-13 -60q-21 10 -89 10h-156q-68 0 -94 -10l11 60
q25 -11 91 -11z" />
    <glyph glyph-name="uni00B2" unicode="&#xb2;" horiz-adv-x="352" 
d="M85 398l4 28q128 85 185.5 141.5t57.5 114.5q0 31 -17.5 49t-47.5 18q-32 0 -61 -16.5t-48 -43.5l-17 40q8 2 29.5 16t48 24.5t54.5 10.5q42 0 69 -24.5t27 -67.5q0 -67 -56.5 -126.5t-166.5 -132.5h116q59 0 85 15l-9 -46h-253z" />
    <glyph glyph-name="uni00B3" unicode="&#xb3;" horiz-adv-x="385" 
d="M241 386q-42 0 -83.5 25t-48.5 27l36 44q28 -66 102 -66q43 0 73.5 27t30.5 65q0 64 -127 64l6 29q62 0 101.5 26.5t39.5 67.5q0 26 -17.5 40.5t-47.5 14.5q-54 0 -107 -53l-14 42q8 2 51.5 21.5t75.5 19.5q42 0 69 -20.5t27 -57.5q0 -39 -26.5 -69.5t-71.5 -43.5
q34 -5 55.5 -24.5t21.5 -51.5q0 -52 -43 -89.5t-103 -37.5z" />
    <glyph glyph-name="acute" unicode="&#xb4;" horiz-adv-x="325" 
d="M162 574l-13 20q91 60 164 156l26 -28q-74 -92 -177 -148z" />
    <glyph glyph-name="uni00B5" unicode="&#xb5;" horiz-adv-x="541" 
d="M495 479l-72 -376q-15 -76 -8 -103h-55q3 14 23 98h-3q-79 -110 -184 -110q-67 0 -95 55l-18 -93q-14 -72 -3 -103h-71q19 24 35 103l62 315l22 111q14 77 6 103h52l-41 -214l-5 -28l-18 -91q-11 -56 11.5 -88t72.5 -32q100 0 187 127l44 223q14 73 8 103h50z" />
    <glyph glyph-name="paragraph" unicode="&#xb6;" horiz-adv-x="498" 
d="M92 -74l12 60q52 -16 83 12.5t42 87.5l45 231q-31 -11 -66 -11q-69 0 -104.5 38t-35.5 98q0 95 68 157.5t171 62.5h114l-8 -45q-14 7 -41 7l-104 -538q-15 -75 -59 -117.5t-117 -42.5zM225 342q28 0 56 11l53 271h-53z" />
    <glyph glyph-name="periodcentered" unicode="&#xb7;" horiz-adv-x="226" 
d="M116 271q-17 0 -28 11t-11 28q0 25 18 44t42 19q17 0 27.5 -11t10.5 -29q0 -25 -18 -43.5t-41 -18.5z" />
    <glyph glyph-name="cedilla" unicode="&#xb8;" horiz-adv-x="309" 
d="M17 -205l-1 31q124 4 124 56q0 20 -16 30t-53 15l33 76h27l-23 -55q35 -7 52 -21t17 -40q0 -47 -38 -67t-122 -25z" />
    <glyph glyph-name="uni00B9" unicode="&#xb9;" horiz-adv-x="355" 
d="M145 398l5 27l95 11l53 269h-85l6 27q77 0 126 38l-65 -334l85 -11l-4 -27h-216z" />
    <glyph glyph-name="ordmasculine" unicode="&#xba;" horiz-adv-x="376" 
d="M150 272q-55 0 -87.5 32.5t-32.5 97.5q0 111 56.5 186t139.5 75q55 0 87.5 -32.5t32.5 -98.5q0 -112 -56 -186t-140 -74zM157 306q64 0 107.5 63.5t43.5 157.5q0 101 -88 101q-64 0 -107.5 -63.5t-43.5 -157.5q0 -101 88 -101z" />
    <glyph glyph-name="guillemotright" unicode="&#xbb;" horiz-adv-x="463" 
d="M63 91l-17 16q74 91 165 145q-73 56 -109 143l24 18q45 -98 126 -141l-7 -39q-96 -43 -182 -142zM223 91l-17 16q74 91 165 145q-73 56 -109 143l24 18q45 -98 126 -141l-7 -39q-96 -43 -182 -142z" />
    <glyph glyph-name="onequarter" unicode="&#xbc;" horiz-adv-x="778" 
d="M198 -12l492 680h36l-492 -680h-36zM80 269l5 27l95 11l52 270h-85l6 27q78 0 126 37l-65 -334l86 -11l-5 -27h-215zM594 0q20 24 32 86l5 24h-177l5 25l228 252h31l-48 -247q42 0 61 13l-9 -43h-58l-5 -24q-12 -65 -2 -86h-63zM499 140h138l37 195z" />
    <glyph glyph-name="onehalf" unicode="&#xbd;" horiz-adv-x="842" 
d="M186 -12l492 680h36l-492 -680h-36zM80 269l5 27l95 11l52 270h-85l6 27q78 0 126 37l-65 -334l86 -11l-5 -27h-215zM498 0l5 28q128 85 185 141.5t57 114.5q0 31 -17.5 49t-47.5 18q-31 0 -60.5 -17t-47.5 -43l-18 40q8 2 29.5 16t48 24.5t54.5 10.5q42 0 69 -24.5
t27 -67.5q0 -67 -56.5 -126.5t-166.5 -132.5h116q59 0 86 15l-9 -46h-254z" />
    <glyph glyph-name="threequarters" unicode="&#xbe;" horiz-adv-x="800" 
d="M223 -12l493 680h36l-493 -680h-36zM216 257q-42 0 -83.5 25t-48.5 27l36 44q28 -66 102 -66q43 0 73.5 27t30.5 65q0 64 -127 64l6 29q62 0 101.5 26.5t39.5 67.5q0 26 -17.5 40.5t-47.5 14.5q-54 0 -107 -53l-14 42q8 2 51.5 21.5t75.5 19.5q42 0 69 -20.5t27 -57.5
q0 -39 -26.5 -69.5t-71.5 -43.5q34 -5 55.5 -24.5t21.5 -51.5q0 -52 -43 -89.5t-103 -37.5zM616 0q20 24 32 86l4 24h-176l5 25l228 252h30l-48 -247q43 0 61 13l-8 -43h-58l-5 -24q-12 -65 -2 -86h-63zM521 140h137l38 195z" />
    <glyph glyph-name="questiondown" unicode="&#xbf;" horiz-adv-x="399" 
d="M287 495q16 0 25.5 -8.5t9.5 -22.5q0 -21 -14.5 -36t-35.5 -15q-16 0 -25.5 8.5t-9.5 22.5q0 21 14.5 36t35.5 15zM274 296q-12 -60 -40 -103t-59 -67t-60.5 -47t-49 -57t-19.5 -83q0 -44 27.5 -69t74.5 -25q42 0 83 19.5t62 47.5l20 -55q-14 -1 -72.5 -24t-100.5 -23
q-62 0 -99 32t-37 90q0 57 20 96t50 63.5t61.5 47.5t59.5 62.5t39 94.5h40z" />
    <glyph glyph-name="Agrave" unicode="&#xc0;" horiz-adv-x="558" 
d="M390 720q-85 61 -120 148l34 26q34 -97 103 -157zM498 0h-73q13 21 2 107l-17 111h-271l-60 -111q-42 -77 -38 -107h-74q30 32 74 113l250 458q6 11 15.5 29t12.5 24.5t6 16t4 18.5h62q-6 -21 5 -88l72 -458q12 -78 30 -113zM158 253l247 1l-53 362z" />
    <glyph glyph-name="Aacute" unicode="&#xc1;" horiz-adv-x="558" 
d="M529 868q-74 -92 -177 -148l-13 20q91 60 164 156zM396 571l72 -458q12 -78 30 -113h-73q13 21 2 107l-17 111h-271l-60 -111q-42 -77 -38 -107h-74q30 32 74 113l250 458q6 11 15.5 29t12.5 24.5t6 16t4 18.5h62q-6 -21 5 -88zM158 253l247 1l-53 362z" />
    <glyph glyph-name="Acircumflex" unicode="&#xc2;" horiz-adv-x="558" 
d="M397 846q-63 -74 -145 -127l-13 19q83 62 145 145h38q34 -89 89 -145l-20 -19q-57 51 -90 127h-4zM396 571l72 -458q12 -78 30 -113h-73q13 21 2 107l-17 111h-271l-60 -111q-42 -77 -38 -107h-74q30 32 74 113l250 458q6 11 15.5 29t12.5 24.5t6 16t4 18.5h62
q-6 -21 5 -88zM158 253l247 1l-53 362z" />
    <glyph glyph-name="Atilde" unicode="&#xc3;" horiz-adv-x="558" 
d="M504 831l40 -2q-32 -95 -102 -95q-21 0 -39 13.5t-28 29t-24 29t-29 13.5q-50 0 -54 -67l-41 2q31 96 102 96q22 0 39.5 -13.5t27.5 -29.5t24 -29.5t29 -13.5q47 0 55 67zM396 571l72 -458q12 -78 30 -113h-73q13 21 2 107l-17 111h-271l-60 -111q-42 -77 -38 -107h-74
q30 32 74 113l250 458q6 11 15.5 29t12.5 24.5t6 16t4 18.5h62q-6 -21 5 -88zM158 253l247 1l-53 362z" />
    <glyph glyph-name="Adieresis" unicode="&#xc4;" horiz-adv-x="558" 
d="M315 745q-13 0 -21 8t-8 21q0 16 13 29t30 13q12 0 20 -8t8 -21q0 -16 -12.5 -29t-29.5 -13zM444 745q-13 0 -21 8t-8 21q0 16 13 29t30 13q13 0 21 -8t8 -21q0 -16 -13 -29t-30 -13zM498 0h-73q13 21 2 107l-17 111h-271l-60 -111q-42 -77 -38 -107h-74q30 32 74 113
l250 458q6 11 15.5 29t12.5 24.5t6 16t4 18.5h62q-6 -21 5 -88l72 -458q12 -78 30 -113zM158 253l247 1l-53 362z" />
    <glyph glyph-name="Aring" unicode="&#xc5;" horiz-adv-x="558" 
d="M373 717q-34 0 -54.5 17t-20.5 46q0 40 30.5 68t74.5 28q34 0 54.5 -17t20.5 -46q0 -40 -30.5 -68t-74.5 -28zM399 849q-30 0 -49 -18.5t-19 -47.5q0 -39 47 -39q29 0 48 18.5t19 47.5q0 39 -46 39zM498 0h-73q13 21 2 107l-17 111h-271l-60 -111q-42 -77 -38 -107h-74
q30 32 74 113l250 458q6 11 15.5 29t12.5 24.5t6 16t4 18.5h62q-6 -21 5 -88l72 -458q12 -78 30 -113zM158 253l247 1l-53 362z" />
    <glyph glyph-name="AE" unicode="&#xc6;" horiz-adv-x="798" 
d="M707 -7q-29 7 -127 7h-236q19 32 34 103l23 117h-226l-74 -99q-63 -86 -65 -121h-77q35 31 112 136l300 408q65 89 70 115h271q76 0 115 6l-11 -56q-31 15 -111 15h-184l-50 -256h127q91 0 122 10l-11 -55q-27 10 -118 10h-127l-58 -297h180q100 0 132 15zM200 255h208
l71 368h-8z" />
    <glyph glyph-name="Ccedilla" unicode="&#xc7;" horiz-adv-x="560" 
d="M397 672q84 0 174 -57l-32 -50q-13 27 -55.5 48t-92.5 21q-123 0 -204.5 -116.5t-81.5 -290.5q0 -201 173 -201q122 0 186 64l14 -56q-111 -41 -182 -45l-17 -41q35 -7 52 -21t17 -40q0 -47 -38 -67t-122 -25l-1 31q124 4 124 56q0 20 -16 30t-53 15l26 61
q-98 1 -153 59.5t-55 175.5q0 193 95.5 321t241.5 128z" />
    <glyph glyph-name="Egrave" unicode="&#xc8;" 
d="M359 718q-85 61 -120 148l34 26q34 -97 103 -157zM392 -5q-40 5 -184 5h-188q13 16 19 34t16 68l88 454q15 78 5 103h178q145 0 181 6l-10 -54q-25 13 -177 13h-123l-50 -256h105q129 0 155 12l-11 -59q-24 12 -150 12h-105l-59 -297h133q159 0 188 12z" />
    <glyph glyph-name="Eacute" unicode="&#xc9;" 
d="M321 718l-13 20q91 60 164 156l26 -28q-74 -92 -177 -148zM392 -5q-40 5 -184 5h-188q13 16 19 34t16 68l88 454q15 78 5 103h178q145 0 181 6l-10 -54q-25 13 -177 13h-123l-50 -256h105q129 0 155 12l-11 -59q-24 12 -150 12h-105l-59 -297h133q159 0 188 12z" />
    <glyph glyph-name="Ecircumflex" unicode="&#xca;" 
d="M221 717l-13 19q83 62 145 145h38q34 -89 89 -145l-20 -19q-57 51 -90 127h-4q-63 -74 -145 -127zM392 -5q-40 5 -184 5h-188q13 16 19 34t16 68l88 454q15 78 5 103h178q145 0 181 6l-10 -54q-25 13 -177 13h-123l-50 -256h105q129 0 155 12l-11 -59q-24 12 -150 12
h-105l-59 -297h133q159 0 188 12z" />
    <glyph glyph-name="Edieresis" unicode="&#xcb;" 
d="M283 743q-13 0 -21 8t-8 21q0 16 13 29t30 13q12 0 20 -8t8 -21q0 -16 -12.5 -29t-29.5 -13zM412 743q-13 0 -21 8t-8 21q0 16 13 29t30 13q13 0 21 -8t8 -21q0 -16 -13 -29t-30 -13zM392 -5q-40 5 -184 5h-188q13 16 19 34t16 68l88 454q15 78 5 103h178q145 0 181 6
l-10 -54q-25 13 -177 13h-123l-50 -256h105q129 0 155 12l-11 -59q-24 12 -150 12h-105l-59 -297h133q159 0 188 12z" />
    <glyph glyph-name="Igrave" unicode="&#xcc;" horiz-adv-x="205" 
d="M213 720q-85 61 -120 148l34 26q34 -97 103 -157zM20 0q20 27 35 103l89 453q9 46 10 62t-6 41h71q-19 -26 -34 -103l-89 -453q-15 -75 -5 -103h-71z" />
    <glyph glyph-name="Iacute" unicode="&#xcd;" horiz-adv-x="205" 
d="M175 720l-13 20q91 60 164 156l26 -28q-74 -92 -177 -148zM20 0q20 27 35 103l89 453q9 46 10 62t-6 41h71q-19 -26 -34 -103l-89 -453q-15 -75 -5 -103h-71z" />
    <glyph glyph-name="Icircumflex" unicode="&#xce;" horiz-adv-x="205" 
d="M76 719l-13 19q83 62 145 145h38q34 -89 89 -145l-20 -19q-57 51 -90 127h-4q-63 -74 -145 -127zM20 0q20 27 35 103l89 453q9 46 10 62t-6 41h71q-19 -26 -34 -103l-89 -453q-15 -75 -5 -103h-71z" />
    <glyph glyph-name="Idieresis" unicode="&#xcf;" horiz-adv-x="205" 
d="M138 745q-13 0 -21 8t-8 21q0 16 13 29t30 13q12 0 20 -8t8 -21q0 -16 -12.5 -29t-29.5 -13zM267 745q-13 0 -21 8t-8 21q0 16 13 29t30 13q13 0 21 -8t8 -21q0 -16 -13 -29t-30 -13zM20 0q20 27 35 103l89 453q9 46 10 62t-6 41h71q-19 -26 -34 -103l-89 -453
q-15 -75 -5 -103h-71z" />
    <glyph glyph-name="Eth" unicode="&#xd0;" horiz-adv-x="599" 
d="M304 659q124 0 194.5 -63t70.5 -178q0 -198 -102.5 -308t-287.5 -110h-149q13 16 18.5 34t16.5 69l41 211h-59l8 35h58l41 207q15 79 4 103h146zM185 36q157 0 249 99t92 278q0 101 -61.5 155.5t-169.5 54.5h-88l-53 -274h153l-8 -35h-152l-54 -278h92z" />
    <glyph glyph-name="Ntilde" unicode="&#xd1;" horiz-adv-x="602" 
d="M470 734q-21 0 -39 13.5t-28 29t-24 29t-29 13.5q-50 0 -54 -67l-41 2q31 96 102 96q22 0 39.5 -13.5t27.5 -29.5t24 -29.5t29 -13.5q47 0 55 67l40 -2q-32 -95 -102 -95zM20 0q20 28 35 103l88 453q15 75 5 103h62l239 -590h4q5 61 20 135l69 352q14 79 4 103h70
q-19 -28 -34 -103l-88 -449q-15 -75 -12 -107h-49l-244 602h-3q-5 -50 -20 -133l-71 -366q-15 -77 -5 -103h-70z" />
    <glyph glyph-name="Ograve" unicode="&#xd2;" horiz-adv-x="643" 
d="M430 720q-85 61 -120 148l34 26q34 -97 103 -157zM275 -12q-94 0 -154 63.5t-60 175.5q0 189 96.5 316.5t244.5 127.5q94 0 154 -63t60 -175q0 -123 -43.5 -224.5t-122 -161t-175.5 -59.5zM281 24q121 0 207 118.5t86 285.5q0 100 -49.5 153.5t-128.5 53.5
q-123 0 -208 -117t-85 -286q0 -101 49.5 -154.5t128.5 -53.5z" />
    <glyph glyph-name="Oacute" unicode="&#xd3;" horiz-adv-x="643" 
d="M392 720l-13 20q91 60 164 156l26 -28q-74 -92 -177 -148zM275 -12q-94 0 -154 63.5t-60 175.5q0 189 96.5 316.5t244.5 127.5q94 0 154 -63t60 -175q0 -123 -43.5 -224.5t-122 -161t-175.5 -59.5zM281 24q121 0 207 118.5t86 285.5q0 100 -49.5 153.5t-128.5 53.5
q-123 0 -208 -117t-85 -286q0 -101 49.5 -154.5t128.5 -53.5z" />
    <glyph glyph-name="Ocircumflex" unicode="&#xd4;" horiz-adv-x="643" 
d="M293 719l-13 19q83 62 145 145h38q34 -89 89 -145l-20 -19q-57 51 -90 127h-4q-63 -74 -145 -127zM275 -12q-94 0 -154 63.5t-60 175.5q0 189 96.5 316.5t244.5 127.5q94 0 154 -63t60 -175q0 -123 -43.5 -224.5t-122 -161t-175.5 -59.5zM281 24q121 0 207 118.5
t86 285.5q0 100 -49.5 153.5t-128.5 53.5q-123 0 -208 -117t-85 -286q0 -101 49.5 -154.5t128.5 -53.5z" />
    <glyph glyph-name="Otilde" unicode="&#xd5;" horiz-adv-x="643" 
d="M482 734q-21 0 -39 13.5t-28 29t-24 29t-29 13.5q-50 0 -54 -67l-41 2q31 96 102 96q22 0 39.5 -13.5t27.5 -29.5t24 -29.5t29 -13.5q47 0 55 67l40 -2q-32 -95 -102 -95zM275 -12q-94 0 -154 63.5t-60 175.5q0 189 96.5 316.5t244.5 127.5q94 0 154 -63t60 -175
q0 -123 -43.5 -224.5t-122 -161t-175.5 -59.5zM281 24q121 0 207 118.5t86 285.5q0 100 -49.5 153.5t-128.5 53.5q-123 0 -208 -117t-85 -286q0 -101 49.5 -154.5t128.5 -53.5z" />
    <glyph glyph-name="Odieresis" unicode="&#xd6;" horiz-adv-x="643" 
d="M355 745q-13 0 -21 8t-8 21q0 16 13 29t30 13q12 0 20 -8t8 -21q0 -16 -12.5 -29t-29.5 -13zM484 745q-13 0 -21 8t-8 21q0 16 13 29t30 13q13 0 21 -8t8 -21q0 -16 -13 -29t-30 -13zM275 -12q-94 0 -154 63.5t-60 175.5q0 189 96.5 316.5t244.5 127.5q94 0 154 -63
t60 -175q0 -123 -43.5 -224.5t-122 -161t-175.5 -59.5zM281 24q121 0 207 118.5t86 285.5q0 100 -49.5 153.5t-128.5 53.5q-123 0 -208 -117t-85 -286q0 -101 49.5 -154.5t128.5 -53.5z" />
    <glyph glyph-name="multiply" unicode="&#xd7;" horiz-adv-x="456" 
d="M307 186q37 -46 62 -57l-52 -44q-7 27 -43 73l-51 63l-76 -64q-58 -51 -71 -73l-36 44q29 10 84 57l76 64l-50 63q-38 47 -63 57l53 44q7 -26 43 -73l50 -63l76 64q4 3 18.5 15.5t18.5 16t13 12t13.5 15t8.5 13.5l35 -43q-26 -10 -84 -58l-76 -63z" />
    <glyph glyph-name="Oslash" unicode="&#xd8;" horiz-adv-x="656" 
d="M571 590q45 -63 45 -157q0 -187 -97 -316t-243 -129q-97 0 -155 64l-47 -56l-27 20l53 63q-39 59 -39 147q0 190 96.5 317.5t244.5 127.5q88 0 146 -55l37 44l27 -21zM104 231q0 -67 24 -117l394 470q-47 50 -126 50q-123 0 -207.5 -116.5t-84.5 -286.5zM282 24
q121 0 206.5 118t85.5 285q0 79 -31 129l-396 -472q49 -60 135 -60z" />
    <glyph glyph-name="Ugrave" unicode="&#xd9;" horiz-adv-x="585" 
d="M403 720q-85 61 -120 148l34 26q34 -97 103 -157zM245 -12q-94 0 -145 60.5t-24 201.5l59 306q9 46 10 62.5t-6 40.5h72q-19 -23 -35 -103l-58 -304q-44 -227 133 -227q80 0 141.5 54t85.5 177l58 300q15 78 4 103h69q-19 -29 -34 -103l-60 -304q-51 -264 -270 -264z" />
    <glyph glyph-name="Uacute" unicode="&#xda;" horiz-adv-x="585" 
d="M365 720l-13 20q91 60 164 156l26 -28q-74 -92 -177 -148zM245 -12q-94 0 -145 60.5t-24 201.5l59 306q9 46 10 62.5t-6 40.5h72q-19 -23 -35 -103l-58 -304q-44 -227 133 -227q80 0 141.5 54t85.5 177l58 300q15 78 4 103h69q-19 -29 -34 -103l-60 -304
q-51 -264 -270 -264z" />
    <glyph glyph-name="Ucircumflex" unicode="&#xdb;" horiz-adv-x="585" 
d="M265 719l-13 19q83 62 145 145h38q34 -89 89 -145l-20 -19q-57 51 -90 127h-4q-63 -74 -145 -127zM245 -12q-94 0 -145 60.5t-24 201.5l59 306q9 46 10 62.5t-6 40.5h72q-19 -23 -35 -103l-58 -304q-44 -227 133 -227q80 0 141.5 54t85.5 177l58 300q15 78 4 103h69
q-19 -29 -34 -103l-60 -304q-51 -264 -270 -264z" />
    <glyph glyph-name="Udieresis" unicode="&#xdc;" horiz-adv-x="585" 
d="M327 745q-13 0 -21 8t-8 21q0 16 13 29t30 13q12 0 20 -8t8 -21q0 -16 -12.5 -29t-29.5 -13zM456 745q-13 0 -21 8t-8 21q0 16 13 29t30 13q13 0 21 -8t8 -21q0 -16 -13 -29t-30 -13zM245 -12q-94 0 -145 60.5t-24 201.5l59 306q9 46 10 62.5t-6 40.5h72
q-19 -23 -35 -103l-58 -304q-44 -227 133 -227q80 0 141.5 54t85.5 177l58 300q15 78 4 103h69q-19 -29 -34 -103l-60 -304q-51 -264 -270 -264z" />
    <glyph glyph-name="Yacute" unicode="&#xdd;" 
d="M491 868q-74 -92 -177 -148l-13 20q91 60 164 156zM483 659h67q-30 -29 -82 -105l-198 -290l-32 -161q-16 -75 -4 -103h-72q19 24 35 103l33 166l-93 287q-26 80 -42 103h65q-5 -26 17 -95l81 -261l176 260q48 70 49 96z" />
    <glyph glyph-name="Thorn" unicode="&#xde;" horiz-adv-x="501" 
d="M20 0q19 24 35 103l88 453q14 79 5 103h71q-23 -29 -41 -136h102q204 0 204 -153q0 -106 -70.5 -159.5t-196.5 -53.5h-111q-26 -128 -15 -157h-71zM114 193h102q226 0 226 172q0 65 -44.5 93.5t-133.5 28.5h-94z" />
    <glyph glyph-name="germandbls" unicode="&#xdf;" horiz-adv-x="519" 
d="M276 -12q-71 0 -129 42l27 50q26 -56 106 -56q61 0 101.5 40t40.5 102q0 39 -14 69.5t-34 49t-40.5 34.5t-34.5 34.5t-14 40.5q0 28 22 48t48.5 32t49 39.5t22.5 68.5q0 51 -29 78.5t-76 27.5q-52 0 -92 -44.5t-58 -135.5l-80 -406q-15 -76 0 -102h-60l101 510
q43 214 193 214q59 0 100 -37t41 -99q0 -50 -22.5 -84.5t-49 -47.5t-49 -28t-22.5 -30q0 -14 14.5 -29t35 -31t40.5 -36.5t34.5 -54.5t14.5 -77q0 -84 -51.5 -133t-135.5 -49z" />
    <glyph glyph-name="agrave" unicode="&#xe0;" 
d="M339 560q-85 61 -120 148l34 26q34 -97 103 -157zM170 -12q-60 0 -95 43.5t-35 125.5q0 142 76.5 239.5t189.5 97.5q51 0 102 -24l8 16h35l-73 -356q-12 -57 -13.5 -83.5t8.5 -46.5h-45q-6 34 6 82h-4q-33 -42 -76 -68t-84 -26zM175 24q40 0 90.5 39.5t79.5 94.5l55 272
q-43 26 -99 26q-92 0 -155.5 -86.5t-63.5 -210.5q0 -65 25 -100t68 -35z" />
    <glyph glyph-name="aacute" unicode="&#xe1;" 
d="M301 560l-13 20q91 60 164 156l26 -28q-74 -92 -177 -148zM170 -12q-60 0 -95 43.5t-35 125.5q0 142 76.5 239.5t189.5 97.5q51 0 102 -24l8 16h35l-73 -356q-12 -57 -13.5 -83.5t8.5 -46.5h-45q-6 34 6 82h-4q-33 -42 -76 -68t-84 -26zM175 24q40 0 90.5 39.5t79.5 94.5
l55 272q-43 26 -99 26q-92 0 -155.5 -86.5t-63.5 -210.5q0 -65 25 -100t68 -35z" />
    <glyph glyph-name="acircumflex" unicode="&#xe2;" 
d="M201 559l-13 19q83 62 145 145h38q34 -89 89 -145l-20 -19q-57 51 -90 127h-4q-63 -74 -145 -127zM170 -12q-60 0 -95 43.5t-35 125.5q0 142 76.5 239.5t189.5 97.5q51 0 102 -24l8 16h35l-73 -356q-12 -57 -13.5 -83.5t8.5 -46.5h-45q-6 34 6 82h-4q-33 -42 -76 -68
t-84 -26zM175 24q40 0 90.5 39.5t79.5 94.5l55 272q-43 26 -99 26q-92 0 -155.5 -86.5t-63.5 -210.5q0 -65 25 -100t68 -35z" />
    <glyph glyph-name="atilde" unicode="&#xe3;" 
d="M390 574q-21 0 -39 13.5t-28 29t-24 29t-29 13.5q-50 0 -54 -67l-41 2q31 96 102 96q22 0 39.5 -13.5t27.5 -29.5t24 -29.5t29 -13.5q47 0 55 67l40 -2q-32 -95 -102 -95zM170 -12q-60 0 -95 43.5t-35 125.5q0 142 76.5 239.5t189.5 97.5q51 0 102 -24l8 16h35l-73 -356
q-12 -57 -13.5 -83.5t8.5 -46.5h-45q-6 34 6 82h-4q-33 -42 -76 -68t-84 -26zM175 24q40 0 90.5 39.5t79.5 94.5l55 272q-43 26 -99 26q-92 0 -155.5 -86.5t-63.5 -210.5q0 -65 25 -100t68 -35z" />
    <glyph glyph-name="adieresis" unicode="&#xe4;" 
d="M264 585q-13 0 -21 8t-8 21q0 16 13 29t30 13q12 0 20 -8t8 -21q0 -16 -12.5 -29t-29.5 -13zM393 585q-13 0 -21 8t-8 21q0 16 13 29t30 13q13 0 21 -8t8 -21q0 -16 -13 -29t-30 -13zM170 -12q-60 0 -95 43.5t-35 125.5q0 142 76.5 239.5t189.5 97.5q51 0 102 -24l8 16
h35l-73 -356q-12 -57 -13.5 -83.5t8.5 -46.5h-45q-6 34 6 82h-4q-33 -42 -76 -68t-84 -26zM175 24q40 0 90.5 39.5t79.5 94.5l55 272q-43 26 -99 26q-92 0 -155.5 -86.5t-63.5 -210.5q0 -65 25 -100t68 -35z" />
    <glyph glyph-name="aring" unicode="&#xe5;" 
d="M322 557q-34 0 -54.5 17t-20.5 46q0 40 30.5 68t74.5 28q34 0 54.5 -17t20.5 -46q0 -40 -30.5 -68t-74.5 -28zM327 584q29 0 48 18.5t19 47.5q0 39 -46 39q-30 0 -49 -18.5t-19 -47.5q0 -39 47 -39zM170 -12q-60 0 -95 43.5t-35 125.5q0 142 76.5 239.5t189.5 97.5
q51 0 102 -24l8 16h35l-73 -356q-12 -57 -13.5 -83.5t8.5 -46.5h-45q-6 34 6 82h-4q-33 -42 -76 -68t-84 -26zM175 24q40 0 90.5 39.5t79.5 94.5l55 272q-43 26 -99 26q-92 0 -155.5 -86.5t-63.5 -210.5q0 -65 25 -100t68 -35z" />
    <glyph glyph-name="ae" unicode="&#xe6;" horiz-adv-x="765" 
d="M532 233h-145q-19 -105 14.5 -157.5t105.5 -52.5q42 0 90.5 17t72.5 44l9 -50q-24 -17 -76.5 -32t-100.5 -15q-129 0 -155 122q-44 -63 -89.5 -92t-101.5 -29q-60 0 -97 29.5t-37 82.5q0 167 243 167h89q0 2 1 3l7 41q30 145 -100 145q-42 0 -83 -19t-62 -44l-16 47
q9 2 37 16t61 24.5t68 10.5q123 0 138 -106q74 107 187 107q63 0 102.5 -36t39.5 -90q0 -66 -46 -99.5t-156 -33.5zM587 456q-58 0 -116 -51.5t-77 -136.5h140q86 0 122.5 23t36.5 71q0 41 -28 67.5t-78 26.5zM162 22q47 0 86.5 26.5t80.5 85.5l18 99h-87q-196 0 -196 -126
q0 -41 26.5 -63t71.5 -22z" />
    <glyph glyph-name="ccedilla" unicode="&#xe7;" horiz-adv-x="430" 
d="M287 492q70 0 135 -47l-29 -43q-37 54 -111 54q-86 0 -143 -85t-57 -204q0 -72 33.5 -107.5t87.5 -35.5q43 0 85 20.5t66 51.5l12 -51q-73 -53 -156 -58l-16 -38q69 -13 69 -61q0 -47 -38 -67t-122 -25l-1 31q124 4 124 56q0 20 -16 30t-53 15l26 59q-62 5 -102 48.5
t-40 125.5q0 140 69.5 235.5t176.5 95.5z" />
    <glyph glyph-name="egrave" unicode="&#xe8;" horiz-adv-x="465" 
d="M324 560q-85 61 -120 148l34 26q34 -97 103 -157zM201 -13q-72 0 -116 43.5t-44 132.5q0 144 74 236.5t177 92.5q62 0 102 -36t40 -90q0 -66 -46.5 -99.5t-156.5 -33.5h-144q-19 -105 14.5 -157.5t105.5 -52.5q41 0 89.5 17t72.5 44l10 -50q-24 -17 -76.5 -32t-101.5 -15
zM94 268h139q87 0 123.5 23t36.5 71q0 41 -28.5 67.5t-77.5 26.5q-59 0 -116.5 -51t-76.5 -137z" />
    <glyph glyph-name="eacute" unicode="&#xe9;" horiz-adv-x="465" 
d="M286 560l-13 20q91 60 164 156l26 -28q-74 -92 -177 -148zM201 -13q-72 0 -116 43.5t-44 132.5q0 144 74 236.5t177 92.5q62 0 102 -36t40 -90q0 -66 -46.5 -99.5t-156.5 -33.5h-144q-19 -105 14.5 -157.5t105.5 -52.5q41 0 89.5 17t72.5 44l10 -50q-24 -17 -76.5 -32
t-101.5 -15zM94 268h139q87 0 123.5 23t36.5 71q0 41 -28.5 67.5t-77.5 26.5q-59 0 -116.5 -51t-76.5 -137z" />
    <glyph glyph-name="ecircumflex" unicode="&#xea;" horiz-adv-x="465" 
d="M186 559l-13 19q83 62 145 145h38q34 -89 89 -145l-20 -19q-57 51 -90 127h-4q-63 -74 -145 -127zM201 -13q-72 0 -116 43.5t-44 132.5q0 144 74 236.5t177 92.5q62 0 102 -36t40 -90q0 -66 -46.5 -99.5t-156.5 -33.5h-144q-19 -105 14.5 -157.5t105.5 -52.5
q41 0 89.5 17t72.5 44l10 -50q-24 -17 -76.5 -32t-101.5 -15zM94 268h139q87 0 123.5 23t36.5 71q0 41 -28.5 67.5t-77.5 26.5q-59 0 -116.5 -51t-76.5 -137z" />
    <glyph glyph-name="edieresis" unicode="&#xeb;" horiz-adv-x="465" 
d="M248 585q-13 0 -21 8t-8 21q0 16 13 29t30 13q12 0 20 -8t8 -21q0 -16 -12.5 -29t-29.5 -13zM377 585q-13 0 -21 8t-8 21q0 16 13 29t30 13q13 0 21 -8t8 -21q0 -16 -13 -29t-30 -13zM201 -13q-72 0 -116 43.5t-44 132.5q0 144 74 236.5t177 92.5q62 0 102 -36t40 -90
q0 -66 -46.5 -99.5t-156.5 -33.5h-144q-19 -105 14.5 -157.5t105.5 -52.5q41 0 89.5 17t72.5 44l10 -50q-24 -17 -76.5 -32t-101.5 -15zM94 268h139q87 0 123.5 23t36.5 71q0 41 -28.5 67.5t-77.5 26.5q-59 0 -116.5 -51t-76.5 -137z" />
    <glyph glyph-name="igrave" unicode="&#xec;" horiz-adv-x="225" 
d="M182 553q-85 61 -120 148l34 26q34 -97 103 -157zM37 0l69 338q19 97 7 141h61l-74 -361q-19 -91 -2 -118h-61z" />
    <glyph glyph-name="iacute" unicode="&#xed;" horiz-adv-x="225" 
d="M144 553l-13 20q91 60 164 156l26 -28q-74 -92 -177 -148zM37 0l69 338q19 97 7 141h61l-74 -361q-19 -91 -2 -118h-61z" />
    <glyph glyph-name="icircumflex" unicode="&#xee;" horiz-adv-x="225" 
d="M44 552l-13 19q83 62 145 145h38q34 -89 89 -145l-20 -19q-57 51 -90 127h-4q-63 -74 -145 -127zM37 0l69 338q19 97 7 141h61l-74 -361q-19 -91 -2 -118h-61z" />
    <glyph glyph-name="idieresis" unicode="&#xef;" horiz-adv-x="225" 
d="M106 578q-13 0 -21 8t-8 21q0 16 13 29t30 13q12 0 20 -8t8 -21q0 -16 -12.5 -29t-29.5 -13zM235 578q-13 0 -21 8t-8 21q0 16 13 29t30 13q13 0 21 -8t8 -21q0 -16 -13 -29t-30 -13zM37 0l69 338q19 97 7 141h61l-74 -361q-19 -91 -2 -118h-61z" />
    <glyph glyph-name="eth" unicode="&#xf0;" horiz-adv-x="490" 
d="M467 653l-103 -46q82 -110 82 -269q0 -155 -64 -252.5t-183 -97.5q-68 0 -114 50.5t-46 128.5q0 115 64.5 195.5t165.5 80.5q87 0 141 -78q-9 142 -78 228l-110 -49l-10 23l103 46q-47 53 -103 69l24 43q72 -50 110 -95l2 -2l109 48zM206 24q94 0 145.5 81.5t57.5 205.5
q-53 96 -142 96q-82 0 -136 -69.5t-54 -166.5q0 -65 35.5 -106t93.5 -41z" />
    <glyph glyph-name="ntilde" unicode="&#xf1;" horiz-adv-x="501" 
d="M379 567q-21 0 -39 13.5t-28 29t-24 29t-29 13.5q-50 0 -54 -67l-41 2q31 96 102 96q22 0 39.5 -13.5t27.5 -29.5t24 -29.5t29 -13.5q47 0 55 67l40 -2q-32 -95 -102 -95zM37 0l67 336q20 103 9 143h52l-11 -70h4q30 34 78 60t95 26q60 0 93 -42.5t17 -121.5l-44 -211
q-21 -96 -4 -120h-58l66 327q15 71 -9.5 101.5t-70.5 30.5q-45 0 -93 -31t-82 -76l-47 -232q-21 -96 -4 -120h-58z" />
    <glyph glyph-name="ograve" unicode="&#xf2;" horiz-adv-x="510" 
d="M324 553q-85 61 -120 148l34 26q34 -97 103 -157zM217 -13q-79 0 -125.5 50t-46.5 140q0 141 66.5 228t181.5 87q79 0 125 -50t46 -141q0 -141 -66 -227.5t-181 -86.5zM221 24q92 0 146.5 77t54.5 200q0 72 -34.5 113.5t-98.5 41.5q-92 0 -147 -78t-55 -201
q0 -72 34.5 -112.5t99.5 -40.5z" />
    <glyph glyph-name="oacute" unicode="&#xf3;" horiz-adv-x="510" 
d="M286 553l-13 20q91 60 164 156l26 -28q-74 -92 -177 -148zM217 -13q-79 0 -125.5 50t-46.5 140q0 141 66.5 228t181.5 87q79 0 125 -50t46 -141q0 -141 -66 -227.5t-181 -86.5zM221 24q92 0 146.5 77t54.5 200q0 72 -34.5 113.5t-98.5 41.5q-92 0 -147 -78t-55 -201
q0 -72 34.5 -112.5t99.5 -40.5z" />
    <glyph glyph-name="ocircumflex" unicode="&#xf4;" horiz-adv-x="510" 
d="M186 552l-13 19q83 62 145 145h38q34 -89 89 -145l-20 -19q-57 51 -90 127h-4q-63 -74 -145 -127zM217 -13q-79 0 -125.5 50t-46.5 140q0 141 66.5 228t181.5 87q79 0 125 -50t46 -141q0 -141 -66 -227.5t-181 -86.5zM221 24q92 0 146.5 77t54.5 200q0 72 -34.5 113.5
t-98.5 41.5q-92 0 -147 -78t-55 -201q0 -72 34.5 -112.5t99.5 -40.5z" />
    <glyph glyph-name="otilde" unicode="&#xf5;" horiz-adv-x="510" 
d="M375 567q-21 0 -39 13.5t-28 29t-24 29t-29 13.5q-50 0 -54 -67l-41 2q31 96 102 96q22 0 39.5 -13.5t27.5 -29.5t24 -29.5t29 -13.5q47 0 55 67l40 -2q-32 -95 -102 -95zM217 -13q-79 0 -125.5 50t-46.5 140q0 141 66.5 228t181.5 87q79 0 125 -50t46 -141
q0 -141 -66 -227.5t-181 -86.5zM221 24q92 0 146.5 77t54.5 200q0 72 -34.5 113.5t-98.5 41.5q-92 0 -147 -78t-55 -201q0 -72 34.5 -112.5t99.5 -40.5z" />
    <glyph glyph-name="odieresis" unicode="&#xf6;" horiz-adv-x="510" 
d="M248 578q-13 0 -21 8t-8 21q0 16 13 29t30 13q12 0 20 -8t8 -21q0 -16 -12.5 -29t-29.5 -13zM377 578q-13 0 -21 8t-8 21q0 16 13 29t30 13q13 0 21 -8t8 -21q0 -16 -13 -29t-30 -13zM217 -13q-79 0 -125.5 50t-46.5 140q0 141 66.5 228t181.5 87q79 0 125 -50t46 -141
q0 -141 -66 -227.5t-181 -86.5zM221 24q92 0 146.5 77t54.5 200q0 72 -34.5 113.5t-98.5 41.5q-92 0 -147 -78t-55 -201q0 -72 34.5 -112.5t99.5 -40.5z" />
    <glyph glyph-name="divide" unicode="&#xf7;" horiz-adv-x="438" 
d="M233 324q-17 0 -27.5 9t-10.5 24q0 22 16 37.5t39 15.5q37 0 37 -34q0 -22 -15.5 -37t-38.5 -15zM40 219l11 61q22 -11 91 -11h162q70 0 94 11l-12 -61q-22 10 -90 10h-162q-68 0 -94 -10zM187 88q-17 0 -27 9t-10 24q0 22 15.5 37.5t38.5 15.5q37 0 37 -34
q0 -21 -16 -36.5t-38 -15.5z" />
    <glyph glyph-name="oslash" unicode="&#xf8;" horiz-adv-x="511" 
d="M469 474l-39 -47q34 -49 34 -126q0 -141 -66 -227.5t-181 -86.5q-70 0 -115 39l-33 -40l-25 20l36 44q-35 51 -35 127q0 141 66.5 228t181.5 87q72 0 116 -41l35 42zM87 177q0 -55 21 -93l275 335q-34 37 -94 37q-92 0 -147 -78t-55 -201zM422 301q0 54 -20 92l-274 -335
q34 -34 93 -34q92 0 146.5 77t54.5 200z" />
    <glyph glyph-name="ugrave" unicode="&#xf9;" horiz-adv-x="503" 
d="M323 553q-85 61 -120 148l34 26q34 -97 103 -157zM172 -13q-66 0 -91.5 48t-8.5 139l36 185q10 51 11 73.5t-10 46.5h61l-59 -302q-30 -154 68 -154q43 0 95 36t94 91l40 209q19 95 4 120h59l-69 -355q-18 -96 -6 -124h-53l15 88h-3q-89 -101 -183 -101z" />
    <glyph glyph-name="uacute" unicode="&#xfa;" horiz-adv-x="503" 
d="M285 553l-13 20q91 60 164 156l26 -28q-74 -92 -177 -148zM172 -13q-66 0 -91.5 48t-8.5 139l36 185q10 51 11 73.5t-10 46.5h61l-59 -302q-30 -154 68 -154q43 0 95 36t94 91l40 209q19 95 4 120h59l-69 -355q-18 -96 -6 -124h-53l15 88h-3q-89 -101 -183 -101z" />
    <glyph glyph-name="ucircumflex" unicode="&#xfb;" horiz-adv-x="503" 
d="M185 552l-13 19q83 62 145 145h38q34 -89 89 -145l-20 -19q-57 51 -90 127h-4q-63 -74 -145 -127zM172 -13q-66 0 -91.5 48t-8.5 139l36 185q10 51 11 73.5t-10 46.5h61l-59 -302q-30 -154 68 -154q43 0 95 36t94 91l40 209q19 95 4 120h59l-69 -355q-18 -96 -6 -124h-53
l15 88h-3q-89 -101 -183 -101z" />
    <glyph glyph-name="udieresis" unicode="&#xfc;" horiz-adv-x="503" 
d="M247 578q-13 0 -21 8t-8 21q0 16 13 29t30 13q12 0 20 -8t8 -21q0 -16 -12.5 -29t-29.5 -13zM376 578q-13 0 -21 8t-8 21q0 16 13 29t30 13q13 0 21 -8t8 -21q0 -16 -13 -29t-30 -13zM172 -13q-66 0 -91.5 48t-8.5 139l36 185q10 51 11 73.5t-10 46.5h61l-59 -302
q-30 -154 68 -154q43 0 95 36t94 91l40 209q19 95 4 120h59l-69 -355q-18 -96 -6 -124h-53l15 88h-3q-89 -101 -183 -101z" />
    <glyph glyph-name="yacute" unicode="&#xfd;" horiz-adv-x="428" 
d="M246 553l-13 20q91 60 164 156l26 -28q-74 -92 -177 -148zM-14 -200q-12 0 -50 7l20 51q13 -22 40 -22q80 0 150 129l13 24l-64 382q-9 50 -16 72t-20 36h54l49 -282q13 -75 23 -159h4q28 59 83 162l101 188q23 43 30 62t-1 29h59l-282 -528q-81 -151 -193 -151z" />
    <glyph glyph-name="thorn" unicode="&#xfe;" horiz-adv-x="505" 
d="M11 -200l153 771q20 102 8 141h60l-65 -324h1q32 46 78 76t90 30q59 0 94.5 -43t35.5 -126q0 -141 -77 -239t-190 -98q-50 0 -106 26l-20 -96q-19 -89 -2 -118h-60zM204 26q93 0 156.5 87.5t63.5 211.5q0 64 -25 98.5t-68 34.5q-44 0 -99 -45.5t-81 -106.5l-50 -249
q41 -31 103 -31z" />
    <glyph glyph-name="ydieresis" unicode="&#xff;" horiz-adv-x="428" 
d="M208 578q-13 0 -21 8t-8 21q0 16 13 29t30 13q12 0 20 -8t8 -21q0 -16 -12.5 -29t-29.5 -13zM337 578q-13 0 -21 8t-8 21q0 16 13 29t30 13q13 0 21 -8t8 -21q0 -16 -13 -29t-30 -13zM-14 -200q-12 0 -50 7l20 51q13 -22 40 -22q80 0 150 129l13 24l-64 382q-9 50 -16 72
t-20 36h54l49 -282q13 -75 23 -159h4q28 59 83 162l101 188q23 43 30 62t-1 29h59l-282 -528q-81 -151 -193 -151z" />
    <glyph glyph-name="Amacron" unicode="&#x100;" horiz-adv-x="558" 
d="M488 790l-7 -35h-200l7 35h200zM498 0h-73q13 21 2 107l-17 111h-271l-60 -111q-42 -77 -38 -107h-74q30 32 74 113l250 458q6 11 15.5 29t12.5 24.5t6 16t4 18.5h62q-6 -21 5 -88l72 -458q12 -78 30 -113zM158 253l247 1l-53 362z" />
    <glyph glyph-name="amacron" unicode="&#x101;" 
d="M230 595l7 35h200l-7 -35h-200zM170 -12q-60 0 -95 43.5t-35 125.5q0 142 76.5 239.5t189.5 97.5q51 0 102 -24l8 16h35l-73 -356q-12 -57 -13.5 -83.5t8.5 -46.5h-45q-6 34 6 82h-4q-33 -42 -76 -68t-84 -26zM175 24q40 0 90.5 39.5t79.5 94.5l55 272q-43 26 -99 26
q-92 0 -155.5 -86.5t-63.5 -210.5q0 -65 25 -100t68 -35z" />
    <glyph glyph-name="Abreve" unicode="&#x102;" horiz-adv-x="558" 
d="M372 716q-112 0 -83 145h28q-9 -49 4 -81.5t57 -32.5t70 32.5t35 81.5h28q-25 -145 -139 -145zM396 571l72 -458q12 -78 30 -113h-73q13 21 2 107l-17 111h-271l-60 -111q-42 -77 -38 -107h-74q30 32 74 113l250 458q6 11 15.5 29t12.5 24.5t6 16t4 18.5h62q-6 -21 5 -88
zM158 253l247 1l-53 362z" />
    <glyph glyph-name="abreve" unicode="&#x103;" 
d="M321 556q-112 0 -83 145h28q-9 -49 4 -81.5t57 -32.5t70 32.5t35 81.5h28q-25 -145 -139 -145zM170 -12q-60 0 -95 43.5t-35 125.5q0 142 76.5 239.5t189.5 97.5q51 0 102 -24l8 16h35l-73 -356q-12 -57 -13.5 -83.5t8.5 -46.5h-45q-6 34 6 82h-4q-33 -42 -76 -68
t-84 -26zM175 24q40 0 90.5 39.5t79.5 94.5l55 272q-43 26 -99 26q-92 0 -155.5 -86.5t-63.5 -210.5q0 -65 25 -100t68 -35z" />
    <glyph glyph-name="Aogonek" unicode="&#x104;" horiz-adv-x="558" 
d="M426 -152q26 0 45 22l10 -32q-30 -19 -63 -19q-29 0 -47 13t-18 39q0 36 31 71.5t75 57.5h-34q13 21 2 107l-17 111h-271l-60 -111q-42 -77 -38 -107h-74q30 32 74 113l250 458q6 11 15.5 29t12.5 24.5t6 16t4 18.5h62q-6 -21 5 -88l72 -458q12 -78 30 -113h1
q-47 -22 -78.5 -56.5t-31.5 -63.5q0 -32 37 -32zM158 253l247 1l-53 362z" />
    <glyph glyph-name="aogonek" unicode="&#x105;" 
d="M451 486l-73 -356q-12 -57 -13.5 -83.5t8.5 -46.5q-47 -22 -78.5 -56.5t-31.5 -63.5q0 -32 37 -32q26 0 45 22l10 -32q-30 -19 -63 -19q-29 0 -47 13t-18 39q0 36 31 71.5t75 57.5h-5q-6 34 6 82h-4q-33 -42 -76 -68t-84 -26q-60 0 -95 43.5t-35 125.5q0 142 76.5 239.5
t189.5 97.5q51 0 102 -24l8 16h35zM345 158l55 272q-43 26 -99 26q-92 0 -155.5 -86.5t-63.5 -210.5q0 -65 25 -100t68 -35q40 0 90.5 39.5t79.5 94.5z" />
    <glyph glyph-name="Cacute" unicode="&#x106;" horiz-adv-x="560" 
d="M387 720l-13 20q91 60 164 156l26 -28q-74 -92 -177 -148zM272 -12q-100 0 -156 58.5t-56 176.5q0 193 95.5 321t241.5 128q84 0 174 -57l-32 -50q-13 27 -55.5 48t-92.5 21q-123 0 -204.5 -116.5t-81.5 -290.5q0 -201 173 -201q122 0 186 64l14 -56q-120 -46 -206 -46z
" />
    <glyph glyph-name="cacute" unicode="&#x107;" horiz-adv-x="430" 
d="M280 560l-13 20q91 60 164 156l26 -28q-74 -92 -177 -148zM196 -13q-67 0 -111 44t-44 130q0 140 69.5 235.5t176.5 95.5q70 0 135 -47l-29 -43q-37 54 -111 54q-86 0 -143 -85t-57 -204q0 -72 33.5 -107.5t87.5 -35.5q43 0 85 20.5t66 51.5l12 -51q-82 -58 -170 -58z
" />
    <glyph glyph-name="Cdotaccent" unicode="&#x10a;" horiz-adv-x="560" 
d="M410 732q-29 0 -29 27q0 22 12 36t32 14q30 0 30 -27q0 -22 -12.5 -36t-32.5 -14zM272 -12q-100 0 -156 58.5t-56 176.5q0 193 95.5 321t241.5 128q84 0 174 -57l-32 -50q-13 27 -55.5 48t-92.5 21q-123 0 -204.5 -116.5t-81.5 -290.5q0 -201 173 -201q122 0 186 64
l14 -56q-120 -46 -206 -46z" />
    <glyph glyph-name="cdotaccent" unicode="&#x10b;" horiz-adv-x="430" 
d="M302 572q-29 0 -29 27q0 22 12 36t32 14q30 0 30 -27q0 -22 -12.5 -36t-32.5 -14zM196 -13q-67 0 -111 44t-44 130q0 140 69.5 235.5t176.5 95.5q70 0 135 -47l-29 -43q-37 54 -111 54q-86 0 -143 -85t-57 -204q0 -72 33.5 -107.5t87.5 -35.5q43 0 85 20.5t66 51.5
l12 -51q-82 -58 -170 -58z" />
    <glyph glyph-name="Ccaron" unicode="&#x10c;" horiz-adv-x="560" 
d="M388 722q-27 81 -87 145l20 18q59 -52 91 -127h4q62 83 138 124l14 -21q-37 -23 -75.5 -62.5t-60.5 -76.5h-44zM272 -12q-100 0 -156 58.5t-56 176.5q0 193 95.5 321t241.5 128q84 0 174 -57l-32 -50q-13 27 -55.5 48t-92.5 21q-123 0 -204.5 -116.5t-81.5 -290.5
q0 -201 173 -201q122 0 186 64l14 -56q-120 -46 -206 -46z" />
    <glyph glyph-name="ccaron" unicode="&#x10d;" horiz-adv-x="430" 
d="M280 562q-27 81 -87 145l20 18q59 -52 91 -127h4q62 83 138 124l14 -21q-37 -23 -75.5 -62.5t-60.5 -76.5h-44zM196 -13q-67 0 -111 44t-44 130q0 140 69.5 235.5t176.5 95.5q70 0 135 -47l-29 -43q-37 54 -111 54q-86 0 -143 -85t-57 -204q0 -72 33.5 -107.5t87.5 -35.5
q43 0 85 20.5t66 51.5l12 -51q-82 -58 -170 -58z" />
    <glyph glyph-name="Dcaron" unicode="&#x10e;" horiz-adv-x="589" 
d="M301 722q-27 81 -87 145l20 18q59 -52 91 -127h4q62 83 138 124l14 -21q-37 -23 -75.5 -62.5t-60.5 -76.5h-44zM20 0q13 16 18.5 34t16.5 69l89 453q15 79 4 103h146q124 0 194.5 -63t70.5 -178q0 -198 -102.5 -308t-287.5 -110h-149zM83 36h92q157 0 249 99t92 278
q0 101 -61.5 155.5t-169.5 54.5h-88z" />
    <glyph glyph-name="dcaron" unicode="&#x10f;" horiz-adv-x="498" 
d="M517 548l22 172h52l-48 -172h-26zM170 -12q-60 0 -95 43t-35 127q0 141 76.5 238.5t189.5 97.5q48 0 101 -22l20 99q19 105 9 141h57l-116 -590q-19 -99 -4 -122h-47q-3 38 8 82h-4q-32 -42 -75 -68t-85 -26zM175 24q41 0 91.5 40t78.5 97l54 269q-41 26 -98 26
q-92 0 -155.5 -87t-63.5 -211q0 -64 25 -99t68 -35z" />
    <glyph glyph-name="Dcroat" unicode="&#x110;" horiz-adv-x="599" 
d="M304 659q124 0 194.5 -63t70.5 -178q0 -198 -102.5 -308t-287.5 -110h-149q13 16 18.5 34t16.5 69l41 211h-59l8 35h58l41 207q15 79 4 103h146zM185 36q157 0 249 99t92 278q0 101 -61.5 155.5t-169.5 54.5h-88l-53 -274h153l-8 -35h-152l-54 -278h92z" />
    <glyph glyph-name="dcroat" unicode="&#x111;" horiz-adv-x="498" 
d="M527 591l-7 -34h-57l-86 -435q-19 -99 -4 -122h-47q-3 38 8 82h-4q-32 -42 -75 -68t-85 -26q-60 0 -95 43t-35 127q0 141 76.5 238.5t189.5 97.5q48 0 101 -22l17 85h-94l7 34h94q15 88 5 121h57l-24 -121h58zM345 161l54 269q-41 26 -98 26q-92 0 -155.5 -87t-63.5 -211
q0 -64 25 -99t68 -35q41 0 91.5 40t78.5 97z" />
    <glyph glyph-name="Emacron" unicode="&#x112;" 
d="M249 753l7 35h200l-7 -35h-200zM392 -5q-40 5 -184 5h-188q13 16 19 34t16 68l88 454q15 78 5 103h178q145 0 181 6l-10 -54q-25 13 -177 13h-123l-50 -256h105q129 0 155 12l-11 -59q-24 12 -150 12h-105l-59 -297h133q159 0 188 12z" />
    <glyph glyph-name="emacron" unicode="&#x113;" horiz-adv-x="465" 
d="M214 595l7 35h200l-7 -35h-200zM201 -13q-72 0 -116 43.5t-44 132.5q0 144 74 236.5t177 92.5q62 0 102 -36t40 -90q0 -66 -46.5 -99.5t-156.5 -33.5h-144q-19 -105 14.5 -157.5t105.5 -52.5q41 0 89.5 17t72.5 44l10 -50q-24 -17 -76.5 -32t-101.5 -15zM94 268h139
q87 0 123.5 23t36.5 71q0 41 -28.5 67.5t-77.5 26.5q-59 0 -116.5 -51t-76.5 -137z" />
    <glyph glyph-name="Edotaccent" unicode="&#x116;" 
d="M343 730q-29 0 -29 27q0 22 12 36t32 14q30 0 30 -27q0 -22 -12.5 -36t-32.5 -14zM392 -5q-40 5 -184 5h-188q13 16 19 34t16 68l88 454q15 78 5 103h178q145 0 181 6l-10 -54q-25 13 -177 13h-123l-50 -256h105q129 0 155 12l-11 -59q-24 12 -150 12h-105l-59 -297h133
q159 0 188 12z" />
    <glyph glyph-name="edotaccent" unicode="&#x117;" horiz-adv-x="465" 
d="M308 572q-29 0 -29 27q0 22 12 36t32 14q30 0 30 -27q0 -22 -12.5 -36t-32.5 -14zM201 -13q-72 0 -116 43.5t-44 132.5q0 144 74 236.5t177 92.5q62 0 102 -36t40 -90q0 -66 -46.5 -99.5t-156.5 -33.5h-144q-19 -105 14.5 -157.5t105.5 -52.5q41 0 89.5 17t72.5 44
l10 -50q-24 -17 -76.5 -32t-101.5 -15zM94 268h139q87 0 123.5 23t36.5 71q0 41 -28.5 67.5t-77.5 26.5q-59 0 -116.5 -51t-76.5 -137z" />
    <glyph glyph-name="Eogonek" unicode="&#x118;" 
d="M320 624h-123l-50 -256h105q129 0 155 12l-11 -59q-24 12 -150 12h-105l-59 -297h133q159 0 188 12l-11 -53h1q-47 -22 -78.5 -56.5t-31.5 -63.5q0 -32 37 -32q26 0 45 22l10 -32q-30 -19 -63 -19q-29 0 -47 13t-18 39q0 38 33 74.5t79 57.5q-52 2 -151 2h-188
q13 16 19 34t16 68l88 454q15 78 5 103h178q145 0 181 6l-10 -54q-25 13 -177 13z" />
    <glyph glyph-name="eogonek" unicode="&#x119;" horiz-adv-x="465" 
d="M231 233h-144q-19 -105 14.5 -157.5t105.5 -52.5q41 0 89.5 17t72.5 44l10 -50q-12 -9 -27 -14q-37 -23 -60 -52t-23 -54q0 -32 37 -32q26 0 45 22l10 -32q-30 -19 -63 -19q-29 0 -47 13t-18 39q0 46 52 93q-42 -11 -84 -11q-72 0 -116 43.5t-44 132.5q0 144 74 236.5
t177 92.5q62 0 102 -36t40 -90q0 -66 -46.5 -99.5t-156.5 -33.5zM287 456q-59 0 -116.5 -51t-76.5 -137h139q87 0 123.5 23t36.5 71q0 41 -28.5 67.5t-77.5 26.5z" />
    <glyph glyph-name="Ecaron" unicode="&#x11a;" 
d="M321 720q-27 81 -87 145l20 18q59 -52 91 -127h4q62 83 138 124l14 -21q-37 -23 -75.5 -62.5t-60.5 -76.5h-44zM392 -5q-40 5 -184 5h-188q13 16 19 34t16 68l88 454q15 78 5 103h178q145 0 181 6l-10 -54q-25 13 -177 13h-123l-50 -256h105q129 0 155 12l-11 -59
q-24 12 -150 12h-105l-59 -297h133q159 0 188 12z" />
    <glyph glyph-name="ecaron" unicode="&#x11b;" horiz-adv-x="465" 
d="M286 562q-27 81 -87 145l20 18q59 -52 91 -127h4q62 83 138 124l14 -21q-37 -23 -75.5 -62.5t-60.5 -76.5h-44zM201 -13q-72 0 -116 43.5t-44 132.5q0 144 74 236.5t177 92.5q62 0 102 -36t40 -90q0 -66 -46.5 -99.5t-156.5 -33.5h-144q-19 -105 14.5 -157.5t105.5 -52.5
q41 0 89.5 17t72.5 44l10 -50q-24 -17 -76.5 -32t-101.5 -15zM94 268h139q87 0 123.5 23t36.5 71q0 41 -28.5 67.5t-77.5 26.5q-59 0 -116.5 -51t-76.5 -137z" />
    <glyph glyph-name="Gbreve" unicode="&#x11e;" horiz-adv-x="589" 
d="M401 716q-112 0 -83 145h28q-9 -49 4 -81.5t57 -32.5t70 32.5t35 81.5h28q-25 -145 -139 -145zM283 -12q-104 0 -162.5 58t-58.5 177q0 199 87 324t227 125q92 0 195 -62l-34 -47q-11 27 -58 49.5t-106 22.5q-118 0 -193 -114.5t-75 -293.5q0 -103 48 -152.5t133 -49.5
q106 0 167 54l39 198h-50q-76 0 -112 -12l11 54q32 -6 109 -6h99q-14 -25 -30 -107l-8 -38q-15 -76 -16 -112q-101 -68 -212 -68z" />
    <glyph glyph-name="gbreve" unicode="&#x11f;" horiz-adv-x="482" 
d="M320 550q-112 0 -83 145h28q-9 -49 4 -81.5t57 -32.5t70 32.5t35 81.5h28q-25 -145 -139 -145zM153 -203q-77 0 -155 49l32 51q14 -29 46.5 -47t76.5 -18q67 0 104.5 40.5t60.5 133.5l19 80h-3q-32 -44 -75.5 -71t-87.5 -27q-60 0 -95 43t-35 127q0 141 76.5 238.5
t189.5 97.5q52 0 110 -27l11 19h32l-103 -478q-25 -113 -72.5 -162t-131.5 -49zM175 24q43 0 96 42.5t80 101.5l55 258q-44 30 -104 30q-92 0 -155.5 -87t-63.5 -211q0 -64 24.5 -99t67.5 -35z" />
    <glyph glyph-name="Gdotaccent" unicode="&#x120;" horiz-adv-x="589" 
d="M403 732q-29 0 -29 27q0 22 12 36t32 14q30 0 30 -27q0 -22 -12.5 -36t-32.5 -14zM283 -12q-104 0 -162.5 58t-58.5 177q0 199 87 324t227 125q92 0 195 -62l-34 -47q-11 27 -58 49.5t-106 22.5q-118 0 -193 -114.5t-75 -293.5q0 -103 48 -152.5t133 -49.5q106 0 167 54
l39 198h-50q-76 0 -112 -12l11 54q32 -6 109 -6h99q-14 -25 -30 -107l-8 -38q-15 -76 -16 -112q-101 -68 -212 -68z" />
    <glyph glyph-name="gdotaccent" unicode="&#x121;" horiz-adv-x="482" 
d="M323 565q-29 0 -29 27q0 22 12 36t32 14q30 0 30 -27q0 -22 -12.5 -36t-32.5 -14zM153 -203q-77 0 -155 49l32 51q14 -29 46.5 -47t76.5 -18q67 0 104.5 40.5t60.5 133.5l19 80h-3q-32 -44 -75.5 -71t-87.5 -27q-60 0 -95 43t-35 127q0 141 76.5 238.5t189.5 97.5
q52 0 110 -27l11 19h32l-103 -478q-25 -113 -72.5 -162t-131.5 -49zM175 24q43 0 96 42.5t80 101.5l55 258q-44 30 -104 30q-92 0 -155.5 -87t-63.5 -211q0 -64 24.5 -99t67.5 -35z" />
    <glyph glyph-name="uni0122" unicode="&#x122;" horiz-adv-x="589" 
d="M283 -12q-104 0 -162.5 58t-58.5 177q0 199 87 324t227 125q92 0 195 -62l-34 -47q-11 27 -58 49.5t-106 22.5q-118 0 -193 -114.5t-75 -293.5q0 -103 48 -152.5t133 -49.5q106 0 167 54l39 198h-50q-76 0 -112 -12l11 54q32 -6 109 -6h99q-14 -25 -30 -107l-8 -38
q-15 -76 -16 -112q-101 -68 -212 -68zM212 -208l-10 19q28 12 47 33.5t24 41.5q-2 -2 -10 -2q-11 0 -19 7.5t-8 20.5q0 19 12 32t29 13q32 0 32 -36q0 -37 -28.5 -75.5t-68.5 -53.5z" />
    <glyph glyph-name="uni0123" unicode="&#x123;" horiz-adv-x="482" 
d="M316 541q-32 0 -32 36q0 38 28 76t68 53l7 -17q-52 -22 -67 -77q6 2 11 2q11 0 19 -7.5t8 -20.5q0 -19 -12.5 -32t-29.5 -13zM153 -203q-77 0 -155 49l32 51q14 -29 46.5 -47t76.5 -18q67 0 104.5 40.5t60.5 133.5l19 80h-3q-32 -44 -75.5 -71t-87.5 -27q-60 0 -95 43
t-35 127q0 141 76.5 238.5t189.5 97.5q52 0 110 -27l11 19h32l-103 -478q-25 -113 -72.5 -162t-131.5 -49zM175 24q43 0 96 42.5t80 101.5l55 258q-44 30 -104 30q-92 0 -155.5 -87t-63.5 -211q0 -64 24.5 -99t67.5 -35z" />
    <glyph glyph-name="Hbar" unicode="&#x126;" horiz-adv-x="604" 
d="M623 529l-7 -33h-49l-76 -393q-14 -79 -5 -103h-72q20 25 36 103l45 230h-354l-45 -230q-15 -78 -5 -103h-71q20 27 35 103l77 393h-45l7 33h45l5 27q9 46 10 62t-6 41h71q-21 -27 -34 -103l-5 -27h354l5 27q1 3 2 10q12 65 3 89l-2 4h72q-13 -16 -19.5 -37t-15.5 -66
l-5 -27h49zM502 369l25 127h-354l-25 -127h354z" />
    <glyph glyph-name="hbar" unicode="&#x127;" horiz-adv-x="529" 
d="M330 494q60 0 92.5 -43t17.5 -123l-42 -210q-11 -56 -12 -79.5t8 -38.5h-59l66 325q14 71 -10.5 102t-70.5 31q-44 0 -92.5 -31.5t-82.5 -75.5l-45 -233q-19 -95 -4 -118h-59l112 561h-58l7 33h57q14 83 5 118h55l-23 -118h105l-7 -33h-104l-30 -154h2q29 34 77 60.5
t95 26.5z" />
    <glyph glyph-name="Imacron" unicode="&#x12a;" horiz-adv-x="205" 
d="M104 755l7 35h200l-7 -35h-200zM20 0q20 27 35 103l89 453q9 46 10 62t-6 41h71q-19 -26 -34 -103l-89 -453q-15 -75 -5 -103h-71z" />
    <glyph glyph-name="imacron" unicode="&#x12b;" horiz-adv-x="225" 
d="M72 589l7 35h200l-7 -35h-200zM37 0l69 338q19 97 7 141h61l-74 -361q-19 -91 -2 -118h-61z" />
    <glyph glyph-name="Iogonek" unicode="&#x12e;" horiz-adv-x="205" 
d="M148 659h71q-19 -26 -34 -103l-89 -453q-15 -75 -5 -103h1q-47 -22 -78.5 -56.5t-31.5 -63.5q0 -32 37 -32q26 0 45 22l10 -32q-30 -19 -63 -19q-29 0 -47 13t-18 39q0 36 31 71.5t75 57.5h-32q20 27 35 103l89 453q9 46 10 62t-6 41z" />
    <glyph glyph-name="iogonek" unicode="&#x12f;" horiz-adv-x="227" 
d="M190 665q33 0 27 -35q-4 -41 -40 -41q-31 0 -27 37q4 39 40 39zM114 338q20 96 8 141h60l-74 -361q-19 -89 -2 -118h1q-47 -22 -78.5 -56.5t-31.5 -63.5q0 -32 37 -32q26 0 45 22l10 -32q-30 -19 -63 -19q-29 0 -47 13t-18 39q0 36 31 71.5t75 57.5h-22z" />
    <glyph glyph-name="Idotaccent" unicode="&#x130;" horiz-adv-x="205" 
d="M198 732q-29 0 -29 27q0 22 12 36t32 14q30 0 30 -27q0 -22 -12.5 -36t-32.5 -14zM20 0q20 27 35 103l89 453q9 46 10 62t-6 41h71q-19 -26 -34 -103l-89 -453q-15 -75 -5 -103h-71z" />
    <glyph glyph-name="dotlessi" unicode="&#x131;" horiz-adv-x="225" 
d="M37 0l69 338q19 97 7 141h61l-74 -361q-19 -91 -2 -118h-61z" />
    <glyph glyph-name="uni0136" unicode="&#x136;" horiz-adv-x="546" 
d="M20 0q20 29 35 103l89 453q15 73 4 103h71q-21 -27 -34 -103l-53 -268h2l311 301q45 43 51 70h83q-34 -23 -105 -92l-169 -165l119 -290q30 -77 63 -112h-77q3 29 -23 92l-114 282l-152 -149l-24 -122q-15 -74 -4 -103h-73zM168 -208l-10 19q28 12 47 33.5t24 41.5
q-2 -2 -10 -2q-11 0 -19 7.5t-8 20.5q0 19 12 32t29 13q32 0 32 -36q0 -37 -28.5 -75.5t-68.5 -53.5z" />
    <glyph glyph-name="uni0137" unicode="&#x137;" horiz-adv-x="457" 
d="M39 0l113 571q20 97 8 141h60l-66 -331q27 47 74.5 79.5t104.5 32.5q51 0 84 -30.5t33 -78.5q0 -72 -56.5 -116t-140.5 -56l64 -110q27 -46 43 -66.5t39 -35.5h-65l-127 218v19q91 8 146 44.5t55 97.5q0 36 -22 57t-58 21q-55 0 -107.5 -44.5t-83.5 -118.5l-35 -176
q-20 -91 -2 -118h-61zM127 -208l-10 19q28 11 47 33t24 42q-2 -2 -10 -2q-11 0 -19 7.5t-8 20.5q0 19 12 32t29 13q32 0 32 -36q0 -37 -28.5 -75.5t-68.5 -53.5z" />
    <glyph glyph-name="Lacute" unicode="&#x139;" horiz-adv-x="425" 
d="M182 720l-13 20q91 60 164 156l26 -28q-74 -92 -177 -148zM364 -5q-21 5 -127 5h-217q13 16 19.5 37t15.5 66l89 453q9 46 10 61.5t-6 41.5h71q-12 -14 -18 -34t-16 -69l-102 -521h161q100 0 132 16z" />
    <glyph glyph-name="lacute" unicode="&#x13a;" horiz-adv-x="227" 
d="M196 778l-13 20q91 60 164 156l26 -28q-74 -92 -177 -148zM46 0l112 569q21 97 8 143h61l-118 -592q-19 -93 -1 -120h-62z" />
    <glyph glyph-name="uni013B" unicode="&#x13b;" horiz-adv-x="425" 
d="M364 -5q-21 5 -127 5h-217q13 16 19.5 37t15.5 66l89 453q9 46 10 61.5t-6 41.5h71q-12 -14 -18 -34t-16 -69l-102 -521h161q100 0 132 16zM134 -208l-10 19q28 12 47 33.5t24 41.5q-2 -2 -10 -2q-11 0 -19 7.5t-8 20.5q0 19 12 32t29 13q32 0 32 -36q0 -37 -28.5 -75.5
t-68.5 -53.5z" />
    <glyph glyph-name="uni013C" unicode="&#x13c;" horiz-adv-x="227" 
d="M46 0l112 569q21 97 8 143h61l-118 -592q-19 -93 -1 -120h-62zM-2 -208l-10 19q28 11 47 33t24 42q-2 -2 -10 -2q-11 0 -19 7.5t-8 20.5q0 19 12 32t29 13q32 0 32 -36q0 -37 -28.5 -75.5t-68.5 -53.5z" />
    <glyph glyph-name="Lcaron" unicode="&#x13d;" horiz-adv-x="427" 
d="M364 -5q-21 5 -127 5h-217q13 16 19.5 37t15.5 66l89 453q9 46 10 61.5t-6 41.5h71q-12 -14 -18 -34t-16 -69l-102 -521h161q100 0 132 16zM286 485l20 171h52l-46 -171h-26z" />
    <glyph glyph-name="lcaron" unicode="&#x13e;" horiz-adv-x="239" 
d="M261 548l21 172h51l-46 -172h-26zM46 0l112 569q21 97 8 143h61l-118 -592q-19 -93 -1 -120h-62z" />
    <glyph glyph-name="Lslash" unicode="&#x141;" horiz-adv-x="427" 
d="M244 35q100 0 132 16l-12 -56q-21 5 -127 5h-217q13 16 19.5 37t15.5 66l43 218l-63 -11l-4 29l73 13l40 204q9 46 10 61.5t-6 41.5h71q-12 -14 -18 -34t-16 -69l-38 -196l86 15l4 -30l-97 -17l-57 -293h161z" />
    <glyph glyph-name="lslash" unicode="&#x142;" horiz-adv-x="221" 
d="M144 340l-44 -220q-18 -91 -1 -120h-62l66 332l-55 -12l-6 34l68 14l40 201q19 97 7 143h61l-67 -335l67 14l6 -34z" />
    <glyph glyph-name="Nacute" unicode="&#x143;" horiz-adv-x="602" 
d="M381 720l-13 20q91 60 164 156l26 -28q-74 -92 -177 -148zM20 0q20 28 35 103l88 453q15 75 5 103h62l239 -590h4q5 61 20 135l69 352q14 79 4 103h70q-19 -28 -34 -103l-88 -449q-15 -75 -12 -107h-49l-244 602h-3q-5 -50 -20 -133l-71 -366q-15 -77 -5 -103h-70z" />
    <glyph glyph-name="nacute" unicode="&#x144;" horiz-adv-x="501" 
d="M290 553l-13 20q91 60 164 156l26 -28q-74 -92 -177 -148zM37 0l67 336q20 103 9 143h52l-11 -70h4q30 34 78 60t95 26q60 0 93 -42.5t17 -121.5l-44 -211q-21 -96 -4 -120h-58l66 327q15 71 -9.5 101.5t-70.5 30.5q-45 0 -93 -31t-82 -76l-47 -232q-21 -96 -4 -120h-58z
" />
    <glyph glyph-name="uni0145" unicode="&#x145;" horiz-adv-x="602" 
d="M20 0q20 28 35 103l88 453q15 75 5 103h62l239 -590h4q5 61 20 135l69 352q14 79 4 103h70q-19 -28 -34 -103l-88 -449q-15 -75 -12 -107h-49l-244 602h-3q-5 -50 -20 -133l-71 -366q-15 -77 -5 -103h-70zM181 -208l-10 19q28 12 47 33.5t24 41.5q-2 -2 -10 -2
q-11 0 -19 7.5t-8 20.5q0 19 12 32t29 13q32 0 32 -36q0 -37 -28.5 -75.5t-68.5 -53.5z" />
    <glyph glyph-name="uni0146" unicode="&#x146;" horiz-adv-x="501" 
d="M37 0l67 336q20 103 9 143h52l-11 -70h4q30 34 78 60t95 26q60 0 93 -42.5t17 -121.5l-44 -211q-21 -96 -4 -120h-58l66 327q15 71 -9.5 101.5t-70.5 30.5q-45 0 -93 -31t-82 -76l-47 -232q-21 -96 -4 -120h-58zM143 -206l-10 19q28 11 47 33t24 42q-2 -2 -10 -2
q-11 0 -19 7.5t-8 20.5q0 19 12 32t29 13q32 0 32 -36q0 -37 -28.5 -75.5t-68.5 -53.5z" />
    <glyph glyph-name="Ncaron" unicode="&#x147;" horiz-adv-x="602" 
d="M381 722q-27 81 -87 145l20 18q59 -52 91 -127h4q62 83 138 124l14 -21q-37 -23 -75.5 -62.5t-60.5 -76.5h-44zM20 0q20 28 35 103l88 453q15 75 5 103h62l239 -590h4q5 61 20 135l69 352q14 79 4 103h70q-19 -28 -34 -103l-88 -449q-15 -75 -12 -107h-49l-244 602h-3
q-5 -50 -20 -133l-71 -366q-15 -77 -5 -103h-70z" />
    <glyph glyph-name="ncaron" unicode="&#x148;" horiz-adv-x="501" 
d="M290 555q-27 81 -87 145l20 18q59 -52 91 -127h4q62 83 138 124l14 -21q-37 -23 -75.5 -62.5t-60.5 -76.5h-44zM37 0l67 336q20 103 9 143h52l-11 -70h4q30 34 78 60t95 26q60 0 93 -42.5t17 -121.5l-44 -211q-21 -96 -4 -120h-58l66 327q15 71 -9.5 101.5t-70.5 30.5
q-45 0 -93 -31t-82 -76l-47 -232q-21 -96 -4 -120h-58z" />
    <glyph glyph-name="Eng" unicode="&#x14a;" horiz-adv-x="603" 
d="M616 659q-19 -27 -34 -103l-101 -515l-20 -104q-15 -76 -42 -106.5t-78 -30.5q-9 0 -65 13l19 48q14 -25 52 -25q33 0 50 25.5t27 81.5l11 57h-2l-244 602h-3q-7 -64 -20 -133l-71 -366q-15 -77 -5 -103h-70q20 30 35 103l88 453q15 75 5 103h62l239 -590h4q8 74 20 135
l69 352q15 78 4 103h70z" />
    <glyph glyph-name="eng" unicode="&#x14b;" horiz-adv-x="495" 
d="M242 -144q-34 0 -59 14l20 46q13 -26 46 -26q37 0 55.5 27.5t30.5 82.5l66 327q14 71 -10.5 101.5t-69.5 30.5t-93 -31t-82 -76l-48 -234q-19 -96 -4 -118h-57l67 338q20 102 9 141h51l-10 -70h4q30 34 78 60t95 26q60 0 92.5 -43t16.5 -122l-66 -331q-14 -75 -45.5 -109
t-86.5 -34z" />
    <glyph glyph-name="Omacron" unicode="&#x14c;" horiz-adv-x="643" 
d="M321 755l7 35h200l-7 -35h-200zM275 -12q-94 0 -154 63.5t-60 175.5q0 189 96.5 316.5t244.5 127.5q94 0 154 -63t60 -175q0 -123 -43.5 -224.5t-122 -161t-175.5 -59.5zM281 24q121 0 207 118.5t86 285.5q0 100 -49.5 153.5t-128.5 53.5q-123 0 -208 -117t-85 -286
q0 -101 49.5 -154.5t128.5 -53.5z" />
    <glyph glyph-name="omacron" unicode="&#x14d;" horiz-adv-x="510" 
d="M215 589l7 35h200l-7 -35h-200zM217 -13q-79 0 -125.5 50t-46.5 140q0 141 66.5 228t181.5 87q79 0 125 -50t46 -141q0 -141 -66 -227.5t-181 -86.5zM221 24q92 0 146.5 77t54.5 200q0 72 -34.5 113.5t-98.5 41.5q-92 0 -147 -78t-55 -201q0 -72 34.5 -112.5t99.5 -40.5z
" />
    <glyph glyph-name="Ohungarumlaut" unicode="&#x150;" horiz-adv-x="643" 
d="M331 716l-18 12q73 76 113 167l34 -18q-52 -92 -129 -161zM463 716l-18 12q73 76 113 167l34 -18q-54 -93 -129 -161zM275 -12q-94 0 -154 63.5t-60 175.5q0 189 96.5 316.5t244.5 127.5q94 0 154 -63t60 -175q0 -123 -43.5 -224.5t-122 -161t-175.5 -59.5zM281 24
q121 0 207 118.5t86 285.5q0 100 -49.5 153.5t-128.5 53.5q-123 0 -208 -117t-85 -286q0 -101 49.5 -154.5t128.5 -53.5z" />
    <glyph glyph-name="ohungarumlaut" unicode="&#x151;" horiz-adv-x="510" 
d="M225 549l-18 12q73 76 113 167l34 -18q-52 -92 -129 -161zM357 549l-18 12q73 76 113 167l34 -18q-54 -93 -129 -161zM217 -13q-79 0 -125.5 50t-46.5 140q0 141 66.5 228t181.5 87q79 0 125 -50t46 -141q0 -141 -66 -227.5t-181 -86.5zM221 24q92 0 146.5 77t54.5 200
q0 72 -34.5 113.5t-98.5 41.5q-92 0 -147 -78t-55 -201q0 -72 34.5 -112.5t99.5 -40.5z" />
    <glyph glyph-name="OE" unicode="&#x152;" horiz-adv-x="817" 
d="M655 624h-124l-49 -256h106q125 0 154 12l-11 -59q-24 12 -151 12h-105l-58 -297h133q161 0 187 12l-10 -53q-37 5 -184 5h-185q-40 -12 -83 -12q-97 0 -155.5 60t-58.5 179q0 191 98.5 317.5t247.5 126.5q45 0 84 -12h171q145 0 181 6l-11 -54q-26 13 -177 13zM105 234
q0 -102 48 -155t129 -53q52 0 97 20q3 11 12 57l88 453q9 45 10 61q-39 17 -86 17q-125 0 -211.5 -115t-86.5 -285z" />
    <glyph glyph-name="oe" unicode="&#x153;" horiz-adv-x="837" 
d="M460 233q-1 -4 -2.5 -13.5t-2.5 -13.5q-11 -92 23 -137.5t101 -45.5q42 0 90 17t73 44l9 -50q-24 -17 -76.5 -32t-100.5 -15q-60 0 -101 29.5t-53 90.5q-67 -120 -203 -120q-79 0 -125.5 50t-46.5 140q0 141 66.5 228t181.5 87q66 0 109.5 -35.5t56.5 -100.5
q34 64 88.5 100t116.5 36t102 -36t40 -90q0 -66 -46.5 -99.5t-156.5 -33.5h-143zM221 24q92 0 146.5 77t54.5 200q0 72 -34.5 113.5t-98.5 41.5q-92 0 -147 -78t-55 -201q0 -72 34.5 -112.5t99.5 -40.5zM659 456q-58 0 -116 -51.5t-77 -136.5h140q86 0 122.5 23t36.5 71
q0 41 -28.5 67.5t-77.5 26.5z" />
    <glyph glyph-name="Racute" unicode="&#x154;" horiz-adv-x="516" 
d="M301 720l-13 20q91 60 164 156l26 -28q-74 -92 -177 -148zM21 0q19 26 34 103l89 453q15 78 4 103h183q84 0 138.5 -37.5t54.5 -116.5q0 -54 -18.5 -96t-48.5 -67.5t-63 -39.5t-69 -19l68 -177q31 -76 57 -106h-78q6 26 -19 91l-74 187h-149l-34 -175q-15 -77 -5 -103
h-70zM138 314h125q97 0 158 47.5t61 138.5q0 123 -168 123h-116z" />
    <glyph glyph-name="racute" unicode="&#x155;" horiz-adv-x="326" 
d="M200 553l-13 20q91 60 164 156l26 -28q-74 -92 -177 -148zM39 0l67 336q22 102 7 143h57l-15 -90h2q26 44 66.5 74t77.5 30q32 0 55 -16l-21 -42q-17 22 -40 22q-34 0 -77 -40t-78 -109l-36 -178q-20 -105 1 -130h-66z" />
    <glyph glyph-name="uni0156" unicode="&#x156;" horiz-adv-x="516" 
d="M21 0q19 26 34 103l89 453q15 78 4 103h183q84 0 138.5 -37.5t54.5 -116.5q0 -54 -18.5 -96t-48.5 -67.5t-63 -39.5t-69 -19l68 -177q31 -76 57 -106h-78q6 26 -19 91l-74 187h-149l-34 -175q-15 -77 -5 -103h-70zM138 314h125q97 0 158 47.5t61 138.5q0 123 -168 123
h-116zM146 -208l-10 19q28 12 47 33.5t24 41.5q-2 -2 -10 -2q-11 0 -19 7.5t-8 20.5q0 19 12 32t29 13q32 0 32 -36q0 -37 -28.5 -75.5t-68.5 -53.5z" />
    <glyph glyph-name="uni0157" unicode="&#x157;" horiz-adv-x="326" 
d="M39 0l67 336q22 102 7 143h57l-15 -90h2q26 44 66.5 74t77.5 30q32 0 55 -16l-21 -42q-17 22 -40 22q-34 0 -77 -40t-78 -109l-36 -178q-20 -105 1 -130h-66zM-6 -208l-10 19q28 11 47 33t24 42q-2 -2 -10 -2q-11 0 -19 7.5t-8 20.5q0 19 12 32t29 13q32 0 32 -36
q0 -37 -28.5 -75.5t-68.5 -53.5z" />
    <glyph glyph-name="Rcaron" unicode="&#x158;" horiz-adv-x="516" 
d="M302 722q-27 81 -87 145l20 18q59 -52 91 -127h4q62 83 138 124l14 -21q-37 -23 -75.5 -62.5t-60.5 -76.5h-44zM21 0q19 26 34 103l89 453q15 78 4 103h183q84 0 138.5 -37.5t54.5 -116.5q0 -54 -18.5 -96t-48.5 -67.5t-63 -39.5t-69 -19l68 -177q31 -76 57 -106h-78
q6 26 -19 91l-74 187h-149l-34 -175q-15 -77 -5 -103h-70zM138 314h125q97 0 158 47.5t61 138.5q0 123 -168 123h-116z" />
    <glyph glyph-name="rcaron" unicode="&#x159;" horiz-adv-x="326" 
d="M201 555q-27 81 -87 145l20 18q59 -52 91 -127h4q62 83 138 124l14 -21q-37 -23 -75.5 -62.5t-60.5 -76.5h-44zM39 0l67 336q22 102 7 143h57l-15 -90h2q26 44 66.5 74t77.5 30q32 0 55 -16l-21 -42q-17 22 -40 22q-34 0 -77 -40t-78 -109l-36 -178q-20 -105 1 -130h-66z
" />
    <glyph glyph-name="Sacute" unicode="&#x15a;" horiz-adv-x="532" 
d="M334 720l-13 20q91 60 164 156l26 -28q-74 -92 -177 -148zM224 -12q-120 0 -211 72l35 57q37 -91 184 -91q81 0 134.5 44.5t53.5 115.5q0 53 -32 81.5t-86 48.5l-46 18q-130 49 -130 149q0 85 60.5 136.5t149.5 51.5q101 0 177 -60l-32 -47q-36 70 -152 70
q-66 0 -113.5 -40t-47.5 -102q0 -45 30.5 -73t82.5 -49l45 -17q137 -53 137 -159q0 -92 -67.5 -149t-171.5 -57z" />
    <glyph glyph-name="sacute" unicode="&#x15b;" horiz-adv-x="402" 
d="M238 553l-13 20q91 60 164 156l26 -28q-74 -92 -177 -148zM160 -12q-77 0 -162 51l34 51q12 -29 49 -47.5t86 -18.5q57 0 96 30.5t39 79.5q0 40 -24.5 61.5t-67.5 36.5l-20 7q-21 8 -35.5 15t-33 20.5t-28.5 35t-10 49.5q0 57 47 96t115 39q75 0 137 -47l-29 -46
q-11 25 -41.5 41t-72.5 16q-48 0 -83 -27.5t-35 -66.5q0 -37 22.5 -57t60.5 -33l21 -8q55 -18 85 -48t30 -80q0 -64 -50.5 -107t-129.5 -43z" />
    <glyph glyph-name="Scedilla" unicode="&#x15e;" horiz-adv-x="532" 
d="M329 634q-66 0 -113.5 -40t-47.5 -102q0 -45 30.5 -73t82.5 -49l45 -17q137 -53 137 -159q0 -89 -64 -145.5t-162 -60.5l-17 -40q35 -7 52 -21t17 -40q0 -47 -38 -67t-122 -25l-1 31q124 4 124 56q0 20 -16 30t-53 15l27 61q-112 5 -197 72l35 57q37 -91 184 -91
q81 0 134.5 44.5t53.5 115.5q0 53 -32 81.5t-86 48.5l-46 18q-130 49 -130 149q0 85 60.5 136.5t149.5 51.5q101 0 177 -60l-32 -47q-36 70 -152 70z" />
    <glyph glyph-name="scedilla" unicode="&#x15f;" horiz-adv-x="402" 
d="M239 458q-48 0 -83 -27.5t-35 -66.5q0 -37 22.5 -57t60.5 -33l21 -8q55 -18 85 -48t30 -80q0 -61 -46 -103.5t-120 -46.5l-17 -40q35 -7 52 -21t17 -40q0 -47 -38 -67t-122 -25l-1 31q124 4 124 56q0 20 -16 30t-53 15l27 61q-72 4 -149 51l34 51q12 -29 49 -47.5
t86 -18.5q57 0 96 30.5t39 79.5q0 40 -24.5 61.5t-67.5 36.5l-20 7q-21 8 -35.5 15t-33 20.5t-28.5 35t-10 49.5q0 57 47 96t115 39q75 0 137 -47l-29 -46q-11 25 -41.5 41t-72.5 16z" />
    <glyph glyph-name="Scaron" unicode="&#x160;" horiz-adv-x="532" 
d="M334 722q-27 81 -87 145l20 18q59 -52 91 -127h4q62 83 138 124l14 -21q-37 -23 -75.5 -62.5t-60.5 -76.5h-44zM224 -12q-120 0 -211 72l35 57q37 -91 184 -91q81 0 134.5 44.5t53.5 115.5q0 53 -32 81.5t-86 48.5l-46 18q-130 49 -130 149q0 85 60.5 136.5t149.5 51.5
q101 0 177 -60l-32 -47q-36 70 -152 70q-66 0 -113.5 -40t-47.5 -102q0 -45 30.5 -73t82.5 -49l45 -17q137 -53 137 -159q0 -92 -67.5 -149t-171.5 -57z" />
    <glyph glyph-name="scaron" unicode="&#x161;" horiz-adv-x="402" 
d="M238 555q-27 81 -87 145l20 18q59 -52 91 -127h4q62 83 138 124l14 -21q-37 -23 -75.5 -62.5t-60.5 -76.5h-44zM160 -12q-77 0 -162 51l34 51q12 -29 49 -47.5t86 -18.5q57 0 96 30.5t39 79.5q0 40 -24.5 61.5t-67.5 36.5l-20 7q-21 8 -35.5 15t-33 20.5t-28.5 35
t-10 49.5q0 57 47 96t115 39q75 0 137 -47l-29 -46q-11 25 -41.5 41t-72.5 16q-48 0 -83 -27.5t-35 -66.5q0 -37 22.5 -57t60.5 -33l21 -8q55 -18 85 -48t30 -80q0 -64 -50.5 -107t-129.5 -43z" />
    <glyph glyph-name="uni0162" unicode="&#x162;" horiz-adv-x="492" 
d="M445 659q69 0 105 6l-11 -56q-26 15 -100 15h-98l-101 -521q-15 -77 -6 -103h-18l-22 -52q35 -7 52 -21t17 -40q0 -47 -38 -67t-122 -25l-1 31q124 4 124 56q0 20 -16 30t-53 15l32 73h-25q20 29 35 103l101 521h-98q-76 0 -106 -15l10 56q36 -6 102 -6h237z" />
    <glyph glyph-name="uni0163" unicode="&#x163;" horiz-adv-x="344" 
d="M176 445l-65 -318q-21 -105 52 -105q24 0 50 11.5t33 25.5l17 -45q-53 -22 -91 -25l-17 -41q35 -7 52 -21t17 -40q0 -47 -38 -67t-122 -25l-1 31q124 4 124 56q0 20 -16 30t-53 15l27 62q-48 4 -66.5 41t-5.5 99l66 316h-76l8 34h76l18 85h36l-17 -85h143l-8 -34h-143z
" />
    <glyph glyph-name="Tcaron" unicode="&#x164;" horiz-adv-x="492" 
d="M315 702q-27 81 -87 145l20 18q59 -52 91 -127h4q62 83 138 124l14 -21q-37 -23 -75.5 -62.5t-60.5 -76.5h-44zM164 0q20 29 35 103l101 521h-98q-76 0 -106 -15l10 56q36 -6 102 -6h237q69 0 105 6l-11 -56q-26 15 -100 15h-98l-101 -521q-15 -77 -6 -103h-70z" />
    <glyph glyph-name="tcaron" unicode="&#x165;" horiz-adv-x="344" 
d="M256 546l25 172h46l-47 -172h-24zM157 -12q-55 0 -76.5 37.5t-7.5 103.5l66 316h-76l8 34h76l18 85h36l-17 -85h143l-8 -34h-143l-65 -318q-21 -105 52 -105q24 0 50 11.5t33 25.5l17 -45q-62 -26 -106 -26z" />
    <glyph glyph-name="Tbar" unicode="&#x166;" horiz-adv-x="492" 
d="M445 659q69 0 105 6l-11 -56q-26 15 -100 15h-98l-55 -282h107l-7 -33h-106l-40 -206q-15 -77 -6 -103h-70q20 29 35 103l40 206h-106l7 33h105l55 282h-98q-76 0 -106 -15l10 56q36 -6 102 -6h237z" />
    <glyph glyph-name="tbar" unicode="&#x167;" horiz-adv-x="344" 
d="M319 445h-143l-33 -160h111l-7 -33h-110l-26 -125q-21 -105 52 -105q24 0 50 11.5t33 25.5l17 -45q-62 -26 -106 -26q-55 0 -76.5 37.5t-7.5 103.5l26 123h-64l7 33h64l33 160h-76l8 34h76l18 85h36l-17 -85h143z" />
    <glyph glyph-name="Umacron" unicode="&#x16a;" horiz-adv-x="585" 
d="M294 755l7 35h200l-7 -35h-200zM245 -12q-94 0 -145 60.5t-24 201.5l59 306q9 46 10 62.5t-6 40.5h72q-19 -23 -35 -103l-58 -304q-44 -227 133 -227q80 0 141.5 54t85.5 177l58 300q15 78 4 103h69q-19 -29 -34 -103l-60 -304q-51 -264 -270 -264z" />
    <glyph glyph-name="umacron" unicode="&#x16b;" horiz-adv-x="503" 
d="M213 589l7 35h200l-7 -35h-200zM172 -13q-66 0 -91.5 48t-8.5 139l36 185q10 51 11 73.5t-10 46.5h61l-59 -302q-30 -154 68 -154q43 0 95 36t94 91l40 209q19 95 4 120h59l-69 -355q-18 -96 -6 -124h-53l15 88h-3q-89 -101 -183 -101z" />
    <glyph glyph-name="Uring" unicode="&#x16e;" horiz-adv-x="585" 
d="M385 717q-34 0 -54.5 17t-20.5 46q0 40 30.5 68t74.5 28q34 0 54.5 -17t20.5 -46q0 -40 -30.5 -68t-74.5 -28zM390 744q29 0 48 18.5t19 47.5q0 39 -46 39q-30 0 -49 -18.5t-19 -47.5q0 -39 47 -39zM245 -12q-94 0 -145 60.5t-24 201.5l59 306q9 46 10 62.5t-6 40.5h72
q-19 -23 -35 -103l-58 -304q-44 -227 133 -227q80 0 141.5 54t85.5 177l58 300q15 78 4 103h69q-19 -29 -34 -103l-60 -304q-51 -264 -270 -264z" />
    <glyph glyph-name="uring" unicode="&#x16f;" horiz-adv-x="503" 
d="M305 550q-34 0 -54.5 17t-20.5 46q0 40 30.5 68t74.5 28q34 0 54.5 -17t20.5 -46q0 -40 -30.5 -68t-74.5 -28zM310 577q29 0 48 18.5t19 47.5q0 39 -46 39q-30 0 -49 -18.5t-19 -47.5q0 -39 47 -39zM172 -13q-66 0 -91.5 48t-8.5 139l36 185q10 51 11 73.5t-10 46.5h61
l-59 -302q-30 -154 68 -154q43 0 95 36t94 91l40 209q19 95 4 120h59l-69 -355q-18 -96 -6 -124h-53l15 88h-3q-89 -101 -183 -101z" />
    <glyph glyph-name="Uhungarumlaut" unicode="&#x170;" horiz-adv-x="585" 
d="M304 716l-18 12q73 76 113 167l34 -18q-52 -92 -129 -161zM436 716l-18 12q73 76 113 167l34 -18q-54 -93 -129 -161zM245 -12q-94 0 -145 60.5t-24 201.5l59 306q9 46 10 62.5t-6 40.5h72q-19 -23 -35 -103l-58 -304q-44 -227 133 -227q80 0 141.5 54t85.5 177l58 300
q15 78 4 103h69q-19 -29 -34 -103l-60 -304q-51 -264 -270 -264z" />
    <glyph glyph-name="uhungarumlaut" unicode="&#x171;" horiz-adv-x="503" 
d="M224 549l-18 12q73 76 113 167l34 -18q-52 -92 -129 -161zM356 549l-18 12q73 76 113 167l34 -18q-54 -93 -129 -161zM172 -13q-66 0 -91.5 48t-8.5 139l36 185q10 51 11 73.5t-10 46.5h61l-59 -302q-30 -154 68 -154q43 0 95 36t94 91l40 209q19 95 4 120h59l-69 -355
q-18 -96 -6 -124h-53l15 88h-3q-89 -101 -183 -101z" />
    <glyph glyph-name="Uogonek" unicode="&#x172;" horiz-adv-x="585" 
d="M540 659h69q-19 -29 -34 -103l-60 -304q-39 -201 -172 -248q-44 -22 -72.5 -55t-28.5 -61q0 -32 37 -32q26 0 45 22l10 -32q-30 -19 -63 -19q-29 0 -47 13t-18 39q0 58 75 111q-24 -2 -36 -2q-94 0 -145 60.5t-24 201.5l59 306q9 46 10 62.5t-6 40.5h72q-19 -23 -35 -103
l-58 -304q-44 -227 133 -227q80 0 141.5 54t85.5 177l58 300q15 78 4 103z" />
    <glyph glyph-name="uogonek" unicode="&#x173;" horiz-adv-x="503" 
d="M402 124q-18 -96 -6 -124h1q-47 -22 -78.5 -56.5t-31.5 -63.5q0 -32 37 -32q26 0 45 22l10 -32q-30 -19 -63 -19q-29 0 -47 13t-18 39q0 36 31 71.5t75 57.5h-14l15 88h-3q-89 -101 -183 -101q-66 0 -91.5 48t-8.5 139l36 185q10 51 11 73.5t-10 46.5h61l-59 -302
q-30 -154 68 -154q43 0 95 36t94 91l40 209q19 95 4 120h59z" />
    <glyph glyph-name="Wcircumflex" unicode="&#x174;" horiz-adv-x="782" 
d="M512 846q-63 -74 -145 -127l-13 19q83 62 145 145h38q34 -89 89 -145l-20 -19q-57 51 -90 127h-4zM777 659h65q-21 -24 -53 -100l-179 -430q-40 -93 -43 -129h-73q8 31 2 129l-33 474l-218 -474q-45 -97 -47 -129h-74q10 34 6 129l-13 431q-2 64 -14 99h64
q-11 -32 -9 -98l13 -509l235 512q32 71 32 95h71q-9 -27 -4 -94l35 -513l212 513q18 45 22.5 62t2.5 32z" />
    <glyph glyph-name="wcircumflex" unicode="&#x175;" horiz-adv-x="655" 
d="M276 552l-13 19q83 62 145 145h38q34 -89 89 -145l-20 -19q-57 51 -90 127h-4q-63 -74 -145 -127zM122 0l-33 375q-7 79 -25 104h54l27 -322q8 -100 7 -119h7q18 46 49 112.5t64.5 135.5t43.5 91q36 80 32 102h62l22 -322q5 -86 4 -119h7q19 49 73 157t88.5 186.5
t27.5 97.5h49q-12 -42 -103 -228.5t-113 -250.5h-60l-24 354q-4 83 -5 86h-1q-9 -30 -32 -80q-19 -42 -57.5 -122t-64 -137.5t-40.5 -100.5h-59z" />
    <glyph glyph-name="Ycircumflex" unicode="&#x176;" 
d="M359 846q-63 -74 -145 -127l-13 19q83 62 145 145h38q34 -89 89 -145l-20 -19q-57 51 -90 127h-4zM483 659h67q-30 -29 -82 -105l-198 -290l-32 -161q-16 -75 -4 -103h-72q19 24 35 103l33 166l-93 287q-26 80 -42 103h65q-5 -26 17 -95l81 -261l176 260q48 70 49 96z
" />
    <glyph glyph-name="ycircumflex" unicode="&#x177;" horiz-adv-x="428" 
d="M146 552l-13 19q83 62 145 145h38q34 -89 89 -145l-20 -19q-57 51 -90 127h-4q-63 -74 -145 -127zM-14 -200q-12 0 -50 7l20 51q13 -22 40 -22q80 0 150 129l13 24l-64 382q-9 50 -16 72t-20 36h54l49 -282q13 -75 23 -159h4q28 59 83 162l101 188q23 43 30 62t-1 29h59
l-282 -528q-81 -151 -193 -151z" />
    <glyph glyph-name="Ydieresis" unicode="&#x178;" 
d="M277 745q-13 0 -21 8t-8 21q0 16 13 29t30 13q12 0 20 -8t8 -21q0 -16 -12.5 -29t-29.5 -13zM406 745q-13 0 -21 8t-8 21q0 16 13 29t30 13q13 0 21 -8t8 -21q0 -16 -13 -29t-30 -13zM483 659h67q-30 -29 -82 -105l-198 -290l-32 -161q-16 -75 -4 -103h-72q19 24 35 103
l33 166l-93 287q-26 80 -42 103h65q-5 -26 17 -95l81 -261l176 260q48 70 49 96z" />
    <glyph glyph-name="Zacute" unicode="&#x179;" horiz-adv-x="547" 
d="M516 848q-74 -92 -177 -148l-13 20q91 60 164 156zM299 659h264l-3 -38q-20 -7 -71 -69l-419 -516h204q93 0 128.5 3.5t53.5 13.5l-12 -59q-28 6 -176 6h-261l3 39q25 12 84 85l406 499h-208q-108 0 -141 -18l12 60q30 -6 136 -6z" />
    <glyph glyph-name="zacute" unicode="&#x17a;" horiz-adv-x="417" 
d="M415 701q-74 -92 -177 -148l-13 20q91 60 164 156zM90 426l11 53h313l-5 -31l-365 -412h188q58 0 80 3t38 15l-10 -54h-353l5 32l365 412h-159q-52 0 -71.5 -3.5t-36.5 -14.5z" />
    <glyph glyph-name="Zdotaccent" unicode="&#x17b;" horiz-adv-x="547" 
d="M361 712q-29 0 -29 27q0 22 12 36t32 14q30 0 30 -27q0 -22 -12.5 -36t-32.5 -14zM299 659h264l-3 -38q-20 -7 -71 -69l-419 -516h204q93 0 128.5 3.5t53.5 13.5l-12 -59q-28 6 -176 6h-261l3 39q25 12 84 85l406 499h-208q-108 0 -141 -18l12 60q30 -6 136 -6z" />
    <glyph glyph-name="zdotaccent" unicode="&#x17c;" horiz-adv-x="417" 
d="M260 565q-29 0 -29 27q0 22 12 36t32 14q30 0 30 -27q0 -22 -12.5 -36t-32.5 -14zM414 479l-5 -31l-365 -412h188q58 0 80 3t38 15l-10 -54h-353l5 32l365 412h-159q-52 0 -71.5 -3.5t-36.5 -14.5l11 53h313z" />
    <glyph glyph-name="Zcaron" unicode="&#x17d;" horiz-adv-x="547" 
d="M383 702h-44q-27 81 -87 145l20 18q59 -52 91 -127h4q62 83 138 124l14 -21q-37 -23 -75.5 -62.5t-60.5 -76.5zM299 659h264l-3 -38q-20 -7 -71 -69l-419 -516h204q93 0 128.5 3.5t53.5 13.5l-12 -59q-28 6 -176 6h-261l3 39q25 12 84 85l406 499h-208q-108 0 -141 -18
l12 60q30 -6 136 -6z" />
    <glyph glyph-name="zcaron" unicode="&#x17e;" horiz-adv-x="417" 
d="M282 555h-44q-27 81 -87 145l20 18q59 -52 91 -127h4q62 83 138 124l14 -21q-37 -23 -75.5 -62.5t-60.5 -76.5zM90 426l11 53h313l-5 -31l-365 -412h188q58 0 80 3t38 15l-10 -54h-353l5 32l365 412h-159q-52 0 -71.5 -3.5t-36.5 -14.5z" />
    <glyph glyph-name="florin" unicode="&#x192;" horiz-adv-x="527" 
d="M436 576q-83 0 -122 -129l-19 -63h85q39 0 58 8l-10 -51q-15 9 -54 9h-89l-59 -197q-27 -90 -65 -127.5t-92 -37.5q-23 0 -55 10l19 47q14 -21 43 -21q37 0 64 29.5t47 99.5l59 197h-27q-39 0 -58 -9l10 51q16 -8 54 -8h31l19 63q50 165 169 165q25 0 69 -10l-20 -47
q-21 21 -57 21z" />
    <glyph glyph-name="uni0218" unicode="&#x218;" horiz-adv-x="532" 
d="M224 -12q-120 0 -211 72l35 57q37 -91 184 -91q81 0 134.5 44.5t53.5 115.5q0 53 -32 81.5t-86 48.5l-46 18q-130 49 -130 149q0 85 60.5 136.5t149.5 51.5q101 0 177 -60l-32 -47q-36 70 -152 70q-66 0 -113.5 -40t-47.5 -102q0 -45 30.5 -73t82.5 -49l45 -17
q137 -53 137 -159q0 -92 -67.5 -149t-171.5 -57zM155 -208l-10 19q28 12 47 33.5t24 41.5q-2 -2 -10 -2q-11 0 -19 7.5t-8 20.5q0 19 12 32t29 13q32 0 32 -36q0 -37 -28.5 -75.5t-68.5 -53.5z" />
    <glyph glyph-name="uni0219" unicode="&#x219;" horiz-adv-x="402" 
d="M160 -12q-77 0 -162 51l34 51q12 -29 49 -47.5t86 -18.5q57 0 96 30.5t39 79.5q0 40 -24.5 61.5t-67.5 36.5l-20 7q-21 8 -35.5 15t-33 20.5t-28.5 35t-10 49.5q0 57 47 96t115 39q75 0 137 -47l-29 -46q-11 25 -41.5 41t-72.5 16q-48 0 -83 -27.5t-35 -66.5
q0 -37 22.5 -57t60.5 -33l21 -8q55 -18 85 -48t30 -80q0 -64 -50.5 -107t-129.5 -43zM93 -208l-10 19q28 11 47 33t24 42q-2 -2 -10 -2q-11 0 -19 7.5t-8 20.5q0 19 12 32t29 13q32 0 32 -36q0 -37 -28.5 -75.5t-68.5 -53.5z" />
    <glyph glyph-name="uni021A" unicode="&#x21a;" horiz-adv-x="492" 
d="M164 0q20 29 35 103l101 521h-98q-76 0 -106 -15l10 56q36 -6 102 -6h237q69 0 105 6l-11 -56q-26 15 -100 15h-98l-101 -521q-15 -77 -6 -103h-70zM130 -208l-10 19q28 12 47 33.5t24 41.5q-2 -2 -10 -2q-11 0 -19 7.5t-8 20.5q0 19 12 32t29 13q32 0 32 -36
q0 -37 -28.5 -75.5t-68.5 -53.5z" />
    <glyph glyph-name="uni021B" unicode="&#x21b;" horiz-adv-x="344" 
d="M157 -12q-55 0 -76.5 37.5t-7.5 103.5l66 316h-76l8 34h76l18 85h36l-17 -85h143l-8 -34h-143l-65 -318q-21 -105 52 -105q24 0 50 11.5t33 25.5l17 -45q-62 -26 -106 -26zM90 -208l-10 19q28 11 47 33t24 42q-2 -2 -10 -2q-11 0 -19 7.5t-8 20.5q0 19 12 32t29 13
q32 0 32 -36q0 -37 -28.5 -75.5t-68.5 -53.5z" />
    <glyph glyph-name="circumflex" unicode="&#x2c6;" horiz-adv-x="432" 
d="M161 573l-13 19q83 62 145 145h38q34 -89 89 -145l-20 -19q-57 51 -90 127h-4q-63 -74 -145 -127z" />
    <glyph glyph-name="caron" unicode="&#x2c7;" horiz-adv-x="432" 
d="M261 576q-27 81 -87 145l20 18q59 -52 91 -127h4q62 83 138 124l14 -21q-37 -23 -75.5 -62.5t-60.5 -76.5h-44z" />
    <glyph glyph-name="breve" unicode="&#x2d8;" horiz-adv-x="382" 
d="M255 568q-112 0 -83 145h28q-9 -49 4 -81.5t57 -32.5t70 32.5t35 81.5h28q-25 -145 -139 -145z" />
    <glyph glyph-name="dotaccent" unicode="&#x2d9;" horiz-adv-x="232" 
d="M183 586q-29 0 -29 27q0 22 12 36t32 14q30 0 30 -27q0 -22 -12.5 -36t-32.5 -14z" />
    <glyph glyph-name="ring" unicode="&#x2da;" horiz-adv-x="337" 
d="M233 571q-34 0 -54.5 17t-20.5 46q0 40 30.5 68t74.5 28q34 0 54.5 -17t20.5 -46q0 -40 -30.5 -68t-74.5 -28zM238 598q29 0 48 18.5t19 47.5q0 39 -46 39q-30 0 -49 -18.5t-19 -47.5q0 -39 47 -39z" />
    <glyph glyph-name="ogonek" unicode="&#x2db;" horiz-adv-x="296" 
d="M76 -178q-29 0 -47 13t-18 39q0 39 35.5 77t83.5 58l27 -6q-47 -22 -78.5 -56.5t-31.5 -63.5q0 -32 37 -32q26 0 45 22l10 -32q-30 -19 -63 -19z" />
    <glyph glyph-name="tilde" unicode="&#x2dc;" horiz-adv-x="469" 
d="M370 588q-21 0 -39 13.5t-28 29t-24 29t-29 13.5q-50 0 -54 -67l-41 2q31 96 102 96q22 0 39.5 -13.5t27.5 -29.5t24 -29.5t29 -13.5q47 0 55 67l40 -2q-32 -95 -102 -95z" />
    <glyph glyph-name="hungarumlaut" unicode="&#x2dd;" horiz-adv-x="410" 
d="M164 570l-18 12q73 76 113 167l34 -18q-52 -92 -129 -161zM296 570l-18 12q73 76 113 167l34 -18q-54 -93 -129 -161z" />
    <glyph glyph-name="gravecomb" unicode="&#x300;" horiz-adv-x="0" 
d="M-248 574q-85 61 -120 148l34 26q34 -97 103 -157z" />
    <glyph glyph-name="acutecomb" unicode="&#x301;" horiz-adv-x="0" 
d="M-348 574l-13 20q91 60 164 156l26 -28q-74 -92 -177 -148z" />
    <glyph glyph-name="uni0302" unicode="&#x302;" horiz-adv-x="0" 
d="M-381 573l-13 19q83 62 145 145h38q34 -89 89 -145l-20 -19q-57 51 -90 127h-4q-63 -74 -145 -127z" />
    <glyph glyph-name="tildecomb" unicode="&#x303;" horiz-adv-x="0" 
d="M-172 588q-21 0 -39 13.5t-28 29t-24 29t-29 13.5q-50 0 -54 -67l-41 2q31 96 102 96q22 0 39.5 -13.5t27.5 -29.5t24 -29.5t29 -13.5q47 0 55 67l40 -2q-32 -95 -102 -95z" />
    <glyph glyph-name="uni0304" unicode="&#x304;" horiz-adv-x="0" 
d="M-391 607l7 35h200l-7 -35h-200z" />
    <glyph glyph-name="uni0306" unicode="&#x306;" horiz-adv-x="0" 
d="M-287 568q-112 0 -83 145h28q-9 -49 4 -81.5t57 -32.5t70 32.5t35 81.5h28q-25 -145 -139 -145z" />
    <glyph glyph-name="uni0307" unicode="&#x307;" horiz-adv-x="0" 
d="M-359 586q-29 0 -29 27q0 22 12 36t32 14q30 0 30 -27q0 -22 -12.5 -36t-32.5 -14z" />
    <glyph glyph-name="uni0308" unicode="&#x308;" horiz-adv-x="0" 
d="M-357 599q-13 0 -21 8t-8 21q0 16 13 29t30 13q12 0 20 -8t8 -21q0 -16 -12.5 -29t-29.5 -13zM-228 599q-13 0 -21 8t-8 21q0 16 13 29t30 13q13 0 21 -8t8 -21q0 -16 -13 -29t-30 -13z" />
    <glyph glyph-name="uni030A" unicode="&#x30a;" horiz-adv-x="0" 
d="M-281 571q-34 0 -54.5 17t-20.5 46q0 40 30.5 68t74.5 28q34 0 54.5 -17t20.5 -46q0 -40 -30.5 -68t-74.5 -28zM-276 598q29 0 48 18.5t19 47.5q0 39 -46 39q-30 0 -49 -18.5t-19 -47.5q0 -39 47 -39z" />
    <glyph glyph-name="uni030B" unicode="&#x30b;" horiz-adv-x="0" 
d="M-261 570l-18 12q73 76 113 167l34 -18q-52 -92 -129 -161zM-129 570l-18 12q73 76 113 167l34 -18q-54 -93 -129 -161z" />
    <glyph glyph-name="uni030C" unicode="&#x30c;" horiz-adv-x="0" 
d="M-281 576q-27 81 -87 145l20 18q59 -52 91 -127h4q62 83 138 124l14 -21q-37 -23 -75.5 -62.5t-60.5 -76.5h-44z" />
    <glyph glyph-name="uni0312" unicode="&#x312;" horiz-adv-x="0" 
d="M-59 562q-32 0 -32 36q0 38 28 76t68 53l7 -17q-52 -22 -67 -77q6 2 11 2q11 0 19 -7.5t8 -20.5q0 -19 -12.5 -32t-29.5 -13z" />
    <glyph glyph-name="uni0326" unicode="&#x326;" horiz-adv-x="0" 
d="M-241 -208l-10 19q28 11 47 33t24 42q-2 -2 -10 -2q-11 0 -19 7.5t-8 20.5q0 19 12 32t29 13q32 0 32 -36q0 -37 -28.5 -75.5t-68.5 -53.5z" />
    <glyph glyph-name="uni0327" unicode="&#x327;" horiz-adv-x="0" 
d="M-292 -205l-1 31q124 4 124 56q0 20 -16 30t-53 15l33 76h27l-23 -55q35 -7 52 -21t17 -40q0 -47 -38 -67t-122 -25z" />
    <glyph glyph-name="uni0328" unicode="&#x328;" horiz-adv-x="0" 
d="M-243 -178q-29 0 -47 13t-18 39q0 39 35.5 77t83.5 58l27 -6q-47 -22 -78.5 -56.5t-31.5 -63.5q0 -32 37 -32q26 0 45 22l10 -32q-30 -19 -63 -19z" />
    <glyph glyph-name="uni0394" unicode="&#x394;" horiz-adv-x="556" 
d="M434 571l84 -535l-17 -36h-461l-3 36l293 535q34 63 38 88h62q-6 -22 4 -88zM79 36h397l-87 583z" />
    <glyph glyph-name="uni03A9" unicode="&#x3a9;" horiz-adv-x="720" 
d="M437 36h91q39 0 58 8l-10 -52q-16 8 -54 8h-156l2 9h-1l5 27q99 35 174 156.5t75 246.5q0 93 -49.5 144t-131.5 51q-121 0 -204 -104t-83 -254q0 -87 33.5 -152t89.5 -88l-5 -27l-2 -9h-156q-39 0 -58 -8l11 52q16 -8 54 -8h91q-103 69 -103 232q0 170 98 286.5
t241 116.5q98 0 158 -58.5t60 -166.5q0 -125 -65 -241t-163 -169z" />
    <glyph glyph-name="uni03BC" unicode="&#x3bc;" horiz-adv-x="527" 
d="M495 479l-72 -376q-15 -76 -8 -103h-55q3 14 23 98h-3q-79 -110 -184 -110q-67 0 -95 55l-18 -93q-14 -72 -3 -103h-71q19 24 35 103l62 315l22 111q14 77 6 103h52l-41 -214l-5 -28l-18 -91q-11 -56 11.5 -88t72.5 -32q100 0 187 127l44 223q14 73 8 103h50z" />
    <glyph glyph-name="pi" unicode="&#x3c0;" horiz-adv-x="513" 
d="M335 -12q-43 0 -54.5 28.5t1.5 94.5l64 333h-177l-67 -341q-14 -76 -4 -103h-71q20 30 34 103l67 341h-4q-64 0 -92 -15l11 56q28 -6 89 -6h264q60 0 91 6l-11 -56q-13 9 -29 12t-58 3h-4l-64 -331q-9 -53 -4 -71t26 -18q27 0 43 11l-2 -43q-8 0 -23.5 -2t-25.5 -2z" />
    <glyph glyph-name="Wgrave" unicode="&#x1e80;" horiz-adv-x="782" 
d="M504 720q-85 61 -120 148l34 26q34 -97 103 -157zM777 659h65q-21 -24 -53 -100l-179 -430q-40 -93 -43 -129h-73q8 31 2 129l-33 474l-218 -474q-45 -97 -47 -129h-74q10 34 6 129l-13 431q-2 64 -14 99h64q-11 -32 -9 -98l13 -509l235 512q32 71 32 95h71
q-9 -27 -4 -94l35 -513l212 513q18 45 22.5 62t2.5 32z" />
    <glyph glyph-name="wgrave" unicode="&#x1e81;" horiz-adv-x="655" 
d="M414 553q-85 61 -120 148l34 26q34 -97 103 -157zM122 0l-33 375q-7 79 -25 104h54l27 -322q8 -100 7 -119h7q18 46 49 112.5t64.5 135.5t43.5 91q36 80 32 102h62l22 -322q5 -86 4 -119h7q19 49 73 157t88.5 186.5t27.5 97.5h49q-12 -42 -103 -228.5t-113 -250.5h-60
l-24 354q-4 83 -5 86h-1q-9 -30 -32 -80q-19 -42 -57.5 -122t-64 -137.5t-40.5 -100.5h-59z" />
    <glyph glyph-name="Wacute" unicode="&#x1e82;" horiz-adv-x="782" 
d="M643 868q-74 -92 -177 -148l-13 20q91 60 164 156zM777 659h65q-21 -24 -53 -100l-179 -430q-40 -93 -43 -129h-73q8 31 2 129l-33 474l-218 -474q-45 -97 -47 -129h-74q10 34 6 129l-13 431q-2 64 -14 99h64q-11 -32 -9 -98l13 -509l235 512q32 71 32 95h71
q-9 -27 -4 -94l35 -513l212 513q18 45 22.5 62t2.5 32z" />
    <glyph glyph-name="wacute" unicode="&#x1e83;" horiz-adv-x="655" 
d="M376 553l-13 20q91 60 164 156l26 -28q-74 -92 -177 -148zM122 0l-33 375q-7 79 -25 104h54l27 -322q8 -100 7 -119h7q18 46 49 112.5t64.5 135.5t43.5 91q36 80 32 102h62l22 -322q5 -86 4 -119h7q19 49 73 157t88.5 186.5t27.5 97.5h49q-12 -42 -103 -228.5
t-113 -250.5h-60l-24 354q-4 83 -5 86h-1q-9 -30 -32 -80q-19 -42 -57.5 -122t-64 -137.5t-40.5 -100.5h-59z" />
    <glyph glyph-name="Wdieresis" unicode="&#x1e84;" horiz-adv-x="782" 
d="M429 745q-13 0 -21 8t-8 21q0 16 13 29t30 13q12 0 20 -8t8 -21q0 -16 -12.5 -29t-29.5 -13zM558 745q-13 0 -21 8t-8 21q0 16 13 29t30 13q13 0 21 -8t8 -21q0 -16 -13 -29t-30 -13zM777 659h65q-21 -24 -53 -100l-179 -430q-40 -93 -43 -129h-73q8 31 2 129l-33 474
l-218 -474q-45 -97 -47 -129h-74q10 34 6 129l-13 431q-2 64 -14 99h64q-11 -32 -9 -98l13 -509l235 512q32 71 32 95h71q-9 -27 -4 -94l35 -513l212 513q18 45 22.5 62t2.5 32z" />
    <glyph glyph-name="wdieresis" unicode="&#x1e85;" horiz-adv-x="655" 
d="M338 578q-13 0 -21 8t-8 21q0 16 13 29t30 13q12 0 20 -8t8 -21q0 -16 -12.5 -29t-29.5 -13zM467 578q-13 0 -21 8t-8 21q0 16 13 29t30 13q13 0 21 -8t8 -21q0 -16 -13 -29t-30 -13zM122 0l-33 375q-7 79 -25 104h54l27 -322q8 -100 7 -119h7q18 46 49 112.5t64.5 135.5
t43.5 91q36 80 32 102h62l22 -322q5 -86 4 -119h7q19 49 73 157t88.5 186.5t27.5 97.5h49q-12 -42 -103 -228.5t-113 -250.5h-60l-24 354q-4 83 -5 86h-1q-9 -30 -32 -80q-19 -42 -57.5 -122t-64 -137.5t-40.5 -100.5h-59z" />
    <glyph glyph-name="uni1E9E" unicode="&#x1e9e;" horiz-adv-x="576" 
d="M314 -12q-84 0 -160 54l33 47q13 -31 47.5 -48.5t82.5 -17.5q70 0 120 46t50 118q0 63 -42.5 100t-140.5 49l3 29l162 175q-5 38 -44 66.5t-88 28.5q-73 0 -117 -48t-65 -153l-64 -331q-15 -74 -4 -103h-71q18 24 34 103l65 331q45 237 226 237q66 0 114 -40t57 -95
l-159 -172q176 -28 176 -174q0 -92 -60.5 -147t-154.5 -55z" />
    <glyph glyph-name="Ygrave" unicode="&#x1ef2;" 
d="M352 720q-85 61 -120 148l34 26q34 -97 103 -157zM483 659h67q-30 -29 -82 -105l-198 -290l-32 -161q-16 -75 -4 -103h-72q19 24 35 103l33 166l-93 287q-26 80 -42 103h65q-5 -26 17 -95l81 -261l176 260q48 70 49 96z" />
    <glyph glyph-name="ygrave" unicode="&#x1ef3;" horiz-adv-x="428" 
d="M284 553q-85 61 -120 148l34 26q34 -97 103 -157zM-14 -200q-12 0 -50 7l20 51q13 -22 40 -22q80 0 150 129l13 24l-64 382q-9 50 -16 72t-20 36h54l49 -282q13 -75 23 -159h4q28 59 83 162l101 188q23 43 30 62t-1 29h59l-282 -528q-81 -151 -193 -151z" />
    <glyph glyph-name="figuredash" unicode="&#x2012;" horiz-adv-x="504" 
d="M41 234l7 34h416l-7 -34h-416z" />
    <glyph glyph-name="endash" unicode="&#x2013;" horiz-adv-x="487" 
d="M41 234l7 34h398l-7 -34h-398z" />
    <glyph glyph-name="emdash" unicode="&#x2014;" horiz-adv-x="807" 
d="M41 234l7 34h718l-7 -34h-718z" />
    <glyph glyph-name="quoteleft" unicode="&#x2018;" horiz-adv-x="201" 
d="M364 689l8 -19q-77 -45 -92 -126q4 2 12 2q12 0 20.5 -7.5t8.5 -21.5q0 -20 -14 -34.5t-33 -14.5q-37 0 -37 45q0 48 34.5 95.5t92.5 80.5z" />
    <glyph glyph-name="quoteright" unicode="&#x2019;" horiz-adv-x="229" 
d="M52 468l-8 19q77 45 92 126q-4 -2 -12 -2q-12 0 -21 7.5t-9 21.5q0 20 14 34.5t34 14.5q37 0 37 -45q0 -48 -34.5 -95.5t-92.5 -80.5z" />
    <glyph glyph-name="quotesinglbase" unicode="&#x201a;" horiz-adv-x="201" 
d="M-65 -143l-8 19q76 46 91 126q-4 -2 -11 -2q-13 0 -21.5 7.5t-8.5 21.5q0 20 14 34.5t34 14.5q17 0 26.5 -12t9.5 -33q0 -48 -34 -95.5t-92 -80.5z" />
    <glyph glyph-name="quotedblleft" unicode="&#x201c;" horiz-adv-x="326" 
d="M364 689l7 -19q-76 -46 -91 -126q4 2 11 2q13 0 21.5 -7.5t8.5 -21.5q0 -20 -14 -34.5t-34 -14.5q-17 0 -26.5 12t-9.5 33q0 48 34.5 95.5t92.5 80.5zM488 689l8 -19q-75 -44 -92 -126q6 2 12 2q12 0 21 -8t9 -21q0 -20 -14 -34.5t-34 -14.5q-36 0 -36 45q0 48 34 95.5
t92 80.5z" />
    <glyph glyph-name="quotedblright" unicode="&#x201d;" horiz-adv-x="326" 
d="M45 468l-7 19q76 46 91 126q-4 -2 -11 -2q-13 0 -21.5 7.5t-8.5 21.5q0 20 14 34.5t34 14.5q17 0 26.5 -12t9.5 -33q0 -48 -34.5 -95.5t-92.5 -80.5zM170 468l-8 19q77 45 92 126q-4 -2 -12 -2q-12 0 -21 7.5t-9 21.5q0 20 14 34.5t34 14.5q37 0 37 -45
q0 -48 -34.5 -95.5t-92.5 -80.5z" />
    <glyph glyph-name="quotedblbase" unicode="&#x201e;" horiz-adv-x="326" 
d="M-65 -144l-8 19q76 46 91 126q-4 -2 -11 -2q-13 0 -21.5 7.5t-8.5 21.5q0 20 14 34.5t34 14.5q17 0 26.5 -12t9.5 -33q0 -48 -34 -95.5t-92 -80.5zM59 -144l-8 19q77 45 92 126q-4 -2 -11 -2q-13 0 -21.5 7.5t-8.5 21.5q0 20 14 34.5t33 14.5q37 0 37 -45
q0 -48 -34.5 -95.5t-92.5 -80.5z" />
    <glyph glyph-name="dagger" unicode="&#x2020;" horiz-adv-x="409" 
d="M124 245q15 18 27 80l33 173l-46 1q-54 0 -74 -12l11 56q14 -11 70 -11h46l11 58q9 54 3 72h57q-15 -19 -25 -72l-11 -58l44 -1q54 0 75 11l-11 -56q-15 12 -70 12h-45l-33 -173q-12 -64 -5 -80h-57z" />
    <glyph glyph-name="daggerdbl" unicode="&#x2021;" horiz-adv-x="464" 
d="M148 245q14 21 26 80l10 50l-46 1q-54 0 -74 -12l11 56q14 -11 70 -11h46l19 100h-46q-54 0 -74 -11l11 56q15 -12 70 -12h45l10 48q10 54 3 72h56q-14 -20 -24 -72l-9 -48l45 -1q54 0 73 12l-11 -56q-17 12 -69 12h-45l-19 -100l44 -1q54 0 75 11l-11 -56q-15 12 -70 12
h-45l-10 -50q-12 -60 -5 -80h-56z" />
    <glyph glyph-name="bullet" unicode="&#x2022;" horiz-adv-x="301" 
d="M135 166q-32 0 -52.5 21t-20.5 54q0 47 34 83.5t78 36.5q32 0 53 -21t21 -55q0 -47 -34 -83t-79 -36z" />
    <glyph glyph-name="ellipsis" unicode="&#x2026;" horiz-adv-x="662" 
d="M47 -12q-14 0 -24 9.5t-10 25.5q0 21 13.5 36t32.5 15q15 0 25 -9.5t10 -26.5q0 -22 -14.5 -36t-32.5 -14zM271 -12q-15 0 -25 9.5t-10 25.5q0 21 14 36t33 15q14 0 24 -9.5t10 -26.5q0 -22 -14.5 -36t-31.5 -14zM494 -12q-15 0 -25 9.5t-10 25.5q0 21 14 36t33 15
q15 0 25 -9.5t10 -26.5q0 -22 -14.5 -36t-32.5 -14z" />
    <glyph glyph-name="perthousand" unicode="&#x2030;" horiz-adv-x="1143" 
d="M171 -12l492 680h36l-492 -680h-36zM199 257q-51 0 -79.5 33t-28.5 96q0 111 54 188t131 77q52 0 80.5 -32.5t28.5 -95.5q0 -111 -54 -188.5t-132 -77.5zM205 288q58 0 100.5 68.5t42.5 160.5q0 51 -20.5 77t-57.5 26q-58 0 -100 -67.5t-42 -160.5q0 -51 20.5 -77.5
t56.5 -26.5zM574 -12q-51 0 -79.5 33t-28.5 96q0 111 54 188t131 77q52 0 80.5 -32.5t28.5 -95.5q0 -111 -54 -188.5t-132 -77.5zM915 -12q-52 0 -80.5 33t-28.5 96q0 111 54 188t132 77q51 0 79.5 -32.5t28.5 -95.5q0 -111 -54 -188.5t-131 -77.5zM580 19q58 0 100.5 68.5
t42.5 160.5q0 51 -21 77t-57 26q-58 0 -100 -67.5t-42 -160.5q0 -51 20.5 -77.5t56.5 -26.5zM921 19q57 0 99.5 68.5t42.5 160.5q0 51 -20.5 77t-57.5 26q-58 0 -100 -67.5t-42 -160.5q0 -51 20.5 -77.5t57.5 -26.5z" />
    <glyph glyph-name="guilsinglleft" unicode="&#x2039;" horiz-adv-x="302" 
d="M177 91q-46 98 -126 142l8 39q99 44 180 141l17 -18q-76 -94 -164 -143q72 -56 108 -145z" />
    <glyph glyph-name="guilsinglright" unicode="&#x203a;" horiz-adv-x="303" 
d="M63 91l-17 16q74 91 165 145q-73 56 -109 143l24 18q45 -98 126 -141l-7 -39q-96 -43 -182 -142z" />
    <glyph glyph-name="fraction" unicode="&#x2044;" horiz-adv-x="249" 
d="M-138 -12l493 680h36l-493 -680h-36z" />
    <glyph glyph-name="uni2070" unicode="&#x2070;" horiz-adv-x="376" 
d="M224 386q-51 0 -79.5 33t-28.5 96q0 111 54 188t131 77q52 0 80.5 -32.5t28.5 -95.5q0 -111 -54 -188.5t-132 -77.5zM230 417q58 0 100.5 68.5t42.5 160.5q0 51 -20.5 77t-57.5 26q-58 0 -100 -67.5t-42 -160.5q0 -51 20.5 -77.5t56.5 -26.5z" />
    <glyph glyph-name="uni2074" unicode="&#x2074;" horiz-adv-x="363" 
d="M256 398q20 24 32 86l5 24h-177l5 25l228 252h30l-47 -247q42 0 60 13l-8 -43h-58l-5 -24q-12 -65 -2 -86h-63zM161 538h137l38 195z" />
    <glyph glyph-name="uni2075" unicode="&#x2075;" horiz-adv-x="398" 
d="M239 386q-31 0 -54.5 10t-43 24t-31.5 18l38 42q20 -64 98 -64q47 0 81.5 35.5t34.5 85.5q0 33 -21 52t-56 19q-51 0 -91 -20l-21 7l56 190h137q44 0 63 12l-11 -55q-14 10 -59 10h-108l-37 -128q41 15 79 15q46 0 76 -25t30 -71q0 -65 -47 -111t-113 -46z" />
    <glyph glyph-name="uni2076" unicode="&#x2076;" horiz-adv-x="374" 
d="M233 386q-51 0 -80 34t-29 95q0 111 60.5 196.5t139.5 85.5q19 0 44.5 -5t37.5 -3l-25 -50q-17 27 -63 27q-41 0 -85 -44.5t-64 -130.5q53 50 116 50q48 0 74.5 -26t26.5 -69q0 -65 -45.5 -112.5t-107.5 -47.5zM238 416q46 0 79.5 36.5t33.5 85.5q0 32 -19 52t-54 20
q-63 0 -117 -57q-8 -63 12.5 -100t64.5 -37z" />
    <glyph glyph-name="uni2077" unicode="&#x2077;" horiz-adv-x="360" 
d="M151 398q27 113 72 194.5t131 161.5h-163q-47 0 -67 -15l10 54q16 -8 63 -8h200l-7 -32q-89 -84 -133 -164t-70 -191h-36z" />
    <glyph glyph-name="uni2078" unicode="&#x2078;" horiz-adv-x="383" 
d="M232 386q-52 0 -81.5 25t-29.5 64q0 40 30.5 76t75.5 52l1 4q-50 23 -50 72q0 47 40 82.5t93 35.5q44 0 71.5 -22.5t27.5 -59.5q0 -35 -24.5 -66t-63.5 -47l-1 -4q29 -11 46.5 -33t17.5 -50q0 -52 -46 -90.5t-107 -38.5zM295 612q36 17 58 44t22 55q0 24 -19.5 39
t-49.5 15q-37 0 -64.5 -24.5t-27.5 -56.5q0 -49 81 -72zM238 416q44 0 77.5 28t33.5 65q0 54 -97 82q-43 -18 -68.5 -46.5t-25.5 -61.5q0 -28 21.5 -47.5t58.5 -19.5z" />
    <glyph glyph-name="uni2079" unicode="&#x2079;" horiz-adv-x="373" 
d="M200 386q-19 0 -44.5 5t-37.5 3l25 50q15 -28 63 -28q42 0 85 44.5t64 130.5q-56 -49 -117 -49q-49 0 -75.5 25.5t-26.5 69.5q0 65 46 112.5t108 47.5q51 0 80.5 -34.5t29.5 -95.5q0 -111 -61 -196t-139 -85zM246 572q61 0 116 57q8 64 -12.5 100.5t-64.5 36.5
q-46 0 -79 -36t-33 -86q0 -33 18.5 -52.5t54.5 -19.5z" />
    <glyph glyph-name="uni2080" unicode="&#x2080;" horiz-adv-x="376" 
d="M113 -188q-51 0 -79.5 33t-28.5 96q0 111 54 188t131 77q52 0 80.5 -32.5t28.5 -95.5q0 -111 -54 -188.5t-132 -77.5zM119 -157q58 0 100.5 68.5t42.5 160.5q0 51 -20.5 77t-57.5 26q-58 0 -100 -67.5t-42 -160.5q0 -51 20.5 -77.5t56.5 -26.5z" />
    <glyph glyph-name="uni2081" unicode="&#x2081;" horiz-adv-x="355" 
d="M34 -176l5 27l95 11l53 269h-85l6 27q77 0 126 38l-65 -334l85 -11l-4 -27h-216z" />
    <glyph glyph-name="uni2082" unicode="&#x2082;" horiz-adv-x="352" 
d="M-26 -176l4 28q128 85 185.5 141.5t57.5 114.5q0 31 -17.5 49t-47.5 18q-32 0 -61 -16.5t-48 -43.5l-17 40q8 2 29.5 16t48 24.5t54.5 10.5q42 0 69 -24.5t27 -67.5q0 -67 -56.5 -126.5t-166.5 -132.5h116q59 0 85 15l-9 -46h-253z" />
    <glyph glyph-name="uni2083" unicode="&#x2083;" horiz-adv-x="385" 
d="M130 -188q-42 0 -83.5 25t-48.5 27l36 44q28 -66 102 -66q43 0 73.5 27t30.5 65q0 64 -127 64l6 29q62 0 101.5 26.5t39.5 67.5q0 26 -17.5 40.5t-47.5 14.5q-54 0 -107 -53l-14 42q8 2 51.5 21.5t75.5 19.5q42 0 69 -20.5t27 -57.5q0 -39 -26.5 -69.5t-71.5 -43.5
q34 -5 55.5 -24.5t21.5 -51.5q0 -52 -43 -89.5t-103 -37.5z" />
    <glyph glyph-name="uni2084" unicode="&#x2084;" horiz-adv-x="363" 
d="M145 -176q20 24 32 86l5 24h-177l5 25l228 252h30l-47 -247q42 0 60 13l-8 -43h-58l-5 -24q-12 -65 -2 -86h-63zM50 -36h137l38 195z" />
    <glyph glyph-name="uni2085" unicode="&#x2085;" horiz-adv-x="398" 
d="M128 -186q-31 0 -54.5 10t-43 24t-31.5 18l38 42q20 -64 98 -64q47 0 81.5 35.5t34.5 85.5q0 33 -21 52t-56 19q-51 0 -91 -20l-21 7l56 190h137q44 0 63 12l-11 -55q-14 10 -59 10h-108l-37 -128q41 15 79 15q46 0 76 -25t30 -71q0 -65 -47 -111t-113 -46z" />
    <glyph glyph-name="uni2086" unicode="&#x2086;" horiz-adv-x="374" 
d="M122 -188q-51 0 -80 34t-29 95q0 111 60.5 196.5t139.5 85.5q19 0 44.5 -5t37.5 -3l-25 -50q-17 27 -63 27q-41 0 -85 -44.5t-64 -130.5q53 50 116 50q48 0 74.5 -26t26.5 -69q0 -65 -45.5 -112.5t-107.5 -47.5zM127 -158q46 0 79.5 36.5t33.5 85.5q0 32 -19 52t-54 20
q-63 0 -117 -57q-8 -63 12.5 -100t64.5 -37z" />
    <glyph glyph-name="uni2087" unicode="&#x2087;" horiz-adv-x="360" 
d="M40 -176q27 113 72 194.5t131 161.5h-163q-47 0 -67 -15l10 54q16 -8 63 -8h200l-7 -32q-89 -84 -133 -164t-70 -191h-36z" />
    <glyph glyph-name="uni2088" unicode="&#x2088;" horiz-adv-x="383" 
d="M121 -188q-52 0 -81.5 25t-29.5 64q0 40 30.5 76t75.5 52l1 4q-50 23 -50 72q0 47 40 82.5t93 35.5q44 0 71.5 -22.5t27.5 -59.5q0 -35 -24.5 -66t-63.5 -47l-1 -4q29 -11 46.5 -33t17.5 -50q0 -52 -46 -90.5t-107 -38.5zM184 38q36 17 58 44t22 55q0 24 -19.5 39
t-49.5 15q-37 0 -64.5 -24.5t-27.5 -56.5q0 -49 81 -72zM127 -158q44 0 77.5 28t33.5 65q0 54 -97 82q-43 -18 -68.5 -46.5t-25.5 -61.5q0 -28 21.5 -47.5t58.5 -19.5z" />
    <glyph glyph-name="uni2089" unicode="&#x2089;" horiz-adv-x="373" 
d="M89 -188q-19 0 -44.5 5t-37.5 3l25 50q15 -28 63 -28q42 0 85 44.5t64 130.5q-54 -49 -117 -49q-49 0 -75.5 25.5t-26.5 69.5q0 65 46 112.5t108 47.5q51 0 80.5 -34.5t29.5 -95.5q0 -111 -61 -196t-139 -85zM135 -2q61 0 116 57q8 64 -12.5 100.5t-64.5 36.5
q-46 0 -79 -36t-33 -86q0 -33 18.5 -52.5t54.5 -19.5z" />
    <glyph glyph-name="Euro" unicode="&#x20ac;" horiz-adv-x="566" 
d="M387 615q78 0 144 -31l-24 -53q-25 46 -127 46q-73 0 -131 -54.5t-88 -148.5h166q41 0 58 10l-8 -45h-226q-10 -46 -13 -71h224l-8 -45q-14 10 -54 10h-165q-1 -14 -1 -42q0 -166 141 -166q109 0 151 43l8 -54q-94 -26 -167 -26q-175 0 -175 196q0 17 2 49h-12
q-41 0 -58 -10l9 45h64q5 39 13 71h-63l9 45q14 -10 54 -10h9q35 111 106 176t162 65z" />
    <glyph glyph-name="trademark" unicode="&#x2122;" horiz-adv-x="634" 
d="M265 662q39 0 51 4l-9 -46q-10 9 -48 9h-30l-33 -169q-8 -41 -3 -62h-51q10 17 20 62l34 169h-30q-38 0 -52 -9l9 46q13 -4 49 -4h93zM613 662h48q-9 -20 -18 -62l-28 -140q-8 -41 -3 -62h-51q11 17 20 62l29 151l-141 -183l-71 184l-29 -152q-8 -42 -3 -62h-51
q12 21 20 62l28 140q8 42 3 62h50l66 -172z" />
    <glyph glyph-name="uni2150" unicode="&#x2150;" horiz-adv-x="908" 
d="M193 -12l492 680h36l-492 -680h-36zM80 269l5 27l95 11l52 270h-85l6 27q78 0 126 37l-65 -334l86 -11l-5 -27h-215zM622 0q27 113 72.5 194.5t130.5 161.5h-163q-45 0 -67 -15l10 54q17 -8 63 -8h200l-6 -32q-90 -84 -134 -164t-69 -191h-37z" />
    <glyph glyph-name="uni2151" unicode="&#x2151;" horiz-adv-x="842" 
d="M184 -12l493 680h36l-493 -680h-36zM80 269l5 27l95 11l52 270h-85l6 27q78 0 126 37l-65 -334l86 -11l-5 -27h-215zM591 -12q-19 0 -44.5 5t-37.5 3l25 50q17 -28 63 -28q41 0 85 44.5t65 130.5q-56 -49 -117 -49q-49 0 -75.5 25.5t-26.5 69.5q0 65 46 112.5t108 47.5
q51 0 80.5 -34.5t29.5 -95.5q0 -111 -61 -196t-140 -85zM637 174q62 0 116 57q9 64 -12 100.5t-65 36.5q-45 0 -78.5 -36.5t-33.5 -85.5q0 -32 19 -52t54 -20z" />
    <glyph glyph-name="uni2152" unicode="&#x2152;" horiz-adv-x="1090" 
d="M186 -12l493 680h36l-492 -680h-37zM80 269l5 27l95 11l52 270h-85l6 27q78 0 126 37l-65 -334l86 -11l-5 -27h-215zM862 -12q-52 0 -80.5 33t-28.5 96q0 111 54 188t132 77q51 0 79.5 -32.5t28.5 -95.5q0 -111 -54 -188.5t-131 -77.5zM487 0l4 27l96 11l52 269h-85l6 27
q77 0 126 38l-65 -334l86 -11l-5 -27h-215zM868 19q58 0 100 68.5t42 160.5q0 51 -20.5 77t-56.5 26q-59 0 -101 -67.5t-42 -160.5q0 -51 20.5 -77.5t57.5 -26.5z" />
    <glyph glyph-name="uni2153" unicode="&#x2153;" horiz-adv-x="884" 
d="M230 -12l492 680h36l-492 -680h-36zM80 269l5 27l95 11l52 270h-85l6 27q78 0 126 37l-65 -334l86 -11l-5 -27h-215zM662 -12q-31 0 -55 10.5t-43.5 24t-32.5 17.5l35 44q30 -66 102 -66q43 0 73.5 27t30.5 65q0 64 -127 64l6 29q63 0 102 26.5t39 67.5q0 26 -17 40.5
t-47 14.5q-54 0 -107 -53l-15 42q9 2 52.5 21.5t75.5 19.5q42 0 68.5 -20t26.5 -58q0 -39 -26 -69.5t-72 -43.5q35 -5 56 -24.5t21 -51.5q0 -53 -42.5 -90t-103.5 -37z" />
    <glyph glyph-name="uni2154" unicode="&#x2154;" horiz-adv-x="863" 
d="M207 -12l492 680h37l-493 -680h-36zM60 269l4 28q128 85 185.5 141.5t57.5 114.5q0 31 -17.5 49t-47.5 18q-32 0 -61 -16.5t-48 -43.5l-17 40q8 2 29.5 16t48 24.5t54.5 10.5q42 0 69 -24.5t27 -67.5q0 -67 -56.5 -126.5t-166.5 -132.5h116q59 0 85 15l-9 -46h-253z
M642 -12q-31 0 -55 10.5t-43.5 24t-32.5 17.5l35 44q28 -66 102 -66q43 0 73.5 27t30.5 65q0 64 -127 64l6 29q62 0 101.5 26.5t39.5 67.5q0 26 -17.5 40.5t-47.5 14.5q-54 0 -107 -53l-14 42q8 2 51.5 21.5t75.5 19.5q42 0 69 -20.5t27 -57.5q0 -39 -26.5 -69.5
t-71.5 -43.5q34 -5 55.5 -24.5t21.5 -51.5q0 -52 -43 -89.5t-103 -37.5z" />
    <glyph glyph-name="uni2155" unicode="&#x2155;" horiz-adv-x="875" 
d="M212 -12l492 680h36l-492 -680h-36zM80 269l5 27l95 11l52 270h-85l6 27q78 0 126 37l-65 -334l86 -11l-5 -27h-215zM639 -12q-31 0 -54.5 10t-43 24t-31.5 18l38 42q20 -64 98 -64q47 0 81.5 35.5t34.5 85.5q0 33 -21 52t-56 19q-51 0 -91 -20l-21 7l56 190h137
q45 0 62 12l-10 -55q-14 10 -59 10h-108l-37 -128q41 15 79 15q46 0 75.5 -25t29.5 -71q0 -65 -47 -111t-112 -46z" />
    <glyph glyph-name="uni2156" unicode="&#x2156;" horiz-adv-x="859" 
d="M203 -12l493 680h36l-492 -680h-37zM60 269l4 28q128 85 185.5 141.5t57.5 114.5q0 31 -17.5 49t-47.5 18q-32 0 -61 -16.5t-48 -43.5l-17 40q8 2 29.5 16t48 24.5t54.5 10.5q42 0 69 -24.5t27 -67.5q0 -67 -56.5 -126.5t-166.5 -132.5h116q59 0 85 15l-9 -46h-253z
M623 -12q-31 0 -54 10t-42.5 24t-31.5 18l37 42q21 -64 99 -64q47 0 81 35.5t34 85.5q0 33 -20.5 52t-55.5 19q-51 0 -91 -20l-21 7l56 190h137q45 0 62 12l-10 -55q-14 10 -59 10h-109l-36 -128q39 15 79 15q46 0 75.5 -25t29.5 -71q0 -65 -47 -111t-113 -46z" />
    <glyph glyph-name="uni2157" unicode="&#x2157;" horiz-adv-x="858" 
d="M209 -12l492 680h36l-492 -680h-36zM216 257q-42 0 -83.5 25t-48.5 27l36 44q28 -66 102 -66q43 0 73.5 27t30.5 65q0 64 -127 64l6 29q62 0 101.5 26.5t39.5 67.5q0 26 -17.5 40.5t-47.5 14.5q-54 0 -107 -53l-14 42q8 2 51.5 21.5t75.5 19.5q42 0 69 -20.5t27 -57.5
q0 -39 -26.5 -69.5t-71.5 -43.5q34 -5 55.5 -24.5t21.5 -51.5q0 -52 -43 -89.5t-103 -37.5zM622 -12q-42 0 -83.5 25.5t-45.5 26.5l38 42q21 -64 99 -64q47 0 81 35.5t34 85.5q0 33 -20.5 52t-55.5 19q-52 0 -92 -20l-20 7l56 190h137q45 0 62 12l-10 -55q-14 10 -59 10
h-109l-37 -128q41 15 80 15q46 0 75.5 -25t29.5 -71q0 -65 -47 -111t-113 -46z" />
    <glyph glyph-name="uni2158" unicode="&#x2158;" horiz-adv-x="876" 
d="M210 -12l492 680h36l-492 -680h-36zM231 269q20 24 32 86l5 24h-177l5 25l228 252h30l-47 -247q42 0 60 13l-8 -43h-58l-5 -24q-12 -65 -2 -86h-63zM136 409h137l38 195zM640 -12q-31 0 -54.5 10t-43 24t-31.5 18l38 42q20 -64 98 -64q47 0 81.5 35.5t34.5 85.5
q0 33 -21 52t-56 19q-51 0 -91 -20l-21 7l56 190h137q44 0 63 12l-11 -55q-14 10 -59 10h-108l-37 -128q41 15 79 15q46 0 76 -25t30 -71q0 -65 -47 -111t-113 -46z" />
    <glyph glyph-name="uni2159" unicode="&#x2159;" horiz-adv-x="864" 
d="M209 -12l492 680h36l-492 -680h-36zM80 269l5 27l95 11l52 270h-85l6 27q78 0 126 37l-65 -334l86 -11l-5 -27h-215zM646 -12q-51 0 -80 34t-29 95q0 111 61 196.5t139 85.5q19 0 44.5 -5t37.5 -3l-24 -50q-18 27 -63 27q-42 0 -85.5 -44t-64.5 -131q53 50 117 50
q48 0 74.5 -26t26.5 -69q0 -65 -46 -112.5t-108 -47.5zM652 18q45 0 78.5 36.5t33.5 85.5q0 33 -18.5 52.5t-54.5 19.5q-62 0 -117 -57q-8 -63 13 -100t65 -37z" />
    <glyph glyph-name="uni215A" unicode="&#x215a;" horiz-adv-x="868" 
d="M214 257q-31 0 -54.5 10t-43 24t-31.5 18l38 42q20 -64 98 -64q47 0 81.5 35.5t34.5 85.5q0 33 -21 52t-56 19q-51 0 -91 -20l-21 7l56 190h137q44 0 63 12l-11 -55q-14 10 -59 10h-108l-37 -128q41 15 79 15q46 0 76 -25t30 -71q0 -65 -47 -111t-113 -46zM215 -12
l492 680h37l-493 -680h-36zM650 -12q-51 0 -80 34t-29 95q0 111 60.5 196.5t139.5 85.5q19 0 44.5 -5t37.5 -3l-25 -50q-17 27 -63 27q-41 0 -85 -44.5t-64 -130.5q53 50 116 50q49 0 75.5 -26t26.5 -69q0 -65 -46 -112.5t-108 -47.5zM655 18q46 0 79.5 36.5t33.5 85.5
q0 32 -19 52t-54 20q-62 0 -117 -57q-8 -63 12.5 -100t64.5 -37z" />
    <glyph glyph-name="oneeighth" unicode="&#x215b;" horiz-adv-x="847" 
d="M205 -12l492 680h36l-492 -680h-36zM80 269l5 27l95 11l52 270h-85l6 27q78 0 126 37l-65 -334l86 -11l-5 -27h-215zM619 -12q-52 0 -81.5 25t-29.5 64q0 40 30.5 76t75.5 52l1 4q-50 23 -50 72q0 47 40 82.5t93 35.5q44 0 71.5 -22.5t27.5 -59.5q0 -35 -24.5 -66
t-63.5 -47l-1 -4q29 -10 46 -32.5t17 -50.5q0 -52 -45.5 -90.5t-106.5 -38.5zM682 214q36 17 58 44t22 55q0 24 -20 39t-50 15q-36 0 -64 -24.5t-28 -56.5q0 -49 82 -72zM624 18q45 0 78.5 28t33.5 65q0 54 -97 82q-43 -18 -69 -47t-26 -61q0 -28 21.5 -47.5t58.5 -19.5z
" />
    <glyph glyph-name="threeeighths" unicode="&#x215c;" horiz-adv-x="860" 
d="M216 -12l492 680h36l-492 -680h-36zM216 257q-42 0 -83.5 25t-48.5 27l36 44q28 -66 102 -66q43 0 73.5 27t30.5 65q0 64 -127 64l6 29q62 0 101.5 26.5t39.5 67.5q0 26 -17.5 40.5t-47.5 14.5q-54 0 -107 -53l-14 42q8 2 51.5 21.5t75.5 19.5q42 0 69 -20.5t27 -57.5
q0 -39 -26.5 -69.5t-71.5 -43.5q34 -5 55.5 -24.5t21.5 -51.5q0 -52 -43 -89.5t-103 -37.5zM632 -12q-52 0 -81.5 25t-29.5 64q0 40 30.5 76t75.5 52l1 4q-50 23 -50 72q0 47 40 82.5t93 35.5q44 0 71.5 -22.5t27.5 -59.5q0 -35 -24.5 -66t-63.5 -47l-1 -4q29 -11 46.5 -33
t17.5 -50q0 -52 -46 -90.5t-107 -38.5zM695 214q37 17 58.5 44t21.5 55q0 24 -19.5 39t-49.5 15q-37 0 -64.5 -24.5t-27.5 -56.5q0 -49 81 -72zM638 18q44 0 77.5 28t33.5 65q0 54 -97 82q-43 -18 -68.5 -46.5t-25.5 -61.5q0 -28 21.5 -47.5t58.5 -19.5z" />
    <glyph glyph-name="fiveeighths" unicode="&#x215d;" horiz-adv-x="869" 
d="M214 257q-31 0 -54.5 10t-43 24t-31.5 18l38 42q20 -64 98 -64q47 0 81.5 35.5t34.5 85.5q0 33 -21 52t-56 19q-51 0 -91 -20l-21 7l56 190h137q44 0 63 12l-11 -55q-14 10 -59 10h-108l-37 -128q41 15 79 15q46 0 76 -25t30 -71q0 -65 -47 -111t-113 -46zM218 -12
l493 680h36l-493 -680h-36zM640 -12q-51 0 -80.5 25t-29.5 64q0 40 30 76t75 52l1 4q-49 23 -49 72q0 47 39.5 82.5t93.5 35.5q43 0 70.5 -22.5t27.5 -59.5q0 -36 -24.5 -66.5t-63.5 -46.5l-1 -4q30 -10 47 -32.5t17 -50.5q0 -52 -46 -90.5t-107 -38.5zM704 214
q36 17 57.5 44t21.5 55q0 24 -19.5 39t-49.5 15q-37 0 -64.5 -24.5t-27.5 -56.5q0 -49 82 -72zM646 18q45 0 78.5 28t33.5 65q0 54 -97 82q-43 -17 -69 -46t-26 -62q0 -28 21.5 -47.5t58.5 -19.5z" />
    <glyph glyph-name="seveneighths" unicode="&#x215e;" horiz-adv-x="785" 
d="M125 -12l492 680h37l-493 -680h-36zM126 269q27 113 72 194.5t131 161.5h-163q-47 0 -67 -15l10 54q16 -8 63 -8h200l-7 -32q-89 -84 -133 -164t-70 -191h-36zM557 -12q-52 0 -81.5 25t-29.5 64q0 40 30.5 76t75.5 52l1 4q-50 23 -50 72q0 47 40 82.5t93 35.5
q44 0 71.5 -22.5t27.5 -59.5q0 -35 -24.5 -66t-63.5 -47l-1 -4q29 -11 46.5 -33t17.5 -50q0 -52 -46 -90.5t-107 -38.5zM620 214q37 17 58.5 44t21.5 55q0 24 -19.5 39t-49.5 15q-37 0 -64.5 -24.5t-27.5 -56.5q0 -49 81 -72zM563 18q44 0 77.5 28t33.5 65q0 54 -97 82
q-43 -18 -68.5 -46.5t-25.5 -61.5q0 -28 21.5 -47.5t58.5 -19.5z" />
    <glyph glyph-name="uni2189" unicode="&#x2189;" horiz-adv-x="851" 
d="M207 -12l492 680h36l-492 -680h-36zM199 257q-51 0 -79.5 33t-28.5 96q0 111 54 188t131 77q52 0 80.5 -32.5t28.5 -95.5q0 -111 -54 -188.5t-132 -77.5zM205 288q58 0 100.5 68.5t42.5 160.5q0 51 -20.5 77t-57.5 26q-58 0 -100 -67.5t-42 -160.5q0 -51 20.5 -77.5
t56.5 -26.5zM630 -12q-31 0 -55 10.5t-43.5 24t-32.5 17.5l35 44q28 -66 102 -66q43 0 73.5 27t30.5 65q0 64 -127 64l6 29q62 0 101.5 26.5t39.5 67.5q0 26 -17.5 40.5t-47.5 14.5q-54 0 -107 -53l-14 42q8 2 51.5 21.5t75.5 19.5q42 0 69 -20.5t27 -57.5
q0 -39 -26.5 -69.5t-71.5 -43.5q34 -5 55.5 -24.5t21.5 -51.5q0 -52 -43 -89.5t-103 -37.5z" />
    <glyph glyph-name="arrowleft" unicode="&#x2190;" horiz-adv-x="889" 
d="M805 329v-39l-600 1v-60q-53 53 -131 80q80 28 131 79v-60z" />
    <glyph glyph-name="arrowup" unicode="&#x2191;" horiz-adv-x="290" 
d="M224 599h-60v-599h-39v599h-59q53 56 79 131q26 -75 79 -131z" />
    <glyph glyph-name="arrowright" unicode="&#x2192;" horiz-adv-x="890" 
d="M684 390q56 -53 131 -79q-76 -26 -131 -80v60l-599 -1v39l599 1v60z" />
    <glyph glyph-name="arrowdown" unicode="&#x2193;" horiz-adv-x="289" 
d="M145 -1q-27 78 -80 131h60v600h39v-600h60q-51 -51 -79 -131z" />
    <glyph glyph-name="arrowboth" unicode="&#x2194;" horiz-adv-x="884" 
d="M205 231q-53 53 -131 80q79 27 131 78v-59l474 -1v60q53 -52 131 -78q-77 -26 -131 -80v59l-474 1v-60z" />
    <glyph glyph-name="arrowupdn" unicode="&#x2195;" horiz-adv-x="300" 
d="M150 -5q-24 80 -79 132h60v473h-60q55 55 79 131q26 -79 80 -131h-60v-473h60q-54 -50 -80 -132z" />
    <glyph glyph-name="uni2196" unicode="&#x2196;" horiz-adv-x="653" 
d="M596 67l-28 -28l-423 424l-43 -43q0 74 -36 149q75 -36 148 -36l-42 -43z" />
    <glyph glyph-name="uni2197" unicode="&#x2197;" horiz-adv-x="653" 
d="M587 569q-36 -75 -36 -149l-43 43l-423 -424l-28 28l424 423l-43 43q74 0 149 36z" />
    <glyph glyph-name="uni2198" unicode="&#x2198;" horiz-adv-x="652" 
d="M550 187q0 -74 36 -149q-77 37 -149 37l43 43l-424 423l27 28l425 -424z" />
    <glyph glyph-name="uni2199" unicode="&#x2199;" horiz-adv-x="652" 
d="M596 541l-424 -423l43 -43q-72 0 -149 -37q36 75 36 149l42 -42l425 424z" />
    <glyph glyph-name="partialdiff" unicode="&#x2202;" horiz-adv-x="512" 
d="M209 -12q-73 0 -120.5 43.5t-47.5 127.5q0 120 70.5 201t171.5 81q47 0 89.5 -23t63.5 -62q-2 110 -67 211t-139 115l29 44q92 -50 153 -153t61 -226q0 -149 -76 -254t-188 -105zM216 25q84 0 146 81t70 194q-24 54 -66 79.5t-88 25.5q-83 0 -139.5 -67.5t-56.5 -171.5
q0 -68 37 -104.5t97 -36.5z" />
    <glyph glyph-name="emptyset" unicode="&#x2205;" horiz-adv-x="576" 
d="M546 459q-28 -11 -76 -51q23 -37 23 -86q0 -98 -73 -170.5t-171 -72.5q-73 0 -120 44q-54 -45 -66 -69l-34 45q28 10 78 51q-23 37 -23 86q0 98 72.5 170.5t170.5 72.5q74 0 121 -44q41 35 63 67zM320 441q-81 0 -137.5 -58.5t-56.5 -142.5q0 -36 14 -62l275 230
q-36 33 -95 33zM257 117q80 0 137 58.5t57 142.5q0 34 -14 62l-275 -230q35 -33 95 -33z" />
    <glyph glyph-name="product" unicode="&#x220f;" horiz-adv-x="482" 
d="M35 -93q19 26 35 103l120 614h-5q-66 0 -95 -15l12 56q29 -6 89 -6h258q64 0 97 6l-12 -56q-21 15 -91 15h-5l-119 -614q-14 -76 -5 -103h-71q21 27 35 103l119 614h-166l-120 -614q-15 -74 -5 -103h-71z" />
    <glyph glyph-name="summation" unicode="&#x2211;" horiz-adv-x="594" 
d="M424 663q96 0 133 5l-12 -57q-22 16 -128 16h-183l154 -342l-287 -343h182q107 0 135 16l-11 -57q-30 6 -130 6h-237l4 38q31 15 89 85l211 254l-113 255q-30 70 -55 85l11 39h237z" />
    <glyph glyph-name="minus" unicode="&#x2212;" horiz-adv-x="437" 
d="M40 219l11 61q22 -11 91 -11h161q70 0 94 11l-12 -61q-23 10 -90 10h-161q-68 0 -94 -10z" />
    <glyph glyph-name="radical" unicode="&#x221a;" horiz-adv-x="550" 
d="M593 663q84 0 121 5l-11 -57q-23 16 -116 16h-56l-311 -599q-47 -90 -51 -123h-74q9 31 -3 123l-30 208q-13 94 -26 120h67q-9 -34 0 -109l37 -293h5l363 709h85z" />
    <glyph glyph-name="infinity" unicode="&#x221e;" horiz-adv-x="795" 
d="M616 477q63 0 101.5 -35t38.5 -98q0 -93 -61.5 -159.5t-147.5 -66.5q-58 0 -102 42.5t-57 93.5q-35 -59 -92.5 -97.5t-115.5 -38.5q-63 0 -102 34.5t-39 97.5q0 94 61.5 160.5t147.5 66.5q58 0 102 -42.5t56 -93.5q35 58 93.5 97t116.5 39zM186 156q56 0 108.5 40
t85.5 95q-12 60 -49.5 104t-89.5 44q-65 0 -112.5 -53.5t-47.5 -127.5q0 -48 28.5 -75t76.5 -27zM554 156q65 0 113 53.5t48 126.5q0 49 -29.5 76t-77.5 27q-55 0 -107.5 -40t-85.5 -95q12 -61 49.5 -104.5t89.5 -43.5z" />
    <glyph glyph-name="integral" unicode="&#x222b;" horiz-adv-x="492" 
d="M56 -107q-20 0 -67 9l19 48q21 -22 56 -22q34 0 54.5 29t41.5 101l133 450q24 83 56.5 124t86.5 41q18 0 67 -9l-19 -48q-21 22 -57 22q-34 0 -54 -29.5t-41 -100.5l-133 -450q-25 -85 -57.5 -125t-85.5 -40z" />
    <glyph glyph-name="approxequal" unicode="&#x2248;" horiz-adv-x="441" 
d="M66 299q8 43 36 71t65 28q26 0 51.5 -19t48 -38.5t40.5 -19.5q46 0 57 60l37 -2q-8 -42 -35.5 -70.5t-64.5 -28.5q-33 0 -76.5 39t-63.5 39q-46 0 -58 -61zM40 165q9 43 36.5 71t65.5 28q32 0 75.5 -39t64.5 -39q44 0 56 61l37 -2q-8 -42 -35.5 -70.5t-64.5 -28.5
q-33 0 -76.5 39t-63.5 39q-46 0 -58 -61z" />
    <glyph glyph-name="notequal" unicode="&#x2260;" horiz-adv-x="462" 
d="M320 293h-40l-58 -87h81q69 0 94 10l-12 -60q-23 10 -90 10h-100l-40 -60l-29 15l30 45h-22q-68 0 -94 -10l11 60q22 -10 91 -10h41l58 87h-82q-67 0 -95 -10l12 60q23 -11 90 -11h101l40 60l29 -15l-30 -45h21q66 0 95 11l-13 -60q-21 10 -89 10z" />
    <glyph glyph-name="lessequal" unicode="&#x2264;" horiz-adv-x="485" 
d="M443 408q-23 0 -91 -23l-199 -70l173 -70q58 -23 81 -23l-31 -55q-13 18 -75 43l-208 85l7 41l243 85q69 24 90 42zM46 64l11 61q16 -11 86 -11h155q71 0 91 11l-12 -61q-17 10 -87 10h-155q-68 0 -89 -10z" />
    <glyph glyph-name="greaterequal" unicode="&#x2265;" horiz-adv-x="469" 
d="M218 421l210 -85l-8 -41l-241 -85q-75 -27 -92 -43l-10 55q23 0 91 23l199 71l-172 69q-55 23 -81 23l30 55q14 -19 74 -42zM46 64l11 61q16 -11 87 -11h155q70 0 90 11l-12 -61q-17 10 -86 10h-155q-69 0 -90 -10z" />
    <glyph glyph-name="lozenge" unicode="&#x25ca;" horiz-adv-x="511" 
d="M311 451l-148 -178l79 -176l-40 -48h-39l-40 177l-1 -1h-40l30 49l-11 48h40l109 177h40zM312 485h28l-22 -26zM318 459l13 -54l-20 46zM426 318l-37 -45l19 -44h-35l-5 20l-86 -104l80 129l-31 131l47 -107l12 20h36zM246 87l-4 10l40 48zM257 62h-27l16 25z" />
    <glyph glyph-name="uni261A" unicode="&#x261a;" horiz-adv-x="1389" 
d="M579 24q-19 11 -38 38.5t-19 36.5q0 31 39 103q-1 4 -5.5 7t-7.5 2q-19 -23 -33 -52t-14 -39q0 -7 13 -41t17 -40q-39 -8 -49 16q-5 11 -16 31.5t-18 35t-7 22.5q0 13 16.5 48.5t40.5 67.5q-7 12 -13 12q-21 -25 -40 -58t-19 -40q0 -5 4 -32t6 -32q-17 -6 -26.5 -0.5
t-19.5 28.5l-20 46q-7 18 1 34q31 62 79 111q-5 7 -11 7q-2 0 -14 -9t-18 -17q-45 0 -79 5.5t-35 5.5q-75 -24 -138 -19q-21 2 -33 15t-10.5 24t6.5 15q59 18 151.5 35.5t153.5 20.5q13 0 36.5 7t35.5 7q47 0 166 -22.5t173 -22.5q14 0 46.5 4t50.5 3q24 -1 43.5 -52.5
t19.5 -106.5q0 -33 -7.5 -54t-20.5 -21q-7 0 -46 6t-54 6q-18 0 -81 -33.5t-95 -34.5q-26 0 -58 32q-8 -24 -39 -41q11 -6 15 -18q25 20 43 20t18 -13q0 -7 -7 -13.5t-28.5 -20t-31.5 -20.5q-3 -2 -11 -2t-12 2zM984 63q30 15 46 62.5t16 115.5q0 54 -17 103t-45 55h215
q35 0 57.5 -52t22.5 -106q0 -68 -24 -123t-66 -55h-205zM1120 97q9 0 15.5 6.5t6.5 14.5q0 9 -6.5 16t-15.5 7t-15.5 -7t-6.5 -16q0 -8 6.5 -14.5t15.5 -6.5z" />
    <glyph glyph-name="uni261B" unicode="&#x261b;" horiz-adv-x="1353" 
d="M790 24l-21 14t-19 12.5t-14 9.5t-10 9.5t-3 8.5q0 13 18 13t43 -20q4 13 16 18q-32 16 -40 41q-32 -32 -58 -32q-31 1 -94 34.5t-82 33.5q-15 0 -54 -6t-46 -6q-13 0 -20.5 21t-7.5 54q0 55 19.5 106.5t43.5 52.5q18 1 50.5 -3t46.5 -4q54 0 173 22.5t166 22.5
q12 0 35.5 -7t36.5 -7q61 -3 153.5 -20.5t151.5 -35.5q5 -4 6.5 -15t-10.5 -24t-33 -15q-63 -5 -138 19q-1 0 -35 -5.5t-79 -5.5q-6 8 -18 17t-14 9q-6 0 -11 -7q48 -49 79 -111q8 -16 1 -34l-20 -46q-10 -23 -19.5 -28.5t-26.5 0.5q2 5 6 32t4 32q0 7 -19 40t-40 58
q-6 0 -13 -12q24 -32 40.5 -67.5t16.5 -48.5q0 -8 -7 -22.5t-18 -35t-16 -31.5q-10 -24 -49 -16q4 6 17 40t13 41q0 10 -14 39t-33 52q-3 1 -7.5 -2t-5.5 -7q39 -72 39 -103q0 -9 -19 -36.5t-38 -38.5q-4 -2 -12 -2t-11 2zM203 63q-42 0 -66 55t-24 123q0 54 22.5 106
t57.5 52h215q-28 -6 -45 -55t-17 -103q0 -68 16 -115.5t46 -62.5h-205zM273 97q8 0 14.5 6.5t6.5 14.5q0 9 -6.5 16t-14.5 7q-10 0 -16.5 -7t-6.5 -16q0 -8 6.5 -14.5t16.5 -6.5z" />
    <glyph glyph-name="uni261C" unicode="&#x261c;" horiz-adv-x="986" 
d="M882 208q26 -5 36 -16.5t10 -37.5q0 -34 -12 -57t-36 -22l-130 9q-41 -27 -89 -27q-68 0 -160 25l-54 -2q-19 -1 -30.5 11.5t-11.5 26.5q0 15 7 24h-2q-20 -1 -31.5 11.5t-11.5 32.5q0 14 7 25q-39 4 -39 41q0 5 2 15q-59 -2 -65 36l-127 10q-64 4 -64 47q0 32 40 33
l349 7q61 24 94 24h38q38 0 77 -22t65 -51l133 10q22 1 37.5 -27t15.5 -64q0 -40 -45 -52l-23 -6zM882 90q15 -1 23 17.5t8 46.5q0 20 -6.5 27.5t-24.5 11.5l-47 11v13l50 16q30 9 30 37q0 31 -11 54t-27 22l-122 -10q7 -10 9 -19q-31 37 -74 64.5t-88 27.5h-38
q-31 0 -122.5 -37.5t-154.5 -40.5l-1 -19q-1 -18 19.5 -25.5t52.5 -2.5l93 15q15 2 46.5 -3t38.5 -5q22 0 69 27q-30 -28 -50 -37q33 -52 77 -70t102 -19q-113 -15 -172 56q-5 -14 -12 -20q41 -6 41 -40q0 -18 -14 -30q24 -10 24 -33q0 -14 -10.5 -26.5t-31.5 -13.5h-9
q62 -13 111 -13q72 0 151 82q-17 -32 -43 -55zM272 345q67 0 161 40l-310 -7q-24 0 -24 -18q0 -29 46 -32l127 -8v25zM351 252q0 -26 35 -25l131 6q30 1 30 22q0 14 -19 22q-2 0 -33 4.5t-45 2.5l-92 -15h-1q-6 -7 -6 -17zM383 186q0 -13 7 -21.5t20 -7.5l135 7q30 1 30 24
q0 29 -48 29q-3 -1 -10 -1l-121 -5q-13 -4 -13 -25zM445 95l114 5q27 1 27 25q0 21 -32 25q-2 -1 -6 -1l-119 -6q-9 -9 -9 -25q0 -9 7 -16.5t18 -6.5z" />
    <glyph glyph-name="uni261D" unicode="&#x261d;" horiz-adv-x="552" 
d="M436 44l9 -130q1 -24 -22 -36t-57 -12q-26 0 -37.5 10t-16.5 36l-4 20l-6 -23q-12 -45 -52 -45q-36 0 -64 15.5t-27 37.5l10 133q-29 26 -51 65t-22 77v38q0 33 24 94l7 349q1 40 33 40q43 0 47 -64l10 -127q38 -6 36 -65q10 2 15 2q37 0 41 -39q11 7 25 7
q20 0 32.5 -11.5t11.5 -31.5v-2q9 7 24 7q14 0 26.5 -11.5t11.5 -30.5l-2 -54q25 -92 25 -160q0 -48 -27 -89zM142 671l-7 -310q40 94 40 161h25l-8 127q-3 46 -32 46q-18 0 -18 -24zM366 -119q28 0 46.5 8t17.5 23l-9 113q-23 -26 -55 -43q82 79 82 151q0 49 -13 111v-9
q-1 -21 -13.5 -31.5t-26.5 -10.5q-23 0 -33 24q-12 -14 -30 -14q-34 0 -40 41q-6 -7 -20 -12q71 -59 56 -172q-1 58 -19 102t-70 77q-9 -20 -37 -50q27 47 27 69q0 7 -5 38.5t-3 46.5l15 93q5 32 -2.5 52.5t-25.5 19.5l-19 -1q-3 -63 -40.5 -154.5t-37.5 -122.5v-38
q0 -45 27.5 -88t64.5 -74q-9 2 -19 9l-10 -122q-1 -16 22 -27t54 -11q28 0 37 30l16 50h13l11 -47q4 -18 11.5 -24.5t27.5 -6.5zM268 443q-10 0 -17 -6v-1l-15 -92q-1 -16 -0.5 -25t3.5 -26.5t4 -26.5q8 -19 22 -19q21 0 22 30l6 131q1 35 -25 35zM334 411q-21 0 -25 -13
l-5 -121q0 -7 -1 -10q0 -48 29 -48q23 0 24 30l7 135q1 13 -7.5 20t-21.5 7zM377 365l-6 -119q0 -4 -1 -6q4 -32 25 -32q24 0 25 27l5 114q1 11 -6.5 18t-16.5 7q-16 0 -25 -9z" />
    <glyph glyph-name="uni261E" unicode="&#x261e;" horiz-adv-x="936" 
d="M876 393q40 -1 40 -33q0 -43 -64 -47l-127 -10q-6 -38 -65 -36q2 -10 2 -15q0 -37 -39 -41q7 -11 7 -25q0 -20 -11.5 -32.5t-31.5 -11.5h-2q7 -9 7 -24q0 -14 -11.5 -26.5t-30.5 -11.5l-54 2q-92 -25 -160 -25q-48 0 -89 27l-130 -9q-24 -1 -36 22t-12 57q0 26 10 37.5
t36 16.5l20 4l-23 6q-45 12 -45 52q0 36 15.5 64t37.5 27l133 -10q26 29 65 51t77 22h38q33 0 94 -24zM639 284q32 -5 52.5 2.5t19.5 25.5l-1 19q-63 3 -154.5 40.5t-122.5 37.5h-38q-45 0 -88 -27.5t-74 -64.5q2 9 9 19l-122 10q-16 1 -27 -22t-11 -54q0 -28 30 -37l50 -16
v-13l-47 -11q-18 -4 -24.5 -11.5t-6.5 -27.5q0 -28 8 -46.5t23 -17.5l113 9q-26 23 -43 55q79 -82 151 -82q49 0 111 13h-9q-21 1 -31.5 13.5t-10.5 26.5q0 23 24 33q-14 12 -14 30q0 34 41 40q-7 6 -12 20q-59 -71 -172 -56q58 1 102 19t77 70q-20 9 -50 37q47 -27 69 -27
q7 0 38.5 5t46.5 3zM852 328q46 3 46 32q0 18 -24 18l-310 7q94 -40 161 -40v-25zM646 252q0 10 -6 17h-1l-92 15q-16 1 -25 0.5t-26.5 -3.5t-26.5 -4q-19 -8 -19 -22q0 -21 30 -22l131 -6q35 -1 35 25zM587 157q13 -1 20 7.5t7 21.5q0 21 -13 25l-121 5q-7 0 -10 1
q-48 0 -48 -29q0 -23 30 -24zM577 118q0 16 -9 25l-119 6q-4 0 -6 1q-32 -4 -32 -25q0 -24 27 -25l114 -5q11 -1 18 6.5t7 16.5z" />
    <glyph glyph-name="uni261F" unicode="&#x261f;" horiz-adv-x="473" 
d="M420 284l2 -54q1 -19 -11.5 -30.5t-26.5 -11.5q-15 0 -24 7v-2q1 -20 -11.5 -31.5t-32.5 -11.5q-14 0 -25 7q-4 -39 -41 -39q-5 0 -15 2q2 -59 -36 -65l-10 -127q-4 -64 -47 -64q-32 0 -33 40l-7 349q-24 61 -24 94v38q0 38 22 77t51 65l-10 133q-1 22 27 37.5t64 15.5
q40 0 52 -45l6 -23l4 20q5 26 16.5 36t37.5 10q34 0 57 -12t22 -36l-9 -130q27 -41 27 -89q0 -68 -25 -160zM190 69q18 -1 25.5 19.5t2.5 52.5l-15 93q-2 15 3 46.5t5 38.5q0 22 -27 69q28 -30 37 -50q52 33 70 77t19 102q15 -113 -56 -172q14 -5 20 -12q6 41 40 41
q18 0 30 -14q10 24 33 24q14 0 26.5 -10.5t13.5 -31.5v-9q13 62 13 111q0 72 -82 151q32 -17 55 -43l9 113q1 15 -17.5 23t-46.5 8q-20 0 -27.5 -6.5t-11.5 -24.5l-11 -47h-13l-16 50q-9 30 -37 30q-31 0 -54 -11t-22 -27l10 -122q10 7 19 9q-37 -31 -64.5 -74t-27.5 -88
v-38q0 -31 37.5 -122.5t40.5 -154.5zM384 203q9 0 16.5 7t6.5 18l-5 114q-1 27 -25 27q-21 0 -25 -32q1 -2 1 -6l6 -119q9 -9 25 -9zM316 166q13 0 21.5 7t7.5 20l-7 135q-1 30 -24 30q-29 0 -29 -48q1 -3 1 -10l5 -121q4 -13 25 -13zM250 134q26 0 25 35l-6 131
q-1 30 -22 30q-14 0 -22 -19q0 -2 -4.5 -33t-2.5 -45l15 -92v-1q7 -6 17 -6zM142 -118q29 0 32 46l8 127h-25q0 67 -40 161l7 -310q0 -24 18 -24z" />
    <glyph glyph-name="K.ss04" horiz-adv-x="488" 
d="M733 -200q-99 0 -178.5 41t-134.5 118t-90.5 179t-53.5 232l-156 -146l-23 -121q-15 -79 -6 -103h-71q20 27 35 103l89 453q15 77 4 103h71q-19 -23 -34 -103l-54 -272h3l322 304q44 40 59 71h81q-36 -21 -109 -90l-180 -169q20 -132 54 -233t86.5 -176.5t127.5 -115
t171 -39.5q82 0 158 41l-19 -50q-61 -27 -152 -27z" />
    <glyph glyph-name="uni0136.ss04" horiz-adv-x="488" 
d="M733 -200q-99 0 -178.5 41t-134.5 118t-90.5 179t-53.5 232l-156 -146l-23 -121q-15 -79 -6 -103h-71q20 27 35 103l89 453q15 77 4 103h71q-19 -23 -34 -103l-54 -272h3l322 304q44 40 59 71h81q-36 -21 -109 -90l-180 -169q20 -132 54 -233t86.5 -176.5t127.5 -115
t171 -39.5q82 0 158 41l-19 -50q-61 -27 -152 -27zM164 -208l-10 19q28 12 47 33.5t24 41.5q-2 -2 -10 -2q-11 0 -19 7.5t-8 20.5q0 19 12 32t29 13q32 0 32 -36q0 -37 -28.5 -75.5t-68.5 -53.5z" />
    <glyph glyph-name="Q.ss05" horiz-adv-x="634" 
d="M724 -195q87 0 174 26t155 73l-16 -56q-141 -84 -318 -84q-140 0 -248.5 60.5t-146.5 167.5q-21 -4 -49 -4q-94 0 -154 63.5t-60 175.5q0 189 96.5 316.5t244.5 127.5q94 0 154 -63t60 -175q0 -156 -69 -274t-181 -156q38 -96 136 -147t222 -51zM103 232
q0 -101 49.5 -154.5t128.5 -53.5q121 0 207 118.5t86 285.5q0 100 -49.5 153.5t-128.5 53.5q-123 0 -208 -117t-85 -286z" />
    <glyph glyph-name="R.ss06" horiz-adv-x="518" 
d="M729 -200q-183 0 -295.5 130.5t-144.5 347.5h-159l-34 -175q-14 -77 -5 -103h-70q19 27 34 103l89 453q15 77 4 103h183q44 0 78 -5.5t63.5 -20t45.5 -42t16 -67.5q0 -96 -55 -161.5t-152 -80.5q36 -209 137.5 -327t275.5 -118q81 0 159 41l-19 -50q-60 -28 -151 -28z
M138 313h124q107 0 168 53.5t61 148.5q0 61 -45.5 85t-130.5 24h-117z" />
    <glyph glyph-name="Racute.ss06" horiz-adv-x="518" 
d="M327 717l-13 20q91 60 164 156l26 -28q-74 -92 -177 -148zM729 -200q-183 0 -295.5 130.5t-144.5 347.5h-159l-34 -175q-14 -77 -5 -103h-70q19 27 34 103l89 453q15 77 4 103h183q44 0 78 -5.5t63.5 -20t45.5 -42t16 -67.5q0 -96 -55 -161.5t-152 -80.5
q36 -209 137.5 -327t275.5 -118q81 0 159 41l-19 -50q-60 -28 -151 -28zM138 313h124q107 0 168 53.5t61 148.5q0 61 -45.5 85t-130.5 24h-117z" />
    <glyph glyph-name="Rcaron.ss06" horiz-adv-x="518" 
d="M327 719q-27 81 -87 145l20 18q59 -52 91 -127h4q62 83 138 124l14 -21q-37 -23 -75.5 -62.5t-60.5 -76.5h-44zM729 -200q-183 0 -295.5 130.5t-144.5 347.5h-159l-34 -175q-14 -77 -5 -103h-70q19 27 34 103l89 453q15 77 4 103h183q44 0 78 -5.5t63.5 -20t45.5 -42
t16 -67.5q0 -96 -55 -161.5t-152 -80.5q36 -209 137.5 -327t275.5 -118q81 0 159 41l-19 -50q-60 -28 -151 -28zM138 313h124q107 0 168 53.5t61 148.5q0 61 -45.5 85t-130.5 24h-117z" />
    <glyph glyph-name="uni0156.ss06" horiz-adv-x="518" 
d="M729 -200q-183 0 -295.5 130.5t-144.5 347.5h-159l-34 -175q-14 -77 -5 -103h-70q19 27 34 103l89 453q15 77 4 103h183q44 0 78 -5.5t63.5 -20t45.5 -42t16 -67.5q0 -96 -55 -161.5t-152 -80.5q36 -209 137.5 -327t275.5 -118q81 0 159 41l-19 -50q-60 -28 -151 -28z
M138 313h124q107 0 168 53.5t61 148.5q0 61 -45.5 85t-130.5 24h-117zM150 -208l-10 19q28 12 47 33.5t24 41.5q-2 -2 -10 -2q-11 0 -19 7.5t-8 20.5q0 19 12 32t29 13q32 0 32 -36q0 -37 -28.5 -75.5t-68.5 -53.5z" />
    <glyph glyph-name="i.loclTRK" horiz-adv-x="225" 
d="M166 565q-29 0 -29 27q0 22 12 36t32 14q30 0 30 -27q0 -22 -12.5 -36t-32.5 -14zM37 0l69 338q19 97 7 141h61l-74 -361q-19 -91 -2 -118h-61z" />
    <glyph glyph-name="a.inferior" horiz-adv-x="349" 
d="M188 -170q-47 0 -74.5 33.5t-27.5 96.5q0 106 59 179t144 73q39 0 79 -19l7 12h34l-55 -268q-15 -75 -3 -98h-43q-4 26 3 59h-3q-24 -30 -57 -49t-63 -19zM195 -136q29 0 66.5 28.5t59.5 68.5l40 195q-33 20 -75 20q-66 0 -113 -62t-47 -152q0 -47 18.5 -72.5t50.5 -25.5
z" />
    <glyph glyph-name="b.inferior" horiz-adv-x="384" 
d="M209 -169q-47 0 -88 24l-8 -15h-25l88 430q16 84 7 105h53l-50 -234q24 31 57.5 51.5t66.5 20.5q46 0 73.5 -33.5t27.5 -97.5q0 -105 -58.5 -178t-143.5 -73zM211 -134q67 0 113.5 63t46.5 153q0 47 -18 72t-50 25q-31 0 -70.5 -32t-60.5 -76l-37 -182q30 -23 76 -23z
" />
    <glyph glyph-name="c.inferior" horiz-adv-x="323" 
d="M209 -170q-52 0 -86.5 34t-34.5 101q0 105 53.5 175.5t134.5 70.5q47 0 104 -34l-24 -40q-29 40 -84 40q-62 0 -103 -61.5t-41 -146.5q0 -53 25 -79t64 -26q32 0 62.5 15.5t46.5 36.5l12 -44q-68 -42 -129 -42z" />
    <glyph glyph-name="d.inferior" horiz-adv-x="385" 
d="M188 -169q-47 0 -74.5 33.5t-27.5 96.5q0 105 59 178t144 73q38 0 79 -16l14 73q15 79 6 106h52l-86 -443q-15 -73 -3 -92h-45q0 33 6 59h-3q-54 -68 -121 -68zM195 -135q30 0 67.5 29.5t58.5 70.5l39 193q-32 19 -73 19q-67 0 -114 -63t-47 -152q0 -47 18.5 -72
t50.5 -25z" />
    <glyph glyph-name="e.inferior" horiz-adv-x="358" 
d="M214 -170q-58 0 -92 34t-34 103q0 107 56.5 175.5t135.5 68.5q50 0 81 -28t31 -70q0 -53 -37.5 -77.5t-117.5 -24.5h-107q-13 -73 12.5 -110t77.5 -37q33 0 68 12.5t51 31.5l11 -43q-19 -12 -58.5 -23.5t-77.5 -11.5zM136 43h100q60 0 88.5 15.5t28.5 51.5q0 29 -21 48
t-57 19q-43 0 -84.5 -37t-54.5 -97z" />
    <glyph glyph-name="f.inferior" horiz-adv-x="204" 
d="M95 -152l64 328h-54l7 34h53l11 54q14 66 47.5 97.5t79.5 31.5q36 0 68 -17l-16 -40q-17 24 -56 24q-67 0 -85 -96l-10 -54h86l-7 -34h-86l-47 -238q-14 -72 -3 -90h-52z" />
    <glyph glyph-name="g.inferior" horiz-adv-x="346" 
d="M176 -315q-62 0 -121 38l26 44q26 -48 95 -48q50 0 77.5 29t44.5 94l15 59h-2q-55 -70 -123 -70q-47 0 -74.5 33.5t-27.5 96.5q0 106 59 178.5t144 72.5q47 0 85 -21l8 15h32l-78 -362q-18 -81 -54 -120t-106 -39zM194 -135q32 0 70 30.5t60 73.5l40 186q-32 22 -77 22
q-67 0 -114 -62.5t-47 -152.5q0 -47 18.5 -72t49.5 -25z" />
    <glyph glyph-name="h.inferior" horiz-adv-x="378" 
d="M91 -152l86 429q15 77 6 106h50l-43 -225h1q22 24 58 43.5t72 19.5q48 0 72.5 -34t12.5 -94l-31 -156q-13 -71 -3 -89h-53l49 243q10 49 -7 72.5t-51 23.5q-33 0 -69 -24t-60 -56l-33 -170q-12 -67 -6 -83q1 -3 3 -6h-54z" />
    <glyph glyph-name="i.inferior" horiz-adv-x="167" 
d="M191 285q-28 0 -25 31q5 34 35 34q27 0 24 -30q-3 -35 -34 -35zM86 -156l52 256q15 72 5 106h55l-56 -274q-13 -69 -1 -88h-55z" />
    <glyph glyph-name="j.inferior" horiz-adv-x="167" 
d="M182 286q-27 0 -24 32q3 33 34 33q28 0 24 -31q-3 -34 -34 -34zM1 -308q-28 0 -53 11l18 43q10 -21 38 -21q29 0 44.5 22.5t25.5 73.5l56 284q13 70 3 102h55l-76 -386q-15 -71 -40.5 -100t-70.5 -29z" />
    <glyph glyph-name="k.inferior" horiz-adv-x="336" 
d="M93 -155l85 429q15 74 5 106h55l-48 -241q20 34 53.5 56t72.5 22t65 -23.5t26 -60.5q0 -53 -40 -86.5t-97 -43.5l41 -77q20 -37 32 -53.5t28 -27.5h-58l-85 163v18q60 5 99.5 31t39.5 70q0 26 -16.5 41.5t-42.5 15.5q-35 0 -72 -32.5t-61 -86.5l-26 -131q-13 -72 -1 -89
h-55z" />
    <glyph glyph-name="l.inferior" horiz-adv-x="166" 
d="M92 -158l85 428q15 77 5 108h55l-89 -445q-13 -72 1 -91h-57z" />
    <glyph glyph-name="m.inferior" horiz-adv-x="578" 
d="M86 -160l51 256q15 75 6 106h48l-10 -57h4q60 68 123 68q36 0 59 -19.5t26 -55.5q64 75 132 75q48 0 72 -33.5t11 -95.5l-32 -155q-16 -71 -3 -89h-52l49 241q10 51 -7 74t-49 23q-58 0 -121 -77l-35 -172q-14 -72 -3 -89h-52l49 241q20 97 -55 97q-59 0 -122 -80
l-34 -170q-14 -73 -3 -88h-52z" />
    <glyph glyph-name="n.inferior" horiz-adv-x="378" 
d="M86 -160l51 254q15 80 6 108h47l-7 -52h3q22 25 58.5 44.5t72.5 19.5q46 0 71.5 -33t12.5 -94l-32 -156q-16 -71 -2 -91h-53l49 243q10 52 -7.5 74t-50.5 22t-68.5 -23t-60.5 -56l-34 -169q-15 -74 -3 -91h-53z" />
    <glyph glyph-name="o.inferior" horiz-adv-x="378" 
d="M224 -170q-62 0 -98 38t-36 107q0 106 52 171t140 65q61 0 97 -38t36 -107q0 -105 -52 -170.5t-139 -65.5zM228 -136q66 0 106.5 56.5t40.5 145.5q0 52 -26 81.5t-71 29.5q-66 0 -107 -56.5t-41 -145.5q0 -53 26 -82t72 -29z" />
    <glyph glyph-name="p.inferior" horiz-adv-x="384" 
d="M61 -310l82 406q15 75 5 106h53l-14 -64l2 -1q23 33 57 54.5t68 21.5q47 0 74.5 -33.5t27.5 -97.5q0 -105 -59 -178t-144 -73q-42 0 -82 21l-15 -74q-13 -67 -1 -88h-54zM216 -134q67 0 113.5 63t46.5 153q0 46 -18.5 71.5t-49.5 25.5t-71.5 -32.5t-61.5 -74.5l-36 -183
q34 -23 77 -23z" />
    <glyph glyph-name="q.inferior" horiz-adv-x="385" 
d="M271 -310l44 216l-2 1q-23 -34 -57 -55t-68 -21q-47 0 -74.5 33.5t-27.5 96.5q0 105 59 178t144 73q41 0 82 -18l4 12h37l-85 -423q-13 -74 -1 -93h-55zM195 -135q31 0 71.5 33t61.5 78l35 180q-31 21 -76 21q-67 0 -114 -63t-47 -152q0 -47 18.5 -72t50.5 -25z" />
    <glyph glyph-name="r.inferior" horiz-adv-x="241" 
d="M88 -160l50 254q16 79 5 108h52l-11 -66h1q20 33 50.5 54.5t58.5 21.5q23 0 43 -12l-18 -39q-11 16 -31 16q-25 0 -57.5 -29.5t-58.5 -81.5l-26 -128q-17 -77 1 -98h-59z" />
    <glyph glyph-name="s.inferior" horiz-adv-x="296" 
d="M182 -169q-14 0 -28 2t-24.5 5t-23.5 8l-19.5 7.5t-18 8t-13.5 6.5l29 46q10 -21 38 -35.5t64 -14.5q41 0 69 21t28 55q0 50 -68 71l-16 6q-81 27 -81 92q0 44 35.5 73.5t88.5 29.5q51 0 108 -33l-25 -42q-9 19 -32.5 31t-54.5 12q-33 0 -58 -19.5t-25 -46.5
q0 -43 60 -65l18 -6q87 -32 87 -99q0 -49 -38.5 -81t-99.5 -32z" />
    <glyph glyph-name="t.inferior" horiz-adv-x="230" 
d="M181 -169q-43 0 -61 28.5t-7 81.5l47 228h-57l7 33h57l14 64h36l-13 -64h106l-6 -33h-107l-47 -228q-16 -78 39 -78q17 0 36 8.5t25 18.5l14 -40q-57 -19 -83 -19z" />
    <glyph glyph-name="u.inferior" horiz-adv-x="378" 
d="M187 -170q-50 0 -70 36t-7 103l27 142q14 73 0 91h55l-44 -229q-22 -108 49 -108q32 0 69.5 26.5t68.5 66.5l30 153q13 74 2 91h54l-52 -267q-14 -72 -3 -95h-49l10 64h-3q-64 -74 -137 -74z" />
    <glyph glyph-name="v.inferior" horiz-adv-x="327" 
d="M173 -160l-46 279q-10 63 -28 83h51l39 -239q12 -70 12 -89h4q20 41 76 140t67 120q25 50 17 68h53q-14 -36 -96 -181t-97 -181h-52z" />
    <glyph glyph-name="w.inferior" horiz-adv-x="486" 
d="M148 -160l-26 283q-5 61 -19 79h50l20 -235q6 -67 5 -93h5q11 29 110 239q31 68 30 89h58l16 -235q4 -70 3 -93h6q13 33 53 114t65 139.5t19 74.5h46q-10 -35 -79 -177.5t-83 -184.5h-57l-18 255q-1 13 -1.5 29t-0.5 26t-1 14h-2q-9 -29 -25 -65q-13 -29 -42 -88.5
t-47.5 -100t-28.5 -70.5h-56z" />
    <glyph glyph-name="x.inferior" horiz-adv-x="303" 
d="M300 -98q23 -50 37 -62h-49l-60 128l-16 39q-12 -21 -26 -36l-67 -80q-31 -36 -30 -51h-53l162 192l-50 109q-22 48 -35 61h47l51 -113l5 -9q4 -9 12 -31q17 23 28 36l54 66q30 35 30 51h52l-149 -180z" />
    <glyph glyph-name="y.inferior" horiz-adv-x="320" 
d="M53 -310q-3 0 -43 4l17 46q11 -16 33 -16q58 0 109 92l9 17l-50 287q-1 5 -3 15.5t-3 14.5l-3 12t-3.5 12t-4 10t-5.5 10t-7 8h50l37 -211q12 -72 17 -114h3q16 34 60 115l74 139q30 57 22 71h52l-213 -398q-60 -114 -148 -114z" />
    <glyph glyph-name="z.inferior" horiz-adv-x="293" 
d="M374 202l-4 -29l-268 -300h137q67 0 88 14l-9 -47h-271l5 29l266 299h-115q-61 0 -79 -13l8 47h242z" />
    <glyph glyph-name="a.ordn" horiz-adv-x="387" 
d="M188 341q-47 0 -74.5 33.5t-27.5 96.5q0 106 59 179t144 73q35 0 79 -19l7 12h34l-55 -268q-15 -76 -3 -98h-43q-4 26 3 59h-3q-24 -31 -56.5 -49.5t-63.5 -18.5zM195 375q29 0 66.5 28.5t59.5 68.5l40 195q-33 20 -75 20q-66 0 -113 -62t-47 -152q0 -47 18.5 -72.5
t50.5 -25.5z" />
    <glyph glyph-name="b.ordn" horiz-adv-x="385" 
d="M209 341q-47 0 -88 24l-8 -15h-25l88 430q16 84 7 105h53l-50 -234q24 31 57.5 51.5t66.5 20.5q46 0 73.5 -33.5t27.5 -97.5q0 -105 -58.5 -178t-143.5 -73zM211 376q67 0 113.5 63t46.5 153q0 47 -18 72t-50 25q-31 0 -70.5 -32t-60.5 -76l-37 -182q30 -23 76 -23z" />
    <glyph glyph-name="c.ordn" horiz-adv-x="329" 
d="M209 340q-52 0 -86.5 34t-34.5 101q0 105 53.5 175.5t134.5 70.5q47 0 104 -34l-24 -40q-29 40 -84 40q-62 0 -103 -61.5t-41 -146.5q0 -53 25 -79t64 -26q32 0 62.5 15.5t46.5 36.5l12 -44q-68 -42 -129 -42z" />
    <glyph glyph-name="d.ordn" horiz-adv-x="387" 
d="M188 341q-47 0 -74.5 33.5t-27.5 96.5q0 105 59 178t144 73q38 0 79 -16l14 73q15 79 6 106h52l-86 -443q-15 -73 -3 -92h-45q0 33 6 59h-3q-54 -68 -121 -68zM195 375q30 0 67.5 29.5t58.5 70.5l39 193q-32 19 -73 19q-67 0 -114 -63t-47 -152q0 -47 18.5 -72t50.5 -25z
" />
    <glyph glyph-name="e.ordn" horiz-adv-x="359" 
d="M214 340q-58 0 -92 34t-34 103q0 107 56.5 175.5t135.5 68.5q50 0 81 -28t31 -70q0 -53 -37.5 -77.5t-117.5 -24.5h-107q-13 -72 12.5 -109.5t77.5 -37.5q33 0 68 12.5t51 31.5l11 -43q-19 -12 -58.5 -23.5t-77.5 -11.5zM136 553h100q60 0 88.5 15.5t28.5 51.5
q0 29 -21 48t-57 19q-43 0 -84.5 -37t-54.5 -97z" />
    <glyph glyph-name="f.ordn" horiz-adv-x="216" 
d="M95 350l64 328h-54l7 34h53l11 54q14 66 47.5 97.5t79.5 31.5q36 0 68 -17l-16 -40q-18 24 -56 24q-67 0 -85 -97l-10 -53h86l-7 -34h-86l-47 -238q-14 -72 -3 -90h-52z" />
    <glyph glyph-name="g.ordn" horiz-adv-x="373" 
d="M176 195q-62 0 -121 38l26 44q26 -48 95 -48q50 0 77.5 29t44.5 94l15 59h-2q-55 -70 -123 -70q-47 0 -74.5 33.5t-27.5 96.5q0 106 59 178.5t144 72.5q47 0 85 -21l8 15h32l-78 -362q-18 -81 -54 -120t-106 -39zM194 375q32 0 70 30.5t60 73.5l40 186q-32 22 -77 22
q-67 0 -114 -62.5t-47 -152.5q0 -47 18.5 -72t49.5 -25z" />
    <glyph glyph-name="h.ordn" horiz-adv-x="397" 
d="M91 350l86 429q15 77 6 106h50l-43 -226h1q22 24 57.5 43.5t72.5 19.5q48 0 72.5 -33.5t12.5 -93.5l-31 -157q-13 -71 -3 -88h-53l49 242q10 50 -7 73t-51 23t-69.5 -24t-59.5 -56l-33 -170q-8 -42 -9 -54.5t6 -33.5h-54z" />
    <glyph glyph-name="i.ordn" horiz-adv-x="177" 
d="M191 791q-28 0 -25 31q5 34 35 34q27 0 24 -31q-3 -34 -34 -34zM86 350l52 256q15 72 5 106h55l-56 -274q-13 -69 -1 -88h-55z" />
    <glyph glyph-name="j.ordn" horiz-adv-x="153" 
d="M182 791q-27 0 -24 32q3 33 34 33q28 0 24 -31q-3 -34 -34 -34zM1 197q-28 0 -53 11l18 43q10 -21 38 -21q29 0 44.5 22.5t25.5 73.5l56 284q13 70 3 102h55l-76 -386q-15 -71 -40.5 -100t-70.5 -29z" />
    <glyph glyph-name="k.ordn" horiz-adv-x="357" 
d="M93 350l85 429q15 74 5 106h55l-48 -241q20 34 53.5 56t72.5 22t65 -23.5t26 -60.5q0 -53 -40 -86.5t-97 -43.5l41 -77q20 -37 32 -53.5t28 -27.5h-58l-85 163v18q60 5 99.5 31t39.5 70q0 26 -16.5 41.5t-42.5 15.5q-35 0 -72 -32.5t-61 -86.5l-26 -131q-13 -72 -1 -89
h-55z" />
    <glyph glyph-name="l.ordn" horiz-adv-x="184" 
d="M92 350l85 427q15 77 5 108h55l-89 -444q-13 -72 1 -91h-57z" />
    <glyph glyph-name="m.ordn" horiz-adv-x="598" 
d="M86 350l51 256q15 75 6 106h48l-10 -57h4q60 68 123 68q36 0 59 -19.5t26 -55.5q64 75 132 75q48 0 72 -33.5t11 -95.5l-32 -155q-16 -71 -3 -89h-52l49 241q10 51 -7 74t-49 23q-58 0 -121 -77l-35 -172q-14 -72 -3 -89h-52l49 241q20 97 -55 97q-59 0 -122 -80
l-34 -170q-14 -73 -3 -88h-52z" />
    <glyph glyph-name="n.ordn" horiz-adv-x="392" 
d="M86 350l51 254q15 80 6 108h47l-7 -52h3q22 25 58.5 44.5t72.5 19.5q46 0 71.5 -33t12.5 -94l-32 -156q-16 -71 -2 -91h-53l49 243q10 52 -7.5 74t-50.5 22t-68.5 -23t-60.5 -56l-34 -169q-15 -74 -3 -91h-53z" />
    <glyph glyph-name="o.ordn" horiz-adv-x="393" 
d="M224 340q-62 0 -98 38t-36 107q0 106 52 171t140 65q61 0 97 -38t36 -107q0 -105 -52 -170.5t-139 -65.5zM228 374q66 0 106.5 56.5t40.5 145.5q0 52 -26 81.5t-71 29.5q-66 0 -107 -56.5t-41 -145.5q0 -52 26 -81.5t72 -29.5z" />
    <glyph glyph-name="p.ordn" horiz-adv-x="390" 
d="M61 200l82 406q15 75 5 106h53l-14 -64l2 -1q23 33 57 54.5t68 21.5q47 0 74.5 -33.5t27.5 -97.5q0 -105 -59 -178t-144 -73q-42 0 -82 21l-15 -74q-13 -67 -1 -88h-54zM216 376q67 0 113.5 63t46.5 153q0 46 -18.5 71.5t-49.5 25.5t-71.5 -32.5t-61.5 -74.5l-36 -183
q34 -23 77 -23z" />
    <glyph glyph-name="q.ordn" horiz-adv-x="386" 
d="M271 200l44 216l-2 1q-23 -34 -57 -55t-68 -21q-47 0 -74.5 33.5t-27.5 96.5q0 105 59 178t144 73q41 0 82 -18l4 12h37l-85 -423q-13 -74 -1 -93h-55zM195 375q31 0 71.5 33t61.5 78l35 180q-31 21 -76 21q-67 0 -114 -63t-47 -152q0 -47 18.5 -72t50.5 -25z" />
    <glyph glyph-name="r.ordn" horiz-adv-x="257" 
d="M88 350l50 254q16 79 5 108h52l-11 -66h1q20 33 50.5 54.5t58.5 21.5q23 0 43 -12l-18 -39q-11 16 -31 16q-25 0 -57.5 -29.5t-58.5 -81.5l-26 -128q-17 -77 1 -98h-59z" />
    <glyph glyph-name="s.ordn" horiz-adv-x="309" 
d="M182 341q-14 0 -28 2t-24.5 5t-23.5 8l-19.5 7.5t-18 8t-13.5 6.5l29 46q10 -21 38 -35.5t64 -14.5q41 0 69 21t28 55q0 50 -68 71l-16 6q-81 27 -81 92q0 44 35.5 73.5t88.5 29.5q51 0 108 -33l-25 -42q-9 19 -32.5 31t-54.5 12q-33 0 -58 -19.5t-25 -46.5q0 -43 60 -65
l18 -6q87 -32 87 -99q0 -49 -38.5 -81t-99.5 -32z" />
    <glyph glyph-name="t.ordn" horiz-adv-x="265" 
d="M181 341q-43 0 -61 28.5t-7 81.5l47 228h-57l7 33h57l14 64h36l-13 -64h106l-6 -33h-107l-47 -228q-16 -78 39 -78q17 0 36 8.5t25 18.5l14 -40q-57 -19 -83 -19z" />
    <glyph glyph-name="u.ordn" horiz-adv-x="389" 
d="M187 340q-50 0 -70 36t-7 103l27 142q14 73 0 91h55l-44 -229q-22 -108 49 -108q32 0 69.5 26.5t68.5 66.5l30 153q13 74 2 91h54l-52 -267q-14 -72 -3 -95h-49l10 64h-3q-64 -74 -137 -74z" />
    <glyph glyph-name="v.ordn" horiz-adv-x="338" 
d="M173 350l-46 279q-10 63 -28 83h51l39 -239q12 -70 12 -89h4q20 41 76 140t67 120q25 50 17 68h53q-14 -36 -96 -181t-97 -181h-52z" />
    <glyph glyph-name="w.ordn" horiz-adv-x="516" 
d="M148 350l-26 283q-5 61 -19 79h50l20 -235q6 -67 5 -93h5q11 29 110 239q31 68 30 89h58l16 -235q4 -70 3 -93h6q13 33 53 114t65 139.5t19 74.5h46q-10 -35 -79 -177.5t-83 -184.5h-57l-18 255q-1 13 -1.5 29t-0.5 26t-1 14h-2q-9 -29 -25 -65q-13 -29 -42 -88.5
t-47.5 -100t-28.5 -70.5h-56z" />
    <glyph glyph-name="x.ordn" horiz-adv-x="329" 
d="M300 412q23 -50 37 -62h-49l-60 128l-16 39q-12 -21 -26 -36l-67 -80q-31 -36 -30 -51h-53l162 192l-50 109q-22 48 -35 61h47l51 -113l5 -9q4 -9 12 -31q17 23 28 36l54 66q30 35 30 51h52l-149 -180z" />
    <glyph glyph-name="y.ordn" horiz-adv-x="332" 
d="M53 200q-3 0 -43 4l17 46q11 -16 33 -16q58 0 109 92l9 17l-50 287q-1 5 -3 15.5t-3 14.5l-3 12t-3.5 12t-4 10t-5.5 10t-7 8h50l37 -211q12 -72 17 -114h3q16 34 60 115l74 139q30 57 22 71h52l-213 -398q-60 -114 -148 -114z" />
    <glyph glyph-name="z.ordn" horiz-adv-x="319" 
d="M374 712l-4 -29l-268 -300h137q67 0 88 14l-9 -47h-271l5 29l266 299h-115q-61 0 -79 -13l8 47h242z" />
    <glyph glyph-name="a.ss01" horiz-adv-x="474" 
d="M148 -12q-57 0 -91.5 27.5t-34.5 77.5q0 84 67.5 129t192.5 45h80l9 44q29 145 -100 145q-43 0 -84.5 -18.5t-63.5 -43.5l-15 48q1 0 64.5 24.5t107.5 24.5q165 0 130 -180l-37 -191q-18 -91 -8 -120h-54l16 80h-3q-31 -40 -79.5 -66t-96.5 -26zM156 22q96 0 180 110
l19 100h-80q-103 0 -156.5 -34t-53.5 -99q0 -37 24.5 -57t66.5 -20z" />
    <glyph glyph-name="aacute.ss01" horiz-adv-x="474" 
d="M265 560l-13 20q91 60 164 156l26 -28q-74 -92 -177 -148zM148 -12q-57 0 -91.5 27.5t-34.5 77.5q0 84 67.5 129t192.5 45h80l9 44q29 145 -100 145q-43 0 -84.5 -18.5t-63.5 -43.5l-15 48q1 0 64.5 24.5t107.5 24.5q165 0 130 -180l-37 -191q-18 -91 -8 -120h-54l16 80
h-3q-31 -40 -79.5 -66t-96.5 -26zM156 22q96 0 180 110l19 100h-80q-103 0 -156.5 -34t-53.5 -99q0 -37 24.5 -57t66.5 -20z" />
    <glyph glyph-name="abreve.ss01" horiz-adv-x="474" 
d="M284 556q-112 0 -83 145h28q-9 -49 4 -81.5t57 -32.5t70 32.5t35 81.5h28q-25 -145 -139 -145zM148 -12q-57 0 -91.5 27.5t-34.5 77.5q0 84 67.5 129t192.5 45h80l9 44q29 145 -100 145q-43 0 -84.5 -18.5t-63.5 -43.5l-15 48q1 0 64.5 24.5t107.5 24.5q165 0 130 -180
l-37 -191q-18 -91 -8 -120h-54l16 80h-3q-31 -40 -79.5 -66t-96.5 -26zM156 22q96 0 180 110l19 100h-80q-103 0 -156.5 -34t-53.5 -99q0 -37 24.5 -57t66.5 -20z" />
    <glyph glyph-name="acircumflex.ss01" horiz-adv-x="474" 
d="M165 559l-13 19q83 62 145 145h38q34 -89 89 -145l-20 -19q-57 51 -90 127h-4q-63 -74 -145 -127zM148 -12q-57 0 -91.5 27.5t-34.5 77.5q0 84 67.5 129t192.5 45h80l9 44q29 145 -100 145q-43 0 -84.5 -18.5t-63.5 -43.5l-15 48q1 0 64.5 24.5t107.5 24.5
q165 0 130 -180l-37 -191q-18 -91 -8 -120h-54l16 80h-3q-31 -40 -79.5 -66t-96.5 -26zM156 22q96 0 180 110l19 100h-80q-103 0 -156.5 -34t-53.5 -99q0 -37 24.5 -57t66.5 -20z" />
    <glyph glyph-name="adieresis.ss01" horiz-adv-x="474" 
d="M227 585q-13 0 -21 8t-8 21q0 16 13 29t30 13q12 0 20 -8t8 -21q0 -16 -12.5 -29t-29.5 -13zM356 585q-13 0 -21 8t-8 21q0 16 13 29t30 13q13 0 21 -8t8 -21q0 -16 -13 -29t-30 -13zM148 -12q-57 0 -91.5 27.5t-34.5 77.5q0 84 67.5 129t192.5 45h80l9 44
q29 145 -100 145q-43 0 -84.5 -18.5t-63.5 -43.5l-15 48q1 0 64.5 24.5t107.5 24.5q165 0 130 -180l-37 -191q-18 -91 -8 -120h-54l16 80h-3q-31 -40 -79.5 -66t-96.5 -26zM156 22q96 0 180 110l19 100h-80q-103 0 -156.5 -34t-53.5 -99q0 -37 24.5 -57t66.5 -20z" />
    <glyph glyph-name="agrave.ss01" horiz-adv-x="474" 
d="M303 560q-85 61 -120 148l34 26q34 -97 103 -157zM148 -12q-57 0 -91.5 27.5t-34.5 77.5q0 84 67.5 129t192.5 45h80l9 44q29 145 -100 145q-43 0 -84.5 -18.5t-63.5 -43.5l-15 48q1 0 64.5 24.5t107.5 24.5q165 0 130 -180l-37 -191q-18 -91 -8 -120h-54l16 80h-3
q-31 -40 -79.5 -66t-96.5 -26zM156 22q96 0 180 110l19 100h-80q-103 0 -156.5 -34t-53.5 -99q0 -37 24.5 -57t66.5 -20z" />
    <glyph glyph-name="amacron.ss01" horiz-adv-x="474" 
d="M193 595l7 35h200l-7 -35h-200zM148 -12q-57 0 -91.5 27.5t-34.5 77.5q0 84 67.5 129t192.5 45h80l9 44q29 145 -100 145q-43 0 -84.5 -18.5t-63.5 -43.5l-15 48q1 0 64.5 24.5t107.5 24.5q165 0 130 -180l-37 -191q-18 -91 -8 -120h-54l16 80h-3q-31 -40 -79.5 -66
t-96.5 -26zM156 22q96 0 180 110l19 100h-80q-103 0 -156.5 -34t-53.5 -99q0 -37 24.5 -57t66.5 -20z" />
    <glyph glyph-name="aogonek.ss01" horiz-adv-x="474" 
d="M280 491q165 0 130 -180l-37 -191q-18 -91 -8 -120h1q-47 -22 -78.5 -56.5t-31.5 -63.5q0 -32 37 -32q26 0 45 22l10 -32q-30 -19 -63 -19q-29 0 -47 13t-18 39q0 36 31 71.5t75 57.5h-15l16 80h-3q-31 -40 -79.5 -66t-96.5 -26q-57 0 -91.5 27.5t-34.5 77.5
q0 84 67.5 129t192.5 45h80l9 44q29 145 -100 145q-43 0 -84.5 -18.5t-63.5 -43.5l-15 48q1 0 64.5 24.5t107.5 24.5zM156 22q96 0 180 110l19 100h-80q-103 0 -156.5 -34t-53.5 -99q0 -37 24.5 -57t66.5 -20z" />
    <glyph glyph-name="aring.ss01" horiz-adv-x="474" 
d="M285 557q-34 0 -54.5 17t-20.5 46q0 40 30.5 68t74.5 28q34 0 54.5 -17t20.5 -46q0 -40 -30.5 -68t-74.5 -28zM290 584q29 0 48 18.5t19 47.5q0 39 -46 39q-30 0 -49 -18.5t-19 -47.5q0 -39 47 -39zM148 -12q-57 0 -91.5 27.5t-34.5 77.5q0 84 67.5 129t192.5 45h80l9 44
q29 145 -100 145q-43 0 -84.5 -18.5t-63.5 -43.5l-15 48q1 0 64.5 24.5t107.5 24.5q165 0 130 -180l-37 -191q-18 -91 -8 -120h-54l16 80h-3q-31 -40 -79.5 -66t-96.5 -26zM156 22q96 0 180 110l19 100h-80q-103 0 -156.5 -34t-53.5 -99q0 -37 24.5 -57t66.5 -20z" />
    <glyph glyph-name="atilde.ss01" horiz-adv-x="474" 
d="M354 574q-21 0 -39 13.5t-28 29t-24 29t-29 13.5q-50 0 -54 -67l-41 2q31 96 102 96q22 0 39.5 -13.5t27.5 -29.5t24 -29.5t29 -13.5q47 0 55 67l40 -2q-32 -95 -102 -95zM148 -12q-57 0 -91.5 27.5t-34.5 77.5q0 84 67.5 129t192.5 45h80l9 44q29 145 -100 145
q-43 0 -84.5 -18.5t-63.5 -43.5l-15 48q1 0 64.5 24.5t107.5 24.5q165 0 130 -180l-37 -191q-18 -91 -8 -120h-54l16 80h-3q-31 -40 -79.5 -66t-96.5 -26zM156 22q96 0 180 110l19 100h-80q-103 0 -156.5 -34t-53.5 -99q0 -37 24.5 -57t66.5 -20z" />
    <glyph glyph-name="g.ss02" horiz-adv-x="432" 
d="M461 432q-25 15 -103 15l-1 -3q32 -35 32 -89q0 -89 -57 -145t-145 -56q-28 0 -50 7q-38 -28 -38 -66q0 -22 21 -31t73 -9q184 0 184 -98q0 -76 -62.5 -116.5t-178.5 -40.5q-82 0 -126 26t-44 77q0 46 30 83t81 59q-16 18 -16 44q0 49 46 85q-59 34 -59 109
q0 94 57.5 151t145.5 57q37 0 61 -12h68q56 0 92 6zM193 188q68 0 112.5 45t44.5 121q0 46 -29.5 74t-75.5 28q-66 0 -111 -46t-45 -124q0 -50 28 -74t76 -24zM336 -52q0 70 -150 70q-52 0 -79 10q-101 -46 -101 -118q0 -75 139 -75q90 0 140.5 30t50.5 83z" />
    <glyph glyph-name="gbreve.ss02" horiz-adv-x="432" 
d="M256 550q-112 0 -83 145h28q-9 -49 4 -81.5t57 -32.5t70 32.5t35 81.5h28q-25 -145 -139 -145zM461 432q-25 15 -103 15l-1 -3q32 -35 32 -89q0 -89 -57 -145t-145 -56q-28 0 -50 7q-38 -28 -38 -66q0 -22 21 -31t73 -9q184 0 184 -98q0 -76 -62.5 -116.5t-178.5 -40.5
q-82 0 -126 26t-44 77q0 46 30 83t81 59q-16 18 -16 44q0 49 46 85q-59 34 -59 109q0 94 57.5 151t145.5 57q37 0 61 -12h68q56 0 92 6zM193 188q68 0 112.5 45t44.5 121q0 46 -29.5 74t-75.5 28q-66 0 -111 -46t-45 -124q0 -50 28 -74t76 -24zM336 -52q0 70 -150 70
q-52 0 -79 10q-101 -46 -101 -118q0 -75 139 -75q90 0 140.5 30t50.5 83z" />
    <glyph glyph-name="uni0123.ss02" horiz-adv-x="432" 
d="M251 541q-32 0 -32 36q0 38 28 76t68 53l7 -17q-52 -22 -67 -77q6 2 11 2q11 0 19 -7.5t8 -20.5q0 -19 -12.5 -32t-29.5 -13zM461 432q-25 15 -103 15l-1 -3q32 -35 32 -89q0 -89 -57 -145t-145 -56q-28 0 -50 7q-38 -28 -38 -66q0 -22 21 -31t73 -9q184 0 184 -98
q0 -76 -62.5 -116.5t-178.5 -40.5q-82 0 -126 26t-44 77q0 46 30 83t81 59q-16 18 -16 44q0 49 46 85q-59 34 -59 109q0 94 57.5 151t145.5 57q37 0 61 -12h68q56 0 92 6zM193 188q68 0 112.5 45t44.5 121q0 46 -29.5 74t-75.5 28q-66 0 -111 -46t-45 -124q0 -50 28 -74
t76 -24zM336 -52q0 70 -150 70q-52 0 -79 10q-101 -46 -101 -118q0 -75 139 -75q90 0 140.5 30t50.5 83z" />
    <glyph glyph-name="gdotaccent.ss02" horiz-adv-x="432" 
d="M258 565q-29 0 -29 27q0 22 12 36t32 14q30 0 30 -27q0 -22 -12.5 -36t-32.5 -14zM461 432q-25 15 -103 15l-1 -3q32 -35 32 -89q0 -89 -57 -145t-145 -56q-28 0 -50 7q-38 -28 -38 -66q0 -22 21 -31t73 -9q184 0 184 -98q0 -76 -62.5 -116.5t-178.5 -40.5q-82 0 -126 26
t-44 77q0 46 30 83t81 59q-16 18 -16 44q0 49 46 85q-59 34 -59 109q0 94 57.5 151t145.5 57q37 0 61 -12h68q56 0 92 6zM193 188q68 0 112.5 45t44.5 121q0 46 -29.5 74t-75.5 28q-66 0 -111 -46t-45 -124q0 -50 28 -74t76 -24zM336 -52q0 70 -150 70q-52 0 -79 10
q-101 -46 -101 -118q0 -75 139 -75q90 0 140.5 30t50.5 83z" />
    <glyph glyph-name="y.ss03" horiz-adv-x="492" 
d="M138 -200q-36 0 -63.5 6t-50 16t-26.5 11l23 53q36 -51 128 -51q73 0 123.5 39.5t66.5 122.5l17 88q-34 -43 -84.5 -70t-102.5 -27q-143 0 -105 190l39 198q15 77 6 103h52l-58 -301q-30 -155 78 -155q97 0 183 109l48 244q15 75 8 103h50l-93 -480q-38 -197 -239 -199z
" />
    <glyph glyph-name="yacute.ss03" horiz-adv-x="492" 
d="M283 553l-13 20q91 60 164 156l26 -28q-74 -92 -177 -148zM138 -200q-36 0 -63.5 6t-50 16t-26.5 11l23 53q36 -51 128 -51q73 0 123.5 39.5t66.5 122.5l17 88q-34 -43 -84.5 -70t-102.5 -27q-143 0 -105 190l39 198q15 77 6 103h52l-58 -301q-30 -155 78 -155
q97 0 183 109l48 244q15 75 8 103h50l-93 -480q-38 -197 -239 -199z" />
    <glyph glyph-name="ycircumflex.ss03" horiz-adv-x="492" 
d="M183 552l-13 19q83 62 145 145h38q34 -89 89 -145l-20 -19q-57 51 -90 127h-4q-63 -74 -145 -127zM138 -200q-36 0 -63.5 6t-50 16t-26.5 11l23 53q36 -51 128 -51q73 0 123.5 39.5t66.5 122.5l17 88q-34 -43 -84.5 -70t-102.5 -27q-143 0 -105 190l39 198q15 77 6 103
h52l-58 -301q-30 -155 78 -155q97 0 183 109l48 244q15 75 8 103h50l-93 -480q-38 -197 -239 -199z" />
    <glyph glyph-name="ydieresis.ss03" horiz-adv-x="492" 
d="M245 578q-13 0 -21 8t-8 21q0 16 13 29t30 13q12 0 20 -8t8 -21q0 -16 -12.5 -29t-29.5 -13zM374 578q-13 0 -21 8t-8 21q0 16 13 29t30 13q13 0 21 -8t8 -21q0 -16 -13 -29t-30 -13zM138 -200q-36 0 -63.5 6t-50 16t-26.5 11l23 53q36 -51 128 -51q73 0 123.5 39.5
t66.5 122.5l17 88q-34 -43 -84.5 -70t-102.5 -27q-143 0 -105 190l39 198q15 77 6 103h52l-58 -301q-30 -155 78 -155q97 0 183 109l48 244q15 75 8 103h50l-93 -480q-38 -197 -239 -199z" />
    <glyph glyph-name="ygrave.ss03" horiz-adv-x="492" 
d="M321 553q-85 61 -120 148l34 26q34 -97 103 -157zM138 -200q-36 0 -63.5 6t-50 16t-26.5 11l23 53q36 -51 128 -51q73 0 123.5 39.5t66.5 122.5l17 88q-34 -43 -84.5 -70t-102.5 -27q-143 0 -105 190l39 198q15 77 6 103h52l-58 -301q-30 -155 78 -155q97 0 183 109
l48 244q15 75 8 103h50l-93 -480q-38 -197 -239 -199z" />
    <glyph glyph-name="a.superior" horiz-adv-x="349" 
d="M188 431q-47 0 -74.5 33.5t-27.5 96.5q0 106 59 179t144 73q35 0 79 -19l7 12h34l-55 -268q-15 -76 -3 -98h-43q-4 26 3 59h-3q-24 -31 -56.5 -49.5t-63.5 -18.5zM195 465q29 0 66.5 28.5t59.5 68.5l40 195q-33 20 -75 20q-66 0 -113 -62t-47 -152q0 -47 18.5 -72.5
t50.5 -25.5z" />
    <glyph glyph-name="b.superior" horiz-adv-x="384" 
d="M209 431q-47 0 -88 24l-8 -15h-25l88 430q16 84 7 105h53l-50 -234q24 31 57.5 51.5t66.5 20.5q46 0 73.5 -33.5t27.5 -97.5q0 -105 -58.5 -178t-143.5 -73zM211 466q67 0 113.5 63t46.5 153q0 47 -18 72t-50 25q-31 0 -70.5 -32t-60.5 -76l-37 -182q30 -23 76 -23z" />
    <glyph glyph-name="c.superior" horiz-adv-x="323" 
d="M209 430q-52 0 -86.5 34t-34.5 101q0 105 53.5 175.5t134.5 70.5q47 0 104 -34l-24 -40q-29 40 -84 40q-62 0 -103 -61.5t-41 -146.5q0 -53 25 -79t64 -26q32 0 62.5 15.5t46.5 36.5l12 -44q-68 -42 -129 -42z" />
    <glyph glyph-name="d.superior" horiz-adv-x="385" 
d="M188 431q-47 0 -74.5 33.5t-27.5 96.5q0 105 59 178t144 73q38 0 79 -16l14 73q15 79 6 106h52l-86 -443q-15 -73 -3 -92h-45q0 33 6 59h-3q-54 -68 -121 -68zM195 465q30 0 67.5 29.5t58.5 70.5l39 193q-32 19 -73 19q-67 0 -114 -63t-47 -152q0 -47 18.5 -72t50.5 -25z
" />
    <glyph glyph-name="e.superior" horiz-adv-x="358" 
d="M214 430q-58 0 -92 34t-34 103q0 107 56.5 175.5t135.5 68.5q50 0 81 -28t31 -70q0 -53 -37.5 -77.5t-117.5 -24.5h-107q-13 -72 12.5 -109.5t77.5 -37.5q33 0 68 12.5t51 31.5l11 -43q-19 -12 -58.5 -23.5t-77.5 -11.5zM136 643h100q60 0 88.5 15.5t28.5 51.5
q0 29 -21 48t-57 19q-43 0 -84.5 -37t-54.5 -97z" />
    <glyph glyph-name="f.superior" horiz-adv-x="204" 
d="M95 448l64 328h-54l7 34h53l11 54q14 66 47.5 97.5t79.5 31.5q36 0 68 -17l-16 -40q-17 24 -56 24q-67 0 -85 -96l-10 -54h86l-7 -34h-86l-47 -238q-14 -72 -3 -90h-52z" />
    <glyph glyph-name="g.superior" horiz-adv-x="346" 
d="M176 285q-62 0 -121 38l26 44q26 -48 95 -48q50 0 77.5 29t44.5 94l15 59h-2q-55 -70 -123 -70q-47 0 -74.5 33.5t-27.5 96.5q0 106 59 178.5t144 72.5q47 0 85 -21l8 15h32l-78 -362q-18 -81 -54 -120t-106 -39zM194 465q32 0 70 30.5t60 73.5l40 186q-32 22 -77 22
q-67 0 -114 -62.5t-47 -152.5q0 -47 18.5 -72t49.5 -25z" />
    <glyph glyph-name="h.superior" horiz-adv-x="378" 
d="M91 448l86 429q15 77 6 106h50l-43 -225h1q22 24 58 43.5t72 19.5q48 0 72.5 -34t12.5 -94l-31 -156q-13 -71 -3 -89h-53l49 243q10 49 -7 72.5t-51 23.5q-33 0 -69 -24t-60 -56l-33 -170q-12 -67 -6 -83q1 -3 3 -6h-54z" />
    <glyph glyph-name="i.superior" horiz-adv-x="167" 
d="M191 885q-28 0 -25 31q5 34 35 34q27 0 24 -30q-3 -35 -34 -35zM86 444l52 256q15 72 5 106h55l-56 -274q-13 -69 -1 -88h-55z" />
    <glyph glyph-name="j.superior" horiz-adv-x="167" 
d="M182 886q-27 0 -24 32q3 33 34 33q28 0 24 -31q-3 -34 -34 -34zM1 292q-28 0 -53 11l18 43q10 -21 38 -21q29 0 44.5 22.5t25.5 73.5l56 284q13 70 3 102h55l-76 -386q-15 -71 -40.5 -100t-70.5 -29z" />
    <glyph glyph-name="k.superior" horiz-adv-x="336" 
d="M93 445l85 429q15 74 5 106h55l-48 -241q20 34 53.5 56t72.5 22t65 -23.5t26 -60.5q0 -53 -40 -86.5t-97 -43.5l41 -77q20 -37 32 -53.5t28 -27.5h-58l-85 163v18q60 5 99.5 31t39.5 70q0 26 -16.5 41.5t-42.5 15.5q-35 0 -72 -32.5t-61 -86.5l-26 -131q-13 -72 -1 -89
h-55z" />
    <glyph glyph-name="l.superior" horiz-adv-x="166" 
d="M92 442l85 428q15 77 5 108h55l-89 -445q-13 -72 1 -91h-57z" />
    <glyph glyph-name="m.superior" horiz-adv-x="578" 
d="M86 440l51 256q15 75 6 106h48l-10 -57h4q60 68 123 68q36 0 59 -19.5t26 -55.5q64 75 132 75q48 0 72 -33.5t11 -95.5l-32 -155q-16 -71 -3 -89h-52l49 241q10 51 -7 74t-49 23q-58 0 -121 -77l-35 -172q-14 -72 -3 -89h-52l49 241q20 97 -55 97q-59 0 -122 -80
l-34 -170q-14 -73 -3 -88h-52z" />
    <glyph glyph-name="n.superior" horiz-adv-x="378" 
d="M86 440l51 254q15 80 6 108h47l-7 -52h3q22 25 58.5 44.5t72.5 19.5q46 0 71.5 -33t12.5 -94l-32 -156q-16 -71 -2 -91h-53l49 243q10 52 -7.5 74t-50.5 22t-68.5 -23t-60.5 -56l-34 -169q-15 -74 -3 -91h-53z" />
    <glyph glyph-name="o.superior" horiz-adv-x="378" 
d="M224 430q-62 0 -98 38t-36 107q0 106 52 171t140 65q61 0 97 -38t36 -107q0 -105 -52 -170.5t-139 -65.5zM228 464q66 0 106.5 56.5t40.5 145.5q0 52 -26 81.5t-71 29.5q-66 0 -107 -56.5t-41 -145.5q0 -52 26 -81.5t72 -29.5z" />
    <glyph glyph-name="p.superior" horiz-adv-x="384" 
d="M61 290l82 406q15 75 5 106h53l-14 -64l2 -1q23 33 57 54.5t68 21.5q47 0 74.5 -33.5t27.5 -97.5q0 -105 -59 -178t-144 -73q-42 0 -82 21l-15 -74q-13 -67 -1 -88h-54zM216 466q67 0 113.5 63t46.5 153q0 46 -18.5 71.5t-49.5 25.5t-71.5 -32.5t-61.5 -74.5l-36 -183
q34 -23 77 -23z" />
    <glyph glyph-name="q.superior" horiz-adv-x="385" 
d="M271 290l44 216l-2 1q-23 -34 -57 -55t-68 -21q-47 0 -74.5 33.5t-27.5 96.5q0 105 59 178t144 73q41 0 82 -18l4 12h37l-85 -423q-13 -74 -1 -93h-55zM195 465q31 0 71.5 33t61.5 78l35 180q-31 21 -76 21q-67 0 -114 -63t-47 -152q0 -47 18.5 -72t50.5 -25z" />
    <glyph glyph-name="r.superior" horiz-adv-x="241" 
d="M88 440l50 254q16 79 5 108h52l-11 -66h1q20 33 50.5 54.5t58.5 21.5q23 0 43 -12l-18 -39q-11 16 -31 16q-25 0 -57.5 -29.5t-58.5 -81.5l-26 -128q-17 -77 1 -98h-59z" />
    <glyph glyph-name="s.superior" horiz-adv-x="296" 
d="M182 431q-14 0 -28 2t-24.5 5t-23.5 8l-19.5 7.5t-18 8t-13.5 6.5l29 46q10 -21 38 -35.5t64 -14.5q41 0 69 21t28 55q0 50 -68 71l-16 6q-81 27 -81 92q0 44 35.5 73.5t88.5 29.5q51 0 108 -33l-25 -42q-9 19 -32.5 31t-54.5 12q-33 0 -58 -19.5t-25 -46.5q0 -43 60 -65
l18 -6q87 -32 87 -99q0 -49 -38.5 -81t-99.5 -32z" />
    <glyph glyph-name="t.superior" horiz-adv-x="230" 
d="M181 431q-43 0 -61 28.5t-7 81.5l47 228h-57l7 33h57l14 64h36l-13 -64h106l-6 -33h-107l-47 -228q-16 -78 39 -78q17 0 36 8.5t25 18.5l14 -40q-57 -19 -83 -19z" />
    <glyph glyph-name="u.superior" horiz-adv-x="378" 
d="M187 430q-50 0 -70 36t-7 103l27 142q14 73 0 91h55l-44 -229q-22 -108 49 -108q32 0 69.5 26.5t68.5 66.5l30 153q13 74 2 91h54l-52 -267q-14 -72 -3 -95h-49l10 64h-3q-64 -74 -137 -74z" />
    <glyph glyph-name="v.superior" horiz-adv-x="327" 
d="M173 440l-46 279q-10 63 -28 83h51l39 -239q12 -70 12 -89h4q20 41 76 140t67 120q25 50 17 68h53q-14 -36 -96 -181t-97 -181h-52z" />
    <glyph glyph-name="w.superior" horiz-adv-x="486" 
d="M148 440l-26 283q-5 61 -19 79h50l20 -235q6 -67 5 -93h5q11 29 110 239q31 68 30 89h58l16 -235q4 -70 3 -93h6q13 33 53 114t65 139.5t19 74.5h46q-10 -35 -79 -177.5t-83 -184.5h-57l-18 255q-1 13 -1.5 29t-0.5 26t-1 14h-2q-9 -29 -25 -65q-13 -29 -42 -88.5
t-47.5 -100t-28.5 -70.5h-56z" />
    <glyph glyph-name="x.superior" horiz-adv-x="303" 
d="M300 502q23 -50 37 -62h-49l-60 128l-16 39q-12 -21 -26 -36l-67 -80q-31 -36 -30 -51h-53l162 192l-50 109q-22 48 -35 61h47l51 -113l5 -9q4 -9 12 -31q17 23 28 36l54 66q30 35 30 51h52l-149 -180z" />
    <glyph glyph-name="y.superior" horiz-adv-x="320" 
d="M53 290q-3 0 -43 4l17 46q11 -16 33 -16q58 0 109 92l9 17l-50 287q-1 5 -3 15.5t-3 14.5l-3 12t-3.5 12t-4 10t-5.5 10t-7 8h50l37 -211q12 -72 17 -114h3q16 34 60 115l74 139q30 57 22 71h52l-213 -398q-60 -114 -148 -114z" />
    <glyph glyph-name="z.superior" horiz-adv-x="293" 
d="M374 802l-4 -29l-268 -300h137q67 0 88 14l-9 -47h-271l5 29l266 299h-115q-61 0 -79 -13l8 47h242z" />
    <glyph glyph-name="L_A" horiz-adv-x="715" 
d="M633 -5q-38 5 -159 5h-454q20 27 35 103l89 453q15 77 4 103h71q-19 -24 -34 -103l-102 -521h398q131 0 163 16zM212 156q28 33 68 103l143 251q71 122 71 149h72q-11 -27 13 -149l47 -251q15 -78 27 -103h-66q11 33 -1 95l-12 65h-223l-36 -65q-37 -68 -38 -95h-65z
M371 350h198l-25 139q-18 103 -18 137h-4q-17 -41 -72 -137z" />
    <glyph glyph-name="L_E" horiz-adv-x="641" 
d="M562 149q-22 7 -118 7h-202q19 24 35 110l55 283q17 87 7 110h208q81 0 105 7l-11 -55q-19 14 -101 14h-153l-37 -188h95q103 0 124 11l-11 -57q-17 11 -120 11h-95l-40 -211h147q96 0 123 14zM560 -5q-40 5 -159 5h-381q20 27 35 103l89 453q15 77 4 103h71
q-19 -24 -34 -103l-102 -521h324q132 0 164 16z" />
    <glyph glyph-name="L_I" horiz-adv-x="446" 
d="M365 -5q-38 5 -159 5h-186q20 27 35 103l89 453q15 77 4 103h71q-19 -24 -34 -103l-102 -521h129q132 0 164 16zM268 156q19 26 36 110l55 283q16 85 7 110h68q-19 -26 -36 -110l-55 -283q-16 -84 -7 -110h-68z" />
    <glyph glyph-name="L_L" horiz-adv-x="640" 
d="M560 -5q-40 5 -159 5h-381q20 27 35 103l89 453q15 77 4 103h71q-19 -24 -34 -103l-102 -521h324q132 0 164 16zM563 148q-30 8 -126 8h-195q18 23 36 113l54 277q17 87 7 113h69q-20 -27 -37 -113l-68 -355h142q101 0 129 14z" />
    <glyph glyph-name="L_O" horiz-adv-x="714" 
d="M439 147q-77 0 -121 46t-44 133q0 144 76.5 241.5t189.5 97.5q78 0 122.5 -45t44.5 -132q0 -144 -77.5 -242.5t-190.5 -98.5zM632 -5q-38 5 -159 5h-453q20 27 35 103l89 453q15 77 4 103h71q-19 -24 -34 -103l-102 -521h397q131 0 163 16zM447 183q93 0 155.5 86.5
t62.5 214.5q0 72 -34.5 108t-97.5 36q-93 0 -155 -85.5t-62 -213.5q0 -72 34.5 -109t96.5 -37z" />
    <glyph glyph-name="L_U" horiz-adv-x="683" 
d="M602 -5q-40 5 -159 5h-423q20 27 35 103l89 453q15 77 4 103h71q-19 -24 -34 -103l-102 -521h366q132 0 163 15zM431 151q-170 0 -132 204l37 189q18 87 8 115h68q-12 -16 -18.5 -36.5t-17.5 -78.5l-36 -184q-18 -95 8.5 -134t90.5 -39t107 39t61 134l36 184q17 89 8 115
h65q-19 -26 -36 -115l-37 -189q-40 -204 -212 -204z" />
    <glyph glyph-name="R_A" horiz-adv-x="1020" 
d="M21 0q19 27 34 103l90 457q14 79 4 103h183q44 0 77.5 -5.5t63 -20t45.5 -42t16 -67.5q0 -94 -54 -160t-146 -82q54 -140 109 -193t159 -53h274q52 0 74 14l-11 -54h-348q-120 0 -180 58.5t-125 222.5h-155l-35 -178q-15 -75 -5 -103h-70zM514 156q29 34 68 103l143 251
q43 75 57 104t14 45h72q-11 -25 13 -149l47 -251q15 -78 27 -103h-66q11 33 -1 95l-12 65h-223l-36 -65q-38 -70 -38 -95h-65zM138 316h125q107 0 168 54t61 149q0 61 -45.5 84.5t-131.5 23.5h-116zM672 350h199l-25 139q-18 103 -18 137h-4q-17 -38 -72 -137z" />
    <glyph glyph-name="R_E" horiz-adv-x="971" 
d="M887 149q-21 7 -117 7h-203q12 15 18.5 36t17.5 74l55 283q17 84 7 110h208q81 0 105 7l-11 -55q-19 14 -101 14h-153l-37 -188h95q102 0 124 11l-11 -57q-17 11 -120 11h-95l-41 -211h148q97 0 122 14zM21 0q19 27 34 103l90 457q14 79 4 103h183q44 0 77.5 -5.5t63 -20
t45.5 -42t16 -67.5q0 -94 -54 -160t-146 -82q37 -95 69 -145t79.5 -75.5t119.5 -25.5h225q51 0 73 14l-10 -54h-299q-64 0 -107 13.5t-78 50t-60.5 84.5t-59.5 133h-155l-35 -178q-15 -75 -5 -103h-70zM138 316h125q107 0 168 54t61 149q0 61 -45.5 84.5t-131.5 23.5h-116z
" />
    <glyph glyph-name="R_I" horiz-adv-x="741" 
d="M21 0q19 27 34 103l90 457q14 79 4 103h183q44 0 77.5 -5.5t63 -20t45.5 -42t16 -67.5q0 -94 -54 -160t-146 -82q20 -48 31.5 -73t29.5 -58.5t33 -50t36.5 -34t47 -24t57.5 -6.5h35q43 0 66 13l-11 -53h-99q-32 0 -58.5 6.5t-47 16t-40.5 30.5t-34 39.5t-32 53.5
t-29.5 61t-32.5 74h-155l-35 -178q-15 -75 -5 -103h-70zM569 156q12 15 18.5 36t17.5 74l55 283q16 85 7 110h68q-19 -29 -36 -110l-55 -283q-16 -82 -7 -110h-68zM138 316h125q107 0 168 54t61 149q0 61 -45.5 84.5t-131.5 23.5h-116z" />
    <glyph glyph-name="R_O" horiz-adv-x="1035" 
d="M760 148q-78 0 -122.5 46t-44.5 133q0 144 77 241.5t190 97.5q77 0 121.5 -45t44.5 -132q0 -144 -77 -242.5t-189 -98.5zM21 0q19 27 34 103l90 457q14 79 4 103h183q44 0 77.5 -5.5t63 -20t45.5 -42t16 -67.5q0 -94 -54 -160t-146 -82q54 -140 109 -193t159 -53h276
q51 0 73 14l-10 -54h-350q-120 0 -180 58.5t-125 222.5h-155l-35 -178q-15 -75 -5 -103h-70zM766 184q93 0 155.5 86.5t62.5 214.5q0 72 -34.5 108t-96.5 36q-94 0 -156 -85.5t-62 -213.5q0 -72 34.5 -109t96.5 -37zM138 316h125q107 0 168 54t61 149q0 61 -45.5 84.5
t-131.5 23.5h-116z" />
    <glyph glyph-name="R_R" horiz-adv-x="984" 
d="M21 0q19 27 34 103l90 457q14 79 4 103h183q44 0 77.5 -5.5t63 -20t45.5 -42t16 -67.5q0 -94 -54 -160t-146 -82q37 -95 69 -145t79.5 -75.5t119.5 -25.5h244q51 0 73 14l-11 -54h-317q-64 0 -107 13.5t-78 50t-60.5 84.5t-59.5 133h-155l-35 -178q-15 -75 -5 -103h-70z
M563 156q19 25 36 111l55 282q16 86 7 110h154q76 0 116.5 -23t40.5 -80q0 -77 -43.5 -126t-117.5 -60l46 -106q39 -87 57 -108h-67q3 28 -25 88l-54 122h-110l-20 -99q-16 -84 -7 -111h-68zM138 316h125q107 0 168 54t61 149q0 61 -45.5 84.5t-131.5 23.5h-116zM664 399h99
q83 0 126 38t43 111q0 44 -32 61t-93 17h-99z" />
    <glyph glyph-name="R_U" horiz-adv-x="997" 
d="M21 0q19 27 34 103l90 457q14 79 4 103h183q44 0 77.5 -5.5t63 -20t45.5 -42t16 -67.5q0 -94 -54 -160t-146 -82q37 -95 69 -145t79.5 -75.5t119.5 -25.5h252q51 0 73 14l-11 -54h-325q-64 0 -107 13.5t-78 50t-60.5 84.5t-59.5 133h-155l-35 -178q-15 -75 -5 -103h-70z
M747 151q-172 0 -132 204l37 189q17 89 8 115h68q-20 -26 -37 -115l-36 -184q-18 -95 9 -134t90 -39q64 0 107 39t61 134l36 184q17 89 8 115h66q-19 -25 -37 -115l-36 -189q-40 -204 -212 -204zM138 316h125q107 0 168 54t61 149q0 61 -45.5 84.5t-131.5 23.5h-116z" />
    <glyph glyph-name="c_t" horiz-adv-x="793" 
d="M206 -12q-166 0 -166 163q0 150 74 245t190 95q21 0 32 -2q-23 26 -23 66q0 87 77.5 147.5t189.5 60.5q88 0 135 -36t47 -93q0 -50 -33 -92t-85 -63h135l-7 -38q-27 8 -130 8l-62 -319q-11 -53 1 -80t59 -27q36 0 67 25l1 -51q-13 -1 -41 -5t-37 -4q-64 0 -83.5 37
t-5.5 105l62 319h-71l5 28q86 8 139 49.5t53 102.5q0 46 -40.5 76t-115.5 30q-95 0 -161 -51t-66 -124q0 -52 43 -86q11 -4 26.5 -13t21.5 -11l-34 -50q-30 56 -106 56q-93 0 -154.5 -84.5t-61.5 -213.5q0 -134 133 -134q90 0 143 56l13 -50q-1 0 -29.5 -11t-43 -15.5
t-42 -10t-49.5 -5.5z" />
    <glyph glyph-name="f_b" horiz-adv-x="793" 
d="M593 491q78 0 119 -43t41 -125q0 -143 -73.5 -239t-184.5 -96q-95 0 -141 66h-3l-10 -54h-50q17 27 32 103l100 514q9 48 10 59q-29 21 -93 21q-66 0 -100 -32t-48 -101l-16 -85h112l-8 -41q-19 6 -111 6l-67 -344q-15 -75 -8 -100h-60q14 23 29 100l67 344h-66l7 35h66
l16 85q17 84 62 126t132 42q52 0 98 -14h47q-16 -28 -30 -101l-38 -197q73 71 169 71zM500 24q88 0 149 83.5t61 204.5q0 68 -32 106t-94 38q-92 0 -170 -84l-51 -265q45 -83 137 -83z" />
    <glyph glyph-name="f_f_b" horiz-adv-x="1005" 
d="M804 491q79 0 119.5 -43t40.5 -125q0 -143 -73.5 -239t-184.5 -96q-95 0 -141 66h-3l-9 -54h-50q17 28 31 103l100 514q7 32 11 59q-31 21 -94 21q-66 0 -100 -32t-47 -101l-16 -85h112l-9 -41q-19 6 -111 6l-66 -344q-15 -74 -9 -100h-60q14 22 30 100l66 344h-172
l-67 -344q-15 -75 -8 -100h-60q14 23 29 100l67 344h-66l7 35h66l17 88q32 165 166 165q23 0 75 -10l-20 -47q-21 22 -63 22q-93 0 -119 -130l-17 -88h173l16 85q17 84 61.5 126t132.5 42q53 0 97 -14h47q-15 -28 -30 -101l-38 -197q73 71 169 71zM711 24q88 0 149.5 83.5
t61.5 204.5q0 68 -32 106t-95 38q-40 0 -85.5 -21.5t-83.5 -62.5l-52 -265q45 -83 137 -83z" />
    <glyph glyph-name="f_f_h" horiz-adv-x="984" 
d="M811 491q147 0 111 -188l-39 -200q-16 -77 -7 -103h-65q11 16 16.5 34t16.5 69l39 200q15 81 -5 117t-76 36q-90 0 -181 -99l-50 -254q-14 -80 -6 -103h-65q11 17 17 36t15 67l101 514q7 37 10 59q-31 21 -93 21q-66 0 -100 -32t-48 -101l-16 -85h112l-8 -41
q-20 6 -111 6l-67 -344q-15 -75 -8 -100h-61q15 25 30 100l67 344h-171l-67 -344q-15 -75 -8 -100h-60q14 23 29 100l67 344h-66l7 35h66l17 88q32 165 166 165q23 0 75 -10l-20 -47q-21 22 -63 22q-93 0 -119 -130l-17 -88h171l16 85q17 84 61.5 126t132.5 42q52 0 98 -14
h47q-15 -24 -30 -101l-34 -174q-8 -36 -10 -40h3q37 39 85 63.5t95 24.5z" />
    <glyph glyph-name="f_f_j" horiz-adv-x="666" 
d="M559 732q81 0 121 -20l-23 -50q-13 14 -42.5 24.5t-62.5 10.5q-66 0 -101 -31.5t-49 -101.5l-16 -85h259q-14 -23 -29 -103l-82 -422q-17 -85 -50 -119.5t-88 -34.5q-14 0 -37.5 4t-28.5 4l21 51q14 -23 52 -23q37 0 58.5 28t33.5 90l81 422q10 54 11 68h-208l-67 -344
q-15 -75 -8 -100h-60q14 23 29 100l67 344h-171l-67 -344q-15 -75 -8 -100h-60q14 23 29 100l67 344h-66l7 35h66l17 88q32 165 166 165q23 0 75 -10l-20 -47q-21 22 -63 22q-93 0 -119 -130l-17 -88h171l16 85q16 84 62 126t134 42z" />
    <glyph glyph-name="f_f_k" horiz-adv-x="941" 
d="M740 289l86 -192q29 -66 56 -97h-73q1 33 -22 84l-76 175l-133 -128l-5 -28q-10 -53 -11 -67.5t3 -35.5h-64q11 17 17 36t15 67l100 514q7 37 10 59q-31 21 -93 21q-66 0 -100 -32t-47 -101l-16 -85h112l-9 -41q-20 6 -111 6l-66 -344q-15 -74 -9 -100h-60q14 22 30 100
l66 344h-171l-67 -344q-15 -75 -8 -100h-60q14 23 29 100l67 344h-66l7 35h66l17 88q32 165 166 165q23 0 75 -10l-20 -47q-21 22 -63 22q-93 0 -119 -130l-17 -88h172l16 85q17 84 61.5 126t132.5 42q53 0 97 -14h47q-15 -25 -30 -101l-77 -400q-1 -5 -3 -12.5t-5 -21.5h3
l227 225q46 47 56 71h74q-37 -23 -106 -91z" />
    <glyph glyph-name="f_f_t" horiz-adv-x="752" 
d="M584 444l-65 -317q-21 -105 52 -105q24 0 50 11.5t33 25.5l17 -45q-62 -26 -106 -26q-55 0 -76.5 37.5t-7.5 103.5l66 315h-167l-67 -344q-15 -75 -8 -100h-60q14 23 29 100l67 344h-172l-67 -344q-15 -75 -8 -100h-60q14 23 29 100l67 344h-66l7 35h66l17 88
q32 165 166 165q23 0 75 -10l-20 -47q-21 22 -63 22q-93 0 -119 -130l-17 -88h172l17 88q32 165 167 165q21 0 76 -10l-19 -47q-21 22 -65 22q-95 0 -120 -130l-17 -88h168l18 85h36l-17 -85h143l-8 -34h-116v-1h-27z" />
    <glyph glyph-name="f_f_y" horiz-adv-x="851" 
d="M825 479h58l-282 -528q-79 -151 -192 -151q-9 0 -51 7l21 51q11 -22 40 -22q78 0 150 129l13 24l-64 382q-10 57 -16 73h-122l-67 -344q-14 -78 -8 -100h-60q14 23 29 100l67 344h-172l-67 -344q-15 -75 -8 -100h-60q14 23 29 100l67 344h-66l7 35h66l17 88
q32 165 166 165q23 0 75 -10l-20 -47q-21 22 -63 22q-93 0 -119 -130l-17 -88h173l16 88q32 165 167 165q24 0 76 -10l-19 -47q-21 22 -64 22q-95 0 -121 -130l-16 -88h176l-8 -35h-14l42 -247q18 -103 23 -159h4l84 162l101 188q22 43 29 62t0 29z" />
    <glyph glyph-name="f_h" horiz-adv-x="774" 
d="M601 491q147 0 111 -188l-39 -200q-16 -77 -7 -103h-65q11 16 16.5 34t16.5 69l39 200q16 81 -4.5 117t-76.5 36q-90 0 -181 -99l-49 -254q-16 -79 -7 -103h-65q17 26 33 103l100 514q7 37 10 59q-31 21 -93 21q-66 0 -100 -32t-48 -101l-16 -85h112l-8 -41q-19 6 -111 6
l-67 -344q-15 -75 -8 -100h-60q14 23 29 100l67 344h-66l7 35h66l16 85q17 84 62 126t132 42q52 0 98 -14h47q-15 -24 -30 -101l-34 -174q-8 -36 -10 -40h3q37 39 85 63.5t95 24.5z" />
    <glyph glyph-name="f_j" horiz-adv-x="456" 
d="M349 732q81 0 121 -20l-23 -50q-13 14 -42.5 24.5t-62.5 10.5q-66 0 -101 -31.5t-49 -101.5l-16 -85h259q-14 -23 -29 -103l-82 -422q-17 -85 -50 -119.5t-88 -34.5q-14 0 -37.5 4t-28.5 4l21 51q14 -23 52 -23q37 0 58.5 28t33.5 90l81 422q10 54 11 68h-208l-67 -344
q-15 -75 -8 -100h-60q14 23 29 100l67 344h-66l7 35h66l16 85q16 84 62 126t134 42z" />
    <glyph glyph-name="f_k" horiz-adv-x="730" 
d="M530 289l86 -192q29 -66 56 -97h-74q3 32 -21 84l-76 175l-133 -128l-6 -28q-9 -54 -10 -68t3 -35h-65q17 26 33 103l100 514q7 37 10 59q-31 21 -93 21q-66 0 -100 -32t-48 -101l-16 -85h112l-8 -41q-19 6 -111 6l-67 -344q-15 -75 -8 -100h-60q14 23 29 100l67 344h-66
l7 35h66l16 85q17 84 62 126t132 42q52 0 98 -14h47q-17 -28 -30 -101l-78 -400q0 -6 -2.5 -13t-5.5 -21h3l227 225q45 45 56 71h74q-39 -24 -106 -91z" />
    <glyph glyph-name="f_t" horiz-adv-x="541" 
d="M373 444l-65 -317q-21 -105 52 -105q24 0 50.5 11.5t33.5 25.5l16 -45q-58 -26 -106 -26q-55 0 -76.5 37.5t-7.5 103.5l66 315h-167l-67 -344q-15 -75 -8 -100h-60q14 23 29 100l67 344h-66l7 35h66l17 88q32 165 167 165q21 0 76 -10l-19 -47q-21 22 -65 22
q-94 0 -120 -130l-17 -88h168l18 85h36l-17 -85h143l-7 -34h-116v-1h-28z" />
    <glyph glyph-name="f_y" horiz-adv-x="639" 
d="M614 479h58l-282 -528q-81 -151 -192 -151q-9 0 -51 7l20 51q13 -22 41 -22q78 0 150 129l13 24l-65 382q-7 48 -16 73h-121l-67 -344q-15 -75 -8 -100h-60q14 23 29 100l67 344h-66l7 35h66l17 88q32 165 167 165q21 0 76 -10l-19 -47q-21 22 -65 22q-94 0 -120 -130
l-17 -88h176l-7 -35h-15l43 -247q18 -103 23 -159h4l84 162l101 188q22 43 29 62t0 29z" />
    <glyph glyph-name="s_p" horiz-adv-x="952" 
d="M410 -200q18 27 33 103l93 480q16 75 7 103q65 16 103 54t38 89q0 46 -40.5 76t-114.5 30q-98 0 -164.5 -50.5t-66.5 -123.5q0 -48 37 -81q12 -4 33 -11.5t29 -10.5l-33 -57q-24 55 -108 55q-57 0 -94 -29t-37 -75q0 -55 85 -82l24 -7q117 -36 117 -115q0 -70 -54.5 -115
t-138.5 -45q-41 0 -100.5 20t-61.5 20l35 62q11 -30 48.5 -48.5t86.5 -18.5q63 0 103 32t40 83q0 54 -93 87l-24 8q-106 34 -106 110q0 64 50.5 106t126.5 42q17 0 25 -1q-23 28 -23 68q0 86 77.5 145.5t191.5 59.5q88 0 135.5 -35.5t47.5 -92.5q0 -50 -34.5 -93t-90.5 -64
l-13 -58h4q73 71 169 71q78 0 119 -43t41 -125q0 -143 -74.5 -239t-184.5 -96q-94 0 -142 67l-30 -152q-16 -77 -8 -103h-63zM659 24q87 0 148.5 84t61.5 204q0 68 -32.5 106t-94.5 38q-91 0 -169 -84l-52 -266q45 -82 138 -82z" />
    <glyph glyph-name="s_t" horiz-adv-x="749" 
d="M158 -12q-41 0 -100.5 20t-61.5 20l35 62q11 -30 48.5 -48.5t86.5 -18.5q63 0 103 32t40 83q0 54 -93 87l-24 8q-106 34 -106 110q0 64 50.5 106t126.5 42q20 0 29 -1q-23 26 -23 68q0 86 78 145.5t190 59.5q88 0 135.5 -35.5t47.5 -92.5q0 -50 -33.5 -92.5t-86.5 -63.5
h136l-7 -38q-27 8 -130 8l-63 -319q-10 -54 2 -80.5t59 -26.5q36 0 67 25l1 -51q-14 -1 -41.5 -5t-37.5 -4q-64 0 -83 37t-6 105l62 319h-71l5 28q88 8 141 49t53 103q0 46 -40.5 76t-114.5 30q-98 0 -164 -50.5t-66 -122.5q0 -52 38 -84q13 -4 33 -11.5t24 -8.5l-33 -57
q-24 55 -108 55q-57 0 -94 -29t-37 -75q0 -55 85 -82l24 -7q117 -36 117 -115q0 -70 -54.5 -115t-138.5 -45z" />
    <glyph glyph-name="a.sc" horiz-adv-x="475" 
d="M-33 0q30 34 70 105l149 260q43 75 56.5 103.5t12.5 42.5h74q-6 -21 -3.5 -45t16.5 -106l44 -255q15 -80 29 -105h-68q12 30 0 97l-11 66h-226l-40 -73q-35 -62 -34 -90h-69zM130 196h202l-26 141q-18 110 -18 140h-4q-36 -72 -74 -140z" />
    <glyph glyph-name="aacute.sc" horiz-adv-x="475" 
d="M286 584l-13 20q91 60 164 156l26 -28q-74 -92 -177 -148zM-33 0q30 34 70 105l149 260q43 75 56.5 103.5t12.5 42.5h74q-6 -21 -3.5 -45t16.5 -106l44 -255q15 -80 29 -105h-68q12 30 0 97l-11 66h-226l-40 -73q-35 -62 -34 -90h-69zM130 196h202l-26 141
q-18 110 -18 140h-4q-36 -72 -74 -140z" />
    <glyph glyph-name="abreve.sc" horiz-adv-x="475" 
d="M306 580q-112 0 -83 145h28q-9 -49 4 -81.5t57 -32.5t70 32.5t35 81.5h28q-25 -145 -139 -145zM-33 0q30 34 70 105l149 260q43 75 56.5 103.5t12.5 42.5h74q-6 -21 -3.5 -45t16.5 -106l44 -255q15 -80 29 -105h-68q12 30 0 97l-11 66h-226l-40 -73q-35 -62 -34 -90h-69z
M130 196h202l-26 141q-18 110 -18 140h-4q-36 -72 -74 -140z" />
    <glyph glyph-name="acircumflex.sc" horiz-adv-x="475" 
d="M186 583l-13 19q83 62 145 145h38q34 -89 89 -145l-20 -19q-57 51 -90 127h-4q-63 -74 -145 -127zM-33 0q30 34 70 105l149 260q43 75 56.5 103.5t12.5 42.5h74q-6 -21 -3.5 -45t16.5 -106l44 -255q15 -80 29 -105h-68q12 30 0 97l-11 66h-226l-40 -73q-35 -62 -34 -90
h-69zM130 196h202l-26 141q-18 110 -18 140h-4q-36 -72 -74 -140z" />
    <glyph glyph-name="adieresis.sc" horiz-adv-x="475" 
d="M249 609q-13 0 -21 8t-8 21q0 16 13 29t30 13q12 0 20 -8t8 -21q0 -16 -12.5 -29t-29.5 -13zM378 609q-13 0 -21 8t-8 21q0 16 13 29t30 13q13 0 21 -8t8 -21q0 -16 -13 -29t-30 -13zM-33 0q30 34 70 105l149 260q43 75 56.5 103.5t12.5 42.5h74q-6 -21 -3.5 -45
t16.5 -106l44 -255q15 -80 29 -105h-68q12 30 0 97l-11 66h-226l-40 -73q-35 -62 -34 -90h-69zM130 196h202l-26 141q-18 110 -18 140h-4q-36 -72 -74 -140z" />
    <glyph glyph-name="agrave.sc" horiz-adv-x="475" 
d="M324 584q-85 61 -120 148l34 26q34 -97 103 -157zM-33 0q30 34 70 105l149 260q43 75 56.5 103.5t12.5 42.5h74q-6 -21 -3.5 -45t16.5 -106l44 -255q15 -80 29 -105h-68q12 30 0 97l-11 66h-226l-40 -73q-35 -62 -34 -90h-69zM130 196h202l-26 141q-18 110 -18 140h-4
q-36 -72 -74 -140z" />
    <glyph glyph-name="amacron.sc" horiz-adv-x="475" 
d="M215 619l7 35h200l-7 -35h-200zM-33 0q30 34 70 105l149 260q43 75 56.5 103.5t12.5 42.5h74q-6 -21 -3.5 -45t16.5 -106l44 -255q15 -80 29 -105h-68q12 30 0 97l-11 66h-226l-40 -73q-35 -62 -34 -90h-69zM130 196h202l-26 141q-18 110 -18 140h-4q-36 -72 -74 -140z
" />
    <glyph glyph-name="aogonek.sc" horiz-adv-x="475" 
d="M342 -152q26 0 45 22l10 -32q-30 -19 -63 -19q-29 0 -47 13t-18 39q0 36 31 71.5t75 57.5h-28q12 30 0 97l-11 66h-226l-40 -73q-35 -62 -34 -90h-69q30 34 70 105l149 260q43 75 56.5 103.5t12.5 42.5h74q-6 -21 -3.5 -45t16.5 -106l44 -255q15 -80 29 -105
q-47 -22 -78.5 -56.5t-31.5 -63.5q0 -32 37 -32zM130 196h202l-26 141q-18 110 -18 140h-4q-36 -72 -74 -140z" />
    <glyph glyph-name="aring.sc" horiz-adv-x="475" 
d="M307 581q-34 0 -54.5 17t-20.5 46q0 40 30.5 68t74.5 28q34 0 54.5 -17t20.5 -46q0 -40 -30.5 -68t-74.5 -28zM312 608q29 0 48 18.5t19 47.5q0 39 -46 39q-30 0 -49 -18.5t-19 -47.5q0 -39 47 -39zM-33 0q30 34 70 105l149 260q43 75 56.5 103.5t12.5 42.5h74
q-6 -21 -3.5 -45t16.5 -106l44 -255q15 -80 29 -105h-68q12 30 0 97l-11 66h-226l-40 -73q-35 -62 -34 -90h-69zM130 196h202l-26 141q-18 110 -18 140h-4q-36 -72 -74 -140z" />
    <glyph glyph-name="atilde.sc" horiz-adv-x="475" 
d="M375 598q-21 0 -39 13.5t-28 29t-24 29t-29 13.5q-50 0 -54 -67l-41 2q31 96 102 96q22 0 39.5 -13.5t27.5 -29.5t24 -29.5t29 -13.5q47 0 55 67l40 -2q-32 -95 -102 -95zM-33 0q30 34 70 105l149 260q43 75 56.5 103.5t12.5 42.5h74q-6 -21 -3.5 -45t16.5 -106l44 -255
q15 -80 29 -105h-68q12 30 0 97l-11 66h-226l-40 -73q-35 -62 -34 -90h-69zM130 196h202l-26 141q-18 110 -18 140h-4q-36 -72 -74 -140z" />
    <glyph glyph-name="ae.sc" horiz-adv-x="680" 
d="M598 -7q-21 7 -117 7h-190q20 26 36 109l12 54h-188l-53 -65q-61 -76 -61 -98h-70q32 24 104 116l239 302q53 67 59 93h218q76 0 103 7l-10 -56q-19 15 -100 15h-139l-37 -188h85q94 0 118 12l-11 -58q-19 12 -114 12h-85l-43 -220h133q94 0 122 14zM177 197h168l55 281
h-4l-71 -96z" />
    <glyph glyph-name="b.sc" horiz-adv-x="474" 
d="M17 0q13 18 20.5 39.5t17.5 73.5l55 286q18 86 6 112h161q158 0 158 -97q0 -62 -36 -99t-100 -43v-2q58 -5 91 -33t33 -76q0 -161 -230 -161h-176zM129 289h85q182 0 182 119q0 38 -32.5 53t-93.5 15h-104zM80 35h117q90 0 137.5 33t47.5 89q0 96 -173 96h-86z" />
    <glyph glyph-name="c.sc" horiz-adv-x="466" 
d="M230 -12q-88 0 -136.5 45t-48.5 136q0 157 71.5 255.5t184.5 98.5q36 0 67 -7.5t56 -18t32 -12.5l-30 -51q-10 23 -44 38.5t-86 15.5q-90 0 -149.5 -91t-59.5 -224q0 -149 148 -149q95 0 137 61l24 -51q-8 -2 -35.5 -14.5t-61 -22t-69.5 -9.5z" />
    <glyph glyph-name="cacute.sc" horiz-adv-x="466" 
d="M307 584l-13 20q91 60 164 156l26 -28q-74 -92 -177 -148zM230 -12q-88 0 -136.5 45t-48.5 136q0 157 71.5 255.5t184.5 98.5q36 0 67 -7.5t56 -18t32 -12.5l-30 -51q-10 23 -44 38.5t-86 15.5q-90 0 -149.5 -91t-59.5 -224q0 -149 148 -149q95 0 137 61l24 -51
q-8 -2 -35.5 -14.5t-61 -22t-69.5 -9.5z" />
    <glyph glyph-name="ccaron.sc" horiz-adv-x="466" 
d="M307 586q-27 81 -87 145l20 18q59 -52 91 -127h4q62 83 138 124l14 -21q-37 -23 -75.5 -62.5t-60.5 -76.5h-44zM230 -12q-88 0 -136.5 45t-48.5 136q0 157 71.5 255.5t184.5 98.5q36 0 67 -7.5t56 -18t32 -12.5l-30 -51q-10 23 -44 38.5t-86 15.5q-90 0 -149.5 -91
t-59.5 -224q0 -149 148 -149q95 0 137 61l24 -51q-8 -2 -35.5 -14.5t-61 -22t-69.5 -9.5z" />
    <glyph glyph-name="ccedilla.sc" horiz-adv-x="466" 
d="M301 523q36 0 67 -7.5t56 -18t32 -12.5l-30 -51q-10 23 -44 38.5t-86 15.5q-90 0 -149.5 -91t-59.5 -224q0 -149 148 -149q95 0 137 61l24 -51q-8 -2 -34.5 -14t-58 -21.5t-66.5 -10.5l-17 -40q35 -7 52 -21t17 -40q0 -47 -38 -67t-122 -25l-1 31q124 4 124 56
q0 20 -16 30t-53 15l27 62q-165 10 -165 180q0 157 71.5 255.5t184.5 98.5z" />
    <glyph glyph-name="cdotaccent.sc" horiz-adv-x="466" 
d="M329 596q-29 0 -29 27q0 22 12 36t32 14q30 0 30 -27q0 -22 -12.5 -36t-32.5 -14zM230 -12q-88 0 -136.5 45t-48.5 136q0 157 71.5 255.5t184.5 98.5q36 0 67 -7.5t56 -18t32 -12.5l-30 -51q-10 23 -44 38.5t-86 15.5q-90 0 -149.5 -91t-59.5 -224q0 -149 148 -149
q95 0 137 61l24 -51q-8 -2 -35.5 -14.5t-61 -22t-69.5 -9.5z" />
    <glyph glyph-name="d.sc" horiz-adv-x="490" 
d="M17 0q13 18 20 39t17 74l56 286q10 48 11.5 67.5t-5.5 44.5h120q101 0 156.5 -41.5t55.5 -140.5q0 -155 -80.5 -242t-230.5 -87h-120zM78 36h65q124 0 193.5 75.5t69.5 213.5q0 151 -176 151h-65z" />
    <glyph glyph-name="eth.sc" horiz-adv-x="493" 
d="M239 511q101 0 156.5 -41.5t55.5 -140.5q0 -155 -80.5 -242t-230.5 -87h-120q13 18 20 39t17 74l26 134h-57l8 36h56l23 116q10 48 11.5 67.5t-5.5 44.5h120zM146 36q124 0 193.5 75.5t69.5 213.5q0 151 -176 151h-65l-38 -193h125l-8 -36h-124l-42 -211h65z" />
    <glyph glyph-name="dcaron.sc" horiz-adv-x="490" 
d="M246 586q-27 81 -87 145l20 18q59 -52 91 -127h4q62 83 138 124l14 -21q-37 -23 -75.5 -62.5t-60.5 -76.5h-44zM17 0q13 18 20 39t17 74l56 286q10 48 11.5 67.5t-5.5 44.5h120q101 0 156.5 -41.5t55.5 -140.5q0 -155 -80.5 -242t-230.5 -87h-120zM78 36h65
q124 0 193.5 75.5t69.5 213.5q0 151 -176 151h-65z" />
    <glyph glyph-name="dcroat.sc" horiz-adv-x="493" 
d="M239 511q101 0 156.5 -41.5t55.5 -140.5q0 -155 -80.5 -242t-230.5 -87h-120q13 18 20 39t17 74l26 134h-57l8 36h56l23 116q10 48 11.5 67.5t-5.5 44.5h120zM146 36q124 0 193.5 75.5t69.5 213.5q0 151 -176 151h-65l-38 -193h125l-8 -36h-124l-42 -211h65z" />
    <glyph glyph-name="e.sc" horiz-adv-x="426" 
d="M343 -7q-21 7 -120 7h-206q13 18 20 39t17 74l56 286q10 48 11.5 67.5t-5.5 44.5h212q80 0 107 7l-11 -58q-20 16 -103 16h-155l-37 -190h96q104 0 126 12l-12 -61q-18 13 -122 13h-95l-42 -214h149q98 0 125 14z" />
    <glyph glyph-name="eacute.sc" horiz-adv-x="426" 
d="M272 584l-13 20q91 60 164 156l26 -28q-74 -92 -177 -148zM343 -7q-21 7 -120 7h-206q13 18 20 39t17 74l56 286q10 48 11.5 67.5t-5.5 44.5h212q80 0 107 7l-11 -58q-20 16 -103 16h-155l-37 -190h96q104 0 126 12l-12 -61q-18 13 -122 13h-95l-42 -214h149q98 0 125 14
z" />
    <glyph glyph-name="ecaron.sc" horiz-adv-x="426" 
d="M272 586q-27 81 -87 145l20 18q59 -52 91 -127h4q62 83 138 124l14 -21q-37 -23 -75.5 -62.5t-60.5 -76.5h-44zM343 -7q-21 7 -120 7h-206q13 18 20 39t17 74l56 286q10 48 11.5 67.5t-5.5 44.5h212q80 0 107 7l-11 -58q-20 16 -103 16h-155l-37 -190h96q104 0 126 12
l-12 -61q-18 13 -122 13h-95l-42 -214h149q98 0 125 14z" />
    <glyph glyph-name="ecircumflex.sc" horiz-adv-x="426" 
d="M172 583l-13 19q83 62 145 145h38q34 -89 89 -145l-20 -19q-57 51 -90 127h-4q-63 -74 -145 -127zM343 -7q-21 7 -120 7h-206q13 18 20 39t17 74l56 286q10 48 11.5 67.5t-5.5 44.5h212q80 0 107 7l-11 -58q-20 16 -103 16h-155l-37 -190h96q104 0 126 12l-12 -61
q-18 13 -122 13h-95l-42 -214h149q98 0 125 14z" />
    <glyph glyph-name="edieresis.sc" horiz-adv-x="426" 
d="M234 609q-13 0 -21 8t-8 21q0 16 13 29t30 13q12 0 20 -8t8 -21q0 -16 -12.5 -29t-29.5 -13zM363 609q-13 0 -21 8t-8 21q0 16 13 29t30 13q13 0 21 -8t8 -21q0 -16 -13 -29t-30 -13zM343 -7q-21 7 -120 7h-206q13 18 20 39t17 74l56 286q10 48 11.5 67.5t-5.5 44.5h212
q80 0 107 7l-11 -58q-20 16 -103 16h-155l-37 -190h96q104 0 126 12l-12 -61q-18 13 -122 13h-95l-42 -214h149q98 0 125 14z" />
    <glyph glyph-name="edotaccent.sc" horiz-adv-x="426" 
d="M294 596q-29 0 -29 27q0 22 12 36t32 14q30 0 30 -27q0 -22 -12.5 -36t-32.5 -14zM343 -7q-21 7 -120 7h-206q13 18 20 39t17 74l56 286q10 48 11.5 67.5t-5.5 44.5h212q80 0 107 7l-11 -58q-20 16 -103 16h-155l-37 -190h96q104 0 126 12l-12 -61q-18 13 -122 13h-95
l-42 -214h149q98 0 125 14z" />
    <glyph glyph-name="egrave.sc" horiz-adv-x="426" 
d="M310 584q-85 61 -120 148l34 26q34 -97 103 -157zM343 -7q-21 7 -120 7h-206q13 18 20 39t17 74l56 286q10 48 11.5 67.5t-5.5 44.5h212q80 0 107 7l-11 -58q-20 16 -103 16h-155l-37 -190h96q104 0 126 12l-12 -61q-18 13 -122 13h-95l-42 -214h149q98 0 125 14z" />
    <glyph glyph-name="emacron.sc" horiz-adv-x="426" 
d="M200 619l7 35h200l-7 -35h-200zM343 -7q-21 7 -120 7h-206q13 18 20 39t17 74l56 286q10 48 11.5 67.5t-5.5 44.5h212q80 0 107 7l-11 -58q-20 16 -103 16h-155l-37 -190h96q104 0 126 12l-12 -61q-18 13 -122 13h-95l-42 -214h149q98 0 125 14z" />
    <glyph glyph-name="eogonek.sc" horiz-adv-x="426" 
d="M321 476h-155l-37 -190h96q104 0 126 12l-12 -61q-18 13 -122 13h-95l-42 -214h149q98 0 125 14l-11 -56h1h-1v-1h-1q-46 -22 -77 -56t-31 -63q0 -32 37 -32q26 0 45 22l10 -32q-30 -19 -63 -19q-29 0 -47 13t-18 39q0 38 34 75t81 58q-38 2 -90 2h-206q13 18 20 39
t17 74l56 286q10 48 11.5 67.5t-5.5 44.5h212q80 0 107 7l-11 -58q-20 16 -103 16z" />
    <glyph glyph-name="f.sc" horiz-adv-x="411" 
d="M17 0q13 17 20 38t18 75l56 286q7 35 9.5 50.5t2 32.5t-6.5 29h214q82 0 107 7l-10 -58q-18 16 -104 16h-156l-41 -211h91q102 0 126 12l-11 -61q-18 13 -123 13h-91l-22 -116q-18 -87 -5 -113h-74z" />
    <glyph glyph-name="g.sc" horiz-adv-x="505" 
d="M220 -12q-83 0 -129.5 44.5t-46.5 135.5q0 158 75 256.5t199 98.5q53 0 105.5 -17t54.5 -17l-37 -57q-16 54 -130 54q-100 0 -162 -88.5t-62 -225.5q0 -147 141 -147q86 0 139 36l31 158q-103 0 -132 -14l9 47h178q-16 -31 -26 -89l-3 -19q-13 -73 -10 -105
q-102 -51 -194 -51z" />
    <glyph glyph-name="gbreve.sc" horiz-adv-x="505" 
d="M318 580q-112 0 -83 145h28q-9 -49 4 -81.5t57 -32.5t70 32.5t35 81.5h28q-25 -145 -139 -145zM220 -12q-83 0 -129.5 44.5t-46.5 135.5q0 158 75 256.5t199 98.5q53 0 105.5 -17t54.5 -17l-37 -57q-16 54 -130 54q-100 0 -162 -88.5t-62 -225.5q0 -147 141 -147
q86 0 139 36l31 158q-103 0 -132 -14l9 47h178q-16 -31 -26 -89l-3 -19q-13 -73 -10 -105q-102 -51 -194 -51z" />
    <glyph glyph-name="uni0123.sc" horiz-adv-x="505" 
d="M220 -12q-83 0 -129.5 44.5t-46.5 135.5q0 158 75 256.5t199 98.5q53 0 105.5 -17t54.5 -17l-37 -57q-16 54 -130 54q-100 0 -162 -88.5t-62 -225.5q0 -147 141 -147q86 0 139 36l31 158q-103 0 -132 -14l9 47h178q-16 -31 -26 -89l-3 -19q-13 -73 -10 -105
q-102 -51 -194 -51zM165 -208l-10 19q28 11 47 33t24 42q-2 -2 -10 -2q-11 0 -19 7.5t-8 20.5q0 19 12 32t29 13q32 0 32 -36q0 -37 -28.5 -75.5t-68.5 -53.5z" />
    </font>
</defs>
</svg>
