<svg width="49" height="37" viewBox="0 0 49 37" fill="none" xmlns="http://www.w3.org/2000/svg">
<path d="M41.5053 3.19359C38.4227 1.77921 35.1171 0.737106 31.6608 0.1402C31.5979 0.128675 31.535 0.157486 31.5026 0.215014C31.0774 0.971183 30.6065 1.95756 30.2768 2.7329C26.5594 2.17633 22.861 2.17633 19.2199 2.7329C18.89 1.94037 18.402 0.971183 17.975 0.215014C17.9426 0.159376 17.8797 0.130565 17.8167 0.1402C14.3625 0.735122 11.0568 1.77723 7.97228 3.19359C7.94554 3.20512 7.92268 3.22429 7.90748 3.24923C1.63746 12.6166 -0.0802438 21.7537 0.762359 30.7775C0.766137 30.8216 0.790981 30.8638 0.82527 30.8907C4.96205 33.9287 8.96932 35.773 12.9021 36.9956C12.965 37.0147 13.0317 36.9918 13.0717 36.9399C14.002 35.6695 14.8313 34.3299 15.5423 32.9212C15.5842 32.8387 15.5442 32.7408 15.4584 32.7082C14.143 32.2093 12.8905 31.6008 11.6857 30.91C11.5904 30.8544 11.5827 30.7181 11.6705 30.6528C11.924 30.4628 12.1776 30.2651 12.4197 30.0655C12.4636 30.0291 12.5246 30.0214 12.5761 30.0444C20.4913 33.6582 29.0604 33.6582 36.8821 30.0444C36.9336 30.0194 36.9946 30.0272 37.0404 30.0635C37.2826 30.2631 37.5361 30.4627 37.7915 30.6527C37.8792 30.718 37.8734 30.8543 37.7782 30.9099C36.5733 31.6142 35.3209 32.2092 34.0036 32.7062C33.9178 32.7388 33.8797 32.8386 33.9217 32.9211C34.648 34.3278 35.4773 35.6674 36.3904 36.9379C36.4285 36.9917 36.4971 37.0147 36.56 36.9955C40.5118 35.773 44.5191 33.9286 48.6559 30.8907C48.6922 30.8638 48.715 30.8235 48.7188 30.7794C49.7273 20.3469 47.0297 11.2847 41.568 3.25112C41.5548 3.22429 41.5319 3.20512 41.5053 3.19359ZM16.7245 25.2829C14.3415 25.2829 12.3779 23.0952 12.3779 20.4083C12.3779 17.7215 14.3033 15.5337 16.7245 15.5337C19.1645 15.5337 21.1091 17.7407 21.071 20.4083C21.071 23.0952 19.1454 25.2829 16.7245 25.2829ZM32.795 25.2829C30.4121 25.2829 28.4486 23.0952 28.4486 20.4083C28.4486 17.7215 30.374 15.5337 32.795 15.5337C35.2352 15.5337 37.1797 17.7407 37.1416 20.4083C37.1416 23.0952 35.2353 25.2829 32.795 25.2829Z" fill="#D9D9D9"/>
</svg>
