<svg width="45" height="74" viewBox="0 0 45 74" fill="none" xmlns="http://www.w3.org/2000/svg">
<path d="M32.5954 34.3199C32.2243 35.166 32.0326 36.082 32.0326 37.0083C32.0326 37.9345 32.2243 38.8505 32.5954 39.6966L44.1595 66.0647C47.3405 72.3756 40.7526 76.0051 36.7272 72.83C29.2574 66.9379 10.3313 49.2055 1.76175 41.114C1.20599 40.5894 0.762694 39.9541 0.459571 39.2476C0.156448 38.5412 3.16655e-06 37.7789 3.23392e-06 37.0083C3.30129e-06 36.2376 0.156448 35.4753 0.459571 34.7689C0.762695 34.0624 1.20599 33.4271 1.76175 32.9025C10.3313 24.811 29.2574 7.07859 36.7272 1.18654C40.8523 -2.06723 47.2811 1.7586 44.1595 7.95183L32.5954 34.3199Z" fill="url(#paint0_linear_635_172)"/>
<defs>
<linearGradient id="paint0_linear_635_172" x1="58.4257" y1="57.5666" x2="17.3208" y2="17.0947" gradientUnits="userSpaceOnUse">
<stop stop-color="white"/>
<stop offset="1" stop-color="#CDCDCD"/>
</linearGradient>
</defs>
</svg>
