<svg width="45" height="74" viewBox="0 0 45 74" fill="none" xmlns="http://www.w3.org/2000/svg">
<path id="Vector" d="M12.4046 39.6801C12.7757 38.834 12.9675 37.918 12.9675 36.9917C12.9675 36.0655 12.7757 35.1495 12.4046 34.3034L0.840517 7.93532C-2.34046 1.62437 4.24741 -2.0051 8.27279 1.17003C15.7426 7.06208 34.6687 24.7945 43.2383 32.8859C43.794 33.4106 44.2373 34.0459 44.5404 34.7524C44.8436 35.4588 45 36.2211 45 36.9917C45 37.7624 44.8436 38.5247 44.5404 39.2311C44.2373 39.9376 43.794 40.5729 43.2383 41.0975C34.6687 49.189 15.7426 66.9214 8.27279 72.8135C4.14772 76.0672 -2.28112 72.2414 0.840517 66.0482L12.4046 39.6801Z" fill="url(#paint0_linear_635_169)"/>
<defs>
<linearGradient id="paint0_linear_635_169" x1="-13.4257" y1="16.4334" x2="27.6792" y2="56.9053" gradientUnits="userSpaceOnUse">
<stop stop-color="white"/>
<stop offset="1" stop-color="#CDCDCD"/>
</linearGradient>
</defs>
</svg>
