<svg width="39" height="34" viewBox="0 0 39 34" fill="none" xmlns="http://www.w3.org/2000/svg">
<path d="M38.5872 4.53832C37.1639 5.19693 35.6474 5.63348 34.0663 5.84544C35.6929 4.82094 36.9343 3.211 37.518 1.2705C36.0014 2.22435 34.327 2.8981 32.5426 3.27409C31.1027 1.65658 29.0503 0.654785 26.8114 0.654785C22.4676 0.654785 18.9705 4.37429 18.9705 8.9341C18.9705 9.59019 19.0231 10.221 19.1523 10.8216C12.6294 10.486 6.85751 7.1879 2.9801 2.16379C2.30317 3.40278 1.9061 4.82094 1.9061 6.3476C1.9061 9.2142 3.30541 11.7553 5.39122 13.2264C4.13064 13.2012 2.89399 12.8151 1.8463 12.207C1.8463 12.2322 1.8463 12.265 1.8463 12.2978C1.8463 16.3201 4.56598 19.6611 8.13243 20.4308C7.49377 20.615 6.79771 20.7033 6.07533 20.7033C5.57301 20.7033 5.06591 20.673 4.5899 20.562C5.6065 23.8399 8.49123 26.2497 11.9213 26.328C9.25188 28.5309 5.86244 29.8582 2.19314 29.8582C1.54969 29.8582 0.932561 29.8279 0.31543 29.7447C3.79098 32.1091 7.90998 33.4591 12.3519 33.4591C26.7899 33.4591 34.6835 20.8421 34.6835 9.90561C34.6835 9.53972 34.6715 9.18644 34.6547 8.83568C36.2119 7.66987 37.5203 6.21386 38.5872 4.53832Z" fill="#D9D9D9"/>
</svg>
